<?xml version="1.0" encoding="iso-8859-1"?>
<!-- Generator: Adobe Illustrator 19.1.1, SVG Export Plug-In . SVG Version: 6.00 Build 0)  -->
<svg version="1.1" id="Layer_1" xmlns="http://www.w3.org/2000/svg" xmlns:xlink="http://www.w3.org/1999/xlink" x="0px" y="0px"
	 viewBox="0 0 32 32" style="enable-background:new 0 0 32 32;" xml:space="preserve">
<rect x="7" y="13" style="fill:none;stroke:#000000;stroke-width:2;stroke-miterlimit:10;" width="18" height="15"/>
<rect x="11" y="19" style="fill:none;stroke:#000000;stroke-width:2;stroke-miterlimit:10;" width="10" height="5"/>
<path style="fill:none;stroke:#000000;stroke-width:2;stroke-miterlimit:10;" d="M18,19h-4v-1.979C14,16.457,14.457,16,15.021,16
	h1.958C17.543,16,18,16.457,18,17.021V19z"/>
<polygon points="13,5 17,5 18,6 19,5 21,5 22,6 22,7 21,8 13,8 "/>
<path style="fill:none;stroke:#000000;stroke-width:2;stroke-miterlimit:10;" d="M12.5,4C11.119,4,10,5.119,10,6.5S11.119,9,12.5,9
	S15,7.881,15,6.5S13.881,4,12.5,4z"/>
</svg>
