<?xml version="1.0" encoding="iso-8859-1"?>
<!-- Generator: Adobe Illustrator 19.1.0, SVG Export Plug-In . SVG Version: 6.00 Build 0)  -->
<svg version="1.1" id="Layer_1" xmlns="http://www.w3.org/2000/svg" xmlns:xlink="http://www.w3.org/1999/xlink" x="0px" y="0px"
	 viewBox="0 0 32 32" style="enable-background:new 0 0 32 32;" xml:space="preserve">
<path id="XMLID_135_" style="fill:none;stroke:#000000;stroke-width:2;stroke-miterlimit:10;" d="M7,23c0,0.984,1.328,2,3,2s3-1,3-2
	"/>
<path id="XMLID_136_" style="fill:none;stroke:#000000;stroke-width:2;stroke-miterlimit:10;" d="M13,23c0,0.984,1.328,2,3,2
	s3-1,3-2"/>
<path id="XMLID_137_" style="fill:none;stroke:#000000;stroke-width:2;stroke-miterlimit:10;" d="M19,23c0,0.984,1.328,2,3,2
	s3-1,3-2"/>
<path id="XMLID_1_" style="fill:none;stroke:#000000;stroke-width:2;stroke-miterlimit:10;" d="M25,23c0,0.984,1.328,2,3,2s3-1,3-2"
	/>
<path id="XMLID_2_" style="fill:none;stroke:#000000;stroke-width:2;stroke-miterlimit:10;" d="M1,23c0,0.984,1.328,2,3,2s3-1,3-2"
	/>
<path style="fill:none;stroke:#000000;stroke-width:2;stroke-miterlimit:10;" d="M25,24c0.938,0,4-4.375,4-10h-7L20,17H4v8"/>
<polygon style="fill:none;stroke:#000000;stroke-width:2;stroke-miterlimit:10;" points="12,17 12,13 13,10 6,10 6,17 "/>
<line style="fill:none;stroke:#000000;stroke-width:2;stroke-miterlimit:10;" x1="9" y1="10" x2="9" y2="6"/>
<rect x="24" y="16" width="2" height="2"/>
</svg>
