<?xml version="1.0" encoding="iso-8859-1"?>
<!-- Generator: Adobe Illustrator 19.1.1, SVG Export Plug-In . SVG Version: 6.00 Build 0)  -->
<svg version="1.1" id="Layer_1" xmlns="http://www.w3.org/2000/svg" xmlns:xlink="http://www.w3.org/1999/xlink" x="0px" y="0px"
	 viewBox="-8 10 32 32" style="enable-background:new -8 10 32 32;" xml:space="preserve">
<path d="M8,12.671l-9.066,7.933l2.124,14.867L4.586,39h6.828l3.528-3.528l2.124-14.867L8,12.671z M4.387,21.678l-2.5-1l4-3.5
	L4.387,21.678z M8,17.162L9.613,22H6.388L8,17.162z M6,24h4v13H6V24z M11.613,21.678l-1.5-4.5l4,3.5L11.613,21.678z M1.234,22.57
	L4,23.677v11.909l-1.057-1.057L1.234,22.57z M12,35.586V23.677l2.766-1.106l-1.708,11.957L12,35.586z"/>
</svg>
