<?xml version="1.0" encoding="iso-8859-1"?>
<!-- Generator: Adobe Illustrator 19.1.1, SVG Export Plug-In . SVG Version: 6.00 Build 0)  -->
<svg version="1.1" id="Layer_1" xmlns="http://www.w3.org/2000/svg" xmlns:xlink="http://www.w3.org/1999/xlink" x="0px" y="0px"
	 viewBox="0 0 32 32" style="enable-background:new 0 0 32 32;" xml:space="preserve">
<g>
	<polygon points="14.8,19 13,19 13,21 16.8,21 	"/>
	<polygon points="7,8.372 7,7 25,7 25,15 13.628,15 15.628,17 25,17 25,25 23.628,25 25.628,27 27,27 27,5 5,5 5,6.372 	"/>
	<polygon points="17.628,19 19,20.372 19,19 	"/>
	<polygon points="20.8,25 7,25 7,17 12.8,17 10.8,15 7,15 7,11.2 5,9.2 5,27 22.8,27 	"/>
	<rect x="13" y="9" width="6" height="2"/>
</g>
<line style="fill:none;stroke:#000000;stroke-width:2;stroke-miterlimit:10;" x1="3" y1="3" x2="29" y2="29"/>
</svg>
