<?xml version="1.0" encoding="iso-8859-1"?>
<!-- Generator: Adobe Illustrator 19.1.1, SVG Export Plug-In . SVG Version: 6.00 Build 0)  -->
<svg version="1.1" id="Layer_1" xmlns="http://www.w3.org/2000/svg" xmlns:xlink="http://www.w3.org/1999/xlink" x="0px" y="0px"
	 viewBox="0 0 32 32" style="enable-background:new 0 0 32 32;" xml:space="preserve">
<line style="fill:none;stroke:#000000;stroke-width:2;stroke-linecap:round;stroke-linejoin:round;stroke-miterlimit:10;" x1="15" y1="19" x2="17.391" y2="16.609"/>
<path style="fill:none;stroke:#000000;stroke-width:2;stroke-linecap:round;stroke-linejoin:round;stroke-miterlimit:10;" d="
	M18.423,6.815c2.42-2.42,6.342-2.42,8.762,0s2.42,6.342,0,8.762c-0.497,0.497-3.111,3.111-3.608,3.608
	c-2.42,2.42-6.342,2.42-8.762,0s-2.42-6.342,0-8.762C15.311,9.926,17.926,7.311,18.423,6.815z"/>
<path style="fill:none;stroke:#000000;stroke-width:2;stroke-miterlimit:10;" d="M18.333,17c-0.341,0-0.682-0.13-0.943-0.391
	c-0.521-0.521-0.521-1.365,0-1.885l1.333-1.333c0.521-0.521,1.365-0.521,1.885,0c0.521,0.521,0.521,1.365,0,1.885l-1.333,1.333
	C19.015,16.87,18.675,17,18.333,17z"/>
<path d="M19.196,23.996c-0.601,0-1.192-0.059-1.769-0.17L16,25.253L5.869,15.122C5.35,14.605,4,12.95,4,11.5C4,8.468,6.467,6,9.5,6
	c1.55,0,2.987,0.728,4.038,1.457l1.434-1.434C13.655,5.056,11.714,4,9.5,4C5.364,4,2,7.364,2,11.5c0,2.589,2.364,4.946,2.459,5.04
	L16,28.081l4.133-4.133C19.823,23.979,19.511,23.996,19.196,23.996z"/>
</svg>
