<?xml version="1.0" encoding="iso-8859-1"?>
<!-- Generator: Adobe Illustrator 19.2.0, SVG Export Plug-In . SVG Version: 6.00 Build 0)  -->
<svg version="1.1" id="Layer_1" xmlns="http://www.w3.org/2000/svg" xmlns:xlink="http://www.w3.org/1999/xlink" x="0px" y="0px"
	 viewBox="0 0 32 32" style="enable-background:new 0 0 32 32;" xml:space="preserve">
<path style="fill:none;stroke:#000000;stroke-width:2;stroke-miterlimit:10;" d="M23.094,17.588c0.354,0,1.788-0.021,2.518-1.063
	c0.5-0.848,2.377-0.943,2.377-0.943s0.2-1.746-1.1-3.491c-1.3-1.746-4.505-3.604-7.798-1.586"/>
<path style="fill:none;stroke:#000000;stroke-width:2;stroke-miterlimit:10;" d="M16.611,24.315
	c0.387,1.147,1.803,1.332,2.473,1.643c1.2,0.549,1.153,2.042,1.153,2.042h0.143c0.408-0.106,1.625-0.576,2.808-2.244
	c2.151-4.09-0.157-7.815-0.807-8.463"/>
<path style="fill:none;stroke:#000000;stroke-width:2;stroke-miterlimit:10;" d="M8.935,19.287
	c-1.139,0.735-0.992,2.184-1.353,3.278c-0.373,1.129-1.651,1.595-1.651,1.595v0.133C6.328,24.855,8.105,27,10.713,27
	c1.682,0,4.471-0.673,5.971-3.465"/>
<path style="fill:none;stroke:#000000;stroke-width:2;stroke-miterlimit:10;" d="M10.678,10.861
	c-0.823-0.71-2.807-0.264-3.596-0.117c-0.15,0-0.25,0.05-0.4,0.05c-0.9,0-1.551-1.097-1.551-1.097h-0.11
	c-0.317,0.335-1.197,1.569-0.991,3.541c0.45,4.588,4.954,5.822,5.605,5.922"/>
<path style="fill:none;stroke:#000000;stroke-width:2;stroke-miterlimit:10;" d="M19.476,10.104c0.675-1.393-0.86-2.985-1.241-3.649
	c-0.557-1.067,0.151-1.916,0.35-2.137V4.261c0,0-1.651-0.648-3.701,0.1c-1.701,0.598-4.319,3.379-3.862,7.152"/>
<path style="fill:none;stroke:#000000;stroke-width:2;stroke-miterlimit:10;" d="M18,15v-0.618C18,13.619,17.381,13,16.618,13
	h-1.236C14.619,13,14,13.619,14,14.382v0c0,2.184,4,2.251,4,4.236v0C18,19.381,17.381,20,16.618,20h-1.236
	C14.619,20,14,19.381,14,18.618V18"/>
<line style="fill:none;stroke:#000000;stroke-width:2;stroke-miterlimit:10;" x1="16" y1="13" x2="16" y2="11"/>
<line style="fill:none;stroke:#000000;stroke-width:2;stroke-miterlimit:10;" x1="16" y1="22" x2="16" y2="20"/>
</svg>
