<?xml version="1.0" encoding="iso-8859-1"?>
<!-- Generator: Adobe Illustrator 21.0.0, SVG Export Plug-In . SVG Version: 6.00 Build 0)  -->
<svg version="1.1" 
	 xmlns="http://www.w3.org/2000/svg" xmlns:xlink="http://www.w3.org/1999/xlink" x="0px" y="0px" viewBox="0 0 32 32"
	 style="enable-background:new 0 0 32 32;" xml:space="preserve">
<path style="fill:none;stroke:#000000;stroke-miterlimit:10;" d="M10.099,22.774c-0.387,0.224-6.557,3.683-6.585,3.94
	c-0.029,0.257-0.029,0.257-0.029,0.257L4.5,29.5h23c0,0,1.071-3.438,1.014-4.3c-0.027-0.403-3.457-2.95-3.457-2.95
	s2.971-3.227,2.457-10.502c-0.482-6.817-4.626-9.176-9.256-9.348C13.629,2.229,11,4.4,11,4.4S8.064,5.371,7.764,7.743
	c0,0-2.294,0.551-1.069,5.181c-1.57,0.791-1.454,3.573-0.181,4.933c1.215,1.299,2.202,0.992,2.202,0.992S9.113,21.177,10.099,22.774
	z"/>
<path style="fill:none;stroke:#000000;stroke-miterlimit:10;" d="M7.764,7.743c0,0,1.502-0.393,3.095-0.543
	c0.171,0.371,0.727,0.549,0.527,1.606s-1.147,2.764-0.672,4.109c0.283,0.801,0.366,1.439,0.366,1.439l-1.051,0.361
	c0,0-0.372-3.447-3.333-1.79"/>
<path style="fill:none;stroke:#000000;stroke-miterlimit:10;" d="M11.038,7.549c0,0,2.377-5.373,8.57-5.033"/>
<path style="fill:none;stroke:#000000;stroke-miterlimit:10;" d="M7.046,14.714c1.314-1.086,1.888,1.083,1.888,1.083"/>
<path style="fill:none;stroke:#000000;stroke-miterlimit:10;" d="M14.262,10.126c0,0,0.155-2.926,3.232-2.21"/>
<path style="fill:none;stroke:#000000;stroke-miterlimit:10;" d="M18.188,10.22c0,0,0.775,1.836,1.155,2.466
	c0.368,0.61-0.916,1.067-2.533,0.366"/>
<path style="fill:none;stroke:#000000;stroke-miterlimit:10;" d="M25.5,10.126c0,0,1.151,1.944,1.186,2.102
	c0.114,0.517-1.025,0.772-2.157,0.445"/>
<path style="fill:none;stroke:#000000;stroke-miterlimit:10;" d="M23.608,7.966c0,0,2.112-1.341,3.465,1.055"/>
<path style="fill:none;stroke:#000000;stroke-miterlimit:10;" d="M22.02,10.629c0,0,0.027,2.167,1.766,3.743
	c1.641,1.488,1.569,1.928,1.005,2.435c-0.564,0.507-2.42,1.079-3.506,1.05c-1.086-0.029-0.745-1.363-0.745-1.363"/>
<path style="fill:none;stroke:#000000;stroke-miterlimit:10;" d="M22.486,19.4c0,0-2.314,0.661-4.227-0.893"/>
<path style="fill:none;stroke:#000000;stroke-miterlimit:10;" d="M23.157,19.246c0,0,1.569-0.088,2.504-1.153"/>
<path style="fill:none;stroke:#000000;stroke-miterlimit:10;" d="M22.486,21.539c0,0-4.053,0.542-4.673-1.68"/>
<path style="fill:none;stroke:#000000;stroke-miterlimit:10;" d="M25.057,22.25c0,0-1.458,1.979-4.601,2.207
	c-3.142,0.229-5.285-1.735-6.285-2.796c-1-1.061-1.179-1.973-1.179-1.973"/>
<path style="fill:none;stroke:#000000;stroke-miterlimit:10;" d="M14.857,24.771c-3.434-0.042-4.758-1.997-4.758-1.997
	s0.275,0.86,1.279,2.165c1.106,1.438,3.369,1.704,3.369,1.704"/>
<path style="fill:none;stroke:#000000;stroke-miterlimit:10;" d="M25.5,29.5c0,0,0,0-0.082-0.73
	c-0.054-0.475-0.618-0.627-0.618-0.627"/>
<path style="fill:none;stroke:#000000;stroke-miterlimit:10;" d="M19.948,27.703c0.833,0.625,1.459,0,1.459,0
	s2.086,0.964,3.288,0.362c0.786-0.394,0.452-2.112,0.363-2.865c-0.114-0.971-0.714-1.486-1.457-1.343
	c-0.531,0.102-1.892,1.158-2.625,1.752c-0.292,0.237-1.029,0.115-1.029,0.115L17.8,24.601c-1.343-0.659-3.371-0.887-3.143,1.084
	c0.229,1.971,0.035,3.669,1.736,3.546s3.67-1.451,3.67-1.451"/>
<line style="fill:none;stroke:#000000;stroke-miterlimit:10;" x1="20.377" y1="29.455" x2="19.754" y2="28.235"/>
<line style="fill:none;stroke:#000000;stroke-miterlimit:10;" x1="22.929" y1="29.824" x2="22.929" y2="27.876"/>
<path style="fill:none;stroke:#000000;stroke-miterlimit:10;" d="M8.717,18.849c0,0,0.518-0.036,1.143-0.802"/>
<path style="fill:none;stroke:#000000;stroke-miterlimit:10;" d="M7.929,14.714c0,0-0.453,1.035-0.308,1.832"/>
<circle style="fill:none;stroke:#000000;stroke-miterlimit:10;" cx="20.609" cy="26.898" r="0.978"/>
</svg>
