<?xml version="1.0" encoding="iso-8859-1"?>
<!-- Generator: Adobe Illustrator 19.2.0, SVG Export Plug-In . SVG Version: 6.00 Build 0)  -->
<svg version="1.1" id="Layer_1" xmlns="http://www.w3.org/2000/svg" xmlns:xlink="http://www.w3.org/1999/xlink" x="0px" y="0px"
	 viewBox="0 0 32 32" style="enable-background:new 0 0 32 32;" xml:space="preserve">
<polyline style="fill:none;stroke:#000000;stroke-width:2;stroke-miterlimit:10;" points="28,19 25,23 29,23 "/>
<polyline style="fill:none;stroke:#000000;stroke-width:2;stroke-miterlimit:10;" points="4,19 7,23 3,23 "/>
<rect x="7" y="22" width="7" height="2"/>
<rect x="18" y="22" width="7" height="2"/>
<path d="M25,7.947V4h-6h-6H7v3.947L4.89,28h8.892L16,19.123L18.219,28h8.892L25,7.947z M18,6c0.552,0,1,0.448,1,1
	c0,0.552-0.448,1-1,1s-1-0.448-1-1C17,6.448,17.448,6,18,6z M14,6c0.552,0,1,0.448,1,1c0,0.552-0.448,1-1,1s-1-0.448-1-1
	C13,6.448,13.448,6,14,6z M19.781,26l-2.75-11h-2.062l-2.75,11H7.11L8.994,8.104L9,6h2v3v3l1,1l1-1V9.8l3,1.2l3-1.2V12l1,1l1-1V9V6
	h2v2l1.89,18H19.781z"/>
</svg>
