<?xml version="1.0" encoding="iso-8859-1"?>
<!-- Generator: Adobe Illustrator 19.2.0, SVG Export Plug-In . SVG Version: 6.00 Build 0)  -->
<svg version="1.1" id="Layer_1" xmlns="http://www.w3.org/2000/svg" xmlns:xlink="http://www.w3.org/1999/xlink" x="0px" y="0px"
	 viewBox="0 0 32 32" style="enable-background:new 0 0 32 32;" xml:space="preserve">
<path style="fill:none;stroke:#000000;stroke-width:2;stroke-linejoin:round;stroke-miterlimit:10;" d="M5,14c0,0,4.347,2,11,2
	s11-2,11-2"/>
<path d="M16.667,4h-1.333C11.841,4,9,6.841,9,10.333v2.446l2,0.909v-3.355C11,7.943,12.944,6,15.333,6h1.333
	C19.056,6,21,7.943,21,10.333v3.355l2-0.909v-2.446C23,6.841,20.159,4,16.667,4z"/>
<path style="fill:none;stroke:#000000;stroke-width:2;stroke-miterlimit:10;" d="M9,15.376c0,0,0,1.715,0,2.408
	c0,1.24,1,1.823,1,1.823V21c0,3.314,2.686,6,6,6h0c3.314,0,6-2.686,6-6v-1.393c0,0,1-0.584,1-1.823c0-0.692,0-2.408,0-2.408"/>
<g>
	<path d="M15,18.625c-0.828,0-1.5,0.691-1.5,1.544c0,1.544,1.448,2.831,2,2.831c0.183,0,0.352-0.054,0.5-0.143
		C16.148,22.946,16.317,23,16.5,23c0.552,0,2-1.029,2-2.831c0-0.853-0.672-1.544-1.5-1.544c-0.385,0-0.734,0.15-1,0.396
		C15.734,18.775,15.385,18.625,15,18.625L15,18.625z"/>
</g>
<path d="M17.593,17.454c0.595-0.524,0.621-1.455,0.621-1.455s-0.934-0.018-1.546,0.545c-0.613,0.564-0.672,1.454-0.672,1.454
	S16.998,17.978,17.593,17.454z"/>
</svg>
