<?xml version="1.0" encoding="iso-8859-1"?>
<!-- Generator: Adobe Illustrator 19.2.0, SVG Export Plug-In . SVG Version: 6.00 Build 0)  -->
<svg version="1.1" xmlns="http://www.w3.org/2000/svg" xmlns:xlink="http://www.w3.org/1999/xlink" x="0px" y="0px"
	 viewBox="0 0 32 32" style="enable-background:new 0 0 32 32;" xml:space="preserve">
<g >
	<g>
		<path d="M16,5.167l10,4.167v8.203l-10,5.208L6,17.537V9.333L16,5.167 M16,3L4,8v10.75L16,25l12-6.25V8L16,3L16,3z"/>
	</g>
	<path d="M20.958,22.418C20.741,24.977,18.614,27,16,27s-4.741-2.023-4.958-4.582l-2.01-1.047C9.013,21.578,9,21.788,9,22
		c0,3.859,3.141,7,7,7s7-3.141,7-7c0-0.212-0.013-0.422-0.032-0.629L20.958,22.418z"/>
	<polyline style="fill:none;stroke:#000000;stroke-width:2;stroke-miterlimit:10;" points="5.566,8.816 16,14 26.8,8.625 	"/>
	<polyline style="fill:none;stroke:#000000;stroke-width:2;stroke-miterlimit:10;" points="26.434,8.816 16,14 16,23.365 	"/>
	<polygon points="18,10.382 18,8 15.006,8.613 14.996,7 11.648,5.437 10.366,5.986 14,7.668 14.013,10 17,9.389 17,11 19,12 
		20.118,11.441 	"/>
</g>
<g >
</g>
</svg>
