<?xml version="1.0" encoding="iso-8859-1"?>
<!-- Generator: Adobe Illustrator 19.1.1, SVG Export Plug-In . SVG Version: 6.00 Build 0)  -->
<svg version="1.1" id="Layer_1" xmlns="http://www.w3.org/2000/svg" xmlns:xlink="http://www.w3.org/1999/xlink" x="0px" y="0px"
	 viewBox="0 0 32 32" style="enable-background:new 0 0 32 32;" xml:space="preserve">
<polygon style="fill:none;stroke:#000000;stroke-width:2;stroke-miterlimit:10;" points="23,19 23,13 29,10 29,22 "/>
<rect x="3" y="9" style="fill:none;stroke:#000000;stroke-width:2;stroke-miterlimit:10;" width="20" height="14"/>
<circle cx="9" cy="13" r="1"/>
<path d="M16.998,12.541C16.411,12.198,15.73,12,15,12c-2.209,0-4,1.791-4,4c0,2.209,1.791,4,4,4c1.067,0,2.031-0.424,2.749-1.106
	C17.508,18.957,17.26,19,17,19c-1.657,0-3-1.343-3-3s1.343-3,3-3c0.26,0,0.508,0.043,0.749,0.106
	C17.522,12.89,17.27,12.7,16.998,12.541"/>
</svg>
