<?xml version="1.0" encoding="iso-8859-1"?>
<!-- Generator: Adobe Illustrator 19.1.1, SVG Export Plug-In . SVG Version: 6.00 Build 0)  -->
<svg version="1.1" id="Layer_1" xmlns="http://www.w3.org/2000/svg" xmlns:xlink="http://www.w3.org/1999/xlink" x="0px" y="0px"
	 viewBox="0 0 32 32" style="enable-background:new 0 0 32 32;" xml:space="preserve">
<polyline id="XMLID_96_" style="fill:none;stroke:#000000;stroke-width:2;stroke-miterlimit:10;" points="19,19 15,19 15,13 19,13 
	"/>
<path id="XMLID_97_" style="fill:none;stroke:#000000;stroke-width:2;stroke-miterlimit:10;" d="M24,14.408L24,14.408
	C24,13.756,23.53,13,22.5,13c-0.828,0-1.5,0.672-1.5,1.5v0c0,0.828,0.672,1.5,1.5,1.5h0c0.828,0,1.5,0.672,1.5,1.5v0
	c0,0.828-0.576,1.5-1.5,1.5c-1.104,0-1.5-0.572-1.5-1.381l0,0"/>
<line id="XMLID_113_" style="fill:none;stroke:#000000;stroke-width:2;stroke-miterlimit:10;" x1="15" y1="16" x2="18" y2="16"/>
<polyline style="fill:none;stroke:#000000;stroke-width:2;stroke-miterlimit:10;" points="12,20 12,19 10.05,13 9.95,13 8,19 8,20 
	"/>
<line id="XMLID_61_" style="fill:none;stroke:#000000;stroke-width:2;stroke-miterlimit:10;" x1="8.391" y1="18" x2="11.609" y2="18"/>
<g>
	<path d="M24.277,14.408H25c0-0.471-0.15-0.95-0.427-1.359C24.489,13.523,24.383,13.966,24.277,14.408z"/>
	<path d="M22.5,22c-0.583,0-1.119-0.101-1.613-0.264c-1.953,2.53-4.041,3.748-4.884,4.165c-0.81-0.405-2.771-1.563-4.657-3.9H11H9
		H8.849c2.938,4.322,6.525,5.827,6.779,5.928l0.37,0.148l0.37-0.146c0.256-0.101,3.898-1.606,6.849-6
		C22.982,21.966,22.746,22,22.5,22z"/>
	<path d="M26,7c-2.347,0-3.681-0.727-5.093-1.497C19.551,4.764,18.149,4,16,4c-2.147,0-3.544,0.763-4.895,1.501
		C9.695,6.272,8.362,7,6,7H5v1c0,2.915,0.362,5.432,0.951,7.6l1.282-3.944c-0.107-0.856-0.19-1.743-0.219-2.696
		c2.275-0.187,3.739-0.987,5.05-1.704C13.298,6.582,14.363,6,16,6c1.64,0,2.71,0.583,3.95,1.259c1.311,0.714,2.774,1.512,5.036,1.7
		c-0.017,0.591-0.063,1.148-0.111,1.701c0.82,0.498,1.429,1.228,1.776,2.061C26.871,11.275,27,9.71,27,8V7H26z"/>
</g>
</svg>
