<?xml version="1.0" encoding="iso-8859-1"?>
<!-- Generator: Adobe Illustrator 19.1.1, SVG Export Plug-In . SVG Version: 6.00 Build 0)  -->
<svg version="1.1" id="Layer_1" xmlns="http://www.w3.org/2000/svg" xmlns:xlink="http://www.w3.org/1999/xlink" x="0px" y="0px"
	 viewBox="0 0 32 32" style="enable-background:new 0 0 32 32;" xml:space="preserve">
<rect x="17" y="10" style="fill:none;stroke:#000000;stroke-width:2;stroke-miterlimit:10;" width="12" height="4"/>
<rect x="17" y="17" style="fill:none;stroke:#000000;stroke-width:2;stroke-miterlimit:10;" width="12" height="4"/>
<path style="fill:none;stroke:#000000;stroke-width:2;stroke-miterlimit:10;" d="M13,11c0-2.761-2.239-5-5-5s-5,2.239-5,5
	c0,2.049,1.236,3.806,3,4.578V24l2,2l2-2v-8.422C11.764,14.806,13,13.049,13,11z"/>
<line style="fill:none;stroke:#000000;stroke-width:2;stroke-miterlimit:10;" x1="8" y1="18" x2="10" y2="18"/>
<line style="fill:none;stroke:#000000;stroke-width:2;stroke-miterlimit:10;" x1="8" y1="21" x2="10" y2="21"/>
<path d="M8,9c-1.105,0-2,0.895-2,2h4C10,9.895,9.105,9,8,9z"/>
</svg>
