<?xml version="1.0" encoding="iso-8859-1"?>
<!-- Generator: Adobe Illustrator 19.1.0, SVG Export Plug-In . SVG Version: 6.00 Build 0)  -->
<svg version="1.1" id="Layer_1" xmlns="http://www.w3.org/2000/svg" xmlns:xlink="http://www.w3.org/1999/xlink" x="0px" y="0px"
	 viewBox="0 0 32 32" style="enable-background:new 0 0 32 32;" xml:space="preserve">
<circle style="fill:none;stroke:#000000;stroke-width:2;stroke-miterlimit:10;" cx="16" cy="16" r="11"/>
<circle style="fill:none;stroke:#000000;stroke-width:2;stroke-miterlimit:10;" cx="16" cy="16" r="2"/>
<path d="M4,15.4C4,8.56,6.4,4.48,6.4,4.48C7.96,8.92,12.76,1.72,16,1c0,0,1.32,2.4,3.48,2.88C21.76,4.24,22,2.2,22,2.2
	s6,4.92,6,13.2C26.2,9.76,22,5.2,16,5.2S5.92,8.44,4,15.4z"/>
<path style="fill:none;stroke:#000000;stroke-width:2;stroke-miterlimit:10;" d="M13.564,9.445
	c-1.903,0.708-3.411,2.216-4.119,4.119"/>
<path style="fill:none;stroke:#000000;stroke-width:2;stroke-miterlimit:10;" d="M18.437,22.555
	c1.903-0.708,3.411-2.216,4.119-4.119"/>
</svg>
