<?xml version="1.0" encoding="iso-8859-1"?>
<!-- Generator: Adobe Illustrator 21.1.0, SVG Export Plug-In . SVG Version: 6.00 Build 0)  -->
<svg version="1.1" id="Layer_1" xmlns="http://www.w3.org/2000/svg" xmlns:xlink="http://www.w3.org/1999/xlink" x="0px" y="0px"
	 viewBox="0 0 32 32" style="enable-background:new 0 0 32 32;" xml:space="preserve">
<path style="fill:none;stroke:#000000;stroke-width:2;stroke-miterlimit:10;" d="M27,26H16c-1.105,0-2-0.895-2-2v-7
	c0-1.105,0.895-2,2-2h11c1.105,0,2,0.895,2,2v7C29,25.105,28.105,26,27,26z"/>
<line style="fill:none;stroke:#000000;stroke-width:2;stroke-miterlimit:10;" x1="29" y1="19" x2="16" y2="19"/>
<path style="fill:none;stroke:#000000;stroke-width:2;stroke-miterlimit:10;" d="M14,17H5c-1.105,0-2-0.895-2-2V8
	c0-1.105,0.895-2,2-2h11c1.105,0,2,0.895,2,2v7"/>
<line style="fill:none;stroke:#000000;stroke-width:2;stroke-miterlimit:10;" x1="18" y1="10" x2="5" y2="10"/>
<path style="fill:none;stroke:#000000;stroke-width:2;stroke-miterlimit:10;" d="M22,6h5c1.105,0,2,0.895,2,2v4"/>
<polygon points="25,2 21,6 25,10 "/>
<path style="fill:none;stroke:#000000;stroke-width:2;stroke-miterlimit:10;" d="M10,26H5c-1.105,0-2-0.895-2-2v-4"/>
<polygon points="7,22 11,26 7,30 "/>
</svg>
