<?xml version="1.0" encoding="iso-8859-1"?>
<!-- Generator: Adobe Illustrator 19.1.1, SVG Export Plug-In . SVG Version: 6.00 Build 0)  -->
<svg version="1.1" xmlns="http://www.w3.org/2000/svg" xmlns:xlink="http://www.w3.org/1999/xlink" x="0px" y="0px"
	 viewBox="0 0 32 32" style="enable-background:new 0 0 32 32;" xml:space="preserve">
<g id="Layer_1">
	<path style="fill:none;stroke:#000000;stroke-width:2;stroke-miterlimit:10;" d="M25,7V4H8v3c0,0-2,5.348-2,8s0,13,0,13h17l4-2
		c0,0,0-11.583,0-13C27,9.995,25,7,25,7z"/>
	<path style="fill:none;stroke:#000000;stroke-width:2;stroke-miterlimit:10;" d="M25,7c0,0-2,5.006-2,9c0,3.113,0,12,0,12"/>
	<rect x="9" y="7" width="2" height="1"/>
	<rect x="12" y="7" width="2" height="1"/>
	<rect x="15" y="7" width="2" height="1"/>
	<rect x="18" y="7" width="2" height="1"/>
	<rect x="21" y="7" width="2" height="1"/>
	<path style="fill:none;stroke:#000000;stroke-width:2;stroke-miterlimit:10;" d="M11,20.5c0-1.933,3.5-6.5,3.5-6.5
		s3.5,4.567,3.5,6.5S16.433,24,14.5,24S11,22.433,11,20.5z"/>
	<path d="M13,21.6c0-0.828,1.5-2.6,1.5-2.6s1.5,1.772,1.5,2.6c0,0.828-0.672,1.5-1.5,1.5S13,22.428,13,21.6z"/>
</g>
<g id="Layer_2">
</g>
</svg>
