<?xml version="1.0" encoding="iso-8859-1"?>
<!-- Generator: Adobe Illustrator 19.1.0, SVG Export Plug-In . SVG Version: 6.00 Build 0)  -->
<svg version="1.1" id="Layer_1" xmlns="http://www.w3.org/2000/svg" xmlns:xlink="http://www.w3.org/1999/xlink" x="0px" y="0px"
	 viewBox="0 0 32 32" style="enable-background:new 0 0 32 32;" xml:space="preserve">
<ellipse style="fill:none;stroke:#000000;stroke-width:2;stroke-miterlimit:10;" cx="13" cy="16" rx="8" ry="11"/>
<path style="fill:none;stroke:#000000;stroke-width:2;stroke-miterlimit:10;" d="M13,27c8.053,0,11.972-4.529,12.827-9.184
	C26.518,17.501,27,16.809,27,16s-0.482-1.501-1.173-1.816C24.972,9.529,20.053,5,13,5"/>
<g>
	<path d="M13.016,13.462l2.064-4.73C14.446,8.266,13.743,8,13,8c-0.713,0-1.39,0.242-2.003,0.673L13.016,13.462z"/>
	<path d="M14.528,15h3.429c-0.14-1.797-0.65-3.41-1.408-4.633L14.528,15z"/>
	<path d="M14.507,17l1.988,4.715c0.787-1.232,1.318-2.877,1.462-4.715H14.507z"/>
	<path d="M12.984,18.538l-2.064,4.73C11.554,23.734,12.257,24,13,24c0.713,0,1.39-0.242,2.003-0.673L12.984,18.538z"/>
	<path d="M9.505,10.285C8.718,11.517,8.187,13.161,8.043,15h3.45L9.505,10.285z"/>
	<path d="M8.043,17c0.14,1.797,0.65,3.41,1.408,4.633L11.472,17H8.043z"/>
</g>
</svg>
