<?xml version="1.0" encoding="iso-8859-1"?>
<!-- Generator: Adobe Illustrator 21.0.2, SVG Export Plug-In . SVG Version: 6.00 Build 0)  -->
<svg version="1.1" id="Layer_1" xmlns="http://www.w3.org/2000/svg" xmlns:xlink="http://www.w3.org/1999/xlink" x="0px" y="0px"
	 viewBox="0 0 32 32" style="enable-background:new 0 0 32 32;" xml:space="preserve">
<g>
	<path d="M28.914,7.539C28.914,7.539,27.218,4,23,4c-2.897,0-4.586,1.813-5.305,3.477C16.977,9.14,17,10.754,17,10.754V28h6V16
		c1.7-0.175,3.273-0.743,4.156-1.266c1.096-0.649,1.656-1.402,1.656-1.402C28.934,13.162,29,13.008,29,13.008V7.725
		C29,7.725,28.971,7.668,28.914,7.539z M27,12.32c-0.08,0.102-0.199,0.304-0.859,0.695c-0.805,0.476-2.115,1.137-4.141,1.137
		c-0.5,0-0.5,0-1,0V26h-2V10.75c0-0.001,0-0.003,0-0.004c0,0,0.008-1.261,0.531-2.473C20.055,7.062,20.865,6,23,6
		c2.993,0,3.908,2.026,4,2.238V12.32z"/>
	<circle cx="24" cy="11" r="1"/>
</g>
<g>
	<path d="M3,7.725v5.283c0,0,0.066,0.155,0.188,0.324c0,0,0.56,0.754,1.656,1.402C5.727,15.257,7.3,15.825,9,16v12h6V10.754
		c0,0,0.023-1.614-0.695-3.277C13.586,5.813,11.897,4,9,4C4.783,4,3.086,7.539,3.086,7.539C3.029,7.668,3,7.725,3,7.725z M5,8.238
		C5.092,8.026,6.007,6,9,6c2.135,0,2.945,1.062,3.469,2.273C12.992,9.485,13,10.746,13,10.746c0,0.001,0,0.003,0,0.004V26h-2V14.153
		c-0.5,0-0.5,0-1,0c-2.026,0-3.336-0.661-4.141-1.137C5.199,12.625,5.08,12.422,5,12.32V8.238z"/>
	<circle cx="8" cy="11" r="1"/>
</g>
</svg>
