<?xml version="1.0" encoding="iso-8859-1"?>
<!-- Generator: Adobe Illustrator 21.0.0, SVG Export Plug-In . SVG Version: 6.00 Build 0)  -->
<svg version="1.1" xmlns="http://www.w3.org/2000/svg" xmlns:xlink="http://www.w3.org/1999/xlink" x="0px" y="0px"
	 viewBox="0 0 32 32" style="enable-background:new 0 0 32 32;" xml:space="preserve">
<g id="Layer_1">
</g>
<g id="Layer_2">
	<path style="fill:none;stroke:#000000;stroke-width:2;stroke-miterlimit:10;" d="M26,10.004c0,0,0-2.582,0-4.037
		C26,5.433,25.567,5,25.033,5C21.648,5,10.352,5,6.967,5C6.433,5,6,5.433,6,5.967c0,1.368,0,3.704,0,3.704"/>
	<path style="fill:none;stroke:#000000;stroke-width:2;stroke-miterlimit:10;" d="M27.51,11.387c0.12-0.585-0.029-1.193-0.407-1.656
		C26.726,9.268,26.16,9,25.563,9C20.962,9,11.046,9,6.441,9C5.843,9,5.276,9.269,4.898,9.733C4.52,10.196,4.37,10.805,4.49,11.392
		C5.038,14.058,5.846,18,5.846,18s-0.805,3.926-1.352,6.592c-0.121,0.59,0.03,1.203,0.41,1.67C5.285,26.729,5.855,27,6.458,27
		c4.591,0,14.421,0,19.043,0c0.613,0,1.192-0.275,1.58-0.75c0.387-0.475,0.54-1.098,0.417-1.698C26.951,21.887,26.154,18,26.154,18
		S26.963,14.053,27.51,11.387z"/>
	<line style="fill:none;stroke:#000000;stroke-width:2;stroke-miterlimit:3;" x1="20" y1="13" x2="20" y2="23"/>
	<path d="M10.455,20.5c0.455,0.227,1.364,0.568,2.273,0.568c1.136,0,1.705-0.568,1.705-1.25c0-0.909-0.909-1.364-1.932-1.364h-0.909
		v-1.591H12.5c0.795,0,1.705-0.341,1.705-1.136c0-0.568-0.455-1.023-1.364-1.023c-0.795,0-1.591,0.341-2.045,0.568l-0.455-1.591
		C10.909,13.341,12.045,13,13.295,13c2.045,0,3.182,1.023,3.182,2.386c0,1.023-0.568,1.818-1.705,2.273
		c1.136,0.227,2.045,1.023,2.045,2.386c0,1.705-1.477,2.955-3.977,2.955c-1.25,0-2.273-0.341-2.841-0.682L10.455,20.5z"/>
</g>
</svg>
