<?xml version="1.0" encoding="iso-8859-1"?>
<!-- Generator: Adobe Illustrator 19.1.0, SVG Export Plug-In . SVG Version: 6.00 Build 0)  -->
<svg version="1.1" id="Layer_1" xmlns="http://www.w3.org/2000/svg" xmlns:xlink="http://www.w3.org/1999/xlink" x="0px" y="0px"
	 viewBox="0 0 32 32" style="enable-background:new 0 0 32 32;" xml:space="preserve">
<rect x="5" y="6" style="fill:none;stroke:#000000;stroke-width:2;stroke-miterlimit:10;" width="22" height="20"/>
<line style="fill:none;stroke:#000000;stroke-width:2;stroke-miterlimit:10;" x1="27" y1="10" x2="5" y2="10"/>
<path id="XMLID_17_" style="fill:none;stroke:#000000;stroke-width:2;stroke-miterlimit:10;" d="M11,22v-7h-0.621
	c0,0-0.868,1-2.004,1"/>
<path id="XMLID_1_" style="fill:none;stroke:#000000;stroke-width:2;stroke-miterlimit:10;" d="M23,22v-7h-0.621
	c0,0-0.868,1-2.004,1"/>
<path id="XMLID_18_" style="fill:none;stroke:#000000;stroke-width:2;stroke-miterlimit:10;" d="M18,19.5c0,0.828-0.672,1.5-1.5,1.5
	h0c-0.828,0-1.5-0.672-1.5-1.5v-3c0-0.828,0.672-1.5,1.5-1.5h0c0.828,0,1.5,0.672,1.5,1.5V19.5z"/>
</svg>
