<?xml version="1.0" encoding="utf-8"?>
<!-- Generator: Adobe Illustrator 18.1.1, SVG Export Plug-In . SVG Version: 6.00 Build 0)  -->
<svg version="1.1" id="Layer_1" xmlns="http://www.w3.org/2000/svg" xmlns:xlink="http://www.w3.org/1999/xlink" x="0px" y="0px"
	 viewBox="0 0 32 32" enable-background="new 0 0 32 32" xml:space="preserve">
<polyline fill="none" stroke="#000000" stroke-width="2" stroke-miterlimit="10" points="4.5,12.4 16,5.2 27.5,12.4 "/>
<polyline fill="none" stroke="#000000" stroke-width="2" stroke-miterlimit="10" points="6,11 6,27 14,27 14,18 18,18 18,27 26,27 
	26,11 "/>
<line fill="none" stroke="#000000" stroke-width="2" stroke-miterlimit="10" x1="8" y1="24" x2="14" y2="24"/>
<line fill="none" stroke="#000000" stroke-width="2" stroke-miterlimit="10" x1="8" y1="21" x2="14" y2="21"/>
<line fill="none" stroke="#000000" stroke-width="2" stroke-miterlimit="10" x1="8" y1="18" x2="14" y2="18"/>
<line fill="none" stroke="#000000" stroke-width="2" stroke-miterlimit="10" x1="8" y1="15" x2="26" y2="15"/>
<g>
	<polygon points="25,11 10.4,11 8,12.5 8,13 26,13 	"/>
	<polygon points="12,10 23,10 20,8 15.2,8 	"/>
</g>
<line fill="none" stroke="#000000" stroke-width="2" stroke-miterlimit="10" x1="20" y1="24" x2="26" y2="24"/>
<line fill="none" stroke="#000000" stroke-width="2" stroke-miterlimit="10" x1="20" y1="21" x2="26" y2="21"/>
<line fill="none" stroke="#000000" stroke-width="2" stroke-miterlimit="10" x1="20" y1="18" x2="26" y2="18"/>
</svg>
