<?xml version="1.0" encoding="iso-8859-1"?>
<!-- Generator: Adobe Illustrator 19.1.1, SVG Export Plug-In . SVG Version: 6.00 Build 0)  -->
<svg version="1.1" id="Layer_1" xmlns="http://www.w3.org/2000/svg" xmlns:xlink="http://www.w3.org/1999/xlink" x="0px" y="0px"
	 viewBox="0 0 32 32" style="enable-background:new 0 0 32 32;" xml:space="preserve">
<rect x="4" y="22" style="fill:none;stroke:#000000;stroke-width:2;stroke-miterlimit:10;" width="24" height="6"/>
<circle cx="8" cy="25" r="1"/>
<line style="fill:none;stroke:#000000;stroke-width:2;stroke-miterlimit:10;" x1="11" y1="25" x2="25" y2="25"/>
<path style="fill:none;stroke:#000000;stroke-width:2;stroke-miterlimit:10;" d="M22.5,10c-0.199,0-0.391,0.027-0.581,0.059
	C21.466,7.193,18.993,5,16,5c-1.857,0-3.516,0.844-4.616,2.169C11.108,7.064,10.812,7,10.5,7C9.119,7,8,8.119,8,9.5
	c0,0.273,0.055,0.531,0.135,0.776C6.88,10.808,6,12.051,6,13.5C6,15.433,7.567,17,9.5,17c1.111,0,11.889,0,13,0
	c1.933,0,3.5-1.567,3.5-3.5S24.433,10,22.5,10z"/>
</svg>
