<?xml version="1.0" encoding="iso-8859-1"?>
<!-- Generator: Adobe Illustrator 19.1.0, SVG Export Plug-In . SVG Version: 6.00 Build 0)  -->
<svg version="1.1" id="Layer_1" xmlns="http://www.w3.org/2000/svg" xmlns:xlink="http://www.w3.org/1999/xlink" x="0px" y="0px"
	 viewBox="0 0 32 32" style="enable-background:new 0 0 32 32;" xml:space="preserve">
<path style="fill:none;stroke:#000000;stroke-width:2;stroke-miterlimit:10;" d="M7,13v12c0,1.104,0.896,2,2,2h14
	c1.104,0,2-0.896,2-2V13H7z"/>
<path d="M21,14c-0.982,0-1,1-1,1c0,1.002,1,2.996,1,4c0,1.104-0.896,2-2,2s-2-0.896-2-2c0-0.986,1-2.998,1-4c0,0-0.001-1-1-1
	c-0.251,0-0.008,0-1,0c-0.493,0-1,0.493-1,1c0,0.483,0,0.949,0,1c0,0.552-0.448,1-1,1s-1-0.448-1-1c0-0.051,0-0.517,0-1
	c0-0.507-0.499-1-1-1C12,12.537,21,12.336,21,14z"/>
<path style="fill:none;stroke:#000000;stroke-width:2;stroke-miterlimit:10;" d="M23,13c0,0,0-0.485,0-1c0-3.866-3.134-7-7-7
	s-7,3.134-7,7c0,0.515,0,1,0,1"/>
</svg>
