<?xml version="1.0" encoding="iso-8859-1"?>
<!-- Generator: Adobe Illustrator 19.1.0, SVG Export Plug-In . SVG Version: 6.00 Build 0)  -->
<svg version="1.1" id="Layer_1" xmlns="http://www.w3.org/2000/svg" xmlns:xlink="http://www.w3.org/1999/xlink" x="0px" y="0px"
	 viewBox="0 0 32 32" style="enable-background:new 0 0 32 32;" xml:space="preserve">
<path style="fill:none;stroke:#000000;stroke-width:2;stroke-miterlimit:10;" d="M6.484,20C5.546,20.589,5,21.271,5,22
	c0,2.209,4.925,4,11,4s11-1.791,11-4c0-0.729-0.546-1.411-1.484-2"/>
<path d="M22,10c0-1.105-2.686-2-6-2s-6,0.895-6,2c0,0.529,0.618,1.009,1.624,1.366C12.438,11.655,13,12.402,13,13.264V17
	c0,0.552,0.448,1,1,1s1-0.448,1-1v-4.5c0,0-0.003-0.5,0.5-0.5c0.503,0,0.5,0.5,0.5,0.5V22c0,0.552,0.448,1,1,1s1-0.448,1-1v-8.445
	c0-0.917,0.628-1.722,1.519-1.937C21.022,11.255,22,10.666,22,10z"/>
<path d="M16,5C10.037,5,4,6.717,4,10c0,2.537,3.609,4.135,8,4.731V13.33c0-0.356-0.262-0.655-0.613-0.718
	C8.036,12.016,6,10.853,6,10c0-1.194,3.988-3,10-3s10,1.806,10,3c0,0.932-2.432,2.235-6.357,2.762
	C19.279,12.811,19,13.116,19,13.483v1.366c4.83-0.479,9-2.122,9-4.849C28,6.717,21.963,5,16,5z"/>
<g>
	<path d="M12,16.712C8.285,16.156,6,14.904,6,14c0-0.323,0.379-0.754,1.015-1.153l-1.063-1.694C4.338,12.166,4,13.26,4,14
		c0,2.537,3.609,4.135,8,4.731V16.712z"/>
	<path d="M26.048,11.153l-1.063,1.694C25.621,13.246,26,13.677,26,14c0,0.982-2.7,2.375-7,2.84v2.009c4.83-0.479,9-2.122,9-4.849
		C28,13.26,27.662,12.166,26.048,11.153z"/>
</g>
<g>
	<path d="M15,20.981C9.551,20.796,6,19.127,6,18c0-0.323,0.379-0.754,1.015-1.153l-1.063-1.694C4.338,16.166,4,17.26,4,18
		c0,3.099,5.38,4.801,11,4.982V20.981z"/>
	<path d="M26.048,15.153l-1.063,1.694C25.621,17.246,26,17.677,26,18c0,0.982-2.7,2.375-7,2.84v2.009c4.83-0.479,9-2.122,9-4.849
		C28,17.26,27.662,16.166,26.048,15.153z"/>
</g>
</svg>
