<?xml version="1.0" encoding="iso-8859-1"?>
<!-- Generator: Adobe Illustrator 19.0.1, SVG Export Plug-In . SVG Version: 6.00 Build 0)  -->
<svg version="1.1" id="Layer_1" xmlns="http://www.w3.org/2000/svg" xmlns:xlink="http://www.w3.org/1999/xlink" x="0px" y="0px"
	 viewBox="0 0 32 32" style="enable-background:new 0 0 32 32;" xml:space="preserve">
<path id="XMLID_290_" style="fill:none;stroke:#000000;stroke-width:2;stroke-miterlimit:10;" d="M20,7.5c0,1.389,1.111,2.5,2.5,2.5
	S25,8.889,25,7.5S23.889,5,22.5,5S20,6.111,20,7.5z"/>
<path id="XMLID_291_" style="fill:none;stroke:#000000;stroke-width:2;stroke-miterlimit:10;" d="M9,10h8.586
	c0.891,0,1.337,1.077,0.707,1.707l-3.586,3.586c-0.391,0.391-0.391,1.024,0,1.414l2,2C16.895,18.895,17,19.149,17,19.414V24"/>
<line id="XMLID_292_" style="fill:none;stroke:#000000;stroke-width:2;stroke-miterlimit:10;" x1="9.705" y1="22.15" x2="13.328" y2="18.527"/>
<circle id="XMLID_261_" cx="19.056" cy="26" r="1"/>
<circle id="XMLID_263_" cx="17.056" cy="26" r="1"/>
<circle id="XMLID_269_" cx="15.056" cy="26" r="1"/>
<circle id="XMLID_293_" cx="9.828" cy="24.828" r="1"/>
<circle id="XMLID_289_" cx="8.414" cy="23.414" r="1"/>
<circle id="XMLID_270_" cx="7" cy="22" r="1"/>
</svg>
