<?xml version="1.0" encoding="iso-8859-1"?>
<!-- Generator: Adobe Illustrator 19.2.0, SVG Export Plug-In . SVG Version: 6.00 Build 0)  -->
<svg version="1.1" id="Layer_1" xmlns="http://www.w3.org/2000/svg" xmlns:xlink="http://www.w3.org/1999/xlink" x="0px" y="0px"
	 viewBox="0 0 32 32" style="enable-background:new 0 0 32 32;" xml:space="preserve">
<path style="fill:none;stroke:#000000;stroke-width:2;stroke-miterlimit:10;" d="M15.598,23.218C17.06,22.454,20,19.859,20,17.602
	c0-3.533-5-3.403-5-8.602 M15,9c0,1.481,1.832,2,3.726,2C20.647,11,22,10,22,10V9c0,0-3-1.021-3-3.455"/>
<circle cx="17.5" cy="7.5" r="0.5"/>
<path style="fill:none;stroke:#000000;stroke-width:2;stroke-miterlimit:10;" d="M20.937,4.562l-2.038,1.122L18,4
	c0,0-6.946,0.375-6.946,5.958C11.054,11.885,12,13.9,12,13.9l0.009,0.095C10.328,13.995,7.972,12,7.972,12S7,13.487,7,16s1,4,1,4
	s2.5-2,4-2v0.939C12,23.388,14.352,28,18.456,28C21.329,28,23,26.264,23,24.5c0-0.839-0.672-1.5-1.5-1.5S20,23.672,20,24.5
	c0,0.176,0,0.5,0,0.5"/>
</svg>
