<?xml version="1.0" encoding="iso-8859-1"?>
<!-- Generator: Adobe Illustrator 19.1.1, SVG Export Plug-In . SVG Version: 6.00 Build 0)  -->
<svg version="1.1" id="Layer_1" xmlns="http://www.w3.org/2000/svg" xmlns:xlink="http://www.w3.org/1999/xlink" x="0px" y="0px"
	 viewBox="0 0 32 32" style="enable-background:new 0 0 32 32;" xml:space="preserve">
<path d="M27,19c0-2.209-1.791-4-4-4c-0.627,0-1.212,0.157-1.74,0.414C20.382,13.972,18.811,13,17,13c-2.761,0-5,2.239-5,5
	c0,0.017,0.005,0.033,0.005,0.05C10.309,18.292,9,19.737,9,21.5c0,1.933,1.567,3.5,3.5,3.5S27,25,27,25c1.657,0,3-1.343,3-3
	S28.657,19,27,19z"/>
<path d="M8,21.5c0-1.933,1.263-3.631,3.046-4.243C11.413,14.298,13.943,12,17,12c1.816,0,3.492,0.81,4.625,2.201
	C22.076,14.068,22.536,14,23,14c0.336,0,0.662,0.04,0.98,0.103C23.774,10.699,20.956,8,17.5,8c-2.544,0-4.74,1.464-5.808,3.593
	C11.041,11.227,10.3,11,9.5,11C7.015,11,5,13.015,5,15.5c0,0.187,0.033,0.364,0.055,0.545C3.335,16.266,2,17.719,2,19.5
	C2,21.433,3.567,23,5.5,23c0.397,0,1.416,0,2.776,0C8.108,22.529,8,22.029,8,21.5z"/>
</svg>
