<?xml version="1.0" encoding="iso-8859-1"?>
<!-- Generator: Adobe Illustrator 19.1.0, SVG Export Plug-In . SVG Version: 6.00 Build 0)  -->
<svg version="1.1" id="Layer_1" xmlns="http://www.w3.org/2000/svg" xmlns:xlink="http://www.w3.org/1999/xlink" x="0px" y="0px"
	 viewBox="0 0 32 32" style="enable-background:new 0 0 32 32;" xml:space="preserve">
<path style="fill:none;stroke:#000000;stroke-width:2;stroke-miterlimit:10;" d="M27,7.756c0,2.756-3.63,6.505-8.14,11.025
	c-5.61,5.513-10.45,9.702-12.43,7.718C5.33,25.617,5,24.294,5,22.971c0-1.75,0.475-3.659,1.473-4.771
	c-0.607-2.926,0.649-5.798,4.044-6.575c0.191-3.012,3.384-5.347,6.543-4.425C18.463,5.797,20.209,5,23.04,5
	C24.91,5,27,6.103,27,7.756z"/>
<path style="fill:none;stroke:#000000;stroke-width:2;stroke-miterlimit:10;" d="M6.416,18.2c2.094,0,3.845,1.538,3.845,1.538"/>
<path style="fill:none;stroke:#000000;stroke-width:2;stroke-miterlimit:10;" d="M10.5,11.6c2.534,0,4.364,1.731,4.364,1.731"/>
<path style="fill:none;stroke:#000000;stroke-width:2;stroke-miterlimit:10;" d="M17.06,7.19c1.583,0.433,3.332,2.204,3.332,2.204"
	/>
</svg>
