<?xml version="1.0" encoding="iso-8859-1"?>
<!-- Generator: Adobe Illustrator 19.2.0, SVG Export Plug-In . SVG Version: 6.00 Build 0)  -->
<svg version="1.1" id="Layer_1" xmlns="http://www.w3.org/2000/svg" xmlns:xlink="http://www.w3.org/1999/xlink" x="0px" y="0px"
	 viewBox="0 0 32 32" style="enable-background:new 0 0 32 32;" xml:space="preserve">
<line style="fill:none;stroke:#000000;stroke-width:2;stroke-miterlimit:10;" x1="23" y1="4" x2="23" y2="7"/>
<path style="fill:none;stroke:#000000;stroke-width:2;stroke-miterlimit:10;" d="M19,19v2c0,2.209,1.791,4,4,4h0
	c2.209,0,4-1.809,4-4c0-4.522-8-5.495-8-10c0-2.205,1.791-4,4-4h0c2.209,0,4,1.791,4,4v1"/>
<line style="fill:none;stroke:#000000;stroke-width:2;stroke-miterlimit:10;" x1="23" y1="25" x2="23" y2="28"/>
<path style="fill:none;stroke:#000000;stroke-width:2;stroke-miterlimit:10;" d="M13,19v2c0,2.209-1.791,4-4,4h0
	c-2.209,0-4-1.791-4-4V11c0-2.209,1.791-4,4-4h0c2.209,0,4,1.791,4,4v2"/>
</svg>
