<?xml version="1.0" encoding="iso-8859-1"?>
<!-- Generator: Adobe Illustrator 19.1.1, SVG Export Plug-In . SVG Version: 6.00 Build 0)  -->
<svg version="1.1" id="Layer_1" xmlns="http://www.w3.org/2000/svg" xmlns:xlink="http://www.w3.org/1999/xlink" x="0px" y="0px"
	 viewBox="0 0 32 32" style="enable-background:new 0 0 32 32;" xml:space="preserve">
<path style="fill:none;stroke:#000000;stroke-width:2;stroke-miterlimit:10;" d="M18,16c0,0-9,0.455-9-3.5c-2.455,0-4,1.727-4,4
	c0,2.818,2.619,4.5,7.857,4.5c7.961,0,11.733-4.864,11.733-1.2c0,0,2.41-1.309,2.41-4.209C27,12.227,23.966,10,21,10
	c0-3.136-3.957-4.5-5.948-5H15c0,2.4-2,2.273-2,4c-2.318,0-4,1.182-4,3.5"/>
<path style="fill:none;stroke:#000000;stroke-width:2;stroke-miterlimit:10;" d="M25,19l-1.811,7.243
	C23.078,26.688,22.678,27,22.219,27H9.781c-0.459,0-0.859-0.312-0.97-0.757L7.295,20.18"/>
<rect x="15" y="20" width="2" height="4"/>
<polygon points="21.682,19 19.682,19 19,24 21,24 "/>
<polygon points="10.591,21 11,24 13,24 12.591,21 "/>
</svg>
