<?xml version="1.0" encoding="iso-8859-1"?>
<!-- Generator: Adobe Illustrator 19.1.1, SVG Export Plug-In . SVG Version: 6.00 Build 0)  -->
<svg version="1.1" id="Layer_1" xmlns="http://www.w3.org/2000/svg" xmlns:xlink="http://www.w3.org/1999/xlink" x="0px" y="0px"
	 viewBox="-8 10 32 32" style="enable-background:new -8 10 32 32;" xml:space="preserve">
<rect x="5" y="36" style="fill:none;stroke:#000000;stroke-width:2;stroke-miterlimit:10;" width="8" height="3"/>
<path d="M4,36.422l-1.709-1.717C2.075,34.488-3,29.328-3,24l0.004-1.235C-2.904,20.383-1.424,18,1,18h3V36.422z M-1,23v1
	c0,2.687,1.653,5.452,3,7.261V20H1C-0.235,20-1,21.557-1,23z"/>
<path style="fill:none;stroke:#000000;stroke-width:2;stroke-miterlimit:10;" d="M15,34v-8l2.04,1.267
	c0.587,0.365,0.944,1.007,0.944,1.699v3.729C18,33.552,17.552,34,17,34H15z"/>
<path style="fill:none;stroke:#000000;stroke-width:2;stroke-miterlimit:10;" d="M14,36H4c-0.552,0-1-0.448-1-1V19
	c0-0.552,0.448-1,1-1h7c1.927,0,4,1.474,4,5v12C15,35.552,14.552,36,14,36z"/>
<path style="fill:none;stroke:#000000;stroke-width:2;stroke-miterlimit:10;" d="M7,18.2c0,0,0-2.748,0-3.467S5.143,13,4,13
	c-1.097,0-1,2-1,2h4"/>
<path style="fill:none;stroke:#000000;stroke-width:2;stroke-miterlimit:10;" d="M10,15h4c0,0,0.056-2-1-2c-1.143,0-3,1.015-3,1.733
	S10,17,10,17"/>
</svg>
