<?xml version="1.0" encoding="iso-8859-1"?>
<!-- Generator: Adobe Illustrator 19.1.1, SVG Export Plug-In . SVG Version: 6.00 Build 0)  -->
<svg version="1.1" id="Layer_1" xmlns="http://www.w3.org/2000/svg" xmlns:xlink="http://www.w3.org/1999/xlink" x="0px" y="0px"
	 viewBox="0 0 32 32" style="enable-background:new 0 0 32 32;" xml:space="preserve">
<path style="fill-rule:evenodd;clip-rule:evenodd;" d="M26.118,20.261c-0.177,1.315-0.299,3.037-1.221,4.056
	c-0.324,0.36-2.834,1.86-2.715,0.704c0.461-3.611,0.715-7.234,0.934-10.869c0.064-1.525,0.149-3.053,0.169-4.58
	c0.022-0.258-0.134-0.892,0.26-0.909c0.745,0.222,1.564,0.445,2.055,1.119c0.93,1.273,0.822,3.187,0.839,4.694
	C26.461,16.4,26.375,18.354,26.118,20.261L26.118,20.261z M21.2,8.632c-0.51,1.907-1.1,4.435-1.624,6.35
	c-0.42,1.532-0.902,3.506-2.723,3.702c-0.272,0.029-0.561,0.053-0.853,0.058c-0.292-0.005-0.581-0.029-0.852-0.058
	c-1.822-0.196-2.303-2.17-2.723-3.702c-0.525-1.915-1.114-4.443-1.624-6.35c-0.088-0.329,0.044-0.254,0.703-0.345
	C12.688,8.123,14.456,8.098,16,8.113c1.544-0.015,3.312,0.01,4.497,0.174C21.156,8.378,21.288,8.303,21.2,8.632L21.2,8.632z
	 M19.255,25.734c-0.147,0.026-0.641,0.025-1.186,0.039c-0.691,0.017-1.38,0.019-2.069,0.019c-0.689,0-1.378-0.002-2.069-0.019
	c-0.545-0.014-1.039-0.013-1.186-0.039c-0.147-0.026-0.298-0.035-0.254-0.204c0.044-0.169,0.707-2.362,0.707-2.362
	c0.435-1.458,0.465-1.553,1.581-1.778c0.371-0.075,0.794-0.123,1.221-0.126c0.427,0.003,0.851,0.051,1.221,0.126
	c1.116,0.224,1.147,0.32,1.581,1.778c0,0,0.663,2.193,0.707,2.362C19.554,25.699,19.402,25.708,19.255,25.734L19.255,25.734z
	 M7.103,24.317c-0.922-1.02-1.044-2.741-1.221-4.056c-0.256-1.907-0.343-3.861-0.321-5.785C5.578,12.968,5.47,11.055,6.4,9.782
	c0.491-0.673,1.31-0.897,2.055-1.119c0.394,0.017,0.238,0.652,0.26,0.909c0.021,1.526,0.105,3.054,0.17,4.58
	c0.218,3.635,0.473,7.258,0.933,10.869C9.937,26.178,7.427,24.677,7.103,24.317L7.103,24.317z M27.957,12.848
	c-0.082-1.424-0.288-2.977-1.315-4.03c-0.937-0.961-2.29-1.23-3.548-1.403C20.726,7.09,18.391,7.002,16,7
	c-2.391,0.002-4.726,0.09-7.094,0.415C7.648,7.588,6.295,7.857,5.358,8.818c-1.028,1.053-1.232,2.607-1.315,4.03
	c-0.096,1.65-0.014,3.296,0.086,4.943c0.1,1.621,0.278,3.258,0.663,4.836c0.179,0.732,0.421,1.467,0.835,2.097
	c0.398,0.604,0.971,1.032,1.612,1.333c1.363,0.64,2.937,0.694,4.409,0.788C13.091,26.937,14.545,26.993,16,27
	c1.455-0.007,2.909-0.063,4.353-0.154c1.472-0.094,3.045-0.148,4.409-0.788c0.642-0.301,1.215-0.729,1.612-1.333
	c0.414-0.63,0.656-1.365,0.835-2.097c0.385-1.578,0.563-3.215,0.663-4.836C27.971,16.144,28.053,14.498,27.957,12.848L27.957,12.848
	z"/>
<path style="fill-rule:evenodd;clip-rule:evenodd;fill:none;stroke:#000000;stroke-width:2;stroke-miterlimit:10;" d="
	M26.961,13.263c-0.075-1.281-0.264-2.679-1.206-3.627c-0.859-0.865-2.099-1.107-3.253-1.262C20.332,8.081,18.192,8.002,16,8
	c-2.192,0.002-4.332,0.081-6.503,0.373C8.344,8.529,7.104,8.771,6.245,9.636c-0.942,0.948-1.13,2.346-1.206,3.627
	c-0.088,1.485-0.012,2.966,0.079,4.449c0.091,1.459,0.255,2.932,0.608,4.353c0.164,0.659,0.386,1.321,0.765,1.887
	c0.364,0.544,0.89,0.929,1.478,1.2c1.25,0.576,2.692,0.625,4.041,0.709C13.334,25.944,14.667,25.993,16,26
	c1.334-0.007,2.666-0.056,3.99-0.139c1.35-0.084,2.792-0.133,4.041-0.709c0.589-0.271,1.113-0.656,1.478-1.2
	c0.379-0.567,0.601-1.228,0.765-1.887c0.353-1.421,0.516-2.894,0.608-4.353C26.973,16.23,27.049,14.748,26.961,13.263L26.961,13.263
	z"/>
</svg>
