<?xml version="1.0" encoding="iso-8859-1"?>
<!-- Generator: Adobe Illustrator 19.1.1, SVG Export Plug-In . SVG Version: 6.00 Build 0)  -->
<svg version="1.1" id="Layer_1" xmlns="http://www.w3.org/2000/svg" xmlns:xlink="http://www.w3.org/1999/xlink" x="0px" y="0px"
	 viewBox="0 0 32 32" style="enable-background:new 0 0 32 32;" xml:space="preserve">
<path style="fill:none;stroke:#000000;stroke-width:2;stroke-miterlimit:10;" d="M9.611,26h12.778C24.383,26,26,24.383,26,22.389
	V9.611C26,7.617,24.383,6,22.389,6H9.611C7.617,6,6,7.617,6,9.611v12.778C6,24.383,7.617,26,9.611,26z"/>
<path d="M23.285,15.121c0-3.258-3.267-5.909-7.282-5.909s-7.282,2.651-7.282,5.909c0,2.921,2.591,5.368,6.09,5.83
	c0.237,0.051,0.56,0.157,0.642,0.359c0.073,0.184,0.048,0.472,0.023,0.658c0,0-0.085,0.514-0.104,0.624
	c-0.032,0.184-0.146,0.72,0.631,0.393c0.777-0.327,4.193-2.469,5.721-4.228h0C22.78,17.599,23.285,16.425,23.285,15.121z
	 M13.153,17.059h-1.447c-0.211,0-0.382-0.171-0.382-0.382v-2.894c0-0.211,0.171-0.382,0.382-0.382s0.382,0.171,0.382,0.382v2.512
	h1.065c0.211,0,0.382,0.171,0.382,0.382C13.534,16.888,13.363,17.059,13.153,17.059z M14.649,16.677
	c0,0.211-0.171,0.382-0.382,0.382c-0.21,0-0.382-0.171-0.382-0.382v-2.894c0-0.211,0.171-0.382,0.382-0.382
	c0.21,0,0.382,0.171,0.382,0.382V16.677z M18.132,16.677c0,0.165-0.105,0.31-0.261,0.362c-0.039,0.013-0.08,0.02-0.121,0.02
	c-0.119,0-0.233-0.057-0.305-0.153l-1.483-2.019v1.79c0,0.211-0.171,0.382-0.382,0.382c-0.211,0-0.382-0.171-0.382-0.382v-2.894
	c0-0.165,0.105-0.31,0.261-0.362c0.039-0.013,0.08-0.02,0.121-0.02c0.119,0,0.233,0.057,0.305,0.153l1.483,2.019v-1.79
	c0-0.211,0.172-0.382,0.382-0.382c0.211,0,0.382,0.171,0.382,0.382V16.677z M20.473,14.849c0.211,0,0.382,0.171,0.382,0.382
	c0,0.21-0.171,0.382-0.382,0.382h-1.065v0.683h1.065c0.211,0,0.382,0.171,0.382,0.382c0,0.211-0.171,0.382-0.382,0.382h-1.447
	c-0.21,0-0.382-0.171-0.382-0.382v-1.446v-0.001c0,0,0-0.001,0-0.001v-1.445c0-0.001,0-0.001,0-0.001
	c0-0.211,0.171-0.382,0.382-0.382h1.447c0.211,0,0.382,0.171,0.382,0.382s-0.171,0.382-0.382,0.382h-1.065v0.683H20.473z"/>
</svg>
