<?xml version="1.0" encoding="iso-8859-1"?>
<!-- Generator: Adobe Illustrator 19.1.1, SVG Export Plug-In . SVG Version: 6.00 Build 0)  -->
<svg version="1.1" id="Layer_1" xmlns="http://www.w3.org/2000/svg" xmlns:xlink="http://www.w3.org/1999/xlink" x="0px" y="0px"
	 viewBox="0 0 32 32" style="enable-background:new 0 0 32 32;" xml:space="preserve">
<path style="fill:none;stroke:#000000;stroke-width:2;stroke-miterlimit:10;" d="M23.863,7.43c-0.427,0-0.832,0.084-1.203,0.233
	C22.225,6.575,21.141,5.8,19.864,5.8c-0.712,0-1.357,0.25-1.871,0.65c-0.489-0.837-1.406-1.409-2.471-1.409
	c-1.273,0-2.338,0.813-2.704,1.928c-0.547-0.558-1.316-0.91-2.173-0.91c-1.659,0-3.003,1.302-3.003,2.908
	c0,0.164,0.023,0.322,0.05,0.479C7.636,9.443,7.582,9.43,7.526,9.43c-1.394,0-2.525,1.095-2.525,2.445s1.131,2.445,2.525,2.445
	c0.799,0,1.503-0.366,1.966-0.927c0.565,0.969,1.625,1.63,2.855,1.63c1.133,0,2.132-0.555,2.723-1.4
	c0.508,0.343,1.124,0.548,1.791,0.548c0.612,0,1.178-0.177,1.661-0.47c0.498,0.8,1.396,1.341,2.432,1.341
	c1.132,0,2.102-0.645,2.562-1.571c0.115,0.012,0.227,0.034,0.346,0.034c1.732,0,3.137-1.36,3.137-3.037
	C27,8.79,25.596,7.43,23.863,7.43z"/>
<path style="fill:none;stroke:#000000;stroke-width:2;stroke-miterlimit:10;" d="M9,27c0,0,5-0.025,5-5.076V21
	c0-4.127-3.042-6.208-3.042-6.208"/>
<path style="fill:none;stroke:#000000;stroke-width:2;stroke-miterlimit:10;" d="M23,27c0,0-5-0.025-5-5.076V21
	c0-4.127,3.215-5.854,3.215-5.854"/>
<path style="fill:none;stroke:#000000;stroke-width:2;stroke-miterlimit:10;" d="M14.038,20.726
	c-1.809,0.259-3.079,0.864-3.079,1.57c0,0.941,2.257,1.704,5.042,1.704s5.042-0.763,5.042-1.704c0-0.726-1.342-1.345-3.232-1.591"/>
<line style="fill:none;stroke:#000000;stroke-width:2;stroke-miterlimit:10;" x1="16" y1="14" x2="16" y2="18"/>
</svg>
