<?xml version="1.0" encoding="iso-8859-1"?>
<!-- Generator: Adobe Illustrator 19.1.1, SVG Export Plug-In . SVG Version: 6.00 Build 0)  -->
<svg version="1.1" id="Layer_1" xmlns="http://www.w3.org/2000/svg" xmlns:xlink="http://www.w3.org/1999/xlink" x="0px" y="0px"
	 viewBox="0 0 32 32" style="enable-background:new 0 0 32 32;" xml:space="preserve">
<path style="fill:none;stroke:#000000;stroke-width:2;stroke-linecap:round;stroke-linejoin:round;stroke-miterlimit:10;" d="
	M13.003,14.428C12.22,14.151,11.378,14,10.5,14C6.358,14,3,17.358,3,21.5S6.358,29,10.5,29s7.5-3.358,7.5-7.5
	c0-0.877-0.15-1.718-0.427-2.5"/>
<path style="fill:none;stroke:#000000;stroke-width:2;stroke-miterlimit:10;" d="M20.414,14.414l2.665-2.665
	C23.528,11.899,24,12,24.5,12c2.485,0,4.5-2.015,4.5-4.5S26.985,3,24.5,3S20,5.015,20,7.5c0,0.5,0.101,0.972,0.251,1.421
	l-2.665,2.665"/>
<polygon style="fill:none;stroke:#000000;stroke-width:2;stroke-linecap:round;stroke-linejoin:round;stroke-miterlimit:10;" points="
	12,6 26,20 24,22 18,18 15,20 12,17 14,14 10,8 "/>
</svg>
