<?xml version="1.0" encoding="iso-8859-1"?>
<!-- Generator: Adobe Illustrator 22.0.1, SVG Export Plug-In . SVG Version: 6.00 Build 0)  -->
<svg version="1.1" id="Icons" xmlns="http://www.w3.org/2000/svg" xmlns:xlink="http://www.w3.org/1999/xlink" x="0px" y="0px"
	 viewBox="0 0 32 32" style="enable-background:new 0 0 32 32;" xml:space="preserve">
<g>
	<path d="M26,15c0.551,0,1,0.449,1,1c0,0.551-0.449,1-1,1c-0.551,0-1-0.449-1-1C25,15.449,25.449,15,26,15L26,15z"/>
	<path style="fill:none;stroke:#000000;stroke-width:2;stroke-miterlimit:10;" d="M29,11v10c0,1.105-0.895,2-2,2H5
		c-1.105,0-2-0.895-2-2V11c0-1.105,0.895-2,2-2h22C28.105,9,29,9.895,29,11z"/>
	<polyline style="fill:none;stroke:#000000;stroke-width:2;stroke-miterlimit:10;" points="7,18 10,15 14,19 19,14 21,16 	"/>
</g>
</svg>
