<?xml version="1.0" encoding="iso-8859-1"?>
<!-- Generator: Adobe Illustrator 19.1.1, SVG Export Plug-In . SVG Version: 6.00 Build 0)  -->
<svg version="1.1" id="Layer_1" xmlns="http://www.w3.org/2000/svg" xmlns:xlink="http://www.w3.org/1999/xlink" x="0px" y="0px"
	 viewBox="0 0 32 32" style="enable-background:new 0 0 32 32;" xml:space="preserve">
<path id="XMLID_165_" style="fill:none;stroke:#000000;stroke-width:2;stroke-miterlimit:10;" d="M5,20v-7h1c1.105,0,2,0.895,2,2v0
	c0,1.105-0.895,2-2,2H5"/>
<rect x="1" y="8" style="fill:none;stroke:#000000;stroke-width:2;stroke-miterlimit:10;" width="30" height="16"/>
<line id="XMLID_199_" style="fill:none;stroke:#000000;stroke-width:2;stroke-miterlimit:10;" x1="23" y1="12" x2="23" y2="20"/>
<line id="XMLID_200_" style="fill:none;stroke:#000000;stroke-width:2;stroke-miterlimit:10;" x1="26" y1="12" x2="26" y2="20"/>
<line id="XMLID_201_" style="fill:none;stroke:#000000;stroke-width:2;stroke-miterlimit:10;" x1="23" y1="14" x2="26" y2="18"/>
<path id="XMLID_245_" style="fill:none;stroke:#000000;stroke-width:2;stroke-miterlimit:10;" d="M11,16h1.5
	c0.828,0,1.5-0.672,1.5-1.5v0c0-0.828-0.672-1.5-1.5-1.5H11v7"/>
<polygon id="XMLID_246_" points="13.687,16.018 11.687,16.018 13,20 15,20 "/>
<path style="fill:none;stroke:#000000;stroke-width:2;stroke-miterlimit:10;" d="M18.5,13L18.5,13c-0.828,0-1.5,0.672-1.5,1.5v3
	c0,0.828,0.672,1.5,1.5,1.5h0c0.828,0,1.5-0.672,1.5-1.5v-3C20,13.672,19.328,13,18.5,13z"/>
</svg>
