<?xml version="1.0" encoding="iso-8859-1"?>
<!-- Generator: Adobe Illustrator 19.1.1, SVG Export Plug-In . SVG Version: 6.00 Build 0)  -->
<svg version="1.1" id="Layer_1" xmlns="http://www.w3.org/2000/svg" xmlns:xlink="http://www.w3.org/1999/xlink" x="0px" y="0px"
	 viewBox="0 0 32 32" style="enable-background:new 0 0 32 32;" xml:space="preserve">
<path style="fill:none;stroke:#000000;stroke-width:2;stroke-linecap:round;stroke-linejoin:round;stroke-miterlimit:10;" d="
	M13.583,10C12.687,10,11,10.241,11,12.36c0,3.069,3,3.044,3,6.424c0,2.701-2.094,3.049-2,6.115c0.05,1.648,0.479,3.1,2.919,3.1
	c1.662,0,2.621-1.741,2.621-3.314c0-4.281,2.587-5.563,2.46-9.74C19.873,10.769,15.258,10,13.583,10z"/>
<path d="M12.862,4.695c0.357,1.271-0.003,2.623-0.804,3.018c-0.801,0.395-1.739-0.315-2.095-1.586s0.003-2.623,0.804-3.018
	C11.568,2.714,12.506,3.424,12.862,4.695z"/>
<ellipse transform="matrix(-0.9991 -0.0421 0.0421 -0.9991 29.4208 11.585)" cx="14.832" cy="5.483" rx="1.122" ry="1.483"/>
<ellipse transform="matrix(-0.9466 -0.3225 0.3225 -0.9466 31.9058 18.011)" cx="17.445" cy="6.363" rx="0.992" ry="1.399"/>
<ellipse transform="matrix(-0.8531 -0.5217 0.5217 -0.8531 31.9499 24.7872)" cx="19.464" cy="7.896" rx="0.984" ry="1.277"/>
<ellipse transform="matrix(0.6485 -0.7612 0.7612 0.6485 -0.21 19.4801)" cx="20.989" cy="9.967" rx="1.141" ry="0.861"/>
</svg>
