<?xml version="1.0" encoding="iso-8859-1"?>
<!-- Generator: Adobe Illustrator 19.1.1, SVG Export Plug-In . SVG Version: 6.00 Build 0)  -->
<svg version="1.1" id="Layer_1" xmlns="http://www.w3.org/2000/svg" xmlns:xlink="http://www.w3.org/1999/xlink" x="0px" y="0px"
	 viewBox="-7 9 32 32" style="enable-background:new -7 9 32 32;" xml:space="preserve">
<path style="fill:none;stroke:#000000;stroke-width:2;stroke-linejoin:round;stroke-miterlimit:10;" d="M14.976,22
	c1.482-0.724,2.932-1.251,3.853-2.171c1.562-1.562,1.562-4.095,0-5.657s-4.095-1.562-5.657,0c-0.881,0.88-1.531,2.374-2.248,3.828"
	/>
<polyline style="fill:none;stroke:#000000;stroke-width:2;stroke-miterlimit:10;" points="4,15 4,15 19,30 "/>
<polygon style="fill:none;stroke:#000000;stroke-width:2;stroke-miterlimit:10;" points="19,30 19,26 8,15 4,15 -3,22 12,37 "/>
<g>
	<g>
		<path d="M4,21c-0.26,0-0.52-0.11-0.71-0.29C3.11,20.52,3,20.26,3,20c0-0.26,0.11-0.52,0.29-0.71c0.38-0.37,1.05-0.37,1.42,0
			C4.89,19.48,5,19.74,5,20c0,0.26-0.11,0.52-0.29,0.71C4.52,20.89,4.26,21,4,21z"/>
		<path d="M10.79,28.21c-0.391-0.4-0.391-1.03,0-1.42l0,0c0.39-0.391,1.02-0.391,1.42,0l0,0c0.39,0.39,0.39,1.02,0,1.42l0,0
			c-0.2,0.189-0.46,0.29-0.71,0.29l0,0C11.24,28.5,10.99,28.399,10.79,28.21z M8.29,25.71c-0.39-0.39-0.39-1.03,0-1.42l0,0
			c0.39-0.39,1.03-0.39,1.42,0l0,0c0.39,0.39,0.39,1.03,0,1.42l0,0C9.51,25.9,9.26,26,9,26l0,0C8.74,26,8.49,25.9,8.29,25.71z
			 M5.79,23.21c-0.39-0.39-0.39-1.03,0-1.42l0,0c0.39-0.39,1.03-0.39,1.42,0l0,0c0.39,0.39,0.39,1.03,0,1.42l0,0
			C7.01,23.4,6.76,23.5,6.5,23.5l0,0C6.24,23.5,5.99,23.4,5.79,23.21z"/>
		<path d="M14,31c-0.26,0-0.521-0.11-0.71-0.29C13.109,30.52,13,30.26,13,30s0.109-0.521,0.29-0.71c0.37-0.37,1.04-0.37,1.42,0
			C14.89,29.479,15,29.74,15,30s-0.11,0.52-0.29,0.71C14.52,30.89,14.26,31,14,31z"/>
	</g>
</g>
<g>
	<g>
		<path d="M3,24c-0.26,0-0.52-0.11-0.71-0.29C2.11,23.52,2,23.26,2,23c0-0.26,0.11-0.52,0.29-0.71c0.38-0.37,1.04-0.37,1.42,0
			C3.89,22.48,4,22.74,4,23c0,0.26-0.11,0.52-0.29,0.71C3.52,23.89,3.26,24,3,24z"/>
		<path d="M7.63,29.04c-0.39-0.391-0.39-1.021,0-1.42l0,0c0.39-0.38,1.02-0.38,1.41,0l0,0c0.39,0.399,0.39,1.029,0,1.42l0,0
			c-0.19,0.189-0.45,0.29-0.71,0.29l0,0C8.08,29.33,7.82,29.229,7.63,29.04z M4.96,26.37c-0.39-0.39-0.39-1.021,0-1.41l0,0
			c0.39-0.39,1.02-0.39,1.41,0l0,0c0.4,0.39,0.4,1.02,0,1.41l0,0c-0.19,0.199-0.45,0.3-0.7,0.3l0,0
			C5.41,26.67,5.15,26.569,4.96,26.37z"/>
		<path d="M11,32c-0.26,0-0.521-0.11-0.71-0.29C10.109,31.52,10,31.26,10,31s0.109-0.521,0.29-0.71c0.37-0.37,1.04-0.37,1.42,0
			C11.89,30.479,12,30.74,12,31s-0.11,0.52-0.29,0.71C11.52,31.89,11.26,32,11,32z"/>
	</g>
</g>
</svg>
