<?xml version="1.0" encoding="iso-8859-1"?>
<!-- Generator: Adobe Illustrator 19.1.1, SVG Export Plug-In . SVG Version: 6.00 Build 0)  -->
<svg version="1.1" id="Layer_1" xmlns="http://www.w3.org/2000/svg" xmlns:xlink="http://www.w3.org/1999/xlink" x="0px" y="0px"
	 viewBox="-8 10 32 32" style="enable-background:new -8 10 32 32;" xml:space="preserve">
<g>
	<circle cx="4" cy="25" r="1"/>
	<circle cx="12" cy="25" r="1"/>
	<path d="M19.58,26.703c0.235-0.419,0.42-0.941,0.42-1.561c0-0.534-0.143-1.07-0.396-1.549c1.011-0.551,1.707-1.612,1.707-2.843
		c0-1.792-1.458-3.25-3.25-3.25c-0.06,0-0.115,0.014-0.174,0.018l-0.057-0.075C17.708,17.261,14.767,13,8,13
		c-8.292,0-9.9,5.5-9.964,5.735l-0.023,3.446C-3.258,22.628-4,23.894-4,25.141c0,0.62,0.185,1.142,0.42,1.561
		C-4.444,27.348-5,28.369-5,29.5c0,1.051,0.48,2.028,1.264,2.681C-3.909,32.598-4,33.045-4,33.5c0,1.93,1.57,3.5,3.5,3.5
		c0.27,0,0.537-0.031,0.795-0.093C0.838,38.139,2.07,39,3.5,39c0.804,0,1.562-0.271,2.169-0.757c1.343,0.979,3.32,0.979,4.662,0
		C10.938,38.729,11.696,39,12.5,39c1.43,0,2.662-0.861,3.205-2.093C15.964,36.969,16.229,37,16.5,37c1.93,0,3.5-1.57,3.5-3.5
		c0-0.455-0.091-0.902-0.264-1.319C20.52,31.528,21,30.551,21,29.5C21,28.369,20.444,27.348,19.58,26.703z M0,20h14.907
		c-0.058,0.242-0.096,0.491-0.096,0.75c0,0.443,0.09,0.865,0.252,1.25H0V20z M19.312,20.75c0,0.689-0.561,1.25-1.25,1.25
		s-1.25-0.561-1.25-1.25s0.561-1.25,1.25-1.25S19.312,20.061,19.312,20.75z M8,15c4.302,0,6.725,1.972,7.697,3H0.646
		C1.569,16.739,3.629,15,8,15z M-1,24h5h8h5c0.82,0,1,0.824,1,1.141c0,0.636-0.594,1.104-0.594,1.104l-0.189,0.141l-0.106,0.208
		C17.098,26.618,15.847,29,14,29c-1.929,0-3.05-1.517-3.093-1.576L10.519,27H9v1c0,0.552-0.449,1-1,1s-1-0.448-1-1l-0.09-1
		l-1.514,0.006l-0.299,0.413C5.05,27.483,3.928,29,2,29c-1.847,0-3.098-2.382-3.108-2.403l-0.107-0.211l-0.19-0.141
		C-1.412,26.241-2,25.768-2,25.141C-2,24.824-1.82,24-1,24z M18.013,30.9l-0.401,1.605C17.788,32.705,18,33.038,18,33.5
		c0,0.827-0.673,1.5-1.5,1.5c-0.403,0-0.711-0.168-0.898-0.31l-1.603,0.798L14,35.504C13.998,36.329,13.326,37,12.5,37
		c-0.519,0-0.993-0.268-1.271-0.717l-1.646-0.08c-0.771,1.014-2.396,1.014-3.166,0l-1.647,0.08C4.493,36.732,4.019,37,3.5,37
		c-0.826,0-1.498-0.671-1.5-1.496l0.001-0.016L0.398,34.69C0.211,34.832-0.097,35-0.5,35C-1.327,35-2,34.327-2,33.5
		c0-0.462,0.211-0.795,0.389-0.993L-2.012,30.9C-2.603,30.685-3,30.121-3,29.5c0-0.482,0.244-0.909,0.611-1.186
		C-1.661,29.348-0.161,31,2,31c1.559,0,2.76-0.634,3.562-1.254C6.106,30.505,6.997,31,8,31c1.004,0,1.894-0.495,2.438-1.254
		C11.24,30.366,12.441,31,14,31c2.161,0,3.661-1.652,4.389-2.686C18.756,28.591,19,29.018,19,29.5
		C19,30.121,18.604,30.685,18.013,30.9z"/>
	<rect x="5" y="32" width="6" height="2"/>
</g>
</svg>
