<?xml version="1.0" encoding="iso-8859-1"?>
<!-- Generator: Adobe Illustrator 19.1.1, SVG Export Plug-In . SVG Version: 6.00 Build 0)  -->
<svg version="1.1" id="Layer_1" xmlns="http://www.w3.org/2000/svg" xmlns:xlink="http://www.w3.org/1999/xlink" x="0px" y="0px"
	 viewBox="0 0 32 32" style="enable-background:new 0 0 32 32;" xml:space="preserve">
<circle cx="16" cy="16" r="1"/>
<circle cx="13" cy="16" r="1"/>
<circle cx="16" cy="19" r="1"/>
<circle cx="13" cy="19" r="1"/>
<path style="fill:none;stroke:#000000;stroke-width:2;stroke-miterlimit:10;" d="M16,12l4,4l4.024-4.024
	c0.539-0.539,0.539-1.413,0-1.952l-2.048-2.048c-0.539-0.539-1.413-0.539-1.952,0L16,12z"/>
<path style="fill:none;stroke:#000000;stroke-width:2;stroke-miterlimit:10;" d="M13,11l5.115-5.115c1.593-1.593,4.177-1.593,5.77,0
	l2.23,2.23c1.593,1.593,1.593,4.177,0,5.77L21,19l-7,5l-6-6L13,11z"/>
<polyline style="fill:none;stroke:#000000;stroke-width:2;stroke-miterlimit:10;" points="9,19 7,23 9,25 13,23 "/>
<line style="fill:none;stroke:#000000;stroke-width:2;stroke-miterlimit:10;" x1="4.708" y1="27.292" x2="8" y2="24"/>
</svg>
