<?xml version="1.0" encoding="iso-8859-1"?>
<!-- Generator: Adobe Illustrator 19.2.0, SVG Export Plug-In . SVG Version: 6.00 Build 0)  -->
<svg version="1.1" id="Layer_1" xmlns="http://www.w3.org/2000/svg" xmlns:xlink="http://www.w3.org/1999/xlink" x="0px" y="0px"
	 viewBox="0 0 32 32" style="enable-background:new 0 0 32 32;" xml:space="preserve">
<metadata><?xpacket begin="﻿" id="W5M0MpCehiHzreSzNTczkc9d"?>
<x:xmpmeta xmlns:x="adobe:ns:meta/" x:xmptk="Adobe XMP Core 5.6-c111 79.158366, 2015/09/25-01:12:00        ">
   <rdf:RDF xmlns:rdf="http://www.w3.org/1999/02/22-rdf-syntax-ns#">
      <rdf:Description rdf:about=""/>
   </rdf:RDF>
</x:xmpmeta>
                                                                                                    
                                                                                                    
                                                                                                    
                                                                                                    
                                                                                                    
                                                                                                    
                                                                                                    
                                                                                                    
                                                                                                    
                                                                                                    
                                                                                                    
                                                                                                    
                                                                                                    
                                                                                                    
                                                                                                    
                                                                                                    
                                                                                                    
                                                                                                    
                                                                                                    
                                                                                                    
                           
<?xpacket end="w"?></metadata>
<path d="M19,16h2c0,3.024-2,3.724-2,3.724S17.867,22,16,22s-3-2.276-3-2.276S11,19.024,11,16h2c0,0.552,0.448,1,1,1s1-0.448,1-1H17
	c0,0.552,0.448,1,1,1S19,16.552,19,16z M28,18c0,1.625-0.808,3.146-2.138,4.077c-0.415,1.896-1.89,3.37-3.785,3.785
	C21.146,27.192,19.625,28,18,28c-0.69,0-1.361-0.145-2-0.432C15.361,27.855,14.69,28,14,28c-1.625,0-3.146-0.808-4.078-2.137
	c-1.895-0.416-3.369-1.891-3.786-3.786C4.808,21.146,4,19.625,4,18c0-1.636,0.797-3.146,2.111-4.077C6.042,13.658,6,13.379,6,13.083
	c0-1.504,0.63-2.508,1.029-2.994c0.065-0.529,0.281-1.427,0.98-2.135c0.412-0.417,1.146-0.911,2.331-0.952
	c0.547-1.162,1.704-1.952,3.029-2c1.456-1.284,3.806-1.284,5.263,0c1.325,0.049,2.48,0.839,3.028,2
	c1.185,0.041,1.919,0.535,2.33,0.952c0.699,0.708,0.915,1.606,0.98,2.135C25.37,10.575,26,11.579,26,13.083
	c0,0.296-0.042,0.577-0.112,0.843C27.2,14.858,28,16.371,28,18z M26,18c0-0.906-0.427-1.737-1.114-2.302
	c-0.641,0.716-1.328,1.135-1.382,1.166l-1.008-1.728C22.912,14.889,24,14.034,24,13.083c0-1.184-0.657-1.818-0.664-1.824
	l-0.343-0.304l0.006-0.458C22.996,10.054,22.844,9,21.5,9c-0.096,0-0.271,0.028-0.34,0.042l-1.01,0.211l-0.179-1.016
	C19.845,7.521,19.226,7,18.5,7c-0.021,0.003-0.121,0.017-0.125,0.017l-0.529,0.07l-0.353-0.4c-0.781-0.886-2.205-0.886-2.985,0
	l-0.353,0.4l-0.529-0.07c-0.004,0-0.104-0.014-0.159-0.018C12.774,7,12.156,7.521,12.029,8.237l-0.179,1.01l-1.007-0.205
	C10.826,9.039,10.645,9,10.5,9c-1.344,0-1.496,1.054-1.499,1.507l-0.003,0.446l-0.334,0.306C8.647,11.275,8,11.9,8,13.083
	c0,0.951,1.088,1.806,1.507,2.055l-1.011,1.726c-0.054-0.032-0.749-0.455-1.393-1.18C6.415,16.248,6,17.09,6,18
	c0,1.068,0.589,2.064,1.539,2.6l0.442,0.249l0.06,0.504c0.163,1.372,1.235,2.444,2.606,2.606l0.504,0.06l0.25,0.442
	c0.793,1.407,2.631,1.974,4.096,1.12L16,25.288l0.503,0.293c1.465,0.855,3.302,0.287,4.096-1.12l0.249-0.442l0.504-0.06
	c1.372-0.162,2.444-1.234,2.606-2.606l0.06-0.504l0.442-0.249C25.41,20.064,26,19.068,26,18z"/>
</svg>
