<?xml version="1.0" encoding="iso-8859-1"?>
<!-- Generator: Adobe Illustrator 19.1.0, SVG Export Plug-In . SVG Version: 6.00 Build 0)  -->
<svg version="1.1" id="Layer_1" xmlns="http://www.w3.org/2000/svg" xmlns:xlink="http://www.w3.org/1999/xlink" x="0px" y="0px"
	 viewBox="0 0 32 32" style="enable-background:new 0 0 32 32;" xml:space="preserve">
<rect x="4" y="9" style="fill:none;stroke:#000000;stroke-width:2;stroke-miterlimit:10;" width="24" height="16"/>
<circle cx="8" cy="13" r="1"/>
<circle cx="16" cy="13" r="1"/>
<circle cx="20" cy="13" r="1"/>
<circle cx="24" cy="13" r="1"/>
<circle cx="8" cy="21" r="1"/>
<circle cx="8" cy="17" r="1"/>
<circle cx="24" cy="17" r="1"/>
<circle cx="16" cy="21" r="1"/>
<circle cx="12" cy="13" r="1"/>
<circle cx="12" cy="21" r="1"/>
<circle cx="20" cy="21" r="1"/>
<circle cx="24" cy="21" r="1"/>
<line style="fill:none;stroke:#000000;stroke-width:2;stroke-miterlimit:10;" x1="8" y1="9" x2="8" y2="6"/>
<line style="fill:none;stroke:#000000;stroke-width:2;stroke-miterlimit:10;" x1="12" y1="9" x2="12" y2="6"/>
<line style="fill:none;stroke:#000000;stroke-width:2;stroke-miterlimit:10;" x1="16" y1="9" x2="16" y2="6"/>
<line style="fill:none;stroke:#000000;stroke-width:2;stroke-miterlimit:10;" x1="20" y1="9" x2="20" y2="6"/>
<line style="fill:none;stroke:#000000;stroke-width:2;stroke-miterlimit:10;" x1="24" y1="9" x2="24" y2="6"/>
<line style="fill:none;stroke:#000000;stroke-width:2;stroke-miterlimit:10;" x1="8" y1="28" x2="8" y2="25"/>
<line style="fill:none;stroke:#000000;stroke-width:2;stroke-miterlimit:10;" x1="12" y1="28" x2="12" y2="25"/>
<line style="fill:none;stroke:#000000;stroke-width:2;stroke-miterlimit:10;" x1="16" y1="28" x2="16" y2="25"/>
<line style="fill:none;stroke:#000000;stroke-width:2;stroke-miterlimit:10;" x1="20" y1="28" x2="20" y2="25"/>
<line style="fill:none;stroke:#000000;stroke-width:2;stroke-miterlimit:10;" x1="24" y1="28" x2="24" y2="25"/>
</svg>
