<?xml version="1.0" encoding="iso-8859-1"?>
<!-- Generator: Adobe Illustrator 19.1.1, SVG Export Plug-In . SVG Version: 6.00 Build 0)  -->
<svg version="1.1" id="Layer_1" xmlns="http://www.w3.org/2000/svg" xmlns:xlink="http://www.w3.org/1999/xlink" x="0px" y="0px"
	 viewBox="-7 9 32 32" style="enable-background:new -7 9 32 32;" xml:space="preserve">
<path d="M20.245,18.478c-1.231-2.123-3.694-3.124-6.002-2.58C13.555,13.633,11.454,12,9,12s-4.555,1.633-5.243,3.898
	c-2.303-0.542-4.771,0.457-6.003,2.581C-3.489,20.623-3.119,23.271-1.479,25c-1.639,1.73-2.009,4.378-0.766,6.521
	c1.232,2.124,3.699,3.122,6.002,2.58C4.445,36.367,6.546,38,9,38s4.555-1.634,5.243-3.898c2.307,0.543,4.771-0.458,6.002-2.58
	c1.243-2.145,0.874-4.792-0.766-6.521C21.119,23.27,21.488,20.622,20.245,18.478z M17.381,25.839
	c1.568,1.016,2.066,3.071,1.134,4.678c-0.922,1.59-2.938,2.188-4.593,1.354l-1.357-0.683l-0.09,1.518C12.365,34.553,10.839,36,9,36
	s-3.365-1.447-3.475-3.295l-0.09-1.518l-1.358,0.685c-1.654,0.83-3.67,0.237-4.592-1.354c-0.932-1.607-0.434-3.662,1.134-4.678
	L1.915,25l-1.296-0.839c-1.568-1.016-2.066-3.071-1.135-4.679c0.923-1.591,2.941-2.187,4.593-1.354l1.358,0.684l0.09-1.518
	C5.635,15.447,7.161,14,9,14s3.365,1.447,3.475,3.294l0.09,1.518l1.357-0.684c1.655-0.832,3.671-0.236,4.593,1.354
	c0.933,1.607,0.435,3.663-1.134,4.679L16.086,25L17.381,25.839z M10,21c0,0.552-1,4-1,4s-1-3.448-1-4s0.448-1,1-1S10,20.448,10,21z
	 M8,29c0-0.552,1-4,1-4s1,3.448,1,4s-0.448,1-1,1S8,29.552,8,29z M9,25c0,0-3.491-0.834-3.972-1.107
	c-0.48-0.273-0.648-0.884-0.375-1.364s0.884-0.648,1.364-0.375C6.497,22.427,9,25,9,25z M9,25c0,0,3.491,0.834,3.972,1.107
	c0.48,0.273,0.648,0.884,0.375,1.364s-0.884,0.648-1.364,0.375C11.503,27.573,9,25,9,25z M12.972,23.893C12.491,24.166,9,25,9,25
	s2.503-2.573,2.983-2.846c0.48-0.273,1.091-0.105,1.364,0.375S13.452,23.62,12.972,23.893z M5.028,26.107C5.509,25.834,9,25,9,25
	s-2.503,2.573-2.983,2.846c-0.48,0.273-1.091,0.105-1.364-0.375S4.548,26.38,5.028,26.107z"/>
</svg>
