<?xml version="1.0" encoding="iso-8859-1"?>
<!-- Generator: Adobe Illustrator 19.1.0, SVG Export Plug-In . SVG Version: 6.00 Build 0)  -->
<svg version="1.1" id="Layer_1" xmlns="http://www.w3.org/2000/svg" xmlns:xlink="http://www.w3.org/1999/xlink" x="0px" y="0px"
	 viewBox="0 0 32 32" style="enable-background:new 0 0 32 32;" xml:space="preserve">
<path style="fill:none;stroke:#000000;stroke-width:2;stroke-miterlimit:10;" d="M17,5C11.532,5,7,9.532,7,15
	c0,5.031,0.424,8.362-2,11.903V27c4.538-1.769,6-6.923,6-12c0-3.341,2.659-6,6-6s6,2.659,6,6c0,2.977-3.254,4.583-3.254,4.583
	C19.025,18.054,17.759,17,16,17c-2.126,0-4,1.824-4,3.95c0,2.126,1.874,4.05,4,4.05c2.853,0,11-2.264,11-10C27,9.532,22.468,5,17,5z
	"/>
</svg>
