<?xml version="1.0" encoding="iso-8859-1"?>
<!-- Generator: Adobe Illustrator 19.1.1, SVG Export Plug-In . SVG Version: 6.00 Build 0)  -->
<svg version="1.1" id="Layer_1" xmlns="http://www.w3.org/2000/svg" xmlns:xlink="http://www.w3.org/1999/xlink" x="0px" y="0px"
	 viewBox="0 0 32 32" style="enable-background:new 0 0 32 32;" xml:space="preserve">
<path style="fill:none;stroke:#000000;stroke-width:2;stroke-miterlimit:10;" d="M8,17c0,0-3-1.789-3-4C5,10.642,9.5,3,16.06,3
	C22.5,3,27,10.58,27,13s-3,4-3,4"/>
<path d="M14.39,7.95c0,0-0.868-0.42-0.89-0.48c-0.023-0.06,1.461-2.46,1.461-2.46l1.027,0.94l1.073-0.96L18.5,7.47l-0.89,0.52
	l-0.708-2l-0.868,0.94l-0.959-0.96L14.39,7.95z"/>
<path style="fill:none;stroke:#000000;stroke-width:2;stroke-miterlimit:10;" d="M25,16c0,0-2.267-4-9-4s-9,4-9,4"/>
<path style="fill:none;stroke:#000000;stroke-width:2;stroke-miterlimit:10;" d="M14,15c0,0-0.543-1-2-1c-0.98,0-3,0-3,0"/>
<ellipse cx="13" cy="18.5" rx="1" ry="1.5"/>
<path style="fill:none;stroke:#000000;stroke-width:2;stroke-miterlimit:10;" d="M23,14c0,0-2.02,0-3,0c-1.457,0-2,1-2,1"/>
<ellipse cx="19" cy="18.5" rx="1" ry="1.5"/>
<path d="M21.65,20.018c-0.477,0.807-1.314,1.295-2.561,1.561c-0.284,1.445-1.558,2.535-3.089,2.535
	c-1.532,0-2.807-1.092-3.089-2.539C10.571,21.062,10.363,20,10.363,20s-0.363,0.326-0.363,1.777c0,1.709,1.158,1.796,1.158,1.796
	s0.128,1.656,1.359,1.656c0.532,0,0.841-0.262,0.882-0.285C13.468,25.028,14.023,26,14.867,26c0.656,0,1.119-0.469,1.119-0.469
	s0.513,0.444,1.212,0.444c0.794,0,1.403-1.014,1.403-1.014s0.315,0.265,0.917,0.265s1.197-0.499,1.348-1.673
	c0.489,0,1.133-0.753,1.133-1.726C21.999,20.369,21.65,20.018,21.65,20.018z"/>
<ellipse style="fill:none;stroke:#000000;stroke-width:2;stroke-miterlimit:10;" cx="16" cy="21.5" rx="3" ry="2.5"/>
<path style="fill:none;stroke:#000000;stroke-width:2;stroke-miterlimit:10;" d="M8,23c-0.155,0.043-0.318,0.071-0.48,0.071
	c-1.115,0-2.52-1.838-2.52-4.04C5,17.584,5.436,17,6,17c0.637,0,1.231,0.067,2,1"/>
<path style="fill:none;stroke:#000000;stroke-width:2;stroke-miterlimit:10;" d="M16,29c2.063,0,2.682-0.758,3.926-1.435
	C21.064,26.945,24,26.775,24,23c0-1.265,0-4.202,0-5v-5.393C24,11.482,20.833,9,16,9s-8,2.475-8,3.598V18c0,0.798,0,3.735,0,5
	c0,3.775,2.936,3.945,4.074,4.565C13.318,28.242,13.937,29,16,29"/>
<path style="fill:none;stroke:#000000;stroke-width:2;stroke-miterlimit:10;" d="M24,23c0.155,0.043,0.318,0.071,0.48,0.071
	c1.115,0,2.52-1.838,2.52-4.04C27,17.584,26.564,17,26,17c-0.637,0-1.231,0.067-2,1"/>
</svg>
