<?xml version="1.0" encoding="utf-8"?>
<!-- Generator: Adobe Illustrator 18.1.1, SVG Export Plug-In . SVG Version: 6.00 Build 0)  -->
<svg version="1.1" id="Layer_1" xmlns="http://www.w3.org/2000/svg" xmlns:xlink="http://www.w3.org/1999/xlink" x="0px" y="0px"
	 viewBox="0 0 32 32" enable-background="new 0 0 32 32" xml:space="preserve">
<path fill="none" stroke="#000000" stroke-width="2" stroke-miterlimit="10" d="M16,16L16,16c-3.9,0-7,3.1-7,7v4h14v-4
	C23,19.1,19.9,16,16,16z"/>
<polygon fill="none" stroke="#000000" stroke-width="2" stroke-miterlimit="10" points="21,5 11,5 11,7 11.4,9 20.6,9 21,7 "/>
<path fill="none" stroke="#000000" stroke-width="2" stroke-miterlimit="10" d="M11.4,9c-0.3,0.6-0.4,1.3-0.4,2c0,2.8,2.2,5,5,5
	s5-2.2,5-5c0-0.7-0.2-1.4-0.4-2"/>
<polyline fill="none" stroke="#000000" stroke-width="2" stroke-miterlimit="10" points="12,18 16,22 20,18 "/>
<line fill="none" stroke="#000000" stroke-width="2" stroke-miterlimit="10" x1="18" y1="23" x2="21" y2="23"/>
<line fill="none" stroke="#000000" stroke-width="2" stroke-miterlimit="10" x1="16" y1="16" x2="16" y2="22"/>
</svg>
