<?xml version="1.0" encoding="iso-8859-1"?>
<!-- Generator: Adobe Illustrator 19.1.0, SVG Export Plug-In . SVG Version: 6.00 Build 0)  -->
<svg version="1.1" id="Layer_1" xmlns="http://www.w3.org/2000/svg" xmlns:xlink="http://www.w3.org/1999/xlink" x="0px" y="0px"
	 viewBox="0 0 32 32" style="enable-background:new 0 0 32 32;" xml:space="preserve">
<path style="fill:none;stroke:#000000;stroke-width:2;stroke-linecap:round;stroke-miterlimit:10;" d="M8.5,27L9.678,6.883
	C9.74,5.826,10.615,5,11.674,5h6.649c1.06,0,1.936,0.827,1.997,1.886l0.636,11.143"/>
<path d="M7,25.318V28h3v-2.682c0-0.407-0.33-0.737-0.737-0.737H7.737C7.33,24.581,7,24.911,7,25.318z"/>
<line style="fill:none;stroke:#000000;stroke-width:2;stroke-linecap:round;stroke-miterlimit:10;" x1="20.853" y1="18" x2="9.147" y2="18"/>
<path style="fill:none;stroke:#000000;stroke-width:2;stroke-linecap:round;stroke-miterlimit:10;" d="M20.286,10.363
	c0,0-3.085,0.637-5.286,0.637s-5.286-0.637-5.286-0.637"/>
<g>
	<path d="M22,21c0.048,0,0.092,0.012,0.139,0.014l-0.185-3.045c-0.033-0.551-0.505-0.966-1.059-0.938
		c-0.552,0.033-0.971,0.507-0.938,1.059l0.205,3.376C20.715,21.178,21.334,21,22,21z"/>
</g>
<circle style="fill:none;stroke:#000000;stroke-width:2;stroke-miterlimit:10;" cx="22" cy="25" r="2"/>
</svg>
