<?xml version="1.0" encoding="iso-8859-1"?>
<!-- Generator: Adobe Illustrator 19.1.0, SVG Export Plug-In . SVG Version: 6.00 Build 0)  -->
<svg version="1.1" id="Layer_1" xmlns="http://www.w3.org/2000/svg" xmlns:xlink="http://www.w3.org/1999/xlink" x="0px" y="0px"
	 viewBox="0 0 32 32" style="enable-background:new 0 0 32 32;" xml:space="preserve">
<path id="XMLID_6_" style="fill:none;stroke:#000000;stroke-width:2;stroke-miterlimit:10;" d="M11,17h2.5
	c0.828,0,1.5-0.672,1.5-1.5v0c0-0.828-0.672-1.5-1.5-1.5H11v7"/>
<polygon id="XMLID_5_" points="13.688,17.018 11.688,17.018 14,21 16,21 "/>
<path id="XMLID_4_" style="fill:none;stroke:#000000;stroke-width:2;stroke-miterlimit:10;" d="M18,17h1.5
	c0.828,0,1.5-0.672,1.5-1.5v0c0-0.828-0.672-1.5-1.5-1.5H18v6h2.5c0.828,0,1.5-0.672,1.5-1.5v0c0-0.828-0.672-1.5-1.5-1.5H18"/>
<path style="fill:none;stroke:#000000;stroke-width:2;stroke-miterlimit:10;" d="M4.5,13.34c0,0.27,0,0.985,2.694,8.953
	C7.538,23.314,8.48,24,9.537,24h15.483c0.67,0,1.297-0.269,1.765-0.756c0.514-0.533,0.771-1.268,0.705-2.016l-0.586-6.801
	c-0.053-0.604-0.312-1.168-0.73-1.589C24.727,11.383,20.316,8,10.613,8C9.119,8,4.5,11.757,4.5,13.34z"/>
</svg>
