<?xml version="1.0" encoding="iso-8859-1"?>
<!-- Generator: Adobe Illustrator 19.1.0, SVG Export Plug-In . SVG Version: 6.00 Build 0)  -->
<svg version="1.1" id="Layer_1" xmlns="http://www.w3.org/2000/svg" xmlns:xlink="http://www.w3.org/1999/xlink" x="0px" y="0px"
	 viewBox="0 0 32 32" style="enable-background:new 0 0 32 32;" xml:space="preserve">
<path style="fill:none;stroke:#000000;stroke-width:2;stroke-miterlimit:10;" d="M28,16.542c0-1.643-0.998-3.121-2.527-3.721
	C23.332,11.981,19.98,11,16,11s-7.332,0.981-9.473,1.821C4.998,13.421,4,14.898,4,16.542V25h24V16.542z"/>
<path d="M22.314,7.051C22.185,7.008,19.105,6,15.998,6C12.89,6,9.814,7.008,9.686,7.051L9,7.278v2.668l2-0.463V8.748
	C12.02,8.469,14.028,8,15.998,8C17.961,8,19.977,8.47,21,8.749v0.734l2,0.463V7.278L22.314,7.051z"/>
<path style="fill:none;stroke:#000000;stroke-width:2;stroke-miterlimit:10;" d="M28,22h-3c-1.657,0-3-1.343-3-3v-3c0,0,6,0,6,0"/>
<path style="fill:none;stroke:#000000;stroke-width:2;stroke-miterlimit:10;" d="M4,16h6v3c0,1.657-1.343,3-3,3H4"/>
<rect x="13" y="21" width="2" height="2"/>
<rect x="17" y="21" width="2" height="2"/>
<rect x="14" y="16" style="fill:none;stroke:#000000;stroke-width:2;stroke-miterlimit:10;" width="4" height="3"/>
</svg>
