<?xml version="1.0" encoding="iso-8859-1"?>
<!-- Generator: Adobe Illustrator 19.1.1, SVG Export Plug-In . SVG Version: 6.00 Build 0)  -->
<svg version="1.1" id="Layer_1" xmlns="http://www.w3.org/2000/svg" xmlns:xlink="http://www.w3.org/1999/xlink" x="0px" y="0px"
	 viewBox="0 0 32 32" style="enable-background:new 0 0 32 32;" xml:space="preserve">
<line style="fill:none;stroke:#000000;stroke-width:2;stroke-miterlimit:10;" x1="5.934" y1="23.372" x2="23.309" y2="5.997"/>
<line style="fill:none;stroke:#000000;stroke-width:2;stroke-miterlimit:10;" x1="12.549" y1="28.594" x2="6.489" y2="22.535"/>
<line style="fill:none;stroke:#000000;stroke-width:2;stroke-miterlimit:10;" x1="14.549" y1="26.594" x2="8.489" y2="20.535"/>
<line style="fill:none;stroke:#000000;stroke-width:2;stroke-miterlimit:10;" x1="16.549" y1="24.594" x2="10.489" y2="18.535"/>
<line style="fill:none;stroke:#000000;stroke-width:2;stroke-miterlimit:10;" x1="18.549" y1="22.594" x2="12.489" y2="16.535"/>
<line style="fill:none;stroke:#000000;stroke-width:2;stroke-miterlimit:10;" x1="20.549" y1="20.594" x2="14.489" y2="14.535"/>
<line style="fill:none;stroke:#000000;stroke-width:2;stroke-miterlimit:10;" x1="22.549" y1="18.594" x2="16.489" y2="12.535"/>
<line style="fill:none;stroke:#000000;stroke-width:2;stroke-miterlimit:10;" x1="24.549" y1="16.594" x2="18.489" y2="10.535"/>
<line style="fill:none;stroke:#000000;stroke-width:2;stroke-miterlimit:10;" x1="26.549" y1="14.594" x2="20.489" y2="8.535"/>
<line style="fill:none;stroke:#000000;stroke-width:2;stroke-miterlimit:10;" x1="28.549" y1="12.594" x2="22.489" y2="6.535"/>
<path style="fill:none;stroke:#000000;stroke-width:2;stroke-miterlimit:10;" d="M28.549,12.594l-5.239-6.597l-1.341-1.341
	c-0.821-0.821-2.153-0.821-2.974,0L4.593,19.056c-0.821,0.821-0.821,2.153,0,2.974l1.341,1.341l6.614,5.222"/>
</svg>
