<?xml version="1.0" encoding="iso-8859-1"?>
<!-- Generator: Adobe Illustrator 21.1.0, SVG Export Plug-In . SVG Version: 6.00 Build 0)  -->
<svg version="1.1" id="Layer_1" xmlns="http://www.w3.org/2000/svg" xmlns:xlink="http://www.w3.org/1999/xlink" x="0px" y="0px"
	 viewBox="0 0 32 32" style="enable-background:new 0 0 32 32;" xml:space="preserve">
<circle style="fill:none;stroke:#000000;stroke-width:2;stroke-miterlimit:10;" cx="16" cy="16" r="9"/>
<circle cx="16" cy="4" r="1"/>
<ellipse transform="matrix(0.9397 -0.342 0.342 0.9397 -0.8982 4.3535)" cx="11.896" cy="4.724" rx="1" ry="1"/>
<ellipse transform="matrix(0.766 -0.6428 0.6428 0.766 -2.4371 6.9191)" cx="8.287" cy="6.807" rx="1" ry="1"/>
<ellipse transform="matrix(0.5 -0.866 0.866 0.5 -5.8564 9.8564)" cx="5.608" cy="10" rx="1" ry="1"/>
<ellipse transform="matrix(0.1736 -0.9848 0.9848 0.1736 -10.2487 15.6185)" cx="4.182" cy="13.916" rx="1" ry="1"/>
<ellipse transform="matrix(0.9848 -0.1736 0.1736 0.9848 -3.0767 1.001)" cx="4.182" cy="18.084" rx="1" ry="1"/>
<ellipse transform="matrix(0.866 -0.5 0.5 0.866 -10.2487 5.7513)" cx="5.608" cy="22" rx="1" ry="1"/>
<ellipse transform="matrix(0.6428 -0.766 0.766 0.6428 -16.3385 15.3469)" cx="8.287" cy="25.193" rx="1" ry="1"/>
<ellipse transform="matrix(0.342 -0.9397 0.9397 0.342 -17.8042 29.1256)" cx="11.896" cy="27.276" rx="1" ry="1"/>
<circle cx="16" cy="28" r="1"/>
<ellipse transform="matrix(0.9397 -0.342 0.342 0.9397 -8.1166 8.521)" cx="20.104" cy="27.276" rx="1" ry="1"/>
<ellipse transform="matrix(0.766 -0.6428 0.6428 0.766 -10.6456 21.1366)" cx="23.713" cy="25.193" rx="1" ry="1"/>
<ellipse transform="matrix(0.5 -0.866 0.866 0.5 -5.8564 33.8564)" cx="26.392" cy="22" rx="1" ry="1"/>
<ellipse transform="matrix(0.1736 -0.9848 0.9848 0.1736 5.1782 42.3386)" cx="27.818" cy="18.084" rx="1" ry="1"/>
<ellipse transform="matrix(0.9848 -0.1736 0.1736 0.9848 -1.9939 5.0419)" cx="27.818" cy="13.916" rx="1" ry="1"/>
<ellipse transform="matrix(0.866 -0.5 0.5 0.866 -1.4641 14.5359)" cx="26.392" cy="10" rx="1" ry="1"/>
<ellipse transform="matrix(0.6428 -0.766 0.766 0.6428 3.2559 20.5973)" cx="23.713" cy="6.807" rx="1" ry="1"/>
<ellipse transform="matrix(0.342 -0.9397 0.9397 0.342 8.7894 21.9999)" cx="20.104" cy="4.724" rx="1" ry="1"/>
</svg>
