<?xml version="1.0" encoding="utf-8"?>
<!-- Generator: Adobe Illustrator 19.1.1, SVG Export Plug-In . SVG Version: 6.00 Build 0)  -->
<svg version="1.1" id="Layer_1" xmlns="http://www.w3.org/2000/svg" xmlns:xlink="http://www.w3.org/1999/xlink" x="0px" y="0px"
	 viewBox="-7 9 32 32" enable-background="new -7 9 32 32" xml:space="preserve">
<g>
	<path d="M19.7,32.3c-2.1-2-1.9-4.8-1.8-7.8c0-0.8,0.1-1.6,0.1-2.5c0-4.2-3-7.1-5.8-8.3l-0.8-0.4L10,15.8V11H8v4.8l-1.4-2.4
		l-0.8,0.4C3,14.9,0,17.8,0,22c0,0.8,0,1.6,0.1,2.4c0.2,3,0.3,5.8-1.8,7.9l-0.5,0.5l0.3,0.6C0.2,37.8,8.4,39.9,8.8,40L9,40L9.2,40
		c0.3-0.1,8.4-2.1,10.6-6.5l0.3-0.7L19.7,32.3z M9,38c-2.1-0.6-7-2.3-8.8-4.8c2.2-2.6,2-5.8,1.8-8.8C2,23.5,2,22.8,2,22
		c0-2.9,1.8-5,3.8-6.1L8,19.7V20h0.2L9,21.4L9.8,20H10v-0.3l2.2-3.8C14.2,17,16,19.1,16,22c0,0.8,0,1.6-0.1,2.3
		c-0.2,2.9-0.3,6.2,1.8,8.8C15.9,35.7,11.1,37.4,9,38z"/>
	<path d="M12,28c2,0,3-4,3-4l-5,2C10,26,10,28,12,28z"/>
	<path d="M6,28c2,0,2-2,2-2l-5-2C3,24,4,28,6,28z"/>
</g>
</svg>
