<?xml version="1.0" encoding="iso-8859-1"?>
<!-- Generator: Adobe Illustrator 19.1.1, SVG Export Plug-In . SVG Version: 6.00 Build 0)  -->
<svg version="1.1" id="Layer_1" xmlns="http://www.w3.org/2000/svg" xmlns:xlink="http://www.w3.org/1999/xlink" x="0px" y="0px"
	 viewBox="0 0 32 32" style="enable-background:new 0 0 32 32;" xml:space="preserve">
<line style="fill:none;stroke:#000000;stroke-width:2;stroke-miterlimit:10;" x1="29.25" y1="29.25" x2="24" y2="24"/>
<polyline style="fill:none;stroke:#000000;stroke-width:2;stroke-miterlimit:10;" points="22,12 22,7 27,7 "/>
<polyline style="fill:none;stroke:#000000;stroke-width:2;stroke-miterlimit:10;" points="5,25 10,25 10,20 "/>
<path style="fill:none;stroke:#000000;stroke-width:2;stroke-miterlimit:10;" d="M16,5C9.925,5,5,9.925,5,16
	c0,3.702,1.829,6.977,4.632,8.971"/>
<path style="fill:none;stroke:#000000;stroke-width:2;stroke-miterlimit:10;" d="M16,27c6.075,0,11-4.925,11-11
	c0-3.69-1.817-6.956-4.605-8.951"/>
<g>
	<path d="M18.235,4.216l-0.537,1.932c0.661,0.113,1.307,0.289,1.929,0.531l0.536-1.93C19.538,4.517,18.893,4.34,18.235,4.216z"/>
	<path d="M13.765,27.784l0.537-1.932c-0.661-0.113-1.306-0.291-1.928-0.534l-0.537,1.932C12.463,27.482,13.107,27.66,13.765,27.784z
		"/>
</g>
</svg>
