<?xml version="1.0" encoding="iso-8859-1"?>
<!-- Generator: Adobe Illustrator 19.1.0, SVG Export Plug-In . SVG Version: 6.00 Build 0)  -->
<svg version="1.1" id="Layer_1" xmlns="http://www.w3.org/2000/svg" xmlns:xlink="http://www.w3.org/1999/xlink" x="0px" y="0px"
	 viewBox="0 0 32 32" style="enable-background:new 0 0 32 32;" xml:space="preserve">
<path style="fill:none;stroke:#000000;stroke-width:2;stroke-miterlimit:10;" d="M16,24c-3.866,0-7-3.134-7-7c0-3.866,3.134-7,7-7
	s7,3.134,7,7C23,20.866,19.866,24,16,24z"/>
<path style="fill:none;stroke:#000000;stroke-width:2;stroke-miterlimit:10;" d="M27,17c0-6.075-4.925-11-11-11S5,10.925,5,17
	c0,4.842,2.387,5.696,2.387,7.173c0,0.67-2.675,1.827,4.787,1.827h7.652c7.462,0,4.787-1.157,4.787-1.827
	C24.613,22.696,27,21.842,27,17z"/>
<path d="M19,17c0-0.265-0.045-0.516-0.109-0.761l1.692-1.236c-0.151-0.347-0.343-0.671-0.566-0.971l-1.903,0.841
	c-0.362-0.36-0.82-0.617-1.327-0.755l-0.225-2.084C16.377,12.013,16.19,12,16,12s-0.377,0.013-0.562,0.034l-0.225,2.084
	c-0.507,0.138-0.965,0.395-1.327,0.755l-1.903-0.841c-0.222,0.301-0.414,0.624-0.566,0.971l1.692,1.236
	C13.045,16.484,13,16.735,13,17c0,0.264,0.045,0.516,0.109,0.761l-1.692,1.236c0.151,0.347,0.343,0.671,0.566,0.971l1.903-0.841
	c0.362,0.36,0.82,0.617,1.327,0.755l0.225,2.084C15.623,21.987,15.81,22,16,22s0.377-0.013,0.562-0.034l0.225-2.084
	c0.507-0.138,0.965-0.395,1.327-0.755l1.903,0.841c0.222-0.3,0.414-0.624,0.566-0.971l-1.692-1.236C18.955,17.516,19,17.264,19,17z
	 M17.5,17c0,0.828-0.672,1.5-1.5,1.5s-1.5-0.672-1.5-1.5s0.672-1.5,1.5-1.5S17.5,16.172,17.5,17z"/>
</svg>
