<?xml version="1.0" encoding="iso-8859-1"?>
<!-- Generator: Adobe Illustrator 19.1.1, SVG Export Plug-In . SVG Version: 6.00 Build 0)  -->
<svg version="1.1" id="Layer_1" xmlns="http://www.w3.org/2000/svg" xmlns:xlink="http://www.w3.org/1999/xlink" x="0px" y="0px"
	 viewBox="0 0 32 32" style="enable-background:new 0 0 32 32;" xml:space="preserve">
<g>
	<path d="M15.82,16.584c-0.663-1.047-1.142-1.914-1.807-3.545C12.888,10.28,20.854,7.787,17.622,3
		c1.401,3.309-5.023,5.351-5.62,8.108C11.455,13.641,15.816,16.584,15.82,16.584z"/>
	<path d="M15.97,11.624c-0.128,1.637,1.478,2.51,1.524,3.702c0.038,0.973-0.96,1.783-0.96,1.783s1.809-0.347,2.375-1.832
		c0.626-1.647-1.215-2.772-1.028-4.091c0.179-1.261,4.002-3.603,4.002-3.603S16.257,7.947,15.97,11.624z"/>
	<path d="M21.412,16.685c1.163-0.256,2.144,0.47,2.144,1.308c0,1.884-2.667,3.666-2.667,3.666s4.13-0.482,4.13-3.578
		C25.02,16.035,22.99,15.524,21.412,16.685z"/>
	<path d="M19.453,18.206c0,0,1.287-0.9,1.63-1.235c-3.159,0.656-10.37,0.744-10.37,0.174c0-0.525,2.324-1.065,2.324-1.065
		s-5.154-0.072-5.154,1.417C7.883,19.053,14.633,19.162,19.453,18.206z"/>
	<path d="M18.661,19.62c-2.988,0.976-8.498,0.663-6.867-0.644c-0.792,0-1.971,0.625-1.971,1.226c0,1.209,5.956,2.14,10.364,0.374
		L18.661,19.62z"/>
	<path d="M12.527,21.68c-1.083,0-1.787,0.684-1.787,1.186c0,1.552,6.472,1.709,9.037,0.131l-1.63-1.059
		C16.232,22.764,11.42,22.876,12.527,21.68z"/>
	<path d="M24.093,24.281c0-0.607-0.7-0.895-0.953-1.033c1.477,3.493-14.797,3.222-14.797,1.161c0-0.47,1.196-0.929,2.305-0.71
		l-0.942-0.546C7.499,22.814,6,23.763,6,24.531C6,28.107,24.093,27.935,24.093,24.281z"/>
	<path d="M26,25.491c-2.75,2.662-9.723,3.632-16.732,1.988C16.277,30.407,25.966,28.759,26,25.491z"/>
</g>
</svg>
