<?xml version="1.0" encoding="iso-8859-1"?>
<!-- Generator: Adobe Illustrator 19.1.1, SVG Export Plug-In . SVG Version: 6.00 Build 0)  -->
<svg version="1.1"  xmlns="http://www.w3.org/2000/svg" xmlns:xlink="http://www.w3.org/1999/xlink" x="0px" y="0px"
	 viewBox="0 0 32 32" style="enable-background:new 0 0 32 32;" xml:space="preserve">
<path style="fill:none;stroke:#000000;stroke-width:2;stroke-miterlimit:10;" d="M10,17c-0.55,0-1,0.45-1,1v9c0,0.55,0.45,1,1,1h12
	c0.55,0,1-0.45,1-1v-9c0-0.55-0.45-1-1-1H10z"/>
<circle cx="16" cy="21.5" r="1.5"/>
<path d="M16,25L16,25c-0.55,0-1-0.45-1-1v-2c0-0.55,0.45-1,1-1h0c0.55,0,1,0.45,1,1v2C17,24.55,16.55,25,16,25z"/>
<path style="fill:none;stroke:#000000;stroke-width:2;stroke-miterlimit:10;" d="M12,17l0-3c0-2.209,1.791-4,4-4h0
	c2.209,0,4,1.791,4,4l0,3"/>
<line style="fill:none;stroke:#000000;stroke-width:2;stroke-linecap:square;stroke-linejoin:round;stroke-miterlimit:10;" x1="16" y1="4" x2="16" y2="6"/>
<line style="fill:none;stroke:#000000;stroke-width:2;stroke-linecap:square;stroke-linejoin:round;stroke-miterlimit:10;" x1="6" y1="14" x2="8" y2="14"/>
<line style="fill:none;stroke:#000000;stroke-width:2;stroke-linecap:square;stroke-linejoin:round;stroke-miterlimit:10;" x1="8.656" y1="6.656" x2="10" y2="8"/>
<line style="fill:none;stroke:#000000;stroke-width:2;stroke-linecap:square;stroke-linejoin:round;stroke-miterlimit:10;" x1="23.328" y1="6.672" x2="22" y2="8"/>
<line style="fill:none;stroke:#000000;stroke-width:2;stroke-linecap:square;stroke-linejoin:round;stroke-miterlimit:10;" x1="26" y1="14" x2="24" y2="14"/>
</svg>
