<?xml version="1.0" encoding="iso-8859-1"?>
<!-- Generator: Adobe Illustrator 19.0.1, SVG Export Plug-In . SVG Version: 6.00 Build 0)  -->
<svg version="1.1" id="Layer_1" xmlns="http://www.w3.org/2000/svg" xmlns:xlink="http://www.w3.org/1999/xlink" x="0px" y="0px"
	 viewBox="0 0 32 32" style="enable-background:new 0 0 32 32;" xml:space="preserve">
<circle style="fill:none;stroke:#000000;stroke-width:2;stroke-miterlimit:10;" cx="16" cy="7" r="3"/>
<path style="fill:none;stroke:#000000;stroke-width:2;stroke-miterlimit:10;" d="M18,19.27l4.999,0.714
	c0.753,0.108,1.268-0.74,0.826-1.359l-2.629-3.95C20.446,13.624,19.233,13,17.942,13h-3.883c-1.292,0-2.504,0.624-3.255,1.675
	l-2.629,3.95c-0.442,0.619,0.073,1.467,0.826,1.359L14,19.27l2-2.473L18,19.27z"/>
<path id="XMLID_150_" d="M24.247,22.621L21,21.323v-1.381l-2-0.281v3.016l4.503,1.801C23.805,24.599,24,24.887,24,25.211
	C24,25.646,23.646,26,23.211,26H8.789C8.354,26,8,25.646,8,25.211c0-0.324,0.195-0.612,0.496-0.732L13,22.677v-3.016l-2,0.281v1.381
	l-3.248,1.299C6.688,23.049,6,24.065,6,25.211C6,26.749,7.251,28,8.789,28h14.422C24.749,28,26,26.749,26,25.211
	C26,24.065,25.312,23.049,24.247,22.621z"/>
<path id="XMLID_151_" d="M16.5,23L11,25h5.5c0.275,0,0.5,0.224,0.5,0.5S16.775,26,16.5,26H15v2h1.5c1.379,0,2.5-1.122,2.5-2.5
	S17.879,23,16.5,23z"/>
</svg>
