<svg xmlns="http://www.w3.org/2000/svg" fill-rule="evenodd" stroke-linecap="round" stroke-linejoin="round" stroke-miterlimit="1.5" clip-rule="evenodd" viewBox="0 0 400 400"><defs/><path fill="none" d="M0 0h400v400H0z"/><circle cx="200" cy="200" r="140.5" fill="#ffd54f" fill-opacity=".2"/><circle cx="200" cy="200" r="119.072" fill="#ffd54f" fill-opacity=".3"/><circle cx="200" cy="200" r="99.5" fill="#ffd54f"/><path fill="#fff" fill-rule="nonzero" d="M265.384 201.1c0-38.426-33.52-69.494-72.764-64.589-28.615 3.27-52.325 26.163-57.231 54.778-3.27 21.257 4.088 41.696 17.17 55.595 9.81 9.811 14.716 22.892 14.716 36.791h65.406c0-13.081 4.906-26.98 13.899-35.973 11.446-13.082 18.804-28.616 18.804-46.602z"/><path fill="none" stroke="#ffd54f" stroke-width="8" d="M213.2 194.58C224 188 238 196 231.751 204.881c-9.583 13.619-57.987 11.566-63.709-1.805-3.689-8.622 8.958-14.076 19.439-8.496C196.151 199.196 200.5 207 200.5 224v4"/><path fill="#446c80" fill-rule="nonzero" d="M232.681 283.675h-65.406c0 18.532 14.171 32.703 32.703 32.703 18.532 0 32.703-14.171 32.703-32.703z"/></svg>