<?xml version="1.0" encoding="iso-8859-1"?>
<!-- Generator: Adobe Illustrator 19.1.1, SVG Export Plug-In . SVG Version: 6.00 Build 0)  -->
<svg version="1.1"  xmlns="http://www.w3.org/2000/svg" xmlns:xlink="http://www.w3.org/1999/xlink" x="0px" y="0px"
	 viewBox="0 0 32 32" style="enable-background:new 0 0 32 32;" xml:space="preserve">
<g>
	<path d="M10.666,4.228l1.166,0.816c0.59,0.413,1.297,0.648,1.92,0.856c0.301,0.1,0.757,0.252,0.929,0.364
		c0.034,0.023,0.064,0.046,0.093,0.067c0.186,0.137,0.496,0.368,0.946,0.517c0.292,0.097,0.609,0.149,0.916,0.149
		c0.681,0,1.304-0.247,1.756-0.695c0.521,0.214,1.144,0.455,1.869,0.514c0.075,0.274,0.134,0.556,0.197,0.861
		c0.111,0.531,0.236,1.132,0.462,1.772c0.172,0.515,0.403,1.209,0.946,1.802c0.33,0.403,0.688,0.647,0.932,0.814
		c0.018,0.013,0.037,0.025,0.056,0.038c0.059,0.082,0.154,0.249,0.22,0.366c0.145,0.254,0.32,0.562,0.559,0.869
		c0.249,0.386,0.6,0.716,0.999,0.938c-0.186,0.177-0.382,0.345-0.587,0.501c-0.709,0.48-1.241,0.995-1.627,1.574l-0.045,0.067
		l-0.039,0.071l-0.054,0.096c-0.415,0.744-1.037,1.858-0.811,3.2c0.065,0.563,0.208,1.047,0.334,1.476
		c0.039,0.134,0.078,0.264,0.111,0.388l-0.06,0.03l-0.066,0.04c-0.186,0.111-1.814,1.134-1.814,2.699
		c0,0.199,0.022,0.381,0.06,0.547c-0.43,0.397-0.692,0.946-0.692,1.562c0,0.003,0,0.006,0,0.009
		c-0.208,0.284-0.359,0.565-0.489,0.808c-0.048,0.09-0.098,0.182-0.142,0.257c-0.129,0.067-0.381,0.153-0.693,0.219
		c-0.181-0.428-0.431-0.714-0.567-0.869l-0.012-0.014c-0.256-0.419-0.402-0.749-0.479-1.092c-0.013-0.065-0.018-0.136-0.026-0.206
		c-0.022-0.2-0.05-0.45-0.118-0.721c-0.189-0.758-0.606-1.318-0.94-1.768c-0.069-0.092-0.16-0.215-0.226-0.313
		c0.04-0.109,0.102-0.25,0.148-0.357c0.189-0.437,0.448-1.035,0.509-1.762l0.007-0.083v-0.083c0-1.229-0.38-2.289-1.194-3.336
		c-0.153-0.197-0.167-0.215-0.209-0.669c0.033-0.159,0.068-0.378,0.068-0.633c0-0.931-0.586-2.072-1.362-2.654l-0.989-0.742
		l-0.389,0.195c-0.567-0.474-1.335-0.751-2.104-0.751c-0.375,0-0.732,0.067-1.061,0.198c-0.117,0.047-0.241,0.104-0.368,0.164
		c-0.009,0.004-0.017,0.008-0.026,0.013c-0.193-0.051-0.457-0.108-0.761-0.108c-0.488,0-0.896,0.134-1.194,0.259
		c-0.07-0.042-0.136-0.079-0.199-0.114c-0.029-0.017-0.058-0.032-0.084-0.047l-0.011-0.013l-0.029-0.033
		c-0.291-0.333-0.614-0.659-0.983-0.991c0.039-0.092,0.076-0.19,0.11-0.292c0.429-1.286,0.163-2.21-0.156-2.776
		c0.089-0.08,0.19-0.158,0.306-0.237l0.081-0.047c0.46-0.261,1.417-0.805,1.762-2.013l0.009-0.032l0.008-0.032
		c0.046-0.185,0.07-0.361,0.082-0.518c0.134-0.106,0.282-0.238,0.426-0.398c0.829-0.001,1.526-0.303,2.035-0.524
		c0.083-0.036,0.164-0.072,0.242-0.103C10.437,4.282,10.551,4.253,10.666,4.228 M12.488,2c-0.984,0.07-1.898,0.141-2.811,0.422
		c-0.485,0.182-1.074,0.52-1.632,0.52c-0.089,0-0.178-0.009-0.266-0.028c-0.211-0.07-0.351-0.211-0.562-0.211
		c-0.211,0-0.422,0.07-0.492,0.211c-0.07,0.141,0,0.211,0,0.351C6.654,3.827,5.811,3.968,5.671,4.46c-0.07,0.281,0,0.633-0.07,0.914
		C5.46,5.865,4.968,6.076,4.616,6.287C3.984,6.709,3.492,7.201,3.141,7.903C3.07,8.044,3,8.185,3,8.325
		c0,0.281,0.422,0.562,0.562,0.773c0.281,0.351,0.211,0.843,0.07,1.265s-0.422,0.773-0.562,1.124C3,11.628,3,11.769,3,11.839
		c0.07,0.07,0.141,0.141,0.211,0.211c0.633,0.492,1.195,0.984,1.687,1.546c0.281,0.351,0.492,0.422,0.843,0.633
		c0.304,0.183,0.661,0.365,0.98,0.365c0.049,0,0.098-0.004,0.145-0.014c0.351-0.07,0.703-0.351,1.054-0.351
		c0.211,0,0.492,0.141,0.703,0.141c0.046,0.008,0.091,0.011,0.137,0.011c0.375,0,0.745-0.237,1.058-0.363
		c0.094-0.038,0.203-0.055,0.318-0.055c0.314,0,0.671,0.13,0.876,0.336c0.211,0.141,0.281,0.422,0.492,0.562
		c0.127,0.095,0.268,0.133,0.411,0.133c0.173,0,0.349-0.056,0.503-0.133c0.281,0.211,0.562,0.773,0.562,1.054
		c0,0.281-0.141,0.492-0.07,0.703c0.07,0.773,0.141,1.195,0.633,1.827c0.492,0.633,0.773,1.265,0.773,2.108
		c-0.07,0.843-0.703,1.546-0.703,2.389c0,0.914,1.054,1.616,1.265,2.46c0.07,0.281,0.07,0.633,0.141,0.914
		c0.141,0.633,0.422,1.195,0.773,1.757c0.141,0.211,0.351,0.351,0.422,0.633c0,0.141,0,0.281,0,0.422
		c0,0.351,0.281,0.703,0.633,0.843C16.907,29.991,16.974,30,17.046,30c0.174,0,0.373-0.05,0.571-0.099
		c0.773-0.07,2.179-0.351,2.671-1.054c0.307-0.438,0.492-0.984,0.843-1.335c0.211-0.211,0.422-0.422,0.351-0.703
		c-0.07-0.141-0.141-0.211-0.141-0.281c0-0.141,0.281-0.211,0.422-0.211c0.141,0,0.281,0,0.422,0
		c0.351-0.07,0.492-0.492,0.422-0.773c-0.07-0.351-0.422-0.562-0.562-0.914c-0.07-0.07-0.07-0.141-0.07-0.211
		c0-0.281,0.492-0.773,0.843-0.984c0.422-0.211,0.914-0.422,1.124-0.843c0.141-0.351,0.141-0.703,0-1.054
		c-0.141-0.703-0.422-1.335-0.492-2.038c-0.141-0.703,0.281-1.406,0.633-2.038c0.281-0.422,0.703-0.773,1.124-1.054
		c1.406-1.054,2.811-2.811,3.022-4.568c-0.492,0.422-1.335,0.703-2.038,0.773c-0.211,0-0.422,0-0.562-0.07
		c-0.141-0.07-0.281-0.211-0.351-0.351c-0.422-0.492-0.633-1.195-1.124-1.616c-0.281-0.211-0.562-0.351-0.773-0.633
		C23.1,9.66,22.959,9.239,22.819,8.817c-0.422-1.195-0.422-2.179-0.914-3.373c-0.141-0.281-0.281-0.633-0.562-0.633
		c-0.141,0-0.281,0-0.492,0c-0.088,0.013-0.176,0.018-0.263,0.018c-0.885,0-1.723-0.6-2.618-0.792
		c-0.087-0.029-0.187-0.046-0.283-0.046c-0.136,0-0.267,0.034-0.349,0.116c-0.211,0.211-0.141,0.562-0.351,0.773
		c-0.082,0.082-0.213,0.116-0.349,0.116c-0.096,0-0.196-0.017-0.283-0.046c-0.211-0.07-0.351-0.211-0.562-0.351
		c-0.703-0.492-2.108-0.703-2.811-1.195c0.141-0.211,0.211-0.422,0.281-0.633S13.19,2.211,12.98,2.07C12.839,2,12.628,2,12.488,2
		L12.488,2z"/>
</g>
<g>
	<path d="M27.751,20c-0.199,0.429-0.464,0.929-0.796,1.143c-0.265,0.143-0.597,0.286-0.73,0.571c-0.199,0.357,0,0.786-0.066,1.143
		c0,0.143-0.066,0.286-0.133,0.429c-0.066,0.357,0,0.786,0.133,1.143c0.066,0.214,0.199,0.5,0.398,0.571
		c0.133,0,0.332-0.071,0.464-0.214c0.133-0.143,0.265-0.429,0.332-0.643s0.066-0.429,0.066-0.643
		c0.066-0.643,0.398-1.286,0.531-1.929c0.066-0.429,0.066-0.857,0-1.286C27.884,20.143,27.818,20,27.751,20l0.033,0.071
		c0.017,0.018,0.033,0.036,0.033,0.071l-0.033-0.071C27.768,20.054,27.751,20.036,27.751,20L27.751,20z"/>
</g>
</svg>
