<?xml version="1.0" encoding="iso-8859-1"?>
<!-- Generator: Adobe Illustrator 19.1.0, SVG Export Plug-In . SVG Version: 6.00 Build 0)  -->
<svg version="1.1" id="Layer_1" xmlns="http://www.w3.org/2000/svg" xmlns:xlink="http://www.w3.org/1999/xlink" x="0px" y="0px"
	 viewBox="0 0 32 32" style="enable-background:new 0 0 32 32;" xml:space="preserve">
<path d="M15.5,7.4c-0.7,0.9-1,2-0.2,3c0.4,0.4,0.5,0.5,0.9,0.9c0-0.7-0.1-1.2,0.2-1.9c0.5-1.4,3-2.7,2.1-4.5
	c-0.1-0.2-0.2,0.1-0.3,0.3C17.8,6.3,16.1,6.7,15.5,7.4z M18.2,3c0.9,0.5,1.5,1.4,1.7,2.3c0.6,1.8-1,3.8-2.3,5.4
	c-0.5,0.5-0.5,1.4-0.3,2c0.1,0.7-0.7-0.1-1.1-0.4c-0.9-0.5-1.9-0.9-2.6-1.7c-0.6-1-0.8-2-0.3-3C14.5,4.9,18.5,4,18.2,3z"/>
<g>
	<path d="M18.6,14L18.6,14v1.4l-0.4,1.3L18,17.1v0.3v9.5l-4-0.5V14H18.6 M20,12h-7c-0.6,0-1,0.4-1,1v14.3c0,0.5,0.4,0.9,0.9,1l6,0.7
		H19c0.5,0,1-0.4,1-1V17.4l0.5-1.6v-1.6L21,13C21,12.4,20.5,12,20,12L20,12z"/>
</g>
<path style="fill:none;stroke:#000000;stroke-width:1.2;stroke-miterlimit:10;" d="M19,25.8c1.9-0.2,3.5-0.5,4-0.7"/>
<path style="fill:none;stroke:#000000;stroke-width:1.2;stroke-miterlimit:10;" d="M19.7,14.4c1.9,0.5,3.3,1.3,3.3,2.5
	c0,4.6-14.2,1.8-14.2,6.2c0,1.7,2.1,2.5,4.4,2.8"/>
<path style="fill:none;stroke:#000000;stroke-width:1.2;stroke-miterlimit:10;" d="M9,16.5c0,0,1.9-1.2,4.2-1.9"/>
<polygon points="7.8,15.1 9.4,15.7 9.7,14.1 10.2,15.9 11.2,17.1 9.9,16.8 9.3,18.1 9,16.4 "/>
<polygon points="20.8,16.9 21.3,15.4 19.8,15.5 21.2,14.5 22.2,13.1 22.3,14.7 23.9,15.3 22.2,15.8 "/>
<polygon points="20.1,17.8 21.6,18.4 21.7,16.9 22.5,18.4 23.7,19.5 22.2,19.4 21.4,20.9 21.1,19.2 "/>
<polygon points="17.7,21.6 16.4,20.8 15.1,21.9 15.3,20 14.7,18.4 16.1,19.3 17.2,18.1 17,19.8 "/>
<polygon points="12,21.9 10.7,21.7 10.1,23 9.7,21.5 8.4,20.5 10,20.6 10.5,19.3 10.9,20.8 "/>
<polygon points="20.9,24.1 22,24.7 23,23.7 23,25.2 23.9,26.5 22.4,26 21.5,27 21.6,25.5 "/>
</svg>
