<?xml version="1.0" encoding="utf-8"?>
<!-- Generator: Adobe Illustrator 18.1.1, SVG Export Plug-In . SVG Version: 6.00 Build 0)  -->
<svg version="1.1" id="Layer_1" xmlns="http://www.w3.org/2000/svg" xmlns:xlink="http://www.w3.org/1999/xlink" x="0px" y="0px"
	 viewBox="0 0 32 32" enable-background="new 0 0 32 32" xml:space="preserve">
<path fill="none" stroke="#000000" stroke-width="2" stroke-miterlimit="10" d="M8.1,21.6c0.1,0.5,0.7,1.6,0.7,1.6l1.3,0.6l0.9-0.3
	l1.1,0.2l2-1.5c0,0,0.8-1.2,0.9-1.9L14,17.9C13.8,18,13.5,18,13.5,18s-0.9-0.4-1-0.9l-1.6,0l-1.8,0.7l-0.9,1.9l0.3,1.1L8.1,21.6z"/>
<line fill="none" stroke="#000000" stroke-width="2" stroke-miterlimit="10" x1="15" y1="14" x2="21.5" y2="7.5"/>
<line fill="none" stroke="#000000" stroke-width="2" stroke-miterlimit="10" x1="18" y1="18" x2="23.4" y2="12.6"/>
<circle cx="27" cy="9" r="1"/>
<circle cx="25" cy="11" r="1"/>
<circle cx="25" cy="4" r="1"/>
<circle cx="23" cy="6" r="1"/>
<circle cx="16" cy="6" r="1"/>
<circle cx="14" cy="8" r="1"/>
<circle cx="25" cy="17" r="1"/>
<circle cx="27" cy="15" r="1"/>
<circle cx="23" cy="19" r="1"/>
<path fill="none" stroke="#000000" stroke-width="2" stroke-miterlimit="10" d="M12.7,9.3c0,0-5.7,5.7-6.6,6.6
	c-2.8,2.8-2.8,7.2,0,10c2.8,2.8,7.2,2.8,10,0c0.9-0.9,5.4-5.4,5.4-5.4"/>
</svg>
