<?xml version="1.0" encoding="iso-8859-1"?>
<!-- Generator: Adobe Illustrator 19.1.1, SVG Export Plug-In . SVG Version: 6.00 Build 0)  -->
<svg version="1.1" id="Layer_1" xmlns="http://www.w3.org/2000/svg" xmlns:xlink="http://www.w3.org/1999/xlink" x="0px" y="0px"
	 viewBox="0 0 32 32" style="enable-background:new 0 0 32 32;" xml:space="preserve">
<polyline style="fill:none;stroke:#000000;stroke-width:2;stroke-miterlimit:10;" points="5,9 5,5 9,5 "/>
<polyline style="fill:none;stroke:#000000;stroke-width:2;stroke-miterlimit:10;" points="9,27 5,27 5,23 "/>
<polyline style="fill:none;stroke:#000000;stroke-width:2;stroke-miterlimit:10;" points="27,23 27,27 23,27 "/>
<polyline style="fill:none;stroke:#000000;stroke-width:2;stroke-miterlimit:10;" points="23,5 27,5 27,9 "/>
<line style="fill:none;stroke:#000000;stroke-width:2;stroke-miterlimit:10;" x1="4" y1="19" x2="28" y2="19"/>
<path style="fill:none;stroke:#000000;stroke-width:2;stroke-miterlimit:10;" d="M24,18c0-0.741-0.401-1.381-1-1.727V15
	c0-5.342-1.453-7-4-7l-1-2c-7.022,0-9,3.261-9,9l0.007,1.273C8.408,16.619,8,17.259,8,18"/>
<circle cx="13" cy="18" r="1"/>
<circle cx="19" cy="18" r="1"/>
<path style="fill:none;stroke:#000000;stroke-width:2;stroke-miterlimit:10;" d="M19,8c2.966,5.924-5.958,0.783-6,6"/>
<path d="M20.113,22c-1.001,1.58-2.483,3-4.113,3s-3.112-1.42-4.113-3H9.592c1.206,2.38,3.474,5,6.408,5s5.202-2.62,6.408-5H20.113z"
	/>
</svg>
