<?xml version="1.0" encoding="iso-8859-1"?>
<!-- Generator: Adobe Illustrator 19.1.0, SVG Export Plug-In . SVG Version: 6.00 Build 0)  -->
<svg version="1.1" id="Layer_1" xmlns="http://www.w3.org/2000/svg" xmlns:xlink="http://www.w3.org/1999/xlink" x="0px" y="0px"
	 viewBox="0 0 32 32" style="enable-background:new 0 0 32 32;" xml:space="preserve">
<path style="fill:none;stroke:#000000;stroke-width:2;stroke-miterlimit:10;" d="M8.007,15.273C7.408,15.619,7,16.259,7,17
	c0,1.049,0.811,1.9,1.838,1.984c0.759,2.469,1.872,5.226,2.636,6.034c2.499,2.644,6.552,2.644,9.051,0
	c0.764-0.808,1.877-3.565,2.636-6.034C24.189,18.9,25,18.049,25,17c0-0.741-0.401-1.381-1-1.727V14c0-5.342-2.453-7-5-7l-1-2
	C10.978,5,8,8.261,8,14L8.007,15.273z"/>
<path style="fill:none;stroke:#000000;stroke-width:2;stroke-miterlimit:10;" d="M19,7c2.966,5.924-6.958,0.783-7,6"/>
<path d="M23.374,13.22C23.352,13.238,21.06,15,16,15s-7.352-1.762-7.374-1.78l-1.259,1.554c0.056,0.045,2.014,0.949,3.171,3.795
	C10.895,19.447,11.775,20,12.723,20c0.798,0,1.543-0.399,1.985-1.062l0.243-0.365c0.499-0.748,1.598-0.748,2.097,0l0.243,0.365
	C17.735,19.601,18.479,20,19.277,20h0.01c0.944,0,1.823-0.549,2.181-1.422c1.176-2.867,3.109-3.758,3.165-3.804L23.374,13.22z
	 M13,18c-0.552,0-1-0.448-1-1c0-0.552,0.448-1,1-1s1,0.448,1,1C14,17.552,13.552,18,13,18z M19,18c-0.552,0-1-0.448-1-1
	c0-0.552,0.448-1,1-1s1,0.448,1,1C20,17.552,19.552,18,19,18z"/>
</svg>
