<?xml version="1.0" encoding="iso-8859-1"?>
<!-- Generator: Adobe Illustrator 19.1.1, SVG Export Plug-In . SVG Version: 6.00 Build 0)  -->
<svg version="1.1" id="Layer_1" xmlns="http://www.w3.org/2000/svg" xmlns:xlink="http://www.w3.org/1999/xlink" x="0px" y="0px"
	 viewBox="0 0 32 32" style="enable-background:new 0 0 32 32;" xml:space="preserve">
<path style="fill:none;stroke:#000000;stroke-width:2;stroke-linecap:round;stroke-linejoin:round;stroke-miterlimit:10;" d="
	M11.977,14.945c-0.127,4.177,2.46,5.459,2.46,9.74c0,1.572,0.959,3.314,2.621,3.314c2.439,0,2.869-1.452,2.919-3.1
	c0.094-3.066-2-3.414-2-6.115c0-3.379,3-3.354,3-6.424c0-2.119-1.687-2.36-2.583-2.36C16.719,10,12.105,10.769,11.977,14.945z"/>
<path d="M21.21,3.109c0.801,0.395,1.161,1.747,0.804,3.018s-1.295,1.982-2.095,1.586c-0.801-0.395-1.161-1.747-0.804-3.018
	S20.409,2.714,21.21,3.109z"/>
<ellipse transform="matrix(0.0421 0.9991 -0.9991 0.0421 21.9007 -11.8776)" cx="17.145" cy="5.483" rx="1.483" ry="1.122"/>
<ellipse transform="matrix(0.3225 0.9466 -0.9466 0.3225 15.8683 -9.4451)" cx="14.532" cy="6.363" rx="1.399" ry="0.992"/>
<ellipse transform="matrix(0.5217 0.8531 -0.8531 0.5217 12.7211 -6.8984)" cx="12.513" cy="7.896" rx="1.277" ry="0.984"/>
<ellipse transform="matrix(0.7612 -0.6485 0.6485 0.7612 -3.84 9.5063)" cx="10.989" cy="9.967" rx="0.861" ry="1.141"/>
</svg>
