<?xml version="1.0" encoding="iso-8859-1"?>
<!-- Generator: Adobe Illustrator 19.1.0, SVG Export Plug-In . SVG Version: 6.00 Build 0)  -->
<svg version="1.1" id="Layer_1" xmlns="http://www.w3.org/2000/svg" xmlns:xlink="http://www.w3.org/1999/xlink" x="0px" y="0px"
	 viewBox="0 0 32 32" style="enable-background:new 0 0 32 32;" xml:space="preserve">
<g>
	<path d="M22.426,23.398l1.417,1.417C25.808,22.406,27,19.344,27,16c0-3.729-1.475-7.114-3.86-9.625l-1.414,1.414
		C23.75,9.937,25,12.822,25,16C25,18.793,24.033,21.358,22.426,23.398z"/>
	<path d="M19.566,20.538l1.432,1.432C22.249,20.302,23,18.24,23,16c0-2.626-1.026-5.012-2.687-6.798l-1.414,1.414
		C20.199,12.039,21,13.925,21,16C21,17.688,20.464,19.247,19.566,20.538z"/>
	<polygon points="11.721,12.693 15,9.414 15,15.972 17,17.972 17,4.586 10.586,11 10.028,11 	"/>
	<polygon points="15,18.8 15,22.586 11.414,19 8,19 8,13 9.2,13 7.2,11 6,11 6,21 10.586,21 17,27.414 17,20.8 	"/>
</g>
<line style="fill:none;stroke:#000000;stroke-width:2;stroke-miterlimit:10;" x1="3" y1="3" x2="29" y2="29"/>
</svg>
