<?xml version="1.0" encoding="iso-8859-1"?>
<!-- Generator: Adobe Illustrator 19.1.1, SVG Export Plug-In . SVG Version: 6.00 Build 0)  -->
<svg version="1.1" id="Layer_1" xmlns="http://www.w3.org/2000/svg" xmlns:xlink="http://www.w3.org/1999/xlink" x="0px" y="0px"
	 viewBox="0 0 32 32" style="enable-background:new 0 0 32 32;" xml:space="preserve">
<path style="fill:none;stroke:#000000;stroke-width:2;stroke-miterlimit:10;" d="M13,3c0,4-6,7-6,13c0,5,4,9,9,9s9-4,9-9
	c0-6-6-9-6-13"/>
<path d="M13,25c0,0.2-1,3-1,3l2-1v2l2-2l2,2v-2l2,1l-1-3H13z"/>
<path style="fill:none;stroke:#000000;stroke-width:2;stroke-miterlimit:10;" d="M21,16c0,2.8-2.2,5-5,5s-5-2.2-5-5s3.2-5.85,5-8.25
	C17.6,10.05,21,13.2,21,16z"/>
<path d="M18,16c0,1.1-0.9,2-2,2s-2-0.9-2-2s1.3-2.517,2-3.417C16.6,13.383,18,14.9,18,16z"/>
</svg>
