<?xml version="1.0" encoding="iso-8859-1"?>
<!-- Generator: Adobe Illustrator 19.2.0, SVG Export Plug-In . SVG Version: 6.00 Build 0)  -->
<svg version="1.1" id="Layer_1" xmlns="http://www.w3.org/2000/svg" xmlns:xlink="http://www.w3.org/1999/xlink" x="0px" y="0px"
	 viewBox="0 0 32 32" style="enable-background:new 0 0 32 32;" xml:space="preserve">
<path style="fill:none;stroke:#000000;stroke-width:2;stroke-miterlimit:10;" d="M26,9c-2.52,0-3.312,1.497-4.566,3.212"/>
<path style="fill:none;stroke:#000000;stroke-width:2;stroke-miterlimit:10;" d="M21,24.997C21,23.7,20.36,22,20.36,22
	c3.388,0,5.784-2.594,5.784-2.594L27,17c-1.374-0.53-0.791-2.43-3.058-4.179"/>
<path style="fill:none;stroke:#000000;stroke-width:2;stroke-miterlimit:10;" d="M11.003,24.983C11.003,22.231,10,21.1,10,21.1V21
	c1.665,0.612,2.697,0.98,4,1c1.191,0.018,2.208,0,2.208,0S17,22.972,17,25"/>
<path style="fill:none;stroke:#000000;stroke-width:2;stroke-miterlimit:10;" d="M23.156,11.25c0,0-3.156-3.25-8.638-3.25
	C11,8,5,9.745,5,14.992C5,19.554,7,21.133,7,25"/>
<path style="fill:none;stroke:#000000;stroke-width:2;stroke-miterlimit:10;" d="M5.474,12.622c0,0-1.474-0.976-1.474-3.061
	c0-1.456,1.32-2.572,1.32-2.572"/>
<circle cx="22.5" cy="16.5" r="0.5"/>
</svg>
