<?xml version="1.0" encoding="iso-8859-1"?>
<!-- Generator: Adobe Illustrator 19.1.0, SVG Export Plug-In . SVG Version: 6.00 Build 0)  -->
<svg version="1.1" id="Layer_1" xmlns="http://www.w3.org/2000/svg" xmlns:xlink="http://www.w3.org/1999/xlink" x="0px" y="0px"
	 viewBox="0 0 32 32" style="enable-background:new 0 0 32 32;" xml:space="preserve">
<line style="fill:none;stroke:#000000;stroke-width:2;stroke-miterlimit:10;" x1="24" y1="25" x2="8" y2="25"/>
<line style="fill:none;stroke:#000000;stroke-width:2;stroke-miterlimit:10;" x1="24" y1="28" x2="8" y2="28"/>
<path style="fill:none;stroke:#000000;stroke-width:2;stroke-miterlimit:10;" d="M22,23v-2l3.121-3.121
	C25.684,17.316,26,16.553,26,15.757V7c0-1.105-0.895-2-2-2h0c-1.105,0-2,0.895-2,2v4.5"/>
<path style="fill:none;stroke:#000000;stroke-width:2;stroke-miterlimit:10;" d="M19.561,17.561l3.416-3.416
	c0.585-0.585,0.585-1.533,0-2.117l0,0c-0.586-0.586-1.536-0.585-2.121,0.003l-3.402,3.421C16.523,16.388,16,17.656,16,18.977V23"/>
<path style="fill:none;stroke:#000000;stroke-width:2;stroke-miterlimit:10;" d="M10,23v-2l-3.121-3.121
	C6.316,17.316,6,16.553,6,15.757V7c0-1.105,0.895-2,2-2h0c1.105,0,2,0.895,2,2v4.5"/>
<path style="fill:none;stroke:#000000;stroke-width:2;stroke-miterlimit:10;" d="M12.439,17.561l-3.416-3.416
	c-0.585-0.585-0.585-1.533,0-2.117l0,0c0.586-0.586,1.536-0.585,2.121,0.003l3.402,3.421C15.477,16.388,16,17.656,16,18.977V23"/>
</svg>
