<?xml version="1.0" encoding="iso-8859-1"?>
<!-- Generator: Adobe Illustrator 19.1.1, SVG Export Plug-In . SVG Version: 6.00 Build 0)  -->
<svg version="1.1" id="Layer_1" xmlns="http://www.w3.org/2000/svg" xmlns:xlink="http://www.w3.org/1999/xlink" x="0px" y="0px"
	 viewBox="0 0 32 32" style="enable-background:new 0 0 32 32;" xml:space="preserve">
<rect x="6" y="6" style="fill:none;stroke:#000000;stroke-width:2;stroke-miterlimit:10;" width="20" height="20"/>
<path id="XMLID_3_" style="fill:none;stroke:#000000;stroke-width:2;stroke-miterlimit:10;" d="M15,17.5L15,17.5
	c0,1.381-1.119,2.5-2.5,2.5h0c-1.381,0-2.5-1.119-2.5-2.5v-5c0-1.381,1.119-2.5,2.5-2.5h0c1.381,0,2.5,1.119,2.5,2.5v0V17.5z"/>
<path id="XMLID_93_" style="fill:none;stroke:#000000;stroke-width:2;stroke-miterlimit:10;" d="M20.5,19L20.5,19
	c0.828,0,1.5,0.672,1.5,1.5v0c0,0.828-0.576,1.5-1.5,1.5c-1.104,0-1.5-0.572-1.5-1.381l0,0"/>
<path id="XMLID_92_" style="fill:none;stroke:#000000;stroke-width:2;stroke-miterlimit:10;" d="M20.5,19L20.5,19
	c0.828,0,1.5-0.672,1.5-1.5v0c0-0.828-0.576-1.5-1.5-1.5c-1.104,0-1.5,0.572-1.5,1.381l0,0"/>
<line style="fill:none;stroke:#000000;stroke-width:2;stroke-miterlimit:10;" x1="20" y1="19" x2="21" y2="19"/>
</svg>
