<?xml version="1.0" encoding="iso-8859-1"?>
<!-- Generator: Adobe Illustrator 21.0.2, SVG Export Plug-In . SVG Version: 6.00 Build 0)  -->
<svg version="1.1"  xmlns="http://www.w3.org/2000/svg" xmlns:xlink="http://www.w3.org/1999/xlink" x="0px" y="0px"
	 viewBox="0 0 32 32" style="enable-background:new 0 0 32 32;" xml:space="preserve">
<path d="M16,3c-3.094,0-5.493,4.579-5.924,10.937c0.557,0.59,1.208,1.175,1.931,1.746C12.077,9.549,14.144,5,16,5
	c0.633,0,1.289,0.537,1.883,1.478c0.679-0.212,1.35-0.396,2.001-0.532C18.852,4.092,17.509,3,16,3z"/>
<path d="M27.258,9.5c-0.883-1.529-2.941-2.167-5.806-1.796c-2.563,0.332-5.564,1.433-8.452,3.1
	c-0.521,0.301-1.021,0.618-1.507,0.944c0,0-0.217,1.696-0.181,2.378l0.027,0.171c0,0,1.709-1.211,2.66-1.76
	c2.664-1.539,5.402-2.55,7.709-2.849C22.161,9.628,22.585,9.6,22.975,9.6c1.293,0,2.213,0.315,2.551,0.9
	c0.308,0.533,0.171,1.375-0.342,2.366c0.524,0.483,1.019,0.973,1.463,1.469C27.769,12.472,27.999,10.782,27.258,9.5z"/>
<path d="M25.911,16.574c-1.242-1.625-3.043-3.244-5.169-4.676c-0.789,0.185-1.624,0.456-2.482,0.796
	c2.548,1.508,4.696,3.307,6.062,5.094c1.194,1.563,1.644,2.951,1.204,3.712c-0.305,0.529-1.094,0.831-2.196,0.886
	c-0.158,0.7-0.336,1.374-0.545,2.002c0.056,0.001,0.121,0.012,0.176,0.012c2.078,0,3.578-0.654,4.297-1.899
	C28.141,20.971,27.663,18.866,25.911,16.574z"/>
<path d="M22,16c0-0.576-0.018-1.139-0.05-1.689c-0.747-0.442-1.469-0.91-2.141-1.439C19.928,13.857,20,14.899,20,16
	c0,5.899-1.854,10.4-3.641,10.944C16.236,26.981,16.115,27,16,27c-0.633,0-1.289-0.536-1.883-1.478
	c-0.679,0.212-1.35,0.396-2.001,0.532C13.148,27.908,14.491,29,16,29c0.2,0,0.392-0.021,0.578-0.059C19.707,28.349,22,22.987,22,16z
	"/>
<path d="M11.469,24.146l0.22-0.046c0.014-0.003,0.028-0.007,0.042-0.01c0.533-0.112,1.118-0.268,1.791-0.478l0.658-0.205
	c0.981-0.337,1.983-0.752,2.987-1.242c0.219-0.726,0.415-1.574,0.563-2.552c-2.579,1.452-5.21,2.412-7.44,2.7
	c-1.948,0.252-3.377-0.051-3.816-0.813c-0.308-0.533-0.171-1.375,0.342-2.366c-0.524-0.483-1.019-0.972-1.463-1.468
	c-1.122,1.863-1.352,3.553-0.611,4.835c0.719,1.245,2.219,1.899,4.297,1.899c0.474,0,0.978-0.034,1.509-0.103
	C10.849,24.257,11.157,24.206,11.469,24.146z"/>
<path d="M14,19.464c-2.664-1.538-4.909-3.403-6.322-5.251c-1.194-1.563-1.644-2.951-1.204-3.712
	c0.304-0.527,1.099-0.821,2.195-0.877c0.158-0.705,0.339-1.379,0.549-2.011C7.05,7.575,5.48,8.221,4.742,9.5
	c-0.803,1.39-0.468,3.258,0.913,5.308c0.125,0.193,0.264,0.396,0.434,0.618c1.569,2.054,4.023,4.103,6.911,5.77
	c0.499,0.288,1.007,0.562,1.517,0.819L17,21l-0.876-0.429C15.411,20.239,14.697,19.866,14,19.464z"/>
<circle cx="16" cy="16" r="2"/>
</svg>
