<?xml version="1.0" encoding="iso-8859-1"?>
<!-- Generator: Adobe Illustrator 19.1.0, SVG Export Plug-In . SVG Version: 6.00 Build 0)  -->
<svg version="1.1" id="Layer_1" xmlns="http://www.w3.org/2000/svg" xmlns:xlink="http://www.w3.org/1999/xlink" x="0px" y="0px"
	 viewBox="0 0 32 32" style="enable-background:new 0 0 32 32;" xml:space="preserve">
<path style="fill:none;stroke:#000000;stroke-width:2;stroke-miterlimit:10;" d="M11.033,7.326C7.456,7.821,5,8.831,5,10
	c0,1.657,4.925,3,11,3s11-1.343,11-3s-4.925-3-11-3c-0.338,0-0.671,0.006-1.001,0.014"/>
<circle style="fill:none;stroke:#000000;stroke-width:2;stroke-miterlimit:10;" cx="13" cy="7" r="2"/>
<path style="fill:none;stroke:#000000;stroke-width:2;stroke-miterlimit:10;" d="M5,10c0,0.547,0,3.453,0,4c0,1.657,4.925,3,11,3
	s11-1.343,11-3c0-0.547,0-3.453,0-4"/>
<path style="fill:none;stroke:#000000;stroke-width:2;stroke-miterlimit:10;" d="M6,15.273c0,0,0.897,8.766,1,9.273
	C7.271,25.874,11.029,27,16,27s8.791-1.115,9-2.455c0.079-0.507,1-9.273,1-9.273"/>
<line style="fill:none;stroke:#000000;stroke-width:2;stroke-miterlimit:10;" x1="16" y1="19" x2="16" y2="15"/>
<line style="fill:none;stroke:#000000;stroke-width:2;stroke-miterlimit:10;" x1="21" y1="19" x2="21" y2="15"/>
<line style="fill:none;stroke:#000000;stroke-width:2;stroke-miterlimit:10;" x1="11" y1="19" x2="11" y2="15"/>
</svg>
