<?xml version="1.0" encoding="iso-8859-1"?>
<!-- Generator: Adobe Illustrator 19.1.0, SVG Export Plug-In . SVG Version: 6.00 Build 0)  -->
<svg version="1.1" id="Layer_1" xmlns="http://www.w3.org/2000/svg" xmlns:xlink="http://www.w3.org/1999/xlink" x="0px" y="0px"
	 viewBox="0 0 32 32" style="enable-background:new 0 0 32 32;" xml:space="preserve">
<path d="M13.583,15.998c-1.156,0-2.552-0.56-4.289-2.289l1.411-1.417c2.431,2.42,3.361,1.803,4.768,0.869
	c1.556-1.033,3.687-2.445,7.236,1.136l-1.42,1.408c-2.395-2.415-3.316-1.803-4.71-0.878C15.774,15.361,14.815,15.998,13.583,15.998z
	 M15.474,17.16c-1.407,0.934-2.337,1.552-4.768-0.869l-1.411,1.417c1.736,1.729,3.132,2.289,4.289,2.289
	c1.232,0,2.191-0.637,2.997-1.171c1.394-0.926,2.315-1.537,4.71,0.878l1.42-1.408C19.16,14.714,17.029,16.127,15.474,17.16z"/>
<rect x="6" y="6" style="fill:none;stroke:#000000;stroke-width:2;stroke-miterlimit:10;" width="20" height="20"/>
<line style="fill:none;stroke:#000000;stroke-width:2;stroke-miterlimit:10;" x1="8.5" y1="8.5" x2="23.5" y2="23.5"/>
</svg>
