<?xml version="1.0" encoding="iso-8859-1"?>
<!-- Generator: Adobe Illustrator 19.1.1, SVG Export Plug-In . SVG Version: 6.00 Build 0)  -->
<svg version="1.1" id="Layer_1" xmlns="http://www.w3.org/2000/svg" xmlns:xlink="http://www.w3.org/1999/xlink" x="0px" y="0px"
	 viewBox="0 0 32 32" style="enable-background:new 0 0 32 32;" xml:space="preserve">
<path style="fill:none;stroke:#000000;stroke-width:2;stroke-miterlimit:10;" d="M16,22c5.875,0,11-3.958,11-9c0-4.44-3.954-6-7-6
	c-2.845,0-6,2.04-6,5c0,6.875,10,7,10,7"/>
<path style="fill:none;stroke:#000000;stroke-width:2;stroke-miterlimit:10;" d="M16,22c-6,0-11-3.958-11-9c0-4.44,3.954-6,7-6
	c2.845,0,6,2.04,6,5c0,6.958-10,7-10,7"/>
<path style="fill:none;stroke:#000000;stroke-width:2;stroke-miterlimit:10;" d="M20,7c0,0,8,0.016,8,7c0,3.479-1.984,11-12,11"/>
<path style="fill:none;stroke:#000000;stroke-width:2;stroke-miterlimit:10;" d="M12,7c0,0-8,0.016-8,7c0,3.479,1.984,11,12,11"/>
</svg>
