<?xml version="1.0" encoding="iso-8859-1"?>
<!-- Generator: Adobe Illustrator 22.1.0, SVG Export Plug-In . SVG Version: 6.00 Build 0)  -->
<svg version="1.1" id="Layer_1" xmlns="http://www.w3.org/2000/svg" xmlns:xlink="http://www.w3.org/1999/xlink" x="0px" y="0px"
	 viewBox="0 0 32 32" style="enable-background:new 0 0 32 32;" xml:space="preserve">
<path style="fill:none;stroke:#000000;stroke-width:2;stroke-miterlimit:10;" d="M9,27V15c0-1.105,0.895-2,2-2h8V9.115
	c0-1.458-0.989-2.794-2.422-3.061C15.173,5.792,13.9,6.51,13.324,7.642c-0.332,0.652-0.889,1.198-1.61,1.325
	c-1.591,0.28-2.757-1.28-2.171-2.676c1.099-2.615,3.74-4.423,6.786-4.283C20.113,2.181,23,5.493,23,9.281V27c0,1.105-0.895,2-2,2H11
	C9.895,29,9,28.105,9,27z"/>
<line style="fill:none;stroke:#000000;stroke-width:2;stroke-miterlimit:10;" x1="12" y1="18" x2="18" y2="18"/>
<line style="fill:none;stroke:#000000;stroke-width:2;stroke-miterlimit:10;" x1="12" y1="22" x2="16" y2="22"/>
</svg>
