<?xml version="1.0" encoding="iso-8859-1"?>
<!-- Generator: Adobe Illustrator 19.1.1, SVG Export Plug-In . SVG Version: 6.00 Build 0)  -->
<svg version="1.1" id="Layer_1" xmlns="http://www.w3.org/2000/svg" xmlns:xlink="http://www.w3.org/1999/xlink" x="0px" y="0px"
	 viewBox="0 0 32 32" style="enable-background:new 0 0 32 32;" xml:space="preserve">
<path style="fill:none;stroke:#000000;stroke-width:2;stroke-miterlimit:10;" d="M20,29v-4c0,0,0,0,1,0c2,0,4-2,4-4c0-1,0-2.2,0-2.2
	s1.1-0.3,1.7-0.5c0.8-0.2,0.9-1,0.6-1.7c-0.3-0.6-2.7-5.4-2.7-5.4S23.2,4,15,4C9.5,4,5,8.5,5,14c0,3.8,3,6.6,3,10.1V29"/>
<circle style="fill:none;stroke:#000000;stroke-width:2;stroke-miterlimit:10;" cx="15" cy="14" r="3.5"/>
<line style="fill:none;stroke:#000000;stroke-width:2;stroke-miterlimit:10;" x1="13.5" y1="11.402" x2="12" y2="8.804"/>
<line style="fill:none;stroke:#000000;stroke-width:2;stroke-miterlimit:10;" x1="18" y1="19.196" x2="16.5" y2="16.598"/>
<line style="fill:none;stroke:#000000;stroke-width:2;stroke-miterlimit:10;" x1="12" y1="14" x2="9" y2="14"/>
<line style="fill:none;stroke:#000000;stroke-width:2;stroke-miterlimit:10;" x1="21" y1="14" x2="18" y2="14"/>
<line style="fill:none;stroke:#000000;stroke-width:2;stroke-miterlimit:10;" x1="13.5" y1="16.598" x2="12" y2="19.196"/>
<line style="fill:none;stroke:#000000;stroke-width:2;stroke-miterlimit:10;" x1="18" y1="8.804" x2="16.5" y2="11.402"/>
</svg>
