<?xml version="1.0" encoding="iso-8859-1"?>
<!-- Generator: Adobe Illustrator 19.0.1, SVG Export Plug-In . SVG Version: 6.00 Build 0)  -->
<svg version="1.1" id="Layer_1" xmlns="http://www.w3.org/2000/svg" xmlns:xlink="http://www.w3.org/1999/xlink" x="0px" y="0px"
	 viewBox="0 0 32 32" style="enable-background:new 0 0 32 32;" xml:space="preserve">
<circle style="fill:none;stroke:#000000;stroke-width:2;stroke-miterlimit:10;" cx="16" cy="16" r="11"/>
<path d="M7.286,17H11l4.036,3.036l-1.071,4l1.393,2.393l-1.214,0.607l-4.071-5H8.893l-1.857-2.071v-2.071l-1.75-2
	c0,0-0.441-3.534,1.162-5.521s2.859-3.573,4.359-4.359s3.526-1.09,3.526-1.09l-2.046,1.648l1.036,0.143l1.643-0.679l2.429,0.179
	l0.536,2.321l-3,0.571l-0.821-1.143l-1.714,0.393L13,11l-4,1.893l-2.679,2.143L7.286,17z"/>
<path d="M20.148,25.507l1.745-5.472c0,0-0.714-1.821-0.821-1.821s-2.107,0.357-2.107,0.357l-1.929-1.607l0.964-3l1.714-1.286
	l1.75-0.25l1.643,1l0.679-1.25l-2.679-0.857L18.929,12l-0.143-2.071l0.857-0.75l1.071,0.464l-0.179-2l2.25-0.25
	c0,0,3.107,2.607,4,6.143c0.893,3.536-0.071,6.25-1.25,8.143C24.357,23.571,20.826,25.9,20.148,25.507z"/>
</svg>
