<?xml version="1.0" encoding="iso-8859-1"?>
<!-- Generator: Adobe Illustrator 19.1.1, SVG Export Plug-In . SVG Version: 6.00 Build 0)  -->
<svg version="1.1" id="Layer_1" xmlns="http://www.w3.org/2000/svg" xmlns:xlink="http://www.w3.org/1999/xlink" x="0px" y="0px"
	 viewBox="0 0 32 32" style="enable-background:new 0 0 32 32;" xml:space="preserve">
<path style="fill:none;stroke:#000000;stroke-width:2;stroke-miterlimit:10;" d="M23.059,6H16H8.941C7.317,6,6,7.317,6,8.941V16
	v7.059C6,24.683,7.317,26,8.941,26H16h7.059C24.683,26,26,24.683,26,23.059V16V8.941C26,7.317,24.683,6,23.059,6z"/>
<path d="M17.626,9.496c6.154,4.185,4.163,8.801,4.163,8.801s1.75,1.976,1.043,3.704c0,0-0.722-1.21-1.932-1.21
	c-1.166,0-1.852,1.21-4.2,1.21C11.472,22,9,17.633,9,17.633c4.71,3.099,7.925,0.904,7.925,0.904
	c-2.122-1.232-6.635-7.124-6.635-7.124c3.93,3.346,5.629,4.229,5.629,4.229c-1.014-0.839-3.857-4.936-3.857-4.936
	c2.275,2.304,6.795,5.52,6.795,5.52C20.141,12.668,17.626,9.496,17.626,9.496z"/>
</svg>
