<?xml version="1.0" encoding="iso-8859-1"?>
<!-- Generator: Adobe Illustrator 19.1.1, SVG Export Plug-In . SVG Version: 6.00 Build 0)  -->
<svg version="1.1" id="Layer_1" xmlns="http://www.w3.org/2000/svg" xmlns:xlink="http://www.w3.org/1999/xlink" x="0px" y="0px"
	 viewBox="0 0 32 32" style="enable-background:new 0 0 32 32;" xml:space="preserve">
<polygon points="13.42,13.397 14.523,15.956 12.052,16.574 14.509,17.392 12.847,19.133 15.522,18.455 15.803,21.736 16.765,19.085 
	19.906,20.589 17.86,17.681 20.612,16.53 17.761,15.986 19.774,13.088 16.566,14.922 15.92,11.921 15.45,14.809 "/>
<polygon style="fill:none;stroke:#000000;stroke-width:2;stroke-miterlimit:10;" points="14,10 16,5 18,11 25,8 22,14 27,16 22,19 
	25,25 19,23 15.068,28 13,22 7,24 10,19 5,16 11,14 7,8 "/>
</svg>
