<?xml version="1.0" encoding="iso-8859-1"?>
<!-- Generator: Adobe Illustrator 19.1.1, SVG Export Plug-In . SVG Version: 6.00 Build 0)  -->
<svg version="1.1" id="Layer_1" xmlns="http://www.w3.org/2000/svg" xmlns:xlink="http://www.w3.org/1999/xlink" x="0px" y="0px"
	 viewBox="0 0 32 32" style="enable-background:new 0 0 32 32;" xml:space="preserve">
<path style="fill:none;stroke:#000000;stroke-width:2;stroke-miterlimit:10;" d="M24.638,23.577
	C22.836,21.485,19.317,15.898,19,5.426C18.986,4.96,19,4,19,4H8c0,0-0.011,0.958,0,1.425c0.316,13.223,4.951,19.8,6.923,21.998
	c0.532,0.593,0.839,0.763,2.077,0.352c1.985-0.843,6.809-2.45,7.35-2.69C25.09,24.757,25.215,24.245,24.638,23.577z"/>
<path d="M12,7l-1,0.033c0.31,9.437,3.883,15.526,5.456,17.766c0.529-0.197,1.214-0.448,1.95-0.715
	c-1.206-1.597-5.081-7.46-5.405-17.084H12z"/>
<path d="M20.615,21.849c-1.84-3.154-4.36-7.473-4.614-14.849H15l-1,0.034c0.265,7.901,3.046,12.669,4.888,15.823
	c0.18,0.309,0.34,0.589,0.5,0.871c0.67-0.242,1.333-0.48,1.912-0.686C21.091,22.666,20.862,22.271,20.615,21.849z"/>
</svg>
