<?xml version="1.0" encoding="iso-8859-1"?>
<!-- Generator: Adobe Illustrator 19.1.1, SVG Export Plug-In . SVG Version: 6.00 Build 0)  -->
<svg version="1.1"  xmlns="http://www.w3.org/2000/svg" xmlns:xlink="http://www.w3.org/1999/xlink" x="0px" y="0px"
	 viewBox="-8 10 32 32" style="enable-background:new -8 10 32 32;" xml:space="preserve">
<g>
	<polygon points="8,22.499 7.528,24.027 6,24.027 7.236,24.971 6.764,26.499 8,25.555 9.236,26.499 8.764,24.971 10,24.027 
		8.472,24.027 	"/>
	<path d="M19.079,24c0,0,0.029-0.875-0.379-0.875C18.292,23.125,18,24,18,24h-1c0,0,0.467-2.275-0.029-2.275
		c-0.496,0-1.167,0.904-1.167,0.904s0,0-0.409,0S14.345,24,14.345,24l-0.651,0.001c0,0,0-0.817-0.35-0.817
		c-0.35,0-0.729,0.817-0.729,0.817h-0.001L13.219,22H14v-1c0-3.309-2.691-6-6-6s-6,2.691-6,6v1h0.779l0.601,1.99
		c-0.029-0.06-0.388-0.805-0.724-0.805c-0.35,0-0.35,0.817-0.35,0.817L1.655,24c0,0-0.641-1.371-1.05-1.371s-0.409,0-0.409,0
		s-0.671-0.904-1.167-0.904C-1.467,21.725-1,24-1,24h-1c0,0-0.292-0.875-0.7-0.875C-3.109,23.125-3.079,24-3.079,24L-7,24.001
		c0,0,0.263,1.546,3.122,1.546C-3.115,26.199-1.071,26-0.873,26c0,0,0.175,0.684,0.525,0.684c0.411,0,0.38-0.684,0.38-0.684h0.554
		l2.822,4.008c0,0-0.525,0.175-0.525,0.583S3.146,31,3.146,31h2.351l1.506,4.987C7.003,35.991,7,35.995,7,36c0,0.552,0.448,1,1,1
		s1-0.448,1-1c0-0.011-0.006-0.02-0.006-0.031L10.497,31h2.343c0,0,0.263,0,0.263-0.409s-0.525-0.583-0.525-0.583L15.415,26h0.554
		c0,0-0.032,0.684,0.379,0.684c0.35,0,0.525-0.684,0.525-0.684c0.199,0,2.243,0.199,3.005-0.454C22.737,25.546,23,24,23,24H19.079z
		 M8,17c1.86,0,3.429,1.277,3.873,3H4.126C4.572,18.277,6.14,17,8,17z M4.751,29.192l-1.568-2.595c0,0-0.117-0.116-0.117-0.321
		C3.066,26.055,3.161,26,3.503,26c0,0,0.167,0.48,0.488,0.48c0.052,0,0.093-0.015,0.13-0.038l0.759,2.513
		C4.778,29.068,4.751,29.192,4.751,29.192z M8.904,32.81l0.665-5.297l-0.917-0.7L8,32.213l-0.653-5.4l-0.917,0.7l0.67,5.34L3.823,22
		h1.805l0.137,1.027H6h0.775L6.638,22h2.724l-0.137,1.027H10h0.235L10.372,22h1.803L8.904,32.81z M12.819,26.597l-1.583,2.595
		c0,0-0.025-0.12-0.122-0.23l0.763-2.522c0.037,0.024,0.08,0.041,0.133,0.041c0.321,0,0.488-0.48,0.488-0.48
		c0.343,0,0.437,0.054,0.437,0.276C12.936,26.48,12.819,26.597,12.819,26.597z"/>
</g>
</svg>
