<?xml version="1.0" encoding="iso-8859-1"?>
<!-- Generator: Adobe Illustrator 19.1.1, SVG Export Plug-In . SVG Version: 6.00 Build 0)  -->
<svg version="1.1"  xmlns="http://www.w3.org/2000/svg" xmlns:xlink="http://www.w3.org/1999/xlink" x="0px" y="0px"
	 viewBox="0 0 32 32" style="enable-background:new 0 0 32 32;" xml:space="preserve">
<g>
	<path d="M27.952,13.001c-0.002-0.004-0.966,0.029-1.764-0.553c-1.21-0.883-1.864-1.983-2.622-3.259
		c-0.55-0.925-1.118-1.881-1.953-2.859C19.808,4.214,16.729,3,13.17,3c-2.368,0-3.973,0.683-4.79,2.025C6.137,5.178,3,6.137,3,9
		l0.023,1h1.759L4.96,9.364C5.118,9.226,5.611,9,6,9c0.054,0,0.552,0.032,1.643,1.152c0.488,0.501,0.954,0.913,1.363,1.243
		c-0.224,0.017-0.425,0.021-0.58,0.004c-0.642-0.072-2.368-0.529-2.686-0.727l-0.718-0.569l-0.63,0.665C4.214,10.958,4,11.325,4,12
		c0,1.54,2.363,3.172,5.268,3.639c2.117,0.34,3.483,1.349,3.732,1.544V19c0,0.261-0.17,0.621-0.404,1.12
		C11.96,21.471,11,23.511,11,28v1h1c1.188,0,2.232-0.744,2.929-1.411c0.399,0.45,0.939,0.946,1.606,1.296l0.812,0.427l0.495-0.771
		c0.385-0.601,0.645-1.251,0.818-1.824c0.41,0.189,0.887,0.314,1.407,0.282l0.748-0.051l0.161-0.732
		c0.157-0.717,0.17-1.724,0.139-2.588C21.692,23.833,22.357,24,23,24h1v-1c0-0.756-0.14-1.511-0.32-2.185
		C24.114,20.928,24.566,21,25,21h1v-1c0-1.099-0.347-2.337-0.651-3.231c3.007-0.712,3.54-2.203,3.621-2.525l0.316-1.294
		L27.952,13.001z M8.465,13.406c1.107,0.055,2.604-0.333,2.784-0.379L12,12.834l-0.003-1.872l-0.528-0.283
		c-0.011-0.006-1.101-0.596-2.394-1.922c-0.711-0.73-1.366-1.229-1.979-1.503C8.046,7.022,8.966,7.001,9.005,7
		c0.385,0.001,0.852,0.052,1.091,0.114c0.481,0.842,1.476,2.478,2.052,3.41c0.429,0.694,1.141,1.144,1.769,1.539
		C14.399,12.367,15,12.746,15,13c0,0.268-0.464,0.786-0.836,1.202c-0.234,0.262-0.483,0.559-0.721,0.873
		c-0.812-0.493-2.127-1.133-3.859-1.411C9.18,13.599,8.807,13.51,8.465,13.406z M23.866,15.009l-1.226,0.166l0.494,1.364
		c0.147,0.383,0.503,1.304,0.709,2.237c-0.571-0.188-1.077-0.447-1.228-0.564l-2.639-2.063l1.075,3.172
		c0.035,0.104,0.089,0.244,0.154,0.415c0.184,0.478,0.472,1.228,0.646,2.028c-0.572-0.2-1.099-0.477-1.333-0.619l-1.73-1.049
		l0.217,2.011c0.052,0.485,0.141,1.608,0.12,2.568c-0.158-0.118-0.292-0.243-0.37-0.331l-1.549-1.786l-0.203,2.355
		c-0.001,0.01-0.073,0.747-0.371,1.566c-0.474-0.475-0.759-0.967-0.762-0.972l-0.77-1.36l-0.914,1.27
		c-0.219,0.303-0.661,0.794-1.149,1.149c0.172-3.055,0.879-4.558,1.367-5.596C14.725,20.293,15,19.707,15,19v-2.688
		c0.194-0.262,0.428-0.521,0.654-0.775C16.316,14.797,17,14.032,17,13c0-1.358-1.118-2.063-2.017-2.629
		c-0.466-0.293-0.947-0.597-1.133-0.896c-0.68-1.103-1.796-2.942-2.146-3.583l-0.169-0.226c-0.137-0.137-0.31-0.247-0.505-0.335
		C11.567,5.111,12.282,5,13.17,5c2.974,0,5.497,0.958,6.922,2.629c0.725,0.849,1.249,1.73,1.755,2.583
		c0.798,1.341,1.621,2.728,3.163,3.852c0.269,0.196,0.542,0.352,0.811,0.475C25.355,14.721,24.723,14.893,23.866,15.009z"/>
	<path d="M17.983,7c-2.479,0-4.269-1.699-4.286-1.717L13,6l-0.7,0.714c0.05,0.049,0.691,0.658,1.75,1.236
		c0,0.001-0.001,0.001-0.001,0.001c-0.108,0.388,0.244,0.825,0.785,0.976c0.434,0.121,0.847,0.014,1.054-0.23
		C16.525,8.876,17.222,9,17.982,9c0.007,0,0.014,0,0.021,0l-0.006-2C17.992,7,17.988,7,17.983,7z"/>
</g>
</svg>
