<?xml version="1.0" encoding="iso-8859-1"?>
<!-- Generator: Adobe Illustrator 19.1.1, SVG Export Plug-In . SVG Version: 6.00 Build 0)  -->
<svg version="1.1" id="Layer_1" xmlns="http://www.w3.org/2000/svg" xmlns:xlink="http://www.w3.org/1999/xlink" x="0px" y="0px"
	 viewBox="0 0 32 32" style="enable-background:new 0 0 32 32;" xml:space="preserve">
<line style="fill:none;stroke:#000000;stroke-width:2;stroke-miterlimit:10;" x1="10" y1="3" x2="10" y2="9"/>
<path style="fill:none;stroke:#000000;stroke-width:2;stroke-miterlimit:10;" d="M10.872,28c-1.053,0-1.926-0.815-1.994-1.866
	C8.611,22.029,8,12.466,8,11c0-1.875,2.187-3,8-3c5.812,0,8,1.188,8,3c0,1.418-0.612,11.019-0.878,15.134
	C23.054,27.185,22.181,28,21.128,28H10.872z"/>
<line style="fill:none;stroke:#000000;stroke-width:2;stroke-miterlimit:10;" x1="12" y1="13" x2="20" y2="13"/>
<line style="fill:none;stroke:#000000;stroke-width:2;stroke-miterlimit:10;" x1="12" y1="16" x2="20" y2="16"/>
<line style="fill:none;stroke:#000000;stroke-width:2;stroke-miterlimit:10;" x1="12" y1="19" x2="20" y2="19"/>
<path d="M24,9l-5-1.667V7.05c0-0.707,0.693-1.206,1.364-0.983l2.928,0.976C23.715,7.184,24,7.58,24,8.026V9z"/>
</svg>
