<?xml version="1.0" encoding="iso-8859-1"?>
<!-- Generator: Adobe Illustrator 19.1.1, SVG Export Plug-In . SVG Version: 6.00 Build 0)  -->
<svg version="1.1" id="Layer_1" xmlns="http://www.w3.org/2000/svg" xmlns:xlink="http://www.w3.org/1999/xlink" x="0px" y="0px"
	 viewBox="0 0 32 32" style="enable-background:new 0 0 32 32;" xml:space="preserve">
<circle cx="19.5" cy="12.5" r="2.5"/>
<circle cx="12.5" cy="12.5" r="2.5"/>
<path d="M8,12.5C8,10.019,10.019,8,12.5,8c0.925,0,1.784,0.282,2.5,0.762V5H5v10h3.762C8.282,14.284,8,13.425,8,12.5z"/>
<rect x="17" y="17" width="10" height="10"/>
<path d="M17,5v3.762C17.716,8.282,18.575,8,19.5,8c2.481,0,4.5,2.019,4.5,4.5c0,0.925-0.282,1.784-0.762,2.5H27V5H17z"/>
<rect x="5" y="17" width="10" height="10"/>
</svg>
