<?xml version="1.0" encoding="iso-8859-1"?>
<!-- Generator: Adobe Illustrator 21.0.0, SVG Export Plug-In . SVG Version: 6.00 Build 0)  -->
<svg version="1.1"  xmlns="http://www.w3.org/2000/svg" xmlns:xlink="http://www.w3.org/1999/xlink" x="0px" y="0px"
	 viewBox="0 0 32 32" style="enable-background:new 0 0 32 32;" xml:space="preserve">
<path d="M19,6c-1.201,0-2.266,0.542-3,1.382C15.266,6.542,14.2,6,13,6H0v19h13c1.103,0,2,0.897,2,2h2c0-1.103,0.897-2,2-2h13V6H19z
	 M13,23H2V8h11c1.103,0,2,0.897,2,2v13.556C14.409,23.212,13.732,23,13,23z M30,23H19c-0.732,0-1.409,0.212-2,0.556V10
	c0-1.103,0.897-2,2-2h11V23z"/>
<path d="M5.793,11.125L4,14.922v3.481C4,18.738,4.26,19,4.597,19h1.055c0.336,0,0.597-0.261,0.597-0.597v-0.528h4.5v0.528
	c0,0.336,0.26,0.597,0.597,0.597h1.055C12.739,19,13,18.739,13,18.403v-3.481l-1.793-3.797H5.793z M5.688,15.344
	c0.466,0,0.844,0.378,0.844,0.844s-0.378,0.844-0.844,0.844s-0.844-0.378-0.844-0.844S5.222,15.344,5.688,15.344z M11.312,15.344
	c0.464,0,0.844,0.379,0.844,0.844c0,0.464-0.38,0.844-0.844,0.844s-0.844-0.38-0.844-0.844
	C10.469,15.723,10.849,15.344,11.312,15.344z"/>
<rect x="19" y="10" width="9" height="2"/>
<rect x="19" y="14" width="9" height="2"/>
<rect x="19" y="18" width="7" height="2"/>
</svg>
