<?xml version="1.0" encoding="utf-8"?>
<!-- Generator: Adobe Illustrator 18.1.1, SVG Export Plug-In . SVG Version: 6.00 Build 0)  -->
<svg version="1.1" id="Layer_1" xmlns="http://www.w3.org/2000/svg" xmlns:xlink="http://www.w3.org/1999/xlink" x="0px" y="0px"
	 viewBox="0 0 32 32" enable-background="new 0 0 32 32" xml:space="preserve">
<polyline fill="none" stroke="#000000" stroke-width="2" stroke-miterlimit="10" points="17.5,28.5 14,25 17.5,21.5 "/>
<polyline fill="none" stroke="#000000" stroke-width="2" stroke-miterlimit="10" points="14.5,3.5 18,7 14.5,10.5 "/>
<polyline fill="none" stroke="#000000" stroke-width="2" stroke-miterlimit="10" points="3.5,17.5 7,14 10.5,17.5 "/>
<polyline fill="none" stroke="#000000" stroke-width="2" stroke-miterlimit="10" points="28.5,14.5 25,18 21.5,14.5 "/>
<path fill="none" stroke="#000000" stroke-width="2" stroke-miterlimit="10" d="M21,7h2c1.1,0,2,0.9,2,2v9"/>
<path fill="none" stroke="#000000" stroke-width="2" stroke-miterlimit="10" d="M25,21v2c0,1.1-0.9,2-2,2h-9"/>
<path fill="none" stroke="#000000" stroke-width="2" stroke-miterlimit="10" d="M11,25H9c-1.1,0-2-0.9-2-2v-9"/>
<path fill="none" stroke="#000000" stroke-width="2" stroke-miterlimit="10" d="M7,11V9c0-1.1,0.9-2,2-2h9"/>
</svg>
