<?xml version="1.0" encoding="iso-8859-1"?>
<!-- Generator: Adobe Illustrator 19.1.0, SVG Export Plug-In . SVG Version: 6.00 Build 0)  -->
<svg version="1.1" id="Layer_1" xmlns="http://www.w3.org/2000/svg" xmlns:xlink="http://www.w3.org/1999/xlink" x="0px" y="0px"
	 viewBox="0 0 32 32" style="enable-background:new 0 0 32 32;" xml:space="preserve">
<path style="fill:none;stroke:#000000;stroke-width:2;stroke-miterlimit:10;" d="M22,21H10v2c0,0.552,0.448,1,1,1h2v2
	c0,0.552,0.448,1,1,1h4c0.552,0,1-0.448,1-1v-2h2c0.552,0,1-0.448,1-1V21z"/>
<path style="fill:none;stroke:#000000;stroke-width:2;stroke-miterlimit:10;" d="M16,19V7c0-1.105,0.895-2,2-2h0
	c1.105,0,2,0.895,2,2v12"/>
<path style="fill:none;stroke:#000000;stroke-width:2;stroke-miterlimit:10;" d="M12,19V7c0-1.105,0.895-2,2-2h0
	c1.105,0,2,0.895,2,2v12"/>
</svg>
