<?xml version="1.0" encoding="iso-8859-1"?>
<!-- Generator: Adobe Illustrator 19.2.1, SVG Export Plug-In . SVG Version: 6.00 Build 0)  -->
<svg version="1.1" id="Layer_1" xmlns="http://www.w3.org/2000/svg" xmlns:xlink="http://www.w3.org/1999/xlink" x="0px" y="0px"
	 viewBox="0 0 32 32" style="enable-background:new 0 0 32 32;" xml:space="preserve">
<polyline style="fill:none;stroke:#000000;stroke-width:2;stroke-miterlimit:10;" points="3,18 3,25 29,25 29,18 "/>
<rect x="27" y="20" transform="matrix(-1.836970e-16 1 -1 -1.836970e-16 49 -7)" width="2" height="2"/>
<rect x="23" y="20" transform="matrix(-1.836970e-16 1 -1 -1.836970e-16 45 -3)" width="2" height="2"/>
<rect x="19" y="20" transform="matrix(-1.836970e-16 1 -1 -1.836970e-16 41 1)" width="2" height="2"/>
<rect x="11" y="20" transform="matrix(-1.836970e-16 1 -1 -1.836970e-16 33 9)" width="2" height="2"/>
<rect x="7" y="20" transform="matrix(-1.836970e-16 1 -1 -1.836970e-16 29 13)" width="2" height="2"/>
<rect x="3" y="20" transform="matrix(-1.836970e-16 1 -1 -1.836970e-16 25 17)" width="2" height="2"/>
<rect x="15" y="20" transform="matrix(-1.836970e-16 1 -1 -1.836970e-16 37 5)" width="2" height="2"/>
<path id="XMLID_17_" style="fill:none;stroke:#000000;stroke-width:2;stroke-miterlimit:10;" d="M6,16V8.172H5.85
	c0,0-0.772,1.303-2.35,1.828"/>
<path style="fill:none;stroke:#000000;stroke-width:2;stroke-miterlimit:10;" d="M11.5,15L11.5,15c-0.828,0-1.5-0.672-1.5-1.5v-4
	C10,8.672,10.672,8,11.5,8h0C12.328,8,13,8.672,13,9.5v4C13,14.328,12.328,15,11.5,15z"/>
<path style="fill:none;stroke:#000000;stroke-width:2;stroke-miterlimit:10;" d="M18.5,11L18.5,11c-0.828,0-1.5-0.672-1.5-1.5v0
	C17,8.672,17.672,8,18.5,8h0C19.328,8,20,8.672,20,9.5v0C20,10.328,19.328,11,18.5,11z"/>
<path style="fill:none;stroke:#000000;stroke-width:2;stroke-miterlimit:10;" d="M18.5,15L18.5,15c-0.828,0-1.5-0.672-1.5-1.5v-1
	c0-0.828,0.672-1.5,1.5-1.5h0c0.828,0,1.5,0.672,1.5,1.5v1C20,14.328,19.328,15,18.5,15z"/>
<path style="fill:none;stroke:#000000;stroke-width:2;stroke-miterlimit:10;" d="M25.5,15L25.5,15c-0.828,0-1.5-0.672-1.5-1.5v-4
	C24,8.672,24.672,8,25.5,8h0C26.328,8,27,8.672,27,9.5v4C27,14.328,26.328,15,25.5,15z"/>
</svg>
