<?xml version="1.0" encoding="iso-8859-1"?>
<!-- Generator: Adobe Illustrator 19.1.1, SVG Export Plug-In . SVG Version: 6.00 Build 0)  -->
<svg version="1.1" id="Layer_1" xmlns="http://www.w3.org/2000/svg" xmlns:xlink="http://www.w3.org/1999/xlink" x="0px" y="0px"
	 viewBox="0 0 32 32" style="enable-background:new 0 0 32 32;" xml:space="preserve">
<path d="M24.462,25.231c-1.308,0-2.308-1-2.308-2.308s1-2.308,2.308-2.308c0.231,0,0.385,0,0.538,0.077
	c-0.538-0.538-1.231-0.846-2.077-0.846c-1.692,0-3.077,1.385-3.077,3.077S21.231,26,22.923,26c0.846,0,1.538-0.308,2.077-0.846
	C24.846,25.231,24.692,25.231,24.462,25.231z"/>
<g>
	<circle cx="24.462" cy="22.923" r="1.538"/>
</g>
<path style="fill:none;stroke:#000000;stroke-width:2;stroke-miterlimit:10;" d="M23,20.4c0-3.56,2-5.253,2-8.4c0-3.955-3.405-6-7-6
	c-3.477,0-9,2.5-9,11c0,7.698,2.51,9,4,9c1.409,0,3-0.911,3-2.995c0-3.256-3-4.298-3-8.005c0-3.326,2.955-5.045,2.955-5.045
	l-0.864-1.318"/>
<path d="M9,23c-1.105,0-2-0.895-2-2s0.895-2,2-2S10.105,23,9,23z"/>
<path d="M9,15c-1.105,0-2-0.895-2-2s0.895-2,2-2S10.105,15,9,15z"/>
</svg>
