<?xml version="1.0" encoding="iso-8859-1"?>
<!-- Generator: Adobe Illustrator 19.1.1, SVG Export Plug-In . SVG Version: 6.00 Build 0)  -->
<svg version="1.1"  xmlns="http://www.w3.org/2000/svg" xmlns:xlink="http://www.w3.org/1999/xlink" x="0px" y="0px"
	 viewBox="0 0 32 32" style="enable-background:new 0 0 32 32;" xml:space="preserve">
<line style="fill:none;stroke:#000000;stroke-width:2;stroke-miterlimit:10;" x1="27" y1="7" x2="27" y2="25"/>
<polygon style="fill:none;stroke:#000000;stroke-width:2;stroke-miterlimit:10;" points="27,25 17,27 17,5 27,7 "/>
<ellipse style="fill:none;stroke:#000000;stroke-width:2;stroke-miterlimit:10;" cx="22.5" cy="16" rx="1.5" ry="4"/>
<rect x="27" y="11" width="2" height="3"/>
<rect x="27" y="18" width="2" height="3"/>
<rect x="22" y="25" width="4" height="2"/>
<rect x="6" y="25" width="4" height="2"/>
<line style="fill:none;stroke:#000000;stroke-width:2;stroke-miterlimit:10;" x1="6" y1="16" x2="15" y2="16"/>
<polyline style="fill:none;stroke:#000000;stroke-width:2;stroke-miterlimit:10;" points="9.515,12 5.515,16 9.515,20 "/>
<g>
	<polygon points="4,6 4,13.272 6,11.272 6,8 17,8 17,6 	"/>
	<polygon points="6,20.728 4,18.728 4,26 17,26 17,24 6,24 	"/>
</g>
</svg>
