<?xml version="1.0" encoding="iso-8859-1"?>
<!-- Generator: Adobe Illustrator 19.1.0, SVG Export Plug-In . SVG Version: 6.00 Build 0)  -->
<svg version="1.1" id="Layer_1" xmlns="http://www.w3.org/2000/svg" xmlns:xlink="http://www.w3.org/1999/xlink" x="0px" y="0px"
	 viewBox="0 0 32 32" style="enable-background:new 0 0 32 32;" xml:space="preserve">
<polygon points="7.454,21.82 7.454,24.546 10.179,24.546 "/>
<rect x="6.708" y="16.195" transform="matrix(0.7071 0.7071 -0.7071 0.7071 17.1889 -3.7571)" style="fill:none;stroke:#000000;stroke-width:2;stroke-miterlimit:10;" width="12.843" height="5.351"/>
<rect x="6.892" y="20.292" transform="matrix(0.7071 0.7071 -0.7071 0.7071 18.4428 -0.73)" style="fill:none;stroke:#000000;stroke-width:2;stroke-miterlimit:10;" width="6.421" height="3.211"/>
<path style="fill:none;stroke:#000000;stroke-width:2;stroke-miterlimit:10;" d="M5.186,22.709
	c-0.404,1.132-0.152,2.445,0.754,3.351c1.254,1.254,3.287,1.254,4.541,0c0.267-0.267,1.247-1.247,1.514-1.514"/>
<path style="fill:none;stroke:#000000;stroke-width:2;stroke-miterlimit:10;" d="M22.589,10.924l0.379,0.379
	c0.627,0.627,0.627,1.643,0,2.27l0,0c-0.627,0.627-1.643,0.627-2.27,0"/>
<path style="fill:none;stroke:#000000;stroke-width:2;stroke-miterlimit:10;" d="M18.427,11.303c-0.627-0.627-0.627-1.643,0-2.27
	l0,0c0.627-0.627,1.643-0.627,2.27,0l0.378,0.378"/>
<path style="fill:none;stroke:#000000;stroke-width:2;stroke-miterlimit:10;" d="M24.859,8.654l0.379,0.379
	c0.627,0.627,0.627,1.643,0,2.27l0,0c-0.627,0.627-1.643,0.627-2.27,0"/>
<path style="fill:none;stroke:#000000;stroke-width:2;stroke-miterlimit:10;" d="M20.697,9.032c-0.627-0.627-0.627-1.643,0-2.27l0,0
	c0.627-0.627,1.643-0.627,2.27,0l0.378,0.378"/>
<path style="fill:none;stroke:#000000;stroke-width:2;stroke-miterlimit:10;" d="M20.319,13.195l0.552,0.552
	c0.555,0.555,0.627,1.43,0.171,2.068l-2.993,4.191l-6.054-6.054l4.191-2.993c0.639-0.456,1.513-0.384,2.068,0.171l0.552,0.552"/>
<path style="fill:none;stroke:#000000;stroke-width:2;stroke-miterlimit:10;" d="M25.616,9.411l0.757-0.757
	c0.836-0.836,0.836-2.191,0-3.027l0,0c-0.836-0.836-2.191-0.836-3.027,0l-0.757,0.757"/>
</svg>
