<?xml version="1.0" encoding="iso-8859-1"?>
<!-- Generator: Adobe Illustrator 19.1.1, SVG Export Plug-In . SVG Version: 6.00 Build 0)  -->
<svg version="1.1" id="Layer_1" xmlns="http://www.w3.org/2000/svg" xmlns:xlink="http://www.w3.org/1999/xlink" x="0px" y="0px"
	 viewBox="0 0 32 32" style="enable-background:new 0 0 32 32;" xml:space="preserve">
<path d="M3.649,18.946c-0.865,0-1.622,0.757-1.622,1.622V21c0,0.865,0.649,1.405,1.514,1.405h1.622c0.216,0,0.432,0.108,0.432,0.432
	v0.432c0,0.216-0.216,0.432-0.432,0.432H2.135v0.757C2.135,24.784,2.351,25,2.676,25h2.703C6.243,25,7,24.243,7,23.378V22.73
	c0-0.865-0.541-1.297-1.514-1.297H3.973c-0.324,0-0.432-0.108-0.432-0.324v-0.324c0-0.216,0.216-0.432,0.541-0.432h2.595v-0.865
	c0-0.324-0.216-0.541-0.432-0.541H3.649"/>
<path d="M12.432,20.568c-0.324,0-0.541,0.216-0.541,0.541v2.162c0,0.324-0.216,0.541-0.541,0.541H9.946
	c-0.324,0-0.541-0.216-0.541-0.541v-2.162c0-0.324-0.324-0.541-0.649-0.541H8.541C8.216,20.568,8,20.784,8,21.108v2.27
	C8,24.459,8.649,25,9.838,25h0.216c0.541,0,0.973-0.216,1.405-0.432c0.216-0.108,0.324-0.216,0.432-0.216c0,0,0.108,0,0.216,0.108
	l0.324,0.432h0.432c0.324,0,0.541-0.324,0.541-0.541V21c0-0.324-0.324-0.541-0.649-0.541h-0.324"/>
<path d="M16.162,18.946c-0.865,0-1.622,0.757-1.622,1.622V21c0,0.865,0.649,1.405,1.514,1.405h1.622
	c0.216,0,0.432,0.108,0.432,0.432v0.432c0,0.216-0.216,0.432-0.432,0.432h-3.135v0.757c0,0.324,0.216,0.541,0.541,0.541h2.703
	c0.865,0,1.622-0.757,1.622-1.622V22.73c0-0.865-0.541-1.297-1.514-1.297H16.27c-0.324,0-0.432-0.108-0.432-0.324v-0.324
	c0-0.216,0.216-0.432,0.541-0.432h2.703v-0.865c0-0.324-0.216-0.541-0.541-0.541H16.162"/>
<path d="M22,20.676c0-0.216,0.216-0.432,0.432-0.432h1.622c0.216,0,0.432,0.216,0.432,0.432v0.649c-0.108,0-2.486,0-2.595,0
	C22,21.324,22,20.676,22,20.676 M22.216,19.054c-0.865,0-1.622,0.757-1.622,1.622v2.703c0,0.865,0.757,1.622,1.622,1.622h2.27
	c0.324,0,0.541-0.216,0.541-0.541v-0.757h-2.595c-0.324,0-0.432-0.216-0.432-0.432c0,0,0-0.649,0-0.757c0.108,0,3.135,0,3.135,0
	c0.432,0,0.865-0.324,0.865-0.757v-1.081c0-0.865-0.757-1.622-1.622-1.622L22.216,19.054z"/>
<path d="M24.869,11.541l-0.432-0.973c1.405,0.865,2.703,1.514,3.676,1.514s1.838-0.757,1.838-0.757
	c-0.865-3.135-0.865-2.919-6.162-4v0.865C23.572,7.865,21.085,7.108,17.842,7c-0.216,0-0.432,0-0.757,0
	c-4.649,0-10.703,3.784-10.703,8c0,2.27,1.838,4,4.108,4c1.73,0,3.027-1.297,3.027-2.703c0-1.297-0.865-2.811-2.703-2.811
	c-0.432,0-1.946,0.324-1.946,1.838c0,1.081,0.865,1.622,1.514,1.622c0.973,0,1.081-0.432,1.081-0.649
	c0-0.324-0.216-0.432-0.541-0.541c-0.216,0-0.432,0.108-0.541,0.108S9.95,15.757,9.95,15.324s0.432-0.649,0.973-0.649
	c0.865,0,1.405,0.865,1.405,1.514c0,0.324-0.108,1.514-1.73,1.514c-1.189,0-2.595-0.865-2.595-2.486s1.405-2.595,2.703-2.595
	c3.459,0,4,3.459,4,3.459l1.514,0.757c0,0-0.108-0.541-0.108-0.973c0-1.405,0.649-1.946,1.946-1.946
	c1.946,0,2.703,1.622,3.459,2.378l1.946,0.865c0,0-0.973-1.297-0.973-2.486c0-1.405,1.297-0.757,3.027-0.757
	c1.838,0,4.324-0.432,4.324-1.838c-0.324,0-0.973,0.649-2.054,0.649C27.031,12.514,25.085,11.541,24.869,11.541z M27.572,8.622
	c0.757,0,1.405,0.649,1.405,1.405s-0.649,1.405-1.405,1.405c-0.757,0-1.405-0.649-1.405-1.405
	C26.166,9.27,26.707,8.622,27.572,8.622z"/>
<path d="M27.572,9.297c-0.541,0-0.973,0.432-0.973,0.973s0.432,0.973,0.973,0.973s0.973-0.432,0.973-0.973
	C28.545,9.73,28.112,9.297,27.572,9.297z M27.788,10.378c-0.216,0-0.432-0.108-0.432-0.324c0-0.108,0.216-0.324,0.432-0.324
	s0.432,0.108,0.432,0.324C28.112,10.27,28.004,10.378,27.788,10.378z"/>
</svg>
