<?xml version="1.0" encoding="iso-8859-1"?>
<!-- Generator: Adobe Illustrator 19.1.0, SVG Export Plug-In . SVG Version: 6.00 Build 0)  -->
<svg version="1.1" id="Layer_1" xmlns="http://www.w3.org/2000/svg" xmlns:xlink="http://www.w3.org/1999/xlink" x="0px" y="0px"
	 viewBox="0 0 32 32" style="enable-background:new 0 0 32 32;" xml:space="preserve">
<path style="fill:none;stroke:#000000;stroke-width:2;stroke-miterlimit:10;" d="M21,11c0,0-1.84-4-5-4s-5,4-5,4s-2,5.039-2,10
	s4,5,4,5h6c0,0,4-0.041,4-5S21,11,21,11z"/>
<line style="fill:none;stroke:#000000;stroke-width:2;stroke-miterlimit:10;" x1="11.523" y1="11" x2="20.477" y2="11"/>
<circle cx="16" cy="6" r="2"/>
<path style="fill:none;stroke:#000000;stroke-width:2;stroke-miterlimit:10;" d="M9.76,14.105C9.042,13.42,8.07,13,7,13h0
	c-1.657,0-3,1.343-3,3v2c0,2.761,2.239,5,5,5h0"/>
<path style="fill:none;stroke:#000000;stroke-width:2;stroke-miterlimit:10;" d="M29.413,11L29.413,11
	c-1.133,0-2.079,0.864-2.181,1.992l-1.293,7.112C25.634,21.781,24.174,23,22.469,23"/>
<path style="fill:none;stroke:#000000;stroke-width:2;stroke-miterlimit:10;" d="M30,11h-1.528c-1.515,0-2.9,0.856-3.578,2.211
	l-0.512,1.025c-0.423,0.847-1.068,1.538-1.843,2.017"/>
</svg>
