<?xml version="1.0" encoding="iso-8859-1"?>
<!-- Generator: Adobe Illustrator 19.1.1, SVG Export Plug-In . SVG Version: 6.00 Build 0)  -->
<svg version="1.1" id="Layer_1" xmlns="http://www.w3.org/2000/svg" xmlns:xlink="http://www.w3.org/1999/xlink" x="0px" y="0px"
	 viewBox="0 0 32 32" style="enable-background:new 0 0 32 32;" xml:space="preserve">
<polygon points="22,16.43 20,14.59 20,17.354 22,19.195 "/>
<polyline style="fill:none;stroke:#000000;stroke-width:2;stroke-miterlimit:10;" points="20,26 6,26 6,6 20,6 "/>
<line style="fill:none;stroke:#000000;stroke-width:2;stroke-miterlimit:10;" x1="6" y1="16" x2="9" y2="16"/>
<line style="fill:none;stroke:#000000;stroke-width:2;stroke-miterlimit:10;" x1="10" y1="16" x2="13" y2="16"/>
<path d="M22.1,19.3C22,19.5,22,19.7,22,20c0,1.7,1.3,3,3,3c1.7,0,3-1.3,3-3c0-1.7-1.3-3-3-3c-0.6,0-1.2,0.2-1.7,0.5L21.6,16l1.7-1.6
	c0.4,0.4,1,0.6,1.7,0.6c1.7,0,3-1.3,3-3s-1.3-3-3-3c-1.7,0-3,1.3-3,3c0,0.2,0,0.5,0,0.7l-2,1.9L15,10h-3L22.1,19.3z M24,12
	c0-0.6,0.4-1,1-1s1,0.4,1,1c0,0.6-0.4,1-1,1S24,12.6,24,12z M24,20c0-0.6,0.4-1,1-1s1,0.4,1,1s-0.4,1-1,1S24,20.6,24,20z"/>
<polygon points="14.478,15 14,15 14,17 16.65,17 "/>
<g>
	<polygon points="21,11 21,5 19,5 19,10.956 19.939,11.817 	"/>
	<polygon points="19,19.093 19,27 21,27 21,20.918 	"/>
</g>
</svg>
