<?xml version="1.0" encoding="iso-8859-1"?>
<!-- Generator: Adobe Illustrator 19.1.1, SVG Export Plug-In . SVG Version: 6.00 Build 0)  -->
<svg version="1.1" id="Layer_1" xmlns="http://www.w3.org/2000/svg" xmlns:xlink="http://www.w3.org/1999/xlink" x="0px" y="0px"
	 viewBox="-8 10 32 32" style="enable-background:new -8 10 32 32;" xml:space="preserve">
<g>
	<circle cx="-1" cy="27" r="1"/>
	<circle cx="5" cy="27" r="1"/>
	<circle cx="17" cy="27" r="1"/>
	<path d="M22.107,24.221c-0.833-3.324-3.667-5.757-7.108-6.157l0-0.042C15.022,17.821,15.401,17,16,17v-2
		c-0.702,0-1.285,0.264-1.748,0.643C13.63,14.73,12.588,14,11,14v2c1.978,0,2,1.979,2,1.999v0.06
		c-1.899,0.226-3.658,1.097-4.988,2.442c-1.306-1.329-3.06-2.21-5.013-2.437l0-0.042C3.022,17.821,3.401,17,4,17v-2
		c-0.702,0-1.285,0.264-1.748,0.643C1.63,14.73,0.588,14-1,14v2c1.977,0,2,1.979,2,1.999v0.066c-3.441,0.4-6.274,2.833-7.107,6.156
		C-7.225,24.665-8,25.755-8,27c0,1.244,0.775,2.334,1.893,2.778C-5.194,33.42-1.884,36,2,36c2.349,0,4.485-0.948,6.01-2.5
		C9.572,35.078,11.731,36,14,36c3.884,0,7.193-2.58,8.107-6.222C23.225,29.334,24,28.244,24,27
		C24,25.755,23.225,24.665,22.107,24.221z M2,34c-3.127,0-5.764-2.184-6.269-5.192l-0.123-0.731l-0.736-0.095
		C-5.625,27.918-6,27.496-6,27s0.375-0.918,0.872-0.982l0.736-0.094l0.123-0.732C-3.764,22.183-1.127,20,2,20
		s5.764,2.183,6.269,5.191l0.123,0.732l0.736,0.094C9.625,26.082,10,26.504,10,27s-0.375,0.918-0.872,0.981l-0.736,0.095
		l-0.123,0.731C7.764,31.816,5.127,34,2,34z M21.128,27.981l-0.736,0.095l-0.123,0.731C19.763,31.816,17.127,34,14,34
		c-1.829,0-3.563-0.78-4.761-2.106c0.38-0.652,0.679-1.359,0.869-2.116C11.225,29.334,12,28.244,12,27
		c0-1.245-0.775-2.335-1.893-2.779c-0.19-0.757-0.489-1.465-0.869-2.117C10.437,20.778,12.17,20,14,20
		c3.127,0,5.764,2.184,6.269,5.191l0.123,0.732l0.736,0.094C21.625,26.082,22,26.504,22,27S21.625,27.918,21.128,27.981z"/>
</g>
</svg>
