<?xml version="1.0" encoding="iso-8859-1"?>
<!-- Generator: Adobe Illustrator 19.1.1, SVG Export Plug-In . SVG Version: 6.00 Build 0)  -->
<svg version="1.1" id="Layer_1" xmlns="http://www.w3.org/2000/svg" xmlns:xlink="http://www.w3.org/1999/xlink" x="0px" y="0px"
	 viewBox="0 0 32 32" style="enable-background:new 0 0 32 32;" xml:space="preserve">
<polyline style="fill:none;stroke:#000000;stroke-width:2;stroke-miterlimit:10;" points="18,15 23,4 28,4 "/>
<path style="fill:none;stroke:#000000;stroke-width:2;stroke-miterlimit:10;" d="M8.005,15.746C6.254,15.129,5,13.461,5,11.5
	C5,9.015,7.015,7,9.5,7S14,9.015,14,11.5"/>
<path d="M17,8c-2.008,0-3.818,0.3-5.283,0.814c0.537,0.444,0.935,1.039,1.133,1.726C13.964,10.217,15.368,10,17,10
	c4.273,0,7,1.48,7,2.5S21.273,15,17,15s-7-1.48-7-2.5c0-0.511,0.686-1.138,1.908-1.636c-0.185-0.699-0.663-1.274-1.297-1.592
	C8.982,10.078,8,11.208,8,12.5c0,2.565,3.869,4.5,9,4.5s9-1.935,9-4.5S22.131,8,17,8z"/>
<path style="fill:none;stroke:#000000;stroke-width:2;stroke-miterlimit:10;" d="M25,12c0,0,1,3.582,1,8c0,4.418-4.029,8-9,8
	s-9-3.582-9-8s1-8,1-8"/>
<path style="fill:none;stroke:#000000;stroke-width:2;stroke-miterlimit:10;" d="M22,15c0,4.5-1,7-1,7"/>
</svg>
