<?xml version="1.0" encoding="iso-8859-1"?>
<!-- Generator: Adobe Illustrator 19.1.0, SVG Export Plug-In . SVG Version: 6.00 Build 0)  -->
<svg version="1.1" id="Layer_1" xmlns="http://www.w3.org/2000/svg" xmlns:xlink="http://www.w3.org/1999/xlink" x="0px" y="0px"
	 viewBox="0 0 32 32" style="enable-background:new 0 0 32 32;" xml:space="preserve">
<polygon points="21,13.473 18.593,11.114 17.193,12.542 21,16.273 "/>
<path style="fill:none;stroke:#000000;stroke-width:2;stroke-miterlimit:10;" d="M23,28v-1l-1-4v-3l1-2.998v-5h3.5L28,9l-4-3h-1.652
	L21.1,4H21l-3,8H9.638C7.629,12,6,13.629,6,15.638v0c0,0.395,0.064,0.788,0.191,1.163L7,19.2L6,23v5"/>
<line style="fill:none;stroke:#000000;stroke-width:2;stroke-miterlimit:10;" x1="6.933" y1="12.933" x2="4" y2="10"/>
<path style="fill:none;stroke:#000000;stroke-width:2;stroke-miterlimit:10;" d="M19,28v-1l-1-4v-2.9V20h-2c-1.506,0-3-1-3-1h-2
	l-1,4v5"/>
</svg>
