<?xml version="1.0" encoding="iso-8859-1"?>
<!-- Generator: Adobe Illustrator 19.1.1, SVG Export Plug-In . SVG Version: 6.00 Build 0)  -->
<svg version="1.1" id="Layer_1" xmlns="http://www.w3.org/2000/svg" xmlns:xlink="http://www.w3.org/1999/xlink" x="0px" y="0px"
	 viewBox="0 0 32 32" style="enable-background:new 0 0 32 32;" xml:space="preserve">
<g>
	<path d="M18.717,3.259c-0.881-0.188-1.794-0.288-2.731-0.288c-7.188,0-13.014,5.827-13.014,13.014c0,0.99,0.111,1.953,0.32,2.879
		C5.988,11.848,11.421,5.981,18.717,3.259z"/>
	<path d="M28.876,14.191c-0.16-1.162-0.473-2.274-0.919-3.317c-11.586,3.726-15.801,13.464-17.02,17.11
		c1.042,0.439,2.152,0.745,3.311,0.9C15.476,25.795,19.387,18.057,28.876,14.191z"/>
	<path d="M28.869,17.836c-1.201,0.596-3.17,1.825-5.846,4.33c-3.04,2.846-4.434,5.299-5.04,6.68c1.737-0.268,3.36-0.877,4.799-1.759
		L29,29c0,0-1.235-4.591-1.843-6.336C28.026,21.214,28.62,19.58,28.869,17.836z"/>
	<path d="M26.18,7.895c-0.796-1.002-1.737-1.883-2.79-2.613C19.892,6.293,9.471,10.338,5.296,23.41
		c0.725,1.042,1.599,1.974,2.591,2.763C12.375,12.613,22.622,8.822,26.18,7.895z"/>
</g>
</svg>
