<?xml version="1.0" encoding="iso-8859-1"?>
<!-- Generator: Adobe Illustrator 19.1.0, SVG Export Plug-In . SVG Version: 6.00 Build 0)  -->
<svg version="1.1" id="Layer_1" xmlns="http://www.w3.org/2000/svg" xmlns:xlink="http://www.w3.org/1999/xlink" x="0px" y="0px"
	 viewBox="0 0 32 32" style="enable-background:new 0 0 32 32;" xml:space="preserve">
<path style="fill:none;stroke:#000000;stroke-width:2;stroke-miterlimit:10;" d="M18,26H6V8c0-1.105,0.895-2,2-2h8
	c1.105,0,2,0.895,2,2V26z"/>
<line style="fill:none;stroke:#000000;stroke-width:2;stroke-miterlimit:10;" x1="6" y1="13" x2="19" y2="13"/>
<path id="XMLID_3560_" style="fill:none;stroke:#000000;stroke-width:2;stroke-miterlimit:10;" d="M26,24V13.828
	c0-0.53-0.211-1.039-0.586-1.414l-4.7-4.7"/>
<path id="XMLID_3561_" style="fill:none;stroke:#000000;stroke-width:2;stroke-linejoin:round;stroke-miterlimit:10;" d="M26,24
	c0,1.105-0.895,2-2,2s-2-0.895-2-2"/>
<path style="fill:none;stroke:#000000;stroke-width:2;stroke-linejoin:round;stroke-miterlimit:10;" d="M18,19h3
	c0.552,0,1,0.448,1,1v4"/>
<circle id="XMLID_3587_" style="fill:none;stroke:#000000;stroke-width:2;stroke-miterlimit:10;" cx="24" cy="13.992" r="2"/>
</svg>
