<?xml version="1.0" encoding="iso-8859-1"?>
<!-- Generator: Adobe Illustrator 22.0.1, SVG Export Plug-In . SVG Version: 6.00 Build 0)  -->
<svg version="1.1" id="Icons" xmlns="http://www.w3.org/2000/svg" xmlns:xlink="http://www.w3.org/1999/xlink" x="0px" y="0px"
	 viewBox="0 0 32 32" style="enable-background:new 0 0 32 32;" xml:space="preserve">
<g>
	<path style="fill:none;stroke:#000000;stroke-width:2;stroke-miterlimit:10;" d="M12.139,11.73l-3.5-3.398
		c-0.398-0.403-1-0.403-1.398,0l-2.602,2.597c-0.5,0.5-0.699,1.301-0.5,2c0.699,1.903,2.398,5.801,5.801,9.102
		c3.398,3.301,7.199,5.102,9.097,5.801c0.704,0.301,1.5,0.097,2-0.5l2.602-2.602c0.398-0.398,0.398-1,0-1.398l-3.199-3.301
		c-0.403-0.398-1-0.398-1.403,0l-2.097,2.102c0,0-2.301-1-4.102-2.801s-2.801-4.102-2.801-4.102l2.102-2.097
		C12.537,12.73,12.537,12.133,12.139,11.73L12.139,11.73z"/>
	<path style="fill:none;stroke:#000000;stroke-width:2;stroke-miterlimit:10;" d="M18,9c1.105,0,2-0.895,2-2s-0.895-2-2-2
		s-2,0.895-2,2"/>
	<path style="fill:none;stroke:#000000;stroke-width:2;stroke-miterlimit:10;" d="M18,9c-1.105,0-2,0.895-2,2v1h5"/>
	<line style="fill:none;stroke:#000000;stroke-width:2;stroke-miterlimit:10;" x1="27" y1="13" x2="27" y2="4"/>
	<line style="fill:none;stroke:#000000;stroke-width:2;stroke-miterlimit:10;" x1="22" y1="10" x2="27" y2="10"/>
	<polygon points="27,4 25.698,4 22,8.437 22,10 22.769,10.641 27.769,4.641 	"/>
</g>
</svg>
