<?xml version="1.0" encoding="iso-8859-1"?>
<!-- Generator: Adobe Illustrator 19.1.1, SVG Export Plug-In . SVG Version: 6.00 Build 0)  -->
<svg version="1.1" id="Layer_1" xmlns="http://www.w3.org/2000/svg" xmlns:xlink="http://www.w3.org/1999/xlink" x="0px" y="0px"
	 viewBox="0 0 32 32" style="enable-background:new 0 0 32 32;" xml:space="preserve">
<circle cx="11.5" cy="7.5" r="1.5"/>
<circle cx="20.5" cy="7.5" r="1.5"/>
<path style="fill:none;stroke:#000000;stroke-width:2;stroke-miterlimit:10;" d="M26.952,11.954C28.116,11.741,29,10.726,29,9.5
	c0-1.209-0.859-2.218-2-2.45V5"/>
<path style="fill:none;stroke:#000000;stroke-width:2;stroke-miterlimit:10;" d="M5,5v2.05C3.859,7.282,3,8.291,3,9.5
	c0,1.226,0.884,2.241,2.048,2.454"/>
<path style="fill:none;stroke:#000000;stroke-width:2;stroke-miterlimit:10;" d="M12,15.631c0.611-0.353,2.469-0.669,4-0.667
	c1.554,0.002,3.385,0.327,4,0.667"/>
<path d="M26.952,10.955c-1.628,0-3.214,1.917-5.447,4.841c-0.749,0.981-1.863,2.44-2.336,2.742c-0.38-0.054-0.813-0.391-1.234-0.717
	c-0.576-0.448-1.173-0.911-1.935-0.911s-1.358,0.463-1.935,0.911c-0.417,0.324-0.847,0.658-1.226,0.716
	c-0.418-0.294-1.324-1.543-1.996-2.468c-1.826-2.514-3.714-5.114-5.796-5.114h-1.1l0.104,1.095
	c0.444,4.663,2.411,10.583,4.493,13.496c0.183,0.244,0.453,0.647,0.679,0.983c0.183,0.271,0.339,0.501,0.408,0.594
	c0.351,0.473,0.717,0.912,1.087,1.333C11.261,27.392,13,24.642,13,23c0,0-0.2,5.864-0.812,6.956C13.605,31.226,14.994,32,16,32
	c0.757,0,1.685-0.442,2.751-1.309c0.006-0.005,0.016-0.013,0.022-0.018C18.187,29.234,18,22,18,22c0,2.217,1.798,5.734,2.362,7.239
	c2.793-2.935,6.953-10.125,7.586-17.195l0.098-1.089H26.952z"/>
</svg>
