<?xml version="1.0" encoding="iso-8859-1"?>
<!-- Generator: Adobe Illustrator 19.1.1, SVG Export Plug-In . SVG Version: 6.00 Build 0)  -->
<svg version="1.1" id="Layer_1" xmlns="http://www.w3.org/2000/svg" xmlns:xlink="http://www.w3.org/1999/xlink" x="0px" y="0px"
	 viewBox="0 0 32 32" style="enable-background:new 0 0 32 32;" xml:space="preserve">
<path style="fill:none;stroke:#000000;stroke-width:2;stroke-miterlimit:10;" d="M22.875,16.083L19,8l-3.451-4.264
	C15.167,3.268,14.602,3,13.999,3l0,0h0c-0.458,0-0.907,0.16-1.263,0.45c-0.855,0.698-0.983,1.96-0.287,2.814l2.613,2.694"/>
<path style="fill:none;stroke:#000000;stroke-width:2;stroke-miterlimit:10;" d="M20,17l-3.917-7.5l-6.054-3.215
	C9.718,6.098,9.362,5.999,9,5.999l0,0c-0.699,0-1.356,0.372-1.715,0.971c-0.567,0.946-0.26,2.177,0.686,2.744L13,12l1,1"/>
<path style="fill:none;stroke:#000000;stroke-width:2;stroke-miterlimit:10;" d="M20,17l-2.867-4l0,0h-6.961l-3.586,3.586
	C6.208,16.964,6,17.466,6,18s0.208,1.036,0.586,1.414C6.964,19.792,7.466,20,8,20s1.036-0.208,1.414-0.586L12,17h2.867L17,20
	l-1.945,3H15h-2l-1.361-1.619c-0.743-1.159-2.179-1.664-3.484-1.224l-0.474,0.16c-0.617,0.208-0.874,0.94-0.523,1.487l2.31,4.133
	c0,0,4.438,2.063,5.531,2.063c2.813,0,2.188-1,5-1c1.743,0,5.459,1.757,5.847,2h0.118L26,18l-3-2V7c0-1.105-0.895-2-2-2h0
	c-1.105,0-2,0.895-2,2v1"/>
</svg>
