<?xml version="1.0" encoding="iso-8859-1"?>
<!-- Generator: Adobe Illustrator 22.0.1, SVG Export Plug-In . SVG Version: 6.00 Build 0)  -->
<svg version="1.1" id="&#x421;&#x43B;&#x43E;&#x439;_1"
	 xmlns="http://www.w3.org/2000/svg" xmlns:xlink="http://www.w3.org/1999/xlink" x="0px" y="0px" viewBox="0 0 32 32"
	 style="enable-background:new 0 0 32 32;" xml:space="preserve">
<path d="M18.5,8C16.957,8,16,7.09,16,5.617h2C18,5.918,18,6,18.5,6C18.934,6,19,5.687,19,5.5C19,5.227,18.777,5,18.5,5
	C17.121,5,16,3.879,16,2.5S17.121,0,18.5,0C20.125,0,21,1.238,21,2.406h-2C19,2.285,18.949,2,18.5,2C18.223,2,18,2.227,18,2.5
	C18,2.773,18.223,3,18.5,3C19.879,3,21,4.121,21,5.5C21,6.926,19.926,8,18.5,8L18.5,8z"/>
<path style="fill:none;stroke:#000000;stroke-width:2;stroke-miterlimit:10;" d="M28,4h1.5C30.328,4,31,3.328,31,2.5
	C31,1.672,30.328,1,29.5,1H28v7"/>
<line style="fill:none;stroke:#000000;stroke-width:2;stroke-miterlimit:10;" x1="24" y1="0" x2="24" y2="8"/>
<path style="fill:none;stroke:#000000;stroke-width:2;stroke-miterlimit:10;" d="M9.5,4.301c-0.5-0.403-1.199-0.403-1.699,0
	L4.699,7.5C4,8.102,3.801,9.102,4.102,9.898c0.796,2.301,2.898,6.903,7,11c4.097,4.102,8.699,6.102,11,7
	c0.898,0.301,1.796,0.102,2.5-0.5l3.097-3.097c0.5-0.5,0.5-1.199,0-1.699L23.602,18.5c-0.5-0.5-1.204-0.5-1.704,0l-2.5,2.5
	c0,0-2.796-1.199-5-3.301c-2.199-2.097-3.296-5-3.296-5l2.5-2.5c0.5-0.5,0.5-1.301,0-1.699L9.5,4.301z"/>
</svg>
