<?xml version="1.0" encoding="iso-8859-1"?>
<!-- Generator: Adobe Illustrator 19.1.1, SVG Export Plug-In . SVG Version: 6.00 Build 0)  -->
<svg version="1.1" id="Layer_1" xmlns="http://www.w3.org/2000/svg" xmlns:xlink="http://www.w3.org/1999/xlink" x="0px" y="0px"
	 viewBox="0 0 32 32" style="enable-background:new 0 0 32 32;" xml:space="preserve">
<g style="display:none;opacity:0.11;">
	
		<line style="display:inline;fill:none;stroke:#FF0000;stroke-width:2;stroke-linecap:square;stroke-miterlimit:10;" x1="10.742" y1="8.43" x2="21.656" y2="19.344"/>
	
		<line style="display:inline;fill:none;stroke:#FF0000;stroke-width:2;stroke-linecap:square;stroke-miterlimit:10;" x1="7.12" y1="9.051" x2="15.034" y2="16.966"/>
	
		<line style="display:inline;fill:none;stroke:#FF0000;stroke-width:2;stroke-linecap:square;stroke-miterlimit:10;" x1="5.999" y1="12.173" x2="12.913" y2="19.087"/>
	
		<path style="display:inline;fill:none;stroke:#FF0000;stroke-width:2;stroke-linecap:square;stroke-linejoin:round;stroke-miterlimit:10;" d="
		M5.292,15.708l10.365,10.365c0,0,2.157,2.085,4.243,0s5.087-5.087,5.087-5.087L27,13"/>
	
		<path style="display:inline;fill:none;stroke:#FF0000;stroke-width:2;stroke-linecap:square;stroke-linejoin:round;stroke-miterlimit:10;" d="
		M5,22c0,0,1.833,3.5,5,5"/>
	
		<path style="display:inline;fill:none;stroke:#FF0000;stroke-width:2;stroke-linecap:square;stroke-linejoin:round;stroke-miterlimit:10;" d="
		M16,7c0,0,3.75,1.417,6,5"/>
	
		<path style="display:inline;fill:none;stroke:#FF0000;stroke-width:2;stroke-linecap:square;stroke-linejoin:round;stroke-miterlimit:10;" d="
		M21,6c0,0,1.167,0.833,2,2"/>
</g>
<path style="fill:none;stroke:#000000;stroke-width:2;stroke-miterlimit:10;" d="M18.757,13.686l-8.071-8.071
	c-0.781-0.781-2.047-0.781-2.828,0l0,0c-0.781,0.781-0.781,2.047,0,2.828l6.657,6.657"/>
<path style="fill:none;stroke:#000000;stroke-width:2;stroke-miterlimit:10;" d="M14.515,15.1L7.444,8.029
	c-0.781-0.781-2.047-0.781-2.828,0l0,0c-0.781,0.781-0.781,2.047,0,2.828l7.071,7.071"/>
<path style="fill:none;stroke:#000000;stroke-width:2;stroke-miterlimit:10;" d="M18.757,13.686l3.778,3.778l1.568-5.098
	c0.273-0.818,1.034-1.368,1.893-1.368h0l0,0c0.216,0,0.431,0.035,0.636,0.104c1.046,0.349,1.613,1.484,1.264,2.53L25.75,21.5
	c-0.375,1.458-1.546,2.673-2.674,3.802l-1.294,1.294c-1.873,1.873-4.909,1.873-6.782,0L3.562,15.462
	c-0.704-0.704-0.876-1.839-0.294-2.647c0.742-1.03,2.188-1.116,3.047-0.257l5.371,5.371"/>
<path style="fill:none;stroke:#000000;stroke-width:2;stroke-linecap:square;stroke-linejoin:round;stroke-miterlimit:10;" d="M4,22
	c0,0,1.833,3.5,5,5"/>
<path style="fill:none;stroke:#000000;stroke-width:2;stroke-miterlimit:10;" d="M21,10c0,0-2.313-3.75-6-5"/>
</svg>
