<?xml version="1.0" encoding="utf-8"?>
<!-- Generator: Adobe Illustrator 18.0.0, SVG Export Plug-In . SVG Version: 6.00 Build 0)  -->
<svg version="1.1"  xmlns="http://www.w3.org/2000/svg" xmlns:xlink="http://www.w3.org/1999/xlink" x="0px" y="0px"
	 viewBox="0 0 32 32" enable-background="new 0 0 32 32" xml:space="preserve">
<polyline fill="none" stroke="#000000" stroke-width="2" stroke-miterlimit="10" points="22,12 22,19 25,19 "/>
<path fill="none" stroke="#000000" stroke-width="2" stroke-miterlimit="10" d="M12,14.4L12,14.4c0-0.7-0.5-1.4-1.5-1.4
	C9.7,13,9,13.7,9,14.5v0c0,0.8,0.7,1.5,1.5,1.5h0c0.8,0,1.5,0.7,1.5,1.5v0c0,0.8-0.6,1.5-1.5,1.5C9.4,19,9,18.4,9,17.6l0,0"/>
<path fill="none" stroke="#000000" stroke-width="2" stroke-miterlimit="10" d="M16.5,13L16.5,13c-0.8,0-1.5,0.7-1.5,1.5v3
	c0,0.8,0.7,1.5,1.5,1.5H18v-4.5C18,13.7,17.3,13,16.5,13z"/>
<polyline fill="none" stroke="#000000" stroke-width="2" stroke-miterlimit="10" points="1,10 1,8 31,8 31,10 "/>
<polyline fill="none" stroke="#000000" stroke-width="2" stroke-miterlimit="10" points="31,22 31,24 1,24 1,22 "/>
<polygon points="18,17 16,17 18,21 20,21 "/>
</svg>
