<?xml version="1.0" encoding="iso-8859-1"?>
<!-- Generator: Adobe Illustrator 19.1.1, SVG Export Plug-In . SVG Version: 6.00 Build 0)  -->
<svg version="1.1" id="Layer_1" xmlns="http://www.w3.org/2000/svg" xmlns:xlink="http://www.w3.org/1999/xlink" x="0px" y="0px"
	 viewBox="0 0 32 32" style="enable-background:new 0 0 32 32;" xml:space="preserve">
<path style="fill:none;stroke:#000000;stroke-width:2;stroke-miterlimit:10;" d="M8,26c0,0,1.157,2,3,2c2.85,0,8-7,8-7
	c6.282-6.816,10.44-10.706,10-14"/>
<line style="fill:none;stroke:#000000;stroke-width:2;stroke-miterlimit:10;" x1="15" y1="7" x2="15" y2="11"/>
<line style="fill:none;stroke:#000000;stroke-width:2;stroke-miterlimit:10;" x1="18" y1="10" x2="18" y2="6"/>
<path d="M29.999,6.961C29.946,5.591,29.042,3,26,3c-1.799,0-3.368,1.181-5.029,2.432c-0.318,0.24-0.644,0.48-0.971,0.716v2.398
	c0.76-0.475,1.483-0.995,2.174-1.516C23.561,5.986,24.87,5,26,5c1.567,0,1.908,1.289,1.982,1.845
	c-0.405,0.921-2.411,4.909-7.239,6.188l-0.45,0.119l-0.198,0.421c-1.437,3.044-3.62,4.574-3.658,4.6l-8.271,6.43
	c-0.871-1.122-2.46-3.276-3.258-5.02c-0.214-0.468-0.394-0.959-0.538-1.397c1.051,0.115,2.541-0.089,4.238-1.394
	c2.445-1.879,2.394-4.702,2.39-4.821l-0.031-0.875l-0.87-0.091C9.918,10.986,9,10.805,8.98,10.458
	c0.23-0.306,1.692-0.531,2.913-0.464C11.949,10,12.37,10.042,13,10.062V8.058c-0.551-0.019-0.916-0.054-0.94-0.056
	C11.528,7.97,8.812,7.868,7.622,8.989C7.215,9.373,7,9.86,7,10.401c0,1.214,0.872,2.006,1.905,2.374
	c-0.15,0.676-0.533,1.678-1.515,2.432c-2.105,1.619-3.519,0.807-3.563,0.781l-0.535-0.351l-1.422,0.89l0.153,0.689
	c0.015,0.069,0.381,1.7,1.067,3.2c1.234,2.699,4.021,6.079,4.139,6.222l0.619,0.747l9.744-7.579
	c0.304-0.213,2.512-1.833,4.109-4.966c6.092-1.842,8.151-7.26,8.237-7.495l0.068-0.187L29.999,6.961z"/>
</svg>
