<?xml version="1.0" encoding="iso-8859-1"?>
<!-- Generator: Adobe Illustrator 19.1.0, SVG Export Plug-In . SVG Version: 6.00 Build 0)  -->
<svg version="1.1" id="Layer_1" xmlns="http://www.w3.org/2000/svg" xmlns:xlink="http://www.w3.org/1999/xlink" x="0px" y="0px"
	 viewBox="0 0 32 32" style="enable-background:new 0 0 32 32;" xml:space="preserve">
<path style="fill:none;stroke:#000000;stroke-width:2;stroke-miterlimit:10;" d="M27,26H5V13l2.513-6.702
	C7.806,5.517,8.552,5,9.386,5h13.228c0.834,0,1.58,0.517,1.873,1.298L27,13V26z"/>
<path d="M5,28h3l1-3H4v2C4,27.552,4.448,28,5,28z"/>
<path d="M24,28h3c0.552,0,1-0.448,1-1v-2h-5L24,28z"/>
<polyline style="fill:none;stroke:#000000;stroke-width:2;stroke-miterlimit:10;" points="30,12 27,13 5,13 2,12 "/>
<circle cx="21" cy="9" r="2"/>
<circle cx="16" cy="8.5" r="1.5"/>
<circle cx="11" cy="9" r="2"/>
<rect x="22" y="17" width="5" height="2"/>
<rect x="5" y="17" width="5" height="2"/>
<polygon points="12.917,24 13.334,23 18.666,23 19.083,24 21.25,24 20,21 12,21 10.75,24 "/>
</svg>
