<?xml version="1.0" encoding="iso-8859-1"?>
<!-- Generator: Adobe Illustrator 21.0.2, SVG Export Plug-In . SVG Version: 6.00 Build 0)  -->
<svg version="1.1"  xmlns="http://www.w3.org/2000/svg" xmlns:xlink="http://www.w3.org/1999/xlink" x="0px" y="0px"
	 viewBox="0 0 32 32" style="enable-background:new 0 0 32 32;" xml:space="preserve">
<path style="fill:none;stroke:#000000;stroke-width:2;stroke-miterlimit:10;" d="M8,16c-0.599,0.342-1,1.13-1,1.863
	C7,18.9,7.973,19.917,9,20c0.759,2.441,1,3.794,2.474,5.789c2.526,2.948,6.526,2.948,9.051,0C22,23.794,22.241,22.441,23,20
	c1.028-0.083,2-1.1,2-2.137c0-0.733-0.401-1.521-1-1.863v-1.103C24,9.616,22,8,19,8l-1-2C11.208,5.979,8,9.224,8,14.897V16z"/>
<circle cx="13" cy="18" r="1"/>
<circle cx="19" cy="18" r="1"/>
<path style="fill:none;stroke:#000000;stroke-width:2;stroke-miterlimit:10;" d="M19,8c0.017,0.148,0.032,0.289,0.031,0.422
	C19,13,12,9,12,14"/>
<line style="stroke:#000000;stroke-width:2;stroke-miterlimit:10;" x1="2" y1="14" x2="5" y2="14"/>
<path d="M16,24c1.105,0,2-0.895,2-2h-4C14,23.105,14.895,24,16,24z"/>
<line style="stroke:#000000;stroke-width:2;stroke-miterlimit:10;" x1="3" y1="9" x2="5.836" y2="9.945"/>
<line style="stroke:#000000;stroke-width:2;stroke-miterlimit:10;" x1="6.063" y1="4.063" x2="8.258" y2="6.258"/>
<line style="stroke:#000000;stroke-width:2;stroke-miterlimit:10;" x1="30" y1="14" x2="27" y2="14"/>
<line style="stroke:#000000;stroke-width:2;stroke-miterlimit:10;" x1="29.063" y1="9" x2="26.221" y2="9.947"/>
<line style="stroke:#000000;stroke-width:2;stroke-miterlimit:10;" x1="26" y1="4.063" x2="23.65" y2="6.413"/>
</svg>
