<?xml version="1.0" encoding="iso-8859-1"?>
<!-- Generator: Adobe Illustrator 19.1.1, SVG Export Plug-In . SVG Version: 6.00 Build 0)  -->
<svg version="1.1" id="Layer_1" xmlns="http://www.w3.org/2000/svg" xmlns:xlink="http://www.w3.org/1999/xlink" x="0px" y="0px"
	 viewBox="0 0 32 32" style="enable-background:new 0 0 32 32;" xml:space="preserve">
<path style="fill:none;stroke:#000000;stroke-width:2;stroke-miterlimit:10;" d="M14,23c0,0-3-0.042-3,3"/>
<line style="fill:none;stroke:#000000;stroke-width:2;stroke-miterlimit:10;" x1="14" y1="26" x2="14" y2="29"/>
<path d="M10,16c0,0,3.375,0.583,4,2c-0.542,1.125-2,1-2,1S10.75,18.667,10,16z"/>
<path style="fill:none;stroke:#000000;stroke-width:2;stroke-miterlimit:10;" d="M9,12H4c0,0-0.458,4,4,4"/>
<path d="M10,11c-1.728,0.039-2.905,0.37-4.51-0.309c-1.227-0.52-2.298-1.527-2.524-2.885c-0.277-1.663,0.767-3.584,2.008-4.64
	c0.552-0.477,1.07-0.763,1.437-0.935C6.779,2.059,7,2,7,2S6.812,2.132,6.533,2.408C6.256,2.683,5.888,3.107,5.575,3.665
	c-0.441,0.787-1.22,3.079-0.193,3.749C5.572,7.538,6.417,8,7,8c2.833,0,5.735-1.502,7-2C11.667,7.625,10.226,10.995,10,11z"/>
<path style="fill:none;stroke:#000000;stroke-width:2;stroke-miterlimit:10;" d="M16,29c4.333,0,5-3,5-3c0-3.167,1.542-7.375,3-8
	c0-10.167-8-12-8-12S8,7.833,8,18c1.458,0.625,3,4.833,3,8C11,26,11.667,29,16,29z"/>
<path style="fill:none;stroke:#000000;stroke-width:2;stroke-miterlimit:10;" d="M18,23c0,0,3-0.042,3,3"/>
<line style="fill:none;stroke:#000000;stroke-width:2;stroke-miterlimit:10;" x1="18" y1="26" x2="18" y2="29"/>
<path d="M22,16c0,0-3.375,0.583-4,2c0.542,1.125,2,1,2,1S21.25,18.667,22,16z"/>
<path style="fill:none;stroke:#000000;stroke-width:2;stroke-miterlimit:10;" d="M23,12h5c0,0,0.458,4-4,4"/>
<path d="M22,11c1.728,0.039,2.905,0.37,4.51-0.309c1.227-0.52,2.298-1.527,2.524-2.885c0.277-1.663-0.767-3.584-2.008-4.64
	c-0.552-0.477-1.07-0.763-1.437-0.935C25.221,2.059,25,2,25,2s0.188,0.132,0.467,0.408c0.277,0.275,0.645,0.699,0.958,1.257
	c0.441,0.787,1.22,3.079,0.193,3.749C26.428,7.538,25.583,8,25,8c-2.833,0-5.735-1.502-7-2C20.333,7.625,21.774,10.995,22,11z"/>
</svg>
