<?xml version="1.0" encoding="iso-8859-1"?>
<!-- Generator: Adobe Illustrator 21.0.2, SVG Export Plug-In . SVG Version: 6.00 Build 0)  -->
<svg version="1.1" id="Layer_1" xmlns="http://www.w3.org/2000/svg" xmlns:xlink="http://www.w3.org/1999/xlink" x="0px" y="0px"
	 viewBox="0 0 32 32" style="enable-background:new 0 0 32 32;" xml:space="preserve">
<circle style="fill:none;stroke:#000000;stroke-width:2;stroke-miterlimit:10;" cx="19" cy="13" r="9"/>
<line style="fill:none;stroke:#000000;stroke-width:2;stroke-miterlimit:10;" x1="4" y1="28" x2="13" y2="19"/>
<path d="M18.981,13c-0.28,0-0.514-0.097-0.701-0.29c-0.187-0.192-0.28-0.43-0.28-0.714c0-0.292,0.096-0.531,0.288-0.717
	C18.48,11.093,18.721,11,19.008,11c0.292,0,0.529,0.094,0.715,0.283C19.909,11.471,20,11.709,20,11.997
	c0,0.296-0.094,0.537-0.282,0.723C19.528,12.906,19.283,13,18.981,13z"/>
<path d="M18.981,16c-0.28,0-0.514-0.097-0.701-0.291C18.093,15.515,18,15.276,18,14.993c0-0.291,0.096-0.529,0.288-0.714
	c0.192-0.186,0.433-0.28,0.72-0.28c0.292,0,0.529,0.095,0.715,0.282C19.909,14.47,20,14.707,20,14.993
	c0,0.295-0.094,0.537-0.282,0.725C19.528,15.905,19.283,16,18.981,16z"/>
<path d="M17,9.301V16.7h-1.524v-5.457c-0.085,0.083-0.184,0.163-0.298,0.237c-0.114,0.074-0.236,0.142-0.365,0.202
	c-0.13,0.06-0.263,0.111-0.401,0.152c-0.139,0.042-0.277,0.071-0.412,0.089v-1.451c0.397-0.131,0.771-0.299,1.123-0.502
	c0.352-0.204,0.67-0.428,0.954-0.671H17V9.301z"/>
<path d="M24,9.301V16.7h-1.524v-5.457c-0.085,0.083-0.184,0.163-0.298,0.237c-0.114,0.074-0.236,0.142-0.365,0.202
	c-0.13,0.06-0.263,0.111-0.401,0.152c-0.139,0.042-0.277,0.071-0.412,0.089v-1.451c0.397-0.131,0.771-0.299,1.123-0.502
	c0.352-0.204,0.67-0.428,0.954-0.671H24V9.301z"/>
</svg>
