<?xml version="1.0" encoding="iso-8859-1"?>
<!-- Generator: Adobe Illustrator 22.1.0, SVG Export Plug-In . SVG Version: 6.00 Build 0)  -->
<svg version="1.1" id="Layer_1_1_" xmlns="http://www.w3.org/2000/svg" xmlns:xlink="http://www.w3.org/1999/xlink" x="0px" y="0px"
	 viewBox="0 0 32 32" style="enable-background:new 0 0 32 32;" xml:space="preserve">
<g>
</g>
<rect x="3" y="10" style="fill:none;stroke:#000000;stroke-width:2;stroke-miterlimit:10;" width="26" height="16"/>
<rect x="15" y="13" width="2" height="2"/>
<rect x="15" y="17" width="2" height="2"/>
<rect x="15" y="21" width="2" height="2"/>
<path style="fill:none;stroke:#000000;stroke-width:2;stroke-miterlimit:10;" d="M22.5,14.875L22.5,14.875
	c-0.828,0-1.5,0.7-1.5,1.563v3.125c0,0.862,0.672,1.563,1.5,1.563l0,0c0.828,0,1.5-0.7,1.5-1.563v-3.125
	C24,15.575,23.328,14.875,22.5,14.875z"/>
<path id="XMLID_91_" style="fill:none;stroke:#000000;stroke-width:2;stroke-miterlimit:10;" d="M10,22v-7H9.379
	c0,0-0.748,1-1.883,1"/>
<line style="fill:none;stroke:#000000;stroke-width:2;stroke-miterlimit:10;" x1="5" y1="5" x2="5" y2="10"/>
<line style="fill:none;stroke:#000000;stroke-width:2;stroke-miterlimit:10;" x1="27" y1="5" x2="27" y2="10"/>
</svg>
