<?xml version="1.0" encoding="iso-8859-1"?>
<!-- Generator: Adobe Illustrator 18.1.1, SVG Export Plug-In . SVG Version: 6.00 Build 0)  -->
<svg version="1.1" id="Layer_1" xmlns="http://www.w3.org/2000/svg" xmlns:xlink="http://www.w3.org/1999/xlink" x="0px" y="0px"
	 viewBox="0 0 32 32" style="enable-background:new 0 0 32 32;" xml:space="preserve">
<path style="fill:none;stroke:#000000;stroke-width:2;stroke-miterlimit:10;" d="M6.5,13c0,0-0.5-1.621-0.5-2.402
	C6,6.692,10.594,6,12,6l1.349-1h5.301L20,6c1.406,0,6,0.692,6,4.598C26,11.379,25.5,13,25.5,13s1.5,1.763,1.5,4.107L25,19
	c-1.775-0.517-2.45-3-2.45-3h-0.1c0,0-0.95,1.531-0.95,5.533c0,0.391,0.5,1.692,0.5,2.343c0,0.781-0.41,2.083-2,3.124h-8
	c-1.59-1.041-2-2.343-2-3.124c0-0.651,0.5-1.953,0.5-2.343C10.5,17.531,9.55,16,9.55,16h-0.1c0,0-0.675,2.483-2.45,3l-2-1.893
	C5,14.763,6.5,13,6.5,13z"/>
<path d="M9,13.218c0,0,0.346,1.382,0.637,1.924c0.508,0.945,1.555,1.474,3.348,1.82c1.3,0.251,3.015-0.76,3.015-1.867
	c0,1.107,1.715,2.118,3.015,1.867c1.793-0.346,2.84-0.874,3.348-1.82C22.654,14.599,23,13.217,23,13.217
	c-0.51,0-4.005-3.661-4.005-3.661c-2.553,1.006-2.447,1.8-2.995,1.8c-0.547,0-0.46-0.777-2.995-1.8
	C13.006,9.556,9.526,13.218,9,13.218z"/>
</svg>
