<?xml version="1.0" encoding="iso-8859-1"?>
<!-- Generator: Adobe Illustrator 18.1.1, SVG Export Plug-In . SVG Version: 6.00 Build 0)  -->
<svg version="1.1" id="Layer_1" xmlns="http://www.w3.org/2000/svg" xmlns:xlink="http://www.w3.org/1999/xlink" x="0px" y="0px"
	 viewBox="0 0 32 32" style="enable-background:new 0 0 32 32;" xml:space="preserve">
<g>
	<g>
		<path style="fill:none;stroke:#000000;stroke-width:2;stroke-miterlimit:10;" d="M17,17c0.335,0,0.666-0.021,0.993-0.061"/>
		<path style="fill:none;stroke:#000000;stroke-width:2;stroke-miterlimit:10;stroke-dasharray:1.9649,0.9824;" d="M18.957,16.756
			c3.81-0.976,6.804-4.856,7.038-11.261"/>
		<path style="fill:none;stroke:#000000;stroke-width:2;stroke-miterlimit:10;" d="M26.008,5C26.012,4.673,26.01,4.34,26,4"/>
	</g>
</g>
<circle style="fill:none;stroke:#000000;stroke-width:2;stroke-miterlimit:10;" cx="13.5" cy="6.5" r="2.5"/>
<path style="fill:none;stroke:#000000;stroke-width:2;stroke-miterlimit:10;" d="M22,4l-1.843,3.827
	c-0.071,0.147-0.177,0.275-0.308,0.372l-2.956,2.175L11.7,11.262l-3.116,0.789c-0.422,0.107-0.865-0.072-1.095-0.442L4.857,7.372"/>
<polyline style="fill:none;stroke:#000000;stroke-width:2;stroke-miterlimit:10;" points="12,11.642 12.944,19.174 11.073,28.333 
	"/>
<line style="fill:none;stroke:#000000;stroke-width:2;stroke-miterlimit:10;" x1="17" y1="10.374" x2="17" y2="18.912"/>
<path style="fill:none;stroke:#000000;stroke-width:2;stroke-miterlimit:10;" d="M12.944,19.174l6.378-0.499
	c0.428-0.033,0.829,0.209,0.997,0.604l2.416,5.648"/>
</svg>
