<?xml version="1.0" encoding="iso-8859-1"?>
<!-- Generator: Adobe Illustrator 18.1.1, SVG Export Plug-In . SVG Version: 6.00 Build 0)  -->
<svg version="1.1" id="Layer_1" xmlns="http://www.w3.org/2000/svg" xmlns:xlink="http://www.w3.org/1999/xlink" x="0px" y="0px"
	 viewBox="0 0 32 32" style="enable-background:new 0 0 32 32;" xml:space="preserve">
<path style="fill:none;stroke:#000000;stroke-width:2;stroke-linecap:round;stroke-linejoin:round;stroke-miterlimit:10;" d="M15,22
	c7.714-1.357,10.883-4.416,12-7c0-6.786-5.761-9-13.538-9C9.061,6,5,9.374,5,15.308C5,18.523,6.071,23,8,23"/>
<path style="fill:none;stroke:#000000;stroke-width:2;stroke-linecap:round;stroke-linejoin:round;stroke-miterlimit:10;" d="
	M8,22.5c0,1.933,1.567,3.5,3.5,3.5s3.5-1.567,3.5-3.5S13.433,20,11.5,20S8,20.567,8,22.5z"/>
<path d="M14.683,9.077c-0.278,0.203-0.882,0.651-1.239,0.944c-0.262,0.216-0.567,0.227-0.69,0.225
	c-1.094-0.021-1.818,0.11-1.657-0.027c1.004-0.852,2.137-1.286,3.294-1.424C14.632,8.766,15.099,8.776,14.683,9.077z"/>
<path d="M17.784,11.608c-0.373,0.27-0.681,0.057-0.826-0.052c-0.388-0.294-0.799-0.526-1.216-0.709
	c-0.139-0.061-0.268-0.273,0.082-0.551c0.225-0.179,0.819-0.633,1.214-0.931c0.411-0.31,0.704-0.18,0.865-0.121
	c0.472,0.173,0.924,0.379,1.35,0.61c0.16,0.087,0.469,0.251-0.029,0.65C18.901,10.762,18.228,11.287,17.784,11.608z"/>
<path d="M19.711,15.779c-0.146-0.71-0.353-1.331-0.605-1.872c-0.07-0.15-0.234-0.414,0.266-0.807
	c0.614-0.482,1.635-1.26,1.885-1.437c0.365-0.258,0.63,0.004,0.751,0.145c0.624,0.725,0.963,1.463,0.866,2.08
	C22.768,14.564,19.834,16.372,19.711,15.779z"/>
</svg>
