<?xml version="1.0" encoding="iso-8859-1"?>
<!-- Generator: Adobe Illustrator 18.1.1, SVG Export Plug-In . SVG Version: 6.00 Build 0)  -->
<svg version="1.1" id="Layer_1" xmlns="http://www.w3.org/2000/svg" xmlns:xlink="http://www.w3.org/1999/xlink" x="0px" y="0px"
	 viewBox="0 0 32 32" style="enable-background:new 0 0 32 32;" xml:space="preserve">
<circle style="fill:none;stroke:#000000;stroke-width:2;stroke-miterlimit:10;" cx="13.5" cy="7.5" r="2.5"/>
<line style="fill:none;stroke:#000000;stroke-width:2;stroke-miterlimit:10;" x1="28" y1="6" x2="22" y2="6"/>
<path style="fill:none;stroke:#000000;stroke-width:2;stroke-miterlimit:10;" d="M4.887,16.887l2.924-2.654
	c0.083-0.075,0.178-0.136,0.281-0.18l2.958-1.255c0.124-0.052,0.256-0.079,0.391-0.079h4.06c0.178,0,0.354-0.048,0.507-0.138
	l2.397-1.412c0.186-0.11,0.332-0.276,0.415-0.476l1.489-3.559"/>
<path style="fill:none;stroke:#000000;stroke-width:2;stroke-miterlimit:10;" d="M11.464,13.108L9.542,21.92
	c-0.074,0.341-0.32,0.618-0.65,0.732L5,24"/>
<path d="M10.187,28h2.285l2.142-3.876c0.201-0.366,0.283-0.777,0.236-1.187l-0.311-2.802l1.729-6.78l-1.938-0.494l-1.818,7.133
	l0.351,3.163L10.187,28z"/>
</svg>
