<?xml version="1.0" encoding="iso-8859-1"?>
<!-- Generator: Adobe Illustrator 18.1.1, SVG Export Plug-In . SVG Version: 6.00 Build 0)  -->
<svg version="1.1" id="Layer_1" xmlns="http://www.w3.org/2000/svg" xmlns:xlink="http://www.w3.org/1999/xlink" x="0px" y="0px"
	 viewBox="0 0 32 32" style="enable-background:new 0 0 32 32;" xml:space="preserve">
<circle style="fill:none;stroke:#000000;stroke-width:2;stroke-miterlimit:10;" cx="16" cy="7" r="3"/>
<path style="fill:none;stroke:#000000;stroke-width:2;stroke-miterlimit:10;" d="M28,21l-5-1l-1.961-4.576
	C20.409,13.954,18.963,13,17.362,13h-2.725c-1.6,0-3.046,0.954-3.677,2.424L9,20l-5,1"/>
<path style="fill:none;stroke:#000000;stroke-width:2;stroke-miterlimit:10;" d="M12,21.438V22l-3.875,1.55
	C7.445,23.822,7,24.48,7,25.211v0C7,26.199,7.801,27,8.789,27h14.422C24.199,27,25,26.199,25,25.211v0
	c0-0.731-0.445-1.389-1.125-1.661L20,22v-0.531"/>
<path d="M16.5,23L11,25h5.5c0.275,0,0.5,0.224,0.5,0.5S16.775,26,16.5,26H15v2h1.5c1.379,0,2.5-1.122,2.5-2.5S17.879,23,16.5,23z"/>
<polygon points="13,16.654 11,21.315 11,22 13,22 "/>
<polygon points="19,16.654 21,21.315 21,22 19,22 "/>
</svg>
