<?xml version="1.0" encoding="iso-8859-1"?>
<!-- Generator: Adobe Illustrator 18.1.1, SVG Export Plug-In . SVG Version: 6.00 Build 0)  -->
<svg version="1.1" id="Layer_1" xmlns="http://www.w3.org/2000/svg" xmlns:xlink="http://www.w3.org/1999/xlink" x="0px" y="0px"
	 viewBox="0 0 32 32" style="enable-background:new 0 0 32 32;" xml:space="preserve">
<ellipse style="fill:none;stroke:#000000;stroke-width:2;stroke-miterlimit:10;" cx="10" cy="10.5" rx="4" ry="1.5"/>
<path style="fill:none;stroke:#000000;stroke-width:2;stroke-miterlimit:10;" d="M6,10.5c0,0.386,0,2.614,0,3
	c0,0.828,1.791,1.5,4,1.5s4-0.672,4-1.5c0-0.386,0-2.614,0-3"/>
<path d="M25.948,5l-4.422,12.139l-0.002-0.001C20.821,18.876,19.157,20,17.283,20H8c-2.206,0-4,1.794-4,4s1.794,4,4,4h7.498
	c2.514,0,4.78-1.587,5.638-3.949L28.076,5H25.948z M19.257,23.367C18.685,24.942,17.174,26,15.498,26H8c-1.103,0-2-0.897-2-2
	s0.897-2,2-2h9.283c0.945,0,1.853-0.199,2.677-0.565L19.257,23.367z"/>
<line style="fill:none;stroke:#000000;stroke-width:2;stroke-miterlimit:10;" x1="9" y1="27" x2="9" y2="21"/>
<line style="fill:none;stroke:#000000;stroke-width:2;stroke-miterlimit:10;" x1="16" y1="27" x2="16" y2="21"/>
</svg>
