<?xml version="1.0" encoding="iso-8859-1"?>
<!-- Generator: Adobe Illustrator 18.1.1, SVG Export Plug-In . SVG Version: 6.00 Build 0)  -->
<svg version="1.1" id="Layer_1" xmlns="http://www.w3.org/2000/svg" xmlns:xlink="http://www.w3.org/1999/xlink" x="0px" y="0px"
	 viewBox="0 0 32 32" style="enable-background:new 0 0 32 32;" xml:space="preserve">
<path style="fill:none;stroke:#000000;stroke-width:2;stroke-miterlimit:10;" d="M23,10c0,1.086,0.914,2,2,2s2-0.914,2-2
	s-0.914-2-2-2S23,8.914,23,10z"/>
<path style="fill:none;stroke:#000000;stroke-width:2;stroke-miterlimit:10;" d="M18.308,13l3.612,2h3.178
	c0.688,0,1.17,0.678,0.945,1.328l-0.922,2.656C24.701,20.191,23.564,21,22.286,21h-2.96l-4.885,2.608L5,19
	C7.842,7.113,16.668,5,20,5l-5.558,18.608"/>
<polygon points="23.59,17 21.59,17 20.113,21 22.113,21 "/>
<path style="fill:none;stroke:#000000;stroke-width:2;stroke-miterlimit:10;" d="M4,25c0,0.984,1.328,2,3,2s3-1,3-2"/>
<path style="fill:none;stroke:#000000;stroke-width:2;stroke-miterlimit:10;" d="M10,25c0,0.984,1.328,2,3,2s3-1,3-2"/>
<path style="fill:none;stroke:#000000;stroke-width:2;stroke-miterlimit:10;" d="M16,25c0,0.984,1.328,2,3,2s3-1,3-2"/>
<path style="fill:none;stroke:#000000;stroke-width:2;stroke-miterlimit:10;" d="M22,25c0,0.984,1.328,2,3,2s3-1,3-2"/>
</svg>
