<?xml version="1.0" encoding="iso-8859-1"?>
<!-- Generator: Adobe Illustrator 18.1.1, SVG Export Plug-In . SVG Version: 6.00 Build 0)  -->
<svg version="1.1" id="Layer_1" xmlns="http://www.w3.org/2000/svg" xmlns:xlink="http://www.w3.org/1999/xlink" x="0px" y="0px"
	 viewBox="0 0 32 32" style="enable-background:new 0 0 32 32;" xml:space="preserve">
<polyline style="fill:none;stroke:#000000;stroke-width:2;stroke-miterlimit:10;" points="22.554,6.842 19.254,11.746 12.899,7.64 
	15.208,4.049 "/>
<circle style="fill:none;stroke:#000000;stroke-width:2;stroke-miterlimit:10;" cx="7.5" cy="8.5" r="2.5"/>
<path style="fill:none;stroke:#000000;stroke-width:2;stroke-miterlimit:10;" d="M17.847,10.72L13.587,14l-4.586-0.001
	c-1.105,0-2.001,0.895-2.001,2v4.104c0,0.245,0.09,0.482,0.253,0.665l4.026,4.52"/>
<path style="fill:none;stroke:#000000;stroke-width:2;stroke-miterlimit:10;" d="M17.04,20.959l-2.862-2.158
	c-0.27-0.203-0.624-0.257-0.941-0.142L11,19.466V16"/>
<g>
	<path style="fill:none;stroke:#000000;stroke-width:2;stroke-miterlimit:10;" d="M23.603,25.288c0,0,3.396-4.064,3.396-6.083
		c0-0.715-0.31-1.205-1.499-1.205c-3.556,0-11.797,5.159-16.417,9"/>
</g>
<path style="fill:none;stroke:#000000;stroke-width:2;stroke-miterlimit:10;" d="M27,26.954c0,0-2.343-1.954-5-1.954
	s-7.329,2-11.674,2C7.5,27,5,25,5,25"/>
<polygon points="12.995,12 14.999,9.408 13.417,8.185 10.468,12 "/>
</svg>
