<?xml version="1.0" encoding="iso-8859-1"?>
<!-- Generator: Adobe Illustrator 19.1.1, SVG Export Plug-In . SVG Version: 6.00 Build 0)  -->
<svg version="1.1" id="Layer_1" xmlns="http://www.w3.org/2000/svg" xmlns:xlink="http://www.w3.org/1999/xlink" x="0px" y="0px"
	 viewBox="-8 10 32 32" style="enable-background:new -8 10 32 32;" xml:space="preserve">
<path d="M20,26c0-6.617-5.383-12-12-12C1.383,14-4,19.383-4,26v0.454l8,7.001V38h8v-4.546l8-7V26z M8,16.363
	c0.867,0.942,2.422,3.173,2.87,7.293C10.147,23.281,9.208,23,8,23s-2.147,0.281-2.87,0.655C5.579,19.533,7.135,17.302,8,16.363z
	 M3.084,26.4l2.4,5.6H5.376l-7.041-6.161C-1.283,25.449-0.611,25,0.5,25C2.402,25,3.06,26.352,3.084,26.4z M7.659,32l-2.518-5.876
	C5.522,25.692,6.378,25,8,25c1.626,0,2.483,0.696,2.86,1.122L8.341,32H7.659z M10.516,32l2.4-5.6c0.008-0.018,0.638-1.4,2.584-1.4
	c1.101,0,1.775,0.452,2.161,0.843L10.624,32H10.516z M17.662,23.444C17.078,23.181,16.366,23,15.5,23
	c-1.109,0-1.966,0.294-2.622,0.682c-0.343-3.476-1.409-5.858-2.4-7.36C13.976,17.22,16.738,19.957,17.662,23.444z M5.521,16.323
	c-0.991,1.501-2.057,3.884-2.4,7.36C2.466,23.294,1.609,23,0.5,23c-0.866,0-1.578,0.181-2.162,0.444
	C-0.738,19.957,2.024,17.22,5.521,16.323z M10,36H6v-2h4V36z"/>
</svg>
