<?xml version="1.0" encoding="iso-8859-1"?>
<!-- Generator: Adobe Illustrator 19.1.1, SVG Export Plug-In . SVG Version: 6.00 Build 0)  -->
<svg version="1.1" id="Layer_1" xmlns="http://www.w3.org/2000/svg" xmlns:xlink="http://www.w3.org/1999/xlink" x="0px" y="0px"
	 viewBox="-8 10 32 32" style="enable-background:new -8 10 32 32;" xml:space="preserve">
<path style="fill:none;stroke:#000000;stroke-width:2;stroke-miterlimit:10;" d="M10.5,24L10.5,24C9.672,24,9,24.672,9,25.5v3
	c0,0.828,0.672,1.5,1.5,1.5l0,0c0.828,0,1.5-0.672,1.5-1.5v-3C12,24.672,11.328,24,10.5,24z"/>
<path id="XMLID_15_" style="fill:none;stroke:#000000;stroke-width:2;stroke-miterlimit:10;" d="M5,31v-7H4.379c0,0-0.748,1-1.883,1
	"/>
<path id="XMLID_442_" style="fill:none;stroke:#000000;stroke-width:2;stroke-miterlimit:10;" d="M12,15c0,0-1.572,2-4,2s-4-2-4-2
	l-8,3v5h4v14h16V23h4v-5L12,15z"/>
<line style="fill:none;stroke:#000000;stroke-width:2;stroke-miterlimit:10;" x1="17" y1="17" x2="17" y2="21"/>
<line style="fill:none;stroke:#000000;stroke-width:2;stroke-miterlimit:10;" x1="-1" y1="17" x2="-1" y2="21"/>
</svg>
