<?xml version="1.0" encoding="iso-8859-1"?>
<!-- Generator: Adobe Illustrator 19.0.1, SVG Export Plug-In . SVG Version: 6.00 Build 0)  -->
<svg version="1.1" id="Layer_1" xmlns="http://www.w3.org/2000/svg" xmlns:xlink="http://www.w3.org/1999/xlink" x="0px" y="0px"
	 viewBox="0 0 32 32" style="enable-background:new 0 0 32 32;" xml:space="preserve">
<circle id="XMLID_314_" cx="15" cy="17" r="1.5"/>
<g id="XMLID_309_">
	<path id="XMLID_310_" style="fill:none;stroke:#000000;stroke-width:2;stroke-miterlimit:10;" d="M21,17c0-2.492,2-4.261,2-6.858
		S21.149,5,17,5c-3.972,0-9,3.354-9,10c0,8.515,5.546,12,9,12c1.899,0,5-1.234,5-4C22,21.145,21,19.492,21,17z"/>
</g>
<circle id="XMLID_308_" style="fill:none;stroke:#000000;stroke-width:2;stroke-linecap:round;stroke-linejoin:round;stroke-miterlimit:10;" cx="15" cy="17" r="4"/>
<path id="XMLID_221_" style="fill:none;stroke:#000000;stroke-width:2;stroke-linejoin:round;stroke-miterlimit:10;" d="M25,28
	c0-0.865,0-4.135,0-5c0-5.523-4.477-10-10-10S5,17.477,5,23c0,0.865,0,5,0,5"/>
<circle id="XMLID_312_" cx="17.5" cy="9.5" r="1.5"/>
<circle id="XMLID_222_" cx="17" cy="24" r="1"/>
</svg>
