<?xml version="1.0" encoding="iso-8859-1"?>
<!-- Generator: Adobe Illustrator 19.0.1, SVG Export Plug-In . SVG Version: 6.00 Build 0)  -->
<svg version="1.1" id="Layer_1" xmlns="http://www.w3.org/2000/svg" xmlns:xlink="http://www.w3.org/1999/xlink" x="0px" y="0px"
	 viewBox="0 0 32 32" style="enable-background:new 0 0 32 32;" xml:space="preserve">
<circle id="XMLID_334_" style="fill:none;stroke:#000000;stroke-width:2;stroke-miterlimit:10;" cx="14.769" cy="7.5" r="2.5"/>
<polyline id="XMLID_331_" style="fill:none;stroke:#000000;stroke-width:2;stroke-miterlimit:10;" points="17.984,11.842 
	20.733,19.939 23.616,24.32 "/>
<path id="XMLID_329_" style="fill:none;stroke:#000000;stroke-width:2;stroke-miterlimit:10;" d="M6,27c0-2.024,4.415-4,10-4
	s10,2.007,10,4"/>
<g id="XMLID_332_">
	<polygon id="XMLID_333_" points="24.732,13.741 23.304,14.516 25.311,26.402 26.791,26.156 	"/>
	<polygon id="XMLID_382_" points="5.222,26.174 6.661,26.596 9.765,15.916 8.462,15.104 	"/>
</g>
<path id="XMLID_380_" style="fill:none;stroke:#000000;stroke-width:2;stroke-miterlimit:10;" d="M8.828,12.948l2.963,1.879
	c0.47,0.298,1.092,0.155,1.386-0.317l1.132-1.825l3.71-1.147l2.735,1.468c0.293,0.157,0.645,0.159,0.939,0.004l3.307-1.742"/>
<path id="XMLID_328_" style="fill:none;stroke:#000000;stroke-width:2;stroke-miterlimit:10;" d="M14.78,12.853l1.445,4.198
	l-0.888,1.722c-0.169,0.327-0.144,0.721,0.065,1.025l2.043,2.97"/>
</svg>
