<?xml version="1.0" encoding="iso-8859-1"?>
<!-- Generator: Adobe Illustrator 19.1.1, SVG Export Plug-In . SVG Version: 6.00 Build 0)  -->
<svg version="1.1" id="Layer_1" xmlns="http://www.w3.org/2000/svg" xmlns:xlink="http://www.w3.org/1999/xlink" x="0px" y="0px"
	 viewBox="0 0 32 32" style="enable-background:new 0 0 32 32;" xml:space="preserve">
<polyline style="fill:none;stroke:#000000;stroke-width:2;stroke-miterlimit:10;" points="3,25 3,8 29,8 29,25 "/>
<path d="M27,10.293l-1,1L24.707,10h-1.414L22,11.293l-1.292-1.292L20.71,10h-1.417l0.002,0.002l-1.292,1.294L16.707,10h-1.414
	L14,11.293L12.707,10h-1.414L10,11.293L8.707,10H7.293L6,11.293l-1-1v1.414L5.293,12L5,12.293v1.414l1-1L7.293,14L6,15.293l-1-1
	v1.414L5.293,16L5,16.293v1.414l1-1L7.293,18L6,19.293l-1-1v1.414L5.293,20L5,20.293v1.414l1-1l1.305,1.305l-1.343,1.345l-0.962-1
	V23.8l0.595,0.619c0.093,0.097,0.221,0.152,0.356,0.153c0.001,0,0.003,0,0.004,0c0.133,0,0.26-0.053,0.354-0.147l1.703-1.706
	l1.634,1.634C9.744,24.451,9.872,24.5,10,24.5s0.256-0.049,0.354-0.146L12,22.707l1.646,1.646C13.744,24.451,13.872,24.5,14,24.5
	s0.256-0.049,0.354-0.146L16,22.707l1.646,1.646C17.744,24.451,17.872,24.5,18,24.5s0.256-0.049,0.354-0.146L20,22.707l1.646,1.646
	c0.195,0.195,0.512,0.195,0.707,0L24,22.707l1.646,1.646C25.744,24.451,25.872,24.5,26,24.5s0.256-0.049,0.354-0.146L27,23.707
	v-1.414l-1,1L24.707,22L26,20.707l1,1v-1.414L26.707,20L27,19.707v-1.414l-1,1L24.707,18L26,16.707l1,1v-1.414L26.707,16L27,15.707
	v-1.414l-1,1L24.707,14L26,12.707l1,1v-1.414L26.707,12L27,11.707V10.293z M23.293,14L22,15.293L20.707,14L22,12.707L23.293,14z
	 M10.707,16L12,14.707l1.3,1.3l-1.292,1.294L10.707,16z M11.302,18.009l-1.292,1.294L8.707,18L10,16.707L11.302,18.009z
	 M14.007,16.714L15.293,18L14,19.293l-1.285-1.285L14.007,16.714z M14.714,16.007l1.292-1.294L17.293,16L16,17.293L14.714,16.007z
	 M18,16.707L19.293,18L18,19.293L16.707,18L18,16.707z M18.707,16L20,14.707L21.293,16L20,17.293L18.707,16z M22,16.707L23.293,18
	L22,19.293L20.707,18L22,16.707z M20.002,10.709L21.293,12L20,13.293l-1.29-1.29L20.002,10.709z M18.004,12.711L19.293,14L18,15.293
	l-1.288-1.288L18.004,12.711z M16,10.707l1.297,1.297l-1.292,1.294L14.707,12L16,10.707z M15.299,14.006L14.007,15.3l-1.3-1.3
	L14,12.707L15.299,14.006z M12,10.707L13.293,12L12,13.293L10.707,12L12,10.707z M11.293,14L10,15.293L8.707,14L10,12.707L11.293,14
	z M6.707,12L8,10.707L9.293,12L8,13.293L6.707,12z M6.707,16L8,14.707L9.293,16L8,17.293L6.707,16z M8.012,21.305L6.707,20L8,18.707
	l1.304,1.304L8.012,21.305z M10,23.293l-1.281-1.281l1.292-1.294L11.293,22L10,23.293z M10.717,20.01l1.292-1.294L13.293,20
	L12,21.293L10.717,20.01z M14,23.293L12.707,22L14,20.707L15.293,22L14,23.293z M14.707,20L16,18.707L17.293,20L16,21.293L14.707,20
	z M18,23.293L16.707,22L18,20.707L19.293,22L18,23.293z M18.707,20L20,18.707L21.293,20L20,21.293L18.707,20z M22,23.293L20.707,22
	L22,20.707L23.293,22L22,23.293z M25.293,20L24,21.293L22.707,20L24,18.707L25.293,20z M25.293,16L24,17.293L22.707,16L24,14.707
	L25.293,16z M24,13.293L22.707,12L24,10.707L25.293,12L24,13.293z"/>
</svg>
