<?xml version="1.0" encoding="iso-8859-1"?>
<!-- Generator: Adobe Illustrator 19.1.1, SVG Export Plug-In . SVG Version: 6.00 Build 0)  -->
<svg version="1.1"  xmlns="http://www.w3.org/2000/svg" xmlns:xlink="http://www.w3.org/1999/xlink" x="0px" y="0px"
	 viewBox="0 0 32 32" style="enable-background:new 0 0 32 32;" xml:space="preserve">
<path style="fill:none;stroke:#000000;stroke-width:2;stroke-miterlimit:10;" d="M22.305,20H25c0.47,0,0.877,0.327,0.977,0.787
	L24.305,27"/>
<path style="fill:none;stroke:#000000;stroke-width:2;stroke-miterlimit:10;" d="M20,17.5l1.912-3.999
	c0.338-0.934-0.061-1.974-0.936-2.443l-1.7-0.911c-0.179-0.096-0.384-0.135-0.586-0.112l-3.595,0.411
	c-0.297,0.034-0.564,0.199-0.726,0.45L12,14"/>
<circle style="fill:none;stroke:#000000;stroke-width:2;stroke-miterlimit:10;" cx="24" cy="7" r="2"/>
<line style="fill:none;stroke:#000000;stroke-width:2;stroke-miterlimit:10;" x1="16.375" y1="16" x2="19" y2="10"/>
<line style="fill:none;stroke:#000000;stroke-width:2;stroke-miterlimit:10;" x1="4" y1="23" x2="17" y2="23"/>
<line style="fill:none;stroke:#000000;stroke-width:2;stroke-miterlimit:10;" x1="7" y1="20" x2="14" y2="20"/>
<path d="M16,15c-2.373,0-4.47,1.189-5.736,3h2.767c0.833-0.62,1.854-1,2.969-1c2.757,0,5,2.243,5,5s-2.243,5-5,5
	c-1.627,0-3.061-0.793-3.974-2H9.685c1.126,2.361,3.53,4,6.315,4c3.86,0,7-3.14,7-7S19.86,15,16,15z"/>
</svg>
