<?xml version="1.0" encoding="iso-8859-1"?>
<!-- Generator: Adobe Illustrator 19.1.0, SVG Export Plug-In . SVG Version: 6.00 Build 0)  -->
<svg version="1.1" id="Layer_1" xmlns="http://www.w3.org/2000/svg" xmlns:xlink="http://www.w3.org/1999/xlink" x="0px" y="0px"
	 viewBox="0 0 32 32" style="enable-background:new 0 0 32 32;" xml:space="preserve">
<g>
	<path d="M3.369,10.246c-0.021,0-0.038,0.011-0.052,0.027c-1.417,1.995-2.271,3.345-3.157,4.984l-0.089,0.181l-0.026,0.058
		c-0.076,0.159-0.057,0.335,0.049,0.502c0.524,0.82,3.462,1.777,10.023,1.777c4.892,0,10.088-0.79,10.088-2.253
		c0-1.413-5.132-2.257-10.088-2.257c-1.647,0-3.276,0.231-3.746,0.305c0.448-0.69,2.31-3.197,2.33-3.223
		c0.009-0.011,0.015-0.023,0.015-0.037c0-0.01-0.004-0.02-0.007-0.03c-0.015-0.02-0.036-0.034-0.058-0.034H3.369 M5.281,15.523
		c0-0.305,1.84-0.732,4.838-0.732c2.997,0,4.834,0.427,4.834,0.732s-1.837,0.731-4.834,0.731
		C7.121,16.254,5.281,15.828,5.281,15.523"/>
	<path d="M7.081,22.885c0,0,24.391,0.992,24.911-7.532c0.421-6.914-16.902-6.257-16.918-6.257s-0.134,0.011-0.134,0.11
		c0,0.082,0.062,0.111,0.124,0.111c4.804,0,12.62,1.908,12.365,6.042c-0.206,3.367-6.304,7.308-20.34,7.308
		c-0.084,0-0.139,0.058-0.139,0.11S6.982,22.875,7.081,22.885"/>
</g>
</svg>
