<?xml version="1.0" encoding="iso-8859-1"?>
<!-- Generator: Adobe Illustrator 19.1.1, SVG Export Plug-In . SVG Version: 6.00 Build 0)  -->
<svg version="1.1"  xmlns="http://www.w3.org/2000/svg" xmlns:xlink="http://www.w3.org/1999/xlink" x="0px" y="0px"
	 viewBox="0 0 32 32" style="enable-background:new 0 0 32 32;" xml:space="preserve">
<circle style="fill:none;stroke:#000000;stroke-width:2;stroke-miterlimit:10;" cx="8.5" cy="21.5" r="2.5"/>
<path style="fill:none;stroke:#000000;stroke-width:2;stroke-miterlimit:10;" d="M6,21H3.866C3.388,21,3,20.612,3,20.133v-3.647
	c0-0.795,0.541-1.489,1.313-1.682l5.62-1.405l1.59-2.65C12.15,9.706,13.278,9,14.496,9H17"/>
<line style="fill:none;stroke:#000000;stroke-width:2;stroke-miterlimit:10;" x1="20" y1="21" x2="10.799" y2="21.042"/>
<path style="fill:none;stroke:#000000;stroke-width:2;stroke-miterlimit:10;" d="M24,4c-0.595,0-1.158,0.122-1.687,0.313L25,7v3h-3
	l-2.687-2.687C19.122,7.842,19,8.405,19,9c0,2.049,1.236,3.806,3,4.578V26c0,1.1,0.9,2,2,2s2-0.9,2-2V13.578
	c1.764-0.772,3-2.529,3-4.578C29,6.239,26.761,4,24,4z"/>
</svg>
