<?xml version="1.0" encoding="iso-8859-1"?>
<!-- Generator: Adobe Illustrator 19.1.0, SVG Export Plug-In . SVG Version: 6.00 Build 0)  -->
<svg version="1.1" id="Layer_1" xmlns="http://www.w3.org/2000/svg" xmlns:xlink="http://www.w3.org/1999/xlink" x="0px" y="0px"
	 viewBox="0 0 32 32" style="enable-background:new 0 0 32 32;" xml:space="preserve">
<path style="fill:none;stroke:#000000;stroke-width:2;stroke-linecap:round;stroke-miterlimit:10;" d="M3,11.462
	c0,0,4.609,1.09,5.969,5.538c3.111-1.075,5.386-0.338,6.931,2h0.2c1.492-2.158,3.61-3.452,6.942-2
	c1.236-3.151,3.627-5.279,5.958-5.538"/>
<path style="fill:none;stroke:#000000;stroke-width:2;stroke-linejoin:round;stroke-miterlimit:10;" d="M9.077,16.861
	c1.355-2.033,1.572-5.442,1.572-7.861"/>
<path style="fill:none;stroke:#000000;stroke-width:2;stroke-linejoin:round;stroke-miterlimit:10;" d="M22.923,16.861
	c-1.355-2.033-1.572-5.442-1.572-7.861"/>
<path style="fill:none;stroke:#000000;stroke-width:2;stroke-linejoin:round;stroke-miterlimit:10;" d="M16,19.077
	c1.284-2.893,0-5.55,0-10.077"/>
<g>
	<path d="M29.301,18.111c-0.021-0.007-1.661-0.544-2.624-2.191c-0.448,0.462-0.876,1.027-1.252,1.711
		c1.349,1.752,3.169,2.354,3.274,2.387C28.8,20.05,28.9,20.065,29,20.065c0.425,0,0.819-0.273,0.954-0.7
		C30.12,18.838,29.827,18.277,29.301,18.111z"/>
	<path d="M5.449,16.059c-0.987,1.668-2.911,2.764-2.935,2.778c-0.481,0.269-0.655,0.877-0.387,1.36
		c0.183,0.329,0.523,0.514,0.875,0.514c0.163,0,0.329-0.04,0.482-0.125c0.111-0.062,1.933-1.09,3.234-2.835
		C6.379,17.065,5.931,16.507,5.449,16.059z"/>
	<path d="M11.229,19.536c-0.656,2.861-2.162,4.764-2.181,4.787c-0.347,0.428-0.281,1.057,0.146,1.405
		c0.186,0.151,0.408,0.225,0.63,0.225c0.291,0,0.579-0.126,0.776-0.369c0.089-0.109,1.824-2.281,2.581-5.608
		C12.695,19.649,12.069,19.469,11.229,19.536z"/>
	<path d="M20.743,19.404c-0.728-0.079-1.348,0.099-1.928,0.553c0.754,3.337,2.496,5.518,2.585,5.627
		c0.197,0.243,0.484,0.368,0.774,0.368c0.222,0,0.444-0.073,0.63-0.223c0.428-0.347,0.494-0.977,0.148-1.406
		C22.933,24.3,21.383,22.338,20.743,19.404z"/>
</g>
<path style="fill:none;stroke:#000000;stroke-width:2;stroke-linecap:round;stroke-miterlimit:10;" d="M4,7h24c1.105,0,2,4.029,2,9
	s-0.895,9-2,9H4c-1.105,0-2-4.029-2-9S2.895,7,4,7z"/>
</svg>
