<?xml version="1.0" encoding="iso-8859-1"?>
<!-- Generator: Adobe Illustrator 22.0.1, SVG Export Plug-In . SVG Version: 6.00 Build 0)  -->
<svg version="1.1" id="Layer_1_1_" xmlns="http://www.w3.org/2000/svg" xmlns:xlink="http://www.w3.org/1999/xlink" x="0px" y="0px"
	 viewBox="0 0 32 32" style="enable-background:new 0 0 32 32;" xml:space="preserve">
<g>
</g>
<circle style="fill:none;stroke:#000000;stroke-width:2;stroke-miterlimit:10;" cx="23.5" cy="24.5" r="2.5"/>
<path style="fill:none;stroke:#000000;stroke-width:2;stroke-miterlimit:10;" d="M26,24h3v-9.426c0-0.375-0.105-0.742-0.304-1.06
	L24.587,7.94C24.222,7.355,23.581,7,22.891,7H5C3.896,7,3,7.895,3,9v15h3"/>
<line style="fill:none;stroke:#000000;stroke-width:2;stroke-miterlimit:10;" x1="11" y1="24" x2="21" y2="24"/>
<circle style="fill:none;stroke:#000000;stroke-width:2;stroke-miterlimit:10;" cx="8.5" cy="24.5" r="2.5"/>
<path style="fill:none;stroke:#000000;stroke-width:2;stroke-miterlimit:10;" d="M18,14v-0.618C18,12.619,17.381,12,16.618,12
	h-1.236C14.619,12,14,12.612,14,13.375c0,0.379,0.214,0.732,0.553,0.901l2.894,1.447C17.786,15.893,18,16.239,18,16.618
	C18,17.381,17.381,18,16.618,18h-1.236C14.619,18,14,17.381,14,16.618V16"/>
<line style="fill:none;stroke:#000000;stroke-width:2;stroke-miterlimit:10;" x1="16" y1="12" x2="16" y2="10"/>
<line style="fill:none;stroke:#000000;stroke-width:2;stroke-miterlimit:10;" x1="16" y1="20" x2="16" y2="18"/>
<path d="M18,4L18,4c-1.105,0-2,0.895-2,2v2h4V6C20,4.895,19.105,4,18,4z"/>
</svg>
