<?xml version="1.0" encoding="iso-8859-1"?>
<!-- Generator: Adobe Illustrator 19.1.1, SVG Export Plug-In . SVG Version: 6.00 Build 0)  -->
<svg version="1.1" id="Layer_1" xmlns="http://www.w3.org/2000/svg" xmlns:xlink="http://www.w3.org/1999/xlink" x="0px" y="0px"
	 viewBox="0 0 32 32" style="enable-background:new 0 0 32 32;" xml:space="preserve">
<path d="M19.962,11.903l-3.445-3.666L5.952,9.726l0.689,8.362l3.546,8.607L25,23l1.966-12.356L19.962,11.903z M9.026,23.507
	l-0.919-2.946l5.384-1.049l1.444,2.62L9.026,23.507z M14.477,17.481c-0.067,0.196-1.444-2.356-1.444-2.356l-4.991,0.981l-1.05-2.423
	l9.718-1.637l3.479,4.191C20.188,16.237,14.542,17.285,14.477,17.481z"/>
<polygon style="fill:none;stroke:#000000;stroke-width:2;stroke-miterlimit:10;" points="5,7 20,5 27,11 24.986,22.841 
	9.986,26.841 7,19 "/>
</svg>
