<?xml version="1.0" encoding="iso-8859-1"?>
<!-- Generator: Adobe Illustrator 19.1.0, SVG Export Plug-In . SVG Version: 6.00 Build 0)  -->
<svg version="1.1" id="Layer_1" xmlns="http://www.w3.org/2000/svg" xmlns:xlink="http://www.w3.org/1999/xlink" x="0px" y="0px"
	 viewBox="0 0 32 32" style="enable-background:new 0 0 32 32;" xml:space="preserve">
<circle cx="23" cy="9" r="1"/>
<circle cx="23" cy="12" r="1"/>
<circle cx="22" cy="6" r="1"/>
<circle cx="19" cy="5" r="1"/>
<circle cx="16" cy="7" r="1"/>
<path d="M26,16.587V15c0-0.552-0.448-1-1-1h-4c-0.552,0-1,0.448-1,1v1.587c-2.361,0.965-4,3.025-4,5.413c0,3.309,3.14,6,7,6
	s7-2.691,7-6C30,19.612,28.361,17.552,26,16.587z M23,15c0.552,0,1,0.448,1,1c0,0.552-0.448,1-1,1s-1-0.448-1-1
	C22,15.448,22.448,15,23,15z M23,26c-2.757,0-5-1.794-5-4s2.243-4,5-4s5,1.794,5,4S25.757,26,23,26z"/>
<path d="M14.465,12.777l1.122-1.122c0.391-0.391,0.391-1.024,0-1.414l-2.828-2.828c-0.391-0.391-1.024-0.391-1.414,0l-1.122,1.122
	C7.871,7.548,5.255,7.846,3.567,9.534c-2.34,2.34-2.022,6.463,0.707,9.192s6.853,3.047,9.192,0.707
	C15.154,17.745,15.452,15.129,14.465,12.777z M13.466,9.534c0.391,0.391,0.391,1.024,0,1.414c-0.39,0.39-1.024,0.391-1.414,0
	s-0.39-1.024,0-1.414C12.442,9.143,13.076,9.143,13.466,9.534z M5.688,17.312c-1.949-1.949-2.267-4.804-0.707-6.364
	s4.415-1.242,6.364,0.707s2.267,4.804,0.707,6.364C10.492,19.579,7.637,19.261,5.688,17.312z"/>
</svg>
