<?xml version="1.0" encoding="iso-8859-1"?>
<!-- Generator: Adobe Illustrator 19.1.1, SVG Export Plug-In . SVG Version: 6.00 Build 0)  -->
<svg version="1.1"  xmlns="http://www.w3.org/2000/svg" xmlns:xlink="http://www.w3.org/1999/xlink" x="0px" y="0px"
	 viewBox="0 0 32 32" style="enable-background:new 0 0 32 32;" xml:space="preserve">
<path style="fill:none;stroke:#000000;stroke-width:2;stroke-miterlimit:10;" d="M20,29v-4c0,0,0.036,0,1,0c2,0,4-2.018,4-4
	c0-0.982,0-2.25,0-2.25s1.104-0.291,1.694-0.46c0.762-0.218,0.936-1.045,0.587-1.728c-0.311-0.609-2.691-5.382-2.691-5.382
	S23.199,4,15,4C9.477,4,5,8.477,5,14c0,3.785,3,6.574,3,10.136V29"/>
<path d="M16,21c0-0.552-0.448-0.63-1-0.63s-1,0.077-1,0.63s0.448,1,1,1S16,21.552,16,21z"/>
<g>
	<path d="M15,12c1.103,0,2,0.897,2,2c0,0.426-0.179,0.784-0.552,1.491c-0.446,0.845-1.011,1.918-1.285,3.509h-0.324
		c-0.274-1.601-0.842-2.673-1.289-3.517C13.178,14.783,13,14.427,13,14C13,12.897,13.897,12,15,12 M15,10c-2.209,0-4,1.79-4,4
		s2,3.017,2,7h4c0-3.958,2-4.8,2-7C19,11.8,17.209,10,15,10L15,10z"/>
</g>
<polygon points="16.964,18 13.036,18 13.447,20 16.553,20 "/>
</svg>
