<?xml version="1.0" encoding="iso-8859-1"?>
<!-- Generator: Adobe Illustrator 19.1.1, SVG Export Plug-In . SVG Version: 6.00 Build 0)  -->
<svg version="1.1" id="Layer_1" xmlns="http://www.w3.org/2000/svg" xmlns:xlink="http://www.w3.org/1999/xlink" x="0px" y="0px"
	 viewBox="0 0 32 32" style="enable-background:new 0 0 32 32;" xml:space="preserve">
<circle style="fill:none;stroke:#000000;stroke-width:2;stroke-miterlimit:10;" cx="16" cy="16" r="11"/>
<path style="fill:none;stroke:#000000;stroke-width:2;stroke-miterlimit:10;" d="M9,14c0,0,1.309,1,3,1s3-1,3-1"/>
<path style="fill:none;stroke:#000000;stroke-width:2;stroke-miterlimit:10;" d="M17,14c0,0,1.309,1,3,1s3-1,3-1"/>
<path d="M11,21h10c0,0-2.378,3-5,3S11,21,11,21z"/>
<path d="M11,21c0,0,5.172,1,6,1s-1-0.672-1-1.5S15.328,19,14.5,19S11,21,11,21z"/>
<path d="M16,20.5c0,0.828-1.828,1.5-1,1.5s6-1,6-1s-2.672-2-3.5-2S16,19.672,16,20.5z"/>
</svg>
