<?xml version="1.0" encoding="iso-8859-1"?>
<!-- Generator: Adobe Illustrator 19.1.1, SVG Export Plug-In . SVG Version: 6.00 Build 0)  -->
<svg version="1.1" id="Layer_1" xmlns="http://www.w3.org/2000/svg" xmlns:xlink="http://www.w3.org/1999/xlink" x="0px" y="0px"
	 viewBox="0 0 32 32" style="enable-background:new 0 0 32 32;" xml:space="preserve">
<circle cx="19.5" cy="17.5" r="1.5"/>
<path style="fill:none;stroke:#000000;stroke-width:2;stroke-miterlimit:10;" d="M26.804,17.865C26.93,17.603,27,17.31,27,17
	c0-1.105-0.895-2-2-2c-0.02,0-0.038,0.005-0.058,0.006C24.447,10.504,20.634,7,16,7c-2.317,0-4.429,0.876-6.023,2.315"/>
<path style="fill:none;stroke:#000000;stroke-width:2;stroke-miterlimit:10;" d="M16,7c0-1.368-1.263-3-4-3"/>
<path style="fill:none;stroke:#000000;stroke-width:2;stroke-miterlimit:10;" d="M17,7c0-0.649,0.398-2,2-2"/>
<line style="fill:none;stroke:#000000;stroke-width:2;stroke-miterlimit:10;" x1="3" y1="3" x2="18.959" y2="18.959"/>
<path d="M12.5,19c0.611,0,1.134-0.366,1.368-0.89l-1.978-1.978C11.366,16.366,11,16.889,11,17.5C11,18.328,11.672,19,12.5,19z"/>
<circle style="fill:none;stroke:#000000;stroke-width:2;stroke-miterlimit:10;" cx="24" cy="24" r="7"/>
<path d="M17.266,25.892C16.851,25.96,16.429,26,16,26c-4.085,0-7.502-3.059-7.948-7.115l-0.101-0.913l-1,0.027
	C6.422,17.973,6,17.535,6,17c0-0.535,0.422-0.973,0.951-0.999l1,0.027l0.101-0.913c0.085-0.776,0.288-1.526,0.588-2.233l-1.5-1.5
	c-0.447,0.857-0.775,1.773-0.959,2.731C4.924,14.471,4,15.629,4,17c0,1.353,0.9,2.499,2.177,2.869C7.06,24.555,11.154,28,16,28
	c0.718,0,1.422-0.083,2.107-0.231C17.74,27.195,17.455,26.564,17.266,25.892z"/>
<polygon id="XMLID_292_" points="27,20 25,20 21,28 23,28 "/>
<polygon id="XMLID_293_" points="21,20 23,20 27,28 25,28 "/>
</svg>
