<?xml version="1.0" encoding="utf-8"?>
<!-- Generator: Adobe Illustrator 18.1.1, SVG Export Plug-In . SVG Version: 6.00 Build 0)  -->
<svg version="1.1" id="Layer_1" xmlns="http://www.w3.org/2000/svg" xmlns:xlink="http://www.w3.org/1999/xlink" x="0px" y="0px"
	 viewBox="0 0 32 32" enable-background="new 0 0 32 32" xml:space="preserve">
<line fill="none" stroke="#000000" stroke-width="2" stroke-linejoin="round" stroke-miterlimit="10" x1="16" y1="26" x2="16" y2="29"/>
<path fill="none" stroke="#000000" stroke-width="2" stroke-linejoin="round" stroke-miterlimit="10" d="M20,17.6
	c0.6,0.3,1.3,0.4,2,0.4c2.8,0,5-2.2,5-5c0-4.3-5-7-5-7"/>
<path fill="none" stroke="#000000" stroke-width="2" stroke-linejoin="round" stroke-miterlimit="10" d="M12,17.6
	c-0.6,0.3-1.3,0.4-2,0.4c-2.8,0-5-2.2-5-5c0-4.3,5-7,5-7"/>
<path fill="none" stroke="#000000" stroke-width="2" stroke-linejoin="round" stroke-miterlimit="10" d="M12,10v15c0,2.2,1.8,4,4,4
	h0c2.2,0,4-1.8,4-4V10"/>
<path fill="none" stroke="#000000" stroke-width="2" stroke-linejoin="round" stroke-miterlimit="10" d="M12,24c0-2.2,1.8-4,4-4
	s4,1.8,4,4"/>
</svg>
