<?xml version="1.0" encoding="iso-8859-1"?>
<!-- Generator: Adobe Illustrator 19.1.0, SVG Export Plug-In . SVG Version: 6.00 Build 0)  -->
<svg version="1.1" id="Layer_1" xmlns="http://www.w3.org/2000/svg" xmlns:xlink="http://www.w3.org/1999/xlink" x="0px" y="0px"
	 viewBox="0 0 32 32" style="enable-background:new 0 0 32 32;" xml:space="preserve">
<rect x="4" y="12" style="fill:none;stroke:#000000;stroke-width:2;stroke-miterlimit:10;" width="24" height="6"/>
<line style="fill:none;stroke:#000000;stroke-width:2;stroke-miterlimit:10;" x1="26" y1="27" x2="26" y2="18"/>
<line style="fill:none;stroke:#000000;stroke-width:2;stroke-miterlimit:10;" x1="6" y1="27" x2="6" y2="18"/>
<polygon points="10,12 7.5,12 3.5,18 6,18 "/>
<polygon points="16,12 13.5,12 9.5,18 12,18 "/>
<polygon points="22,12 19.5,12 15.5,18 18,18 "/>
<polygon points="28,12 25.5,12 21.5,18 24,18 "/>
<line style="fill:none;stroke:#000000;stroke-width:2;stroke-miterlimit:10;" x1="6" y1="23" x2="26" y2="23"/>
<path d="M16,4c-2.209,0-4,1.791-4,4c0,2.209,1.791,4,4,4s4-1.791,4-4C20,5.791,18.209,4,16,4z M18,9h-4V7h4V9z"/>
</svg>
