<?xml version="1.0" encoding="iso-8859-1"?>
<!-- Generator: Adobe Illustrator 19.1.1, SVG Export Plug-In . SVG Version: 6.00 Build 0)  -->
<svg version="1.1" id="Layer_1" xmlns="http://www.w3.org/2000/svg" xmlns:xlink="http://www.w3.org/1999/xlink" x="0px" y="0px"
	 viewBox="-8 10 32 32" style="enable-background:new -8 10 32 32;" xml:space="preserve">
<g>
	<path d="M12,22.671v-6.392l-7-2.333L-1.163,16H-4v11h2v1.184C-3.161,28.598-4,29.698-4,31v2h6v-2c0-1.302-0.839-2.402-2-2.816V27h2
		v-9.946l3-1l5,1.667v3.464C9.686,21.072,9.352,21,9,21c-1.654,0-3,1.346-3,3s1.346,3,3,3c1.37,0,2.516-0.928,2.873-2.185L18,27.64
		V29H3v2h15v1H3v2h17v-7.64L12,22.671z M-2,31c0-0.552,0.449-1,1-1s1,0.448,1,1H-2z M0,25h-2v-7h2V25z M9,25c-0.551,0-1-0.449-1-1
		s0.449-1,1-1c0.552,0,1,0.449,1,1S9.552,25,9,25z"/>
	<path d="M-0.999,36.249C-1.577,35.235-1.997,34.313-2,34h-2c0,1.302,1.58,3.811,2.064,4.549L-1.64,39h1.274l0.297-0.443
		C0.016,38.431,2,35.456,2,34H0C-0.01,34.336-0.465,35.304-0.999,36.249z"/>
</g>
</svg>
