<?xml version="1.0" encoding="iso-8859-1"?>
<!-- Generator: Adobe Illustrator 19.1.0, SVG Export Plug-In . SVG Version: 6.00 Build 0)  -->
<svg version="1.1" id="Layer_1" xmlns="http://www.w3.org/2000/svg" xmlns:xlink="http://www.w3.org/1999/xlink" x="0px" y="0px"
	 viewBox="0 0 32 32" style="enable-background:new 0 0 32 32;" xml:space="preserve">
<g>
	<circle cx="13" cy="11" r="2"/>
</g>
<g>
	<circle cx="19" cy="21" r="2"/>
</g>
<path d="M22.146,5.477c-1.903-1.113-4.564-0.236-7.15,2.073c0.226,0.132,0.443,0.283,0.642,0.459
	c0.654-0.026,1.316-0.011,1.974,0.031c1.013-0.685,1.943-1.043,2.68-1.043c0.322,0,0.607,0.068,0.847,0.208
	c1.677,0.979,1.436,5.683-1.591,10.867c-3.028,5.183-7.001,7.708-8.685,6.726c-1.578-0.921-1.456-5.14,1.085-9.954
	c-0.244-0.065-0.483-0.145-0.712-0.258c-0.622,0.164-1.186,0.356-1.675,0.569c-2.379,5.163-2.337,9.833,0.294,11.369
	c0.555,0.324,1.174,0.479,1.837,0.479c2.933,0,6.725-3.031,9.582-7.923C24.777,13.08,25.152,7.232,22.146,5.477z"/>
<path d="M16,10c-6.841,0-12,2.58-12,6c0,2.91,3.74,5.204,9.066,5.827l0.174-0.128c0.613-0.45,1.236-1.03,1.855-1.719
	C9.833,19.771,6,17.787,6,16c0-1.888,4.276-4,10-4s10,2.112,10,4c0,0.619-0.467,1.261-1.287,1.846
	c-0.382,0.841-0.804,1.679-1.28,2.493c-0.109,0.188-0.223,0.372-0.336,0.556C26.104,19.826,28,18.069,28,16
	C28,12.58,22.841,10,16,10z"/>
</svg>
