<?xml version="1.0" encoding="iso-8859-1"?>
<!-- Generator: Adobe Illustrator 19.1.0, SVG Export Plug-In . SVG Version: 6.00 Build 0)  -->
<svg version="1.1" id="Layer_1" xmlns="http://www.w3.org/2000/svg" xmlns:xlink="http://www.w3.org/1999/xlink" x="0px" y="0px"
	 viewBox="0 0 32 32" style="enable-background:new 0 0 32 32;" xml:space="preserve">
<path style="fill:none;stroke:#000000;stroke-width:2;stroke-miterlimit:10;" d="M18.13,3.455c0,0-0.349,1.136,0.035,2.04
	c1.039,2.452,4.478,0.263,5.234,2.047c0.509,1.202-0.551,2.109-2.124,4.01c-1.418,1.715-7.829,10.032-7.937,10.179
	s-0.008,0.179,0.099,0.089c0.107-0.09,3.015-2.272,3.607-2.65c1.775-1.137,3.229-0.95,3.229-0.95l0.985-1.405l0.268-0.03
	l0.629,7.212l-0.292,0.03l-1.4-1.067c0,0-1.823-0.843-2.792,0.488c-0.209,0.288-0.829,1.037-1.54,1.893
	c-1.624,1.956-4.53,2.218-6.481,0.588l0,0c-2.071-1.73-2.212-4.864-0.306-6.774"/>
<path d="M20.663,9.23c0,0-1.358,0.272-2.232-0.484L8.636,18.45l1.415,1.413L20.663,9.23z"/>
<circle cx="17.657" cy="14.496" r="1"/>
<circle cx="19.5" cy="12.399" r="1"/>
<circle cx="15.917" cy="16.645" r="1"/>
</svg>
