<?xml version="1.0" encoding="iso-8859-1"?>
<!-- Generator: Adobe Illustrator 19.1.1, SVG Export Plug-In . SVG Version: 6.00 Build 0)  -->
<svg version="1.1" id="Layer_1" xmlns="http://www.w3.org/2000/svg" xmlns:xlink="http://www.w3.org/1999/xlink" x="0px" y="0px"
	 viewBox="0 0 32 32" style="enable-background:new 0 0 32 32;" xml:space="preserve">
<line style="fill:none;stroke:#000000;stroke-width:2;stroke-miterlimit:10;" x1="16" y1="27" x2="16" y2="31"/>
<g>
	<g>
		<path style="fill:none;stroke:#000000;stroke-width:2;stroke-linecap:square;stroke-miterlimit:10;" d="M24,5
			c-2.044-0.889-5.532-1.766-5.532-1.766L18,2h-4l-0.468,1.234c0,0-3.488,0.877-5.532,1.766c0,5.578,3,8.306,3,12
			c0,1.851-1,2.721-1,8h12c0-5.279-1-6.149-1-8C21,13.306,24,10.578,24,5z"/>
	</g>
</g>
<path style="fill:none;stroke:#000000;stroke-width:2;stroke-miterlimit:10;" d="M8,5c-0.15,2.936,1,5,1,5s0.592,0.995,2.059,0.995
	c0.265,0,2.139,0,2.946,0c1.282,0,1.964-0.995,1.964-0.995h0.059c0,0,0.686,0.995,1.968,0.995c0.807,0,2.681,0,2.946,0
	C22.408,10.995,23,10,23,10s0.95-1.973,1-5"/>
</svg>
