<?xml version="1.0" encoding="iso-8859-1"?>
<!-- Generator: Adobe Illustrator 19.0.1, SVG Export Plug-In . SVG Version: 6.00 Build 0)  -->
<svg version="1.1" id="Layer_1" xmlns="http://www.w3.org/2000/svg" xmlns:xlink="http://www.w3.org/1999/xlink" x="0px" y="0px"
	 viewBox="0 0 32 32" style="enable-background:new 0 0 32 32;" xml:space="preserve">
<polyline id="XMLID_444_" style="fill:none;stroke:#000000;stroke-width:2;stroke-miterlimit:10;" points="11,23 11,27 25,27 25,15 
	28,15 28,11 24,9.857 "/>
<path id="XMLID_442_" style="fill:none;stroke:#000000;stroke-width:2;stroke-miterlimit:10;" d="M17,5c0,0-0.977,1-3,1s-3-1-3-1
	L4,7v4l3,0v12h14V11l3,0V7L17,5z"/>
<path id="XMLID_440_" style="fill:none;stroke:#000000;stroke-width:2;stroke-miterlimit:10;" d="M12,18h2.5
	c0.828,0,1.5-0.672,1.5-1.5v0c0-0.828-0.672-1.5-1.5-1.5H14"/>
<path id="XMLID_437_" style="fill:none;stroke:#000000;stroke-width:2;stroke-miterlimit:10;" d="M13,15h1.5
	c0.828,0,1.5-0.672,1.5-1.5v0c0-0.828-0.672-1.5-1.5-1.5H12"/>
</svg>
