<?xml version="1.0" encoding="iso-8859-1"?>
<!-- Generator: Adobe Illustrator 19.1.1, SVG Export Plug-In . SVG Version: 6.00 Build 0)  -->
<svg version="1.1" id="Layer_1" xmlns="http://www.w3.org/2000/svg" xmlns:xlink="http://www.w3.org/1999/xlink" x="0px" y="0px"
	 viewBox="0 0 32 32" style="enable-background:new 0 0 32 32;" xml:space="preserve">
<path style="fill:none;stroke:#000000;stroke-width:2;stroke-miterlimit:10;" d="M6.952,10.895C9.723,3.545,15.85,4,16,4
	s7.008-0.133,9.401,6.895"/>
<path style="fill:none;stroke:#000000;stroke-width:2;stroke-miterlimit:10;" d="M11,10c-1.825,0-4.283,0.703-5.967,2.023
	C5.033,12.569,5,13.252,5,14c0,1.027,0.748,1.838,1,2"/>
<path style="fill:none;stroke:#000000;stroke-width:2;stroke-miterlimit:10;" d="M26,16c0.252-0.162,1-1.109,1-2v-1.977
	C25.316,10.703,22.721,10,21,10"/>
<path style="fill:none;stroke:#000000;stroke-width:2;stroke-miterlimit:10;" d="M6,16c0,0,4.339-2,10-2c5.909,0,10,2,10,2"/>
<path style="fill:none;stroke:#000000;stroke-width:2;stroke-miterlimit:10;" d="M16,25.014c0,0,1.565,1.117,1.997,1.287
	C18.556,26.522,19.252,27,20,27s2.543-1.064,4-3c0,0-1.196,0-2,0s-2.34-0.471-2.34-0.471L18,23c0,0-1.223,0-2,0s-2,0-2,0
	l-1.66,0.529c0,0-1.535,0.471-2.34,0.471s-2,0-2,0c1.457,1.936,3.252,3,4,3s1.444-0.478,2.003-0.699
	C14.435,26.131,16,25.014,16,25.014z"/>
<path style="fill:none;stroke:#000000;stroke-width:2;stroke-miterlimit:10;" d="M12.329,26.927c0,0,1.767,1.068,3.671,1.068
	c1.868,0,4-0.994,4-0.994"/>
<line style="fill:none;stroke:#000000;stroke-width:2;stroke-miterlimit:10;" x1="16" y1="12" x2="16" y2="7.252"/>
<line style="fill:none;stroke:#000000;stroke-width:2;stroke-miterlimit:10;" x1="18" y1="7.984" x2="14" y2="7.984"/>
<path d="M13,15c-4.856,0.913-10,6-10,6l2-5"/>
<path d="M22.207,14.319C20.525,15.525,16,17,16,17s2.271-2.554,2.398-3.093C15.853,14.174,11,17,11,17l2.088-3.079L22.207,14.319z"
	/>
<path style="fill:none;stroke:#000000;stroke-width:2;stroke-miterlimit:10;" d="M7,21l-1-5"/>
<path style="fill:none;stroke:#000000;stroke-width:2;stroke-miterlimit:10;" d="M7,18c0,0-1-0.205-1,0s0.137,1.535,0.239,1.979
	C6.341,20.423,6.651,21,6.651,21H8l6-1l1-2h2l1,2l6,1h1.349c0,0,0.31-0.577,0.412-1.021S26,18.205,26,18s-1,0-1,0"/>
<path style="fill:none;stroke:#000000;stroke-width:2;stroke-miterlimit:10;" d="M26,16l-1,5"/>
<circle cx="20" cy="18" r="1"/>
<circle cx="12" cy="18" r="1"/>
</svg>
