<?xml version="1.0" encoding="iso-8859-1"?>
<!-- Generator: Adobe Illustrator 19.0.1, SVG Export Plug-In . SVG Version: 6.00 Build 0)  -->
<svg version="1.1" id="Layer_1" xmlns="http://www.w3.org/2000/svg" xmlns:xlink="http://www.w3.org/1999/xlink" x="0px" y="0px"
	 viewBox="0 0 32 32" style="enable-background:new 0 0 32 32;" xml:space="preserve">
<path id="XMLID_408_" style="fill:none;stroke:#000000;stroke-width:2;stroke-miterlimit:10;" d="M5,27c-0.552,0-1-0.448-1-1
	s0.406-0.914,1-1l18-1.989c1.126-0.124,2,0.884,2,1.989s-0.895,2-2,2H5z"/>
<line id="XMLID_530_" style="fill:none;stroke:#000000;stroke-width:2;stroke-miterlimit:10;" x1="24" y1="23.125" x2="25.812" y2="13.281"/>
<line id="XMLID_529_" style="fill:none;stroke:#000000;stroke-width:2;stroke-miterlimit:10;" x1="23" y1="16" x2="28" y2="11"/>
<circle id="XMLID_528_" style="fill:none;stroke:#000000;stroke-width:2;stroke-miterlimit:10;" cx="16" cy="7" r="2"/>
<path id="XMLID_404_" style="fill:none;stroke:#000000;stroke-width:2;stroke-miterlimit:10;" d="M8.003,15l1.537-2.898
	c0.095-0.179,0.242-0.325,0.422-0.419l2.157-1.121c0.255-0.133,0.555-0.149,0.823-0.045l3.036,1.181
	c0.19,0.074,0.353,0.204,0.467,0.373l1.002,1.487C17.634,13.835,17.944,14,18.277,14H21"/>
<path id="XMLID_412_" style="fill:none;stroke:#000000;stroke-width:2;stroke-miterlimit:10;" d="M14.24,10.978l-1.967,4.529
	c-0.194,0.447-0.038,0.969,0.37,1.235l2.542,1.66c0.372,0.243,0.539,0.701,0.41,1.126l-1.19,3.939"/>
<path id="XMLID_394_" style="fill:none;stroke:#000000;stroke-width:2;stroke-miterlimit:10;" d="M6,19.938h4.162
	c0.329,0,0.637-0.162,0.824-0.433l0.671-0.974"/>
</svg>
