<?xml version="1.0" encoding="iso-8859-1"?>
<!-- Generator: Adobe Illustrator 19.1.1, SVG Export Plug-In . SVG Version: 6.00 Build 0)  -->
<svg version="1.1" id="Layer_1" xmlns="http://www.w3.org/2000/svg" xmlns:xlink="http://www.w3.org/1999/xlink" x="0px" y="0px"
	 viewBox="0 0 32 32" style="enable-background:new 0 0 32 32;" xml:space="preserve">
<path d="M16,4C9.373,4,4,9.373,4,16s5.372,12,12,12s12-5.373,12-12S22.627,4,16,4z M24.103,19.925c-1.637,0-2.557-1.234-2.557-1.234
	s-0.775,3.168-4.511,3.168c-0.715,0-1.857-0.287-1.857-0.287l2.051,4.586c-0.404,0.049-0.813,0.081-1.23,0.081
	c-1.161,0-2.274-0.203-3.315-0.559L7.704,12.718c0,0-0.38-0.619,0.191-0.761c0.571-0.142,2.809-0.619,2.809-0.619
	s0.714-0.38,0.953,0.287c0.238,0.667,2.19,5.618,2.19,5.618s0.904,2.142,3.38,2.142c2.475,0,3.073-2.237,2.971-2.503
	c-0.604-1.581-2.587-6.178-2.587-6.178s-0.288-0.574,0.432-0.718c0.706-0.141,1.993-0.362,1.993-0.362s0.524-0.381,0.857,0.428
	c0.332,0.809,2.712,5.856,2.712,5.856s0.585,1.489,1.735,1.489c0.363,0,0.626-0.058,0.812-0.129
	c-0.107,0.868-0.323,1.701-0.634,2.488C25.201,19.845,24.748,19.925,24.103,19.925z"/>
<circle style="fill:none;stroke:#000000;stroke-width:2;stroke-miterlimit:10;" cx="16" cy="16" r="11"/>
</svg>
