<?xml version="1.0" encoding="utf-8"?>
<!-- Generator: Adobe Illustrator 21.0.0, SVG Export Plug-In . SVG Version: 6.00 Build 0)  -->
<svg version="1.1" id="Layer_1" xmlns="http://www.w3.org/2000/svg" xmlns:xlink="http://www.w3.org/1999/xlink" x="0px" y="0px"
	 viewBox="0 0 32 32" style="enable-background:new 0 0 32 32;" xml:space="preserve">
<style type="text/css">
	.st0{fill:none;stroke:#000000;stroke-width:2;stroke-miterlimit:10;}
</style>
<g>
	<path d="M16.3,29c-0.7,0-1.4,0-2.1-0.1c-1.1-0.1-2-0.9-2.4-2c-0.4-1.1-0.1-2.3,0.7-3.1c1.2-1.2,1.2-3.1,0-4.3
		c-1.2-1.2-3.1-1.2-4.3,0c-0.8,0.8-2,1.1-3.1,0.7c-1.1-0.4-1.8-1.3-2-2.4c-0.2-1.5-0.2-2.9,0.1-4.3C4.3,8.2,8.6,4,13.9,3.1
		c4.2-0.6,8.3,0.7,11.3,3.7c3,3,4.3,7.1,3.7,11.2l-2-0.3c0.5-3.5-0.6-7-3.1-9.5c-2.5-2.5-6-3.7-9.5-3.1c-4.5,0.7-8.1,4.3-9.1,8.8
		c-0.3,1.2-0.3,2.4-0.1,3.6c0,0.4,0.3,0.7,0.6,0.8c0.4,0.1,0.8,0,1.1-0.3c2-2,5.1-2,7.1,0c2,2,2,5.1,0,7.1c-0.3,0.3-0.4,0.7-0.3,1.1
		c0.1,0.4,0.4,0.6,0.8,0.6c0.9,0.1,1.9,0.1,2.8,0.1c0.3,0,0.5,0,0.8,0v2c-0.2,0-0.5,0-0.7,0C16.9,29,16.6,29,16.3,29z"/>
</g>
<circle cx="9" cy="13" r="2"/>
<circle cx="14" cy="9" r="2"/>
<circle cx="20" cy="10" r="2"/>
<circle cx="23" cy="15" r="2"/>
<g>
	<path d="M26.5,29H21v-2h5.5c0.2,0,0.5-0.3,0.5-0.5S26.7,26,26.5,26h-3c-1.4,0-2.5-1.1-2.5-2.5s1.1-2.5,2.5-2.5H28v2h-4.5
		c-0.2,0-0.5,0.3-0.5,0.5s0.3,0.5,0.5,0.5h3c1.4,0,2.5,1.1,2.5,2.5S27.9,29,26.5,29z"/>
</g>
<line class="st0" x1="25" y1="22" x2="25" y2="20"/>
<line class="st0" x1="25" y1="30" x2="25" y2="28"/>
</svg>
