<?xml version="1.0" encoding="iso-8859-1"?>
<!-- Generator: Adobe Illustrator 22.0.1, SVG Export Plug-In . SVG Version: 6.00 Build 0)  -->
<svg version="1.1" id="Layer_1" xmlns="http://www.w3.org/2000/svg" xmlns:xlink="http://www.w3.org/1999/xlink" x="0px" y="0px"
	 viewBox="0 0 32 32" style="enable-background:new 0 0 32 32;" xml:space="preserve">
<g>
	<path d="M26,6H6C4.35,6,3,7.35,3,9v13c0,1.65,1.35,3,3,3h8.26c-0.16-0.63-0.25-1.3-0.26-2H6c-0.55,0-1-0.45-1-1V9
		c0-0.55,0.45-1,1-1h20c0.55,0,1,0.45,1,1v4.65c0.25,0.12,0.49,0.25,0.73,0.38c0.41,0.2,0.81,0.4,1.27,0.55V9C29,7.35,27.65,6,26,6z
		"/>
</g>
<line style="fill:none;stroke:#000000;stroke-width:2;stroke-miterlimit:10;" x1="28" y1="11" x2="6" y2="11"/>
<path d="M24,32l-0.4-0.2c-0.3-0.1-7.6-3.3-7.6-8.9v-6h1c2.1,0,3.3-0.6,4.3-1.1c0.8-0.5,1.6-0.9,2.7-0.9c1.1,0,1.9,0.4,2.8,0.9
	c1,0.5,2.2,1.1,4.2,1.1h1v6c0,5.6-7.3,8.8-7.6,8.9L24,32z M18,18.9v4c0,3.7,4.6,6.2,6,6.9c1.4-0.7,6-3.2,6-6.9v-4
	c-1.9-0.2-3.1-0.8-4.2-1.3c-0.7-0.4-1.2-0.7-1.8-0.7s-1.1,0.3-1.8,0.6C21.3,18,20,18.7,18,18.9z"/>
</svg>
