<?xml version="1.0" encoding="iso-8859-1"?>
<!-- Generator: Adobe Illustrator 19.1.1, SVG Export Plug-In . SVG Version: 6.00 Build 0)  -->
<svg version="1.1" id="Layer_1" xmlns="http://www.w3.org/2000/svg" xmlns:xlink="http://www.w3.org/1999/xlink" x="0px" y="0px"
	 viewBox="0 0 32 32" style="enable-background:new 0 0 32 32;" xml:space="preserve">
<circle style="fill:none;stroke:#000000;stroke-width:2;stroke-miterlimit:10;" cx="6" cy="7" r="2"/>
<circle style="fill:none;stroke:#000000;stroke-width:2;stroke-miterlimit:10;" cx="6" cy="7" r="2"/>
<circle style="fill:none;stroke:#000000;stroke-width:2;stroke-miterlimit:10;" cx="6" cy="17" r="2"/>
<circle style="fill:none;stroke:#000000;stroke-width:2;stroke-miterlimit:10;" cx="6" cy="17" r="2"/>
<g>
	<polygon points="19.969,5 6.762,15.408 8.231,16.868 23,5 	"/>
</g>
<g>
	<polygon points="19.969,18.934 6.762,8.526 8.231,7.066 23,18.934 	"/>
</g>
<rect x="27" y="11" width="2" height="3"/>
<rect x="27" y="24" width="2" height="3"/>
<rect x="5" y="24" width="2" height="3"/>
<rect x="26" y="11" width="3" height="2"/>
<rect x="26" y="25" width="3" height="2"/>
<rect x="5" y="25" width="3" height="2"/>
<rect x="22" y="11" width="2" height="2"/>
<rect x="27" y="16" width="2" height="2"/>
<rect x="27" y="20" width="2" height="2"/>
<rect x="22" y="25" width="2" height="2"/>
<rect x="18" y="25" width="2" height="2"/>
<rect x="14" y="25" width="2" height="2"/>
<rect x="10" y="25" width="2" height="2"/>
<rect x="5" y="21" width="2" height="1"/>
<polygon points="20,13 18,13 17,12 18,11 20,11 "/>
</svg>
