<?xml version="1.0" encoding="iso-8859-1"?>
<!-- Generator: Adobe Illustrator 19.1.1, SVG Export Plug-In . SVG Version: 6.00 Build 0)  -->
<svg version="1.1" id="Layer_1" xmlns="http://www.w3.org/2000/svg" xmlns:xlink="http://www.w3.org/1999/xlink" x="0px" y="0px"
	 viewBox="0 0 32 32" style="enable-background:new 0 0 32 32;" xml:space="preserve">
<path id="XMLID_23_" style="fill:none;stroke:#000000;stroke-width:2;stroke-miterlimit:10;" d="M20,25v0.5
	c0,0.828,0.672,1.5,1.5,1.5h0c0.828,0,1.5-0.672,1.5-1.5v-0.394c0-0.42-0.176-0.822-0.486-1.106L20,23v-1h4"/>
<circle style="fill:none;stroke:#000000;stroke-width:2;stroke-miterlimit:10;" cx="21.5" cy="24.5" r="6.5"/>
<path style="fill:none;stroke:#000000;stroke-width:2;stroke-miterlimit:10;" d="M23,18.174C23.481,18.06,23.984,18,24.5,18
	c3.59,0,6.5,2.91,6.5,6.5S28.09,31,24.5,31c-0.516,0-1.018-0.06-1.5-0.174"/>
<line style="fill:none;stroke:#000000;stroke-width:2;stroke-miterlimit:10;" x1="5" y1="10" x2="27" y2="10"/>
<line style="fill:none;stroke:#000000;stroke-width:2;stroke-miterlimit:10;" x1="5" y1="15" x2="26" y2="15"/>
<line style="fill:none;stroke:#000000;stroke-width:2;stroke-miterlimit:10;" x1="12" y1="5" x2="12" y2="10"/>
<line style="fill:none;stroke:#000000;stroke-width:2;stroke-miterlimit:10;" x1="12" y1="15" x2="12" y2="20"/>
<line style="fill:none;stroke:#000000;stroke-width:2;stroke-miterlimit:10;" x1="20" y1="5" x2="20" y2="10"/>
<line style="fill:none;stroke:#000000;stroke-width:2;stroke-miterlimit:10;" x1="16" y1="10" x2="16" y2="15"/>
<line style="fill:none;stroke:#000000;stroke-width:2;stroke-miterlimit:10;" x1="8" y1="10" x2="8" y2="15"/>
<line style="fill:none;stroke:#000000;stroke-width:2;stroke-miterlimit:10;" x1="8" y1="20" x2="8" y2="25"/>
<line style="fill:none;stroke:#000000;stroke-width:2;stroke-miterlimit:10;" x1="24" y1="10" x2="24" y2="14"/>
<g>
	<path d="M19,18h2v-0.975c-0.697,0.046-1.367,0.187-2,0.412V18z"/>
	<path d="M26,18h2v-0.128c-0.621-0.329-1.292-0.576-2-0.721V18z"/>
	<path d="M13,24.5c0-0.169,0.016-0.334,0.025-0.5H6v-3h7.763c0.33-0.727,0.757-1.399,1.268-2H6V6h20v10h2V4H4v22h9.141
		C13.053,25.512,13,25.013,13,24.5z"/>
</g>
</svg>
