<?xml version="1.0" encoding="iso-8859-1"?>
<!-- Generator: Adobe Illustrator 19.1.1, SVG Export Plug-In . SVG Version: 6.00 Build 0)  -->
<svg version="1.1" id="Layer_1" xmlns="http://www.w3.org/2000/svg" xmlns:xlink="http://www.w3.org/1999/xlink" x="0px" y="0px"
	 viewBox="0 0 32 32" style="enable-background:new 0 0 32 32;" xml:space="preserve">
<path style="fill:none;stroke:#000000;stroke-width:2;stroke-miterlimit:10;" d="M18.475,16.028L18.475,16.028
	c0.686-0.686,0.681-1.801-0.01-2.492l0,0c-0.691-0.691-1.807-0.695-2.492-0.01l0,0c-0.686,0.686-0.681,1.801,0.01,2.492l0,0
	c0.691,0.691,0.695,1.807,0.01,2.492l0,0c-0.686,0.686-1.801,0.681-2.492-0.01l0,0c-0.691-0.691-0.695-1.807-0.01-2.492l0,0"/>
<line style="fill:none;stroke:#000000;stroke-width:2;stroke-miterlimit:10;" x1="18.736" y1="13.264" x2="20" y2="12"/>
<line style="fill:none;stroke:#000000;stroke-width:2;stroke-miterlimit:10;" x1="13.679" y1="18.321" x2="11.979" y2="20.021"/>
<polygon style="fill:none;stroke:#000000;stroke-width:2;stroke-miterlimit:10;" points="26,15.589 26,6 16.411,6 4.507,18 
	14,27.493 "/>
<circle cx="22" cy="10" r="1"/>
</svg>
