<?xml version="1.0" encoding="iso-8859-1"?>
<!-- Generator: Adobe Illustrator 19.1.0, SVG Export Plug-In . SVG Version: 6.00 Build 0)  -->
<svg version="1.1" id="Layer_1" xmlns="http://www.w3.org/2000/svg" xmlns:xlink="http://www.w3.org/1999/xlink" x="0px" y="0px"
	 viewBox="0 0 32 32" style="enable-background:new 0 0 32 32;" xml:space="preserve">
<path style="fill:none;stroke:#000000;stroke-width:2;stroke-miterlimit:10;" d="M26,9V7.388C26,6.621,25.379,6,24.612,6h0
	c-0.849,0-1.499,0.755-1.373,1.594l1.559,7.629C25.935,20.789,21.682,26,16,26h0c-5.682,0-9.935-5.211-8.798-10.777l1.559-7.629
	C8.887,6.755,8.237,6,7.388,6h0C6.621,6,6,6.621,6,7.388V9"/>
<line style="fill:none;stroke:#000000;stroke-width:2;stroke-miterlimit:10;" x1="12.025" y1="10" x2="19.975" y2="10"/>
<line style="fill:none;stroke:#000000;stroke-width:2;stroke-miterlimit:10;" x1="11.341" y1="13" x2="20.659" y2="13"/>
<line style="fill:none;stroke:#000000;stroke-width:2;stroke-miterlimit:10;" x1="10.658" y1="16" x2="21.342" y2="16"/>
<line style="fill:none;stroke:#000000;stroke-width:2;stroke-miterlimit:10;" x1="10" y1="19" x2="22" y2="19"/>
</svg>
