<?xml version="1.0" encoding="utf-8"?>
<!-- Generator: Adobe Illustrator 18.1.1, SVG Export Plug-In . SVG Version: 6.00 Build 0)  -->
<svg version="1.1" id="Layer_1" xmlns="http://www.w3.org/2000/svg" xmlns:xlink="http://www.w3.org/1999/xlink" x="0px" y="0px"
	 viewBox="0 0 32 32" enable-background="new 0 0 32 32" xml:space="preserve">
<path fill="none" stroke="#000000" stroke-width="2" stroke-miterlimit="10" d="M10,11V7c0-0.6-0.4-1-1-1L6,6C4.8,6,3.6,6.8,3.2,8
	C2.6,9.8,2,12.3,2,16s0.6,6.2,1.2,8c0.4,1.2,1.6,2,2.8,2l3,0c0.6,0,1-0.4,1-1v-4c0-0.6-0.4-1-1-1H6.3c0,0-0.8-1.6-0.8-4s0.8-4,0.8-4
	H9C9.6,12,10,11.6,10,11z"/>
<path fill="none" stroke="#000000" stroke-width="2" stroke-miterlimit="10" d="M30,11V7c0-0.6-0.4-1-1-1l-3,0c-1.3,0-2.4,0.8-2.8,2
	c-0.6,1.7-1.2,4.3-1.2,8s0.6,6.2,1.2,8c0.4,1.2,1.6,2,2.8,2l3,0c0.6,0,1-0.4,1-1v-4c0-0.6-0.4-1-1-1h-2.7c0,0-0.8-1.6-0.8-4
	s0.8-4,0.8-4H29C29.6,12,30,11.6,30,11z"/>
<polyline fill="none" stroke="#000000" stroke-width="2" stroke-miterlimit="10" points="14.8,12 18.8,16 14.8,20 "/>
<line fill="none" stroke="#000000" stroke-width="2" stroke-miterlimit="10" x1="10" y1="16" x2="18.6" y2="16"/>
</svg>
