<?xml version="1.0" encoding="iso-8859-1"?>
<!-- Generator: Adobe Illustrator 19.1.1, SVG Export Plug-In . SVG Version: 6.00 Build 0)  -->
<svg version="1.1" id="Layer_1" xmlns="http://www.w3.org/2000/svg" xmlns:xlink="http://www.w3.org/1999/xlink" x="0px" y="0px"
	 viewBox="0 0 32 32" style="enable-background:new 0 0 32 32;" xml:space="preserve">
<path style="fill:none;stroke:#000000;stroke-width:2;stroke-miterlimit:10;" d="M23,28v-4h4l-1.833-8.143
	C24.799,14.314,23.525,13,21.5,13s-3.293,1.217-3.667,2.857L16,24h4v4"/>
<circle style="fill:none;stroke:#000000;stroke-width:2;stroke-miterlimit:10;" cx="9.5" cy="7.5" r="2.5"/>
<path d="M9,28H7v-5.751l-2-1V16c0-2.206,1.794-4,4-4h1.146c1.525,0,2.896,0.847,3.578,2.211l1.07,2.141l2.914,2.315l-1.43,1.391
	l-3.072-2.41l-1.271-2.542C11.594,14.423,10.908,14,10.146,14H9c-1.103,0-2,0.897-2,2v4.013l2,1V28z"/>
<rect x="10" y="21" width="2" height="7"/>
<circle style="fill:none;stroke:#000000;stroke-width:2;stroke-miterlimit:10;" cx="21.5" cy="7.5" r="2.5"/>
<line style="fill:none;stroke:#000000;stroke-width:2;stroke-miterlimit:10;" x1="20" y1="24" x2="23" y2="24"/>
</svg>
