<?xml version="1.0" encoding="iso-8859-1"?>
<!-- Generator: Adobe Illustrator 19.1.0, SVG Export Plug-In . SVG Version: 6.00 Build 0)  -->
<svg version="1.1" id="Layer_1" xmlns="http://www.w3.org/2000/svg" xmlns:xlink="http://www.w3.org/1999/xlink" x="0px" y="0px"
	 viewBox="0 0 32 32" style="enable-background:new 0 0 32 32;" xml:space="preserve">
<path id="XMLID_9_" style="fill:none;stroke:#000000;stroke-width:2;stroke-miterlimit:10;" d="M25,24c0,0.984,1.328,2,3,2s3-1,3-2"
	/>
<path id="XMLID_12_" style="fill:none;stroke:#000000;stroke-width:2;stroke-miterlimit:10;" d="M7,24c0,0.984,1.328,2,3,2s3-1,3-2"
	/>
<path id="XMLID_8_" style="fill:none;stroke:#000000;stroke-width:2;stroke-miterlimit:10;" d="M1,24c0,0.984,1.328,2,3,2s3-1,3-2"
	/>
<circle style="fill:none;stroke:#000000;stroke-width:2;stroke-miterlimit:10;" cx="17.5" cy="8.5" r="2.5"/>
<g>
	<path d="M4.082,20h15.736l1.481-2H2v1c0,5.145,4.461,6.866,4.651,6.937l0.702-1.873C7.229,24.017,4.584,22.965,4.082,20z"/>
	<path d="M23.788,18l-1.481,2h5.62c-0.351,2.293-1.896,3.372-3.165,4H24c0,0.306-0.756,1-2,1c-1.224,0-2-0.703-2-1h-0.654
		l-2.087,2.819c0.673-0.179,1.277-0.478,1.742-0.879C19.74,26.58,20.813,27,22,27c1.367,0,2.598-0.548,3.323-1.359l0.124,0.254
		C28.468,24.461,30,22.141,30,19v-1H23.788z"/>
	<path d="M16,25c-1.224,0-2-0.703-2-1h-2c0,1.301,1.18,2.428,2.76,2.831l1.362-1.84C16.081,24.993,16.043,25,16,25z"/>
</g>
<polyline style="fill:none;stroke:#000000;stroke-width:2;stroke-miterlimit:10;" points="7.947,18.526 12.474,12 24.01,15.831 "/>
<line style="fill:none;stroke:#000000;stroke-width:2;stroke-miterlimit:10;" x1="22.368" y1="14.947" x2="14.214" y2="25.907"/>
<line style="fill:none;stroke:#000000;stroke-width:2;stroke-miterlimit:10;" x1="12.821" y1="19.002" x2="16.49" y2="13.583"/>
</svg>
