<?xml version="1.0" encoding="iso-8859-1"?>
<!-- Generator: Adobe Illustrator 19.1.1, SVG Export Plug-In . SVG Version: 6.00 Build 0)  -->
<svg version="1.1" id="Layer_1" xmlns="http://www.w3.org/2000/svg" xmlns:xlink="http://www.w3.org/1999/xlink" x="0px" y="0px"
	 viewBox="0 0 32 32" style="enable-background:new 0 0 32 32;" xml:space="preserve">
<line style="fill:none;stroke:#000000;stroke-width:2;stroke-miterlimit:10;" x1="9.275" y1="7.796" x2="11.634" y2="12"/>
<line style="fill:none;stroke:#000000;stroke-width:2;stroke-miterlimit:10;" x1="26.376" y1="20.079" x2="23" y2="19"/>
<line style="fill:none;stroke:#000000;stroke-width:2;stroke-miterlimit:10;" x1="20.179" y1="12.333" x2="22.725" y2="7.796"/>
<line style="fill:none;stroke:#000000;stroke-width:2;stroke-miterlimit:10;" x1="16" y1="24" x2="16" y2="27"/>
<polygon style="fill:none;stroke:#000000;stroke-width:2;stroke-miterlimit:10;" points="16,24 23,19 20,12 12,12 9,19 "/>
<line style="fill:none;stroke:#000000;stroke-width:2;stroke-miterlimit:10;" x1="6" y1="20.041" x2="9" y2="19"/>
<polygon style="fill:none;stroke:#000000;stroke-width:2;stroke-miterlimit:10;" points="5.624,20.079 5,13 9.275,7.796 16,5 
	22.725,7.796 27,13 26.376,20.079 22.197,25.533 16,27 9.803,25.533 5.624,20.079 "/>
<path d="M14.337,15c-0.051,0.153-0.102,0.306-0.204,0.408c-0.102,0.102-0.204,0.204-0.357,0.255
	c-0.153,0.102-0.306,0.102-0.459,0.153c-0.095,0.032-0.207,0.042-0.316,0.046v0.617h1V20h1v-5H14.337z"/>
<path d="M17.661,18.396c0.564-0.382,1.339-0.906,1.337-1.833c0.006-0.067,0.05-0.673-0.361-1.124
	c-0.183-0.2-0.522-0.439-1.104-0.439c-0.572,0-0.918,0.233-1.107,0.428c-0.432,0.444-0.427,1.049-0.425,1.102v0.469h1v-0.483
	c0-0.002,0.006-0.251,0.142-0.391c0.03-0.031,0.121-0.125,0.391-0.125c0.172,0,0.294,0.037,0.362,0.11
	c0.101,0.107,0.111,0.306,0.105,0.407c0,0.414-0.34,0.673-0.899,1.052c-0.511,0.346-1.088,0.739-1.097,1.433H16v1h3v-1h-1.993
	C17.025,18.829,17.359,18.599,17.661,18.396z"/>
</svg>
