<?xml version="1.0" encoding="iso-8859-1"?>
<!-- Generator: Adobe Illustrator 19.1.1, SVG Export Plug-In . SVG Version: 6.00 Build 0)  -->
<svg version="1.1" id="Layer_1" xmlns="http://www.w3.org/2000/svg" xmlns:xlink="http://www.w3.org/1999/xlink" x="0px" y="0px"
	 viewBox="0 0 32 32" style="enable-background:new 0 0 32 32;" xml:space="preserve">
<path d="M16,10c1.104,0,2,0.896,2,2s-0.896,2-2,2s-2-0.896-2-2S14.896,10,16,10z M11,17.297V18H8c0,0,0-0.068,0-0.439
	c0-0.371,0.703-1.436,2.5-1.436c0.321,0,0.596,0.043,0.849,0.101C11.12,16.618,11,16.997,11,17.297z M10.5,15
	C9.672,15,9,14.328,9,13.5S9.672,12,10.5,12s1.5,0.672,1.5,1.5S11.328,15,10.5,15z M20,18h-8c0,0,0-0.125,0-0.703
	C12,16.719,13.125,15,16,15s4,1.703,4,2.297C20,17.891,20,18,20,18z M20,13.5c0-0.828,0.672-1.5,1.5-1.5s1.5,0.672,1.5,1.5
	S22.328,15,21.5,15S20,14.328,20,13.5z M24,18h-3v-0.703c0-0.3-0.12-0.679-0.349-1.071c0.253-0.058,0.527-0.101,0.849-0.101
	c1.797,0,2.5,1.064,2.5,1.436C24,17.933,24,18,24,18z"/>
<path style="fill:none;stroke:#000000;stroke-width:2;stroke-miterlimit:10;" d="M5,6v16h15l7,5V6H5z"/>
</svg>
