<?xml version="1.0" encoding="iso-8859-1"?>
<!-- Generator: Adobe Illustrator 21.1.0, SVG Export Plug-In . SVG Version: 6.00 Build 0)  -->
<svg version="1.1" id="Layer_1" xmlns="http://www.w3.org/2000/svg" xmlns:xlink="http://www.w3.org/1999/xlink" x="0px" y="0px"
	 viewBox="0 0 32 32" style="enable-background:new 0 0 32 32;" xml:space="preserve">
<path style="fill:none;stroke:#000000;stroke-width:2;stroke-miterlimit:10;" d="M7.979,17.646l-2.812-2.813
	C5.167,14.833,3,12.7,3,10.5C3,6.95,5.91,4,9.5,4S16,7.25,16,7.25S18.91,4,22.5,4S29,6.95,29,10.5V11"/>
<line style="fill:none;stroke:#000000;stroke-width:2;stroke-linecap:square;stroke-miterlimit:10;" x1="22.41" y1="11.4" x2="15.929" y2="17.881"/>
<line style="fill:none;stroke:#000000;stroke-width:2;stroke-linecap:square;stroke-miterlimit:10;" x1="25.531" y1="12.521" x2="19.465" y2="18.588"/>
<line style="fill:none;stroke:#000000;stroke-width:2;stroke-linecap:square;stroke-miterlimit:10;" x1="26.652" y1="15.643" x2="21.586" y2="20.709"/>
<path style="fill:none;stroke:#000000;stroke-width:2;stroke-linecap:square;stroke-linejoin:round;stroke-miterlimit:10;" d="
	M27.274,19.264l-7.809,7.809c0,0-2.157,2.085-4.243,0s-4.243-4.243-4.243-4.243s-2.203-2.039,0-4.243l3.489-3.555h3.565"/>
</svg>
