<?xml version="1.0" encoding="utf-8"?>
<!-- Generator: Adobe Illustrator 18.0.0, SVG Export Plug-In . SVG Version: 6.00 Build 0)  -->
<svg version="1.1" id="Layer_1" xmlns="http://www.w3.org/2000/svg" xmlns:xlink="http://www.w3.org/1999/xlink" x="0px" y="0px"
	 viewBox="0 0 32 32" enable-background="new 0 0 32 32" xml:space="preserve">
<path fill="none" stroke="#000000" stroke-width="2" stroke-miterlimit="10" d="M16,24c0,1.7,1.3,3,3,3s3-1.3,3-3"/>
<path fill="none" stroke="#000000" stroke-width="2" stroke-miterlimit="10" d="M22,24c0,1.7,1.3,3,3,3s3-1.3,3-3"/>
<path fill="none" stroke="#000000" stroke-width="2" stroke-miterlimit="10" d="M10,24c0,1.7,1.3,3,3,3s3-1.3,3-3"/>
<path fill="none" stroke="#000000" stroke-width="2" stroke-miterlimit="10" d="M4,24c0,1.7,1.3,3,3,3s3-1.3,3-3"/>
<circle fill="none" stroke="#000000" stroke-width="2" stroke-miterlimit="10" cx="16" cy="16" r="8"/>
<path fill="none" stroke="#000000" stroke-width="2" stroke-miterlimit="10" d="M13.6,5.1L13.6,5.1c-1,0.4-1.5,1.6-1.1,2.6l0.4,0.9"
	/>
<path fill="none" stroke="#000000" stroke-width="2" stroke-miterlimit="10" d="M26.9,13.6L26.9,13.6c-0.4-1-1.6-1.5-2.6-1.1
	l-0.9,0.4"/>
<path fill="none" stroke="#000000" stroke-width="2" stroke-miterlimit="10" d="M5.1,18.4L5.1,18.4c0.4,1,1.6,1.5,2.6,1.1l0.9-0.4"
	/>
<path fill="none" stroke="#000000" stroke-width="2" stroke-miterlimit="10" d="M22.1,6.6L22.1,6.6c-1-0.4-2.2,0.1-2.6,1.1l-0.4,0.9
	"/>
<path fill="none" stroke="#000000" stroke-width="2" stroke-miterlimit="10" d="M25.4,22.1L25.4,22.1c0.4-1-0.1-2.2-1.1-2.6
	l-0.9-0.4"/>
<path fill="none" stroke="#000000" stroke-width="2" stroke-miterlimit="10" d="M6.6,9.9L6.6,9.9c-0.4,1,0.1,2.2,1.1,2.6l0.9,0.4"/>
<polyline fill="none" stroke="#000000" stroke-width="2" stroke-miterlimit="10" points="17,11 15,15 17,16 15,20 "/>
</svg>
