<?xml version="1.0" encoding="iso-8859-1"?>
<!-- Generator: Adobe Illustrator 19.1.0, SVG Export Plug-In . SVG Version: 6.00 Build 0)  -->
<svg version="1.1" id="Layer_1" xmlns="http://www.w3.org/2000/svg" xmlns:xlink="http://www.w3.org/1999/xlink" x="0px" y="0px"
	 viewBox="0 0 32 32" style="enable-background:new 0 0 32 32;" xml:space="preserve">
<rect x="12.086" y="14" transform="matrix(0.7071 -0.7071 0.7071 0.7071 -8.6274 15.1716)" style="fill:none;stroke:#000000;stroke-width:2;stroke-miterlimit:10;" width="3.828" height="8"/>
<rect x="20.682" y="6.57" transform="matrix(0.7071 -0.7071 0.7071 0.7071 -0.3804 18.5876)" style="fill:none;stroke:#000000;stroke-width:2;stroke-miterlimit:10;" width="3.13" height="6.366"/>
<line style="fill:none;stroke:#000000;stroke-width:2;stroke-miterlimit:10;" x1="20.391" y1="16.11" x2="15.89" y2="11.609"/>
<path style="fill:none;stroke:#000000;stroke-width:2;stroke-miterlimit:10;" d="M12.634,19.366l-1.439,1.439
	c-0.563,0.563-0.665,1.395-0.386,2.14c0.459,1.224,0.09,2.688-1.106,3.527c-1.003,0.703-2.403,0.703-3.406,0
	c-1.576-1.106-1.716-3.296-0.418-4.593"/>
<line style="fill:none;stroke:#000000;stroke-width:2;stroke-miterlimit:10;" x1="27" y1="5" x2="23.309" y2="8.691"/>
<line style="fill:none;stroke:#000000;stroke-width:2;stroke-miterlimit:10;" x1="21.046" y1="10.954" x2="15.653" y2="16.347"/>
</svg>
