<?xml version="1.0" encoding="iso-8859-1"?>
<!-- Generator: Adobe Illustrator 19.1.1, SVG Export Plug-In . SVG Version: 6.00 Build 0)  -->
<svg version="1.1"  xmlns="http://www.w3.org/2000/svg" xmlns:xlink="http://www.w3.org/1999/xlink" x="0px" y="0px"
	 viewBox="0 0 32 32" style="enable-background:new 0 0 32 32;" xml:space="preserve">
<rect x="3" y="8" style="fill:none;stroke:#000000;stroke-width:2;stroke-miterlimit:10;" width="26" height="16"/>
<path style="fill:none;stroke:#000000;stroke-width:2;stroke-miterlimit:10;" d="M25,15v-0.618C25,13.619,24.381,13,23.618,13
	h-1.236C21.619,13,21,13.619,21,14.382v0c0,0.379,0.214,0.725,0.553,0.894l2.894,1.447C24.786,16.893,25,17.239,25,17.618v0
	C25,18.381,24.381,19,23.618,19h-1.236C21.619,19,21,18.381,21,17.618V17"/>
<line style="fill:none;stroke:#000000;stroke-width:2;stroke-miterlimit:10;" x1="23" y1="13" x2="23" y2="11"/>
<line style="fill:none;stroke:#000000;stroke-width:2;stroke-miterlimit:10;" x1="23" y1="21" x2="23" y2="19"/>
<line style="fill:none;stroke:#000000;stroke-width:2;stroke-miterlimit:10;" x1="6" y1="12" x2="16" y2="12"/>
<line style="fill:none;stroke:#000000;stroke-width:2;stroke-miterlimit:10;" x1="6" y1="15" x2="13" y2="15"/>
<path style="fill:none;stroke:#000000;stroke-width:2;stroke-linejoin:round;stroke-miterlimit:10;" d="M7,21c0-1.083,0.719-3,1.5-3
	c0.917,0,1.45,2.03,1.996,2.042C10.846,20.049,11.661,19,12,19c0.716,0,1.292,1,4,1"/>
</svg>
