<?xml version="1.0" encoding="iso-8859-1"?>
<!-- Generator: Adobe Illustrator 19.1.1, SVG Export Plug-In . SVG Version: 6.00 Build 0)  -->
<svg version="1.1" id="Layer_1" xmlns="http://www.w3.org/2000/svg" xmlns:xlink="http://www.w3.org/1999/xlink" x="0px" y="0px"
	 viewBox="0 0 32 32" style="enable-background:new 0 0 32 32;" xml:space="preserve">
<path style="fill:none;stroke:#000000;stroke-width:2;stroke-miterlimit:10;" d="M5,18v4c0,0,4.167,4,11,4s11-4,11-4v-4H5z"/>
<line style="fill:none;stroke:#000000;stroke-width:2;stroke-miterlimit:10;" x1="5" y1="22" x2="27" y2="22"/>
<path style="fill:none;stroke:#000000;stroke-width:2;stroke-miterlimit:10;" d="M27,13c-2.989,0-6.5-7-11-7s-7.99,7-11,7
	c-1.068,0-2,0.895-2,2c0,1.105,2,3,2,3h22c0,0,2-1.895,2-3C29,13.895,28.097,13,27,13z"/>
<polygon points="18,14 16,15 14,14 14,11 18,11 "/>
</svg>
