<?xml version="1.0" encoding="iso-8859-1"?>
<!-- Generator: Adobe Illustrator 19.1.1, SVG Export Plug-In . SVG Version: 6.00 Build 0)  -->
<svg version="1.1" id="Layer_1" xmlns="http://www.w3.org/2000/svg" xmlns:xlink="http://www.w3.org/1999/xlink" x="0px" y="0px"
	 viewBox="0 0 32 32" style="enable-background:new 0 0 32 32;" xml:space="preserve">
<circle cx="16" cy="14" r="1"/>
<circle cx="16" cy="18" r="1"/>
<circle cx="16" cy="22" r="1"/>
<circle cx="19" cy="12" r="1"/>
<circle cx="13" cy="12" r="1"/>
<circle cx="13" cy="16" r="1"/>
<circle cx="13" cy="24" r="1"/>
<circle cx="10" cy="14" r="1"/>
<circle cx="10" cy="18" r="1"/>
<circle cx="10" cy="22" r="1"/>
<circle cx="13" cy="20" r="1"/>
<circle cx="22" cy="14" r="1"/>
<circle cx="22" cy="18" r="1"/>
<circle cx="19" cy="16" r="1"/>
<circle cx="19" cy="20" r="1"/>
<circle cx="19" cy="24" r="1"/>
<circle cx="22" cy="22" r="1"/>
<path style="fill:none;stroke:#000000;stroke-width:2;stroke-linejoin:bevel;stroke-miterlimit:10;" d="M5,18c0-5.523,3.937-10,8-10
	c2,0,3,2,3,2s1-2,3-2c3.875,0,8,4.477,8,10"/>
<path style="fill:none;stroke:#000000;stroke-width:2;stroke-linejoin:bevel;stroke-miterlimit:10;" d="M5,18c0,5.523,3.937,10,8,10
	c2,0,3-2,3-2s1,2,3,2c3.875,0,8-4.477,8-10"/>
<path d="M17,3c-1.7,1.8-1.5,5-1.5,5h2.7C18.2,8,18.7,4.9,17,3z"/>
<path d="M14,4c1,2.6,0.2,4,0.2,4L16,9l1-1.2C17,7.8,16.4,4.6,14,4z"/>
<path d="M19,8c0-2.25,1-3,1-3c-3,0-3.7,3-3.7,3"/>
<path d="M13,8c0-2-1-3-1-3c3,0.2,3.7,3,3.7,3S13,10,13,8z"/>
<rect x="13" y="27" width="6" height="2"/>
</svg>
