<?xml version="1.0" encoding="iso-8859-1"?>
<!-- Generator: Adobe Illustrator 19.1.1, SVG Export Plug-In . SVG Version: 6.00 Build 0)  -->
<svg version="1.1" id="Layer_1" xmlns="http://www.w3.org/2000/svg" xmlns:xlink="http://www.w3.org/1999/xlink" x="0px" y="0px"
	 viewBox="0 0 32 32" style="enable-background:new 0 0 32 32;" xml:space="preserve">
<rect x="25" y="17" style="fill:none;stroke:#000000;stroke-width:2;stroke-miterlimit:10;" width="3" height="11"/>
<rect x="4" y="17" style="fill:none;stroke:#000000;stroke-width:2;stroke-miterlimit:10;" width="3" height="11"/>
<path style="fill:none;stroke:#000000;stroke-width:2;stroke-miterlimit:10;" d="M7,18h2c0.427,0,0.82-0.23,1.029-0.602L12,12l1-6
	c0-1.104,0.896-2,2-2s1,0.896,1,2v9v6.583C15.651,23.559,13.934,25,11.926,25H7"/>
<path style="fill:none;stroke:#000000;stroke-width:2;stroke-miterlimit:10;" d="M25,18h-2c-0.427,0-0.82-0.23-1.029-0.602L20,12
	l-1-6c0-1.104-0.896-2-2-2s-1,0.896-1,2v9v6.583C16.349,23.559,18.066,25,20.074,25H25"/>
</svg>
