<?xml version="1.0" encoding="iso-8859-1"?>
<!-- Generator: Adobe Illustrator 19.1.1, SVG Export Plug-In . SVG Version: 6.00 Build 0)  -->
<svg version="1.1" xmlns="http://www.w3.org/2000/svg" xmlns:xlink="http://www.w3.org/1999/xlink" x="0px" y="0px"
	 viewBox="0 0 32 32" style="enable-background:new 0 0 32 32;" xml:space="preserve">
<g >
</g>
<g >
	<path d="M22.702,11.298L22,12l-0.724,0.724C22.355,14.208,23,16.028,23,18c0,4.963-4.037,9-9,9s-9-4.037-9-9s4.037-9,9-9
		c2.306,0,4.406,0.879,6,2.311V11l1-1h0.526C19.557,8.146,16.912,7,14,7C7.935,7,3,11.935,3,18s4.935,11,11,11s11-4.935,11-11
		C25,15.476,24.137,13.156,22.702,11.298z"/>
	<g>
		<rect x="28" y="5" width="1" height="1"/>
		<rect x="28" y="3" width="1" height="1"/>
		<rect x="24" y="8" width="1" height="1"/>
		<polygon points="25,6 24,6 23,6 23,7 23,8 24,8 24,7 25,7 25,8 26,8 26,7 26,6 27,6 27,5 25,5 		"/>
		<rect x="27" y="4" width="1" height="1"/>
	</g>
	<path d="M23,9V8h-1v1h-1v1h1v1h-1v-1h-1v1h-1v0.5V12h-1v1h-1c-0.566,1.107-2.861,4.901-3.343,5.971c0,0-3.143-3.97-5.029-3.97
		c0,0-0.629-0.063-0.629,0.629c0,0.691,0.629,1.257,0.629,1.257s2.577,1.77,3.771,5.856C12.526,23.183,12.903,24,13.971,24
		c0.629,0,1.264-0.472,1.571-1.257c1.874-4.785,4.04-7.576,4.458-8.243V14h0.5H21v-0.4V13h1v-1h1v-0.5V11h1v-1V9H23z M21,13h-0.4H20
		v-0.75V12h1V13z"/>
</g>
</svg>
