<?xml version="1.0" encoding="iso-8859-1"?>
<!-- Generator: Adobe Illustrator 22.0.1, SVG Export Plug-In . SVG Version: 6.00 Build 0)  -->
<svg version="1.1" id="&#x421;&#x43B;&#x43E;&#x439;_1"
	 xmlns="http://www.w3.org/2000/svg" xmlns:xlink="http://www.w3.org/1999/xlink" x="0px" y="0px" viewBox="0 0 32 32"
	 style="enable-background:new 0 0 32 32;" xml:space="preserve">
<polygon style="fill:none;stroke:#000000;stroke-width:2;stroke-miterlimit:10;" points="25,17 7,17 5,25 5,27 27,27 27,25 "/>
<polygon points="17.102,20.801 19.199,20.801 19,19 17,19 "/>
<polygon points="17.199,25 19.5,25 19.301,22.801 17.102,22.801 "/>
<polygon points="21,19 21.301,20.801 23.398,20.801 23,19 "/>
<polygon points="21.898,25 24.199,25 23.801,22.801 21.602,22.801 "/>
<polygon points="12.801,20.801 14.898,20.801 15,19 13,19 "/>
<polygon points="12.5,25 14.801,25 14.898,22.801 12.699,22.801 "/>
<polygon points="8.602,20.801 10.699,20.801 11,19 9,19 "/>
<polygon points="7.801,25 10.102,25 10.398,22.801 8.199,22.801 "/>
<path d="M21,8h-2.602l1.801-1.801l-1.398-1.398L17,6.602V4h-2v2.602l-1.801-1.801l-1.398,1.398L13.602,8H11v2h2.602l-1.801,1.801
	l1.398,1.398L15,11.398V14h2v-2.602l1.801,1.801l1.398-1.398L18.398,10H21V8z M16,11c-1.102,0-2-0.898-2-2c0-1.102,0.898-2,2-2
	c1.102,0,2,0.898,2,2C18,10.102,17.102,11,16,11L16,11z"/>
</svg>
