<?xml version="1.0" encoding="iso-8859-1"?>
<!-- Generator: Adobe Illustrator 19.1.1, SVG Export Plug-In . SVG Version: 6.00 Build 0)  -->
<svg version="1.1" id="Layer_1" xmlns="http://www.w3.org/2000/svg" xmlns:xlink="http://www.w3.org/1999/xlink" x="0px" y="0px"
	 viewBox="0 0 32 32" style="enable-background:new 0 0 32 32;" xml:space="preserve">
<polyline style="fill:none;stroke:#000000;stroke-width:2;stroke-miterlimit:10;" points="19,21 29,21 29,25 3,25 3,21 13,21 "/>
<polyline style="fill:none;stroke:#000000;stroke-width:2;stroke-miterlimit:10;" points="19,17 27,17 27,21 "/>
<polyline style="fill:none;stroke:#000000;stroke-width:2;stroke-miterlimit:10;" points="5,21 5,17 13,17 "/>
<polyline style="fill:none;stroke:#000000;stroke-width:2;stroke-miterlimit:10;" points="7,17 7,13 25,13 25,17 "/>
<rect x="10" y="7" style="fill:none;stroke:#000000;stroke-width:2;stroke-miterlimit:10;" width="12" height="6"/>
<line style="fill:none;stroke:#000000;stroke-width:2;stroke-miterlimit:10;" x1="13" y1="25" x2="13" y2="13"/>
<line style="fill:none;stroke:#000000;stroke-width:2;stroke-miterlimit:10;" x1="19" y1="25" x2="19" y2="13"/>
<path d="M12,12.5v-2C12,9.675,12.675,9,13.5,9h0c0.825,0,1.5,0.675,1.5,1.5v2C15,13.325,12,13.325,12,12.5z"/>
<path d="M17,12.5v-2C17,9.675,17.675,9,18.5,9h0c0.825,0,1.5,0.675,1.5,1.5v2C20,13.325,17,13.325,17,12.5z"/>
<line style="fill:none;stroke:#000000;stroke-width:2;stroke-miterlimit:10;" x1="13" y1="22" x2="19" y2="22"/>
<line style="fill:none;stroke:#000000;stroke-width:2;stroke-miterlimit:10;" x1="13" y1="19" x2="19" y2="19"/>
<line style="fill:none;stroke:#000000;stroke-width:2;stroke-miterlimit:10;" x1="13" y1="16" x2="19" y2="16"/>
</svg>
