<?xml version="1.0" encoding="iso-8859-1"?>
<!-- Generator: Adobe Illustrator 19.2.0, SVG Export Plug-In . SVG Version: 6.00 Build 0)  -->
<svg version="1.1" id="Layer_1" xmlns="http://www.w3.org/2000/svg" xmlns:xlink="http://www.w3.org/1999/xlink" x="0px" y="0px"
	 viewBox="0 0 32 32" style="enable-background:new 0 0 32 32;" xml:space="preserve">
<polygon points="19,14 17,15 13,15 9,14 6,14 6,12 15,12 17,11 20,11 "/>
<rect x="18" y="11" width="6" height="2"/>
<polyline style="fill:none;stroke:#000000;stroke-width:2;stroke-miterlimit:10;" points="15,8 18,8 22,17.938 "/>
<polyline style="fill:none;stroke:#000000;stroke-width:2;stroke-miterlimit:10;" points="11,19 17,18 17,13 "/>
<path d="M15,13c0,1.105,1.119,2,2.5,2s2.5-0.895,2.5-2H15z"/>
<line style="fill:none;stroke:#000000;stroke-width:2;stroke-miterlimit:10;" x1="11" y1="18" x2="15" y2="13"/>
<g>
	<circle style="fill:none;stroke:#000000;stroke-width:2;stroke-miterlimit:10;" cx="24.027" cy="20" r="3"/>
	<rect x="23" y="15" width="2" height="2"/>
	<rect x="23" y="23" width="2" height="2"/>
	<rect x="19" y="19" transform="matrix(4.547480e-011 -1 1 4.547480e-011 -7.303242e-010 40)" width="2" height="2"/>
	<rect x="27" y="19" transform="matrix(4.547480e-011 -1 1 4.547480e-011 8 48)" width="2" height="2"/>
	<rect x="20.172" y="16.172" transform="matrix(0.7071 -0.7071 0.7071 0.7071 -5.9411 20)" width="2" height="2"/>
	<rect x="25.828" y="21.828" transform="matrix(0.7071 -0.7071 0.7071 0.7071 -8.2843 25.6569)" width="2" height="2"/>
	<rect x="20.172" y="21.828" transform="matrix(-0.7071 -0.7071 0.7071 -0.7071 20 53.9411)" width="2" height="2"/>
	<rect x="25.828" y="16.172" transform="matrix(-0.7071 -0.7071 0.7071 -0.7071 33.6569 48.2843)" width="2" height="2"/>
</g>
<g>
	<circle style="fill:none;stroke:#000000;stroke-width:2;stroke-miterlimit:10;" cx="8.027" cy="20" r="3"/>
	<rect x="7" y="15" width="2" height="2"/>
	<rect x="7" y="23" width="2" height="2"/>
	<rect x="3" y="19" transform="matrix(4.547480e-011 -1 1 4.547480e-011 -16 24)" width="2" height="2"/>
	<rect x="11" y="19" transform="matrix(4.547480e-011 -1 1 4.547480e-011 -8 32)" width="2" height="2"/>
	<rect x="4.172" y="16.172" transform="matrix(0.7071 -0.7071 0.7071 0.7071 -10.6274 8.6863)" width="2" height="2"/>
	<rect x="9.828" y="21.828" transform="matrix(0.7071 -0.7071 0.7071 0.7071 -12.9706 14.3431)" width="2" height="2"/>
	<rect x="4.172" y="21.828" transform="matrix(-0.7071 -0.7071 0.7071 -0.7071 -7.3137 42.6274)" width="2" height="2"/>
	<rect x="9.828" y="16.172" transform="matrix(-0.7071 -0.7071 0.7071 -0.7071 6.3431 36.9706)" width="2" height="2"/>
</g>
</svg>
