<?xml version="1.0" encoding="iso-8859-1"?>
<!-- Generator: Adobe Illustrator 19.1.1, SVG Export Plug-In . SVG Version: 6.00 Build 0)  -->
<svg version="1.1" id="Layer_1" xmlns="http://www.w3.org/2000/svg" xmlns:xlink="http://www.w3.org/1999/xlink" x="0px" y="0px"
	 viewBox="-7 9 32 32" style="enable-background:new -7 9 32 32;" xml:space="preserve">
<path d="M9,28c-1.654,0-3-1.346-3-3s1.346-3,3-3s3,1.346,3,3S10.654,28,9,28z M9,24c-0.551,0-1,0.449-1,1s0.449,1,1,1s1-0.449,1-1
	S9.551,24,9,24z M0.514,34.899l-0.707-0.707c-5.068-5.068-5.068-13.316,0-18.385L0.514,15.1l4.95,4.95l-0.707,0.707
	C3.624,21.891,3,23.397,3,25s0.624,3.109,1.757,4.242l0.707,0.707L0.514,34.899z M0.546,17.96c-3.388,4.063-3.388,10.016,0,14.079
	l2.133-2.133C1.59,28.509,1,26.8,1,25s0.59-3.509,1.68-4.907L0.546,17.96z M17.486,34.899l-4.95-4.95l0.707-0.707
	c2.339-2.339,2.339-6.146,0-8.485l-0.707-0.707l4.95-4.95l0.707,0.707c5.067,5.069,5.067,13.317,0,18.385L17.486,34.899z
	 M15.32,29.905l2.134,2.134c3.388-4.063,3.388-10.015,0-14.079l-2.134,2.133C17.555,22.969,17.555,27.03,15.32,29.905z"/>
</svg>
