<?xml version="1.0" encoding="iso-8859-1"?>
<!-- Generator: Adobe Illustrator 19.1.1, SVG Export Plug-In . SVG Version: 6.00 Build 0)  -->
<svg version="1.1"  xmlns="http://www.w3.org/2000/svg" xmlns:xlink="http://www.w3.org/1999/xlink" x="0px" y="0px"
	 viewBox="0 0 32 32" style="enable-background:new 0 0 32 32;" xml:space="preserve">
<polyline style="fill:none;stroke:#000000;stroke-width:2;stroke-miterlimit:10;" points="5,24 5,26 14,26 14,24 "/>
<polyline style="fill:none;stroke:#000000;stroke-width:2;stroke-miterlimit:10;" points="18,24 18,26 27,26 27,24 "/>
<polygon points="10.534,5 8.466,5 3.967,22 6.036,22 9.497,8.921 12.936,22 15.004,22 "/>
<rect x="6" y="16" width="7" height="2"/>
<polygon points="26.052,5 24.699,16.165 23.525,11 21.475,11 20.301,16.165 18.948,5 16.934,5 18.993,22 21.025,22 22.5,15.512 
	23.975,22 26.007,22 28.066,5 "/>
</svg>
