<?xml version="1.0" encoding="iso-8859-1"?>
<!-- Generator: Adobe Illustrator 19.1.0, SVG Export Plug-In . SVG Version: 6.00 Build 0)  -->
<svg version="1.1" id="Layer_1" xmlns="http://www.w3.org/2000/svg" xmlns:xlink="http://www.w3.org/1999/xlink" x="0px" y="0px"
	 viewBox="0 0 32 32" style="enable-background:new 0 0 32 32;" xml:space="preserve">
<path style="fill:none;stroke:#000000;stroke-width:2;stroke-miterlimit:10;" d="M6.619,19.951c0,0,1.374,0.244,3.023,0.069"/>
<path style="fill:none;stroke:#000000;stroke-width:2;stroke-miterlimit:10;" d="M6.207,15.554c0,0,1.443,0.55,3.71,0.343"/>
<circle cx="22" cy="7" r="1"/>
<line style="fill:none;stroke:#000000;stroke-width:2;stroke-miterlimit:10;" x1="3" y1="3" x2="29" y2="29"/>
<g>
	<path d="M23.248,20.041c-0.012,0.023-0.734,1.378-2.081,2.497l1.423,1.423c1.56-1.348,2.376-2.887,2.435-3.002L23.248,20.041z"/>
	<path d="M27.307,23.135l-1.533-1.285c-0.019,0.023-1.101,1.289-2.879,2.417l1.447,1.447C26.141,24.499,27.222,23.236,27.307,23.135
		z"/>
	<path d="M19.406,23.606C18.804,23.847,18.137,24,17.404,24C15.073,24,13,21.763,13,20c0-0.932,0.19-1.705,0.455-2.345l-1.497-1.497
		C11.423,17.137,11,18.403,11,20c0,2.718,2.856,6,6.404,6c1.349,0,2.514-0.364,3.507-0.89L19.406,23.606z"/>
	<path d="M21.035,25.235C19.953,25.685,18.732,26,17.404,26c-3.549,0-6.272-1.011-8.095-3.005c-1.474-1.612-2.286-3.84-2.285-6.272
		c0-1.745,0.455-3.241,1.067-4.432l-1.466-1.466c-0.911,1.548-1.601,3.543-1.601,5.898c0,2.933,0.997,5.64,2.809,7.622
		C10.019,26.736,13.328,28,17.404,28c1.947,0,3.683-0.538,5.145-1.252L21.035,25.235z"/>
	<path d="M9.217,10.588c0.014-0.016,0.028-0.036,0.042-0.053c0.054,0.089,0.119,0.182,0.179,0.273l3.478,3.478
		c0.095,0.06,0.19,0.125,0.284,0.178c-0.016,0.017-0.034,0.038-0.051,0.056l1.413,1.413c0.012-0.013,0.025-0.029,0.037-0.041
		c0.983,0.906,3.133,2.466,6.289,2.466c0.995,0,2.088-0.155,3.276-0.535l-0.609-1.904c-3.305,1.057-5.67-0.042-6.941-0.96
		C24.967,14.564,28,11.159,28,7.958C28,6.382,26.598,5,25,5v2c0.505,0,1,0.475,1,0.958C26,10.284,23.108,13,14.958,13l-0.104,0.006
		c-0.001,0-0.003,0-0.004,0c-0.36,0-1.703-0.791-3.016-2.319c-0.99-1.153-1.289-1.948-1.294-2.214l0.118-0.171
		C11.794,6.296,14.836,5,18.406,5H24V3h-5.594c-4.287,0-7.883,1.61-9.427,4.21c-0.211,0.246-0.417,0.637-0.428,1.2
		c-0.246,0.223-0.496,0.486-0.744,0.77L9.217,10.588z"/>
</g>
</svg>
