<?xml version="1.0" encoding="iso-8859-1"?>
<!-- Generator: Adobe Illustrator 19.1.0, SVG Export Plug-In . SVG Version: 6.00 Build 0)  -->
<svg version="1.1" id="Layer_1" xmlns="http://www.w3.org/2000/svg" xmlns:xlink="http://www.w3.org/1999/xlink" x="0px" y="0px"
	 viewBox="0 0 32 32" style="enable-background:new 0 0 32 32;" xml:space="preserve">
<ellipse cx="21" cy="6.5" rx="2" ry="1.5"/>
<g>
	<path d="M17,8.474c-0.826,0.17-1.505,0.385-2,0.573v9.321c0.43-0.104,1.106-0.259,2-0.442V8.474z"/>
	<path d="M15,6.803v0.993c0.534-0.185,1.218-0.375,2-0.523V6.803c0-0.794,0.395-1.53,1.055-1.971l-1.109-1.664
		C16.582,3.41,16.269,3.705,16,4.032c-0.269-0.327-0.582-0.622-0.945-0.864l-1.109,1.664C14.605,5.272,15,6.009,15,6.803z"/>
	<path d="M15,19.399V28h2v-9.052C16.04,19.146,15.36,19.309,15,19.399z"/>
</g>
<g>
	<path d="M16,24.741c-0.931,0.138-1.978,0.235-3.023,0.259l0.046,2c0.877-0.02,1.929-0.079,2.977-0.215V24.741z"/>
	<path d="M16,13.184v-2.021c-1.309-0.187-4.003-0.575-4.003-1.163c0-1.239,4.656-3,9.003-3V5C17.283,5,9.997,6.51,9.997,10
		c0,2.324,2.915,2.741,5.734,3.146C15.817,13.158,15.908,13.171,16,13.184z"/>
	<path d="M16.685,17.994C19.176,17.483,22,16.904,22,14.5c0-1.898-1.866-2.609-4-3.018v2.042c1.081,0.229,2,0.54,2,0.976
		c0,0.772-2.148,1.213-3.717,1.534C13.807,16.542,11,17.118,11,19.5c0,2.558,3.042,3.229,5.486,3.768
		c0.788,0.174,1.919,0.423,2.393,0.671C18.701,24.07,18.396,24.199,18,24.32v2.085c1.683-0.447,3-1.213,3-2.523
		c0-1.668-1.983-2.104-4.083-2.567C15.264,20.95,13,20.451,13,19.5C13,18.75,15.13,18.312,16.685,17.994z"/>
</g>
</svg>
