<?xml version="1.0" encoding="iso-8859-1"?>
<!-- Generator: Adobe Illustrator 19.1.0, SVG Export Plug-In . SVG Version: 6.00 Build 0)  -->
<svg version="1.1" id="Layer_1" xmlns="http://www.w3.org/2000/svg" xmlns:xlink="http://www.w3.org/1999/xlink" x="0px" y="0px"
	 viewBox="0 0 32 32" style="enable-background:new 0 0 32 32;" xml:space="preserve">
<g>
	<polygon points="14.424,18.227 11.397,16.916 10.603,18.751 11.909,19.317 	"/>
	<polygon points="17.736,21.842 20.603,23.084 21.397,21.249 20.251,20.752 	"/>
</g>
<line style="fill:none;stroke:#000000;stroke-width:2;stroke-miterlimit:10;" x1="11" y1="22.167" x2="21" y2="17.833"/>
<circle cx="11.5" cy="13.5" r="1.5"/>
<circle cx="20.5" cy="13.5" r="1.5"/>
<path style="fill:none;stroke:#000000;stroke-width:2;stroke-miterlimit:10;" d="M5,10v2.05c-1.141,0.232-2,1.24-2,2.45
	c0,1.226,0.884,2.241,2.048,2.454C5.533,22.582,10.247,27,16,27s10.467-4.418,10.952-10.046C28.116,16.741,29,15.726,29,14.5
	c0-1.209-0.859-2.218-2-2.45V10"/>
</svg>
