<?xml version="1.0" encoding="utf-8"?>
<!-- Generator: Adobe Illustrator 18.1.1, SVG Export Plug-In . SVG Version: 6.00 Build 0)  -->
<svg version="1.1" id="Layer_1" xmlns="http://www.w3.org/2000/svg" xmlns:xlink="http://www.w3.org/1999/xlink" x="0px" y="0px"
	 viewBox="0 0 32 32" enable-background="new 0 0 32 32" xml:space="preserve">
<rect x="6" y="12" fill="none" stroke="#000000" stroke-width="2" stroke-miterlimit="10" width="10" height="3"/>
<circle cx="24" cy="15" r="1"/>
<circle fill="none" stroke="#000000" stroke-width="2" stroke-miterlimit="10" cx="23" cy="21" r="2"/>
<line fill="none" stroke="#000000" stroke-width="2" stroke-miterlimit="10" x1="19" y1="21" x2="21" y2="21"/>
<path fill="none" stroke="#000000" stroke-width="2" stroke-miterlimit="10" d="M14,26L14,26c0,1.1-0.9,2-2,2h-2c-1.1,0-2-0.9-2-2v0
	H4V15h16.1c0.5-1.9,2.3-3.3,4.4-3c2,0.3,3.4,2.1,3.4,4.1l0,9.8H14z"/>
<rect x="9" y="18" fill="none" stroke="#000000" stroke-width="2" stroke-miterlimit="10" width="0" height="5"/>
<rect x="13" y="18" fill="none" stroke="#000000" stroke-width="2" stroke-miterlimit="10" width="0" height="5"/>
<polygon fill="none" stroke="#000000" stroke-width="2" stroke-miterlimit="10" points="17,9 16,8 6,8 5,9 5,12 17,12 "/>
</svg>
