<?xml version="1.0" encoding="iso-8859-1"?>
<!-- Generator: Adobe Illustrator 19.1.1, SVG Export Plug-In . SVG Version: 6.00 Build 0)  -->
<svg version="1.1" id="Layer_1" xmlns="http://www.w3.org/2000/svg" xmlns:xlink="http://www.w3.org/1999/xlink" x="0px" y="0px"
	 viewBox="0 0 32 32" style="enable-background:new 0 0 32 32;" xml:space="preserve">
<path style="fill-rule:evenodd;clip-rule:evenodd;" d="M16,10c-3.275,0.085-5.915,2.725-6,6h6V10L16,10z"/>
<path style="fill-rule:evenodd;clip-rule:evenodd;" d="M16,22c3.276-0.085,5.915-2.725,6-6h-6V22L16,22z"/>
<g>
	<path style="fill-rule:evenodd;clip-rule:evenodd;" d="M16,4C9.373,4,4,9.373,4,16c0,6.627,5.373,12,12,12c6.627,0,12-5.373,12-12
		C28,9.373,22.628,4,16,4z M14.109,5.021l1.098-0.122L16,7.217l0.793-2.318l1.098,0.122l0.122,3.293l-0.854-0.122l-0.081-2.196
		l-0.772,2.196h-0.61l-0.772-2.196l-0.081,2.196l-0.854,0.122L14.109,5.021z M7.72,11.245c-0.335-0.268-0.669-0.535-1.003-0.803
		c-0.088-0.071-0.177-0.141-0.265-0.212c-0.002-0.002-0.032-0.025-0.031-0.026c0.015-0.019,0.03-0.038,0.045-0.056
		c0.227-0.284,0.455-0.569,0.683-0.853c0.265-0.331,0.53-0.663,0.796-0.994C7.995,8.237,8.046,8.173,8.097,8.11
		c0.089-0.112,0.209-0.197,0.342-0.247c0.284-0.106,0.613-0.037,0.83,0.175c0.106,0.104,0.183,0.237,0.218,0.382
		C9.523,8.568,9.51,8.714,9.468,8.858c0.02-0.016,0.039-0.034,0.06-0.049c0.256-0.181,0.593-0.231,0.883-0.099
		c0.289,0.132,0.478,0.394,0.522,0.707c0.011,0.117,0.005,0.235-0.029,0.349c-0.067,0.22-0.222,0.386-0.363,0.561
		c-0.272,0.34-0.544,0.68-0.817,1.02c-0.227,0.284-0.454,0.567-0.681,0.851c-0.017,0.021-0.033,0.042-0.05,0.063
		c-0.004,0.004-0.023-0.015-0.027-0.019c-0.085-0.068-0.169-0.135-0.253-0.202C8.381,11.775,8.05,11.51,7.72,11.245z M16,23
		c-3.866,0-7-3.134-7-7c0-3.866,3.134-7,7-7c3.866,0,7,3.134,7,7C23,19.866,19.866,23,16,23z M22.971,12.216l-0.42-0.719
		l1.447-1.901l-2.171,0.996l-0.61-0.566l1.98-2.601l0.61,0.567l-1.143,1.501l1.829-0.839l0.533,0.667l-1.219,1.601l1.715-0.787
		l0.419,0.719L22.971,12.216z"/>
	<path style="fill-rule:evenodd;clip-rule:evenodd;" d="M9.048,11.215c0.002,0.001,0.008-0.009,0.009-0.01
		c0.239-0.299,0.479-0.598,0.718-0.896c0.087-0.109,0.174-0.217,0.261-0.326c0.088-0.11,0.106-0.253,0.052-0.382
		c-0.064-0.133-0.195-0.222-0.346-0.217C9.616,9.387,9.521,9.454,9.445,9.549C9.34,9.681,9.234,9.813,9.128,9.945
		c-0.217,0.271-0.434,0.542-0.651,0.813c0.113,0.09,0.226,0.181,0.339,0.271c0.065,0.052,0.13,0.104,0.195,0.156
		C9.023,11.195,9.036,11.205,9.048,11.215z"/>
	<path style="fill-rule:evenodd;clip-rule:evenodd;" d="M8.985,9.096C9.012,8.976,8.984,8.851,8.901,8.76
		C8.798,8.647,8.632,8.609,8.49,8.667C8.386,8.71,8.325,8.801,8.258,8.885c-0.256,0.32-0.513,0.641-0.769,0.961
		C7.484,9.851,7.429,9.919,7.43,9.92c0.053,0.042,0.105,0.084,0.158,0.126c0.138,0.11,0.275,0.22,0.413,0.331
		c0.135-0.169,0.27-0.338,0.406-0.507c0.135-0.169,0.27-0.338,0.405-0.506C8.879,9.28,8.955,9.202,8.985,9.096z"/>
</g>
</svg>
