<?xml version="1.0" encoding="iso-8859-1"?>
<!-- Generator: Adobe Illustrator 19.1.0, SVG Export Plug-In . SVG Version: 6.00 Build 0)  -->
<svg version="1.1" id="Layer_1" xmlns="http://www.w3.org/2000/svg" xmlns:xlink="http://www.w3.org/1999/xlink" x="0px" y="0px"
	 viewBox="0 0 32 32" style="enable-background:new 0 0 32 32;" xml:space="preserve">
<circle cx="12" cy="7" r="3"/>
<line style="fill:none;stroke:#000000;stroke-width:2;stroke-linejoin:round;stroke-miterlimit:10;" x1="19" y1="20" x2="19" y2="28"/>
<polyline style="fill:none;stroke:#000000;stroke-width:2;stroke-miterlimit:10;" points="21,20 22,24 25,26 "/>
<polyline style="fill:none;stroke:#000000;stroke-width:2;stroke-miterlimit:10;" points="13,19 14,22 10,24 "/>
<polyline style="fill:none;stroke:#000000;stroke-width:2;stroke-miterlimit:10;" points="22.577,13.115 24,16 28,16 "/>
<path style="fill:none;stroke:#000000;stroke-width:2;stroke-miterlimit:10;" d="M20,15h-4l-2.123-2.628
	C13.687,12.137,13.401,12,13.099,12H10l-3-2L5,6"/>
<path d="M14.51,6.499l-1.419-1.881L15,4L14.51,6.499z"/>
<path d="M9,4l1.909,0.618L9.49,6.499L9,4z"/>
<path style="fill:none;stroke:#000000;stroke-miterlimit:10;" d="M6.5,21v-1.5c0-1.105,0.895-2,2-2h2"/>
<path style="fill:none;stroke:#000000;stroke-width:2;stroke-miterlimit:10;" d="M24,7c0,0-3.097,2-4,2c-1.105,0-2-0.895-2-2
	s0.895-2,2-2C20.903,5,24,7,24,7z"/>
<path style="fill:none;stroke:#000000;stroke-width:2;stroke-miterlimit:10;" d="M18,17v3h7l-2-4v-1.5c0-1.381-1.119-2.5-2.5-2.5h0
	c-1.381,0-2.5,1.119-2.5,2.5V15"/>
<polygon points="11,19 9,19 9,28 9.994,27 11,28 "/>
<path d="M9,20h5v-7c0-1.105-0.895-2-2-2H9V20z"/>
</svg>
