<?xml version="1.0" encoding="iso-8859-1"?>
<!-- Generator: Adobe Illustrator 19.2.0, SVG Export Plug-In . SVG Version: 6.00 Build 0)  -->
<svg version="1.1" id="Layer_1" xmlns="http://www.w3.org/2000/svg" xmlns:xlink="http://www.w3.org/1999/xlink" x="0px" y="0px"
	 viewBox="0 0 32 32" style="enable-background:new 0 0 32 32;" xml:space="preserve">
<circle cx="26" cy="7" r="2"/>
<line style="fill:none;stroke:#000000;stroke-width:2;stroke-miterlimit:10;" x1="4.009" y1="14.578" x2="6.572" y2="15.802"/>
<path style="fill:none;stroke:#000000;stroke-width:2;stroke-miterlimit:10;" d="M24,11h-1.706L18.8,13H18
	c-0.004-1.058-1.009-1.639-1.009-1.639l0.611-1.556L21,8.552V6l-2.508-0.126l-1.475-0.776l-2.196,0.754
	c-1.409-0.197-2.294,0.95-2.294,0.95l1.999,0.983l-1.407,3.132l-5.597,3.776c-1.194,0.805-1.565,2.394-0.852,3.645l0.497,0.872
	C8.673,22.016,5,24.314,5,24.314l0,0V28"/>
<path style="fill:none;stroke:#000000;stroke-width:2;stroke-miterlimit:10;" d="M9,28l0-2.624c0,0,2.795-2.978,1.53-6.481
	l1.301-0.88c0,0,2.048,0.315,3.388-0.531S17.561,16,17.561,16h2.379l3.428-2H25"/>
</svg>
