<?xml version="1.0" encoding="iso-8859-1"?>
<!-- Generator: Adobe Illustrator 19.1.1, SVG Export Plug-In . SVG Version: 6.00 Build 0)  -->
<svg version="1.1" id="Layer_1" xmlns="http://www.w3.org/2000/svg" xmlns:xlink="http://www.w3.org/1999/xlink" x="0px" y="0px"
	 viewBox="0 0 32 32" style="enable-background:new 0 0 32 32;" xml:space="preserve">
<path style="fill:none;stroke:#000000;stroke-width:2;stroke-miterlimit:10;" d="M14.408,23C13.52,24.493,12.14,25.961,10,27"/>
<path style="fill:none;stroke:#000000;stroke-width:2;stroke-miterlimit:10;" d="M16,17c0,0,0.125,2.307-1,4.852"/>
<path style="fill:none;stroke:#000000;stroke-width:2;stroke-miterlimit:10;" d="M16.004,14c-0.059,0-0.119,0.002-0.179,0.005
	c-0.791,0.043-1.524,0.395-2.059,0.992c-0.535,0.597-0.805,1.366-0.761,2.166c0.008,0.189,0.155,4.968-4.315,7.137
	c0,0-1.149,0.574-1.69,0.699 M14,28.004c5.314-4.281,5.013-10.855,4.995-11.172c-0.057-1.076-0.679-1.995-1.571-2.475"/>
<path style="fill:none;stroke:#000000;stroke-width:2;stroke-miterlimit:10;" d="M11,13.682c-0.714,1.068-1.062,2.331-0.991,3.633
	c0.003,0.105,0.073,2.976-2.628,4.287C7.381,21.602,6.375,22,5,22 M17.997,11.336c-0.621-0.219-1.289-0.337-1.983-0.337l0,0
	c-0.121,0-0.242,0.004-0.364,0.011c-1.364,0.074-2.639,0.608-3.651,1.517 M21.991,16.674c-0.106-1.961-1.144-3.66-2.668-4.675
	 M18,28.275c3.158-3.732,3.837-8.117,3.97-10.275"/>
<path style="fill:none;stroke:#000000;stroke-width:2;stroke-miterlimit:10;" d="M14.338,8.151
	c-1.934,0.356-3.694,1.342-5.038,2.842c-0.287,0.319-0.556,0.665-0.796,1.026C7.428,13.63,6.911,15.5,7.011,17.427L7,18
	 M23.956,23.486c1.185-3.729,1.041-6.778,1.03-6.976C24.728,11.739,20.787,8,16.015,8l0,0"/>
<path style="fill:none;stroke:#000000;stroke-width:2;stroke-miterlimit:10;" d="M10,6.597C8.918,7.224,7.928,8.028,7.066,8.99
	c-0.382,0.424-0.738,0.884-1.058,1.365c-0.354,0.53-0.663,1.08-0.925,1.645 M21.696,6.432C20.002,5.518,18.066,5,16.015,5l0,0
	c-0.244,0-0.489,0.007-0.718,0.021c-1.298,0.071-2.556,0.349-3.735,0.818 M27.966,18.001c0.05-0.963,0.02-1.568,0.015-1.658
	c-0.195-3.606-1.97-6.769-4.631-8.833"/>
<circle cx="16" cy="17" r="1"/>
</svg>
