<?xml version="1.0" encoding="iso-8859-1"?>
<!-- Generator: Adobe Illustrator 19.1.0, SVG Export Plug-In . SVG Version: 6.00 Build 0)  -->
<svg version="1.1" id="Layer_1" xmlns="http://www.w3.org/2000/svg" xmlns:xlink="http://www.w3.org/1999/xlink" x="0px" y="0px"
	 viewBox="0 0 32 32" style="enable-background:new 0 0 32 32;" xml:space="preserve">
<circle cx="13" cy="7" r="1"/>
<circle cx="15" cy="9" r="1"/>
<circle cx="11" cy="9" r="1"/>
<path style="fill:none;stroke:#000000;stroke-width:2;stroke-miterlimit:10;" d="M25,24H7c-0.552,0-1-0.448-1-1v-3h20v3
	C26,23.552,25.552,24,25,24z"/>
<path style="fill:none;stroke:#000000;stroke-width:2;stroke-miterlimit:10;" d="M6,16v-5c0-2.761,2.239-5,5-5h10
	c2.761,0,5,2.239,5,5v5"/>
<path style="fill:none;stroke:#000000;stroke-width:2;stroke-miterlimit:10;" d="M25,20H7c-1.105,0-2-0.895-2-2v0
	c0-1.105,0.895-2,2-2h18c1.105,0,2,0.895,2,2v0C27,19.105,26.105,20,25,20z"/>
<path style="fill:none;stroke:#000000;stroke-width:2;stroke-miterlimit:10;" d="M4.48,11.938L4.48,11.938
	c1.138,0.853,2.702,0.853,3.84,0l0,0l0,0l0.754,0.452c1.013,0.608,2.279,0.608,3.293,0l0.754-0.452l0,0l1.449,0.724
	c0.901,0.45,1.961,0.45,2.862,0l1.449-0.724l0,0l0.754,0.452c1.013,0.608,2.279,0.608,3.293,0l0.754-0.452l0,0l0,0
	c1.138,0.853,2.702,0.853,3.84,0l0,0"/>
</svg>
