<?xml version="1.0" encoding="iso-8859-1"?>
<!-- Generator: Adobe Illustrator 21.0.0, SVG Export Plug-In . SVG Version: 6.00 Build 0)  -->
<svg version="1.1"  xmlns="http://www.w3.org/2000/svg" xmlns:xlink="http://www.w3.org/1999/xlink" x="0px" y="0px"
	 viewBox="0 0 32 32" style="enable-background:new 0 0 32 32;" xml:space="preserve">
<circle cx="23.5" cy="20.5" r="1.5"/>
<circle cx="8.5" cy="20.5" r="1.5"/>
<path d="M3,13v15h26V13H3z M27,24c-1.105,0-2,0.895-2,2H7c0-1.105-0.895-2-2-2v-7c1.105,0,2-0.895,2-2h18c0,1.105,0.895,2,2,2V24z"
	/>
<path d="M16,18c1.103,0,2,1.122,2,2.5S17.103,23,16,23s-2-1.122-2-2.5S14.897,18,16,18 M16,16c-2.209,0-4,2.015-4,4.5
	s1.791,4.5,4,4.5s4-2.015,4-4.5S18.209,16,16,16L16,16z"/>
<line style="fill:none;stroke:#000000;stroke-width:2;stroke-miterlimit:10;" x1="16" y1="11" x2="16" y2="5.8"/>
<polygon points="11,8 16,3 21,8 "/>
</svg>
