<?xml version="1.0" encoding="iso-8859-1"?>
<!-- Generator: Adobe Illustrator 19.1.0, SVG Export Plug-In . SVG Version: 6.00 Build 0)  -->
<svg version="1.1" id="Layer_1" xmlns="http://www.w3.org/2000/svg" xmlns:xlink="http://www.w3.org/1999/xlink" x="0px" y="0px"
	 viewBox="0 0 32 32" style="enable-background:new 0 0 32 32;" xml:space="preserve">
<circle style="fill:none;stroke:#000000;stroke-width:2;stroke-miterlimit:10;" cx="11.5" cy="7.5" r="2.5"/>
<path style="fill:none;stroke:#000000;stroke-width:2;stroke-miterlimit:10;" d="M9.767,19.543l-1.595-3.832
	c-0.091-0.219-0.038-0.472,0.134-0.636l2.404-2.293c0.087-0.083,0.199-0.137,0.318-0.153l3.014-0.414l2.737-1.034
	c0.196-0.074,0.335-0.248,0.365-0.455l0.572-3.944"/>
<path style="fill:none;stroke:#000000;stroke-width:2;stroke-miterlimit:10;" d="M26.717,13.235L18.05,16.25
	c0,0-2.336-0.886-4.009-4.035"/>
<line style="fill:none;stroke:#000000;stroke-width:2;stroke-miterlimit:10;" x1="15.134" y1="18.507" x2="17.983" y2="16.306"/>
<path d="M14.001,19.028l1.147,4.025c-0.85,3.061-1.2,4.358-1.345,4.947h2.064c0.297-1.115,0.885-3.249,1.284-4.682l0.075-0.271
	l-1.499-5.252l-0.305-0.204c-0.029-0.02-2.938-2.002-3.406-5.11l-1.979,0.298C10.544,16.126,13.096,18.338,14.001,19.028z"/>
</svg>
