<?xml version="1.0" encoding="iso-8859-1"?>
<!-- Generator: Adobe Illustrator 19.1.0, SVG Export Plug-In . SVG Version: 6.00 Build 0)  -->
<svg version="1.1" id="Layer_1" xmlns="http://www.w3.org/2000/svg" xmlns:xlink="http://www.w3.org/1999/xlink" x="0px" y="0px"
	 viewBox="0 0 32 32" style="enable-background:new 0 0 32 32;" xml:space="preserve">
<path d="M25.063,10.084c-0.852-1.266-1.17-2.267-1.171-2.276l-1.249,1.898c0.195,0.465,0.35,0.886,0.76,1.495
	c1.052,1.562,1.608,3.392,1.608,5.292c0,5.242-4.265,9.506-9.506,9.506S6,21.736,6,16.494c0-4.897,3.668-8.963,8.627-9.466
	c0.339-0.029,0.728-0.073,1.127-0.151l0.744-2.414c-0.162,0.162-0.643,0.452-2.042,0.572l-0.125,0.011
	C8.441,5.646,4,10.566,4,16.494C4,22.838,9.162,28,15.506,28c6.345,0,11.506-5.162,11.506-11.506
	C27.012,14.194,26.338,11.978,25.063,10.084z"/>
<line style="fill:none;stroke:#000000;stroke-width:2;stroke-miterlimit:10;" x1="17.798" y1="9.307" x2="20.146" y2="3.313"/>
<line style="fill:none;stroke:#000000;stroke-width:2;stroke-miterlimit:10;" x1="19.147" y1="9.956" x2="23.193" y2="3.413"/>
<path style="fill:none;stroke:#000000;stroke-width:2;stroke-miterlimit:10;" d="M6.704,10.75c0.802-1.353,1.304-3.641,0.505-5.19"
	/>
<path style="fill:none;stroke:#000000;stroke-width:2;stroke-miterlimit:10;" d="M21.534,25.127C22.687,24.326,24.941,24,26.39,24"
	/>
<path style="fill:none;stroke:#000000;stroke-width:2;stroke-miterlimit:10;" d="M25.798,18.819
	c0.551-2.305,2.024-3.206,2.922-3.573"/>
<polyline style="fill:none;stroke:#000000;stroke-width:2;stroke-miterlimit:10;" points="16.226,20.105 18.921,19.656 
	21.167,21.616 "/>
<polyline style="fill:none;stroke:#000000;stroke-width:2;stroke-miterlimit:10;" points="11.53,10.917 14.062,11.938 
	15.164,14.021 "/>
<polyline style="fill:none;stroke:#000000;stroke-width:2;stroke-miterlimit:10;" points="8.672,16.92 11.122,17.9 11.938,20.064 
	"/>
<polyline style="fill:none;stroke:#000000;stroke-width:2;stroke-miterlimit:10;" points="21.33,14.307 23.331,12.959 25.25,13 "/>
</svg>
