<?xml version="1.0" encoding="iso-8859-1"?>
<!-- Generator: Adobe Illustrator 19.1.1, SVG Export Plug-In . SVG Version: 6.00 Build 0)  -->
<svg version="1.1" xmlns="http://www.w3.org/2000/svg" xmlns:xlink="http://www.w3.org/1999/xlink" x="0px" y="0px"
	 viewBox="0 0 32 32" style="enable-background:new 0 0 32 32;" xml:space="preserve">
<g >
</g>
<g >
	<path d="M3.271,12.613c0.3,0,0.969,0.092,1.209,0.215C4.84,13.012,5,13.38,5,13.87c0,0.92-0.625,1.282-1.36,1.389v0.429
		c1.279,0,2.76-0.837,2.76-2.309c0-0.245-0.12-0.797-0.84-1.104C5.14,12.092,4.24,12,3.4,12L1,12l0.16,0.445L2,12.613l0,4.774
		c-0.3,0.061-0.569,0.149-0.869,0.211L1,18h1.25H4.6l-0.12-0.429c-0.36-0.061-0.849-0.123-1.209-0.184
		C3.271,17.029,3.271,13.113,3.271,12.613z"/>
	<path d="M9.4,17.387c0-0.057,0-4.708,0-4.774c0.36-0.061,0.72-0.123,1.08-0.184L10.6,12H7l0.131,0.402
		c0.3,0.061,0.719,0.149,1.019,0.211v1.942l0,2.832c-0.3,0.061-0.719,0.149-1.019,0.211L7,18h1.15h2.45l-0.12-0.429
		C10.12,17.509,9.76,17.448,9.4,17.387z"/>
	<path d="M16.955,12.613l0.018-0.024c0.314-0.053,0.628-0.107,0.942-0.16L18.035,12h-3l0.131,0.402
		c0.203,0.042,0.482,0.095,0.736,0.145c-0.253,0.439-0.892,1.022-1.18,1.375c-0.225-0.344-0.833-1.264-0.928-1.404
		c0.174-0.03,0.347-0.059,0.521-0.089L14.434,12h-3l0.131,0.402c0.199,0.041,0.471,0.093,0.72,0.142l-0.011,0.008
		c0,0,1.62,1.863,1.92,2.23c-0.36,0.491-1.766,2.42-2.126,2.666c-0.021,0.021-0.03,0.035-0.047,0.054
		c-0.174,0.034-0.346,0.067-0.482,0.095L11.408,18h0.842h2.158l-0.12-0.429c-0.359-0.061-0.718-0.122-1.077-0.183
		c0.327-0.634,1.111-1.637,1.393-1.982c0.24,0.245,2.084,2.718,2.804,3.208h0.6l-2.771-4.054
		C15.238,14.559,16.654,12.858,16.955,12.613z"/>
	<path d="M28.925,15.535c0.599-0.143,1.406-0.622,1.387-1.695C30.302,13.265,30.088,12,27.201,12L25,12l0.16,0.445L26,12.613
		l0,4.762l-0.869,0.223L25,18h3.4l-0.12-0.441c-0.36-0.061-0.67-0.123-1.03-0.184c0-0.149,0-0.697,0-1.601l0.536,0
		c0.437,0.63,1.253,1.419,2.494,2.348L31,18C30.406,17.342,29.523,16.456,28.925,15.535z M27.25,12.613
		c0.3,0,0.902,0.092,1.142,0.215c0.36,0.184,0.6,0.552,0.6,1.042c0,0.509-0.219,0.785-0.536,1.003
		c-0.202,0.081-0.341,0.12-0.542,0.135l-0.664,0C27.25,13.906,27.25,12.859,27.25,12.613z"/>
	<path d="M22.12,17.571L22,18h3l-0.131-0.402c-0.161-0.033-0.369-0.073-0.574-0.113c-0.006-0.013-0.007-0.023-0.015-0.036
		c-0.36-0.736-1.732-4.44-1.914-4.939c0.285-0.027,0.557-0.053,0.713-0.08L23.2,12h-3.6l0.131,0.402
		c0.254,0.052,0.623,0.122,0.914,0.18c-0.349,0.934-1.411,4.17-1.711,4.851c-0.276,0.054-0.605,0.117-0.835,0.164L17.969,18h1.95
		h1.05l-0.12-0.429c-0.259-0.044-0.778-0.133-0.778-0.133l0.575-1.664h1.589l0.662,1.664C22.897,17.438,22.379,17.527,22.12,17.571z
		 M22.031,15.008h-1.145l0.533-2.088L22.031,15.008z"/>
</g>
</svg>
