<?xml version="1.0" encoding="iso-8859-1"?>
<!-- Generator: Adobe Illustrator 19.0.1, SVG Export Plug-In . SVG Version: 6.00 Build 0)  -->
<svg version="1.1" id="Layer_1" xmlns="http://www.w3.org/2000/svg" xmlns:xlink="http://www.w3.org/1999/xlink" x="0px" y="0px"
	 viewBox="0 0 32 32" style="enable-background:new 0 0 32 32;" xml:space="preserve">
<path id="XMLID_241_" style="fill:none;stroke:#000000;stroke-width:2;stroke-miterlimit:10;" d="M25.5,13c0,0,0.5-1.621,0.5-2.402
	C26,6.692,21.406,6,20,6l-1.349-1h-5.301L12,6c-1.406,0-6,0.692-6,4.598C6,11.379,6.5,13,6.5,13S5,14.763,5,17.107L7,19
	c1.775-0.517,2.45-3,2.45-3h0.1c0,0,0.95,1.531,0.95,5.533c0,0.391-0.5,1.692-0.5,2.343c0,0.781,0.41,2.083,2,3.124h8
	c1.59-1.041,2-2.343,2-3.124c0-0.651-0.5-1.953-0.5-2.343c0-4.001,0.95-5.533,0.95-5.533h0.1c0,0,0.675,2.483,2.45,3l2-1.893
	C27,14.763,25.5,13,25.5,13z"/>
<line id="XMLID_264_" style="fill:none;stroke:#000000;stroke-width:2;stroke-miterlimit:10;" x1="16.506" y1="16" x2="20" y2="16"/>
<line id="XMLID_266_" style="fill:none;stroke:#000000;stroke-width:2;stroke-miterlimit:10;" x1="12" y1="16" x2="15.5" y2="16"/>
<line id="XMLID_280_" style="fill:none;stroke:#000000;stroke-width:2;stroke-miterlimit:10;" x1="16.506" y1="19" x2="19.5" y2="19"/>
<line id="XMLID_267_" style="fill:none;stroke:#000000;stroke-width:2;stroke-miterlimit:10;" x1="12.5" y1="19" x2="15.5" y2="19"/>
<line id="XMLID_282_" style="fill:none;stroke:#000000;stroke-width:2;stroke-miterlimit:10;" x1="16.506" y1="22" x2="18.835" y2="22"/>
<line id="XMLID_281_" style="fill:none;stroke:#000000;stroke-width:2;stroke-miterlimit:10;" x1="13.167" y1="22" x2="15.5" y2="22"/>
</svg>
