<?xml version="1.0" encoding="iso-8859-1"?>
<!-- Generator: Adobe Illustrator 22.0.1, SVG Export Plug-In . SVG Version: 6.00 Build 0)  -->
<svg version="1.1" id="&#x421;&#x43B;&#x43E;&#x439;_1"
	 xmlns="http://www.w3.org/2000/svg" xmlns:xlink="http://www.w3.org/1999/xlink" x="0px" y="0px" viewBox="0 0 32 32"
	 style="enable-background:new 0 0 32 32;" xml:space="preserve">
<line style="fill:none;stroke:#000000;stroke-width:2;stroke-miterlimit:10;" x1="16.998" y1="15.998" x2="16.998" y2="20.998"/>
<line style="fill:none;stroke:#000000;stroke-width:2;stroke-miterlimit:10;" x1="19.998" y1="16.998" x2="19.998" y2="20.998"/>
<path style="fill:none;stroke:#000000;stroke-width:2;stroke-miterlimit:10;" d="M13.998,13v10.998c0,0,0.066,3,4.512,3
	c4.445,0,4.488-4,4.488-4v-5"/>
<line style="fill:none;stroke:#000000;stroke-width:2;stroke-miterlimit:10;" x1="10.273" y1="21.273" x2="14.998" y2="25.998"/>
<line style="fill:none;stroke:#000000;stroke-width:2;stroke-miterlimit:10;" x1="13.994" y1="10.996" x2="13.994" y2="8"/>
<line style="fill:none;stroke:#000000;stroke-width:2;stroke-miterlimit:10;" x1="16.12" y1="11.872" x2="18.238" y2="9.753"/>
<line style="fill:none;stroke:#000000;stroke-width:2;stroke-miterlimit:10;" x1="17.004" y1="13.994" x2="20" y2="13.994"/>
<line style="fill:none;stroke:#000000;stroke-width:2;stroke-miterlimit:10;" x1="11.872" y1="11.88" x2="9.753" y2="9.762"/>
<line style="fill:none;stroke:#000000;stroke-width:2;stroke-miterlimit:10;" x1="10.996" y1="14.006" x2="8" y2="14.006"/>
<path d="M27,4H5C3.346,4,2,5.346,2,7v14c0,1.654,1.346,3,3,3h3.758l-2-2H5c-0.552,0-1-0.449-1-1V7c0-0.551,0.448-1,1-1h22
	c0.552,0,1,0.449,1,1v14c0,0.551-0.448,1-1,1h-1.002v0.998c-0.003,0.319-0.036,0.657-0.092,1.002H27c1.654,0,3-1.346,3-3V7
	C30,5.346,28.654,4,27,4z"/>
</svg>
