<?xml version="1.0" encoding="iso-8859-1"?>
<!-- Generator: Adobe Illustrator 19.1.0, SVG Export Plug-In . SVG Version: 6.00 Build 0)  -->
<svg version="1.1" id="Layer_1" xmlns="http://www.w3.org/2000/svg" xmlns:xlink="http://www.w3.org/1999/xlink" x="0px" y="0px"
	 viewBox="0 0 32 32" style="enable-background:new 0 0 32 32;" xml:space="preserve">
<polygon style="fill:none;stroke:#000000;stroke-width:2;stroke-linejoin:round;stroke-miterlimit:10;" points="25,26 9,26 9,21 
	12,14 22,14 25,21 "/>
<path d="M9,28h3l1-3H8v2C8,27.552,8.448,28,9,28z"/>
<path d="M22,28h3c0.552,0,1-0.448,1-1v-2h-5L22,28z"/>
<line style="fill:none;stroke:#000000;stroke-width:2;stroke-miterlimit:10;" x1="24" y1="19" x2="10" y2="19"/>
<circle cx="21.5" cy="22.5" r="1.5"/>
<circle cx="12.5" cy="22.5" r="1.5"/>
<polyline style="fill:none;stroke:#000000;stroke-width:2;stroke-linejoin:round;stroke-miterlimit:10;" points="14.309,9.946 16,6 
	26,6 29,13 29,18 24,18 "/>
<path d="M26,20h3c0.552,0,1-0.448,1-1v-2h-5L26,20z"/>
<line style="fill:none;stroke:#000000;stroke-width:2;stroke-miterlimit:10;" x1="28" y1="11" x2="16.578" y2="11"/>
<circle cx="25.5" cy="14.5" r="1.5"/>
<polyline style="fill:none;stroke:#000000;stroke-width:2;stroke-linejoin:round;stroke-miterlimit:10;" points="9,22 3,22 3,17 
	6,10 16,10 17.633,13.955 "/>
<path d="M3,24h3l1-3H2v2C2,23.552,2.448,24,3,24z"/>
<line style="fill:none;stroke:#000000;stroke-width:2;stroke-miterlimit:10;" x1="11" y1="15" x2="4" y2="15"/>
<circle cx="6.5" cy="18.5" r="1.5"/>
</svg>
