<?xml version="1.0" encoding="iso-8859-1"?>
<!-- Generator: Adobe Illustrator 19.2.0, SVG Export Plug-In . SVG Version: 6.00 Build 0)  -->
<svg version="1.1" id="Layer_1" xmlns="http://www.w3.org/2000/svg" xmlns:xlink="http://www.w3.org/1999/xlink" x="0px" y="0px"
	 viewBox="0 0 32 32" style="enable-background:new 0 0 32 32;" xml:space="preserve">
<circle cx="20.898" cy="13.216" r="0.732"/>
<polygon points="26.784,4.371 20.936,8.43 22.305,10.025 27.253,4.928 "/>
<path style="fill:none;stroke:#000000;stroke-width:2;stroke-miterlimit:10;" d="M16,28c0-4.013-1-4.61-1-6.968
	c0-1.619,0.227-2.841,2-4.032c1.208,3.001,5,2,5,2s0.499,2,2.354,2C26.052,21,27,20,27,20s0-0.587,0-1.625
	c0-0.89-0.531-1.929-1.52-2.127c-3.215-3.116-1.781-4.55-3.257-6.023C21.835,9.838,20,8,20,8c0-1.464,0.471-3,0.471-3
	c-2.785,0-3.843,2-3.843,2C6.962,7,5,15.793,5,17"/>
</svg>
