<?xml version="1.0" encoding="iso-8859-1"?>
<!-- Generator: Adobe Illustrator 19.1.1, SVG Export Plug-In . SVG Version: 6.00 Build 0)  -->
<svg version="1.1" id="Layer_1" xmlns="http://www.w3.org/2000/svg" xmlns:xlink="http://www.w3.org/1999/xlink" x="0px" y="0px"
	 viewBox="-8 10 32 32" style="enable-background:new -8 10 32 32;" xml:space="preserve">
<path d="M21,26c0-7.168-5.832-13-13-13C0.832,13-5,18.832-5,26c0,2.904,0.988,5.74,2.775,8.018C-2.682,35.514-3,37.194-3,39h2
	c0-5.754,3.731-10.314,3.769-10.36l0.71-0.855l-2.243-1.495c0.788-0.199,1.742-0.354,2.697-0.292l0.462,0.031l0.322-0.333
	C5.534,24.854,6.646,24.029,7,24c0.458,0,0.982,0.414,1.201,0.621l0.288,0.293c1.403-1.377,3.086-2.649,3.863-2.949
	C11.464,23.066,10,25.162,10,27c0,1.194,0.483,1.89,0.888,2.263c0.026,0.024,0.056,0.035,0.083,0.058C9.324,30.481,8,31.552,8,33
	c0,1.346,0.605,2.531,1.14,3.576C9.582,37.442,10,38.261,10,39h2c0-0.209-0.035-0.408-0.064-0.608C17.322,36.695,21,31.742,21,26z
	 M-1.37,31.744C-2.423,30.024-3,28.033-3,26c0-0.043,0.006-0.084,0.006-0.127l3.563,2.375C0.048,29.001-0.694,30.22-1.37,31.744z
	 M11.327,36.487c-0.13-0.277-0.268-0.55-0.406-0.82C10.447,34.74,10,33.864,10,33c0-0.57,1.62-1.697,2.691-2.443
	c1.674-1.164,3.571-2.484,4.24-4.192l-1.863-0.729c-0.315,0.806-1.225,1.609-2.238,2.364c-0.145-0.008-0.417-0.047-0.594-0.215
	C12.079,27.636,12,27.372,12,27c0-0.797,0.577-1.906,1.242-2.879L15,25c0,0-0.228-1.292-0.952-1.95
	c0.141-0.17,0.278-0.328,0.404-0.464l0.49-0.53l-0.348-0.632c-0.059-0.108-0.331-0.57-0.721-0.966
	c0.032-0.101,0.063-0.204,0.063-0.317c0-0.578-0.462-1.047-1.031-1.047c-0.534,0-0.958,0.417-1.011,0.946
	c-0.951,0.277-2.138,1.039-3.555,2.285C7.945,22.14,7.492,22,7,22c-1.163,0-2.599,1.21-3.398,1.984
	c-2.587-0.021-4.92,1.061-5.025,1.109l-1.568,0.732C-2.897,19.841,1.993,15,8,15c6.065,0,11,4.935,11,11
	C19,30.861,15.886,35.053,11.327,36.487z"/>
</svg>
