<?xml version="1.0" encoding="iso-8859-1"?>
<!-- Generator: Adobe Illustrator 19.1.0, SVG Export Plug-In . SVG Version: 6.00 Build 0)  -->
<svg version="1.1" id="Layer_1" xmlns="http://www.w3.org/2000/svg" xmlns:xlink="http://www.w3.org/1999/xlink" x="0px" y="0px"
	 viewBox="0 0 32 32" style="enable-background:new 0 0 32 32;" xml:space="preserve">
<line style="fill:none;stroke:#000000;stroke-width:2;stroke-miterlimit:10;" x1="26" y1="26" x2="6" y2="26"/>
<path d="M15,7.8V12h2V7.8H15z"/>
<path d="M17,26v-6c0-0.552-0.448-1-1-1h0c-0.552,0-1,0.448-1,1v6H17z"/>
<circle cx="16" cy="7" r="2"/>
<path style="fill:none;stroke:#000000;stroke-width:2;stroke-miterlimit:10;" d="M12.051,13.715C11.534,13.414,10.724,13,9.9,13
	C9,13,7.5,13.6,7,15.3"/>
<path style="fill:none;stroke:#000000;stroke-width:2;stroke-miterlimit:10;" d="M19,21h3v-1c0,0-0.839-3.572-1-4.4
	c-0.202-1.037,0.05-1.876,0.8-2.1c0.75-0.224,2.4,0.7,2.4,0.7l0.947-0.995c0,0-0.826-2.346-2.408-3.375l0.128-1.582
	c0,0-2.367,0.251-3.567,2.051c-0.5,0.8-0.9,2.7-2.5,2.7h-3c-0.709,0-1.914,0.296-2.316,1.648S10,20,10,20v1h3v-1
	c0-1.657,1.343-3,3-3s3,1.343,3,3V21z"/>
</svg>
