<?xml version="1.0" encoding="iso-8859-1"?>
<!-- Generator: Adobe Illustrator 19.1.1, SVG Export Plug-In . SVG Version: 6.00 Build 0)  -->
<svg version="1.1"  xmlns="http://www.w3.org/2000/svg" xmlns:xlink="http://www.w3.org/1999/xlink" x="0px" y="0px"
	 viewBox="0 0 32 32" style="enable-background:new 0 0 32 32;" xml:space="preserve">
<g>
	<polygon points="16,5 16,2 21,3.516 	"/>
</g>
<polyline style="fill:none;stroke:#000000;stroke-width:2;stroke-miterlimit:10;" points="5,19 4,28 13,28 14,23 18,23 19,28 28,28 
	27,19 "/>
<path d="M16,5L3,14.5v2.73C3,18.477,4.385,20,6,20c0.833,0,1.565-0.431,2.098-1.009C8.739,19.57,9.611,20,10.571,20
	c1.031,0,1.915-0.482,2.527-1.114C13.852,19.526,14.909,20,16,20s2.148-0.474,2.901-1.114C19.514,19.518,20.397,20,21.429,20
	c0.96,0,1.832-0.43,2.474-1.009C24.435,19.569,25.167,20,26,20c1.615,0,3-1.523,3-2.77V14.5L16,5z M26,18c-0.44,0-1-0.516-1-1
	h-2.022c-0.135,0.302-0.775,1-1.549,1c-0.798,0-1.383-0.779-1.429-1h-2h-0.055c-0.248,0.341-1.052,1-1.945,1s-1.698-0.659-1.945-1
	h-2.066c-0.086,0.286-0.651,1-1.417,1C9.742,18,9.06,17.193,9,17H6.996c0,0.469-0.564,1-0.996,1c-0.516,0-1-0.391-1-0.77V15.5l11-8
	l11,8l0.002,1.704C27.002,17.531,26.516,18,26,18z"/>
</svg>
