<?xml version="1.0" encoding="iso-8859-1"?>
<!-- Generator: Adobe Illustrator 19.1.1, SVG Export Plug-In . SVG Version: 6.00 Build 0)  -->
<svg version="1.1"  xmlns="http://www.w3.org/2000/svg" xmlns:xlink="http://www.w3.org/1999/xlink" x="0px" y="0px"
	 viewBox="0 0 32 32" style="enable-background:new 0 0 32 32;" xml:space="preserve">
<polyline style="fill:none;stroke:#000000;stroke-width:2;stroke-miterlimit:10;" points="16,14 28,14 28,28 16,28 "/>
<circle cx="26.5" cy="26.5" r="1.5"/>
<circle cx="26.5" cy="15.5" r="1.5"/>
<circle cx="23" cy="21" r="1.5"/>
<path style="fill:none;stroke:#000000;stroke-width:2;stroke-miterlimit:10;" d="M16,24c1.7,0,3-1.3,3-3l0,0c0-1.7-1.3-3-3-3"/>
<polyline style="fill:none;stroke:#000000;stroke-width:2;stroke-miterlimit:10;" points="16,28 4,28 4,14 16,14 "/>
<circle cx="5.5" cy="26.5" r="1.5"/>
<circle cx="5.5" cy="15.5" r="1.5"/>
<circle cx="9" cy="21" r="1.5"/>
<path style="fill:none;stroke:#000000;stroke-width:2;stroke-miterlimit:10;" d="M16,18c-1.7,0-3,1.3-3,3l0,0c0,1.7,1.3,3,3,3"/>
<polyline style="fill:none;stroke:#000000;stroke-width:2;stroke-miterlimit:10;" points="22,9 22,4 17,4 "/>
<polygon points="21.293,3.293 16,8.586 14,6.586 8.586,12 11.414,12 14,9.414 16,11.414 22.707,4.707 "/>
</svg>
