<?xml version="1.0" encoding="iso-8859-1"?>
<!-- Generator: Adobe Illustrator 19.1.1, SVG Export Plug-In . SVG Version: 6.00 Build 0)  -->
<svg version="1.1" id="Layer_1" xmlns="http://www.w3.org/2000/svg" xmlns:xlink="http://www.w3.org/1999/xlink" x="0px" y="0px"
	 viewBox="0 0 32 32" style="enable-background:new 0 0 32 32;" xml:space="preserve">
<polyline style="fill:none;stroke:#000000;stroke-width:2;stroke-miterlimit:10;" points="17,26 6,26 6,6 26,6 26,17 "/>
<line style="fill:none;stroke:#000000;stroke-width:2;stroke-miterlimit:10;" x1="6" y1="10" x2="26" y2="10"/>
<line style="fill:none;stroke:#000000;stroke-width:2;stroke-miterlimit:10;" x1="22" y1="8" x2="22" y2="4"/>
<line style="fill:none;stroke:#000000;stroke-width:2;stroke-miterlimit:10;" x1="10" y1="8" x2="10" y2="4"/>
<path d="M24,32c-4.4,0-8-3.6-8-8s3.6-8,8-8s8,3.6,8,8S28.4,32,24,32z M24,18c-3.3,0-6,2.7-6,6s2.7,6,6,6s6-2.7,6-6S27.3,18,24,18z"
	/>
<polygon points="22.7,27.7 21.3,26.3 23,24.6 23,20 25,20 25,25.4 "/>
</svg>
