<?xml version="1.0" encoding="utf-8"?>
<!-- Generator: Adobe Illustrator 18.1.1, SVG Export Plug-In . SVG Version: 6.00 Build 0)  -->
<svg version="1.1" id="Layer_1" xmlns="http://www.w3.org/2000/svg" xmlns:xlink="http://www.w3.org/1999/xlink" x="0px" y="0px"
	 viewBox="0 0 32 32" enable-background="new 0 0 32 32" xml:space="preserve">
<path fill="none" stroke="#000000" stroke-width="2" stroke-miterlimit="10" d="M26,16v-2c0-5.5-4.5-10-10-10S6,8.5,6,14v2"/>
<path fill="none" stroke="#000000" stroke-width="2" stroke-miterlimit="10" d="M22,22h2c1.1,0,2-0.9,2-2v-4c0-0.6-0.4-1-1-1h-3V22z
	"/>
<path fill="none" stroke="#000000" stroke-width="2" stroke-miterlimit="10" d="M10,22H8c-1.1,0-2-0.9-2-2v-4c0-0.6,0.4-1,1-1h3V22z
	"/>
<path fill="none" stroke="#000000" stroke-width="2" stroke-miterlimit="10" d="M15,27h-3c-2.2,0-4-1.8-4-4v-1"/>
<path d="M17,29h-2c-1.1,0-2-0.9-2-2v0c0-1.1,0.9-2,2-2h2c1.1,0,2,0.9,2,2v0C19,28.1,18.1,29,17,29z"/>
</svg>
