<?xml version="1.0" encoding="utf-8"?>
<!-- Generator: Adobe Illustrator 18.1.1, SVG Export Plug-In . SVG Version: 6.00 Build 0)  -->
<svg version="1.1" id="Layer_1" xmlns="http://www.w3.org/2000/svg" xmlns:xlink="http://www.w3.org/1999/xlink" x="0px" y="0px"
	 viewBox="0 0 32 32" enable-background="new 0 0 32 32" xml:space="preserve">
<ellipse fill="none" stroke="#000000" stroke-width="2" stroke-miterlimit="10" cx="16" cy="7" rx="9" ry="3"/>
<ellipse fill="none" stroke="#000000" stroke-width="2" stroke-miterlimit="10" cx="16" cy="8.3" rx="5" ry="1.7"/>
<path fill="none" stroke="#000000" stroke-width="2" stroke-miterlimit="10" d="M7,7c0,0.8,0,12.2,0,13c0,1.7,4,3,9,3s9-1.3,9-3
	c0-0.8,0-12.2,0-13"/>
<path fill="none" stroke="#000000" stroke-width="2" stroke-miterlimit="10" d="M10,22.3c0,0.5,0,3.2,0,3.7c0,1.1,2.7,2,6,2
	s6-0.9,6-2c0-0.5,0-3.2,0-3.7"/>
<line fill="none" stroke="#000000" stroke-width="2" stroke-miterlimit="10" x1="16" y1="16" x2="16" y2="20"/>
</svg>
