<?xml version="1.0" encoding="iso-8859-1"?>
<!-- Generator: Adobe Illustrator 19.2.0, SVG Export Plug-In . SVG Version: 6.00 Build 0)  -->
<svg version="1.1"  xmlns="http://www.w3.org/2000/svg" xmlns:xlink="http://www.w3.org/1999/xlink" x="0px" y="0px"
	 viewBox="0 0 32 32" style="enable-background:new 0 0 32 32;" xml:space="preserve">
<path d="M16,22c-1.1,0-2,0.9-2,2h4C18,22.9,17.1,22,16,22z M16,22c-1.1,0-2,0.9-2,2h4C18,22.9,17.1,22,16,22z M25,15.65V14.9
	c0-2.77-0.51-4.74-1.6-6.07c-0.94-1.14-2.3-1.59-3.72-1.71L18.62,5H18c-3.55-0.01-6.33,0.84-8.22,2.58C7.88,9.31,7,11.87,7,14.9
	v0.75c-0.61,0.6-1,1.36-1,2.21c0,1.36,0.95,2.32,2.15,2.77c0.67,2.19,1.03,3.74,2.52,5.75l0.02,0.03l0.02,0.03
	C12.15,28.11,14.07,29,16,29s3.85-0.89,5.29-2.56l0.02-0.03l0.02-0.03c1.49-2.01,1.85-3.56,2.52-5.75c1.2-0.45,2.15-1.41,2.15-2.77
	C26,17.01,25.61,16.25,25,15.65z M22.92,19l-0.67,0.06l-0.21,0.64c-0.76,2.47-0.95,3.62-2.3,5.46C18.65,26.42,17.32,27,16,27
	s-2.65-0.58-3.74-1.84c-1.35-1.84-1.54-2.99-2.3-5.46l-0.21-0.64L9.08,19C8.66,18.97,8,18.27,8,17.86c0-0.37,0.3-0.88,0.5-0.99
	L9,16.58V14.9c0-2.65,0.72-4.55,2.13-5.85c1.31-1.21,3.41-1.89,6.29-1.98l0.6,1.2c0,0.05,0.01,0.12,0.01,0.14v0.01
	c0,0.88-0.18,1.01-0.57,1.22c-0.4,0.21-1.18,0.32-2.07,0.42c-0.88,0.1-1.89,0.19-2.82,0.75C11.65,11.37,11,12.52,11,14h2
	c0-1.02,0.22-1.24,0.61-1.48s1.14-0.38,2.01-0.47c0.86-0.1,1.84-0.16,2.76-0.64c0.78-0.41,1.4-1.25,1.59-2.33
	c0.8,0.13,1.4,0.44,1.88,1.02c0.66,0.8,1.15,2.28,1.15,4.8v1.68l0.5,0.29c0.2,0.11,0.5,0.62,0.5,0.99C24,18.28,23.35,18.97,22.92,19
	z M16,22c-1.1,0-2,0.9-2,2h4C18,22.9,17.1,22,16,22z"/>
<path d="M19.993,17.923c0.039,0.45-0.241,0.886-0.689,1.029c-0.524,0.168-1.09-0.124-1.257-0.647
	c-0.113-0.352-0.013-0.731,0.22-0.984L19.993,17.923z"/>
<path d="M12.004,17.923c-0.039,0.45,0.241,0.886,0.689,1.029c0.524,0.168,1.09-0.124,1.257-0.647
	c0.113-0.352,0.013-0.731-0.22-0.984L12.004,17.923z"/>
<path d="M6,23c0,0-1.38,1-2,1c-0.55,0-1-0.45-1-1s0.45-1,1-1C4.65,22,6,23,6,23z"/>
<path d="M25.053,26.326c0,0-0.179,1.656,0.122,2.182c0.267,0.467,0.867,0.63,1.334,0.364c0.467-0.267,0.63-0.867,0.364-1.334
	C26.557,26.986,25.053,26.326,25.053,26.326z"/>
<path d="M6.947,26.326c0,0,0.179,1.656-0.122,2.182c-0.267,0.467-0.867,0.63-1.334,0.364c-0.467-0.267-0.63-0.867-0.364-1.334
	C5.443,26.986,6.947,26.326,6.947,26.326z"/>
<path d="M26,23c0,0,1.38,1,2,1c0.55,0,1-0.45,1-1s-0.45-1-1-1C27.35,22,26,23,26,23z"/>
</svg>
