<?xml version="1.0" encoding="iso-8859-1"?>
<!-- Generator: Adobe Illustrator 22.0.1, SVG Export Plug-In . SVG Version: 6.00 Build 0)  -->
<svg version="1.1" id="&#x421;&#x43B;&#x43E;&#x439;_1"
	 xmlns="http://www.w3.org/2000/svg" xmlns:xlink="http://www.w3.org/1999/xlink" x="0px" y="0px" viewBox="0 0 32 32"
	 style="enable-background:new 0 0 32 32;" xml:space="preserve">
<line style="fill:none;stroke:#000000;stroke-width:2;stroke-miterlimit:10;" x1="9" y1="23" x2="14" y2="23"/>
<path style="fill:none;stroke:#000000;stroke-width:2;stroke-miterlimit:10;" d="M11,5v4c0,1.102,0.898,2,2,2c1.102,0,2-0.898,2-2"
	/>
<path style="fill:none;stroke:#000000;stroke-width:2;stroke-miterlimit:10;" d="M15,5v4c0,1.102,0.898,2,2,2s2-0.898,2-2"/>
<path style="fill:none;stroke:#000000;stroke-width:2;stroke-miterlimit:10;" d="M19,5v4c0,1.102,0.898,2,2,2c1.102,0,2-0.898,2-2"
	/>
<path style="fill:none;stroke:#000000;stroke-width:2;stroke-miterlimit:10;" d="M16,27h-5c-1.105,0-2-0.895-2-2V7
	c0-1.105,0.895-2,2-2h10c1.105,0,2,0.895,2,2v9"/>
<path d="M24,31.4l-6.6-6.7c-0.1-0.1-1.4-1.5-1.4-3.1c0-2.5,2-4.6,4.5-4.6c1.5,0,2.7,0.8,3.5,1.4c0.7-0.6,2-1.4,3.5-1.4
	c2.5,0,4.5,2.1,4.5,4.6c0,1.6-1.3,3-1.5,3.1L24,31.4z M20.5,19c-1.4,0-2.5,1.2-2.5,2.6c0,0.7,0.7,1.5,0.9,1.7l5.1,5.3l5.1-5.3
	c0.2-0.2,0.9-1.1,0.9-1.7c0-1.4-1.1-2.6-2.5-2.6c-1.5,0-2.8,1.4-2.8,1.5L24,21.3l-0.8-0.8C22.9,20.1,21.7,19,20.5,19z"/>
</svg>
