<?xml version="1.0" encoding="iso-8859-1"?>
<!-- Generator: Adobe Illustrator 22.0.1, SVG Export Plug-In . SVG Version: 6.00 Build 0)  -->
<svg version="1.1" id="&#x421;&#x43B;&#x43E;&#x439;_1"
	 xmlns="http://www.w3.org/2000/svg" xmlns:xlink="http://www.w3.org/1999/xlink" x="0px" y="0px" viewBox="0 0 32 32"
	 style="enable-background:new 0 0 32 32;" xml:space="preserve">
<line style="fill:none;stroke:#000000;stroke-width:2;stroke-miterlimit:10;" x1="11.975" y1="22.501" x2="8.439" y2="26.037"/>
<line style="fill:none;stroke:#000000;stroke-width:2;stroke-miterlimit:10;" x1="9.146" y1="21.087" x2="6.318" y2="23.915"/>
<path style="fill:none;stroke:#000000;stroke-width:2;stroke-miterlimit:10;" d="M16,23l-7.561,7.279c0,0-2.168,2.075-5.312-1.069
	c-3.143-3.143-0.345-6.002-0.345-6.002l3.536-3.536"/>
<line style="fill:none;stroke:#000000;stroke-width:2;stroke-miterlimit:10;" x1="13" y1="30.986" x2="6.318" y2="30.986"/>
<line style="fill:none;stroke:#000000;stroke-width:2;stroke-miterlimit:10;" x1="13" y1="16" x2="16" y2="16"/>
<polygon points="16,19 16,13 20,16 "/>
<line style="fill:none;stroke:#000000;stroke-width:2;stroke-miterlimit:10;" x1="23" y1="23" x2="18" y2="23"/>
<path style="fill:none;stroke:#000000;stroke-width:2;stroke-miterlimit:10;" d="M17,9c0,1.102,0.898,2,2,2c1.102,0,2-0.898,2-2V5"
	/>
<path style="fill:none;stroke:#000000;stroke-width:2;stroke-miterlimit:10;" d="M13,9c0,1.102,0.898,2,2,2s2-0.898,2-2V5"/>
<path style="fill:none;stroke:#000000;stroke-width:2;stroke-miterlimit:10;" d="M9,9c0,1.102,0.898,2,2,2c1.102,0,2-0.898,2-2V5"/>
<path style="fill:none;stroke:#000000;stroke-width:2;stroke-miterlimit:10;" d="M16,27h5c1.105,0,2-0.895,2-2V7
	c0-1.105-0.895-2-2-2H11C9.895,5,9,5.895,9,7v11"/>
</svg>
