<?xml version="1.0" encoding="iso-8859-1"?>
<!-- Generator: Adobe Illustrator 21.0.2, SVG Export Plug-In . SVG Version: 6.00 Build 0)  -->
<svg version="1.1"  xmlns="http://www.w3.org/2000/svg" xmlns:xlink="http://www.w3.org/1999/xlink" x="0px" y="0px"
	 viewBox="0 0 32 32" style="enable-background:new 0 0 32 32;" xml:space="preserve">
<circle style="fill:none;stroke:#000000;stroke-width:2;stroke-miterlimit:10;" cx="11.5" cy="6.5" r="2.5"/>
<path style="fill:none;stroke:#000000;stroke-width:2;stroke-miterlimit:10;" d="M18.5,17l-0.485-3.804
	C17.921,12.577,18.281,12,18.762,12h3.475c0.481,0,0.842,0.577,0.747,1.196L22.5,17C26,19,26,28,26,28H15C15,28,15,19,18.5,17z"/>
<path style="fill:none;stroke:#000000;stroke-width:2;stroke-miterlimit:10;" d="M20.5,4C19.119,4,18,5.119,18,6.5C18,9,17,11,17,11
	s1,1,3.501,1C23,12,24,11,24,11s-1-2-1-4.5C23,5.119,21.881,4,20.5,4z"/>
<path style="fill:none;stroke:#000000;stroke-width:2;stroke-miterlimit:10;" d="M9,29v-7.383l-2-1V15c0-1.657,1.343-3,3-3h2
	c1.657,0,3,1.343,3,3v1"/>
<line style="fill:none;stroke:#000000;stroke-width:2;stroke-miterlimit:10;" x1="12" y1="20" x2="18" y2="12"/>
<polyline style="fill:none;stroke:#000000;stroke-width:2;stroke-miterlimit:10;" points="23,12 26,15 24,19 "/>
</svg>
