<?xml version="1.0" encoding="iso-8859-1"?>
<!-- Generator: Adobe Illustrator 19.1.0, SVG Export Plug-In . SVG Version: 6.00 Build 0)  -->
<svg version="1.1" id="Layer_1" xmlns="http://www.w3.org/2000/svg" xmlns:xlink="http://www.w3.org/1999/xlink" x="0px" y="0px"
	 viewBox="0 0 32 32" style="enable-background:new 0 0 32 32;" xml:space="preserve">
<path style="fill:none;stroke:#000000;stroke-width:2;stroke-miterlimit:10;" d="M28,5h-2.553c-0.284,0-0.555,0.121-0.745,0.333
	L13.803,17.496"/>
<path style="fill:none;stroke:#000000;stroke-width:2;stroke-miterlimit:10;" d="M15.266,15.891
	c-2.672-2.672-0.345-5.304-0.588-5.547C14.435,10.101,11,10.122,11,12.872C11,14.014,10.135,15,8.818,15
	c-0.812,0-2.087,0.357-3.198,1.468l0,0c-2.166,2.221-2.332,5.554,0.555,8.386c2.888,2.888,6.164,2.666,8.33,0.5
	c1.277-1.277,1.277-2.444,1.444-3.665C16.228,19.411,20,20.875,20,17.4c0-0.448-1.415,1.153-2.656-0.087"/>
<line style="fill:none;stroke:#000000;stroke-width:1.4;stroke-miterlimit:10;" x1="10.514" y1="17.986" x2="13.014" y2="20.486"/>
<line style="fill:none;stroke:#000000;stroke-width:1.4;stroke-miterlimit:10;" x1="8.25" y1="20.25" x2="10.75" y2="22.75"/>
</svg>
