<?xml version="1.0" encoding="iso-8859-1"?>
<!-- Generator: Adobe Illustrator 21.1.0, SVG Export Plug-In . SVG Version: 6.00 Build 0)  -->
<svg version="1.1" id="Layer_1" xmlns="http://www.w3.org/2000/svg" xmlns:xlink="http://www.w3.org/1999/xlink" x="0px" y="0px"
	 viewBox="0 0 32 32" style="enable-background:new 0 0 32 32;" xml:space="preserve">
<polyline style="fill:none;stroke:#000000;stroke-width:2;stroke-miterlimit:10;" points="16,8 16,16 22,16 "/>
<path d="M26.5,18c-3,0-5.5,2.5-5.5,5.5c0,1.2,0.4,2.2,1,3.1l-3.7,3.7l1.4,1.4l3.7-3.7c0.9,0.6,2,1,3.1,1c3,0,5.5-2.5,5.5-5.5
	S29.5,18,26.5,18z M26.5,27c-1.9,0-3.5-1.6-3.5-3.5s1.6-3.5,3.5-3.5s3.5,1.6,3.5,3.5S28.4,27,26.5,27z"/>
<path d="M17.944,27.828l1.597-1.597c-0.108-0.261-0.194-0.526-0.269-0.792C18.245,25.796,17.147,26,16,26c-5.514,0-10-4.486-10-10
	S10.486,6,16,6s10,4.486,10,10c0,0.009-0.001,0.017-0.001,0.025C26.165,16.014,26.331,16,26.5,16c0.511,0,1.01,0.052,1.492,0.15
	C27.993,16.1,28,16.051,28,16c0-6.617-5.383-12-12-12S4,9.383,4,16s5.383,12,12,12C16.663,28,17.31,27.932,17.944,27.828z"/>
</svg>
