<?xml version="1.0" encoding="iso-8859-1"?>
<!-- Generator: Adobe Illustrator 19.2.0, SVG Export Plug-In . SVG Version: 6.00 Build 0)  -->
<svg version="1.1" id="Layer_1" xmlns="http://www.w3.org/2000/svg" xmlns:xlink="http://www.w3.org/1999/xlink" x="0px" y="0px"
	 viewBox="0 0 32 32" style="enable-background:new 0 0 32 32;" xml:space="preserve">
<path style="fill-rule:evenodd;clip-rule:evenodd;fill:none;stroke:#000000;stroke-width:2;stroke-miterlimit:10;" d="M9.082,6
	h13.836C24.62,6,26,7.38,26,9.082v13.836C26,24.62,24.62,26,22.918,26H9.082C7.38,26,6,24.62,6,22.918V9.082C6,7.38,7.38,6,9.082,6"
	/>
<path d="M18.628,15.482v-0.057c0.466-0.195,1.494-0.844,1.494-2.327c0-1.599-1.09-2.522-3.792-2.522h-4.225v10.852h4.492
	c2.055,0,4.246-0.872,4.246-3.323C20.843,16.122,19.298,15.624,18.628,15.482z M14.874,12.565c0,0,1.041,0.009,1.288,0.009
	c1.13,0,1.192,0.895,1.192,1.071c0,0.707-0.509,1.201-1.157,1.201c-0.187,0-1.322,0.015-1.322,0.015V12.565z M16.491,19.422
	c-0.271,0.012-1.617,0.015-1.617,0.015V16.72c0,0,1.376,0.003,1.665,0.011s1.497,0.048,1.497,1.324
	C18.035,19.328,16.762,19.411,16.491,19.422z"/>
</svg>
