<?xml version="1.0" encoding="iso-8859-1"?>
<!-- Generator: Adobe Illustrator 19.1.0, SVG Export Plug-In . SVG Version: 6.00 Build 0)  -->
<svg version="1.1" id="Layer_1" xmlns="http://www.w3.org/2000/svg" xmlns:xlink="http://www.w3.org/1999/xlink" x="0px" y="0px"
	 viewBox="0 0 32 32" style="enable-background:new 0 0 32 32;" xml:space="preserve">
<line style="fill:none;stroke:#000000;stroke-width:2;stroke-miterlimit:10;" x1="25" y1="21" x2="25" y2="11"/>
<line style="fill:none;stroke:#000000;stroke-width:2;stroke-miterlimit:10;" x1="7" y1="21" x2="7" y2="11"/>
<path style="fill:none;stroke:#000000;stroke-width:2;stroke-miterlimit:10;" d="M16,6c3.314,0,6,2.686,6,6v10c0,0.552-0.448,1-1,1
	v3.5c0,0.828-0.672,1.5-1.5,1.5S18,27.328,18,26.5V23h-4v3.5c0,0.828-0.672,1.5-1.5,1.5S11,27.328,11,26.5V23c-0.552,0-1-0.448-1-1
	V12C10,8.686,12.686,6,16,6z"/>
<line style="fill:none;stroke:#000000;stroke-width:2;stroke-miterlimit:10;" x1="10" y1="12" x2="22" y2="12"/>
<line style="fill:none;stroke:#000000;stroke-linecap:round;stroke-miterlimit:10;" x1="21.308" y1="4.021" x2="19.375" y2="6.812"/>
<line style="fill:none;stroke:#000000;stroke-linecap:round;stroke-miterlimit:10;" x1="10.692" y1="4.021" x2="12.625" y2="6.812"/>
<circle cx="18" cy="9" r="1"/>
<circle cx="14" cy="9" r="1"/>
</svg>
