<?xml version="1.0" encoding="iso-8859-1"?>
<!-- Generator: Adobe Illustrator 19.1.0, SVG Export Plug-In . SVG Version: 6.00 Build 0)  -->
<svg version="1.1" id="Layer_1" xmlns="http://www.w3.org/2000/svg" xmlns:xlink="http://www.w3.org/1999/xlink" x="0px" y="0px"
	 viewBox="0 0 32 32" style="enable-background:new 0 0 32 32;" xml:space="preserve">
<g>
	<path style="fill:none;stroke:#000000;stroke-width:2;" d="M25.172,11.186c-0.106,0.067-2.649,1.478-2.649,4.606
		c0,3.243,2.786,4.606,3.261,4.819C25.696,20.989,23.299,27,20.407,27c-1.557,0-2.116-0.985-3.913-0.985
		c-1.93,0-2.476,0.985-3.953,0.985c-2.414,0-6.323-5.176-6.323-10.849c0-4.341,2.599-7.348,5.99-7.348
		c1.572,0,2.968,1.078,3.927,1.078c0.918,0,2.636-1.078,4.579-1.078C21.551,8.804,23.788,9.057,25.172,11.186z M16.001,8.498
		c-0.28-1.398,0.493-2.795,1.211-3.687C18.13,3.732,19.581,3,20.833,3c0.08,1.398-0.426,2.769-1.344,3.767
		C18.69,7.845,17.292,8.657,16.001,8.498z"/>
</g>
</svg>
