<?xml version="1.0" encoding="iso-8859-1"?>
<!-- Generator: Adobe Illustrator 19.1.1, SVG Export Plug-In . SVG Version: 6.00 Build 0)  -->
<svg version="1.1" id="Layer_1" xmlns="http://www.w3.org/2000/svg" xmlns:xlink="http://www.w3.org/1999/xlink" x="0px" y="0px"
	 viewBox="0 0 32 32" style="enable-background:new 0 0 32 32;" xml:space="preserve">
<path d="M2.011,18.828c0,0-0.449-5.533,4.49-9.656c-0.842,1.581-2.413,3.84-2.413,7.905s1.683,7.115,5.108,7.115
	s6.454-2.372,6.454-2.372S11.215,26,7.622,26S2.011,22.443,2.011,18.828z"/>
<polygon style="fill:none;stroke:#000000;stroke-width:2;stroke-miterlimit:10;" points="10.412,12.382 15.734,13.284 18.569,8.569 
	19.263,14.011 24.412,15.088 19.639,17.533 20.073,22.859 16.399,19.105 11.395,21.258 13.97,16.485 "/>
<path d="M25.244,12.326c0.112-0.038,1.255,1.977,1.572,1.903c0.318-0.076,1.46-2.11,1.554-2.053s-1.085,2.09-0.898,2.316
	c0.187,0.226,2.508,0.263,2.527,0.395c0.018,0.132-2.321-0.018-2.47,0.433s1.029,2.298,0.936,2.373s-1.105-1.865-1.535-1.921
	s-1.46,2.015-1.591,1.977c-0.104-0.03,0.974-2.599,0.974-2.844C26.314,14.661,25.132,12.364,25.244,12.326z"/>
</svg>
