<?xml version="1.0" encoding="iso-8859-1"?>
<!-- Generator: Adobe Illustrator 19.1.1, SVG Export Plug-In . SVG Version: 6.00 Build 0)  -->
<svg version="1.1" id="Layer_1" xmlns="http://www.w3.org/2000/svg" xmlns:xlink="http://www.w3.org/1999/xlink" x="0px" y="0px"
	 viewBox="0 0 32 32" style="enable-background:new 0 0 32 32;" xml:space="preserve">
<path d="M7.118,11.392c0.943,0,1.825,0.247,2.649,0.741c0.826,0.492,1.471,1.179,1.935,2.063c0.467,0.882,0.701,1.877,0.701,2.983
	c0,1.103-0.236,2.101-0.703,2.993c-0.468,0.889-1.11,1.583-1.932,2.083C8.948,22.751,8.082,23,7.164,23
	c-0.897,0-1.738-0.245-2.525-0.731c-0.787-0.487-1.416-1.186-1.893-2.092c-0.476-0.911-0.713-1.915-0.713-3.022
	c0-1.089,0.229-2.074,0.69-2.953c0.46-0.877,1.091-1.564,1.89-2.063C5.417,11.643,6.251,11.392,7.118,11.392L7.118,11.392z
	 M7.238,11.973c-0.981,0-1.778,0.404-2.388,1.214c-0.611,0.809-0.915,2.131-0.915,3.96c0,1.988,0.312,3.359,0.938,4.12
	c0.626,0.761,1.398,1.141,2.32,1.141c0.645,0,1.214-0.17,1.701-0.517c0.488-0.344,0.878-0.892,1.167-1.644
	c0.291-0.75,0.435-1.736,0.435-2.956c0-1.329-0.136-2.368-0.41-3.119c-0.271-0.744-0.657-1.3-1.162-1.661
	C8.421,12.152,7.859,11.973,7.238,11.973L7.238,11.973z"/>
<path d="M18.635,11.453l0.613-0.896h0.497l0.04,3.749h-0.449c-0.281-1.149-0.699-1.989-1.249-2.517
	c-0.551-0.528-1.186-0.793-1.905-0.793c-0.599,0-1.09,0.183-1.471,0.551c-0.382,0.366-0.571,0.812-0.571,1.341
	c0,0.329,0.072,0.618,0.217,0.865c0.147,0.247,0.362,0.45,0.651,0.606c0.289,0.155,0.833,0.321,1.631,0.496
	c1.122,0.252,1.909,0.505,2.362,0.758c0.452,0.255,0.789,0.576,1.011,0.964c0.222,0.386,0.334,0.84,0.334,1.36
	c0,0.926-0.305,1.694-0.917,2.305c-0.611,0.61-1.399,0.915-2.367,0.915c-1.04,0-1.943-0.343-2.711-1.028l-0.769,0.959h-0.49v-3.985
	h0.49c0.191,1.101,0.617,1.966,1.281,2.602c0.664,0.636,1.411,0.953,2.241,0.953c0.674,0,1.221-0.203,1.647-0.609
	c0.424-0.406,0.636-0.897,0.636-1.478c0-0.329-0.08-0.617-0.239-0.866c-0.16-0.247-0.41-0.455-0.756-0.626
	c-0.343-0.168-1.022-0.374-2.035-0.615c-1.114-0.269-1.872-0.569-2.276-0.903c-0.567-0.473-0.852-1.145-0.852-2.009
	c0-0.906,0.282-1.646,0.847-2.223c0.566-0.577,1.29-0.866,2.17-0.866c0.424,0,0.825,0.075,1.206,0.229
	C17.831,10.844,18.225,11.096,18.635,11.453L18.635,11.453z"/>
<polygon points="23.715,10.155 20.718,21.904 19.949,21.749 22.948,10 "/>
<path d="M24.014,19.873c-0.272,0.272,0.871,0.555,3.42,0.851c0.382,0.044,0.666-0.023,0.854-0.202
	c0.186-0.178,0.433-0.703,0.75-1.577l0.52,0.06l-0.616,3.123l-6.854-0.795l0.048-0.408l2.522-2.258
	c1.396-1.192,2.241-1.947,2.53-2.262c0.417-0.449,0.731-0.895,0.948-1.333c0.216-0.439,0.347-0.846,0.392-1.222
	c0.071-0.621-0.043-1.132-0.348-1.528c-0.304-0.398-0.766-0.633-1.383-0.705c-0.693-0.079-1.279,0.022-1.756,0.298
	c-0.477,0.278-0.739,0.602-0.781,0.972c-0.015,0.126,0.007,0.226,0.066,0.3c0.053,0.071,0.178,0.146,0.377,0.221
	c0.502,0.18,0.725,0.51,0.667,0.985c-0.032,0.259-0.142,0.462-0.336,0.613c-0.196,0.15-0.426,0.207-0.696,0.177
	c-0.312-0.037-0.566-0.21-0.768-0.522c-0.201-0.315-0.274-0.703-0.221-1.164c0.062-0.517,0.249-0.968,0.567-1.362
	c0.316-0.391,0.763-0.691,1.335-0.901c0.57-0.207,1.168-0.275,1.79-0.203c0.617,0.07,1.176,0.27,1.672,0.594
	c0.496,0.325,0.853,0.716,1.066,1.176c0.215,0.458,0.293,0.94,0.235,1.446c-0.042,0.348-0.15,0.697-0.325,1.04
	c-0.175,0.344-0.408,0.659-0.701,0.944c-0.503,0.491-1.008,0.902-1.517,1.235l-2.217,1.449
	C24.697,19.284,24.283,19.601,24.014,19.873L24.014,19.873z"/>
</svg>
