<?xml version="1.0" encoding="iso-8859-1"?>
<!-- Generator: Adobe Illustrator 19.1.1, SVG Export Plug-In . SVG Version: 6.00 Build 0)  -->
<svg version="1.1" id="Layer_1" xmlns="http://www.w3.org/2000/svg" xmlns:xlink="http://www.w3.org/1999/xlink" x="0px" y="0px"
	 viewBox="0 0 32 32" style="enable-background:new 0 0 32 32;" xml:space="preserve">
<polygon points="18.961,12.475 17.587,11.022 22.626,6.547 24,8 "/>
<polygon points="7.374,27.453 6,26 14,19 13,23 "/>
<path d="M20,18c0-3.206-6-3.967-6-9c0,0-0.025-6,6-6c3.693,0,6,2,6,2l-2,3c0,0-1.567-1-3.487-1S18,8.087,18,9c0,2.928,6,3.868,6,9
	c0,0-0.094,6-6,6c-3.085,0-5-1-5-1l1-4c0,0,1.044,1,3.468,1C19.892,20,20,18,20,18z"/>
<polygon points="9.765,12.421 8.391,10.967 15.999,4.34 17.373,5.794 "/>
<path style="fill:none;stroke:#000000;stroke-width:2;stroke-miterlimit:10;" d="M9.944,10.987C9.944,10.987,8,12.25,8,15
	c0,3.018,4.99,3.78,5,6"/>
<path style="fill:none;stroke:#000000;stroke-width:2;stroke-miterlimit:10;" d="M6.81,25.542c0,0,1.424,2.458,5.19,2.458
	c4.035,0,10-7,10-7"/>
</svg>
