<?xml version="1.0" encoding="iso-8859-1"?>
<!-- Generator: Adobe Illustrator 19.1.1, SVG Export Plug-In . SVG Version: 6.00 Build 0)  -->
<svg version="1.1" id="Layer_1" xmlns="http://www.w3.org/2000/svg" xmlns:xlink="http://www.w3.org/1999/xlink" x="0px" y="0px"
	 viewBox="0 0 32 32" style="enable-background:new 0 0 32 32;" xml:space="preserve">
<path style="fill:none;stroke:#000000;stroke-width:2;stroke-miterlimit:10;" d="M12.904,6c1.51,0,2.628,0.507,3.608,1.113
	l-1.88,6.488c-1.11-0.63-2.424-1.147-4.088-1.158l-0.065,0c-0.986,0-2.058,0.183-3.292,0.566l1.775-6.147
	C10.46,6.282,11.753,6,12.904,6"/>
<path style="fill:none;stroke:#000000;stroke-width:2;stroke-miterlimit:10;" d="M19.567,9.121C20.666,9.737,22.009,10,23.75,10
	c1.013,0,1.917,0.083,3.25-0.278l-1.833,6.403c-1.439,0.599-2.657,0.648-3.822,0.648c-1.488,0-2.648-0.5-3.661-1.118L19.567,9.121z"
	/>
<path style="fill:none;stroke:#000000;stroke-width:2;stroke-miterlimit:10;" d="M10.013,16.399L10.013,16.399
	c1.388,0,2.458,0.414,3.534,1.069l-1.911,6.568C10.519,23.406,9.65,23,7.917,23c-0.998,0-2.423,0.2-3.583,0.542l1.833-6.208
	C7.704,16.739,8.843,16.399,10.013,16.399"/>
<path style="fill:none;stroke:#000000;stroke-width:2;stroke-miterlimit:10;" d="M16.611,19.405
	c1.119,0.625,2.473,1.137,4.274,1.137c0.951,0,1.98-0.138,3.116-0.42l-1.833,6.171C20.671,26.87,19.482,27,18.334,27
	c-1.512,0-2.629-0.508-3.607-1.116L16.611,19.405z"/>
</svg>
