<?xml version="1.0" encoding="iso-8859-1"?>
<!-- Generator: Adobe Illustrator 19.1.1, SVG Export Plug-In . SVG Version: 6.00 Build 0)  -->
<svg version="1.1" id="Layer_1" xmlns="http://www.w3.org/2000/svg" xmlns:xlink="http://www.w3.org/1999/xlink" x="0px" y="0px"
	 viewBox="0 0 32 32" style="enable-background:new 0 0 32 32;" xml:space="preserve">
<path style="fill:none;stroke:#000000;stroke-width:2;stroke-miterlimit:10;" d="M22,27H10c-0.552,0-1-0.448-1-1V6
	c0-0.552,0.448-1,1-1h12c0.552,0,1,0.448,1,1v20C23,26.552,22.552,27,22,27z"/>
<line style="fill:none;stroke:#000000;stroke-width:2;stroke-miterlimit:10;" x1="14" y1="24" x2="18" y2="24"/>
<circle cx="16" cy="8" r="1"/>
<path d="M15.01,11.998c0.553,0,0.963,0.186,1.321,0.408l-0.689,2.376c-0.406-0.231-0.888-0.42-1.497-0.424l-0.024,0
	c-0.361,0-0.754,0.067-1.206,0.207l0.65-2.251C14.115,12.101,14.588,11.998,15.01,11.998"/>
<path d="M17.278,12.84c0.402,0.226,0.894,0.322,1.532,0.322c0.371,0,0.702,0.031,1.19-0.102l-0.671,2.345
	c-0.527,0.219-0.973,0.237-1.4,0.237c-0.545,0-0.97-0.183-1.341-0.409L17.278,12.84z"/>
<path d="M14.08,15.376L14.08,15.376c0.508,0,0.9,0.152,1.294,0.392l-0.7,2.405c-0.409-0.231-0.728-0.379-1.362-0.379
	c-0.366,0-0.887,0.073-1.312,0.198l0.671-2.274C13.235,15.501,13.651,15.376,14.08,15.376"/>
<path d="M16.281,16.218c0.41,0.229,0.906,0.416,1.565,0.416c0.348,0,0.725-0.051,1.141-0.154l-0.671,2.26
	C17.768,18.952,17.333,19,16.912,19c-0.554,0-0.963-0.186-1.321-0.409L16.281,16.218z"/>
</svg>
