<?xml version="1.0" encoding="iso-8859-1"?>
<!-- Generator: Adobe Illustrator 19.1.1, SVG Export Plug-In . SVG Version: 6.00 Build 0)  -->
<svg version="1.1" id="Layer_1" xmlns="http://www.w3.org/2000/svg" xmlns:xlink="http://www.w3.org/1999/xlink" x="0px" y="0px"
	 viewBox="0 0 32 32" style="enable-background:new 0 0 32 32;" xml:space="preserve">
<g>
	<g>
		<path style="fill:none;stroke:#000000;stroke-width:2;stroke-miterlimit:10;" d="M16,4C9.882,4,4.923,8.884,4.923,14.909L5,25
			c0,0,4.477,3,11,3s11-3,11-3V15C27,8.975,22.118,4,16,4z"/>
	</g>
</g>
<path style="fill:none;stroke:#000000;stroke-width:2;stroke-miterlimit:10;" d="M4,15h1v5H4c-0.552,0-1-0.448-1-1v-3
	C3,15.448,3.448,15,4,15z"/>
<path style="fill:none;stroke:#000000;stroke-width:2;stroke-miterlimit:10;" d="M28,15h-1v5h1c0.552,0,1-0.448,1-1v-3
	C29,15.448,28.552,15,28,15z"/>
<path style="fill:none;stroke:#000000;stroke-width:2;stroke-miterlimit:10;" d="M24,18.017C24,21.2,21.144,23,16,23s-8-1.8-8-4.983
	v-3.385C8,11.877,9.812,9,16,9s8,2.919,8,5.632V18.017z"/>
<path style="fill:none;stroke:#000000;stroke-width:2;stroke-linecap:round;stroke-linejoin:round;stroke-miterlimit:10;" d="M18,19
	h5"/>
</svg>
