<?xml version="1.0" encoding="iso-8859-1"?>
<!-- Generator: Adobe Illustrator 19.1.0, SVG Export Plug-In . SVG Version: 6.00 Build 0)  -->
<svg version="1.1" id="Layer_1" xmlns="http://www.w3.org/2000/svg" xmlns:xlink="http://www.w3.org/1999/xlink" x="0px" y="0px"
	 viewBox="0 0 32 32" style="enable-background:new 0 0 32 32;" xml:space="preserve">
<path style="fill:none;stroke:#000000;stroke-width:2;stroke-miterlimit:10;" d="M20.889,5c-4.644,0-5.5,4.278-7.333,6.111
	S5,13.922,5,19.667C5,23.7,8.3,27,12.333,27C18.444,27,27,21.867,27,11.111C27,7.689,24.311,5,20.889,5z"/>
<g>
	<path d="M20.889,5.5c-0.003,0-0.005,0-0.007,0c0,0-0.001,0-0.001,0c-0.002,0-0.005,0-0.007,0c-0.001,0-0.001,0-0.001,0
		c-0.002,0-0.005,0-0.007,0c0,0-0.001,0-0.001,0c-0.002,0-0.005,0-0.007,0c0,0-0.001,0-0.001,0c-0.002,0-0.005,0-0.007,0
		c0,0,0,0-0.001,0c-0.002,0-0.005,0-0.007,0c-0.001,0-0.001,0-0.002,0c-0.002,0-0.004,0-0.007,0c-0.001,0-0.001,0-0.002,0
		c-0.002,0-0.004,0-0.006,0c-0.001,0-0.001,0-0.002,0c-0.002,0-0.004,0-0.007,0c0,0-0.001,0-0.001,0c-0.002,0-0.004,0-0.006,0
		c-0.001,0-0.001,0-0.002,0c-0.002,0-0.004,0-0.006,0c-0.001,0-0.001,0-0.002,0c-0.002,0-0.004,0-0.006,0c-0.001,0-0.002,0-0.002,0
		c-0.002,0-0.004,0-0.006,0c-0.001,0-0.002,0-0.002,0c-0.002,0-0.004,0-0.005,0c-0.001,0-0.002,0-0.003,0c-0.002,0-0.003,0-0.005,0
		c-0.001,0-0.002,0-0.003,0c-0.001,0-0.003,0-0.004,0c-0.001,0-0.002,0-0.003,0c-0.002,0-0.004,0-0.005,0c-0.001,0-0.002,0-0.003,0
		c-0.002,0-0.004,0-0.005,0c-0.001,0-0.002,0-0.003,0c-0.001,0-0.003,0-0.004,0c-0.001,0-0.003,0-0.004,0c-0.001,0-0.002,0-0.004,0
		c-0.002,0-0.003,0-0.005,0c-0.001,0-0.002,0-0.003,0c-0.001,0-0.002,0-0.004,0c-0.002,0-0.003,0-0.005,0c-0.001,0-0.002,0-0.003,0
		c-0.001,0-0.003,0-0.004,0c-0.001,0-0.003,0-0.004,0c-0.001,0-0.002,0-0.002,0c-0.002,0-0.004,0-0.006,0c-0.001,0-0.001,0-0.002,0
		c-0.002,0-0.004,0-0.006,0c-0.001,0-0.001,0-0.002,0c-0.002,0-0.005,0-0.007,0c-0.001,0-0.001,0-0.002,0c-0.001,0-0.003,0-0.004,0
		c0,0-0.001,0-0.001,0c-0.002,0-0.005,0-0.007,0c0,0-0.001,0-0.001,0c-0.002,0-0.005,0-0.007,0c0,0-0.001,0-0.001,0
		c-0.003,0-0.005,0-0.007,0c0,0-0.001,0-0.001,0c-0.007,0-0.014,0.001-0.021,0.001c0,0-0.001,0-0.001,0c-0.003,0-0.005,0-0.007,0
		c0,0-0.001,0-0.001,0c-0.002,0-0.005,0-0.007,0c0,0-0.001,0-0.001,0c-0.004,0-0.008,0-0.013,0.001c0,0-0.001,0-0.001,0
		c-0.003,0-0.005,0-0.007,0c-0.001,0-0.001,0-0.002,0c-0.002,0-0.004,0-0.007,0c-0.001,0-0.001,0-0.002,0c-0.002,0-0.004,0-0.007,0
		c-0.001,0-0.001,0-0.002,0c-0.004,0-0.008,0-0.012,0.001c-0.001,0-0.002,0-0.003,0c-0.002,0-0.004,0-0.006,0
		c-0.001,0-0.002,0-0.003,0c-0.002,0-0.004,0-0.005,0c-0.001,0-0.002,0-0.003,0c-0.001,0-0.003,0-0.004,0c-0.001,0-0.003,0-0.004,0
		c-0.001,0-0.002,0-0.003,0c-0.002,0-0.003,0-0.005,0c-0.001,0-0.002,0-0.003,0c-0.002,0-0.003,0-0.005,0c-0.001,0-0.002,0-0.003,0
		c-0.002,0-0.003,0-0.005,0c-0.001,0-0.001,0-0.002,0c-0.002,0-0.004,0-0.006,0c-0.001,0-0.001,0-0.002,0c-0.002,0-0.004,0-0.006,0
		c-0.001,0-0.001,0-0.001,0c-0.002,0-0.004,0-0.007,0c0,0-0.001,0-0.001,0c-0.03,0.002-0.061,0.004-0.091,0.006l0.151,1.994
		C20.652,7.504,20.768,7.5,20.889,7.5V5.5L20.889,5.5L20.889,5.5z M18.47,6.032c-0.14,0.071-0.274,0.147-0.403,0.229
		c0,0,0,0-0.001,0c-0.001,0-0.001,0.001-0.002,0.001c0,0-0.001,0-0.001,0.001c-0.001,0-0.001,0.001-0.002,0.001
		c0,0-0.001,0.001-0.001,0.001c-0.001,0-0.001,0.001-0.001,0.001c-0.001,0-0.001,0.001-0.002,0.001c0,0-0.001,0-0.001,0.001
		c-0.006,0.004-0.013,0.008-0.019,0.012l1.085,1.68c0.08-0.051,0.163-0.099,0.249-0.143L18.47,6.032L18.47,6.032z M16.585,7.643
		c-0.069,0.087-0.137,0.176-0.204,0.266c0,0,0,0,0,0.001c-0.001,0.002-0.003,0.004-0.004,0.005c0,0-0.001,0.001-0.001,0.001
		c-0.001,0.002-0.002,0.003-0.004,0.005c0,0.001-0.001,0.001-0.001,0.002c-0.001,0.001-0.002,0.002-0.003,0.004
		c-0.001,0.001-0.002,0.003-0.003,0.004c0,0-0.001,0.001-0.001,0.001c-0.027,0.037-0.054,0.073-0.08,0.11l1.626,1.165
		c0.079-0.11,0.159-0.217,0.243-0.323L16.585,7.643L16.585,7.643z M15.199,9.723c-0.072,0.115-0.144,0.229-0.216,0.341
		c0,0.001-0.001,0.001-0.001,0.002c-0.001,0.001-0.001,0.002-0.002,0.003c-0.001,0.001-0.002,0.002-0.002,0.004
		c-0.001,0.001-0.001,0.002-0.002,0.003c-0.001,0.002-0.002,0.003-0.003,0.005c0,0,0,0.001-0.001,0.001
		c-0.014,0.022-0.028,0.043-0.042,0.064l1.676,1.091c0.096-0.148,0.192-0.299,0.288-0.452L15.199,9.723L15.199,9.723z
		 M13.666,11.685c0,0-0.001,0.001-0.001,0.001c0,0-0.001,0.001-0.001,0.001c-0.001,0.001-0.002,0.002-0.003,0.003c0,0,0,0,0,0
		c-0.001,0.001-0.002,0.002-0.004,0.003c0,0-0.001,0-0.001,0.001c-0.001,0.001-0.002,0.002-0.003,0.002c0,0-0.001,0-0.001,0.001
		c-0.001,0.001-0.002,0.002-0.004,0.003c0,0,0,0,0,0c-0.001,0.001-0.002,0.002-0.003,0.003c0,0-0.001,0-0.001,0.001
		c-0.001,0.001-0.002,0.002-0.003,0.003c0,0,0,0,0,0c-0.001,0.001-0.002,0.002-0.004,0.003c0,0,0,0-0.001,0.001
		c-0.001,0.001-0.002,0.002-0.003,0.002c0,0-0.001,0-0.001,0.001c-0.002,0.002-0.005,0.004-0.007,0.006c0,0-0.001,0-0.001,0.001
		c-0.001,0.001-0.002,0.002-0.003,0.002c0,0-0.001,0.001-0.001,0.001c-0.001,0.001-0.002,0.002-0.004,0.003c0,0,0,0,0,0
		c-0.001,0.001-0.002,0.002-0.003,0.003c0,0-0.001,0-0.001,0.001c-0.001,0.001-0.002,0.002-0.003,0.003c0,0,0,0,0,0
		c-0.001,0.001-0.003,0.002-0.004,0.003c0,0,0,0-0.001,0.001c-0.001,0.001-0.002,0.002-0.003,0.002c0,0-0.001,0.001-0.001,0.001
		c-0.001,0.001-0.002,0.002-0.003,0.003c0,0,0,0,0,0c-0.001,0.001-0.002,0.002-0.004,0.003c0,0-0.001,0-0.001,0.001
		c-0.001,0.001-0.002,0.002-0.003,0.002c0,0-0.001,0-0.001,0.001c-0.001,0.001-0.002,0.002-0.004,0.003c0,0,0,0-0.001,0.001
		c-0.001,0.001-0.002,0.002-0.003,0.002c0,0-0.001,0.001-0.001,0.001c-0.001,0.001-0.002,0.002-0.003,0.002c0,0,0,0-0.001,0.001
		c-0.001,0.001-0.002,0.002-0.004,0.003c0,0-0.001,0.001-0.001,0.001c-0.001,0.001-0.002,0.001-0.003,0.002
		c0,0-0.001,0.001-0.001,0.001c-0.001,0.001-0.002,0.002-0.003,0.002c0,0,0,0,0,0c-0.001,0.001-0.002,0.002-0.004,0.003
		c0,0-0.001,0.001-0.001,0.001c-0.001,0.001-0.002,0.001-0.003,0.002c0,0-0.001,0.001-0.001,0.001
		c-0.001,0.001-0.002,0.002-0.004,0.003c0,0-0.001,0-0.001,0.001c-0.001,0.001-0.002,0.002-0.003,0.002c0,0-0.001,0.001-0.001,0.001
		c-0.001,0.001-0.002,0.002-0.003,0.002c0,0,0,0-0.001,0c-0.001,0.001-0.003,0.002-0.004,0.003c0,0-0.001,0.001-0.001,0.001
		c-0.001,0.001-0.002,0.001-0.003,0.002c0,0-0.001,0.001-0.001,0.001c-0.001,0.001-0.002,0.002-0.003,0.002
		c0,0-0.001,0.001-0.001,0.001c-0.001,0.001-0.002,0.002-0.003,0.002c0,0-0.001,0.001-0.001,0.001
		c-0.001,0.001-0.001,0.001-0.002,0.002c-0.001,0-0.001,0.001-0.002,0.001c-0.001,0.001-0.002,0.002-0.003,0.003
		c0,0-0.001,0.001-0.001,0.001c-0.001,0.001-0.002,0.001-0.003,0.002c-0.001,0-0.001,0.001-0.002,0.001
		c-0.001,0.001-0.002,0.001-0.002,0.002c0,0-0.001,0.001-0.001,0.001c-0.001,0.001-0.002,0.002-0.003,0.003
		c-0.001,0-0.001,0.001-0.002,0.001c-0.001,0-0.001,0.001-0.002,0.001c-0.001,0.001-0.001,0.001-0.002,0.002
		c-0.001,0-0.001,0.001-0.002,0.001c-0.001,0.001-0.002,0.002-0.003,0.002c-0.001,0-0.001,0.001-0.002,0.001
		c-0.001,0-0.001,0.001-0.002,0.002c-0.001,0-0.001,0.001-0.002,0.001c-0.001,0.001-0.002,0.001-0.002,0.002c0,0,0,0-0.001,0
		c-0.002,0.001-0.003,0.002-0.005,0.004c0,0-0.001,0.001-0.001,0.001c-0.001,0.001-0.002,0.001-0.002,0.002
		c0,0-0.001,0.001-0.001,0.001c-0.002,0.001-0.003,0.003-0.005,0.004c0,0,0,0,0,0c-0.001,0.001-0.002,0.001-0.003,0.002
		c0,0-0.001,0-0.001,0.001c-0.001,0.001-0.002,0.001-0.003,0.002c0,0,0,0-0.001,0.001c-0.002,0.001-0.004,0.003-0.005,0.004
		c0,0,0,0-0.001,0c-0.001,0.001-0.002,0.001-0.003,0.002c0,0-0.001,0-0.001,0.001c-0.003,0.002-0.006,0.004-0.009,0.006c0,0,0,0,0,0
		c-0.001,0.001-0.002,0.001-0.003,0.002c0,0,0,0-0.001,0c-0.003,0.002-0.006,0.004-0.009,0.007c0,0,0,0,0,0
		c-0.054,0.039-0.11,0.078-0.168,0.116l1.112,1.662c0.207-0.138,0.391-0.275,0.563-0.417L13.666,11.685L13.666,11.685z
		 M11.51,12.939c-0.083,0.041-0.167,0.082-0.251,0.123c-0.02,0.01-0.04,0.02-0.06,0.029c0,0,0,0-0.001,0
		c-0.001,0.001-0.002,0.001-0.004,0.002c-0.032,0.016-0.063,0.031-0.095,0.047c-0.013,0.006-0.025,0.013-0.038,0.019l0.882,1.795
		l0.196-0.096l0.254-0.124L11.51,12.939L11.51,12.939z M9.289,14.086c-0.063,0.036-0.126,0.073-0.188,0.11c0,0-0.001,0-0.001,0.001
		c-0.002,0.001-0.004,0.002-0.006,0.004c0,0,0,0-0.001,0c-0.002,0.001-0.004,0.002-0.006,0.004c0,0-0.001,0.001-0.001,0.001
		c-0.001,0.001-0.003,0.002-0.004,0.002c-0.001,0.001-0.002,0.001-0.003,0.002c-0.001,0.001-0.002,0.001-0.003,0.002
		c-0.072,0.043-0.144,0.087-0.215,0.132l1.059,1.697c0.123-0.077,0.247-0.151,0.372-0.223L9.289,14.086L9.289,14.086z M7.273,15.553
		c-0.12,0.116-0.236,0.235-0.348,0.359l1.488,1.336c0.079-0.088,0.161-0.172,0.246-0.254L7.273,15.553L7.273,15.553z M5.871,17.6
		c-0.013,0.032-0.025,0.065-0.037,0.097c0,0,0,0,0,0c0,0.001-0.001,0.002-0.001,0.004l0,0c-0.002,0.005-0.003,0.009-0.005,0.014
		c0,0,0,0.001,0,0.001c0,0.001-0.001,0.002-0.001,0.003c0,0,0,0.001,0,0.001c0,0.001-0.001,0.002-0.001,0.003c0,0,0,0.001,0,0.001
		c0,0.001-0.001,0.002-0.001,0.003c0,0.001,0,0.001,0,0.001c0,0.001-0.001,0.003-0.001,0.004c0,0.001-0.001,0.002-0.001,0.003
		c0,0.001,0,0.001-0.001,0.002c0,0.001-0.001,0.002-0.001,0.003c0,0.001,0,0.001-0.001,0.001c0,0.001-0.001,0.002-0.001,0.003
		c0,0,0,0.001,0,0.001c0,0.001-0.001,0.002-0.001,0.003c0,0,0,0,0,0.001c-0.001,0.003-0.002,0.006-0.003,0.009c0,0,0,0,0,0
		c-0.001,0.001-0.001,0.003-0.001,0.004c0,0,0,0,0,0.001c0,0.001-0.001,0.003-0.001,0.004c0,0,0,0,0,0
		c-0.035,0.101-0.068,0.203-0.098,0.308l1.924,0.545c0.028-0.101,0.061-0.198,0.098-0.292L5.871,17.6L5.871,17.6z M7.508,19.942
		l-1.997,0.112c0,0,0,0.001,0,0.001c0,0.002,0,0.004,0,0.006c0,0.001,0,0.002,0,0.003c0,0.001,0,0.003,0,0.004
		c0,0.001,0,0.002,0,0.003c0,0.002,0,0.004,0,0.006c0,0.001,0,0.002,0,0.003c0,0.002,0,0.003,0,0.005c0,0.001,0,0.002,0,0.003
		c0,0.002,0,0.003,0,0.005c0,0.001,0,0.001,0,0.002c0,0.002,0,0.004,0,0.006c0,0.001,0,0.002,0,0.002c0,0.002,0,0.003,0,0.005
		c0,0.001,0,0.001,0,0.002c0,0.002,0,0.004,0,0.006c0,0.001,0,0.002,0,0.003c0,0.001,0,0.003,0,0.004c0,0.001,0,0.002,0,0.003
		c0,0.002,0,0.004,0,0.006c0,0.001,0,0.002,0,0.003c0,0.001,0,0.003,0,0.004c0,0.001,0,0.002,0,0.003c0,0.002,0,0.003,0,0.005
		c0,0.001,0,0.002,0,0.003c0,0.001,0,0.003,0,0.004c0,0.001,0,0.002,0,0.003c0,0.001,0,0.003,0,0.004c0,0.002,0,0.003,0,0.005
		c0,0.001,0,0.003,0,0.004c0,0.001,0,0.002,0,0.003c0,0.001,0,0.002,0,0.003c0,0.001,0,0.002,0,0.004c0,0.002,0,0.004,0,0.006
		c0,0.001,0,0.002,0,0.003c0,0.001,0,0.002,0,0.003c0,0.001,0,0.002,0,0.004c0,0.001,0,0.002,0,0.003c0,0.002,0,0.004,0.001,0.006
		c0,0.001,0,0.002,0,0.002c0,0.001,0,0.003,0,0.004c0,0.001,0,0.001,0,0.002c0,0.003,0,0.005,0.001,0.008c0,0.001,0,0.001,0,0.002
		c0,0.001,0,0.003,0,0.004c0,0.001,0,0.001,0,0.002c0,0.005,0.001,0.01,0.001,0.015c0,0,0,0.001,0,0.001
		c0,0.005,0.001,0.01,0.001,0.015c0,0,0,0.001,0,0.001c0,0.005,0.001,0.01,0.001,0.015c0,0,0,0,0,0
		c0.005,0.054,0.01,0.108,0.016,0.161c0,0,0,0,0,0c0.001,0.005,0.001,0.01,0.002,0.015c0,0,0,0.001,0,0.001
		c0.001,0.005,0.001,0.009,0.002,0.014c0,0.001,0,0.002,0,0.002c0,0.001,0,0.003,0,0.004c0,0.001,0,0.002,0,0.003
		c0,0.002,0,0.004,0.001,0.005c0,0.001,0,0.002,0,0.004c0,0.001,0,0.002,0,0.003c0,0.002,0,0.003,0.001,0.005
		c0,0.001,0,0.001,0,0.002c0,0.002,0.001,0.004,0.001,0.006c0,0.001,0,0.001,0,0.002c0,0.002,0.001,0.004,0.001,0.006c0,0,0,0,0,0
		c0,0.002,0.001,0.005,0.001,0.007c0,0,0,0,0,0c0.001,0.01,0.003,0.02,0.004,0.031l1.983-0.258
		C7.525,20.178,7.514,20.061,7.508,19.942L7.508,19.942z M7.924,21.646l-1.823,0.823c0.055,0.121,0.113,0.241,0.174,0.358
		c0,0,0,0,0,0.001c0.001,0.002,0.002,0.004,0.003,0.006c0,0,0,0,0,0c0.001,0.002,0.002,0.004,0.003,0.006
		c0,0.001,0.001,0.001,0.001,0.002c0.001,0.002,0.002,0.004,0.003,0.005c0,0,0,0.001,0,0.001c0.001,0.002,0.002,0.004,0.003,0.006
		c0,0.001,0.001,0.002,0.001,0.003c0.001,0.001,0.001,0.002,0.002,0.003c0.001,0.002,0.002,0.003,0.003,0.005
		c0,0.001,0.001,0.002,0.001,0.002c0.001,0.001,0.001,0.002,0.002,0.004c0,0.001,0.001,0.001,0.001,0.002
		c0.001,0.003,0.003,0.005,0.004,0.008c0,0,0,0,0,0c0.007,0.012,0.013,0.024,0.02,0.037l1.758-0.954
		C8.025,21.859,7.973,21.754,7.924,21.646L7.924,21.646z M8.929,23.093l-1.41,1.419c0.075,0.074,0.152,0.147,0.23,0.218c0,0,0,0,0,0
		c0.008,0.007,0.015,0.014,0.023,0.02c0,0,0,0,0,0c0.038,0.034,0.076,0.067,0.114,0.1l1.303-1.517
		C9.1,23.257,9.013,23.176,8.929,23.093L8.929,23.093z M10.382,24.088L9.57,25.916c0,0,0,0,0.001,0
		c0.002,0.001,0.004,0.002,0.006,0.003c0.001,0,0.001,0.001,0.002,0.001c0.002,0.001,0.003,0.001,0.005,0.002
		c0,0,0.001,0,0.001,0.001c0.002,0.001,0.004,0.002,0.006,0.003c0,0,0.001,0,0.001,0c0.002,0.001,0.004,0.002,0.006,0.003l0,0
		c0.002,0.001,0.005,0.002,0.007,0.003c0,0,0,0,0,0c0.14,0.061,0.283,0.118,0.428,0.17l0.675-1.883
		C10.598,24.18,10.489,24.136,10.382,24.088L10.382,24.088z M12.088,24.494l-0.1,1.998c0.078,0.004,0.157,0.006,0.236,0.008l0,0
		c0.002,0,0.004,0,0.005,0l0,0c0.002,0,0.003,0,0.005,0l0,0c0.002,0,0.003,0,0.005,0c0,0,0,0,0.001,0c0.002,0,0.003,0,0.005,0
		c0,0,0.001,0,0.001,0c0.001,0,0.003,0,0.004,0c0,0,0.001,0,0.001,0c0.001,0,0.003,0,0.004,0c0,0,0.001,0,0.001,0
		c0.001,0,0.003,0,0.004,0c0,0,0.001,0,0.001,0c0.001,0,0.003,0,0.004,0c0.001,0,0.001,0,0.002,0c0.001,0,0.002,0,0.004,0
		c0.001,0,0.001,0,0.002,0c0.001,0,0.002,0,0.003,0c0.001,0,0.001,0,0.002,0c0.001,0,0.002,0,0.003,0c0.001,0,0.001,0,0.002,0
		c0.001,0,0.002,0,0.003,0c0.001,0,0.002,0,0.002,0c0.001,0,0.002,0,0.003,0c0.001,0,0.001,0,0.002,0c0.001,0,0.002,0,0.003,0
		c0.001,0,0.002,0,0.003,0c0.001,0,0.002,0,0.003,0c0.001,0,0.002,0,0.003,0c0.001,0,0.002,0,0.002,0c0.001,0,0.003,0,0.004,0
		c0,0,0.001,0,0.001,0c0.001,0,0.003,0,0.004,0c0.001,0,0.001,0,0.002,0c0.002,0,0.003,0,0.005,0c0,0,0,0,0,0
		c0.002,0,0.004,0,0.005,0l0,0c0.003,0,0.006,0,0.009,0c0,0,0,0,0.001,0c0.003,0,0.006,0,0.009,0c0,0,0,0,0.001,0
		c0.045,0,0.09,0,0.136-0.001l-0.031-2L12.333,24.5C12.251,24.5,12.169,24.498,12.088,24.494L12.088,24.494z M14.518,24.238
		c-0.139,0.032-0.278,0.061-0.415,0.087l0.372,1.965c0.052-0.01,0.104-0.02,0.157-0.031c0,0,0,0,0,0
		c0.004-0.001,0.009-0.002,0.013-0.003c0.001,0,0.002,0,0.002,0c0.002,0,0.004-0.001,0.005-0.001c0.001,0,0.002,0,0.003-0.001
		c0.001,0,0.002,0,0.003-0.001c0.002,0,0.003-0.001,0.005-0.001c0.001,0,0.002,0,0.003-0.001c0.001,0,0.003-0.001,0.004-0.001
		c0.001,0,0.003-0.001,0.004-0.001c0.001,0,0.003-0.001,0.004-0.001c0.001,0,0.002,0,0.002,0c0.002,0,0.004-0.001,0.006-0.001
		c0.001,0,0.002,0,0.002,0c0.002,0,0.004-0.001,0.005-0.001c0.001,0,0.001,0,0.002,0c0.002,0,0.004-0.001,0.005-0.001
		c0.001,0,0.001,0,0.002,0c0.002,0,0.004-0.001,0.006-0.001c0.001,0,0.001,0,0.002,0c0.002,0,0.003-0.001,0.005-0.001
		c0.001,0,0.002,0,0.003-0.001c0.002,0,0.003-0.001,0.005-0.001c0.001,0,0.001,0,0.002,0c0.002,0,0.004-0.001,0.006-0.001
		c0.001,0,0.002,0,0.003-0.001c0.002,0,0.003-0.001,0.005-0.001c0.001,0,0.002,0,0.003-0.001c0.001,0,0.003-0.001,0.004-0.001
		c0.001,0,0.002,0,0.003-0.001c0.002,0,0.003-0.001,0.005-0.001c0.001,0,0.002,0,0.003-0.001c0.001,0,0.002,0,0.003-0.001
		c0.002,0,0.004-0.001,0.006-0.001c0.001,0,0.001,0,0.002,0c0.004-0.001,0.009-0.002,0.013-0.003c0,0,0,0,0,0
		c0.06-0.013,0.121-0.026,0.181-0.04L14.518,24.238L14.518,24.238z M16.561,23.574c-0.134,0.056-0.268,0.11-0.402,0.162l0.716,1.868
		c0.127-0.049,0.253-0.099,0.38-0.152c0.001,0,0.001,0,0.002-0.001c0.002-0.001,0.004-0.002,0.006-0.002
		c0.001,0,0.002-0.001,0.003-0.001c0.001,0,0.002-0.001,0.003-0.001c0.002-0.001,0.003-0.001,0.005-0.002c0,0,0.001,0,0.001,0
		c0.002-0.001,0.005-0.002,0.007-0.003l0.001,0c0.019-0.008,0.038-0.016,0.058-0.024L16.561,23.574L16.561,23.574z M18.483,22.569
		c-0.123,0.078-0.247,0.153-0.371,0.226l1.013,1.724c0.004-0.003,0.009-0.005,0.013-0.008l0.001-0.001
		c0.002-0.001,0.004-0.002,0.006-0.003c0,0,0.001-0.001,0.002-0.001c0.001-0.001,0.002-0.001,0.003-0.002
		c0.001-0.001,0.002-0.001,0.003-0.002c0,0,0.001-0.001,0.001-0.001c0.002-0.001,0.004-0.003,0.007-0.004
		c0.001,0,0.001-0.001,0.002-0.001c0.001-0.001,0.003-0.001,0.004-0.002c0,0,0,0,0.001,0c0.003-0.002,0.005-0.003,0.008-0.005
		c0,0,0,0,0.001,0c0.002-0.001,0.003-0.002,0.004-0.003c0,0,0,0,0,0c0.023-0.014,0.045-0.027,0.068-0.04
		c0,0,0.001-0.001,0.001-0.001c0.001-0.001,0.003-0.002,0.004-0.002c0.002-0.001,0.003-0.002,0.005-0.003
		c0.001-0.001,0.002-0.001,0.003-0.002c0.001-0.001,0.002-0.001,0.003-0.002c0.001-0.001,0.001-0.001,0.003-0.002
		c0.002-0.001,0.004-0.002,0.005-0.003c0.001,0,0.001-0.001,0.002-0.001c0.001-0.001,0.003-0.002,0.004-0.003
		c0,0,0.001-0.001,0.002-0.001c0.002-0.001,0.004-0.002,0.006-0.004c0,0,0,0,0.001,0c0.002-0.001,0.004-0.002,0.006-0.004l0,0
		c0.087-0.052,0.173-0.106,0.259-0.161L18.483,22.569L18.483,22.569z M20.212,21.264c-0.108,0.097-0.217,0.191-0.328,0.283
		l1.283,1.535c0.019-0.016,0.038-0.032,0.057-0.048c0,0,0,0,0.001-0.001c0.001-0.001,0.002-0.002,0.004-0.003
		c0,0,0.001-0.001,0.001-0.001c0.002-0.002,0.004-0.004,0.007-0.006c0,0,0.001-0.001,0.001-0.001
		c0.001-0.001,0.002-0.002,0.003-0.003c0.001-0.001,0.001-0.001,0.002-0.002c0.001-0.001,0.003-0.003,0.005-0.004
		c0.001-0.001,0.002-0.002,0.003-0.002c0.001-0.001,0.002-0.001,0.003-0.002c0.001-0.001,0.002-0.001,0.003-0.002
		c0.001-0.001,0.002-0.001,0.002-0.002c0.001-0.001,0.002-0.002,0.003-0.003c0.001-0.001,0.002-0.002,0.004-0.003
		c0.001-0.001,0.002-0.002,0.003-0.003c0.001-0.001,0.001-0.001,0.002-0.002c0.001-0.001,0.003-0.002,0.004-0.003
		c0.001-0.001,0.001,0,0.001-0.001c0.002-0.001,0.003-0.003,0.005-0.004c0,0,0.001-0.001,0.001-0.001
		c0.001-0.001,0.003-0.002,0.004-0.004c0,0,0.001-0.001,0.001-0.001c0.004-0.003,0.007-0.006,0.011-0.009
		c0,0,0.001-0.001,0.001-0.001c0.004-0.003,0.007-0.006,0.011-0.009c0,0,0,0,0.001-0.001c0.002-0.001,0.003-0.003,0.005-0.004l0,0
		c0.004-0.003,0.008-0.006,0.011-0.01c0,0,0,0,0.001-0.001c0.004-0.003,0.007-0.006,0.011-0.01c0,0,0,0,0.001-0.001
		c0.002-0.001,0.003-0.003,0.005-0.004l0.001,0c0.002-0.002,0.004-0.003,0.006-0.005l0,0c0.002-0.002,0.003-0.003,0.005-0.004
		c0,0,0.001-0.001,0.001-0.001c0.004-0.003,0.007-0.006,0.011-0.009c0,0,0.001-0.001,0.001-0.001
		c0.002-0.001,0.003-0.003,0.005-0.004l0.001,0c0.002-0.002,0.004-0.003,0.005-0.005c0,0,0.001-0.001,0.001-0.001
		c0.001-0.001,0.003-0.002,0.004-0.004c0,0,0.001-0.001,0.001-0.001c0.002-0.002,0.004-0.003,0.005-0.005l0,0
		c0.002-0.001,0.003-0.003,0.005-0.004c0.001-0.001,0.001-0.001,0.002-0.001c0.001-0.001,0.003-0.002,0.004-0.003
		c0.001-0.001,0.001-0.001,0.002-0.002c0.002-0.001,0.003-0.003,0.005-0.004c0,0,0.001-0.001,0.002-0.001
		c0.001-0.001,0.002-0.002,0.004-0.003c0,0,0.002-0.001,0.002-0.002c0.002-0.001,0.003-0.003,0.005-0.004
		c0.001-0.001,0.001-0.001,0.002-0.002c0.001-0.001,0.002-0.002,0.003-0.003c0.001-0.001,0.002-0.002,0.003-0.002
		c0.001-0.001,0.001-0.001,0.002-0.002c0.002-0.002,0.004-0.004,0.007-0.006c0,0,0,0,0.001,0c0.001-0.001,0.002-0.002,0.004-0.003
		c0,0,0.001-0.001,0.001-0.001c0.034-0.03,0.068-0.06,0.102-0.09L20.212,21.264L20.212,21.264z M21.692,19.695
		c-0.09,0.113-0.181,0.224-0.274,0.333l1.523,1.296c0.108-0.126,0.213-0.255,0.318-0.386L21.692,19.695L21.692,19.695z
		 M22.878,17.901c-0.069,0.127-0.14,0.252-0.212,0.375l1.723,1.015c0.01-0.018,0.021-0.035,0.031-0.053c0,0,0.001-0.001,0.001-0.002
		c0.001-0.001,0.002-0.003,0.003-0.004c0,0,0.001-0.002,0.001-0.002c0.001-0.001,0.002-0.003,0.002-0.004
		c0.001-0.002,0.002-0.003,0.003-0.005c0-0.001,0.001-0.002,0.001-0.002c0.001-0.001,0.002-0.003,0.002-0.004
		c0-0.001,0.001-0.001,0.001-0.002c0.001-0.002,0.001-0.003,0.002-0.004c0,0,0-0.001,0.001-0.001
		c0.034-0.059,0.068-0.118,0.101-0.178c0,0,0,0,0,0c0.001-0.002,0.002-0.003,0.003-0.005c0,0,0,0,0-0.001
		c0.001-0.002,0.002-0.003,0.003-0.005v0c0.002-0.003,0.004-0.007,0.005-0.01c0,0,0-0.001,0.001-0.001
		c0.001-0.001,0.001-0.002,0.002-0.004c0-0.001,0.001-0.002,0.001-0.003c0-0.001,0.001-0.002,0.002-0.003
		c0.001-0.001,0.001-0.002,0.002-0.003c0.001-0.001,0.001-0.003,0.002-0.004c0.001-0.002,0.002-0.003,0.003-0.005
		c0-0.001,0.001-0.002,0.002-0.003c0.001-0.001,0.001-0.002,0.002-0.003c0-0.001,0.001-0.002,0.002-0.003
		c0.001-0.001,0.001-0.002,0.002-0.003c0.001-0.001,0.001-0.002,0.002-0.003c0-0.001,0.001-0.001,0.001-0.002
		c0.001-0.003,0.002-0.004,0.004-0.007c0-0.001,0.001-0.001,0.001-0.002c0.001-0.001,0.001-0.002,0.002-0.003
		c0.001-0.001,0.001-0.002,0.002-0.003c0.001-0.001,0.001-0.002,0.002-0.003c0-0.001,0.001-0.002,0.001-0.003
		c0.002-0.004,0.005-0.008,0.007-0.013c0-0.001,0.001-0.001,0.001-0.002c0.001-0.001,0.002-0.003,0.002-0.004
		c0,0,0.001-0.001,0.001-0.001c0.003-0.005,0.006-0.01,0.008-0.015c0,0,0,0,0,0c0.001-0.002,0.002-0.003,0.003-0.005c0,0,0,0,0,0
		c0.009-0.017,0.019-0.034,0.028-0.052L22.878,17.901L22.878,17.901z M23.743,15.923c-0.047,0.138-0.096,0.274-0.146,0.408
		l1.871,0.707c0.015-0.04,0.03-0.08,0.045-0.121c0,0,0-0.001,0-0.001c0.001-0.002,0.001-0.003,0.002-0.005c0,0,0-0.001,0-0.001
		c0.001-0.002,0.001-0.003,0.002-0.005c0,0,0,0,0-0.001c0.002-0.006,0.004-0.011,0.006-0.017c0,0,0,0,0,0
		c0.001-0.002,0.001-0.003,0.002-0.005c0-0.001,0-0.001,0.001-0.002c0.001-0.002,0.001-0.003,0.002-0.005
		c0-0.001,0.001-0.001,0.001-0.002c0.001-0.002,0.001-0.003,0.002-0.004c0-0.001,0.001-0.001,0.001-0.002
		c0.001-0.003,0.002-0.005,0.003-0.008c0-0.001,0.001-0.001,0.001-0.002c0-0.001,0.001-0.003,0.001-0.004
		c0-0.001,0.001-0.002,0.001-0.003c0-0.001,0.001-0.002,0.001-0.003c0.001-0.001,0.001-0.003,0.002-0.004
		c0-0.001,0.001-0.001,0.001-0.002c0.001-0.002,0.001-0.003,0.002-0.005c0-0.001,0-0.001,0.001-0.002
		c0.001-0.002,0.002-0.004,0.002-0.007l0,0c0.001-0.002,0.002-0.004,0.002-0.007c0-0.001,0-0.001,0.001-0.001
		c0.001-0.002,0.001-0.004,0.002-0.005c0-0.001,0-0.001,0.001-0.002c0.001-0.002,0.001-0.003,0.002-0.005
		c0-0.001,0-0.001,0.001-0.002c0.003-0.007,0.005-0.014,0.008-0.021c0-0.001,0,0,0-0.001c0.001-0.002,0.002-0.004,0.002-0.007l0,0
		c0.025-0.069,0.049-0.138,0.072-0.207L23.743,15.923L23.743,15.923z M24.277,13.808c-0.025,0.146-0.052,0.29-0.081,0.432
		l1.96,0.398c0.001-0.006,0.002-0.012,0.004-0.018c0,0,0-0.001,0-0.001c0-0.002,0.001-0.003,0.001-0.005
		c0-0.001,0-0.002,0.001-0.003c0-0.001,0.001-0.003,0.001-0.004c0-0.002,0.001-0.004,0.001-0.006c0-0.001,0,0,0-0.001
		c0.03-0.15,0.058-0.301,0.084-0.454L24.277,13.808L24.277,13.808z M24.493,11.604c-0.004,0.15-0.011,0.299-0.019,0.446l1.997,0.111
		c0.002-0.031,0.003-0.062,0.005-0.093c0-0.001,0,0,0-0.001c0-0.002,0-0.004,0-0.006c0-0.001,0-0.002,0-0.002
		c0-0.001,0-0.003,0-0.004c0-0.002,0-0.003,0-0.004c0-0.001,0-0.001,0-0.002c0.006-0.128,0.011-0.257,0.015-0.387L24.493,11.604
		L24.493,11.604z M26.177,9.196L24.29,9.861c0.035,0.101,0.067,0.203,0.093,0.308l1.938-0.494c-0.028-0.111-0.06-0.22-0.094-0.328
		c0,0,0,0,0,0c0-0.001-0.001-0.002-0.001-0.004c0,0,0-0.001,0-0.001c0-0.001-0.001-0.002-0.001-0.003c0-0.001,0-0.001-0.001-0.002
		c0-0.001,0-0.002-0.001-0.002c0-0.001,0-0.001-0.001-0.002c0-0.001,0-0.001-0.001-0.002c0-0.001,0-0.002-0.001-0.002
		c0-0.001,0-0.001,0-0.001C26.207,9.284,26.192,9.24,26.177,9.196L26.177,9.196z M24.851,7.102l-1.406,1.423
		c0.075,0.075,0.147,0.152,0.216,0.234l1.529-1.289c0,0-0.001-0.001-0.001-0.002c-0.001-0.001-0.001-0.002-0.002-0.002
		c-0.001-0.001-0.002-0.002-0.003-0.004c-0.001-0.001-0.001-0.002-0.002-0.002c-0.001-0.001-0.002-0.002-0.003-0.003
		c-0.001-0.001-0.002-0.002-0.002-0.003c-0.001-0.001-0.002-0.002-0.003-0.003c-0.001-0.001-0.002-0.002-0.003-0.003
		c-0.001-0.001-0.002-0.002-0.002-0.003c-0.001-0.001-0.002-0.002-0.003-0.003c-0.001-0.001-0.001-0.001-0.002-0.002
		c-0.001-0.001-0.002-0.003-0.004-0.004c0-0.001-0.001-0.001-0.001-0.002c-0.001-0.001-0.003-0.003-0.004-0.004
		c0-0.001-0.001-0.001-0.001-0.002c-0.001-0.002-0.003-0.003-0.004-0.005c0-0.001-0.001-0.001-0.001-0.001
		c-0.001-0.002-0.003-0.003-0.004-0.005c0,0-0.001-0.001-0.001-0.001c-0.001-0.002-0.003-0.003-0.004-0.005
		c0,0-0.001-0.001-0.001-0.001c-0.001-0.002-0.003-0.003-0.004-0.005c0,0,0-0.001-0.001-0.001c-0.001-0.002-0.003-0.003-0.004-0.005
		c0,0-0.001-0.001-0.001-0.001c-0.001-0.002-0.003-0.003-0.005-0.005c0,0-0.001-0.001-0.001-0.001
		c-0.001-0.002-0.003-0.003-0.004-0.005c0,0,0,0-0.001-0.001c-0.002-0.002-0.003-0.003-0.005-0.005c0,0,0,0-0.001-0.001
		c-0.002-0.002-0.003-0.003-0.005-0.005c0,0,0,0-0.001-0.001C25.025,7.281,24.939,7.19,24.851,7.102L24.851,7.102z M22.741,5.802
		l-0.642,1.894c0.102,0.034,0.201,0.073,0.299,0.116l0.809-1.829c-0.019-0.008-0.038-0.017-0.057-0.025c0,0,0,0-0.001,0
		c-0.002-0.001-0.004-0.002-0.007-0.003c0,0,0,0-0.001,0c-0.002-0.001-0.004-0.002-0.006-0.003c0,0-0.001,0-0.001,0
		c-0.002-0.001-0.004-0.002-0.006-0.003c0,0,0,0-0.001,0c-0.002-0.001-0.004-0.002-0.006-0.003c0,0-0.001,0-0.001,0
		c-0.002-0.001-0.004-0.002-0.006-0.002c0,0-0.001,0-0.002-0.001c-0.002-0.001-0.004-0.002-0.006-0.002c0,0-0.001-0.001-0.002-0.001
		c-0.002-0.001-0.004-0.002-0.006-0.002c0,0-0.001-0.001-0.002-0.001c-0.002-0.001-0.004-0.002-0.006-0.002
		c0,0-0.001-0.001-0.002-0.001c-0.002-0.001-0.003-0.001-0.005-0.002c-0.001,0-0.001-0.001-0.002-0.001
		c-0.002-0.001-0.003-0.001-0.005-0.002c-0.001,0-0.001,0-0.002-0.001c-0.002-0.001-0.004-0.002-0.006-0.002
		c-0.001,0-0.001,0-0.002-0.001c-0.002-0.001-0.004-0.001-0.005-0.002c-0.001,0-0.001-0.001-0.002-0.001
		c-0.002-0.001-0.004-0.001-0.005-0.002c-0.001,0-0.001-0.001-0.002-0.001c-0.002-0.001-0.004-0.002-0.006-0.002
		c-0.001,0-0.001,0-0.002-0.001c-0.002-0.001-0.003-0.001-0.005-0.002c0,0-0.001,0-0.002-0.001
		c-0.002-0.001-0.004-0.001-0.005-0.002c0,0-0.001,0-0.002-0.001c-0.002-0.001-0.004-0.002-0.006-0.002
		c-0.001,0-0.001,0-0.002-0.001c-0.002-0.001-0.004-0.002-0.006-0.002c-0.001,0-0.001,0-0.001-0.001
		c-0.002-0.001-0.004-0.002-0.006-0.002c0,0-0.001,0-0.001,0C23.01,5.901,23.008,5.9,23.005,5.899c0,0,0,0-0.001,0
		C23,5.897,22.996,5.895,22.991,5.893c0,0,0,0-0.001,0c-0.002-0.001-0.005-0.002-0.007-0.003c0,0,0,0,0,0
		c-0.002-0.001-0.005-0.002-0.007-0.003l0,0C22.899,5.857,22.82,5.828,22.741,5.802L22.741,5.802z"/>
</g>
<circle cx="13" cy="20" r="3"/>
<circle cx="20.5" cy="11.5" r="1.5"/>
<circle cx="20" cy="17" r="1"/>
</svg>
