<?xml version="1.0" encoding="iso-8859-1"?>
<!-- Generator: Adobe Illustrator 19.1.0, SVG Export Plug-In . SVG Version: 6.00 Build 0)  -->
<svg version="1.1" id="Layer_1" xmlns="http://www.w3.org/2000/svg" xmlns:xlink="http://www.w3.org/1999/xlink" x="0px" y="0px"
	 viewBox="0 0 32 32" style="enable-background:new 0 0 32 32;" xml:space="preserve">
<path style="fill:none;stroke:#000000;stroke-width:2;stroke-linecap:round;stroke-linejoin:round;stroke-miterlimit:10;" d="
	M8.996,13.698C9.058,12.237,8.372,11,7.061,11C5.687,11,5,12.237,5,13.247C5,14.652,5.874,16,7.061,16
	C8.247,16,8.934,15.159,8.996,13.698z"/>
<path style="fill:none;stroke:#000000;stroke-width:2;stroke-linecap:round;stroke-linejoin:round;stroke-miterlimit:10;" d="
	M16.995,13C17.95,13,19,12.18,19,10c0.051-1.31-0.557-3-1.612-3C16.133,7,15,8.64,15,10C15,11.825,15.534,13,16.995,13z"/>
<path style="fill:none;stroke:#000000;stroke-width:2;stroke-linecap:round;stroke-linejoin:round;stroke-miterlimit:10;" d="
	M21.886,15c1.085,0,2.064-1.314,2.114-2.617C24.049,11.08,23.469,10,22.131,10C20.67,10,20,11.111,20,12.821
	C20,14.073,20.802,15,21.886,15z"/>
<path style="fill:none;stroke:#000000;stroke-width:2;stroke-linecap:round;stroke-linejoin:round;stroke-miterlimit:10;" d="
	M25.631,15C23.974,15,23,16.788,23,18.027C23,19.175,23.779,20,24.706,20c1.364,0,2.242-1.284,2.29-2.476
	C27.044,16.33,26.654,15,25.631,15z"/>
<path style="fill:none;stroke:#000000;stroke-width:2;stroke-linecap:round;stroke-linejoin:round;stroke-miterlimit:10;" d="
	M11.747,12C12.752,12,14,11.222,14,9.753C14,7.467,13.595,6,12.637,6C10.593,6,10,8.859,10,9.703C10,10.875,10.74,12,11.747,12z"/>
<path d="M26.91,16c0.287-1.881-0.166-2.97-0.598-3c-0.257-0.017-1.127,1.203-1.312,2.135L26.91,16z"/>
<path d="M23.91,11c0.287-1.881-0.166-2.97-0.598-3C23.055,7.983,22.185,9.204,22,10.136L23.91,11z"/>
<path d="M18.91,8c0.287-1.881-0.349-3-0.598-3C18.055,4.983,17.185,6.204,17,7.136L18.91,8z"/>
<path d="M7,11.136C6.815,10.204,6.571,8.983,6.314,9C5.882,9.03,5.09,10.328,5.09,12L7,11.136z"/>
<path d="M13.414,6.549c0.237-1.025,0.157-2.566-0.1-2.549c-0.432,0.03-2.224,1.328-2.224,3L13.414,6.549z"/>
<path style="fill:none;stroke:#000000;stroke-width:2;stroke-linecap:round;stroke-linejoin:round;stroke-miterlimit:10;" d="M20,21
	c-2.286,0-1.112-5-5.632-5c-3.404,0-3.238,3-4.868,3C7.567,19,6,20.567,6,22.5S7.567,26,9.5,26c1.432,0,4.375-0.25,5.5,0
	c0.763,0.17,3.413,1,5,1c1.657,0,3-1.343,3-3S21.657,21,20,21z"/>
</svg>
