<?xml version="1.0" encoding="utf-8"?>
<!-- Generator: Adobe Illustrator 18.1.1, SVG Export Plug-In . SVG Version: 6.00 Build 0)  -->
<svg version="1.1" id="Layer_1" xmlns="http://www.w3.org/2000/svg" xmlns:xlink="http://www.w3.org/1999/xlink" x="0px" y="0px"
	 viewBox="0 0 32 32" enable-background="new 0 0 32 32" xml:space="preserve">
<path id="XMLID_8_" fill="none" stroke="#000000" stroke-width="2" stroke-miterlimit="10" d="M16,29c0-5.7,10-6,10-14"/>
<path id="XMLID_10_" fill="none" stroke="#000000" stroke-width="2" stroke-miterlimit="10" d="M16,29c0-7.1-9-3.2-9-10"/>
<circle cx="21" cy="11.8" r="1.5"/>
<circle cx="15" cy="8.8" r="1.5"/>
<path fill="none" stroke="#000000" stroke-width="2" stroke-miterlimit="10" d="M19.6,6.5L19.6,6.5c0.3-2.4-2.3-4.1-4.4-2.9
	l-0.5,0.3l-0.6-0.3C12,2.7,9.5,4.6,10.1,7l0.1,0.6L9.8,8c-1.6,1.8-0.5,4.7,1.9,4.9l0.6,0.1l0.3,0.5c0.7,1.2,2,1.7,3.2,1.4"/>
<path id="XMLID_7090_" fill="none" stroke="#000000" stroke-width="2" stroke-miterlimit="10" d="M26,10.5l-0.5-0.4l0.1-0.6
	c0.3-2.4-2.3-4.1-4.4-2.9l-0.5,0.3l-0.6-0.3c-2.2-1-4.6,0.9-4.1,3.3l0.1,0.6L15.8,11c-1.6,1.8-0.5,4.7,1.9,4.9l0.6,0.1l0.3,0.5
	c1.2,2.1,4.3,2,5.2-0.3l0.2-0.6l0.6-0.1C27,15.1,27.8,12.1,26,10.5z"/>
<circle cx="11" cy="14.8" r="1.5"/>
<path fill="none" stroke="#000000" stroke-width="2" stroke-miterlimit="10" d="M9.1,9.4C7.2,9.3,5.6,11,6.1,13l0.1,0.6L5.8,14
	c-1.6,1.8-0.5,4.7,1.9,4.9L8.3,19l0.3,0.5c1.2,2.1,4.3,2,5.2-0.3l0.2-0.6l0.6-0.1c1.5-0.3,2.3-1.5,2.4-2.8"/>
<path fill="none" stroke="#000000" stroke-width="2" stroke-miterlimit="10" d="M16,29c0-7.9,3.4-8.6,3.4-11.5"/>
<path fill="none" stroke="#000000" stroke-width="2" stroke-miterlimit="10" d="M16,29c0-5-1.9-10.3-1.9-10.3"/>
</svg>
