<?xml version="1.0" encoding="iso-8859-1"?>
<!-- Generator: Adobe Illustrator 19.1.1, SVG Export Plug-In . SVG Version: 6.00 Build 0)  -->
<svg version="1.1" id="Layer_1" xmlns="http://www.w3.org/2000/svg" xmlns:xlink="http://www.w3.org/1999/xlink" x="0px" y="0px"
	 viewBox="0 0 32 32" style="enable-background:new 0 0 32 32;" xml:space="preserve">
<line style="fill:none;stroke:#000000;stroke-width:2;stroke-miterlimit:10;" x1="18" y1="21" x2="20.209" y2="23.964"/>
<line style="fill:none;stroke:#000000;stroke-width:2;stroke-miterlimit:10;" x1="15" y1="23" x2="17.209" y2="25.964"/>
<path style="fill:none;stroke:#000000;stroke-width:2;stroke-miterlimit:10;" d="M22,21l4-2l3-1v-8c-4.623,0-6.756-1.976-8-2
	c-2.537-0.048-3.619-0.425-6.454,2.385L9,15c0,0,2.5,2.625,4.958,0.917l2.729-2.229L21,19c1.055,1.045,1.055,2.755,0,3.8
	c0,0-4.088,2.836-5.452,3.661c-0.987,0.597-2.906,0.92-3.835,0L5,19l-2-1v-8l0,0c4.623,0,6.756-1.933,8-1.957
	C12.98,8.005,14.073,7.768,15.805,9"/>
</svg>
