<?xml version="1.0" encoding="iso-8859-1"?>
<!-- Generator: Adobe Illustrator 22.1.0, SVG Export Plug-In . SVG Version: 6.00 Build 0)  -->
<svg version="1.1" id="Layer_1_1_" xmlns="http://www.w3.org/2000/svg" xmlns:xlink="http://www.w3.org/1999/xlink" x="0px" y="0px"
	 viewBox="0 0 32 32" style="enable-background:new 0 0 32 32;" xml:space="preserve">
<g>
</g>
<path d="M27,9h-2V5h2c1.105,0,2,0.895,2,2l0,0C29,8.105,28.105,9,27,9z"/>
<path d="M5,5h2v4H5C3.895,9,3,8.105,3,7l0,0C3,5.895,3.895,5,5,5z"/>
<path style="fill:none;stroke:#000000;stroke-width:2;stroke-miterlimit:10;" d="M25,6v18c0,1.105-0.895,2-2,2H9
	c-1.105,0-2-0.895-2-2V6H25z"/>
<line style="fill:none;stroke:#000000;stroke-width:2;stroke-miterlimit:10;" x1="20" y1="19" x2="20" y2="23"/>
<line style="fill:none;stroke:#000000;stroke-width:2;stroke-miterlimit:10;" x1="20" y1="13" x2="20" y2="17"/>
<line style="fill:none;stroke:#000000;stroke-width:2;stroke-miterlimit:10;" x1="20" y1="7" x2="20" y2="11"/>
<line style="fill:none;stroke:#000000;stroke-width:2;stroke-miterlimit:10;" x1="13" y1="7" x2="13" y2="13"/>
<rect x="12" y="18" width="4" height="5"/>
</svg>
