<?xml version="1.0" encoding="iso-8859-1"?>
<!-- Generator: Adobe Illustrator 21.0.0, SVG Export Plug-In . SVG Version: 6.00 Build 0)  -->
<svg version="1.1" id="Layer_1" xmlns="http://www.w3.org/2000/svg" xmlns:xlink="http://www.w3.org/1999/xlink" x="0px" y="0px"
	 viewBox="0 0 32 32" style="enable-background:new 0 0 32 32;" xml:space="preserve">
<path style="fill:none;stroke:#000000;stroke-width:2;stroke-miterlimit:10;" d="M21,27H11c-1.1,0-2-0.9-2-2V7c0-1.1,0.9-2,2-2h10
	c1.1,0,2,0.9,2,2v18C23,26.1,22.1,27,21,27z"/>
<circle cx="16" cy="24" r="1"/>
<line style="stroke:#000000;stroke-width:2;stroke-miterlimit:10;" x1="14" y1="16" x2="14" y2="20"/>
<line style="stroke:#000000;stroke-width:2;stroke-miterlimit:10;" x1="17" y1="19" x2="13" y2="19"/>
<rect x="13" y="11" width="2" height="3"/>
<rect x="13" y="6" width="2" height="3"/>
<rect x="19.5" y="17.5" transform="matrix(-1.836970e-16 1 -1 -1.836970e-16 39.5 -1.5)" width="2" height="3"/>
</svg>
