<?xml version="1.0" encoding="iso-8859-1"?>
<!-- Generator: Adobe Illustrator 19.1.0, SVG Export Plug-In . SVG Version: 6.00 Build 0)  -->
<svg version="1.1" id="Layer_1" xmlns="http://www.w3.org/2000/svg" xmlns:xlink="http://www.w3.org/1999/xlink" x="0px" y="0px"
	 viewBox="0 0 32 32" style="enable-background:new 0 0 32 32;" xml:space="preserve">
<path style="fill:none;stroke:#000000;stroke-width:2;stroke-miterlimit:10;" d="M20,5.837C20,5.837,21.098,4,23.678,4
	C25.312,4,27,5.253,27,7.262c0,1.634-1.192,3.095-1.192,3.095"/>
<path style="fill:none;stroke:#000000;stroke-width:2;stroke-miterlimit:10;" d="M20.505,22.196c0,0,1.495-1.215,1.495-2.733
	c0-2.656-3-3.289-3-5.276C19,12.969,20.089,12,21,12h1"/>
<polygon points="19,14 22,14 22,11.901 19.8,12.088 "/>
<path d="M21,13h3c-0.257-1.087-1-2-1-2h-1L21,13z"/>
<path style="fill:none;stroke:#000000;stroke-width:2;stroke-miterlimit:10;" d="M19,19.854c0,0-0.408-0.854-1.2-0.854
	S16,19.768,16,19.768S14.992,19,14.2,19S13,19.854,13,19.854"/>
<path style="fill:none;stroke:#000000;stroke-width:2;stroke-miterlimit:10;" d="M19,24c-0.826,0-3-0.247-3-2"/>
<path style="fill:none;stroke:#000000;stroke-width:2;stroke-miterlimit:10;" d="M12,5.837C12,5.837,10.902,4,8.322,4
	C6.688,4,5,5.253,5,7.262c0,1.634,1.192,3.095,1.192,3.095"/>
<path style="fill:none;stroke:#000000;stroke-width:2;stroke-miterlimit:10;" d="M16,5c9.733,0,12,10.178,12,14
	c-4.999,3.782-5.996,9-12,9s-7.001-5.218-12-9C4,15.178,6.267,5,16,5z"/>
<path style="fill:none;stroke:#000000;stroke-width:2;stroke-miterlimit:10;" d="M13,24c0.826,0,3-0.247,3-2"/>
<circle cx="26.5" cy="14.5" r="1.5"/>
<circle cx="21.5" cy="7.5" r="1.5"/>
<circle cx="25.5" cy="19.5" r="1.5"/>
<path style="fill:none;stroke:#000000;stroke-width:2;stroke-miterlimit:10;" d="M11.495,22.196c0,0-1.495-1.215-1.495-2.733
	c0-2.656,3-3.289,3-5.276C13,12.969,11.911,12,11,12h-1"/>
<polygon points="13,14 10,14 10,11.901 12.2,12.088 "/>
<path d="M11,13H8c0.257-1.087,1-2,1-2h1L11,13z"/>
<circle cx="5.5" cy="14.5" r="1.5"/>
<circle cx="10.5" cy="7.5" r="1.5"/>
<circle cx="6.5" cy="19.5" r="1.5"/>
<circle cx="16" cy="10" r="1"/>
<path d="M18,5c0,1.105-0.895,2-2,2s-2-0.895-2-2S18,3.895,18,5z"/>
</svg>
