<?xml version="1.0" encoding="UTF-8" standalone="no"?><!DOCTYPE svg PUBLIC "-//W3C//DTD SVG 1.1//EN" "http://www.w3.org/Graphics/SVG/1.1/DTD/svg11.dtd"><svg width="100%" height="100%" viewBox="0 0 32 32" version="1.1" xmlns="http://www.w3.org/2000/svg" xmlns:xlink="http://www.w3.org/1999/xlink" xml:space="preserve" style="fill-rule:evenodd;clip-rule:evenodd;stroke-linejoin:round;stroke-miterlimit:1.41421;"><g ><path d="M13.487,16.492l1.498,0.002l-0.782,-1.341l-1.647,2.847l-1.15,-0.008l2.118,-3.668c0.153,-0.264 0.484,-0.333 0.685,-0.332c0.169,0.001 0.45,-0.014 0.666,0.319l2.125,3.681l-1.155,0l-0.282,-0.496l-1.493,-0.005l-0.583,-0.999Z" style="fill-rule:nonzero;"/><path d="M24,17.001l0,-3.001l-1,0.001l0,3.616c0,0.099 0.036,0.195 0.108,0.268c0.07,0.074 0.165,0.115 0.269,0.115l2.623,0.008l1,-1.008l-3,0l0,0.001Z" style="fill-rule:nonzero;"/><path d="M9.978,16.799c0,0 1.016,-0.298 1.022,-1.321c0.005,-0.843 -0.508,-1.469 -1.369,-1.478l-2.631,0l0,4l1,0l0,-3l1.28,0c0.38,-0.003 0.72,0.137 0.72,0.495c0,0.357 -0.33,0.508 -0.673,0.508l-1.325,-0.002l1.696,2.007l1.302,-0.009l-1.022,-1.2Z" style="fill-rule:nonzero;"/><path d="M4,14l-2,0c-1.06,0 -2,0.951 -2,2.055c0,1.104 0.94,1.945 2,1.945l2,-0.001c1.06,0 2,-0.895 2,-1.999c0,-1.105 -0.94,-2 -2,-2Zm0,3l-2,0c-0.456,-0.004 -0.922,-0.531 -0.922,-0.987c0,-0.562 0.532,-1.022 0.922,-1.013l2,0c0.199,0.003 0.909,0.305 0.906,0.994c-0.003,0.752 -0.652,1.004 -0.906,1.006Z" style="fill-rule:nonzero;"/><path d="M22,16.992l-3.089,0.008c-0.562,-0.007 -0.901,-0.545 -0.911,-1.004c-0.014,-0.497 0.361,-1.017 0.916,-1.024l2.084,0.028l1,-1.008l-3.079,0c-1.061,0 -1.921,0.896 -1.921,2c0,1.105 0.86,2 1.921,2l2.079,0.016l1,-1.016Z" style="fill-rule:nonzero;"/><path d="M31.991,15.526c0,0 -2.981,0.017 -4.003,0.023c0.095,-0.462 0.8,-0.541 0.8,-0.541l2.212,0l1,-1l-3.199,0c-1.061,0 -1.921,0.896 -1.921,2c0,1.105 0.86,2 1.921,2l2.199,0l1,-1l-3.212,0c-0.245,0.028 -0.704,-0.177 -0.814,-0.608l3.024,0.036l0.993,-0.91Z" style="fill-rule:nonzero;"/></g></svg>