<?xml version="1.0" encoding="iso-8859-1"?>
<!-- Generator: Adobe Illustrator 21.1.0, SVG Export Plug-In . SVG Version: 6.00 Build 0)  -->
<svg version="1.1" id="Layer_1" xmlns="http://www.w3.org/2000/svg" xmlns:xlink="http://www.w3.org/1999/xlink" x="0px" y="0px"
	 viewBox="0 0 32 32" style="enable-background:new 0 0 32 32;" xml:space="preserve">
<image style="display:none;overflow:visible;opacity:0.61;" width="319" height="105" xlink:href="182BBA35.jpg"  transform="matrix(0.1129 0 0 0.1746 -1.4996 9.5204)">
</image>
<circle style="fill:none;stroke:#000000;stroke-width:2;stroke-miterlimit:10;" cx="25" cy="22" r="3"/>
<circle style="fill:none;stroke:#000000;stroke-width:2;stroke-miterlimit:10;" cx="8" cy="22" r="3"/>
<line style="fill:none;stroke:#000000;stroke-width:2;stroke-miterlimit:10;" x1="11" y1="22" x2="22" y2="22"/>
<path style="fill:none;stroke:#000000;stroke-width:2;stroke-miterlimit:10;" d="M23,13.494c0,0-3-6.494-4-6.494C11,7,5,12.042,1,18
	v4h4"/>
<line style="fill:none;stroke:#000000;stroke-width:2;stroke-miterlimit:10;" x1="0" y1="13.042" x2="5.563" y2="13"/>
<path style="fill:none;stroke:#000000;stroke-width:2;stroke-miterlimit:10;" d="M11,8.835C9.592,9.568,8,10.71,8,12c0,1,1,1,1,1h20
	c1.105,0,2,0.895,2,2v5c0,0,0,2-2,2h-1"/>
<line style="display:none;fill:none;stroke:#000000;stroke-width:2;stroke-miterlimit:10;" x1="13" y1="18" x2="16" y2="18"/>
<line style="fill:none;stroke:#000000;stroke-width:2;stroke-miterlimit:10;" x1="12" y1="8" x2="14.583" y2="13"/>
</svg>
