<?xml version="1.0" encoding="iso-8859-1"?>
<!-- Generator: Adobe Illustrator 19.2.0, SVG Export Plug-In . SVG Version: 6.00 Build 0)  -->
<svg version="1.1" id="Layer_1" xmlns="http://www.w3.org/2000/svg" xmlns:xlink="http://www.w3.org/1999/xlink" x="0px" y="0px"
	 viewBox="0 0 32 32" style="enable-background:new 0 0 32 32;" xml:space="preserve">
<circle cx="15" cy="5" r="1"/>
<path style="fill:none;stroke:#000000;stroke-width:2;stroke-miterlimit:10;" d="M14,19c0,2.064-1,2.633-1,3.322
	C13,23.589,14.335,24,15.089,24c2.903,0,2.456,3,4.911,3h2c0-2.749-2.951-5.462-4.745-5.462"/>
<path style="fill:none;stroke:#000000;stroke-width:2;stroke-miterlimit:10;" d="M21,9.375L19.637,11c0,0-2.101-1-4.185-1
	C12.25,10,9,11.233,9,15.259C9,18.657,12.655,20,14,20"/>
<path style="fill:none;stroke:#000000;stroke-width:2;stroke-miterlimit:10;" d="M18.733,19.067c0,0,4.267-0.562,4.267-6.067"/>
<circle cx="25" cy="11" r="1"/>
<path style="fill:none;stroke:#000000;stroke-width:2;stroke-miterlimit:10;" d="M23,14c3.173,0,4-0.935,4-0.935
	C27,9.258,24.989,8,23.126,8c-0.967-0.814-3.429-3-8.1-3"/>
<path style="fill:none;stroke:#000000;stroke-width:2;stroke-miterlimit:10;" d="M16.696,21.741c0,0,2.304-1.644,2.304-4.054
	C19,15.39,17,14,17,14"/>
<circle cx="7.5" cy="16.5" r="1.5"/>
<g>
	<path d="M11.868,8H4v2h4.477C9.351,9.098,10.493,8.42,11.868,8z"/>
	<path d="M7.136,12H4v2h2.594C6.694,13.283,6.871,12.612,7.136,12z"/>
</g>
</svg>
