<?xml version="1.0" encoding="iso-8859-1"?>
<!-- Generator: Adobe Illustrator 19.1.1, SVG Export Plug-In . SVG Version: 6.00 Build 0)  -->
<svg version="1.1" id="Layer_1" xmlns="http://www.w3.org/2000/svg" xmlns:xlink="http://www.w3.org/1999/xlink" x="0px" y="0px"
	 viewBox="0 0 32 32" style="enable-background:new 0 0 32 32;" xml:space="preserve">
<path d="M4.707,28.707l-1.414-1.414c0.791-0.791,4.98-4.897,7.314-10.431c0.532,0.026,1.245,0.102,2.05,0.283
	C10.683,22.549,5.604,27.811,4.707,28.707z M4.862,22.805c0.547-0.696,1.159-1.483,1.513-1.97c-0.014-0.084-0.079-0.735-0.079-0.82
	c0-1.616,1.107-4.535,4.746-4.535c1.981,0,5.35,1.139,5.435,1.164c0.229-0.569,0.541-1.27,0.805-1.851
	c-0.168-0.049-3.874-1.302-6.24-1.302c-5.502,0-6.743,4.751-6.743,6.515C4.298,21.188,4.602,22.159,4.862,22.805z M27.474,5.99
	c0.392-0.423,1.375-1.44,1.807-1.873l-1.356-1.461c-0.441,0.441-1.49,1.514-1.891,1.946C26.541,4.97,27.052,5.463,27.474,5.99z
	 M22.837,8.472c-8.336,11.978-3.574,16.119-11.04,16.689c-0.566,0.043-1.09-0.056-1.578-0.148c-0.35,0.638-0.81,1.188-1.316,1.725
	c0.869,0.277,1.852,0.53,2.903,0.423c9.585-0.973,4.705-6.238,12.293-17.004C23.822,9.467,23.355,8.87,22.837,8.472z M25.036,5.71
	c-3.508-2.488-7.19-1.971-9.419,0.259c-1.634,1.634-2.402,3.704-3.217,6.087c0.528,0.067,1.26,0.175,2,0.333
	c0.716-2.077,1.374-3.749,2.631-5.006c1.454-1.455,4.179-1.879,6.719-0.121c2.729,1.889,2.567,6.005,1.26,7.313
	c-0.65,0.65-1.427,0.976-2.293,1.092c-0.249,0.646-0.511,1.382-0.74,2.045c1.624,0,3.162-0.437,4.447-1.723
	C29.024,13.39,28.55,8.202,25.036,5.71z"/>
</svg>
