<?xml version="1.0" encoding="iso-8859-1"?>
<!-- Generator: Adobe Illustrator 19.1.1, SVG Export Plug-In . SVG Version: 6.00 Build 0)  -->
<svg version="1.1"  xmlns="http://www.w3.org/2000/svg" xmlns:xlink="http://www.w3.org/1999/xlink" x="0px" y="0px"
	 viewBox="0 0 32 32" style="enable-background:new 0 0 32 32;" xml:space="preserve">
<path style="fill:none;stroke:#000000;stroke-width:2;stroke-miterlimit:10;" d="M3,20.127C3,20.127,7.255,23,16,23
	s13-2.873,13-2.873V20l-13-7L3,20V20.127z"/>
<path d="M16,28c-8.948,0-13.376-2.92-13.56-3.044L2,24.658v-2.2l1.56,0.84C3.598,23.323,7.723,26,16,26s12.402-2.677,12.443-2.704
	L30,22.5V24v0.658l-0.44,0.298C29.376,25.08,24.948,28,16,28z"/>
<polygon points="30,15.538 16,8 2,15.538 2,17.859 16,10.271 30,17.811 "/>
<polygon points="30,11.538 16,4 2,11.538 2,13.859 16,6.271 30,13.811 "/>
</svg>
