<?xml version="1.0" encoding="iso-8859-1"?>
<!-- Generator: Adobe Illustrator 19.2.0, SVG Export Plug-In . SVG Version: 6.00 Build 0)  -->
<svg version="1.1" id="Layer_1" xmlns="http://www.w3.org/2000/svg" xmlns:xlink="http://www.w3.org/1999/xlink" x="0px" y="0px"
	 viewBox="0 0 32 32" style="enable-background:new 0 0 32 32;" xml:space="preserve">
<path style="fill:none;stroke:#000000;stroke-width:2;stroke-miterlimit:10;" d="M3,27c0,0,3.01,0,4.625,0
	C13.15,27,15,24.593,15,22.042C15,19.167,13.5,16,13.5,16"/>
<path style="fill:none;stroke:#000000;stroke-width:2;stroke-miterlimit:10;" d="M12.02,15.836C12.327,15.942,12.657,16,13,16
	c1.657,0,3-1.343,3-3s-1.343-3-3-3s-3,1.319-3,3c0,11.101-4.069,14-7,14"/>
<path style="fill:none;stroke:#000000;stroke-width:2;stroke-miterlimit:10;" d="M11.843,10c0,0-0.843-1.262-0.843-4.5"/>
<circle cx="11.5" cy="5.5" r="1.5"/>
<path style="fill:none;stroke:#000000;stroke-width:2;stroke-miterlimit:10;" d="M13.843,10c0,0,1.157-0.262,1.157-3.5"/>
<circle cx="15.5" cy="6.5" r="1.5"/>
<path style="fill:none;stroke:#000000;stroke-width:2;stroke-miterlimit:10;" d="M26,24c0-5.5-1.996-9.582-1.996-9.582"/>
<path style="fill:none;stroke:#000000;stroke-width:2;stroke-miterlimit:10;" d="M26.212,20.166c0,0,1.787-1.25,1.787-3.999
	c0-4.327-7.135-7.991-7.135-7.991s-0.845,2.451-0.845,4.005c1.861,1.445,1.778,4.736-1.019,5.194c0,1.791,2.139,3.8,4.588,3.374"/>
</svg>
