<?xml version="1.0" encoding="iso-8859-1"?>
<!-- Generator: Adobe Illustrator 21.0.0, SVG Export Plug-In . SVG Version: 6.00 Build 0)  -->
<svg version="1.1"  xmlns="http://www.w3.org/2000/svg" xmlns:xlink="http://www.w3.org/1999/xlink" x="0px" y="0px"
	 viewBox="0 0 32 32" style="enable-background:new 0 0 32 32;" xml:space="preserve">
<path  style="fill:none;stroke:#000000;stroke-width:2;stroke-miterlimit:10;" d="M7,5c0,0.984,1.328,2,3,2s3-1,3-2"
	/>
<path  style="fill:none;stroke:#000000;stroke-width:2;stroke-miterlimit:10;" d="M13,5c0,0.984,1.328,2,3,2s3-1,3-2"
	/>
<path  style="fill:none;stroke:#000000;stroke-width:2;stroke-miterlimit:10;" d="M19,5c0,0.984,1.328,2,3,2s3-1,3-2"
	/>
<path  style="fill:none;stroke:#000000;stroke-width:2;stroke-miterlimit:10;" d="M25,5c0,0.984,1.328,2,3,2s3-1,3-2"
	/>
<path  style="fill:none;stroke:#000000;stroke-width:2;stroke-miterlimit:10;" d="M1,5c0,0.984,1.328,2,3,2s3-1,3-2"
	/>
<path style="fill:none;stroke:#000000;stroke-width:2;stroke-miterlimit:10;" d="M19.13,24h-12C5.409,24,4,22.65,4,21l0,0
	c0-1.65,1.409-3,3.13-3h12c1.722,0,8.87,1.35,8.87,3l0,0C28,22.65,20.852,24,19.13,24z"/>
<path style="fill:none;stroke:#000000;stroke-width:2;stroke-linejoin:bevel;stroke-miterlimit:10;" d="M10.923,17.937v-3.468
	c0-0.32,0.394-0.579,0.88-0.579h3.799c0.36,0,0.684,0.144,0.817,0.364l1.977,3.682"/>
<path style="fill:none;stroke:#000000;stroke-width:2;stroke-miterlimit:10;" d="M12.964,11h0.269c0.639,0,1.158,0.519,1.158,1.158
	v1.154"/>
<rect x="25" y="16" width="2" height="3"/>
<rect x="25" y="23" width="2" height="3"/>
</svg>
