<?xml version="1.0" encoding="utf-8"?>
<!-- Generator: Adobe Illustrator 18.1.1, SVG Export Plug-In . SVG Version: 6.00 Build 0)  -->
<svg version="1.1" id="Layer_1" xmlns="http://www.w3.org/2000/svg" xmlns:xlink="http://www.w3.org/1999/xlink" x="0px" y="0px"
	 viewBox="0 0 32 32" enable-background="new 0 0 32 32" xml:space="preserve">
<path d="M8.4,18.6C8.2,17.8,8,16.9,8,16c0-4.4,3.6-8,8-8c0.9,0,1.8,0.2,2.6,0.4l1.5-1.5C18.9,6.3,17.5,6,16,6C10.5,6,6,10.5,6,16
	c0,1.5,0.3,2.9,0.9,4.1L8.4,18.6z"/>
<path d="M23.6,13.4c0.3,0.8,0.4,1.7,0.4,2.6c0,4.4-3.6,8-8,8c-0.9,0-1.8-0.2-2.6-0.4l-1.5,1.5c1.3,0.6,2.7,0.9,4.1,0.9
	c5.5,0,10-4.5,10-10c0-1.5-0.3-2.9-0.9-4.1L23.6,13.4z"/>
<polyline fill="none" stroke="#000000" stroke-width="2" stroke-miterlimit="10" points="14.8,2.8 19,7 14.8,11.2 "/>
<polyline fill="none" stroke="#000000" stroke-width="2" stroke-miterlimit="10" points="17.2,29.2 13,25 17.2,20.8 "/>
</svg>
