<?xml version="1.0" encoding="utf-8"?>
<!-- Generator: Adobe Illustrator 18.1.1, SVG Export Plug-In . SVG Version: 6.00 Build 0)  -->
<svg version="1.1" id="Layer_1" xmlns="http://www.w3.org/2000/svg" xmlns:xlink="http://www.w3.org/1999/xlink" x="0px" y="0px"
	 viewBox="0 0 32 32" enable-background="new 0 0 32 32" xml:space="preserve">
<path fill="none" stroke="#000000" stroke-width="2" stroke-miterlimit="10" d="M25.9,13.7l-2.4-6.4c-0.3-0.8-1-1.3-1.9-1.3H10.4
	C9.6,6,8.8,6.5,8.5,7.3l-2.4,6.4C6,13.9,6,14.1,6,14.4V23h20v-8.6C26,14.1,26,13.9,25.9,13.7z"/>
<circle cx="10.5" cy="18.5" r="1.5"/>
<circle cx="21.5" cy="18.5" r="1.5"/>
<line fill="none" stroke="#000000" stroke-width="2" stroke-miterlimit="10" x1="6.4" y1="14" x2="25.6" y2="14"/>
<path fill="none" stroke="#000000" stroke-width="2" stroke-miterlimit="10" d="M26,23v2c0,0.6-0.4,1-1,1h-1c-0.6,0-1-0.4-1-1v-2"/>
<path fill="none" stroke="#000000" stroke-width="2" stroke-miterlimit="10" d="M9,23v2c0,0.6-0.4,1-1,1H7c-0.6,0-1-0.4-1-1v-2"/>
<rect x="26" y="12" width="3" height="2"/>
<rect x="3" y="12" width="3" height="2"/>
</svg>
