<?xml version="1.0" encoding="iso-8859-1"?>
<!-- Generator: Adobe Illustrator 19.1.1, SVG Export Plug-In . SVG Version: 6.00 Build 0)  -->
<svg version="1.1" id="Layer_1" xmlns="http://www.w3.org/2000/svg" xmlns:xlink="http://www.w3.org/1999/xlink" x="0px" y="0px"
	 viewBox="0 0 32 32" style="enable-background:new 0 0 32 32;" xml:space="preserve">
<path d="M14.082,24.298c-3.973,0.392-7.403-1.404-7.661-4.012c-0.258-2.608,2.755-5.041,6.727-5.433
	c3.973-0.393,7.403,1.403,7.661,4.01C21.067,21.472,18.055,23.906,14.082,24.298 M22.029,15.639c-0.338-0.101-0.57-0.17-0.393-0.614
	c0.383-0.964,0.423-1.796,0.007-2.39c-0.779-1.113-2.911-1.053-5.354-0.03c0-0.001-0.767,0.336-0.571-0.273
	c0.376-1.208,0.319-2.22-0.266-2.805c-1.325-1.327-4.851,0.05-7.874,3.072C5.315,14.864,4,17.264,4,19.339
	c0,3.969,5.09,6.382,10.069,6.382c6.527,0,10.869-3.792,10.869-6.803C24.938,17.098,23.406,16.066,22.029,15.639"/>
<path d="M26.363,8.376c-1.576-1.747-3.901-2.413-6.047-1.957h-0.001c-0.496,0.106-0.813,0.595-0.706,1.09
	c0.105,0.496,0.594,0.813,1.09,0.707c1.527-0.324,3.179,0.151,4.3,1.391c1.119,1.241,1.423,2.934,0.944,4.419l0,0.001
	c-0.156,0.484,0.108,1.001,0.592,1.157c0.482,0.156,1-0.108,1.157-0.59c0,0,0-0.002,0-0.003
	C28.365,12.501,27.94,10.122,26.363,8.376"/>
<path d="M23.942,10.56c-0.767-0.851-1.9-1.174-2.945-0.952c-0.428,0.091-0.7,0.512-0.608,0.94c0.092,0.426,0.512,0.7,0.938,0.607
	v0.001c0.511-0.108,1.065,0.049,1.441,0.464c0.375,0.416,0.476,0.984,0.315,1.481h0.001c-0.134,0.415,0.093,0.861,0.509,0.996
	c0.416,0.133,0.862-0.094,0.996-0.51C24.917,12.57,24.711,11.411,23.942,10.56"/>
<path d="M14.301,19.574c-0.139,0.238-0.446,0.352-0.687,0.253c-0.237-0.097-0.311-0.363-0.177-0.597
	c0.139-0.232,0.434-0.346,0.67-0.252C14.348,19.066,14.434,19.335,14.301,19.574 M13.035,21.199
	c-0.384,0.613-1.207,0.882-1.827,0.599c-0.611-0.278-0.791-0.991-0.407-1.588c0.38-0.595,1.175-0.861,1.79-0.603
	C13.214,19.872,13.413,20.58,13.035,21.199 M14.479,16.86c-1.891-0.492-4.028,0.45-4.849,2.116
	c-0.836,1.699-0.028,3.585,1.882,4.202c1.979,0.638,4.311-0.34,5.122-2.174C17.434,19.211,16.436,17.365,14.479,16.86"/>
</svg>
