<?xml version="1.0" encoding="iso-8859-1"?>
<!-- Generator: Adobe Illustrator 19.1.1, SVG Export Plug-In . SVG Version: 6.00 Build 0)  -->
<svg version="1.1" id="Layer_1" xmlns="http://www.w3.org/2000/svg" xmlns:xlink="http://www.w3.org/1999/xlink" x="0px" y="0px"
	 viewBox="-8 10 32 32" style="enable-background:new -8 10 32 32;" xml:space="preserve">
<path d="M8,38c-6.203,0-8.465-2.054-8.702-2.288l-0.473-0.467L7.323,14h7.62l-4.729,3.363L17.17,35.25l-0.468,0.462
	C16.465,35.946,14.203,38,8,38z M1.222,34.637C2.102,35.137,4.174,36,8,36c3.829,0,5.9-0.864,6.783-1.368L8.1,17.444L1.222,34.637z
	 M10,34c-1.657,0-3-1.343-3-3c0-1.657,1.343-3,3-3c0.26,0,0.508,0.043,0.749,0.106C10.031,27.424,9.067,27,8,27
	c-2.209,0-4,1.791-4,4s1.791,4,4,4c1.067,0,2.031-0.424,2.749-1.106C10.508,33.957,10.26,34,10,34z M8,23c0.552,0,1,0.448,1,1
	s-0.448,1-1,1c-0.552,0-1-0.448-1-1S7.448,23,8,23z M11,30c0.552,0,1,0.448,1,1s-0.448,1-1,1s-1-0.448-1-1S10.448,30,11,30z"/>
</svg>
