<?xml version="1.0" encoding="iso-8859-1"?>
<!-- Generator: Adobe Illustrator 21.0.0, SVG Export Plug-In . SVG Version: 6.00 Build 0)  -->
<svg version="1.1" id="Layer_1" xmlns="http://www.w3.org/2000/svg" xmlns:xlink="http://www.w3.org/1999/xlink" x="0px" y="0px"
	 viewBox="0 0 32 32" style="enable-background:new 0 0 32 32;" xml:space="preserve">
<path d="M25,10c-1-3-2.669-3-4-3c-2.292,0-3.463,2.05-3.707,2.293c-0.391,0.391-0.391,1.024,0,1.414
	c0.391,0.391,1.024,0.391,1.414,0C18.982,10.433,20.209,8,22,8C22.925,8,24,9,25,10z"/>
<path d="M7,10c1-2,2.669-3,4-3c2.292,0,3.463,2.05,3.707,2.293c0.391,0.391,0.391,1.024,0,1.414c-0.391,0.391-1.024,0.391-1.414,0
	c-0.275-0.274-1.168-2.374-2.96-2.374C9.409,8.333,8.302,9.093,7,10z"/>
<g>
	<polygon points="20,20 19,20 17,18 15,18 13,20 12,20 8,17 11,22 15,22 16,21 17,22 21,22 24,17 	"/>
</g>
<path d="M21.5,11c-1.025,0-1.926,0.396-2.5,1c0.574,0.604,1.475,1,2.5,1s1.926-0.396,2.5-1C23.426,11.396,22.525,11,21.5,11z"/>
<path d="M10.5,11c-1.025,0-1.926,0.396-2.5,1c0.574,0.604,1.475,1,2.5,1s1.926-0.396,2.5-1C12.426,11.396,11.525,11,10.5,11z"/>
<path style="fill:none;stroke:#000000;stroke-width:2;stroke-miterlimit:10;" d="M16,29c0,0,11-4,11-12s0-11,0-11s-4-3-11-3S5,6,5,6
	c0,5,0,9,0,11C5,24.138,16,29,16,29z"/>
<rect x="15" y="24" width="2" height="5"/>
</svg>
