<?xml version="1.0" encoding="iso-8859-1"?>
<!-- Generator: Adobe Illustrator 19.1.1, SVG Export Plug-In . SVG Version: 6.00 Build 0)  -->
<svg version="1.1" id="Layer_1" xmlns="http://www.w3.org/2000/svg" xmlns:xlink="http://www.w3.org/1999/xlink" x="0px" y="0px"
	 viewBox="0 0 32 32" style="enable-background:new 0 0 32 32;" xml:space="preserve">
<rect x="21.387" y="8.462" width="6.906" height="1.682"/>
<path d="M9.703,6.765c5.707,0,5.902,3.172,5.902,4.572c0,2.513-1.682,3.456-2.517,3.851c1.137,0.327,3.372,1.43,3.372,4.685
	c0,5.208-5.685,5.363-6.512,5.363h-8.95V6.765H9.703z M9.177,14.227c0.72,0,2.484-0.218,2.484-2.198
	c0-2.315-2.434-2.118-2.794-2.118H5.063v4.316H9.177z M9.402,22.089c0.401,0,3.002,0,3.002-2.442c0-2.521-2.045-2.644-2.92-2.644
	h-4.42v5.086H9.402z"/>
<path d="M25.111,22.147c1.663,0,2.559-1.229,2.675-1.611h2.984c-0.48,1.485-1.643,4.145-5.772,4.145
	c-1.532,0-6.319-0.65-6.319-6.481c0-1.964,1.098-6.527,6.319-6.527c4.67,0,6.165,3.959,5.985,7.335H22.08
	C22.08,19.983,22.321,22.147,25.111,22.147z M26.813,14.919c-0.402-0.446-1.085-0.687-1.917-0.687c-0.541,0-0.989,0.091-1.348,0.277
	c-0.351,0.183-0.638,0.411-0.858,0.68c-0.219,0.273-0.368,0.561-0.454,0.869c-0.087,0.3-0.139,0.573-0.155,0.813h5.513
	C27.513,16.007,27.217,15.368,26.813,14.919z"/>
</svg>
