<?xml version="1.0" encoding="utf-8"?>
<!-- Generator: Adobe Illustrator 18.1.1, SVG Export Plug-In . SVG Version: 6.00 Build 0)  -->
<svg version="1.1" id="Layer_1" xmlns="http://www.w3.org/2000/svg" xmlns:xlink="http://www.w3.org/1999/xlink" x="0px" y="0px"
	 viewBox="0 0 32 32" enable-background="new 0 0 32 32" xml:space="preserve">
<path fill="none" stroke="#000000" stroke-width="2" stroke-miterlimit="10" d="M21,26H11c-0.6,0-1-0.4-1-1V6h11c0.6,0,1,0.4,1,1v18
	C22,25.6,21.6,26,21,26z"/>
<line fill="none" stroke="#000000" stroke-width="2" stroke-miterlimit="10" x1="10" y1="2" x2="10" y2="7"/>
<line fill="none" stroke="#000000" stroke-width="2" stroke-miterlimit="10" x1="10" y1="12" x2="22" y2="12"/>
<rect x="12" y="18" width="2" height="2"/>
<rect x="15" y="18" width="2" height="2"/>
<rect x="12" y="15" width="2" height="2"/>
<rect x="15" y="15" width="2" height="2"/>
<rect x="12" y="21" width="2" height="2"/>
<rect x="15" y="21" width="2" height="2"/>
<rect x="18" y="18" width="2" height="2"/>
<rect x="18" y="15" width="2" height="2"/>
<rect x="18" y="21" width="2" height="2"/>
</svg>
