<?xml version="1.0" encoding="iso-8859-1"?>
<!-- Generator: Adobe Illustrator 19.1.1, SVG Export Plug-In . SVG Version: 6.00 Build 0)  -->
<svg version="1.1" id="Layer_1" xmlns="http://www.w3.org/2000/svg" xmlns:xlink="http://www.w3.org/1999/xlink" x="0px" y="0px"
	 viewBox="0 0 32 32" style="enable-background:new 0 0 32 32;" xml:space="preserve">
<g>
	<polygon points="8,9.372 8,8 13.414,8 16,5.414 18.586,8 24,8 24,13.414 26.586,16 24,18.586 24,24 22.628,24 24.628,26 26,26 
		26,19.414 29.414,16 26,12.586 26,6 19.414,6 16,2.586 12.586,6 6,6 6,7.372 	"/>
	<path d="M16,23c0.835,0,1.633-0.155,2.376-0.424l-1.649-1.649C16.487,20.962,16.249,21,16,21c-2.757,0-5-2.243-5-5
		c0-0.249,0.038-0.487,0.073-0.727l-1.649-1.649C9.155,14.367,9,15.165,9,16C9,19.86,12.14,23,16,23z"/>
	<polygon points="19.8,24 18.586,24 16,26.586 13.414,24 8,24 8,18.586 5.414,16 8,13.414 8,12.2 6,10.2 6,12.586 2.586,16 
		6,19.414 6,26 12.586,26 16,29.414 19.414,26 21.8,26 	"/>
	<path d="M23,16c0-3.86-3.14-7-7-7c-2.279,0-4.301,1.1-5.58,2.792l1.428,1.428C12.746,11.883,14.272,11,16,11c2.757,0,5,2.243,5,5
		c0,1.728-0.883,3.254-2.22,4.152l1.428,1.428C21.9,20.301,23,18.279,23,16z"/>
</g>
<line style="fill:none;stroke:#000000;stroke-width:2;stroke-miterlimit:10;" x1="3" y1="3" x2="29" y2="29"/>
</svg>
