<?xml version="1.0" encoding="iso-8859-1"?>
<!-- Generator: Adobe Illustrator 19.1.0, SVG Export Plug-In . SVG Version: 6.00 Build 0)  -->
<svg version="1.1" id="Layer_1" xmlns="http://www.w3.org/2000/svg" xmlns:xlink="http://www.w3.org/1999/xlink" x="0px" y="0px"
	 viewBox="0 0 32 32" style="enable-background:new 0 0 32 32;" xml:space="preserve">
<path style="fill:none;stroke:#000000;stroke-width:2;stroke-miterlimit:10;" d="M8.017,16.059C4.968,16.974,3,18.397,3,20
	c0,2.761,5.82,5,13,5s13-2.239,13-5c0-1.603-1.968-3.026-5.017-3.941"/>
<path style="fill:none;stroke:#000000;stroke-width:2;stroke-miterlimit:10;" d="M24,16.429c0-3.46-2.551-6.359-6-7.185V8h-4v1.244
	c-3.449,0.826-6,3.725-6,7.185c0,0.095,0,1.755,0,2C8,19.023,10.541,21,16,21s8-1.977,8-2.571C24,18.186,24,16.526,24,16.429z"/>
<line style="fill:none;stroke:#000000;stroke-width:2;stroke-miterlimit:10;" x1="18" y1="12" x2="18" y2="8"/>
<line style="fill:none;stroke:#000000;stroke-width:2;stroke-miterlimit:10;" x1="14" y1="12" x2="14" y2="8"/>
<polygon points="18,17 16,18 14,17 14,14 18,14 "/>
</svg>
