<?xml version="1.0" encoding="iso-8859-1"?>
<!-- Generator: Adobe Illustrator 19.1.0, SVG Export Plug-In . SVG Version: 6.00 Build 0)  -->
<svg version="1.1" id="Layer_1" xmlns="http://www.w3.org/2000/svg" xmlns:xlink="http://www.w3.org/1999/xlink" x="0px" y="0px"
	 viewBox="0 0 32 32" style="enable-background:new 0 0 32 32;" xml:space="preserve">
<circle style="fill:none;stroke:#000000;stroke-width:2;stroke-miterlimit:10;" cx="16" cy="16" r="11"/>
<g>
	<polygon points="16.89,21.527 15.543,20.08 14.747,19.873 13.216,20.7 12.543,20.08 12.359,17.598 14.992,15.599 16.155,17.116 
		16.951,15.875 17.992,17.943 18.543,19.321 17.686,21.32 	"/>
	<path d="M27.084,18.314l-0.485-0.713l-0.719-1.35l-0.984,0.396l-0.228,0.627l-0.546,0.182l0.189,1.624l0.397,0.599l-0.267,0.789
		l-1.498,2.371l-0.26,0.921l0.364,0.415l0.284-0.697l0.758-0.9l0.785-0.37l1.197-0.865c0,0,1.303-0.833,1.051-2.823"/>
	<path d="M26.918,12.408l-0.67,0.974l-0.124,0.83l-1.452-0.415l-0.544,0.713l0.585,1.652L23.2,15.179l-1.741-2.327l-0.771-3.619
		L18.56,8.926l0.51-0.98l-0.373-0.788l0.747-1.079h0.913l0.539,0.581l0.865,0.399l1.456,0.529L23.552,7.2
		c0,0,1.327,0.583,1.784,2.199l0.291,0.682l-0.979,0.402l0.426,0.514l1.01-0.105C26.083,10.892,27.053,11.296,26.918,12.408z"/>
	<path d="M8.883,7.11l1.311-1.02l5.402-0.84l1.122,1.068l-1.251,1.582l-2.262,0.137l0.823,1.988l-1.198,0.74l0.126,1.373
		l-0.957,1.355l0.289,1.373l-0.65,0.542l-1.228-0.885l-0.741,0.744l0.194,0.832l-0.719-0.338L8.371,14.55l-0.782-0.08l0.404,1.051
		l-0.04,0.768l-1.391,0.66l1.229,0.675l-0.809,1.375L8.6,23.002l-2.204-0.87C6.395,22.132,1.604,12.771,8.883,7.11z"/>
	<polygon points="20.009,19.801 20.437,21.49 19.818,22.219 19.319,21.76 19.751,21.159 19.799,19.877 	"/>
	<polygon points="19.469,22.653 18.921,22.249 17.637,23.712 17.968,24.088 	"/>
</g>
</svg>
