<?xml version="1.0" encoding="iso-8859-1"?>
<!-- Generator: Adobe Illustrator 19.1.0, SVG Export Plug-In . SVG Version: 6.00 Build 0)  -->
<svg version="1.1" id="Layer_1" xmlns="http://www.w3.org/2000/svg" xmlns:xlink="http://www.w3.org/1999/xlink" x="0px" y="0px"
	 viewBox="0 0 32 32" style="enable-background:new 0 0 32 32;" xml:space="preserve">
<path style="fill:none;stroke:#000000;stroke-width:2;stroke-miterlimit:10;" d="M7,15L7,15c0,1.105,0.895,2,2,2h1l4.586,9.09
	C14.838,26.644,15.391,27,16,27h0c0.609,0,1.162-0.356,1.414-0.91L22,17h1c1.105,0,2-0.895,2-2v0c0-1.105-0.895-2-2-2H9
	C7.895,13,7,13.895,7,15z"/>
<path style="fill:none;stroke:#000000;stroke-width:2;stroke-miterlimit:10;" d="M23,13c0-2.209-1.791-4-4-4s-4,1.791-4,4"/>
<path style="fill:none;stroke:#000000;stroke-width:2;stroke-miterlimit:10;" d="M12.151,7.907C12.627,6.229,14.17,5,16,5
	c2.209,0,4,1.791,4,4c0,0.225-0.019,0.447-0.054,0.662"/>
<polygon points="12.617,16 13.644,18 22,18 22,16 "/>
<path d="M13,9c0.277,0,0.545,0.042,0.803,0.113c0.44-0.586,0.97-1.1,1.579-1.509C14.665,7.214,13.852,7,13,7c-2.757,0-5,2.243-5,5
	c0,0.337,0.034,0.673,0.1,1l1.96-0.4C10.02,12.405,10,12.203,10,12C10,10.346,11.346,9,13,9z"/>
</svg>
