<?xml version="1.0" encoding="UTF-8" standalone="no"?><!DOCTYPE svg PUBLIC "-//W3C//DTD SVG 1.1//EN" "http://www.w3.org/Graphics/SVG/1.1/DTD/svg11.dtd"><svg width="100%" height="100%" viewBox="0 0 32 32" version="1.1" xmlns="http://www.w3.org/2000/svg" xmlns:xlink="http://www.w3.org/1999/xlink" xml:space="preserve" style="fill-rule:evenodd;clip-rule:evenodd;stroke-linejoin:round;stroke-miterlimit:1.41421;"><g ><path d="M22.667,5c2.392,0 4.333,1.941 4.333,4.333l0,13.334c0,2.392 -1.941,4.333 -4.333,4.333l-13.334,0c-2.392,0 -4.333,-1.941 -4.333,-4.333l0,-13.334c0,-2.392 1.941,-4.333 4.333,-4.333l13.334,0Zm-0.372,2l-12.59,0c-1.493,0 -2.705,1.212 -2.705,2.705l0,12.59c0,1.493 1.212,2.705 2.705,2.705l12.59,0c1.493,0 2.705,-1.212 2.705,-2.705l0,-12.59c0,-1.493 -1.212,-2.705 -2.705,-2.705Z"/><path d="M18.75,23c2.705,0 4.375,-2.595 4.375,-6.546c0,-3.926 -1.678,-6.579 -4.375,-6.579c-2.697,0 -4.375,2.708 -4.375,6.625c0,3.952 1.662,6.5 4.375,6.5Zm0,-1.5c-1.82,0 -2.75,-1.927 -2.75,-5.046c0,-3.051 0.955,-4.954 2.75,-4.954c1.795,0 2.75,1.924 2.75,5c0,3.12 -0.938,5 -2.75,5Z" style="fill-rule:nonzero;"/><path d="M10.978,10c-0.188,0.604 -0.665,1.664 -1.978,2c0,0 0.051,0.486 0.109,1.095c0.687,-0.007 1.439,-0.321 1.869,-0.805l0.039,10.71l1.483,0l0,-13l-1.522,0Z" style="fill-rule:nonzero;"/></g></svg>