<?xml version="1.0" encoding="utf-8"?>
<!-- Generator: Adobe Illustrator 18.0.0, SVG Export Plug-In . SVG Version: 6.00 Build 0)  -->
<svg version="1.1" id="Layer_1" xmlns="http://www.w3.org/2000/svg" xmlns:xlink="http://www.w3.org/1999/xlink" x="0px" y="0px"
	 viewBox="0 0 32 32" enable-background="new 0 0 32 32" xml:space="preserve">
<path fill="none" stroke="#000000" stroke-width="2" stroke-miterlimit="10" d="M16.5,13H15v6h1.5c0.8,0,1.5-0.7,1.5-1.5v-3
	C18,13.7,17.3,13,16.5,13z"/>
<polyline fill="none" stroke="#000000" stroke-width="2" stroke-miterlimit="10" points="25,22 25,28 7,28 7,22 "/>
<polyline fill="none" stroke="#000000" stroke-width="2" stroke-miterlimit="10" points="7,10 7,4 25,4 25,10 "/>
<polyline fill="none" stroke="#000000" stroke-width="2" stroke-miterlimit="10" points="21,20 21,13 25,13 "/>
<line fill="none" stroke="#000000" stroke-width="2" stroke-miterlimit="10" x1="21" y1="16" x2="24" y2="16"/>
<path fill="none" stroke="#000000" stroke-width="2" stroke-miterlimit="10" d="M9,20v-7h1c1.1,0,2,0.9,2,2v0c0,1.1-0.9,2-2,2H9"/>
</svg>
