<?xml version="1.0" encoding="iso-8859-1"?>
<!-- Generator: Adobe Illustrator 19.1.0, SVG Export Plug-In . SVG Version: 6.00 Build 0)  -->
<svg version="1.1" id="Layer_1" xmlns="http://www.w3.org/2000/svg" xmlns:xlink="http://www.w3.org/1999/xlink" x="0px" y="0px"
	 viewBox="0 0 32 32" style="enable-background:new 0 0 32 32;" xml:space="preserve">
<path style="fill:none;stroke:#000000;stroke-width:2;stroke-miterlimit:10;" d="M23,13c0,0-0.238,2-4.308,2C15.561,15,15,13,15,13
	l-8,1l-1.842-2.263C4.778,11.271,4.209,11,3.607,11H2l2,6c0,0,5.702,4,15,4c7.385,0,11-3.252,11-5S24.993,13,23,13z"/>
<circle cx="23" cy="24" r="2"/>
<line style="fill:none;stroke:#000000;stroke-width:2;stroke-linejoin:round;stroke-miterlimit:10;" x1="15" y1="13" x2="15" y2="10"/>
<line style="fill:none;stroke:#000000;stroke-width:2;stroke-linejoin:round;stroke-miterlimit:10;" x1="23" y1="13" x2="23" y2="10"/>
<polygon points="29,10 29.5,16 29,22 31,22 30.5,16 31,10 "/>
<path style="fill:none;stroke:#000000;stroke-width:2;stroke-miterlimit:10;" d="M12.037,10H24.5c0.828,0,1.5-0.672,1.5-1.5v0
	C26,7.672,25.328,7,24.5,7L11.96,7.929C11.419,7.969,11,8.42,11,8.963v0C11,9.536,11.464,10,12.037,10z"/>
</svg>
