<?xml version="1.0" encoding="iso-8859-1"?>
<!-- Generator: Adobe Illustrator 19.0.1, SVG Export Plug-In . SVG Version: 6.00 Build 0)  -->
<svg version="1.1" id="Layer_1" xmlns="http://www.w3.org/2000/svg" xmlns:xlink="http://www.w3.org/1999/xlink" x="0px" y="0px"
	 viewBox="0 0 32 32" style="enable-background:new 0 0 32 32;" xml:space="preserve">
<path id="XMLID_192_" style="fill:none;stroke:#000000;stroke-width:2;stroke-miterlimit:10;" d="M11,29v-3c0,0,0.036,0,1,0
	c2,0,4-2.018,4-4c0-0.982,0-2.25,0-2.25l2.119-0.674c0.8-0.255,1.133-1.205,0.667-1.903L16,13c0-3.542-1.958-8-10-8
	C5.319,5,4.653,5.068,4.01,5.198"/>
<line id="XMLID_191_" style="fill:none;stroke:#000000;stroke-width:2;stroke-miterlimit:10;" x1="16" y1="22" x2="21.5" y2="22"/>
<circle id="XMLID_187_" style="fill:none;stroke:#000000;stroke-width:2;stroke-miterlimit:10;" cx="21.5" cy="24.5" r="2.5"/>
<circle id="XMLID_297_" cx="12" cy="15" r="1"/>
<g id="XMLID_193_">
	<polygon id="XMLID_271_" points="26.799,15.602 25.201,14.398 20.996,19.986 23.498,19.986 	"/>
	<polygon id="XMLID_274_" points="26.405,17.986 24.9,19.986 28.086,19.986 28.086,17.986 	"/>
</g>
</svg>
