<?xml version="1.0" encoding="iso-8859-1"?>
<!-- Generator: Adobe Illustrator 19.1.1, SVG Export Plug-In . SVG Version: 6.00 Build 0)  -->
<svg version="1.1" id="Layer_1" xmlns="http://www.w3.org/2000/svg" xmlns:xlink="http://www.w3.org/1999/xlink" x="0px" y="0px"
	 viewBox="0 0 32 32" style="enable-background:new 0 0 32 32;" xml:space="preserve">
<path style="fill:none;stroke:#000000;stroke-width:2;stroke-miterlimit:10;" d="M9,16l-5.938,4.2c0,0-1.965,1.438-0.548,3.43
	c0.852,1.197,2.362,3.32,3.779,5.314c1.417,1.992,3.382,0.556,3.382,0.556L13,27v-6L9,16z"/>
<line style="fill:none;stroke:#000000;stroke-width:2;stroke-miterlimit:10;" x1="6" y1="22" x2="9" y2="26"/>
<polyline style="fill:none;stroke:#000000;stroke-width:2;stroke-miterlimit:10;" points="13,23 14,23 14,21 16,21 16,19 18,19 
	18,17 20,17 20,15 22,15 22,13 24,13 24,11 26,11 26,9 28,9 28,7 30,7 30,5 27.842,2.417 9,16 13,21 "/>
</svg>
