<?xml version="1.0" encoding="utf-8"?>
<!-- Generator: Adobe Illustrator 18.0.0, SVG Export Plug-In . SVG Version: 6.00 Build 0)  -->
<svg version="1.1" id="Layer_1" xmlns="http://www.w3.org/2000/svg" xmlns:xlink="http://www.w3.org/1999/xlink" x="0px" y="0px"
	 viewBox="0 0 32 32" enable-background="new 0 0 32 32" xml:space="preserve">
<line fill="none" stroke="#000000" stroke-width="2" stroke-miterlimit="10" x1="8" y1="24" x2="8" y2="27"/>
<path fill="none" stroke="#000000" stroke-width="2" stroke-miterlimit="10" d="M11,27c0,0-1.2,0-2.6,0S5,27,5,27s1.9,0,3.4,0
	S11,27,11,27z"/>
<path fill="none" stroke="#000000" stroke-width="2" stroke-linecap="round" stroke-miterlimit="10" d="M10.4,23.3l1.6-1.6L7.2,17
	l-1.6,1.6c-0.9,0.9-0.9,2.3,0,3.2l1.6,1.6C8.1,24.2,9.5,24.2,10.4,23.3z"/>
<g>
	<polygon points="9.9,16 18.1,5.4 16.5,4.1 8.5,14.6 	"/>
	<polygon points="14.5,20.6 27.9,9.4 26.6,7.8 13.1,19.2 	"/>
</g>
</svg>
