<?xml version="1.0" encoding="iso-8859-1"?>
<!-- Generator: Adobe Illustrator 22.0.1, SVG Export Plug-In . SVG Version: 6.00 Build 0)  -->
<svg version="1.1" id="&#x421;&#x43B;&#x43E;&#x439;_1"
	 xmlns="http://www.w3.org/2000/svg" xmlns:xlink="http://www.w3.org/1999/xlink" x="0px" y="0px" viewBox="0 0 32 32"
	 style="enable-background:new 0 0 32 32;" xml:space="preserve">
<g>
	<path style="fill:none;stroke:#000000;stroke-width:2;stroke-miterlimit:10;" d="M3,15V8c0-1.105,0.895-2,2-2h22
		c1.105,0,2,0.895,2,2v16c0,1.105-0.895,2-2,2H17"/>
	<line style="fill:none;stroke:#000000;stroke-width:2;stroke-miterlimit:10;" x1="13.975" y1="17.501" x2="10.439" y2="21.037"/>
	<line style="fill:none;stroke:#000000;stroke-width:2;stroke-miterlimit:10;" x1="11.146" y1="16.087" x2="8.318" y2="18.915"/>
	<path style="fill:none;stroke:#000000;stroke-width:2;stroke-miterlimit:10;" d="M18.859,16.859l-8.42,8.42
		c0,0-2.168,2.075-5.312-1.069c-3.143-3.143-0.345-6.002-0.345-6.002l3.536-3.536"/>
	<line style="fill:none;stroke:#000000;stroke-width:2;stroke-miterlimit:10;" x1="15" y1="25.986" x2="8.318" y2="25.986"/>
	<line style="fill:none;stroke:#000000;stroke-width:2;stroke-miterlimit:10;" x1="22.5" y1="9" x2="22.5" y2="14"/>
	<polygon points="19.5,13 25.5,13 22.5,17 	"/>
</g>
</svg>
