<?xml version="1.0" encoding="iso-8859-1"?>
<!-- Generator: Adobe Illustrator 19.1.1, SVG Export Plug-In . SVG Version: 6.00 Build 0)  -->
<svg version="1.1" id="Layer_1" xmlns="http://www.w3.org/2000/svg" xmlns:xlink="http://www.w3.org/1999/xlink" x="0px" y="0px"
	 viewBox="-7 9 32 32" style="enable-background:new -7 9 32 32;" xml:space="preserve">
<rect x="1" y="31" style="fill:none;stroke:#000000;stroke-width:2;stroke-miterlimit:10;" width="16" height="4"/>
<path style="fill:none;stroke:#000000;stroke-width:2;stroke-miterlimit:10;" d="M11.005,21.253C14.453,22.143,17,25.274,17,29v2"/>
<path style="fill:none;stroke:#000000;stroke-width:2;stroke-miterlimit:10;" d="M7,21.252C3.55,22.14,1,25.272,1,29v2"/>
<polyline style="fill:none;stroke:#000000;stroke-width:2;stroke-miterlimit:10;" points="7,28 7,19 11,19 11,28 "/>
<path d="M17.498,27.867l-0.996-1.734c0.113-0.066,1.896-1.154,3.184-3.832c-1.983,1.692-4.153,2.564-4.32,2.629l-0.732-1.861
	C14.697,23.044,21,20.499,21,16h2C23,24.604,17.723,27.737,17.498,27.867z"/>
<path d="M0.491,27.86C0.267,27.729-5,24.514-5,16h2c0,4.516,6.302,7.044,6.366,7.069l-0.731,1.861
	c-0.166-0.065-2.314-0.928-4.289-2.604c1.288,2.641,3.052,3.744,3.168,3.814L0.491,27.86z"/>
</svg>
