<?xml version="1.0" encoding="utf-8"?>
<!-- Generator: Adobe Illustrator 18.1.1, SVG Export Plug-In . SVG Version: 6.00 Build 0)  -->
<svg version="1.1" id="Layer_1" xmlns="http://www.w3.org/2000/svg" xmlns:xlink="http://www.w3.org/1999/xlink" x="0px" y="0px"
	 viewBox="0 0 32 32" enable-background="new 0 0 32 32" xml:space="preserve">
<path fill="none" stroke="#000000" stroke-width="2" stroke-miterlimit="10" d="M4,24.5c0-3.9,3.1-7,7-7s7,3.1,7,7"/>
<circle fill="none" stroke="#000000" stroke-width="2" stroke-miterlimit="10" cx="11" cy="12.5" r="5"/>
<g>
	<path d="M27,12c0,2.2-0.5,4.2-1.3,6.1l1.7,1.1c1-2.2,1.6-4.6,1.6-7.2s-0.6-5-1.6-7.2l-1.7,1.1C26.5,7.8,27,9.8,27,12z"/>
	<path d="M19,12c0,0.5-0.1,1-0.2,1.5l1.8,1.2c0.3-0.9,0.4-1.8,0.4-2.7s-0.1-1.9-0.4-2.7l-1.8,1.2C18.9,11,19,11.5,19,12z"/>
	<path d="M23,12c0,1.4-0.3,2.7-0.7,3.9L24,17c0.6-1.5,1-3.2,1-5s-0.4-3.5-1-5l-1.7,1.1C22.7,9.3,23,10.6,23,12z"/>
</g>
</svg>
