<?xml version="1.0" encoding="iso-8859-1"?>
<!-- Generator: Adobe Illustrator 21.0.2, SVG Export Plug-In . SVG Version: 6.00 Build 0)  -->
<svg version="1.1" id="Layer_1" xmlns="http://www.w3.org/2000/svg" xmlns:xlink="http://www.w3.org/1999/xlink" x="0px" y="0px"
	 viewBox="0 0 32 32" style="enable-background:new 0 0 32 32;" xml:space="preserve">
<path style="fill:none;stroke:#000000;stroke-width:2;stroke-linecap:round;stroke-miterlimit:10;" d="M17.364,26.003
	c-3.492,0-5.687,1.517-6.334,1.997H10.97c-0.647-0.48-2.842-1.997-6.334-1.997L4,24c0,0,3-2.574,3-5c0-2.554-3-5-3-5l0.636-2
	c3.125-0.169,4.508-1.264,5.114-2h2.5c0.605,0.736,1.988,1.831,5.114,2L18,14c0,0-3,2.446-3,5c0,2.427,3,5,3,5L17.364,26.003z"/>
<path d="M28.539,4.756c-0.566-0.961-1.513-1.59-2.597-1.728c-1.079-0.137-2.146,0.226-2.917,0.997
	c-1.068,1.067-1.332,2.691-0.606,4.041l-2.487,2.096l0.075,0.232l0.589,1.824l3.112-2.623c0.688-0.58,0.874-1.576,0.45-2.424
	c-0.289-0.578-0.176-1.274,0.282-1.732c0.331-0.33,0.786-0.483,1.251-0.428c0.473,0.061,0.873,0.33,1.125,0.76
	c0.26,0.441,0.256,1.034-0.009,1.474C26.516,7.725,26.041,8,25.5,8v2c1.238,0,2.366-0.643,3.018-1.72
	C29.163,7.213,29.171,5.83,28.539,4.756z"/>
</svg>
