<?xml version="1.0" encoding="iso-8859-1"?>
<!-- Generator: Adobe Illustrator 19.1.1, SVG Export Plug-In . SVG Version: 6.00 Build 0)  -->
<svg version="1.1" id="Layer_1" xmlns="http://www.w3.org/2000/svg" xmlns:xlink="http://www.w3.org/1999/xlink" x="0px" y="0px"
	 viewBox="0 0 32 32" style="enable-background:new 0 0 32 32;" xml:space="preserve">
<circle style="fill:none;stroke:#000000;stroke-width:2;stroke-linecap:round;stroke-linejoin:round;stroke-miterlimit:10;" cx="16" cy="16" r="11"/>
<line style="fill:none;stroke:#000000;stroke-width:2;stroke-miterlimit:10;" x1="16" y1="5" x2="16" y2="9"/>
<line style="fill:none;stroke:#000000;stroke-width:2;stroke-miterlimit:10;" x1="16" y1="23" x2="16" y2="27"/>
<line style="fill:none;stroke:#000000;stroke-width:2;stroke-miterlimit:10;" x1="6.454" y1="10.534" x2="9.925" y2="12.521"/>
<line style="fill:none;stroke:#000000;stroke-width:2;stroke-miterlimit:10;" x1="22.075" y1="19.479" x2="25.546" y2="21.466"/>
<line style="fill:none;stroke:#000000;stroke-width:2;stroke-miterlimit:10;" x1="6.454" y1="21.466" x2="9.925" y2="19.479"/>
<line style="fill:none;stroke:#000000;stroke-width:2;stroke-miterlimit:10;" x1="22.075" y1="12.521" x2="25.546" y2="10.534"/>
<circle style="fill:none;stroke:#000000;stroke-width:2;stroke-miterlimit:10;" cx="16" cy="16" r="7"/>
<polygon points="18.768,17.482 19.692,16.929 18.587,15.08 19.511,14.528 18.959,13.603 18.034,14.156 16.929,12.308 14.156,13.966 
	16.367,17.663 15.443,18.215 13.232,14.518 12.308,15.071 13.413,16.92 12.489,17.472 13.041,18.397 13.966,17.844 14.518,18.768 
	15.071,19.692 17.844,18.034 15.633,14.337 16.557,13.785 "/>
</svg>
