<?xml version="1.0" encoding="iso-8859-1"?>
<!-- Generator: Adobe Illustrator 21.0.2, SVG Export Plug-In . SVG Version: 6.00 Build 0)  -->
<svg version="1.1"  xmlns="http://www.w3.org/2000/svg" xmlns:xlink="http://www.w3.org/1999/xlink" x="0px" y="0px"
	 viewBox="0 0 32 32" style="enable-background:new 0 0 32 32;" xml:space="preserve">
<path style="fill:none;stroke:#000000;stroke-width:2;stroke-miterlimit:10;" d="M9.025,21c-1.115,0.936-2.21,1.824-3.153,2.536
	C5.346,23.886,5.001,24.441,5,25.073C4.998,26.136,5.955,26.998,7.139,27c0.005,0,0.011,0,0.017,0c1.545,0,3.189-0.362,4.845-0.996"
	/>
<path style="fill:none;stroke:#000000;stroke-width:2;stroke-miterlimit:10;" d="M24.193,17.772
	c-0.045-0.045-6.143-4.891-8.507-6.229c-1.11-0.628-2.965-0.87-3.988,0.153s-0.787,2.874-0.151,3.987
	c1.623,2.842,5.943,8.226,6.226,8.509c1.076,1.076,2.821,1.076,3.897,0c1.076-1.076,2.523-2.523,2.523-2.523
	C25.269,20.594,25.269,18.849,24.193,17.772z"/>
<path style="fill:none;stroke:#000000;stroke-width:2;stroke-miterlimit:10;" d="M11.269,16l-1.64,1.703
	c-0.591,0.615-0.766,1.501-0.523,2.276c0.101,0.321,2.125,4.922,3.14,6.364C12.592,26.834,13.205,27,13.761,27
	c0.345,0,0.693-0.087,1.014-0.265C15.363,26.407,16,26,17.917,24.413"/>
<path style="fill:none;stroke:#000000;stroke-width:2;stroke-miterlimit:10;" d="M26.004,12C26.638,10.344,27,8.701,27,7.155
	c0-0.005,0-0.011,0-0.017C26.998,5.955,26.136,4.998,25.073,5c-0.632,0.001-1.187,0.346-1.537,0.872
	C22.824,6.814,21.936,7.91,21,9.025"/>
<path style="fill:none;stroke:#000000;stroke-width:2;stroke-miterlimit:10;" d="M16,11.269l1.703-1.64
	c0.615-0.591,1.501-0.766,2.276-0.523c0.321,0.101,4.922,2.125,6.364,3.14C26.834,12.592,27,13.205,27,13.761
	c0,0.345-0.087,0.693-0.265,1.014C26.407,15.363,26,16,24.413,17.917"/>
</svg>
