<?xml version="1.0" encoding="iso-8859-1"?>
<!-- Generator: Adobe Illustrator 19.1.0, SVG Export Plug-In . SVG Version: 6.00 Build 0)  -->
<svg version="1.1" id="Layer_1" xmlns="http://www.w3.org/2000/svg" xmlns:xlink="http://www.w3.org/1999/xlink" x="0px" y="0px"
	 viewBox="0 0 32 32" style="enable-background:new 0 0 32 32;" xml:space="preserve">
<path style="fill:none;stroke:#000000;stroke-width:2;stroke-miterlimit:10;" d="M17,9.17C15.561,7.602,13.35,5,11,5
	c-0.967,0-2.877,0.712-3,3c0,0-3.023,0.947-3.023,8s1.979,11,1.979,11h11.598c0,0-2.393-2.577-3.728-4.971 M8,18
	c0,2.177,2.368,5.537,7,4c1.106,0.584,3.051,1,4.427,1s3.319-0.504,3.573-2.653c0,0-4.952,0.117-8.174-2.783
	C13.75,16.618,10.94,16.479,10,15.1V15c1.763,0,2.517-1,4.39-1c1.749,0,2.756,1,5.61,1c4.393,0,6.47-2.483,7.023-3.326
	C27.023,7.926,23.971,7,20.824,7c-2.411,0-4.308,0.25-7.148-1"/>
<path d="M16.621,15.42c0-0.046,0.092-0.184,0.138-0.276c-0.23-0.092-0.46-0.138-0.69-0.23c0.046,0.552,0.184,0.736,0.184,0.736
	S16.437,15.743,16.621,15.42z"/>
<path d="M19.797,16.893c0.046-0.138,0.23-0.736,0.368-1.151c-0.322,0-0.69-0.046-0.967-0.092c0,1.013,0.092,1.657,0.092,1.657
	S19.613,17.399,19.797,16.893z"/>
<path d="M18.094,16.341c0.046-0.138,0.138-0.506,0.23-0.782c-0.276-0.046-0.552-0.138-0.782-0.184
	c0.046,0.736,0.138,1.289,0.138,1.289S17.91,16.709,18.094,16.341z"/>
<path d="M21.96,17.123c0.046-0.276,0.23-1.105,0.368-1.657c-0.414,0.138-0.874,0.184-1.335,0.23
	c0.092,1.427,0.276,2.301,0.276,2.301S21.638,17.952,21.96,17.123z"/>
<path d="M15.379,14.96c0.046-0.046,0.092-0.138,0.138-0.23c-0.184-0.092-0.414-0.092-0.598-0.138
	c0.046,0.46,0.138,0.598,0.138,0.598S15.241,15.282,15.379,14.96z"/>
<path d="M23.755,16.433c0.092-0.23,0.276-1.013,0.368-1.519c-0.368,0.138-0.736,0.276-1.151,0.414
	c0.046,1.105,0.184,1.795,0.184,1.795S23.479,17.077,23.755,16.433z"/>
<path d="M24.814,14.546c0.046,0.921,0.184,1.473,0.184,1.473s0.276-0.046,0.506-0.644c0.092-0.23,0.276-1.105,0.368-1.611
	C25.596,13.994,25.228,14.27,24.814,14.546z"/>
<path d="M17.047,17.503c0,0-0.204,0.254-0.398,0.599c0.147,0.077,0.34,0.148,0.487,0.225c0.021-0.234,0.042-0.468,0.037-0.513
	C17.189,17.534,17.047,17.503,17.047,17.503z"/>
<path d="M22.511,19.641c0.188,0.026,0.371,0.006,0.513,0.037c0.021-0.234,0.083-0.518,0.073-0.61
	c0.011-0.325-0.177-0.351-0.177-0.351S22.73,19.108,22.511,19.641z"/>
<path d="M17.908,18.614c0.193,0.072,0.432,0.138,0.625,0.21c0.016-0.28,0.083-0.518,0.073-0.61c-0.035-0.32-0.223-0.346-0.223-0.346
	S18.138,18.172,17.908,18.614z"/>
<path d="M20.859,19.358c0.239,0.067,0.427,0.093,0.615,0.118c0.062-0.284,0.159-0.665,0.149-0.757
	c-0.04-0.366-0.228-0.392-0.228-0.392S21.115,18.728,20.859,19.358z"/>
<path d="M15.517,17.484c0.152,0.122,0.299,0.199,0.447,0.276c0.021-0.234,0.047-0.422,0.042-0.468
	c0.021-0.234-0.167-0.26-0.167-0.26S15.629,17.241,15.517,17.484z"/>
<path d="M19.153,18.988c0.289,0.107,0.574,0.169,0.858,0.231c0.093-0.427,0.18-0.899,0.165-1.036
	c-0.009-0.508-0.288-0.524-0.288-0.524S19.49,18.256,19.153,18.988z"/>
<path d="M10.977,9.819c-0.613-0.402-0.975-1.103-0.975-1.725c0-0.927,1.122-1.377,1.755-0.889c1.268,0.829,2.441,2.145,2.441,2.145
	c-0.233,0.491-1.094,0.939-2.149,0.939c-0.195-0.341-0.496-1.094-0.39-2.274C11.123,8.405,10.928,8.942,10.977,9.819z"/>
<circle cx="24" cy="9" r="1"/>
</svg>
