<?xml version="1.0" encoding="iso-8859-1"?>
<!-- Generator: Adobe Illustrator 19.1.0, SVG Export Plug-In . SVG Version: 6.00 Build 0)  -->
<svg version="1.1" id="Layer_1" xmlns="http://www.w3.org/2000/svg" xmlns:xlink="http://www.w3.org/1999/xlink" x="0px" y="0px"
	 viewBox="0 0 32 32" style="enable-background:new 0 0 32 32;" xml:space="preserve">
<line style="fill:none;stroke:#000000;stroke-width:2;stroke-miterlimit:10;" x1="6" y1="26" x2="26" y2="26"/>
<path style="fill:none;stroke:#000000;stroke-width:2;stroke-miterlimit:10;" d="M12,24v-1l-1-1.938l1-2.312
	c0,0-2.219-1.469-2.219-2.969c0-2.238,2.71-2.484,2.71-2.484l2.761-2.243c0,0-0.3-5.054,3.148-5.054c0.668,0,1.696,0.2,1.696,0.2
	l-0.202,1.063l3.156,2.997"/>
<polygon points="13.621,20.825 14,22.608 14,24 16,24 16,22.75 14.43,19.769 "/>
<path style="fill:none;stroke:#000000;stroke-width:2;stroke-miterlimit:10;" d="M6,19c0-5.625,3.562-3.625,3.562-3.625"/>
<polyline style="fill:none;stroke:#000000;stroke-width:2;stroke-miterlimit:10;" points="18.08,18.647 19.278,18.047 20.44,16.464 
	18.338,13.565 18.232,10.76 18.946,9.993 "/>
<path style="fill:none;stroke:#000000;stroke-width:2;stroke-miterlimit:10;" d="M18.467,13.196
	c-1.301,3.17-4.525,3.524-4.525,3.524s-0.325,2.073-1.91,2.114"/>
<polygon points="24.756,13.609 21.864,12 20.362,12 20.419,12.807 21.346,14 23.259,15.065 23.749,16.007 25.524,15.084 "/>
</svg>
