<?xml version="1.0" encoding="iso-8859-1"?>
<!-- Generator: Adobe Illustrator 19.2.0, SVG Export Plug-In . SVG Version: 6.00 Build 0)  -->
<svg version="1.1"  xmlns="http://www.w3.org/2000/svg" xmlns:xlink="http://www.w3.org/1999/xlink" x="0px" y="0px"
	 viewBox="0 0 32 32" style="enable-background:new 0 0 32 32;" xml:space="preserve">
<path style="fill:none;stroke:#000000;stroke-width:2;stroke-miterlimit:10;" d="M13,24c0-1.657,3-5.571,3-5.571s3,3.915,3,5.571
	s-1.343,3-3,3S13,25.657,13,24z"/>
<path d="M14.714,24.943c0-0.71,1.286-2.229,1.286-2.229s1.286,1.519,1.286,2.229c0,0.71-0.576,1.286-1.286,1.286
	C15.29,26.229,14.714,25.653,14.714,24.943z"/>
<g >
</g>
<rect x="5" y="10" style="fill:none;stroke:#000000;stroke-width:2;stroke-miterlimit:10;" width="22" height="17"/>
<rect x="4" y="5" style="fill:none;stroke:#000000;stroke-width:2;stroke-miterlimit:10;" width="24" height="5"/>
<path style="fill:none;stroke:#000000;stroke-width:2;stroke-miterlimit:10;" d="M16,14L16,14c-3.866,0-7,3.134-7,7v6h14v-6
	C23,17.134,19.866,14,16,14z"/>
</svg>
