<?xml version="1.0" encoding="iso-8859-1"?>
<!-- Generator: Adobe Illustrator 18.1.1, SVG Export Plug-In . SVG Version: 6.00 Build 0)  -->
<svg version="1.1" id="Layer_1" xmlns="http://www.w3.org/2000/svg" xmlns:xlink="http://www.w3.org/1999/xlink" x="0px" y="0px"
	 viewBox="0 0 32 32" style="enable-background:new 0 0 32 32;" xml:space="preserve">
<circle style="fill:none;stroke:#000000;stroke-width:2;stroke-miterlimit:10;" cx="16" cy="7" r="3"/>
<path style="fill:none;stroke:#000000;stroke-width:2;stroke-miterlimit:10;" d="M26,31H6"/>
<path style="fill:none;stroke:#000000;stroke-width:2;stroke-miterlimit:10;" d="M28,20l-5-1l-1.961-4.576
	C20.409,12.954,18.963,12,17.362,12h-2.725c-1.6,0-3.046,0.954-3.677,2.424L9,19l-5,1"/>
<polygon points="19,15.654 21,20.315 21,21 19,21 "/>
<path style="fill:none;stroke:#000000;stroke-width:2;stroke-miterlimit:10;" d="M10,27l14.468-3.404
	c0.68-0.16,0.702-1.119,0.031-1.311L20,21v-0.653"/>
<g>
	<path d="M13.818,24.047l-4.85-1.141L13,21.754v-6.1l-1.966,4.582l-3.807,1.088c-0.746,0.213-1.234,0.877-1.216,1.653
		c0.019,0.775,0.538,1.415,1.292,1.593l2.148,0.505L13.818,24.047z"/>
	<polygon points="18.183,27.129 21.771,27.974 22.191,26.186 	"/>
</g>
</svg>
