<?xml version="1.0" encoding="iso-8859-1"?>
<!-- Generator: Adobe Illustrator 19.1.1, SVG Export Plug-In . SVG Version: 6.00 Build 0)  -->
<svg version="1.1" id="Layer_1" xmlns="http://www.w3.org/2000/svg" xmlns:xlink="http://www.w3.org/1999/xlink" x="0px" y="0px"
	 viewBox="0 0 32 32" style="enable-background:new 0 0 32 32;" xml:space="preserve">
<path style="fill:none;stroke:#000000;stroke-width:2;stroke-miterlimit:10;" d="M11,15V7c0-1.105,0.895-2,2-2h0
	c1.105,0,2,0.895,2,2v7"/>
<path style="fill:none;stroke:#000000;stroke-width:2;stroke-miterlimit:10;" d="M19,14V7c0-1.105,0.895-2,2-2h0
	c1.105,0,2,0.895,2,2v7"/>
<path style="fill:none;stroke:#000000;stroke-width:2;stroke-miterlimit:10;" d="M15,14V5c0-1.105,0.895-2,2-2h0
	c1.105,0,2,0.895,2,2v9"/>
<path style="fill:none;stroke:#000000;stroke-width:2;stroke-miterlimit:10;" d="M11,15v3.172l-2.586-2.586
	c-0.781-0.781-2.047-0.781-2.828,0c-0.781,0.781-0.781,2.047,0,2.828l6.791,6.772c0.196,0.195,0.406,0.377,0.623,0.549V29h12v-3.537
	c1.225-1.099,2-2.688,2-4.463V10c0-1.105-0.895-2-2-2s-2,0.895-2,2v4"/>
<path d="M21.306,17.516l-0.408-0.055l-0.187-0.374c-0.734-1.469-2.796-1.44-3.49,0.049l-0.177,0.38l-0.406,0.066
	c-1.593,0.26-2.203,2.275-1.033,3.41l0.298,0.289l-0.064,0.415c-0.251,1.63,1.435,2.846,2.852,2.058l0.361-0.201l0.367,0.191
	c1.438,0.748,3.09-0.516,2.795-2.138l-0.075-0.413l0.29-0.298C23.569,19.728,22.905,17.731,21.306,17.516z M19,21.002
	c-0.552-0.001-0.999-0.45-0.998-1.003c0.001-0.552,0.45-0.999,1.003-0.997c0.552,0.001,0.999,0.45,0.998,1.002
	C20.001,20.557,19.552,21.003,19,21.002z"/>
</svg>
