<?xml version="1.0" encoding="iso-8859-1"?>
<!-- Generator: Adobe Illustrator 22.1.0, SVG Export Plug-In . SVG Version: 6.00 Build 0)  -->
<svg version="1.1" id="Layer_1" xmlns="http://www.w3.org/2000/svg" xmlns:xlink="http://www.w3.org/1999/xlink" x="0px" y="0px"
	 viewBox="0 0 32 32" style="enable-background:new 0 0 32 32;" xml:space="preserve">
<circle cx="27.5" cy="25.5" r="1.5"/>
<circle cx="23" cy="20" r="1.5"/>
<path style="fill:none;stroke:#000000;stroke-width:2;stroke-miterlimit:10;" d="M16,23c1.7,0,3-1.3,3-3l0,0c0-1.7-1.3-3-3-3"/>
<polyline style="fill:none;stroke:#000000;stroke-width:2;stroke-miterlimit:10;" points="29,16 29,27 16,27 "/>
<polyline style="fill:none;stroke:#000000;stroke-width:2;stroke-miterlimit:10;" points="16,27 3,27 3,13 14,13 "/>
<g>
	<path d="M16.56,14H13v-2h1.75C15.22,12.63,15.81,13.31,16.56,14z"/>
	<path d="M30,13.43V17h-2v-1.83C28.68,14.66,29.36,14.07,30,13.43z"/>
</g>
<circle cx="4.5" cy="25.5" r="1.5"/>
<circle cx="4.5" cy="14.5" r="1.5"/>
<circle cx="9" cy="20" r="1.5"/>
<path style="fill:none;stroke:#000000;stroke-width:2;stroke-miterlimit:10;" d="M16,17c-1.7,0-3,1.3-3,3l0,0c0,1.7,1.3,3,3,3"/>
<path d="M26.5,3.03c-1.41,0-2.67,0.65-3.5,1.67c-0.83-1.02-2.09-1.67-3.5-1.67c-2.48,0-4.5,2.02-4.5,4.5c0,3.98,6.75,7.79,7.52,8.21
	L23,16l0.48-0.26C24.25,15.32,31,11.51,31,7.53C31,5.05,28.98,3.03,26.5,3.03z M23,13.71c-2.5-1.46-6-4.2-6-6.18
	c0-1.38,1.12-2.5,2.5-2.5S22,6.15,22,7.53h2c0-1.38,1.12-2.5,2.5-2.5S29,6.15,29,7.53C29,9.51,25.5,12.25,23,13.71z"/>
</svg>
