<?xml version="1.0" encoding="iso-8859-1"?>
<!-- Generator: Adobe Illustrator 19.1.1, SVG Export Plug-In . SVG Version: 6.00 Build 0)  -->
<svg version="1.1" id="Layer_1" xmlns="http://www.w3.org/2000/svg" xmlns:xlink="http://www.w3.org/1999/xlink" x="0px" y="0px"
	 viewBox="-7 9 32 32" style="enable-background:new -7 9 32 32;" xml:space="preserve">
<g>
	<path style="fill:#231F20;" d="M20,25c0-1.352-0.898-2.497-2.129-2.871c-0.356-1.172-1.413-2.032-2.68-2.113l3.802-7.126
		l-1.764-0.941l-4.567,8.561c-0.481-0.329-1.046-0.526-1.719-0.509c-0.648-0.634-1.525-1-2.443-1c-1.166,0-2.225,0.582-2.865,1.492
		C5.156,20.177,4.589,20,4,20c-1.306,0-2.419,0.838-2.831,2.005C-0.53,21.9-2,23.289-2,25h-2l0,1c0,0.12,0.152,12,13,12
		c12.849,0,13-11.88,13-12v-1H20z M1,24c0.146,0,0.292,0.05,0.484,0.167l0.588,0.322l1.038-0.747l-0.093-0.61
		C3.01,23.089,3,23.046,3,23c0-0.551,0.449-1,1-1c0.36,0,0.683,0.193,0.866,0.517l0.332,0.591l0.672-0.09l0.998-0.013l0.162-0.803
		C7.17,21.505,7.789,21,8.5,21c0.482,0,0.939,0.238,1.221,0.637l0.39,0.55l0.656-0.154C10.86,22.01,10.935,22,11,22
		c0.552,0,1,0.449,1,1h2c0-0.551,0.448-1,1-1s1,0.449,1,1v1h1c0.552,0,1,0.449,1,1h-4.5h-7H0C0,24.449,0.449,24,1,24z M9,36
		c-8.879,0-10.591-6.453-10.921-9h21.843C19.592,29.547,17.879,36,9,36z"/>
	<circle style="fill:#231F20;" cx="8.5" cy="23.5" r="0.5"/>
	<circle style="fill:#231F20;" cx="13.5" cy="24.5" r="0.5"/>
	<circle style="fill:#231F20;" cx="6.5" cy="24.5" r="0.5"/>
</g>
</svg>
