<?xml version="1.0" encoding="iso-8859-1"?>
<!-- Generator: Adobe Illustrator 19.1.0, SVG Export Plug-In . SVG Version: 6.00 Build 0)  -->
<svg version="1.1" id="Layer_1" xmlns="http://www.w3.org/2000/svg" xmlns:xlink="http://www.w3.org/1999/xlink" x="0px" y="0px"
	 viewBox="0 0 32 32" style="enable-background:new 0 0 32 32;" xml:space="preserve">
<path style="fill:none;stroke:#000000;stroke-width:2;stroke-linejoin:round;stroke-miterlimit:10;" d="M21,10V9.5
	C21,7.567,19.433,6,17.5,6h-3C12.567,6,11,7.567,11,9.5v0c0,1.933,1.567,3.5,3.5,3.5H18c1.657,0,3,1.343,3,3v0c0,1.657-1.343,3-3,3"
	/>
<path style="fill:none;stroke:#000000;stroke-width:2;stroke-linejoin:round;stroke-miterlimit:10;" d="M11,22v0.5
	c0,1.933,1.567,3.5,3.5,3.5h3c1.933,0,3.5-1.567,3.5-3.5v0c0-1.933-1.567-3.5-3.5-3.5H14c-1.657,0-3-1.343-3-3v0
	c0-1.657,1.343-3,3-3"/>
</svg>
