<?xml version="1.0" encoding="iso-8859-1"?>
<!-- Generator: Adobe Illustrator 19.1.1, SVG Export Plug-In . SVG Version: 6.00 Build 0)  -->
<svg version="1.1" id="Layer_1" xmlns="http://www.w3.org/2000/svg" xmlns:xlink="http://www.w3.org/1999/xlink" x="0px" y="0px"
	 viewBox="0 0 32 32" style="enable-background:new 0 0 32 32;" xml:space="preserve">
<path style="fill:none;stroke:#000000;stroke-width:2;stroke-miterlimit:10;" d="M11,28c0,0,1-1.067,1-2.999S11,22,11,22
	s1-1.022,1-3s-1-3-1-3s1-1.606,1-3s-1-3-1-3L4,5H3"/>
<rect x="18" y="20" width="3" height="8"/>
<path style="fill:none;stroke:#000000;stroke-width:2;stroke-miterlimit:10;" d="M4,11c0,0,1-1.606,1-3S4,5,4,5"/>
<path style="fill:none;stroke:#000000;stroke-width:2;stroke-miterlimit:10;" d="M4,17L4,17c0,0,1-1.022,1-3s-1-3-1-3"/>
<path style="fill:none;stroke:#000000;stroke-width:2;stroke-miterlimit:10;" d="M4,23c0,0,1-1.067,1-2.999
	C5,18.084,4.016,17.016,4,17"/>
<polyline style="fill:none;stroke:#000000;stroke-width:2;stroke-miterlimit:10;" points="11,16 4,11 3,11 "/>
<polyline style="fill:none;stroke:#000000;stroke-width:2;stroke-miterlimit:10;" points="11,22 10.995,21.996 4,17 3,17 "/>
<path style="fill:none;stroke:#000000;stroke-width:2;stroke-miterlimit:10;" d="M3,23h1l7,5h16c0,0,1-1.067,1-2.999S27,22,27,22
	s1-1.022,1-3s-1-3-1-3s1-1.606,1-3s-1-3-1-3l-7-5H4"/>
<rect x="17" y="16" style="fill:none;stroke:#000000;stroke-width:2;stroke-miterlimit:10;" width="5" height="4"/>
<polygon points="14.973,5 9.741,5 18,10.781 18,16 21,16 21,9.219 "/>
</svg>
