<?xml version="1.0" encoding="iso-8859-1"?>
<!-- Generator: Adobe Illustrator 19.1.1, SVG Export Plug-In . SVG Version: 6.00 Build 0)  -->
<svg version="1.1" id="Layer_1" xmlns="http://www.w3.org/2000/svg" xmlns:xlink="http://www.w3.org/1999/xlink" x="0px" y="0px"
	 viewBox="0 0 32 32" style="enable-background:new 0 0 32 32;" xml:space="preserve">
<path d="M16,8c7.047,0,13,3.664,13,8s-5.953,8-13,8S3,20.336,3,16S8.953,8,16,8 M16,6C7.692,6,1,10.5,1,16s6.692,10,15,10
	s15-4.5,15-10S24.308,6,16,6L16,6z"/>
<path d="M26.892,15.103c-0.572-2.164-3.143-4.051-6.516-4.958c2.265,3.97-1.698,6.544-2.467,2.963l-0.295-3.453
	c-0.024-0.002-0.048-0.005-0.072-0.007l-0.741,0.887h-0.806h-0.806l-0.654-0.895c-0.019,0.002-0.038,0.004-0.057,0.005l-0.296,3.462
	c-0.771,3.693-4.843,1.002-2.46-2.993c-3.889,1.016-6.752,3.334-6.752,5.887c0,0.626,0.176,1.237,0.493,1.819
	c0.053,0.072,0.097,0.151,0.159,0.217c0.286,0.456,0.644,0.886,1.065,1.294c0.055,0.05,0.105,0.103,0.162,0.152
	c0.042,0.039,0.091,0.076,0.135,0.114c0.685,0.568,1.523,1.07,2.467,1.493c-1.975-3.08,1.288-3.76,2.871-0.495
	c0.705-2.572,2.97-1.59,3.675,1.838c0,0-0.001,0,0,0c0.605-3.321,3.072-4.517,3.675-1.838c1.562-3.221,4.751-2.499,3.123,0.384
	c1.578-0.746,2.818-1.732,3.536-2.841c0.409-0.711,0.639-1.47,0.639-2.244C26.971,15.627,26.939,15.364,26.892,15.103z"/>
</svg>
