<?xml version="1.0" encoding="iso-8859-1"?>
<!-- Generator: Adobe Illustrator 19.1.1, SVG Export Plug-In . SVG Version: 6.00 Build 0)  -->
<svg version="1.1" id="Layer_1" xmlns="http://www.w3.org/2000/svg" xmlns:xlink="http://www.w3.org/1999/xlink" x="0px" y="0px"
	 viewBox="-8 10 32 32" style="enable-background:new -8 10 32 32;" xml:space="preserve">
<g>
	<path d="M18,24c0-5.514-4.486-10-10-10C2.486,14-2,18.486-2,24v3.6h0.033C-1.985,27.731-2,27.864-2,28
		c0,1.32,0.857,2.444,2.044,2.844C0.318,33.441,1.843,35.666,4,36.918V37c0.045,0,0.085-0.008,0.13-0.009
		C5.278,37.629,6.595,38,8,38c4.126,0,7.533-3.14,7.956-7.156C17.143,30.444,18,29.32,18,28c0-0.136-0.015-0.269-0.033-0.4H18V24z
		 M8,16c4.411,0,8,3.589,8,8v1.178c-0.032-0.011-0.061-0.028-0.093-0.038C15.513,23.346,13.91,22,12,22c-0.552,0-1-0.449-1-1v-1H9v1
		c0,0.551-0.449,1-1,1H4c-1.911,0-3.513,1.346-3.907,3.14C0.061,25.15,0.032,25.167,0,25.178V24C0,19.589,3.589,16,8,16z M0,28
		c0-0.552,0.449-1,1-1h1v-1c0-1.103,0.897-2,2-2h3.046c0.02,1.818-0.282,4.968-1.847,6.687c-0.733,0.805-1.68,1.215-2.86,1.285
		C2.123,31.353,2,30.691,2,30v-1H1C0.449,29,0,28.552,0,28z M3.418,33.865c1.286-0.253,2.38-0.865,3.26-1.832
		c2.213-2.431,2.399-6.44,2.361-8.224c0.356-0.132,0.682-0.326,0.961-0.575C10.531,23.71,11.232,24,12,24
		c-0.002,0.104-0.039,1.471-0.412,3.213C11.421,27.088,11.224,27,11,27c-0.552,0-1,0.448-1,1s0.448,1,1,1
		c0.04,0,0.075-0.018,0.114-0.023c-0.909,2.759-2.749,5.69-6.47,5.995C4.186,34.661,3.774,34.287,3.418,33.865z M15,29h-1v1
		c0,3.257-2.609,5.909-5.846,5.992c3.881-2.078,5.412-6.966,5.759-10.543C13.964,25.626,14,25.808,14,26v1h1c0.552,0,1,0.448,1,1
		S15.552,29,15,29z"/>
	<circle cx="5" cy="28" r="1"/>
</g>
</svg>
