<?xml version="1.0" encoding="iso-8859-1"?>
<!-- Generator: Adobe Illustrator 19.1.1, SVG Export Plug-In . SVG Version: 6.00 Build 0)  -->
<svg version="1.1" id="Layer_1" xmlns="http://www.w3.org/2000/svg" xmlns:xlink="http://www.w3.org/1999/xlink" x="0px" y="0px"
	 viewBox="0 0 32 32" style="enable-background:new 0 0 32 32;" xml:space="preserve">
<polyline style="fill:none;stroke:#000000;stroke-width:2;stroke-linecap:round;stroke-linejoin:round;stroke-miterlimit:10;" points="
	27,18.75 23,16 16,21 "/>
<line style="fill:none;stroke:#000000;stroke-width:2;stroke-linecap:round;stroke-linejoin:round;stroke-miterlimit:10;" x1="23" y1="16" x2="16" y2="5"/>
<polyline style="fill:none;stroke:#000000;stroke-width:2;stroke-linecap:round;stroke-linejoin:round;stroke-miterlimit:10;" points="
	5,18.75 9,16 16,21 16,27 "/>
<line style="fill:none;stroke:#000000;stroke-width:2;stroke-linecap:round;stroke-linejoin:round;stroke-miterlimit:10;" x1="9" y1="16" x2="16" y2="5"/>
<polygon style="fill:none;stroke:#000000;stroke-width:2;stroke-miterlimit:10;" points="16,27 27,18.75 24.25,9.583 16,5 
	7.75,9.583 5,18.75 "/>
<path d="M14.337,12c-0.051,0.153-0.102,0.306-0.204,0.408c-0.102,0.102-0.204,0.204-0.357,0.255
	c-0.153,0.102-0.306,0.102-0.459,0.153c-0.095,0.032-0.207,0.042-0.316,0.046v0.617h1V17h1v-5H14.337z"/>
<g>
	<path d="M17.5,13c0.271,0,0.5,0.229,0.5,0.5v2c0,0.271-0.229,0.5-0.5,0.5S17,15.771,17,15.5v-2C17,13.229,17.229,13,17.5,13
		 M17.5,12c-0.825,0-1.5,0.675-1.5,1.5v2c0,0.825,0.675,1.5,1.5,1.5s1.5-0.675,1.5-1.5v-2C19,12.675,18.325,12,17.5,12L17.5,12z"/>
</g>
</svg>
