<?xml version="1.0" encoding="iso-8859-1"?>
<!-- Generator: Adobe Illustrator 19.2.0, SVG Export Plug-In . SVG Version: 6.00 Build 0)  -->
<svg version="1.1" id="Layer_1" xmlns="http://www.w3.org/2000/svg" xmlns:xlink="http://www.w3.org/1999/xlink" x="0px" y="0px"
	 viewBox="0 0 32 32" style="enable-background:new 0 0 32 32;" xml:space="preserve">
<circle style="fill:none;stroke:#000000;stroke-width:2;stroke-linecap:round;stroke-linejoin:round;stroke-miterlimit:10;" cx="19" cy="23" r="2"/>
<path style="fill:none;stroke:#000000;stroke-miterlimit:10;" d="M6.612,12.574c1.688-4.47,5.565-6.643,5.565-6.643"/>
<path style="fill:none;stroke:#000000;stroke-miterlimit:10;" d="M4.823,9.29C6.42,6.988,8.593,5.872,8.593,5.872"/>
<line style="fill:none;stroke:#000000;stroke-width:2;stroke-linejoin:round;stroke-miterlimit:10;" x1="27" y1="28" x2="27" y2="4"/>
<path style="fill:none;stroke:#000000;stroke-width:2;stroke-miterlimit:10;" d="M4.766,20.709l4.3-2.567
	c0.328-0.196,0.739-0.188,1.059,0.021l3.006,1.961c0.906,0.591,2.099,0.48,2.88-0.268l0,0c0.696-0.666,0.915-1.693,0.537-2.58
	c-0.751-1.761-1.706-5.206-1.804-6.21c0.258-0.943,0.833-1.905,1.392-2.683"/>
<path style="fill:none;stroke:#000000;stroke-width:2;stroke-miterlimit:10;" d="M13.131,20.125c0,0-1.259-4.695-1.144-6.771
	c0.169-3.05,2.796-5.337,2.796-5.337l7.443,1.456"/>
<path d="M21.425,7.278l2.012-0.234l-0.23-1.986l-6.16,0.715l-0.248,0.251c-0.011,0.011-0.114,0.117-0.275,0.295L21.425,7.278z"/>
</svg>
