<?xml version="1.0" encoding="iso-8859-1"?>
<!-- Generator: Adobe Illustrator 19.1.1, SVG Export Plug-In . SVG Version: 6.00 Build 0)  -->
<svg version="1.1" id="Layer_1" xmlns="http://www.w3.org/2000/svg" xmlns:xlink="http://www.w3.org/1999/xlink" x="0px" y="0px"
	 viewBox="0 0 32 32" style="enable-background:new 0 0 32 32;" xml:space="preserve">
<path d="M10,20.366c0-2.412,1.963-4.375,4.375-4.375h3.25c1.861,0,3.375-0.514,3.375-2.375V12v-2V7c0,0-0.011-2-5-2s-5,2-5,2v4h6v1
	H7c0,0-3-0.46-3,5c0,5.46,3,5,3,5h3V20.366z M13,9c-0.552,0-1-0.448-1-1c0-0.552,0.448-1,1-1s1,0.448,1,1C14,8.552,13.552,9,13,9z"
	/>
<path d="M25,11h-3v2.616c0,2.412-1.963,3.375-4.375,3.375h-3.25c-1.861,0-3.375,1.514-3.375,3.375V21v2v3c0,0,0.061,2,5,2s5-2,5-2
	v-4h-6v-1h10c0,0,3,0.505,3-5C28,10.495,25,11,25,11z M19,24c0.552,0,1,0.448,1,1c0,0.552-0.448,1-1,1s-1-0.448-1-1
	C18,24.448,18.448,24,19,24z"/>
</svg>
