<?xml version="1.0" encoding="iso-8859-1"?>
<!-- Generator: Adobe Illustrator 19.1.1, SVG Export Plug-In . SVG Version: 6.00 Build 0)  -->
<svg version="1.1" id="Layer_1" xmlns="http://www.w3.org/2000/svg" xmlns:xlink="http://www.w3.org/1999/xlink" x="0px" y="0px"
	 viewBox="0 0 32 32" style="enable-background:new 0 0 32 32;" xml:space="preserve">
<path style="fill:none;stroke:#000000;stroke-width:2;stroke-miterlimit:10;" d="M7,7c0,0-1,2.863-1,5s7.365,6,18,6
	c1.813-2.43,3-5,3-5S15.318,14,7,7z"/>
<path style="fill:none;stroke:#000000;stroke-width:2;stroke-miterlimit:10;" d="M24.682,13c0,0,2.318-2.364,2.318-5
	c0,0-0.045-5-9-5C8.045,3,7.294,6.047,7.294,6.047S7.042,7.296,8.459,8.129"/>
<path style="fill:none;stroke:#000000;stroke-width:2;stroke-miterlimit:10;" d="M20,12.226c0.873-0.759,2-1.981,2-3.226
	c0-2.031-4-2-4-2c-4.211,0-7.109,0.814-9,1.812"/>
<path style="fill:none;stroke:#000000;stroke-width:2;stroke-miterlimit:10;" d="M21,18c0,0-4,3.891-4,10.891
	C12.958,28.474,10.047,27,10.047,27S9.958,20.5,16,17"/>
<path style="fill:none;stroke:#000000;stroke-width:2;stroke-miterlimit:10;" d="M12.917,16.583c0,0-4.958,0.542-6.776,7.417
	c1.5,0.625,3.984,1.156,3.984,1.156"/>
</svg>
