<?xml version="1.0" encoding="iso-8859-1"?>
<!-- Generator: Adobe Illustrator 19.1.0, SVG Export Plug-In . SVG Version: 6.00 Build 0)  -->
<svg version="1.1" id="Layer_1" xmlns="http://www.w3.org/2000/svg" xmlns:xlink="http://www.w3.org/1999/xlink" x="0px" y="0px"
	 viewBox="0 0 32 32" style="enable-background:new 0 0 32 32;" xml:space="preserve">
<circle style="fill:none;stroke:#000000;stroke-width:2;stroke-miterlimit:10;" cx="17.5" cy="7.5" r="2.5"/>
<line style="fill:none;stroke:#000000;stroke-width:2;stroke-miterlimit:10;" x1="6.977" y1="27" x2="25.555" y2="27"/>
<path style="fill:none;stroke:#000000;stroke-width:2;stroke-miterlimit:10;" d="M6.82,15.186l2.776-3.798
	c0.24-0.328,0.655-0.479,1.05-0.38l3.592,0.897L18.236,14h3.659c0.188,0,0.372-0.053,0.532-0.153l3.908-2.454"/>
<path style="fill:none;stroke:#000000;stroke-width:2;stroke-miterlimit:10;" d="M20.952,26.795l-3.091-4.14
	c-0.092-0.124-0.212-0.225-0.35-0.294l-3.892-1.967c-0.749-0.379-1.141-1.223-0.945-2.039l1.468-6.131"/>
<path style="fill:none;stroke:#000000;stroke-width:2;stroke-miterlimit:10;" d="M17.639,13.993L16.802,18h3.54
	c0.318,0,0.617,0.151,0.805,0.407l2.932,3.98"/>
</svg>
