<?xml version="1.0" encoding="iso-8859-1"?>
<!-- Generator: Adobe Illustrator 19.1.1, SVG Export Plug-In . SVG Version: 6.00 Build 0)  -->
<svg version="1.1" id="Layer_1" xmlns="http://www.w3.org/2000/svg" xmlns:xlink="http://www.w3.org/1999/xlink" x="0px" y="0px"
	 viewBox="0 0 32 32" style="enable-background:new 0 0 32 32;" xml:space="preserve">
<g>
	<path d="M9,15v2H7v-2H9 M11,13H5v6h6V13L11,13z"/>
</g>
<g>
	<path d="M17,23v2h-2v-2H17 M19,21h-6v6h6V21L19,21z"/>
</g>
<g>
	<path d="M17,15v2h-2v-2H17 M19,13h-6v6h6V13L19,13z"/>
</g>
<g>
	<path d="M25,7v2h-2V7H25 M27,5h-6v6h6V5L27,5z"/>
</g>
<g>
	<path d="M25,15v2h-2v-2H25 M27,13h-6v6h6V13L27,13z"/>
</g>
<g>
	<path d="M25,23v2h-2v-2H25 M27,21h-6v6h6V21L27,21z"/>
</g>
<g>
	<path d="M9,23v2H7v-2H9 M11,21H5v6h6V21L11,21z"/>
</g>
<g>
	<path d="M17,7v2h-2V7H17 M19,5h-6v6h6V5L19,5z"/>
</g>
<rect x="6" y="6" style="fill:none;stroke:#000000;stroke-width:2;stroke-miterlimit:10;" width="4" height="4"/>
</svg>
