<?xml version="1.0" encoding="iso-8859-1"?>
<!-- Generator: Adobe Illustrator 21.1.0, SVG Export Plug-In . SVG Version: 6.00 Build 0)  -->
<svg version="1.1" id="Layer_1" xmlns="http://www.w3.org/2000/svg" xmlns:xlink="http://www.w3.org/1999/xlink" x="0px" y="0px"
	 viewBox="0 0 32 32" style="enable-background:new 0 0 32 32;" xml:space="preserve">
<rect x="28" y="15" width="2" height="2"/>
<rect x="24" y="15" width="2" height="2"/>
<rect x="20" y="15" width="2" height="2"/>
<rect x="10" y="15" width="2" height="2"/>
<rect x="6" y="15" width="2" height="2"/>
<rect x="2" y="15" width="2" height="2"/>
<ellipse transform="matrix(0.9885 -0.1511 0.1511 0.9885 -1.1938 2.7761)" cx="17.675" cy="9.246" rx="1.071" ry="1.071"/>
<ellipse transform="matrix(0.9885 -0.1511 0.1511 0.9885 -1.8258 2.9224)" cx="18.322" cy="13.479" rx="1.071" ry="1.071"/>
<ellipse transform="matrix(0.9885 -0.1511 0.1511 0.9885 -2.4579 3.0687)" cx="18.969" cy="17.712" rx="1.071" ry="1.071"/>
<ellipse transform="matrix(0.9885 -0.1511 0.1511 0.9885 -3.0899 3.215)" cx="19.616" cy="21.946" rx="1.071" ry="1.071"/>
<ellipse transform="matrix(0.9885 -0.1511 0.1511 0.9885 -1.3767 1.986)" cx="12.384" cy="10.054" rx="1.071" ry="1.071"/>
<ellipse transform="matrix(0.9885 -0.1511 0.1511 0.9885 -2.0087 2.1323)" cx="13.031" cy="14.288" rx="1.071" ry="1.071"/>
<ellipse transform="matrix(0.9885 -0.1511 0.1511 0.9885 -2.6408 2.2786)" cx="13.678" cy="18.521" rx="1.071" ry="1.071"/>
<ellipse transform="matrix(0.9885 -0.1511 0.1511 0.9885 -3.2728 2.4249)" cx="14.325" cy="22.754" rx="1.071" ry="1.071"/>
<path style="fill:none;stroke:#000000;stroke-width:2;stroke-miterlimit:10;" d="M20.263,26.179l-5.292,0.809
	c-0.584,0.089-1.131-0.312-1.22-0.897L10.84,7.041c-0.089-0.584,0.312-1.131,0.897-1.22l5.292-0.809
	c0.584-0.089,1.131,0.312,1.22,0.897l2.911,19.05C21.249,25.543,20.848,26.09,20.263,26.179z"/>
</svg>
