<?xml version="1.0" encoding="iso-8859-1"?>
<!-- Generator: Adobe Illustrator 19.1.0, SVG Export Plug-In . SVG Version: 6.00 Build 0)  -->
<svg version="1.1" id="Layer_1" xmlns="http://www.w3.org/2000/svg" xmlns:xlink="http://www.w3.org/1999/xlink" x="0px" y="0px"
	 viewBox="0 0 32 32" style="enable-background:new 0 0 32 32;" xml:space="preserve">
<line style="fill:none;stroke:#000000;stroke-width:2;stroke-miterlimit:10;" x1="3" y1="3" x2="29" y2="29"/>
<g>
	<path d="M11.994,13.34l2.512-5.967c1.228,0.665,3.526,2.075,5.786,4.334c2.259,2.26,3.669,4.559,4.334,5.786l-5.967,2.512
		l1.527,1.527l7.131-3.003l-0.4-0.927c-0.065-0.151-1.641-3.74-5.211-7.311s-7.159-5.146-7.311-5.211l-0.927-0.4l-3.003,7.131
		L11.994,13.34z"/>
	<path d="M15.067,19.241C14.435,19.577,14,20.234,14,21c0,0.317,0.08,0.612,0.211,0.878l-2.354,0.991
		C11.618,22.357,11.102,22,10.5,22C9.672,22,9,22.672,9,23.5c0,0.187,0.038,0.365,0.101,0.53l-1.87,0.787l-0.049-0.049l2.605-6.188
		C10.125,18.84,10.542,19,11,19c1.05,0,1.902-0.813,1.984-1.842l-3.355-3.355L4.817,25.231l1.951,1.951l11.428-4.812L15.067,19.241z
		"/>
</g>
<path style="fill:none;stroke:#000000;stroke-width:2;stroke-miterlimit:10;" d="M12.235,9c0,0,3.161,1.367,6.28,4.485
	S23,19.765,23,19.765"/>
</svg>
