<?xml version="1.0" encoding="iso-8859-1"?>
<!-- Generator: Adobe Illustrator 22.0.1, SVG Export Plug-In . SVG Version: 6.00 Build 0)  -->
<svg version="1.1" id="&#x421;&#x43B;&#x43E;&#x439;_1"
	 xmlns="http://www.w3.org/2000/svg" xmlns:xlink="http://www.w3.org/1999/xlink" x="0px" y="0px" viewBox="0 0 32 32"
	 style="enable-background:new 0 0 32 32;" xml:space="preserve">
<g>
	<g>
		<path d="M24.41,9.99l-5.4-5.4C18.61,4.19,18.15,4,17.6,4H9C7.84,4,7,4.84,7,6v2.42l2,2V6l8.59,0.01l5.4,5.4L23,11.4v13.01
			l1.96,1.97C24.99,26.26,25,26.13,25,26V11.4C25,10.85,24.81,10.39,24.41,9.99z M9,26V13.24l-2-2V26c0,1.16,0.84,2,2,2h14
			c0.23,0,0.45-0.03,0.65-0.11L21.76,26H9z"/>
	</g>
	<g>
		<path d="M13.58,15l2.01,2H19v3.41l2,2V15H13.58z M13,22v-4.76l-2-2V24h8.76l-2-2H13z"/>
	</g>
	<line style="fill:none;stroke:#000000;stroke-width:2;stroke-miterlimit:10;" x1="3" y1="3" x2="29" y2="29"/>
</g>
</svg>
