<?xml version="1.0" encoding="iso-8859-1"?>
<!-- Generator: Adobe Illustrator 19.1.1, SVG Export Plug-In . SVG Version: 6.00 Build 0)  -->
<svg version="1.1" id="Layer_1" xmlns="http://www.w3.org/2000/svg" xmlns:xlink="http://www.w3.org/1999/xlink" x="0px" y="0px"
	 viewBox="-7 9 32 32" style="enable-background:new -7 9 32 32;" xml:space="preserve">
<path d="M23,17.392V16H10.829c-0.413-1.164-1.524-2-2.828-2H-2c-1.654,0-2.999,1.345-2.999,2.999L-5,33v0v0v0.051
	C-5,34.677-3.677,36-2.051,36H-2l0,0H8c0.001,0,0.003,0,0.004,0L22,35.999l1-0.074v-1.392l-2.388-2.579L22.993,29l-2.417-3l2.417-3
	l-2.381-2.955l2.121-2.291L23,17.392z M8.002,34L-2,34c-0.551,0-1-0.448-1-1l0,0c0-0.552,0.449-1,1-1H8c0.551,0,1,0.448,1,1
	C9,33.551,8.552,33.998,8.002,34z M-2,16H8.001C8.552,16,9,16.448,9,16.999v13.185C8.686,30.072,8.352,30,8,30H-2
	c-0.352,0-0.686,0.072-1,0.184l0.001-13.185C-2.999,16.448-2.551,16-2,16z M20.425,29l-2.453,3.045l1.809,1.954l-8.964,0
	C10.928,33.685,11,33.352,11,33V18h8.781l-1.81,1.955L20.425,23l-2.417,3L20.425,29z"/>
</svg>
