<?xml version="1.0" encoding="iso-8859-1"?>
<!-- Generator: Adobe Illustrator 19.1.1, SVG Export Plug-In . SVG Version: 6.00 Build 0)  -->
<svg version="1.1" id="Layer_1" xmlns="http://www.w3.org/2000/svg" xmlns:xlink="http://www.w3.org/1999/xlink" x="0px" y="0px"
	 viewBox="0 0 32 32" style="enable-background:new 0 0 32 32;" xml:space="preserve">
<path style="fill:none;stroke:#000000;stroke-width:2;stroke-miterlimit:10;" d="M20,22.031c-4.063,0.016-4.557-0.223-6.589-1.985
	c-0.931-0.84-2.03-1.048-2.895-1.046c-0.866,0.002-1.498,0.214-1.498,0.214l-4.743,1.82l1.314,3.685L10,23.031l7.118,3.918
	L29,22.031"/>
<path d="M18,16.973l-0.48-0.263C16.75,16.289,10,12.48,10,8.5C10,6.019,12.019,4,14.5,4c1.412,0,2.675,0.653,3.5,1.675
	C18.825,4.653,20.088,4,21.5,4C23.981,4,26,6.019,26,8.5c0,3.98-6.75,7.789-7.52,8.21L18,16.973z M14.5,6C13.121,6,12,7.121,12,8.5
	c0,1.984,3.498,4.719,6,6.184c2.502-1.465,6-4.199,6-6.184C24,7.121,22.879,6,21.5,6S19,7.121,19,8.5h-2C17,7.121,15.879,6,14.5,6z"
	/>
</svg>
