<?xml version="1.0" encoding="iso-8859-1"?>
<!-- Generator: Adobe Illustrator 19.1.1, SVG Export Plug-In . SVG Version: 6.00 Build 0)  -->
<svg version="1.1" id="Layer_1" xmlns="http://www.w3.org/2000/svg" xmlns:xlink="http://www.w3.org/1999/xlink" x="0px" y="0px"
	 viewBox="0 0 32 32" style="enable-background:new 0 0 32 32;" xml:space="preserve">
<path d="M21,14v5.25c0,0.414-0.336,0.75-0.75,0.75h-3.5C16.336,20,16,19.664,16,19.25V14h-3v5.75c0,1.795,1.455,3.25,3.25,3.25H24
	v-9H21z"/>
<path style="fill:none;stroke:#000000;stroke-width:2;stroke-miterlimit:10;" d="M19.435,8C21.328,8,28,11.407,28,17.288
	C28,23.523,23.437,28,19.724,28C16.02,28,9,24.678,9,19.254C9,12.807,14.001,8,19.435,8z"/>
<circle style="fill:none;stroke:#000000;stroke-width:2;stroke-miterlimit:10;" cx="13" cy="5" r="1"/>
<path style="fill:none;stroke:#000000;stroke-width:2;stroke-miterlimit:10;" d="M7.046,5C7.512,5,10,5.22,10,7.707
	C10,10.081,8.231,11,6.94,11C5.968,11,4,10.319,4,8.473S5.164,5,7.046,5z"/>
</svg>
