<?xml version="1.0" encoding="iso-8859-1"?>
<!-- Generator: Adobe Illustrator 19.1.0, SVG Export Plug-In . SVG Version: 6.00 Build 0)  -->
<svg version="1.1" id="Layer_1" xmlns="http://www.w3.org/2000/svg" xmlns:xlink="http://www.w3.org/1999/xlink" x="0px" y="0px"
	 viewBox="0 0 32 32" style="enable-background:new 0 0 32 32;" xml:space="preserve">
<path style="fill:none;stroke:#000000;stroke-width:2;stroke-miterlimit:10;" d="M15.282,14.1C13.688,12.45,8,13.768,8,10.15"/>
<path style="fill:none;stroke:#000000;stroke-width:2;stroke-miterlimit:10;" d="M24,10c0,2.29-6.857,1.7-8.399,3.75
	c-1.116,1.45-2.445,3-2.445,6.9c0,3.05,1.588,7.35,4.459,7.35"/>
<path d="M24.159,11.495c0-1.254-2.315-3.665-5.819-2.508c-1.699-2.117-4.148-1.975-4.148-1.975s1.125,1.846,1.222,4.451
	c-0.932-1.19-1.832-2.206-2.733-2.733c-2.894,0.836-4.34,3.268-4.34,3.268l7.215,1.699L24.159,11.495z"/>
<ellipse cx="17" cy="17" rx="1" ry="1"/>
<circle cx="19.5" cy="18.5" r="0.5"/>
<circle cx="17.5" cy="20.5" r="0.5"/>
<path style="fill:none;stroke:#000000;stroke-width:2;stroke-linecap:round;stroke-linejoin:round;stroke-miterlimit:10;" d="M10,28
	h12l2-17v-1c0-3.314-2.686-6-6-6h-4c-3.314,0-6,2.686-6,6v1L10,28z"/>
</svg>
