<?xml version="1.0" encoding="iso-8859-1"?>
<!-- Generator: Adobe Illustrator 18.1.1, SVG Export Plug-In . SVG Version: 6.00 Build 0)  -->
<svg version="1.1" id="Layer_1" xmlns="http://www.w3.org/2000/svg" xmlns:xlink="http://www.w3.org/1999/xlink" x="0px" y="0px"
	 viewBox="0 0 32 32" style="enable-background:new 0 0 32 32;" xml:space="preserve">
<path style="fill:none;stroke:#000000;stroke-width:2;stroke-miterlimit:10;" d="M22.715,12.858L21,10l0.674-3.717
	C21.846,5.078,20.911,4,19.694,4h-8.959c-0.995,0-1.839,0.732-1.98,1.717L8.161,9.873c-0.105,0.734,0.017,1.482,0.348,2.145l0,0
	c0.32,0.64,0.445,1.355,0.359,2.065C8.596,16.319,8,21.299,8,22c0,3.314,2.711,6,7,6c3.868,0,5.77-1.621,6.622-3.899
	c0.159-0.424,1.111-4.123,1.761-6.673C23.779,15.876,23.539,14.231,22.715,12.858z"/>
<path style="fill:none;stroke:#000000;stroke-width:2;stroke-miterlimit:10;" d="M19.417,16.794c-1.222,4.783-1.28,5.175-1.33,5.341
	C17.727,23.398,17.262,24,15,24s-3.403-0.903-3.223-2.946c0.01-0.262,0.34-3.39,0.453-4.136c0.113-0.746,0.81-3.007,3.889-3.007
	c0.412,0,1.821,0.169,2.155,0.469c0,0,0.496,0.431,0.804,0.723C19.413,15.422,19.567,16.207,19.417,16.794z"/>
<path style="fill:none;stroke:#000000;stroke-width:2;stroke-miterlimit:10;" d="M18.649,4.32l-0.647,2.926
	c-0.08,0.361,0.046,0.736,0.326,0.976l3.299,2.823"/>
<path style="fill:none;stroke:#000000;stroke-width:2;stroke-miterlimit:10;" d="M13,4v4.764c0,0.758-0.428,1.45-1.106,1.789L9,12"
	/>
</svg>
