<?xml version="1.0" encoding="iso-8859-1"?>
<!-- Generator: Adobe Illustrator 22.1.0, SVG Export Plug-In . SVG Version: 6.00 Build 0)  -->
<svg version="1.1" id="Layer_1" xmlns="http://www.w3.org/2000/svg" xmlns:xlink="http://www.w3.org/1999/xlink" x="0px" y="0px"
	 viewBox="0 0 32 32" style="enable-background:new 0 0 32 32;" xml:space="preserve">
<polygon style="fill:none;stroke:#000000;stroke-width:2;stroke-miterlimit:10;" points="16,6 5,25 27,25 "/>
<polyline style="fill:none;stroke:#000000;stroke-width:2;stroke-miterlimit:10;" points="21,25 21,29 24,29 "/>
<polyline style="fill:none;stroke:#000000;stroke-width:2;stroke-miterlimit:10;" points="24,19 28,19 28,16 "/>
<polyline style="fill:none;stroke:#000000;stroke-width:2;stroke-miterlimit:10;" points="8,19 4,19 4,16 "/>
<polyline style="fill:none;stroke:#000000;stroke-width:2;stroke-miterlimit:10;" points="11.5,25 11.5,29 8.5,29 "/>
<path d="M17,17c0,1.5-1,3-1,3s-1-1.5-1-3s1-3,1-3S17,15.5,17,17z"/>
<line style="fill:none;stroke:#000000;stroke-width:2;stroke-miterlimit:10;" x1="12" y1="7" x2="20" y2="7"/>
<line style="fill:none;stroke:#000000;stroke-width:4;stroke-miterlimit:10;" x1="16" y1="7" x2="16" y2="2"/>
<path style="fill:none;stroke:#000000;stroke-width:2;stroke-miterlimit:10;" d="M22,17c0,0-2.686,4-6,4s-6-4-6-4s2.686-4,6-4
	S22,17,22,17z"/>
</svg>
