<?xml version="1.0" encoding="iso-8859-1"?>
<!-- Generator: Adobe Illustrator 19.1.1, SVG Export Plug-In . SVG Version: 6.00 Build 0)  -->
<svg version="1.1" id="Layer_1" xmlns="http://www.w3.org/2000/svg" xmlns:xlink="http://www.w3.org/1999/xlink" x="0px" y="0px"
	 viewBox="0 0 32 32" style="enable-background:new 0 0 32 32;" xml:space="preserve">
<circle style="fill:none;stroke:#000000;stroke-width:2;stroke-miterlimit:10;" cx="16" cy="16" r="11"/>
<g>
	<path d="M18.063,14.459c0.118,0,0.177-0.059,0.177-0.177c0-0.104-0.059-0.155-0.177-0.155c-0.103,0-0.155,0.052-0.155,0.155
		C17.907,14.4,17.959,14.459,18.063,14.459z"/>
	<path d="M13.095,14.503c-0.133,0-0.2,0.067-0.2,0.2c0,0.118,0.067,0.177,0.2,0.177s0.2-0.059,0.2-0.177
		C13.294,14.57,13.228,14.503,13.095,14.503z"/>
	<path d="M16.909,17.708c0.044-0.007,0.089-0.007,0.133,0c0.044,0.007,0.104,0.015,0.177,0.022s0.14,0.011,0.2,0.011
		c0.133,0,0.325,0.018,0.577,0.055s0.436,0.055,0.554,0.055c0.458,0,1.397-0.27,2.817-0.809c1.419-0.54,2.129-0.957,2.129-1.253
		c0-0.177-0.137-0.303-0.41-0.377c-0.274-0.074-0.529-0.111-0.765-0.111c-0.207,0-0.517,0.055-0.931,0.166
		c-0.414,0.111-0.865,0.244-1.353,0.399c-0.488,0.155-0.813,0.255-0.976,0.299c0.059-0.296,0.089-0.532,0.089-0.71
		c0-0.695-0.185-1.504-0.554-2.428c-0.37-0.924-0.798-1.608-1.286-2.051c-0.399-0.355-0.931-0.599-1.597-0.732
		c-0.414-0.532-1.061-1.016-1.941-1.453s-1.66-0.654-2.34-0.654c-0.133,0-0.336,0.026-0.61,0.078
		c-0.273,0.052-0.447,0.085-0.521,0.1L9.813,9.003l0.133,0.022c0.104,0,0.262-0.015,0.477-0.044c0.214-0.03,0.373-0.044,0.477-0.044
		c0.503,0,1.079,0.103,1.73,0.31c-0.414,0.207-0.776,0.347-1.087,0.421c-0.03,0.015-0.126,0.033-0.288,0.055
		s-0.299,0.044-0.41,0.067c-0.111,0.022-0.214,0.067-0.31,0.133s-0.144,0.152-0.144,0.255c0.828-0.089,1.449-0.133,1.863-0.133
		c0.562,0,1.005,0.052,1.331,0.155c-1.138,0.133-2.014,0.525-2.628,1.175c-0.614,0.651-0.92,1.545-0.92,2.683
		c0,0.399,0.03,0.769,0.089,1.109c0.281,1.774,0.821,4.421,1.619,7.94c0.326,1.521,0.556,2.587,0.691,3.198
		c2.666,0.934,5.367,0.352,5.931,0.214c-0.142-0.234-0.342-0.536-0.601-0.906c-0.362-0.517-0.617-0.931-0.765-1.242
		c0.946,0.384,1.582,0.577,1.907,0.577c0.237,0,0.355-0.37,0.355-1.109c0-1.375-0.126-2.063-0.377-2.063
		c-0.37,0-1.087,0.407-2.151,1.22c0-0.207-0.111-0.296-0.333-0.266h-0.111c-0.384-1.02-0.577-1.929-0.577-2.728
		c0-0.222,0.022-0.444,0.067-0.665c1.36,0.665,2.454,0.998,3.282,0.998c0.458,0,1.15-0.133,2.074-0.399
		c0.924-0.266,1.386-0.554,1.386-0.865c0-0.192-0.126-0.288-0.377-0.288c-0.384,0-0.939,0.052-1.663,0.155
		c-0.724,0.103-1.279,0.155-1.663,0.155c-0.399,0-0.839-0.104-1.32-0.31c-0.48-0.207-0.721-0.488-0.721-0.843
		c0-0.074,0.011-0.129,0.033-0.166C16.832,17.737,16.865,17.715,16.909,17.708z M11.343,13.549
		c-0.044-0.089-0.067-0.177-0.067-0.266c0-0.251,0.115-0.447,0.344-0.588c0.229-0.14,0.469-0.211,0.721-0.211
		c0.281,0,0.495,0.096,0.643,0.288c-0.177-0.074-0.325-0.111-0.444-0.111c-0.251,0-0.517,0.089-0.798,0.266
		C11.461,13.106,11.328,13.313,11.343,13.549z M13.283,15.468c-0.155,0.155-0.329,0.233-0.521,0.233
		c-0.192,0-0.366-0.078-0.521-0.233s-0.233-0.329-0.233-0.521s0.078-0.366,0.233-0.521s0.329-0.233,0.521-0.233
		c0.192,0,0.366,0.078,0.521,0.233s0.233,0.329,0.233,0.521S13.439,15.313,13.283,15.468z M18.417,14.503
		c0,0.163-0.063,0.31-0.189,0.444s-0.277,0.2-0.455,0.2c-0.163,0-0.31-0.067-0.444-0.2c-0.133-0.133-0.2-0.281-0.2-0.444
		c0-0.177,0.067-0.329,0.2-0.455c0.133-0.126,0.281-0.189,0.444-0.189c0.177,0,0.329,0.063,0.455,0.189S18.417,14.326,18.417,14.503
		z M16.621,12.773c0.059-0.37,0.318-0.554,0.776-0.554c0.37,0,0.628,0.163,0.776,0.488c-0.296-0.148-0.54-0.222-0.732-0.222
		C17.013,12.485,16.739,12.581,16.621,12.773z"/>
</g>
</svg>
