<?xml version="1.0" encoding="iso-8859-1"?>
<!-- Generator: Adobe Illustrator 19.0.1, SVG Export Plug-In . SVG Version: 6.00 Build 0)  -->
<svg version="1.1" id="Layer_1" xmlns="http://www.w3.org/2000/svg" xmlns:xlink="http://www.w3.org/1999/xlink" x="0px" y="0px"
	 viewBox="0 0 32 32" style="enable-background:new 0 0 32 32;" xml:space="preserve">
<path style="fill:none;stroke:#000000;stroke-width:2;stroke-miterlimit:10;" d="M25.5,13c0,0,0.5-1.621,0.5-2.402
	C26,6.692,21.406,6,20,6l-1.349-1h-5.301L12,6c-1.406,0-6,0.692-6,4.598C6,11.379,6.5,13,6.5,13S5,14.763,5,17.107L7,19
	c1.775-0.517,2.45-3,2.45-3h0.1c0,0,0.95,1.531,0.95,5.533c0,0.391-0.5,1.692-0.5,2.343c0,0.781,0.41,2.083,2,3.124h8
	c1.59-1.041,2-2.343,2-3.124c0-0.651-0.5-1.953-0.5-2.343c0-4.001,0.95-5.533,0.95-5.533h0.1c0,0,0.675,2.483,2.45,3l2-1.893
	C27,14.763,25.5,13,25.5,13z"/>
<path d="M16,5v3.438C16,9.406,17.016,10,18,10c1.016,0,3-4,3-4s-2.813-1.5-3-1.5C17.812,4.5,16.352,4.648,16,5z"/>
<path d="M14,4.5c-0.188,0-3,1.5-3,1.5s1.984,4,3,4c0.984,0,2-0.594,2-1.562V5C15.648,4.648,14.188,4.5,14,4.5z"/>
</svg>
