<?xml version="1.0" encoding="iso-8859-1"?>
<!-- Generator: Adobe Illustrator 19.1.1, SVG Export Plug-In . SVG Version: 6.00 Build 0)  -->
<svg version="1.1" id="Layer_1" xmlns="http://www.w3.org/2000/svg" xmlns:xlink="http://www.w3.org/1999/xlink" x="0px" y="0px"
	 viewBox="0 0 32 32" style="enable-background:new 0 0 32 32;" xml:space="preserve">
<polyline style="fill:none;stroke:#000000;stroke-width:2;stroke-miterlimit:10;" points="3.998,15.998 3.998,15.998 19,21 "/>
<polyline style="fill:none;stroke:#000000;stroke-width:2;stroke-miterlimit:10;" points="28,16 19,21 16,4 "/>
<polyline style="fill:none;stroke:#000000;stroke-width:2;stroke-miterlimit:10;" points="28,16 19,21 16,28 "/>
<polygon style="fill:none;stroke:#000000;stroke-width:2;stroke-miterlimit:10;" points="15.998,27.998 4,16 3.998,15.998 16,4 
	28,16 16,28 "/>
<polyline style="fill:none;stroke:#000000;stroke-width:2;stroke-miterlimit:10;" points="4,16 19,21 16,28 "/>
<g>
	<path d="M14.918,12.267c-0.097,0.317-0.256,0.625-0.46,0.789c-0.246,0.199-0.493,0.347-0.788,0.397
		c0.148,0.149,0.246,0.248,0.345,0.397c0.608,0.92,0.217,2.553-0.837,2.978c-1.874,0.755-3.884-1.102-2.935-3.016
		c0.187-0.377,0.511-0.719,0.915-0.855c0.148-0.05,0.345-0.099,0.493-0.149c-0.197-0.199-0.345-0.496-0.394-0.744
		c-0.099-0.597,0.068-1.212,0.517-1.629c0.534-0.496,1.18-0.49,1.847-0.356C14.66,10.287,15.221,11.275,14.918,12.267z
		 M13.248,15.113c0.082-0.277,0.087-0.58-0.005-0.853c-0.205-0.609-1.018-0.873-1.555-0.54c-0.318,0.198-0.461,0.565-0.526,0.92
		c-0.114,0.628,0.108,1.23,0.795,1.366C12.595,16.134,13.082,15.678,13.248,15.113z M13.964,11.971
		c0.045-0.257,0.012-0.533-0.096-0.751c-0.135-0.273-0.409-0.441-0.714-0.448c-0.721-0.017-1.056,0.842-0.844,1.447
		c0.149,0.423,0.631,0.622,1.047,0.507C13.702,12.629,13.903,12.316,13.964,11.971z"/>
</g>
</svg>
