<?xml version="1.0" encoding="iso-8859-1"?>
<!-- Generator: Adobe Illustrator 19.1.0, SVG Export Plug-In . SVG Version: 6.00 Build 0)  -->
<svg version="1.1" id="Layer_1" xmlns="http://www.w3.org/2000/svg" xmlns:xlink="http://www.w3.org/1999/xlink" x="0px" y="0px"
	 viewBox="0 0 32 32" style="enable-background:new 0 0 32 32;" xml:space="preserve">
<path style="fill:none;stroke:#000000;stroke-width:2;stroke-miterlimit:10;" d="M25,19c0,0,0-2.345,0-3c0-4.991-4.009-9-9-9
	s-9,4.009-9,9c0,0.655,0,3,0,3"/>
<path style="fill:none;stroke:#000000;stroke-width:2;stroke-miterlimit:10;" d="M21,19c0,0,0-2.643,0-3c0-2.786-2.214-5-5-5
	s-5,2.214-5,5c0,0.357,0,3,0,3"/>
<path d="M18,19c0,0,0-2.867,0-3c0-1.133-0.867-2-2-2s-2,0.867-2,2c0,0.133,0,3,0,3H18z"/>
<polygon style="fill:none;stroke:#000000;stroke-width:2;stroke-miterlimit:10;" points="25.5,19 6.5,19 4,22 4,25 15.83,25 28,25 
	28,22 "/>
</svg>
