<?xml version="1.0" encoding="utf-8"?>
<!-- Generator: Adobe Illustrator 18.1.1, SVG Export Plug-In . SVG Version: 6.00 Build 0)  -->
<svg version="1.1" id="Layer_1" xmlns="http://www.w3.org/2000/svg" xmlns:xlink="http://www.w3.org/1999/xlink" x="0px" y="0px"
	 viewBox="0 0 32 32" enable-background="new 0 0 32 32" xml:space="preserve">
<rect x="7" y="14" fill="none" stroke="#000000" stroke-width="2" stroke-miterlimit="10" width="18" height="14"/>
<path fill="none" stroke="#000000" stroke-width="2" stroke-miterlimit="10" d="M22,14v-4c0-3.3-2.7-6-6-6h0c-3.3,0-6,2.7-6,6v4"/>
<circle fill="none" stroke="#000000" stroke-width="2" stroke-miterlimit="10" cx="16" cy="21" r="4"/>
<path d="M17,21c-0.6,0-1-0.4-1-1c0-0.4,0.2-0.7,0.6-0.9C16.4,19,16.2,19,16,19c-1.1,0-2,0.9-2,2c0,1.1,0.9,2,2,2s2-0.9,2-2
	c0-0.2,0-0.4-0.1-0.6C17.7,20.8,17.4,21,17,21z"/>
</svg>
