<?xml version="1.0" encoding="utf-8"?>
<!-- Generator: Adobe Illustrator 18.1.1, SVG Export Plug-In . SVG Version: 6.00 Build 0)  -->
<svg version="1.1" id="Layer_1" xmlns="http://www.w3.org/2000/svg" xmlns:xlink="http://www.w3.org/1999/xlink" x="0px" y="0px"
	 viewBox="0 0 32 32" enable-background="new 0 0 32 32" xml:space="preserve">
<circle fill="none" stroke="#000000" stroke-width="2" stroke-miterlimit="10" cx="16" cy="10" r="5"/>
<g>
	<path fill="none" stroke="#000000" stroke-width="2" stroke-miterlimit="10" d="M23,19.1c-1.4-2.4-4-4.1-7-4.1s-5.6,1.6-7,4.1"/>
</g>
<circle cx="21" cy="22" r="1"/>
<path fill="none" stroke="#000000" stroke-width="2" stroke-miterlimit="10" d="M22.1,27H9.9c-0.5,0-0.9-0.4-1-0.9l-0.8-6
	c-0.1-0.6,0.4-1.1,1-1.1h13.7c0.6,0,1.1,0.5,1,1.1l-0.8,6C23,26.6,22.6,27,22.1,27z"/>
<path fill="none" stroke="#000000" stroke-width="2" stroke-miterlimit="10" d="M21,27h3c1.1,0,2-0.9,2-2v0c0-1.1-0.9-2-2-2h-1"/>
<path fill="none" stroke="#000000" stroke-width="2" stroke-miterlimit="10" d="M11,27H8c-1.1,0-2-0.9-2-2v0c0-1.1,0.9-2,2-2h1"/>
</svg>
