<?xml version="1.0" encoding="iso-8859-1"?>
<!-- Generator: Adobe Illustrator 19.1.1, SVG Export Plug-In . SVG Version: 6.00 Build 0)  -->
<svg version="1.1" id="Layer_1" xmlns="http://www.w3.org/2000/svg" xmlns:xlink="http://www.w3.org/1999/xlink" x="0px" y="0px"
	 viewBox="0 0 32 32" style="enable-background:new 0 0 32 32;" xml:space="preserve">
<circle style="fill:none;stroke:#000000;stroke-width:2;stroke-miterlimit:10;" cx="16" cy="12" r="6"/>
<path d="M27,23v4h2l-2,5v-4h-2C25,28,27,23.143,27,23z"/>
<path style="fill:none;stroke:#000000;stroke-width:2;stroke-miterlimit:10;" d="M31,32l0-7c0-2.2-1.8-4-4-4h0c-2.2,0-4,1.8-4,4l0,7
	"/>
<g>
	<path d="M21.988,21.71c0.372-0.565,0.839-1.061,1.376-1.471C21.498,18.201,18.853,17,16,17c-5.514,0-10,4.486-10,10h2
		c0-4.411,3.589-8,8-8C18.334,19,20.491,20.01,21.988,21.71z"/>
</g>
</svg>
