<?xml version="1.0" encoding="iso-8859-1"?>
<!-- Generator: Adobe Illustrator 19.1.1, SVG Export Plug-In . SVG Version: 6.00 Build 0)  -->
<svg version="1.1" id="Layer_1" xmlns="http://www.w3.org/2000/svg" xmlns:xlink="http://www.w3.org/1999/xlink" x="0px" y="0px"
	 viewBox="0 0 32 32" style="enable-background:new 0 0 32 32;" xml:space="preserve">
<rect x="21.259" y="14" width="2.433" height="8"/>
<path d="M24,11.444c0,0.803-0.647,1.45-1.446,1.45s-1.447-0.647-1.447-1.45c0-0.797,0.648-1.444,1.447-1.444S24,10.647,24,11.444z"
	/>
<rect x="26.28" y="14" width="2.433" height="8"/>
<path d="M28.893,11.444c0,0.803-0.648,1.45-1.448,1.45c-0.799,0-1.445-0.647-1.445-1.45C26,10.647,26.646,10,27.445,10
	C28.245,10,28.893,10.647,28.893,11.444z"/>
<path d="M17.162,10l-2.235,8.865c0,0-1.381-5.301-1.797-7.095C12.713,9.98,11.397,10,11.397,10s-1.313-0.021-1.731,1.769
	C9.25,13.563,7.87,18.865,7.87,18.865L5.634,10H3.048l2.739,9.964c0,0,0.373,2.036,1.939,2.036c1.567,0,1.939-2.036,1.939-2.036
	l1.731-6.425l1.732,6.425c0,0,0.373,2.036,1.94,2.036c1.566,0,1.938-2.036,1.938-2.036L19.746,10H17.162z"/>
</svg>
