<?xml version="1.0" encoding="iso-8859-1"?>
<!-- Generator: Adobe Illustrator 19.1.1, SVG Export Plug-In . SVG Version: 6.00 Build 0)  -->
<svg version="1.1" id="Layer_1" xmlns="http://www.w3.org/2000/svg" xmlns:xlink="http://www.w3.org/1999/xlink" x="0px" y="0px"
	 viewBox="0 0 32 32" style="enable-background:new 0 0 32 32;" xml:space="preserve">
<circle style="fill:none;stroke:#000000;stroke-width:2;stroke-linecap:round;stroke-linejoin:round;stroke-miterlimit:10;" cx="17" cy="15" r="11"/>
<line style="fill:none;stroke:#000000;stroke-width:2;stroke-miterlimit:10;" x1="9.214" y1="22.786" x2="3.765" y2="28.235"/>
<rect x="15" y="14" width="4" height="3"/>
<line style="fill:none;stroke:#000000;stroke-width:2;stroke-miterlimit:10;" x1="17" y1="23" x2="17" y2="18"/>
<rect x="20" y="14" width="1" height="2"/>
<rect x="21" y="15" width="1" height="2"/>
<rect x="22" y="14" width="1" height="2"/>
<rect x="23" y="15" width="1" height="2"/>
<rect x="24" y="14" width="1" height="2"/>
<rect x="25" y="15" width="1" height="2"/>
<rect x="26" y="14" width="1" height="2"/>
<path d="M13.602,15.408c-0.35-0.127-0.69-0.272-1.02-0.435l0.884-1.795c0.265,0.131,0.538,0.247,0.818,0.349L13.602,15.408z
	 M11.614,14.428c-0.312-0.2-0.611-0.417-0.898-0.648l1.257-1.557c0.23,0.187,0.472,0.36,0.723,0.521L11.614,14.428z M9.893,13.034
	c-0.261-0.263-0.507-0.541-0.737-0.832l1.568-1.24c0.184,0.232,0.38,0.454,0.588,0.664L9.893,13.034z M8.517,11.297
	c-0.196-0.313-0.375-0.638-0.537-0.973l1.803-0.867c0.129,0.269,0.272,0.527,0.428,0.777L8.517,11.297z"/>
<path d="M9.783,21.543L7.98,20.676c0.161-0.335,0.34-0.66,0.537-0.973l1.694,1.063C10.055,21.016,9.912,21.274,9.783,21.543z
	 M10.725,20.038l-1.568-1.24c0.23-0.291,0.476-0.569,0.737-0.832l1.42,1.408C11.105,19.584,10.909,19.806,10.725,20.038z
	 M11.972,18.777l-1.257-1.557c0.287-0.231,0.587-0.448,0.898-0.648l1.081,1.684C12.444,18.417,12.203,18.591,11.972,18.777z
	 M13.466,17.821l-0.884-1.795c0.33-0.162,0.67-0.308,1.02-0.435l0.682,1.881C14.003,17.574,13.73,17.69,13.466,17.821z"/>
</svg>
