<?xml version="1.0" encoding="iso-8859-1"?>
<!-- Generator: Adobe Illustrator 19.1.1, SVG Export Plug-In . SVG Version: 6.00 Build 0)  -->
<svg version="1.1" id="Layer_1" xmlns="http://www.w3.org/2000/svg" xmlns:xlink="http://www.w3.org/1999/xlink" x="0px" y="0px"
	 viewBox="-8 10 32 32" style="enable-background:new -8 10 32 32;" xml:space="preserve">
<g>
	<path d="M18,25.721l-0.001-4.675c0.006-0.12,0.112-2.978-2.083-5.277c-1.166-1.221-2.742-2.033-4.69-2.447
		C10.517,13.116,9.77,13,8.995,13h-1.99c-0.775,0-1.522,0.116-2.23,0.323c-1.948,0.413-3.524,1.225-4.69,2.447
		C-2.111,18.069-2.004,20.926-2,21v4.721c-0.574,0.477-1,1.21-1,2.279c0,2.068,1.165,3.506,3.04,3.865C0.422,36.17,3.524,39,8,39
		c2.149,0,3.976-0.658,5.342-1.812C13.154,38.591,13,39.763,13,40c0,0.552,0.448,1,1,1s1-0.448,1-1c0-0.354-0.343-1.769-0.633-3.88
		c0.885-1.146,1.445-2.588,1.593-4.255C17.836,31.506,19,30.068,19,28C19,26.931,18.574,26.198,18,25.721z M10.741,15.261
		c1.109,0.338,2.081,0.989,2.816,1.85C13.226,17.043,12.88,17,12.509,17c-0.883,0-1.63,0.319-2.204,0.906
		C9.867,16.843,9.156,16,8,16c-1.175,0-1.89,0.751-2.325,1.674C5.109,17.211,4.471,17.023,4,17c-0.654,0-1.231,0.128-1.742,0.341
		c0.753-0.974,1.794-1.712,2.998-2.08C6.082,15.092,6.993,15,8,15C9.005,15,9.915,15.091,10.741,15.261z M15,29.953h-1V30
		c0,0-0.308,0.965-0.833,1c-0.474,0.031-1.44-0.028-1.882,0.217c-0.601,0.334-0.115,1.769-0.451,2.366
		c-0.369,0.654-0.52,0.354-1.042,0.529C9.565,34.188,8.958,34.5,9,35.577c-0.073,0.554-0.149,1.232-1.409,1.389
		C4.188,36.789,2,34.482,2,30.953v-1H1c-1.327,0-2-0.657-2-1.953c0-0.805,0.55-0.988,1-1l1,0v-4.898
		c0.094-0.45,0.742-3.102,2.923-3.105C4.103,19.017,5,19.206,5,21l2,0.009C7.011,19.812,7.416,18,8,18c0.372,0,0.98,1.834,1,4.008
		L11,22c0-0.501,0.072-3,1.509-3c0.746,0,1.305,0.203,1.707,0.619c0.706,0.728,0.778,1.913,0.784,2.247V26l0.014,0.975L15.987,27
		C16.449,27.012,17,27.195,17,28C17,29.296,16.327,29.953,15,29.953z"/>
	<path d="M4.496,26C3.248,26.001,2,26.448,2,27c0,1.105,1.119,2,2.5,2S7,28.105,7,27C7,26.447,5.748,25.999,4.496,26z"/>
	<ellipse cx="11.5" cy="27" rx="2.5" ry="2"/>
	<path d="M8,29c-0.552,0-1,0.895-1,2s0.448,0,1,0s1,1.105,1,0S8.552,29,8,29z"/>
</g>
</svg>
