<?xml version="1.0" encoding="iso-8859-1"?>
<!-- Generator: Adobe Illustrator 19.1.0, SVG Export Plug-In . SVG Version: 6.00 Build 0)  -->
<svg version="1.1" id="Layer_1" xmlns="http://www.w3.org/2000/svg" xmlns:xlink="http://www.w3.org/1999/xlink" x="0px" y="0px"
	 viewBox="0 0 32 32" style="enable-background:new 0 0 32 32;" xml:space="preserve">
<circle style="fill:none;stroke:#000000;stroke-width:2;stroke-miterlimit:10;" cx="16" cy="16" r="8"/>
<circle cx="26" cy="7" r="2"/>
<circle cx="9" cy="5" r="2"/>
<circle cx="4" cy="16" r="2"/>
<circle cx="28" cy="16" r="2"/>
<circle cx="24" cy="27" r="2"/>
<circle cx="10" cy="27" r="2"/>
<path style="fill:none;stroke:#000000;stroke-width:2;stroke-miterlimit:10;" d="M18,15v-0.618C18,13.619,17.381,13,16.618,13
	h-1.236C14.619,13,14,13.619,14,14.382v0c0,0.379,0.214,0.725,0.553,0.894l2.894,1.447C17.786,16.893,18,17.239,18,17.618v0
	C18,18.381,17.381,19,16.618,19h-1.236C14.619,19,14,18.381,14,17.618V17"/>
<line style="fill:none;stroke:#000000;stroke-width:2;stroke-miterlimit:10;" x1="16" y1="13" x2="16" y2="11"/>
<line style="fill:none;stroke:#000000;stroke-width:2;stroke-miterlimit:10;" x1="16" y1="21" x2="16" y2="19"/>
<line style="fill:none;stroke:#000000;stroke-width:2;stroke-miterlimit:10;" x1="10" y1="27" x2="12.178" y2="23.008"/>
<line style="fill:none;stroke:#000000;stroke-width:2;stroke-miterlimit:10;" x1="24" y1="27" x2="20.838" y2="22.653"/>
<line style="fill:none;stroke:#000000;stroke-width:2;stroke-miterlimit:10;" x1="28" y1="16" x2="24" y2="16"/>
<line style="fill:none;stroke:#000000;stroke-width:2;stroke-miterlimit:10;" x1="4" y1="16" x2="8" y2="16"/>
<line style="fill:none;stroke:#000000;stroke-width:2;stroke-miterlimit:10;" x1="9" y1="5" x2="11.666" y2="9.19"/>
<line style="fill:none;stroke:#000000;stroke-width:2;stroke-miterlimit:10;" x1="26" y1="7" x2="22.031" y2="10.572"/>
</svg>
