<?xml version="1.0" encoding="iso-8859-1"?>
<!-- Generator: Adobe Illustrator 19.1.0, SVG Export Plug-In . SVG Version: 6.00 Build 0)  -->
<svg version="1.1" id="Layer_1" xmlns="http://www.w3.org/2000/svg" xmlns:xlink="http://www.w3.org/1999/xlink" x="0px" y="0px"
	 viewBox="0 0 32 32" style="enable-background:new 0 0 32 32;" xml:space="preserve">
<path style="fill:none;stroke:#000000;stroke-width:2;stroke-miterlimit:10;" d="M16,16L16,16c-3.314,0-6-2.686-6-6V5h12v5
	C22,13.314,19.314,16,16,16z"/>
<path style="fill:none;stroke:#000000;stroke-width:2;stroke-miterlimit:10;" d="M16,16L16,16c3.314,0,6,2.686,6,6v5H10v-5
	C10,18.686,12.686,16,16,16z"/>
<path d="M16,14L16,14c-2.209,0-4-1.791-4-4V8h8v2C20,12.209,18.209,14,16,14z"/>
<line style="fill:none;stroke:#000000;stroke-width:2;stroke-miterlimit:10;" x1="7" y1="5" x2="25" y2="5"/>
<line style="fill:none;stroke:#000000;stroke-width:2;stroke-miterlimit:10;" x1="7" y1="27" x2="25" y2="27"/>
</svg>
