<?xml version="1.0" encoding="iso-8859-1"?>
<!-- Generator: Adobe Illustrator 21.0.0, SVG Export Plug-In . SVG Version: 6.00 Build 0)  -->
<svg version="1.1" 
	 xmlns="http://www.w3.org/2000/svg" xmlns:xlink="http://www.w3.org/1999/xlink" x="0px" y="0px" viewBox="0 0 32 32"
	 style="enable-background:new 0 0 32 32;" xml:space="preserve">
<path d="M16,3C8.82,3,3,8.82,3,16s5.82,13,13,13s13-5.82,13-13S23.18,3,16,3z M16,27C9.935,27,5,22.065,5,16S9.935,5,16,5
	s11,4.935,11,11S22.065,27,16,27z"/>
<path d="M21.388,21.692c0.61,0,1.28-0.469,1.489-1.042l3.03-8.114c0.448-1.233-0.258-2.24-1.569-2.24h-4.822l-4.078,11.423h-0.001
	l-2.29,6.291c0.759,0.18,1.543,0.288,2.349,0.321l2.418-6.639H21.388z M21.584,12.198h1.968l-2.85,7.605h-1.968L21.584,12.198z"/>
<path d="M15.117,10.296h-1.979l2.389-6.63c-0.957,0.037-1.885,0.181-2.774,0.424L6.43,21.704h2.619l3.418-9.506h1.981l-3.43,9.506
	h2.421l3.245-9.167C17.133,11.304,16.427,10.296,15.117,10.296z"/>
</svg>
