<?xml version="1.0" encoding="iso-8859-1"?>
<!-- Generator: Adobe Illustrator 21.0.2, SVG Export Plug-In . SVG Version: 6.00 Build 0)  -->
<svg version="1.1" id="Layer_1" xmlns="http://www.w3.org/2000/svg" xmlns:xlink="http://www.w3.org/1999/xlink" x="0px" y="0px"
	 viewBox="0 0 32 32" style="enable-background:new 0 0 32 32;" xml:space="preserve">
<line style="fill:none;stroke:#000000;stroke-width:2;stroke-miterlimit:10;" x1="6.224" y1="11" x2="25.776" y2="11"/>
<polygon points="17,18 21,28 22.881,25.313 26,28 27.999,25.755 24.708,23.022 27,21 "/>
<path d="M16,4C9.383,4,4,9.383,4,16c0,6.617,5.383,12,12,12c0.936,0,1.842-0.118,2.717-0.322l-1.279-3.199
	C16.955,25.454,16.437,26,16,26c-0.727,0-1.68-1.485-2.314-4h2.76l-0.8-2h-2.359c-0.123-0.82-0.205-1.719-0.248-2.669l-0.445,0.075
	V15h0.425C13.204,9.551,14.873,6,16,6s2.796,3.551,2.981,9H14l0.007,0.014l1.582,0.475l5.387,1.616
	c0.001-0.035,0.005-0.07,0.006-0.105h4.967c-0.052,0.518-0.145,1.023-0.274,1.515l1.907,0.572C27.846,18.1,28,17.069,28,16
	C28,9.383,22.617,4,16,4z M6.841,20c-0.41-0.935-0.685-1.942-0.79-3h4.967c0.033,1.019,0.118,2.027,0.251,3H6.841z M12.821,25.473
	C10.888,24.823,9.223,23.597,8.019,22h3.606C11.92,23.32,12.32,24.507,12.821,25.473z M11.018,15H6.051
	c0.395-3.962,3.115-7.243,6.771-8.473C11.733,8.622,11.122,11.767,11.018,15z M20.982,15c-0.104-3.233-0.715-6.378-1.803-8.473
	c3.655,1.23,6.375,4.511,6.771,8.473H20.982z"/>
<path style="fill:none;stroke:#000000;stroke-width:2;stroke-miterlimit:10;" d="M16,27c-2.209,0-4-4.925-4-11s1.791-11,4-11"/>
</svg>
