<?xml version="1.0" encoding="iso-8859-1"?>
<!-- Generator: Adobe Illustrator 22.1.0, SVG Export Plug-In . SVG Version: 6.00 Build 0)  -->
<svg version="1.1" id="Layer_1" xmlns="http://www.w3.org/2000/svg" xmlns:xlink="http://www.w3.org/1999/xlink" x="0px" y="0px"
	 viewBox="0 0 32 32" style="enable-background:new 0 0 32 32;" xml:space="preserve">
<circle style="fill:none;stroke:#000000;stroke-width:2;stroke-miterlimit:10;" cx="11.5" cy="17.5" r="3.5"/>
<path style="fill:none;stroke:#000000;stroke-width:2;stroke-miterlimit:10;" d="M17.071,6.106C16.557,6.036,16.033,6,15.5,6
	C9.149,6,4,11.149,4,17.5S9.149,29,15.5,29S27,23.851,27,17.5c0-1.55-0.307-3.028-0.862-4.377"/>
<ellipse transform="matrix(0.98 -0.199 0.199 0.98 -1.2374 4.743)" style="fill:none;stroke:#000000;stroke-width:2;stroke-miterlimit:10;" cx="22.978" cy="8.528" rx="7.045" ry="5.398"/>
<g>
	<path d="M20.7,25.14c0.82-1.92,1.3-4.2,1.3-6.64c0-1.22-0.12-2.4-0.34-3.52C21.85,14.99,22,14,22,14s1.19,0.96,1.67,0.9
		c0.22,0.85,0.33,1.72,0.33,2.6C24,20.51,22.73,23.22,20.7,25.14z"/>
</g>
<polygon points="30,27.464 24.929,25.563 26.197,23.661 "/>
<path style="fill:none;stroke:#000000;stroke-width:2;stroke-miterlimit:10;" d="M22.678,3.115
	c-1.509-0.944-3.602-1.318-5.774-0.877c-2.86,0.581-5.043,2.411-5.706,4.522"/>
</svg>
