<?xml version="1.0" encoding="iso-8859-1"?>
<!-- Generator: Adobe Illustrator 22.0.1, SVG Export Plug-In . SVG Version: 6.00 Build 0)  -->
<svg version="1.1" id="Icons" xmlns="http://www.w3.org/2000/svg" xmlns:xlink="http://www.w3.org/1999/xlink" x="0px" y="0px"
	 viewBox="0 0 32 32" style="enable-background:new 0 0 32 32;" xml:space="preserve">
<g>
	<path style="fill:none;stroke:#000000;stroke-width:2;stroke-miterlimit:10;" d="M13.139,12.73l-3.5-3.398
		c-0.398-0.403-1-0.403-1.398,0l-2.602,2.597c-0.5,0.5-0.699,1.301-0.5,2c0.699,1.903,2.398,5.801,5.801,9.102
		c3.398,3.301,7.199,5.102,9.097,5.801c0.704,0.301,1.5,0.097,2-0.5l2.602-2.602c0.398-0.398,0.398-1,0-1.398l-3.199-3.301
		c-0.403-0.398-1-0.398-1.403,0l-2.097,2.102c0,0-2.301-1-4.102-2.801s-2.801-4.102-2.801-4.102l2.102-2.097
		C13.537,13.73,13.537,13.133,13.139,12.73L13.139,12.73z"/>
	<path style="fill:none;stroke:#000000;stroke-width:2;stroke-miterlimit:10;" d="M19,7V6.383C19,5.617,18.383,5,17.617,5h-1.234
		C15.617,5,15,5.617,15,6.383c0,0.379,0.215,0.722,0.555,0.894l2.89,1.446C18.785,8.895,19,9.238,19,9.617
		C19,10.383,18.383,11,17.617,11h-1.234C15.617,11,15,10.383,15,9.617V9"/>
	<path style="fill:none;stroke:#000000;stroke-width:2;stroke-miterlimit:10;" d="M25,5h1c1.105,0,2,0.895,2,2s-0.895,2-2,2h-1.016"
		/>
	<line style="fill:none;stroke:#000000;stroke-width:2;stroke-miterlimit:10;" x1="22" y1="4" x2="22" y2="12"/>
	<line style="fill:none;stroke:#000000;stroke-width:2;stroke-miterlimit:10;" x1="25" y1="4" x2="25" y2="12"/>
</g>
</svg>
