<?xml version="1.0" encoding="iso-8859-1"?>
<!-- Generator: Adobe Illustrator 19.1.1, SVG Export Plug-In . SVG Version: 6.00 Build 0)  -->
<svg version="1.1" id="Layer_1" xmlns="http://www.w3.org/2000/svg" xmlns:xlink="http://www.w3.org/1999/xlink" x="0px" y="0px"
	 viewBox="-8 10 32 32" style="enable-background:new -8 10 32 32;" xml:space="preserve">
<path d="M15.398,24.023c-0.34,0.019-0.561-0.088-0.591-0.108l-1.686,1.078c0.372,0.581,1.138,0.975,1.997,1.026
	c0.066,0.004,0.133,0.006,0.2,0.006c1.126,0,2.237-0.57,3.075-1.586c1.437-1.743,2.442-3.591,2.485-3.668l0.454-0.84l-0.818-0.493
	c-4.528-2.725-7.118-1.43-8.021-0.746c-1.166,0.883-1.695,2.329-1.405,3.738c-0.929,0.593-1.852,1.342-2.592,2.256
	c-0.426-0.996-1.088-1.891-1.865-2.678c0.074-0.184,0.12-0.365,0.151-0.497c0.016-0.069,0.032-0.137,0.049-0.195
	c0.513-1.715-0.191-3.713-1.75-4.971c-1.109-0.895-4.261-2.66-9.563,0.259l-0.681,0.375l0.196,0.752
	c0.039,0.151,0.981,3.715,2.862,5.802c0.813,0.901,1.833,1.408,2.953,1.463c0.07,0.003,0.139,0.005,0.208,0.005
	c1.255,0,2.334-0.56,2.772-0.958l-1.343-1.482c-0.016,0.013-1.697,1.192-3.104-0.368c-1.087-1.207-1.831-3.145-2.182-4.208
	c3.786-1.824,5.878-0.689,6.627-0.085c0.874,0.705,1.305,1.748,1.127,2.656c-2.152-1.594-4.393-2.484-4.573-2.554l-0.723,1.864
	c2.042,0.792,7.343,3.618,7.343,7.133L7,30.143c-0.763,0.201-1.458,0.612-1.982,1.202C4.551,31.119,4.035,31,3.5,31
	c-1.43,0-2.662,0.861-3.205,2.093C0.037,33.031-0.23,33-0.5,33C-2.43,33-4,34.57-4,36.5V37h2v-0.5c0-0.827,0.673-1.5,1.5-1.5
	c0.403,0,0.711,0.168,0.898,0.31l1.603-0.798L2,34.496C2.002,33.671,2.674,33,3.5,33c0.404,0,0.783,0.159,1.066,0.449l1.623-0.281
	C6.516,32.458,7.227,32,8,32c0.727,0,1.397,0.406,1.751,1.061l1.577,0.242c0.2-0.195,0.464-0.303,0.741-0.303
	c0.589,0,1.067,0.479,1.067,1.068c0,0.114-0.023,0.233-0.071,0.363l1.608,1.088C14.937,35.282,15.381,35,16,35c1.103,0,2,0.897,2,2
	h2c0-2.206-1.794-4-4-4c-0.343,0-0.682,0.045-1.009,0.132C14.594,31.896,13.435,31,12.069,31c-0.415,0-0.817,0.083-1.19,0.24
	C10.368,30.702,9.714,30.332,9,30.144L9.001,29h0.001v-0.328c0-4.153,6.535-6.142,6.601-6.161l-0.565-1.918
	c-0.102,0.03-0.917,0.277-1.99,0.771c0.077-0.416,0.29-0.8,0.654-1.076c1.058-0.802,2.856-0.65,4.917,0.386
	c-0.406,0.657-1.029,1.6-1.767,2.494C16.299,23.837,15.756,24.003,15.398,24.023z M5.485,20.821l0.012,0.157
	c-0.052-0.042-0.106-0.081-0.159-0.122C5.387,20.843,5.43,20.825,5.485,20.821z"/>
</svg>
