<?xml version="1.0" encoding="iso-8859-1"?>
<!-- Generator: Adobe Illustrator 19.1.1, SVG Export Plug-In . SVG Version: 6.00 Build 0)  -->
<svg version="1.1" id="Layer_1" xmlns="http://www.w3.org/2000/svg" xmlns:xlink="http://www.w3.org/1999/xlink" x="0px" y="0px"
	 viewBox="0 0 32 32" style="enable-background:new 0 0 32 32;" xml:space="preserve">
<rect x="11" y="9" width="2" height="2"/>
<rect x="11" y="13" width="2" height="2"/>
<rect x="11" y="17" width="2" height="2"/>
<rect x="19" y="10" width="2" height="2"/>
<rect x="19" y="14" width="2" height="2"/>
<rect x="19" y="18" width="2" height="2"/>
<polyline style="fill:none;stroke:#000000;stroke-width:2;stroke-miterlimit:10;" points="27,19 27,5 20,8 12,5 5,8 5,20 5,20 "/>
<line style="fill:none;stroke:#000000;stroke-width:2;stroke-miterlimit:10;" x1="18" y1="27" x2="22" y2="27"/>
<path id="XMLID_109_" style="fill:none;stroke:#000000;stroke-width:2;stroke-miterlimit:10;" d="M24,25v-0.5
	c0-0.828,0.672-1.5,1.5-1.5h0c0.828,0,1.5,0.672,1.5,1.5v0.84c0,0.42-0.176,0.822-0.486,1.106L24,28.75V29h4"/>
<line style="fill:none;stroke:#000000;stroke-width:2;stroke-miterlimit:10;" x1="20" y1="29" x2="20" y2="25"/>
<g>
	<polygon points="12,20.932 11.975,20.923 6,23.483 6,18 4,18 4,26.517 12,23.088 	"/>
	<polygon points="12,20.932 11.975,20.923 6,23.483 6,18 4,18 4,26.517 12,23.088 	"/>
</g>
</svg>
