<?xml version="1.0" encoding="utf-8"?>
<!-- Generator: Adobe Illustrator 18.1.1, SVG Export Plug-In . SVG Version: 6.00 Build 0)  -->
<svg version="1.1" id="Layer_1" xmlns="http://www.w3.org/2000/svg" xmlns:xlink="http://www.w3.org/1999/xlink" x="0px" y="0px"
	 viewBox="0 0 32 32" enable-background="new 0 0 32 32" xml:space="preserve">
<path fill="none" stroke="#000000" stroke-width="2" stroke-linejoin="round" stroke-miterlimit="10" d="M12,27c0,0-5-3.4-5-11
	s5-11,5-11"/>
<path fill="none" stroke="#000000" stroke-width="2" stroke-linecap="round" stroke-miterlimit="10" d="M16,23c0,0-4-2.2-4-7
	s4-7,4-7s4,2.2,4,7S16,23,16,23z"/>
<path d="M16,23c0,0-2-1.5-2-5s2-5,2-5s2,1.5,2,5S16,23,16,23z"/>
<path fill="none" stroke="#000000" stroke-width="2" stroke-linejoin="round" stroke-miterlimit="10" d="M20,5c0,0,5,3.4,5,11
	s-5,11-5,11"/>
</svg>
