<?xml version="1.0" encoding="iso-8859-1"?>
<!-- Generator: Adobe Illustrator 19.0.1, SVG Export Plug-In . SVG Version: 6.00 Build 0)  -->
<svg version="1.1" id="Layer_1" xmlns="http://www.w3.org/2000/svg" xmlns:xlink="http://www.w3.org/1999/xlink" x="0px" y="0px"
	 viewBox="0 0 32 32" style="enable-background:new 0 0 32 32;" xml:space="preserve">
<circle id="XMLID_545_" style="fill:none;stroke:#000000;stroke-width:2;stroke-miterlimit:10;" cx="14" cy="6" r="2"/>
<polyline id="XMLID_235_" style="fill:none;stroke:#000000;stroke-width:2;stroke-miterlimit:10;" points="27,16 24,16 24,19 21,19 
	21,22 18,22 18,25 15,25 15,28 "/>
<path id="XMLID_215_" style="fill:none;stroke:#000000;stroke-width:2;stroke-miterlimit:10;" d="M6.312,14.412L7.6,11.426
	c0.106-0.246,0.306-0.439,0.555-0.536l2.064-0.805c0.225-0.088,0.475-0.091,0.702-0.009l2.379,0.857
	c0.232,0.083,0.424,0.249,0.541,0.466l0.964,1.785c0.222,0.411,0.699,0.614,1.149,0.488l2.711-0.757"/>
<path id="XMLID_216_" style="fill:none;stroke:#000000;stroke-width:2;stroke-miterlimit:10;" d="M15,23v-4.334
	c0-0.403-0.242-0.767-0.615-0.923l-3.469-1.449c-0.503-0.21-0.745-0.784-0.545-1.29l1.742-4.405"/>
<path id="XMLID_208_" style="fill:none;stroke:#000000;stroke-width:2;stroke-miterlimit:10;" d="M9.919,18.482l-0.854,1.901
	c-0.069,0.153-0.174,0.285-0.307,0.387l-3.136,2.381"/>
</svg>
