<?xml version="1.0" encoding="iso-8859-1"?>
<!-- Generator: Adobe Illustrator 19.1.0, SVG Export Plug-In . SVG Version: 6.00 Build 0)  -->
<svg version="1.1" id="Layer_1" xmlns="http://www.w3.org/2000/svg" xmlns:xlink="http://www.w3.org/1999/xlink" x="0px" y="0px"
	 viewBox="0 0 32 32" style="enable-background:new 0 0 32 32;" xml:space="preserve">
<path d="M27.972,16.959c-0.022-0.427-0.064-0.855-0.122-1.278c-0.056-0.411-0.136-0.819-0.222-1.224
	c-0.077-0.363-0.164-0.724-0.267-1.08c-0.135-0.471-0.271-1.307-0.444-1.4c-0.144-0.078-1.529,0.181-2.377,0.312
	c-0.522,0.081-1.042,0.166-1.562,0.266c-0.636,0.122-1.279,0.214-1.912,0.358c-0.601,0.137-1.196,0.301-1.787,0.474
	c-0.452,0.132-0.898,0.287-1.343,0.441c-0.384,0.133-0.764,0.273-1.144,0.419c-0.176,0.067-0.399,0.291-0.522,0.221
	c-0.185-0.106-0.284-0.492-0.4-0.75c-0.144-0.322-0.268-0.656-0.378-0.992c-0.101-0.307-0.186-0.621-0.255-0.937
	c-0.093-0.419-0.159-0.845-0.234-1.267c-0.117-0.665-0.217-1.333-0.344-1.996c-0.047-0.245-0.116-0.486-0.178-0.727
	c-0.017-0.066-0.02-0.144-0.055-0.198c-0.024-0.038-0.077-0.071-0.122-0.078c-0.102-0.013-0.215,0.012-0.322,0.022
	c-0.122,0.012-0.244,0.027-0.366,0.045c-0.104,0.016-0.207,0.051-0.311,0.055c-0.081,0.003-0.162-0.021-0.244-0.034
	c-0.041-0.006-0.12-0.055-0.122-0.022c-0.013,0.184,0.035,0.451,0.078,0.673c0.073,0.381,0.162,0.762,0.267,1.135
	c0.085,0.306,0.187,0.607,0.3,0.904c0.128,0.339,0.278,0.67,0.422,1.003c0.141,0.325,0.286,0.648,0.433,0.97
	c0.175,0.383,0.364,0.761,0.533,1.146c0.15,0.342,0.287,0.689,0.422,1.037c0.032,0.082,0.133,0.209,0.078,0.254
	c-0.163,0.132-0.484,0.198-0.733,0.276c-0.388,0.121-0.782,0.223-1.177,0.319c-0.478,0.117-0.963,0.209-1.443,0.319
	c-0.489,0.114-0.978,0.231-1.465,0.353c-0.42,0.105-0.838,0.214-1.255,0.33c-0.15,0.042-0.299,0.088-0.444,0.143
	c-0.236,0.091-0.473,0.186-0.7,0.297c-0.272,0.135-0.534,0.291-0.799,0.441c-0.142,0.081-0.392,0.147-0.422,0.254
	c-0.026,0.092,0.179,0.222,0.256,0.342c0.078,0.123,0.144,0.256,0.21,0.386c0.085,0.167,0.149,0.348,0.245,0.507
	c0.038,0.062,0.1,0.107,0.155,0.154c0.044,0.038,0.09,0.085,0.144,0.099c0.104,0.027,0.222,0.029,0.333,0.022
	c0.119-0.007,0.24-0.033,0.355-0.066c0.177-0.051,0.355-0.109,0.522-0.187c0.225-0.105,0.445-0.23,0.654-0.364
	c0.33-0.211,0.645-0.447,0.966-0.673c0.264-0.186,0.512-0.398,0.788-0.562c0.216-0.129,0.458-0.215,0.689-0.319
	c0.295-0.134,0.589-0.272,0.888-0.397c0.389-0.162,0.78-0.32,1.177-0.463c0.358-0.129,0.723-0.251,1.087-0.353
	c0.056-0.016,0.141-0.04,0.177,0c0.13,0.14,0.228,0.353,0.322,0.54c0.154,0.309,0.306,0.623,0.422,0.948
	c0.15,0.425,0.258,0.865,0.378,1.301c0.078,0.284,0.145,0.572,0.21,0.86c0.086,0.378,0.154,0.759,0.245,1.135
	c0.068,0.285,0.153,0.567,0.234,0.849c0.068,0.239,0.129,0.482,0.211,0.716c0.089,0.254,0.193,0.503,0.3,0.75
	c0.071,0.164,0.113,0.446,0.234,0.485c0.126,0.042,0.346-0.151,0.51-0.243c0.114-0.063,0.228-0.136,0.322-0.221
	c0.032-0.029,0.043-0.078,0.055-0.121c0.018-0.064,0.035-0.133,0.033-0.198c-0.002-0.049-0.038-0.094-0.044-0.143
	c-0.038-0.267-0.048-0.538-0.089-0.805c-0.063-0.402-0.132-0.805-0.222-1.202c-0.084-0.371-0.185-0.74-0.3-1.102
	c-0.117-0.368-0.252-0.733-0.4-1.091c-0.141-0.343-0.301-0.681-0.466-1.014c-0.157-0.318-0.336-0.623-0.499-0.937
	c-0.133-0.256-0.411-0.569-0.389-0.772c0.014-0.126,0.33-0.15,0.498-0.219c0.19-0.078,0.38-0.161,0.577-0.221
	c0.299-0.09,0.605-0.166,0.91-0.232c0.275-0.059,0.554-0.107,0.833-0.143c0.431-0.055,0.865-0.104,1.299-0.132
	c0.546-0.035,1.095-0.042,1.643-0.055c0.822-0.02,1.644-0.009,2.465-0.044c0.493-0.02,1.139-0.28,1.476-0.121
	c0.203,0.095,0.11,0.586,0.144,0.882c0.058,0.495,0.114,0.991,0.133,1.488c0.016,0.407-0.008,0.816-0.036,1.222
	c-0.015,0.22-0.042,0.438-0.078,0.654c-0.071,0.434-0.135,0.871-0.241,1.298c-0.103,0.414-0.235,0.822-0.378,1.224
	c-0.138,0.391-0.293,0.78-0.466,1.158c-0.129,0.281-0.285,0.55-0.444,0.816c-0.149,0.249-0.306,0.494-0.477,0.727
	c-0.162,0.222-0.337,0.436-0.522,0.64c-0.267,0.293-0.537,0.586-0.833,0.849c-0.27,0.241-0.565,0.46-0.866,0.662
	c-0.232,0.155-0.486,0.278-0.733,0.408c-0.16,0.084-0.324,0.157-0.488,0.232c-0.143,0.066-0.284,0.138-0.433,0.187
	c-0.233,0.078-0.471,0.143-0.711,0.198c-0.36,0.084-0.723,0.166-1.087,0.221c-0.378,0.056-0.762,0.084-1.144,0.11
	c-0.358,0.025-0.719,0.057-1.076,0.044c-0.43-0.016-0.862-0.066-1.288-0.132c-0.3-0.047-0.595-0.127-0.888-0.21
	c-0.27-0.076-0.536-0.166-0.799-0.265c-0.385-0.144-0.771-0.289-1.144-0.463c-0.431-0.201-0.85-0.43-1.266-0.662
	c-0.402-0.224-0.796-0.464-1.188-0.705c-0.433-0.266-0.86-0.54-1.288-0.816c-0.291-0.187-0.591-0.365-0.866-0.573
	c-0.18-0.137-0.348-0.295-0.499-0.463c-0.236-0.262-0.474-0.531-0.666-0.827c-0.282-0.436-0.529-0.899-0.755-1.367
	c-0.162-0.337-0.292-0.692-0.411-1.048c-0.121-0.362-0.227-0.73-0.311-1.102c-0.072-0.319-0.118-0.645-0.155-0.97
	c-0.052-0.45-0.081-0.903-0.105-1.354c-0.011-0.212-0.014-0.424-0.007-0.636c0.01-0.354,0.026-0.712,0.067-1.063
	c0.055-0.464,0.123-0.929,0.213-1.387c0.062-0.317,0.154-0.626,0.248-0.934c0.105-0.345,0.208-0.693,0.338-1.03
	c0.133-0.343,0.282-0.683,0.444-1.014c0.155-0.316,0.324-0.628,0.51-0.926c0.203-0.32,0.425-0.633,0.656-0.935
	C7.741,8.034,7.94,7.807,8.146,7.589c0.223-0.237,0.453-0.471,0.7-0.683c0.268-0.232,0.549-0.452,0.844-0.651
	c0.28-0.188,0.577-0.353,0.877-0.507c0.234-0.121,0.478-0.221,0.722-0.319c0.282-0.115,0.564-0.234,0.855-0.321
	c0.231-0.068,0.473-0.103,0.711-0.143c0.291-0.049,0.583-0.102,0.877-0.121c0.313-0.021,0.63-0.017,0.943,0
	c0.307,0.017,0.617,0.05,0.921,0.099C15.95,5,16.302,5.076,16.649,5.163c0.293,0.074,0.58,0.168,0.866,0.265
	c0.314,0.106,0.625,0.22,0.932,0.342c0.347,0.138,0.693,0.283,1.032,0.441c0.404,0.187,0.802,0.391,1.199,0.595
	c0.377,0.193,0.746,0.399,1.122,0.595c0.248,0.13,0.512,0.233,0.748,0.382c0.223,0.141,0.434,0.309,0.629,0.489
	c0.182,0.167,0.336,0.365,0.499,0.551c0.155,0.177,0.317,0.351,0.455,0.54c0.154,0.21,0.281,0.441,0.422,0.662
	c0.078,0.121,0.139,0.326,0.234,0.364c0.064,0.026,0.151-0.132,0.24-0.173c0.177-0.081,0.374-0.124,0.558-0.191
	c0.172-0.063,0.355-0.108,0.51-0.198c0.14-0.082,0.392-0.199,0.432-0.276c0.048-0.093,0.019-0.511-0.054-0.716
	c-0.147-0.409-0.354-0.858-0.663-1.169c-0.46-0.463-1.067-0.808-1.635-1.158c-0.567-0.351-1.144-0.68-1.743-0.972
	c-0.708-0.344-1.434-0.687-2.187-0.923c-0.636-0.2-1.3-0.332-1.961-0.442c-0.398-0.066-0.799-0.112-1.203-0.131
	c-1.097-0.051-2.199-0.032-3.297,0c-0.882,0.026-1.367,0.092-2.22,0.276c-0.529,0.113-0.888,0.26-1.291,0.473
	C9.789,5.044,9.51,5.227,9.116,5.579c-0.443,0.395-0.69,0.635-1.07,1.095c-0.288,0.35-0.59,0.69-0.863,1.05
	C6.931,8.057,6.699,8.407,6.47,8.758C6.269,9.064,6.073,9.375,5.893,9.695c-0.175,0.312-0.33,0.637-0.488,0.959
	c-0.141,0.288-0.289,0.574-0.411,0.87c-0.159,0.387-0.313,0.779-0.433,1.18c-0.146,0.488-0.272,0.987-0.366,1.488
	c-0.08,0.432-0.121,0.873-0.155,1.312c-0.029,0.363-0.05,0.728-0.033,1.091c0.022,0.494,0.082,0.989,0.156,1.478
	c0.054,0.352,0.185,0.918,0.294,1.257c0.157,0.483,0.336,0.962,0.548,1.422c0.24,0.519,0.534,1.018,0.844,1.499
	c0.263,0.408,0.562,0.798,0.877,1.169c0.292,0.342,0.612,0.665,0.943,0.97c0.337,0.309,0.702,0.59,1.062,0.871
	c0.152,0.119,0.308,0.232,0.47,0.338c0.301,0.198,0.605,0.393,0.921,0.565c0.344,0.186,0.694,0.366,1.054,0.518
	c0.468,0.198,0.951,0.361,1.43,0.529c0.3,0.105,0.794,0.265,1.101,0.346c0.426,0.113,0.855,0.217,1.288,0.293
	c0.39,0.068,0.786,0.111,1.181,0.13c0.42,0.021,0.843,0.013,1.264-0.008c0.559-0.029,1.118-0.083,1.674-0.144
	c0.568-0.061,1.137-0.123,1.698-0.221c0.347-0.061,0.692-0.147,1.029-0.25c0.227-0.069,0.588-0.211,0.802-0.313
	c0.308-0.146,0.614-0.308,0.899-0.495c0.261-0.171,0.507-0.369,0.744-0.573c0.282-0.243,0.552-0.504,0.81-0.774
	c0.206-0.215,0.519-0.585,0.701-0.821c0.245-0.317,0.482-0.64,0.699-0.975c0.21-0.324,0.393-0.668,0.566-1.014
	c0.152-0.305,0.297-0.617,0.411-0.937c0.108-0.305,0.188-0.62,0.255-0.937c0.08-0.379,0.13-0.766,0.178-1.151
	c0.036-0.284,0.083-0.75,0.09-1.037C28.008,17.875,27.996,17.415,27.972,16.959z"/>
</svg>
