<?xml version="1.0" encoding="iso-8859-1"?>
<!-- Generator: Adobe Illustrator 19.1.0, SVG Export Plug-In . SVG Version: 6.00 Build 0)  -->
<svg version="1.1" id="Layer_1" xmlns="http://www.w3.org/2000/svg" xmlns:xlink="http://www.w3.org/1999/xlink" x="0px" y="0px"
	 viewBox="0 0 32 32" style="enable-background:new 0 0 32 32;" xml:space="preserve">
<g>
	<polygon points="20.667,11 16,4 11.333,11 	"/>
</g>
<line style="fill:none;stroke:#000000;stroke-width:2;stroke-miterlimit:10;" x1="16" y1="23" x2="16" y2="9"/>
<path d="M19,18.15v2.011c4.299,0.465,7,1.857,7,2.839c0,1.194-3.988,3-10,3S6,24.194,6,23c0-0.982,2.701-2.373,7-2.839V18.15
	C8.169,18.629,4,20.272,4,23c0,3.283,6.037,5,12,5s12-1.717,12-5C28,20.272,23.831,18.629,19,18.15z"/>
</svg>
