<?xml version="1.0" encoding="iso-8859-1"?>
<!-- Generator: Adobe Illustrator 19.1.0, SVG Export Plug-In . SVG Version: 6.00 Build 0)  -->
<svg version="1.1" id="Layer_1" xmlns="http://www.w3.org/2000/svg" xmlns:xlink="http://www.w3.org/1999/xlink" x="0px" y="0px"
	 viewBox="0 0 32 32" style="enable-background:new 0 0 32 32;" xml:space="preserve">
<polyline style="fill:none;stroke:#000000;stroke-width:2;stroke-miterlimit:10;" points="6.121,21.482 12.558,5.941 20.751,5 
	25.879,11.459 19.442,27 "/>
<path d="M11.381,20.271l3.656,0.465l0.006-0.016l-3.285-1.36l0.538-1.299l5.331,2.208l-0.631,1.523l-3.676-0.439l-0.007,0.016
	l3.293,1.363l-0.538,1.3l-5.331-2.208L11.381,20.271z"/>
<path d="M13.443,15.292l3.656,0.465l0.006-0.015l-3.285-1.361l0.538-1.299l5.331,2.208l-0.631,1.522l-3.676-0.438l-0.007,0.015
	l3.293,1.364l-0.538,1.299L12.8,16.845L13.443,15.292z"/>
<path d="M16.171,8.708l1.135,0.47l-0.732,1.77l0.91,0.377l0.687-1.657l1.09,0.452l-0.687,1.656l1.06,0.439l0.761-1.836l1.136,0.47
	l-1.336,3.226l-5.331-2.209L16.171,8.708z"/>
</svg>
