<?xml version="1.0" encoding="iso-8859-1"?>
<!-- Generator: Adobe Illustrator 19.1.0, SVG Export Plug-In . SVG Version: 6.00 Build 0)  -->
<svg version="1.1" id="Layer_1" xmlns="http://www.w3.org/2000/svg" xmlns:xlink="http://www.w3.org/1999/xlink" x="0px" y="0px"
	 viewBox="0 0 32 32" style="enable-background:new 0 0 32 32;" xml:space="preserve">
<path style="fill:none;stroke:#000000;stroke-width:2;stroke-miterlimit:10;" d="M16,21.176L10.824,16l3.882-3.882
	c1.429-1.429,3.747-1.429,5.176,0l0,0c1.429,1.429,1.429,3.747,0,5.176L16,21.176z"/>
<rect x="17.248" y="19.078" transform="matrix(0.7071 0.7071 -0.7071 0.7071 21.8235 -9.0396)" style="fill:none;stroke:#000000;stroke-width:2;stroke-miterlimit:10;" width="9.151" height="5.49"/>
<rect x="5.601" y="7.431" transform="matrix(0.7071 0.7071 -0.7071 0.7071 10.1765 -4.2152)" style="fill:none;stroke:#000000;stroke-width:2;stroke-miterlimit:10;" width="9.151" height="5.49"/>
<path style="fill:none;stroke:#000000;stroke-width:2;stroke-miterlimit:10;" d="M15.243,25.243c-2.343,2.343-6.142,2.343-8.485,0
	s-2.343-6.142,0-8.485"/>
<path style="fill:none;stroke:#000000;stroke-width:2;stroke-miterlimit:10;" d="M12.768,22.768c-0.976,0.976-2.559,0.976-3.536,0
	s-0.976-2.559,0-3.536"/>
</svg>
