<?xml version="1.0" encoding="iso-8859-1"?>
<!-- Generator: Adobe Illustrator 19.0.1, SVG Export Plug-In . SVG Version: 6.00 Build 0)  -->
<svg version="1.1" id="Layer_1" xmlns="http://www.w3.org/2000/svg" xmlns:xlink="http://www.w3.org/1999/xlink" x="0px" y="0px"
	 viewBox="0 0 32 32" style="enable-background:new 0 0 32 32;" xml:space="preserve">
<circle style="fill:none;stroke:#000000;stroke-width:2;stroke-miterlimit:10;" cx="16" cy="8" r="3"/>
<path style="fill:none;stroke:#000000;stroke-width:2;stroke-miterlimit:10;" d="M16,11L16,11c-2.209,0-4,1.791-4,4v4l2,1v4h4v-4
	l2-1v-4C20,12.791,18.209,11,16,11z"/>
<path d="M23,18.876v2.096c1.901,0.613,3,1.403,3,2.028c0,1.194-3.988,3-10,3S6,24.194,6,23c0-0.625,1.099-1.415,3-2.028v-2.096
	c-2.918,0.818-5,2.2-5,4.124c0,3.283,6.037,5,12,5s12-1.717,12-5C28,21.076,25.918,19.694,23,18.876z"/>
</svg>
