<?xml version="1.0" encoding="iso-8859-1"?>
<!-- Generator: Adobe Illustrator 19.1.0, SVG Export Plug-In . SVG Version: 6.00 Build 0)  -->
<svg version="1.1" id="Layer_1" xmlns="http://www.w3.org/2000/svg" xmlns:xlink="http://www.w3.org/1999/xlink" x="0px" y="0px"
	 viewBox="0 0 32 32" style="enable-background:new 0 0 32 32;" xml:space="preserve">
<polygon style="fill:none;stroke:#000000;stroke-width:2;stroke-miterlimit:10;" points="20,9 12,6 5,9 5,26 12,23 20,26 27,23 
	27,6 "/>
<polygon points="15.193,12.775 13.96,14.535 14.031,15.873 15.263,16.261 16.226,17.453 16.226,20.737 17.061,21.684 18.62,18.511 
	18.954,17.063 18.842,15.672 20.067,16.117 20.568,16.896 21.681,20.682 22.572,20.348 23.24,18.121 23.852,16.507 24.075,14.057 
	23.296,13.723 23.129,12.165 21.069,13.278 20.345,13.835 19.9,12.944 17.84,11.719 16.95,11.775 14.667,10.662 13.777,11.497 
	13.61,12.833 "/>
<polygon points="9.161,21.003 9.913,20.301 10.265,17.541 11.218,16.337 11.118,15.283 10.014,14.631 9.161,14.932 8.809,14.279 
	9.612,13.226 10.967,12.975 10.766,12.222 10.164,11.821 10.566,11.369 11.519,11.67 11.669,10.215 9.913,10.516 7.756,12.022 
	7.706,14.731 8.358,15.183 8.358,16.136 8.007,17.641 8.86,18.193 "/>
</svg>
