<?xml version="1.0" encoding="utf-8"?>
<!-- Generator: Adobe Illustrator 18.1.1, SVG Export Plug-In . SVG Version: 6.00 Build 0)  -->
<svg version="1.1" id="Layer_1" xmlns="http://www.w3.org/2000/svg" xmlns:xlink="http://www.w3.org/1999/xlink" x="0px" y="0px"
	 viewBox="0 0 32 32" enable-background="new 0 0 32 32" xml:space="preserve">
<path fill="none" stroke="#000000" stroke-width="2" stroke-miterlimit="10" d="M29.3,20c0.1-0.1,1.7-1.7,1.7-3.9c0-1-0.4-1.9-1-2.7
	c0.2-0.5,0.4-1.1,0.4-1.7c0-1.9-1.4-3.6-3.2-4c-0.4-1.8-2-3.2-4-3.2c-0.6,0-1.2,0.1-1.7,0.4c-0.7-0.6-1.7-1-2.7-1
	c-2.1,0-3.8,1.7-3.9,1.7"/>
<path fill="none" stroke="#000000" stroke-width="2" stroke-miterlimit="10" d="M22,12.5c-0.2-0.9-2-4.2-4.5-1.4
	c-0.5,0.5-1.3,1.3-1.3,1.3c-3.9,2.7-7.4,0.6-7.8,0.2c-0.4-0.4-2.5-2.5-2.5-2.5C4,11.4,4,12.8,4.3,13.6c0,0-2.1,1.9-3,2.6
	C1,16.5,0.9,17,1.2,17.3c0.9,1.2,2.7,3.6,3.2,4.4C4.7,25.3,6.7,26,6.7,26l1.2,1.9l3.8-2.8l-0.5-1.2l1.8-1.4l1.9,0.2
	c0,0,2.3-1.4,4.8-3.8c2.6-2.6,3.3-5.2,3.3-5.2L22,12.5z"/>
<line fill="none" stroke="#000000" stroke-width="2" stroke-miterlimit="10" x1="8" y1="16" x2="9.5" y2="13.4"/>
<line fill="none" stroke="#000000" stroke-width="2" stroke-miterlimit="10" x1="12.2" y1="16.4" x2="11.9" y2="13.7"/>
<line fill="none" stroke="#000000" stroke-width="2" stroke-miterlimit="10" x1="16.1" y1="15.4" x2="14.9" y2="13.1"/>
</svg>
