<?xml version="1.0" encoding="utf-8"?>
<!-- Generator: Adobe Illustrator 18.1.1, SVG Export Plug-In . SVG Version: 6.00 Build 0)  -->
<svg version="1.1" id="Layer_1" xmlns="http://www.w3.org/2000/svg" xmlns:xlink="http://www.w3.org/1999/xlink" x="0px" y="0px"
	 viewBox="0 0 32 32" enable-background="new 0 0 32 32" xml:space="preserve">
<path fill="none" stroke="#000000" stroke-width="2" stroke-linecap="round" stroke-linejoin="round" stroke-miterlimit="10" d="
	M26.8,15.7c-3,0-4.8-3.6-4.8-3.6"/>
<path fill="none" stroke="#000000" stroke-width="2" stroke-linecap="round" stroke-linejoin="round" stroke-miterlimit="10" d="
	M22.3,17.6c1.9,0,4.7-3.4,4.7-3.4"/>
<path id="XMLID_7076_" fill="none" stroke="#000000" stroke-width="2.0408" stroke-miterlimit="10" d="M27,14.8
	C27,7.6,23.5,5,21.5,5S18,6.3,18,8.1s1,3,1,6.1c0,1.3-1,3.3-1,6.1c0,2.4,1.7,4.7,4.1,4.7C25.2,25,27,20.7,27,14.8z"/>
<path id="XMLID_3_" fill="none" stroke="#000000" stroke-width="2" stroke-miterlimit="10" d="M26.5,19c-2.2,3.7-4.7,0-4.7-3.7
	c0-4.2-0.1-7.9,3-8.6"/>
<path fill="none" stroke="#000000" stroke-width="2" stroke-linecap="round" stroke-linejoin="round" stroke-miterlimit="10" d="
	M5.2,17.7c3,0,4.8-3.6,4.8-3.6"/>
<path fill="none" stroke="#000000" stroke-width="2" stroke-linecap="round" stroke-linejoin="round" stroke-miterlimit="10" d="
	M9.7,19.6c-1.9,0-4.7-3.4-4.7-3.4"/>
<path id="XMLID_5_" fill="none" stroke="#000000" stroke-width="2.0408" stroke-miterlimit="10" d="M5,16.8C5,9.6,8.5,7,10.5,7
	S14,8.3,14,10.1s-1,3-1,6.1c0,1.3,1,3.3,1,6.1c0,2.4-1.7,4.7-4.1,4.7C6.8,27,5,22.7,5,16.8z"/>
<path id="XMLID_4_" fill="none" stroke="#000000" stroke-width="2" stroke-miterlimit="10" d="M5.5,21c2.2,3.7,4.7,0,4.7-3.7
	c0-4.2,0.1-7.9-3-8.6"/>
</svg>
