<?xml version="1.0" encoding="iso-8859-1"?>
<!-- Generator: Adobe Illustrator 21.0.0, SVG Export Plug-In . SVG Version: 6.00 Build 0)  -->
<svg version="1.1" id="Layer_1" xmlns="http://www.w3.org/2000/svg" xmlns:xlink="http://www.w3.org/1999/xlink" x="0px" y="0px"
	 viewBox="0 0 32 32" style="enable-background:new 0 0 32 32;" xml:space="preserve">
<path style="fill:none;stroke:#000000;stroke-width:2;stroke-miterlimit:10;" d="M27,9c0,0-3-6-11-6S5,9,5,9"/>
<path style="fill:none;stroke:#000000;stroke-width:2;stroke-miterlimit:10;" d="M27,18c0-1,0-2.5,0-5"/>
<path style="fill:none;stroke:#000000;stroke-width:2;stroke-miterlimit:10;" d="M16,28c0,0,2.019,0,3,0s2-2,2-2s2,0,2-2"/>
<path style="fill:none;stroke:#000000;stroke-width:2;stroke-miterlimit:10;" d="M5,18c0-1.25,0-2.085,0-5"/>
<path style="fill:none;stroke:#000000;stroke-width:2;stroke-miterlimit:10;" d="M16,28c0,0-2.019,0-3,0s-2-2-2-2c-0.1-0.1-2,0-2-2"
	/>
<path d="M23.67,8.012C22.793,7.251,21.876,7,21.003,7c-2.293,0-3.466,2.05-3.71,2.293c-0.391,0.391-0.391,1.024,0,1.414
	c0.391,0.391,1.025,0.391,1.415,0c0.276-0.274,1.169-2.374,2.962-2.374c0.591,0,1.256,0.174,1.999,0.536
	C24.09,9.074,24.13,8.411,23.67,8.012z"/>
<path d="M18,13.492c0,0.972,1.496,0.251,2.569,0.251c1.074,0,2.431,0.796,2.431-0.46c0-1.267-1.426-1.801-2.5-1.801
	C19.426,11.481,18,12.52,18,13.492z"/>
<path d="M8.33,8.012C9.207,7.251,10.124,7,10.997,7c2.293,0,3.466,2.05,3.71,2.293c0.391,0.391,0.391,1.024,0,1.414
	c-0.391,0.391-1.025,0.391-1.415,0c-0.276-0.274-1.169-2.374-2.962-2.374c-0.591,0-1.256,0.174-1.999,0.536
	C7.91,9.074,7.87,8.411,8.33,8.012z"/>
<path d="M14,13.492c0,0.972-1.496,0.251-2.569,0.251S9,14.539,9,13.282c0-1.267,1.426-1.801,2.5-1.801S14,12.52,14,13.492z"/>
<path style="fill:none;stroke:#000000;stroke-width:2;stroke-miterlimit:10;" d="M28.368,8C27.639,7.133,25,9,25,10s0,1,0,2
	s2.961,2.483,3.368,2C29.211,13,29.211,9,28.368,8z"/>
<path style="fill:none;stroke:#000000;stroke-width:2;stroke-miterlimit:10;" d="M3.592,8C4.276,7.133,6.75,9,6.75,10s0,1,0,2
	s-2.776,2.483-3.158,2C2.803,13,2.803,9,3.592,8z"/>
<path d="M25,19c0-1.223-1.05-2.374-2-3c1,2,1,4-2,4c-0.398,0-0.666-0.007-0.998-0.182C19.61,19.387,19.268,18.804,19,18
	c-2,2-4,2-6,0c-0.305,0.914-0.796,1.546-1.358,1.988C8.013,19.867,8.032,17.936,9,16c-0.95,0.626-2,1.777-2,3
	c0,1.5,1.248,3.069,2.709,3.702C10.881,23.378,12.815,24,16,24s5.119-0.622,6.291-1.298C23.752,22.069,25,20.5,25,19z"/>
</svg>
