<?xml version="1.0" encoding="iso-8859-1"?>
<!-- Generator: Adobe Illustrator 19.1.1, SVG Export Plug-In . SVG Version: 6.00 Build 0)  -->
<svg version="1.1" id="Layer_1" xmlns="http://www.w3.org/2000/svg" xmlns:xlink="http://www.w3.org/1999/xlink" x="0px" y="0px"
	 viewBox="0 0 32 32" style="enable-background:new 0 0 32 32;" xml:space="preserve">
<path style="fill:none;stroke:#000000;stroke-width:2;stroke-miterlimit:10;" d="M25,26c0,0-1.135,2-6,2s-8-4.62-8-8"/>
<path style="fill:none;stroke:#000000;stroke-width:2;stroke-miterlimit:10;" d="M14,18c-1.847,0-3.14-0.28-4.025-0.613
	c-0.988-0.372-1.325-1.599-0.689-2.441L10,14c1.737-2.302,4-2,4-2s2.77,0.164,3-2"/>
<path d="M12.106,21C12.039,20.656,12,20.32,12,20.001c0-0.029,0.003-0.084,0.004-0.123c-0.71-0.083-1.374-0.21-1.986-0.385
	C10.002,19.757,10,19.95,10,20c0,0.323,0.034,0.659,0.084,1H12.106z"/>
<path style="fill:none;stroke:#000000;stroke-width:2;stroke-miterlimit:10;" d="M18,9h-1c-2.167,0-2-2-2-2s-0.042-3,2-3
	C20.708,4,18,9,18,9c-0.952,2.887,0,3,0,3s2.006,0.342,3,2c0.585,0.977,0.828,3.232,0.929,4.921C21.996,20.051,21.095,21,19.962,21
	H17c0,0-4.005,7,3,7"/>
</svg>
