<?xml version="1.0" encoding="iso-8859-1"?>
<!-- Generator: Adobe Illustrator 19.1.1, SVG Export Plug-In . SVG Version: 6.00 Build 0)  -->
<svg version="1.1" id="Layer_1" xmlns="http://www.w3.org/2000/svg" xmlns:xlink="http://www.w3.org/1999/xlink" x="0px" y="0px"
	 viewBox="0 0 32 32" style="enable-background:new 0 0 32 32;" xml:space="preserve">
<path style="fill:none;stroke:#000000;stroke-width:2;stroke-miterlimit:10;" d="M16,11c0-1.048,1.214-2,3-2c2.334,0,5,1.236,5,3
	c0,2.033-2,2-2,2"/>
<path style="fill:none;stroke:#000000;stroke-width:2;stroke-miterlimit:10;" d="M19,9c0,0-1.831-1.416-3-2c-1.159,0.539-3,2-3,2"/>
<path style="fill:none;stroke:#000000;stroke-width:2;stroke-miterlimit:10;" d="M16,11c0-1.048-1.214-2-3-2c-2.334,0-5,1.236-5,3
	c0,2.033,2,2,2,2"/>
<path style="fill:none;stroke:#000000;stroke-width:2;stroke-miterlimit:10;" d="M10,14c0,0-3-0.057-3,3c0,3.75,4.974,11,9,11
	s9-7.25,9-11c0-3.057-3-3-3-3"/>
<path style="fill:none;stroke:#000000;stroke-width:2;stroke-miterlimit:10;" d="M22,9c0,0,1.663-4,6-4c0,1.823,0,2,0,2
	s0,1.343,0,2.599C28,12.017,26,12,26,12"/>
<path style="fill:none;stroke:#000000;stroke-width:2;stroke-miterlimit:10;" d="M27,12v2c0,0-0.125,2-2,2"/>
<path style="fill:none;stroke:#000000;stroke-width:2;stroke-miterlimit:10;" d="M25,18c0,0,1,0.042,1-1s0-1.042,0-1.042"/>
<path style="fill:none;stroke:#000000;stroke-width:2;stroke-miterlimit:10;" d="M10,9c0,0-1.663-4-6-4c0,1.823,0,2,0,2
	s0,1.343,0,2.599C4,12.017,6,12,6,12"/>
<path style="fill:none;stroke:#000000;stroke-width:2;stroke-miterlimit:10;" d="M5,12v2c0,0,0.125,2,2,2"/>
<path style="fill:none;stroke:#000000;stroke-width:2;stroke-miterlimit:10;" d="M7,18c0,0-1,0.042-1-1s0-1.042,0-1.042"/>
<ellipse cx="17.5" cy="19" rx="0.5" ry="1"/>
<ellipse cx="14.5" cy="19" rx="0.5" ry="1"/>
<path d="M11,21c0,0,1.915,4,5,4s5-4,5-4H11z M19,23.001l-1-2l-1,2l-1-2l-1,2l-1-2l-1,2l-1-2h2h2h2h2L19,23.001z"/>
<path d="M20.025,14.315c0.003,0.061,0.006,0.121,0.006,0.185c0,0.828-0.231,1.5-0.516,1.5c-0.259,0-0.471-0.557-0.508-1.28
	C17.786,15.293,17,16,17,16s0.312,2,2,2c1.687,0,3-2.313,3-4C21.294,14,20.627,14.126,20.025,14.315z"/>
<path d="M11.975,14.315c-0.003,0.061-0.006,0.121-0.006,0.185c0,0.828,0.231,1.5,0.516,1.5c0.259,0,0.471-0.557,0.508-1.28
	C14.214,15.293,15,16,15,16s-0.313,2-2,2s-3-2.313-3-4C10.706,14,11.373,14.126,11.975,14.315z"/>
</svg>
