<?xml version="1.0" encoding="iso-8859-1"?>
<!-- Generator: Adobe Illustrator 19.1.1, SVG Export Plug-In . SVG Version: 6.00 Build 0)  -->
<svg version="1.1" id="Layer_1" xmlns="http://www.w3.org/2000/svg" xmlns:xlink="http://www.w3.org/1999/xlink" x="0px" y="0px"
	 viewBox="0 0 32 32" style="enable-background:new 0 0 32 32;" xml:space="preserve">
<path d="M18.693,23.237c-0.587,2.137-1.674,3.748-2.683,3.748c-1.046,0-2.082-1.73-2.663-3.758
	c-0.528,0.302-1.327,0.884-1.327,1.666c0,1.162,1.395,1.744,2.014,2.286C14.654,27.721,15.137,29,16.01,29
	c0.873,0,1.356-1.279,1.976-1.821C18.606,26.636,20,26.055,20,24.893C20.001,24.12,19.221,23.542,18.693,23.237z"/>
<path style="fill:none;stroke:#000000;stroke-width:2;stroke-miterlimit:10;" d="M18,3c0,1.494,0.189,5.52-2,7"/>
<path style="fill:none;stroke:#000000;stroke-width:2;stroke-miterlimit:10;" d="M16,10h5.684c1.239,0,2.207,1.065,2.081,2.298
	C23.469,15.191,23,20,23,20s-0.009,2,2,2s2-2,2-2v-6c0,0,0.082-3,2-3"/>
<path style="fill:none;stroke:#000000;stroke-width:2;stroke-miterlimit:10;" d="M14,3c0,1.494-0.189,5.52,2,7"/>
<path style="fill:none;stroke:#000000;stroke-width:2;stroke-miterlimit:10;" d="M16,10h-5.684c-1.239,0-2.207,1.065-2.081,2.298
	C8.531,15.191,9,20,9,20s0.009,2-2,2s-2-2-2-2v-6c0,0-0.082-3-2-3"/>
<path d="M16,12h-5c0,1.943,2.106,1.875,2.874,8.94c0.334,3.067,1.747,5.037,2.126,5.037s1.792-1.97,2.126-5.037
	C18.894,13.875,21,13.943,21,12H16z M14,15c-0.833,0-1-1.448-1-2l2,1C15,14.552,14.552,15,14,15z M18,15c-0.552,0-1-0.448-1-1l2-1
	C19,13.552,18.833,15,18,15z"/>
<g>
	<path d="M21.657,8h0.027c0.923,0,1.807,0.324,2.523,0.887C25.337,8.076,26,7.084,26,6h-2C24,6.616,23.14,7.391,21.657,8z"/>
	<path d="M19.536,8h1.062c0.134-0.166,0.272-0.331,0.401-0.495C22.012,6.217,22.968,5,24,5V3c-1.736,0-2.948,1.249-4.064,2.627
		C19.875,6.384,19.759,7.199,19.536,8z"/>
</g>
<g>
	<path d="M11.001,7.505C11.13,7.669,11.268,7.834,11.402,8h1.062c-0.223-0.801-0.338-1.616-0.4-2.373C10.949,4.249,9.736,3,8,3v2
		C9.032,5,9.988,6.217,11.001,7.505z"/>
	<path d="M7.793,8.887C8.51,8.324,9.393,8,10.316,8h0.027C8.86,7.391,8,6.616,8,6H6C6,7.084,6.663,8.076,7.793,8.887z"/>
</g>
</svg>
