<?xml version="1.0" encoding="iso-8859-1"?>
<!-- Generator: Adobe Illustrator 19.1.1, SVG Export Plug-In . SVG Version: 6.00 Build 0)  -->
<svg version="1.1" id="Layer_1" xmlns="http://www.w3.org/2000/svg" xmlns:xlink="http://www.w3.org/1999/xlink" x="0px" y="0px"
	 viewBox="0 0 32 32" style="enable-background:new 0 0 32 32;" xml:space="preserve">
<path d="M11,18.1c0,0.8,0.8,1.9,2.1,1.9c1.2,0,1.8-0.8,1.8-1L11,18.1z"/>
<path d="M21,18.1c0,0.8-0.8,1.9-2.1,1.9c-1.2,0-1.8-0.8-1.8-1L21,18.1z"/>
<path d="M7,14.1c0-1,0.6-1.9,0.7-2.8C7.8,10.7,7,9,6.3,9.1c0.6-0.1,1.3,0,1.9,0.3C8.6,9.6,9,9.8,9.5,10.1c0-1,1.8-3.3,0.9-5.4
	c2.4,1.5,1,2.3,2.1,3.4c0.6,0.7,0.6-1.8,0.6-2c0.3-1.4,1.4-2.6,2.8-2.9c-0.7,1-1.1,3.6,0.1,4.4c0.9-3.3,3.3-4.3,4.9-4.4
	c-0.9,0.5-1.5,2.2-1.8,3.2c-0.1,0.4,0,1.2,0.5,1.2c0.6,0,1.6-0.8,1.6-1.9c1.3,1.7-0.4,3.1,0.5,3.6c0.8,0.4,1.7-3.5,1.6-4.6
	c2,3.6-1.4,7.7,1,7.3c0.6-0.1,0.9-1.7,0.4-2.9c2.5,2.2,1.1,6.6-0.5,8.2c-0.5,0.5-1.4,1.3-1.1,2.1c-1.6-1.1-0.8-2.6-0.8-3.7
	c-0.1-2.7-0.7-3.3-2.3-4.5c0.3,1-0.2,1.7,0.3,3.4c-0.4-0.6-1.6-1-2-1.6c-0.6-0.8-0.3-1.9-0.8-3.2c-0.3,1.6-2.4,1.6-2.2,4.8
	c-1.4-1.3-1.1-2.9-1.2-3.6c-1,1.2-1.8,1.8-1.2,3.8c-1.1-0.3-1.7-1.4-1.8-2.4c-3.6,4.5,0.1,4.1-2,7.4C9.2,17.5,7,16.2,7,14.1z"/>
<path style="fill:none;stroke:#000000;stroke-width:2;stroke-miterlimit:10;" d="M9,17L9,17c-1.105,0-2,0.895-2,2
	c0,1.105,0.895,2,2,2c0,3.866,4.167,7,7,7s7-3.134,7-7c1.105,0,2-0.895,2-2c0-1.105-0.895-2-2-2v0"/>
</svg>
