<?xml version="1.0" encoding="iso-8859-1"?>
<!-- Generator: Adobe Illustrator 19.1.1, SVG Export Plug-In . SVG Version: 6.00 Build 0)  -->
<svg version="1.1" id="Layer_1" xmlns="http://www.w3.org/2000/svg" xmlns:xlink="http://www.w3.org/1999/xlink" x="0px" y="0px"
	 viewBox="0 0 32 32" style="enable-background:new 0 0 32 32;" xml:space="preserve">
<path style="fill:none;stroke:#000000;stroke-width:2;stroke-miterlimit:10;" d="M11,23c-8.081,0-9-7-9-7h16c0,0,1.662,2,6,2
	c3.111,0,6-1.456,6-3"/>
<path d="M17,14l-0.137-0.415C16.76,13.273,15.847,10,14,10s-2.848,3.273-2.952,3.585L10.911,14H17z"/>
<circle cx="14" cy="9" r="1"/>
<path d="M10,27c0,0,0.77-2,4-2s4,2,4,2H10z"/>
<path style="fill:none;stroke:#000000;stroke-width:2;stroke-miterlimit:10;" d="M7.923,16c0,0-0.048,8,6.077,8
	c5.775,0,8.203-6,11-6"/>
</svg>
