<?xml version="1.0" encoding="iso-8859-1"?>
<!-- Generator: Adobe Illustrator 19.1.1, SVG Export Plug-In . SVG Version: 6.00 Build 0)  -->
<svg version="1.1" id="Layer_1" xmlns="http://www.w3.org/2000/svg" xmlns:xlink="http://www.w3.org/1999/xlink" x="0px" y="0px"
	 viewBox="0 0 32 32" style="enable-background:new 0 0 32 32;" xml:space="preserve">
<line style="fill:none;stroke:#000000;stroke-width:2;stroke-miterlimit:10;" x1="28" y1="12" x2="23" y2="16"/>
<line style="fill:none;stroke:#000000;stroke-width:3;stroke-miterlimit:10;" x1="26" y1="10" x2="28.41" y2="12.958"/>
<path style="fill:none;stroke:#000000;stroke-width:2;stroke-miterlimit:10;" d="M7,20c0,0-2-0.853-2-5s6.294-5,8-5s6,0.146,6,2
	s0.009,4.34,2,5c0.782-0.907,2-1,2-1s3-0.042,3,3s-3,4-3,4s-4.039,5-9,5s-7-4-7-4c-1.105,0-2-0.895-2-2S5.895,20,7,20h1"/>
<path style="fill:none;stroke:#000000;stroke-width:2;stroke-miterlimit:10;" d="M16,19c0,0,0.666,2,3,2s3-2,3-2s0.409-1.519-1-2"/>
<path style="fill:none;stroke:#000000;stroke-width:2;stroke-linecap:square;stroke-miterlimit:10;" d="M9,8c0,0,2.129-4,6-4
	s6,2.625,6,4c0,1.728-1.032,3.037-1.613,3.638"/>
<path style="fill:none;stroke:#000000;stroke-width:2;stroke-miterlimit:10;" d="M5,14c0,0-1-1.062-1-3s0.809-5,3.675-5
	C9.963,6,10,7,10,7"/>
<path style="fill:none;stroke:#000000;stroke-width:2;stroke-miterlimit:10;" d="M19,13c0,0,3-0.077,3-1c0-1.774-9-2-9-2"/>
<line style="fill:none;stroke:#000000;stroke-width:2;stroke-miterlimit:10;" x1="12" y1="16" x2="16" y2="16"/>
<ellipse cx="18" cy="15.5" rx="1" ry="1.5"/>
<path style="fill:none;stroke:#000000;stroke-width:2;stroke-miterlimit:10;" d="M10,15c0-1.908,2-2,2-2
	c1.9,0,3.109,2.645,3.109,2.645"/>
<path style="fill:none;stroke:#000000;stroke-width:2;stroke-miterlimit:10;" d="M11,20h5c0,0,0.205,4-2,4S11,20,11,20z"/>
</svg>
