<?xml version="1.0" encoding="utf-8"?>
<!-- Generator: Adobe Illustrator 18.1.1, SVG Export Plug-In . SVG Version: 6.00 Build 0)  -->
<svg version="1.1" id="Layer_1" xmlns="http://www.w3.org/2000/svg" xmlns:xlink="http://www.w3.org/1999/xlink" x="0px" y="0px"
	 viewBox="0 0 32 32" enable-background="new 0 0 32 32" xml:space="preserve">
<path fill="none" stroke="#000000" stroke-width="2" stroke-miterlimit="10" d="M26,16c0-1.7,1.3-3,3-3V8H3v5c1.7,0,3,1.3,3,3
	s-1.3,3-3,3v5h26v-5C27.3,19,26,17.7,26,16z"/>
<g>
	<path d="M16,15.1l0.4,0.9l0.9,0.1l-0.7,0.6l0.2,0.9L16,17.1l-0.8,0.5l0.2-0.9L14.7,16l0.9-0.1L16,15.1 M16,10.1L14.3,14L10,14.5
		l3.2,2.9l-0.9,4.2l3.7-2.1l3.7,2.1l-0.9-4.2l3.2-2.9L17.7,14L16,10.1L16,10.1z"/>
</g>
</svg>
