<?xml version="1.0" encoding="iso-8859-1"?>
<!-- Generator: Adobe Illustrator 19.1.1, SVG Export Plug-In . SVG Version: 6.00 Build 0)  -->
<svg version="1.1" id="Layer_1" xmlns="http://www.w3.org/2000/svg" xmlns:xlink="http://www.w3.org/1999/xlink" x="0px" y="0px"
	 viewBox="0 0 32 32" style="enable-background:new 0 0 32 32;" xml:space="preserve">
<path style="fill:none;stroke:#000000;stroke-width:2;stroke-miterlimit:10;" d="M4,7v6c0,0,0,2,2,2"/>
<circle cx="7" cy="15" r="2"/>
<path style="fill:none;stroke:#000000;stroke-width:2;stroke-miterlimit:10;" d="M28,7v6c0,0,0,2-2,2"/>
<circle cx="25" cy="15" r="2"/>
<path style="fill:none;stroke:#000000;stroke-width:2;stroke-miterlimit:10;" d="M8,15c0,5.213,3.875,13,8,13s8-7.644,8-13"/>
<polyline style="fill:none;stroke:#000000;stroke-width:2;stroke-miterlimit:10;" points="8,16 12,18 16,15 20,18 24,16 "/>
<path style="fill:none;stroke:#000000;stroke-width:2;stroke-miterlimit:10;" d="M13,22c0,0,1.338-1,3-1s3,1,3,1"/>
<path style="fill:none;stroke:#000000;stroke-width:2;stroke-miterlimit:10;" d="M8,15v-3c0-4.418,3.582-8,8-8s8,3.582,8,8v3"/>
<polyline style="fill:none;stroke:#000000;stroke-width:2;stroke-miterlimit:10;" points="16,15 16,13 9,11 "/>
<line style="fill:none;stroke:#000000;stroke-width:2;stroke-miterlimit:10;" x1="16" y1="13" x2="24" y2="11"/>
<path d="M18,15l4-1c0,0-0.155,2-2,2C18.378,16,18,15,18,15z"/>
<path d="M14,15l-4-1c0,0,0.155,2,2,2C13.622,16,14,15,14,15z"/>
</svg>
