<?xml version="1.0" encoding="utf-8"?>
<!-- Generator: Adobe Illustrator 18.1.1, SVG Export Plug-In . SVG Version: 6.00 Build 0)  -->
<svg version="1.1" id="Layer_1" xmlns="http://www.w3.org/2000/svg" xmlns:xlink="http://www.w3.org/1999/xlink" x="0px" y="0px"
	 viewBox="0 0 32 32" enable-background="new 0 0 32 32" xml:space="preserve">
<path fill="none" stroke="#000000" stroke-width="2" stroke-miterlimit="10" d="M14.7,20.3c0,0,0.7,1.9,2.6,2.4
	c1.8,0.6,3.5-0.6,3.5-0.6"/>
<line fill="none" stroke="#000000" stroke-width="2" stroke-miterlimit="10" x1="19.4" y1="18.4" x2="23.1" y2="19.6"/>
<line fill="none" stroke="#000000" stroke-width="2" stroke-miterlimit="10" x1="14.1" y1="16.8" x2="17.9" y2="18"/>
<line fill="none" stroke="#000000" stroke-width="2" stroke-miterlimit="10" x1="9" y1="13.8" x2="12.1" y2="11.7"/>
<path fill="none" stroke="#000000" stroke-width="2" stroke-miterlimit="10" d="M20.6,11.4C19.3,8.5,17.2,4,17.2,4S13,5.1,10.3,6.4
	C7.6,7.6,4,10,4,10s2.7,6,3.9,8.6c0.3,0.7,1,1.1,1.9,1.5"/>
<path fill="none" stroke="#000000" stroke-width="2" stroke-miterlimit="10" d="M25,24.3c-0.9,3-9.4,3.7-9.4,3.7S9,22.7,9.9,19.7
	s3-9.8,3-9.8s4.7,0.6,7.8,1.6s7.3,3.1,7.3,3.1S25.9,21.3,25,24.3z"/>
</svg>
