<?xml version="1.0" encoding="iso-8859-1"?>
<!-- Generator: Adobe Illustrator 19.1.1, SVG Export Plug-In . SVG Version: 6.00 Build 0)  -->
<svg version="1.1" id="Layer_1" xmlns="http://www.w3.org/2000/svg" xmlns:xlink="http://www.w3.org/1999/xlink" x="0px" y="0px"
	 viewBox="0 0 32 32" style="enable-background:new 0 0 32 32;" xml:space="preserve">
<path style="fill:none;stroke:#000000;stroke-width:2;stroke-miterlimit:10;" d="M11.562,9c0,0-4.062,1.375-6.562,5
	c1.812,2.125,6,4,6,4"/>
<path style="fill:none;stroke:#000000;stroke-width:2;stroke-miterlimit:10;" d="M27,5c0-1.417-6-1-6-1S10,5.5,10,14
	c0,11.375,12,10,12,10c0,3.375,4,4,4,4c0-3.563-1-5-1-5s1-1.438,1-5c0,0-4,0.625-4,4c0,0-6-0.875-6-6c0-3.813,4-5,4-5h1
	C21,11,27,10,27,5z"/>
<path style="fill:none;stroke:#000000;stroke-width:2;stroke-miterlimit:10;" d="M18,7c0,1.375-0.313,2.688,1,4"/>
<circle cx="21" cy="7" r="1"/>
<path style="fill:none;stroke:#000000;stroke-width:2;stroke-miterlimit:10;" d="M19,17c0,0-3,0.188-3-2"/>
</svg>
