<?xml version="1.0" encoding="iso-8859-1"?>
<!-- Generator: Adobe Illustrator 22.0.1, SVG Export Plug-In . SVG Version: 6.00 Build 0)  -->
<svg version="1.1" id="Layer_1_1_" xmlns="http://www.w3.org/2000/svg" xmlns:xlink="http://www.w3.org/1999/xlink" x="0px" y="0px"
	 viewBox="0 0 32 32" style="enable-background:new 0 0 32 32;" xml:space="preserve">
<polygon style="fill:none;stroke:#000000;stroke-width:2;stroke-miterlimit:10;" points="21,18.5 22.5,17 21,15.5 21,14 19.5,14 
	18,12.5 16.5,14 15,14 15,15.5 13.5,17 15,18.5 15,20 16.5,20 18,21.5 19.5,20 21,20 "/>
<rect x="22" y="5" width="2" height="2"/>
<rect x="8" y="5" width="2" height="2"/>
<rect x="22" y="9" width="2" height="2"/>
<rect x="8" y="9" width="2" height="2"/>
<rect x="8" y="13" width="2" height="2"/>
<rect x="8" y="17" width="2" height="2"/>
<rect x="8" y="21" width="2" height="2"/>
<line style="fill:none;stroke:#000000;stroke-width:2;stroke-miterlimit:10;" x1="11" y1="28" x2="15" y2="28"/>
<line style="fill:none;stroke:#000000;stroke-width:2;stroke-miterlimit:10;" x1="13" y1="26" x2="13" y2="30"/>
<line style="fill:none;stroke:#000000;stroke-width:2;stroke-miterlimit:10;" x1="17" y1="26" x2="21" y2="26"/>
<line style="fill:none;stroke:#000000;stroke-width:2;stroke-miterlimit:10;" x1="19" y1="24" x2="19" y2="28"/>
<polygon points="6,6 26,6 26,20.758 28,22.758 28,4 4,4 4,24 12,24 12,22 6,22 "/>
<polygon points="27.957,25.543 22,19.586 22,21 20.586,21 26.543,26.957 "/>
</svg>
