<?xml version="1.0" encoding="iso-8859-1"?>
<!-- Generator: Adobe Illustrator 19.1.1, SVG Export Plug-In . SVG Version: 6.00 Build 0)  -->
<svg version="1.1" id="Layer_1" xmlns="http://www.w3.org/2000/svg" xmlns:xlink="http://www.w3.org/1999/xlink" x="0px" y="0px"
	 viewBox="0 0 32 32" style="enable-background:new 0 0 32 32;" xml:space="preserve">
<line style="fill:none;stroke:#000000;stroke-width:2;stroke-miterlimit:10;" x1="7" y1="28" x2="25" y2="23"/>
<g>
	<polygon points="19.38,25.599 7.282,22.041 6.718,23.959 15.734,26.611 	"/>
	<polygon points="17.549,27.145 23.718,28.959 24.282,27.041 21.195,26.133 	"/>
</g>
<path style="fill:none;stroke:#000000;stroke-width:2;stroke-miterlimit:10;" d="M13,19c0-1.657,3-6.125,3-6.125s3,4.468,3,6.125
	s-1.343,3-3,3S13,20.657,13,19z"/>
<path style="fill:none;stroke:#000000;stroke-width:2;stroke-miterlimit:10;" d="M10,16c0-3.314,6-11.333,6-11.333s6,8.02,6,11.333
	s-2.686,6-6,6S10,19.314,10,16z"/>
</svg>
