<?xml version="1.0" encoding="iso-8859-1"?>
<!-- Generator: Adobe Illustrator 19.1.1, SVG Export Plug-In . SVG Version: 6.00 Build 0)  -->
<svg version="1.1" id="Layer_1" xmlns="http://www.w3.org/2000/svg" xmlns:xlink="http://www.w3.org/1999/xlink" x="0px" y="0px"
	 viewBox="0 0 32 32" style="enable-background:new 0 0 32 32;" xml:space="preserve">
<path style="fill:none;stroke:#000000;stroke-width:2;stroke-linejoin:round;stroke-miterlimit:10;" d="M25,27H7v-5l2.269-6.312
	C9.786,14.653,10.844,14,12,14h8c1.156,0,2.214,0.653,2.731,1.688L25,22V27z"/>
<path d="M7,29h3l1-3H6v2C6,28.552,6.448,29,7,29z"/>
<path d="M22,29h3c0.552,0,1-0.448,1-1v-2h-5L22,29z"/>
<line style="fill:none;stroke:#000000;stroke-width:2;stroke-miterlimit:10;" x1="24" y1="20" x2="8" y2="20"/>
<circle cx="21.5" cy="23.5" r="1.5"/>
<circle cx="10.5" cy="23.5" r="1.5"/>
<polyline style="fill:none;stroke:#000000;stroke-width:2;stroke-miterlimit:10;" points="27,19 24,20 8,20 5,19 "/>
<polygon points="19,26 18,24 14,24 13,26 "/>
<polygon points="13,5 17,5 18,6 19,5 21,5 22,6 22,7 21,8 13,8 "/>
<path style="fill:none;stroke:#000000;stroke-width:2;stroke-miterlimit:10;" d="M12.5,4C11.119,4,10,5.119,10,6.5S11.119,9,12.5,9
	S15,7.881,15,6.5S13.881,4,12.5,4z"/>
</svg>
