<?xml version="1.0" encoding="iso-8859-1"?>
<!-- Generator: Adobe Illustrator 19.1.1, SVG Export Plug-In . SVG Version: 6.00 Build 0)  -->
<svg version="1.1" id="Layer_1" xmlns="http://www.w3.org/2000/svg" xmlns:xlink="http://www.w3.org/1999/xlink" x="0px" y="0px"
	 viewBox="0 0 32 32" style="enable-background:new 0 0 32 32;" xml:space="preserve">
<path style="fill:none;stroke:#000000;stroke-width:2.005;stroke-miterlimit:10;" d="M29,26c0,0,0-7.72,0-8.549
	c0,0-0.379-4.922-8.883-4.922L19,11c0,0-1.754,0-3,0c0-0.363-1.896-5-3.575-5C4.192,6,3,10.093,3,10.093V26H29z"/>
<path d="M14,26v-3c0-1.1,0.9-2,2-2h0c1.1,0,2,0.9,2,2v3"/>
<path d="M14,19v-2c0-1.1,0.9-2,2-2h0c1.1,0,2,0.9,2,2v2H14z"/>
<path d="M21.5,27L21.5,27c-0.825,0-1.5-0.675-1.5-1.5v-2c0-0.825,0.675-1.5,1.5-1.5h0c0.825,0,1.5,0.675,1.5,1.5v2
	C23,26.325,22.325,27,21.5,27z"/>
<path d="M20,19v-1.5c0-0.825,0.675-1.5,1.5-1.5h0c0.825,0,1.5,0.675,1.5,1.5V19H20z"/>
<path d="M9,19v-1.5c0-0.825,0.675-1.5,1.5-1.5h0c0.825,0,1.5,0.675,1.5,1.5V19H9z"/>
<path d="M10.5,27L10.5,27C9.675,27,9,26.325,9,25.5v-2c0-0.825,0.675-1.5,1.5-1.5h0c0.825,0,1.5,0.675,1.5,1.5v2
	C12,26.325,11.325,27,10.5,27z"/>
<path d="M26,27L26,27c-0.55,0-1-0.45-1-1v-2c0-0.55,0.45-1,1-1h0c0.55,0,1,0.45,1,1v2C27,26.55,26.55,27,26,27z"/>
<path d="M25,19v-1c0-0.55,0.45-1,1-1h0c0.55,0,1,0.45,1,1v1H25z"/>
<path d="M5,19v-1c0-0.55,0.45-1,1-1h0c0.55,0,1,0.45,1,1v1H5z"/>
<path d="M14,13v-2c0-1.1,0.9-2,2-2h0l0,2l2,0v2H14z"/>
<path d="M9,13v-1.5c0-0.825,0.675-1.5,1.5-1.5h0c0.825,0,1.5,0.675,1.5,1.5V13H9z"/>
<path d="M5,13v-1c0-0.55,0.45-1,1-1h0c0.55,0,1,0.45,1,1v1H5z"/>
<path d="M6,27L6,27c-0.55,0-1-0.45-1-1v-2c0-0.55,0.45-1,1-1h0c0.55,0,1,0.45,1,1v2C7,26.55,6.55,27,6,27z"/>
</svg>
