<?xml version="1.0" encoding="iso-8859-1"?>
<!-- Generator: Adobe Illustrator 19.1.1, SVG Export Plug-In . SVG Version: 6.00 Build 0)  -->
<svg version="1.1" id="Layer_1" xmlns="http://www.w3.org/2000/svg" xmlns:xlink="http://www.w3.org/1999/xlink" x="0px" y="0px"
	 viewBox="-8 10 32 32" style="enable-background:new -8 10 32 32;" xml:space="preserve">
<g>
	<polygon points="1,22.842 0,25.918 -1,22.842 -1,22 -3,22 -3,23 -1.001,29.31 -0.677,30 0.776,30 2.951,23.309 3,22 1,22 	"/>
	<path d="M9.5,24c0.435,0,0.5,0.256,0.5,0.408h2C12,23.241,11.124,22,9.5,22C8.122,22,7,23.122,7,24.5S8.122,27,9.5,27
		c0.275,0,0.5,0.225,0.5,0.5c0,0.187-0.065,0.5-0.5,0.5C9,28,9,27.919,9,27.619H7C7,29.088,7.958,30,9.5,30
		c1.425,0,2.5-1.075,2.5-2.5c0-1.378-1.121-2.5-2.5-2.5C9.225,25,9,24.776,9,24.5S9.225,24,9.5,24z"/>
	<rect x="4" y="22" width="2" height="8"/>
	<path d="M16.677,22h-1.453l-2.175,6.69L13,30h2v-0.842L15.051,29h1.897L17,29.158V30h2v-1l-1.999-6.309L16.677,22z M15.702,27
		L16,26.082L16.298,27H15.702z"/>
	<path d="M22.144,18.96c-1.1-0.159-1.944-1.004-2.104-2.104L19.915,16H-3.916l-0.124,0.857c-0.157,1.082-1.021,1.947-2.104,2.104
		L-7,19.084v13.831l0.856,0.124c1.1,0.16,1.945,1.005,2.104,2.104L-3.916,36h23.831l0.124-0.856c0.16-1.1,1.005-1.945,2.104-2.104
		L23,32.915V19.084L22.144,18.96z M21,31.27c-1.282,0.449-2.281,1.448-2.73,2.73H-2.273C-2.726,32.735-3.735,31.727-5,31.273V20.727
		c1.265-0.453,2.274-1.462,2.727-2.727h20.547c0.453,1.265,1.462,2.274,2.727,2.727V31.27z"/>
</g>
</svg>
