<?xml version="1.0" encoding="iso-8859-1"?>
<!-- Generator: Adobe Illustrator 19.1.1, SVG Export Plug-In . SVG Version: 6.00 Build 0)  -->
<svg version="1.1" id="Layer_1" xmlns="http://www.w3.org/2000/svg" xmlns:xlink="http://www.w3.org/1999/xlink" x="0px" y="0px"
	 viewBox="-8 10 32 32" style="enable-background:new -8 10 32 32;" xml:space="preserve">
<g>
	<path d="M20.989,27.747l-0.979-1.745L6.882,33.36c-0.986-0.552-2.456-0.469-3.791,0.309c-1.027,0.6-1.779,1.513-2.012,2.445
		c-0.158,0.633-0.073,1.262,0.241,1.771c0.452,0.732,1.299,1.111,2.272,1.111c0.738,0,1.549-0.218,2.316-0.665
		c1.027-0.599,1.779-1.513,2.013-2.444c0.072-0.289,0.087-0.575,0.059-0.85L20.989,27.747z M5.98,35.401
		c-0.077,0.31-0.406,0.81-1.079,1.201c-0.966,0.563-1.767,0.416-1.88,0.231c-0.039-0.063-0.015-0.186-0.002-0.234
		c0.078-0.31,0.407-0.811,1.08-1.202v-0.001C4.609,35.099,5.073,35,5.414,35c0.304,0,0.51,0.079,0.564,0.166
		C6.018,35.229,5.993,35.352,5.98,35.401z"/>
	<path d="M-2,34c0-1.336,2.718-5.872,5.02-9.269c0.961,1.416,1.98,3.24,1.981,4.222C5,28.964,4.93,30,3,30v2h1c4.132,0,5-2.719,5-5
		c0-4.046-5.551-11.998-6.184-12.891l-0.852-1.202l-0.803,1.235C0.91,14.529-5,23.716-5,32c0,3.644,1.961,5.998,4.997,6
		c0.001,0,0.002,0,0.003,0v-2C-0.334,36-2,35.903-2,34z M2.054,16.541C3.957,19.417,7,24.538,7,27c0,0.422-0.034,0.794-0.105,1.12
		c-0.521-2.368-2.815-5.362-3.106-5.735l-0.83-1.063l-0.776,1.102c-0.737,1.047-3.576,5.144-5.138,8.371
		C-2.544,25.168,0.568,19.136,2.054,16.541z"/>
</g>
</svg>
