<?xml version="1.0" encoding="iso-8859-1"?>
<!-- Generator: Adobe Illustrator 19.1.1, SVG Export Plug-In . SVG Version: 6.00 Build 0)  -->
<svg version="1.1" id="Layer_1" xmlns="http://www.w3.org/2000/svg" xmlns:xlink="http://www.w3.org/1999/xlink" x="0px" y="0px"
	 viewBox="0 0 32 32" style="enable-background:new 0 0 32 32;" xml:space="preserve">
<path style="fill:none;stroke:#000000;stroke-width:2;stroke-linecap:round;stroke-linejoin:round;stroke-miterlimit:10;" d="
	M20.682,12.734c-0.96-0.664-2.653-0.905-3.761-0.539l-10.97,2.637c-1.108,0.366-1.271,1.266-0.364,1.998l3.771,3.435
	c0.908,0.732,2.547,1.002,3.643,0.599l11.1-3.709c1.095-0.402,1.207-1.273,0.246-1.937L20.682,12.734z"/>
<path style="fill:none;stroke:#000000;stroke-width:2;stroke-miterlimit:10;" d="M5,16c0,0,0.009,5.579,0,6
	c-0.007,0.334,0.113,0.696,0.52,1.024l3.449,3.178c0.922,0.743,2.586,1.017,3.698,0.608l11.421-3.664
	c0.595-0.219,0.904-0.574,0.913-0.958c0.008-0.335,0-5.75,0-5.75"/>
<path style="fill:none;stroke:#000000;stroke-width:2;stroke-linecap:round;stroke-linejoin:round;stroke-miterlimit:10;" d="
	M21.417,12.951c0,0,3.137-0.442,3.803-5.33C25.491,5.633,25.672,5,26,5c0.598,0,1,1.145,1,2.761c0,6.815-2.66,7.203-2.66,7.203"/>
</svg>
