<?xml version="1.0" encoding="iso-8859-1"?>
<!-- Generator: Adobe Illustrator 19.1.1, SVG Export Plug-In . SVG Version: 6.00 Build 0)  -->
<svg version="1.1" id="Layer_1" xmlns="http://www.w3.org/2000/svg" xmlns:xlink="http://www.w3.org/1999/xlink" x="0px" y="0px"
	 viewBox="0 0 32 32" style="enable-background:new 0 0 32 32;" xml:space="preserve">
<path style="fill:none;stroke:#000000;stroke-width:2;stroke-miterlimit:10;" d="M24.32,15.8c1.27,0.913,2.741,4.2,2.741,4.2
	s-0.958,2.667-4.292,3.625s-6.386-0.298-6.386-0.298s1.096-1.888,1.817-4.178"/>
<path style="fill:none;stroke:#000000;stroke-width:2;stroke-miterlimit:10;" d="M21.533,10.729c2.406,1.28,3.667,2.836,3.917,3.131
	c-0.375,1.133-1.97,3.423-4.171,4.503s-5.024,0.553-5.024,0.553s0.887-2.081,1.338-4.691"/>
<path style="fill:none;stroke:#000000;stroke-width:2;stroke-miterlimit:10;" d="M17.061,7c2.904,0.405,4.958,2.125,4.958,2.125
	s-0.445,2.483-2.661,4.137c-1.621,1.21-4.048,1.176-4.048,1.176s0.414-2.009,0.099-4.507"/>
<path style="fill:none;stroke:#000000;stroke-width:2;stroke-miterlimit:10;" d="M16.369,8.94c-1.142,1.394-2.44,1.548-2.44,1.548
	C13.644,8.167,11.061,5,11.061,5c2.5,0,6,0,6,0S17.31,7.868,16.369,8.94z"/>
<line style="fill:none;stroke:#000000;stroke-width:2;stroke-miterlimit:10;" x1="4" y1="22" x2="14" y2="22"/>
<line style="fill:none;stroke:#000000;stroke-width:2;stroke-miterlimit:10;" x1="22" y1="28" x2="22" y2="23"/>
<polygon points="11,24 12,28 14.061,28 13.061,24 "/>
<polygon points="7.061,24 6.061,28 4,28 5,24 "/>
</svg>
