<?xml version="1.0" encoding="iso-8859-1"?>
<!-- Generator: Adobe Illustrator 19.1.1, SVG Export Plug-In . SVG Version: 6.00 Build 0)  -->
<svg version="1.1" id="Layer_1" xmlns="http://www.w3.org/2000/svg" xmlns:xlink="http://www.w3.org/1999/xlink" x="0px" y="0px"
	 viewBox="0 0 32 32" style="enable-background:new 0 0 32 32;" xml:space="preserve">
<path style="fill:none;stroke:#000000;stroke-width:2;stroke-miterlimit:10;" d="M25,4v24H7V4H25z"/>
<line style="fill:none;stroke:#000000;stroke-width:2;stroke-miterlimit:10;" x1="10" y1="23" x2="22" y2="23"/>
<circle style="fill:none;stroke:#000000;stroke-width:2;stroke-miterlimit:10;" cx="16" cy="14" r="5"/>
<path d="M12.152,14.507h1.646l1.789,1.33l-0.475,1.752l0.617,1.048l-0.538,0.266l-1.804-2.19h-0.522l-0.823-0.907v-0.907
	l-0.776-0.876c0,0-0.195-1.548,0.515-2.418s1.267-1.565,1.932-1.909c0.665-0.344,1.562-0.477,1.562-0.477l-0.907,0.722l0.459,0.063
	l0.728-0.297l1.076,0.078l0.237,1.017l-1.33,0.25l-0.364-0.501l-0.76,0.172l0.269,1.158L12.91,12.71l-1.187,0.939L12.152,14.507z"/>
<path d="M17.852,18.233l0.773-2.397c0,0-0.317-0.798-0.364-0.798s-0.934,0.156-0.934,0.156l-0.855-0.704l0.427-1.314l0.76-0.563
	l0.776-0.11l0.728,0.438l0.301-0.548l-1.187-0.375l-0.966,0.297l-0.063-0.907l0.38-0.329l0.475,0.203l-0.079-0.876l0.997-0.11
	c0,0,1.377,1.142,1.773,2.691s-0.032,2.738-0.554,3.567C19.718,17.385,18.153,18.405,17.852,18.233z"/>
</svg>
