<?xml version="1.0" encoding="iso-8859-1"?>
<!-- Generator: Adobe Illustrator 19.2.0, SVG Export Plug-In . SVG Version: 6.00 Build 0)  -->
<svg version="1.1" id="Layer_1" xmlns="http://www.w3.org/2000/svg" xmlns:xlink="http://www.w3.org/1999/xlink" x="0px" y="0px"
	 viewBox="0 0 32 32" style="enable-background:new 0 0 32 32;" xml:space="preserve">
<path style="fill:none;stroke:#000000;stroke-width:2;stroke-miterlimit:10;" d="M26.5,23.004C26.071,23.004,25.138,24,23,24H5v3h18
	c2.656,0,3.998-1.965,3.998-3.134C26.998,23.464,26.84,23.004,26.5,23.004z"/>
<path style="fill:none;stroke:#000000;stroke-width:2;stroke-miterlimit:10;" d="M26.5,16.004C26.071,16.004,25.138,17,23,17H5v3h18
	c2.656,0,3.998-1.965,3.998-3.134C26.998,16.464,26.84,16.004,26.5,16.004z"/>
<g>
	<path d="M14,6c-2.209,0-4,1.791-4,4c0,2.209,1.791,4,4,4s4-1.791,4-4C18,7.791,16.209,6,14,6z M13.813,12.333
		c-0.461,0-0.849-0.069-1.163-0.207v-0.903c0.328,0.201,0.676,0.301,1.046,0.301c0.687,0,0.889-0.512,0.889-0.739
		c0-0.475-0.335-0.712-1.006-0.712c-0.247,0-0.533,0.019-0.856,0.057l0.18-2.674h2.537v0.863H13.71l-0.067,0.959
		c0.172-0.013,0.32-0.02,0.445-0.02c1.304,0,1.575,0.994,1.575,1.431C15.662,11.381,15.284,12.333,13.813,12.333z"/>
</g>
<path d="M20,4c-1.355,0-2.487,0.905-2.859,2.139c1.079,0.879,1.783,2.186,1.84,3.672C19.3,9.926,19.64,10,20,10c1.657,0,3-1.343,3-3
	S21.657,4,20,4z M20.428,8.469h-0.677V6.15c0,0-0.312,0.203-0.655,0.203V5.782c0.4-0.072,0.752-0.28,0.922-0.462h0.41V8.469z"/>
<rect x="13" y="17" width="4" height="3"/>
<rect x="13" y="24" width="4" height="3"/>
</svg>
