<?xml version="1.0" encoding="iso-8859-1"?>
<!-- Generator: Adobe Illustrator 19.1.1, SVG Export Plug-In . SVG Version: 6.00 Build 0)  -->
<svg version="1.1" id="Layer_1" xmlns="http://www.w3.org/2000/svg" xmlns:xlink="http://www.w3.org/1999/xlink" x="0px" y="0px"
	 viewBox="0 0 32 32" style="enable-background:new 0 0 32 32;" xml:space="preserve">
<path style="fill:none;stroke:#000000;stroke-width:2;stroke-miterlimit:10;" d="M18,26L18,26c0,0-0.012-6.101,0.949-9.425
	C15.043,13.042,11,6,11,6"/>
<line style="fill:none;stroke:#000000;stroke-width:2;stroke-miterlimit:10;" x1="18.948" y1="16.575" x2="29" y2="15"/>
<path style="fill:none;stroke:#000000;stroke-width:2;stroke-miterlimit:10;" d="M22,6c0,0-6.462,0.919-11,0c0,0-5.063,7.938-8,10
	l1,9c1.519,0,3.266,0.078,5,0.188V17h4v8.495C15.843,25.746,18,26,18,26l10-2c0,0,0.308-6.832,1-9C25.237,12.087,22,6,22,6z"/>
</svg>
