<?xml version="1.0" encoding="iso-8859-1"?>
<!-- Generator: Adobe Illustrator 22.0.1, SVG Export Plug-In . SVG Version: 6.00 Build 0)  -->
<svg version="1.1" id="Icons" xmlns="http://www.w3.org/2000/svg" xmlns:xlink="http://www.w3.org/1999/xlink" x="0px" y="0px"
	 viewBox="0 0 32 32" style="enable-background:new 0 0 32 32;" xml:space="preserve">
<g>
	<path style="fill-rule:evenodd;clip-rule:evenodd;" d="M25.597,23.614c-0.194-0.096-1.151-0.568-1.329-0.631
		c-0.178-0.066-0.308-0.097-0.438,0.096c-0.13,0.196-0.501,0.634-0.616,0.764c-0.112,0.127-0.227,0.145-0.42,0.048
		c-0.195-0.096-0.822-0.303-1.565-0.967c-0.578-0.514-0.97-1.153-1.082-1.347c-0.115-0.195-0.013-0.3,0.084-0.397
		c0.089-0.087,0.196-0.227,0.293-0.341c0.096-0.111,0.13-0.193,0.196-0.323c0.063-0.13,0.031-0.244-0.018-0.341
		c-0.048-0.096-0.437-1.056-0.6-1.446c-0.158-0.379-0.319-0.326-0.438-0.334c-0.112-0.005-0.242-0.005-0.372-0.005
		c-0.13,0-0.341,0.048-0.519,0.244c-0.178,0.194-0.68,0.664-0.68,1.621c0,0.957,0.698,1.884,0.794,2.013
		c0.097,0.127,1.372,2.092,3.324,2.935c0.463,0.201,0.824,0.321,1.107,0.41c0.466,0.147,0.891,0.127,1.227,0.079
		c0.374-0.056,1.15-0.471,1.313-0.927c0.161-0.453,0.161-0.843,0.112-0.924C25.923,23.762,25.794,23.714,25.597,23.614
		L25.597,23.614z"/>
	
		<circle style="fill-rule:evenodd;clip-rule:evenodd;fill:none;stroke:#000000;stroke-width:2;stroke-miterlimit:10;" cx="22" cy="22" r="7"/>
	<path style="fill-rule:evenodd;clip-rule:evenodd;fill:none;stroke:#000000;stroke-width:2;stroke-miterlimit:10;" d="
		M17.686,16.515C16.369,15.562,14.75,15,13,15c-4.418,0-8,3.582-8,8"/>
	<path style="fill-rule:evenodd;clip-rule:evenodd;fill:none;stroke:#000000;stroke-width:2;stroke-miterlimit:10;" d="M21,10
		c0,0-4-5-8-5c-2.761,0-5,2.239-5,5s2.239,5,5,5C17,15,21,10,21,10z"/>
</g>
</svg>
