<?xml version="1.0" encoding="iso-8859-1"?>
<!-- Generator: Adobe Illustrator 19.1.1, SVG Export Plug-In . SVG Version: 6.00 Build 0)  -->
<svg version="1.1" id="Layer_1" xmlns="http://www.w3.org/2000/svg" xmlns:xlink="http://www.w3.org/1999/xlink" x="0px" y="0px"
	 viewBox="0 0 32 32" style="enable-background:new 0 0 32 32;" xml:space="preserve">
<path style="fill:none;stroke:#000000;stroke-width:2;stroke-miterlimit:10;" d="M18,8.827C18,9.799,16.972,10,16,10
	s-2-0.201-2-1.173C14,7.058,16,6,16,6S18,7.058,18,8.827z"/>
<path style="fill:none;stroke:#000000;stroke-width:2;stroke-miterlimit:10;" d="M18,12c0,1.458-0.704,3-2,3s-2-1.542-2-3
	s0.704-2,2-2S18,10.542,18,12z"/>
<path style="fill:none;stroke:#000000;stroke-width:2;stroke-miterlimit:10;" d="M18,18c0,6.433-2,9-2,9s-2-2.494-2-9
	c0-1.458,0.704-3,2-3S18,16.542,18,18z"/>
<polyline style="fill:none;stroke:#000000;stroke-width:2;stroke-miterlimit:10;" points="15,15 11,19 11,22 8,25 "/>
<path style="fill:none;stroke:#000000;stroke-width:2;stroke-miterlimit:10;" d="M14,3c0,0.792,0.17,2.92,0.827,4.214"/>
<path style="fill:none;stroke:#000000;stroke-width:2;stroke-miterlimit:10;" d="M17,7.214C17.656,5.92,17.827,3.792,17.827,3"/>
<path style="fill:none;stroke:#000000;stroke-width:2;stroke-miterlimit:10;" d="M13.651,10.894c0,0-5.069-3.894-11.101-3.894
	C2.328,7,1.979,7.164,1.979,7.529C1.979,9.288,4.538,13,9,13c3.076,0,5-1,5-1"/>
<polyline style="fill:none;stroke:#000000;stroke-width:2;stroke-miterlimit:10;" points="23.979,25 20.979,22 20.979,19 16.979,15 
	"/>
<path style="fill:none;stroke:#000000;stroke-width:2;stroke-miterlimit:10;" d="M17.979,12c0,0,1.924,1,5,1
	C27.441,13,30,9.288,30,7.529C30,7.164,29.651,7,29.429,7c-6.032,0-11.101,3.894-11.101,3.894"/>
<g>
	<path d="M9.089,15.497l-1.796,1.796l1.414,1.414L12,15.414v-0.201C11.163,15.373,10.194,15.49,9.089,15.497z"/>
	<path d="M19.979,15.213v0.201l3.293,3.293l1.414-1.414l-1.796-1.796C21.786,15.49,20.816,15.373,19.979,15.213z"/>
</g>
<path style="fill:none;stroke:#000000;stroke-width:2;stroke-miterlimit:10;" d="M14,19c0,0,0.73,0,2,0s2,0,2,0"/>
<path style="fill:none;stroke:#000000;stroke-width:2;stroke-miterlimit:10;" d="M14,22c0,0,0.857,0,2,0s2,0,2,0"/>
</svg>
