<?xml version="1.0" encoding="iso-8859-1"?>
<!-- Generator: Adobe Illustrator 19.1.1, SVG Export Plug-In . SVG Version: 6.00 Build 0)  -->
<svg version="1.1" id="Layer_1" xmlns="http://www.w3.org/2000/svg" xmlns:xlink="http://www.w3.org/1999/xlink" x="0px" y="0px"
	 viewBox="0 0 32 32" style="enable-background:new 0 0 32 32;" xml:space="preserve">
<g>
	<circle cx="16" cy="16" r="2"/>
</g>
<g>
	<path d="M21,16c0-2.8-2.2-5-5-5s-5,2.2-5,5c0,2,1.2,3.8,3,4.6v-1.1c-1.2-0.7-2-2-2-3.4c0-2.2,1.8-4,4-4s4,1.8,4,4
		c0,1.5-0.8,2.7-2,3.4v1.1C19.8,19.8,21,18,21,16z"/>
	<path d="M23,16c0-3.9-3.1-7-7-7s-7,3.1-7,7c0,3.2,2.1,5.8,5,6.7v-1.1c-2.3-0.8-4-3-4-5.6c0-3.3,2.7-6,6-6s6,2.7,6,6
		c0,2.6-1.7,4.8-4,5.6v1.1C20.9,21.8,23,19.2,23,16z"/>
	<path d="M16,3C8.8,3,3,8.8,3,16c0,6.5,4.8,11.9,11,12.8v-1C8.3,26.9,4,21.9,4,16C4,9.4,9.4,4,16,4s12,5.4,12,12
		c0,5.9-4.3,10.9-10,11.8v1c6.2-1,11-6.3,11-12.8C29,8.8,23.2,3,16,3z"/>
	<path d="M27,16c0-6.1-4.9-11-11-11S5,9.9,5,16c0,5.4,3.9,9.9,9,10.8v-1c-4.6-0.9-8-5-8-9.8c0-5.5,4.5-10,10-10s10,4.5,10,10
		c0,4.8-3.4,8.9-8,9.8v1C23.1,25.9,27,21.4,27,16z"/>
	<path d="M25,16c0-5-4-9-9-9s-9,4-9,9c0,4.3,3,7.9,7,8.8v-1c-3.4-0.9-6-4-6-7.7c0-4.4,3.6-8,8-8s8,3.6,8,8c0,3.7-2.6,6.8-6,7.7v1
		C22,23.9,25,20.3,25,16z"/>
</g>
</svg>
