<?xml version="1.0" encoding="utf-8"?>
<!-- Generator: Adobe Illustrator 18.1.1, SVG Export Plug-In . SVG Version: 6.00 Build 0)  -->
<svg version="1.1" id="Layer_1" xmlns="http://www.w3.org/2000/svg" xmlns:xlink="http://www.w3.org/1999/xlink" x="0px" y="0px"
	 viewBox="0 0 32 32" enable-background="new 0 0 32 32" xml:space="preserve">
<g>
	<path fill="none" stroke="#000000" stroke-width="2" stroke-miterlimit="10" d="M31,8H1v16h30V8z"/>
</g>
<g>
	<path d="M18.3,11.7h-2.4v8.5h2.4c1.3,0,1.8-0.2,2.2-0.5c0.4-0.2,0.6-0.7,0.6-1.2v-5.2c0-0.6-0.2-1.1-0.6-1.3
		C20,11.8,19.8,11.7,18.3,11.7z M18.8,18.4c0,0.4-0.5,0.4-0.8,0.4V13c0.4,0,0.8,0,0.8,0.4V18.4z"/>
	<path d="M22.1,11.7v8.6h1.8c0,0,0.1-0.6,0.2-0.5c0.2,0,1,0.4,1.4,0.4c0.5,0,0.7,0,1-0.1c0.4-0.2,0.5-0.5,0.5-0.8v-5
		c0-0.7-0.7-1.2-1.3-1.2c-0.6,0-1.2,0.4-1.4,0.6v-1.9H22.1z M24.4,14.4c0-0.2,0-0.4,0.2-0.4c0.1,0,0.2,0.1,0.2,0.4v4.3
		c0,0.2,0,0.4-0.2,0.4c-0.1,0-0.2-0.1-0.2-0.4V14.4z"/>
	<polygon points="14.8,20.3 14.8,11.7 12,11.7 11.5,15.8 10.8,11.7 8.1,11.7 8.1,20.3 10,20.3 10,15.5 10.9,20.3 12.2,20.3 13,15.5 
		13,20.3 	"/>
	<rect x="5" y="11.7" width="2" height="8.6"/>
</g>
</svg>
