<?xml version="1.0" encoding="iso-8859-1"?>
<!-- Generator: Adobe Illustrator 19.2.0, SVG Export Plug-In . SVG Version: 6.00 Build 0)  -->
<svg version="1.1" id="Layer_1" xmlns="http://www.w3.org/2000/svg" xmlns:xlink="http://www.w3.org/1999/xlink" x="0px" y="0px"
	 viewBox="0 0 32 32" style="enable-background:new 0 0 32 32;" xml:space="preserve">
<path d="M5,5v22h22V5H5z M19.498,8.65c1.16,0,2.1,0.94,2.1,2.1c0,1.16-0.94,2.1-2.1,2.1s-2.1-0.94-2.1-2.1
	C17.398,9.59,18.338,8.65,19.498,8.65z M14.95,8.65c0.967,0,1.75,0.784,1.75,1.75s-0.783,1.75-1.75,1.75
	c-0.966,0-1.75-0.784-1.75-1.75S13.983,8.65,14.95,8.65z M11.1,9.35c0.773,0,1.4,0.627,1.4,1.4c0,0.773-0.627,1.4-1.4,1.4
	c-0.773,0-1.4-0.627-1.4-1.4C9.7,9.977,10.327,9.35,11.1,9.35z M16.007,23.35v-2.8h-3.495v-2.1H9c0,0,0-3.419,0-3.646
	c0-0.357,0.394-1.954,2.1-1.954c1.203,0,1.74,1.023,1.851,1.408c0.528-0.504,1.148-0.785,1.984-0.785
	c0.836,0,1.776,0.628,2.228,1.412c0.486-0.364,1.095-0.839,2.591-0.839c2.171,0,3.246,1.998,3.246,3.14c0,1.041,0,6.164,0.001,6.164
	C20.672,23.35,16.007,23.35,16.007,23.35z"/>
</svg>
