<?xml version="1.0" encoding="iso-8859-1"?>
<!-- Generator: Adobe Illustrator 19.1.1, SVG Export Plug-In . SVG Version: 6.00 Build 0)  -->
<svg version="1.1" id="Layer_1" xmlns="http://www.w3.org/2000/svg" xmlns:xlink="http://www.w3.org/1999/xlink" x="0px" y="0px"
	 viewBox="0 0 32 32" style="enable-background:new 0 0 32 32;" xml:space="preserve">
<line style="fill:none;stroke:#000000;stroke-width:2;stroke-miterlimit:10;" x1="27" y1="3" x2="24" y2="6"/>
<polyline style="fill:none;stroke:#000000;stroke-width:2;stroke-miterlimit:10;" points="17,8 19,6 23,10 20,13 20,15 17,17 15,17 
	6.25,23.875 5,22 7.859,17.734 "/>
<line style="fill:none;stroke:#000000;stroke-width:2;stroke-miterlimit:10;" x1="23" y1="14" x2="20" y2="14"/>
<line style="fill:none;stroke:#000000;stroke-width:2;stroke-miterlimit:10;" x1="5.719" y1="16.719" x2="8" y2="19"/>
<rect x="20.879" y="4.879" transform="matrix(-0.7071 0.7071 -0.7071 -0.7071 44.2132 -4.3137)" width="4.243" height="4.243"/>
<polyline style="fill:none;stroke:#000000;stroke-width:2;stroke-miterlimit:10;" points="17,17 22.866,27.667 25.69,26.118 
	19.722,15.048 "/>
<polygon points="16,7 18,9 16,12 9,17 8,16 13,9 "/>
</svg>
