<?xml version="1.0" encoding="iso-8859-1"?>
<!-- Generator: Adobe Illustrator 19.1.1, SVG Export Plug-In . SVG Version: 6.00 Build 0)  -->
<svg version="1.1" id="Layer_1" xmlns="http://www.w3.org/2000/svg" xmlns:xlink="http://www.w3.org/1999/xlink" x="0px" y="0px"
	 viewBox="0 0 32 32" style="enable-background:new 0 0 32 32;" xml:space="preserve">
<path d="M11.679,21.353l-0.812,0.291l-0.867,0.345l-1.454,0.277L7.16,22.094c-0.278-0.174-0.347-0.347-0.173-0.518
	c0.173-0.104,0.415-0.242,0.693-0.347l0.936-0.345L11.68,19.8v-2.464l-0.812,0.265l-5.026,1.798l-0.867,0.344
	c-1.317,0.553-2.01,1.141-1.975,1.659c0.069,0.761,0.936,1.314,2.495,1.73c2.025,0.545,4.083,0.656,6.184,0.342v-2.121H11.679z"/>
<g>
	<path d="M22.304,9.889c-0.693-0.932-1.906-1.693-3.709-2.315C16.346,6.848,14.455,6.319,12.931,6v18.756L17.002,26V10.34
		c0-0.414,0.035-0.692,0.208-0.866c0.173-0.24,0.346-0.275,0.589-0.172c0.588,0.172,0.867,0.692,0.867,1.555v6.292
		c1.317,0.623,2.495,0.691,3.36,0.035c0.902-0.623,1.388-1.729,1.388-3.388C23.414,12.069,23.068,10.755,22.304,9.889z"/>
</g>
<path d="M26.81,18.983c-1.559-0.52-3.12-0.692-4.576-0.621c-1.346,0.028-2.742,0.273-4.179,0.727v2.52l2.862-1.001l1.456-0.519
	c0,0,0.564-0.134,0.969-0.241c0.62-0.165,1.283,0.068,1.283,0.068c0.38,0.034,0.554,0.173,0.624,0.347
	c0.069,0.206-0.174,0.379-0.694,0.553l-1.282,0.485l-5.219,1.878v2.449l2.448-0.871l5.857-2.074l0.693-0.31
	c1.388-0.519,2.011-1.072,1.942-1.764C28.959,19.95,28.196,19.432,26.81,18.983z"/>
</svg>
