<?xml version="1.0" encoding="iso-8859-1"?>
<!-- Generator: Adobe Illustrator 19.1.1, SVG Export Plug-In . SVG Version: 6.00 Build 0)  -->
<svg version="1.1" id="Layer_1" xmlns="http://www.w3.org/2000/svg" xmlns:xlink="http://www.w3.org/1999/xlink" x="0px" y="0px"
	 viewBox="0 0 32 32" style="enable-background:new 0 0 32 32;" xml:space="preserve">
<line style="fill:none;stroke:#000000;stroke-width:2;stroke-miterlimit:10;" x1="2.646" y1="27.271" x2="21.75" y2="8.166"/>
<path style="fill:none;stroke:#000000;stroke-width:2;stroke-miterlimit:10;" d="M13.953,15.953C15.649,14.257,16,6,16,6
	c0.057-2.035,1.42-3,3.286-3"/>
<line style="fill:none;stroke:#000000;stroke-width:2;stroke-miterlimit:10;" x1="15" y1="26" x2="12.616" y2="17.3"/>
<circle style="fill:none;stroke:#000000;stroke-width:2;stroke-miterlimit:10;" cx="15" cy="26" r="3"/>
<path d="M30,21c0.094-1.058,0.999-12.973-5.249-18.365l-0.748-0.646l-4.334,4.902l0.665,0.665C26.213,13.435,27.791,20,28,21H30z
	 M24.156,4.836c2.414,2.602,3.377,6.607,3.737,9.968c-1.149-2.393-2.888-5.228-5.489-7.987L24.156,4.836z"/>
</svg>
