<?xml version="1.0" encoding="iso-8859-1"?>
<!-- Generator: Adobe Illustrator 19.1.1, SVG Export Plug-In . SVG Version: 6.00 Build 0)  -->
<svg version="1.1" id="Layer_1" xmlns="http://www.w3.org/2000/svg" xmlns:xlink="http://www.w3.org/1999/xlink" x="0px" y="0px"
	 viewBox="0 0 32 32" style="enable-background:new 0 0 32 32;" xml:space="preserve">
<line style="fill:none;stroke:#000000;stroke-width:2;stroke-miterlimit:10;" x1="5" y1="16" x2="8" y2="16"/>
<line style="fill:none;stroke:#000000;stroke-width:2;stroke-miterlimit:10;" x1="16" y1="5" x2="16" y2="8"/>
<line style="fill:none;stroke:#000000;stroke-width:2;stroke-miterlimit:10;" x1="16" y1="24" x2="16" y2="27"/>
<line style="fill:none;stroke:#000000;stroke-width:2;stroke-miterlimit:10;" x1="24" y1="16" x2="27" y2="16"/>
<polyline style="fill:none;stroke:#000000;stroke-width:2;stroke-miterlimit:10;" points="12,13 16,17 27,6 "/>
<g>
	<path d="M25.186,12.056C25.708,13.267,26,14.6,26,16c0,5.514-4.486,10-10,10S6,21.514,6,16S10.486,6,16,6
		c1.927,0,3.723,0.557,5.251,1.506l1.454-1.454C20.789,4.757,18.482,4,16,4C9.383,4,4,9.383,4,16s5.383,12,12,12s12-5.383,12-12
		c0-1.959-0.481-3.805-1.318-5.44L25.186,12.056z"/>
</g>
</svg>
