<?xml version="1.0" encoding="iso-8859-1"?>
<!-- Generator: Adobe Illustrator 19.0.1, SVG Export Plug-In . SVG Version: 6.00 Build 0)  -->
<svg version="1.1" id="Layer_1" xmlns="http://www.w3.org/2000/svg" xmlns:xlink="http://www.w3.org/1999/xlink" x="0px" y="0px"
	 viewBox="0 0 32 32" style="enable-background:new 0 0 32 32;" xml:space="preserve">
<circle id="XMLID_8_" style="fill:none;stroke:#000000;stroke-width:2;stroke-miterlimit:10;" cx="19.5" cy="8.5" r="2.5"/>
<g id="XMLID_5_">
	<g id="XMLID_6_">
		<path id="XMLID_7_" style="fill:none;stroke:#000000;stroke-width:2;stroke-miterlimit:10;" d="M23.5,19
			c-1.925,0-3.5,1.575-3.5,3.5s1.575,3.5,3.5,3.5s3.5-1.575,3.5-3.5S25.425,19,23.5,19L23.5,19z"/>
	</g>
</g>
<g id="XMLID_2_">
	<g id="XMLID_3_">
		<path id="XMLID_4_" style="fill:none;stroke:#000000;stroke-width:2;stroke-miterlimit:10;" d="M8.5,19C6.575,19,5,20.575,5,22.5
			S6.575,26,8.5,26s3.5-1.575,3.5-3.5S10.425,19,8.5,19L8.5,19z"/>
	</g>
</g>
<path id="XMLID_1_" style="fill:none;stroke:#000000;stroke-width:2;stroke-miterlimit:10;" d="M25,15l-4.998-0.01l-4.069-3.256
	c-0.427-0.342-1.049-0.277-1.397,0.145l-2.356,2.861c-0.412,0.501-0.246,1.255,0.338,1.537l4.149,1.999l-1.047,5.78"/>
</svg>
