<?xml version="1.0" encoding="iso-8859-1"?>
<!-- Generator: Adobe Illustrator 19.1.1, SVG Export Plug-In . SVG Version: 6.00 Build 0)  -->
<svg version="1.1" id="Layer_1" xmlns="http://www.w3.org/2000/svg" xmlns:xlink="http://www.w3.org/1999/xlink" x="0px" y="0px"
	 viewBox="0 0 32 32" style="enable-background:new 0 0 32 32;" xml:space="preserve">
<path style="fill:none;stroke:#000000;stroke-width:2;stroke-miterlimit:10;" d="M4,8c0,0,1.742-1,3-1c1.656,0,3,1,3,1"/>
<path style="fill:none;stroke:#000000;stroke-width:2;stroke-miterlimit:10;" d="M11,10c0,0-1-2.199-1-3c0-1.25,0.438-2.156,1-3
	c0.817,0.38,1.967,1.153,2,2s0,3,0,3c2.251,0.746,2,4,2,4s1.185,1.286,3,2c0.619-0.173,1.882-0.768,3-2c1,1.281,1,4,1,4
	c4.733,0,5-6,5-6h0.055c0,0,0.945,2.188,0.945,3.952C28,20.038,24,22,24,22v0.059c0,0,0.727,0.598,0.727,2.203
	c0,1.341-1.086,2.19-1.086,2.19s-0.959-0.548-2.05-0.548C20.313,25.905,19,25,19,23"/>
<path style="fill:none;stroke:#000000;stroke-width:2;stroke-miterlimit:10;" d="M11,21c0,4.031,4.406,6,7,6
	c2.094,0,3.591-1.095,3.591-1.095"/>
<circle cx="16.004" cy="18" r="1"/>
<path style="fill:none;stroke:#000000;stroke-width:2;stroke-miterlimit:10;" d="M12,24c0,0-1.948,1-3,1c-1.069,0-3-1-3-1"/>
<path style="fill:none;stroke:#000000;stroke-width:2;stroke-miterlimit:10;" d="M7,16c0,0,0,3.265,0,5c0.001,2.856-3,6-3,6"/>
</svg>
