<?xml version="1.0" encoding="utf-8"?>
<!-- Generator: Adobe Illustrator 18.1.1, SVG Export Plug-In . SVG Version: 6.00 Build 0)  -->
<svg version="1.1" id="Layer_1" xmlns="http://www.w3.org/2000/svg" xmlns:xlink="http://www.w3.org/1999/xlink" x="0px" y="0px"
	 viewBox="0 0 32 32" enable-background="new 0 0 32 32" xml:space="preserve">
<g>
	<path d="M15.1,6c0.4,0,0.8,0.3,0.8,0.8s-0.3,0.8-0.8,0.8c-0.4,0-0.8-0.3-0.8-0.8S14.7,6,15.1,6 M15.1,4c-1.5,0-2.8,1.2-2.8,2.8
		c0,1.5,1.2,2.8,2.8,2.8s2.8-1.2,2.8-2.8C17.8,5.2,16.6,4,15.1,4L15.1,4z"/>
</g>
<g>
	<path d="M8.6,9.2c0.2,0,0.3,0.1,0.3,0.3c0,0.2-0.1,0.3-0.3,0.3S8.3,9.7,8.3,9.5C8.3,9.4,8.4,9.2,8.6,9.2 M8.6,7.2
		c-1.3,0-2.3,1-2.3,2.3s1,2.3,2.3,2.3s2.3-1,2.3-2.3S9.9,7.2,8.6,7.2L8.6,7.2z"/>
</g>
<circle cx="5.8" cy="16" r="1.8"/>
<circle cx="7.7" cy="23.4" r="1.4"/>
<circle cx="14.2" cy="27.1" r="0.9"/>
<g>
	<path d="M22.5,9.2c0.7,0,1.2,0.6,1.2,1.2s-0.6,1.2-1.2,1.2s-1.2-0.6-1.2-1.2S21.8,9.2,22.5,9.2 M22.5,7.2c-1.8,0-3.2,1.4-3.2,3.2
		s1.4,3.2,3.2,3.2c1.8,0,3.2-1.4,3.2-3.2S24.2,7.2,22.5,7.2L22.5,7.2z"/>
</g>
<g>
	<path d="M24.3,18c0.9,0,1.7,0.8,1.7,1.7s-0.8,1.7-1.7,1.7s-1.7-0.8-1.7-1.7S23.4,18,24.3,18 M24.3,16c-2,0-3.7,1.7-3.7,3.7
		c0,2,1.7,3.7,3.7,3.7s3.7-1.7,3.7-3.7C28,17.7,26.3,16,24.3,16L24.3,16z"/>
</g>
</svg>
