<?xml version="1.0" encoding="iso-8859-1"?>
<!-- Generator: Adobe Illustrator 19.1.0, SVG Export Plug-In . SVG Version: 6.00 Build 0)  -->
<svg version="1.1" id="Layer_1" xmlns="http://www.w3.org/2000/svg" xmlns:xlink="http://www.w3.org/1999/xlink" x="0px" y="0px"
	 viewBox="0 0 32 32" style="enable-background:new 0 0 32 32;" xml:space="preserve">
<path style="fill:none;stroke:#000000;stroke-width:2;stroke-miterlimit:10;" d="M5,12c0,0,0,8.288,0,9c0,2.761,4.925,5,11,5
	s11-2.239,11-5c0-0.712,0-9,0-9"/>
<line style="fill:none;stroke:#000000;stroke-width:2;stroke-miterlimit:10;" x1="21" y1="25" x2="21" y2="16"/>
<line style="fill:none;stroke:#000000;stroke-width:2;stroke-miterlimit:10;" x1="11" y1="25" x2="11" y2="16"/>
<line style="fill:none;stroke:#000000;stroke-width:2;stroke-miterlimit:10;" x1="29" y1="7" x2="15" y2="14"/>
<g>
	<path d="M19.697,6.269l-2.633,1.755c1.247,0.058,2.405,0.22,3.454,0.45l2.672-1.336C22.149,6.761,20.979,6.463,19.697,6.269z"/>
	<path d="M25.47,8.235l-2.215,1.108C24.971,10.1,26,11.076,26,12c0,1.888-4.276,4-10,4S6,13.888,6,12
		c0-1.568,2.954-3.286,7.233-3.825l3.245-2.164C16.318,6.008,16.162,6,16,6C9.159,6,4,8.58,4,12s5.159,6,12,6s12-2.58,12-6
		C28,10.548,27.063,9.251,25.47,8.235z"/>
</g>
<line style="fill:none;stroke:#000000;stroke-width:2;stroke-miterlimit:10;" x1="24" y1="4" x2="12" y2="12"/>
</svg>
