<?xml version="1.0" encoding="iso-8859-1"?>
<!-- Generator: Adobe Illustrator 19.1.0, SVG Export Plug-In . SVG Version: 6.00 Build 0)  -->
<svg version="1.1" id="Layer_1" xmlns="http://www.w3.org/2000/svg" xmlns:xlink="http://www.w3.org/1999/xlink" x="0px" y="0px"
	 viewBox="0 0 32 32" style="enable-background:new 0 0 32 32;" xml:space="preserve">
<path style="fill:none;stroke:#000000;stroke-width:2;stroke-miterlimit:10;" d="M22.78,11.538C22.202,5.874,19.185,5,16.347,5
	c-4.401,0-5.2,5.535-5.867,9.346C9.262,19.352,5,20.594,5,23.366C5,25.276,7.728,27,11.82,27C18.736,27,27,22.256,27,16.884
	C27,15.188,25.753,13.137,22.78,11.538z"/>
<path d="M17.818,11.879c-0.406,0.937-1.318,1.406-2.028,0.937c-0.71-0.469-1.014-1.64-0.608-2.695
	c0.406-0.937,1.318-1.406,2.028-0.937S18.224,10.824,17.818,11.879z"/>
<line style="fill:none;stroke:#000000;stroke-width:2;stroke-linejoin:round;stroke-miterlimit:10;" x1="12.574" y1="18.662" x2="20.127" y2="15.83"/>
<line style="fill:none;stroke:#000000;stroke-width:2;stroke-linejoin:round;stroke-miterlimit:10;" x1="11.979" y1="22.946" x2="22.335" y2="19.09"/>
</svg>
