<?xml version="1.0" encoding="iso-8859-1"?>
<!-- Generator: Adobe Illustrator 19.1.1, SVG Export Plug-In . SVG Version: 6.00 Build 0)  -->
<svg version="1.1" id="Layer_1" xmlns="http://www.w3.org/2000/svg" xmlns:xlink="http://www.w3.org/1999/xlink" x="0px" y="0px"
	 viewBox="0 0 32 32" style="enable-background:new 0 0 32 32;" xml:space="preserve">
<path style="fill:none;stroke:#000000;stroke-width:2;stroke-miterlimit:10;" d="M16,9c-2.917-0.042-6,0.542-6,1.625
	C10,12.958,16,13,16,13c4.708,0,8-0.917,8-3.583C24,8.083,22.627,6,16,6S4,8.125,4,12c0,2.761,5.373,5,12,5c0,0,12,0.125,12-5"/>
<path style="fill:none;stroke:#000000;stroke-width:2;stroke-miterlimit:10;" d="M28,11c0,1.525,0,7.239,0,10c0,2.761-5.373,5-12,5
	S4,23.761,4,21s0-9,0-9"/>
<line style="fill:none;stroke:#000000;stroke-width:2;stroke-miterlimit:10;" x1="16" y1="20" x2="16" y2="26"/>
<line style="fill:none;stroke:#000000;stroke-width:2;stroke-miterlimit:10;" x1="20" y1="22" x2="20" y2="26"/>
<line style="fill:none;stroke:#000000;stroke-width:2;stroke-miterlimit:10;" x1="24" y1="19" x2="24" y2="25"/>
<line style="fill:none;stroke:#000000;stroke-width:2;stroke-miterlimit:10;" x1="12" y1="22" x2="12" y2="25"/>
<line style="fill:none;stroke:#000000;stroke-width:2;stroke-miterlimit:10;" x1="8" y1="19" x2="8" y2="24"/>
</svg>
