<?xml version="1.0" encoding="iso-8859-1"?>
<!-- Generator: Adobe Illustrator 21.0.0, SVG Export Plug-In . SVG Version: 6.00 Build 0)  -->
<svg version="1.1"  xmlns="http://www.w3.org/2000/svg" xmlns:xlink="http://www.w3.org/1999/xlink" x="0px" y="0px"
	 viewBox="0 0 32 32" style="enable-background:new 0 0 32 32;" xml:space="preserve">
<circle style="fill:none;stroke:#000000;stroke-width:2;stroke-miterlimit:10;" cx="9" cy="9" r="5"/>
<circle style="fill:none;stroke:#000000;stroke-width:2;stroke-miterlimit:10;" cx="20.987" cy="9" r="2"/>
<polygon points="27.77,28 17.422,17.328 16.906,19.953 24.94,28 "/>
<path d="M30.056,10.09v2.552l-5.647,4.47l0.543-2.225l0.017-0.07l0.007-0.072c0.02-0.206,0.006-0.411-0.025-0.612L30.056,10.09z"/>
<g>
	<path d="M19.244,18.088c0.188-0.732,0.434-1.624,0.532-1.977c0.311-1.125,0.365-1.114,0.975-1.113L21.475,15
		c0.089,0,0.144,0.046,0.174,0.084c0.031,0.038,0.063,0.102,0.044,0.188l-0.951,4.277l1.684,1.644l1.219-5.487
		c0.146-0.662-0.013-1.345-0.437-1.874C22.785,13.304,22.152,13,21.475,13l-0.692-0.002c-1.449-0.044-2.326,0.382-2.934,2.578
		c-0.06,0.217-0.145,0.538-0.242,0.913L19.244,18.088z"/>
	<path d="M20.487,20.698l-0.077,0.344C20.293,21.57,19.66,22,19,22h-4c-0.655,0-1.831,0.266-2.339,2.044l-1.623,5.682l1.924,0.549
		l1.623-5.682C14.754,24,14.914,24,15,24h4c1.299,0,2.487-0.723,3.061-1.765L20.487,20.698z"/>
</g>
</svg>
