<?xml version="1.0" encoding="iso-8859-1"?>
<!-- Generator: Adobe Illustrator 19.1.0, SVG Export Plug-In . SVG Version: 6.00 Build 0)  -->
<svg version="1.1" id="Layer_1" xmlns="http://www.w3.org/2000/svg" xmlns:xlink="http://www.w3.org/1999/xlink" x="0px" y="0px"
	 viewBox="0 0 32 32" style="enable-background:new 0 0 32 32;" xml:space="preserve">
<g id="XMLID_487_">
	<g id="XMLID_488_">
		<path id="XMLID_489_" style="fill:none;stroke:#000000;stroke-width:2;stroke-miterlimit:10;" d="M25.5,15
			c-3.025,0-5.5,2.475-5.5,5.5s2.475,5.5,5.5,5.5s5.5-2.475,5.5-5.5S28.525,15,25.5,15L25.5,15z"/>
	</g>
</g>
<path style="fill:none;stroke:#000000;stroke-width:2;stroke-miterlimit:10;" d="M26,21L20,7.24V7h4.5C25.328,7,26,7.672,26,8.5v0
	c0,0.828-0.672,1.5-1.5,1.5"/>
<polyline style="fill:none;stroke:#000000;stroke-width:2;stroke-miterlimit:10;" points="8.75,15.506 11.941,11 22,11 "/>
<polyline style="fill:none;stroke:#000000;stroke-width:2;stroke-miterlimit:10;" points="22,11 15.887,20 6,20 "/>
<line style="fill:none;stroke:#000000;stroke-width:2;stroke-miterlimit:10;" x1="15.887" y1="20" x2="11.941" y2="11"/>
<path d="M10.949,20C10.968,20.166,11,20.329,11,20.5c0,2.481-2.019,4.5-4.5,4.5S2,22.981,2,20.5S4.019,16,6.5,16
	c1.557,0,2.93,0.795,3.738,2h2.26c-0.982-2.346-3.3-4-5.999-4C2.916,14,0,16.916,0,20.5S2.916,27,6.5,27s6.5-2.916,6.5-6.5
	c0-0.169-0.013-0.334-0.025-0.5H10.949z"/>
<polygon points="14,9 8,9 8,7 13,7 "/>
</svg>
