<?xml version="1.0" encoding="iso-8859-1"?>
<!-- Generator: Adobe Illustrator 21.0.2, SVG Export Plug-In . SVG Version: 6.00 Build 0)  -->
<svg version="1.1"  xmlns="http://www.w3.org/2000/svg" xmlns:xlink="http://www.w3.org/1999/xlink" x="0px" y="0px"
	 viewBox="0 0 32 32" style="enable-background:new 0 0 32 32;" xml:space="preserve">
<path d="M14,12h-4c-1.654,0-3,1.346-3,3h2c0-0.551,0.448-1,1-1h1.447L7.09,23.586l1.82,0.827L14,13.216V12z"/>
<polygon points="23,16 19,16 19,15 19,15 20,14 23,14 "/>
<polygon points="12,7 16,3 20,7 "/>
<path d="M24,19c-2.045,0-3.802,1.237-4.576,3h2.356c0.549-0.609,1.337-1,2.22-1c1.654,0,3,1.346,3,3s-1.346,3-3,3s-3-1.346-3-3
	c0-0.352,0.072-0.686,0.184-1h-2.083C19.035,23.323,19,23.658,19,24c0,2.757,2.243,5,5,5s5-2.243,5-5S26.757,19,24,19z"/>
<circle style="fill:none;stroke:#000000;stroke-width:2;stroke-miterlimit:10;" cx="8" cy="24" r="4"/>
<line style="fill:none;stroke:#000000;stroke-width:2;stroke-miterlimit:10;" x1="16" y1="11" x2="16" y2="5.8"/>
<polyline style="fill:none;stroke:#000000;stroke-width:2;stroke-miterlimit:10;" points="12,16 21,16 23,20 "/>
<polyline style="fill:none;stroke:#000000;stroke-width:2;stroke-miterlimit:10;" points="24,24 16,24 12,16 "/>
<line style="fill:none;stroke:#000000;stroke-width:2;stroke-miterlimit:10;" x1="21" y1="16" x2="16" y2="24"/>
</svg>
