<?xml version="1.0" encoding="iso-8859-1"?>
<!-- Generator: Adobe Illustrator 19.2.0, SVG Export Plug-In . SVG Version: 6.00 Build 0)  -->
<svg version="1.1" id="Layer_1" xmlns="http://www.w3.org/2000/svg" xmlns:xlink="http://www.w3.org/1999/xlink" x="0px" y="0px"
	 viewBox="0 0 32 32" style="enable-background:new 0 0 32 32;" xml:space="preserve">
<line style="fill:none;stroke:#000000;stroke-width:2;stroke-miterlimit:10;" x1="16" y1="8" x2="16" y2="3"/>
<polygon points="19.5,6 16,9.5 12.5,6 "/>
<polyline style="fill:none;stroke:#000000;stroke-width:2;stroke-miterlimit:10;" points="20,18 20,14 12,14 12,18 "/>
<path style="fill:none;stroke:#000000;stroke-width:2;stroke-miterlimit:10;" d="M10.256,24.992C9.289,23.88,8,21.861,8,19l8-1l8,1
	c0,2.6-1.081,5.189-2.005,6.073"/>
<rect x="14.8" y="11" width="2.4" height="2.4"/>
<path d="M20,23c-0.552,0-1-0.448-1-1c0-0.552,0.448-1,1-1s1,0.448,1,1C21,22.552,20.552,23,20,23z M12,23c-0.552,0-1-0.448-1-1
	c0-0.552,0.448-1,1-1s1,0.448,1,1C13,22.552,12.552,23,12,23z"/>
<path style="fill:none;stroke:#000000;stroke-width:2;stroke-miterlimit:10;" d="M5,26c0,0,2.262-1,4.962-1c3.371,0,5.942,2,5.942,2
	h0.192c0,0,2.571-2,5.942-2C24.738,25,27,26,27,26"/>
</svg>
