<?xml version="1.0" encoding="iso-8859-1"?>
<!-- Generator: Adobe Illustrator 19.1.1, SVG Export Plug-In . SVG Version: 6.00 Build 0)  -->
<svg version="1.1" id="Layer_1" xmlns="http://www.w3.org/2000/svg" xmlns:xlink="http://www.w3.org/1999/xlink" x="0px" y="0px"
	 viewBox="0 0 32 32" style="enable-background:new 0 0 32 32;" xml:space="preserve">
<rect x="2" y="6" style="fill:none;stroke:#000000;stroke-width:2;stroke-miterlimit:10;" width="28" height="20"/>
<line style="fill:none;stroke:#000000;stroke-width:2;stroke-miterlimit:10;" x1="17" y1="18" x2="26" y2="18"/>
<line style="fill:none;stroke:#000000;stroke-width:2;stroke-miterlimit:10;" x1="17" y1="15" x2="24" y2="15"/>
<line style="fill:none;stroke:#000000;stroke-width:2;stroke-miterlimit:10;" x1="17" y1="21" x2="24" y2="21"/>
<line style="fill:none;stroke:#000000;stroke-width:2;stroke-miterlimit:10;" x1="17" y1="12" x2="26" y2="12"/>
<path d="M14,18.382L12.409,15H7.606c-0.009,0-0.017,0.005-0.021,0.013L6,18.382v3.077C6,21.757,6.242,22,6.542,22h0.917
	C7.758,22,8,21.757,8,21.458V21h4v0.458C12,21.757,12.242,22,12.542,22h0.917C13.758,22,14,21.757,14,21.458V18.382z M7.5,20.25
	c-0.414,0-0.75-0.336-0.75-0.75c0-0.414,0.336-0.75,0.75-0.75s0.75,0.336,0.75,0.75C8.25,19.914,7.914,20.25,7.5,20.25z M12.5,20.25
	c-0.412,0-0.75-0.338-0.75-0.75c0-0.413,0.338-0.75,0.75-0.75s0.75,0.337,0.75,0.75C13.25,19.912,12.912,20.25,12.5,20.25z"/>
<polygon points="10,10 6,12.286 6,14.589 10,12.304 14,14.589 14,12.286 "/>
</svg>
