<?xml version="1.0" encoding="iso-8859-1"?>
<!-- Generator: Adobe Illustrator 19.1.0, SVG Export Plug-In . SVG Version: 6.00 Build 0)  -->
<svg version="1.1" id="Layer_1" xmlns="http://www.w3.org/2000/svg" xmlns:xlink="http://www.w3.org/1999/xlink" x="0px" y="0px"
	 viewBox="0 0 32 32" style="enable-background:new 0 0 32 32;" xml:space="preserve">
<path id="XMLID_7_" style="fill:none;stroke:#000000;stroke-width:2;stroke-miterlimit:10;" d="M7,23c0,0.984,1.328,2,3,2s3-1,3-2"
	/>
<path id="XMLID_6_" style="fill:none;stroke:#000000;stroke-width:2;stroke-miterlimit:10;" d="M13,23c0,0.984,1.328,2,3,2s3-1,3-2"
	/>
<path id="XMLID_5_" style="fill:none;stroke:#000000;stroke-width:2;stroke-miterlimit:10;" d="M19,23c0,0.984,1.328,2,3,2s3-1,3-2"
	/>
<path id="XMLID_4_" style="fill:none;stroke:#000000;stroke-width:2;stroke-miterlimit:10;" d="M25,23c0,0.984,1.328,2,3,2s3-1,3-2"
	/>
<path id="XMLID_3_" style="fill:none;stroke:#000000;stroke-width:2;stroke-miterlimit:10;" d="M1,23c0,0.984,1.328,2,3,2s3-1,3-2"
	/>
<path style="fill:none;stroke:#000000;stroke-width:2;stroke-miterlimit:10;" d="M25,24c0.928-0.441,4-1.872,4-8H3
	c0,6.51,2.298,8.702,2.298,8.702"/>
<polyline style="fill:none;stroke:#000000;stroke-width:2;stroke-miterlimit:10;" points="5,16 7,12 12,12 13,8 19,8 22,12 24,12 
	27,16 "/>
<line style="fill:none;stroke:#000000;stroke-width:2;stroke-miterlimit:10;" x1="7" y1="12" x2="22" y2="12"/>
<polygon style="fill:none;stroke:#000000;stroke-width:2;stroke-miterlimit:10;" points="9,8 7,8 7,12 11,12 "/>
<circle cx="24" cy="20" r="1"/>
<circle cx="20" cy="20" r="1"/>
<circle cx="16" cy="20" r="1"/>
<circle cx="12" cy="20" r="1"/>
<circle cx="8" cy="20" r="1"/>
</svg>
