<?xml version="1.0" encoding="iso-8859-1"?>
<!-- Generator: Adobe Illustrator 19.1.1, SVG Export Plug-In . SVG Version: 6.00 Build 0)  -->
<svg version="1.1" id="Layer_1" xmlns="http://www.w3.org/2000/svg" xmlns:xlink="http://www.w3.org/1999/xlink" x="0px" y="0px"
	 viewBox="0 0 32 32" style="enable-background:new 0 0 32 32;" xml:space="preserve">
<line style="fill:none;stroke:#000000;stroke-width:2;stroke-miterlimit:10;" x1="17" y1="18" x2="26" y2="18"/>
<line style="fill:none;stroke:#000000;stroke-width:2;stroke-miterlimit:10;" x1="17" y1="15" x2="24" y2="15"/>
<line style="fill:none;stroke:#000000;stroke-width:2;stroke-miterlimit:10;" x1="17" y1="21" x2="24" y2="21"/>
<line style="fill:none;stroke:#000000;stroke-width:2;stroke-miterlimit:10;" x1="17" y1="12" x2="26" y2="12"/>
<rect x="2" y="6" style="fill:none;stroke:#000000;stroke-width:2;stroke-miterlimit:10;" width="28" height="20"/>
<path d="M14,19.382L12.409,16H7.606c-0.009,0-0.017,0.005-0.021,0.013L6,19.382v3.077C6,22.757,6.242,23,6.542,23h0.917
	C7.758,23,8,22.757,8,22.458V22h4v0.458C12,22.757,12.242,23,12.542,23h0.917C13.758,23,14,22.757,14,22.458V19.382z M7.5,21.25
	c-0.414,0-0.75-0.336-0.75-0.75c0-0.414,0.336-0.75,0.75-0.75s0.75,0.336,0.75,0.75C8.25,20.914,7.914,21.25,7.5,21.25z M12.5,21.25
	c-0.412,0-0.75-0.338-0.75-0.75c0-0.413,0.338-0.75,0.75-0.75s0.75,0.337,0.75,0.75C13.25,20.912,12.912,21.25,12.5,21.25z"/>
<circle cx="10" cy="11" r="2"/>
<path d="M7,15c0-1.105,1.343-2,3-2s3,0.895,3,2H7z"/>
</svg>
