<?xml version="1.0" encoding="iso-8859-1"?>
<!-- Generator: Adobe Illustrator 19.1.0, SVG Export Plug-In . SVG Version: 6.00 Build 0)  -->
<svg version="1.1" id="Layer_1" xmlns="http://www.w3.org/2000/svg" xmlns:xlink="http://www.w3.org/1999/xlink" x="0px" y="0px"
	 viewBox="0 0 32 32" style="enable-background:new 0 0 32 32;" xml:space="preserve">
<circle style="fill:none;stroke:#000000;stroke-width:2;stroke-miterlimit:10;" cx="16" cy="16" r="11"/>
<path id="XMLID_43_" style="fill:none;stroke:#000000;stroke-width:2;stroke-miterlimit:10;" d="M14,15v-0.5
	c0-0.828-0.672-1.5-1.5-1.5h0c-0.828,0-1.5,0.672-1.5,1.5v3c0,0.828,0.672,1.5,1.5,1.5H14v-2h-1"/>
<path style="fill:none;stroke:#000000;stroke-width:2;stroke-miterlimit:10;" d="M19.5,13L19.5,13c-0.828,0-1.5,0.672-1.5,1.5v3
	c0,0.828,0.672,1.5,1.5,1.5h0c0.828,0,1.5-0.672,1.5-1.5v-3C21,13.672,20.328,13,19.5,13z"/>
</svg>
