<?xml version="1.0" encoding="iso-8859-1"?>
<!-- Generator: Adobe Illustrator 19.1.0, SVG Export Plug-In . SVG Version: 6.00 Build 0)  -->
<svg version="1.1" id="Layer_1" xmlns="http://www.w3.org/2000/svg" xmlns:xlink="http://www.w3.org/1999/xlink" x="0px" y="0px"
	 viewBox="0 0 32 32" style="enable-background:new 0 0 32 32;" xml:space="preserve">
<polygon style="fill:none;stroke:#000000;stroke-width:2;stroke-miterlimit:10;" points="27,25 5,25 4,22 5,19 27,19 28,22 "/>
<line style="fill:none;stroke:#000000;stroke-width:2;stroke-linejoin:round;stroke-miterlimit:10;" x1="4" y1="22" x2="28" y2="22"/>
<path style="fill:none;stroke:#000000;stroke-width:2;stroke-miterlimit:10;" d="M23.79,13.473l2.28-4.895
	C26.235,8.225,26.588,8,26.977,8H29"/>
<circle cx="11.5" cy="15.5" r="1.5"/>
<circle cx="20.5" cy="15.5" r="1.5"/>
<path style="fill:none;stroke:#000000;stroke-width:2;stroke-miterlimit:10;" d="M23,13V8.564c0-0.942-0.652-1.757-1.573-1.954
	C20.116,6.329,18.125,6,16,6s-4.116,0.329-5.427,0.61C9.652,6.807,9,7.623,9,8.564V13l-0.894,0.447C7.428,13.786,7,14.479,7,15.236
	V19h18v-3.764c0-0.758-0.428-1.45-1.106-1.789L23,13z"/>
<line style="fill:none;stroke:#000000;stroke-width:2;stroke-miterlimit:10;" x1="9" y1="11" x2="23" y2="11"/>
<line style="fill:none;stroke:#000000;stroke-width:2;stroke-miterlimit:10;" x1="16" y1="12" x2="16" y2="6"/>
</svg>
