<?xml version="1.0" encoding="iso-8859-1"?>
<!-- Generator: Adobe Illustrator 21.0.2, SVG Export Plug-In . SVG Version: 6.00 Build 0)  -->
<svg version="1.1"  xmlns="http://www.w3.org/2000/svg" xmlns:xlink="http://www.w3.org/1999/xlink" x="0px" y="0px"
	 viewBox="0 0 32 32" style="enable-background:new 0 0 32 32;" xml:space="preserve">
<polygon points="12.662,11 13.798,6 15,6 15,11 17,11 17,6 18.202,6 19.338,11 21.389,11 19.798,4 17,4 15,4 12.202,4 10.611,11 "/>
<polygon points="22.298,15 20.247,15 22.747,26 17,26 17,15 15,15 15,26 9.253,26 11.753,15 9.702,15 6.747,28 15,28 17,28 
	25.253,28 "/>
<line style="fill:none;stroke:#000000;stroke-width:2;stroke-miterlimit:10;" x1="4" y1="13" x2="28" y2="13"/>
<line style="fill:none;stroke:#000000;stroke-width:2;stroke-miterlimit:10;" x1="25" y1="15" x2="25" y2="13"/>
<line style="fill:none;stroke:#000000;stroke-width:2;stroke-miterlimit:10;" x1="7" y1="15" x2="7" y2="13"/>
</svg>
