<?xml version="1.0" encoding="iso-8859-1"?>
<!-- Generator: Adobe Illustrator 19.1.0, SVG Export Plug-In . SVG Version: 6.00 Build 0)  -->
<svg version="1.1" id="Layer_1" xmlns="http://www.w3.org/2000/svg" xmlns:xlink="http://www.w3.org/1999/xlink" x="0px" y="0px"
	 viewBox="0 0 32 32" style="enable-background:new 0 0 32 32;" xml:space="preserve">
<path id="XMLID_38_" style="fill:none;stroke:#000000;stroke-width:2;stroke-miterlimit:10;" d="M7,25c0,0.984,1.328,2,3,2s3-1,3-2"
	/>
<path id="XMLID_37_" style="fill:none;stroke:#000000;stroke-width:2;stroke-miterlimit:10;" d="M13,25c0,0.984,1.328,2,3,2s3-1,3-2
	"/>
<path id="XMLID_36_" style="fill:none;stroke:#000000;stroke-width:2;stroke-miterlimit:10;" d="M19,25c0,0.984,1.328,2,3,2s3-1,3-2
	"/>
<path id="XMLID_35_" style="fill:none;stroke:#000000;stroke-width:2;stroke-miterlimit:10;" d="M25,25c0,0.984,1.328,2,3,2s3-1,3-2
	"/>
<path id="XMLID_34_" style="fill:none;stroke:#000000;stroke-width:2;stroke-miterlimit:10;" d="M1,25c0,0.984,1.328,2,3,2s3-1,3-2"
	/>
<path style="fill:none;stroke:#000000;stroke-width:2;stroke-miterlimit:10;" d="M26,26c2.71-1,4-5.555,4-8l-7,2l-1,1L9,20.991l-2-2
	H2c0,5.871,4,7,4,7"/>
<path style="fill:none;stroke:#000000;stroke-width:2;stroke-miterlimit:10;" d="M25,11h-6v0.172c0.389,0.745,1.739,4.747,0,6.692
	V18l6-1C27.228,14.772,25,11,25,11z"/>
<path style="fill:none;stroke:#000000;stroke-width:2;stroke-miterlimit:10;" d="M12,10H6v0.172c0.389,0.745,1.739,4.747,0,6.692V17
	l6-1"/>
<path style="fill:none;stroke:#000000;stroke-width:2;stroke-miterlimit:10;" d="M21.808,10.999C21.522,9.352,21,8,21,8h-9v0.172
	c0.389,0.745,1.739,7.747,0,9.692V18l8-1"/>
<line style="fill:none;stroke:#000000;stroke-width:2;stroke-miterlimit:10;" x1="14" y1="5" x2="18" y2="5"/>
<line style="fill:none;stroke:#000000;stroke-width:2;stroke-miterlimit:10;" x1="6" y1="7" x2="9" y2="7"/>
</svg>
