<?xml version="1.0" encoding="iso-8859-1"?>
<!-- Generator: Adobe Illustrator 19.1.0, SVG Export Plug-In . SVG Version: 6.00 Build 0)  -->
<svg version="1.1" id="Layer_1" xmlns="http://www.w3.org/2000/svg" xmlns:xlink="http://www.w3.org/1999/xlink" x="0px" y="0px"
	 viewBox="0 0 32 32" style="enable-background:new 0 0 32 32;" xml:space="preserve">
<path id="XMLID_5_" style="fill:none;stroke:#000000;stroke-width:2;stroke-miterlimit:10;" d="M7,25c0,0.984,1.328,2,3,2s3-1,3-2"
	/>
<path id="XMLID_4_" style="fill:none;stroke:#000000;stroke-width:2;stroke-miterlimit:10;" d="M13,25c0,0.984,1.328,2,3,2s3-1,3-2"
	/>
<path id="XMLID_3_" style="fill:none;stroke:#000000;stroke-width:2;stroke-miterlimit:10;" d="M19,25c0,0.984,1.328,2,3,2s3-1,3-2"
	/>
<path id="XMLID_2_" style="fill:none;stroke:#000000;stroke-width:2;stroke-miterlimit:10;" d="M25,25c0,0.984,1.328,2,3,2s3-1,3-2"
	/>
<path id="XMLID_1_" style="fill:none;stroke:#000000;stroke-width:2;stroke-miterlimit:10;" d="M1,25c0,0.984,1.328,2,3,2s3-1,3-2"
	/>
<path style="fill:none;stroke:#000000;stroke-width:2;stroke-miterlimit:10;" d="M22,27c2.23,0,4-3.555,4-5L7,21.991
	c0,5.188,4,5,4,5"/>
<path style="fill:none;stroke:#000000;stroke-width:2;stroke-miterlimit:10;" d="M14,10v0.172c0.389,0.745,1.739,6.747,0,8.692V19
	l8-1C22,11.49,14,10,14,10z"/>
<line style="fill:none;stroke:#000000;stroke-width:2;stroke-miterlimit:10;" x1="13" y1="7" x2="17" y2="7"/>
</svg>
