<?xml version="1.0" encoding="iso-8859-1"?>
<!-- Generator: Adobe Illustrator 19.1.0, SVG Export Plug-In . SVG Version: 6.00 Build 0)  -->
<svg version="1.1" id="Layer_1" xmlns="http://www.w3.org/2000/svg" xmlns:xlink="http://www.w3.org/1999/xlink" x="0px" y="0px"
	 viewBox="0 0 32 32" style="enable-background:new 0 0 32 32;" xml:space="preserve">
<path id="XMLID_27_" style="fill:none;stroke:#000000;stroke-width:2;stroke-miterlimit:10;" d="M7,24c0,0.984,1.328,2,3,2s3-1,3-2"
	/>
<path id="XMLID_26_" style="fill:none;stroke:#000000;stroke-width:2;stroke-miterlimit:10;" d="M13,24c0,0.984,1.328,2,3,2s3-1,3-2
	"/>
<path id="XMLID_25_" style="fill:none;stroke:#000000;stroke-width:2;stroke-miterlimit:10;" d="M19,24c0,0.984,1.328,2,3,2s3-1,3-2
	"/>
<path id="XMLID_24_" style="fill:none;stroke:#000000;stroke-width:2;stroke-miterlimit:10;" d="M25,24c0,0.984,1.328,2,3,2s3-1,3-2
	"/>
<path id="XMLID_23_" style="fill:none;stroke:#000000;stroke-width:2;stroke-miterlimit:10;" d="M1,24c0,0.984,1.328,2,3,2s3-1,3-2"
	/>
<path style="fill:none;stroke:#000000;stroke-width:2;stroke-miterlimit:10;" d="M25,25c0.625-0.547,2-1.555,2-4H6c0,4.668,4,5,4,5"
	/>
<path style="fill:none;stroke:#000000;stroke-width:2;stroke-miterlimit:10;" d="M15,5h-0.1c0,0-4.32,9.564-6.9,11.472
	C11.403,18.289,14.9,18,14.9,18H15V5z"/>
<path style="fill:none;stroke:#000000;stroke-width:2;stroke-miterlimit:10;" d="M18,5c0,0,0.959,7.99,0,11c3.606,1.185,5.9,2,5.9,2
	H24c0-6.472-4.77-12.181-5.9-13H18z"/>
</svg>
