<?xml version="1.0" encoding="iso-8859-1"?>
<!-- Generator: Adobe Illustrator 19.1.0, SVG Export Plug-In . SVG Version: 6.00 Build 0)  -->
<svg version="1.1" id="Layer_1" xmlns="http://www.w3.org/2000/svg" xmlns:xlink="http://www.w3.org/1999/xlink" x="0px" y="0px"
	 viewBox="0 0 32 32" style="enable-background:new 0 0 32 32;" xml:space="preserve">
<polygon style="fill:none;stroke:#000000;stroke-width:2;stroke-miterlimit:10;" points="29,25 3,25 4,20 28,20 "/>
<path style="fill:none;stroke:#000000;stroke-width:2;stroke-miterlimit:10;" d="M25,14l-1.586-5.549
	C23.169,7.592,22.384,7,21.491,7H10.509C9.616,7,8.831,7.592,8.586,8.451L7,14l-1.414,1.414C5.211,15.789,5,16.298,5,16.828V20h2h18
	h2v-3.172c0-0.53-0.211-1.039-0.586-1.414L25,14z"/>
<polyline style="fill:none;stroke:#000000;stroke-width:2;stroke-miterlimit:10;" points="28,13 25,14 7,14 4,13 "/>
<rect x="20" y="17" width="4" height="2"/>
<rect x="8" y="17" width="4" height="2"/>
</svg>
