<?xml version="1.0" encoding="iso-8859-1"?>
<!-- Generator: Adobe Illustrator 19.1.0, SVG Export Plug-In . SVG Version: 6.00 Build 0)  -->
<svg version="1.1" id="Layer_1" xmlns="http://www.w3.org/2000/svg" xmlns:xlink="http://www.w3.org/1999/xlink" x="0px" y="0px"
	 viewBox="0 0 32 32" style="enable-background:new 0 0 32 32;" xml:space="preserve">
<circle cx="16" cy="16" r="2"/>
<circle cx="16" cy="10" r="2"/>
<circle cx="16" cy="22" r="2"/>
<path style="fill:none;stroke:#000000;stroke-width:2;stroke-miterlimit:10;" d="M24,14h-3v-2c0.552,0,3-0.724,3-4h-3V5H11v3H8
	c0,3.276,2.448,4,3,4v2H8c0,3.276,2.448,4,3,4v2H8c0,3.276,2.448,4,3,4v3h10v-3c0.552,0,3-0.724,3-4h-3v-2
	C21.552,18,24,17.276,24,14z"/>
</svg>
