<?xml version="1.0" encoding="iso-8859-1"?>
<!-- Generator: Adobe Illustrator 19.1.0, SVG Export Plug-In . SVG Version: 6.00 Build 0)  -->
<svg version="1.1" id="Layer_1" xmlns="http://www.w3.org/2000/svg" xmlns:xlink="http://www.w3.org/1999/xlink" x="0px" y="0px"
	 viewBox="0 0 32 32" style="enable-background:new 0 0 32 32;" xml:space="preserve">
<line style="fill:none;stroke:#000000;stroke-miterlimit:10;" x1="10" y1="16.5" x2="17" y2="16.5"/>
<line style="fill:none;stroke:#000000;stroke-miterlimit:10;" x1="11.75" y1="13.469" x2="15.25" y2="19.531"/>
<line style="fill:none;stroke:#000000;stroke-miterlimit:10;" x1="15.25" y1="13.469" x2="11.75" y2="19.531"/>
<circle style="fill:none;stroke:#000000;stroke-width:2;stroke-miterlimit:10;" cx="13.5" cy="16.5" r="4.5"/>
<circle cx="13.5" cy="16.5" r="1.5"/>
<line style="fill:none;stroke:#000000;stroke-width:2;stroke-miterlimit:10;" x1="25" y1="12" x2="13.5" y2="12"/>
<path style="fill:none;stroke:#000000;stroke-width:2;stroke-miterlimit:10;" d="M21.265,12.037C21.737,13.095,22,14.267,22,15.5
	c0,4.694-3.806,8.5-8.5,8.5S5,20.194,5,15.5S8.806,7,13.5,7H25"/>
<line style="fill:none;stroke:#000000;stroke-width:2;stroke-miterlimit:10;" x1="27" y1="14" x2="27" y2="5"/>
<polyline style="fill:none;stroke:#000000;stroke-width:2;stroke-miterlimit:10;" points="8,21.73 7,24.5 7,27 20,27 20,24.5 
	19,21.73 "/>
</svg>
