<?xml version="1.0" encoding="iso-8859-1"?>
<!-- Generator: Adobe Illustrator 19.1.0, SVG Export Plug-In . SVG Version: 6.00 Build 0)  -->
<svg version="1.1" id="Layer_1" xmlns="http://www.w3.org/2000/svg" xmlns:xlink="http://www.w3.org/1999/xlink" x="0px" y="0px"
	 viewBox="0 0 32 32" style="enable-background:new 0 0 32 32;" xml:space="preserve">
<circle cx="9.5" cy="13.5" r="1.5"/>
<path d="M6,20h3l1-3H5v2C5,19.552,5.448,20,6,20z"/>
<line style="fill:none;stroke:#000000;stroke-width:2;stroke-miterlimit:10;" x1="6" y1="18" x2="26" y2="18"/>
<line style="fill:none;stroke:#000000;stroke-width:2;stroke-miterlimit:10;" x1="29" y1="21" x2="3" y2="21"/>
<line style="fill:none;stroke:#000000;stroke-width:2;stroke-miterlimit:10;" x1="23" y1="7" x2="9" y2="7"/>
<line style="fill:none;stroke:#000000;stroke-width:2;stroke-miterlimit:10;" x1="26" y1="7" x2="26" y2="4"/>
<line style="fill:none;stroke:#000000;stroke-width:2;stroke-miterlimit:10;" x1="6" y1="7" x2="6" y2="4"/>
<circle cx="22.5" cy="13.5" r="1.5"/>
<path d="M26,20h-3l-1-3h5v2C27,19.552,26.552,20,26,20z"/>
<path style="fill:none;stroke:#000000;stroke-width:2;stroke-miterlimit:10;" d="M19,15v-3c0-0.552-0.448-1-1-1h-4
	c-0.552,0-1,0.448-1,1v3"/>
<g>
	<path d="M8.388,4L7.216,8.104C5.941,8.449,5,9.617,5,11v5h2v-5c0-0.552,0.449-1,1-1h0.754l1.714-6H8.388z"/>
	<path d="M24.784,8.104L23.612,4h-2.08l1.714,6H24c0.551,0,1,0.448,1,1v5h2v-5C27,9.617,26.059,8.449,24.784,8.104z"/>
</g>
<line style="fill:none;stroke:#000000;stroke-width:2;stroke-miterlimit:10;" x1="16" y1="23" x2="16" y2="27"/>
<polygon points="16,28 13,25 19,25 "/>
<line style="fill:none;stroke:#000000;stroke-width:2;stroke-miterlimit:10;" x1="26" y1="23" x2="26" y2="27"/>
<polygon points="26,28 23,25 29,25 "/>
<line style="fill:none;stroke:#000000;stroke-width:2;stroke-miterlimit:10;" x1="6" y1="23" x2="6" y2="27"/>
<polygon points="6,28 3,25 9,25 "/>
</svg>
