<?xml version="1.0" encoding="iso-8859-1"?>
<!-- Generator: Adobe Illustrator 19.1.1, SVG Export Plug-In . SVG Version: 6.00 Build 0)  -->
<svg version="1.1" id="Layer_1" xmlns="http://www.w3.org/2000/svg" xmlns:xlink="http://www.w3.org/1999/xlink" x="0px" y="0px"
	 viewBox="0 0 32 32" style="enable-background:new 0 0 32 32;" xml:space="preserve">
<polygon points="8,11.968 8,14 24,11.066 24,9.04 "/>
<polygon points="8,14.968 8,17 24,14.066 24,12.04 "/>
<polygon points="8,17.968 8,20 24,17.066 24,15.04 "/>
<polygon points="8,20.968 8,23 24,20.066 24,18.04 "/>
<polygon points="5,4.066 5,6.601 8,8.601 8,11 10,10.634 10,7.53 7.803,6.066 24.197,6.066 22,7.53 22,8.439 23.64,8.138 
	25.092,7.873 27,6.601 27,4.066 "/>
<g>
	<polygon points="24,23.465 24,21.1 22,21.466 22,24.535 24.197,26 7.803,26 10,24.535 10,23.667 8.361,23.967 6.824,24.249 
		5,25.465 5,28 27,28 27,25.465 	"/>
</g>
</svg>
