<?xml version="1.0" encoding="iso-8859-1"?>
<!-- Generator: Adobe Illustrator 19.1.0, SVG Export Plug-In . SVG Version: 6.00 Build 0)  -->
<svg version="1.1" id="Layer_1" xmlns="http://www.w3.org/2000/svg" xmlns:xlink="http://www.w3.org/1999/xlink" x="0px" y="0px"
	 viewBox="0 0 32 32" style="enable-background:new 0 0 32 32;" xml:space="preserve">
<path style="fill:none;stroke:#000000;stroke-width:2;stroke-miterlimit:10;" d="M4,25v-6c5.45,0,12,4.6,12,4.6S22.4,19,28,19v6"/>
<path style="fill:none;stroke:#000000;stroke-width:2;stroke-miterlimit:10;" d="M10.85,20.6C10.3,19.55,10,18.3,10,17
	c0-3.85,2.7-7,6-7s6,3.15,6,7c0,1.35-0.3,2.6-0.9,3.65"/>
<path d="M18.5,18.25c0,1.1-1.1,1.75-2.5,1.75s-2.5-0.6-2.5-1.75S14.6,16,16,16S18.5,17.15,18.5,18.25z"/>
<path style="fill:none;stroke:#000000;stroke-width:2;stroke-miterlimit:10;" d="M17,14c1.25,0,2,1,2,1"/>
<path style="fill:none;stroke:#000000;stroke-width:2;stroke-miterlimit:10;" d="M15,14c-1.25,0-2,1-2,1"/>
<path style="fill:none;stroke:#000000;stroke-width:2;stroke-miterlimit:10;" d="M19.1,10.9c1-2.3,3-3.9,5.4-3.9
	c1.3,0,2.45,0.45,3.45,1.25"/>
<path d="M27,15.25c0,1.1-1.1,1.75-2.5,1.75S22,16.4,22,15.25S23.1,13,24.5,13S27,14.15,27,15.25z"/>
<path style="fill:none;stroke:#000000;stroke-width:2;stroke-miterlimit:10;" d="M25.5,11c1.25,0,2,1,2,1"/>
<path style="fill:none;stroke:#000000;stroke-width:2;stroke-miterlimit:10;" d="M23.5,11c-1.25,0-2,1-2,1"/>
<path style="fill:none;stroke:#000000;stroke-width:2;stroke-miterlimit:10;" d="M12.9,10.9C11.9,8.6,9.85,7,7.5,7
	C6.2,7,5.05,7.45,4.05,8.25"/>
<path d="M5,15.25C5,16.4,6.1,17,7.5,17s2.5-0.6,2.5-1.75S8.9,13,7.5,13S5,14.15,5,15.25z"/>
<path style="fill:none;stroke:#000000;stroke-width:2;stroke-miterlimit:10;" d="M6.5,11c-1.25,0-2,1-2,1"/>
<path style="fill:none;stroke:#000000;stroke-width:2;stroke-miterlimit:10;" d="M8.5,11c1.25,0,2,1,2,1"/>
</svg>
