<?xml version="1.0" encoding="iso-8859-1"?>
<!-- Generator: Adobe Illustrator 19.1.1, SVG Export Plug-In . SVG Version: 6.00 Build 0)  -->
<svg version="1.1"  xmlns="http://www.w3.org/2000/svg" xmlns:xlink="http://www.w3.org/1999/xlink" x="0px" y="0px"
	 viewBox="0 0 32 32" style="enable-background:new 0 0 32 32;" xml:space="preserve">
<path style="fill:none;stroke:#000000;stroke-width:2;stroke-miterlimit:10;" d="M19,27H7c-1.657,0-3-1.343-3-3l0,0
	c0-1.657,1.343-3,3-3h12c1.657,0,3,1.343,3,3l0,0C22,25.657,20.657,27,19,27z"/>
<circle cx="19" cy="24" r="1"/>
<circle cx="7" cy="24" r="1"/>
<circle cx="11" cy="24" r="1"/>
<circle cx="15" cy="24" r="1"/>
<rect x="9" y="18" style="fill:none;stroke:#000000;stroke-width:2;stroke-miterlimit:10;" width="7" height="3"/>
<path style="fill:none;stroke:#000000;stroke-width:2;stroke-miterlimit:10;" d="M12,10H7c-0.552,0-1,0.448-1,1v6
	c0,0.552,0.448,1,1,1h11c0.552,0,1-0.448,1-1v-0.75c0-0.69-0.56-1.25-1.25-1.25H13L12,10z"/>
<path style="fill:none;stroke:#000000;stroke-width:2;stroke-miterlimit:10;" d="M12,10h2.443c0.323,0,0.627,0.149,0.825,0.404
	l3.402,3.853C18.884,14.532,19,14.871,19,15.22V16"/>
<polyline style="fill:none;stroke:#000000;stroke-width:2;stroke-miterlimit:10;" points="16,11 24,5 26,5 26,5.125 18,14 "/>
<path style="fill:none;stroke:#000000;stroke-width:2;stroke-miterlimit:10;" d="M24,18c0,1.105,0.895,2,2,2s2-0.895,2-2
	c0-0.862-0.545-1.597-1.31-1.878C26.265,15.966,26,15.54,26,15.087L26,10"/>
<g>
	<polygon points="25,9.86 25,10 27,10 27,7.141 	"/>
</g>
</svg>
