<?xml version="1.0" encoding="iso-8859-1"?>
<!-- Generator: Adobe Illustrator 19.1.1, SVG Export Plug-In . SVG Version: 6.00 Build 0)  -->
<svg version="1.1" id="Layer_1" xmlns="http://www.w3.org/2000/svg" xmlns:xlink="http://www.w3.org/1999/xlink" x="0px" y="0px"
	 viewBox="0 0 32 32" style="enable-background:new 0 0 32 32;" xml:space="preserve">
<path style="fill:none;stroke:#000000;stroke-width:2;stroke-miterlimit:10;" d="M10,13H9v6h1c1.105,0,2-0.895,2-2v-2
	C12,13.895,11.105,13,10,13z"/>
<path id="XMLID_319_" style="fill:none;stroke:#000000;stroke-width:2;stroke-miterlimit:10;" d="M24,15v-0.5
	c0-0.828-0.672-1.5-1.5-1.5h0c-0.828,0-1.5,0.672-1.5,1.5v3c0,0.828,0.672,1.5,1.5,1.5H24v-2h-1"/>
<line id="XMLID_318_" style="fill:none;stroke:#000000;stroke-width:2;stroke-miterlimit:10;" x1="15" y1="12" x2="15" y2="20"/>
<line id="XMLID_312_" style="fill:none;stroke:#000000;stroke-width:2;stroke-miterlimit:10;" x1="18" y1="12" x2="18" y2="20"/>
<line id="XMLID_311_" style="fill:none;stroke:#000000;stroke-width:2;stroke-miterlimit:10;" x1="15" y1="14" x2="18" y2="18"/>
<polyline style="fill:none;stroke:#000000;stroke-width:2;stroke-miterlimit:10;" points="25,22 25,28 7,28 7,22 "/>
<polyline style="fill:none;stroke:#000000;stroke-width:2;stroke-miterlimit:10;" points="7,10 7,4 25,4 25,10 "/>
</svg>
