<?xml version="1.0" encoding="iso-8859-1"?>
<!-- Generator: Adobe Illustrator 19.1.1, SVG Export Plug-In . SVG Version: 6.00 Build 0)  -->
<svg version="1.1"  xmlns="http://www.w3.org/2000/svg" xmlns:xlink="http://www.w3.org/1999/xlink" x="0px" y="0px"
	 viewBox="0 0 32 32" style="enable-background:new 0 0 32 32;" xml:space="preserve">
<g>
	<g>
		<path style="fill:none;stroke:#000000;stroke-width:2;stroke-miterlimit:10;" d="M24,6C21.322,6,10.678,6,8,6
			C3.895,6,4,9.818,4,9.818V26h24V10C28,10,27.973,6,24,6z"/>
	</g>
</g>
<rect x="8" y="10" style="fill:none;stroke:#000000;stroke-width:2;stroke-miterlimit:10;" width="9" height="3"/>
<path style="fill:none;stroke:#000000;stroke-width:2;stroke-miterlimit:10;" d="M24,26H8v-4c0-0.552,0.448-1,1-1h14
	c0.552,0,1,0.448,1,1V26z"/>
<circle style="fill:none;stroke:#000000;stroke-width:2;stroke-linecap:round;stroke-linejoin:round;stroke-miterlimit:10;" cx="22" cy="14" r="2"/>
<circle cx="15" cy="17" r="1"/>
<rect x="11" y="23" width="2" height="3"/>
<rect x="15" y="23" width="2" height="3"/>
<rect x="19" y="23" width="2" height="3"/>
</svg>
