<?xml version="1.0" encoding="iso-8859-1"?>
<!-- Generator: Adobe Illustrator 19.1.1, SVG Export Plug-In . SVG Version: 6.00 Build 0)  -->
<svg version="1.1" id="Layer_1" xmlns="http://www.w3.org/2000/svg" xmlns:xlink="http://www.w3.org/1999/xlink" x="0px" y="0px"
	 viewBox="0 0 32 32" style="enable-background:new 0 0 32 32;" xml:space="preserve">
<circle style="fill:none;stroke:#000000;stroke-width:2;stroke-miterlimit:10;" cx="16" cy="16" r="11"/>
<path d="M21.747,14.336H10.434c-0.46,0-0.833,0.373-0.833,0.833v6.447c0,0.46,0.373,0.833,0.833,0.833h11.313
	c0.46,0,0.833-0.373,0.833-0.833v-6.447C22.58,14.709,22.207,14.336,21.747,14.336z M11.162,21.476c0,0.1-0.081,0.181-0.181,0.181
	h-0.39c-0.1,0-0.181-0.081-0.181-0.181V15.34c0-0.1,0.081-0.181,0.181-0.181h0.39c0.1,0,0.181,0.081,0.181,0.181V21.476z
	 M16.862,18.937v1.487c0,0.22-0.179,0.399-0.399,0.399h-0.804c-0.22,0-0.399-0.179-0.399-0.399v-1.487
	c-0.474-0.276-0.793-0.789-0.793-1.377c0-0.88,0.714-1.594,1.594-1.594c0.88,0,1.594,0.714,1.594,1.594
	C17.655,18.149,17.335,18.661,16.862,18.937z"/>
<path d="M13.308,13.568v-1.231c0-1.522,1.184-2.818,2.705-2.872c1.597-0.057,2.909,1.221,2.909,2.805v1.298
	c0,0.211,0.171,0.383,0.383,0.383h0.917c0.211,0,0.383-0.171,0.383-0.383v-1.151c0-2.517-2.06-4.625-4.577-4.577
	c-2.439,0.047-4.402,2.038-4.402,4.489v1.24c0,0.211,0.171,0.383,0.383,0.383h0.917C13.137,13.951,13.308,13.779,13.308,13.568z"/>
</svg>
