<?xml version="1.0" encoding="iso-8859-1"?>
<!-- Generator: Adobe Illustrator 21.0.0, SVG Export Plug-In . SVG Version: 6.00 Build 0)  -->
<svg version="1.1"  xmlns="http://www.w3.org/2000/svg" xmlns:xlink="http://www.w3.org/1999/xlink" x="0px" y="0px"
	 viewBox="0 0 32 32" style="enable-background:new 0 0 32 32;" xml:space="preserve">
<g>
	<path d="M8.039,9.031h15.922l2.914-1.855C26.597,7.091,26.307,7.031,26,7.031H6c-0.307,0-0.597,0.06-0.875,0.145L8.039,9.031z"/>
	<path d="M27.887,7.718L16,15.283L4.113,7.718C3.439,8.269,3,9.096,3,10.031v13c0,1.654,1.346,3,3,3h20c1.654,0,3-1.346,3-3v-13
		C29,9.096,28.561,8.269,27.887,7.718z M26,24.031H6V12.446l10,6.364l10-6.364V24.031z"/>
</g>
</svg>
