<?xml version="1.0" encoding="iso-8859-1"?>
<!-- Generator: Adobe Illustrator 19.1.1, SVG Export Plug-In . SVG Version: 6.00 Build 0)  -->
<svg version="1.1" id="Layer_1" xmlns="http://www.w3.org/2000/svg" xmlns:xlink="http://www.w3.org/1999/xlink" x="0px" y="0px"
	 viewBox="0 0 32 32" style="enable-background:new 0 0 32 32;" xml:space="preserve">
<g>
	<path style="fill:none;stroke:#000000;stroke-width:2;stroke-miterlimit:10;" d="M16,5L5,7v18l11,2h1V5H16z"/>
</g>
<path d="M10.825,11.428L8,11.762v8.436l1.805,0.209l-0.023-3.05l0.911,0.034c2.468,0.155,3.233-2.001,3.233-3.078
	C13.926,13.235,13.579,11.184,10.825,11.428z M10.519,15.843l-0.748,0.002L9.75,13.086l0.748-0.057
	c1.06-0.081,1.616,0.36,1.624,1.327C12.129,15.344,11.58,15.84,10.519,15.843z"/>
<rect x="17" y="8" style="fill:none;stroke:#000000;stroke-width:2;stroke-miterlimit:10;" width="10" height="17"/>
<polyline style="fill:none;stroke:#000000;stroke-width:2;stroke-miterlimit:10;" points="22,16 22,12 17,12 "/>
<polygon points="19.5,16 24.5,16 22,18.5 "/>
<polygon points="17.9,17.25 16.8,18.35 16.8,21.65 17.9,22.75 20.65,20 "/>
</svg>
