<?xml version="1.0" encoding="utf-8"?>
<!-- Generator: Adobe Illustrator 18.1.1, SVG Export Plug-In . SVG Version: 6.00 Build 0)  -->
<svg version="1.1" id="Layer_1" xmlns="http://www.w3.org/2000/svg" xmlns:xlink="http://www.w3.org/1999/xlink" x="0px" y="0px"
	 viewBox="0 0 32 32" enable-background="new 0 0 32 32" xml:space="preserve">
<path fill="none" stroke="#000000" stroke-width="2" stroke-linecap="round" stroke-miterlimit="10" d="M28,19c0-1.8-1.2-3.4-3-4.6
	C24.6,9.7,20.8,6,16,6c-4.8,0-8.6,3.7-9,8.4c-1.9,1.2-3,2.9-3,4.6c0,2.6,2.4,4.8,6,6c1.3,2,3.9,3,6,3s4.7-1,6-3
	C25.6,23.8,28,21.6,28,19z"/>
<path fill="none" stroke="#000000" stroke-width="2" stroke-linejoin="round" stroke-miterlimit="10" d="M22,18c-1.3-2.4-3.5-4-6-4
	s-4.7,1.6-6,4"/>
<path fill="none" stroke="#000000" stroke-width="2" stroke-linejoin="round" stroke-miterlimit="10" d="M12,22c4.7,0,6.5-0.5,8-2"
	/>
<path d="M26.1,11c0,0-3.1-1-5.1-1c-2,0-2.9,1-5,1s-3-1-5-1c-2,0-5.3,0.7-5.3,0.7L5.1,14c0,0,2.4,2,5.9,2c0,0,1.7-2.4,5-2.4
	c3.3,0,6.2,2.5,6.2,2.5C24.5,15.9,27,14,27,14L26.1,11z M11.4,14.7C9.9,14.9,8.1,14,8.1,14s1.1-2.1,3-2.1c1.9,0,3.7,1.5,3.7,1.5
	C12.7,13.9,12.3,14.6,11.4,14.7z M17.1,13.4c0,0,1.8-1.5,3.7-1.5c1.9,0,3,2.1,3,2.1s-1.7,0.9-3.2,0.7C19.7,14.6,19.2,13.9,17.1,13.4
	z"/>
<circle cx="12" cy="14" r="0.9"/>
<circle cx="20" cy="14" r="0.9"/>
<path fill="none" stroke="#000000" stroke-width="2" stroke-linejoin="round" stroke-miterlimit="10" d="M29,8c0,4.6-3,5-3,5"/>
<path fill="none" stroke="#000000" stroke-width="2" stroke-linejoin="round" stroke-miterlimit="10" d="M26,7
	c0,4.2-0.5,5.2-0.5,5.2"/>
</svg>
