<?xml version="1.0" encoding="iso-8859-1"?>
<!-- Generator: Adobe Illustrator 19.2.0, SVG Export Plug-In . SVG Version: 6.00 Build 0)  -->
<svg version="1.1" id="Layer_1" xmlns="http://www.w3.org/2000/svg" xmlns:xlink="http://www.w3.org/1999/xlink" x="0px" y="0px"
	 viewBox="0 0 32 32" style="enable-background:new 0 0 32 32;" xml:space="preserve">
<path d="M24,9l-1-3l4-1C27,7.243,25.683,9,24,9z"/>
<path d="M8,9l1-3L5,5C5,7.243,6.317,9,8,9z"/>
<path d="M8,16c0-0.106,0-1.318,0-1.5c0-0.353,0.026-0.699,0.066-1.041C4.991,16.48,3,21.195,3,26.5V27h2v-0.5
	c0-4.078,1.289-7.763,3.352-10.4C8.235,16.067,8.117,16.03,8,16z"/>
<path d="M23.934,13.459C23.973,13.801,24,14.147,24,14.5c0,0.168,0,1.3,0,1.5c-0.117,0.031-0.233,0.069-0.349,0.103
	C25.712,18.74,27,22.423,27,26.5V27h2v-0.5C29,21.195,27.009,16.479,23.934,13.459z"/>
<circle style="fill:none;stroke:#000000;stroke-width:2;stroke-miterlimit:10;" cx="12" cy="10" r="4"/>
<circle cx="12" cy="10" r="1"/>
<circle style="fill:none;stroke:#000000;stroke-width:2;stroke-miterlimit:10;" cx="20" cy="10" r="4"/>
<path style="fill:none;stroke:#000000;stroke-width:2;stroke-miterlimit:10;" d="M18.338,6.371C17.599,6.131,16.814,6,16,6
	c-0.814,0-1.599,0.131-2.339,0.371C15.039,7.003,16,8.386,16,10C16,8.386,16.961,7.003,18.338,6.371z"/>
<path style="fill:none;stroke:#000000;stroke-width:2;stroke-miterlimit:10;" d="M20,14c-2.209,0-4-1.791-4-4c0,2.209-1.791,4-4,4
	c-1.571,0-2.917-0.914-3.571-2.232C8.155,12.627,8,13.543,8,14.5c0,0.182,0,1.394,0,1.5c3.958,1,8,4.083,8,7
	c0-2.833,4.042-5.958,8-7c0-0.2,0-1.332,0-1.5c0-0.956-0.155-1.873-0.43-2.731C22.916,13.086,21.571,14,20,14z"/>
<circle cx="20" cy="10" r="1"/>
<polygon points="16,17 12.459,13.459 16,12 19.541,13.459 "/>
<polygon points="10.5,23 9,21 12,21 "/>
<polygon points="21.5,23 20,21 23,21 "/>
<polygon points="13.5,27 12,25 15,25 "/>
<polygon points="18.5,27 17,25 20,25 "/>
<polygon points="23.5,27 22,25 25,25 "/>
<polygon points="8.5,27 7,25 10,25 "/>
</svg>
