<?xml version="1.0" encoding="iso-8859-1"?>
<!-- Generator: Adobe Illustrator 19.0.1, SVG Export Plug-In . SVG Version: 6.00 Build 0)  -->
<svg version="1.1" id="Layer_1" xmlns="http://www.w3.org/2000/svg" xmlns:xlink="http://www.w3.org/1999/xlink" x="0px" y="0px"
	 viewBox="0 0 32 32" style="enable-background:new 0 0 32 32;" xml:space="preserve">
<line id="XMLID_370_" style="fill:none;stroke:#000000;stroke-width:2;stroke-miterlimit:10;" x1="7" y1="9" x2="7" y2="5"/>
<line id="XMLID_369_" style="fill:none;stroke:#000000;stroke-width:2;stroke-miterlimit:10;" x1="25" y1="9" x2="25" y2="5"/>
<line id="XMLID_368_" style="fill:none;stroke:#000000;stroke-width:2;stroke-miterlimit:10;" x1="4" y1="7" x2="7" y2="7"/>
<line id="XMLID_367_" style="fill:none;stroke:#000000;stroke-width:2;stroke-miterlimit:10;" x1="9" y1="7" x2="23" y2="7"/>
<line id="XMLID_194_" style="fill:none;stroke:#000000;stroke-width:2;stroke-miterlimit:10;" x1="25" y1="7" x2="28" y2="7"/>
<line id="XMLID_234_" style="fill:none;stroke:#000000;stroke-width:2;stroke-miterlimit:10;" x1="7" y1="25" x2="7" y2="21"/>
<line id="XMLID_233_" style="fill:none;stroke:#000000;stroke-width:2;stroke-miterlimit:10;" x1="25" y1="25" x2="25" y2="21"/>
<line id="XMLID_232_" style="fill:none;stroke:#000000;stroke-width:2;stroke-miterlimit:10;" x1="4" y1="23" x2="7" y2="23"/>
<line id="XMLID_229_" style="fill:none;stroke:#000000;stroke-width:2;stroke-miterlimit:10;" x1="25" y1="23" x2="28" y2="23"/>
<line id="XMLID_225_" style="fill:none;stroke:#000000;stroke-width:2;stroke-miterlimit:10;" x1="7" y1="17" x2="7" y2="13"/>
<line id="XMLID_198_" style="fill:none;stroke:#000000;stroke-width:2;stroke-miterlimit:10;" x1="25" y1="17" x2="25" y2="13"/>
<line id="XMLID_197_" style="fill:none;stroke:#000000;stroke-width:2;stroke-miterlimit:10;" x1="4" y1="15" x2="7" y2="15"/>
<path id="XMLID_196_" style="fill:none;stroke:#000000;stroke-width:2;stroke-miterlimit:10;" d="M9,15c2.998,0,2.721-1,4-1
	c1.476,0,1.996,2,3,2s1.492-2,3-2c1.153,0,1.004,1,4,1"/>
<line id="XMLID_195_" style="fill:none;stroke:#000000;stroke-width:2;stroke-miterlimit:10;" x1="25" y1="15" x2="28" y2="15"/>
<path id="XMLID_190_" style="fill:none;stroke:#000000;stroke-width:2;stroke-miterlimit:10;" d="M20,25h-8c-1.105,0-2-0.895-2-2v0
	c0-1.105,0.895-2,2-2h8c1.105,0,2,0.895,2,2v0C22,24.105,21.105,25,20,25z"/>
<line id="XMLID_230_" style="fill:none;stroke:#000000;stroke-width:2;stroke-miterlimit:10;" x1="14" y1="25" x2="14" y2="21"/>
<line id="XMLID_236_" style="fill:none;stroke:#000000;stroke-width:2;stroke-miterlimit:10;" x1="18" y1="25" x2="18" y2="21"/>
</svg>
