<?xml version="1.0" encoding="iso-8859-1"?>
<!-- Generator: Adobe Illustrator 19.1.1, SVG Export Plug-In . SVG Version: 6.00 Build 0)  -->
<svg version="1.1" id="Layer_1" xmlns="http://www.w3.org/2000/svg" xmlns:xlink="http://www.w3.org/1999/xlink" x="0px" y="0px"
	 viewBox="0 0 32 32" style="enable-background:new 0 0 32 32;" xml:space="preserve">
<path style="fill:none;stroke:#000000;stroke-width:2;stroke-miterlimit:10;" d="M21,27c-4.281,0-5-2.833-5-7c0-1.423,0-4,0-4"/>
<path style="fill:none;stroke:#000000;stroke-width:2;stroke-miterlimit:10;" d="M11,6.629C11,5.444,11.757,5,12.387,5
	C13.845,5,14.364,5.994,16,5.994S18.264,5,19.54,5C20.17,5,21,5.444,21,6.629c0,2.906-5,9.365-5,9.365S11,9.534,11,6.629z"/>
<path style="fill:none;stroke:#000000;stroke-width:2;stroke-miterlimit:10;" d="M16.495,15.97c0,0-5.251,6.258-8.09,6.875
	c-1.158,0.252-1.752-0.394-1.886-1.01c-0.31-1.425,0.552-2.143,0.204-3.741C6.376,16.495,5.271,16.092,5,14.845
	c-0.134-0.616,0.124-1.521,1.282-1.773C9.121,12.456,16.495,15.97,16.495,15.97"/>
<path style="fill:none;stroke:#000000;stroke-width:2;stroke-miterlimit:10;" d="M15.528,15.998
	c0.383,0.452,5.338,6.254,8.066,6.847c1.158,0.252,1.752-0.394,1.886-1.01c0.31-1.425-0.552-2.143-0.204-3.741
	s1.452-2.001,1.723-3.248c0.134-0.616-0.124-1.521-1.282-1.773c-2.839-0.617-10.214,2.897-10.214,2.897"/>
</svg>
