<?xml version="1.0" encoding="iso-8859-1"?>
<!-- Generator: Adobe Illustrator 19.1.0, SVG Export Plug-In . SVG Version: 6.00 Build 0)  -->
<svg version="1.1" id="Layer_1" xmlns="http://www.w3.org/2000/svg" xmlns:xlink="http://www.w3.org/1999/xlink" x="0px" y="0px"
	 viewBox="0 0 32 32" style="enable-background:new 0 0 32 32;" xml:space="preserve">
<path style="fill:none;stroke:#000000;stroke-width:2;stroke-linecap:round;stroke-miterlimit:10;" d="M21.015,11.177
	c-3.474,1.407-9.661,5.64-14.593,10.471c-0.592,0.58-1.593,0.405-2.107-0.244c-0.514-0.649-0.383-1.707,0.278-2.397
	c0.828-0.863,2.614-2.936,6.623-6.369C16.003,8.539,22.027,5,25.384,5"/>
<path style="fill:none;stroke:#000000;stroke-width:2;stroke-linecap:round;stroke-miterlimit:10;" d="M25.5,5
	c-0.92,0-1.724,0.497-2.158,1.237c-0.217,0.371-1.785,8.393-13.903,18.202c-0.644,0.521-0.586,1.536,0,2.121
	c0.586,0.586,1.652,0.577,2.413,0c0.952-0.723,3.127-2.358,7.089-5.846C23.289,16.887,28,10.28,28,7.5C28,6.119,26.881,5,25.5,5z"/>
</svg>
