<?xml version="1.0" encoding="iso-8859-1"?>
<!-- Generator: Adobe Illustrator 19.1.0, SVG Export Plug-In . SVG Version: 6.00 Build 0)  -->
<svg version="1.1" id="Layer_1" xmlns="http://www.w3.org/2000/svg" xmlns:xlink="http://www.w3.org/1999/xlink" x="0px" y="0px"
	 viewBox="0 0 32 32" style="enable-background:new 0 0 32 32;" xml:space="preserve">
<line style="fill:none;stroke:#000000;stroke-width:2;stroke-miterlimit:10;" x1="6" y1="28" x2="6" y2="6"/>
<circle cx="6" cy="6" r="2"/>
<path style="fill:none;stroke:#000000;stroke-width:2;stroke-miterlimit:10;" d="M27,15c-7.276,4.945-16.306-1.293-21,2.25V9
	c6.938-0.488,11.412,4.4,20,2L27,15z"/>
<path d="M9.756,16.105C8.331,16.151,7.056,16.453,6,17.25V9c1.454-0.102,2.8,0.032,4.098,0.285L9.756,16.105z"/>
<path d="M18.46,16.955c-1.614-0.099-3.205-0.345-4.719-0.548l0.567-6.001c1.489,0.441,3.005,0.87,4.646,1.096L18.46,16.955z"/>
<path d="M27,15c-1.222,0.83-2.493,1.345-3.785,1.644l-0.535-5.035c1.04-0.088,2.141-0.28,3.32-0.609L27,15z"/>
</svg>
