<?xml version="1.0" encoding="iso-8859-1"?>
<!-- Generator: Adobe Illustrator 19.1.1, SVG Export Plug-In . SVG Version: 6.00 Build 0)  -->
<svg version="1.1" id="Layer_1" xmlns="http://www.w3.org/2000/svg" xmlns:xlink="http://www.w3.org/1999/xlink" x="0px" y="0px"
	 viewBox="-7 9 32 32" style="enable-background:new -7 9 32 32;" xml:space="preserve">
<path d="M20.959,30.717c-1.271-4.298-5.498-7.333-6.963-8.277c-0.101-6.561-1.923-10.674-2.003-10.851L11.646,11h-1.521
	l-0.116,0.867c-0.016,0.12-0.171,1.283-0.355,2.754c-0.322-1.077-0.583-1.855-0.611-1.94L8.719,12H7v7.061
	C4.589,19.369,3.521,20.789,3.156,22h-6.135L-3,22.979c-0.002,0.11-0.015,2.703,3.676,3.968c0.864,0.296,1.615,0.532,2.256,0.733
	c0.942,0.296,1.915,0.602,2.182,0.802c0.064,0.22,0.176,0.773,0.276,1.269c0.435,2.149,1.164,5.747,2.726,8.716L8.396,39H9
	c3.47,0,10.114-3.814,11.902-7.57l0.165-0.346L20.959,30.717z M9.595,36.953c-1.234-2.606-1.86-5.699-2.245-7.601
	c-0.215-1.062-0.308-1.504-0.456-1.799c-0.429-0.86-1.41-1.168-3.363-1.782c-0.627-0.197-1.362-0.428-2.207-0.717
	c-0.908-0.311-1.461-0.7-1.798-1.054H5v-1c0-0.082,0.034-2,3-2h3c0-0.615,0.188-2.39,0.409-4.251C11.736,18.431,12,20.548,12,23
	l0.001,0.578l0.5,0.289c0.051,0.029,4.959,2.901,6.419,7.042C17.268,33.811,12.299,36.566,9.595,36.953z M6,23h3
	c0,0.001-0.825,1-1.906,1C6.358,24,6,23,6,23z"/>
</svg>
