<?xml version="1.0" encoding="iso-8859-1"?>
<!-- Generator: Adobe Illustrator 21.0.2, SVG Export Plug-In . SVG Version: 6.00 Build 0)  -->
<svg version="1.1" id="Layer_1" xmlns="http://www.w3.org/2000/svg" xmlns:xlink="http://www.w3.org/1999/xlink" x="0px" y="0px"
	 viewBox="0 0 32 32" style="enable-background:new 0 0 32 32;" xml:space="preserve">
<path style="fill:none;stroke:#000000;stroke-width:2;stroke-miterlimit:10;" d="M16,7c0,0-0.551,0.517-2,1c-3,1-3,2.949-3,4v2.746
	C11,18,14,20,16,20s5-2,5-5.254V12c0-1.151,0-3-3-4C16.658,7.553,16,7,16,7z"/>
<path style="fill:none;stroke:#000000;stroke-width:2;stroke-miterlimit:10;" d="M20,18c0,0,1,3,6,3c-2.012-3.126-2-6-2-9
	c0-6-3-9-8-9c-2.417,0-3.502,1.012-3.502,1.012C8.646,4.012,8,9,8,12s0,5-2,9c5,0,6-3,6-3"/>
<path d="M6.776,20.97c-0.482-0.932-1.588-1.248-2.464-0.704c-0.6,0.372-1.316,1.679-1.69,2.425L2,23.932l1.292,0.054
	c0.776,0.033,2.167,0.032,2.768-0.34C6.937,23.104,7.258,21.902,6.776,20.97z"/>
<path d="M25.224,20.97c0.482-0.932,1.588-1.248,2.464-0.704c0.6,0.372,1.316,1.679,1.69,2.425L30,23.932l-1.292,0.054
	c-0.776,0.033-2.167,0.032-2.768-0.34C25.063,23.104,24.742,21.902,25.224,20.97z"/>
<path style="fill:none;stroke:#000000;stroke-width:2;stroke-linecap:round;stroke-linejoin:round;stroke-miterlimit:10;" d="M23,25
	c0,0,0,3-3,3c-2,0-4,1-4,1s-2-1-4-1c-3,0-3-3-3-3"/>
<path style="fill:none;stroke:#000000;stroke-width:2;stroke-linejoin:round;stroke-miterlimit:10;" d="M11,23c0,0,1,2,5,2s5-2,5-2"
	/>
<path d="M5.969,30l0.371-1.393c0.318-1.195,1.153-2.159,2.372-2.687l3.785-2.053C14,23.009,14,21.22,14,20.259V19h-2v1.259
	c0,1.007-0.081,1.636-0.477,1.862l-3.683,2.002c-1.704,0.73-2.956,2.177-3.434,3.969L3.898,30H5.969z"/>
<path d="M19.523,23.879l3.848,2.082c1.136,0.487,1.971,1.451,2.289,2.646L26.031,30h2.07l-0.509-1.908
	c-0.478-1.792-1.729-3.238-3.351-3.929l-3.746-2.031C20.081,21.895,20,21.266,20,20.259V19h-2v1.259
	C18,21.22,18,23.009,19.523,23.879z"/>
</svg>
