<?xml version="1.0" encoding="iso-8859-1"?>
<!-- Generator: Adobe Illustrator 19.2.0, SVG Export Plug-In . SVG Version: 6.00 Build 0)  -->
<svg version="1.1" id="Layer_1" xmlns="http://www.w3.org/2000/svg" xmlns:xlink="http://www.w3.org/1999/xlink" x="0px" y="0px"
	 viewBox="0 0 32 32" style="enable-background:new 0 0 32 32;" xml:space="preserve">
<circle style="fill:none;stroke:#000000;stroke-width:2;stroke-miterlimit:10;" cx="16" cy="16" r="11"/>
<circle cx="16" cy="10" r="2"/>
<polygon points="20.237,15 25,15 25,13 22.842,13 "/>
<polygon points="17,21.684 17,26 19,26 19,24.545 "/>
<polygon points="15,21.684 15,26 13,26 13,24.545 "/>
<polygon points="11.763,15 7,15 7,13 9.158,13 "/>
<polyline style="fill:none;stroke:#000000;stroke-width:2;stroke-miterlimit:10;" points="22.09,25.087 18,19 18,14 23,10 "/>
<polyline style="fill:none;stroke:#000000;stroke-width:2;stroke-miterlimit:10;" points="9.91,25.087 14,19 14,14 9,10 "/>
<line style="fill:none;stroke:#000000;stroke-width:2;stroke-miterlimit:10;" x1="18" y1="14" x2="14" y2="14"/>
</svg>
