<?xml version="1.0" encoding="iso-8859-1"?>
<!-- Generator: Adobe Illustrator 21.0.2, SVG Export Plug-In . SVG Version: 6.00 Build 0)  -->
<svg version="1.1" id="Layer_1" xmlns="http://www.w3.org/2000/svg" xmlns:xlink="http://www.w3.org/1999/xlink" x="0px" y="0px"
	 viewBox="0 0 32 32" style="enable-background:new 0 0 32 32;" xml:space="preserve">
<line style="fill:none;stroke:#000000;stroke-width:2;stroke-miterlimit:10;" x1="3" y1="22" x2="29" y2="22"/>
<line style="fill:none;stroke:#000000;stroke-width:2;stroke-linejoin:round;stroke-miterlimit:10;" x1="16" y1="27" x2="16" y2="22"/>
<path d="M13.441,7l0.541-2.812c0.104-0.542-0.251-1.066-0.793-1.171c-0.544-0.097-1.066,0.252-1.171,0.794L11.405,7H13.441z"/>
<polygon points="8.52,22 7.174,29 9.211,29 10.557,22 "/>
<polygon points="21.443,22 22.789,29 24.826,29 23.48,22 "/>
<path d="M20.595,7l-0.613-3.188c-0.104-0.542-0.624-0.891-1.171-0.794c-0.542,0.104-0.897,0.629-0.793,1.171L18.559,7H20.595z"/>
<rect x="6" y="7" style="fill:none;stroke:#000000;stroke-width:2;stroke-miterlimit:10;" width="20" height="15"/>
<polyline style="fill:none;stroke:#000000;stroke-width:2;stroke-miterlimit:10;" points="22,17 19,14 17,16 14,13 10,17 "/>
<circle cx="11" cy="11" r="1"/>
</svg>
