<?xml version="1.0" encoding="iso-8859-1"?>
<!-- Generator: Adobe Illustrator 19.1.1, SVG Export Plug-In . SVG Version: 6.00 Build 0)  -->
<svg version="1.1" id="Layer_1" xmlns="http://www.w3.org/2000/svg" xmlns:xlink="http://www.w3.org/1999/xlink" x="0px" y="0px"
	 viewBox="0 0 32 32" style="enable-background:new 0 0 32 32;" xml:space="preserve">
<path style="fill:none;stroke:#000000;stroke-width:2;stroke-miterlimit:10;" d="M25,17c0,0-2.486,3-9,3s-9-3-9-3
	c2.034-5.027,5-10,5-10h1c0,0,2.174,2,3,2s3-2,3-2h1c0,0,2.098,3.428,3.755,7.002"/>
<path style="fill:none;stroke:#000000;stroke-width:2;stroke-miterlimit:10;" d="M7,17c0,0-2.932,1.108-4,4c0,0,2.948,4,13,4
	s13-4,13-4c-1.068-2.892-4-4-4-4"/>
<path style="fill:none;stroke:#000000;stroke-width:2;stroke-miterlimit:10;" d="M22,19c0,0,5-1.429,5-8C27,11,22,11.973,22,19z"/>
</svg>
