<?xml version="1.0" encoding="iso-8859-1"?>
<!-- Generator: Adobe Illustrator 19.1.1, SVG Export Plug-In . SVG Version: 6.00 Build 0)  -->
<svg version="1.1" id="Layer_1" xmlns="http://www.w3.org/2000/svg" xmlns:xlink="http://www.w3.org/1999/xlink" x="0px" y="0px"
	 viewBox="0 0 32 32" style="enable-background:new 0 0 32 32;" xml:space="preserve">
<line style="fill:none;stroke:#000000;stroke-width:2;stroke-miterlimit:10;" x1="16" y1="9" x2="16" y2="27"/>
<line style="fill:none;stroke:#000000;stroke-width:2;stroke-miterlimit:10;" x1="10" y1="27" x2="22" y2="27"/>
<path d="M17,7c0,0.552-0.448,1-1,1c-0.552,0-1-0.448-1-1c0-0.983,1-3,1-3S17,6.061,17,7z"/>
<path d="M20,8c0,0.552-0.448,1-1,1s-1-0.448-1-1c0-0.983,1-3,1-3S20,7.061,20,8z"/>
<path d="M23,9c0,0.552-0.448,1-1,1s-1-0.448-1-1c0-0.983,1-3,1-3S23,8.061,23,9z"/>
<path d="M26,10c0,0.552-0.448,1-1,1s-1-0.448-1-1c0-0.983,1-3,1-3S26,9.061,26,10z"/>
<path d="M29,11c0,0.552-0.448,1-1,1s-1-0.448-1-1c0-0.983,1-3,1-3S29,10.061,29,11z"/>
<path style="fill:none;stroke:#000000;stroke-width:2;stroke-miterlimit:10;" d="M28,13v3.976C28,18.094,27.094,19,25.976,19H16"/>
<path style="fill:none;stroke:#000000;stroke-width:2;stroke-miterlimit:10;" d="M16,19h6.945C24.08,19,25,18.08,25,16.945L25,12"/>
<path style="fill:none;stroke:#000000;stroke-width:2;stroke-miterlimit:10;" d="M22,11v6.027C22,18.117,21.117,19,20.027,19H16"/>
<path style="fill:none;stroke:#000000;stroke-width:2;stroke-miterlimit:10;" d="M16,19h1.018C18.113,19,19,18.113,19,17.018V10"/>
<path d="M12,8c0,0.552,0.448,1,1,1s1-0.448,1-1c0-0.983-1-3-1-3S12,7.061,12,8z"/>
<path d="M9,9c0,0.552,0.448,1,1,1s1-0.448,1-1c0-0.983-1-3-1-3S9,8.061,9,9z"/>
<path d="M6,10c0,0.552,0.448,1,1,1s1-0.448,1-1c0-0.983-1-3-1-3S6,9.061,6,10z"/>
<path d="M3,11c0,0.552,0.448,1,1,1s1-0.448,1-1c0-0.983-1-3-1-3S3,10.061,3,11z"/>
<path style="fill:none;stroke:#000000;stroke-width:2;stroke-miterlimit:10;" d="M4,13v3.976C4,18.094,4.906,19,6.024,19H16"/>
<path style="fill:none;stroke:#000000;stroke-width:2;stroke-miterlimit:10;" d="M16,19H9.055C7.92,19,7,18.08,7,16.945L7,12"/>
<path style="fill:none;stroke:#000000;stroke-width:2;stroke-miterlimit:10;" d="M10,11v6.027C10,18.117,10.883,19,11.973,19H16"/>
<path style="fill:none;stroke:#000000;stroke-width:2;stroke-miterlimit:10;" d="M16,19h-1.018C13.887,19,13,18.113,13,17.018V10"/>
</svg>
