<?xml version="1.0" encoding="iso-8859-1"?>
<!-- Generator: Adobe Illustrator 19.1.1, SVG Export Plug-In . SVG Version: 6.00 Build 0)  -->
<svg version="1.1" id="Layer_1" xmlns="http://www.w3.org/2000/svg" xmlns:xlink="http://www.w3.org/1999/xlink" x="0px" y="0px"
	 viewBox="0 0 32 32" style="enable-background:new 0 0 32 32;" xml:space="preserve">
<path d="M29,19.123c0,2.085-0.843,7.453-5.412,7.453c-4.351,0-5.935-3.844-5.634-5.235c0.249,0.423,1.041,2.617,5.323,2.617
	c4.392,0,4.436-4.88,4.436-4.88s-0.072-3.46-2.75-3.46c-3.262,0-3.372,5.19-6.654,5.19c-1.646,0-2.196-0.871-2.529-1.109
	C16.487,21.896,15.651,27,10.279,27c-7.674,0-7.275-8.277-7.275-8.277s1.287,5.102,7.142,5.102c3.569,0,4.037-2.041,4.037-2.972
	c0-0.932-0.71-2.573-3.904-2.573l-0.7-3.314c0,0,0.946,0.308,2.112,0.308c1.54,0,1.892-1.027,1.892-1.87
	c0-0.843-0.824-1.694-2.332-1.694c-2.336,0-4.21,2.4-4.21,2.4l-1.819-3.372c0,0,1.689-2.175,5.105-2.175s4.965,2.796,4.965,4.437
	s-0.763,2.999-2.218,3.771c1.961,0.922,1.367,1.597,2.617,1.597c2.072,0,2.351-1.694,3.326-3.227
	c0.898-1.412,2.173-2.673,4.438-2.673C27.98,12.468,29,17.038,29,19.123z M20.172,11.98c2.299,0,4.081-1.331,4.081-1.331
	l-1.908-3.372c0,0-1.331,1.863-3.904,1.863s-4.702-2.35-4.702-2.35S14.715,11.98,20.172,11.98z M20.527,6.613l-1.908-2.041
	L16.49,6.435l1.908,2.174L20.527,6.613z"/>
</svg>
