<?xml version="1.0" encoding="iso-8859-1"?>
<!-- Generator: Adobe Illustrator 19.1.1, SVG Export Plug-In . SVG Version: 6.00 Build 0)  -->
<svg version="1.1" id="Layer_1" xmlns="http://www.w3.org/2000/svg" xmlns:xlink="http://www.w3.org/1999/xlink" x="0px" y="0px"
	 viewBox="0 0 32 32" style="enable-background:new 0 0 32 32;" xml:space="preserve">
<path style="fill:none;stroke:#000000;stroke-width:2;stroke-miterlimit:10;" d="M22.25,23.875C20.955,24.64,19.625,25,17,25
	c-4.939-0.001-9-3.817-9-9s4.061-9,9-9c2.25,0,3.94,0.348,5.219,1.059"/>
<path style="fill:none;stroke:#000000;stroke-width:2;stroke-miterlimit:10;" d="M22.333,8.125C20.477,6.374,17.917,5,14.511,5
	C8.721,4.999,4.028,9.924,4.028,16c0,6.075,4.694,11,10.483,11c3.614,0,5.882-1.374,7.739-3.125"/>
<path style="fill:none;stroke:#000000;stroke-width:2;stroke-miterlimit:10;" d="M22.219,8.059c0.039,0.021,0.077,0.043,0.115,0.066
	"/>
<polygon points="25.57,14.82 25.583,11 23.451,14.082 20.021,12.889 22.133,15.987 20,19.069 23.438,17.902 25.549,21 25.562,17.18 
	29,16.013 "/>
</svg>
