<?xml version="1.0" encoding="iso-8859-1"?>
<!-- Generator: Adobe Illustrator 19.1.1, SVG Export Plug-In . SVG Version: 6.00 Build 0)  -->
<svg version="1.1" id="Layer_1" xmlns="http://www.w3.org/2000/svg" xmlns:xlink="http://www.w3.org/1999/xlink" x="0px" y="0px"
	 viewBox="0 0 32 32" style="enable-background:new 0 0 32 32;" xml:space="preserve">
<rect x="9.429" y="10.55" transform="matrix(-0.7071 -0.7071 0.7071 -0.7071 17.2071 38.1274)" style="fill:none;stroke:#000000;stroke-width:2;stroke-miterlimit:10;" width="14.142" height="9.899"/>
<rect x="21.086" y="15.136" transform="matrix(0.7071 0.7071 -0.7071 0.7071 21.7929 -9.6127)" style="fill:none;stroke:#000000;stroke-width:2;stroke-miterlimit:10;" width="2.828" height="12.728"/>
<rect x="9.086" y="3.136" transform="matrix(0.7071 0.7071 -0.7071 0.7071 9.7929 -4.6421)" style="fill:none;stroke:#000000;stroke-width:2;stroke-miterlimit:10;" width="2.828" height="12.728"/>
<rect x="4.55" y="21.086" transform="matrix(0.7071 -0.7071 0.7071 0.7071 -13.1274 13.3076)" style="fill:none;stroke:#000000;stroke-width:2;stroke-miterlimit:10;" width="9.899" height="2.828"/>
<line style="fill:none;stroke:#000000;stroke-width:2;stroke-miterlimit:10;" x1="3.706" y1="23.706" x2="8.276" y2="28.276"/>
<polygon points="14,14 16,16 14,17 19,17 17,15 20,15 18,13 "/>
</svg>
