<?xml version="1.0" encoding="iso-8859-1"?>
<!-- Generator: Adobe Illustrator 19.1.1, SVG Export Plug-In . SVG Version: 6.00 Build 0)  -->
<svg version="1.1" id="Layer_1" xmlns="http://www.w3.org/2000/svg" xmlns:xlink="http://www.w3.org/1999/xlink" x="0px" y="0px"
	 viewBox="0 0 32 32" style="enable-background:new 0 0 32 32;" xml:space="preserve">
<path style="fill:none;stroke:#000000;stroke-width:2;stroke-miterlimit:10;" d="M15.751,16.243c3.45,0,6.246-2.796,6.246-6.246
	C21.997,7.237,19.76,5,17,5c-2.208,0-3.997,1.79-3.997,3.997c0,1.766,1.432,3.198,3.198,3.198c1.413,0,2.558-1.195,2.558-2.352
	c0-1.13-0.912-1.844-1.756-1.844"/>
<path d="M24.968,16.802c-2.128-0.91-4.6,0.081-5.511,2.209c-0.745,1.743,0.04,3.887,1.682,4.59c1.615,0.691,3.177-0.197,3.699-1.416
	l-1.839-0.787c-0.104,0.242-0.525,0.598-1.073,0.364c-0.563-0.241-0.969-1.17-0.63-1.964c0.477-1.114,1.771-1.633,2.885-1.157
	c1.52,0.65,2.227,2.415,1.577,3.935c-0.867,2.026-3.22,2.969-5.246,2.103c-2.624-1.122-3.73-4.224-2.262-6.615
	c1.661-2.223,4.747-3.75,4.747-8.066C22.997,6.69,20.307,4,17,4c-2.756,0-4.998,2.242-4.998,4.998c0,2.314,1.883,4.198,4.198,4.198
	c1.896,0,3.558-1.566,3.558-3.352C19.759,8.087,18.328,7,17.002,7v2c0.264,0,0.756,0.248,0.756,0.844
	c0,0.612-0.695,1.352-1.558,1.352c-1.212,0-2.198-0.986-2.198-2.198C14.002,7.345,15.347,6,17,6c2.204,0,3.997,1.793,3.997,3.997
	C20.997,12.889,18.874,15,16,15s-3.125-1-6-1c-0.196,0-0.394,0.015-0.592,0.036c-0.041,0.004-0.082,0.011-0.123,0.016
	c-0.122,0.016-0.243,0.033-0.363,0.056c-0.099,0.018-0.197,0.039-0.294,0.062c-0.063,0.015-0.122,0.031-0.183,0.047
	c-0.11,0.03-0.22,0.059-0.328,0.095c-0.008,0.003-0.016,0.006-0.024,0.009c-2.377,0.797-4.096,3.041-4.096,5.683
	C3.997,22.759,6.238,25,8.994,25c2.314,0,4.198-1.883,4.198-4.198c0-1.896-1.566-3.558-3.352-3.558
	c-1.756,0-2.844,1.431-2.844,2.756h2c0-0.264,0.248-0.756,0.844-0.756c0.612,0,1.352,0.695,1.352,1.558
	c0,1.212-0.986,2.198-2.198,2.198c-1.653,0-2.998-1.344-2.998-2.997c0-2.204,1.793-3.997,3.997-3.997
	c0.331,0,0.649,0.035,0.958,0.088c0.094,0.018,0.185,0.04,0.275,0.062c0.139,0.032,0.271,0.075,0.404,0.117
	c0.871,0.308,1.525,0.84,2.02,1.435c-0.003,0.006-0.004,0.011-0.007,0.018c1.773,2.065,0.898,6.44,6.082,8.79
	c3.012,1.365,6.571-0.115,7.872-3.155C28.681,20.828,27.502,17.885,24.968,16.802z"/>
</svg>
