<?xml version="1.0" encoding="iso-8859-1"?>
<!-- Generator: Adobe Illustrator 19.1.1, SVG Export Plug-In . SVG Version: 6.00 Build 0)  -->
<svg version="1.1" id="Layer_1" xmlns="http://www.w3.org/2000/svg" xmlns:xlink="http://www.w3.org/1999/xlink" x="0px" y="0px"
	 viewBox="0 0 32 32" style="enable-background:new 0 0 32 32;" xml:space="preserve">
<path d="M22.9,6.412c0,0,3.1-2.6,3.5-2.9s1-0.8,1.4-0.3c0.5,0.5-0.1,1-0.3,1.3c-0.3,0.3-2.2,2.3-2.4,2.5c0,0,0.7-0.1,1,0.5
	c0.3,0.5,0,1,0,1s0.4-0.1,0.7,0.4c0.3,0.5,0,1.1,0,1.1s0.2,0,0.4,0.4c0.2,0.4,0.5,1-0.9,2.3c-2.3,2.1-4.027,2.008-4.727,2.708l-3-3
	c0.8-0.8,1.427-3.908,2.127-4.608C21.1,7.012,21.9,6.412,22.9,6.412z"/>
<polygon style="fill:none;stroke:#000000;stroke-width:2;stroke-miterlimit:10;" points="11,19 18,13 21,16 15,23 "/>
<g>
	<polygon points="10.931,18.84 3,26.2 3,29 12.245,20.155 	"/>
	<polygon points="13.845,21.755 6.25,29 9.05,29 15.245,23.155 	"/>
</g>
</svg>
