<?xml version="1.0" encoding="iso-8859-1"?>
<!-- Generator: Adobe Illustrator 19.1.1, SVG Export Plug-In . SVG Version: 6.00 Build 0)  -->
<svg version="1.1" id="Layer_1" xmlns="http://www.w3.org/2000/svg" xmlns:xlink="http://www.w3.org/1999/xlink" x="0px" y="0px"
	 viewBox="0 0 32 32" style="enable-background:new 0 0 32 32;" xml:space="preserve">
<path id="XMLID_321_" style="fill:none;stroke:#000000;stroke-width:2;stroke-miterlimit:10;" d="M21,16h1.5
	c0.828,0,1.5-0.672,1.5-1.5v0c0-0.828-0.672-1.5-1.5-1.5H21v7"/>
<polygon id="XMLID_320_" points="23.688,16.018 21.688,16.018 23,20 25,20 "/>
<polyline id="XMLID_323_" style="fill:none;stroke:#000000;stroke-width:2;stroke-miterlimit:10;" points="15,20 15,13 19,13 "/>
<line id="XMLID_322_" style="fill:none;stroke:#000000;stroke-width:2;stroke-miterlimit:10;" x1="15" y1="16" x2="18" y2="16"/>
<polyline style="fill:none;stroke:#000000;stroke-width:2;stroke-miterlimit:10;" points="25,22 25,28 7,28 7,22 "/>
<polyline style="fill:none;stroke:#000000;stroke-width:2;stroke-miterlimit:10;" points="7,10 7,4 25,4 25,10 "/>
<path id="XMLID_324_" style="fill:none;stroke:#000000;stroke-width:2;stroke-miterlimit:10;" d="M10.5,16L10.5,16
	c0.828,0,1.5,0.672,1.5,1.5v0c0,0.828-0.576,1.5-1.5,1.5C9.396,19,9,18.428,9,17.619l0,0"/>
<path id="XMLID_325_" style="fill:none;stroke:#000000;stroke-width:2;stroke-miterlimit:10;" d="M10.5,16L10.5,16
	c0.828,0,1.5-0.672,1.5-1.5v0c0-0.828-0.576-1.5-1.5-1.5C9.396,13,9,13.572,9,14.381l0,0"/>
<line style="fill:none;stroke:#000000;stroke-width:2;stroke-miterlimit:10;" x1="10" y1="16" x2="11" y2="16"/>
</svg>
