<?xml version="1.0" encoding="iso-8859-1"?>
<!-- Generator: Adobe Illustrator 19.1.1, SVG Export Plug-In . SVG Version: 6.00 Build 0)  -->
<svg version="1.1" id="Layer_1" xmlns="http://www.w3.org/2000/svg" xmlns:xlink="http://www.w3.org/1999/xlink" x="0px" y="0px"
	 viewBox="0 0 32 32" style="enable-background:new 0 0 32 32;" xml:space="preserve">
<polygon style="fill:none;stroke:#000000;stroke-width:2;stroke-miterlimit:10;" points="15.938,28 12,24 24,12 28,15.938 "/>
<g>
	<polygon points="24,24.18 24,26 22.18,26 20.18,28 26,28 26,22.181 	"/>
</g>
<polygon points="5,4 5,28 11.728,28 9.759,26 7,26 7,6 24,6 24,13 26,13 26,4 "/>
<line style="fill:none;stroke:#000000;stroke-width:2;stroke-miterlimit:10;" x1="18" y1="18" x2="20" y2="20"/>
<line style="fill:none;stroke:#000000;stroke-width:2;stroke-miterlimit:10;" x1="21" y1="15" x2="23" y2="17"/>
<line style="fill:none;stroke:#000000;stroke-width:2;stroke-miterlimit:10;" x1="15" y1="21" x2="17" y2="23"/>
<circle cx="7.5" cy="8.5" r="0.5"/>
<circle cx="7.5" cy="12.5" r="0.5"/>
<circle cx="9.5" cy="14.5" r="0.5"/>
<circle cx="7.5" cy="16.5" r="0.5"/>
<circle cx="9.5" cy="18.5" r="0.5"/>
<circle cx="7.5" cy="20.5" r="0.5"/>
<circle cx="9.5" cy="8.5" r="0.5"/>
<circle cx="9.5" cy="12.5" r="0.5"/>
<circle cx="13.5" cy="14.5" r="0.5"/>
<circle cx="9.5" cy="16.5" r="0.5"/>
<circle cx="11.5" cy="16.5" r="0.5"/>
<circle cx="9.5" cy="22.5" r="0.5"/>
<circle cx="21.5" cy="6.5" r="0.5"/>
<circle cx="9.5" cy="20.5" r="0.5"/>
<circle cx="13.5" cy="8.5" r="0.5"/>
<circle cx="15.5" cy="8.5" r="0.5"/>
<circle cx="13.5" cy="10.5" r="0.5"/>
<circle cx="17.5" cy="8.5" r="0.5"/>
<circle cx="9.5" cy="6.5" r="0.5"/>
<circle cx="13.5" cy="6.5" r="0.5"/>
<circle cx="17.5" cy="6.5" r="0.5"/>
<circle cx="19.5" cy="8.5" r="0.5"/>
<circle cx="21.5" cy="8.5" r="0.5"/>
<circle cx="23.5" cy="8.5" r="0.5"/>
<circle cx="13.5" cy="12.5" r="0.5"/>
<circle cx="15.5" cy="12.5" r="0.5"/>
<circle cx="17.5" cy="10.5" r="0.5"/>
<circle cx="21.5" cy="10.5" r="0.5"/>
<circle cx="19.5" cy="12.5" r="0.5"/>
<circle cx="17.5" cy="14.5" r="0.5"/>
<circle cx="15.5" cy="16.5" r="0.5"/>
<circle cx="13.5" cy="18.5" r="0.5"/>
<circle cx="11.5" cy="20.5" r="0.5"/>
<circle cx="9.5" cy="24.5" r="0.5"/>
<circle cx="7.5" cy="24.5" r="0.5"/>
<circle cx="17.5" cy="12.5" r="0.5"/>
<circle cx="13.5" cy="16.5" r="0.5"/>
<circle cx="11.5" cy="12.5" r="0.5"/>
<circle cx="11.5" cy="8.5" r="0.5"/>
<circle cx="9.5" cy="10.5" r="0.5"/>
</svg>
