<?xml version="1.0" encoding="iso-8859-1"?>
<!-- Generator: Adobe Illustrator 19.1.1, SVG Export Plug-In . SVG Version: 6.00 Build 0)  -->
<svg version="1.1" id="Layer_1" xmlns="http://www.w3.org/2000/svg" xmlns:xlink="http://www.w3.org/1999/xlink" x="0px" y="0px"
	 viewBox="0 0 32 32" style="enable-background:new 0 0 32 32;" xml:space="preserve">
<line style="fill:none;stroke:#000000;stroke-width:2;stroke-miterlimit:10;" x1="3" y1="3" x2="29" y2="29"/>
<g>
	<polygon points="13,14.414 13,13 11.586,13 	"/>
	<polygon points="10.757,12.171 16,6.929 22.071,13 19,13 19,20 18.586,20 20.586,22 21,22 21,15 26.899,15 16,4.101 9.343,10.757 	
		"/>
	<polygon points="15.758,20 13,20 13,17.242 11,15.242 11,22 17.758,22 	"/>
	<path d="M18.758,23H11v5h10v-2.758L18.758,23z M19,26h-6v-1h6V26z"/>
	<polygon points="7.929,12.172 5.101,15 10.758,15 	"/>
</g>
</svg>
