<?xml version="1.0" encoding="iso-8859-1"?>
<!-- Generator: Adobe Illustrator 19.1.1, SVG Export Plug-In . SVG Version: 6.00 Build 0)  -->
<svg version="1.1" id="Layer_1" xmlns="http://www.w3.org/2000/svg" xmlns:xlink="http://www.w3.org/1999/xlink" x="0px" y="0px"
	 viewBox="0 0 32 32" style="enable-background:new 0 0 32 32;" xml:space="preserve">
<g>
	<path d="M13.603,13.802C13.857,14.432,14,15.159,14,16c0,3.752-2.69,5.762-8,5.98V10.021c0.9,0.04,1.813,0.142,2.687,0.327
		c0.406-0.619,0.875-1.187,1.4-1.695C8.72,8.25,7.06,8,5,8H4v16h1c9.571,0,11-5.012,11-8c0-0.916-0.16-2.294-0.901-3.65
		C14.487,12.661,13.971,13.167,13.603,13.802z"/>
</g>
<path d="M23,24c-1.762-0.085-5-1.239-5-5h2c0,2.741,2.742,2.983,3.054,3.001c2.603-0.001,2.914-1.741,2.95-2.09L28,20
	C27.893,21.434,26.715,24,23,24z"/>
<path d="M16.628,21.993C16.585,21.994,16.543,22,16.5,22c-0.166,0-0.329-0.011-0.491-0.027c-0.471,0.588-1.04,1.153-1.753,1.661
	C14.965,23.871,15.719,24,16.5,24c0.49,0,0.967-0.054,1.431-0.15C17.409,23.336,16.963,22.717,16.628,21.993z"/>
<path d="M18,13c0.022-1.738,1.095-5,5-5s4.978,3.275,5,5h-2c-0.012-0.504-0.212-3-3-3c-2.879,0-2.996,2.704-3,3.013
	C20,14.539,18,16.258,18,13z"/>
<path d="M16.5,10c0.057,0,0.112,0.007,0.168,0.009c0.293-0.661,0.693-1.299,1.205-1.869C17.427,8.052,16.97,8,16.5,8
	C12.364,8,9,11.589,9,16c0,1.181,0.247,2.299,0.68,3.309c0.818-0.324,1.35-0.731,1.691-1.16C11.135,17.481,11,16.758,11,16
	C11,12.691,13.467,10,16.5,10z"/>
<path d="M21.875,13c0,1.59,0,1.017,0,1.737C21.955,15.145,22,15.567,22,16c0,0.669-0.105,1.31-0.291,1.911
	c0.003,0.253,0.159,1.948,1.288,2.068C23.632,18.805,24,17.449,24,16c0-1.458-0.373-2.822-1.015-4C22.637,12,21.895,12,21.875,13z"
	/>
<g>
	<path d="M21.934,15.133C21.973,15.417,22,15.704,22,16c0,0.415-0.053,0.814-0.128,1.205c0.294,0.081,0.584,0.154,0.859,0.222
		c0.405,0.1,0.754,0.195,1.078,0.292C23.928,17.165,24,16.592,24,16c0-0.107-0.009-0.211-0.013-0.316
		c-0.266-0.072-0.527-0.137-0.776-0.198C22.72,15.364,22.304,15.25,21.934,15.133z"/>
	<path d="M19.965,16.466C19.981,16.311,20,16.155,20,16c0-0.288,0-2.987,0-2.987C20.004,12.704,20.121,10,23,10
		c2.788,0,2.988,2.496,3,3h2c-0.022-1.725-1.095-5-5-5s-4.978,3.262-5,5C18,14.825,18.859,15.839,19.965,16.466z"/>
	<path d="M25.978,16.443c-0.033,0.761-0.149,1.514-0.346,2.246c0.247,0.31,0.371,0.696,0.372,1.223
		c-0.036,0.349-0.347,2.088-2.95,2.09C22.742,21.983,20,21.741,20,19h-2c0,3.761,3.238,4.915,5,5c3.715,0,4.893-2.566,5-4
		C28,18.116,27.114,17.079,25.978,16.443z"/>
</g>
</svg>
