<?xml version="1.0" encoding="utf-8"?>
<!-- Generator: Adobe Illustrator 18.1.1, SVG Export Plug-In . SVG Version: 6.00 Build 0)  -->
<svg version="1.1" id="Layer_1" xmlns="http://www.w3.org/2000/svg" xmlns:xlink="http://www.w3.org/1999/xlink" x="0px" y="0px"
	 viewBox="0 0 32 32" enable-background="new 0 0 32 32" xml:space="preserve">
<polyline fill="none" stroke="#000000" stroke-width="2" stroke-miterlimit="10" points="11,18 11,27 27,27 27,20 29,17 27,17 
	27,15 22,15 "/>
<polygon fill="none" stroke="#000000" stroke-width="2" stroke-miterlimit="10" points="22,18 22,5 5,5 5,7 3,7 5,10 5,18 "/>
<path fill="none" stroke="#000000" stroke-width="2" stroke-miterlimit="10" d="M15,13h-2c-1.1,0-2-0.9-2-2v0c0-1.1,0.9-2,2-2h2v7"
	/>
<polygon points="20,17 18,17 15,24 17,24 "/>
<polygon points="18,17 20,17 23,24 21,24 "/>
<line fill="none" stroke="#000000" stroke-width="2" stroke-miterlimit="10" x1="17" y1="22" x2="21" y2="22"/>
</svg>
