<?xml version="1.0" encoding="iso-8859-1"?>
<!-- Generator: Adobe Illustrator 19.1.1, SVG Export Plug-In . SVG Version: 6.00 Build 0)  -->
<svg version="1.1" id="Layer_1" xmlns="http://www.w3.org/2000/svg" xmlns:xlink="http://www.w3.org/1999/xlink" x="0px" y="0px"
	 viewBox="0 0 32 32" style="enable-background:new 0 0 32 32;" xml:space="preserve">
<line style="fill:none;stroke:#000000;stroke-width:2;stroke-miterlimit:10;" x1="10.003" y1="21" x2="10" y2="17"/>
<path style="fill:none;stroke:#000000;stroke-width:2;stroke-miterlimit:10;" d="M18,15v-2c0-1.105,0.895-2,2-2h0
	c1.105,0,2,0.895,2,2v2"/>
<path style="fill:none;stroke:#000000;stroke-width:2;stroke-miterlimit:10;" d="M14.119,15.983L9.285,6.029
	C8.717,5.083,9.025,3.853,9.97,3.285c0.458-0.276,0.997-0.354,1.514-0.226c0.519,0.13,0.956,0.454,1.23,0.912l5.139,10.508"/>
<path style="fill:none;stroke:#000000;stroke-width:2;stroke-miterlimit:10;" d="M13.5,5.875l0.618-1.55
	c0.18-0.503,0.546-0.906,1.029-1.135c0.483-0.227,1.026-0.255,1.529-0.074c1.038,0.372,1.58,1.519,1.208,2.558L16.153,11 M22,15v-1
	c0-1.105,0.895-2,2-2h0c1.105,0,2,0.895,2,2v9c0,3.314-2.686,6-6,6h-5.285c-1.726,0-3.368-0.743-4.507-2.04l-2.371-2.698
	c-1.067-1.214-1.123-3.013-0.134-4.292L10,17l1.875-5.875"/>
</svg>
