<?xml version="1.0" encoding="iso-8859-1"?>
<!-- Generator: Adobe Illustrator 19.1.0, SVG Export Plug-In . SVG Version: 6.00 Build 0)  -->
<svg version="1.1" id="Layer_1" xmlns="http://www.w3.org/2000/svg" xmlns:xlink="http://www.w3.org/1999/xlink" x="0px" y="0px"
	 viewBox="0 0 32 32" style="enable-background:new 0 0 32 32;" xml:space="preserve">
<polyline style="fill:none;stroke:#000000;stroke-width:2;stroke-miterlimit:10;" points="19.898,13.834 23,11.18 24,6 "/>
<polyline style="fill:none;stroke:#000000;stroke-width:2;stroke-miterlimit:10;" points="20.033,15 25,15 27,11 "/>
<path style="fill:none;stroke:#000000;stroke-width:2;stroke-miterlimit:10;" d="M13.032,11.675C12.397,12.56,12,13.718,12,15
	c0,2.005,1.791,3,4,3s4-1.005,4-3c0-1.282-0.397-2.44-1.032-3.325"/>
<path style="fill:none;stroke:#000000;stroke-width:2;stroke-miterlimit:10;" d="M18,7c-0.129,0-0.255,0.018-0.378,0.048
	C17.259,6.415,16.67,6,16,6s-1.259,0.415-1.622,1.048C14.255,7.018,14.129,7,14,7c-1.105,0-2,1.119-2,2.5c0,1.381,0.895,2.5,2,2.5
	c0.67,0,1.871,0,2,0s1.33,0,2,0c1.105,0,2-1.119,2-2.5C20,8.119,19.105,7,18,7z"/>
<path style="fill:none;stroke:#000000;stroke-width:2;stroke-miterlimit:10;" d="M20.016,15C21.63,16.447,26,19.301,26,24.438
	C26,25.594,25.159,26,24.534,26C23.079,26,17,25.923,17,17.808"/>
<polyline style="fill:none;stroke:#000000;stroke-width:2;stroke-miterlimit:10;" points="12.102,13.834 9,11.18 8,6 "/>
<polyline style="fill:none;stroke:#000000;stroke-width:2;stroke-miterlimit:10;" points="11.967,15 7,15 5,11 "/>
<path style="fill:none;stroke:#000000;stroke-width:2;stroke-miterlimit:10;" d="M13.126,23.813C13.482,25.072,14.627,26,16,26
	s2.518-0.928,2.874-2.187"/>
<path style="fill:none;stroke:#000000;stroke-width:2;stroke-miterlimit:10;" d="M11.984,15C10.37,16.447,6,19.301,6,24.438
	C6,25.594,6.841,26,7.466,26C8.921,26,15,25.923,15,17.808"/>
</svg>
