<?xml version="1.0" encoding="iso-8859-1"?>
<!-- Generator: Adobe Illustrator 19.1.1, SVG Export Plug-In . SVG Version: 6.00 Build 0)  -->
<svg version="1.1" id="Layer_1" xmlns="http://www.w3.org/2000/svg" xmlns:xlink="http://www.w3.org/1999/xlink" x="0px" y="0px"
	 viewBox="0 0 32 32" style="enable-background:new 0 0 32 32;" xml:space="preserve">
<path d="M21,18.119c0,0-0.43,1.215-1.439,1.657C18.552,20.218,17,19.87,17,19.87s0.485-1.238,1.439-1.656S21,18.119,21,18.119z"/>
<path d="M11,18.119c0,0,0.43,1.215,1.439,1.657C13.448,20.218,15,19.87,15,19.87s-0.485-1.238-1.439-1.656S11,18.119,11,18.119z"/>
<path style="fill:none;stroke:#000000;stroke-width:2;stroke-miterlimit:10;" d="M22,24l6-2c0-11.982-9.379-13-12-13S4,10.064,4,22
	l6,2"/>
<path style="fill:none;stroke:#000000;stroke-width:2;stroke-miterlimit:10;" d="M16,14c0,0-7,0.091-7,5c0,3.909,2.855,9,7,9
	s7-5.041,7-9C23,14,16,14,16,14z"/>
<path style="fill:none;stroke:#000000;stroke-width:2;stroke-miterlimit:10;" d="M9,11v-1c0-3.314,3.134-6,7-6s7,2.686,7,6v1"/>
<line style="fill:none;stroke:#000000;stroke-width:2;stroke-miterlimit:10;" x1="4" y1="6" x2="9" y2="8"/>
<line style="fill:none;stroke:#000000;stroke-width:2;stroke-miterlimit:10;" x1="28" y1="6" x2="23" y2="8"/>
</svg>
