<?xml version="1.0" encoding="iso-8859-1"?>
<!-- Generator: Adobe Illustrator 19.1.0, SVG Export Plug-In . SVG Version: 6.00 Build 0)  -->
<svg version="1.1" id="Layer_1" xmlns="http://www.w3.org/2000/svg" xmlns:xlink="http://www.w3.org/1999/xlink" x="0px" y="0px"
	 viewBox="0 0 32 32" style="enable-background:new 0 0 32 32;" xml:space="preserve">
<rect x="3" y="6" style="fill:none;stroke:#000000;stroke-width:2;stroke-miterlimit:10;" width="26" height="16"/>
<line style="fill:none;stroke:#000000;stroke-width:2;stroke-miterlimit:10;" x1="16" y1="22" x2="16" y2="26"/>
<line style="fill:none;stroke:#000000;stroke-width:2;stroke-miterlimit:10;" x1="10" y1="26" x2="22" y2="26"/>
<ellipse cx="14.5" cy="14.25" rx="0.5" ry="0.75"/>
<ellipse cx="17.5" cy="14.25" rx="0.5" ry="0.75"/>
<path d="M20.5,17.5v-4c0-2.486-2.015-4.5-4.5-4.5s-4.5,2.014-4.5,4.5v4c0,0.828-0.672,1.5-1.5,1.5h12
	C21.172,19,20.5,18.328,20.5,17.5z M17.172,10.018c0.195-0.195,0.591-0.116,0.884,0.177s0.372,0.689,0.177,0.884
	c-0.195,0.195-0.591,0.116-0.884-0.177C17.056,10.609,16.976,10.213,17.172,10.018z M19,16.75c0,0.966-1.343,1.75-3,1.75
	s-3-0.784-3-1.75c0-0.49,0.348-0.932,0.905-1.25h-0.223c0,0-0.682-0.341-0.682-1.5c0-0.828,0.307-2,1.5-2s1.5,1.172,1.5,2
	c0-0.828,0.307-2,1.5-2s1.5,1.172,1.5,2c0,1.159-0.682,1.5-0.682,1.5h-0.223C18.652,15.818,19,16.26,19,16.75z"/>
</svg>
