<?xml version="1.0" encoding="iso-8859-1"?>
<!-- Generator: Adobe Illustrator 19.1.0, SVG Export Plug-In . SVG Version: 6.00 Build 0)  -->
<svg version="1.1" id="Layer_1" xmlns="http://www.w3.org/2000/svg" xmlns:xlink="http://www.w3.org/1999/xlink" x="0px" y="0px"
	 viewBox="0 0 32 32" style="enable-background:new 0 0 32 32;" xml:space="preserve">
<path id="XMLID_5_" d="M17,4.812V4h-2v2.527c-0.758-0.706-1.697-1.232-2.758-1.498l-0.484,1.94c1.002,0.251,1.838,0.845,2.413,1.633
	C14.558,6.987,15.599,5.625,17,4.812z"/>
<path style="fill:none;stroke:#000000;stroke-width:2;stroke-miterlimit:10;" d="M16,14v-4c0-2.209,1.796-4,4-4c1.068,0,2,0.5,2,0.5
	"/>
<line style="fill:none;stroke:#000000;stroke-width:2;stroke-miterlimit:10;" x1="16" y1="28" x2="16" y2="26"/>
<line style="fill:none;stroke:#000000;stroke-width:2;stroke-miterlimit:10;" x1="3" y1="3" x2="29" y2="29"/>
<g>
	<path d="M10.662,12.034C10.775,12.024,10.884,12,11,12c1.586,0,3.023,0.942,3.662,2.401L14.924,15h2.152l0.262-0.599
		C17.977,12.942,19.414,12,21,12c2.206,0,4,1.794,4,4c0,1.96-1.56,2.932-4.105,4.354c-0.4,0.223-0.809,0.454-1.218,0.695
		l1.463,1.463c0.243-0.139,0.487-0.275,0.731-0.411C24.393,20.69,27,19.233,27,16c0-3.309-2.691-6-6-6c-2.032,0-3.901,1.029-5,2.69
		C14.901,11.029,13.032,10,11,10c-0.708,0-1.385,0.13-2.016,0.356L10.662,12.034z"/>
	<path d="M17.974,22.174c-0.75,0.565-1.446,1.208-2.003,1.992c-1.25-1.653-3.109-2.723-4.791-3.689C8.588,18.986,7,17.973,7,16
		c0-1.307,0.639-2.459,1.611-3.189l-1.433-1.433C5.849,12.48,5,14.142,5,16c0,3.229,2.635,4.745,5.183,6.21
		c1.946,1.12,3.96,2.278,4.803,4.192L15.248,27h1.528l0.252-0.629c0.463-1.158,1.342-2.024,2.377-2.766L17.974,22.174z"/>
</g>
</svg>
