<?xml version="1.0" encoding="iso-8859-1"?>
<!-- Generator: Adobe Illustrator 19.1.0, SVG Export Plug-In . SVG Version: 6.00 Build 0)  -->
<svg version="1.1" id="Layer_1" xmlns="http://www.w3.org/2000/svg" xmlns:xlink="http://www.w3.org/1999/xlink" x="0px" y="0px"
	 viewBox="0 0 32 32" style="enable-background:new 0 0 32 32;" xml:space="preserve">
<line style="fill:none;stroke:#000000;stroke-width:2;stroke-miterlimit:10;" x1="12.5" y1="6" x2="19.5" y2="6"/>
<rect x="14" y="3" width="4" height="3"/>
<line style="fill:none;stroke:#000000;stroke-width:2;stroke-miterlimit:10;" x1="8.25" y1="19" x2="23.75" y2="19"/>
<path style="fill:none;stroke:#000000;stroke-width:2;stroke-miterlimit:10;" d="M22.718,16.972C22.812,16.981,22.904,17,23,17
	c1.657,0,3-1.343,3-3s-1.343-3-3-3c-1.401,0-2.569,0.965-2.898,2.264"/>
<path style="fill:none;stroke:#000000;stroke-width:2;stroke-miterlimit:10;" d="M19,10.5V6h-6c0,0,0,1.654,0,4.5s-5,6.154-5,10.184
	S10.885,27,10.885,27h10.231c0,0,2.885-2.384,2.885-6.316S19,13.4,19,10.5z"/>
</svg>
