<?xml version="1.0" encoding="iso-8859-1"?>
<!-- Generator: Adobe Illustrator 19.1.1, SVG Export Plug-In . SVG Version: 6.00 Build 0)  -->
<svg version="1.1" id="Layer_1" xmlns="http://www.w3.org/2000/svg" xmlns:xlink="http://www.w3.org/1999/xlink" x="0px" y="0px"
	 viewBox="0 0 32 32" style="enable-background:new 0 0 32 32;" xml:space="preserve">
<path d="M14.014,5.038c0,0,0.728-1.786,2.832-1.786c3.216,0,3.282,2.951,3.282,2.951S18.725,4.39,16.409,4.39
	C15.059,4.39,14.014,5.038,14.014,5.038z"/>
<path d="M16.122,9.087c-0.342,0-0.668,0.063-0.966,0.177c0.447,0.164,0.763,0.571,0.763,1.048c0,0.622-0.538,1.126-1.202,1.126
	c-0.45,0-0.841-0.232-1.047-0.575c-0.047,0.179-0.073,0.366-0.073,0.558c0,1.289,1.13,2.335,2.524,2.335
	c1.394,0,2.524-1.045,2.524-2.335C18.646,10.132,17.516,9.087,16.122,9.087z"/>
<path d="M14.871,5.526c-3.104,0-4.72,0.496-4.72,0.496s1.638,0.28,2.802,0.798c-4.332,0.604-6.423,3.212-6.423,3.212
	s1.595-0.28,2.177-0.216c-1.509,0.862-2.242,2.112-2.242,2.112s1.164-0.474,1.595-0.56c-0.841,1.401-1.035,3.729-1.035,3.729
	S7.98,15.14,8.24,15.705c0.479,0.146,0.898,0.811,1.529,0.778c0.299,1.35,1.477,1.935,1.935,1.935c0.479,0,0.559-0.459,0.598-0.718
	c0.299,0.525,1.184,0.559,1.769,0.559c2.208,0,2.161-0.525,2.2-0.748c0,0,0.366,0.194,1.336,0.194c1.918,0,2.005-0.453,2.005-0.453
	s0.194,1.207,0.754,1.207c1.207,0,1.746-1.961,1.746-1.961l0.625,0.022c0,0,0.323-0.56,1.013-0.798
	c0.366-0.56,1.229-0.604,1.229-0.604S25.325,5.526,14.871,5.526z M11.985,16.697c-0.021,0.266-0.085,0.786-0.085,0.839
	c0,0.053-0.064,0.298-0.255,0.298c-0.213,0-1.392-0.383-1.392-2.061c0-0.308,0.074-0.691,0.074-0.691l1.796-0.096
	C12.123,14.986,12.006,16.431,11.985,16.697z M15.629,17.218c-0.023,0.331,0.138,0.489-1.371,0.489
	c-1.562,0-1.583-0.074-1.583-1.264c0-1.19,0.106-1.445,0.106-1.445s2.571,0,2.795-0.032c0,0,0.085,0.776,0.085,1.519
	S15.672,16.601,15.629,17.218z M19.094,16.699c-0.026,0.203-0.045,0.406-0.51,0.406c-0.554,0-0.47,0.046-0.839,0.046
	c-0.369,0-1.327,0.016-1.383-0.489c-0.062-0.556-0.111-1.706-0.111-1.706s1.042-0.018,1.503-0.018c0.461,0,1.3,0.028,1.3,0.028
	s0.06,0.492,0.06,0.999C19.114,16.245,19.114,16.541,19.094,16.699z M16.048,13.971c-2.055,0-3.721-1.666-3.721-3.721
	s1.666-3.721,3.721-3.721s3.721,1.666,3.721,3.721S18.103,13.971,16.048,13.971z M20.345,17.88c-0.35,0-0.35-1.205-0.396-1.706
	c-0.055-0.599-0.194-1.208-0.194-1.208s1.77,0.055,1.918,0.083C21.673,15.594,21.359,17.88,20.345,17.88z"/>
<path d="M25.766,15.099c0.572,0,0.851,0.798,0.851,0.798s1.263,0.399,1.263,1.742c0,1.549-1.381,2.3-2.274,2.3
	c-0.824,0-1.09-0.465-1.09-0.465s-0.731-0.133-0.731-0.505c0-0.279,0.293-0.372,0.293-0.372l-0.04-0.16c0,0-0.633-0.115-0.633-0.642
	c0-0.346,0.361-0.592,0.361-0.592s-0.39-0.192-0.39-0.447c0-0.238,0.309-0.599,0.722-0.599c0.253-0.498,0.698-0.539,1.097-0.539
	C25.221,15.445,25.433,15.099,25.766,15.099z"/>
<path d="M30,22.576c0-0.085-0.047-0.123-0.17-0.123c-0.075,0-0.187,0.035-0.264,0.062c-0.137-0.236-0.311-0.47-0.519-0.689
	c0.014-0.103,0.028-0.218,0.028-0.27c0-0.104-0.019-0.283-0.189-0.283c-0.1,0-0.239,0.062-0.337,0.113
	c-0.237-0.176-0.503-0.33-0.794-0.452c-0.008-0.199-0.065-0.529-0.342-0.529c-0.22,0-0.421,0.179-0.52,0.284
	c-0.196-0.031-0.401-0.048-0.613-0.048c-0.821,0-2.188,1.926-2.188,4.05c0,1.777,1.882,2.058,2.15,2.058
	c1.86,0,3.691-1.897,3.691-3.049c0-0.182-0.034-0.382-0.1-0.59C29.918,22.915,30,22.638,30,22.576z M26.309,26.427
	c-0.774,0-1.916-0.604-1.916-1.624c0-0.529,0.689-2.851,1.926-2.851c1.312,0,2.926,1.322,2.926,2.568
	C29.245,25.04,27.461,26.427,26.309,26.427z"/>
<path d="M25.384,23.444c0-0.217,0.189-1.086,0.887-1.086s2.502,1.199,2.502,2.067c0,0.755-0.982,0.84-1.123,0.84
	C27.159,25.266,25.384,24.426,25.384,23.444z"/>
<path d="M24.78,25.021c0,0,0.047-0.632,0.415-0.632s1.492,0.765,1.492,1.208s-0.595,0.51-0.765,0.51S24.78,25.7,24.78,25.021z"/>
<path d="M6.234,15.099c-0.572,0-0.851,0.798-0.851,0.798S4.12,16.296,4.12,17.639c0,1.549,1.381,2.3,2.274,2.3
	c0.824,0,1.09-0.465,1.09-0.465s0.731-0.133,0.731-0.505c0-0.279-0.293-0.372-0.293-0.372l0.04-0.16c0,0,0.633-0.115,0.633-0.642
	c0-0.346-0.361-0.592-0.361-0.592s0.39-0.192,0.39-0.447c0-0.238-0.309-0.599-0.722-0.599c-0.253-0.498-0.698-0.539-1.097-0.539
	C6.779,15.445,6.567,15.099,6.234,15.099z"/>
<path d="M2.166,23.109c-0.066,0.208-0.1,0.408-0.1,0.59c0,1.152,1.831,3.049,3.691,3.049c0.268,0,2.15-0.281,2.15-2.058
	c0-2.124-1.366-4.05-2.188-4.05c-0.212,0-0.417,0.017-0.613,0.048c-0.099-0.105-0.3-0.284-0.52-0.284
	c-0.276,0-0.334,0.33-0.342,0.529c-0.291,0.122-0.557,0.276-0.794,0.452c-0.098-0.051-0.237-0.113-0.337-0.113
	c-0.17,0-0.189,0.179-0.189,0.283c0,0.052,0.014,0.168,0.028,0.27c-0.208,0.219-0.382,0.453-0.519,0.689
	c-0.077-0.027-0.19-0.062-0.264-0.062c-0.123,0-0.17,0.038-0.17,0.123C2,22.638,2.082,22.915,2.166,23.109z M2.755,24.52
	c0-1.246,1.614-2.568,2.926-2.568c1.237,0,1.926,2.322,1.926,2.851c0,1.02-1.142,1.624-1.916,1.624
	C4.539,26.427,2.755,25.04,2.755,24.52z"/>
<path d="M6.616,23.444c0-0.217-0.189-1.086-0.887-1.086s-2.502,1.199-2.502,2.067c0,0.755,0.982,0.84,1.123,0.84
	C4.841,25.266,6.616,24.426,6.616,23.444z"/>
<path d="M7.22,25.021c0,0-0.047-0.632-0.415-0.632c-0.368,0-1.492,0.765-1.492,1.208s0.595,0.51,0.765,0.51S7.22,25.7,7.22,25.021z"
	/>
<polygon points="7.126,22.213 6.412,21.429 6.412,19.628 7.126,19.628 "/>
<polygon points="24.888,22.213 25.601,21.429 25.601,19.628 24.888,19.628 "/>
<path d="M24.116,16.918c0,0-1.79,1.654-2.833,2.539c-0.972,0.824-2.799,2.205-5.462,2.961c-0.256-0.056-3.016-1.176-4.626-2.472
	c-1.61-1.297-3.275-3.01-3.275-3.01l0.066,1.043c0,0,1.888,1.756,2.826,2.535c1.071,0.89,4.014,2.469,5.017,2.641
	c1.413-0.409,3.446-1.32,5.242-2.654c1.492-1.108,3.357-2.956,3.357-2.956L24.116,16.918z"/>
<path d="M24.218,24.493c-1.684-1.221-5.916-2.568-5.916-2.568l-2.526,0.779c0,0-0.716-0.211-2.421-0.758
	c-2.821,0.863-5.579,2.526-5.579,2.526l-0.189,1.116c0,0,5.663,0.168,8.295,0.168s8.526-0.189,8.526-0.189
	S24.281,25.272,24.218,24.493z M16.007,25.083c-3.242,0-7.474-0.168-7.474-0.168c1.853-1.242,5.579-2.547,5.579-2.547l1.726,0.505
	l1.853-0.611c0,0,2.253,0.821,3.158,1.221c0.905,0.4,2.695,1.453,2.695,1.453S19.249,25.083,16.007,25.083z"/>
<path d="M21.974,16.509c0,0,1.164,0.04,1.629,0.111c0.466,0.071,0.759-0.577,0.759-0.577s-1.488-0.142-1.589-0.142
	S21.974,16.509,21.974,16.509z"/>
<polygon points="9.871,16.478 8.11,16.66 7.665,16.023 9.132,15.841 "/>
<path d="M26.707,8.991c-0.646,0-0.782,0.391-0.833,1.087c-0.051,0.697-0.336,0.676-1.037,0.739c-0.372,0.034-1.019-0.06-1.019-0.06
	s-0.238,1.903,0.951,4.231c3.126,0,3.483-1.478,3.483-3.16C28.253,10.401,27.353,8.991,26.707,8.991z M25.55,14.428L24.87,14.47
	l-0.711-3.132h0.733c0,0,0.764,0.913,0.764,1.805C25.656,14.035,25.55,14.428,25.55,14.428z M25.953,14.343
	c0,0,0.074-0.011,0.074-1.062c0-1.051-0.658-2.007-0.658-2.007c0.435-0.032,0.563-0.17,0.679-0.265
	c0.934,0.329,1.37,1.285,1.444,2.399C27.185,14.152,25.953,14.343,25.953,14.343z M26.261,10.659c0,0,0.085-0.234,0.096-0.382
	c0.011-0.149,0-0.573,0.234-0.573c0.234,0,1.178,0.425,1.178,2.739C27.609,12.113,27.376,11.211,26.261,10.659z"/>
<path d="M3.817,11.829c0,1.682,0.357,3.16,3.483,3.16c1.189-2.328,0.951-4.231,0.951-4.231s-0.647,0.094-1.019,0.06
	c-0.701-0.064-0.986-0.043-1.037-0.739C6.145,9.382,6.009,8.991,5.363,8.991S3.817,10.401,3.817,11.829z M6.415,13.143
	c0-0.892,0.764-1.805,0.764-1.805h0.733L7.201,14.47l-0.679-0.042C6.521,14.428,6.415,14.035,6.415,13.143z M4.578,13.408
	c0.074-1.115,0.51-2.07,1.444-2.399c0.117,0.096,0.244,0.234,0.679,0.265c0,0-0.658,0.956-0.658,2.007
	c0,1.051,0.074,1.062,0.074,1.062S4.886,14.152,4.578,13.408z M4.302,12.442c0-2.315,0.945-2.739,1.178-2.739
	c0.234,0,0.223,0.425,0.234,0.573s0.096,0.382,0.096,0.382C4.695,11.211,4.462,12.113,4.302,12.442z"/>
</svg>
