<?xml version="1.0" encoding="iso-8859-1"?>
<!-- Generator: Adobe Illustrator 21.0.2, SVG Export Plug-In . SVG Version: 6.00 Build 0)  -->
<svg version="1.1" id="Layer_1" xmlns="http://www.w3.org/2000/svg" xmlns:xlink="http://www.w3.org/1999/xlink" x="0px" y="0px"
	 viewBox="0 0 32 32" style="enable-background:new 0 0 32 32;" xml:space="preserve">
<polygon style="fill:none;stroke:#000000;stroke-width:2;stroke-miterlimit:10;" points="27,6 5,6 5,24 9,24 9,28 14,24 27,24 "/>
<polygon points="13,10 14,13 11,12 10,10 11,9 "/>
<path d="M21.7,10.714l-2.114,2.114l-1.414-1.414L20.286,9.3C19.895,9.113,19.462,9,19,9c-1.657,0-3,1.343-3,3
	c0,0.289,0.054,0.562,0.13,0.827l-5.691,5.613c-0.586,0.586-0.586,1.536,0,2.121c0.586,0.586,1.536,0.586,2.121,0l5.625-5.687
	C18.446,14.948,18.716,15,19,15c1.657,0,3-1.343,3-3C22,11.538,21.887,11.105,21.7,10.714z"/>
<polygon points="14.767,12.767 12,10 11,11 13.76,13.76 "/>
<path d="M19.066,15.993C19.044,15.994,19.023,16,19,16c-0.161,0-0.322-0.011-0.487-0.034l-1.803,1.823l2.73,2.772
	c0.586,0.586,1.536,0.586,2.121,0c0.586-0.586,0.586-1.536,0-2.121L19.066,15.993z"/>
</svg>
