<?xml version="1.0" encoding="iso-8859-1"?>
<!-- Generator: Adobe Illustrator 19.1.1, SVG Export Plug-In . SVG Version: 6.00 Build 0)  -->
<svg version="1.1" id="Layer_1" xmlns="http://www.w3.org/2000/svg" xmlns:xlink="http://www.w3.org/1999/xlink" x="0px" y="0px"
	 viewBox="0 0 32 32" style="enable-background:new 0 0 32 32;" xml:space="preserve">
<path d="M15,17c0,1.105-0.895,2-2,2s-3.014-1.976-3.014-3.081L15,17z"/>
<path d="M21.998,15.919C21.998,17.024,20.105,19,19,19s-2-0.895-2-2L21.998,15.919z"/>
<path style="fill:none;stroke:#000000;stroke-width:2;stroke-miterlimit:10;" d="M14.241,4C10.809,4,8,6.808,8,10.241L8,15l-2-1
	c0,0-0.081,6,3,6c0,4.047,4.9,8,7,8s7-4,7-8.047c2.975,0,3-5.953,3-5.953l-2,1l0-4.759C24,6.808,21.192,4,17.759,4H14.241z"/>
<path style="fill:none;stroke:#000000;stroke-width:2;stroke-miterlimit:10;" d="M8,11c0,0,0.05-4,4-4c2.825,0,4,4,4,4h0.035
	c0,0,1.14-4,3.965-4c4.029,0,4,4,4,4"/>
<line style="fill:none;stroke:#000000;stroke-width:2;stroke-miterlimit:10;" x1="12" y1="22" x2="20" y2="22"/>
<polygon points="14,22 14,25 16,22 18,25 18,22 "/>
</svg>
