<?xml version="1.0" encoding="iso-8859-1"?>
<!-- Generator: Adobe Illustrator 19.1.1, SVG Export Plug-In . SVG Version: 6.00 Build 0)  -->
<svg version="1.1" id="Layer_1" xmlns="http://www.w3.org/2000/svg" xmlns:xlink="http://www.w3.org/1999/xlink" x="0px" y="0px"
	 viewBox="0 0 32 32" style="enable-background:new 0 0 32 32;" xml:space="preserve">
<line style="fill:none;stroke:#000000;stroke-width:2;stroke-miterlimit:10;" x1="16" y1="30" x2="16" y2="20"/>
<polyline style="fill:none;stroke:#000000;stroke-width:2;stroke-miterlimit:10;" points="20,26 16,30.485 12,26 "/>
<line style="fill:none;stroke:#000000;stroke-width:2;stroke-miterlimit:10;" x1="16" y1="16" x2="16" y2="8"/>
<path d="M16,0c-2.757,0-5,2.243-5,5v2c0,2.045,1.237,3.802,3,4.576V9.22C13.391,8.67,13,7.883,13,7V5c0-1.654,1.346-3,3-3
	s3,1.346,3,3v2c0,0.883-0.391,1.67-1,2.22v2.356c1.763-0.774,3-2.531,3-4.576V5C21,2.243,18.757,0,16,0z"/>
<g>
	<path d="M14,21.22c-0.609-0.549-1-1.337-1-2.22v-2c0-0.883,0.391-1.67,1-2.22v-2.356c-1.763,0.774-3,2.531-3,4.576v2
		c0,2.045,1.237,3.802,3,4.576V21.22z"/>
	<path d="M18,12.424v2.356c0.609,0.549,1,1.337,1,2.22v2c0,0.883-0.391,1.67-1,2.22v2.356c1.763-0.774,3-2.531,3-4.576v-2
		C21,14.955,19.763,13.198,18,12.424z"/>
</g>
</svg>
