<?xml version="1.0" encoding="iso-8859-1"?>
<!-- Generator: Adobe Illustrator 19.1.1, SVG Export Plug-In . SVG Version: 6.00 Build 0)  -->
<svg version="1.1" id="Layer_1" xmlns="http://www.w3.org/2000/svg" xmlns:xlink="http://www.w3.org/1999/xlink" x="0px" y="0px"
	 viewBox="0 0 32 32" style="enable-background:new 0 0 32 32;" xml:space="preserve">
<line style="fill:none;stroke:#000000;stroke-width:2;stroke-miterlimit:10;" x1="10" y1="13" x2="23" y2="13"/>
<line style="fill:none;stroke:#000000;stroke-width:2;stroke-miterlimit:10;" x1="13" y1="16" x2="20" y2="16"/>
<polyline style="fill:none;stroke:#000000;stroke-width:2;stroke-miterlimit:10;" points="6,19 2,19 2,10 6,10 "/>
<circle style="fill:none;stroke:#000000;stroke-width:2;stroke-linecap:round;stroke-linejoin:round;stroke-miterlimit:10;" cx="16" cy="15" r="11"/>
<g>
	<path d="M27.521,9c0.334,0.638,0.618,1.306,0.843,2H29v7h-0.363c-0.163,0.688-0.371,1.359-0.64,2H31V9H27.521z"/>
</g>
<line style="fill:none;stroke:#000000;stroke-width:2;stroke-miterlimit:10;" x1="8.214" y1="22.786" x2="2.765" y2="28.235"/>
<rect x="23" y="9" width="3" height="1"/>
<rect x="20" y="9" width="2" height="1"/>
<rect x="17" y="9" width="2" height="1"/>
<rect x="14" y="9" width="2" height="1"/>
<rect x="11" y="9" width="2" height="1"/>
<rect x="23" y="19" width="3" height="1"/>
<rect x="20" y="19" width="2" height="1"/>
<rect x="17" y="19" width="2" height="1"/>
<rect x="14" y="19" width="2" height="1"/>
<rect x="11" y="19" width="2" height="1"/>
<g>
	<path d="M10,19H8v0.104C8.159,19.413,8.33,19.714,8.522,20H10V19z"/>
	<path d="M10.356,8h13.925c-0.122-0.307-1.466-1.677-2.242-2H16C13.863,6,11.901,6.752,10.356,8z"/>
	<path d="M9.311,21c0.731,0.814,1.604,1.495,2.585,2H23c0.775-0.324,2.363-1.471,3-2H9.311z"/>
	<path d="M10,9H9.311c-0.284,0.316-0.552,0.646-0.789,1H10V9z"/>
</g>
</svg>
