<?xml version="1.0" encoding="iso-8859-1"?>
<!-- Generator: Adobe Illustrator 19.1.0, SVG Export Plug-In . SVG Version: 6.00 Build 0)  -->
<svg version="1.1" id="Layer_1" xmlns="http://www.w3.org/2000/svg" xmlns:xlink="http://www.w3.org/1999/xlink" x="0px" y="0px"
	 viewBox="0 0 32 32" style="enable-background:new 0 0 32 32;" xml:space="preserve">
<path style="fill:none;stroke:#000000;stroke-width:2;stroke-miterlimit:10;" d="M26,26H6V8c0-1.657,1.343-3,3-3h14
	c1.657,0,3,1.343,3,3V26z"/>
<line style="fill:none;stroke:#000000;stroke-width:2;stroke-miterlimit:10;" x1="6" y1="9" x2="26" y2="9"/>
<line style="fill:none;stroke:#000000;stroke-width:2;stroke-miterlimit:10;" x1="6" y1="18" x2="26" y2="18"/>
<path d="M6,28h3l1-3H5v2C5,27.552,5.448,28,6,28z"/>
<path d="M23,28h3c0.552,0,1-0.448,1-1v-2h-5L23,28z"/>
<rect x="26" y="13" width="3" height="3"/>
<rect x="3" y="13" width="3" height="3"/>
<line style="fill:none;stroke:#000000;stroke-width:2;stroke-miterlimit:10;" x1="16" y1="18" x2="16" y2="9"/>
<rect x="20" y="21" width="4" height="2"/>
<rect x="8" y="21" width="4" height="2"/>
</svg>
