<?xml version="1.0" encoding="utf-8"?>
<!-- Generator: Adobe Illustrator 18.1.1, SVG Export Plug-In . SVG Version: 6.00 Build 0)  -->
<svg version="1.1" id="Layer_1" xmlns="http://www.w3.org/2000/svg" xmlns:xlink="http://www.w3.org/1999/xlink" x="0px" y="0px"
	 viewBox="0 0 32 32" enable-background="new 0 0 32 32" xml:space="preserve">
<polyline fill="none" stroke="#000000" stroke-width="2" stroke-miterlimit="10" points="18,9 22,5 26,9 "/>
<polyline fill="none" stroke="#000000" stroke-width="2" stroke-miterlimit="10" points="6,9 10,5 14,9 "/>
<path fill="none" stroke="#000000" stroke-width="2" stroke-linejoin="round" stroke-miterlimit="10" d="M10,28l1-2.9
	c0.6-1.9,0.3-4-1-5.6l0,0c-1.2-1.5-1.6-3.5-1.1-5.4C9.4,12.2,10,10,10,9c0-1.9,0-3.5,0-3.5"/>
<path fill="none" stroke="#000000" stroke-width="2" stroke-linejoin="round" stroke-miterlimit="10" d="M22,28l1-2.9
	c0.6-1.9,0.3-4-1-5.6l0,0c-1.2-1.5-1.6-3.5-1.1-5.4C21.4,12.2,22,10,22,9c0-1.9,0-3.5,0-3.5"/>
</svg>
