<?xml version="1.0" encoding="iso-8859-1"?>
<!-- Generator: Adobe Illustrator 19.1.0, SVG Export Plug-In . SVG Version: 6.00 Build 0)  -->
<svg version="1.1" id="Layer_1" xmlns="http://www.w3.org/2000/svg" xmlns:xlink="http://www.w3.org/1999/xlink" x="0px" y="0px"
	 viewBox="0 0 32 32" style="enable-background:new 0 0 32 32;" xml:space="preserve">
<path style="fill:none;stroke:#000000;stroke-width:2;stroke-miterlimit:10;" d="M16,7C9.925,7,4,10.42,4,16c0,5.608,5.925,9,12,9
	s12-3.36,12-9C28,10.387,22.075,7,16,7z"/>
<ellipse style="fill:none;stroke:#000000;stroke-width:2;stroke-miterlimit:10;" cx="16" cy="13.5" rx="4" ry="2.5"/>
<path style="fill:none;stroke:#000000;stroke-width:2;stroke-miterlimit:10;" d="M4.658,12.926
	c-0.673,2.316-0.669,3.851,0.134,4.174c0.866,0.349,0.816,1.115,1.927,1.886c1.023,0.71,1.74-0.054,2.569,0.269
	c0.623,0.243,2.158,1.581,3.613,1.697c1.154,0.092,2.357-0.754,3.051-0.754c0.825,0,1.607,0.862,2.757,0.62
	c0.806-0.17,1.372-0.763,2.141-0.97c0.703-0.189,1.714,0.08,2.891-0.162c1.018-0.21,0.716-0.937,1.709-1.588
	c0.743-0.486,1.406-0.31,1.911-0.708C27.886,16.977,28,16.767,28,16.168"/>
<circle cx="25" cy="13" r="1"/>
<circle cx="23" cy="16" r="1"/>
<circle cx="22" cy="9" r="1"/>
<circle cx="13" cy="8" r="1"/>
<circle cx="9" cy="12" r="1"/>
<circle cx="11" cy="17" r="1"/>
<circle cx="6" cy="15" r="1"/>
</svg>
