<?xml version="1.0" encoding="iso-8859-1"?>
<!-- Generator: Adobe Illustrator 19.1.0, SVG Export Plug-In . SVG Version: 6.00 Build 0)  -->
<svg version="1.1" id="Layer_1" xmlns="http://www.w3.org/2000/svg" xmlns:xlink="http://www.w3.org/1999/xlink" x="0px" y="0px"
	 viewBox="0 0 32 32" style="enable-background:new 0 0 32 32;" xml:space="preserve">
<polyline style="fill:none;stroke:#000000;stroke-width:2;stroke-miterlimit:10;" points="10.518,6.121 26.059,12.558 27,20.751 
	20.541,25.879 5,19.442 "/>
<path d="M14.431,12.5l-0.47,1.136l-1.77-0.732l-0.377,0.91l1.657,0.687l-0.451,1.09l-1.657-0.687l-0.439,1.06l1.837,0.761
	l-0.47,1.136l-3.226-1.336l2.208-5.331L14.431,12.5z"/>
<path d="M23.292,16.171l-0.47,1.136l-1.77-0.733l-0.377,0.91l1.657,0.687l-0.451,1.09l-1.657-0.687l-0.439,1.06l1.837,0.761
	l-0.47,1.136l-3.226-1.336l2.208-5.331L23.292,16.171z"/>
<path d="M16.899,14.503c-0.366-0.153-0.577,0.172-0.628,0.29c-0.436,1.018,2.046,1.501,1.239,3.427
	c-0.235,0.567-0.792,1.565-2.56,0.838c-0.307-0.165-1.873-0.648-1.18-2.221l0.078-0.187l1.344,0.557c0,0-0.416,0.711,0.146,0.935
	c0.145,0.058,0.495,0.115,0.661-0.329c0.41-1.094-1.964-1.435-1.178-3.321c0.247-0.538,0.763-1.604,2.437-0.942
	c1.665,0.659,1.276,1.779,1.044,2.358l-1.299-0.538C17.004,15.369,17.36,14.695,16.899,14.503z"/>
</svg>
