<?xml version="1.0" encoding="iso-8859-1"?>
<!-- Generator: Adobe Illustrator 19.1.1, SVG Export Plug-In . SVG Version: 6.00 Build 0)  -->
<svg version="1.1" id="Layer_1" xmlns="http://www.w3.org/2000/svg" xmlns:xlink="http://www.w3.org/1999/xlink" x="0px" y="0px"
	 viewBox="0 0 32 32" style="enable-background:new 0 0 32 32;" xml:space="preserve">
<path style="fill:none;stroke:#000000;stroke-width:2;stroke-linecap:square;stroke-miterlimit:10;" d="M24.4,12
	c1.586,1.54,2.6,3.895,2.6,6.534C27,23.173,23.866,27,20,27s-7-3.827-7-8.466c0-2.61,0.992-4.941,2.548-6.482"/>
<path style="fill:none;stroke:#000000;stroke-width:2;stroke-miterlimit:10;" d="M21.885,12C22.566,13.54,23,15.895,23,18.534
	c0,4.639-1.343,8.4-3,8.4s-3-3.761-3-8.4c0-2.639,0.434-4.993,1.115-6.533"/>
<line style="fill:none;stroke:#000000;stroke-width:2;stroke-miterlimit:10;" x1="13.347" y1="17" x2="26.653" y2="17"/>
<line style="fill:none;stroke:#000000;stroke-width:2;stroke-miterlimit:10;" x1="13.933" y1="22" x2="26.067" y2="22"/>
<circle style="fill:none;stroke:#000000;stroke-width:2;stroke-miterlimit:10;" cx="9" cy="11" r="4"/>
<path style="fill:none;stroke:#000000;stroke-width:2;stroke-miterlimit:10;" d="M8,23C8,6.881,16,5,16,5h9v1h-2l1,6h-8l1-6
	C17,6,8,5.268,8,23z"/>
</svg>
