<?xml version="1.0" encoding="iso-8859-1"?>
<!-- Generator: Adobe Illustrator 19.2.0, SVG Export Plug-In . SVG Version: 6.00 Build 0)  -->
<svg version="1.1" id="Layer_1" xmlns="http://www.w3.org/2000/svg" xmlns:xlink="http://www.w3.org/1999/xlink" x="0px" y="0px"
	 viewBox="0 0 32 32" style="enable-background:new 0 0 32 32;" xml:space="preserve">
<rect x="18" y="6" width="3" height="20"/>
<path style="fill:none;stroke:#000000;stroke-width:2;stroke-miterlimit:10;" d="M23,26H9c-1.105,0-2-0.895-2-2V6h18v18
	C25,25.105,24.105,26,23,26z"/>
<path d="M27,9h-2V5h2c1.105,0,2,0.895,2,2v0C29,8.105,28.105,9,27,9z"/>
<path d="M5,5h2v4H5C3.895,9,3,8.105,3,7v0C3,5.895,3.895,5,5,5z"/>
</svg>
