<?xml version="1.0" encoding="iso-8859-1"?>
<!-- Generator: Adobe Illustrator 19.1.0, SVG Export Plug-In . SVG Version: 6.00 Build 0)  -->
<svg version="1.1" id="Layer_1" xmlns="http://www.w3.org/2000/svg" xmlns:xlink="http://www.w3.org/1999/xlink" x="0px" y="0px"
	 viewBox="0 0 32 32" style="enable-background:new 0 0 32 32;" xml:space="preserve">
<path style="fill:none;stroke:#000000;stroke-width:2;stroke-miterlimit:10;" d="M18.038,6.182C13.426,7.27,10,11.243,10,15.999
	c0,4.759,3.43,8.735,8.048,9.82"/>
<path style="fill:none;stroke:#000000;stroke-width:2;stroke-miterlimit:10;" d="M21.023,7.145C16.855,8.792,14,12.132,14,15.998
	c0,3.858,2.843,7.192,6.997,8.843"/>
<path style="fill:none;stroke:#000000;stroke-width:2;stroke-miterlimit:10;" d="M25.542,19.515c-0.252-2.06-1.084-4.05-2.522-5.72
	c-1.757-2.041-4.122-3.257-6.635-3.629"/>
<path style="fill:none;stroke:#000000;stroke-width:2;stroke-miterlimit:10;" d="M23.783,21.779
	c-0.467-1.465-1.23-2.853-2.297-4.078c-1.906-2.189-4.46-3.489-7.168-3.881"/>
<path style="fill:none;stroke:#000000;stroke-width:2;stroke-miterlimit:10;" d="M17.103,22.467c0.876-0.393,1.697-0.911,2.442-1.56
	c0.896-0.78,1.621-1.694,2.176-2.705"/>
<path style="fill:none;stroke:#000000;stroke-width:2;stroke-miterlimit:10;" d="M14.851,19.136
	c0.777-0.348,1.506-0.809,2.168-1.385c0.795-0.692,1.439-1.504,1.932-2.401"/>
<line style="fill:none;stroke:#000000;stroke-width:2;stroke-miterlimit:10;" x1="22.786" y1="9.211" x2="26.214" y2="5.783"/>
<circle cx="26.2" cy="5.8" r="1.8"/>
<line style="fill:none;stroke:#000000;stroke-width:2;stroke-miterlimit:10;" x1="11.243" y1="11.24" x2="5.786" y2="5.783"/>
<circle cx="5.8" cy="5.8" r="1.8"/>
<circle style="fill:none;stroke:#000000;stroke-width:2;stroke-miterlimit:10;" cx="16" cy="16" r="10"/>
<line style="fill:none;stroke:#000000;stroke-width:2;stroke-miterlimit:10;" x1="28.001" y1="27.999" x2="23.073" y2="23.07"/>
<line style="fill:none;stroke:#000000;stroke-width:2;stroke-miterlimit:10;" x1="4" y1="27.999" x2="11.244" y2="20.754"/>
</svg>
