<?xml version="1.0" encoding="iso-8859-1"?>
<!-- Generator: Adobe Illustrator 22.1.0, SVG Export Plug-In . SVG Version: 6.00 Build 0)  -->
<svg version="1.1" id="Layer_1" xmlns="http://www.w3.org/2000/svg" xmlns:xlink="http://www.w3.org/1999/xlink" x="0px" y="0px"
	 viewBox="0 0 32 32" style="enable-background:new 0 0 32 32;" xml:space="preserve">
<path style="fill:none;stroke:#000000;stroke-width:2;stroke-miterlimit:10;" d="M21,27H11c-1.105,0-2-0.895-2-2V7
	c0-1.105,0.895-2,2-2h10c1.105,0,2,0.895,2,2v18C23,26.105,22.105,27,21,27z"/>
<circle cx="16" cy="24" r="1"/>
<line style="fill:none;stroke:#000000;stroke-width:2;stroke-miterlimit:10;" x1="16" y1="11" x2="16" y2="9"/>
<line style="fill:none;stroke:#000000;stroke-width:2;stroke-miterlimit:10;" x1="16" y1="21" x2="16" y2="19"/>
<path style="fill:none;stroke:#000000;stroke-width:2;stroke-miterlimit:10;" d="M14,17c0,1.105,0.895,2,2,2l0,0
	c1.105,0,2-0.922,2-2c0-1.967-4-1.996-4-4c0-1.087,0.895-2,2-2l0,0c1.105,0,2,0.895,2,2"/>
</svg>
