<?xml version="1.0" encoding="iso-8859-1"?>
<!-- Generator: Adobe Illustrator 19.1.0, SVG Export Plug-In . SVG Version: 6.00 Build 0)  -->
<svg version="1.1" id="Layer_1" xmlns="http://www.w3.org/2000/svg" xmlns:xlink="http://www.w3.org/1999/xlink" x="0px" y="0px"
	 viewBox="0 0 32 32" style="enable-background:new 0 0 32 32;" xml:space="preserve">
<line style="fill:none;stroke:#000000;stroke-width:2;stroke-miterlimit:10;" x1="3" y1="3" x2="29" y2="29"/>
<g>
	<path d="M10.628,12H11c0-3.309,2.691-6,6-6s6,2.691,6,6c0,3.308-2.167,6.598-3.711,8.661l1.429,1.429
		C22.412,19.857,25,16.063,25,12c0-4.411-3.589-8-8-8c-3.903,0-7.158,2.812-7.856,6.515L10.628,12z"/>
	<path d="M11.904,20v2c1.96,0,3.389-0.78,3.888-2.007l-4.634-4.634L11,15.464V16c0,1.429,1.23,1.976,2.045,2.338
		C13.795,18.671,14,18.813,14,19C14,19.687,12.914,20,11.904,20z"/>
	<path d="M18.064,22.264c-0.025,0.034-0.056,0.074-0.079,0.106c-0.315,0.432-0.578,0.874-0.832,1.302C16.318,25.073,15.768,26,14,26
		c-1.654,0-3-1.346-3-3v-1H9v1c0,2.757,2.243,5,5,5c2.905,0,3.995-1.834,4.871-3.308c0.209-0.351,0.413-0.676,0.631-0.991
		L18.064,22.264z"/>
	<path d="M17,10c1.078,0,2.08,0.583,2.612,1.523l1.74-0.987C20.465,8.972,18.797,8,17,8c-2.804,0-5,2.196-5,5
		c0,0.133-0.001,0.252-0.003,0.369l1.79,1.79C13.996,14.461,14,13.706,14,13C14,11.29,15.29,10,17,10z"/>
</g>
</svg>
