<?xml version="1.0" encoding="iso-8859-1"?>
<!-- Generator: Adobe Illustrator 19.1.1, SVG Export Plug-In . SVG Version: 6.00 Build 0)  -->
<svg version="1.1" id="Layer_1" xmlns="http://www.w3.org/2000/svg" xmlns:xlink="http://www.w3.org/1999/xlink" x="0px" y="0px"
	 viewBox="0 0 32 32" style="enable-background:new 0 0 32 32;" xml:space="preserve">
<polyline style="fill:none;stroke:#000000;stroke-width:2;stroke-miterlimit:10;" points="17,12 18,27 14,27 15,12 "/>
<path style="fill:none;stroke:#000000;stroke-width:2;stroke-miterlimit:10;" d="M16,12c0,0-8,0.25-8,8H7.924
	C4.083,10.167,14,9.208,14,9.208V9c-2.083-1.417-7-1-7-1V7.833c0,0,4.083-4.875,9-1.833c4.917-3.042,9,1.833,9,1.833V8
	c0,0-4.833-0.583-7,1v0.208c0,0,9.917,0.958,6.076,10.792H24C24,12.25,16,12,16,12z"/>
</svg>
