<?xml version="1.0" encoding="iso-8859-1"?>
<!-- Generator: Adobe Illustrator 19.1.0, SVG Export Plug-In . SVG Version: 6.00 Build 0)  -->
<svg version="1.1" id="Layer_1" xmlns="http://www.w3.org/2000/svg" xmlns:xlink="http://www.w3.org/1999/xlink" x="0px" y="0px"
	 viewBox="0 0 32 32" style="enable-background:new 0 0 32 32;" xml:space="preserve">
<path style="fill:none;stroke:#000000;stroke-width:2;stroke-miterlimit:10;" d="M9,16c0-3.866,3.134-7,7-7"/>
<path d="M6.213,18C6.076,17.341,6,16.673,6,16c0-5.514,4.486-10,10-10s10,4.486,10,10c0,0.673-0.076,1.341-0.213,2h2.034
	C27.935,17.339,28,16.672,28,16c0-6.617-5.383-12-12-12S4,9.383,4,16c0,0.672,0.065,1.339,0.178,2H6.213z"/>
<rect x="5" y="20" style="fill:none;stroke:#000000;stroke-width:2;stroke-miterlimit:10;" width="22" height="6"/>
<path d="M18.22,18c0.48-0.532,0.78-1.229,0.78-2c0-1.654-1.346-3-3-3s-3,1.346-3,3c0,0.771,0.301,1.468,0.78,2H18.22z M16,15
	c0.552,0,1,0.449,1,1s-0.448,1-1,1s-1-0.449-1-1S15.448,15,16,15z"/>
</svg>
