<?xml version="1.0" encoding="iso-8859-1"?>
<!-- Generator: Adobe Illustrator 21.1.0, SVG Export Plug-In . SVG Version: 6.00 Build 0)  -->
<svg version="1.1" id="Layer_1" xmlns="http://www.w3.org/2000/svg" xmlns:xlink="http://www.w3.org/1999/xlink" x="0px" y="0px"
	 viewBox="0 0 32 32" style="enable-background:new 0 0 32 32;" xml:space="preserve">
<path d="M10.008,11.018L10,5c3.076,0.675,5.166,5.803,5.235,7.614c-0.033,0.588-0.736,0.889-0.61,1.511c0,0,0.033,0.115,0.055,0.148
	c0.82,1.227,1.546,2.318,2.292,3.441c0.08,0.214-0.021,0.48-0.19,0.619c-0.472,0.351-1.218,0.106-1.479,0.751
	c-0.14,0.485,0.077,0.891,0.272,1.305c-0.05,0.353-0.689,0.423-0.501,0.842c0.093,0.177,0.414,0.297,0.287,0.527
	C14.475,22.297,15,23,15,23.75c0,0.209-0.007,0.419-0.125,0.625c-0.261,0.435-1.204,0.919-4.259,0.355
	C11.625,23.625,13,21.625,13,17.625C13,15.375,12.084,12.541,10.008,11.018z"/>
<path d="M18.158,8.284C21.067,9.728,23,12.236,23,15c0,2.041-1.016,3.947-2.758,5.391c0.777-1.196,0.982-2.727,0.476-4.08
	l-0.081-0.215l-0.08-0.215L20.43,15.69l-0.127-0.191L20.104,15.2l-0.036-0.054l-0.966-1.451c0.068-0.28,0.11-0.565,0.127-0.855
	l0.005-0.095l0.005-0.094l-0.004-0.095l-0.004-0.095C19.189,11.323,18.81,9.818,18.158,8.284 M13.758,5.051
	c2.195,2.279,3.411,5.796,3.475,7.487l0.004,0.095l-0.005,0.095c-0.029,0.505-0.188,0.913-0.36,1.227
	c0.543,0.813,1.052,1.579,1.567,2.353l0.198,0.298l0.127,0.191l0.081,0.215c0.375,1.001,0.046,2.181-0.8,2.871l-0.034,0.028
	l-0.036,0.026c-0.116,0.086-0.232,0.159-0.347,0.221l-0.073,0.512c-0.035,0.243-0.103,0.457-0.19,0.644
	c0.106,0.692-0.167,1.254-0.254,1.411l-0.175,0.316C16.971,23.246,17,23.485,17,23.75c0,0.127-0.005,0.338-0.043,0.59l0.105-0.037
	C21.707,22.844,25,19.233,25,15C25,9.817,20.071,5.556,13.758,5.051L13.758,5.051z"/>
<path d="M6.5,13c0.822,0,1.49,0.673,1.49,1.5S7.322,16,6.5,16C5.673,16,5,15.327,5,14.5S5.673,13,6.5,13 M6.5,11
	C4.567,11,3,12.567,3,14.5S4.567,18,6.5,18s3.49-1.567,3.49-3.5S8.433,11,6.5,11L6.5,11z"/>
<path d="M29,16c0-7.18-7-13-16.5-13c0,0-2.25,0-4.375,0.375C6.621,3.64,6.599,4.319,6.433,4.895L5,11.625
	c0.421-0.11,0.997-0.119,1.494-0.119c0.55,0,1.05,0.078,1.506,0.211V4.5C8,4.5,9.75,4,12.5,4C12.848,4,13,4,13,4
	c7.75,0,14,5.373,14,12c0,6.627-6.268,12-14,12c0,0-0.327,0-0.5,0c-1.954,0-3.669-0.297-5.375-0.875
	c-0.223,0.127-0.582,0.323-0.813,0.437C8.875,29.125,13,28.99,13,28.99c0.081,0,0.369,0,0.435,0c0.467,0,0.943-0.027,1.421-0.084
	C22.817,28.157,29,22.669,29,16z"/>
</svg>
