<?xml version="1.0" encoding="iso-8859-1"?>
<!-- Generator: Adobe Illustrator 19.2.0, SVG Export Plug-In . SVG Version: 6.00 Build 0)  -->
<svg version="1.1" id="Layer_1" xmlns="http://www.w3.org/2000/svg" xmlns:xlink="http://www.w3.org/1999/xlink" x="0px" y="0px"
	 viewBox="0 0 32 32" style="enable-background:new 0 0 32 32;" xml:space="preserve">
<polygon points="23,24.6 21.3,26.3 22.7,27.7 25,25.4 25,20 23,20 "/>
<path d="M24,18c3.308,0,6,2.692,6,6s-2.692,6-6,6s-6-2.692-6-6S20.692,18,24,18 M24,16c-4.418,0-8,3.582-8,8s3.582,8,8,8
	s8-3.582,8-8S28.418,16,24,16L24,16z"/>
<g>
	<path d="M16.069,25H13.05H13v-4h5.079c0.702-1.211,1.71-2.219,2.921-2.921V13h4v0.05v3.019c0.699,0.087,1.369,1.675,2,0.931V5l0,0
		h-1H6H5v1v20v1l0,0h12C17.744,26.369,16.156,25.699,16.069,25z M21,7h4v4h-4V7z M13,7h6v4h-6V7z M13,13h6v6h-6V13z M11,25H7v-4h4
		V25z M11,19H7v-6h4V19z M11,11H7V7h4V11z"/>
</g>
</svg>
