<?xml version="1.0" encoding="iso-8859-1"?>
<!-- Generator: Adobe Illustrator 19.1.1, SVG Export Plug-In . SVG Version: 6.00 Build 0)  -->
<svg version="1.1" id="Layer_1" xmlns="http://www.w3.org/2000/svg" xmlns:xlink="http://www.w3.org/1999/xlink" x="0px" y="0px"
	 viewBox="0 0 32 32" style="enable-background:new 0 0 32 32;" xml:space="preserve">
<path style="fill:none;stroke:#000000;stroke-width:2;stroke-linejoin:round;stroke-miterlimit:10;" d="M4,28h21
	c1.105,0,2-0.895,2-2s-0.895-2-2-2H7c-1.105,0-2-0.895-2-2s0.895-2,2-2h18c1.105,0,2-0.895,2-2s-0.895-2-2-2H7c-1.105,0-2-0.895-2-2
	s0.969-1.641,2-2l13-5"/>
<path style="fill:none;stroke:#000000;stroke-width:2;stroke-miterlimit:10;" d="M16.042,11.417l-2-5"/>
<path d="M23,6c0,0,3.288,0.2,4.057-0.107c0.769-0.308,1.143-1.181,0.836-1.95s-1.181-1.143-1.95-0.836C25.174,3.415,23,6,23,6z"/>
</svg>
