<?xml version="1.0" encoding="iso-8859-1"?>
<!-- Generator: Adobe Illustrator 19.1.1, SVG Export Plug-In . SVG Version: 6.00 Build 0)  -->
<svg version="1.1"  xmlns="http://www.w3.org/2000/svg" xmlns:xlink="http://www.w3.org/1999/xlink" x="0px" y="0px"
	 viewBox="-3 5 32 32" style="enable-background:new -3 5 32 32;" xml:space="preserve">
<g>
	<path d="M23.374,19.167c-0.033,0.027-2.668,2.104-6.169,3.094c-0.098-0.699-0.333-1.462-0.695-2.203C15.604,18.2,14.226,17,13,17
		c-0.282,0-0.551,0.058-0.801,0.173c-0.221,0.102-0.411,0.241-0.573,0.41c1.044,0.537,2.054,1.421,2.871,2.572
		c0.568,0.8,0.973,1.631,1.221,2.446c-0.332,0.056-0.669,0.097-1.009,0.127c-0.222-0.664-0.565-1.344-1.027-1.995
		C12.502,19.073,10.845,18,9.46,18c-0.494,0-0.941,0.125-1.327,0.372c-0.857,0.543-1.257,1.579-1.097,2.842
		c0.079,0.622,0.304,1.285,0.629,1.941c-1.461,0.338-2.367,1.192-2.893,1.941c-0.357,0.509-0.604,1.067-0.773,1.618
		C3.47,25.954,3,24.999,3,24c0-1.619,0.638-3.224,1.707-4.293l0.34-0.34L5.006,19H7c0-0.831,0.646-0.983,1.021-1l-0.041-2
		c-1.192,0.025-2.96,0.838-2.977,2.972l-0.009-0.083c-0.258-2.305-0.84-4.243-1.328-5.551c0.254,0.098,0.479,0.22,0.627,0.369
		L6,15.414V13c0-2.052,1.727-3.106,3.167-3.605C9.055,9.878,9,10.412,9,11v3.563l1.854-3.042C11.299,10.789,12.629,10,14,10
		c0.953,0,1.775,0.356,2.431,0.801c-0.532,0.023-1.101,0.09-1.666,0.227l-2.917,0.705l2.758,1.186
		c1.403,0.604,2.002,1.862,2.25,2.964C15.453,14.99,13.364,14,11,14v2c3.397,0,6.282,2.697,6.311,2.725l1.479,1.402l0.206-2.025
		c0.017-0.163,0.286-3.104-1.363-5.282c0.672,0.051,1.136,0.154,1.146,0.156l2.333,0.529l-1.261-2.031C19.762,11.331,17.652,8,14,8
		c-0.667,0-1.306,0.115-1.896,0.31L13.414,7H11c-1.633,0-5.757,1.086-6.772,4.415C3.215,11.053,2.198,11.006,2.033,11l-1.726-0.057
		l0.81,1.525c0.014,0.026,1.346,2.568,1.834,6.191C1.706,20.088,1,22.007,1,24c0,2.821,2.339,5.128,3.006,5.729l0.004,0.008
		l0.097,0.081c0.036,0.031,0.062,0.053,0.071,0.061l0.001-0.001l0.043,0.036c1.156,0.971,3.896,1.762,3.914,1.767l0.257,0.076
		c1.73,2.729,6.306,3.218,6.509,3.238l1.057,0.105l0.054-1.355c0.083-2.118,0.442-3.764,0.738-4.792
		c0.773-0.051,1.854-0.171,2.599-0.708c4.072-2.495,5.555-7.811,5.616-8.036l0.806-2.963L23.374,19.167z M9.206,20.06
		C9.269,20.02,9.352,20,9.46,20c0.604,0,1.718,0.663,2.591,1.891c0.842,1.185,1.024,2.203,0.924,2.713
		c-0.033,0.167-0.093,0.28-0.179,0.335C12.7,25,12.55,25.007,12.371,24.976c0.061-0.018,0.117-0.045,0.164-0.084
		c0.366-0.302,0.133-1.151-0.52-1.893c-0.653-0.743-1.478-1.099-1.843-0.796c-0.281,0.233-0.203,0.788,0.143,1.369
		c-0.125-0.144-0.248-0.297-0.366-0.462c-0.516-0.728-0.845-1.49-0.929-2.148C8.963,20.514,9.033,20.169,9.206,20.06z M11.268,24.12
		c-0.188,0.124-0.508-0.018-0.715-0.315c-0.207-0.297-0.223-0.639-0.035-0.762c0.188-0.124,0.508,0.018,0.715,0.315
		C11.441,23.656,11.456,23.997,11.268,24.12z M18.272,26.559l-0.086,0.06c-0.359,0.272-1.401,0.33-1.846,0.355
		c-0.188,0.011-0.346,0.021-0.458,0.033l-0.627,0.074l-0.203,0.598c-0.51,1.502-0.855,3.306-0.992,5.152
		c-1.415-0.31-3.443-1.021-4.099-2.358l-0.193-0.394l-1.074-0.318c-0.657-0.189-2.181-0.721-2.981-1.233
		c-0.018-0.472,0.129-1.538,0.763-2.376c0.562-0.743,1.386-1.124,2.441-1.144C10.021,26.236,11.374,27,12.539,27
		c0.493,0,0.939-0.125,1.33-0.373c0.559-0.356,0.928-0.923,1.068-1.639c0.017-0.089,0.023-0.183,0.033-0.276
		c2.699-0.252,5.136-1.262,6.886-2.206C21.094,23.927,19.929,25.556,18.272,26.559z"/>
	<path d="M9.559,27.566l0.727-0.524c0,0-1.013-0.487-2.007,0.281c-0.45,0.348-0.434,1.036-0.434,1.036s0.702-0.279,1.068-0.411
		c0.524,0,1.304,1.287,2.168,2.274c0.831,0.949,2.549,1.599,2.549,1.599c-0.018-2.179,0.651-3.83,0.651-3.83
		s-0.307,0.052-1.681,0.052C11.226,28.043,9.559,27.759,9.559,27.566z M12.596,30.4c0,0-0.708-0.125-1.281-0.878
		c-0.185-0.243-0.24-0.325-0.372-0.52c-0.063-0.093-0.165-0.578,0.084-0.548c0.433,0.054,0.791,0.514,0.791,0.514
		s0.072-0.346,0.326-0.294C12.691,28.785,12.596,30.4,12.596,30.4z"/>
</g>
</svg>
