<?xml version="1.0" encoding="iso-8859-1"?>
<!-- Generator: Adobe Illustrator 19.0.1, SVG Export Plug-In . SVG Version: 6.00 Build 0)  -->
<svg version="1.1" id="Layer_1" xmlns="http://www.w3.org/2000/svg" xmlns:xlink="http://www.w3.org/1999/xlink" x="0px" y="0px"
	 viewBox="0 0 32 32" style="enable-background:new 0 0 32 32;" xml:space="preserve">
<polygon style="fill:none;stroke:#000000;stroke-width:2;stroke-miterlimit:10;" points="14,20 14,12 21,16 "/>
<path style="fill:none;stroke:#000000;stroke-width:2;stroke-miterlimit:10;" d="M27.49,21.934
	c-0.231,1.255-1.242,2.216-2.505,2.399C22.98,24.624,19.678,25,16,25c-3.679,0-6.982-0.376-8.986-0.667
	c-1.262-0.183-2.273-1.144-2.505-2.398C4.256,20.562,4,18.545,4,16c0-2.546,0.256-4.564,0.509-5.937
	c0.231-1.254,1.241-2.214,2.503-2.398C9.009,7.374,12.3,7,16,7c3.699,0,6.989,0.374,8.986,0.665
	c1.262,0.184,2.272,1.145,2.503,2.399C27.743,11.439,28,13.461,28,16C28,18.538,27.743,20.559,27.49,21.934z"/>
</svg>
