<svg viewBox="0 0 148 80" xmlns="http://www.w3.org/2000/svg" fill-rule="evenodd" clip-rule="evenodd" stroke-linejoin="round" stroke-miterlimit="2"><path fill="none" d="M-.003 0h148v80h-148z"/><path d="M148.008 20c0-11.038-8.96-20-19.999-20H19.977c-11.038 0-20 8.962-20 20v40c0 11.038 8.962 20 20 20H128.01c11.038 0 20-8.962 20-20V20z" fill="rgb(36,71,88)"/><path d="M26.564 43.651v14.604H19.26V43.65h7.304zm0-7.302H19.26V21.745h7.304V36.35z" fill="rgb(255,160,0)"/><path d="M106.82 58.254v-7.303h7.304V43.65h7.304v-7.301h-7.304v-7.303h-7.304v-7.302h7.304v7.302h7.304v7.303h7.293v7.301h-7.293v7.302h-7.304v7.303h-7.304zm-43.812 0v-7.303h7.304V43.65h7.304v-7.301h7.303v-7.303h7.293v-7.302h7.304v7.302h-7.304v7.303H84.92v7.301h-7.303v7.302h-7.304v7.303h-7.304zm-14.597 0v-7.303h-7.304V43.65h-7.304v-7.301h7.304v-7.303h7.304v-7.302h7.293v7.302H48.41v7.303h-7.304v7.301h7.304v7.302h7.293v7.303H48.41z" fill="rgb(0,200,82)"/></svg>
