<?xml version="1.0" encoding="iso-8859-1"?>
<!-- Generator: Adobe Illustrator 19.1.1, SVG Export Plug-In . SVG Version: 6.00 Build 0)  -->
<svg version="1.1" id="Layer_1" xmlns="http://www.w3.org/2000/svg" xmlns:xlink="http://www.w3.org/1999/xlink" x="0px" y="0px"
	 viewBox="0 0 32 32" style="enable-background:new 0 0 32 32;" xml:space="preserve">
<polygon style="fill:none;stroke:#000000;stroke-width:2;stroke-miterlimit:10;" points="7,28 7,4 22.998,4 23,11.002 25,13 25,28 
	"/>
<polyline style="fill:none;stroke:#000000;stroke-width:2;stroke-miterlimit:10;" points="23,4 27,4 27,11 25,13 "/>
<path d="M20.228,17.992C20.675,17.545,21,16.768,21,16c0-1.657-1.343-3-3-3c-0.772,0-1.468,0.3-2,0.779C15.468,13.3,14.772,13,14,13
	c-1.657,0-3,1.343-3,3c0,0.768,0.32,1.541,0.772,1.992s4.228,4.2,4.228,4.2S19.781,18.439,20.228,17.992z"/>
</svg>
