<?xml version="1.0" encoding="iso-8859-1"?>
<!-- Generator: Adobe Illustrator 19.1.1, SVG Export Plug-In . SVG Version: 6.00 Build 0)  -->
<svg version="1.1" id="Layer_1" xmlns="http://www.w3.org/2000/svg" xmlns:xlink="http://www.w3.org/1999/xlink" x="0px" y="0px"
	 viewBox="0 0 32 32" style="enable-background:new 0 0 32 32;" xml:space="preserve">
<line style="fill:none;stroke:#000000;stroke-width:2;stroke-miterlimit:10;" x1="10" y1="18" x2="18" y2="10"/>
<line style="fill:none;stroke:#000000;stroke-width:2;stroke-miterlimit:10;" x1="22" y1="26" x2="22" y2="18"/>
<circle style="fill:none;stroke:#000000;stroke-width:2;stroke-miterlimit:10;" cx="22" cy="22" r="7"/>
<g>
	<path d="M14.072,10.393c-0.204-1.295,0.178-2.663,1.175-3.659l1.487-1.486C17.538,4.442,18.606,4,19.744,4
		c1.137,0,2.206,0.442,3.01,1.247c1.66,1.659,1.66,4.36,0,6.02l-0.735,0.734c0.854,0.002,1.679,0.121,2.47,0.325
		C25.464,11.193,26,9.767,26,8.257c0-1.671-0.651-3.242-1.833-4.424C22.986,2.65,21.415,2,19.744,2c-1.671,0-3.243,0.65-4.424,1.833
		l-1.487,1.486C12.651,6.501,12,8.072,12,9.743c0,0.794,0.163,1.558,0.448,2.274L14.072,10.393z"/>
	<path d="M12.001,22.019l-0.734,0.734C10.462,23.558,9.394,24,8.256,24c-1.137,0-2.206-0.442-3.01-1.247
		c-1.66-1.659-1.66-4.36,0-6.02l1.487-1.486C7.538,14.442,8.606,14,9.744,14c0.224,0,0.443,0.025,0.658,0.063l1.615-1.615
		C11.301,12.163,10.537,12,9.744,12c-1.671,0-3.243,0.65-4.424,1.833l-1.487,1.486C2.651,16.501,2,18.072,2,19.743
		s0.651,3.242,1.833,4.424C5.014,25.35,6.585,26,8.256,26c1.511,0,2.936-0.536,4.07-1.511
		C12.122,23.697,12.003,22.873,12.001,22.019z"/>
</g>
<line style="fill:none;stroke:#000000;stroke-width:2;stroke-miterlimit:10;" x1="18" y1="22" x2="26" y2="22"/>
</svg>
