<?xml version="1.0" encoding="iso-8859-1"?>
<!-- Generator: Adobe Illustrator 19.1.1, SVG Export Plug-In . SVG Version: 6.00 Build 0)  -->
<svg version="1.1" id="Layer_1" xmlns="http://www.w3.org/2000/svg" xmlns:xlink="http://www.w3.org/1999/xlink" x="0px" y="0px"
	 viewBox="0 0 32 32" style="enable-background:new 0 0 32 32;" xml:space="preserve">
<path d="M23,8c-2.678,0-4.463,1.164-5.702,2.441c0.903,1.202,1.61,2.466,2.205,3.562C20.567,12.585,21.606,12,23,12
	c2.206,0,4,1.794,4,4s-1.794,4-4,4c-2.399,0-3.482-1.779-5.189-4.925C16.099,11.923,13.968,8,9,8c-4.411,0-8,3.589-8,8s3.589,8,8,8
	c2.68,0,4.467-1.194,5.709-2.505c-0.891-1.206-1.583-2.474-2.171-3.557c-0.009-0.017-0.017-0.031-0.026-0.048
	C11.422,19.402,10.405,20,9,20c-2.206,0-4-1.794-4-4s1.794-4,4-4c2.469,0,3.566,1.801,5.295,4.983C15.992,20.109,18.104,24,23,24
	c4.411,0,8-3.589,8-8S27.411,8,23,8z"/>
</svg>
