<?xml version="1.0" encoding="iso-8859-1"?>
<!-- Generator: Adobe Illustrator 21.0.2, SVG Export Plug-In . SVG Version: 6.00 Build 0)  -->
<svg version="1.1" id="Layer_1" xmlns="http://www.w3.org/2000/svg" xmlns:xlink="http://www.w3.org/1999/xlink" x="0px" y="0px"
	 viewBox="0 0 32 32" style="enable-background:new 0 0 32 32;" xml:space="preserve">
<path d="M25,12.955V23H5V12c0-1.654,1.346-3,3-3h7.265l0.469-0.468c0.861-0.861,2.049-1.367,3.302-1.462
	c0.002-0.024,0.009-0.047,0.011-0.07H8c-2.757,0-5,2.243-5,5v13h24V12.373C26.382,12.692,25.708,12.897,25,12.955z"/>
<path style="fill:none;stroke:#000000;stroke-width:2;stroke-miterlimit:10;" d="M8,8c2.209,0,4,1.791,4,4v12"/>
<line style="fill:none;stroke:#000000;stroke-width:2;stroke-miterlimit:10;" x1="16" y1="29" x2="16" y2="24"/>
<line style="fill:none;stroke:#000000;stroke-width:2;stroke-miterlimit:10;" x1="10" y1="14" x2="6" y2="14"/>
<line style="fill:none;stroke:#000000;stroke-width:2;stroke-miterlimit:10;" x1="19" y1="13" x2="25" y2="7"/>
<path style="fill:none;stroke:#000000;stroke-width:2;stroke-miterlimit:10;" d="M21.348,10.983l-0.331-0.331
	c-0.869-0.869-2.292-0.869-3.162,0l-1.204,1.204c-0.869,0.869-0.869,2.292,0,3.162l0.331,0.331c0.869,0.869,2.292,0.869,3.162,0
	l1.204-1.204C22.217,13.275,22.217,11.852,21.348,10.983z"/>
<path style="fill:none;stroke:#000000;stroke-width:2;stroke-miterlimit:10;" d="M27.348,4.983l-0.331-0.331
	c-0.869-0.869-2.292-0.869-3.162,0l-1.204,1.204c-0.869,0.869-0.869,2.292,0,3.162l0.331,0.331c0.869,0.869,2.292,0.869,3.162,0
	l1.204-1.204C28.217,7.275,28.217,5.852,27.348,4.983z"/>
</svg>
