<?xml version="1.0" encoding="iso-8859-1"?>
<!-- Generator: Adobe Illustrator 19.1.1, SVG Export Plug-In . SVG Version: 6.00 Build 0)  -->
<svg version="1.1" id="Layer_1" xmlns="http://www.w3.org/2000/svg" xmlns:xlink="http://www.w3.org/1999/xlink" x="0px" y="0px"
	 viewBox="0 0 32 32" style="enable-background:new 0 0 32 32;" xml:space="preserve">
<rect x="8" y="14" width="2" height="2"/>
<path style="fill:none;stroke:#000000;stroke-width:2;stroke-miterlimit:10;" d="M12.678,22.264c0,0,3.596-3.264,10.322-3.264"/>
<circle cx="21.5" cy="13.5" r="1.5"/>
<circle cx="14.5" cy="13.5" r="1.5"/>
<path style="fill:none;stroke:#000000;stroke-width:2;stroke-miterlimit:10;" d="M6,8c0-3.063,3-3,3-3c2.906,0,3,3,3,3s0.094,3-3,3
	l0,2"/>
<g>
	<path d="M16,4c-0.778,0-1.537,0.081-2.274,0.223c0.441,0.565,0.774,1.201,0.999,1.868C15.143,6.037,15.567,6,16,6
		c5.514,0,10,4.486,10,10s-4.486,10-10,10S6,21.514,6,16c0-0.369,0.023-0.733,0.063-1.092V13v-2.999L5.631,9.987
		C4.601,11.758,4,13.808,4,16c0,6.617,5.383,12,12,12s12-5.383,12-12S22.617,4,16,4z"/>
</g>
</svg>
