<?xml version="1.0" encoding="iso-8859-1"?>
<!-- Generator: Adobe Illustrator 19.1.0, SVG Export Plug-In . SVG Version: 6.00 Build 0)  -->
<svg version="1.1" id="Layer_1" xmlns="http://www.w3.org/2000/svg" xmlns:xlink="http://www.w3.org/1999/xlink" x="0px" y="0px"
	 viewBox="0 0 32 32" style="enable-background:new 0 0 32 32;" xml:space="preserve">
<rect x="6" y="6" style="fill:none;stroke:#000000;stroke-width:2;stroke-miterlimit:10;" width="20" height="20"/>
<circle cx="12" cy="20" r="2"/>
<g>
	<path d="M12,14c-0.702,0-1.373,0.128-2,0.35v2.206C10.591,16.212,11.268,16,12,16c2.206,0,4,1.794,4,4c0,0.732-0.212,1.409-0.556,2
		h2.206c0.223-0.627,0.35-1.298,0.35-2C18,16.691,15.309,14,12,14z"/>
	<path d="M12,10c-0.685,0-1.354,0.07-2,0.202v2.062C10.641,12.097,11.308,12,12,12c4.411,0,8,3.589,8,8c0,0.692-0.097,1.359-0.263,2
		h2.062C21.93,21.354,22,20.685,22,20C22,14.486,17.514,10,12,10z"/>
</g>
</svg>
