<?xml version="1.0" encoding="iso-8859-1"?>
<!-- Generator: Adobe Illustrator 19.1.1, SVG Export Plug-In . SVG Version: 6.00 Build 0)  -->
<svg version="1.1" id="Layer_1" xmlns="http://www.w3.org/2000/svg" xmlns:xlink="http://www.w3.org/1999/xlink" x="0px" y="0px"
	 viewBox="0 0 32 32" style="enable-background:new 0 0 32 32;" xml:space="preserve">
<path style="fill:none;stroke:#000000;stroke-width:2;stroke-miterlimit:10;" d="M17.531,26.906C17.202,26.936,16.337,27,16,27
	C9.925,27,5,22.075,5,16S9.925,5,16,5s11,4.925,11,11c0,5.035-3.383,9.28-8,10.586"/>
<path style="fill:none;stroke:#000000;stroke-width:2;stroke-miterlimit:10;" d="M9,14c0,0,1.309,1,3,1s3-1,3-1"/>
<path style="fill:none;stroke:#000000;stroke-width:2;stroke-miterlimit:10;" d="M17,14c0,0,1.309,1,3,1s3-1,3-1"/>
<path style="fill:none;stroke:#000000;stroke-width:2;stroke-miterlimit:10;" d="M20,21c0,3.837-0.199,6-2,6s-2-2.942-2-4
	c0-1.425-0.706,1-2,1s-2-1.371-2-3c0-1.657,1.791-3,4-3S20,19.343,20,21z"/>
</svg>
