<?xml version="1.0" encoding="iso-8859-1"?>
<!-- Generator: Adobe Illustrator 19.1.1, SVG Export Plug-In . SVG Version: 6.00 Build 0)  -->
<svg version="1.1" id="Layer_1" xmlns="http://www.w3.org/2000/svg" xmlns:xlink="http://www.w3.org/1999/xlink" x="0px" y="0px"
	 viewBox="0 0 32 32" style="enable-background:new 0 0 32 32;" xml:space="preserve">
<path style="fill-rule:evenodd;clip-rule:evenodd;" d="M16.775,13.899c0.096-0.666,0.603-1.332,0.603-1.332h2.941
	c-1.133,2.883-3.664,3.775-5.062,7.95h2.411c0.626-3.259,5.037-5.718,5.013-9.133h-6.243c0,0-0.964,1.806-0.964,2.514H16.775z"/>
<path style="fill-rule:evenodd;clip-rule:evenodd;" d="M30.347,12.69C31.011,12.156,31,11.392,31,11.392h-7.701
	c0,0-0.097,0.964-0.404,1.73h4.554c0.096-0.27,0.351-0.432,0.636-0.432H30.347"/>
<path style="fill-rule:evenodd;clip-rule:evenodd;" d="M5.691,11.289C3.089,11.289,1,14.717,1,17.571c0,0.875,0.402,3.14,2.447,3.14
	c2.602,0,4.51-3.515,4.51-6.174C7.957,11.991,6.433,11.289,5.691,11.289z M2.976,19.758c-0.302,0-0.391-0.491-0.391-0.852
	c0-1.411,2.083-6.736,3.222-6.736c0.072,0,0.368,0.114,0.368,0.913C6.174,15.823,3.812,19.758,2.976,19.758z"/>
<path style="fill-rule:evenodd;clip-rule:evenodd;" d="M12.954,11.289c-2.602,0-4.691,3.428-4.691,6.282
	c0,0.875,0.402,3.14,2.447,3.14c2.602,0,4.51-3.515,4.51-6.174C15.22,11.991,13.696,11.289,12.954,11.289z M10.239,19.758
	c-0.302,0-0.391-0.491-0.391-0.852c0-1.411,2.083-6.736,3.222-6.736c0.072,0,0.368,0.114,0.368,0.913
	C13.437,15.823,11.075,19.758,10.239,19.758z"/>
<path style="fill-rule:evenodd;clip-rule:evenodd;" d="M22.65,13.591h4.378c0,0-0.309,0.533-0.744,0.533s-0.66,0.056-0.814,0.323
	c-0.154,0.267-0.702,1.137-0.884,1.46c-0.183,0.323-0.562,0.856-1.207,0.856s-2.92-0.014-2.92-0.014l0.407-0.491h2.19
	c0,0,0.59-0.07,0.814-0.379c0.225-0.309,0.744-1.446,0.744-1.446h-1.446c0,0-0.211,0.168-0.211,0.463s0.098,0.744,0.098,0.744
	s-0.663-0.702-0.663-1.179C22.392,13.909,22.65,13.591,22.65,13.591z"/>
</svg>
