<?xml version="1.0" encoding="iso-8859-1"?>
<!-- Generator: Adobe Illustrator 19.2.0, SVG Export Plug-In . SVG Version: 6.00 Build 0)  -->
<svg version="1.1" id="Layer_1" xmlns="http://www.w3.org/2000/svg" xmlns:xlink="http://www.w3.org/1999/xlink" x="0px" y="0px"
	 viewBox="0 0 32 32" style="enable-background:new 0 0 32 32;" xml:space="preserve">
<circle style="fill:none;stroke:#000000;stroke-width:3;stroke-miterlimit:10;" cx="16" cy="16" r="3.5"/>
<circle style="fill:none;stroke:#000000;stroke-miterlimit:10;" cx="16" cy="16" r="8.5"/>
<circle cx="16" cy="3.5" r="0.5"/>
<circle cx="16" cy="28.5" r="0.5"/>
<circle cx="28.5" cy="16" r="0.5"/>
<circle cx="3.5" cy="16" r="0.5"/>
<ellipse transform="matrix(0.7071 -0.7071 0.7071 0.7071 2.2114 19.6612)" cx="24.839" cy="7.161" rx="0.5" ry="0.5"/>
<ellipse transform="matrix(0.7071 -0.7071 0.7071 0.7071 -15.4663 12.3388)" cx="7.161" cy="24.839" rx="0.5" ry="0.5"/>
<ellipse transform="matrix(0.7071 -0.7071 0.7071 0.7071 -10.2886 24.8388)" cx="24.839" cy="24.839" rx="0.5" ry="0.5"/>
<ellipse transform="matrix(0.7071 -0.7071 0.7071 0.7071 -2.9663 7.1612)" cx="7.161" cy="7.161" rx="0.5" ry="0.5"/>
<ellipse transform="matrix(0.9239 -0.3827 0.3827 0.9239 -0.8497 4.6312)" cx="11.216" cy="4.452" rx="0.5" ry="0.5"/>
<ellipse transform="matrix(0.9239 -0.3827 0.3827 0.9239 -8.9603 10.0505)" cx="20.784" cy="27.548" rx="0.5" ry="0.5"/>
<ellipse transform="matrix(0.9239 -0.3827 0.3827 0.9239 -2.1953 11.3962)" cx="27.548" cy="11.216" rx="0.5" ry="0.5"/>
<ellipse transform="matrix(0.9239 -0.3827 0.3827 0.9239 -7.6147 3.2856)" cx="4.452" cy="20.784" rx="0.5" ry="0.5"/>
<ellipse transform="matrix(0.3827 -0.9239 0.9239 0.3827 8.7174 21.9495)" cx="20.784" cy="4.452" rx="0.5" ry="0.5"/>
<ellipse transform="matrix(0.3827 -0.9239 0.9239 0.3827 -18.5274 27.3688)" cx="11.216" cy="27.548" rx="0.5" ry="0.5"/>
<ellipse transform="matrix(0.3827 -0.9239 0.9239 0.3827 -2.1953 38.2815)" cx="27.548" cy="20.784" rx="0.5" ry="0.5"/>
<ellipse transform="matrix(0.3827 -0.9239 0.9239 0.3827 -7.6147 11.0368)" cx="4.452" cy="11.216" rx="0.5" ry="0.5"/>
<ellipse transform="matrix(0.9808 -0.1951 0.1951 0.9808 -0.4691 2.7176)" cx="13.561" cy="3.74" rx="0.5" ry="0.5"/>
<ellipse transform="matrix(0.9808 -0.1951 0.1951 0.9808 -5.1589 4.1402)" cx="18.439" cy="28.26" rx="0.5" ry="0.5"/>
<ellipse transform="matrix(0.9808 -0.1951 0.1951 0.9808 -2.1027 5.7738)" cx="28.26" cy="13.561" rx="0.5" ry="0.5"/>
<ellipse transform="matrix(0.9808 -0.1951 0.1951 0.9808 -3.5253 1.084)" cx="3.74" cy="18.439" rx="0.5" ry="0.5"/>
<ellipse transform="matrix(0.5556 -0.8315 0.8315 0.5556 5.5355 21.5695)" cx="22.945" cy="5.607" rx="0.5" ry="0.5"/>
<ellipse transform="matrix(0.5556 -0.8315 0.8315 0.5556 -17.9208 19.2593)" cx="9.055" cy="26.393" rx="0.5" ry="0.5"/>
<ellipse transform="matrix(0.5556 -0.8315 0.8315 0.5556 -7.3478 32.1426)" cx="26.393" cy="22.945" rx="0.5" ry="0.5"/>
<ellipse transform="matrix(0.5556 -0.8315 0.8315 0.5556 -5.0375 8.6862)" cx="5.607" cy="9.055" rx="0.5" ry="0.5"/>
<ellipse transform="matrix(0.8315 -0.5556 0.5556 0.8315 -1.5888 5.9758)" cx="9.055" cy="5.607" rx="0.5" ry="0.5"/>
<ellipse transform="matrix(0.8315 -0.5556 0.5556 0.8315 -10.7965 17.1954)" cx="22.945" cy="26.393" rx="0.5" ry="0.5"/>
<ellipse transform="matrix(0.8315 -0.5556 0.5556 0.8315 -0.5828 16.1895)" cx="26.393" cy="9.055" rx="0.5" ry="0.5"/>
<ellipse transform="matrix(0.8315 -0.5556 0.5556 0.8315 -11.8025 6.9817)" cx="5.607" cy="22.945" rx="0.5" ry="0.5"/>
<ellipse transform="matrix(0.1951 -0.9808 0.9808 0.1951 11.1731 21.0948)" cx="18.439" cy="3.74" rx="0.5" ry="0.5"/>
<ellipse transform="matrix(0.1951 -0.9808 0.9808 0.1951 -16.8011 36.0474)" cx="13.561" cy="28.26" rx="0.5" ry="0.5"/>
<ellipse transform="matrix(0.1951 -0.9808 0.9808 0.1951 4.6623 42.5582)" cx="28.26" cy="18.439" rx="0.5" ry="0.5"/>
<ellipse transform="matrix(0.1951 -0.9808 0.9808 0.1951 -10.2903 14.584)" cx="3.74" cy="13.561" rx="0.5" ry="0.5"/>
</svg>
