<?xml version="1.0" encoding="iso-8859-1"?>
<!-- Generator: Adobe Illustrator 21.0.0, SVG Export Plug-In . SVG Version: 6.00 Build 0)  -->
<svg version="1.1" 
	 xmlns="http://www.w3.org/2000/svg" xmlns:xlink="http://www.w3.org/1999/xlink" x="0px" y="0px" viewBox="0 0 32 32"
	 style="enable-background:new 0 0 32 32;" xml:space="preserve">
<line style="fill:none;stroke:#000000;stroke-width:2;stroke-linecap:square;stroke-linejoin:bevel;stroke-miterlimit:10;" x1="18" y1="19" x2="15" y2="16"/>
<line style="fill:none;stroke:#000000;stroke-width:2;stroke-linecap:square;stroke-linejoin:bevel;stroke-miterlimit:10;" x1="18" y1="16" x2="15" y2="19"/>
<path style="fill:none;stroke:#000000;stroke-width:2;stroke-miterlimit:10;" d="M15.107,22.822C15.552,22.938,16.019,23,16.5,23
	c3.038,0,5.5-2.462,5.5-5.5S19.538,12,16.5,12S11,14.462,11,17.5V24"/>
<path d="M16.5,8c-2.45,0-4.761,0.962-6.5,2.596V4h15V2H8v11.23v0.641v0.62h1.102h0.483L10,13.765C11.338,11.442,13.819,10,16.5,10
	c4.136,0,7.5,3.364,7.5,7.5S20.636,25,16.5,25c-2.845,0-5.411-1.578-6.697-4.119l-0.451-0.892l-1.785,0.903l0.452,0.893
	C9.646,25.001,12.896,27,16.5,27c5.238,0,9.5-4.262,9.5-9.5S21.738,8,16.5,8z"/>
<path style="fill:none;stroke:#000000;stroke-width:2;stroke-linecap:square;stroke-miterlimit:10;" d="M27.06,22.062
	C25.294,26.144,21.231,29,16.5,29C10.149,29,5,23.851,5,17.5"/>
<path style="fill:none;stroke:#000000;stroke-width:2;stroke-linecap:square;stroke-miterlimit:10;" d="M12.495,6.716
	C13.742,6.253,15.092,6,16.5,6c3.728,0,7.041,1.774,9.142,4.523"/>
</svg>
