<?xml version="1.0" encoding="utf-8"?>
<!-- Generator: Adobe Illustrator 18.1.1, SVG Export Plug-In . SVG Version: 6.00 Build 0)  -->
<svg version="1.1" id="Layer_1" xmlns="http://www.w3.org/2000/svg" xmlns:xlink="http://www.w3.org/1999/xlink" x="0px" y="0px"
	 viewBox="0 0 32 32" enable-background="new 0 0 32 32" xml:space="preserve">
<path fill="none" stroke="#000000" stroke-width="2" stroke-miterlimit="10" d="M22.9,18.6c-0.3-0.8-1-1.1-1.3-1.7
	c-0.3-0.6-0.1-1.3-0.4-1.9s-1-1-1.4-1.3s0-1.3-0.9-2.1c-0.9-0.9-1.7-0.7-2.1-0.8c-0.4-0.1-0.6-0.6-1.3-1.3c-0.7-0.7-1.9-0.7-2.6,0
	L10,12.3L8.4,12c-0.3-0.1-0.7,0-1,0.1l-2.2,0.8c-0.7,0.3-1.2,1-1.2,1.7c0,0,0,3.3,0,4.8s0.2,2.2,1,3.1L9,26.4c2.2,2.2,5.7,2.2,7.8,0
	l5.6-5.6C23.1,20.1,23.1,19.3,22.9,18.6z"/>
<path fill="none" stroke="#000000" stroke-width="2" stroke-miterlimit="10" d="M26.3,20c0.1-0.1,1.7-1.7,1.7-3.9c0-1-0.4-1.9-1-2.7
	c0.2-0.5,0.4-1.1,0.4-1.7c0-1.9-1.4-3.6-3.2-4c-0.4-1.8-2-3.2-4-3.2c-0.6,0-1.2,0.1-1.7,0.4c-0.7-0.6-1.7-1-2.7-1
	c-2.1,0-3.8,1.7-3.9,1.7"/>
</svg>
