<?xml version="1.0" encoding="iso-8859-1"?>
<!-- Generator: Adobe Illustrator 19.1.1, SVG Export Plug-In . SVG Version: 6.00 Build 0)  -->
<svg version="1.1" id="Layer_1" xmlns="http://www.w3.org/2000/svg" xmlns:xlink="http://www.w3.org/1999/xlink" x="0px" y="0px"
	 viewBox="0 0 32 32" style="enable-background:new 0 0 32 32;" xml:space="preserve">
<polyline style="fill:none;stroke:#000000;stroke-width:2;stroke-miterlimit:10;" points="28,14 28,8 21.5,8 20,6 12,6 10.5,8 4,8 
	4,24 14,24 "/>
<circle cx="8" cy="11" r="1"/>
<path d="M28,23h-3v-3h-2v3h-3v2h3v3h2v-3h3V23z"/>
<circle style="fill:none;stroke:#000000;stroke-width:2;stroke-miterlimit:10;" cx="24" cy="24" r="7"/>
<g>
	<path d="M29,15.353V13h-2v1.461C27.705,14.683,28.372,14.988,29,15.353z"/>
	<path d="M14,24c0-0.338,0.018-0.671,0.051-1H12v2h2.051C14.018,24.671,14,24.338,14,24z"/>
	<path d="M14.921,19.833C13.242,19.359,12,17.83,12,16c0-2.206,1.794-4,4-4c1.829,0,3.359,1.241,3.833,2.921
		c0.607-0.28,1.244-0.5,1.909-0.655C20.997,11.801,18.706,10,16,10c-3.309,0-6,2.691-6,6c0,2.706,1.801,4.997,4.267,5.742
		C14.421,21.078,14.642,20.44,14.921,19.833z"/>
</g>
</svg>
