<?xml version="1.0" encoding="iso-8859-1"?>
<!-- Generator: Adobe Illustrator 19.1.1, SVG Export Plug-In . SVG Version: 6.00 Build 0)  -->
<svg version="1.1" id="Layer_1" xmlns="http://www.w3.org/2000/svg" xmlns:xlink="http://www.w3.org/1999/xlink" x="0px" y="0px"
	 viewBox="0 0 32 32" style="enable-background:new 0 0 32 32;" xml:space="preserve">
<path style="fill:none;stroke:#000000;stroke-width:2;stroke-linejoin:round;stroke-miterlimit:10;" d="M16,28L16,28
	c4.971,0,9-3.907,9-8.727v-6.545C25,7.907,20.971,4,16,4l0,0c-4.971,0-9,3.907-9,8.727v6.545C7,24.093,11.029,28,16,28z"/>
<line style="fill:none;stroke:#000000;stroke-width:2;stroke-miterlimit:10;" x1="13" y1="8" x2="19" y2="8"/>
<line style="fill:none;stroke:#000000;stroke-width:2;stroke-miterlimit:10;" x1="7" y1="12" x2="25" y2="12"/>
<g>
	<g>
		<path style="fill:none;stroke:#000000;stroke-width:2;stroke-miterlimit:10;" d="M21.333,18.727c-0.034,0-0.066,0.008-0.099,0.01
			c-0.172-0.484-0.565-0.86-1.064-1.016C19.954,16.737,19.066,16,18,16c-1.052,0-1.928,0.719-2.158,1.683
			c-0.11-0.027-0.223-0.046-0.342-0.046c-0.705,0-1.281,0.518-1.371,1.186C13.474,19.043,13,19.646,13,20.364
			C13,21.267,13.746,22,14.667,22h6.667C22.254,22,23,21.267,23,20.364S22.254,18.727,21.333,18.727z"/>
	</g>
</g>
</svg>
