<?xml version="1.0" encoding="iso-8859-1"?>
<!-- Generator: Adobe Illustrator 19.1.1, SVG Export Plug-In . SVG Version: 6.00 Build 0)  -->
<svg version="1.1"  xmlns="http://www.w3.org/2000/svg" xmlns:xlink="http://www.w3.org/1999/xlink" x="0px" y="0px"
	 viewBox="0 0 32 32" style="enable-background:new 0 0 32 32;" xml:space="preserve">
<line style="fill:none;stroke:#000000;stroke-width:2;stroke-miterlimit:10;" x1="3" y1="3" x2="29" y2="29"/>
<g>
	<path d="M13.053,14.425L12.117,6h1.233l4,9H26c0.551,0,1,0.449,1,1s-0.449,1-1,1h-8.65l-0.53,1.192l1.515,1.515L18.65,19H26
		c1.654,0,3-1.346,3-3s-1.346-3-3-3h-7.35l-4-9H9.883l0.907,8.161L13.053,14.425z"/>
	<polygon points="15.95,20.15 13.35,26 12.117,26 13.085,17.285 12.8,17 7.948,17 5.948,20 5.22,20 6.02,16 5.22,12 5.948,12 
		7.948,15 10.8,15 5.8,10 2.78,10 3.98,16 2.78,22 7.018,22 9.018,19 10.883,19 9.883,28 14.65,28 17.465,21.665 	"/>
</g>
</svg>
