<?xml version="1.0" encoding="iso-8859-1"?>
<!-- Generator: Adobe Illustrator 21.0.0, SVG Export Plug-In . SVG Version: 6.00 Build 0)  -->
<svg version="1.1"  xmlns="http://www.w3.org/2000/svg" xmlns:xlink="http://www.w3.org/1999/xlink" x="0px" y="0px"
	 viewBox="0 0 32 32" style="enable-background:new 0 0 32 32;" xml:space="preserve">
<polyline style="fill:none;stroke:#000000;stroke-width:2;stroke-miterlimit:10;" points="16.865,29 7,29 7,3 24.081,3 
	24.081,17.162 "/>
<polygon points="24,27 28,31 28,29 30,29 27,26 "/>
<polygon points="24,27 20,31 20,29 18,29 21,26 "/>
<path style="fill:none;stroke:#000000;stroke-width:2;stroke-miterlimit:10;" d="M24.549,19.177l0.797,0.575l0.97,0.157
	c0.399,0.064,0.711,0.377,0.776,0.776l0.157,0.97l0.575,0.797c0.236,0.328,0.236,0.77,0,1.097l-0.575,0.797l-0.157,0.97
	c-0.064,0.399-0.377,0.711-0.776,0.776l-0.97,0.157l-0.797,0.575c-0.328,0.236-0.77,0.236-1.097,0l-0.797-0.575l-0.97-0.157
	c-0.399-0.064-0.711-0.377-0.776-0.776l-0.157-0.97l-0.575-0.797c-0.236-0.328-0.236-0.77,0-1.097l0.575-0.797l0.157-0.97
	c0.064-0.399,0.377-0.711,0.776-0.776l0.97-0.157l0.797-0.575C23.779,18.941,24.221,18.941,24.549,19.177z"/>
<path style="fill:none;stroke:#000000;stroke-width:2;stroke-miterlimit:10;" d="M19,19v-3c0-1.593-0.821-2.957-2-3.6V7h-3v5.4
	c-1.179,0.643-2,2.007-2,3.6v9h6.083"/>
</svg>
