<?xml version="1.0" encoding="iso-8859-1"?>
<!-- Generator: Adobe Illustrator 19.1.0, SVG Export Plug-In . SVG Version: 6.00 Build 0)  -->
<svg version="1.1" id="Layer_1" xmlns="http://www.w3.org/2000/svg" xmlns:xlink="http://www.w3.org/1999/xlink" x="0px" y="0px"
	 viewBox="0 0 32 32" style="enable-background:new 0 0 32 32;" xml:space="preserve">
<rect x="3" y="7" style="fill:none;stroke:#000000;stroke-width:2;stroke-miterlimit:10;" width="26" height="18"/>
<path d="M11.078,18.787H9.531l-0.448-1.402H6.842l-0.444,1.402H4.86l2.294-6.302h1.683L11.078,18.787z M8.758,16.295l-0.677-2.117
	c-0.05-0.158-0.085-0.348-0.105-0.567H7.94c-0.015,0.185-0.051,0.368-0.11,0.55l-0.686,2.135H8.758z"/>
<path d="M13.117,18.787h-1.389v-6.662h1.389V18.787z"/>
<path d="M17.006,18.734c-0.205,0.108-0.514,0.162-0.927,0.162c-0.979,0-1.468-0.508-1.468-1.524v-2.062h-0.729v-1.023h0.729v-0.971
	l1.384-0.396v1.367h1.011v1.023h-1.011v1.82c0,0.469,0.186,0.703,0.558,0.703c0.146,0,0.297-0.043,0.453-0.128V18.734z"/>
<path d="M23.097,18.365c-0.615,0.354-1.38,0.531-2.294,0.531c-1.249,0-3.274-0.534-3.274-3.159c0-1.085,0.544-3.357,3.507-3.357
	c0.668,0,1.257,0.093,1.767,0.276v1.332c-0.486-0.281-1.081-0.422-1.784-0.422c-0.807,0-1.995,0.446-1.995,2.105
	c0,0.826,0.329,2.034,1.846,2.034c0.34,0,0.609-0.048,0.809-0.146v-1.23h-1.261v-1.133h2.681V18.365z"/>
<path d="M27.123,15.539c-0.167-0.09-0.362-0.136-0.584-0.136c-0.302,0-0.962,0.144-0.962,1.235v2.148h-1.389v-4.5h1.389v0.835h0.018
	c0.22-0.609,0.615-0.914,1.187-0.914c0.146,0,0.261,0.018,0.343,0.053V15.539z"/>
</svg>
