<?xml version="1.0" encoding="iso-8859-1"?>
<!-- Generator: Adobe Illustrator 19.1.1, SVG Export Plug-In . SVG Version: 6.00 Build 0)  -->
<svg version="1.1" id="Layer_1" xmlns="http://www.w3.org/2000/svg" xmlns:xlink="http://www.w3.org/1999/xlink" x="0px" y="0px"
	 viewBox="0 0 32 32" style="enable-background:new 0 0 32 32;" xml:space="preserve">
<path d="M19.379,17.599c-3.753,0.289-4.801,3.156-4.084,4.339c0.539,0.889,1.091,1.975,1.67,2.94
	c0.708,1.182,1.986,1.904,3.364,1.902L27,26.768L19.379,17.599z"/>
<path d="M16.107,13.507l-5.502-6.926C9.97,5.779,9.3,5.221,7.933,5.221L5,5.22l4.207,6.995c0.756,1.136,1.366,1.292,2.867,1.292
	L16.107,13.507z"/>
<path d="M12.637,17.571c-0.337-0.546-0.48-0.944-0.16-1.487c0.32-0.544,1.279-1.311,4.622-1.327c2.573-0.036,4.304,0.123,4.83,2.015
	c-0.051-0.04-0.544-0.208-1.631-0.208c-4.782,0-6.125,3.486-5.214,5.022C15.084,21.585,12.974,18.116,12.637,17.571z"/>
</svg>
