<?xml version="1.0" encoding="iso-8859-1"?>
<!-- Generator: Adobe Illustrator 19.1.1, SVG Export Plug-In . SVG Version: 6.00 Build 0)  -->
<svg version="1.1" id="Layer_1" xmlns="http://www.w3.org/2000/svg" xmlns:xlink="http://www.w3.org/1999/xlink" x="0px" y="0px"
	 viewBox="0 0 32 32" style="enable-background:new 0 0 32 32;" xml:space="preserve">
<circle cx="12.5" cy="19.5" r="1.5"/>
<circle cx="19.5" cy="19.5" r="1.5"/>
<path style="fill:none;stroke:#000000;stroke-width:2;stroke-miterlimit:10;" d="M16,29c-4.966,0-8-5.235-8-9c0-3.579,1.725-7,4-7
	s2.472,3,4,3s1.725-3,4-3s4,3.421,4,7C24,23.765,20.966,29,16,29z"/>
<path style="fill:none;stroke:#000000;stroke-width:2;stroke-miterlimit:10;" d="M10,26c-5.066-1.966-5-9-5-9C5,5.98,16,6,16,6
	s11-0.02,11,11c0,0,0.066,7.034-5,9"/>
<path style="fill:none;stroke:#000000;stroke-width:2;stroke-miterlimit:10;" d="M6,12c0,0-2-1.017-2-3s2-4,2-4"/>
<path style="fill:none;stroke:#000000;stroke-width:2;stroke-miterlimit:10;" d="M26,12c0,0,2-1.017,2-3s-2-4-2-4"/>
<circle cx="6" cy="5" r="2"/>
<circle cx="26" cy="5" r="2"/>
</svg>
