<?xml version="1.0" encoding="iso-8859-1"?>
<!-- Generator: Adobe Illustrator 19.1.1, SVG Export Plug-In . SVG Version: 6.00 Build 0)  -->
<svg version="1.1" id="Layer_1" xmlns="http://www.w3.org/2000/svg" xmlns:xlink="http://www.w3.org/1999/xlink" x="0px" y="0px"
	 viewBox="0 0 32 32" style="enable-background:new 0 0 32 32;" xml:space="preserve">
<circle style="fill:none;stroke:#000000;stroke-width:2;stroke-miterlimit:10;" cx="16" cy="16" r="11"/>
<polyline style="fill:none;stroke:#000000;stroke-width:2;stroke-miterlimit:10;" points="27,16 27,27 16,27 "/>
<circle style="fill:none;stroke:#000000;stroke-width:2;stroke-miterlimit:10;" cx="16" cy="16" r="3"/>
<path d="M16,12c0.347,0,0.679,0.058,1,0.141V10h-2v2.141C15.321,12.058,15.653,12,16,12z"/>
<path d="M13.98,12.566l-1.273-1.273l-1.414,1.414l1.273,1.273C12.911,13.395,13.395,12.911,13.98,12.566z"/>
<path d="M12,16c0-0.347,0.058-0.679,0.141-1H10v2h2.141C12.058,16.679,12,16.347,12,16z"/>
<path d="M19.644,14.366l1.981-1.585l-1.249-1.562l-1.987,1.589C18.928,13.213,19.364,13.744,19.644,14.366z"/>
<path d="M16.837,19.909l1.269,2.538l1.789-0.895l-1.276-2.551C18.116,19.44,17.513,19.765,16.837,19.909z"/>
<path d="M18.96,15.448c-0.078,0.691-0.33,1.326-0.717,1.867l3.51,1.346l0.716-1.867L18.96,15.448z"/>
<path d="M12.356,17.634l-1.981,1.585l1.249,1.562l1.987-1.589C13.072,18.787,12.636,18.256,12.356,17.634z"/>
<path d="M16,20c-0.625,0-1.21-0.156-1.737-0.412l-0.41,2.049l1.961,0.393l0.41-2.052C16.149,19.982,16.077,20,16,20z"/>
<circle cx="10" cy="16" r="2"/>
<circle cx="21" cy="12" r="2"/>
<circle cx="11.5" cy="19.5" r="1.5"/>
<circle cx="16" cy="10" r="2"/>
<circle cx="19" cy="21" r="2"/>
<circle cx="11.5" cy="11.5" r="1.5"/>
<circle cx="14.5" cy="22.5" r="1.5"/>
<circle cx="21.5" cy="17.5" r="1.5"/>
</svg>
