<?xml version="1.0" encoding="utf-8"?>
<!-- Generator: Adobe Illustrator 18.1.1, SVG Export Plug-In . SVG Version: 6.00 Build 0)  -->
<svg version="1.1" id="Layer_1" xmlns="http://www.w3.org/2000/svg" xmlns:xlink="http://www.w3.org/1999/xlink" x="0px" y="0px"
	 viewBox="0 0 32 32" enable-background="new 0 0 32 32" xml:space="preserve">
<path d="M16.3,12.1c0.4-0.4,0.9-0.7,1.4-0.8c0.1,0.6-0.1,1.1-0.4,1.5c-0.4,0.4-0.9,0.7-1.4,0.7C15.7,13,15.9,12.5,16.3,12.1z
	 M19.4,19.3c-0.4,0.6-1,1.4-1.6,1.4c-0.6,0-0.8-0.4-1.6-0.4c-0.9,0-1,0.4-1.6,0.4c-0.7,0-1.2-0.6-1.6-1.3c-1.1-1.6-1.2-3.6-0.5-4.7
	c0.5-0.7,1.2-1.1,1.9-1.1c0.7,0,1.2,0.4,1.8,0.4s0.9-0.4,1.8-0.4c0.6,0,1.3,0.4,1.8,0.9c-1.6,0.9-1.3,3.1,0.3,3.7
	C19.7,18.7,19.6,18.9,19.4,19.3z"/>
<path fill="none" stroke="#000000" stroke-width="2" stroke-miterlimit="10" d="M23,5H9C6.8,5,5,6.8,5,9v14c0,2.2,1.8,4,4,4h14
	c2.2,0,4-1.8,4-4V9C27,6.8,25.2,5,23,5z"/>
</svg>
