<?xml version="1.0" encoding="iso-8859-1"?>
<!-- Generator: Adobe Illustrator 19.1.0, SVG Export Plug-In . SVG Version: 6.00 Build 0)  -->
<svg version="1.1" id="Layer_1" xmlns="http://www.w3.org/2000/svg" xmlns:xlink="http://www.w3.org/1999/xlink" x="0px" y="0px"
	 viewBox="0 0 32 32" style="enable-background:new 0 0 32 32;" xml:space="preserve">
<path style="fill:none;stroke:#000000;stroke-width:2;stroke-miterlimit:10;" d="M16.5,24H21c1.657,0,3-1.343,3-3v-1"/>
<circle cx="16.5" cy="23.5" r="1.5"/>
<path d="M23,21h2c1.105,0,2-0.895,2-2v-1c0-1.105-0.895-2-2-2h-2V21z"/>
<path style="fill:none;stroke:#000000;stroke-width:2;stroke-miterlimit:10;" d="M21.344,26H29c0,0,0-8.397,0-9
	c0-7.18-5.82-13-13-13S3,9.82,3,17c0,0.603,0,9,0,9h7.656"/>
<circle cx="19" cy="18" r="1"/>
<circle cx="13" cy="18" r="1"/>
<path style="fill:none;stroke:#000000;stroke-width:2;stroke-miterlimit:10;" d="M8,15v1c-1.105,0-2,0.895-2,2c0,1.105,0.895,2,2,2
	c0,4.418,3.582,8,8,8s8-3.582,8-8v-4v-1c0-4.517-5,0.31-5-6"/>
<path style="fill:none;stroke:#000000;stroke-width:2;stroke-miterlimit:10;" d="M19,9c0,7.172-11,1.5-11,6"/>
</svg>
