<?xml version="1.0" encoding="iso-8859-1"?>
<!-- Generator: Adobe Illustrator 19.1.1, SVG Export Plug-In . SVG Version: 6.00 Build 0)  -->
<svg version="1.1"  xmlns="http://www.w3.org/2000/svg" xmlns:xlink="http://www.w3.org/1999/xlink" x="0px" y="0px"
	 viewBox="0 0 32 32" style="enable-background:new 0 0 32 32;" xml:space="preserve">
<path style="fill:none;stroke:#000000;stroke-width:2;" d="M22.417,10c0.351-0.786,0.593-1.853,0.613-2.581
	c0.029-1.034-0.479-1.779-1.033-2.139c-0.315-0.204-0.692-0.294-1.117-0.278c-2.293,0.087-5.542,3.979-8.565,8.634
	C9.721,17.638,8.96,21.908,9,24.237c0.02,1.147,0.415,1.988,1.08,2.419c0.956,0.621,2.199,0.57,3.92-0.657"/>
<path style="fill:none;stroke:#000000;stroke-width:2;" d="M24.401,19.4c2.082-0.368,3.545-1.363,3.599-2.4
	c0.126-2.398-4.817-4.608-11.386-4.953C15.998,12.015,15.393,11.998,14.8,12c-5.726,0.019-10.798,1.824-10.798,4
	c0,1.458,1.509,2.419,2.998,3"/>
<path style="fill:none;stroke:#000000;stroke-width:2;" d="M14.167,6.458c-1.25-1.167-2.584-1.515-3.461-1.45
	c-0.233,0.018-0.449,0.075-0.65,0.177C9.275,5.584,8.975,6.722,9.002,8.242c0.047,2.646,1.92,7.393,3.538,10.401
	C14.581,22.441,18.86,27.95,21,26.86c1.813-0.525,1.721-5.814-1-10.86"/>
<path d="M18,16c0,1.105-0.895,2-2,2s-2-0.895-2-2l0,0c0-1.105,0.895-2,2-2S18,14.895,18,16z"/>
</svg>
