<?xml version="1.0" encoding="iso-8859-1"?>
<!-- Generator: Adobe Illustrator 19.1.0, SVG Export Plug-In . SVG Version: 6.00 Build 0)  -->
<svg version="1.1" id="Layer_1" xmlns="http://www.w3.org/2000/svg" xmlns:xlink="http://www.w3.org/1999/xlink" x="0px" y="0px"
	 viewBox="0 0 32 32" style="enable-background:new 0 0 32 32;" xml:space="preserve">
<path style="fill:none;stroke:#000000;stroke-width:2;stroke-miterlimit:10;" d="M26,24c0,0,3-3,3-8s-3-8-3-8H6c0,0-3,3-3,8s3,8,3,8
	H26z"/>
<path style="fill:none;stroke:#000000;stroke-width:2;stroke-miterlimit:10;" d="M13,13h-1v6h1c1.657,0,3-1.343,3-3v0
	C16,14.343,14.657,13,13,13z"/>
<g>
	<path d="M15.969,20h2.767C19.53,18.865,20,17.487,20,16s-0.47-2.865-1.264-4h-2.767C17.194,12.912,18,14.359,18,16
		S17.194,19.088,15.969,20z"/>
	<path d="M25.364,20C25.773,18.739,26,17.396,26,16s-0.227-2.739-0.636-4h-2.128C23.723,13.242,24,14.588,24,16
		s-0.277,2.758-0.764,4H25.364z"/>
	<path d="M21,16c0,1.458-0.398,2.822-1.082,4h2.242C22.697,18.774,23,17.422,23,16s-0.303-2.774-0.841-4h-2.242
		C20.602,13.178,21,14.542,21,16z"/>
</g>
<line style="fill:none;stroke:#000000;stroke-width:2;stroke-miterlimit:10;" x1="12" y1="18" x2="9" y2="18"/>
<polygon points="8.618,20 11,15.236 11,20 13,20 13,12 10.382,12 6.382,20 "/>
</svg>
