<?xml version="1.0" encoding="utf-8"?>
<!-- Generator: Adobe Illustrator 18.0.0, SVG Export Plug-In . SVG Version: 6.00 Build 0)  -->
<svg version="1.1" id="Layer_1" xmlns="http://www.w3.org/2000/svg" xmlns:xlink="http://www.w3.org/1999/xlink" x="0px" y="0px"
	 viewBox="0 0 32 32" enable-background="new 0 0 32 32" xml:space="preserve">
<path fill="none" stroke="#000000" stroke-width="2" stroke-miterlimit="10" d="M6.9,7.2l-1.5,2.9C5.1,10.7,5,11.3,5,11.9V15h2
	c0-1.7,1.3-3,3-3s3,1.3,3,3h5c0-1.7,1.3-3,3-3s3,1.3,3,3h3v-1.9c0-1.8-1.2-3.4-3-3.9L23,9l-3.9-3.1C18.4,5.3,17.5,5,16.6,5h-6.1
	C9,5,7.6,5.9,6.9,7.2z"/>
<circle fill="none" stroke="#000000" stroke-width="2" stroke-miterlimit="10" cx="9" cy="24" r="3"/>
<circle fill="none" stroke="#000000" stroke-width="2" stroke-miterlimit="10" cx="23" cy="24" r="3"/>
<line fill="none" stroke="#000000" stroke-width="2" stroke-miterlimit="10" x1="12" y1="24" x2="20" y2="24"/>
<circle cx="16" cy="24" r="2"/>
</svg>
