<?xml version="1.0" encoding="iso-8859-1"?>
<!-- Generator: Adobe Illustrator 19.1.1, SVG Export Plug-In . SVG Version: 6.00 Build 0)  -->
<svg version="1.1" id="Layer_1" xmlns="http://www.w3.org/2000/svg" xmlns:xlink="http://www.w3.org/1999/xlink" x="0px" y="0px"
	 viewBox="0 0 32 32" style="enable-background:new 0 0 32 32;" xml:space="preserve">
<path style="fill:none;stroke:#000000;stroke-width:2;stroke-miterlimit:10;" d="M22.667,10.738c0-2.382-1.278-4.764-3.667-4.764
	C17.722,5.812,17.722,5,16,5C13.722,5,6,11.786,6,20.393C6,25.157,10.5,29,16,29s10-3.843,10-8.607
	C26,15.575,22.667,15.394,22.667,10.738z"/>
<path style="fill:none;stroke:#000000;stroke-width:2;stroke-miterlimit:10;" d="M16,25c-2.3,0-4-1.95-4-4.7s2.8-5.3,4-5.3
	s4,2.55,4,5.3S18.3,25,16,25z"/>
<path style="fill:none;stroke:#000000;stroke-width:2;stroke-miterlimit:10;" d="M21,2.901c0,0-2.11,1.1-2,3.073"/>
</svg>
