<?xml version="1.0" encoding="iso-8859-1"?>
<!-- Generator: Adobe Illustrator 19.1.1, SVG Export Plug-In . SVG Version: 6.00 Build 0)  -->
<svg version="1.1" id="Layer_1" xmlns="http://www.w3.org/2000/svg" xmlns:xlink="http://www.w3.org/1999/xlink" x="0px" y="0px"
	 viewBox="0 0 32 32" style="enable-background:new 0 0 32 32;" xml:space="preserve">
<path style="fill:none;stroke:#000000;stroke-width:2;stroke-miterlimit:10;" d="M27.229,4.771c-2.361-2.361-6.189-2.361-8.55,0
	c-0.328,0.328-1.58,1.58-1.909,1.909c-2.361,2.361-2.361,6.189,0,8.55s6.189,2.361,8.55,0c0.328-0.328,1.58-1.58,1.909-1.909
	C29.59,10.96,29.59,7.132,27.229,4.771z"/>
<line style="fill:none;stroke:#000000;stroke-linejoin:round;stroke-miterlimit:10;" x1="16.75" y1="6.75" x2="25.25" y2="15.25"/>
<line style="fill:none;stroke:#000000;stroke-linejoin:round;stroke-miterlimit:10;" x1="14.75" y1="8.75" x2="23.25" y2="17.25"/>
<line style="fill:none;stroke:#000000;stroke-linejoin:round;stroke-miterlimit:10;" x1="21.75" y1="3.75" x2="28.5" y2="10.5"/>
<line style="fill:none;stroke:#000000;stroke-linejoin:round;stroke-miterlimit:10;" x1="18.75" y1="4.75" x2="27.25" y2="13.25"/>
<line style="fill:none;stroke:#000000;stroke-linejoin:round;stroke-miterlimit:10;" x1="27" y1="5" x2="17" y2="15"/>
<line style="fill:none;stroke:#000000;stroke-linejoin:round;stroke-miterlimit:10;" x1="25" y1="3" x2="15" y2="13"/>
<line style="fill:none;stroke:#000000;stroke-linejoin:round;stroke-miterlimit:10;" x1="29" y1="7" x2="19" y2="17"/>
<polygon style="fill:none;stroke:#000000;stroke-width:2;stroke-miterlimit:10;" points="9,23 7,23 3.458,26.542 5.458,28.542 9,25 
	"/>
<g>
	<path d="M15.356,16.644c-0.24-0.24-0.455-0.495-0.658-0.756l-6.905,6.905l1.414,1.414l6.905-6.905
		C15.85,17.098,15.595,16.882,15.356,16.644z"/>
</g>
<path d="M10.097,6.097L7.618,11H7c-2.935,0-4-2.392-4-4V6.382l4.901-2.481 M5.076,7.58C5.203,8.097,5.54,8.739,6.413,8.938
	l1.352-2.703L5.076,7.58z"/>
<path d="M10.097,6.097c0.197-0.242,0.36-0.433,0.463-0.537c0.586-0.586,0.586-1.536,0-2.121c-0.586-0.586-1.536-0.586-2.121,0
	C8.363,3.516,8.167,3.682,7.901,3.901L10.097,6.097z"/>
<path d="M10.097,6.097c0.197-0.242,0.36-0.433,0.463-0.537c0.586-0.586,0.586-1.536,0-2.121c-0.586-0.586-1.536-0.586-2.121,0
	C8.363,3.516,8.167,3.682,7.901,3.901L10.097,6.097z"/>
</svg>
