<?xml version="1.0" encoding="iso-8859-1"?>
<!-- Generator: Adobe Illustrator 19.1.1, SVG Export Plug-In . SVG Version: 6.00 Build 0)  -->
<svg version="1.1" id="Layer_1" xmlns="http://www.w3.org/2000/svg" xmlns:xlink="http://www.w3.org/1999/xlink" x="0px" y="0px"
	 viewBox="-8 10 32 32" style="enable-background:new -8 10 32 32;" xml:space="preserve">
<g>
	<path d="M4,18c0-2.206,1.794-4,4-4c2.206,0,4,1.794,4,4v2h2v-2c0-3.309-2.691-6-6-6s-6,2.691-6,6v2h2V18z"/>
	<path d="M21.22,39l-3.4-17H14c0-0.552-0.448-1-1-1s-1,0.448-1,1H4c0-0.552-0.448-1-1-1s-1,0.448-1,1h-3.82l-3.4,17H-2v1h2v-1h16v1
		h2v-1H21.22z M-0.18,24h16.361l2.6,13H-2.78L-0.18,24z"/>
	<rect x="2" y="26" width="12" height="2"/>
	<rect x="12" y="29" width="2" height="4"/>
</g>
</svg>
