<?xml version="1.0" encoding="iso-8859-1"?>
<!-- Generator: Adobe Illustrator 19.1.1, SVG Export Plug-In . SVG Version: 6.00 Build 0)  -->
<svg version="1.1" id="Layer_1" xmlns="http://www.w3.org/2000/svg" xmlns:xlink="http://www.w3.org/1999/xlink" x="0px" y="0px"
	 viewBox="0 0 32 32" style="enable-background:new 0 0 32 32;" xml:space="preserve">
<path style="fill:none;stroke:#000000;stroke-width:2;stroke-miterlimit:10;" d="M8.481,3.643c0,0-2.866,3.986,5.519,7.357
	c0,0,7.75,3.438,11.141-2.52"/>
<path style="fill:none;stroke:#000000;stroke-width:2;stroke-miterlimit:10;" d="M14.482,5.658c0,0-2.546,4.408,3.455,6.154"/>
<path style="fill:none;stroke:#000000;stroke-width:2;stroke-miterlimit:10;" d="M18.692,7.091c0,0-2.185,4.55,1.308,4.909"/>
<path style="fill:none;stroke:#000000;stroke-width:2;stroke-miterlimit:10;" d="M14,12h-4c0,0,0.813,2,3,2
	c-1.563,1.875-4,5.313-4,8"/>
<path style="fill:none;stroke:#000000;stroke-width:2;stroke-miterlimit:10;" d="M6,26c2.375,0,5-3.5,5-5c-1.688,0-1,0-1,0"/>
<path style="fill:none;stroke:#000000;stroke-width:2;stroke-miterlimit:10;" d="M11,28h10c0,0,0.104-4.896-2-7"/>
<line style="fill:none;stroke:#000000;stroke-width:2;stroke-miterlimit:10;" x1="6" y1="26" x2="13" y2="26"/>
<path style="fill:none;stroke:#000000;stroke-width:2;stroke-miterlimit:10;" d="M16,11c0,0-1.313,0.688-3,3"/>
<path style="fill:none;stroke:#000000;stroke-width:2;stroke-miterlimit:10;" d="M15.688,18.375c0,0,0.563,2.5,3.313,2.5
	s5.875-0.813,5.875-0.813l1.313-2.125l-4.563-3c0,0,0-3.125-3.688-3.125"/>
<path d="M18,15h2c0,0.552-0.448,1-1,1S18,15.552,18,15z"/>
</svg>
