<?xml version="1.0" encoding="iso-8859-1"?>
<!-- Generator: Adobe Illustrator 19.2.0, SVG Export Plug-In . SVG Version: 6.00 Build 0)  -->
<svg version="1.1" id="Layer_1" xmlns="http://www.w3.org/2000/svg" xmlns:xlink="http://www.w3.org/1999/xlink" x="0px" y="0px"
	 viewBox="0 0 32 32" style="enable-background:new 0 0 32 32;" xml:space="preserve">
<line style="fill:none;stroke:#000000;stroke-width:2;stroke-miterlimit:10;" x1="4" y1="16" x2="28" y2="16"/>
<line style="fill:none;stroke:#000000;stroke-width:2;stroke-miterlimit:10;" x1="4" y1="8" x2="28" y2="8"/>
<polygon points="13,8 15,5 11.977,7 9,5 11,8.023 9,11 12.023,9 15,11 "/>
<polygon points="24,8 26,5 22.977,7 20,5 22,8.023 20,11 23.023,9 26,11 "/>
<polygon points="22,16 24,13 20.977,15 18,13 20,16.023 18,19 21.023,17 24,19 "/>
<polygon points="9,16 11,13 7.977,15 5,13 7,16.023 5,19 8.023,17 11,19 "/>
<polygon points="25,24 27,21 23.977,23 21,21 23,24.023 21,27 24.023,25 27,27 "/>
<polygon points="12,24 14,21 10.977,23 8,21 10,24.023 8,27 11.023,25 14,27 "/>
<line style="fill:none;stroke:#000000;stroke-width:2;stroke-miterlimit:10;" x1="4" y1="24" x2="28" y2="24"/>
</svg>
