<?xml version="1.0" encoding="iso-8859-1"?>
<!-- Generator: Adobe Illustrator 19.1.1, SVG Export Plug-In . SVG Version: 6.00 Build 0)  -->
<svg version="1.1" id="Layer_1" xmlns="http://www.w3.org/2000/svg" xmlns:xlink="http://www.w3.org/1999/xlink" x="0px" y="0px"
	 viewBox="0 0 32 32" style="enable-background:new 0 0 32 32;" xml:space="preserve">
<line style="fill:none;stroke:#000000;stroke-width:2;stroke-miterlimit:10;" x1="10" y1="29" x2="20" y2="29"/>
<line style="fill:none;stroke:#000000;stroke-width:2;stroke-miterlimit:10;" x1="15" y1="20" x2="15" y2="29"/>
<polyline style="fill:none;stroke:#000000;stroke-width:2;stroke-miterlimit:10;" points="10,20 8,26 4,26 "/>
<path style="fill:none;stroke:#000000;stroke-width:2;stroke-miterlimit:10;" d="M21,12h-6c-1.105,0-2,0.895-2,2v2"/>
<path style="fill:none;stroke:#000000;stroke-width:2;stroke-miterlimit:10;" d="M24.999,2.998L24.999,2.998
	c-0.87,0-1.656,0.582-1.911,1.415L19.295,16H9c-1.103,0-2,0.897-2,2c0,1.103,0.897,2,2,2h13.25l4.661-14.412
	c0.325-1.052-0.269-2.174-1.322-2.5C25.401,3.029,25.201,2.998,24.999,2.998L24.999,2.998z"/>
</svg>
