<?xml version="1.0" encoding="iso-8859-1"?>
<!-- Generator: Adobe Illustrator 18.1.1, SVG Export Plug-In . SVG Version: 6.00 Build 0)  -->
<svg version="1.1" id="Layer_1" xmlns="http://www.w3.org/2000/svg" xmlns:xlink="http://www.w3.org/1999/xlink" x="0px" y="0px"
	 viewBox="0 0 32 32" style="enable-background:new 0 0 32 32;" xml:space="preserve">
<circle style="fill:none;stroke:#000000;stroke-width:2;stroke-miterlimit:10;" cx="25" cy="10" r="3"/>
<path style="fill:none;stroke:#000000;stroke-width:2;stroke-miterlimit:10;" d="M2,22.5l6.785,3.67
	c0.231,0.125,0.494,0.162,0.75,0.1c1.187-0.289,4.825-1.337,8.258-3.976c1.819-1.398,3.022-2.837,3.794-3.994
	c0.847-1.269,0.64-2.965-0.456-4.026l-4.384-4.246c-0.304-0.294-0.404-0.741-0.255-1.137l1.952-5.19"/>
<path style="fill:none;stroke:#000000;stroke-width:2;stroke-miterlimit:10;" d="M19.003,12.651c0,0-1.94,6.551-5.665,8.498
	L9.162,20.39c-0.299-0.054-0.56-0.234-0.718-0.493L5.7,15.382"/>
<line style="fill:none;stroke:#000000;stroke-width:2;stroke-miterlimit:10;" x1="15.007" y1="24.13" x2="13.338" y2="21.148"/>
</svg>
