<?xml version="1.0" encoding="iso-8859-1"?>
<!-- Generator: Adobe Illustrator 19.1.1, SVG Export Plug-In . SVG Version: 6.00 Build 0)  -->
<svg version="1.1" id="Layer_1" xmlns="http://www.w3.org/2000/svg" xmlns:xlink="http://www.w3.org/1999/xlink" x="0px" y="0px"
	 viewBox="-7 9 32 32" enable-background="new -7 9 32 32" xml:space="preserve">
<g>
	<path d="M11,13h-0.039C10.78,11.846,9.984,11,9,11c-0.984,0-1.78,0.846-1.961,2H7C0.935,13-4,17.935-4,24v6.205l3.546,8.264
		l0.991-0.625C0.566,37.825,3.524,36,9,36s8.434,1.825,8.46,1.842l0.994,0.639L22,30.205V24C22,17.935,17.065,13,11,13z M7,15h4
		c4.963,0,9,4.038,9,9v4.35C17.98,27.415,14.088,26,9,26c-5.087,0-8.981,1.415-11,2.35V24C-2,19.038,2.038,15,7,15z M17.503,35.621
		C16.077,34.981,13.206,34,9,34s-7.077,0.981-8.503,1.621l-2.219-5.178C-0.163,29.659,3.753,28,9,28
		c5.247,0,9.163,1.659,10.722,2.443L17.503,35.621z"/>
	<path d="M8.5,24h1c1.379,0,2.5-1.122,2.5-2.5h-2c0,0.271-0.229,0.5-0.5,0.5h-1C8.229,22,8,21.771,8,21.5v-2
		C8,19.229,8.229,19,8.5,19h1c0.271,0,0.5,0.229,0.5,0.5h2c0-1.378-1.121-2.5-2.5-2.5h-1C7.122,17,6,18.122,6,19.5v2
		C6,22.878,7.122,24,8.5,24z"/>
</g>
</svg>
