<?xml version="1.0" encoding="iso-8859-1"?>
<!-- Generator: Adobe Illustrator 19.1.1, SVG Export Plug-In . SVG Version: 6.00 Build 0)  -->
<svg version="1.1" id="Layer_1" xmlns="http://www.w3.org/2000/svg" xmlns:xlink="http://www.w3.org/1999/xlink" x="0px" y="0px"
	 viewBox="0 0 32 32" style="enable-background:new 0 0 32 32;" xml:space="preserve">
<path d="M16,13.396c0.492,0,0.615,0.114,0.615,0.114l0.246-1.023c0,0,0.246,0.909,0.246,1.705c0.123,0.682,1.477,0.227,2.585,0
	C20.923,13.965,21,11.973,21,11.973h11c0,0-6.6,2.023-5,6c0,0-9.523-1.509-11,4.06l0,0c-1.477-5.568-11-4.06-11-4.06
	c1.6-3.977-5-6-5-6h11c0,0,0.077,1.991,1.185,2.219c1.108,0.227,2.585,0.682,2.585,0c0.123-0.682,0.246-1.705,0.246-1.705
	l0.246,1.023C15.385,13.51,15.631,13.396,16,13.396L16,13.396L16,13.396z"/>
</svg>
