<?xml version="1.0" encoding="iso-8859-1"?>
<!-- Generator: Adobe Illustrator 19.1.1, SVG Export Plug-In . SVG Version: 6.00 Build 0)  -->
<svg version="1.1" id="Layer_1" xmlns="http://www.w3.org/2000/svg" xmlns:xlink="http://www.w3.org/1999/xlink" x="0px" y="0px"
	 viewBox="0 0 32 32" style="enable-background:new 0 0 32 32;" xml:space="preserve">
<path d="M16.542,14.8c0,0,0.03-0.59-0.763-0.632h-0.764v1.378h0.65C15.665,15.545,16.542,15.533,16.542,14.8z"/>
<path d="M16.017,16.386h-1.002v1.455h1.002c0,0,1.002,0.048,1.002-0.757C17.019,17.084,17.049,16.38,16.017,16.386z"/>
<path d="M5.523,14.8c0,0,0.03-0.59-0.763-0.632H3.996v1.378h0.65C4.646,15.545,5.523,15.533,5.523,14.8z"/>
<path d="M4.998,16.386H3.996v1.455h1.002c0,0,1.002,0.048,1.002-0.757C6,17.084,6.03,16.38,4.998,16.386z"/>
<path d="M0,11v10h10V11H0z M5.208,18.664H3.067v-5.326h1.868c1.683,0.155,1.579,1.425,1.579,1.425
	c0.006,0.775-0.68,1.068-0.68,1.068c1.205,0.305,1.163,1.33,1.163,1.33C6.997,18.67,5.208,18.664,5.208,18.664z"/>
<path d="M11,11v10h10V11H11z M16.208,18.664h-2.141v-5.326h1.868c1.683,0.155,1.579,1.425,1.579,1.425
	c0.006,0.775-0.68,1.068-0.68,1.068c1.205,0.305,1.163,1.33,1.163,1.33C17.997,18.67,16.208,18.664,16.208,18.664z"/>
<path d="M22,11v10h10V11H22z M29.444,18.241h-0.001c0,0-1.616,0.96-3.489,0.221c0,0-1.575-0.575-1.634-2.462
	c0,0-0.066-1.94,2.034-2.584c0,0,0.561-0.215,1.569-0.119c0,0,0.602,0.06,1.473,0.423v0.984c0,0-0.96-0.59-2.022-0.602
	c0,0-1.98-0.039-2.069,1.898c0,0-0.072,1.782,2.046,1.883c0,0,0.889,0.107,2.093-0.662V18.241z"/>
</svg>
