<?xml version="1.0" encoding="iso-8859-1"?>
<!-- Generator: Adobe Illustrator 19.1.1, SVG Export Plug-In . SVG Version: 6.00 Build 0)  -->
<svg version="1.1" id="Layer_1" xmlns="http://www.w3.org/2000/svg" xmlns:xlink="http://www.w3.org/1999/xlink" x="0px" y="0px"
	 viewBox="0 0 32 32" style="enable-background:new 0 0 32 32;" xml:space="preserve">
<polygon points="24.98,15.044 24.98,15.94 18.145,15.94 18.145,15.044 "/>
<path d="M11.574,13.254c-0.164-0.085-0.246-0.269-0.246-0.555V8.569c0.142,0.004,0.248,0.006,0.316,0.006s0.231,0,0.488,0
	c1.051,0,1.917,0.169,2.596,0.509c0.68,0.341,1.02,0.977,1.02,1.905c0,0.934-0.291,1.568-0.871,1.896
	c-0.581,0.329-1.301,0.494-2.16,0.494C12.119,13.379,11.738,13.338,11.574,13.254L11.574,13.254z M13.488,13.979
	c0.938,0,1.726-0.127,2.366-0.381c1.216-0.484,1.823-1.377,1.823-2.674c0-0.772-0.273-1.372-0.821-1.803
	c-0.548-0.428-1.208-0.735-1.979-0.919c0.625-0.15,1.093-0.342,1.404-0.573c0.553-0.405,0.83-0.999,0.83-1.783
	c0-1.042-0.396-1.777-1.188-2.204C15.132,3.214,14.064,3,12.716,3H8v0.308c0.68,0.034,1.119,0.136,1.319,0.312
	c0.199,0.176,0.3,0.569,0.3,1.179v7.38c0,0.622-0.101,1.016-0.3,1.187c-0.2,0.17-0.64,0.274-1.319,0.314v0.299h5.488V13.979z
	 M11.328,7.936V4.191c0-0.264,0.041-0.427,0.123-0.484c0.082-0.061,0.299-0.09,0.649-0.09c0.925,0,1.614,0.096,2.069,0.282
	c0.822,0.347,1.232,1.013,1.232,2.001c0,0.837-0.355,1.418-1.068,1.741c-0.37,0.17-0.839,0.258-1.403,0.27L11.328,7.936
	L11.328,7.936z"/>
<path d="M22.307,7.511c0.147,0.263,0.251,0.666,0.312,1.205h-3.467c0.076-0.442,0.203-0.809,0.378-1.1
	c0.329-0.546,0.806-0.819,1.43-0.819C21.59,6.798,22.039,7.035,22.307,7.511L22.307,7.511z M18.89,7.39
	c-0.651,0.788-0.978,1.725-0.978,2.81c0,0.998,0.281,1.881,0.842,2.649C19.317,13.617,20.111,14,21.141,14
	c0.893,0,1.646-0.292,2.264-0.875c0.616-0.583,1.036-1.217,1.261-1.904l-0.288-0.097c-0.334,0.546-0.697,0.966-1.092,1.263
	c-0.395,0.298-0.879,0.446-1.454,0.446c-0.712,0-1.329-0.287-1.849-0.86c-0.521-0.572-0.809-1.485-0.863-2.738h5.217
	c0-0.967-0.29-1.713-0.87-2.241c-0.581-0.527-1.257-0.79-2.029-0.79C20.39,6.206,19.541,6.6,18.89,7.39L18.89,7.39z"/>
<polygon points="18.148,15.047 18.148,15.938 8.041,15.938 8.041,15.047 "/>
<path d="M23.172,18.988c-0.513-0.414-1.189-0.827-1.822-0.827c-1.055,0-1.643,0.678-1.643,1.574c0,0.828,0.648,1.441,2.004,2.519
	C23.156,23.414,24,24.476,24,25.965c0,1.841-1.582,3.034-3.269,3.034c-1.009,0-2.214-0.398-2.968-1.21l0.648-0.961
	c0.617,0.481,1.295,1.011,2.289,1.011c1.039,0,1.838-0.613,1.838-1.906c0-1.458-1.582-2.403-2.439-3.1
	c-0.874-0.745-1.854-1.457-1.854-3.098c0-1.559,1.371-2.735,3.013-2.735c1.099,0,2.019,0.43,2.604,1.162L23.172,18.988
	L23.172,18.988z"/>
<path d="M8.139,22.801c0-3.247,1.996-5.801,4.721-5.801c2.727,0,4.723,2.553,4.723,5.801c0,3.463-1.808,6.199-4.723,6.199
	C9.946,29,8.139,26.265,8.139,22.801L8.139,22.801z M16.139,22.801c0-2.17-0.944-4.639-3.279-4.639c-2.332,0-3.277,2.47-3.277,4.639
	c0,2.27,0.836,5.038,3.277,5.038C15.303,27.84,16.139,25.072,16.139,22.801L16.139,22.801z"/>
</svg>
