<?xml version="1.0" encoding="iso-8859-1"?>
<!-- Generator: Adobe Illustrator 19.1.0, SVG Export Plug-In . SVG Version: 6.00 Build 0)  -->
<svg version="1.1" id="Layer_1" xmlns="http://www.w3.org/2000/svg" xmlns:xlink="http://www.w3.org/1999/xlink" x="0px" y="0px"
	 viewBox="0 0 32 32" style="enable-background:new 0 0 32 32;" xml:space="preserve">
<path style="fill:none;stroke:#000000;stroke-width:2;stroke-miterlimit:10;" d="M26.414,10.1c0.781-0.781,0.781-2.047,0-2.828
	l-0.686-0.686c-0.781-0.781-2.047-0.781-2.828,0L21.485,8c0,0-3.161-1-5.485-1s-5.485,1-5.485,1L9.101,6.586
	c-0.781-0.781-2.047-0.781-2.828,0L5.586,7.272c-0.781,0.781-0.781,2.047,0,2.828l2.498,2.498C8.084,12.599,5,18,5,22l6,3
	c0,0,1.705,2,5,2s5-2,5-2l6-3c0-4-3.084-9.401-3.084-9.401L26.414,10.1z"/>
<circle cx="19.5" cy="15.5" r="1.5"/>
<circle cx="12.5" cy="15.5" r="1.5"/>
<path style="fill:none;stroke:#000000;stroke-width:2;stroke-miterlimit:10;" d="M11,25c0,0,0-4.998,3-7h4c3,2.06,3,7,3,7"/>
<polygon points="17.239,23 14.761,23 13.521,21 18.479,21 "/>
</svg>
