<?xml version="1.0" encoding="iso-8859-1"?>
<!-- Generator: Adobe Illustrator 19.1.0, SVG Export Plug-In . SVG Version: 6.00 Build 0)  -->
<svg version="1.1" id="Layer_1" xmlns="http://www.w3.org/2000/svg" xmlns:xlink="http://www.w3.org/1999/xlink" x="0px" y="0px"
	 viewBox="0 0 32 32" style="enable-background:new 0 0 32 32;" xml:space="preserve">
<path style="fill:none;stroke:#000000;stroke-width:2;stroke-miterlimit:10;" d="M23,10.798C23,6.799,21.833,4,21.833,4H10.167
	C10.167,4,9,6.666,9,10.798s2.333,6.665,2.333,12.13c0,0.4-0.117,1.066-0.233,1.733c-0.35,1.733,0.817,3.466,2.45,3.332
	c0.933-0.133,1.983-0.133,2.45-0.133c0.467,0,1.517,0,2.45,0.133c1.517,0.133,2.8-1.6,2.45-3.332
	c-0.117-0.666-0.233-1.333-0.233-1.733C20.667,17.463,23,14.797,23,10.798z"/>
<path style="fill:none;stroke:#000000;stroke-width:2;stroke-miterlimit:10;" d="M23,10h-4.2c0,0,0.2,3,0.2,3.5
	c0,0.8-0.7,1.5-1.5,1.5S16,14.3,16,13.5c0-0.5,0.2-3.5,0.2-3.5H11"/>
</svg>
