<?xml version="1.0" encoding="iso-8859-1"?>
<!-- Generator: Adobe Illustrator 19.1.1, SVG Export Plug-In . SVG Version: 6.00 Build 0)  -->
<svg version="1.1" id="Layer_1" xmlns="http://www.w3.org/2000/svg" xmlns:xlink="http://www.w3.org/1999/xlink" x="0px" y="0px"
	 viewBox="0 0 32 32" style="enable-background:new 0 0 32 32;" xml:space="preserve">
<circle cx="25" cy="7" r="2"/>
<path style="fill:none;stroke:#000000;stroke-width:2;stroke-miterlimit:10;" d="M17.871,26.871c-0.79-0.79-0.79-2.071,0-2.862
	L24,17.941c1.349-1.349,2-3.164,2-4.941c0-1.813-0.626-3.584-2-4.958l0,0C22.626,6.668,20.811,5.987,19,6
	c-1.777,0.013-3.551,0.693-4.899,2.042l-6.078,6.096c-0.79,0.79-2.071,0.79-2.862,0"/>
<polygon points="17.579,28.002 4.007,14.4 5.427,12.992 19,26.594 "/>
<circle style="fill:none;stroke:#000000;stroke-width:2;stroke-miterlimit:10;" cx="12" cy="25" r="2"/>
</svg>
