<?xml version="1.0" encoding="iso-8859-1"?>
<!-- Generator: Adobe Illustrator 19.1.1, SVG Export Plug-In . SVG Version: 6.00 Build 0)  -->
<svg version="1.1" id="Layer_1" xmlns="http://www.w3.org/2000/svg" xmlns:xlink="http://www.w3.org/1999/xlink" x="0px" y="0px"
	 viewBox="0 0 32 32" style="enable-background:new 0 0 32 32;" xml:space="preserve">
<polyline style="fill:none;stroke:#000000;stroke-width:2;stroke-miterlimit:10;" points="5,21.5 5,28 27,28 27,21.5 "/>
<rect x="14" y="12" style="fill:none;stroke:#000000;stroke-width:2;stroke-miterlimit:10;" width="4" height="4"/>
<path style="fill:none;stroke:#000000;stroke-width:2;stroke-miterlimit:10;" d="M18,8c0-1.1-2-4-2-4s-2,2.9-2,4s0.9,2,2,2
	S18,9.1,18,8z"/>
<rect x="7" y="12" style="fill:none;stroke:#000000;stroke-width:2;stroke-miterlimit:10;" width="4" height="4"/>
<path style="fill:none;stroke:#000000;stroke-width:2;stroke-miterlimit:10;" d="M11,8c0-1.1-2-4-2-4S7,6.9,7,8s0.9,2,2,2
	S11,9.1,11,8z"/>
<rect x="21" y="12" style="fill:none;stroke:#000000;stroke-width:2;stroke-miterlimit:10;" width="4" height="4"/>
<path style="fill:none;stroke:#000000;stroke-width:2;stroke-miterlimit:10;" d="M25,8c0-1.1-2-4-2-4s-2,2.9-2,4s0.9,2,2,2
	S25,9.1,25,8z"/>
<path style="fill:none;stroke:#000000;stroke-width:2;stroke-miterlimit:10;" d="M22,19c0,1.7,1.3,3,3,3s3-1.3,3-3s-1.3-3-3-3H7
	c-1.7,0-3,1.3-3,3s1.3,3,3,3s3-1.3,3-3"/>
<path style="fill:none;stroke:#000000;stroke-width:2;stroke-miterlimit:10;" d="M16,19c0,1.7,1.3,3,3,3s3-1.3,3-3"/>
<path style="fill:none;stroke:#000000;stroke-width:2;stroke-miterlimit:10;" d="M10,19c0,1.7,1.3,3,3,3s3-1.3,3-3"/>
</svg>
