<?xml version="1.0" encoding="iso-8859-1"?>
<!-- Generator: Adobe Illustrator 19.1.1, SVG Export Plug-In . SVG Version: 6.00 Build 0)  -->
<svg version="1.1" id="Layer_1" xmlns="http://www.w3.org/2000/svg" xmlns:xlink="http://www.w3.org/1999/xlink" x="0px" y="0px"
	 viewBox="0 0 32 32" style="enable-background:new 0 0 32 32;" xml:space="preserve">
<circle cx="16" cy="10" r="2"/>
<path style="fill:none;stroke:#000000;stroke-width:2;stroke-miterlimit:10;" d="M16,4h-2c0,0-9,7.625-9,10s2,3,2,3l3-4h12l3,4
	c0,0,2-0.625,2-3S18,4,18,4H16"/>
<path d="M10,13c0,0,1,3,6,3s6-3,6-3H10z"/>
<circle cx="13" cy="16" r="1"/>
<path d="M21,16c0,0-1.448,1-2,1s-1-0.448-1-1c0-0.552,0.448-1,1-1S21,16,21,16z"/>
<polyline style="fill:none;stroke:#000000;stroke-width:2;stroke-miterlimit:10;" points="25,17 25,19 22,22 19,19 13,19 10,22 
	7,19 7,17 "/>
<polyline style="fill:none;stroke:#000000;stroke-width:2;stroke-miterlimit:10;" points="8,20 8,24 10,26 11,26 14,23 18,23 21,26 
	22,26 24,24 24,20 "/>
<polyline style="fill:none;stroke:#000000;stroke-width:2;stroke-miterlimit:10;" points="12,26 15,28 17,28 20,26 "/>
</svg>
