<?xml version="1.0" encoding="iso-8859-1"?>
<!-- Generator: Adobe Illustrator 19.1.1, SVG Export Plug-In . SVG Version: 6.00 Build 0)  -->
<svg version="1.1" id="Layer_1" xmlns="http://www.w3.org/2000/svg" xmlns:xlink="http://www.w3.org/1999/xlink" x="0px" y="0px"
	 viewBox="0 0 32 32" style="enable-background:new 0 0 32 32;" xml:space="preserve">
<g>
	<path d="M24.933,3.214c0.029-0.006,0.072-0.048,0.072-0.074C25.01,2.763,25.009,2.386,25.009,2
		c-0.384,0.082-0.746,0.156-1.105,0.24c-0.041,0.01-0.099,0.066-0.1,0.102c-0.008,0.357-0.004,0.714-0.004,1.099
		C24.2,3.362,24.567,3.29,24.933,3.214z"/>
	<path d="M24.892,28.778c-0.231-0.052-0.464-0.096-0.696-0.141c-0.127-0.024-0.254-0.047-0.396-0.073
		c0,0.378-0.003,0.73,0.003,1.082c0.001,0.037,0.04,0.1,0.072,0.107c0.371,0.085,0.743,0.163,1.135,0.247
		c0-0.385,0.003-0.758-0.005-1.131C25.004,28.837,24.936,28.788,24.892,28.778z"/>
	<path d="M19.295,27.846c0,0.38,0,0.746,0,1.112v0.001c0.405,0.06,0.798,0.117,1.2,0.177v-0.001c0-0.38,0-0.743,0-1.127
		C20.089,27.952,19.695,27.899,19.295,27.846C19.295,27.845,19.295,27.846,19.295,27.846z"/>
	<path d="M17.455,4.3c0.005-0.338,0.003-0.677,0.003-1.029c-0.425,0.043-0.825,0.084-1.223,0.125c0,0.366,0,0.716,0,1.081
		c0.389-0.035,0.768-0.068,1.146-0.107C17.409,4.367,17.455,4.325,17.455,4.3z"/>
	<path d="M15.546,27.471c-0.275-0.025-0.551-0.043-0.836-0.064l0,0H14.71c0,0.366,0,0.711,0,1.073
		c0.404,0.032,0.8,0.063,1.216,0.096c0-0.245,0-0.475,0-0.706C15.926,27.508,15.926,27.506,15.546,27.471z"/>
	<path d="M23.795,26.868c0.007,0.036,0.019,0.068,0.04,0.093c0.074,0.093,0.296,0.081,0.455,0.11
		c0.235,0.043,0.47,0.081,0.709,0.121c0-0.369,0-0.712,0-1.06c-0.398-0.063-0.784-0.124-1.198-0.188
		c0,0.103-0.001,0.198-0.001,0.289c0,0.091,0,0.18,0.001,0.267C23.802,26.619,23.774,26.761,23.795,26.868z"/>
	<path d="M25.32,26.187c0,0.364,0,0.709,0,1.066v0.001c0.392,0.076,0.781,0.151,1.178,0.228V27.48c0-0.367,0-0.719,0-1.088
		C26.101,26.322,25.715,26.255,25.32,26.187C25.32,26.186,25.32,26.187,25.32,26.187z"/>
	<path d="M25.314,4.477c0.407-0.081,0.791-0.158,1.182-0.236c-0.001-0.359-0.001-0.71-0.001-1.088
		c-0.374,0.08-0.741,0.157-1.106,0.239c-0.029,0.007-0.072,0.046-0.072,0.071C25.312,3.797,25.313,4.131,25.314,4.477L25.314,4.477
		L25.314,4.477z"/>
	<path d="M16.235,26.323c0,0.333,0,0.639,0,0.954v0.001c0.405,0.037,0.801,0.072,1.213,0.11c0-0.337,0-0.646,0-0.966v-0.001
		C17.036,26.389,16.637,26.356,16.235,26.323L16.235,26.323z"/>
	<path d="M23.497,2.325c-0.271,0.052-0.532,0.101-0.792,0.152c-0.414,0.082-0.414,0.083-0.414,0.488c0,0.245,0,0.489,0,0.747
		c0.421-0.075,0.812-0.144,1.206-0.214C23.497,3.092,23.497,2.713,23.497,2.325z"/>
	<path d="M22.294,29.364c0.001,0.032,0.04,0.085,0.07,0.091c0.373,0.076,0.748,0.146,1.133,0.219c0-0.396,0-0.78,0-1.174
		c-0.398-0.07-0.789-0.139-1.206-0.212C22.291,28.671,22.289,29.018,22.294,29.364z"/>
	<path d="M21.996,3.687c0.008-0.351,0.005-0.703,0.005-1.074l0,0l0,0c-0.398,0.066-0.773,0.127-1.148,0.194
		c-0.025,0.004-0.058,0.054-0.058,0.083c-0.004,0.346-0.003,0.692-0.003,1.058c0.385-0.059,0.74-0.111,1.093-0.171
		C21.928,3.771,21.995,3.72,21.996,3.687z"/>
	<path d="M15.917,3.423c-0.415,0.033-0.81,0.066-1.206,0.098c0,0.363,0,0.707,0,1.069c0.407-0.029,0.802-0.057,1.206-0.086
		C15.917,4.14,15.917,3.79,15.917,3.423z"/>
	<path d="M17.761,28.763c0.405,0.05,0.799,0.099,1.203,0.149c0-0.377,0-0.738,0-1.109c-0.403-0.046-0.798-0.089-1.203-0.135
		C17.761,28.041,17.761,28.392,17.761,28.763z"/>
	<path d="M18.964,3.087c-0.409,0.051-0.807,0.101-1.199,0.15c0,0.373,0,0.727,0,1.095c0.408-0.046,0.803-0.091,1.199-0.136
		C18.964,3.819,18.964,3.458,18.964,3.087z"/>
	<path d="M14.391,3.544c-0.405,0.021-0.798,0.042-1.207,0.063c0,0.365,0,0.712,0,1.069c0.414-0.023,0.811-0.044,1.207-0.066
		C14.391,4.246,14.391,3.901,14.391,3.544z"/>
	<path d="M13.173,28.303c0.001,0.034,0.074,0.089,0.118,0.094c0.178,0.019,0.357,0.024,0.537,0.032
		c0.188,0.009,0.376,0.018,0.566,0.026c0-0.363,0-0.707,0-1.068c-0.416-0.02-0.812-0.04-1.225-0.06
		C13.168,27.668,13.164,27.986,13.173,28.303z"/>
	<path d="M10.124,28.316c0.406,0,0.802,0,1.207,0c0-0.341,0-0.685,0-1.046c-0.403,0-0.8,0-1.207,0
		C10.124,27.608,10.124,27.947,10.124,28.316z"/>
	<path d="M11.654,28.352c0.414,0,0.81,0,1.205,0c0-0.344,0-0.684,0-1.047c-0.405,0-0.802,0-1.205,0
		C11.654,27.64,11.654,27.98,11.654,28.352z"/>
	<path d="M11.331,3.686c-0.407,0-0.803,0-1.202,0c0,0.36,0,0.703,0,1.043c0.408,0,0.8,0,1.202,0
		C11.331,4.365,11.331,4.025,11.331,3.686z"/>
	<path d="M9.793,3.682c-0.409,0-0.806,0-1.206,0c0,0.352,0,0.692,0,1.046c0.405,0,0.803,0,1.206,0
		C9.793,4.381,9.793,4.039,9.793,3.682z"/>
	<path d="M23.814,6.055c0.407-0.065,0.798-0.126,1.191-0.188c0-0.357,0-0.696,0-1.063c-0.412,0.072-0.807,0.142-1.191,0.21
		C23.814,5.371,23.814,5.703,23.814,6.055z"/>
	<path d="M25.322,5.815c0.401-0.071,0.791-0.141,1.174-0.209c0-0.376,0-0.727,0-1.088c-0.398,0.077-0.787,0.153-1.174,0.229
		C25.322,5.109,25.322,5.454,25.322,5.815z"/>
	<path d="M22.298,6.271c0.412-0.058,0.805-0.113,1.195-0.168V6.102c0-0.351,0-0.687,0-1.037V5.065
		c-0.407,0.063-0.798,0.124-1.195,0.185V5.25C22.298,5.591,22.298,5.919,22.298,6.271z"/>
	<path d="M23.492,25.896c-0.402-0.056-0.791-0.111-1.191-0.167v0.001c0,0.347,0,0.679,0,1.02v0.001
		c0.398,0.061,0.786,0.121,1.191,0.183C23.492,26.575,23.492,26.237,23.492,25.896C23.492,25.897,23.492,25.896,23.492,25.896z"/>
	<path d="M22.3,28.03c0.399,0.069,0.79,0.138,1.195,0.208c0-0.352,0-0.691,0-1.038c-0.4-0.063-0.791-0.125-1.195-0.189
		C22.3,27.358,22.3,27.69,22.3,28.03z"/>
	<path d="M23.497,3.763c-0.373,0.065-0.739,0.125-1.102,0.193c-0.038,0.007-0.099,0.052-0.099,0.081
		c-0.007,0.312-0.004,0.623-0.004,0.954C22.709,4.925,23.1,4.863,23.497,4.8C23.497,4.448,23.497,4.109,23.497,3.763z"/>
	<path d="M17.109,25.189c-0.035-0.003-0.069-0.01-0.103-0.013c-0.256-0.017-0.513-0.033-0.775-0.051c0,0.329,0,0.63,0,0.953
		c0.415,0.033,0.814,0.065,1.208,0.096c0.011-0.03,0.018-0.041,0.018-0.051c0.001-0.187,0.003-0.374,0.003-0.561
		C17.46,25.221,17.459,25.221,17.109,25.189z"/>
	<path d="M5.213,7.207C4.808,7.186,4.412,7.165,4.009,7.144c0,0.326,0,0.631,0,0.951c0.406,0.021,0.802,0.04,1.204,0.061
		C5.213,7.83,5.213,7.524,5.213,7.207z"/>
	<path d="M4.009,25.103c0,0.32,0,0.626,0,0.954c0.41-0.027,0.805-0.053,1.206-0.079v-0.001c0-0.321,0-0.626,0-0.946v-0.001
		C4.808,25.055,4.413,25.079,4.009,25.103L4.009,25.103z"/>
	<path d="M4.094,10.493c0.369,0.005,0.737,0.003,1.116,0.003c0-0.286,0-0.595,0-0.929c-0.405,0-0.797,0-1.209,0
		c0,0.275-0.003,0.565,0.004,0.855C4.005,10.446,4.063,10.492,4.094,10.493z"/>
	<path d="M5.212,10.757c-0.406,0-0.799,0-1.202,0c0,0.296,0,0.603,0,0.943c0.408,0,0.8,0,1.202,0
		C5.212,11.398,5.212,11.088,5.212,10.757z"/>
	<path d="M4.01,24.859c0.407-0.024,0.802-0.046,1.206-0.069c0-0.318,0-0.619,0-0.947c-0.413,0.022-0.809,0.043-1.206,0.064
		C4.01,24.234,4.01,24.54,4.01,24.859z"/>
	<path d="M5.216,13.14c-0.412,0-0.803,0-1.204,0c0,0.311,0,0.62,0,0.943c0.408,0,0.805,0,1.204,0
		C5.216,13.767,5.216,13.467,5.216,13.14z"/>
	<path d="M4.013,18.849c0.409,0,0.805,0,1.204,0c0-0.322,0-0.618,0-0.923c-0.413,0-0.809,0-1.204,0
		C4.013,18.249,4.013,18.559,4.013,18.849z"/>
	<path d="M4.009,20.044c0.407,0,0.803,0,1.204,0c0-0.329,0-0.634,0-0.929c-0.407,0-0.802,0-1.204,0
		C4.009,19.443,4.009,19.748,4.009,20.044z"/>
	<path d="M10.128,7.073c0.411,0,0.807,0,1.207,0c0-0.314,0-0.611,0-0.918c-0.414,0-0.811,0-1.207,0
		C10.128,6.474,10.128,6.778,10.128,7.073z"/>
	<path d="M9.796,6.153c-0.409,0-0.805,0-1.208,0c0,0.31,0,0.611,0,0.925c0.405,0,0.802,0,1.208,0
		C9.796,6.775,9.796,6.475,9.796,6.153z"/>
	<path d="M8.59,12.939c0.407,0,0.803,0,1.203,0c0-0.313,0-0.616,0-0.919c-0.409,0-0.805,0-1.203,0
		C8.59,12.332,8.59,12.632,8.59,12.939z"/>
	<path d="M9.797,19.06c-0.406,0-0.803,0-1.208,0c0,0.314,0,0.614,0,0.92c0.415,0,0.812,0,1.208,0
		C9.797,19.663,9.797,19.362,9.797,19.06z"/>
	<path d="M7.056,15.284c0.407,0,0.804,0,1.209,0c0-0.307,0-0.609,0-0.926c-0.41,0-0.807,0-1.209,0
		C7.056,14.67,7.056,14.971,7.056,15.284z"/>
	<path d="M8.594,15.285c0.41,0,0.807,0,1.202,0c0-0.312,0-0.613,0-0.919c-0.407,0-0.804,0-1.202,0
		C8.594,14.68,8.594,14.983,8.594,15.285z"/>
	<path d="M6.731,13.168c-0.403,0-0.8,0-1.198,0c0,0.308,0,0.609,0,0.926c0.405,0,0.801,0,1.198,0
		C6.731,13.787,6.731,13.485,6.731,13.168z"/>
	<path d="M8.262,16.719c-0.411,0-0.808,0-1.209,0c0,0.313,0,0.615,0,0.923c0.405,0,0.802,0,1.209,0
		C8.262,17.331,8.262,17.03,8.262,16.719z"/>
	<path d="M8.595,17.634c0.411,0,0.807,0,1.207,0c0-0.309,0-0.605,0-0.918c-0.413,0-0.81,0-1.207,0
		C8.595,17.03,8.595,17.334,8.595,17.634z"/>
	<path d="M5.533,18.829c0.405,0,0.8,0,1.2,0c0-0.315,0-0.617,0-0.92c-0.413,0-0.807,0-1.2,0C5.533,18.23,5.533,18.53,5.533,18.829z"
		/>
	<path d="M6.73,16.47c0-0.315,0-0.62,0-0.929c-0.403,0-0.798,0-1.193,0c0,0.316,0,0.62,0,0.929C5.942,16.47,6.333,16.47,6.73,16.47z
		"/>
	<path d="M5.532,20.011c0.405,0,0.8,0,1.197,0c0-0.323,0-0.623,0-0.916c-0.405,0-0.8,0-1.197,0
		C5.532,19.417,5.532,19.717,5.532,20.011z"/>
	<path d="M5.532,25.961c0.405-0.018,0.801-0.035,1.197-0.053c0-0.321,0-0.622,0-0.942C6.324,24.983,5.928,25,5.532,25.017
		C5.532,25.342,5.532,25.643,5.532,25.961z"/>
	<path d="M7.06,23.516c0.41,0,0.807,0,1.206,0c0-0.322,0-0.618,0-0.914c-0.415,0-0.812,0-1.206,0
		C7.06,22.926,7.06,23.23,7.06,23.516z"/>
	<path d="M6.725,7.252c-0.403,0-0.794,0-1.193,0c0,0.292,0,0.592,0,0.932c0.407,0,0.802,0,1.193,0
		C6.725,7.886,6.725,7.581,6.725,7.252z"/>
	<path d="M7.055,21.165c0.415,0,0.811,0,1.207,0c0-0.321,0-0.621,0-0.917c-0.407,0-0.803,0-1.207,0
		C7.055,20.565,7.055,20.865,7.055,21.165z"/>
	<path d="M5.534,22.375c0.406,0,0.801,0,1.195,0c0-0.329,0-0.629,0-0.922c-0.404,0-0.799,0-1.195,0
		C5.534,21.784,5.534,22.089,5.534,22.375z"/>
	<path d="M11.329,24.924c-0.408,0-0.805,0-1.206,0c0,0.309,0,0.61,0,0.922c0.418,0,0.814,0,1.206,0
		C11.329,25.535,11.329,25.235,11.329,24.924z"/>
	<path d="M8.592,25.845c0.408,0,0.805,0,1.206,0c0-0.313,0-0.614,0-0.919c-0.404,0-0.8,0-1.206,0
		C8.592,25.25,8.592,25.549,8.592,25.845z"/>
	<path d="M5.532,23.565c0.401,0,0.793,0,1.197,0c0-0.337,0-0.637,0-0.922c-0.405,0-0.8,0-1.197,0
		C5.532,22.972,5.532,23.272,5.532,23.565z"/>
	<path d="M8.265,9.657c-0.404,0-0.801,0-1.207,0c0,0.307,0,0.607,0,0.924c0.408,0,0.804,0,1.207,0
		C8.265,10.278,8.265,9.977,8.265,9.657z"/>
	<path d="M6.727,8.437c-0.406,0-0.8,0-1.197,0c0,0.302,0,0.597,0,0.926c0.408,0,0.799,0,1.197,0
		C6.727,9.066,6.727,8.763,6.727,8.437z"/>
	<path d="M5.537,11.98c0,0.315,0,0.62,0,0.935c0.401,0,0.788,0,1.188,0c0-0.313,0-0.617,0-0.935
		C6.319,11.98,5.928,11.98,5.537,11.98z"/>
	<path d="M7.054,18.81c0.408,0,0.809,0,1.213,0c0-0.314,0-0.61,0-0.914c-0.414,0-0.811,0-1.213,0
		C7.054,18.21,7.054,18.51,7.054,18.81z"/>
	<path d="M8.265,7.304c-0.401,0-0.798,0-1.207,0c0,0.299,0,0.603,0,0.926c0.408,0,0.803,0,1.207,0
		C8.265,7.929,8.265,7.629,8.265,7.304z"/>
	<path d="M5.538,20.268c0,0.336,0,0.64,0,0.93c0.406,0,0.796,0,1.19,0c0-0.328,0-0.632,0-0.93
		C6.326,20.268,5.936,20.268,5.538,20.268z"/>
	<path d="M7.055,25.868c0.414,0,0.81,0,1.207,0c0-0.325,0-0.625,0-0.914c-0.407,0-0.803,0-1.207,0
		C7.055,25.275,7.055,25.575,7.055,25.868z"/>
	<path d="M7.06,27.048c0.411,0,0.807,0,1.207,0c0-0.325,0-0.622,0-0.92c-0.412,0-0.809,0-1.207,0
		C7.06,26.458,7.06,26.763,7.06,27.048z"/>
	<path d="M7.055,24.693c0.41,0,0.81,0,1.206,0c0-0.326,0-0.626,0-0.917c-0.408,0-0.804,0-1.206,0
		C7.055,24.1,7.055,24.4,7.055,24.693z"/>
	<path d="M8.59,11.766c0.406,0,0.802,0,1.207,0c0-0.302,0-0.603,0-0.922c-0.411,0-0.807,0-1.207,0
		C8.59,11.153,8.59,11.452,8.59,11.766z"/>
	<path d="M7.061,11.757c0.407,0,0.798,0,1.2,0c0-0.315,0-0.614,0-0.927c-0.408,0-0.805,0-1.2,0
		C7.061,11.14,7.061,11.444,7.061,11.757z"/>
	<path d="M8.591,16.457c0.407,0,0.803,0,1.207,0c0-0.308,0-0.607,0-0.917c-0.404,0-0.8,0-1.207,0
		C8.591,15.854,8.591,16.153,8.591,16.457z"/>
	<path d="M11.329,27.019c0-0.312,0-0.612,0-0.92c-0.404,0-0.796,0-1.202,0c0,0.31,0,0.609,0,0.92
		C10.535,27.019,10.931,27.019,11.329,27.019z"/>
	<path d="M11.327,4.988c-0.411,0-0.809,0-1.205,0c0,0.311,0,0.607,0,0.907c0.417,0,0.815,0,1.205,0
		C11.327,5.579,11.327,5.279,11.327,4.988z"/>
	<path d="M8.261,13.184c-0.408,0-0.804,0-1.206,0c0,0.312,0,0.612,0,0.922c0.405,0,0.802,0,1.206,0
		C8.261,13.797,8.261,13.493,8.261,13.184z"/>
	<path d="M9.795,20.235c-0.404,0-0.797,0-1.204,0c0,0.318,0,0.618,0,0.917c0.408,0,0.806,0,1.204,0
		C9.795,20.839,9.795,20.538,9.795,20.235z"/>
	<path d="M27.953,20.26c-0.075-0.709-0.273-1.381-0.651-2.004c-0.118-0.194-0.241-0.308-0.498-0.285
		c-0.212,0.019-0.428-0.013-0.643-0.023c-0.276-0.012-0.552-0.024-0.838-0.037c0-0.393-0.006-0.767,0.004-1.141
		c0.003-0.116-0.039-0.172-0.147-0.202c-0.477-0.134-0.952-0.279-1.433-0.401c-0.277-0.07-0.565-0.102-0.855-0.152
		c0-0.133,0-0.254,0-0.375c0-0.433,0.001-0.431,0.437-0.575c0.758-0.25,1.508-0.514,2.151-0.99c0.719-0.533,1.235-1.206,1.54-2.02
		c0.276-0.735,0.3-1.5,0.242-2.269c-0.045-0.59-0.187-1.161-0.48-1.688c-0.23-0.413-0.559-0.746-0.979-0.989
		c-0.891-0.513-1.872-0.651-2.895-0.597c-0.299,0.016-0.598,0.035-0.901,0.052c-0.006-0.096-0.011-0.175-0.016-0.258
		c-0.399,0.047-0.781,0.093-1.168,0.138c0-0.341,0-0.654,0-0.976c0.394-0.055,0.782-0.11,1.17-0.165c0-0.435,0-0.852,0-1.265
		c-1.415,0.187-2.824,0.373-4.244,0.561c0,0.8,0,1.598,0,2.424c-0.889,0.038-1.767,0.075-2.656,0.113c0-0.334,0-0.646,0-0.967
		c0.382-0.021,0.755-0.041,1.124-0.06c0-0.478,0-0.931,0-1.365c-1.531,0.08-3.045,0.159-4.577,0.239c0,0.775,0,1.544,0,2.329
		c-1.025,0-2.033,0-3.051,0c0,0.399,0,0.781,0,1.193c0.401,0,0.793,0,1.186,0c0,0.329,0,0.628,0,0.922c-0.406,0-0.798,0-1.184,0
		c0,0.392,0,0.775,0,1.175c0.51,0,1.007,0,1.527,0c0,1.264,0,2.511,0,3.773c0.403,0,0.784,0,1.166,0c0,0.309,0,0.603,0,0.913
		c-0.393,0-0.774,0-1.163,0c0,0.483,0,0.948,0,1.435c0.394,0,0.779,0,1.168,0c0,0.311,0,0.601,0,0.914c-0.392,0-0.778,0-1.183,0
		c0,1.264,0,2.507,0,3.766c-0.518,0-1.015,0-1.515,0c0,0.802,0,1.587,0,2.373c0.393,0,0.774,0,1.178,0c0,0.302,0,0.595,0,0.912
		c0.636,0,1.25,0,1.884,0c0,0.798,0,1.572,0,2.34c1.034,0.043,2.046,0.086,3.084,0.129c0-0.303,0-0.596,0-0.901
		c0.405,0.033,0.784,0.065,1.184,0.097c0-0.504,0-0.992,0-1.499c0.621,0.045,1.22,0.088,1.836,0.133c0,0.819,0,1.621,0,2.412
		c1.422,0.187,2.827,0.373,4.246,0.561c0-0.841,0-1.677,0-2.529c0.254,0.017,0.48,0.032,0.705,0.047
		c0.779,0.052,1.552,0.042,2.315-0.152c1.407-0.357,2.364-1.15,2.748-2.511C28.011,21.976,28.044,21.121,27.953,20.26z
		 M25.337,8.588c0.375-0.052,0.756-0.105,1.159-0.161c0,0.369,0,0.725,0,1.101c-0.38,0.044-0.762,0.089-1.159,0.135
		C25.337,9.303,25.337,8.955,25.337,8.588z M25.332,11.337c0.386-0.034,0.765-0.068,1.158-0.103c0,0.365,0,0.724,0,1.102
		c-0.38,0.024-0.763,0.048-1.158,0.073C25.332,12.037,25.332,11.692,25.332,11.337z M13.199,8.403
		c0.403-0.019,0.794-0.037,1.194-0.055c0,0.319,0,0.619,0,0.935c-0.399,0.017-0.791,0.034-1.194,0.051
		C13.199,9.022,13.199,8.722,13.199,8.403z M13.924,12.028c0,0.296,0,0.589,0,0.897c-0.388,0-0.778,0-1.182,0
		c0-0.292,0-0.585,0-0.897C13.137,12.028,13.524,12.028,13.924,12.028z M11.68,8.446c0.394,0,0.78,0,1.177,0
		c0,0.285,0,0.584,0,0.908c-0.392,0-0.778,0-1.177,0C11.68,9.071,11.68,8.772,11.68,8.446z M11.03,11.757c0-0.304,0-0.6,0-0.905
		c0.393,0,0.784,0,1.188,0c0,0.306,0,0.6,0,0.905C11.814,11.757,11.427,11.757,11.03,11.757z M11.332,23.513
		c-0.395,0-0.785,0-1.186,0c0-0.289,0-0.589,0-0.907c0.394,0,0.78,0,1.186,0C11.332,22.901,11.332,23.195,11.332,23.513z
		 M12.557,21.147c-0.399,0-0.791,0-1.192,0c0-0.295,0-0.589,0-0.899c0.394,0,0.784,0,1.192,0
		C12.557,20.546,12.557,20.841,12.557,21.147z M12.558,19.97c-0.398,0-0.788,0-1.191,0c0-0.293,0-0.587,0-0.898
		c0.395,0,0.786,0,1.191,0C12.558,19.373,12.558,19.663,12.558,19.97z M12.596,15.543c0.391,0,0.781,0,1.18,0
		c0,0.302,0,0.602,0,0.912c-0.39,0-0.775,0-1.18,0C12.596,16.149,12.596,15.853,12.596,15.543z M14.398,25.839
		c-0.396,0-0.791,0-1.196,0c0-0.304,0-0.593,0-0.898c0.396,0,0.791,0,1.196,0C14.398,25.239,14.398,25.534,14.398,25.839z
		 M15.432,10.051c0.101-0.006,3.312-0.158,3.699-0.167c2.504-0.06,2.437,0.961,2.455,1.704c0.033,1.364-0.566,2.591-3.577,2.812
		c-0.102,0.007-2.541,0.104-2.576,0.104C15.432,13.015,15.432,11.539,15.432,10.051z M17.485,23.649
		c-0.198-0.009-0.981-0.043-1.181-0.052c0-0.306,0-0.611,0-0.9c0.391,0,0.782,0,1.181,0C17.485,23.027,17.485,23.328,17.485,23.649z
		 M20.532,23.855c-0.292-0.021-1.08-0.08-1.181-0.087c0-0.314,0-0.623,0-0.952c0.3,0.02,0.592,0.039,0.886,0.058
		c0.098,0.007,0.196,0.013,0.295,0.019C20.532,23.215,20.532,23.525,20.532,23.855z M22.18,20.889
		c-0.072,0.26-0.278,1.233-2.694,1.231c-0.592-0.001-3.968-0.132-4.055-0.132c0-1.503,0-2.967,0-4.454
		c0.075,0,2.221,0.043,2.577,0.061c3.767,0.19,3.858,0.879,4.241,2.162C22.358,20.125,22.284,20.517,22.18,20.889z M26.495,22.167
		c-0.388-0.043-0.766-0.085-1.157-0.128c0-0.353,0-0.702,0-1.076c0.38,0.035,0.762,0.069,1.157,0.105
		C26.495,21.444,26.495,21.799,26.495,22.167z"/>
</g>
</svg>
