<?xml version="1.0" encoding="iso-8859-1"?>
<!-- Generator: Adobe Illustrator 19.1.1, SVG Export Plug-In . SVG Version: 6.00 Build 0)  -->
<svg version="1.1" id="Layer_1" xmlns="http://www.w3.org/2000/svg" xmlns:xlink="http://www.w3.org/1999/xlink" x="0px" y="0px"
	 viewBox="0 0 32 32" style="enable-background:new 0 0 32 32;" xml:space="preserve">
<circle cx="21.5" cy="17.5" r="1.5"/>
<path d="M16,13h-2c-2.167,0-1.542-1-3-1c-1.042,0-1,0-1,0s-3,0.417-3,6c0,5.583,4,5,4,5h1h3c0,0,3-0.125,3-5S16,13,16,13z M14.5,19
	c-0.828,0-1.5-0.672-1.5-1.5s0.672-1.5,1.5-1.5s1.5,0.672,1.5,1.5S15.328,19,14.5,19z"/>
<path style="fill:none;stroke:#000000;stroke-width:2;stroke-miterlimit:10;" d="M25.923,15.16C25.968,14.46,26,13.746,26,13
	c0-4.418-3.582-8-8-8s-8,3.582-8,8c0,9.125,3.582,15,8,15c2.941,0,5.505-2.578,6.895-7.011C24.93,20.991,24.964,21,25,21
	c1.657,0,3-1.343,3-3C28,16.667,27.125,15.551,25.923,15.16z"/>
<path style="fill:none;stroke:#000000;stroke-width:2;stroke-miterlimit:10;" d="M14,6c0,0-10,0.667-10,8c0,4.625,6,4,6,4"/>
</svg>
