<?xml version="1.0" encoding="iso-8859-1"?>
<!-- Generator: Adobe Illustrator 21.0.0, SVG Export Plug-In . SVG Version: 6.00 Build 0)  -->
<svg version="1.1" id="Layer_1" xmlns="http://www.w3.org/2000/svg" xmlns:xlink="http://www.w3.org/1999/xlink" x="0px" y="0px"
	 viewBox="0 0 32 32" style="enable-background:new 0 0 32 32;" xml:space="preserve">
<rect x="5" y="18" style="fill:none;stroke:#000000;stroke-width:2;stroke-miterlimit:10;" width="22" height="6"/>
<g>
	<rect x="6" y="25" style="fill:#FFFFFF;" width="4" height="2"/>
	<polygon points="10,25 6,25 6,27 10,27 10,25 	"/>
</g>
<g>
	<rect x="14" y="25" style="fill:#FFFFFF;" width="4" height="2"/>
	<polygon points="18,25 14,25 14,27 18,27 18,25 	"/>
</g>
<g>
	<rect x="22" y="25" style="fill:#FFFFFF;" width="4" height="2"/>
	<polygon points="26,25 22,25 22,27 26,27 26,25 	"/>
</g>
<rect x="6" y="14" width="4" height="4"/>
<rect x="6" y="6" style="fill:none;stroke:#000000;stroke-width:2;stroke-miterlimit:10;" width="4" height="8"/>
<rect x="14" y="6" style="fill:none;stroke:#000000;stroke-width:2;stroke-miterlimit:10;" width="4" height="8"/>
<rect x="22" y="6" style="fill:none;stroke:#000000;stroke-width:2;stroke-miterlimit:10;" width="4" height="8"/>
<rect x="22" y="14" width="4" height="4"/>
<rect x="14" y="14" width="4" height="4"/>
</svg>
