<?xml version="1.0" encoding="iso-8859-1"?>
<!-- Generator: Adobe Illustrator 19.1.1, SVG Export Plug-In . SVG Version: 6.00 Build 0)  -->
<svg version="1.1" id="Layer_1" xmlns="http://www.w3.org/2000/svg" xmlns:xlink="http://www.w3.org/1999/xlink" x="0px" y="0px"
	 viewBox="0 0 32 32" style="enable-background:new 0 0 32 32;" xml:space="preserve">
<path style="fill-rule:evenodd;clip-rule:evenodd;" d="M0,13.859L0,13.859c4.443-0.176,19.712-0.776,21.51-0.847
	c1.798-0.071,5.219-0.035,5.995,0.176c0.776,0.212,1.798,0.318,2.574,0.988c0.776,0.671,1.675,2.118,1.921,3.071
	c-0.491-0.665-1.105-1.097-1.78-1.2c-1.846-0.281-3.562-0.176-7.969-0.141c-4.408,0.035-9.979,0.106-13.505-0.247
	C5.219,15.306,2.08,14.529,0,13.859"/>
<path style="fill-rule:evenodd;clip-rule:evenodd;" d="M30.925,18.039c-0.285-0.389-0.608-0.628-0.906-0.673
	c-0.694-0.106-1.384-0.152-2.246-0.167c-0.336,0.167-0.647,0.311-0.868,0.402c-0.841,0.346-3.541,1.274-5.995,2.083
	c1.546,0.404,3.412,0.882,5.766,1.339c1.32-0.499,3.607-1.479,4.672-2.409L30.925,18.039z"/>
</svg>
