<?xml version="1.0" encoding="iso-8859-1"?>
<!-- Generator: Adobe Illustrator 19.1.1, SVG Export Plug-In . SVG Version: 6.00 Build 0)  -->
<svg version="1.1" id="Layer_1" xmlns="http://www.w3.org/2000/svg" xmlns:xlink="http://www.w3.org/1999/xlink" x="0px" y="0px"
	 viewBox="-7 9 32 32" style="enable-background:new -7 9 32 32;" xml:space="preserve">
<path d="M21,22.437c0-1.988-1.328-3.72-3.185-4.28C17.038,15.713,14.693,14,12,14c-1.101,0-2.17,0.307-3.105,0.88
	C7.959,13.711,6.529,13,5,13c-2.444,0-4.484,1.763-4.916,4.084C-2.237,17.516-4,19.556-4,22c0,2.757,2.243,5,5,5
	c0.276,0,0.55-0.03,0.822-0.077C3.539,28.922,5,32.992,5,36v1h8v-1c0-3.072,1.266-6.254,3.554-9.013
	C18.935,26.919,21,24.828,21,22.437z M11.037,35H6.959c-0.185-2.341-0.984-4.958-2.087-7.059C5.08,27.97,5.287,28,5.5,28
	c0.926,0,1.785-0.28,2.5-0.762V32h2v-4.786C10.722,27.708,11.584,28,12.5,28c0.323,0,0.638-0.044,0.946-0.111
	C12.053,30.149,11.217,32.583,11.037,35z M16.437,25c-0.189,0-0.396-0.068-0.738-0.242l-0.732-0.373l-0.508,0.646
	C13.975,25.647,13.261,26,12.5,26c-1.218,0-2.275-0.924-2.459-2.149L9.913,23H8.078l-0.125,0.856C7.772,25.098,6.741,26,5.5,26
	c-0.781,0-1.505-0.365-1.986-1.002l-0.492-0.651l-0.737,0.352C1.865,24.898,1.432,25,1,25c-1.654,0-3-1.346-3-3s1.346-3,3-3h1v-1
	c0-1.654,1.346-3,3-3c1.151,0,2.207,0.677,2.702,1.724C7.763,16.91,8,17.725,8,19h2c0-1-0.119-1.768-0.234-2.287
	C10.429,16.257,11.201,16,12,16c1.972,0,3.661,1.341,4.019,3.189l0.136,0.704l0.71,0.097C18.062,20.154,19,21.229,19,22.437
	C19,23.778,17.778,25,16.437,25z"/>
</svg>
