<?xml version="1.0" encoding="iso-8859-1"?>
<!-- Generator: Adobe Illustrator 21.0.2, SVG Export Plug-In . SVG Version: 6.00 Build 0)  -->
<svg version="1.1" id="Layer_1" xmlns="http://www.w3.org/2000/svg" xmlns:xlink="http://www.w3.org/1999/xlink" x="0px" y="0px"
	 viewBox="0 0 32 32" style="enable-background:new 0 0 32 32;" xml:space="preserve">
<circle cx="9" cy="15" r="1"/>
<circle cx="15" cy="15" r="1"/>
<path style="fill:none;stroke:#000000;stroke-width:2;stroke-miterlimit:10;" d="M15,5c0.017,0.148,0.032,0.289,0.031,0.422
	C15,10,8,6,8,11"/>
<g>
	<rect x="16" y="22" style="fill:none;stroke:#000000;stroke-width:2;stroke-miterlimit:10;" width="13" height="7"/>
	<circle cx="22.5" cy="25.5" r="1.5"/>
	<circle cx="25.5" cy="25.5" r="0.5"/>
	<circle cx="19.5" cy="25.5" r="0.5"/>
	<circle cx="28.5" cy="22.5" r="1.5"/>
	<circle cx="28.5" cy="28.5" r="1.5"/>
	<circle cx="16.5" cy="22.5" r="1.5"/>
	<circle cx="16.5" cy="28.5" r="1.5"/>
</g>
<path d="M12,21c1.105,0,2-0.895,2-2h-4C10,20.105,10.895,21,12,21z"/>
<path d="M13,23.884C12.673,23.96,12.339,24,12,24c-1.4,0-2.738-0.661-3.722-1.806c-1.14-1.543-1.462-2.622-1.996-4.41
	c-0.101-0.338-0.208-0.696-0.327-1.081l-0.201-0.646l-0.674-0.054C4.565,15.961,4,15.365,4,14.863c0-0.393,0.223-0.839,0.496-0.995
	L5,13.581v-1.684c0-2.476,0.659-4.388,1.959-5.684c1.386-1.382,3.546-2.123,6.426-2.205L14.382,6H15c2.078,0,4,0.714,4,5.897v1.684
	l0.504,0.288C19.777,14.024,20,14.471,20,14.863c0,0.502-0.565,1.098-1.081,1.14l-0.674,0.054l-0.201,0.646
	c-0.12,0.385-0.226,0.742-0.327,1.08c-0.132,0.444-0.252,0.843-0.373,1.217h2.096c0.064-0.209,0.128-0.423,0.194-0.645
	c0.049-0.165,0.1-0.334,0.153-0.51C21.026,17.414,22,16.167,22,14.863c0-0.895-0.386-1.776-1-2.355v-0.611
	c0-5.03-1.759-7.613-5.371-7.875l-1.01-2.02L14.003,2c-0.022,0-0.045,0-0.068,0c-3.704,0-6.526,0.94-8.388,2.796
	C3.857,6.481,3,8.87,3,11.897v0.611c-0.614,0.58-1,1.46-1,2.355c0,1.304,0.973,2.551,2.213,2.982
	c0.053,0.176,0.104,0.346,0.153,0.511c0.555,1.859,0.956,3.202,2.349,5.083C8.129,25.091,10.007,26,12,26
	c0.338,0,0.67-0.036,1-0.087V23.884z"/>
</svg>
