<?xml version="1.0" encoding="iso-8859-1"?>
<!-- Generator: Adobe Illustrator 19.1.1, SVG Export Plug-In . SVG Version: 6.00 Build 0)  -->
<svg version="1.1" id="Layer_1" xmlns="http://www.w3.org/2000/svg" xmlns:xlink="http://www.w3.org/1999/xlink" x="0px" y="0px"
	 viewBox="0 0 32 32" style="enable-background:new 0 0 32 32;" xml:space="preserve">
<path style="fill:none;stroke:#000000;stroke-width:2;stroke-miterlimit:10;" d="M20,27c0-10.813,1.188-13,1-18
	c-0.083-2.208-1.791-4-4-4s-4,1.791-4,4c0,8.375,1.942,18,1.942,18H20z"/>
<path style="fill:none;stroke:#000000;stroke-width:2;stroke-miterlimit:10;" d="M6,12c0-1.105,0.895-2,2-2s2,0.895,2,2"/>
<path style="fill:none;stroke:#000000;stroke-width:2;stroke-miterlimit:10;" d="M20,21c2.875,0,3-3.5,3-3.5
	c0-0.828,0.672-1.5,1.5-1.5s1.5,0.672,1.5,1.5c0,0,0.188,5.5-6,5.5"/>
<path style="fill:none;stroke:#000000;stroke-width:2;stroke-miterlimit:10;" d="M13,17c-0.813,0-3-1.25-3-4.993
	c0.01-1.08-0.861-1.978-1.948-2.007C8.014,9.998,7.977,9.997,7.939,9.997l0,0h0c-1.076,0-1.927,0.871-1.939,1.982
	c-0.004,0.389,0.025,3.868,2.29,6.156C9.515,19.373,11.099,20,13,20"/>
</svg>
