<?xml version="1.0" encoding="iso-8859-1"?>
<!-- Generator: Adobe Illustrator 19.1.1, SVG Export Plug-In . SVG Version: 6.00 Build 0)  -->
<svg version="1.1" id="Layer_1" xmlns="http://www.w3.org/2000/svg" xmlns:xlink="http://www.w3.org/1999/xlink" x="0px" y="0px"
	 viewBox="-7 9 32 32" enable-background="new -7 9 32 32" xml:space="preserve">
<g>
	<path d="M4.552,23.438C4.548,23.443,4.134,24,3.564,24v2C4.129,26,4.61,25.842,5,25.631V31h2v-8H4.85L4.552,23.438z"/>
	<path d="M11.5,23C10.121,23,9,24.122,9,25.5V26h2v-0.5c0-0.276,0.225-0.5,0.5-0.5s0.5,0.224,0.5,0.5v0.84
		c0,0.141-0.059,0.274-0.162,0.369L9,29.31V31h5v-2h-1.701l0.89-0.816C13.704,27.712,14,27.04,14,26.34V25.5
		C14,24.122,12.879,23,11.5,23z"/>
	<path d="M16,14v-1h-2v1H4v-1H2v1h-4v22h22V14H16z M2,16v1h2v-1h10v1h2v-1h2v2H0v-2H2z M0,34V20h18v14H0z"/>
</g>
</svg>
