<?xml version="1.0" encoding="utf-8"?>
<!-- Generator: Adobe Illustrator 18.1.1, SVG Export Plug-In . SVG Version: 6.00 Build 0)  -->
<svg version="1.1" id="Layer_1" xmlns="http://www.w3.org/2000/svg" xmlns:xlink="http://www.w3.org/1999/xlink" x="0px" y="0px"
	 viewBox="0 0 32 32" enable-background="new 0 0 32 32" xml:space="preserve">
<path fill="none" stroke="#000000" stroke-width="2" stroke-miterlimit="10" d="M12,11.7L8.5,8.3c-0.4-0.4-1-0.4-1.4,0l-2.6,2.6
	c-0.5,0.5-0.7,1.3-0.5,2c0.7,1.9,2.4,5.8,5.8,9.1s7.2,5.1,9.1,5.8c0.7,0.3,1.5,0.1,2-0.5l2.6-2.6c0.4-0.4,0.4-1,0-1.4L20.3,20
	c-0.4-0.4-1-0.4-1.4,0l-2.1,2.1c0,0-2.3-1-4.1-2.8c-1.8-1.8-2.8-4.1-2.8-4.1l2.1-2.1C12.4,12.7,12.4,12.1,12,11.7z"/>
<polyline fill="none" stroke="#000000" stroke-width="2" stroke-miterlimit="10" points="21,12 17,8 21,4 "/>
<path fill="none" stroke="#000000" stroke-width="2" stroke-miterlimit="10" d="M17,8h6c2.2,0,4,1.8,4,4v0c0,2.2-1.8,4-4,4h-1"/>
</svg>
