<?xml version="1.0" encoding="iso-8859-1"?>
<!-- Generator: Adobe Illustrator 19.1.1, SVG Export Plug-In . SVG Version: 6.00 Build 0)  -->
<svg version="1.1" id="Layer_1" xmlns="http://www.w3.org/2000/svg" xmlns:xlink="http://www.w3.org/1999/xlink" x="0px" y="0px"
	 viewBox="0 0 32 32" style="enable-background:new 0 0 32 32;" xml:space="preserve">
<path style="fill:none;stroke:#000000;stroke-width:2;stroke-miterlimit:10;" d="M18,3c-1.886,0-3.654,0.738-4.979,2.079
	L12.319,5.79l2.844,2.812l0.703-0.711C16.434,7.317,17.192,7,18,7c1.654,0,3,1.346,3,3c0,0.802-0.311,1.554-0.877,2.119
	L6.425,25.743l2.82,2.836l13.702-13.627C24.272,13.628,25,11.87,25,10C25,6.14,21.86,3,18,3L18,3z"/>
<line style="fill:none;stroke:#000000;stroke-width:2;stroke-miterlimit:10;" x1="7" y1="25" x2="13" y2="25"/>
<line style="fill:none;stroke:#000000;stroke-width:2;stroke-miterlimit:10;" x1="11" y1="21" x2="17" y2="21"/>
<line style="fill:none;stroke:#000000;stroke-width:2;stroke-miterlimit:10;" x1="15" y1="17" x2="21" y2="17"/>
<line style="fill:none;stroke:#000000;stroke-width:2;stroke-miterlimit:10;" x1="19" y1="13" x2="24" y2="13"/>
<line style="fill:none;stroke:#000000;stroke-width:2;stroke-miterlimit:10;" x1="20.917" y1="9.458" x2="25" y2="8"/>
<line style="fill:none;stroke:#000000;stroke-width:2;stroke-miterlimit:10;" x1="19.625" y1="7.542" x2="21.708" y2="4"/>
<line style="fill:none;stroke:#000000;stroke-width:2;stroke-miterlimit:10;" x1="17.333" y1="6.958" x2="16.167" y2="3.292"/>
</svg>
