<?xml version="1.0" encoding="iso-8859-1"?>
<!-- Generator: Adobe Illustrator 18.1.1, SVG Export Plug-In . SVG Version: 6.00 Build 0)  -->
<svg version="1.1" id="Layer_1" xmlns="http://www.w3.org/2000/svg" xmlns:xlink="http://www.w3.org/1999/xlink" x="0px" y="0px"
	 viewBox="0 0 32 32" style="enable-background:new 0 0 32 32;" xml:space="preserve">
<path style="fill:none;stroke:#000000;stroke-width:2;stroke-miterlimit:10;" d="M10.333,25.115c1.865,1.957,3.902,2.85,6.65,2.85
	c3.86,0,7-3.14,7-7V11c0-3.86-3.14-7-7-7c-3.839,0-6.726,1.795-8.368,4.15s-1.458,4.308-0.999,5.525
	c0.59,1.563,1.036,1.803,2.074,1.422c0.336-0.124,0.992-0.508,1.356-0.69c0.376-0.188,0.954-0.606,0.323-2.116
	c-0.053-0.127-0.077-0.123-0.075-0.262c0,0-0.062-0.997,1.141-2.271c1.107-1.172,2.028-1.757,4.548-1.757c1.654,0,3,1.346,3,3v9.966
	c0,1.626-1.374,3-3,3c-0.951,0-1.745-0.173-2.463-0.541"/>
<path style="fill:none;stroke:#000000;stroke-width:2;stroke-miterlimit:10;" d="M17.165,16.435
	c-0.177-1.949-0.561-1.885-2.194-1.785c-1.103,0.068-1.918,0.032-1.785,2.194c0.003,0.046,0.079,3.313-2.526,5.686
	c-0.82,0.742-0.883,2.007-0.142,2.826c0.224,0.248,0.496,0.426,0.789,0.534c0.676,0.249,1.464,0.124,2.036-0.393
	C17.2,22.046,17.189,16.702,17.165,16.435z"/>
<path style="fill:none;stroke:#000000;stroke-width:2;stroke-miterlimit:10;" d="M9.666,12H11"/>
</svg>
