<?xml version="1.0" encoding="utf-8"?>
<!-- Generator: Adobe Illustrator 18.1.1, SVG Export Plug-In . SVG Version: 6.00 Build 0)  -->
<svg version="1.1" id="Layer_1" xmlns="http://www.w3.org/2000/svg" xmlns:xlink="http://www.w3.org/1999/xlink" x="0px" y="0px"
	 viewBox="0 0 32 32" enable-background="new 0 0 32 32" xml:space="preserve">
<line fill="none" stroke="#000000" stroke-width="2" stroke-miterlimit="10" x1="8" y1="29" x2="8" y2="27"/>
<line fill="none" stroke="#000000" stroke-width="2" stroke-miterlimit="10" x1="12" y1="29" x2="12" y2="27"/>
<line fill="none" stroke="#000000" stroke-width="2" stroke-miterlimit="10" x1="16" y1="29" x2="16" y2="27"/>
<line fill="none" stroke="#000000" stroke-width="2" stroke-miterlimit="10" x1="20" y1="29" x2="20" y2="27"/>
<line fill="none" stroke="#000000" stroke-width="2" stroke-miterlimit="10" x1="24" y1="29" x2="24" y2="27"/>
<polyline fill="none" stroke="#000000" stroke-width="2" stroke-miterlimit="10" points="8,20 8,27 24,27 24,20 "/>
<polyline fill="none" stroke="#000000" stroke-width="2" stroke-miterlimit="10" points="11,20 11,24 21,24 21,20 "/>
<circle fill="none" stroke="#000000" stroke-width="2" stroke-miterlimit="10" cx="16" cy="8" r="4"/>
<path fill="none" stroke="#000000" stroke-width="2" stroke-miterlimit="10" d="M20.9,16c-0.5-2.3-2.5-4-4.9-4s-4.4,1.7-4.9,4"/>
<path fill="none" stroke="#000000" stroke-width="2" stroke-miterlimit="10" d="M25,16H7c-0.6,0-1,0.9-1,2c0,1.1,0.4,2,1,2h18
	c0.6,0,1-0.9,1-2C26,16.9,25.6,16,25,16z"/>
</svg>
