<?xml version="1.0" encoding="iso-8859-1"?>
<!-- Generator: Adobe Illustrator 22.1.0, SVG Export Plug-In . SVG Version: 6.00 Build 0)  -->
<svg version="1.1" id="Layer_1_1_" xmlns="http://www.w3.org/2000/svg" xmlns:xlink="http://www.w3.org/1999/xlink" x="0px" y="0px"
	 viewBox="0 0 32 32" style="enable-background:new 0 0 32 32;" xml:space="preserve">
<circle cx="27.5" cy="25.5" r="1.5"/>
<circle cx="23" cy="20" r="1.5"/>
<circle cx="4.5" cy="25.5" r="1.5"/>
<circle cx="4.5" cy="14.5" r="1.5"/>
<circle cx="9" cy="20" r="1.5"/>
<circle style="fill:none;stroke:#000000;stroke-width:2;stroke-miterlimit:10;" cx="18" cy="10" r="6"/>
<path d="M26.495,7.05c0.234,0.675,0.396,1.384,0.463,2.121C28.141,9.573,29,10.683,29,12c0,1.654-1.346,3-3,3
	c-0.167,0-0.328-0.023-0.488-0.049c-0.405,0.613-0.887,1.169-1.426,1.665C24.677,16.862,25.322,17,26,17c2.757,0,5-2.243,5-5
	C31,9.413,29.017,7.303,26.495,7.05z"/>
<path d="M18,19c-0.091,0-0.178-0.011-0.268-0.014C17.899,19.281,18,19.623,18,20c0,1.14-0.859,2-2,2s-2-0.86-2-2
	c0-0.673,0.305-1.243,0.785-1.602c-0.657-0.252-1.281-0.571-1.854-0.963C12.356,18.127,12,19.01,12,20c0,2.243,1.757,4,4,4
	s4-1.757,4-4c0-0.416-0.078-0.807-0.191-1.182C19.224,18.937,18.62,19,18,19z"/>
<path d="M28,18.706V26H4V14h5.947c-0.313-0.629-0.556-1.298-0.716-2H2v16h28V17.74C29.396,18.162,28.723,18.491,28,18.706z"/>
</svg>
