<?xml version="1.0" encoding="iso-8859-1"?>
<!-- Generator: Adobe Illustrator 22.1.0, SVG Export Plug-In . SVG Version: 6.00 Build 0)  -->
<svg version="1.1" id="Layer_1" xmlns="http://www.w3.org/2000/svg" xmlns:xlink="http://www.w3.org/1999/xlink" x="0px" y="0px"
	 viewBox="0 0 32 32" style="enable-background:new 0 0 32 32;" xml:space="preserve">
<line style="fill:none;stroke:#000000;stroke-width:2;stroke-miterlimit:10;" x1="30" y1="27" x2="16" y2="27"/>
<circle cx="27.5" cy="25.5" r="1.5"/>
<circle cx="23" cy="20" r="1.5"/>
<path style="fill:none;stroke:#000000;stroke-width:2;stroke-miterlimit:10;" d="M16,23c1.7,0,3-1.3,3-3l0,0c0-1.7-1.3-3-3-3"/>
<polyline style="fill:none;stroke:#000000;stroke-width:2;stroke-miterlimit:10;" points="16,27 3,27 3,13 15,13 "/>
<circle cx="4.5" cy="25.5" r="1.5"/>
<circle cx="4.5" cy="14.5" r="1.5"/>
<circle cx="9" cy="20" r="1.5"/>
<path style="fill:none;stroke:#000000;stroke-width:2;stroke-miterlimit:10;" d="M16,17c-1.7,0-3,1.3-3,3l0,0c0,1.7,1.3,3,3,3"/>
<g>
	<path d="M25.992,10.828c0,0.828-0.456,1.968-2.22,1.968c-0.552,0-1.02-0.084-1.392-0.24v-1.092c0.396,0.24,0.816,0.36,1.26,0.36
		c0.816,0,1.056-0.612,1.056-0.888c0-0.564-0.396-0.852-1.2-0.852c-0.3,0-0.636,0.024-1.032,0.072l0.216-3.204h3.048v1.032h-2.076
		l-0.084,1.152c0.204-0.012,0.384-0.024,0.54-0.024C25.668,9.112,25.992,10.3,25.992,10.828z"/>
</g>
<circle style="fill:none;stroke:#000000;stroke-width:2;stroke-miterlimit:10;" cx="24" cy="10" r="6"/>
<g>
	<path d="M30,16.7V27h-2v-8.94C28.73,17.7,29.4,17.24,30,16.7z"/>
</g>
<path d="M15.94,14H14v-2h1.22C15.38,12.7,15.63,13.37,15.94,14z"/>
</svg>
