<?xml version="1.0" encoding="iso-8859-1"?>
<!-- Generator: Adobe Illustrator 19.2.0, SVG Export Plug-In . SVG Version: 6.00 Build 0)  -->
<svg version="1.1" xmlns="http://www.w3.org/2000/svg" xmlns:xlink="http://www.w3.org/1999/xlink" x="0px" y="0px"
	 viewBox="0 0 32 32" style="enable-background:new 0 0 32 32;" xml:space="preserve">
<g >
	<g>
		<path d="M16.883,13c-0.363,0-0.664,0.238-0.785,0.594L14,18.045l1.896,0.662c1.328-3.113,1.834-4.757,1.834-4.875
			C17.729,13.356,17.367,13,16.883,13L16.883,13z"/>
	</g>
	<g>
		<path d="M9.543,20.674C8.571,19.184,8,17.409,8,15.5C8,10.262,12.262,6,17.5,6c1.657,0,3.277,0.438,4.703,1.255l-1.85,2.405
			C19.477,9.228,18.507,9,17.5,9c-3.584,0-6.5,2.916-6.5,6.5c0,0.951,0.21,1.851,0.578,2.666l0.638-0.843l1.468,0.538
			C13.258,17.173,13,16.369,13,15.5c0-2.485,2.015-4.5,4.5-4.5c1.287,0,2.44,0.547,3.26,1.412l4.288-5.575
			C23.027,5.075,20.392,4,17.5,4C11.149,4,6,9.149,6,15.5c0,2.367,0.717,4.565,1.942,6.394C8.578,21.514,9.112,21.085,9.543,20.674z
			"/>
		<path d="M21.254,17.975C20.449,19.194,19.07,20,17.5,20c-0.151,0-0.294-0.03-0.442-0.045l-0.425,1.955
			c-0.002,0.008-0.004,0.015-0.006,0.024C16.913,21.973,17.203,22,17.5,22c1.451,0,2.831-0.481,3.949-1.339l2.418,1.881
			C22.138,24.122,19.9,25,17.5,25c-0.63,0-1.244-0.065-1.84-0.182c-0.417,0.911-0.819,1.458-1.127,1.782
			C15.481,26.852,16.472,27,17.5,27c3.816,0,7.188-1.866,9.279-4.727L21.254,17.975z"/>
	</g>
	<path d="M12.569,18.517l3.5,1.281l-0.407,1.873c-0.718,2.911-1.581,3.988-1.939,4.329H9.901c-0.079-0.043-0.157-0.087-0.234-0.132
		L10.168,24H7.561H7.175c-0.146-0.155-0.275-0.312-0.388-0.466c2.885-1,4.537-3.301,4.885-3.828L12.569,18.517 M12.114,16.251
		c-0.188,0-0.381,0.097-0.512,0.226l-1.569,2.08c0,0-2.109,3.443-6.033,3.443c0,0,0.271,2.27,2.396,3.999c1.165,0,0.519,0,1.165,0
		c0,0-0.123,0.458-0.18,0.756C7.984,27.172,8.648,27.644,9.434,28h4.829c0,0,2.019-0.468,3.347-5.877l0.683-3.14
		c0.06-0.298-0.121-0.534-0.423-0.654l-5.543-2.03C12.259,16.266,12.187,16.251,12.114,16.251L12.114,16.251z"/>
</g>
<g >
</g>
</svg>
