<?xml version="1.0" encoding="iso-8859-1"?>
<!-- Generator: Adobe Illustrator 18.1.1, SVG Export Plug-In . SVG Version: 6.00 Build 0)  -->
<svg version="1.1" id="Layer_1" xmlns="http://www.w3.org/2000/svg" xmlns:xlink="http://www.w3.org/1999/xlink" x="0px" y="0px"
	 viewBox="0 0 32 32" style="enable-background:new 0 0 32 32;" xml:space="preserve">
<g>
	<path d="M10.793,8.672C12.265,7.624,14.059,7,16,7s3.735,0.624,5.207,1.672l1.427-1.427C20.787,5.843,18.493,5,16,5
		s-4.787,0.843-6.633,2.246L10.793,8.672z"/>
	<path d="M24.754,9.367l-1.427,1.427C24.376,12.265,25,14.059,25,16s-0.624,3.735-1.672,5.207l1.427,1.427
		C26.157,20.787,27,18.493,27,16S26.157,11.213,24.754,9.367z"/>
	<path d="M8.672,21.207C7.624,19.735,7,17.941,7,16s0.624-3.735,1.672-5.207L7.246,9.367C5.843,11.213,5,13.507,5,16
		s0.843,4.787,2.246,6.633L8.672,21.207z"/>
	<path d="M21.207,23.328C19.735,24.376,17.941,25,16,25s-3.735-0.624-5.207-1.672l-1.427,1.427C11.213,26.157,13.507,27,16,27
		s4.787-0.843,6.633-2.246L21.207,23.328z"/>
</g>
<line style="fill:none;stroke:#000000;stroke-width:2;stroke-miterlimit:10;" x1="16" y1="30" x2="16" y2="2"/>
<line style="fill:none;stroke:#000000;stroke-width:2;stroke-miterlimit:10;" x1="2" y1="16" x2="30" y2="16"/>
</svg>
