<?xml version="1.0" encoding="iso-8859-1"?>
<!-- Generator: Adobe Illustrator 21.0.0, SVG Export Plug-In . SVG Version: 6.00 Build 0)  -->
<svg version="1.1"  xmlns="http://www.w3.org/2000/svg" xmlns:xlink="http://www.w3.org/1999/xlink" x="0px" y="0px"
	 viewBox="0 0 32 32" style="enable-background:new 0 0 32 32;" xml:space="preserve">
<path d="M24,5h-5v2h4l2,5h-6v2h6v10c0,0.828-0.172,1-1,1h-5v2h5c2,0,3,0,3-2V12L24,5z"/>
<path d="M8,5h5v2H9l-2,5h6v2H7v10c0,0.828,0.172,1,1,1h5v2H8c-2,0-3,0-3-2V12L8,5z"/>
<rect x="15" y="5" width="2" height="2"/>
<rect x="15" y="1" width="2" height="2"/>
<rect x="15" y="9" width="2" height="2"/>
<rect x="15" y="13" width="2" height="2"/>
<rect x="15" y="17" width="2" height="2"/>
<rect x="15" y="21" width="2" height="2"/>
<rect x="15" y="25" width="2" height="2"/>
<rect x="15" y="29" width="2" height="2"/>
</svg>
