<?xml version="1.0" encoding="iso-8859-1"?>
<!-- Generator: Adobe Illustrator 19.2.0, SVG Export Plug-In . SVG Version: 6.00 Build 0)  -->
<svg version="1.1" id="Layer_1" xmlns="http://www.w3.org/2000/svg" xmlns:xlink="http://www.w3.org/1999/xlink" x="0px" y="0px"
	 viewBox="0 0 32 32" style="enable-background:new 0 0 32 32;" xml:space="preserve">
<rect x="4" y="7" style="fill:none;stroke:#000000;stroke-width:2;stroke-miterlimit:10;" width="24" height="18"/>
<line style="fill:none;stroke:#000000;stroke-width:2;stroke-miterlimit:10;" x1="4" y1="11" x2="28" y2="11"/>
<line style="fill:none;stroke:#000000;stroke-width:2;stroke-miterlimit:10;" x1="7" y1="21" x2="16" y2="21"/>
<path style="fill:none;stroke:#000000;stroke-width:2;stroke-miterlimit:10;" d="M24,17v-0.618C24,15.619,23.381,15,22.618,15
	h-1.236C20.619,15,20,15.619,20,16.382v0c0,0.379,0.214,0.725,0.553,0.894l2.894,1.447C23.786,18.893,24,19.239,24,19.618v0
	C24,20.381,23.381,21,22.618,21h-1.236C20.619,21,20,20.381,20,19.618V19"/>
<line style="fill:none;stroke:#000000;stroke-width:2;stroke-miterlimit:10;" x1="22" y1="15" x2="22" y2="13"/>
<line style="fill:none;stroke:#000000;stroke-width:2;stroke-miterlimit:10;" x1="22" y1="23" x2="22" y2="21"/>
</svg>
