<?xml version="1.0" encoding="iso-8859-1"?>
<!-- Generator: Adobe Illustrator 19.1.0, SVG Export Plug-In . SVG Version: 6.00 Build 0)  -->
<svg version="1.1" id="Layer_1" xmlns="http://www.w3.org/2000/svg" xmlns:xlink="http://www.w3.org/1999/xlink" x="0px" y="0px"
	 viewBox="0 0 32 32" style="enable-background:new 0 0 32 32;" xml:space="preserve">
<circle cx="11" cy="12" r="1"/>
<path d="M13.453,14v-3.295c0,0,2.922,0.424,2.969,3.295H13.453z"/>
<circle cx="8.5" cy="6.5" r="2.5"/>
<circle cx="6" cy="8" r="2"/>
<circle cx="12" cy="7" r="2"/>
<path style="fill:none;stroke:#000000;stroke-width:2;stroke-miterlimit:10;" d="M6,15v-3c0-2.209,1.791-4,4-4s4,1.791,4,4
	c0,4.292-4,3.749-4,6"/>
<polyline style="fill:none;stroke:#000000;stroke-width:2;stroke-miterlimit:10;" points="12,28 12,24 16,24 16,20 20,20 20,16 
	24,16 24,12 28,12 "/>
</svg>
