<?xml version="1.0" encoding="iso-8859-1"?>
<!-- Generator: Adobe Illustrator 19.1.1, SVG Export Plug-In . SVG Version: 6.00 Build 0)  -->
<svg version="1.1" id="Layer_1" xmlns="http://www.w3.org/2000/svg" xmlns:xlink="http://www.w3.org/1999/xlink" x="0px" y="0px"
	 viewBox="0 0 32 32" style="enable-background:new 0 0 32 32;" xml:space="preserve">
<path style="fill:none;stroke:#000000;stroke-width:2;stroke-miterlimit:10;" d="M20.576,21.576
	c2.012-0.397,3.072-0.928,3.072-0.928l-5.747-5.747c2.624-0.256,4.047-0.953,4.047-0.953L16,8l-5.948,5.948
	c0,0,1.424,0.697,4.047,0.953l-5.747,5.747c0,0,1.059,0.532,3.072,0.928l-4.771,4.771c0,0,3.289,1.652,9.348,1.652
	s9.348-1.652,9.348-1.652L20.576,21.576z"/>
<polygon points="16,2 16.927,3.878 19,4.18 17.5,5.642 17.854,7.706 16,6.732 14.146,7.706 14.5,5.642 13,4.18 15.073,3.878 "/>
</svg>
