<?xml version="1.0" encoding="iso-8859-1"?>
<!-- Generator: Adobe Illustrator 18.1.1, SVG Export Plug-In . SVG Version: 6.00 Build 0)  -->
<svg version="1.1" id="Layer_1" xmlns="http://www.w3.org/2000/svg" xmlns:xlink="http://www.w3.org/1999/xlink" x="0px" y="0px"
	 viewBox="0 0 32 32" style="enable-background:new 0 0 32 32;" xml:space="preserve">
<path style="fill:none;stroke:#000000;stroke-width:2;stroke-linecap:round;stroke-linejoin:round;stroke-miterlimit:10;" d="
	M24.85,10.905c-0.336-1.826-1.565-3.284-4.346-4.455C17.785,5.306,15.575,5,13.586,5c-3.362,0-4.367,3.805-4.553,6.648
	c-0.16,2.445,0.283,6.606,1.159,10.838c1.021,4.935,2.873,4.609,3.341,4.432c2.042-0.773,3.6-3.013,4.341-3.948
	c0.741-0.935,3.944-4.769,5.225-6.371C25.11,14.087,25.181,12.697,24.85,10.905z"/>
<path style="fill:none;stroke:#000000;stroke-width:2;stroke-linecap:round;stroke-linejoin:round;stroke-miterlimit:10;" d="
	M12.33,5.012C12.078,5.001,10.763,5,10.518,5c-3.316,0-4.307,3.805-4.491,6.648c-0.158,2.445,0.375,6.588,1.143,10.838
	c0.788,4.365,2.907,4.444,3.235,4.474C10.744,26.992,11.731,27,12.092,27"/>
<circle style="fill:none;stroke:#000000;stroke-width:2;stroke-linecap:round;stroke-linejoin:round;stroke-miterlimit:10;" cx="20" cy="12" r="2"/>
<path style="fill:none;stroke:#000000;stroke-width:2;stroke-linecap:round;stroke-linejoin:round;stroke-miterlimit:10;" d="
	M13.95,21.491c-0.413,0-1.352-2.133-1.621-4.898c-0.278-2.853,0.009-6.06,0.732-6.514c0.723-0.454,2.759,1.845,2.759,7.592
	C15.82,19.394,15.238,21.491,13.95,21.491z"/>
</svg>
