<?xml version="1.0" encoding="iso-8859-1"?>
<!-- Generator: Adobe Illustrator 18.1.1, SVG Export Plug-In . SVG Version: 6.00 Build 0)  -->
<svg version="1.1" id="Layer_1" xmlns="http://www.w3.org/2000/svg" xmlns:xlink="http://www.w3.org/1999/xlink" x="0px" y="0px"
	 viewBox="0 0 32 32" style="enable-background:new 0 0 32 32;" xml:space="preserve">
<path style="fill:none;stroke:#000000;stroke-width:2;stroke-miterlimit:10;" d="M18.008,15.35c-3.481-3.481,10.12-6.269,2.782-10.3
	"/>
<path style="fill:none;stroke:#000000;stroke-width:2;stroke-miterlimit:10;" d="M7.427,21.578c2.1,0.8,3.484-0.687,4.513-2.928
	c1.195-2.602,2.6-4.9-0.15-4.9C10.241,13.75,10,11.8,10,11s3.576-0.379,7.771-3.875C20.047,5.229,22.149,4,24.595,4
	c0.966,0,1.472,0.177,1.888,0.56c0,0,1.507,0.44,1.507,2.39c0,2.45-3.55,7.75-4.45,9.1c-0.896,1.344-2.781,1.501-4.032,3.376
	c-0.009,0.015-0.018,0.029-0.028,0.044c-0.833,1.355-0.195,3.886-1.191,5.23c-0.6,0.85-0.863,1.293-1.4,1.95
	C16.4,27.407,15.74,28,14.74,28c-1.35,0-2.592-1.412-2.592-1.412c-2.271,0.323-3.597-2.504-4.006-3.813
	C7.94,22.131,7.389,21,5.86,21C4.557,21,4,22.067,4,23"/>
</svg>
