<?xml version="1.0" encoding="iso-8859-1"?>
<!-- Generator: Adobe Illustrator 19.1.1, SVG Export Plug-In . SVG Version: 6.00 Build 0)  -->
<svg version="1.1"  xmlns="http://www.w3.org/2000/svg" xmlns:xlink="http://www.w3.org/1999/xlink" x="0px" y="0px"
	 viewBox="0 0 32 32" style="enable-background:new 0 0 32 32;" xml:space="preserve">
<rect x="1" y="11" style="fill:none;stroke:#000000;stroke-width:2;stroke-miterlimit:10;" width="30" height="14"/>
<polyline style="fill:none;stroke:#000000;stroke-width:2;stroke-miterlimit:10;" points="27.227,11.105 16,5 4.773,11.105 "/>
<path d="M5,22c-1.103,0-2-1.121-2-2.5v-3C3,15.121,3.897,14,5,14s2,1.121,2,2.5V17H5.4v-0.5C5.4,16.225,5.221,16,5,16
	s-0.4,0.225-0.4,0.5v3C4.6,19.775,4.779,20,5,20s0.4-0.225,0.4-0.5V19H7v0.5C7,20.879,6.103,22,5,22z"/>
<path d="M13,22c-1.103,0-2-1.121-2-2.5v-3c0-1.379,0.897-2.5,2-2.5s2,1.121,2,2.5v3C15,20.879,14.103,22,13,22z M13,16
	c-0.221,0-0.4,0.225-0.4,0.5v3c0,0.275,0.179,0.5,0.4,0.5s0.4-0.225,0.4-0.5v-3C13.4,16.225,13.221,16,13,16z"/>
<path d="M18,22c-1.234,0-2-0.912-2-2.381h1.6c0,0.3,0,0.381,0.4,0.381c0.348,0,0.4-0.313,0.4-0.5c0-0.275-0.179-0.5-0.4-0.5
	c-1.103,0-2-1.121-2-2.5s0.897-2.5,2-2.5c1.299,0,2,1.24,2,2.407h-1.6C18.4,16.285,18.361,16,18,16c-0.221,0-0.4,0.225-0.4,0.5
	S17.779,17,18,17c1.103,0,2,1.121,2,2.5C20,20.925,19.14,22,18,22z"/>
<polygon points="24,16 24,14 21,14 21,22 24,22 24,20 22.5,20 22.5,19 24,19 24,17 22.5,17 22.5,16 "/>
<path d="M26.6,22H25v-8h1.6c1.323,0,2.4,1.346,2.4,3v2C29,20.654,27.923,22,26.6,22z M26.6,16v4c0.441,0,0.8-0.448,0.8-1v-2
	C27.4,16.448,27.041,16,26.6,16z"/>
<polygon points="9.667,20 9.667,14 8,14 8,22 8.833,22 9.667,22 10.5,22 10.5,20 "/>
</svg>
