<?xml version="1.0" encoding="utf-8"?>
<!-- Generator: Adobe Illustrator 18.1.1, SVG Export Plug-In . SVG Version: 6.00 Build 0)  -->
<svg version="1.1" id="Layer_1" xmlns="http://www.w3.org/2000/svg" xmlns:xlink="http://www.w3.org/1999/xlink" x="0px" y="0px"
	 viewBox="0 0 32 32" enable-background="new 0 0 32 32" xml:space="preserve">
<path fill="none" stroke="#000000" stroke-width="2" stroke-miterlimit="10" d="M20.4,5.9c0,0-1.2,1.1-2,2.7C17.7,6.5,16,5,16,5
	s-1.7,1.5-2.4,3.6c-0.8-1.6-2-2.7-2-2.7S9,8.2,9,11.1c0,3.7,4,4.9,7,4.9s7-1,7-4.9C23,8.2,20.4,5.9,20.4,5.9z"/>
<line fill="none" stroke="#000000" stroke-width="2" stroke-miterlimit="10" x1="16" y1="16" x2="16" y2="27"/>
<path fill="none" stroke="#000000" stroke-width="2" stroke-miterlimit="10" d="M16,27c0-5,5.3-7,10-7C25.4,23.5,23.9,27,16,27z"/>
<path fill="none" stroke="#000000" stroke-width="2" stroke-miterlimit="10" d="M16,27c0-5,5.3-7,10-7C25.4,23.5,23.9,27,16,27z"/>
<path fill="none" stroke="#000000" stroke-width="2" stroke-miterlimit="10" d="M16,27c0-5-5.3-7-10-7C6.6,23.5,8.1,27,16,27z"/>
<path fill="none" stroke="#000000" stroke-width="2" stroke-miterlimit="10" d="M16,27c0-5-5.3-7-10-7C6.6,23.5,8.1,27,16,27z"/>
</svg>
