<?xml version="1.0" encoding="iso-8859-1"?>
<!-- Generator: Adobe Illustrator 19.1.0, SVG Export Plug-In . SVG Version: 6.00 Build 0)  -->
<svg version="1.1" id="Layer_1" xmlns="http://www.w3.org/2000/svg" xmlns:xlink="http://www.w3.org/1999/xlink" x="0px" y="0px"
	 viewBox="0 0 32 32" style="enable-background:new 0 0 32 32;" xml:space="preserve">
<path d="M14,24.771l-1.291-0.43c-0.659-0.219-1.195-0.708-1.482-1.34H6c-2.206,0-4-1.794-4-4s1.794-4,4-4
	c0.277,0,0.565,0.035,0.881,0.106l0.979,0.22l0.217-0.979c0.246-1.106,1.12-1.991,2.227-2.255l0.658-0.157l0.099-0.669
	C11.42,8.833,13.543,7,16,7c1.894,0,3.603,1.054,4.46,2.751l0.396,0.783l0.828-0.29C22.151,10.08,22.582,10,23,10
	c2.206,0,4,1.794,4,4c0,0.038-0.008,0.075-0.013,0.112c-0.009,0.068-0.018,0.136-0.024,0.206l-0.06,0.72l0.665,0.283
	C29.045,15.951,30,17.395,30,19c0,1.363-0.687,2.565-1.731,3.288l1.022,0.341c0.367,0.122,0.691,0.333,0.961,0.6
	C31.331,22.143,32,20.648,32,19c0-2.165-1.158-4.135-3.003-5.198C28.892,10.585,26.242,8,23,8c-0.389,0-0.777,0.042-1.173,0.127
	C20.537,6.18,18.372,5,16,5c-3.226,0-6.041,2.257-6.794,5.344c-1.247,0.483-2.257,1.455-2.788,2.672C2.921,12.75,0,15.553,0,19
	c0,3.309,2.691,6,6,6h8V24.771z"/>
<polygon points="17.5,28.5 20.5,22 17.5,21 17.5,15.5 14.5,21.969 17.5,22.969 "/>
<polygon points="25.5,31.5 28.5,25 25.5,24 25.5,18.5 22.5,24.969 25.5,25.969 "/>
</svg>
