<?xml version="1.0" encoding="iso-8859-1"?>
<!-- Generator: Adobe Illustrator 19.1.0, SVG Export Plug-In . SVG Version: 6.00 Build 0)  -->
<svg version="1.1" id="Layer_1" xmlns="http://www.w3.org/2000/svg" xmlns:xlink="http://www.w3.org/1999/xlink" x="0px" y="0px"
	 viewBox="0 0 32 32" style="enable-background:new 0 0 32 32;" xml:space="preserve">
<path style="fill:none;stroke:#000000;stroke-width:2;stroke-miterlimit:10;" d="M27.96,14.4C27.97,14.266,28,14.137,28,14
	c0-2.761-2.239-5-5-5c-0.58,0-1.129,0.118-1.647,0.3C20.364,7.344,18.341,6,16,6c-3.014,0-5.501,2.224-5.928,5.119
	c-1.48,0.353-2.64,1.522-2.971,3.011C6.746,14.05,6.379,14,6,14c-2.761,0-5,2.239-5,5s2.239,5,5,5s17.239,0,20,0s5-2.239,5-5
	C31,16.934,29.747,15.163,27.96,14.4z"/>
</svg>
