<?xml version="1.0" encoding="iso-8859-1"?>
<!-- Generator: Adobe Illustrator 19.1.0, SVG Export Plug-In . SVG Version: 6.00 Build 0)  -->
<svg version="1.1" id="Layer_1" xmlns="http://www.w3.org/2000/svg" xmlns:xlink="http://www.w3.org/1999/xlink" x="0px" y="0px"
	 viewBox="0 0 32 32" style="enable-background:new 0 0 32 32;" xml:space="preserve">
<path style="fill:none;stroke:#000000;stroke-width:2;stroke-miterlimit:10;" d="M18,14L18,14c0,1.105-0.895,2-2,2h0
	c-1.105,0-2-0.895-2-2v-2c0-1.105,0.895-2,2-2h0c1.105,0,2,0.895,2,2v0"/>
<path style="fill:none;stroke:#000000;stroke-width:2;stroke-miterlimit:10;" d="M12.714,7.252C12.171,7.09,11.596,7,11,7
	c-3.314,0-6,2.686-6,6c0,3.314,2.686,6,6,6c0.596,0,1.171-0.09,1.714-0.252"/>
<path style="fill:none;stroke:#000000;stroke-width:2;stroke-miterlimit:10;" d="M19.286,18.748C19.829,18.91,20.404,19,21,19
	c3.314,0,6-2.686,6-6c0-3.314-2.686-6-6-6c-0.596,0-1.171,0.09-1.714,0.252"/>
<circle style="fill:none;stroke:#000000;stroke-width:2;stroke-miterlimit:10;" cx="16" cy="13" r="7"/>
<path d="M10,19v8h12v-8H10z M19,25h-6l-1-3c0,0,1.636-1,4-1s4,1,4,1L19,25z"/>
<line style="fill:none;stroke:#000000;stroke-width:2;stroke-miterlimit:10;" x1="16" y1="26" x2="17" y2="23"/>
</svg>
