<?xml version="1.0" encoding="utf-8"?>
<!-- Generator: Adobe Illustrator 19.2.0, SVG Export Plug-In . SVG Version: 6.00 Build 0)  -->
<svg version="1.1"  xmlns="http://www.w3.org/2000/svg" xmlns:xlink="http://www.w3.org/1999/xlink" x="0px" y="0px"
	 viewBox="0 0 32 32" style="enable-background:new 0 0 32 32;" xml:space="preserve">
<style type="text/css">
	.st0{fill:none;stroke:#000000;stroke-width:2;stroke-miterlimit:10;}
</style>
<polyline class="st0" points="22,13.7 22,26.5 14,28 9.2,16 "/>
<path class="st0" d="M11.8,10.2L11,5.8c-0.1-0.5,0.3-1,0.8-1.1l3.8-0.7c0.5-0.1,1,0.2,1.1,0.7l0.8,4.4"/>
<path class="st0" d="M17.1,9.2l-4.9,0.9c-2.2,0.4-3.6,2.5-3.2,4.6l0.1,0.5l12.7-2.3l-0.1-0.5C21.4,10.3,19.3,8.8,17.1,9.2z"/>
<path class="st0" d="M27,16v-3c0-1.3-0.3-2.5-0.9-3.7L25,7"/>
<path class="st0" d="M4.5,11l-0.4,2.5C3.9,14.8,4,16,4.4,17.3l1,2.8"/>
</svg>
