<?xml version="1.0" encoding="iso-8859-1"?>
<!-- Generator: Adobe Illustrator 22.0.1, SVG Export Plug-In . SVG Version: 6.00 Build 0)  -->
<svg version="1.1" id="Layer_1" xmlns="http://www.w3.org/2000/svg" xmlns:xlink="http://www.w3.org/1999/xlink" x="0px" y="0px"
	 viewBox="0 0 32 32" style="enable-background:new 0 0 32 32;" xml:space="preserve">
<g>
	<g>
	</g>
</g>
<polygon style="fill:none;stroke:#000000;stroke-width:2;stroke-miterlimit:10;" points="27.64,23 22.36,23 21,27.167 21,28 29,28 
	29,27.167 "/>
<polygon style="fill:none;stroke:#000000;stroke-width:2;stroke-miterlimit:10;" points="19.64,23 14.36,23 13,27.167 13,28 21,28 
	21,27.167 "/>
<polygon style="fill:none;stroke:#000000;stroke-width:2;stroke-miterlimit:10;" points="23.64,18 18.36,18 17,22.167 17,23 25,23 
	25,22.167 "/>
<path style="fill:none;stroke:#000000;stroke-width:2;stroke-miterlimit:10;" d="M14,16.625c0,1.381-1.083,2.438-2.5,2.438
	S9,18.006,9,16.625s2.5-4.875,2.5-4.875S14,15.244,14,16.625z"/>
<path d="M10.057,26.516L10.551,25H5c-0.551,0-1-0.449-1-1c0-0.326,0.197-0.68,0.447-0.806L5,22.917v-6.835l-0.553-0.276
	C4.197,15.68,4,15.326,4,15s0.197-0.68,0.447-0.806L5,13.917V7.083L4.447,6.806C4.197,6.68,4,6.326,4,6c0-0.551,0.449-1,1-1h13
	c0.551,0,1,0.449,1,1c0,0.326-0.197,0.68-0.447,0.806L18,7.083v6.835l0.553,0.276C18.803,14.32,19,14.674,19,15h2
	c0-0.854-0.385-1.68-1-2.221V8.221C20.615,7.68,21,6.854,21,6c0-1.654-1.346-3-3-3H5C3.346,3,2,4.346,2,6
	c0,0.854,0.385,1.68,1,2.221v4.559C2.385,13.32,2,14.146,2,15s0.385,1.68,1,2.221v4.559C2.385,22.32,2,23.146,2,24
	c0,1.654,1.346,3,3,3h5.046L10.057,26.516z"/>
</svg>
