<?xml version="1.0" encoding="iso-8859-1"?>
<!-- Generator: Adobe Illustrator 19.1.1, SVG Export Plug-In . SVG Version: 6.00 Build 0)  -->
<svg version="1.1" id="Layer_1" xmlns="http://www.w3.org/2000/svg" xmlns:xlink="http://www.w3.org/1999/xlink" x="0px" y="0px"
	 viewBox="0 0 32 32" style="enable-background:new 0 0 32 32;" xml:space="preserve">
<g>
	<path d="M12,7v5H7V7H12 M14,5H5v9h9V5L14,5z"/>
</g>
<g>
	<path d="M12,14v5H7v-5H12 M14,12H5v9h9V12L14,12z"/>
</g>
<g>
	<path d="M12,21v5H7v-5H12 M14,19H5v9h9V19L14,19z"/>
</g>
<line style="fill:none;stroke:#000000;stroke-width:2;stroke-miterlimit:10;" x1="16" y1="9" x2="28" y2="9"/>
<line style="fill:none;stroke:#000000;stroke-width:2;stroke-miterlimit:10;" x1="16" y1="16" x2="28" y2="16"/>
<line style="fill:none;stroke:#000000;stroke-width:2;stroke-miterlimit:10;" x1="16" y1="23" x2="28" y2="23"/>
<rect x="8" y="8" width="3" height="3"/>
<polygon points="9.5,22 8,25 11,25 "/>
<circle cx="9.5" cy="16.5" r="1.5"/>
</svg>
