<?xml version="1.0" encoding="iso-8859-1"?>
<!-- Generator: Adobe Illustrator 19.1.0, SVG Export Plug-In . SVG Version: 6.00 Build 0)  -->
<svg version="1.1" id="Layer_1" xmlns="http://www.w3.org/2000/svg" xmlns:xlink="http://www.w3.org/1999/xlink" x="0px" y="0px"
	 viewBox="0 0 32 32" style="enable-background:new 0 0 32 32;" xml:space="preserve">
<path style="fill:none;stroke:#000000;stroke-width:2;stroke-miterlimit:10;" d="M20,4c0,3.63-3.288,1.571-2.125,8
	c0.907,5.018-1.419,9.348,0.667,11.984C19.066,24.468,20,24.939,20,27l-9-0.005c0-2.683,2.214-2.324,2.688-4.996
	c0.875-4.938,1.438-4.062,2.875-8.625C18.99,5.67,15,7.909,15,4"/>
<path style="fill:none;stroke:#000000;stroke-width:2;stroke-miterlimit:10;" d="M23,10c0,2.382,1.501,1.787,1.324,3.617"/>
<path style="fill:none;stroke:#000000;stroke-width:2;stroke-miterlimit:10;" d="M17.98,21c5.218,0,6.053-4.531,6.308-7.045
	c0.109-1.559,1.752-1.087,2.416-3.262"/>
<path style="fill:none;stroke:#000000;stroke-width:2;stroke-miterlimit:10;" d="M7.331,18.611
	c-0.254-1.916,1.213-1.286,1.213-3.668"/>
<path style="fill:none;stroke:#000000;stroke-width:2;stroke-miterlimit:10;" d="M5,15.694c0.45,1.523,2.159,1.824,2.416,3.262
	C8.969,23.35,11.232,23,13.724,23"/>
<path style="fill:none;stroke:#000000;stroke-width:2;stroke-miterlimit:10;" d="M10.331,11.611
	c-0.254-1.916,1.213-1.286,1.213-3.668"/>
<path style="fill:none;stroke:#000000;stroke-width:2;stroke-miterlimit:10;" d="M8,8.694c0.45,1.523,2.159,1.824,2.416,3.262
	C11,13.812,12.875,16,15.625,16"/>
</svg>
