<?xml version="1.0" encoding="iso-8859-1"?>
<!-- Generator: Adobe Illustrator 19.2.1, SVG Export Plug-In . SVG Version: 6.00 Build 0)  -->
<svg version="1.1" id="Layer_1" xmlns="http://www.w3.org/2000/svg" xmlns:xlink="http://www.w3.org/1999/xlink" x="0px" y="0px"
	 viewBox="0 0 32 32" style="enable-background:new 0 0 32 32;" xml:space="preserve">
<path style="fill:none;stroke:#000000;stroke-width:2;stroke-miterlimit:10;" d="M23,26v-4l2-2.998v-5l2.323-0.455L29,12.002V11
	l-2.281-1.358L25,8h-1.652L22.1,6H22l-3,8h-6.062c0,0-3.274-1-4.3-1C6.596,13,5,14.629,5,16.638v0C5,18.608,6,21.2,6,21.2L5,25v1"/>
<line style="fill:none;stroke:#000000;stroke-width:2;stroke-miterlimit:10;" x1="6.454" y1="13.711" x2="2.949" y2="15.434"/>
<path style="fill:none;stroke:#000000;stroke-width:2;stroke-miterlimit:10;" d="M19,26v-4h-3c-1.506,0-4-1-4-1h-2l-1,4v1"/>
</svg>
