<?xml version="1.0" encoding="iso-8859-1"?>
<!-- Generator: Adobe Illustrator 19.1.0, SVG Export Plug-In . SVG Version: 6.00 Build 0)  -->
<svg version="1.1" id="Layer_1" xmlns="http://www.w3.org/2000/svg" xmlns:xlink="http://www.w3.org/1999/xlink" x="0px" y="0px"
	 viewBox="0 0 32 32" style="enable-background:new 0 0 32 32;" xml:space="preserve">
<path style="fill:none;stroke:#000000;stroke-width:2;stroke-miterlimit:10;" d="M10.068,17.782C10.023,17.142,10,16.468,10,15.76
	C10,9.53,12.686,5,16,5s6,4.53,6,10.76c0,1.222-0.056,2.326-0.162,3.321"/>
<path style="fill:none;stroke:#000000;stroke-width:2;stroke-linecap:round;stroke-miterlimit:10;" d="M6,15v0.209
	C9.537,18.35,7.477,27,15.6,27C15.6,21.087,12.579,18.475,6,15z"/>
<path style="fill:none;stroke:#000000;stroke-width:2;stroke-miterlimit:10;" d="M15.983,27c7.442,0,5.094-6.108,10.017-6.909V20
	c-6.258-3.84-10.762,4.581-10.762,4.581"/>
<circle cx="16" cy="8" r="1"/>
<circle cx="16" cy="11" r="1"/>
<circle cx="16" cy="14" r="1"/>
<circle cx="16" cy="17" r="1"/>
<circle cx="16" cy="20" r="1"/>
<circle cx="19" cy="9" r="1"/>
<circle cx="19" cy="12" r="1"/>
<circle cx="19" cy="15" r="1"/>
<circle cx="19" cy="18" r="1"/>
<circle cx="13" cy="9" r="1"/>
<circle cx="13" cy="12" r="1"/>
<circle cx="13" cy="15" r="1"/>
<circle cx="13" cy="18" r="1"/>
</svg>
