<?xml version="1.0" encoding="iso-8859-1"?>
<!-- Generator: Adobe Illustrator 19.2.0, SVG Export Plug-In . SVG Version: 6.00 Build 0)  -->
<svg version="1.1" id="Layer_1" xmlns="http://www.w3.org/2000/svg" xmlns:xlink="http://www.w3.org/1999/xlink" x="0px" y="0px"
	 viewBox="0 0 32 32" style="enable-background:new 0 0 32 32;" xml:space="preserve">
<rect x="13" y="11" style="fill:none;stroke:#000000;stroke-width:2;stroke-miterlimit:10;" width="6" height="10"/>
<polygon points="28,6 19,12 19,10 28,4 "/>
<polygon points="28,28 19,22 19,20 28,26 "/>
<polygon points="4,6 13,12 13,10 4,4 "/>
<polygon points="4,28 13,22 13,20 4,26 "/>
<polygon points="24,12.931 22,14 22,17 24,18.069 "/>
<polygon points="26,11.863 26,19.137 28,20.206 28,10.794 "/>
<polygon points="8,12.931 10,14 10,17 8,18.069 "/>
<polygon points="6,11.863 6,19.137 4,20.206 4,10.794 "/>
</svg>
