<?xml version="1.0" encoding="iso-8859-1"?>
<!-- Generator: Adobe Illustrator 19.1.1, SVG Export Plug-In . SVG Version: 6.00 Build 0)  -->
<svg version="1.1" id="Layer_1" xmlns="http://www.w3.org/2000/svg" xmlns:xlink="http://www.w3.org/1999/xlink" x="0px" y="0px"
	 viewBox="0 0 32 32" style="enable-background:new 0 0 32 32;" xml:space="preserve">
<circle style="fill:none;stroke:#000000;stroke-width:2;stroke-miterlimit:10;" cx="8" cy="7" r="2"/>
<path style="fill:none;stroke:#000000;stroke-width:2;stroke-miterlimit:10;" d="M26,10.5C26,8.567,24.433,7,22.5,7
	S19,8.567,19,10.5c0,0.631,0.18,1.215,0.472,1.726C18.606,12.618,18,13.487,18,14.5c0,1.381,1.119,2.5,2.5,2.5s2.5-1.119,2.5-2.5
	c0-0.187-0.024-0.368-0.063-0.544C24.661,13.739,26,12.283,26,10.5z"/>
<path style="fill:none;stroke:#000000;stroke-width:2;stroke-miterlimit:10;" d="M9,18c0-2.302,3.375-4,6-4"/>
<path style="fill:none;stroke:#000000;stroke-width:2;stroke-miterlimit:10;" d="M25,13.611c1.26,1.383,2,3.069,2,4.889
	c0,4.694-4.925,8.5-11,8.5S5,23.194,5,18.5S9.925,10,16,10c1.038,0,2.043,0.111,2.995,0.319"/>
</svg>
