<?xml version="1.0" encoding="iso-8859-1"?>
<!-- Generator: Adobe Illustrator 19.1.0, SVG Export Plug-In . SVG Version: 6.00 Build 0)  -->
<svg version="1.1" id="Layer_1" xmlns="http://www.w3.org/2000/svg" xmlns:xlink="http://www.w3.org/1999/xlink" x="0px" y="0px"
	 viewBox="0 0 32 32" style="enable-background:new 0 0 32 32;" xml:space="preserve">
<path style="fill:none;stroke:#000000;stroke-width:2;stroke-linejoin:round;stroke-miterlimit:10;" d="M27,25l-12.928-2H5v-6
	l2.572-8.574C7.826,7.579,8.605,7,9.488,7l13.024,1l1.916,1.425l-1.005,3.315L26,18L27,25z"/>
<path d="M5,26h3l1-3H4v2C4,25.552,4.448,26,5,26z"/>
<polyline style="fill:none;stroke:#000000;stroke-width:2;stroke-miterlimit:10;" points="29,18 26,18 17.572,15.057 6,14 3,13 "/>
<path d="M20.863,18.764c-0.335,0.942,0.156,1.977,1.098,2.312c0.942,0.335,1.977-0.156,2.312-1.098L20.863,18.764z"/>
<circle cx="8.5" cy="17.5" r="1.5"/>
<polygon points="12.917,22 13.334,21 17.666,21.613 20.25,22 19,20 12,19 10.75,22 "/>
<path d="M23.333,24L24,26h3c0.552,0,1-0.448,1-1l-0.166-1H23.333z"/>
</svg>
