<?xml version="1.0" encoding="iso-8859-1"?>
<!-- Generator: Adobe Illustrator 19.1.0, SVG Export Plug-In . SVG Version: 6.00 Build 0)  -->
<svg version="1.1" id="Layer_1" xmlns="http://www.w3.org/2000/svg" xmlns:xlink="http://www.w3.org/1999/xlink" x="0px" y="0px"
	 viewBox="4 -4 32 32" style="enable-background:new 4 -4 32 32;" xml:space="preserve">
<path style="fill:none;stroke:#000000;stroke-width:2;stroke-linecap:round;stroke-miterlimit:10;" d="M31.007,8H33V5H9v2.923
	c0,0-0.344,1.655-2,1.655c0,0.52,0.659,1.496,1.571,1.496h0c1.042,0,1.773,1.026,1.432,2.011L8.15,19.083
	c-0.462,1.496,0.488,3.06,2.029,3.339l2.992,0.542c1.129,0.204,2.195-0.588,2.325-1.728l0.597-5.233
	C16.229,15.449,16.726,15,17.297,15l0.748-4h11.474L31.007,8z"/>
<line style="fill:none;stroke:#000000;stroke-width:2;stroke-miterlimit:10;" x1="19" y1="6" x2="14" y2="6"/>
<line style="fill:none;stroke:#000000;stroke-width:2;stroke-miterlimit:10;" x1="21" y1="8" x2="31" y2="8"/>
<polyline style="fill:none;stroke:#000000;stroke-width:2;stroke-miterlimit:10;" points="22,11 22,15 17.413,15 "/>
<line style="fill:none;stroke:#000000;stroke-width:2;stroke-miterlimit:10;" x1="31" y1="3" x2="31" y2="5"/>
<polygon points="11,5 8,5 7,3 9,3 "/>
</svg>
