<?xml version="1.0" encoding="utf-8"?>
<!-- Generator: Adobe Illustrator 18.0.0, SVG Export Plug-In . SVG Version: 6.00 Build 0)  -->
<svg version="1.1" id="Layer_1" xmlns="http://www.w3.org/2000/svg" xmlns:xlink="http://www.w3.org/1999/xlink" x="0px" y="0px"
	 viewBox="0 0 32 32" enable-background="new 0 0 32 32" xml:space="preserve">
<path fill="none" stroke="#000000" stroke-width="2" stroke-miterlimit="10" d="M11,17v0.5c0,0.8-0.7,1.5-1.5,1.5h0
	C8.7,19,8,18.3,8,17.5v-3C8,13.7,8.7,13,9.5,13h0c0.8,0,1.5,0.7,1.5,1.5V15"/>
<path fill="none" stroke="#000000" stroke-width="2" stroke-miterlimit="10" d="M23,14.4L23,14.4c0-0.7-0.5-1.4-1.5-1.4
	c-0.8,0-1.5,0.7-1.5,1.5v0c0,0.8,0.7,1.5,1.5,1.5h0c0.8,0,1.5,0.7,1.5,1.5v0c0,0.8-0.6,1.5-1.5,1.5c-1.1,0-1.5-0.6-1.5-1.4l0,0"/>
<path fill="none" stroke="#000000" stroke-width="2" stroke-miterlimit="10" d="M17,14.4L17,14.4c0-0.7-0.5-1.4-1.5-1.4
	c-0.8,0-1.5,0.7-1.5,1.5v0c0,0.8,0.7,1.5,1.5,1.5h0c0.8,0,1.5,0.7,1.5,1.5v0c0,0.8-0.6,1.5-1.5,1.5c-1.1,0-1.5-0.6-1.5-1.4l0,0"/>
<rect x="1" y="8" fill="none" stroke="#000000" stroke-width="2" stroke-miterlimit="10" width="30" height="16"/>
</svg>
