<?xml version="1.0" encoding="iso-8859-1"?>
<!-- Generator: Adobe Illustrator 19.1.0, SVG Export Plug-In . SVG Version: 6.00 Build 0)  -->
<svg version="1.1" id="Layer_1" xmlns="http://www.w3.org/2000/svg" xmlns:xlink="http://www.w3.org/1999/xlink" x="0px" y="0px"
	 viewBox="0 0 32 32" style="enable-background:new 0 0 32 32;" xml:space="preserve">
<line style="fill:none;stroke:#000000;stroke-width:2;stroke-miterlimit:10;" x1="28" y1="5" x2="4" y2="5"/>
<line style="fill:none;stroke:#000000;stroke-width:2;stroke-miterlimit:10;" x1="23" y1="20" x2="25" y2="20"/>
<path style="fill:none;stroke:#000000;stroke-width:2;stroke-miterlimit:10;" d="M18,7c0,7.424,4.362,12.093,5,12.545v0.903
	c0,0-2,1.428-2,6.553h6V7"/>
<path style="fill:none;stroke:#000000;stroke-width:2;stroke-miterlimit:10;" d="M27,7v0.5C27,8.328,26.328,9,25.5,9h0
	C24.672,9,24,8.328,24,7.5V7"/>
<path style="fill:none;stroke:#000000;stroke-width:2;stroke-miterlimit:10;" d="M24,7v0.5C24,8.328,23.328,9,22.5,9h0
	C21.672,9,21,8.328,21,7.5V7"/>
<path style="fill:none;stroke:#000000;stroke-width:2;stroke-miterlimit:10;" d="M21,7v0.5C21,8.328,20.328,9,19.5,9h0
	C18.672,9,18,8.328,18,7.5V7"/>
<line style="fill:none;stroke:#000000;stroke-width:2;stroke-miterlimit:10;" x1="7" y1="20" x2="9" y2="20"/>
<path style="fill:none;stroke:#000000;stroke-width:2;stroke-miterlimit:10;" d="M14,7c0,7.424-4.362,12.093-5,12.545v0.903
	c0,0,2,1.428,2,6.553H5V7"/>
<path style="fill:none;stroke:#000000;stroke-width:2;stroke-miterlimit:10;" d="M5,7v0.5C5,8.328,5.672,9,6.5,9h0
	C7.328,9,8,8.328,8,7.5V7"/>
<path style="fill:none;stroke:#000000;stroke-width:2;stroke-miterlimit:10;" d="M8,7v0.5C8,8.328,8.672,9,9.5,9h0
	C10.328,9,11,8.328,11,7.5V7"/>
<path style="fill:none;stroke:#000000;stroke-width:2;stroke-miterlimit:10;" d="M11,7v0.5C11,8.328,11.672,9,12.5,9h0
	C13.328,9,14,8.328,14,7.5V7"/>
</svg>
