<?xml version="1.0" encoding="utf-8"?>
<!-- Generator: Adobe Illustrator 18.1.1, SVG Export Plug-In . SVG Version: 6.00 Build 0)  -->
<svg version="1.1" id="Layer_1" xmlns="http://www.w3.org/2000/svg" xmlns:xlink="http://www.w3.org/1999/xlink" x="0px" y="0px"
	 viewBox="0 0 32 32" enable-background="new 0 0 32 32" xml:space="preserve">
<circle fill="none" stroke="#000000" stroke-width="2" stroke-miterlimit="10" cx="15" cy="16" r="3"/>
<circle cx="20.5" cy="20.5" r="1.5"/>
<line fill="none" stroke="#000000" stroke-width="2" stroke-miterlimit="10" x1="15" y1="13" x2="15" y2="3.7"/>
<line fill="none" stroke="#000000" stroke-width="2" stroke-miterlimit="10" x1="17.2" y1="18.2" x2="20.4" y2="20.4"/>
<path fill="none" stroke="#000000" stroke-width="2" stroke-miterlimit="10" d="M20,29v-4c0,0,0,0,1,0c2,0,4-2,4-4c0-1,0-2.2,0-2.2
	s1.1-0.3,1.7-0.5c0.8-0.2,0.9-1,0.6-1.7c-0.3-0.6-2.7-5.4-2.7-5.4S23.2,4,15,4C9.5,4,5,8.5,5,14c0,3.8,3,6.6,3,10.1V29"/>
</svg>
