<?xml version="1.0" encoding="iso-8859-1"?>
<!-- Generator: Adobe Illustrator 22.1.0, SVG Export Plug-In . SVG Version: 6.00 Build 0)  -->
<svg version="1.1" id="Layer_1_1_" xmlns="http://www.w3.org/2000/svg" xmlns:xlink="http://www.w3.org/1999/xlink" x="0px" y="0px"
	 viewBox="0 0 32 32" style="enable-background:new 0 0 32 32;" xml:space="preserve">
<path d="M22.712,4.888C22.143,4.543,21.552,4.256,20.931,4L16,14l4.965-0.539l-4.897,7.372l0.926-4.568l-5.186,0.471L16,3
	c-0.692,0-1.366,0.07-2.029,0.175C7.766,4.154,3,9.523,3,16c0,7.168,5.832,13,13,13s13-5.832,13-13
	C29,11.289,26.473,7.169,22.712,4.888z M5,16c0-5.128,3.411-9.412,8.167-10.625L9,19l5.5-0.5l-1.63,8.04C8.326,25.188,5,20.978,5,16
	z M16,27c-0.526,0-1.04-0.05-1.547-0.122L25,11l-5.583,0.608l2.406-4.901C24.926,8.654,27,12.074,27,16C27,22.065,22.065,27,16,27z"
	/>
</svg>
