<?xml version="1.0" encoding="utf-8"?>
<!-- Generator: Adobe Illustrator 18.0.0, SVG Export Plug-In . SVG Version: 6.00 Build 0)  -->
<svg version="1.1" id="Layer_1" xmlns="http://www.w3.org/2000/svg" xmlns:xlink="http://www.w3.org/1999/xlink" x="0px" y="0px"
	 viewBox="0 0 32 32" enable-background="new 0 0 32 32" xml:space="preserve">
<polygon fill="none" stroke="#000000" stroke-width="2" stroke-miterlimit="10" points="17,5 14,5 14,27 19,27 "/>
<path fill="none" stroke="#000000" stroke-width="2" stroke-miterlimit="10" d="M19,25c0,1.1,0.9,2,2,2s2-0.9,2-2"/>
<path fill="none" stroke="#000000" stroke-width="2" stroke-miterlimit="10" d="M23,25c0,1.1,0.9,2,2,2s2-0.9,2-2"/>
<path fill="none" stroke="#000000" stroke-width="2" stroke-miterlimit="10" d="M19,20c0,1.1,0.9,2,2,2s2-0.9,2-2"/>
<path fill="none" stroke="#000000" stroke-width="2" stroke-miterlimit="10" d="M23,20c0,1.1,0.9,2,2,2s2-0.9,2-2"/>
<path fill="none" stroke="#000000" stroke-width="2" stroke-miterlimit="10" d="M19,15c0,1.1,0.9,2,2,2s2-0.9,2-2"/>
<path fill="none" stroke="#000000" stroke-width="2" stroke-miterlimit="10" d="M23,15c0,1.1,0.9,2,2,2s2-0.9,2-2"/>
<path fill="none" stroke="#000000" stroke-width="2" stroke-miterlimit="10" d="M5,25c0,1.1,0.9,2,2,2s2-0.9,2-2"/>
<path fill="none" stroke="#000000" stroke-width="2" stroke-miterlimit="10" d="M9,25c0,1.1,0.9,2,2,2s2-0.9,2-2"/>
<path fill="none" stroke="#000000" stroke-width="2" stroke-miterlimit="10" d="M5,20c0,1.1,0.9,2,2,2s2-0.9,2-2"/>
<path fill="none" stroke="#000000" stroke-width="2" stroke-miterlimit="10" d="M9,20c0,1.1,0.9,2,2,2s2-0.9,2-2"/>
<path fill="none" stroke="#000000" stroke-width="2" stroke-miterlimit="10" d="M5,15c0,1.1,0.9,2,2,2s2-0.9,2-2"/>
<path fill="none" stroke="#000000" stroke-width="2" stroke-miterlimit="10" d="M9,15c0,1.1,0.9,2,2,2s2-0.9,2-2"/>
<path fill="none" stroke="#000000" stroke-width="2" stroke-miterlimit="10" d="M5,10c0,1.1,0.9,2,2,2s2-0.9,2-2"/>
<path fill="none" stroke="#000000" stroke-width="2" stroke-miterlimit="10" d="M9,10c0,1.1,0.9,2,2,2s2-0.9,2-2"/>
<path fill="none" stroke="#000000" stroke-width="2" stroke-miterlimit="10" d="M5,5c0,1.1,0.9,2,2,2s2-0.9,2-2"/>
<path fill="none" stroke="#000000" stroke-width="2" stroke-miterlimit="10" d="M9,5c0,1.1,0.9,2,2,2s2-0.9,2-2"/>
</svg>
