<?xml version="1.0" encoding="utf-8"?>
<!-- Generator: Adobe Illustrator 18.1.1, SVG Export Plug-In . SVG Version: 6.00 Build 0)  -->
<svg version="1.1" id="Layer_1" xmlns="http://www.w3.org/2000/svg" xmlns:xlink="http://www.w3.org/1999/xlink" x="0px" y="0px"
	 viewBox="0 0 32 32" enable-background="new 0 0 32 32" xml:space="preserve">
<polygon points="6,4 6,28 16,28 15.1,26 8,26 8,6 24,6 24,15.4 26,15.4 26,4 "/>
<line fill="none" stroke="#000000" stroke-width="2" stroke-miterlimit="10" x1="7" y1="12" x2="25" y2="12"/>
<polygon points="7,19 7,21 15.3,21 16.1,19 "/>
<path d="M30.2,22.5l1.2-0.5l-0.8-1.8l-1.2,0.5c-0.5-0.9-1.3-1.6-2.1-2.1l0.5-1.2L26,16.6l-0.5,1.2c-0.5-0.1-1-0.2-1.5-0.2
	c-0.5,0-1,0.1-1.5,0.2L22,16.6l-1.8,0.8l0.5,1.2c-0.9,0.5-1.6,1.3-2.1,2.1l-1.2-0.5L16.6,22l1.2,0.5c-0.2,1-0.2,2,0,3L16.6,26
	l0.8,1.8l1.2-0.5c0.5,0.9,1.3,1.6,2.1,2.1l-0.5,1.2l1.8,0.8l0.5-1.2c0.5,0.1,1,0.2,1.5,0.2c0.5,0,1-0.1,1.5-0.2l0.5,1.2l1.8-0.8
	l-0.5-1.2c0.9-0.5,1.6-1.3,2.1-2.1l1.2,0.5l0.8-1.8l-1.2-0.5C30.5,24.5,30.5,23.5,30.2,22.5z M25.7,28.1c-0.5,0.2-1.1,0.3-1.7,0.3
	c-1.8,0-3.4-1.1-4.1-2.7c-0.9-2.2,0.1-4.8,2.4-5.8c0.5-0.2,1.1-0.3,1.7-0.3c1.8,0,3.4,1.1,4.1,2.7C29,24.6,27.9,27.1,25.7,28.1z"/>
</svg>
