<?xml version="1.0" encoding="iso-8859-1"?>
<!-- Generator: Adobe Illustrator 19.1.0, SVG Export Plug-In . SVG Version: 6.00 Build 0)  -->
<svg version="1.1" id="Layer_1" xmlns="http://www.w3.org/2000/svg" xmlns:xlink="http://www.w3.org/1999/xlink" x="0px" y="0px"
	 viewBox="0 0 32 32" style="enable-background:new 0 0 32 32;" xml:space="preserve">
<path style="fill:none;stroke:#000000;stroke-width:2;stroke-miterlimit:10;" d="M22.023,16.55c0,0,1.466,0.45,2.313,0.45
	C26.05,17,27,15.272,27,15.272S25.988,14,24.646,14c-0.413,0-0.95,0.237-0.95,0.237"/>
<path style="fill:none;stroke:#000000;stroke-width:2;stroke-linejoin:round;stroke-miterlimit:10;" d="M19,12c6.928,0,9-3.369,9-8"
	/>
<path style="fill:none;stroke:#000000;stroke-width:2;stroke-linejoin:round;stroke-miterlimit:10;" d="M16,11c4.189,0,6-2.648,6-6"
	/>
<circle cx="19" cy="18" r="1"/>
<circle cx="18" cy="27" r="1"/>
<circle cx="14" cy="27" r="1"/>
<path style="fill:none;stroke:#000000;stroke-width:2;stroke-miterlimit:10;" d="M8.305,14.237c0,0-0.537-0.237-0.95-0.237
	C6.012,14,5,15.272,5,15.272S5.95,17,7.664,17c0.847,0,2.313-0.45,2.313-0.45"/>
<path style="fill:none;stroke:#000000;stroke-width:2;stroke-linejoin:round;stroke-miterlimit:10;" d="M4,4c0,4.631,2.072,8,9,8"/>
<path style="fill:none;stroke:#000000;stroke-width:2;stroke-linejoin:round;stroke-miterlimit:10;" d="M10,5c0,3.352,1.811,6,6,6"
	/>
<path style="fill:none;stroke:#000000;stroke-width:2;stroke-miterlimit:10;" d="M16,11c-3.6,0-6.001,3.682-6.001,6.345
	c0,3.39,1.822,4.879,3.001,9.655c0,0,1.208,1,3,1h-0.001c1.792,0,3-1,3-1C20.178,22.224,22,20.735,22,17.345
	C22,14.682,19.599,11,15.999,11H16z"/>
<circle cx="13" cy="18" r="1"/>
</svg>
