<?xml version="1.0" encoding="iso-8859-1"?>
<!-- Generator: Adobe Illustrator 19.1.0, SVG Export Plug-In . SVG Version: 6.00 Build 0)  -->
<svg version="1.1" id="Layer_1" xmlns="http://www.w3.org/2000/svg" xmlns:xlink="http://www.w3.org/1999/xlink" x="0px" y="0px"
	 viewBox="0 0 32 32" style="enable-background:new 0 0 32 32;" xml:space="preserve">
<path style="fill:none;stroke:#000000;stroke-width:2;stroke-miterlimit:10;" d="M10.892,25h10.216c1.061,0,1.938-0.829,1.997-1.889
	l0.824-14.829c0.046-0.822-0.411-1.595-1.164-1.93C21.45,5.768,19.127,5,16,5s-5.45,0.768-6.765,1.352
	c-0.753,0.334-1.209,1.108-1.164,1.93l0.824,14.829C8.954,24.171,9.831,25,10.892,25z"/>
<line style="fill:none;stroke:#000000;stroke-width:2;stroke-miterlimit:10;" x1="16" y1="28" x2="16" y2="25"/>
<line style="fill:none;stroke:#000000;stroke-width:2;stroke-miterlimit:10;" x1="8.788" y1="19" x2="23.212" y2="19"/>
<path style="fill:none;stroke:#000000;stroke-width:2;stroke-miterlimit:10;" d="M18,14c0,1.105-0.895,2-2,2s-2-0.895-2-2s2-4,2-4
	S18,12.895,18,14z"/>
<polygon points="17,21 17,23 20.112,23 20.214,21 "/>
<polygon points="15,21 15,23 11.888,23 11.786,21 "/>
</svg>
