<?xml version="1.0" encoding="iso-8859-1"?>
<!-- Generator: Adobe Illustrator 19.1.1, SVG Export Plug-In . SVG Version: 6.00 Build 0)  -->
<svg version="1.1" id="Layer_1" xmlns="http://www.w3.org/2000/svg" xmlns:xlink="http://www.w3.org/1999/xlink" x="0px" y="0px"
	 viewBox="0 0 32 32" style="enable-background:new 0 0 32 32;" xml:space="preserve">
<path style="fill:none;stroke:#000000;stroke-width:2;stroke-miterlimit:10;" d="M25,27H9c-1.105,0-2-0.895-2-2V7
	c0-1.105,0.895-2,2-2h16V27z"/>
<path style="fill:none;stroke:#000000;stroke-width:2;stroke-miterlimit:10;" d="M7,25c0-1.105,0.895-2,2-2h16"/>
<polyline style="fill:none;stroke:#000000;stroke-width:2;stroke-miterlimit:10;" points="15,18 15,16 13,11 12.9,11 11,16 11,18 
	"/>
<line id="XMLID_36_" style="fill:none;stroke:#000000;stroke-width:2;stroke-miterlimit:10;" x1="11.391" y1="16" x2="14.609" y2="16"/>
<path style="fill:none;stroke:#000000;stroke-width:2;stroke-miterlimit:10;" d="M23,17c-1.813,0-2-0.95-2-1.5"/>
<path style="fill:none;stroke:#000000;stroke-width:2;stroke-miterlimit:10;" d="M19.5,17L19.5,17c-0.825,0-1.5-0.675-1.5-1.5v-1
	c0-0.825,0.675-1.5,1.5-1.5h0c0.825,0,1.5,0.675,1.5,1.5v1C21,16.325,20.325,17,19.5,17z"/>
</svg>
