<?xml version="1.0" encoding="iso-8859-1"?>
<!-- Generator: Adobe Illustrator 19.1.0, SVG Export Plug-In . SVG Version: 6.00 Build 0)  -->
<svg version="1.1" id="Layer_1" xmlns="http://www.w3.org/2000/svg" xmlns:xlink="http://www.w3.org/1999/xlink" x="0px" y="0px"
	 viewBox="0 0 32 32" style="enable-background:new 0 0 32 32;" xml:space="preserve">
<path style="fill:none;stroke:#000000;stroke-width:2;stroke-miterlimit:10;" d="M15.657,8.343l2.172-2.172
	c1.562-1.562,4.095-1.562,5.657,0l2.343,2.343c1.562,1.562,1.562,4.095,0,5.657l-2.172,2.172"/>
<line style="fill:none;stroke:#000000;stroke-width:2;stroke-miterlimit:10;" x1="24.657" y1="7.343" x2="28" y2="4"/>
<line style="fill:none;stroke:#000000;stroke-width:2;stroke-miterlimit:10;" x1="14" y1="14" x2="17.542" y2="10.458"/>
<line style="fill:none;stroke:#000000;stroke-width:2;stroke-miterlimit:10;" x1="18" y1="18" x2="21.542" y2="14.458"/>
<line style="fill:none;stroke:#000000;stroke-width:2;stroke-miterlimit:10;" x1="14" y1="7" x2="25" y2="18"/>
<path style="fill:none;stroke:#000000;stroke-width:2;stroke-miterlimit:10;" d="M16.343,23.657l-2.172,2.172
	c-1.562,1.562-4.095,1.562-5.657,0l-2.343-2.343c-1.562-1.562-1.562-4.095,0-5.657l2.172-2.172"/>
<line style="fill:none;stroke:#000000;stroke-width:2;stroke-miterlimit:10;" x1="7.343" y1="24.657" x2="4" y2="28"/>
<line style="fill:none;stroke:#000000;stroke-width:2;stroke-miterlimit:10;" x1="18" y1="25" x2="7" y2="14"/>
</svg>
