<?xml version="1.0" encoding="iso-8859-1"?>
<!-- Generator: Adobe Illustrator 19.1.0, SVG Export Plug-In . SVG Version: 6.00 Build 0)  -->
<svg version="1.1" id="Layer_1" xmlns="http://www.w3.org/2000/svg" xmlns:xlink="http://www.w3.org/1999/xlink" x="0px" y="0px"
	 viewBox="0 0 32 32" style="enable-background:new 0 0 32 32;" xml:space="preserve">
<path style="fill:none;stroke:#000000;stroke-width:2;stroke-miterlimit:10;" d="M6.184,13.181C6.063,13.768,6,14.377,6,15
	c0,0.417,0,3.183,0,3.6"/>
<path style="fill:none;stroke:#000000;stroke-width:2;stroke-miterlimit:10;" d="M24,18.6c0-0.417,0-3.183,0-3.6
	c0-4.971-4.029-9-9-9c-2.162,0-4.146,0.762-5.697,2.033"/>
<path style="fill:none;stroke:#000000;stroke-width:2;stroke-miterlimit:10;" d="M17,11v1c0,1.105-0.895,2-2,2h-4
	c-1.657,0-3,1.343-3,3v0c-1.105,0-2,0.895-2,2c0,1.105,0.895,2,2,2c0,3.866,3.134,7,7,7s7-3.134,7-7c1.105,0,2-0.895,2-2
	c0-1.105-0.895-2-2-2v0c0-1.657-1.343-3-3-3h0c-1.105,0-2-0.895-2-2V11"/>
<circle cx="13" cy="19" r="1"/>
<circle cx="17.5" cy="19.5" r="1.5"/>
<path style="fill:none;stroke:#000000;stroke-width:2;stroke-linejoin:round;stroke-miterlimit:10;" d="M22.003,4.752
	c2.462,1.047,2.711,2.742,2.711,2.742s1.406-0.992,3.855,0.049"/>
<path style="fill:none;stroke:#000000;stroke-width:2;stroke-linejoin:round;stroke-miterlimit:10;" d="M2.328,8.169
	c2.462,1.047,2.711,2.742,2.711,2.742s1.406-0.992,3.855,0.049"/>
<path style="fill:none;stroke:#000000;stroke-width:2;stroke-linejoin:round;stroke-miterlimit:10;" d="M5.858,5.421
	C8.167,4.068,9.676,4.88,9.676,4.88s0.042-1.72,2.338-3.066"/>
</svg>
