<?xml version="1.0" encoding="utf-8"?>
<!-- Generator: Adobe Illustrator 18.0.0, SVG Export Plug-In . SVG Version: 6.00 Build 0)  -->
<svg version="1.1" id="Layer_1" xmlns="http://www.w3.org/2000/svg" xmlns:xlink="http://www.w3.org/1999/xlink" x="0px" y="0px"
	 viewBox="0 0 32 32" enable-background="new 0 0 32 32" xml:space="preserve">
<path fill="none" stroke="#000000" stroke-width="2" stroke-miterlimit="10" d="M24,15v-0.5c0-0.8-0.7-1.5-1.5-1.5h0
	c-0.8,0-1.5,0.7-1.5,1.5v3c0,0.8,0.7,1.5,1.5,1.5H24v-2h-1"/>
<polyline fill="none" stroke="#000000" stroke-width="2" stroke-miterlimit="10" points="25,22 25,28 7,28 7,22 "/>
<polyline fill="none" stroke="#000000" stroke-width="2" stroke-miterlimit="10" points="7,10 7,4 25,4 25,10 "/>
<path fill="none" stroke="#000000" stroke-width="2" stroke-miterlimit="10" d="M9,13H8v6h1c1.1,0,2-0.9,2-2v-2
	C11,13.9,10.1,13,9,13z"/>
<polyline id="XMLID_9_" fill="none" stroke="#000000" stroke-width="2" stroke-miterlimit="10" points="14,20 14,13 14.5,13 16,15 
	17.5,13 18,13 18,20 "/>
</svg>
