<?xml version="1.0" encoding="utf-8"?>
<!-- Generator: Adobe Illustrator 18.0.0, SVG Export Plug-In . SVG Version: 6.00 Build 0)  -->
<svg version="1.1" id="Layer_1" xmlns="http://www.w3.org/2000/svg" xmlns:xlink="http://www.w3.org/1999/xlink" x="0px" y="0px"
	 viewBox="0 0 32 32" enable-background="new 0 0 32 32" xml:space="preserve">
<line fill="none" stroke="#000000" stroke-width="2" stroke-miterlimit="10" x1="3" y1="3" x2="29" y2="29"/>
<g>
	<rect x="9.8" y="18.5" transform="matrix(0.7074 0.7068 -0.7068 0.7074 17.8028 -4.101)" width="8.1" height="2"/>
	<rect x="18.7" y="16.5" transform="matrix(-0.7071 0.7071 -0.7071 -0.7071 46.6491 15.754)" width="2.7" height="2"/>
	<polygon points="26,27.4 26,16 28,16 28,14 24,14 24,25.4 	"/>
	<polygon points="17,17.4 17,4 15,4 15,15.4 	"/>
	<polygon points="23.8,28 21.8,26 8,26 8,14 4,14 4,16 6,16 6,28 	"/>
</g>
</svg>
