<?xml version="1.0" encoding="utf-8"?>
<!-- Generator: Adobe Illustrator 18.0.0, SVG Export Plug-In . SVG Version: 6.00 Build 0)  -->
<svg version="1.1" id="Layer_1" xmlns="http://www.w3.org/2000/svg" xmlns:xlink="http://www.w3.org/1999/xlink" x="0px" y="0px"
	 viewBox="0 0 32 32" enable-background="new 0 0 32 32" xml:space="preserve">
<line fill="none" stroke="#000000" stroke-width="2" stroke-miterlimit="10" x1="3" y1="3" x2="29" y2="29"/>
<polyline fill="none" stroke="#000000" stroke-width="2" stroke-miterlimit="10" points="11,19 5,19 5,13 "/>
<polyline fill="none" stroke="#000000" stroke-width="2" stroke-miterlimit="10" points="19,27 13,27 13,21 "/>
<g>
	<rect x="5" y="15.1" transform="matrix(0.7071 -0.7071 0.7071 0.7071 -9.0834 10.2964)" width="5.8" height="2"/>
	<polygon points="12.1,13.4 16.4,9 23,9 23,15.6 18.6,19.9 20.1,21.4 25,16.4 25,9 28,9 28,7 25,7 25,4 23,4 23,7 15.6,7 10.6,11.9 
			"/>
	<rect x="13" y="23.1" transform="matrix(0.7071 -0.7071 0.7071 0.7071 -12.3971 18.2964)" width="5.8" height="2"/>
</g>
</svg>
