<?xml version="1.0" encoding="utf-8"?>
<!-- Generator: Adobe Illustrator 18.0.0, SVG Export Plug-In . SVG Version: 6.00 Build 0)  -->
<svg version="1.1" id="Layer_1" xmlns="http://www.w3.org/2000/svg" xmlns:xlink="http://www.w3.org/1999/xlink" x="0px" y="0px"
	 viewBox="0 0 32 32" enable-background="new 0 0 32 32" xml:space="preserve">
<line fill="none" stroke="#000000" stroke-width="2" stroke-miterlimit="10" x1="11" y1="28" x2="11" y2="24"/>
<polygon points="11,22 8,25 14,25 "/>
<g>
	<path d="M22,18c-1.8,0-2.5,0.6-3.1,1.1c-0.2,0.2-0.4,0.3-0.6,0.4l1.4,1.4c0.1-0.1,0.3-0.2,0.4-0.3C20.7,20.3,21,20,22,20
		c2.2,0,4-1.8,4-4c0-2.1-1.6-3.8-3.6-4c-0.7-0.8-1.4-1.7-1.4-2V4h-2v6c0,1.3,1.6,3,2.3,3.7l0.3,0.3H22c1.1,0,2,0.9,2,2
		S23.1,18,22,18z"/>
	<polygon points="21,22 20.9,22.1 23.7,25 24,25 	"/>
	<path d="M10.1,11.4l1.4,1.4C12.2,12,13,10.9,13,10V4h-2l0,6C11,10.2,10.6,10.8,10.1,11.4z"/>
	<path d="M15.9,20c-1.7,0-2.2-0.4-2.8-0.9C12.5,18.6,11.7,18,10,18c-1.1,0-2-0.9-2-2c0-1.1,0.9-1.9,1.9-2l-1.6-1.6
		C6.9,13,6,14.4,6,16c0,2.2,1.8,4,4,4c1,0,1.3,0.3,1.9,0.7c0.7,0.6,1.6,1.3,4.1,1.3c0.7,0,1.3-0.1,1.8-0.2L15.9,20z"/>
	<polygon points="19.5,23.5 18,25 20,25 20,28 22,28 22,26.1 	"/>
</g>
<line fill="none" stroke="#000000" stroke-width="2" stroke-miterlimit="10" x1="3" y1="3" x2="29" y2="29"/>
</svg>
