<?xml version="1.0" encoding="iso-8859-1"?>
<!-- Generator: Adobe Illustrator 19.1.1, SVG Export Plug-In . SVG Version: 6.00 Build 0)  -->
<svg version="1.1" id="Layer_1" xmlns="http://www.w3.org/2000/svg" xmlns:xlink="http://www.w3.org/1999/xlink" x="0px" y="0px"
	 viewBox="0 0 32 32" style="enable-background:new 0 0 32 32;" xml:space="preserve">
<g>
	<polygon points="5,28 23.8,28 21.8,26 16.927,26 20.521,24.721 18.956,23.156 12.371,25.499 6.828,19.956 13.245,17.445 
		11.701,15.901 6.97,17.753 9.027,13.227 7.517,11.717 3.843,19.799 10.044,26 5,26 	"/>
	<polygon points="9.911,11.283 10.215,10.615 17.353,7.37 14.433,14.833 13.734,15.106 15.278,16.65 15.977,16.376 19.556,7.228 
		25.099,12.771 21.758,22.158 21.041,22.413 22.607,23.979 23.323,23.724 27.407,12.25 19.399,4.243 8.704,9.104 8.4,9.772 	"/>
</g>
<line style="fill:none;stroke:#000000;stroke-width:2;stroke-miterlimit:10;" x1="3" y1="3" x2="29" y2="29"/>
</svg>
