<?xml version="1.0" encoding="iso-8859-1"?>
<!-- Generator: Adobe Illustrator 19.1.1, SVG Export Plug-In . SVG Version: 6.00 Build 0)  -->
<svg version="1.1" id="Layer_1" xmlns="http://www.w3.org/2000/svg" xmlns:xlink="http://www.w3.org/1999/xlink" x="0px" y="0px"
	 viewBox="0 0 32 32" style="enable-background:new 0 0 32 32;" xml:space="preserve">
<path style="fill:none;stroke:#000000;stroke-width:2;stroke-linecap:round;stroke-linejoin:round;stroke-miterlimit:10;" d="
	M20.089,16c2.15,0,3.368-1.105,3.674-1.289c-0.404-0.526-0.609-1.164-0.671-1.846c-0.191-2.11,1.002-3.096,1.002-3.096
	s1.737,0.985,2.153,3.175c2.298-0.629,3.712,0.535,3.712,0.535s-0.719,2.521-4.365,2.383c-2.477,6.158-7.778,9.164-14.302,9.164
	c-7.023,0-9.333-5.104-9.333-8.293C1.96,16.156,2.078,16,2.078,16S17.767,16,20.089,16z"/>
<path d="M10.71,19.203c0.075,0,0.146,0.014,0.211,0.04c-0.071,0.041-0.119,0.118-0.119,0.206c0,0.131,0.107,0.238,0.238,0.238
	c0.09,0,0.169-0.05,0.209-0.123c0.029,0.069,0.044,0.144,0.044,0.223c0,0.321-0.261,0.582-0.583,0.582
	c-0.322,0-0.583-0.261-0.583-0.582C10.127,19.464,10.388,19.203,10.71,19.203"/>
<path d="M1,19h29.083c-0.634-0.16-2.004-0.377-1.777-1.205c-1.152,1.33-3.928,0.933-4.629,0.277c-0.781,1.13-5.324,0.701-5.64-0.18
	c-0.978,1.146-4.01,1.146-4.989,0c-0.317,0.88-4.86,1.31-5.641,0.18c-0.701,0.656-3.477,1.053-4.629-0.277
	C3.004,18.623,1.634,18.84,1,19"/>
<rect x="4" y="13" style="fill:none;stroke:#000000;stroke-width:2;stroke-miterlimit:10;" width="3.005" height="3"/>
<rect x="7" y="13" style="fill:none;stroke:#000000;stroke-width:2;stroke-miterlimit:10;" width="3.005" height="3"/>
<rect x="10" y="13" style="fill:none;stroke:#000000;stroke-width:2;stroke-miterlimit:10;" width="3.005" height="3"/>
<rect x="13" y="13" style="fill:none;stroke:#000000;stroke-width:2;stroke-miterlimit:10;" width="3.005" height="3"/>
<rect x="7" y="10" style="fill:none;stroke:#000000;stroke-width:2;stroke-miterlimit:10;" width="3.005" height="3"/>
<rect x="10" y="10" style="fill:none;stroke:#000000;stroke-width:2;stroke-miterlimit:10;" width="3.005" height="3"/>
<rect x="13" y="10" style="fill:none;stroke:#000000;stroke-width:2;stroke-miterlimit:10;" width="3.005" height="3"/>
<rect x="13" y="7" style="fill:none;stroke:#000000;stroke-width:2;stroke-miterlimit:10;" width="3.005" height="3"/>
<rect x="16" y="13" style="fill:none;stroke:#000000;stroke-width:2;stroke-miterlimit:10;" width="3.005" height="3"/>
<path style="fill:none;stroke:#000000;stroke-width:2;stroke-linecap:round;stroke-linejoin:round;stroke-miterlimit:10;" d="
	M9.072,20.813c0,0-2.678,0.934-5.772,0.398"/>
</svg>
