<?xml version="1.0" encoding="iso-8859-1"?>
<!-- Generator: Adobe Illustrator 21.0.0, SVG Export Plug-In . SVG Version: 6.00 Build 0)  -->
<svg version="1.1"  xmlns="http://www.w3.org/2000/svg" xmlns:xlink="http://www.w3.org/1999/xlink" x="0px" y="0px"
	 viewBox="0 0 32 32" style="enable-background:new 0 0 32 32;" xml:space="preserve">
<path d="M13,8H2v21.154V30h0.8h14.4H18v-0.846V13.923v-0.344l-0.225-0.264L13,8z M4,10h7v4v1h1h4v13H4V10z M13.2,10.909l2.05,2.168
	H13.2V10.909z M6,18v2h8v-2H6z M6,22v2h8v-2H6z"/>
<g>
	<rect x="20" y="12" width="6" height="2"/>
	<rect x="20" y="16" width="6" height="2"/>
	<path d="M29.775,7.315l-4.8-5.077L24.725,2H24.4h-9.6H14v0.846V7l2,2V4h7v4v1h1h4v13h-8v2h9.2H30v-0.846V7.923V7.579L29.775,7.315z
		 M25.2,7.077V4.909l2.05,2.168H25.2z"/>
</g>
</svg>
