<?xml version="1.0" encoding="iso-8859-1"?>
<!-- Generator: Adobe Illustrator 19.1.0, SVG Export Plug-In . SVG Version: 6.00 Build 0)  -->
<svg version="1.1" id="Layer_1" xmlns="http://www.w3.org/2000/svg" xmlns:xlink="http://www.w3.org/1999/xlink" x="0px" y="0px"
	 viewBox="0 0 32 32" style="enable-background:new 0 0 32 32;" xml:space="preserve">
<path d="M20.576,13.753C20.466,14.798,20,16.979,20,16.979c2.026,0.206,3.381-1.136,3.876-2.951L20.576,13.753z"/>
<path style="fill:none;stroke:#000000;stroke-width:2;stroke-miterlimit:10;" d="M7.766,24.097c0,0,0.538,0.903,3.234,0.903
	c0-2.13-0.926-3.286-2-4c0.485-5.729,7.539-6.971,7.539-6.971 M17,12c0,1.047-1,1.295-1,5c1.607,0,3.502-2.387,3.967-3
	C26.344,14,29,13.825,29,12.635c0-0.265-0.488-1.389-2-1.921C26.659,9.205,24.813,6,20.126,6c-3.382,0-5.201,1.262-5.201,1.262
	S13.383,6,10.407,6C8.878,6,7,7,7,7v0.136c0,0,2.68,0.925,4,2.543C5.312,13.438,6,21,6,21s-3,1.128-3,5c2.136,0,5-0.628,5-3"/>
<circle cx="23.5" cy="11.5" r="0.5"/>
</svg>
