<?xml version="1.0" encoding="iso-8859-1"?>
<!-- Generator: Adobe Illustrator 19.1.0, SVG Export Plug-In . SVG Version: 6.00 Build 0)  -->
<svg version="1.1" id="Layer_1" xmlns="http://www.w3.org/2000/svg" xmlns:xlink="http://www.w3.org/1999/xlink" x="0px" y="0px"
	 viewBox="0 0 32 32" style="enable-background:new 0 0 32 32;" xml:space="preserve">
<g>
	<path d="M7.345,11c1.077-1.855,2.731-3.335,4.717-4.189C11.398,7.938,10.871,9.365,10.514,11h2.072C13.345,7.961,14.723,6,16,6
		s2.655,1.961,3.414,5h2.072c-0.357-1.635-0.884-3.062-1.548-4.189c1.986,0.854,3.64,2.334,4.717,4.189h2.24
		C24.994,6.876,20.831,4,16,4S7.006,6.876,5.105,11H7.345z"/>
	<path d="M24.655,21c-1.077,1.855-2.731,3.335-4.717,4.189c0.664-1.127,1.191-2.554,1.548-4.189h-2.072
		c-0.759,3.039-2.136,5-3.414,5s-2.655-1.961-3.414-5h-2.072c0.357,1.635,0.884,3.062,1.548,4.189
		c-1.986-0.854-3.64-2.334-4.717-4.189h-2.24c1.901,4.124,6.064,7,10.895,7s8.994-2.876,10.895-7H24.655z"/>
</g>
<g>
	<path d="M20,13l-1.5,6h-1.416c0,0-1.022-3.658-1.033-3.906h-0.016C16.012,15.367,14.967,19,14.967,19h-1.476L12,13h1.397
		c0,0,0.859,3.545,0.874,3.832h0.024C14.305,16.617,15.438,13,15.438,13h1.369c0,0,0.994,3.542,1.021,3.824h0.016
		C17.854,16.603,18.71,13,18.71,13H20z"/>
</g>
<g>
	<path d="M28,13l-1.5,6h-1.416c0,0-1.022-3.658-1.033-3.906h-0.016C24.012,15.367,22.967,19,22.967,19h-1.476L20,13h1.397
		c0,0,0.859,3.545,0.874,3.832h0.024C22.305,16.617,23.438,13,23.438,13h1.369c0,0,0.994,3.542,1.021,3.824h0.016
		C25.854,16.603,26.71,13,26.71,13H28z"/>
</g>
<g>
	<path d="M12,13l-1.5,6H9.084c0,0-1.022-3.658-1.033-3.906H8.036C8.012,15.367,6.967,19,6.967,19H5.492L4,13h1.397
		c0,0,0.859,3.545,0.874,3.832h0.024C6.305,16.617,7.438,13,7.438,13h1.369c0,0,0.994,3.542,1.021,3.824h0.016
		C9.854,16.603,10.71,13,10.71,13H12z"/>
</g>
</svg>
