<?xml version="1.0" encoding="iso-8859-1"?>
<!-- Generator: Adobe Illustrator 19.1.1, SVG Export Plug-In . SVG Version: 6.00 Build 0)  -->
<svg version="1.1" id="Layer_1" xmlns="http://www.w3.org/2000/svg" xmlns:xlink="http://www.w3.org/1999/xlink" x="0px" y="0px"
	 viewBox="0 0 32 32" style="enable-background:new 0 0 32 32;" xml:space="preserve">
<g>
	<g>
		<path style="fill:none;stroke:#000000;stroke-width:2;stroke-miterlimit:10;" d="M23,17c0,0-0.449-0.449-1.009-0.629
			C21.994,16.248,22,16.124,22,16c0-6.679-2.412-5.622-4-8c-0.959,0-8-0.255-8,8c0,0.124,0.006,0.248,0.009,0.371
			C9.476,16.415,9,17,9,17c0,1.058,0.386,2.286,1.026,2.585C10.724,23.16,12.607,26,16,26s5.276-2.841,5.974-6.415
			C22.614,19.286,23,18.058,23,17z"/>
	</g>
</g>
<path style="fill:none;stroke:#000000;stroke-width:2;stroke-miterlimit:10;" d="M13,21.617c0,0,1.651,0.383,3,0.383
	s3-0.383,3-0.383"/>
<path style="fill:none;stroke:#000000;stroke-width:2;stroke-miterlimit:10;" d="M14.417,22.019c0,0,0.728,0.618,1.574,0.618
	c0.846,0,1.574-0.618,1.574-0.618"/>
<path style="fill:none;stroke:#000000;stroke-width:2;stroke-miterlimit:10;" d="M17.282,13.761c0,0,0.947-0.745,1.863-0.745
	c1.447,0,2.411,0.59,2.411,0.59"/>
<path style="fill:none;stroke:#000000;stroke-width:2;stroke-miterlimit:10;" d="M10.589,13.606c0,0,0.964-0.59,2.411-0.59
	c0.916,0,1.863,0.745,1.863,0.745"/>
<circle cx="19.5" cy="15.5" r="0.75"/>
<circle cx="12.5" cy="15.5" r="0.75"/>
<path style="fill:none;stroke:#000000;stroke-width:2;stroke-miterlimit:10;" d="M7,30c0-3.369-1-9.67-1-15
	C6,7.446,9.956,3,15.438,3C18.649,3,20,6,20,6"/>
<path style="fill:none;stroke:#000000;stroke-width:2;stroke-miterlimit:10;" d="M18,4h1c4.327,0,7,4.459,7,12
	c0,6.029-1.029,11.132-1,14"/>
<path d="M14.764,20c0,0,0-0.03,0.465-1.973c0.051,0.007,1.492,0.008,1.542,0L17.236,20H14.764z"/>
<line style="fill:none;stroke:#000000;stroke-width:2;stroke-miterlimit:10;" x1="13" y1="25" x2="13" y2="30"/>
<line style="fill:none;stroke:#000000;stroke-width:2;stroke-miterlimit:10;" x1="19" y1="25" x2="19" y2="30"/>
</svg>
