<?xml version="1.0" encoding="iso-8859-1"?>
<!-- Generator: Adobe Illustrator 19.1.1, SVG Export Plug-In . SVG Version: 6.00 Build 0)  -->
<svg version="1.1" id="Layer_1" xmlns="http://www.w3.org/2000/svg" xmlns:xlink="http://www.w3.org/1999/xlink" x="0px" y="0px"
	 viewBox="0 0 32 32" style="enable-background:new 0 0 32 32;" xml:space="preserve">
<path style="fill:none;stroke:#000000;stroke-width:2;stroke-miterlimit:10;" d="M25.875,24c0.044,0,0.086,0,0.125,0
	c2.761,0,5-2.239,5-5c0-2.066-1.253-3.837-3.04-4.6C27.97,14.266,28,14.137,28,14c0-2.761-2.239-5-5-5
	c-0.58,0-1.129,0.118-1.647,0.3C20.364,7.344,18.341,6,16,6c-3.014,0-5.501,2.224-5.928,5.119c-1.48,0.353-2.64,1.522-2.971,3.011
	C6.746,14.05,6.379,14,6,14c-2.761,0-5,2.239-5,5c0,0.055,0.001,0.11,0.003,0.165"/>
<line style="fill:none;stroke:#000000;stroke-width:2;stroke-miterlimit:10;" x1="14.292" y1="19.792" x2="4.646" y2="29.292"/>
<line style="fill:none;stroke:#000000;stroke-width:2;stroke-miterlimit:10;" x1="19.292" y1="19.792" x2="9.646" y2="29.292"/>
<line style="fill:none;stroke:#000000;stroke-width:2;stroke-miterlimit:10;" x1="24.292" y1="19.792" x2="14.646" y2="29.292"/>
<g>
	<path d="M4.841,24.888L6.758,23H6.001v0.002L6,23c-2.172,0-3.928-1.698-3.998-3.867l-1.998,0.064
		C0.096,22.055,2.139,24.367,4.841,24.888z"/>
</g>
<g>
	<polygon points="23.28,25 23.938,25 25.875,25 25.875,23 25.311,23 	"/>
</g>
</svg>
