<?xml version="1.0" encoding="iso-8859-1"?>
<!-- Generator: Adobe Illustrator 19.1.1, SVG Export Plug-In . SVG Version: 6.00 Build 0)  -->
<svg version="1.1" id="Layer_1" xmlns="http://www.w3.org/2000/svg" xmlns:xlink="http://www.w3.org/1999/xlink" x="0px" y="0px"
	 viewBox="0 0 32 32" style="enable-background:new 0 0 32 32;" xml:space="preserve">
<polygon points="16,30 12,26 20,26 "/>
<line style="fill:none;stroke:#000000;stroke-width:2;stroke-miterlimit:10;" x1="16" y1="18" x2="16" y2="27"/>
<path style="fill:none;stroke:#000000;stroke-width:2;stroke-miterlimit:10;" d="M19,23c0,0,4.513,0,5,0c2.761,0,5-2.239,5-5
	s-2.239-5-5-5c-0.088,0-0.169,0.021-0.256,0.026C22.864,9.564,19.736,7,16,7c-2.565,0-4.842,1.212-6.306,3.089
	C9.47,10.036,9.24,10,9,10c-1.657,0-3,1.343-3,3c0,0.137,0.023,0.268,0.04,0.4C4.253,14.163,3,15.934,3,18c0,2.761,2.239,5,5,5
	c0.487,0,5,0,5,0"/>
</svg>
