<?xml version="1.0" encoding="iso-8859-1"?>
<!-- Generator: Adobe Illustrator 19.1.1, SVG Export Plug-In . SVG Version: 6.00 Build 0)  -->
<svg version="1.1"  xmlns="http://www.w3.org/2000/svg" xmlns:xlink="http://www.w3.org/1999/xlink" x="0px" y="0px"
	 viewBox="0 0 32 32" style="enable-background:new 0 0 32 32;" xml:space="preserve">
<line style="fill:none;stroke:#000000;stroke-width:2;stroke-linejoin:round;" x1="23" y1="16" x2="26.056" y2="10"/>
<circle style="fill:none;stroke:#000000;stroke-width:2;stroke-miterlimit:10;" cx="14" cy="7" r="2"/>
<path d="M12.674,19.445l1.569-1.954L13.141,13l1.794,0l2.388,1.55c0.564,0.496,1.356,0.641,2.007,0.385l3.214-1.033l-0.611-1.904
	l-3.289,1.05L16.257,11.5c-0.333-0.293-0.76-0.469-1.266-0.5h-2.484c-0.424,0-0.83,0.18-1.115,0.493s-0.425,0.735-0.385,1.156
	l1.62,6.645C12.639,19.346,12.661,19.394,12.674,19.445z"/>
<path d="M22.594,22.08l-0.035-0.115C22.117,20.79,20.978,20,19.723,20H16c-0.687,0-1.271-0.468-1.426-1.161l-0.031-0.125
	l-1.409,1.756C13.758,21.406,14.811,22,16,22h3.723c0.409,0,0.783,0.248,0.944,0.621l1.361,5.615l1.943-0.472L22.594,22.08z"/>
<path d="M4.931,8.09v2.552l5.647,4.47l-0.543-2.225l-0.017-0.07l-0.007-0.072c-0.02-0.206-0.006-0.411,0.025-0.612L4.931,8.09z"/>
<polygon points="11.249,26 17.561,18.089 16.023,16.871 8.694,26 "/>
</svg>
