<?xml version="1.0" encoding="iso-8859-1"?>
<!-- Generator: Adobe Illustrator 19.1.0, SVG Export Plug-In . SVG Version: 6.00 Build 0)  -->
<svg version="1.1" id="Layer_1" xmlns="http://www.w3.org/2000/svg" xmlns:xlink="http://www.w3.org/1999/xlink" x="0px" y="0px"
	 viewBox="0 0 32 32" style="enable-background:new 0 0 32 32;" xml:space="preserve">
<g>
	<path d="M13.22,10.8v4.517h1.489v-1.429l5.014-2.162v3.59h1.356v1.312h-1.337v3.957c0.083,0.158,0.366,0.192,0.592,0.192
		c0.168,0,0.305-0.019,0.305-0.019c0.303-0.059,0.538-0.091,0.78-0.091c0.331,0,0.674,0.059,1.223,0.187
		c0.222,0.052,0.416,0.074,0.586,0.074c0.781,0,1.049-0.466,1.049-0.672c0.038-0.212-0.215-0.478-0.348-0.603
		c-0.101-0.095-2.184-1.272-2.184-2.485c0-1.595,3.375-1.949,4.329-1.949c2.241,0,3.547,0.463,3.547,0.463l-0.133,0.598
		c0,0-0.569-0.012-0.744-0.012c-0.304,0-0.579,0.072-0.579,0.072c-1.087,0.386,0.217,1.339,0.379,1.464
		c0.369,0.286,1.11,0.816,1.345,1.371c0.591,1.4-1.307,2.413-2.556,2.625c-0.233,0.04-1.066,0.162-1.974,0.162
		c-0.126,0-0.253-0.002-0.381-0.008c-1.276-0.053-1.726-0.145-2.184-0.222c-0.076-0.016-0.675-0.197-1.137-0.232
		c-0.058-0.004-0.113-0.006-0.166-0.006c-0.356,0-0.601,0.087-0.683,0.105c-1.412,0.303-2.744,0.355-2.744,0.355
		c-3.128,0-3.372-1.351-3.372-1.351V16.63h-1.491v5.347H8.185v-0.24C7.652,21.906,7.065,22,6.449,22C3.992,22,2,20.915,2,18.656
		c0-2.008,1.992-3.344,4.449-3.344c0.617,0,1.204,0.094,1.738,0.265V10.8H13.22 M8.347,20.595v-3.858
		c-0.822,0.171-1.445,0.994-1.445,1.929C6.902,19.601,7.525,20.424,8.347,20.595 M21.723,8.686L18.932,9.89l-3.712,1.6V10.8v-2h-2
		H8.187h-2v2v2.517C2.642,13.423,0,15.683,0,18.656C0,21.853,2.592,24,6.449,24c0.207,0,0.412-0.008,0.616-0.024h1.12h5.016h2
		v-0.457c0.725,0.265,1.659,0.438,2.863,0.438h0.039l0.039-0.002c0.061-0.002,1.522-0.063,3.084-0.398
		c0.039-0.008,0.094-0.022,0.162-0.04c0.054-0.015,0.075-0.02,0.101-0.02c0.142,0.01,0.369,0.059,0.692,0.146
		c0.102,0.027,0.174,0.044,0.205,0.051l0.037,0.008l0.037,0.006l0.11,0.019c0.457,0.078,1.026,0.176,2.323,0.229
		c0.155,0.006,0.31,0.009,0.463,0.009c1.132,0,2.123-0.159,2.31-0.19c1.299-0.221,3.105-1.006,3.919-2.492
		c0.496-0.905,0.547-1.929,0.144-2.883c-0.126-0.297-0.295-0.568-0.484-0.812l0.194-0.871l0.133-0.598l0.385-1.728l-1.669-0.592
		c-0.167-0.059-1.703-0.578-4.216-0.578c-1.198,0-2.185,0.143-2.994,0.38v-0.283h-1.356v-1.59V8.686L21.723,8.686z"/>
</g>
</svg>
