<?xml version="1.0" encoding="iso-8859-1"?>
<!-- Generator: Adobe Illustrator 19.1.0, SVG Export Plug-In . SVG Version: 6.00 Build 0)  -->
<svg version="1.1" id="Layer_1" xmlns="http://www.w3.org/2000/svg" xmlns:xlink="http://www.w3.org/1999/xlink" x="0px" y="0px"
	 viewBox="0 0 32 32" style="enable-background:new 0 0 32 32;" xml:space="preserve">
<path style="fill:none;stroke:#000000;stroke-width:2;stroke-miterlimit:10;" d="M4,18c0,0,4.973,5.999,12.285,5.999
	c6.521,0,7.715-3.262,7.715-5.423c0-3.288-2.993-4.775-2.993-7.383C21.007,9.368,23,9.241,23,7c0-1.961-1.798-3.001-3.181-3.001
	c-1.755,0-3.315,1.368-3.315,3.19c0,1.985,1.501,2.67,1.501,5.265c0,2.168-3.287,7.546-8.35,7.546c-2.368,0-2.656-1.444-2.656-2"/>
<path d="M21.877,10C25.157,10,28,10.11,28,7c0,0-1.095,0-2.021,0c-1.304,0-2.147-1.125-2.147-1.125S22.595,7.386,21.877,10z"/>
<path style="fill:none;stroke:#000000;stroke-width:2;stroke-miterlimit:10;" d="M17,23.61c0,1.878-1.428,2.919-2,3.29V27h6"/>
<circle cx="20.257" cy="6.996" r="0.75"/>
</svg>
