<?xml version="1.0" encoding="iso-8859-1"?>
<!-- Generator: Adobe Illustrator 19.1.0, SVG Export Plug-In . SVG Version: 6.00 Build 0)  -->
<svg version="1.1" id="Layer_1" xmlns="http://www.w3.org/2000/svg" xmlns:xlink="http://www.w3.org/1999/xlink" x="0px" y="0px"
	 viewBox="0 0 32 32" style="enable-background:new 0 0 32 32;" xml:space="preserve">
<polyline style="fill:none;stroke:#000000;stroke-width:2;stroke-miterlimit:10;" points="5,12.558 20.541,6.121 27,11.249 
	26.059,19.442 10.518,25.879 "/>
<path d="M11.867,14.472l0.471,1.136l-1.77,0.732l0.377,0.91l1.658-0.687l0.451,1.09l-1.658,0.687l0.439,1.06l1.836-0.761
	l0.471,1.136l-3.225,1.336L8.71,15.779L11.867,14.472z"/>
<path d="M14.555,13.358l2.257,2.914l0.015-0.006l-1.36-3.285l1.299-0.538l2.208,5.331l-1.523,0.631l-2.289-2.91l-0.015,0.007
	l1.364,3.293l-1.3,0.538l-2.208-5.331L14.555,13.358z"/>
<path d="M21.139,10.631l0.471,1.136L19.84,12.5l0.377,0.91l1.658-0.687l0.451,1.09L20.669,14.5l0.438,1.06l1.837-0.761l0.47,1.136
	l-3.225,1.336l-2.208-5.331L21.139,10.631z"/>
</svg>
