<?xml version="1.0" encoding="iso-8859-1"?>
<!-- Generator: Adobe Illustrator 19.1.1, SVG Export Plug-In . SVG Version: 6.00 Build 0)  -->
<svg version="1.1" id="Layer_1" xmlns="http://www.w3.org/2000/svg" xmlns:xlink="http://www.w3.org/1999/xlink" x="0px" y="0px"
	 viewBox="-8 10 32 32" style="enable-background:new -8 10 32 32;" xml:space="preserve">
<path d="M19.922,25c0.242-2-0.168-3.723-1.183-4.741C17.917,19.436,16.664,19,15.115,19h-0.001c-0.082,0-0.167,0.011-0.25,0.014
	c-0.352-2.277-1.371-3.99-2.818-4.663c-2.421-1.129-6.008,0.64-8.131,3.146C2.91,17.182,1.868,17,0.886,17
	c-1.548,0-2.801,0.436-3.623,1.259C-4.304,19.828-4.24,22.608-3.474,25H-5v2h1c0.551,0,1,0.448,1,1v0.5c0,3.295,2.444,6.152,6,7.562
	V38h10v-1.938c3.556-1.41,6-4.267,6-7.562V28c0-0.552,0.448-1,1-1h1v-2H19.922z M15.115,21c0.991,0,1.775,0.239,2.208,0.672
	c0.599,0.601,0.808,1.862,0.586,3.328H9.947c0.078-0.698,0.039-1.395-0.14-2.077C11.14,21.795,13.286,21,15.115,21
	C15.115,21,15.115,21,15.115,21z M11.201,16.163c0.792,0.369,1.427,1.581,1.679,3.121c-1.428,0.337-2.824,0.962-3.929,1.772
	c-0.283-0.432-0.608-0.853-1.003-1.248c-0.566-0.567-1.285-1.068-2.079-1.491C7.539,16.625,9.939,15.572,11.201,16.163z
	 M-1.322,19.672C-0.89,19.239-0.105,19,0.886,19c1.988,0,4.363,0.934,5.646,2.22C7.699,22.39,8.174,23.685,7.94,25h-9.294
	C-2.197,22.863-2.211,20.563-1.322,19.672z M17,28v0.5c0,3.584-4.037,6.5-9,6.5c-4.962,0-9-2.916-9-6.5V28
	c0-0.352-0.072-0.686-0.184-1h18.369C17.072,27.314,17,27.648,17,28z"/>
</svg>
