<?xml version="1.0" encoding="iso-8859-1"?>
<!-- Generator: Adobe Illustrator 19.1.1, SVG Export Plug-In . SVG Version: 6.00 Build 0)  -->
<svg version="1.1" id="Layer_1" xmlns="http://www.w3.org/2000/svg" xmlns:xlink="http://www.w3.org/1999/xlink" x="0px" y="0px"
	 viewBox="0 0 32 32" style="enable-background:new 0 0 32 32;" xml:space="preserve">
<circle style="fill:none;stroke:#000000;stroke-width:2;stroke-miterlimit:10;" cx="16" cy="16" r="9"/>
<g>
	<path d="M21.534,17.587c0-0.138,0.125-0.363,0.125-0.614c0-0.251-0.226-0.827-0.652-0.827c-0.564,0-0.514,0.827-0.752,0.827
		c-0.389,0-0.376-1.391-0.889-1.391c-0.187,0-0.389,0.288-0.59,0.464c-0.169,0.148-0.551,0.15-0.551,0.639
		c0,0.414-0.84,0.514-0.84,1.391c0,0.263-0.351,0.589-0.526,0.777c-0.175,0.188-0.401,0.877-0.99,0.877
		c-0.326,0-0.639-0.677-0.639-1.341c0-0.389,0.138-0.501,0.138-0.902c0-0.401-0.175-1.103-0.952-1.103
		c-0.401,0-0.79-0.238-0.79-1.103c0-0.827,0.877-0.827,0.877-1.617c0-0.213,0.501-0.426,0.501-0.526c0-0.1-0.188-0.338-0.188-0.451
		c0-0.113,0.175-0.226,0.288-0.226s0.389,0.263,0.489,0.263c0.1,0,0.15-0.288,0.2-0.476c0.05-0.188,0.714-0.539,1.003-0.539
		c0.288,0,1.015,0.376,1.416,0.376c0.401,0,1.625-0.176,2.051-0.176c0.035,0.033,0.11,0.033,0.151,0.076
		C19.317,10.774,17.748,10,15.984,10c-0.833,0-1.626,0.171-2.347,0.478c0.225,0.115,0.732,0.142,0.877,0.142
		c0.156,0,0.347,0.105,0.347,0.246c0,0.359-0.647,0.622-0.975,0.64c-0.363,0.019-0.589,0.289-0.87,0.289
		c-0.203,0-0.289-0.16-0.289-0.335c0-0.176,0.168-0.332,0.168-0.406c0-0.035-0.048-0.081-0.098-0.119
		c-0.379,0.239-0.738,0.506-1.053,0.821c0.038,0.067,0.236,0.425,0.236,0.577c0,0.167-0.144,0.244-0.218,0.244
		c-0.113,0-0.153-0.077-0.274-0.077c-0.11,0-0.26,0.239-0.553,0.281c-0.459,0.718-0.753,1.54-0.871,2.422
		c0.115,0.057,0.355,0.182,0.553,0.319c0.269,0.185,0.436,0.714,0.64,0.834c0.204,0.121,0.742,0.334,0.779,0.528
		c0.037,0.195-0.213,0.436-0.26,0.668c-0.046,0.232-0.083,0.362-0.204,0.445c-0.121,0.083-0.269,0.148-0.371,0.25
		c-0.077,0.077-0.317,0.433-0.463,0.611C11.757,20.721,13.711,22,15.984,22c2.645,0,4.865-1.723,5.663-4.099
		C21.597,17.804,21.534,17.67,21.534,17.587z M17.715,19.078c-0.041,0.054-0.098,0.106-0.165,0.102
		c-0.055-0.003-0.103-0.044-0.125-0.095c-0.023-0.05-0.023-0.108-0.015-0.162c0.026-0.187,0.155-0.428,0.309-0.443
		c0.05-0.005,0.106-0.01,0.137,0.029c0.027,0.032,0.029,0.077,0.026,0.119C17.873,18.791,17.814,18.949,17.715,19.078z"/>
	<path d="M16.4,14.084c-0.19-0.059-0.666-0.392-0.809-0.392s-0.159,0-0.159,0.087c0,0,0.435,0.572,0.738,0.706
		c0.27,0.119,0.349,0.071,0.468,0.079c0.119,0.008,0.19,0.087,0.357,0.087c0.166,0,0.214-0.064,0.214-0.119
		s-0.087-0.167-0.278-0.167C16.741,14.366,16.591,14.143,16.4,14.084z"/>
</g>
<path d="M15.713,4.259c0,0-0.995-0.753-0.995-2.134C14.718,0.842,15.497,0,15.497,0s0.956,0.707,0.956,2.122
	C16.454,3.786,15.713,4.259,15.713,4.259z"/>
<path d="M21.198,4.902c0,0-0.422-1.325,0.464-2.597c0.823-1.181,2.073-1.463,2.073-1.463s0.417,1.258-0.491,2.561
	C22.175,4.935,21.198,4.902,21.198,4.902z"/>
<path d="M24.652,7.789c0,0,0.015-1.046,0.94-1.709c0.859-0.616,1.808-0.484,1.808-0.484s-0.003,0.997-0.951,1.676
	C25.333,8.071,24.652,7.789,24.652,7.789z"/>
<path d="M10.859,4.907c0,0-1.008-0.135-1.562-1.115c-0.515-0.909-0.3-1.819-0.3-1.819s0.962,0.118,1.53,1.121
	C11.194,4.274,10.859,4.907,10.859,4.907z"/>
<path d="M7.261,8.863c0,0-1.002,0.177-1.827-0.588C4.668,7.564,4.597,6.632,4.597,6.632s0.952-0.18,1.798,0.604
	C7.389,8.159,7.261,8.863,7.261,8.863z"/>
<path d="M16.733,27.381c0,0,0.952,0.632,0.846,2.381C17.494,31.182,16.561,32,16.561,32s-0.945-0.929-0.828-2.339
	C15.87,28.002,16.733,27.381,16.733,27.381z"/>
<path d="M12.32,26.192c0,0,0.377,1.324-0.525,2.586c-0.857,1.2-2.048,1.501-2.048,1.501s-0.446-1.354,0.493-2.636
	C11.344,26.135,12.32,26.192,12.32,26.192z"/>
<path d="M8.57,23.886c0,0-0.072,1.01-0.96,1.701c-0.834,0.65-1.789,0.491-1.789,0.491s0.001-0.999,0.954-1.672
	C7.725,23.737,8.57,23.886,8.57,23.886z"/>
<path d="M22.617,27.335c0,0,1.008,0.135,1.562,1.115c0.515,0.909,0.3,1.819,0.3,1.819s-0.962-0.118-1.53-1.121
	C22.281,27.967,22.617,27.335,22.617,27.335z"/>
<path d="M24.708,23.206c0,0,0.999-0.191,1.835,0.563c0.776,0.7,0.86,1.631,0.86,1.631s-0.95,0.193-1.806-0.579
	C24.591,23.912,24.708,23.206,24.708,23.206z"/>
</svg>
