<?xml version="1.0" encoding="iso-8859-1"?>
<!-- Generator: Adobe Illustrator 19.1.1, SVG Export Plug-In . SVG Version: 6.00 Build 0)  -->
<svg version="1.1" id="Layer_1" xmlns="http://www.w3.org/2000/svg" xmlns:xlink="http://www.w3.org/1999/xlink" x="0px" y="0px"
	 viewBox="0 0 32 32" style="enable-background:new 0 0 32 32;" xml:space="preserve">
<path style="fill:none;stroke:#000000;stroke-width:2;stroke-miterlimit:10;" d="M25,10.466C25.014,6.343,21.663,3,17.547,3
	c-4.117,0-7.614,2.888-7.546,7.393c0.091,6.027,3.829,5.875,4.62,9.985C15.164,23.204,16.386,24,18.146,24s3.1-1.096,3.465-3.349
	C22.261,16.633,24.984,15.172,25,10.466z"/>
<path d="M18.993,18.7c0.08,1.606-0.508,2.3-1.283,2.3c-0.775,0-1.555-0.724-1.685-2.445C15.905,16.949,16.212,16,16.988,16
	S18.921,17.267,18.993,18.7z"/>
<circle cx="14" cy="11" r="1"/>
<circle cx="15.5" cy="13.5" r="0.5"/>
<circle cx="17.5" cy="13.5" r="0.5"/>
<circle cx="20" cy="11" r="1"/>
<path style="fill:none;stroke:#000000;stroke-width:2;stroke-miterlimit:10;" d="M14,29c0,0,0-6.833,0-8s-5-7-5-7"/>
<path style="fill:none;stroke:#000000;stroke-width:2;stroke-miterlimit:10;" d="M5,29c0-7.167,3.417-9,7-9"/>
<path style="fill:none;stroke:#000000;stroke-width:2;stroke-miterlimit:10;" d="M22,29c0,0,0-6.583,0-8s4-7,4-7"/>
<path d="M27,29c-0.929-3.061-2.897-7.853-3-9c0-0.883,1.462-3.503,2.817-5.424L27,14.317V7h-2v6.687c-0.788,1.146-3,4.524-2.996,6.4
	c0.122,1.406,2.038,6.035,2.906,8.913H27z"/>
<path d="M11,20c0,1.074-1.431,5.615-2,9h2.028C11.708,26.083,13,21.583,13,20c0-1.87-2.206-5.186-3-6.318V7H8v7.322l0.188,0.262
	C9.355,16.207,11,18.96,11,20z"/>
</svg>
