<?xml version="1.0" encoding="iso-8859-1"?>
<!-- Generator: Adobe Illustrator 21.0.2, SVG Export Plug-In . SVG Version: 6.00 Build 0)  -->
<svg version="1.1" id="Layer_1" xmlns="http://www.w3.org/2000/svg" xmlns:xlink="http://www.w3.org/1999/xlink" x="0px" y="0px"
	 viewBox="0 0 32 32" style="enable-background:new 0 0 32 32;" xml:space="preserve">
<g>
	<rect x="17" y="16" width="3" height="2"/>
	<rect x="12" y="16" width="3" height="2"/>
	<circle cx="18.5" cy="19.5" r="0.75"/>
	<circle cx="13.5" cy="19.5" r="0.75"/>
	<path d="M29.743,20.331c-0.421-0.468-0.869-0.923-1.29-1.331H29v-4.746l-0.715-0.212c-0.016-0.004-0.083-0.024-0.193-0.052
		l-0.18-0.399c-0.081-0.182-2.026-4.482-4.271-6.358l-0.438-0.366l-0.537,0.191c-0.324,0.115-0.648,0.237-0.963,0.373
		c0.161-0.689,0.266-1.18,0.275-1.223l0.167-0.787l-0.733-0.332C21.314,5.044,18.974,4,16,4h-1v2.346
		c-0.646-0.707-1.464-1.485-2.423-2.163l-0.671-0.475l-0.595,0.566c-0.546,0.519-2.269,2.26-2.835,2.832
		C8.372,7.069,8.298,7.044,8.283,7.04L7.658,6.855L7.237,7.353c-0.119,0.142-2.943,3.495-4.152,6.244l-0.514,1.17l1.259,0.218
		c0.848,0.146,1.533,0.383,2.208,0.786c-1.51,0.771-2.833,2.025-3.884,3.696L1.89,19.885l0.173,0.464
		c0.809,2.168,2.042,4.107,2.095,4.189l0.491,0.767L6,24.609V26h3.644c0.583,0.891,1.682,1.566,3.749,1.846
		C13.797,28.413,14.562,29,16,29c1.437,0,2.202-0.587,2.605-1.154c2.068-0.28,3.167-0.955,3.75-1.846H26v-1.662
		c0.072,0.092,0.139,0.179,0.194,0.255l0.657,0.892l0.82-0.743c0.054-0.049,1.331-1.223,2.246-3.346l0.254-0.588L29.743,20.331z
		 M21.608,19.986l-0.897,0.201l0.126,0.91C20.949,21.921,21,22.508,21,23c0,1.742,0,2.616-3.113,2.916l-0.612,0.059l-0.224,0.573
		C17.007,26.659,16.874,27,16,27c-0.875,0-1.006-0.339-1.049-0.45l-0.223-0.575l-0.614-0.059C11,25.616,11,24.742,11,23
		c0-0.489,0.052-1.094,0.164-1.901l0.125-0.911l-0.897-0.201C10.161,19.935,10,19.734,10,19.5c0-0.275,0.224-0.5,0.439-0.503
		l1.038,0.095l0.142-0.929c0.159-1.046,0.321-2.252,0.368-3.481l4.198-1.679c1.837,0.061,3.243,1.002,3.821,1.459
		c0.035,1.305,0.207,2.592,0.376,3.701l0.183,0.92L21.5,19c0.275,0,0.5,0.225,0.5,0.5C22,19.734,21.839,19.935,21.608,19.986z
		 M27.025,22.443c-0.401-0.457-0.902-0.968-1.373-1.277L25.402,21H24v3h-1.038C22.99,23.674,23,23.34,23,23
		c0-0.416-0.028-0.875-0.09-1.435C23.579,21.112,24,20.353,24,19.5c0-1.117-0.737-2.066-1.75-2.385C22.114,16.132,22,15.052,22,14
		v-0.415l-0.294-0.293C21.612,13.198,19.369,11,16,11h-0.192L10,13.323V14c0,1.052-0.114,2.132-0.25,3.115
		C8.737,17.434,8,18.383,8,19.5c0,0.853,0.421,1.612,1.089,2.065C9.028,22.122,9,22.581,9,23c0,0.34,0.01,0.674,0.038,1H8v-1
		l-0.059-1H6.698l-1.319,0.68c-0.353-0.623-0.847-1.556-1.259-2.562c1.125-1.621,2.511-2.647,4.125-3.054L9,16.779v-1.228
		l-0.335-0.298c-1.07-0.952-2.06-1.554-3.207-1.926c0.896-1.6,2.176-3.276,2.851-4.122c0.701,0.338,1.899,1.061,2.89,2.392
		l1.604-1.193c-0.794-1.068-1.684-1.81-2.468-2.331c0.503-0.508,1.21-1.219,1.747-1.752c1.763,1.45,2.872,3.192,2.884,3.212
		L15.26,10H17V6.045c1.182,0.106,2.19,0.376,2.834,0.587c-0.184,0.802-0.481,2.04-0.792,3.082l1.841,0.755
		c0.311-0.584,1.054-0.986,1.89-1.317c1.095,1.113,2.121,2.9,2.734,4.077c-0.568,0.154-1.258,0.412-2.005,0.841L23,14.421v1.961
		l1.313-0.433c0.957-0.315,2.011-0.243,2.687-0.139V17h-2v1.593l0.359,0.3c0.014,0.012,1.274,1.068,2.447,2.293
		C27.545,21.694,27.268,22.116,27.025,22.443z"/>
	<path d="M17,22c0,0.552-0.448,1-1,1s-1-0.448-1-1c-2.592,0.631-3,3-3,3h8C20,25,19.836,22.748,17,22z"/>
</g>
</svg>
