<?xml version="1.0" encoding="iso-8859-1"?>
<!-- Generator: Adobe Illustrator 19.1.0, SVG Export Plug-In . SVG Version: 6.00 Build 0)  -->
<svg version="1.1" id="Layer_1" xmlns="http://www.w3.org/2000/svg" xmlns:xlink="http://www.w3.org/1999/xlink" x="0px" y="0px"
	 viewBox="0 0 32 32" style="enable-background:new 0 0 32 32;" xml:space="preserve">
<polygon points="22.2,17.875 21.177,19.373 22.22,27 23.515,27 "/>
<circle style="fill:none;stroke:#000000;stroke-width:2;stroke-linecap:round;stroke-linejoin:round;stroke-miterlimit:10;" cx="19.438" cy="7.5" r="2.5"/>
<g>
	<path d="M11.032,17.42l3.388,3.757L15.63,27h2.042l-1.404-6.761l-3.283-3.641c-0.014-0.908,0.088-3.566,1.601-5.528l1.269,3.652
		c0.135,0.388,0.382,0.72,0.715,0.962l3.81,2.763l1.174-1.619l-3.809-2.762l-1.307-3.761c-0.231-0.664-0.805-1.15-1.498-1.27
		c-0.698-0.119-1.411,0.151-1.855,0.708c-2.415,3.023-2.096,7.165-2.081,7.34L11.032,17.42z"/>
	<polygon points="9.891,27 11.93,27 13.09,21.195 11.42,19.343 	"/>
</g>
</svg>
