<?xml version="1.0" encoding="utf-8"?>
<!-- Generator: Adobe Illustrator 18.1.1, SVG Export Plug-In . SVG Version: 6.00 Build 0)  -->
<svg version="1.1" id="Layer_1" xmlns="http://www.w3.org/2000/svg" xmlns:xlink="http://www.w3.org/1999/xlink" x="0px" y="0px"
	 viewBox="0 0 32 32" enable-background="new 0 0 32 32" xml:space="preserve">
<path fill="none" stroke="#000000" stroke-width="2" stroke-miterlimit="10" d="M25,12.2c0-0.1,0-0.1,0-0.2c0-2.2-1.8-4-4-4
	c-0.1,0-0.3,0-0.4,0c-0.8-1.8-2.5-3-4.6-3c-2.4,0-4.4,1.7-4.9,4c0,0-0.1,0-0.1,0c-1.7,0-3,1.3-3,3c-1.7,0-3,1.3-3,3s1.3,3,3,3
	s14.7,0,16,0c1.7,0,3-1.3,3-3C27,13.7,26.2,12.6,25,12.2z"/>
<path fill="none" stroke="#000000" stroke-width="2" stroke-miterlimit="10" d="M16,12c-1.1,0-2,0.9-2,2v4h4v-4
	C18,12.9,17.1,12,16,12z"/>
<line fill="none" stroke="#000000" stroke-width="2" stroke-miterlimit="10" x1="11" y1="21" x2="21" y2="21"/>
<line fill="none" stroke="#000000" stroke-width="2" stroke-miterlimit="10" x1="9" y1="24" x2="23" y2="24"/>
<line fill="none" stroke="#000000" stroke-width="2" stroke-miterlimit="10" x1="7" y1="27" x2="25" y2="27"/>
</svg>
