<?xml version="1.0" encoding="iso-8859-1"?>
<!-- Generator: Adobe Illustrator 21.0.2, SVG Export Plug-In . SVG Version: 6.00 Build 0)  -->
<svg version="1.1" id="Layer_1" xmlns="http://www.w3.org/2000/svg" xmlns:xlink="http://www.w3.org/1999/xlink" x="0px" y="0px"
	 viewBox="0 0 32 32" style="enable-background:new 0 0 32 32;" xml:space="preserve">
<g>
	<path d="M22.151,12c-2.168,0-3.42,1.625-3.42,3.852s1.252,3.852,3.42,3.852s3.42-1.625,3.42-3.852S24.32,12,22.151,12z
		 M22.151,18.409c-1.377,0-1.909-1.268-1.909-2.556c0-1.288,0.531-2.557,1.909-2.557c1.377,0,1.909,1.268,1.909,2.557
		C24.06,17.141,23.528,18.409,22.151,18.409z"/>
	<polygon points="0,12.216 5.435,12.216 5.435,13.512 1.512,13.512 1.512,15.125 5.171,15.125 5.171,16.389 1.512,16.389 
		1.512,18.192 5.435,18.192 5.435,19.489 0,19.489 	"/>
	<path d="M6.083,19.489h1.512v-2.182h1.37c1.851,0,3.094-0.91,3.094-2.546c0-1.635-1.244-2.546-3.094-2.546H6.083V19.489z
		 M8.965,16.011h-1.37v-2.499l0,0h1.37c0.95,0,1.582,0.414,1.582,1.25C10.547,15.597,9.915,16.011,8.965,16.011z"/>
	<path d="M27.696,12.216h-1.553v7.273h1.482v-2.946c0-0.805-0.029-1.521-0.056-2.153c0.175,0.364,0.705,1.458,0.951,1.869
		l1.928,3.231H32v-7.273h-1.481v2.873c0,0.805,0.029,1.595,0.056,2.227c-0.175-0.364-0.705-1.458-0.951-1.869L27.696,12.216z"/>
	<path d="M13.776,17.082c0,0.977,0.813,1.358,1.678,1.358c0.566,0,1.482-0.165,1.482-0.916c0-0.792-1.121-0.942-2.201-1.23
		c-1.133-0.299-2.223-0.725-2.223-2.073c0-1.502,1.42-2.222,2.747-2.222c1.533,0,2.942,0.669,2.942,2.366h-1.512
		c-0.052-0.885-0.73-1.111-1.502-1.111c-0.515,0-1.163,0.216-1.163,0.833c0,0.566,0.37,0.654,2.211,1.127
		c0.535,0.134,2.213,0.457,2.213,2.124c0,1.348-1.059,2.356-3.056,2.356c-1.625,0-3.148-0.802-3.127-2.613H13.776z"/>
</g>
</svg>
