<?xml version="1.0" encoding="utf-8"?>
<!-- Generator: Adobe Illustrator 18.0.0, SVG Export Plug-In . SVG Version: 6.00 Build 0)  -->
<svg version="1.1" id="Layer_1" xmlns="http://www.w3.org/2000/svg" xmlns:xlink="http://www.w3.org/1999/xlink" x="0px" y="0px"
	 viewBox="0 0 32 32" enable-background="new 0 0 32 32" xml:space="preserve">
<path fill="none" stroke="#000000" stroke-width="2" stroke-miterlimit="10" d="M12,20v-7h1c1.1,0,2,0.9,2,2v0c0,1.1-0.9,2-2,2h-1"
	/>
<polyline fill="none" stroke="#000000" stroke-width="2" stroke-miterlimit="10" points="9,19 5,19 5,13 9,13 "/>
<line fill="none" stroke="#000000" stroke-width="2" stroke-miterlimit="10" x1="5" y1="16" x2="8" y2="16"/>
<path fill="none" stroke="#000000" stroke-width="2" stroke-miterlimit="10" d="M24,16h1.5c0.8,0,1.5-0.7,1.5-1.5v0
	c0-0.8-0.7-1.5-1.5-1.5H24v6h1.5c0.8,0,1.5-0.7,1.5-1.5v0c0-0.8-0.7-1.5-1.5-1.5H25"/>
<path fill="none" stroke="#000000" stroke-width="2" stroke-miterlimit="10" d="M16,27L16,27c0-1.7,1.3-3,3-3h12V7H19
	c-1.7,0-3,1.3-3,3v0"/>
<path fill="none" stroke="#000000" stroke-width="2" stroke-miterlimit="10" d="M16,10L16,10c0-1.7-1.3-3-3-3H1v17h12
	c1.7,0,3,1.3,3,3v0"/>
<path fill="none" stroke="#000000" stroke-width="2" stroke-miterlimit="10" d="M21,12v5.5c0,0.8-0.7,1.5-1.5,1.5h0
	c-0.8,0-1.5-0.7-1.5-1.5V12"/>
</svg>
