<?xml version="1.0" encoding="iso-8859-1"?>
<!-- Generator: Adobe Illustrator 18.1.1, SVG Export Plug-In . SVG Version: 6.00 Build 0)  -->
<svg version="1.1" id="Layer_1" xmlns="http://www.w3.org/2000/svg" xmlns:xlink="http://www.w3.org/1999/xlink" x="0px" y="0px"
	 viewBox="0 0 32 32" style="enable-background:new 0 0 32 32;" xml:space="preserve">
<circle style="fill:none;stroke:#000000;stroke-width:2;stroke-miterlimit:10;" cx="24.5" cy="8.5" r="2"/>
<path style="fill:none;stroke:#000000;stroke-width:2;stroke-miterlimit:10;" d="M11.794,8.193l3.796-1.077
	c0.262-0.074,0.544-0.038,0.779,0.099l2.971,1.742c0.129,0.076,0.239,0.179,0.323,0.303l2.167,3.206
	C21.94,12.632,22,12.827,22,13.026V15c0,0.552,0.448,1,1,1h4"/>
<path style="fill:none;stroke:#000000;stroke-width:2;stroke-miterlimit:10;" d="M19.462,9.121l-4.714,3.978
	c-0.651,0.55-0.902,1.441-0.632,2.249l1.446,4.336C15.777,20.331,15.295,21,14.613,21H10"/>
<path d="M18.675,21.19L16.58,26h2.182l1.747-4.011c0.245-0.563,0.221-1.197-0.068-1.74l-1.965-3.688l3.195-3.131l-1.4-1.429
	l-3.194,3.13c-0.63,0.616-0.781,1.59-0.367,2.37L18.675,21.19z"/>
<g>
	<path d="M12.616,11H3v2h8.307C11.572,12.252,12.013,11.567,12.616,11z"/>
	<path d="M11.27,16.297c-0.143-0.428-0.215-0.863-0.243-1.297H3v2h8.504L11.27,16.297z"/>
</g>
</svg>
