<?xml version="1.0" encoding="iso-8859-1"?>
<!-- Generator: Adobe Illustrator 19.1.1, SVG Export Plug-In . SVG Version: 6.00 Build 0)  -->
<svg version="1.1"  xmlns="http://www.w3.org/2000/svg" xmlns:xlink="http://www.w3.org/1999/xlink" x="0px" y="0px"
	 viewBox="0 0 32 32" style="enable-background:new 0 0 32 32;" xml:space="preserve">
<polyline style="fill:none;stroke:#000000;stroke-width:2;stroke-miterlimit:10;" points="26,5 26,11 20,11 "/>
<path style="fill:none;stroke:#000000;stroke-width:2;stroke-miterlimit:10;" d="M8.452,7.998C10.422,6.139,13.078,5,16,5
	c4.275,0,7.98,2.438,9.8,6"/>
<path style="fill:none;stroke:#000000;stroke-width:2;stroke-miterlimit:10;" d="M19,26.586C18.046,26.856,17.04,27,16,27
	C9.925,27,5,22.075,5,16"/>
<rect x="19" y="19" style="fill:none;stroke:#000000;stroke-width:2;stroke-miterlimit:10;" width="12" height="12"/>
<polygon points="28.7,22.7 27.3,21.3 25,23.6 22.7,21.3 21.3,22.7 23.6,25 21.3,27.3 22.7,28.7 25,26.4 27.3,28.7 28.7,27.3 
	26.4,25 "/>
<line style="fill:none;stroke:#000000;stroke-width:2;stroke-miterlimit:10;" x1="3" y1="3" x2="18.999" y2="18.999"/>
<path d="M5.666,9.909C4.585,11.744,4,13.848,4,16h2c0-1.617,0.403-3.199,1.141-4.617L5.666,9.909z"/>
</svg>
