<?xml version="1.0" encoding="iso-8859-1"?>
<!-- Generator: Adobe Illustrator 19.1.0, SVG Export Plug-In . SVG Version: 6.00 Build 0)  -->
<svg version="1.1" id="Layer_1" xmlns="http://www.w3.org/2000/svg" xmlns:xlink="http://www.w3.org/1999/xlink" x="0px" y="0px"
	 viewBox="0 0 32 32" style="enable-background:new 0 0 32 32;" xml:space="preserve">
<path style="fill:none;stroke:#000000;stroke-width:2;stroke-miterlimit:10;" d="M24,11.863C24.929,10.102,20.205,7,15.621,7
	C11.371,6.959,8.172,11.08,7,13h2.524c0,0-2.509,2.769-3.524,5v0.1c1.116-0.428,3.215-0.962,4-1.1c-1.116,2.525-1.109,4.793-0.862,6
	h0.118c0.906-0.934,3.194-1.835,3.744-2c0.938,2.156,2.821,3.489,4,4c0-5.531,2.25-10,5.645-10L24,11.863z"/>
<path d="M22,16c1.634,0,2.143,0,3.877,0c1.084,0,1.861,0.333,2.123,1c0-0.863,0-1.555,0-2.039c0-1.03-0.389-3.971-3.616-3.971L22,16
	z"/>
<path d="M17,11c0,0.832,0.771,2,2,2c1.495,0,2-1,2-1L17,11z"/>
</svg>
