<?xml version="1.0" encoding="iso-8859-1"?>
<!-- Generator: Adobe Illustrator 19.1.0, SVG Export Plug-In . SVG Version: 6.00 Build 0)  -->
<svg version="1.1" id="Layer_1" xmlns="http://www.w3.org/2000/svg" xmlns:xlink="http://www.w3.org/1999/xlink" x="0px" y="0px"
	 viewBox="0 0 32 32" style="enable-background:new 0 0 32 32;" xml:space="preserve">
<line style="fill:none;stroke:#000000;stroke-width:2;stroke-miterlimit:10;" x1="11" y1="18" x2="11" y2="29"/>
<line style="fill:none;stroke:#000000;stroke-width:2;stroke-miterlimit:10;" x1="6" y1="24" x2="16" y2="24"/>
<line style="fill:none;stroke:#000000;stroke-width:2;stroke-miterlimit:10;" x1="21" y1="18" x2="21" y2="29"/>
<line style="fill:none;stroke:#000000;stroke-width:2;stroke-miterlimit:10;" x1="16" y1="24" x2="26" y2="24"/>
<path d="M21,3c-1.521,0-2.939,0.434-4.151,1.174c0.52,0.446,0.985,0.952,1.391,1.504C19.068,5.247,20.005,5,21,5
	c3.309,0,6,2.691,6,6s-2.691,6-6,6s-6-2.691-6-6c0-0.795,0.159-1.553,0.441-2.248c-0.337-0.663-0.813-1.237-1.397-1.689
	C13.383,8.226,13,9.568,13,11c0,4.411,3.589,8,8,8s8-3.589,8-8S25.411,3,21,3z"/>
<path d="M13.759,16.322C12.932,16.753,11.995,17,11,17c-3.309,0-6-2.691-6-6s2.691-6,6-6s6,2.691,6,6
	c0,0.795-0.159,1.553-0.441,2.248c0.337,0.663,0.813,1.237,1.397,1.689C18.617,13.774,19,12.432,19,11c0-4.411-3.589-8-8-8
	s-8,3.589-8,8s3.589,8,8,8c1.521,0,2.939-0.434,4.151-1.174C14.631,17.38,14.166,16.874,13.759,16.322z"/>
</svg>
