<?xml version="1.0" encoding="iso-8859-1"?>
<!-- Generator: Adobe Illustrator 19.1.1, SVG Export Plug-In . SVG Version: 6.00 Build 0)  -->
<svg version="1.1"  xmlns="http://www.w3.org/2000/svg" xmlns:xlink="http://www.w3.org/1999/xlink" x="0px" y="0px"
	 viewBox="0 0 32 32" style="enable-background:new 0 0 32 32;" xml:space="preserve">
<g>
	<polygon points="10.447,8.425 10.869,9.726 11.346,8.425 11.812,8.425 12.282,9.725 12.712,8.425 13.108,8.427 12.507,9.979 
		12.036,9.979 11.574,8.715 11.09,9.979 10.62,9.979 10.039,8.426 	"/>
	<path d="M15.289,8.666c-0.176-0.177-0.485-0.264-0.927-0.266c-0.206,0.004-0.38,0.021-0.524,0.06
		c-0.146,0.038-0.268,0.095-0.368,0.172c-0.08,0.064-0.143,0.143-0.189,0.246c-0.047,0.101-0.07,0.21-0.07,0.325
		c0,0.114,0.021,0.221,0.065,0.326c0.044,0.103,0.104,0.182,0.177,0.242c0.183,0.152,0.475,0.227,0.875,0.228
		c0.35,0.001,0.629-0.06,0.832-0.181c0.214-0.128,0.321-0.332,0.321-0.614C15.482,8.976,15.418,8.796,15.289,8.666z M14.998,9.574
		c-0.105,0.152-0.32,0.227-0.644,0.227c-0.285,0.001-0.485-0.056-0.599-0.17c-0.098-0.097-0.146-0.24-0.146-0.432
		c0-0.161,0.033-0.286,0.1-0.376c0.108-0.148,0.327-0.225,0.65-0.224c0.282,0.001,0.482,0.064,0.598,0.184
		c0.084,0.09,0.126,0.233,0.126,0.427C15.083,9.37,15.055,9.492,14.998,9.574z"/>
	<path d="M17.793,9.913c-0.005-0.02-0.013-0.076-0.021-0.171c-0.015-0.147-0.052-0.251-0.11-0.316
		c-0.057-0.062-0.165-0.118-0.322-0.165c0.122-0.022,0.218-0.054,0.291-0.094c0.13-0.075,0.196-0.178,0.195-0.312
		c0-0.074-0.022-0.14-0.069-0.199c-0.045-0.063-0.11-0.112-0.189-0.148c-0.123-0.055-0.338-0.083-0.646-0.084l-1.068,0.001v1.553
		h0.375L16.228,9.32l0.375-0.001c0.279,0.001,0.476,0.032,0.59,0.094c0.115,0.062,0.183,0.174,0.206,0.34
		c0.014,0.1,0.022,0.158,0.027,0.176c0.002,0.016,0.01,0.032,0.025,0.049h0.382C17.813,9.952,17.798,9.93,17.793,9.913z
		 M17.291,9.073c-0.065,0.032-0.196,0.048-0.394,0.048L16.228,9.12V8.623h0.669c0.198-0.001,0.326,0.01,0.382,0.034
		c0.099,0.04,0.148,0.111,0.148,0.215C17.428,8.962,17.382,9.028,17.291,9.073z"/>
	<path d="M18.191,8.425l0.374-0.001v0.902c0,0.099,0.008,0.174,0.024,0.225c0.017,0.053,0.047,0.093,0.086,0.122
		c0.107,0.073,0.278,0.109,0.508,0.106h0.502l0.001,0.197h-0.576c-0.183,0.001-0.327-0.012-0.435-0.033
		c-0.109-0.023-0.203-0.062-0.284-0.118c-0.074-0.049-0.125-0.109-0.155-0.18c-0.03-0.069-0.045-0.166-0.045-0.286
		C18.191,9.357,18.191,8.425,18.191,8.425z"/>
	<path d="M21.905,8.759c-0.121-0.154-0.288-0.255-0.503-0.301c-0.115-0.023-0.296-0.034-0.545-0.034l-0.898-0.001v1.552h0.932
		c0.197,0.001,0.344-0.007,0.44-0.019c0.095-0.012,0.187-0.037,0.275-0.073c0.283-0.118,0.425-0.354,0.425-0.699
		C22.03,9.012,21.988,8.869,21.905,8.759z M21.487,9.625c-0.107,0.102-0.292,0.153-0.559,0.153h-0.597V8.623l0.572-0.003
		c0.147,0,0.265,0.012,0.353,0.034c0.085,0.022,0.155,0.056,0.209,0.108c0.111,0.104,0.167,0.256,0.169,0.457
		C21.634,9.397,21.583,9.531,21.487,9.625z"/>
	<polygon points="10.857,6.543 10.857,7.247 11.215,7.247 11.215,7.61 10.031,7.61 10.031,7.247 10.348,7.247 10.348,5.409 
		10.099,5.409 10.099,5 21.075,5 21.075,5.409 10.857,5.409 10.857,6.2 11.09,6.2 11.09,5.932 11.42,5.932 11.42,6.799 11.09,6.799 
		11.09,6.543 	"/>
	<path d="M20.295,6.17c-0.033,0.039-0.077,0.098-0.121,0.16c-0.092,0.131-0.172,0.263-0.172,0.285v0.63h0.151v0.363h-0.794V7.247
		h0.16V6.035h-0.16V5.736h0.644v0.375l0.045-0.071c0.032-0.049,0.068-0.103,0.108-0.152c0.08-0.098,0.179-0.183,0.301-0.183
		c0.2,0,0.315,0.123,0.315,0.317v0.803h-0.458V6.148L20.295,6.17L20.295,6.17z"/>
	<rect x="21.384" y="5.001" width="0.487" height="0.407"/>
	<path d="M14.717,6.17c-0.033,0.039-0.076,0.098-0.121,0.16c-0.092,0.131-0.172,0.263-0.172,0.285v0.63h0.151v0.363h-0.794V7.247
		h0.16V6.035h-0.16V5.736h0.643v0.375L14.47,6.04c0.032-0.049,0.068-0.103,0.108-0.152c0.08-0.098,0.179-0.183,0.301-0.183
		c0.2,0,0.315,0.123,0.315,0.317v0.803h-0.459V6.148L14.717,6.17L14.717,6.17z"/>
	<polygon points="22.031,7.61 21.215,7.61 21.215,7.245 21.387,7.245 21.387,6.035 21.215,6.035 21.215,5.736 21.87,5.736 
		21.87,7.245 22.031,7.245 	"/>
	<path d="M16.543,6.17c-0.033,0.039-0.076,0.098-0.12,0.16c-0.092,0.131-0.172,0.263-0.172,0.285v0.63h0.152v0.363h-0.794V7.247
		h0.16V6.035h-0.16V5.736h0.643v0.375l0.046-0.071c0.032-0.049,0.068-0.103,0.108-0.152c0.08-0.098,0.179-0.183,0.301-0.183
		c0.201,0,0.315,0.123,0.315,0.317v0.803h-0.458V6.148L16.543,6.17L16.543,6.17z"/>
	<path d="M18.798,7.247l-0.001-0.122v-1.02c0-0.338-0.178-0.4-0.617-0.401c-0.479,0.002-0.664,0.073-0.664,0.46v0.183h0.442V6.187
		c0-0.171,0.003-0.191,0.2-0.192c0.159,0.001,0.163,0.011,0.163,0.192v0.345h-0.216h-0.183c-0.348,0.002-0.455,0.196-0.455,0.421
		v0.244c0,0.23,0.158,0.413,0.396,0.413h1.097V7.247H18.798z M18.32,6.972l-0.001,0.191c0,0.124-0.054,0.147-0.13,0.147h-0.152
		c-0.083-0.002-0.113-0.06-0.113-0.147V6.928c0-0.085,0.044-0.147,0.113-0.147h0.161h0.122C18.32,6.782,18.32,6.972,18.32,6.972z"/>
	<path d="M12.345,6.823h0.877V6.095c0-0.28-0.196-0.386-0.647-0.388h-0.065c-0.493,0.002-0.643,0.129-0.643,0.467v1.032
		c0,0.371,0.208,0.429,0.651,0.442h0.05c0.483-0.012,0.655-0.047,0.655-0.398V6.964h-0.464v0.161c0,0.165-0.011,0.17-0.212,0.172
		c-0.123,0.001-0.168-0.007-0.187-0.027c-0.008-0.009-0.012-0.021-0.014-0.045c-0.002-0.026-0.001-0.059,0-0.1
		C12.345,7.126,12.345,6.823,12.345,6.823z M12.349,6.121c0-0.086,0.019-0.12,0.102-0.12h0.185c0.07,0.001,0.099,0.032,0.099,0.083
		v0.505l-0.386-0.001V6.121z"/>
</g>
<path d="M15.431,18.545c0.029-0.032,0.044-0.039,0.074-0.061c0.029-0.02,0.047-0.029,0.071-0.054
	c0.021-0.021,0.026-0.026,0.048-0.061c0.005-0.009,0.007-0.031-0.002-0.034c-0.013-0.004-0.072,0.061-0.123,0.089
	c-0.048,0.027-0.129,0.056-0.129,0.056s-0.007,0.002-0.004-0.009c0.003-0.011,0.011-0.044,0.028-0.072
	c0.017-0.028,0.036-0.055,0.078-0.091c0.048-0.042,0.097-0.064,0.123-0.077c0.01-0.005,0.039-0.012,0.029-0.024
	c-0.008-0.01-0.05,0.007-0.082,0.017c-0.039,0.011-0.052,0.014-0.097,0.042c-0.044,0.027-0.058,0.04-0.058,0.04
	s-0.046,0.039-0.071,0.084c-0.025,0.045-0.034,0.071-0.034,0.071s-0.015,0.043-0.02,0.07c-0.006,0.027-0.009,0.073-0.009,0.073
	s-0.001,0.052-0.005,0.082c-0.004,0.03-0.023,0.118-0.023,0.118s-0.013,0.063-0.036,0.119c-0.024,0.056-0.04,0.087-0.053,0.102
	c-0.012,0.015-0.045,0.055-0.083,0.076c-0.038,0.022-0.045,0.024-0.045,0.024s-0.036,0.013-0.063,0.017
	c-0.027,0.004-0.069,0.009-0.085,0.007c-0.016-0.002-0.039-0.009-0.041-0.009l-0.02-0.007c-0.002-0.002-0.004-0.005-0.004-0.007
	c-0.001-0.002,0.002-0.014,0.002-0.014s0.006-0.067,0.001-0.114c-0.004-0.039-0.02-0.096-0.02-0.096s-0.03-0.097-0.058-0.156
	c-0.033-0.069-0.076-0.127-0.101-0.166c-0.008-0.014-0.032-0.041-0.032-0.041s-0.074-0.155-0.083-0.263
	c-0.007-0.073-0.009-0.126,0.021-0.194c0.007-0.016,0.024-0.042,0.027-0.041c0.002,0.001,0.017,0.011,0.018,0.012
	c0.002,0.001,0.015,0.026,0.028,0.037c0.009,0.007,0.025,0.016,0.025,0.016s0.014,0.006,0.02,0.011
	c0.007,0.005,0.019,0.014,0.027,0.023c0.009,0.009,0.019,0.022,0.019,0.022s0.017,0.027,0.02,0.03
	c0.002,0.002,0.02,0.032,0.02,0.032s0.012,0.016,0.016,0.019c0.004,0.004,0.007,0.006,0.009,0.008l0.005,0.002
	c0,0,0.007,0.001,0.01-0.006c0.003-0.006-0.007-0.005-0.017-0.024c-0.01-0.021-0.012-0.034-0.012-0.034s0.001-0.014-0.006-0.033
	c-0.007-0.017-0.019-0.036-0.019-0.036s-0.008-0.012-0.023-0.022c-0.015-0.009-0.019-0.011-0.018-0.018
	c0.002-0.007,0.021,0.003,0.021,0.003s0.022,0.011,0.037,0.027c0.016,0.016,0.023,0.031,0.023,0.031l0.009,0.015l0.006,0.011
	l0.006,0.007c0,0,0.006,0.011,0.011,0.001c0.006-0.009,0.005-0.017,0.004-0.021c0.001-0.002-0.006-0.011-0.006-0.011l-0.021-0.038
	c-0.006-0.012-0.01-0.021-0.017-0.031c-0.007-0.009-0.018-0.024-0.032-0.037c-0.013-0.011-0.025-0.013-0.037-0.027
	c-0.009-0.01-0.017-0.014-0.02-0.027c-0.001-0.003-0.007-0.01,0.006-0.002s0.021,0.016,0.035,0.025
	c0.023,0.016,0.038,0.021,0.06,0.039c0.007,0.006,0.019,0.017,0.019,0.017l0.025,0.023c0,0,0.033,0.036,0.061,0.047
	c0.029,0.011,0.053,0.013,0.064,0.012c0.011-0.001,0.032-0.004,0.039-0.008c0.006-0.003,0.01-0.006,0.01-0.006
	s0.004-0.004,0.005-0.007c0.002-0.002,0.003-0.004,0.002-0.006c-0.004-0.012-0.029,0.007-0.057,0.004
	c-0.027-0.004-0.028-0.002-0.043-0.01c-0.018-0.009-0.028-0.019-0.037-0.037c-0.017-0.032-0.019-0.058-0.045-0.084
	c-0.012-0.012-0.035-0.026-0.035-0.026s-0.03-0.023-0.046-0.041c-0.012-0.014-0.039-0.028-0.026-0.037
	c0.007-0.004,0.036,0.03,0.063,0.044c0.019,0.009,0.033,0.014,0.05,0.019c0.017,0.004,0.04,0.009,0.043,0.009
	s0.016,0.005,0.025,0.012c0.01,0.007,0.014,0.013,0.023,0.022c0.009,0.007,0.02,0.019,0.023,0.021
	c0.002,0.001,0.006,0.004,0.006,0.004s0.004-0.001,0.005-0.003c0.002-0.002,0.003-0.002,0.003-0.002l0.006-0.004l-0.004-0.006
	l-0.007-0.009c0,0-0.01-0.013-0.018-0.03c-0.008-0.017-0.015-0.034-0.031-0.048c-0.017-0.013-0.037-0.023-0.037-0.023l-0.02-0.009
	l-0.008-0.004c0,0-0.014-0.01-0.001-0.009c0.013,0.001,0.021,0.002,0.023,0.002s0.023,0.005,0.035,0.014
	c0.012,0.008,0.028,0.026,0.029,0.027s0.015,0.022,0.033,0.036c0.019,0.012,0.045,0.022,0.045,0.022s0.01,0.002,0.013,0.002
	c0.002-0.001,0.004-0.001,0.006-0.001c0.002,0.002,0.005,0,0.006-0.002c0.001-0.002,0.002-0.008,0.002-0.008
	s0.003-0.007-0.006-0.012c-0.009-0.004-0.026-0.014-0.039-0.034c-0.013-0.019-0.021-0.036-0.021-0.036s-0.009-0.015-0.031-0.03
	c-0.021-0.014-0.028-0.018-0.028-0.018l-0.007-0.006l-0.015-0.014c0,0-0.006-0.007-0.01-0.017s-0.008-0.027,0.015-0.009
	c0.024,0.017,0.028,0.022,0.028,0.022s0.009,0.019,0.021,0.025c0.007,0.003,0.012,0.007,0.02,0.004
	c0.01-0.006-0.009-0.023-0.021-0.039c-0.009-0.012-0.015-0.037-0.015-0.037s-0.006-0.012,0.007-0.004
	c0.013,0.009,0.033,0.032,0.033,0.032s0.011,0.011,0.015,0.015s0.014,0.017,0.018,0.019c0.005,0.004,0.017,0.011,0.026,0.021
	c0.009,0.011,0.012,0.026,0.016,0.034c0.004,0.007,0.007,0.016,0.013,0.021c0.006,0.004,0.008,0.008,0.014,0.007
	c0.006-0.002,0.008-0.003,0.008-0.003s0.002-0.004-0.003-0.01c-0.006-0.007-0.011-0.024-0.011-0.024l-0.001-0.008l-0.001-0.006
	l-0.004-0.016l-0.006-0.026c0,0-0.012-0.037-0.028-0.055s-0.026-0.028-0.026-0.028s-0.008-0.008-0.012-0.014
	c-0.006-0.008-0.006-0.015-0.01-0.025c-0.004-0.012-0.006-0.021-0.011-0.032c-0.01-0.024-0.061-0.052-0.036-0.057
	c0.012-0.003,0.026,0.005,0.031,0.009c0.006,0.005,0.018,0.016,0.03,0.024c0.009,0.006,0.015,0.008,0.023,0.015
	c0.009,0.006,0.019,0.012,0.022,0.017c0.003,0.005,0.006,0.012,0.008,0.015c0.002,0.002,0.007,0.026,0.025,0.046
	c0.018,0.019,0.026,0.03,0.048,0.039c0.017,0.007,0.047,0.011,0.047,0.011s0.009-0.001,0.005-0.011
	c-0.004-0.01-0.004-0.011-0.01-0.016c-0.021-0.019-0.042-0.022-0.055-0.048c-0.006-0.01-0.007-0.013-0.009-0.027
	c-0.001-0.015,0.002-0.017,0.001-0.027c-0.001-0.009-0.004-0.024-0.004-0.024s-0.013-0.036-0.034-0.059
	c-0.021-0.024-0.035-0.044-0.038-0.049c-0.004-0.005-0.009-0.021-0.009-0.021s-0.004-0.012-0.004-0.015
	c-0.001-0.003-0.002-0.007-0.002-0.012c0.002-0.019,0.026,0.015,0.041,0.027c0.025,0.019,0.034,0.036,0.06,0.055
	c0.013,0.011,0.023,0.015,0.036,0.026c0.023,0.021,0.021,0.051,0.049,0.063c0.015,0.007,0.044,0.026,0.044,0.009
	c-0.001-0.019-0.032-0.029-0.042-0.053c-0.004-0.011-0.002-0.019-0.007-0.029c-0.005-0.019-0.029-0.044-0.029-0.044
	s-0.007-0.012-0.01-0.037c-0.002-0.026-0.02-0.049-0.055-0.084c-0.023-0.024-0.078-0.047-0.05-0.054
	c0.017-0.004,0.027,0.001,0.042,0.012c0.015,0.011,0.018,0.021,0.029,0.033c0.012,0.012,0.017,0.016,0.02,0.019
	c0.002,0.002,0.013,0.011,0.016,0.012c0.004,0.002,0.025,0.016,0.03,0.019c0.006,0.002,0.029,0.019,0.029,0.019l0.022,0.019
	c0,0,0.01,0.009,0.019,0.011c0.008,0.004,0.022,0.004,0.022,0.004l0.011-0.004l0.003-0.002c0,0,0.007-0.006-0.004-0.012
	c-0.011-0.006-0.016-0.007-0.017-0.009c-0.001-0.001-0.006-0.006-0.01-0.008c-0.003-0.001-0.004-0.004-0.004-0.004
	s-0.015-0.025-0.033-0.041c-0.017-0.015-0.02-0.018-0.02-0.018s-0.004-0.003-0.007-0.004c-0.002-0.002-0.009-0.006-0.009-0.006
	s-0.009-0.003-0.017-0.019c-0.009-0.016-0.012-0.024-0.019-0.038c-0.003-0.008-0.009-0.02-0.009-0.02s-0.009-0.014-0.006-0.022
	c0.005-0.012,0.023,0.024,0.023,0.024l0.013,0.018c0,0,0.012,0.017,0.04,0.028c0.028,0.011,0.064,0.014,0.064,0.014
	s0.007-0.002,0.02,0.009c0.014,0.01,0.023,0.023,0.023,0.023l0.008,0.015c0,0,0.01,0.029,0.012,0.028
	c0.002,0,0.001,0.001,0.004-0.001s0.013-0.007,0.006-0.029c-0.009-0.022-0.027-0.046-0.027-0.046s-0.025-0.031-0.053-0.048
	c-0.029-0.017-0.043-0.022-0.043-0.022s-0.023-0.009-0.032-0.029c-0.008-0.021-0.013-0.039-0.013-0.039l-0.008-0.011
	c0,0-0.004-0.012-0.017-0.024c-0.012-0.012-0.025-0.026-0.025-0.026s-0.02-0.016-0.018-0.027c0.003-0.022,0.038,0.013,0.06,0.027
	c0.02,0.012,0.028,0.024,0.047,0.036c0.018,0.011,0.028,0.016,0.048,0.023c0.01,0.004,0.017,0.004,0.029,0.007
	c0.012,0.003,0.019,0.004,0.03,0.011c0.014,0.009,0.019,0.019,0.031,0.031c0.008,0.009,0.011,0.015,0.021,0.02
	c0.009,0.005,0.025,0.017,0.026,0.007c0-0.003-0.001-0.005-0.002-0.008c-0.004-0.013-0.012-0.017-0.02-0.029
	c-0.016-0.023-0.02-0.039-0.039-0.059c-0.013-0.012-0.021-0.019-0.037-0.029c-0.012-0.007-0.021-0.006-0.033-0.014
	c-0.013-0.009-0.016-0.018-0.026-0.031c-0.018-0.021-0.026-0.035-0.046-0.054c-0.013-0.012-0.038-0.027-0.038-0.027l-0.01-0.006
	c0,0-0.002-0.001-0.004-0.003c-0.019-0.016,0.047-0.013,0.077-0.009c0.015,0.001,0.022,0.001,0.037,0.006
	c0.012,0.006,0.02,0.028,0.036,0.025c0.025-0.004-0.01-0.05-0.021-0.059c-0.017-0.014-0.052-0.02-0.052-0.02l-0.072-0.027
	l-0.018-0.009c0,0-0.013-0.004-0.018-0.018c-0.006-0.014-0.026-0.072-0.065-0.093c-0.039-0.019-0.056-0.016-0.056-0.022
	c-0.016-0.069-0.049-0.096-0.068-0.133c-0.006-0.011-0.012-0.033-0.016-0.031c-0.003,0.001-0.016,0.023-0.032,0.041
	c-0.017,0.019-0.015,0.034-0.013,0.044c0.003,0.011,0.009,0.021-0.01,0.025c-0.018,0.004-0.038-0.006-0.038-0.006
	s-0.016-0.01-0.028-0.022s-0.037-0.036-0.037-0.036s-0.025-0.018-0.045-0.022c-0.02-0.005-0.022-0.004-0.036-0.007
	c-0.007-0.002-0.011-0.003-0.019-0.004c-0.006-0.001-0.013-0.007-0.016,0c-0.002,0.006,0.013,0.014,0.023,0.022
	c0.01,0.009,0.034,0.017,0.027,0.021c-0.008,0.004-0.031-0.002-0.033-0.004c-0.002-0.001-0.017-0.009-0.028-0.013
	c-0.021-0.006-0.023-0.006-0.057-0.002c-0.004,0-0.008,0.011,0.004,0.012c0.012,0.001,0.029,0.003,0.045,0.009
	c0.019,0.007,0.027,0.016,0.044,0.028c0.013,0.009,0.014,0.014,0.036,0.025c0.005,0.002,0.016,0.002,0.013,0.007
	c-0.002,0.004-0.009,0.005-0.009,0.005s-0.016-0.002-0.015,0.004c0.001,0.007,0.016,0.007,0.022,0.007
	c0.007,0.001,0.015,0.007,0.012,0.014c-0.001,0.002-0.003,0.004-0.005,0.004c-0.019-0.001-0.029-0.001-0.048-0.001
	c-0.044,0.002-0.067,0.016-0.111,0.021c-0.042,0.006-0.107,0.007-0.107,0.007s-0.021,0.004-0.047,0.001
	c-0.027-0.003-0.029-0.004-0.046-0.008c-0.018-0.004-0.027-0.005-0.044-0.002c-0.011,0.002-0.018,0.004-0.028,0.009l-0.033,0.026
	l-0.018,0.015c-0.006,0.004-0.009,0.007-0.013,0.012c-0.006,0.006-0.009,0.009-0.013,0.016c-0.01,0.017-0.011,0.031-0.014,0.051
	c-0.001,0.006-0.001,0.009-0.002,0.014c-0.001,0.006,0.005,0.013,0.005,0.013l0.005,0.004c0,0,0.022,0.006,0.038,0.007
	C14.222,16.997,14.243,17,14.243,17s0.026,0.001,0.028,0.001c0.001,0,0.018,0,0.018,0s0.01,0.004,0.011,0.01
	c0.001,0.006-0.007,0.011-0.007,0.011s-0.01,0.002-0.02,0.001c-0.009,0-0.029,0-0.031,0c-0.002-0.001-0.023-0.002-0.023-0.002
	l-0.014-0.001c0,0-0.004-0.001-0.009,0.004c-0.006,0.004-0.004,0.004-0.005,0.007c0.001,0.005,0.002,0.007,0.004,0.012
	c0.004,0.007,0.007,0.01,0.013,0.016c0.009,0.007,0.016,0.009,0.026,0.013c0.016,0.006,0.026,0.006,0.043,0.004
	c0.015-0.002,0.02-0.002,0.039-0.002c0.005,0.001,0.014,0.002,0.02,0.002c0.03,0.007,0.045,0.019,0.073,0.034
	c0.028,0.016,0.04,0.029,0.067,0.044c0.03,0.017,0.046,0.032,0.08,0.037c0.018,0.002,0.029-0.002,0.032,0.016
	c0.003,0.018-0.001,0.025-0.001,0.025s-0.003,0.01-0.025,0.036c-0.021,0.026-0.08,0.088-0.08,0.088l-0.04,0.039
	c0,0-0.032,0.031-0.091,0.065c-0.06,0.034-0.064,0.036-0.064,0.036s-0.029,0.009-0.063,0.031c-0.034,0.022-0.039,0.032-0.067,0.047
	c-0.018,0.01-0.029,0.015-0.05,0.019c-0.021,0.004-0.039-0.006-0.107,0.014c-0.058,0.016-0.091,0.034-0.094,0.032
	c-0.003-0.002-0.014-0.021-0.018-0.026c-0.004-0.005-0.072-0.099-0.072-0.099l-0.029-0.039l-0.013-0.017l-0.004-0.005l-0.004-0.016
	c0,0-0.008-0.022-0.02-0.044c-0.012-0.021-0.027-0.04-0.052-0.057c-0.024-0.016-0.04-0.027-0.069-0.027
	c-0.019-0.001-0.031,0.002-0.048,0.011c-0.021,0.009-0.029,0.022-0.048,0.037c-0.018,0.013-0.038,0.027-0.047,0.036
	c-0.01,0.007-0.031,0.028-0.031,0.028s-0.048,0.04-0.077,0.067c-0.032,0.029-0.048,0.048-0.079,0.077
	c-0.049,0.044-0.109,0.089-0.129,0.109c-0.02,0.021-0.021,0.024-0.021,0.024s-0.008,0.013-0.012,0.021
	c-0.004,0.009-0.01,0.025-0.013,0.032c-0.004,0.006-0.012,0.013-0.013,0.014c-0.002,0.002-0.032,0.031-0.046,0.053
	c-0.015,0.022-0.054,0.091-0.04,0.107c0.014,0.015,0.16,0.005,0.195-0.044c0.021-0.031-0.017-0.064,0.006-0.092
	c0.007-0.008,0.013-0.009,0.023-0.018c0.02-0.016,0.029-0.061,0.067-0.092c0.027-0.023,0.074-0.049,0.139-0.086
	c0.041-0.023,0.088-0.067,0.088-0.067s0.013-0.017,0.026-0.009c0.012,0.007,0.026,0.011,0.026,0.011s0.003,0.006,0.004,0.008
	c0.002,0.001,0.008,0.016,0.008,0.016l0.009,0.036c0,0,0.015,0.058,0.021,0.074c0.007,0.017,0.015,0.029,0.025,0.047
	c0.012,0.022,0.015,0.032,0.031,0.057c0.023,0.036,0.009,0.041-0.024,0.005c-0.011-0.012-0.029-0.026-0.046-0.038
	c-0.016-0.011-0.082-0.056-0.114-0.072c-0.034-0.017-0.039-0.019-0.039-0.019s-0.018-0.007-0.042-0.002
	c-0.024,0.005-0.039,0.011-0.039,0.011s-0.033,0.019-0.036,0.022c-0.003,0.004-0.021,0.019-0.021,0.019s-0.009,0.008-0.015,0.018
	c-0.006,0.011-0.01,0.022-0.01,0.022l-0.007,0.024l-0.006,0.022c0,0-0.015,0.057-0.021,0.118c-0.002,0.017-0.009,0.044-0.009,0.044
	l-0.011,0.058c0,0-0.016,0.064-0.018,0.084c-0.002,0.021,0,0.022-0.002,0.037c-0.002,0.026-0.017,0.032-0.014,0.065
	c0.002,0.032,0.012,0.032,0.017,0.054c0.003,0.014,0.005,0.019,0.006,0.037c0.001,0.019,0.003,0.077,0.013,0.126
	c0.012,0.048,0.028,0.109,0.052,0.111c0.024,0.002,0.051-0.025,0.051-0.025s0.048-0.059,0.055-0.132
	c0.008-0.074-0.075-0.067-0.066-0.12c0.002-0.012,0.009-0.027,0.009-0.027s0.006-0.022,0.005-0.029
	c-0.001-0.006-0.01-0.064-0.006-0.106c0.002-0.032,0.037-0.129,0.039-0.158c0.007-0.076,0.002-0.071,0.017-0.08
	c0.014-0.009,0.023-0.002,0.023-0.002s0.01,0.004,0.013,0.004c0.003,0.002,0.009,0.009,0.009,0.009s0.01,0.013,0.015,0.021
	c0.005,0.008,0.02,0.032,0.02,0.032l0.041,0.053c0,0,0.024,0.027,0.035,0.038c0.01,0.007,0.017,0.02,0.017,0.02l0.01,0.014
	l0.019,0.026c0,0,0.003,0.003,0.003,0.006c0.001,0.003,0.002,0.007,0.002,0.007s0.002,0.029,0.039,0.074
	c0.031,0.036,0.066,0.04,0.074,0.064c0.001,0.004,0.016,0.049,0.021,0.077c0.007,0.031,0.015,0.067,0.018,0.079
	c0.003,0.012,0.026,0.075,0.026,0.075l0.03,0.075l0.045,0.086l0.043,0.074c0,0,0.051,0.09,0.08,0.131
	c0.029,0.038,0.062,0.099,0.076,0.128c0.018,0.039,0.027,0.071,0.013,0.08c-0.009,0.002-0.02-0.039-0.036-0.073
	c-0.032-0.069-0.096-0.159-0.099-0.155c-0.022,0.03-0.036,0.071-0.048,0.113c-0.009,0.029-0.013,0.059-0.017,0.098
	c-0.004,0.037-0.002,0.06-0.002,0.097c0.001,0.037,0.007,0.097,0.007,0.097l0.011,0.086l0.013,0.068l0.008,0.035l0.002,0.011
	c0,0,0.001,0.021-0.01,0.031c-0.011,0.01-0.032,0.032-0.045,0.03c-0.014-0.001-0.048-0.011-0.048-0.011l-0.185-0.067l-0.094-0.042
	c0,0-0.008-0.011-0.065-0.03c-0.033-0.011-0.064-0.007-0.083-0.012c-0.015-0.004-0.09-0.037-0.148-0.034
	c-0.054,0.004-0.079,0.001-0.107,0.025c-0.02,0.019,0.039,0.084,0.095,0.119c0.09,0.057,0.077,0.004,0.124-0.009
	c0.006-0.002,0.009-0.005,0.015-0.005c0.028,0.001,0.034,0.026,0.06,0.036c0.028,0.009,0.047,0.004,0.075,0.011
	c0.148,0.03,0.346,0.177,0.346,0.177s0.047,0.037,0.076,0.04c0.032,0.004,0.03-0.008,0.045-0.022
	c0.012-0.012,0.019-0.013,0.025-0.029c0.004-0.009,0.003-0.015,0.004-0.025c0.004-0.029-0.001-0.072-0.001-0.072
	s-0.002-0.034-0.001-0.049c0.001-0.024-0.001-0.037,0.004-0.061c0.011-0.062,0.01-0.056,0.022-0.09
	c0.021-0.06,0.037-0.093,0.075-0.143c0.058-0.074,0.114-0.094,0.167-0.17c0.013-0.02,0.021-0.054,0.033-0.052
	c0.013,0.002-0.001,0.044-0.017,0.066c-0.072,0.097-0.107,0.097-0.162,0.169c-0.053,0.069-0.056,0.085-0.08,0.162
	c-0.011,0.037-0.016,0.099-0.016,0.099s-0.003,0.07-0.002,0.097c0.002,0.027,0.006,0.074,0.006,0.074l0.016,0.091l0.009,0.044
	c0,0,0.01,0.021-0.006,0.041c-0.015,0.021-0.036,0.03-0.061,0.044c-0.075,0.044-0.23,0.094-0.269,0.107
	c-0.055,0.017-0.056,0.027-0.064,0.036c-0.035,0.045-0.085,0.028-0.161,0.07c-0.017,0.01-0.062,0.031-0.064,0.064
	c-0.001,0.012,0.125,0.084,0.215,0.077c0.07-0.005,0.028-0.053,0.054-0.077c0.019-0.019,0.052-0.006,0.072-0.021
	c0.033-0.023,0.018-0.027,0.048-0.046c0.096-0.059,0.154-0.091,0.299-0.122c0.014-0.003,0.036-0.006,0.036-0.006
	s0.02-0.001,0.029-0.01c0.013-0.009,0.013-0.021,0.019-0.036c0.004-0.009,0.004-0.015,0.007-0.024
	c0.003-0.012,0.007-0.018,0.008-0.029c0.002-0.019-0.004-0.038-0.006-0.048c-0.003-0.01-0.009-0.029-0.006-0.061
	c0.002-0.033,0.01-0.059,0.035-0.088c0.025-0.029,0.061-0.046,0.061-0.046l0.087-0.022c0,0,0.075-0.024,0.101-0.034
	c0.025-0.01,0.077-0.034,0.121-0.064c0.048-0.036,0.075-0.058,0.108-0.108c0.012-0.017,0.026-0.048,0.026-0.048
	s0.007-0.022,0.02-0.019c0.012,0.004,0.013,0.009,0.013,0.009s0.009,0.011,0.001,0.043c-0.009,0.033-0.031,0.065-0.031,0.065
	s-0.021,0.032-0.032,0.054c-0.007,0.014-0.01,0.022-0.015,0.037c-0.009,0.026-0.006,0.052-0.006,0.052s0.005,0.007,0.009-0.005
	c0.004-0.013,0.014-0.031,0.026-0.049c0.01-0.015,0.012-0.01,0.031-0.034c0.023-0.031,0.011-0.031,0.026-0.049
	c0.007-0.009,0.017-0.015,0.026-0.012c0.01,0.003,0.006,0.017,0.006,0.017s-0.005,0.045-0.026,0.081
	c-0.021,0.034-0.066,0.077-0.066,0.077l-0.036,0.031c0,0-0.024,0.021-0.036,0.037c-0.013,0.017-0.018,0.024-0.02,0.042
	c-0.002,0.021,0.003,0.052,0.012,0.049c0.009-0.002-0.002-0.024,0.029-0.056c0.031-0.031,0.065-0.045,0.065-0.045
	s0.048-0.03,0.074-0.055c0.024-0.023,0.053-0.066,0.053-0.066s0.024-0.037,0.034-0.072c0.01-0.035,0.01-0.054,0.01-0.054
	s-0.004-0.028-0.006-0.03c-0.001-0.004-0.003-0.018-0.002-0.022c0.001-0.003,0.004-0.01,0.007-0.01s0.012,0.011,0.017,0.027
	c0.005,0.017,0.008,0.035,0.006,0.059c-0.001,0.019-0.004,0.032-0.009,0.046c-0.004,0.014-0.026,0.064-0.02,0.104
	c0.003,0.019,0.009,0.062,0.015,0.046c0.015-0.036,0.007-0.058,0.019-0.09c0.015-0.037,0.02-0.025,0.03-0.043
	s0.017-0.023,0.022-0.051c0.006-0.027,0.007-0.063,0.007-0.063s-0.001-0.027-0.002-0.031c0-0.002-0.001-0.01-0.001-0.01
	s0.005-0.003,0.01-0.002c0.004,0.001,0.041,0,0.041,0s0.056-0.006,0.081-0.014s0.058-0.024,0.058-0.024s0.045-0.029,0.069-0.051
	c0.061-0.057,0.094-0.15,0.106-0.191c0.012-0.04,0.019-0.096,0.019-0.096s0.01-0.068,0.026-0.108
	c0.017-0.041,0.027-0.059,0.027-0.059s0.013-0.043,0.061-0.075c0.048-0.033,0.074-0.057,0.091-0.086
	c0.015-0.025,0.019-0.075,0.001-0.061c-0.02,0.015-0.039,0.049-0.071,0.075c-0.042,0.034-0.102,0.072-0.121,0.066
	c-0.012-0.004-0.006-0.031-0.006-0.031S15.388,18.591,15.431,18.545z"/>
<path d="M13.294,19.789c-0.017-0.007-0.024-0.013-0.032-0.021c-0.007-0.008-0.019-0.019-0.019-0.019s-0.031-0.026-0.06-0.037
	c-0.029-0.011-0.082-0.015-0.115,0.002s-0.047,0.042-0.047,0.042s-0.024,0.044-0.019,0.071c0.007,0.027,0.013,0.056,0.039,0.087
	c0.026,0.032,0.037,0.044,0.037,0.044l0.048,0.046l0.046,0.039c0,0,0.068,0.05,0.057,0.112c-0.01,0.062-0.071,0.125-0.179,0.095
	c-0.106-0.029-0.139-0.099-0.144-0.137c-0.005-0.038,0.014-0.062,0.014-0.062l0.007-0.008l0.005-0.001c0,0,0.012,0.017,0.028,0.021
	c0.017,0.004,0.052-0.006,0.057-0.039c0.005-0.034-0.02-0.051-0.034-0.054c-0.015-0.003-0.079-0.009-0.11,0.078
	c-0.031,0.087,0.032,0.162,0.032,0.162s0.043,0.054,0.107,0.074c0.064,0.019,0.124,0.013,0.124,0.013s0.109-0.014,0.147-0.117
	c0.038-0.102-0.013-0.161-0.013-0.161s-0.017-0.024-0.035-0.042c-0.018-0.017-0.06-0.059-0.06-0.059l-0.044-0.042l-0.025-0.029
	l-0.013-0.019c0,0-0.03-0.047,0.005-0.075c0.034-0.029,0.094,0.008,0.094,0.008s0.045,0.027,0.075,0.07
	c0.029,0.042,0.039,0.084,0.039,0.084l0.007,0.033l0.001,0.004h0.015c0,0-0.001-0.069,0.004-0.096
	c0.004-0.026,0.013-0.067,0.013-0.067s-0.004-0.013-0.014-0.008C13.324,19.788,13.31,19.796,13.294,19.789z"/>
<path d="M14.59,20.241c-0.096-0.022-0.15-0.054-0.15-0.054l-0.099-0.053c0,0-0.029-0.017-0.054-0.026
	c-0.025-0.009-0.078-0.017-0.078-0.017s-0.053-0.006-0.082,0.003c-0.028,0.009-0.095,0.03-0.092,0.101
	c0.004,0.069,0.115,0.072,0.144,0.032l0.011-0.012l0.005-0.008L14.187,20.2l-0.013,0.008c0,0-0.049,0.018-0.071-0.012
	c-0.022-0.031,0.008-0.052,0.012-0.055c0.004-0.002,0.026-0.016,0.066-0.012c0.04,0.005,0.092,0.039,0.092,0.039l0.057,0.034
	c0,0,0.032,0.017,0.033,0.018c0.002,0.001,0.012,0.006,0.012,0.006l-0.03,0.017c0,0-0.042,0.019-0.078,0.055
	c-0.037,0.036-0.055,0.056-0.055,0.056l-0.003,0.002c0,0-0.029-0.007-0.05-0.002c-0.021,0.005-0.037,0.016-0.037,0.016l-0.013,0.012
	l0.008,0.013c0,0,0.018-0.01,0.034-0.008c0.017,0.001,0.026,0.011,0.026,0.011s-0.04,0.047-0.058,0.064
	c-0.017,0.017-0.047,0.049-0.082,0.067c-0.033,0.019-0.06,0.036-0.12,0.024c-0.06-0.012-0.087-0.064-0.096-0.087
	c-0.009-0.024-0.009-0.054-0.002-0.075c0.006-0.021,0.024-0.037,0.024-0.037s0.008,0.02,0.026,0.026
	c0.019,0.007,0.05,0.003,0.061-0.031c0.011-0.034-0.02-0.056-0.02-0.056s-0.047-0.03-0.09,0.014
	c-0.043,0.044-0.045,0.094-0.045,0.094s-0.013,0.076,0.047,0.144c0.06,0.068,0.15,0.065,0.15,0.065s0.066,0.001,0.137-0.039
	c0.072-0.041,0.12-0.102,0.12-0.102l0.034-0.039l0.022,0.007c0,0,0.029,0.014,0.056,0.004c0.028-0.011,0.048-0.029,0.048-0.029
	l0.006-0.006l-0.011-0.012c0,0-0.023,0.016-0.046,0.01c-0.022-0.006-0.043-0.018-0.043-0.018l0.04-0.049
	c0,0,0.041-0.041,0.052-0.051c0.011-0.009,0.051-0.036,0.051-0.036s0.059,0.02,0.118,0.027c0.06,0.008,0.099,0.006,0.099,0.006
	l0.079-0.006l0.02-0.002l-0.001-0.016C14.756,20.263,14.686,20.263,14.59,20.241z"/>
<path d="M27.534,15.955c-1.787,0.166-7.023,0.036-12.193-2.195C10.599,11.714,7.49,8.498,6.47,7.372
	C6.23,7.109,6.197,6.947,6.077,7.016c-0.106,0.061-0.01,0.193,0.109,0.477c0.604,1.454,2.602,6.151,3.591,9.804
	c1.318,4.871,0.562,11.402,0.317,13.179c-0.043,0.313-0.119,0.492,0.003,0.522c0.117,0.029,0.176-0.172,0.291-0.455
	c0.638-1.569,3.392-6.226,6.313-9.014c3.786-3.615,9.253-5.018,10.835-5.345c0.282-0.057,0.509-0.075,0.494-0.183
	C28.017,15.889,27.824,15.928,27.534,15.955z M16.348,18.499c-0.156,0.457-0.967,2.35-3.107,2.778
	c-1.415-1.69-0.898-3.684-0.741-4.142l0.506-1.544l2.072,0.312l1.814,1.065L16.348,18.499z"/>
<g>
	<path d="M9.031,24.565v-0.937c-0.023-1.982-0.202-4.094-0.702-5.94c-0.343-1.266-0.81-2.658-1.298-3.997V30h1.613
		C8.783,28.941,9.003,26.899,9.031,24.565z"/>
	<path d="M23.031,19.214V28h-9.53c-0.475,0.75-0.874,1.437-1.178,2h12.708V18.438C24.414,18.649,23.739,18.904,23.031,19.214z"/>
	<path d="M7.492,6.252C7.513,6.282,7.54,6.32,7.581,6.365c0.367,0.405,0.859,0.91,1.45,1.459V4h14v10.281
		c0.772,0.099,1.446,0.155,2,0.186V2h-18v3.791C7.269,5.96,7.42,6.156,7.492,6.252z"/>
</g>
</svg>
