<?xml version="1.0" encoding="iso-8859-1"?>
<!-- Generator: Adobe Illustrator 19.0.1, SVG Export Plug-In . SVG Version: 6.00 Build 0)  -->
<svg version="1.1" id="Layer_1" xmlns="http://www.w3.org/2000/svg" xmlns:xlink="http://www.w3.org/1999/xlink" x="0px" y="0px"
	 viewBox="0 0 32 32" style="enable-background:new 0 0 32 32;" xml:space="preserve">
<circle style="fill:none;stroke:#000000;stroke-width:2;stroke-miterlimit:10;" cx="16" cy="16" r="11"/>
<path style="fill:none;stroke:#000000;stroke-width:2;stroke-miterlimit:10;" d="M32,29h-1c-2.2,0-4-1.8-4-4v-9"/>
<circle style="fill:none;stroke:#000000;stroke-width:2;stroke-miterlimit:10;" cx="16" cy="16" r="2"/>
<path style="fill:none;stroke:#000000;stroke-width:2;stroke-miterlimit:10;" d="M16,11c0.4,0,0.8,0.1,1.2,0.1L18,8.2
	c0,0-1-0.2-2-0.2s-2,0.2-2,0.2l0.8,2.9C15.2,11.1,15.6,11,16,11z"/>
<path style="fill:none;stroke:#000000;stroke-width:2;stroke-miterlimit:10;" d="M16,21c-0.4,0-0.8-0.1-1.2-0.1L14,23.8
	c0,0,1,0.2,2,0.2s2-0.2,2-0.2l-0.8-2.9C16.8,20.9,16.4,21,16,21z"/>
<path style="fill:none;stroke:#000000;stroke-width:2;stroke-miterlimit:10;" d="M21,16c0,0.4-0.1,0.8-0.1,1.2l2.9,0.8
	c0,0,0.2-1,0.2-2s-0.2-2-0.2-2l-2.9,0.8C20.9,15.2,21,15.6,21,16z"/>
<path style="fill:none;stroke:#000000;stroke-width:2;stroke-miterlimit:10;" d="M11,16c0-0.4,0.1-0.8,0.1-1.2L8.2,14
	c0,0-0.2,1-0.2,2s0.2,2,0.2,2l2.9-0.8C11.1,16.8,11,16.4,11,16z"/>
</svg>
