<?xml version="1.0" encoding="iso-8859-1"?>
<!-- Generator: Adobe Illustrator 19.1.1, SVG Export Plug-In . SVG Version: 6.00 Build 0)  -->
<svg version="1.1" id="Layer_1" xmlns="http://www.w3.org/2000/svg" xmlns:xlink="http://www.w3.org/1999/xlink" x="0px" y="0px"
	 viewBox="0 0 32 32" style="enable-background:new 0 0 32 32;" xml:space="preserve">
<polyline style="fill:none;stroke:#000000;stroke-width:2;stroke-miterlimit:10;" points="28,14 28,7 4,7 4,25 18,25 "/>
<path style="fill:none;stroke:#000000;stroke-width:2;stroke-miterlimit:10;" d="M13,7c0-1.657,1.343-3,3-3s3,1.343,3,3"/>
<line style="fill:none;stroke:#000000;stroke-width:2;stroke-miterlimit:10;" x1="4" y1="18" x2="19" y2="18"/>
<circle cx="16" cy="15" r="1"/>
<path d="M26.5,18c-3,0-5.5,2.5-5.5,5.5c0,1.2,0.4,2.2,1,3.1l-3.7,3.7l1.4,1.4l3.7-3.7c0.9,0.6,2,1,3.1,1c3,0,5.5-2.5,5.5-5.5
	S29.5,18,26.5,18z M26.5,27c-1.9,0-3.5-1.6-3.5-3.5s1.6-3.5,3.5-3.5s3.5,1.6,3.5,3.5S28.4,27,26.5,27z"/>
<g>
	<path d="M22.774,17H18v2h2.514C21.124,18.19,21.891,17.508,22.774,17z"/>
	<path d="M29,16.438V13h-2v3.025C27.697,16.072,28.367,16.213,29,16.438z"/>
	<path d="M19.025,24H17v2h2.438C19.213,25.367,19.072,24.697,19.025,24z"/>
</g>
</svg>
