<?xml version="1.0" encoding="iso-8859-1"?>
<!-- Generator: Adobe Illustrator 19.1.1, SVG Export Plug-In . SVG Version: 6.00 Build 0)  -->
<svg version="1.1" id="Layer_1" xmlns="http://www.w3.org/2000/svg" xmlns:xlink="http://www.w3.org/1999/xlink" x="0px" y="0px"
	 viewBox="-8 10 32 32" style="enable-background:new -8 10 32 32;" xml:space="preserve">
<path d="M17,21c-0.537,0-1.034,0.153-1.471,0.401C14.997,20.562,14.065,20,13,20c-0.537,0-1.034,0.153-1.471,0.401
	C10.997,19.562,10.065,19,9,19c-0.351,0-0.684,0.072-0.997,0.183V17c0-1.654-1.346-3-3-3C5.002,14,5.001,14,5,14
	c-1.654,0-3,1.346-3,3v10.758l-0.879-0.879c-1.17-1.168-3.073-1.169-4.243,0c-1.168,1.17-1.168,3.072,0.001,4.243l6.792,6.771
	C5.054,39.271,6.681,40,8.375,40H13c3.859,0,7-3.141,7-7v-9C20,22.346,18.654,21,17,21z M18,33c0,2.757-2.243,5-5,5H8.375
	c-1.458,0-2.595-0.828-3.292-1.522l-6.79-6.771c-0.39-0.39-0.39-1.024,0-1.414c0.39-0.389,1.024-0.389,1.414,0L4,32.586L4.003,17
	c0-0.551,0.448-0.999,0.999-1C5.552,16.001,6,16.449,6,17l0.002,4.982C6.002,21.988,6,21.994,6,22v3h0.003v0.003l2-0.003v-3.014
	C8.011,21.441,8.454,21,9,21c0.552,0,1,0.449,1,1v1v2h2v-2c0-0.551,0.448-1,1-1s1,0.449,1,1v1v1h2v-1c0-0.551,0.448-1,1-1
	s1,0.449,1,1V33z"/>
</svg>
