<?xml version="1.0" encoding="iso-8859-1"?>
<!-- Generator: Adobe Illustrator 19.1.0, SVG Export Plug-In . SVG Version: 6.00 Build 0)  -->
<svg version="1.1" id="Layer_1" xmlns="http://www.w3.org/2000/svg" xmlns:xlink="http://www.w3.org/1999/xlink" x="0px" y="0px"
	 viewBox="0 0 32 32" style="enable-background:new 0 0 32 32;" xml:space="preserve">
<polygon style="fill:none;stroke:#000000;stroke-width:2;stroke-miterlimit:10;" points="28,25 4,25 4,10 16,5 28,10 "/>
<path style="fill:none;stroke:#000000;stroke-width:2;stroke-miterlimit:10;" d="M20.5,18c0,2.5-2,4-4.5,4s-4.5-1.5-4.5-4
	c0-3.4,4.5-7.1,4.5-7.1S20.5,15.05,20.5,18z"/>
<path d="M18,20c0,1.1-0.9,2-2,2s-2-0.9-2-2c0-1.65,0.6-2.9,0.6-2.9s0.55,0.85,1.1,0.85c0.8,0,0.75-2.65,0.75-2.65S18,17.05,18,20z"
	/>
</svg>
