<?xml version="1.0" encoding="iso-8859-1"?>
<!-- Generator: Adobe Illustrator 19.1.0, SVG Export Plug-In . SVG Version: 6.00 Build 0)  -->
<svg version="1.1" id="Layer_1" xmlns="http://www.w3.org/2000/svg" xmlns:xlink="http://www.w3.org/1999/xlink" x="0px" y="0px"
	 viewBox="0 0 32 32" style="enable-background:new 0 0 32 32;" xml:space="preserve">
<circle cx="22.5" cy="16.5" r="1.5"/>
<path style="fill:none;stroke:#000000;stroke-width:2;stroke-miterlimit:10;" d="M16.45,10.68C12.515,11.202,9.931,13.947,9,15
	c0,0-2.024-2-5-2c0,1.928,1,4,1,4s-1,1.979-1,4c2.93,0,5-2,5-2c1.181,1.366,3.354,3.209,6.036,4.233c0,0-0.353,1.546-0.036,2.767
	c1.676,0,4-2,4-2c7.738,0,9-8,9-8s-2.115-6-8-6c-0.83-1.36-4.053-3-8-3c0.436,1.055,1.112,3.405,0.793,4.83"/>
</svg>
