<?xml version="1.0" encoding="iso-8859-1"?>
<!-- Generator: Adobe Illustrator 21.0.2, SVG Export Plug-In . SVG Version: 6.00 Build 0)  -->
<svg version="1.1" id="Layer_1" xmlns="http://www.w3.org/2000/svg" xmlns:xlink="http://www.w3.org/1999/xlink" x="0px" y="0px"
	 viewBox="0 0 32 32" style="enable-background:new 0 0 32 32;" xml:space="preserve">
<polyline style="fill:none;stroke:#000000;stroke-width:2;stroke-miterlimit:10;" points="14,19 11,24 20,24 "/>
<line style="fill:none;stroke:#000000;stroke-width:2;stroke-miterlimit:10;" x1="17" y1="19" x2="17" y2="29"/>
<path style="fill:none;stroke:#000000;stroke-width:2;stroke-miterlimit:10;" d="M8,19c0-2,1.846-5,6-5s6,3,6,5H8z"/>
<path style="fill:none;stroke:#000000;stroke-width:2;stroke-miterlimit:10;" d="M17.5,4h-1C15.119,4,14,5.119,14,6.5
	c0,0.654,0.222,1.278,0.662,1.695C15.71,9.186,22.048,13.121,23,14c0.522,0.482,1,1.104,1,2.2c0,1.8-1.343,2.8-3,2.8h-4"/>
<circle cx="17.5" cy="4.5" r="1.5"/>
<path d="M20.707,6.593l-1.769-1.861l-1.706,0.703L20.707,8C21.098,7.612,21.098,6.982,20.707,6.593z"/>
</svg>
