<?xml version="1.0" encoding="iso-8859-1"?>
<!-- Generator: Adobe Illustrator 22.0.1, SVG Export Plug-In . SVG Version: 6.00 Build 0)  -->
<svg version="1.1" id="Layer_1" xmlns="http://www.w3.org/2000/svg" xmlns:xlink="http://www.w3.org/1999/xlink" x="0px" y="0px"
	 viewBox="0 0 32 32" style="enable-background:new 0 0 32 32;" xml:space="preserve">
<circle style="fill:none;stroke:#000000;stroke-width:2;stroke-miterlimit:10;" cx="15" cy="10" r="5"/>
<circle cx="13" cy="10" r="1"/>
<circle cx="15" cy="13" r="1"/>
<circle cx="15" cy="7" r="1"/>
<circle cx="17" cy="10" r="1"/>
<path style="fill:none;stroke:#000000;stroke-width:2;stroke-miterlimit:10;" d="M23.219,17.719c0,0-4.26,1.476-9.312,1.281
	C9,18.81,6.236,17,4.883,17C3.124,17,2,20,2,22c0,3,6.016,5,12.033,5c2.447,0,4.23,0,5.578-1.313
	C21.035,24.299,22.402,19.948,23.219,17.719z"/>
<path style="fill:none;stroke:#000000;stroke-width:2;stroke-miterlimit:10;" d="M21.602,22.057C21.334,22.268,19.971,23,13.969,23
	c-5.961,0-10.498-2.542-11.394-3.635"/>
<path style="fill:none;stroke:#000000;stroke-width:2;stroke-miterlimit:10;" d="M30.125,7l-5.891,9.365
	c0,0-1.469,2.493-2.139,4.488"/>
<path style="fill:none;stroke:#000000;stroke-width:2;stroke-miterlimit:10;" d="M19.828,18.554
	c1.322-0.232,3.391-0.835,5.373-3.727"/>
<line style="fill:none;stroke:#000000;stroke-width:2;stroke-miterlimit:10;" x1="17.901" y1="18.839" x2="14.057" y2="27"/>
<line style="fill:none;stroke:#000000;stroke-width:2;stroke-miterlimit:10;" x1="12.856" y1="18.933" x2="9.256" y2="26.578"/>
<line style="fill:none;stroke:#000000;stroke-width:2;stroke-miterlimit:10;" x1="8.286" y1="18" x2="4.983" y2="25.294"/>
</svg>
