<?xml version="1.0" encoding="iso-8859-1"?>
<!-- Generator: Adobe Illustrator 19.1.0, SVG Export Plug-In . SVG Version: 6.00 Build 0)  -->
<svg version="1.1" id="Layer_1" xmlns="http://www.w3.org/2000/svg" xmlns:xlink="http://www.w3.org/1999/xlink" x="0px" y="0px"
	 viewBox="0 0 32 32" style="enable-background:new 0 0 32 32;" xml:space="preserve">
<path style="fill:none;stroke:#000000;stroke-width:2;stroke-miterlimit:10;" d="M2,26c17.531,0,17.311-10.864,16.842-14.688
	c0,0,3.558-1.206,3.558-3.272c0-1.414-1.146-2.56-2.56-2.56c-0.944,0-3.463,0.66-3.463,0.66s0.697,1.018,1.34,2.304"/>
<path style="fill:none;stroke:#000000;stroke-width:2;stroke-miterlimit:10;" d="M17.6,18.138C11.295,19.189,5.969,14.392,3.68,8.72
	h-0.31c0,0-1.369,2.443-1.369,6.558c0,3.783,2.986,6.319,6.159,6.319"/>
<path d="M21.95,8.933c0,0,6.57-1.136,9.05-2.933h-9.262L21.95,8.933z"/>
</svg>
