<?xml version="1.0" encoding="iso-8859-1"?>
<!-- Generator: Adobe Illustrator 19.1.0, SVG Export Plug-In . SVG Version: 6.00 Build 0)  -->
<svg version="1.1" id="Layer_1" xmlns="http://www.w3.org/2000/svg" xmlns:xlink="http://www.w3.org/1999/xlink" x="0px" y="0px"
	 viewBox="0 0 32 32" style="enable-background:new 0 0 32 32;" xml:space="preserve">
<path d="M15.95,7.933c0,0,7.57-1.136,10.05-2.933H15.738L15.95,7.933z"/>
<path style="fill:none;stroke:#000000;stroke-width:2;stroke-miterlimit:10;" d="M14.844,8.756c0.464-0.454,1.013-1.108,1.013-1.899
	c0-1.262-1.023-2.286-2.286-2.286C12.499,4.571,11.857,4,11.857,4s-0.571,1.069-0.571,2.857C11.286,10.492,18,13.385,18,19s-7,9-7,9
	"/>
<path style="fill:none;stroke:#000000;stroke-width:2;stroke-miterlimit:10;" d="M15.261,12.841C18.905,20.736,4,15.988,4,23.771
	C4,25.486,5,28,5,28h0.5c0,0,6.5-2.452,6.5-7"/>
<path style="fill:none;stroke:#000000;stroke-width:2;stroke-miterlimit:10;" d="M26,11.5L25,6h-1c0,0,0.076,5.388-2.268,7.732
	c-0.976,0.976-0.976,2.559,0,3.536s2.559,0.976,3.536,0c1.885-1.885,2.243-3.757,2.243-3.757l-0.669-0.669"/>
<circle cx="27.5" cy="11.5" r="2.5"/>
</svg>
