<?xml version="1.0" encoding="iso-8859-1"?>
<!-- Generator: Adobe Illustrator 19.1.1, SVG Export Plug-In . SVG Version: 6.00 Build 0)  -->
<svg version="1.1"  xmlns="http://www.w3.org/2000/svg" xmlns:xlink="http://www.w3.org/1999/xlink" x="0px" y="0px"
	 viewBox="0 0 32 32" style="enable-background:new 0 0 32 32;" xml:space="preserve">
<path style="fill:none;stroke:#000000;stroke-width:2;stroke-miterlimit:10;" d="M27,21V7l-2-3l-2,3v14"/>
<path style="fill:none;stroke:#000000;stroke-width:2;stroke-miterlimit:10;" d="M11.5,28c0,0-7.5-4.714-7.5-9V5.964
	C8.607,4.893,11.5,4,11.5,4s2.893,0.928,7.5,2v13C19,23.286,11.5,28,11.5,28z"/>
<line style="fill:none;stroke:#000000;stroke-width:2;stroke-linejoin:round;stroke-miterlimit:10;" x1="4" y1="10.884" x2="18.92" y2="20.001"/>
<line style="fill:none;stroke:#000000;stroke-width:2;stroke-linejoin:round;stroke-miterlimit:10;" x1="4" y1="15.156" x2="17.003" y2="23.103"/>
<line style="fill:none;stroke:#000000;stroke-width:2;stroke-linejoin:round;stroke-miterlimit:10;" x1="4" y1="6.611" x2="19" y2="15.778"/>
<ellipse style="fill:none;stroke:#000000;stroke-width:2;stroke-miterlimit:10;" cx="25" cy="27" rx="1" ry="1"/>
<line style="fill:none;stroke:#000000;stroke-width:2;stroke-miterlimit:10;" x1="29" y1="21" x2="21" y2="21"/>
<rect x="24" y="22" width="2" height="4"/>
</svg>
