<?xml version="1.0" encoding="iso-8859-1"?>
<!-- Generator: Adobe Illustrator 19.1.1, SVG Export Plug-In . SVG Version: 6.00 Build 0)  -->
<svg version="1.1" id="Layer_1" xmlns="http://www.w3.org/2000/svg" xmlns:xlink="http://www.w3.org/1999/xlink" x="0px" y="0px"
	 viewBox="0 0 32 32" style="enable-background:new 0 0 32 32;" xml:space="preserve">
<path d="M15,16c0,1.105-0.895,2-2,2s-2-0.895-2-2H15z"/>
<path d="M21,16c0,1.105-0.895,2-2,2s-2-0.895-2-2H21z"/>
<line style="fill:none;stroke:#000000;stroke-width:2;stroke-miterlimit:10;" x1="9" y1="6" x2="16" y2="13"/>
<line style="fill:none;stroke:#000000;stroke-width:2;stroke-miterlimit:10;" x1="13" y1="13" x2="16" y2="10"/>
<line style="fill:none;stroke:#000000;stroke-width:2;stroke-miterlimit:10;" x1="11" y1="11" x2="14" y2="8"/>
<path style="fill:none;stroke:#000000;stroke-width:2;stroke-miterlimit:10;" d="M20,22c-5.438,0-7,2-7,2"/>
<path style="fill:none;stroke:#000000;stroke-width:2;stroke-miterlimit:10;" d="M11,4C9.35,4,8,5.35,8,7v9l-1,0
	c0,0-0.062,4.953,2,4.953C9,25,11.6,28,16,28h0l0,0c4.4,0,7-3,7-7.047c2.062,0,2-4.953,2-4.953l-1,0V7c0-1.65-1.35-3-3-3H11z"/>
<path style="fill:none;stroke:#000000;stroke-width:2;stroke-miterlimit:10;" d="M8,11V9c0-1.65,1.35-3,3-3h10c1.65,0,3,1.35,3,3v2"
	/>
</svg>
