<?xml version="1.0" encoding="iso-8859-1"?>
<!-- Generator: Adobe Illustrator 19.2.1, SVG Export Plug-In . SVG Version: 6.00 Build 0)  -->
<svg version="1.1" id="Layer_1" xmlns="http://www.w3.org/2000/svg" xmlns:xlink="http://www.w3.org/1999/xlink" x="0px" y="0px"
	 viewBox="0 0 32 32" style="enable-background:new 0 0 32 32;" xml:space="preserve">
<path style="fill:none;stroke:#000000;stroke-miterlimit:10;" d="M20.842,16.5C17.226,16.5,16,17.105,16,17.105
	S14.782,16.5,11.158,16.5"/>
<circle cx="19" cy="18" r="1"/>
<circle cx="13" cy="18" r="1"/>
<path style="fill:none;stroke:#000000;stroke-width:2;stroke-miterlimit:10;" d="M9,16v1c0,0.091,0.01,0.18,0.013,0.271
	C8.41,17.615,8,18.256,8,19c0,1.014,0.758,1.843,1.737,1.973C11.068,24.518,13.933,27,16,27s4.932-2.482,6.263-6.027
	C23.242,20.843,24,20.014,24,19c0-0.744-0.41-1.385-1.013-1.729C22.99,17.18,23,17.091,23,17v-1"/>
<path d="M22,7.5C22,5.567,20.433,4,18.5,4c-0.981,0-1.865,0.406-2.5,1.056C15.365,4.406,14.481,4,13.5,4C11.567,4,10,5.567,10,7.5
	c0,0-3,1.816-3,6C7,16.138,8,18,8,18l2-1c0-6,5.034-6,6-6s6,0,6,6l2,1c0,0,1-1.862,1-4.5C25,9.316,22,7.5,22,7.5z M14.854,8.146
	c0.195,0.195,0.195,0.512,0,0.707C14.756,8.951,14.628,9,14.5,9s-0.256-0.049-0.354-0.146L13.5,8.207l-0.646,0.646
	C12.756,8.951,12.628,9,12.5,9s-0.256-0.049-0.354-0.146c-0.195-0.195-0.195-0.512,0-0.707L12.793,7.5l-0.646-0.646
	c-0.195-0.195-0.195-0.512,0-0.707s0.512-0.195,0.707,0L13.5,6.793l0.646-0.646c0.195-0.195,0.512-0.195,0.707,0
	s0.195,0.512,0,0.707L14.207,7.5L14.854,8.146z M19.854,8.146c0.195,0.195,0.195,0.512,0,0.707C19.756,8.951,19.628,9,19.5,9
	s-0.256-0.049-0.354-0.146L18.5,8.207l-0.646,0.646C17.756,8.951,17.628,9,17.5,9s-0.256-0.049-0.354-0.146
	c-0.195-0.195-0.195-0.512,0-0.707L17.793,7.5l-0.646-0.646c-0.195-0.195-0.195-0.512,0-0.707s0.512-0.195,0.707,0L18.5,6.793
	l0.646-0.646c0.195-0.195,0.512-0.195,0.707,0s0.195,0.512,0,0.707L19.207,7.5L19.854,8.146z"/>
</svg>
