<?xml version="1.0" encoding="iso-8859-1"?>
<!-- Generator: Adobe Illustrator 19.1.1, SVG Export Plug-In . SVG Version: 6.00 Build 0)  -->
<svg version="1.1" id="Layer_1" xmlns="http://www.w3.org/2000/svg" xmlns:xlink="http://www.w3.org/1999/xlink" x="0px" y="0px"
	 viewBox="0 0 32 32" style="enable-background:new 0 0 32 32;" xml:space="preserve">
<circle cx="12" cy="8" r="1"/>
<circle cx="12" cy="12" r="1"/>
<circle cx="12" cy="16" r="1"/>
<circle cx="12" cy="20" r="1"/>
<circle cx="21" cy="8" r="1"/>
<circle cx="21" cy="12" r="1"/>
<circle cx="21" cy="16" r="1"/>
<circle cx="21" cy="20" r="1"/>
<path style="fill:none;stroke:#000000;stroke-width:2;stroke-miterlimit:10;" d="M10,24v1.5c0,1.381,1.119,2.5,2.5,2.5
	s2.5-1.119,2.5-2.5V24"/>
<path style="fill:none;stroke:#000000;stroke-width:2;stroke-miterlimit:10;" d="M18,24v1.5c0,1.381,1.119,2.5,2.5,2.5
	s2.5-1.119,2.5-2.5V24"/>
<path style="fill:none;stroke:#000000;stroke-width:2;stroke-miterlimit:10;" d="M7,5c0,0,3.062-1,5.437-1S18,5,18,5l-2,19H9L7,5z"
	/>
<path style="fill:none;stroke:#000000;stroke-width:2;stroke-miterlimit:10;" d="M16.978,4.465C18.016,4.227,19.305,4,20.437,4
	C22.812,4,26,5,26,5l-2,19h-7l-0.5-4.875"/>
</svg>
