<?xml version="1.0" encoding="utf-8"?>
<!-- Generator: Adobe Illustrator 18.0.0, SVG Export Plug-In . SVG Version: 6.00 Build 0)  -->
<svg version="1.1" id="Layer_1" xmlns="http://www.w3.org/2000/svg" xmlns:xlink="http://www.w3.org/1999/xlink" x="0px" y="0px"
	 viewBox="0 0 32 32" enable-background="new 0 0 32 32" xml:space="preserve">
<polyline fill="none" stroke="#000000" stroke-width="2" stroke-miterlimit="10" points="24,24 24,27 8,27 8,24 "/>
<line fill="none" stroke="#000000" stroke-width="2" stroke-miterlimit="10" x1="16" y1="27" x2="16" y2="24"/>
<line fill="none" stroke="#000000" stroke-width="2" stroke-miterlimit="10" x1="20" y1="27" x2="20" y2="24"/>
<line fill="none" stroke="#000000" stroke-width="2" stroke-miterlimit="10" x1="12" y1="27" x2="12" y2="24"/>
<path fill="none" stroke="#000000" stroke-width="2" stroke-miterlimit="10" d="M23,15.8c0,3.9-3.1,6.2-7,6.2s-7-2.4-7-6.2
	C9,10.5,16,4,16,4S23,11.2,23,15.8z"/>
<path fill="none" stroke="#000000" stroke-width="2" stroke-miterlimit="10" d="M19.1,18.9c0,1.7-1.4,3.1-3.1,3.1s-3.1-1.4-3.1-3.1
	c0-2.6,0.9-4.5,0.9-4.5s0.8,1.3,1.7,1.3c1.2,0,1.1-4.1,1.1-4.1S19.1,14.3,19.1,18.9z"/>
</svg>
