<?xml version="1.0" encoding="iso-8859-1"?>
<!-- Generator: Adobe Illustrator 19.1.1, SVG Export Plug-In . SVG Version: 6.00 Build 0)  -->
<svg version="1.1" id="Layer_1" xmlns="http://www.w3.org/2000/svg" xmlns:xlink="http://www.w3.org/1999/xlink" x="0px" y="0px"
	 viewBox="0 0 32 32" style="enable-background:new 0 0 32 32;" xml:space="preserve">
<polyline style="fill:none;stroke:#000000;stroke-width:2;stroke-miterlimit:10;" points="11,26 6,26 6,21 "/>
<polyline style="fill:none;stroke:#000000;stroke-width:2;stroke-miterlimit:10;" points="26,21 26,26 21,26 "/>
<polyline style="fill:none;stroke:#000000;stroke-width:2;stroke-miterlimit:10;" points="21,6 26,6 26,11 "/>
<polyline style="fill:none;stroke:#000000;stroke-width:2;stroke-miterlimit:10;" points="6,11 6,6 11,6 "/>
<path style="fill:none;stroke:#000000;stroke-width:2;stroke-miterlimit:10;" d="M9.5,13L9.5,13C8.672,13,8,13.672,8,14.5v3
	C8,18.328,8.672,19,9.5,19h0c0.828,0,1.5-0.672,1.5-1.5v-3C11,13.672,10.328,13,9.5,13z"/>
<path id="XMLID_321_" style="fill:none;stroke:#000000;stroke-width:2;stroke-miterlimit:10;" d="M20,16h1.5
	c0.828,0,1.5-0.672,1.5-1.5v0c0-0.828-0.672-1.5-1.5-1.5H20v7"/>
<polygon id="XMLID_320_" points="22.687,16.018 20.687,16.018 22,20 24,20 "/>
<path id="XMLID_21_" style="fill:none;stroke:#000000;stroke-width:2;stroke-miterlimit:10;" d="M17,17v0.5
	c0,0.828-0.672,1.5-1.5,1.5h0c-0.828,0-1.5-0.672-1.5-1.5v-3c0-0.828,0.672-1.5,1.5-1.5h0c0.828,0,1.5,0.672,1.5,1.5V15"/>
</svg>
