<?xml version="1.0" encoding="iso-8859-1"?>
<!-- Generator: Adobe Illustrator 19.1.0, SVG Export Plug-In . SVG Version: 6.00 Build 0)  -->
<svg version="1.1" id="Layer_1" xmlns="http://www.w3.org/2000/svg" xmlns:xlink="http://www.w3.org/1999/xlink" x="0px" y="0px"
	 viewBox="0 0 32 32" style="enable-background:new 0 0 32 32;" xml:space="preserve">
<path style="fill:none;stroke:#000000;stroke-width:2;stroke-miterlimit:10;" d="M22,10c0,3.314-6,12-6,12s-6-8.686-6-12
	s2.686-6,6-6S22,6.686,22,10z"/>
<circle cx="16" cy="10" r="2"/>
<path d="M21.108,19.444l-1.219,1.829C23.668,21.821,26,23.088,26,24c0,1.194-3.988,3-10,3S6,25.194,6,24
	c0-0.912,2.332-2.179,6.111-2.727l-1.219-1.829C7.019,20.146,4,21.68,4,24c0,3.283,6.037,5,12,5s12-1.717,12-5
	C28,21.68,24.981,20.146,21.108,19.444z"/>
</svg>
