<?xml version="1.0" encoding="iso-8859-1"?>
<!-- Generator: Adobe Illustrator 21.0.0, SVG Export Plug-In . SVG Version: 6.00 Build 0)  -->
<svg version="1.1"  xmlns="http://www.w3.org/2000/svg" xmlns:xlink="http://www.w3.org/1999/xlink" x="0px" y="0px"
	 viewBox="0 0 32 32" style="enable-background:new 0 0 32 32;" xml:space="preserve">
<path style="fill:none;stroke:#000000;stroke-width:2;stroke-miterlimit:10;" d="M27,25H5c-1.105,0-2-0.895-2-2V9
	c0-1.105,0.895-2,2-2h22c1.105,0,2,0.895,2,2v14C29,24.105,28.105,25,27,25z"/>
<g>
	<path style="fill:none;stroke:#000000;stroke-width:2;stroke-miterlimit:10;" d="M12,16c0,0,2.895,0,4,0s2-0.895,2-2s-0.895-2-2-2
		C13.625,12,12,16,12,16z"/>
	<path style="fill:none;stroke:#000000;stroke-width:2;stroke-miterlimit:10;" d="M12,16c0,0-2.895,0-4,0s-2-0.895-2-2s0.895-2,2-2
		C10.375,12,12,16,12,16z"/>
</g>
<path style="fill:none;stroke:#000000;stroke-width:2;stroke-miterlimit:10;" d="M12,16c0,0-3.455,1.004-4,4"/>
<path style="fill:none;stroke:#000000;stroke-width:2;stroke-miterlimit:10;" d="M12,16c0,0,3.455,1.103,4,4"/>
<rect x="20" y="15" width="8" height="2"/>
<rect x="11" y="19" width="2" height="7"/>
<rect x="11" y="6" width="2" height="5"/>
</svg>
