<?xml version="1.0" encoding="iso-8859-1"?>
<!-- Generator: Adobe Illustrator 21.0.2, SVG Export Plug-In . SVG Version: 6.00 Build 0)  -->
<svg version="1.1"  xmlns="http://www.w3.org/2000/svg" xmlns:xlink="http://www.w3.org/1999/xlink" x="0px" y="0px"
	 viewBox="0 0 32 32" style="enable-background:new 0 0 32 32;" xml:space="preserve">
<circle cx="23" cy="24" r="1"/>
<circle cx="23" cy="21" r="1"/>
<circle cx="23" cy="18" r="1"/>
<circle cx="16" cy="9" r="1"/>
<circle cx="9" cy="24" r="1"/>
<circle cx="9" cy="21" r="1"/>
<circle cx="9" cy="18" r="1"/>
<circle cx="25" cy="15" r="1"/>
<circle cx="7" cy="15" r="1"/>
<circle cx="13" cy="11" r="1"/>
<circle cx="19" cy="11" r="1"/>
<circle cx="10" cy="13" r="1"/>
<circle cx="22" cy="13" r="1"/>
<path d="M17,19h-2c-0.552,0-1-0.448-1-1v-2c0-0.552,0.448-1,1-1h2c0.552,0,1,0.448,1,1v2C18,18.552,17.552,19,17,19z"/>
<path style="fill:none;stroke:#000000;stroke-width:2;stroke-miterlimit:10;" d="M28.087,13.777C25.349,11.773,16,5,16,5
	s-9.349,6.773-12.087,8.777C3.353,14.188,3,14.913,3,15.66C3,16.93,4.033,18,5.308,18L6,18v9h20v-9l0.692,0
	C27.967,18,29,16.93,29,15.66C29,14.913,28.647,14.188,28.087,13.777z"/>
<path style="fill:none;stroke:#000000;stroke-width:2;stroke-miterlimit:10;" d="M16,22c-1.105,0-2,0.895-2,2c0,0.663,0,3,0,3h4
	c0,0,0-1.895,0-3C18,22.895,17.105,22,16,22z"/>
</svg>
