<?xml version="1.0" encoding="iso-8859-1"?>
<!-- Generator: Adobe Illustrator 19.1.1, SVG Export Plug-In . SVG Version: 6.00 Build 0)  -->
<svg version="1.1" id="Layer_1" xmlns="http://www.w3.org/2000/svg" xmlns:xlink="http://www.w3.org/1999/xlink" x="0px" y="0px"
	 viewBox="0 0 32 32" style="enable-background:new 0 0 32 32;" xml:space="preserve">
<circle cx="16" cy="16" r="1"/>
<line style="fill:none;stroke:#000000;stroke-width:2;stroke-miterlimit:10;" x1="16" y1="16" x2="28" y2="4"/>
<g>
	<path d="M11,16c0,2.757,2.243,5,5,5s5-2.243,5-5c0-0.236-0.038-0.461-0.07-0.688l-2.808,2.808c-0.266,0.266-0.575,0.47-0.908,0.618
		c-0.017,0.008-0.032,0.019-0.049,0.026c-0.147,0.062-0.301,0.104-0.457,0.142c-0.037,0.009-0.071,0.025-0.108,0.033
		C16.404,18.979,16.204,19,16,19c-0.414,0-0.808-0.084-1.167-0.236C13.757,18.308,13,17.241,13,16c0-0.204,0.021-0.404,0.061-0.6
		c0.008-0.037,0.023-0.071,0.032-0.107c0.038-0.156,0.08-0.311,0.143-0.458c0.007-0.016,0.017-0.029,0.024-0.044
		c0.148-0.335,0.353-0.645,0.62-0.912l2.809-2.809C16.461,11.038,16.236,11,16,11C13.243,11,11,13.243,11,16z"/>
	<path d="M23,16c0,3.86-3.14,7-7,7s-7-3.14-7-7s3.14-7,7-7c0.823,0,1.61,0.15,2.345,0.413l1.525-1.525C18.696,7.325,17.387,7,16,7
		c-4.962,0-9,4.038-9,9s4.038,9,9,9s9-4.038,9-9c0-1.387-0.325-2.696-0.887-3.87l-1.525,1.525C22.85,14.39,23,15.177,23,16z"/>
	<path d="M25.599,10.644C26.488,12.23,27,14.055,27,16c0,6.065-4.935,11-11,11S5,22.065,5,16S9.935,5,16,5
		c1.945,0,3.77,0.512,5.356,1.401l1.454-1.454C20.827,3.721,18.499,3,16,3C8.832,3,3,8.832,3,16s5.832,13,13,13s13-5.832,13-13
		c0-2.499-0.721-4.827-1.947-6.81L25.599,10.644z"/>
</g>
</svg>
