<?xml version="1.0" encoding="iso-8859-1"?>
<!-- Generator: Adobe Illustrator 19.1.1, SVG Export Plug-In . SVG Version: 6.00 Build 0)  -->
<svg version="1.1" id="Layer_1" xmlns="http://www.w3.org/2000/svg" xmlns:xlink="http://www.w3.org/1999/xlink" x="0px" y="0px"
	 viewBox="0 0 32 32" style="enable-background:new 0 0 32 32;" xml:space="preserve">
<line style="fill:none;stroke:#000000;stroke-width:2;stroke-linecap:round;stroke-miterlimit:10;" x1="24" y1="19" x2="24" y2="25"/>
<path style="fill:none;stroke:#000000;stroke-width:2;stroke-linecap:round;stroke-miterlimit:10;" d="M16,25h-4c-0.55,0-1-0.45-1-1
	v-4c0-0.55,0.45-1,1-1h4c0.55,0,1,0.45,1,1v4C17,24.55,16.55,25,16,25z"/>
<path style="fill:none;stroke:#000000;stroke-width:2;stroke-linecap:round;stroke-miterlimit:10;" d="M18,13h-4c-0.55,0-1-0.45-1-1
	V8c0-0.55,0.45-1,1-1h4c0.55,0,1,0.45,1,1v4C19,12.55,18.55,13,18,13z"/>
<path style="fill:none;stroke:#000000;stroke-width:2;stroke-linecap:round;stroke-miterlimit:10;" d="M27,13h-4c-0.55,0-1-0.45-1-1
	V8c0-0.55,0.45-1,1-1h4c0.55,0,1,0.45,1,1v4C28,12.55,27.55,13,27,13z"/>
<path style="fill:none;stroke:#000000;stroke-width:2;stroke-linecap:round;stroke-miterlimit:10;" d="M8,25H5c-0.55,0-1-0.45-1-1
	v-4c0-0.55,0.45-1,1-1h3"/>
<path style="fill:none;stroke:#000000;stroke-width:2;stroke-linecap:round;stroke-miterlimit:10;" d="M20,25v-5c0-0.55,0.45-1,1-1
	h7v6.016"/>
<path style="fill:none;stroke:#000000;stroke-width:2;stroke-linecap:round;stroke-miterlimit:10;" d="M28,12v3.021
	C28,15.562,27.562,16,27.021,16H22"/>
<path style="fill:none;stroke:#000000;stroke-width:2;stroke-linecap:round;stroke-miterlimit:10;" d="M9,13H5c-0.55,0-1-0.45-1-1V8
	c0-0.55,0.45-1,1-1h4c0.55,0,1,0.45,1,1v4C10,12.55,9.55,13,9,13z"/>
<path style="fill:none;stroke:#000000;stroke-width:2;stroke-linecap:round;stroke-miterlimit:10;" d="M10,12v3.021
	C10,15.562,9.562,16,9.021,16H4"/>
</svg>
