<?xml version="1.0" encoding="iso-8859-1"?>
<!-- Generator: Adobe Illustrator 19.1.0, SVG Export Plug-In . SVG Version: 6.00 Build 0)  -->
<svg version="1.1" id="Layer_1" xmlns="http://www.w3.org/2000/svg" xmlns:xlink="http://www.w3.org/1999/xlink" x="0px" y="0px"
	 viewBox="0 0 32 32" style="enable-background:new 0 0 32 32;" xml:space="preserve">
<polyline style="fill:none;stroke:#000000;stroke-width:2;stroke-miterlimit:10;" points="17.324,19.815 21.609,24 24,24 "/>
<polyline style="fill:none;stroke:#000000;stroke-width:2;stroke-miterlimit:10;" points="25.081,12.996 27,9 29,8 "/>
<path style="fill:none;stroke:#000000;stroke-width:2;stroke-miterlimit:10;" d="M22,16c0,3.296,3,4.592,3,4.592s3-1.368,3-3.78
	C28,13.753,25,13,25,13h-6"/>
<path style="fill:none;stroke:#000000;stroke-width:2;stroke-miterlimit:10;" d="M13.787,20.37c1.74,1.903,5.214-0.911,2.983-3.16
	c-1.949-1.965-4.918-5.481-6.52-6.847c-1.103-0.94-2.413-0.054-2.156,1.192C8.31,12.599,11,23,11,23v1H6"/>
<polygon points="20,14 17.168,14 15.168,12 20,12 "/>
<path style="fill:none;stroke:#000000;stroke-width:2;stroke-miterlimit:10;" d="M9,13H4v0.181c0,0,1.041,5.819,6,5.819"/>
<path style="fill:none;stroke:#000000;stroke-width:2;stroke-miterlimit:10;" d="M17,20c4.304,0,5.326-1.723,5.326-1.723"/>
<path d="M11.694,16.515c0.36,1.405,0.741,2.89,1.088,4.234c0.1,0.111,0.193,0.214,0.268,0.295l1.476-1.35
	C13.821,18.925,12.951,17.943,11.694,16.515z"/>
</svg>
