<?xml version="1.0" encoding="iso-8859-1"?>
<!-- Generator: Adobe Illustrator 19.1.1, SVG Export Plug-In . SVG Version: 6.00 Build 0)  -->
<svg version="1.1" id="Layer_1" xmlns="http://www.w3.org/2000/svg" xmlns:xlink="http://www.w3.org/1999/xlink" x="0px" y="0px"
	 viewBox="0 0 32 32" style="enable-background:new 0 0 32 32;" xml:space="preserve">
<path style="fill:none;stroke:#000000;stroke-width:2;stroke-miterlimit:10;" d="M13,24H6V8c0-1.657,1.343-3,3-3h12
	c1.657,0,3,1.343,3,3v6"/>
<line style="fill:none;stroke:#000000;stroke-width:2;stroke-miterlimit:10;" x1="6" y1="9" x2="24" y2="9"/>
<path d="M6,26h3l1-3H5v2C5,25.552,5.448,26,6,26z"/>
<rect x="24" y="11" width="3" height="3"/>
<rect x="3" y="11" width="3" height="3"/>
<rect x="8" y="19" width="4" height="2"/>
<polygon style="fill:none;stroke:#000000;stroke-width:2;stroke-linejoin:round;stroke-miterlimit:10;" points="28,26 15,26 15,21 
	18,16 25,16 28,21 "/>
<path d="M15,28h3l1-3h-5v2C14,27.552,14.448,28,15,28z"/>
<path d="M25,28h3c0.552,0,1-0.448,1-1v-2h-5L25,28z"/>
<line style="fill:none;stroke:#000000;stroke-width:2;stroke-miterlimit:10;" x1="27" y1="20" x2="16" y2="20"/>
<circle cx="25" cy="23" r="1"/>
<circle cx="18" cy="23" r="1"/>
<g>
	<polygon points="16.268,15 16,15 16,9 14,9 14,15 6,15 6,17 15.068,17 	"/>
</g>
</svg>
