<?xml version="1.0" encoding="iso-8859-1"?>
<!-- Generator: Adobe Illustrator 19.1.0, SVG Export Plug-In . SVG Version: 6.00 Build 0)  -->
<svg version="1.1" id="Layer_1" xmlns="http://www.w3.org/2000/svg" xmlns:xlink="http://www.w3.org/1999/xlink" x="0px" y="0px"
	 viewBox="0 0 32 32" style="enable-background:new 0 0 32 32;" xml:space="preserve">
<rect x="3" y="7" style="fill:none;stroke:#000000;stroke-width:2;stroke-miterlimit:10;" width="26" height="16"/>
<line style="fill:none;stroke:#000000;stroke-width:2;stroke-miterlimit:10;" x1="16" y1="23" x2="16" y2="27"/>
<line style="fill:none;stroke:#000000;stroke-width:2;stroke-miterlimit:10;" x1="10" y1="27" x2="22" y2="27"/>
<path d="M23.374,12.22C23.352,12.238,21.06,14,16,14s-7.352-1.762-7.374-1.78l-1.259,1.554c0.056,0.045,2.014,0.949,3.171,3.795
	C10.895,18.447,11.775,19,12.723,19c0.798,0,1.543-0.399,1.985-1.062l0.243-0.365c0.499-0.748,1.598-0.748,2.097,0l0.243,0.365
	C17.735,18.601,18.479,19,19.277,19h0.01c0.944,0,1.823-0.549,2.181-1.422c1.176-2.867,3.109-3.758,3.165-3.804L23.374,12.22z
	 M13,17c-0.552,0-1-0.448-1-1c0-0.552,0.448-1,1-1s1,0.448,1,1C14,16.552,13.552,17,13,17z M19,17c-0.552,0-1-0.448-1-1
	c0-0.552,0.448-1,1-1s1,0.448,1,1C20,16.552,19.552,17,19,17z"/>
</svg>
