<?xml version="1.0" encoding="iso-8859-1"?>
<!-- Generator: Adobe Illustrator 19.1.1, SVG Export Plug-In . SVG Version: 6.00 Build 0)  -->
<svg version="1.1" id="Layer_1" xmlns="http://www.w3.org/2000/svg" xmlns:xlink="http://www.w3.org/1999/xlink" x="0px" y="0px"
	 viewBox="0 0 32 32" style="enable-background:new 0 0 32 32;" xml:space="preserve">
<rect x="17.728" y="17.728" transform="matrix(0.7071 -0.7071 0.7071 0.7071 -8.1545 19.6866)" style="fill:none;stroke:#000000;stroke-width:2;stroke-linecap:round;stroke-miterlimit:10;" width="3.917" height="3.917"/>
<path d="M18.057,21c0,0-1.003,2.387-1.385,2.77c-0.382,0.382-1.003,0.382-1.385,0c-0.382-0.382-0.382-1.003,0-1.385
	C15.669,22.003,18.057,21,18.057,21z"/>
<path d="M20.943,18.057c0,0,2.387-1.003,2.77-1.385c0.382-0.382,0.382-1.003,0-1.385c-0.382-0.382-1.003-0.382-1.385,0
	C21.946,15.669,20.943,18.057,20.943,18.057z"/>
<path style="fill:none;stroke:#000000;stroke-width:2;stroke-miterlimit:10;" d="M21.072,17.928c-1.53-1.53-1.53-4.01,0-5.54
	s6.925-1.385,6.925-1.385s0.145,5.395-1.385,6.925C25.082,19.458,22.601,19.458,21.072,17.928z"/>
<path style="fill:none;stroke:#000000;stroke-width:2;stroke-miterlimit:10;" d="M17.853,21.072c-1.53-1.53-4.01-1.53-5.54,0
	s-1.385,6.925-1.385,6.925s5.395,0.145,6.925-1.385C19.382,25.082,19.382,22.601,17.853,21.072z"/>
<path style="fill:none;stroke:#000000;stroke-width:2;stroke-miterlimit:10;" d="M11.957,23.26
	c-2.584,0.687-4.962,0.355-6.466-1.149c-2.868-2.868-1.473-8.914,3.116-13.503S19.242,2.622,22.11,5.491
	c1.505,1.505,1.836,3.885,1.148,6.47"/>
</svg>
