<?xml version="1.0" encoding="iso-8859-1"?>
<!-- Generator: Adobe Illustrator 21.0.0, SVG Export Plug-In . SVG Version: 6.00 Build 0)  -->
<svg version="1.1"  xmlns="http://www.w3.org/2000/svg" xmlns:xlink="http://www.w3.org/1999/xlink" x="0px" y="0px"
	 viewBox="0 0 32 32" style="enable-background:new 0 0 32 32;" xml:space="preserve">
<circle style="fill:none;stroke:#000000;stroke-width:2;stroke-linecap:square;stroke-linejoin:round;" cx="16" cy="16" r="12"/>
<path style="fill:none;stroke:#000000;stroke-width:2;stroke-linecap:round;stroke-linejoin:round;" d="M21.237,14.435
	C19.702,12,17.015,13.913,17.936,16c-1.901,0-3.157-1-6.179-1C9.909,15,8.985,16.205,9,18.241c0.023,3.098,3.177,4.957,6.25,4.957
	c2.961,0,8.75-2.224,8.75-9.806C22.933,13.391,21.481,14.612,21.237,14.435z"/>
<path style="fill:none;stroke:#000000;stroke-width:2;stroke-linecap:round;stroke-linejoin:round;" d="M8,15c0,0,0,0,1,1"/>
<path style="fill:none;stroke:#000000;stroke-width:2;stroke-linecap:round;stroke-linejoin:round;" d="M21.205,21.489
	c0,0,1.41,1.849,3.578,2.381"/>
<path style="fill:none;stroke:#000000;stroke-width:2;stroke-linecap:round;stroke-linejoin:round;" d="M10,21c0,0-1,2-3,2"/>
</svg>
