<?xml version="1.0" encoding="iso-8859-1"?>
<!-- Generator: Adobe Illustrator 19.1.0, SVG Export Plug-In . SVG Version: 6.00 Build 0)  -->
<svg version="1.1" id="Layer_1" xmlns="http://www.w3.org/2000/svg" xmlns:xlink="http://www.w3.org/1999/xlink" x="0px" y="0px"
	 viewBox="0 0 32 32" style="enable-background:new 0 0 32 32;" xml:space="preserve">
<path style="fill:none;stroke:#000000;stroke-width:2;stroke-miterlimit:10;" d="M24.568,9.728L25,8h0c1.105,0,2-0.895,2-2V5H14.297
	c-1.423,0-2.738,0.756-3.455,1.985l-5.297,9.081C5.188,16.678,5,17.373,5,18.081V27h8v-4c3.315-0.654,5-3,5-3h6.719
	c0.651,0,1.128-0.611,0.97-1.243l-0.121-0.485C25.234,16.937,24.034,16,22.658,16h-6.877c-0.459,0-0.859-0.312-0.97-0.757l-0.5-2
	C14.153,12.611,14.63,12,15.281,12h6.377C23.034,12,24.234,11.063,24.568,9.728z"/>
<polygon points="16,7 15,9 25,9 25,7 "/>
</svg>
