<?xml version="1.0" encoding="iso-8859-1"?>
<!-- Generator: Adobe Illustrator 19.1.1, SVG Export Plug-In . SVG Version: 6.00 Build 0)  -->
<svg version="1.1" id="Layer_1" xmlns="http://www.w3.org/2000/svg" xmlns:xlink="http://www.w3.org/1999/xlink" x="0px" y="0px"
	 viewBox="0 0 32 32" style="enable-background:new 0 0 32 32;" xml:space="preserve">
<path style="fill:none;stroke:#000000;stroke-width:2;stroke-miterlimit:10;" d="M7,25h18V6.182C25,4.977,24.052,4,22.882,4H9.118
	C7.948,4,7,4.977,7,6.182V25z"/>
<rect x="8" y="25" style="fill:none;stroke:#000000;stroke-width:2;stroke-miterlimit:10;" width="16" height="3"/>
<line style="fill:none;stroke:#000000;stroke-width:2;stroke-miterlimit:10;" x1="18" y1="22" x2="22" y2="22"/>
<line style="fill:none;stroke:#000000;stroke-width:2;stroke-miterlimit:10;" x1="10" y1="22" x2="12" y2="22"/>
<line style="fill:none;stroke:#000000;stroke-width:2;stroke-miterlimit:10;" x1="19" y1="9" x2="19" y2="11"/>
<line style="fill:none;stroke:#000000;stroke-width:2;stroke-miterlimit:10;" x1="13" y1="9" x2="13" y2="11"/>
<polyline style="fill:none;stroke:#000000;stroke-width:2;stroke-miterlimit:10;" points="16,9 16,12 15,12 "/>
<path style="fill:none;stroke:#000000;stroke-width:2;stroke-miterlimit:10;" d="M14,14c0,0.603,0.297,1,0.882,1H17
	c0.585,0,1-0.397,1-1"/>
<rect x="10" y="7" style="fill:none;stroke:#000000;stroke-width:2;stroke-miterlimit:10;" width="12" height="11"/>
</svg>
