<?xml version="1.0" encoding="iso-8859-1"?>
<!-- Generator: Adobe Illustrator 19.1.1, SVG Export Plug-In . SVG Version: 6.00 Build 0)  -->
<svg version="1.1" id="Layer_1" xmlns="http://www.w3.org/2000/svg" xmlns:xlink="http://www.w3.org/1999/xlink" x="0px" y="0px"
	 viewBox="0 0 32 32" style="enable-background:new 0 0 32 32;" xml:space="preserve">
<line style="fill:none;stroke:#000000;stroke-width:2;stroke-miterlimit:10;" x1="9" y1="16" x2="23" y2="16"/>
<path d="M14.8,14h2.5C16.7,11.2,18,5,18,5S14.3,7.8,14.8,14z"/>
<path d="M17.6,14H20c0-5.9,3-9,3-9S17.6,6.5,17.6,14z"/>
<path d="M25,7c-2.1,0.3-4.3,3.6-4.5,7H23C23,10.2,25,7,25,7z"/>
<path d="M14.3,14H12c0-5.9-3-7.3-3-7.3S14.3,6.8,14.3,14z"/>
<path d="M6,8c2.1,0.3,4.4,1.8,5.5,6H9C9,10.2,6,8,6,8z"/>
<path d="M13,6c0.6,0.2,1.5,1,1.8,1.9c-0.4,0.7-0.5,1.4-0.5,1.4s-0.2-0.5-0.8-1.1C13.4,7,13,6,13,6z"/>
<line style="fill:none;stroke:#000000;stroke-width:2;stroke-linejoin:round;stroke-miterlimit:10;" x1="16" y1="18" x2="16" y2="27"/>
<path style="fill:none;stroke:#000000;stroke-width:2;stroke-linejoin:round;stroke-miterlimit:10;" d="M20,18c0,4,3.5,8,3.5,8"/>
<path style="fill:none;stroke:#000000;stroke-width:2;stroke-linejoin:round;stroke-miterlimit:10;" d="M18,18c0,4,1.7,8.7,1.7,8.7"
	/>
<path style="fill:none;stroke:#000000;stroke-width:2;stroke-linejoin:round;stroke-miterlimit:10;" d="M22,18
	c0,4.7,4.833,6,4.833,6"/>
<path style="fill:none;stroke:#000000;stroke-width:2;stroke-linejoin:round;stroke-miterlimit:10;" d="M10,18c0,4.7-5,6-5,6"/>
<path style="fill:none;stroke:#000000;stroke-width:2;stroke-linejoin:round;stroke-miterlimit:10;" d="M12,18c0,4-3.5,8-3.5,8"/>
<path style="fill:none;stroke:#000000;stroke-width:2;stroke-linejoin:round;stroke-miterlimit:10;" d="M14,18c0,4-1.7,8.7-1.7,8.7"
	/>
</svg>
