<?xml version="1.0" encoding="iso-8859-1"?>
<!-- Generator: Adobe Illustrator 19.1.1, SVG Export Plug-In . SVG Version: 6.00 Build 0)  -->
<svg version="1.1" id="Layer_1" xmlns="http://www.w3.org/2000/svg" xmlns:xlink="http://www.w3.org/1999/xlink" x="0px" y="0px"
	 viewBox="-8 10 32 32" style="enable-background:new -8 10 32 32;" xml:space="preserve">
<g>
	<path d="M19.996,26.47c0-0.013,0.004-0.026,0.004-0.039h-0.006c-0.081-1.342-0.683-4.534-4.287-8.137
		c-4.764-4.764-8.675-4.306-8.879-4.278C6.719,14.034-4,16.048-4,28c0,1.773,0.213,3.29,0.385,4.509
		c0.308,2.186,0.419,3.272-0.394,4.086l1.414,1.414c0.835-0.834,2.166-0.693,4.445-0.375C3.075,37.806,4.462,38,6,38
		c12.018,0,13.968-10.726,13.995-10.897C19.999,27.066,20.016,26.838,19.996,26.47z M18.003,26.43H18c0,0.866-0.704,1.57-1.57,1.57
		c-0.865,0-1.569-0.704-1.567-1.561l0.015-0.139l-1.953-0.364C12.729,26.572,12.157,27,11.5,27c-0.827,0-1.5-0.673-1.5-1.5
		c0-0.101,0.015-0.21,0.046-0.344l-1.201-1.202C8.712,23.985,8.602,24,8.5,24C7.673,24,7,23.327,7,22.5
		c0-0.67,0.456-1.262,1.109-1.437l-0.37-1.959l-0.177,0.022C6.701,19.126,6,18.425,6,17.563S6.701,16,7.562,16v-0.001
		c0.996,0.07,3.594,0.571,6.731,3.708C17.427,22.841,17.928,25.464,18.003,26.43z M6,36c-1.398,0-2.712-0.185-3.872-0.347
		c-0.998-0.14-1.94-0.271-2.813-0.271c-0.249,0-0.492,0.011-0.729,0.035c0.092-0.976-0.059-2.042-0.22-3.187
		C-1.806,31.013-2,29.634-2,28c0-6.362,3.393-9.427,6.042-10.853C4.026,17.285,4,17.421,4,17.563c0,1.243,0.64,2.339,1.607,2.977
		C5.221,21.104,5,21.783,5,22.5c0,1.771,1.322,3.239,3.031,3.469C8.261,27.678,9.729,29,11.5,29c0.719,0,1.394-0.217,1.956-0.598
		C14.096,29.364,15.189,30,16.43,30c0.149,0,0.291-0.026,0.436-0.044C15.447,32.615,12.39,36,6,36z"/>
	<ellipse transform="matrix(0.7071 0.7071 -0.7071 0.7071 18.6567 -3.0416)" cx="13" cy="21" rx="2.666" ry="0.943"/>
</g>
</svg>
