<?xml version="1.0" encoding="iso-8859-1"?>
<!-- Generator: Adobe Illustrator 19.2.1, SVG Export Plug-In . SVG Version: 6.00 Build 0)  -->
<svg version="1.1" id="Layer_1" xmlns="http://www.w3.org/2000/svg" xmlns:xlink="http://www.w3.org/1999/xlink" x="0px" y="0px"
	 viewBox="0 0 32 32" style="enable-background:new 0 0 32 32;" xml:space="preserve">
<polyline style="fill:none;stroke:#000000;stroke-width:2;stroke-miterlimit:10;" points="3,18 3,25 29,25 29,18 "/>
<rect x="27" y="20" transform="matrix(-1.836970e-16 1 -1 -1.836970e-16 49 -7)" width="2" height="2"/>
<rect x="23" y="20" transform="matrix(-1.836970e-16 1 -1 -1.836970e-16 45 -3)" width="2" height="2"/>
<rect x="19" y="20" transform="matrix(-1.836970e-16 1 -1 -1.836970e-16 41 1)" width="2" height="2"/>
<rect x="11" y="20" transform="matrix(-1.836970e-16 1 -1 -1.836970e-16 33 9)" width="2" height="2"/>
<rect x="7" y="20" transform="matrix(-1.836970e-16 1 -1 -1.836970e-16 29 13)" width="2" height="2"/>
<rect x="3" y="20" transform="matrix(-1.836970e-16 1 -1 -1.836970e-16 25 17)" width="2" height="2"/>
<rect x="15" y="20" transform="matrix(-1.836970e-16 1 -1 -1.836970e-16 37 5)" width="2" height="2"/>
<path style="fill:none;stroke:#000000;stroke-width:2;stroke-miterlimit:10;" d="M22.5,15L22.5,15c-0.828,0-1.5-0.672-1.5-1.5v-4
	C21,8.672,21.672,8,22.5,8h0C23.328,8,24,8.672,24,9.5v4C24,14.328,23.328,15,22.5,15z"/>
<path style="fill:none;stroke:#000000;stroke-width:2;stroke-miterlimit:10;" d="M6,8h4v0.5c0,0-2,4-2,7.5"/>
<path id="XMLID_19_" style="fill:none;stroke:#000000;stroke-width:2;stroke-miterlimit:10;" d="M14,10V9.5
	C14,8.672,14.672,8,15.5,8h0C16.328,8,17,8.672,17,9.5v0.787c0,0.796-0.317,1.56-0.88,2.122L14,14.528V15h4"/>
</svg>
