<?xml version="1.0" encoding="utf-8"?>
<!-- Generator: Adobe Illustrator 18.1.1, SVG Export Plug-In . SVG Version: 6.00 Build 0)  -->
<svg version="1.1" id="Layer_1" xmlns="http://www.w3.org/2000/svg" xmlns:xlink="http://www.w3.org/1999/xlink" x="0px" y="0px"
	 viewBox="0 0 32 32" enable-background="new 0 0 32 32" xml:space="preserve">
<rect x="5" y="8" fill="none" stroke="#000000" stroke-width="2" stroke-miterlimit="10" width="22" height="14"/>
<line fill="none" stroke="#000000" stroke-width="2" stroke-linejoin="round" stroke-miterlimit="10" x1="10" y1="25" x2="22" y2="25"/>
<g>
	<g>
		<polygon points="14.1,12 13.7,14.1 11.4,14.1 11.8,12 10,12 9,18 10.8,18 11.2,15.6 13.5,15.6 13.1,18 14.8,18 15.8,12 		"/>
		<path d="M20.7,12h-3.4l-0.2,1.4h3.3c0.6,0,0.9,0.2,0.7,0.9l-0.2,1.3c-0.1,0.6-0.4,1-1.1,1h-1.5l0.4-2.5H17L16.3,18h3.6
			c1.8,0,2.5-0.8,2.8-2.4l0.2-1.3C23.2,12.6,22.5,12,20.7,12z"/>
	</g>
</g>
</svg>
