<?xml version="1.0" encoding="iso-8859-1"?>
<!-- Generator: Adobe Illustrator 20.1.0, SVG Export Plug-In . SVG Version: 6.00 Build 0)  -->
<svg version="1.1"  xmlns="http://www.w3.org/2000/svg" xmlns:xlink="http://www.w3.org/1999/xlink" x="0px" y="0px"
	 viewBox="0 0 32 32" style="enable-background:new 0 0 32 32;" xml:space="preserve">
<path d="M16,28.156l-0.501-0.291C14.988,27.569,3,20.531,3,13c0-3.86,3.14-7,7-7c2.543,0,4.774,1.363,6,3.397
	C17.226,7.363,19.457,6,22,6c3.859,0,7,3.14,7,7c0,7.531-11.988,14.569-12.499,14.865L16,28.156z M10,8c-2.757,0-5,2.243-5,5
	c0,5.606,8.784,11.445,11,12.829C18.216,24.445,27,18.606,27,13c0-2.757-2.243-5-5-5s-5,2.243-5,5h-2C15,10.243,12.757,8,10,8z"/>
</svg>
