<?xml version="1.0" encoding="iso-8859-1"?>
<!-- Generator: Adobe Illustrator 21.0.0, SVG Export Plug-In . SVG Version: 6.00 Build 0)  -->
<svg version="1.1" 
	 xmlns="http://www.w3.org/2000/svg" xmlns:xlink="http://www.w3.org/1999/xlink" x="0px" y="0px" viewBox="0 0 32 32"
	 style="enable-background:new 0 0 32 32;" xml:space="preserve">
<polyline style="fill:none;stroke:#000000;stroke-width:2;stroke-miterlimit:10;" points="3,16 9,16 10,17 12,12 15,19 17,14 18,16 
	21,16 "/>
<circle cx="21" cy="16" r="2"/>
<path d="M21.217,5C19.27,5,17.42,5.682,16,6.899C14.579,5.682,12.729,5,10.782,5C6.491,5,3,8.301,3,12.359
	c0,0.22,0.022,0.428,0.036,0.641h2.002C5.02,12.788,5,12.578,5,12.359C5,9.404,7.594,7,10.782,7c1.458,0,2.849,0.504,3.916,1.418
	L16,9.533l1.301-1.115C18.368,7.504,19.759,7,21.217,7C24.406,7,27,9.404,27,12.359c0,5.123-4.827,8.158-8.706,10.598
	c-0.884,0.556-1.663,1.046-2.294,1.511c-0.632-0.466-1.411-0.956-2.294-1.511c-1.81-1.138-3.823-2.408-5.459-3.957H5.529
	c1.983,2.412,4.788,4.188,7.112,5.65c0.974,0.612,1.809,1.138,2.402,1.603c0,0,0.949,0.741,0.956,0.747
	c0.007-0.006,0.956-0.747,0.956-0.747c0.593-0.465,1.429-0.991,2.402-1.603C23.427,22.091,29,18.587,29,12.359
	C29,8.301,25.509,5,21.217,5z"/>
</svg>
