<?xml version="1.0" encoding="iso-8859-1"?>
<!-- Generator: Adobe Illustrator 19.1.0, SVG Export Plug-In . SVG Version: 6.00 Build 0)  -->
<svg version="1.1" id="Layer_1" xmlns="http://www.w3.org/2000/svg" xmlns:xlink="http://www.w3.org/1999/xlink" x="0px" y="0px"
	 viewBox="0 0 32 32" style="enable-background:new 0 0 32 32;" xml:space="preserve">
<path id="XMLID_20_" style="fill:none;stroke:#000000;stroke-width:2;stroke-miterlimit:10;" d="M7,24c0,0.984,1.328,2,3,2s3-1,3-2"
	/>
<path id="XMLID_19_" style="fill:none;stroke:#000000;stroke-width:2;stroke-miterlimit:10;" d="M13,24c0,0.984,1.328,2,3,2s3-1,3-2
	"/>
<path id="XMLID_18_" style="fill:none;stroke:#000000;stroke-width:2;stroke-miterlimit:10;" d="M19,24c0,0.984,1.328,2,3,2s3-1,3-2
	"/>
<path id="XMLID_17_" style="fill:none;stroke:#000000;stroke-width:2;stroke-miterlimit:10;" d="M25,24c0,0.984,1.328,2,3,2s3-1,3-2
	"/>
<path id="XMLID_16_" style="fill:none;stroke:#000000;stroke-width:2;stroke-miterlimit:10;" d="M1,24c0,0.984,1.328,2,3,2s3-1,3-2"
	/>
<circle cx="25" cy="20" r="1"/>
<path style="fill:none;stroke:#000000;stroke-width:2;stroke-miterlimit:10;" d="M25,25c0.928-0.441,4-2.4,4-8h-7l-2,3H9l-2-4H3v4
	l1,1c0,0,1.009,3.414,2.298,4.702"/>
<path style="fill:none;stroke:#000000;stroke-width:2;stroke-miterlimit:10;" d="M19,7L9,9c0,0,3,3.195,3,8
	c2.156-1.049,8.522-3,13-3C23.769,8.12,19,7,19,7z"/>
<line style="fill:none;stroke:#000000;stroke-width:2;stroke-miterlimit:10;" x1="11" y1="6" x2="17" y2="5"/>
</svg>
