<?xml version="1.0" encoding="iso-8859-1"?>
<!-- Generator: Adobe Illustrator 19.1.1, SVG Export Plug-In . SVG Version: 6.00 Build 0)  -->
<svg version="1.1" id="Layer_1" xmlns="http://www.w3.org/2000/svg" xmlns:xlink="http://www.w3.org/1999/xlink" x="0px" y="0px"
	 viewBox="-7 9 32 32" style="enable-background:new -7 9 32 32;" xml:space="preserve">
<path d="M9,30.999c-2.756,0-4.999-2.242-4.999-4.999c0-2.756,2.243-4.999,4.999-4.999c2.757,0,4.999,2.243,4.999,4.999
	C13.999,28.757,11.757,30.999,9,30.999z M9,23.001c-1.654,0-2.999,1.345-2.999,2.999c0,1.653,1.345,2.999,2.999,2.999
	c1.653,0,2.999-1.346,2.999-2.999C11.999,24.346,10.653,23.001,9,23.001z"/>
<rect x="5.87" y="19.929" width="2" height="1.856"/>
<rect x="10.13" y="30.215" width="2" height="1.856"/>
<rect x="13.143" y="22.942" width="2" height="1.856"/>
<rect x="2.857" y="27.202" width="2" height="1.855"/>
<rect x="10.13" y="19.929" width="2" height="1.856"/>
<rect x="5.87" y="30.215" width="2" height="1.856"/>
<rect x="13.143" y="27.202" width="2" height="1.855"/>
<rect x="2.857" y="22.942" width="2" height="1.856"/>
<polygon style="fill:none;stroke:#000000;stroke-width:2;stroke-miterlimit:10;" points="-2,19 -2,36 20,36 20,19 9,14 "/>
</svg>
