<?xml version="1.0" encoding="iso-8859-1"?>
<!-- Generator: Adobe Illustrator 19.1.1, SVG Export Plug-In . SVG Version: 6.00 Build 0)  -->
<svg version="1.1" id="Layer_1" xmlns="http://www.w3.org/2000/svg" xmlns:xlink="http://www.w3.org/1999/xlink" x="0px" y="0px"
	 viewBox="0 0 32 32" style="enable-background:new 0 0 32 32;" xml:space="preserve">
<line style="fill:none;stroke:#000000;stroke-width:2;stroke-miterlimit:10;" x1="28" y1="16" x2="23" y2="16.025"/>
<line style="fill:none;stroke:#000000;stroke-width:2;stroke-miterlimit:10;" x1="20" y1="16" x2="4" y2="16"/>
<line style="fill:none;stroke:#000000;stroke-width:2;stroke-miterlimit:10;" x1="9" y1="24" x2="4" y2="24"/>
<line style="fill:none;stroke:#000000;stroke-width:2;stroke-miterlimit:10;" x1="28" y1="8" x2="15" y2="8.025"/>
<line style="fill:none;stroke:#000000;stroke-width:2;stroke-miterlimit:10;" x1="12" y1="8" x2="4" y2="8"/>
<line style="fill:none;stroke:#000000;stroke-width:2;stroke-miterlimit:10;" x1="28" y1="24" x2="12" y2="24.025"/>
<path style="fill:none;stroke:#000000;stroke-width:2;stroke-miterlimit:10;" d="M13.975,11.025L13.025,11
	C12.459,11,12,10.541,12,9.975V6.025C12,5.459,12.459,5,13.025,5l0.951,0.025C14.541,5.025,15,5.483,15,6.049V10
	C15,10.566,14.541,11.025,13.975,11.025z"/>
<path style="fill:none;stroke:#000000;stroke-width:2;stroke-miterlimit:10;" d="M21.975,19.025L21.025,19
	C20.459,19,20,18.541,20,17.975v-3.951C20,13.459,20.459,13,21.025,13l0.951,0.025c0.566,0,1.025,0.459,1.025,1.025V18
	C23,18.566,22.541,19.025,21.975,19.025z"/>
<path style="fill:none;stroke:#000000;stroke-width:2;stroke-miterlimit:10;" d="M9.975,27.025L9.025,27C8.459,27,8,26.541,8,25.975
	v-3.951C8,21.459,8.459,21,9.025,21l0.951,0.025c0.566,0,1.025,0.459,1.025,1.025V26C11,26.566,10.541,27.025,9.975,27.025z"/>
</svg>
