<?xml version="1.0" encoding="iso-8859-1"?>
<!-- Generator: Adobe Illustrator 19.1.1, SVG Export Plug-In . SVG Version: 6.00 Build 0)  -->
<svg version="1.1" id="Layer_1" xmlns="http://www.w3.org/2000/svg" xmlns:xlink="http://www.w3.org/1999/xlink" x="0px" y="0px"
	 viewBox="0 0 32 32" style="enable-background:new 0 0 32 32;" xml:space="preserve">
<path d="M21,13.719v2.094c1.873,0.691,3,1.72,3,2.687c0,1.655-3.285,3.5-8,3.5s-8-1.845-8-3.5c0-0.967,1.127-1.996,3-2.687v-2.094
	c-3.008,0.938-5,2.706-5,4.781c0,3.084,4.393,5.5,10,5.5s10-2.416,10-5.5C26,16.426,24.008,14.657,21,13.719z"/>
<path style="fill:none;stroke:#000000;stroke-width:2;stroke-miterlimit:10;" d="M13.234,18.642C13.53,17.685,14,15.874,14,14.429
	c0-2.076-2-4.121-2-5.822c0-2.143,0.962-4.068,0.962-4.068"/>
<path style="fill:none;stroke:#000000;stroke-width:2;stroke-miterlimit:10;" d="M17,19.827c0,0,1-2.823,1-5.047
	c0-2.58-2-4.823-2-6.58"/>
<path d="M25.918,22c-0.576,1.984-4.483,4-9.918,4s-9.342-2.016-9.918-4H4.045C4.504,25.401,9.584,28,16,28s11.496-2.599,11.955-6
	H25.918z"/>
</svg>
