<?xml version="1.0" encoding="iso-8859-1"?>
<!-- Generator: Adobe Illustrator 19.1.1, SVG Export Plug-In . SVG Version: 6.00 Build 0)  -->
<svg version="1.1" id="Layer_1" xmlns="http://www.w3.org/2000/svg" xmlns:xlink="http://www.w3.org/1999/xlink" x="0px" y="0px"
	 viewBox="0 0 32 32" style="enable-background:new 0 0 32 32;" xml:space="preserve">
<path d="M26,15.42c0,0-0.9,2-2,2.3c0.2-1.6-0.1-2.5-0.1-2.5s-0.1-0.3,0.8-0.2C25.8,15.22,26,15.42,26,15.42z"/>
<path d="M25,14.7c0,0-0.9,2-2,2.3c0.2-1.6-0.1-2.5-0.1-2.5s-0.1-0.3,0.8-0.2C24.9,14.5,25,14.7,25,14.7z"/>
<path d="M24,14.42c0,0-0.9,2-2,2.3c0.2-1.6-0.1-2.5-0.1-2.5s-0.1-0.3,0.8-0.2C23.8,14.22,24,14.42,24,14.42z"/>
<path d="M23.2,14.4c0,0-1.1,1.3-2.2,1.6c0.2-1.6,0.2-1.8,0.2-1.8S21.1,13.9,22,14C23.1,14.2,23.2,14.4,23.2,14.4z"/>
<path d="M23.34,20.5c0,0,0.6-1,0.2-2.5c-0.6,0.8-1.5,1.4-1.5,1.4s-0.2,0.2,0.3,0.6C23.14,20.6,23.34,20.5,23.34,20.5z"/>
<path d="M21.464,20c0,0,0.7-0.9,0.5-2.5c-0.7,0.7-1.7,1.2-1.7,1.2s-0.3,0.1,0.3,0.6C21.264,20,21.464,20,21.464,20z"/>
<path d="M20.275,19.5c0,0,0.7-0.9,0.5-2.5c-0.7,0.7-1.7,1.2-1.7,1.2s-0.3,0.1,0.3,0.6C20.075,19.5,20.275,19.5,20.275,19.5z"/>
<path d="M18.464,18.996c0,0,0.7-0.9,0.5-2.5c-0.7,0.7-1.7,1.2-1.7,1.2s-0.3,0.1,0.3,0.6C18.264,19.096,18.464,18.996,18.464,18.996z
	"/>
<polygon points="15,10 16,12 19,10 "/>
<path style="fill:none;stroke:#000000;stroke-width:2;stroke-miterlimit:10;" d="M8,6c0,0,5.406,0.406,7,2"/>
<path style="fill:none;stroke:#000000;stroke-width:2;stroke-miterlimit:10;" d="M4,16c0,0,5,0.125,5-3"/>
<path style="fill:none;stroke:#000000;stroke-width:2;stroke-miterlimit:10;" d="M4,19c0,0,3.75,0,5-1"/>
<path style="fill:none;stroke:#000000;stroke-width:2;stroke-miterlimit:10;" d="M4,22c0,0,3.375-0.125,5-1"/>
<path style="fill:none;stroke:#000000;stroke-width:2;stroke-miterlimit:10;" d="M4,25c0,0,3.375-0.125,5-1"/>
<path style="fill:none;stroke:#000000;stroke-width:2;stroke-miterlimit:10;" d="M19,26c-2.688,0-3-2.188-3-5l4.527,1.509
	c0.845,0.282,1.769-0.101,2.167-0.898L23,21c0,0-7-2.875-7-5c0-0.5,0.187-2,2-2c1.648,0,4.597,0.84,6.418,1.446
	c0.895,0.298,1.864-0.151,2.214-1.027L28,11l-7-1c0,0-2.063-2-5-2c-2.938,0-4,1-4,1H5c0,0,1.687,4,7,4"/>
</svg>
