<?xml version="1.0" encoding="iso-8859-1"?>
<!-- Generator: Adobe Illustrator 22.1.0, SVG Export Plug-In . SVG Version: 6.00 Build 0)  -->
<svg version="1.1" xmlns="http://www.w3.org/2000/svg" xmlns:xlink="http://www.w3.org/1999/xlink" x="0px" y="0px"
	 viewBox="0 0 32 32" style="enable-background:new 0 0 32 32;" xml:space="preserve">
<g id="Layer_1">
</g>
<g id="Layer_2">
	<circle style="fill:none;stroke:#000000;stroke-width:2;stroke-miterlimit:10;" cx="21.5" cy="21.5" r="5.5"/>
	<circle cx="21.5" cy="19.5" r="1.5"/>
	<path d="M19,23.25c0-1.381,1.119-2.5,2.5-2.5c1.381,0,2.5,1.119,2.5,2.5V24h-5L19,23.25z"/>
	<line style="fill:none;stroke:#000000;stroke-width:2;stroke-miterlimit:10;" x1="25.375" y1="25.375" x2="31" y2="31"/>
	<line style="fill:none;stroke:#000000;stroke-width:2;stroke-miterlimit:10;" x1="6.224" y1="11" x2="25.776" y2="11"/>
	<path d="M13,21.5c0-0.671,0.086-1.321,0.234-1.948c-0.105-0.797-0.184-1.641-0.215-2.552h1.283c0.472-0.753,1.055-1.43,1.732-2
		h-3.015C13.204,9.551,14.873,6,16,6c1.013,0,2.461,2.877,2.879,7.418c0.628-0.204,1.288-0.333,1.97-0.385
		c-0.247-2.509-0.805-4.84-1.67-6.506c3.398,1.144,5.963,4.069,6.628,7.658c0.831,0.491,1.574,1.114,2.193,1.849
		C27.999,16.022,28,16.011,28,16c0-6.617-5.383-12-12-12S4,9.383,4,16s5.383,12,12,12c0.011,0,0.022-0.001,0.033-0.001
		C14.181,26.438,13,24.106,13,21.5z M6.841,20c-0.41-0.935-0.685-1.942-0.79-3h4.967c0.033,1.019,0.118,2.027,0.251,3H6.841z
		 M8.019,22h3.606c0.295,1.32,0.695,2.507,1.197,3.473C10.888,24.823,9.223,23.597,8.019,22z M11.018,15H6.051
		c0.395-3.962,3.115-7.243,6.771-8.473C11.733,8.622,11.122,11.767,11.018,15z"/>
</g>
</svg>
