<?xml version="1.0" encoding="iso-8859-1"?>
<!-- Generator: Adobe Illustrator 19.1.0, SVG Export Plug-In . SVG Version: 6.00 Build 0)  -->
<svg version="1.1" id="Layer_1" xmlns="http://www.w3.org/2000/svg" xmlns:xlink="http://www.w3.org/1999/xlink" x="0px" y="0px"
	 viewBox="0 0 32 32" style="enable-background:new 0 0 32 32;" xml:space="preserve">
<circle cx="15" cy="15" r="2"/>
<line style="fill:none;stroke:#000000;stroke-width:2;stroke-miterlimit:10;" x1="15" y1="15" x2="20.5" y2="9.5"/>
<path d="M18.5,24c0-0.233,0.036-0.488,0.084-0.749C17.485,23.73,16.274,24,15,24c-4.962,0-9-4.038-9-9s4.038-9,9-9
	c4.535,0,8.287,3.375,8.902,7.743L24,13.601l1.907,2.76C25.962,15.914,26,15.462,26,15c0-6.065-4.935-11-11-11S4,8.935,4,15
	s4.935,11,11,11c1.291,0,2.524-0.235,3.676-0.645C18.565,24.921,18.5,24.468,18.5,24z"/>
<path style="fill:none;stroke:#000000;stroke-width:2;stroke-miterlimit:10;" d="M27,24c0,1.657-1.343,3-3,3s-3-1.343-3-3s3-6,3-6
	S27,22.343,27,24z"/>
<g>
	<path d="M18.886,11.892l1.432-1.432C19.033,8.957,17.128,8,15,8c-3.86,0-7,3.14-7,7c0,0.766,0.139,1.545,0.412,2.317l1.886-0.667
		C10.1,16.093,10,15.538,10,15c0-2.757,2.243-5,5-5C16.577,10,17.968,10.748,18.886,11.892z"/>
	<path d="M19.83,13.776C19.931,14.17,20,14.575,20,15c0,0.538-0.1,1.093-0.297,1.65l1.886,0.667C21.861,16.545,22,15.766,22,15
		c0-0.997-0.213-1.944-0.59-2.804L19.83,13.776z"/>
</g>
</svg>
