<?xml version="1.0" encoding="iso-8859-1"?>
<!-- Generator: Adobe Illustrator 18.1.1, SVG Export Plug-In . SVG Version: 6.00 Build 0)  -->
<svg version="1.1" id="Layer_1" xmlns="http://www.w3.org/2000/svg" xmlns:xlink="http://www.w3.org/1999/xlink" x="0px" y="0px"
	 viewBox="0 0 32 32" style="enable-background:new 0 0 32 32;" xml:space="preserve">
<polygon style="fill:none;stroke:#000000;stroke-width:2;stroke-linecap:round;stroke-miterlimit:10;" points="29,18.125 3,10.1 
	3,10 29,10 29,10.1 26.996,12.058 29,17.9 "/>
<path style="fill:none;stroke:#000000;stroke-width:2;stroke-miterlimit:10;" d="M8,18c0,1.086,0.914,2,2,2s2-0.914,2-2
	s-0.914-2-2-2S8,16.914,8,18z"/>
<polyline style="fill:none;stroke:#000000;stroke-width:2;stroke-miterlimit:10;" points="7,24 12,24 14.5,21 20,21 28,25 "/>
<polygon points="16,16.737 14,16.16 14,21 16,21 "/>
<polygon points="20,17.869 18,17.292 18,21 20,21 "/>
</svg>
