<?xml version="1.0" encoding="utf-8"?>
<!-- Generator: Adobe Illustrator 18.1.1, SVG Export Plug-In . SVG Version: 6.00 Build 0)  -->
<svg version="1.1" id="Layer_1" xmlns="http://www.w3.org/2000/svg" xmlns:xlink="http://www.w3.org/1999/xlink" x="0px" y="0px"
	 viewBox="0 0 32 32" enable-background="new 0 0 32 32" xml:space="preserve">
<polyline fill="none" stroke="#000000" stroke-width="2" stroke-miterlimit="10" points="6,11 6,27 26,27 26,11 "/>
<polyline fill="none" stroke="#000000" stroke-width="2" stroke-miterlimit="10" points="4.5,12.4 16,5.2 27.5,12.4 "/>
<line fill="none" stroke="#000000" stroke-width="2" stroke-miterlimit="10" x1="22" y1="24" x2="22" y2="22"/>
<line fill="none" stroke="#000000" stroke-width="2" stroke-miterlimit="10" x1="10" y1="24" x2="10" y2="22"/>
<path fill="none" stroke="#000000" stroke-width="2" stroke-miterlimit="10" d="M21,16v-2c0-0.6-0.4-1-1-1h-8c-0.6,0-1,0.4-1,1v2"/>
<path fill="none" stroke="#000000" stroke-width="2" stroke-miterlimit="10" d="M19,17.5V18h-6v-0.5c0-0.8-0.7-1.5-1.5-1.5h0
	c-0.8,0-1.5,0.7-1.5,1.5V22h12v-4.5c0-0.8-0.7-1.5-1.5-1.5h0C19.7,16,19,16.7,19,17.5z"/>
</svg>
