<?xml version="1.0" encoding="iso-8859-1"?>
<!-- Generator: Adobe Illustrator 19.1.1, SVG Export Plug-In . SVG Version: 6.00 Build 0)  -->
<svg version="1.1" id="Layer_1" xmlns="http://www.w3.org/2000/svg" xmlns:xlink="http://www.w3.org/1999/xlink" x="0px" y="0px"
	 viewBox="0 0 32 32" style="enable-background:new 0 0 32 32;" xml:space="preserve">
<line style="fill:none;stroke:#000000;stroke-width:2;stroke-miterlimit:10;" x1="3" y1="3" x2="29" y2="29"/>
<g>
	<path d="M17.573,21.815C17.066,21.932,16.541,22,16,22c-3.859,0-7-3.14-7-7c0-0.531,0.073-1.055,0.19-1.567L6.678,10.92
		c-3.206,1.972-5.273,4.245-5.423,4.413L0.658,16l0.597,0.667c0.258,0.288,6.172,6.773,13.806,7.283C15.37,23.983,15.683,24,16,24
		s0.63-0.017,0.939-0.05c0.823-0.055,1.621-0.191,2.4-0.369L17.573,21.815z M3.402,15.999c0.748-0.723,2.099-1.924,3.853-3.063
		C7.096,13.61,7,14.3,7,15c0,1.737,0.503,3.354,1.358,4.731C6.069,18.42,4.301,16.865,3.402,15.999z"/>
	<path d="M16,12c-1.475,0-2.694,1.066-2.946,2.468l3.479,3.479C17.934,17.694,19,16.475,19,15C19,13.343,17.657,12,16,12z"/>
	<path d="M30.745,15.333C30.477,15.034,24.086,8,16,8c-2.758,0-5.31,0.825-7.498,1.916l1.501,1.501C11.811,10.59,13.851,10,16,10
		c2.151,0,4.196,0.594,6.009,1.425C22.652,12.505,23,13.734,23,15c0,2.548-1.373,4.776-3.414,6l1.928,1.928
		c5.303-1.967,9.028-6.035,9.231-6.261L31.342,16L30.745,15.333z M23.637,19.739C24.495,18.361,25,16.74,25,15
		c0-0.7-0.1-1.388-0.259-2.061c1.754,1.139,3.107,2.34,3.856,3.062C27.699,16.869,25.93,18.427,23.637,19.739z"/>
</g>
</svg>
