<?xml version="1.0" encoding="iso-8859-1"?>
<!-- Generator: Adobe Illustrator 22.0.1, SVG Export Plug-In . SVG Version: 6.00 Build 0)  -->
<svg version="1.1" id="&#x421;&#x43B;&#x43E;&#x439;_1"
	 xmlns="http://www.w3.org/2000/svg" xmlns:xlink="http://www.w3.org/1999/xlink" x="0px" y="0px" viewBox="0 0 32 32"
	 style="enable-background:new 0 0 32 32;" xml:space="preserve">
<g>
	<path style="fill:none;stroke:#000000;stroke-width:2;stroke-miterlimit:10;" d="M22,29H10c-1.105,0-2-0.895-2-2V5
		c0-1.105,0.895-2,2-2h12c1.105,0,2,0.895,2,2v22C24,28.105,23.105,29,22,29z"/>
	<rect x="11" y="6" width="2" height="2"/>
	<rect x="15" y="6" width="2" height="2"/>
	<rect x="19" y="6" width="2" height="2"/>
	<rect x="11" y="10" width="2" height="2"/>
	<rect x="15" y="10" width="2" height="2"/>
	<rect x="19" y="10" width="2" height="2"/>
	<rect x="11" y="14" width="2" height="2"/>
	<rect x="15" y="14" width="2" height="2"/>
	<rect x="19" y="14" width="2" height="2"/>
	<rect x="11" y="18" width="2" height="2"/>
	<rect x="15" y="18" width="2" height="2"/>
	<rect x="19" y="18" width="2" height="2"/>
	<rect x="11" y="24" width="2" height="2"/>
	<rect x="15" y="24" width="2" height="2"/>
	<rect x="19" y="24" width="2" height="2"/>
</g>
</svg>
