<?xml version="1.0" encoding="utf-8"?>
<!-- Generator: Adobe Illustrator 18.1.1, SVG Export Plug-In . SVG Version: 6.00 Build 0)  -->
<svg version="1.1" id="Layer_1" xmlns="http://www.w3.org/2000/svg" xmlns:xlink="http://www.w3.org/1999/xlink" x="0px" y="0px"
	 viewBox="0 0 32 32" enable-background="new 0 0 32 32" xml:space="preserve">
<path fill="none" stroke="#000000" stroke-width="2" stroke-miterlimit="10" d="M24.6,12.3h-0.2c-0.1-1-0.3-4.7-1.2-5.9
	C20.1,3.9,16,4,16,4s-4.1-0.1-7.2,2.4c-0.9,1.2-1.2,4.9-1.2,5.9H7.4c-0.2,0-0.4,0.2-0.4,0.4l0.2,4.8c0,0.2,0.2,0.4,0.4,0.4h0.3
	l0,0.1c0,0,1.1,5,1.6,5.8c0.6,1.1,2.2,3.1,3.5,3.8c0.5,0.3,2,0.3,3,0.3c1.1,0,2.5-0.1,3-0.3c1.4-0.7,2.9-2.7,3.5-3.8
	C23,23,24.1,18,24.1,18l0-0.1h0.3c0.2,0,0.4-0.2,0.4-0.4l0.2-4.8C25,12.5,24.8,12.3,24.6,12.3z"/>
<polygon fill="none" stroke="#000000" stroke-width="2" stroke-miterlimit="10" points="14,24 13,24.5 12.9,24.5 12,21 10.5,18 
	10,16 11,14 11,9 13.8,7.6 14.8,12 17.2,12 18.2,7.6 21,9 21,14 22,16 21.5,18 20,21 19.1,24.5 19,24.5 18,24 "/>
<line fill="none" stroke="#000000" stroke-width="2" stroke-miterlimit="10" x1="17" y1="17" x2="21" y2="17"/>
<line fill="none" stroke="#000000" stroke-width="2" stroke-miterlimit="10" x1="11" y1="17" x2="15" y2="17"/>
</svg>
