<?xml version="1.0" encoding="iso-8859-1"?>
<!-- Generator: Adobe Illustrator 19.1.1, SVG Export Plug-In . SVG Version: 6.00 Build 0)  -->
<svg version="1.1" id="Layer_1" xmlns="http://www.w3.org/2000/svg" xmlns:xlink="http://www.w3.org/1999/xlink" x="0px" y="0px"
	 viewBox="0 0 32 32" style="enable-background:new 0 0 32 32;" xml:space="preserve">
<circle style="fill:none;stroke:#000000;stroke-width:2;stroke-miterlimit:10;" cx="16" cy="16" r="6"/>
<circle style="fill:none;stroke:#000000;stroke-width:2;stroke-miterlimit:10;" cx="16" cy="16" r="11"/>
<path style="fill-rule:evenodd;clip-rule:evenodd;" d="M15.662,14.652c-0.001,0.022-0.014,0.041-0.03,0.043
	c-0.015,0.002-0.027-0.014-0.026-0.037c0.001-0.022,0.014-0.041,0.03-0.043C15.651,14.613,15.663,14.63,15.662,14.652z"/>
<path style="fill-rule:evenodd;clip-rule:evenodd;" d="M15.005,12.868c-0.009-0.022-0.005-0.048,0.01-0.057
	c0.015-0.009,0.034,0.002,0.043,0.024c0.009,0.022,0.005,0.048-0.01,0.057C15.033,12.901,15.014,12.89,15.005,12.868z"/>
<path style="fill-rule:evenodd;clip-rule:evenodd;" d="M16.712,19.202l-0.01-4.28c0,0,0.127-0.052,0.213-0.112
	c0.053-0.037,0.06-0.131,0.056-0.215c-0.002-0.038-0.133-0.909-0.144-0.979c-0.012-0.08-0.053-0.138-0.187-0.199
	c-0.062-0.028-0.404-0.175-0.404-0.175l-0.02-0.089l-0.072-0.007l-0.003-0.09c0.085-0.076,0.115-0.265,0.115-0.265
	c0.038-0.04,0.059-0.104,0.071-0.171c0.007-0.04-0.02-0.05-0.02-0.05c0.022-0.166,0.036-0.428-0.201-0.454
	c0,0-0.012-0.028-0.027-0.038c-0.492-0.064-0.451,0.313-0.438,0.478c0,0-0.03,0.015-0.03,0.03c0,0.045,0,0.167,0.076,0.212
	l0.046,0.288c0.124,0.061,0.136,0.106,0.136,0.106l-0.038,0.017l0.101,0.199l0.162-0.124c0,0,0.074,0.04,0.142,0.061
	c0.076,0.303,0.03,0.805,0.009,1.001l-0.003,0c-0.044-0.349-0.452-1.174-0.569-1.208c0,0-0.076,0.034-0.155,0.076
	c0.053-0.197,0.014-0.234-0.013-0.268c-0.019-0.023-0.044-0.058-0.09-0.076l0.001-0.005l0.002-0.015c0,0,0.032-0.006,0.042-0.008
	c0.069-0.014,0.06-0.097,0.002-0.095c-0.016,0.001-0.031,0.002-0.033,0.002l0.019-0.167c0.001-0.008-0.009-0.015-0.024-0.021
	l0.005-0.041c0.016-0.003,0.027-0.008,0.028-0.015l0.051-0.457c0.001-0.013-0.027-0.027-0.064-0.031
	c-0.037-0.004-0.068,0.003-0.069,0.016l-0.051,0.457c-0.001,0.008,0.009,0.015,0.024,0.021l-0.005,0.041
	c-0.016,0.003-0.027,0.008-0.028,0.015l-0.021,0.191l-0.003,0c-0.034,0.004-0.066,0.016-0.082,0.047
	c-0.021,0.042-0.065,0.128-0.065,0.193c0,0.201,0.022,0.412,0.195,0.412c0.069,0,0.12-0.047,0.147-0.073
	c0,0.046,0.006,0.156-0.009,0.201c-0.038,0.057-0.104,0.074-0.167,0.072c-0.161-0.005-0.174-0.114-0.166-0.193
	c0,0-0.036,0.006-0.046,0.066c-0.043,0.269-0.16,0.912-0.16,1.227c0,0.199,0.18,0.327,0.23,0.327c0.07,0,0.104-0.02,0.104-0.02
	l-0.235,4.483c0,0,0.074,0.242,0.209,0.242c0.193,0,0.326-0.212,0.326-0.212s0.385-2.749,0.415-3.037h0.007
	c-0.013,0.575,0.169,0.874,0.12,1.089c-0.049,0.215,0.023,1.595,0.077,1.952c0,0,0.368,0.054,0.469,0.063
	c0.318,0.029,0.55-0.022,0.55-0.089C17.208,19.412,16.956,19.445,16.712,19.202z M15.791,14.961l-0.112,0.017
	c-0.014-0.007-0.028-0.022-0.035-0.039c0.062-0.092-0.005-0.22-0.038-0.306l0.133-0.011C15.787,14.704,15.834,14.825,15.791,14.961z
	 M16.416,13.844l0-0.08c0.015,0,0.212,0.029,0.212,0.126C16.586,13.886,16.467,13.863,16.416,13.844z"/>
<path style="fill:none;stroke:#000000;stroke-linecap:round;stroke-miterlimit:10;" d="M11.737,5.878C11.737,5.878,22,5.699,22,16"
	/>
<path style="fill:none;stroke:#000000;stroke-linecap:round;stroke-miterlimit:10;" d="M20.263,26.122
	C20.263,26.122,10,26.301,10,16"/>
<path style="fill:none;stroke:#000000;stroke-linecap:round;stroke-miterlimit:10;" d="M5.103,14.631c0,0,4.977-8.977,13.897-3.827"
	/>
<path style="fill:none;stroke:#000000;stroke-linecap:round;stroke-miterlimit:10;" d="M26.897,17.369c0,0-4.977,8.977-13.897,3.827
	"/>
<path style="fill:none;stroke:#000000;stroke-linecap:round;stroke-miterlimit:10;" d="M9.366,24.753c0,0-5.286-8.799,3.634-13.949"
	/>
<path style="fill:none;stroke:#000000;stroke-linecap:round;stroke-miterlimit:10;" d="M22.634,7.247c0,0,5.286,8.799-3.634,13.949"
	/>
</svg>
