<?xml version="1.0" encoding="iso-8859-1"?>
<!-- Generator: Adobe Illustrator 19.1.1, SVG Export Plug-In . SVG Version: 6.00 Build 0)  -->
<svg version="1.1" id="Layer_1" xmlns="http://www.w3.org/2000/svg" xmlns:xlink="http://www.w3.org/1999/xlink" x="0px" y="0px"
	 viewBox="0 0 32 32" style="enable-background:new 0 0 32 32;" xml:space="preserve">
<circle cx="19.5" cy="14.5" r="1.5"/>
<circle cx="12.5" cy="14.5" r="1.5"/>
<circle cx="14" cy="23" r="1"/>
<path d="M14,4v4h4V4H14z M16,7c-0.552,0-1-0.448-1-1c0-0.552,0.448-1,1-1s1,0.448,1,1C17,6.552,16.552,7,16,7z"/>
<circle cx="18" cy="23" r="1"/>
<circle cx="18" cy="26" r="1"/>
<circle cx="14" cy="26" r="1"/>
<path d="M14,20c0,0,1.323-1,2-1s2,1,2,1H14z"/>
<path d="M16,3C9.935,3,5,7.486,5,13c0,7.399,4.805,16,11,16s11-8.601,11-16C27,7.486,22.065,3,16,3z M7,15c0-0.552,0.224-1,0.5-1
	S8,14.448,8,15c0,0.552-0.224,1-0.5,1S7,15.552,7,15z M16,27c-3.96,0-7.299-4.834-8.509-10H9v-4H7c0-4.411,4.038-8,9-8s9,3.589,9,8
	h-2v4h1.509C23.299,22.166,19.96,27,16,27z M24.5,16c-0.276,0-0.5-0.448-0.5-1c0-0.552,0.224-1,0.5-1s0.5,0.448,0.5,1
	C25,15.552,24.776,16,24.5,16z"/>
</svg>
