<?xml version="1.0" encoding="iso-8859-1"?>
<!-- Generator: Adobe Illustrator 19.1.0, SVG Export Plug-In . SVG Version: 6.00 Build 0)  -->
<svg version="1.1" id="Layer_1" xmlns="http://www.w3.org/2000/svg" xmlns:xlink="http://www.w3.org/1999/xlink" x="0px" y="0px"
	 viewBox="0 0 32 32" style="enable-background:new 0 0 32 32;" xml:space="preserve">
<path style="fill:none;stroke:#000000;stroke-width:2;stroke-miterlimit:10;" d="M27,25H5c-1.105,0-2-0.895-2-2V9
	c0-1.105,0.895-2,2-2h22c1.105,0,2,0.895,2,2v14C29,24.105,28.105,25,27,25z"/>
<g>
	<path d="M8.158,11C6.93,11,6,11.779,6,13.128v2.996h1.208c0.09,0.51,0.6,0.868,1.169,0.868c0.63,0,1.079-0.449,1.079-1.019v-1.948
		h1.724v1.948c0,1.079-1.394,1.648-2.412,1.648c-1.109,0-2.1-0.659-2.31-1.498L6,14.888V21h3.932C10.891,21,12,20.1,12,18.932V11
		H8.158z"/>
	<path d="M23.429,15.49h-1.164v-1.133h1.164c0.298,0,0.566,0.267,0.566,0.565S23.727,15.49,23.429,15.49z M22.148,11
		C20.925,11,20,11.775,20,13.118v7.813h3.914c0.954,0,2.086-0.896,2.086-2.06v-2.324h-0.512c0,0.448-0.389,0.895-0.896,0.895h-3.76
		v-3.443h3.684c0.448,0,0.837,0.388,0.837,0.836c0,0.447-0.313,0.894-0.761,0.894c0.508,0,0.896,0.372,0.896,0.819H26V11H22.148z
		 M23.458,15.95h-1.193v1.134h1.193c0.299,0,0.567-0.269,0.567-0.566C24.025,16.219,23.757,15.95,23.458,15.95z"/>
	<path d="M15.15,11C13.926,11,13,11.776,13,13.12v7.819h3.939c0.956,0,2.061-0.896,2.061-2.061V11H15.15z M18.241,14.633
		c-0.687-0.159-1.344-0.251-1.673-0.251c-0.717,0-1.283,0.598-1.283,1.355c0,0.759,0.566,1.358,1.283,1.358
		c0.329,0,0.986-0.063,1.673-0.223v0.6h-2.867c-0.895,0-1.642-0.788-1.642-1.735c0-0.946,0.747-1.735,1.642-1.735h2.867
		C18.241,14.002,18.241,14.633,18.241,14.633z"/>
</g>
</svg>
