<?xml version="1.0" encoding="iso-8859-1"?>
<!-- Generator: Adobe Illustrator 19.1.0, SVG Export Plug-In . SVG Version: 6.00 Build 0)  -->
<svg version="1.1" id="Layer_1" xmlns="http://www.w3.org/2000/svg" xmlns:xlink="http://www.w3.org/1999/xlink" x="0px" y="0px"
	 viewBox="0 0 32 32" style="enable-background:new 0 0 32 32;" xml:space="preserve">
<circle style="fill:none;stroke:#000000;stroke-width:2;stroke-miterlimit:10;" cx="16" cy="16" r="11"/>
<circle cx="16" cy="16" r="2"/>
<g>
	<path d="M13,16c0-0.29,0.054-0.564,0.131-0.83c-2.287-0.189-3.819-0.712-4.846-1.255c-0.135,0.498-0.222,1.014-0.258,1.546
		c1.172,0.544,2.799,1.028,5.054,1.208C13.032,16.453,13,16.231,13,16z"/>
	<path d="M13.145,15.125c0.152-0.493,0.416-0.934,0.779-1.282c-1.883-1.307-2.948-2.525-3.565-3.509
		c-0.37,0.369-0.705,0.773-0.998,1.208C10.105,12.601,11.275,13.838,13.145,15.125z"/>
	<path d="M16,13c0.29,0,0.564,0.054,0.83,0.131c0.189-2.286,0.712-3.819,1.255-4.846c-0.498-0.135-1.015-0.222-1.546-0.258
		c-0.544,1.172-1.028,2.799-1.208,5.054C15.547,13.032,15.769,13,16,13z"/>
	<path d="M18.904,15.282c2.072-0.977,3.659-1.291,4.82-1.334c-0.136-0.511-0.32-1.001-0.55-1.467
		c-1.287,0.115-2.941,0.513-4.983,1.484C18.532,14.332,18.779,14.781,18.904,15.282z"/>
	<path d="M18.157,13.924c1.307-1.883,2.525-2.948,3.509-3.565c-0.369-0.37-0.773-0.705-1.208-0.998
		c-1.06,0.744-2.297,1.914-3.584,3.784C17.367,13.297,17.808,13.562,18.157,13.924z"/>
	<path d="M15.282,13.096c-0.977-2.072-1.291-3.659-1.334-4.82c-0.511,0.136-1.001,0.32-1.467,0.55
		c0.115,1.287,0.513,2.94,1.484,4.983C14.332,13.469,14.781,13.221,15.282,13.096z"/>
	<path d="M16.718,18.904c0.977,2.072,1.291,3.659,1.334,4.82c0.511-0.136,1.001-0.32,1.467-0.55
		c-0.115-1.287-0.513-2.94-1.484-4.983C17.668,18.531,17.219,18.779,16.718,18.904z"/>
	<path d="M18.855,16.875c-0.152,0.493-0.417,0.934-0.779,1.282c1.883,1.307,2.948,2.525,3.565,3.509
		c0.37-0.369,0.705-0.773,0.998-1.208C21.895,19.399,20.725,18.162,18.855,16.875z"/>
	<path d="M18.919,15.331C18.968,15.547,19,15.769,19,16c0,0.29-0.054,0.564-0.131,0.83c2.286,0.189,3.819,0.711,4.846,1.255
		c0.135-0.498,0.222-1.014,0.258-1.546C22.801,15.995,21.173,15.511,18.919,15.331z"/>
	<path d="M13.843,18.076c-1.307,1.883-2.525,2.948-3.509,3.565c0.369,0.37,0.773,0.705,1.208,0.998
		c1.06-0.744,2.297-1.914,3.584-3.784C14.633,18.703,14.192,18.438,13.843,18.076z"/>
	<path d="M13.096,16.718c-2.072,0.977-3.659,1.291-4.82,1.334c0.136,0.512,0.321,1.003,0.551,1.47
		c1.287-0.116,2.94-0.518,4.98-1.488C13.468,17.667,13.22,17.218,13.096,16.718z"/>
	<path d="M16,19c-0.29,0-0.564-0.054-0.83-0.131c-0.189,2.287-0.711,3.819-1.255,4.846c0.498,0.135,1.014,0.222,1.546,0.258
		c0.544-1.172,1.028-2.799,1.208-5.054C16.453,18.968,16.231,19,16,19z"/>
</g>
</svg>
