<?xml version="1.0" encoding="iso-8859-1"?>
<!-- Generator: Adobe Illustrator 18.1.1, SVG Export Plug-In . SVG Version: 6.00 Build 0)  -->
<svg version="1.1" id="Layer_1" xmlns="http://www.w3.org/2000/svg" xmlns:xlink="http://www.w3.org/1999/xlink" x="0px" y="0px"
	 viewBox="0 0 32 32" style="enable-background:new 0 0 32 32;" xml:space="preserve">
<path d="M23.387,5.292l-2.31,2.31l0.385,0.386c0.199,0.198,0.787,0.016,1.155,0.384c0.368,0.368,0.56,1.331,1.54,2.311
	c0.639,0.638,1.673,0.638,2.311,0c0.638-0.638,0.638-1.672,0-2.311c-0.971-0.971-1.971-1.156-2.332-1.519
	c-0.361-0.361-0.13-0.944-0.363-1.177L23.387,5.292z"/>
<path d="M8.613,5.292l2.31,2.31l-0.385,0.386C10.34,8.186,9.752,8.004,9.383,8.372c-0.368,0.368-0.561,1.331-1.54,2.311
	c-0.639,0.638-1.673,0.638-2.311,0c-0.638-0.638-0.638-1.672,0-2.311c0.971-0.971,1.971-1.156,2.332-1.519
	c0.361-0.361,0.13-0.944,0.363-1.177L8.613,5.292z"/>
<path style="fill:none;stroke:#000000;stroke-width:2;stroke-linecap:round;stroke-miterlimit:10;" d="M9.763,6.425
	C9.763,6.425,10.681,5,12,5s2,1.119,2,2c0,5.786-9,7.007-9,14c0,3.882,3.882,6,7,6s9-1.556,9-6c0-2.761-2.239-5-5-5s-5,2.239-5,5
	c0,4.444,5.461,6,8.667,6C23.878,27,27,24.525,27,20.578c0-7.214-9-7.792-9-13.578c0-0.881,0.854-2,2-2s2.237,1.425,2.237,1.425"/>
</svg>
