<?xml version="1.0" encoding="iso-8859-1"?>
<!-- Generator: Adobe Illustrator 19.1.1, SVG Export Plug-In . SVG Version: 6.00 Build 0)  -->
<svg version="1.1" id="Layer_1" xmlns="http://www.w3.org/2000/svg" xmlns:xlink="http://www.w3.org/1999/xlink" x="0px" y="0px"
	 viewBox="0 0 32 32" style="enable-background:new 0 0 32 32;" xml:space="preserve">
<polygon style="fill:none;stroke:#000000;stroke-width:2;stroke-miterlimit:10;" points="23,22 9,22 7,28 25,28 "/>
<circle cx="16" cy="25" r="1"/>
<path style="fill:none;stroke:#000000;stroke-width:2;stroke-miterlimit:10;" d="M29,10h-1c-3.08,0-3,3-3,3v5c0,2.563-1.8,4-4,4H11
	c-2.2,0-4-1.118-4-4v-5c0,0-0.048-3-3-3H3"/>
<path style="fill:none;stroke:#000000;stroke-width:2;stroke-miterlimit:10;" d="M7,10h18c0,0-4.025-4-9-4S7,10,7,10z"/>
<circle style="fill:none;stroke:#000000;stroke-width:2;stroke-linejoin:bevel;stroke-miterlimit:10;" cx="16" cy="5" r="1"/>
<path style="fill:none;stroke:#000000;stroke-width:2;stroke-miterlimit:10;" d="M22,17c0-1.105-0.895-2-2-2
	c-0.538,0-1.024,0.215-1.383,0.56C18.106,14.635,17.132,14,16,14s-2.106,0.635-2.617,1.56C13.024,15.215,12.538,15,12,15
	c-1.105,0-2,0.895-2,2"/>
</svg>
