<?xml version="1.0" encoding="iso-8859-1"?>
<!-- Generator: Adobe Illustrator 19.1.0, SVG Export Plug-In . SVG Version: 6.00 Build 0)  -->
<svg version="1.1" id="Layer_1" xmlns="http://www.w3.org/2000/svg" xmlns:xlink="http://www.w3.org/1999/xlink" x="0px" y="0px"
	 viewBox="0 0 32 32" style="enable-background:new 0 0 32 32;" xml:space="preserve">
<path style="fill:none;stroke:#000000;stroke-width:2;stroke-miterlimit:10;" d="M6,17.25C6,24.709,16,28.5,16,28.5
	s10-3.734,10-11.25c0-3.09,0-11.875,0-11.875c-2.467,0-10-1.875-10-1.875S8.464,5.375,6,5.375C6,5.375,6,14.16,6,17.25z"/>
<polygon points="12,9.5 11,11 10,9.5 11,8 "/>
<polygon points="21,21.5 20,23 19,21.5 20,20 "/>
<line style="fill:none;stroke:#000000;stroke-width:2;stroke-miterlimit:10;" x1="8.082" y1="23.625" x2="26" y2="11.68"/>
<line style="fill:none;stroke:#000000;stroke-width:2;stroke-miterlimit:10;" x1="6.228" y1="19.595" x2="25.772" y2="6.565"/>
</svg>
