<?xml version="1.0" encoding="iso-8859-1"?>
<!-- Generator: Adobe Illustrator 19.1.1, SVG Export Plug-In . SVG Version: 6.00 Build 0)  -->
<svg version="1.1" id="Layer_1" xmlns="http://www.w3.org/2000/svg" xmlns:xlink="http://www.w3.org/1999/xlink" x="0px" y="0px"
	 viewBox="-7 9 32 32" style="enable-background:new -7 9 32 32;" xml:space="preserve">
<path style="fill:none;stroke:#000000;stroke-width:2;stroke-miterlimit:10;" d="M5.371,28.628c1.546,1.546,3.972,1.697,4.874,0.668
	c3.902-3.923,7.209-2.295,9.983-5.07c1.684-1.678,0.566-5.217-2.336-8.119l0,0c-2.902-2.902-6.47-4.046-8.148-2.362
	c-2.775,2.775-1.147,6.081-5.07,9.983C3.645,24.63,3.825,27.083,5.371,28.628L5.371,28.628z"/>
<g>
	<path d="M3.251,30.75c-0.237-0.237-0.451-0.495-0.654-0.761l-6.618,6.618l1.414,1.414l6.564-6.564L3.251,30.75z"/>
</g>
<path style="fill:none;stroke:#000000;stroke-width:2;stroke-miterlimit:10;" d="M5.625,22.667
	c-1.029,0.902-0.829,3.475,0.717,5.021l0,0c1.546,1.546,3.882,1.759,4.783,0.73"/>
<g>
	<path d="M18.355,20c-0.339-0.632-0.803-1.287-1.355-1.917V19h-2v-2h0.922c-0.631-0.557-1.287-1.021-1.922-1.364V16h-2v-1.022
		c-0.057-0.004-0.118-0.016-0.173-0.016h-0.003c-0.311,0-0.534,0.066-0.663,0.195c-0.059,0.059-0.108,0.119-0.161,0.178V16h-0.487
		c-0.181,0.31-0.323,0.637-0.443,1H11v2H9.528c-0.085,0.32-0.183,0.657-0.292,1H11v2H9v-1.321C8.725,21.417,8.355,22.196,7.833,23H8
		v2H7.069c0.088,0.358,0.251,0.704,0.47,1H8v0.468c0.307,0.237,0.658,0.421,1,0.509V26h2v0.124c0.765-0.495,1.506-0.855,2.207-1.124
		H12v-2h2v1.725c0.344-0.109,0.679-0.205,1-0.29V23h2v0.892c0.363-0.122,0.69-0.266,1-0.45V23h0.606
		c0.07-0.061,0.14-0.12,0.208-0.188c0.131-0.131,0.197-0.354,0.197-0.665c0-0.047-0.01-0.099-0.013-0.146H18v-2L18.355,20L18.355,20
		z M11,25H9v-2h2V25z M14,22h-2v-2h2V22z M14,19h-2v-2h2V19z M17,22h-2v-2h2V22z"/>
</g>
</svg>
