<?xml version="1.0" encoding="iso-8859-1"?>
<!-- Generator: Adobe Illustrator 19.1.0, SVG Export Plug-In . SVG Version: 6.00 Build 0)  -->
<svg version="1.1" id="Layer_1" xmlns="http://www.w3.org/2000/svg" xmlns:xlink="http://www.w3.org/1999/xlink" x="0px" y="0px"
	 viewBox="0 0 32 32" style="enable-background:new 0 0 32 32;" xml:space="preserve">
<path style="fill:none;stroke:#000000;stroke-width:2;stroke-miterlimit:10;" d="M21.004,11.179C21.005,8.203,15.997,4,15.997,4
	s-4.992,4.142-4.993,7.182C11.004,14.222,13,22,13,22l6-0.002C19,21.998,21.004,14.156,21.004,11.179z"/>
<circle cx="16.004" cy="12.708" r="2.022"/>
<path style="fill:none;stroke:#000000;stroke-width:2;stroke-miterlimit:10;" d="M18,24c0,2.498-2.003,4-2.003,4S14,26.476,14,24"/>
<path style="fill:none;stroke:#000000;stroke-width:2;stroke-miterlimit:10;" d="M13,22l-3,2l-0.614-3.068
	c-0.235-1.173,0.25-2.373,1.233-3.054l1.22-0.845"/>
<path style="fill:none;stroke:#000000;stroke-width:2;stroke-miterlimit:10;" d="M19,22l3,2l0.614-3.068
	c0.235-1.173-0.25-2.373-1.233-3.054l-1.22-0.845"/>
</svg>
