<?xml version="1.0" encoding="utf-8"?>
<!-- Generator: Adobe Illustrator 18.0.0, SVG Export Plug-In . SVG Version: 6.00 Build 0)  -->
<svg version="1.1" id="Layer_1" xmlns="http://www.w3.org/2000/svg" xmlns:xlink="http://www.w3.org/1999/xlink" x="0px" y="0px"
	 viewBox="0 0 32 32" enable-background="new 0 0 32 32" xml:space="preserve">
<line fill="none" stroke="#000000" stroke-width="2" stroke-miterlimit="10" x1="13" y1="4" x2="13" y2="6"/>
<line fill="none" stroke="#000000" stroke-width="2" stroke-miterlimit="10" x1="19" y1="4" x2="19" y2="6"/>
<line fill="none" stroke="#000000" stroke-width="2" stroke-miterlimit="10" x1="25" y1="4" x2="25" y2="6"/>
<line fill="none" stroke="#000000" stroke-width="2" stroke-miterlimit="10" x1="7" y1="4" x2="7" y2="6"/>
<line fill="none" stroke="#000000" stroke-width="2" stroke-miterlimit="10" x1="13" y1="26" x2="13" y2="28"/>
<line fill="none" stroke="#000000" stroke-width="2" stroke-miterlimit="10" x1="19" y1="26" x2="19" y2="28"/>
<line fill="none" stroke="#000000" stroke-width="2" stroke-miterlimit="10" x1="25" y1="26" x2="25" y2="28"/>
<line fill="none" stroke="#000000" stroke-width="2" stroke-miterlimit="10" x1="7" y1="26" x2="7" y2="28"/>
<rect x="4" y="8" fill="none" stroke="#000000" stroke-width="2" stroke-miterlimit="10" width="24" height="16"/>
<polyline fill="none" stroke="#000000" stroke-width="2" stroke-miterlimit="10" points="12,20 8,20 8,11 "/>
<path fill="none" stroke="#000000" stroke-width="2" stroke-miterlimit="10" d="M21,12h-1v8h1c1.7,0,3-1.3,3-3v-2
	C24,13.3,22.7,12,21,12z"/>
<path fill="none" stroke="#000000" stroke-width="2" stroke-miterlimit="10" d="M17,15v-1c0-1.1-0.9-2-2-2h0c-1.1,0-2,0.9-2,2v4
	c0,1.1,0.9,2,2,2h0c1.1,0,2-0.9,2-2v-1"/>
</svg>
