<?xml version="1.0" encoding="iso-8859-1"?>
<!-- Generator: Adobe Illustrator 19.1.1, SVG Export Plug-In . SVG Version: 6.00 Build 0)  -->
<svg version="1.1" id="Layer_1" xmlns="http://www.w3.org/2000/svg" xmlns:xlink="http://www.w3.org/1999/xlink" x="0px" y="0px"
	 viewBox="0 0 32 32" style="enable-background:new 0 0 32 32;" xml:space="preserve">
<path d="M16,22.157c-1.416-0.69-3.47-1.457-5.6-1.457c-1.677,0-3.515,0.247-5.474,0.734l1.261-10.938
	C7.106,10.129,8.891,9.5,10.338,9.5c2.15,0,4.249,1.363,4.27,1.376l1.389,0.924l1.388-0.918c0.018-0.011,1.585-1.018,3.399-1.297
	l1.233,11.127C19.766,20.599,17.509,21.422,16,22.157z"/>
<path style="fill:none;stroke:#000000;stroke-width:2;stroke-miterlimit:10;" d="M28.133,8.8c0,0-3.484-1.8-6.471-1.8S16,8.8,16,8.8
	S13.324,7,10.337,7S3.867,8.8,3.867,8.8L2,25c0,0,4.231-1.8,8.4-1.8c2.738,0,5.6,1.8,5.6,1.8s2.862-1.8,5.6-1.8
	c4.169,0,8.4,1.8,8.4,1.8L28.133,8.8z"/>
</svg>
