<?xml version="1.0" encoding="iso-8859-1"?>
<!-- Generator: Adobe Illustrator 19.1.1, SVG Export Plug-In . SVG Version: 6.00 Build 0)  -->
<svg version="1.1"  xmlns="http://www.w3.org/2000/svg" xmlns:xlink="http://www.w3.org/1999/xlink" x="0px" y="0px"
	 viewBox="0 0 32 32" style="enable-background:new 0 0 32 32;" xml:space="preserve">
<g>
	<path style="fill:none;stroke:#000000;stroke-width:2;stroke-miterlimit:10;" d="M8,8c-1.657,0-3,1.343-3,3v10c0,1.657,1.343,3,3,3
		h16c1.657,0,3-1.343,3-3V11c0-1.657-1.343-3-3-3H8z"/>
</g>
<g>
	<path style="fill:none;stroke:#000000;stroke-width:2;stroke-miterlimit:10;" d="M9,27h14"/>
</g>
<circle cx="19" cy="13" r="1"/>
<circle cx="13" cy="13" r="1"/>
<path style="fill:none;stroke:#000000;stroke-width:2;stroke-miterlimit:10;" d="M20,17.645C19.086,18.385,17.826,19,16,19
	s-3.086-0.614-4-1.355"/>
<path style="fill:none;stroke:#000000;stroke-width:2;stroke-miterlimit:10;" d="M11,9V6c0-0.55,0.45-1,1-1h8c0.55,0,1,0.45,1,1v3"
	/>
</svg>
