<?xml version="1.0" encoding="utf-8"?>
<!-- Generator: Adobe Illustrator 18.1.1, SVG Export Plug-In . SVG Version: 6.00 Build 0)  -->
<svg version="1.1" id="Layer_1" xmlns="http://www.w3.org/2000/svg" xmlns:xlink="http://www.w3.org/1999/xlink" x="0px" y="0px"
	 viewBox="0 0 32 32" enable-background="new 0 0 32 32" xml:space="preserve">
<line fill="none" stroke="#000000" stroke-width="2" stroke-miterlimit="10" x1="29" y1="27" x2="29" y2="24"/>
<line fill="none" stroke="#000000" stroke-width="2" stroke-miterlimit="10" x1="3" y1="27" x2="3" y2="24"/>
<path fill="none" stroke="#000000" stroke-width="2" stroke-miterlimit="10" d="M27,14c-1.1,0-2,0.9-2,2v3H7v-3c0-1.1-0.9-2-2-2
	s-2,0.9-2,2v8h26v-8C29,14.9,28.1,14,27,14z"/>
<path fill="none" stroke="#000000" stroke-width="2" stroke-miterlimit="10" d="M27,14v-2c0-1.1-0.9-2-2-2h-2.3c-0.3-0.6-1-1-1.7-1
	c-0.3,0-0.6,0.1-0.9,0.2C19.2,7.9,17.7,7,16,7s-3.2,0.9-4.1,2.2C11.6,9.1,11.3,9,11,9c-0.7,0-1.4,0.4-1.7,1H7c-1.1,0-2,0.9-2,2v2"/>
<circle cx="16" cy="14" r="1"/>
<circle cx="21" cy="14" r="1"/>
<circle cx="11" cy="14" r="1"/>
</svg>
