<?xml version="1.0" encoding="iso-8859-1"?>
<!-- Generator: Adobe Illustrator 19.1.1, SVG Export Plug-In . SVG Version: 6.00 Build 0)  -->
<svg version="1.1" id="Layer_1" xmlns="http://www.w3.org/2000/svg" xmlns:xlink="http://www.w3.org/1999/xlink" x="0px" y="0px"
	 viewBox="0 0 32 32" style="enable-background:new 0 0 32 32;" xml:space="preserve">
<line style="fill:none;stroke:#000000;stroke-width:2;stroke-miterlimit:10;" x1="4" y1="16" x2="17.625" y2="16"/>
<polyline style="fill:none;stroke:#000000;stroke-width:2;stroke-miterlimit:10;" points="14.625,12 18.625,16 14.625,20 "/>
<path d="M6.461,13C7.738,8.947,11.531,6,16,6c5.514,0,10,4.486,10,10s-4.486,10-10,10c-4.469,0-8.262-2.947-9.539-7H4.395
	c1.337,5.167,6.026,9,11.605,9c6.617,0,12-5.383,12-12S22.617,4,16,4C10.421,4,5.732,7.833,4.395,13H6.461z"/>
</svg>
