<?xml version="1.0" encoding="iso-8859-1"?>
<!-- Generator: Adobe Illustrator 21.1.0, SVG Export Plug-In . SVG Version: 6.00 Build 0)  -->
<svg version="1.1" id="Layer_1" xmlns="http://www.w3.org/2000/svg" xmlns:xlink="http://www.w3.org/1999/xlink" x="0px" y="0px"
	 viewBox="0 0 32 32" style="enable-background:new 0 0 32 32;" xml:space="preserve">
<polygon points="4,12 4,5 10,8.5 "/>
<circle cx="20" cy="23" r="4"/>
<polyline style="fill:none;stroke:#000000;stroke-width:2;stroke-miterlimit:10;" points="23,23 23,6 28,8 "/>
<rect x="4" y="15" width="16" height="2"/>
<g>
	<path d="M14.812,20H4v2h10.09C14.212,21.282,14.459,20.608,14.812,20z"/>
	<path d="M14.35,25H4v2h11.541C15.022,26.422,14.615,25.746,14.35,25z"/>
</g>
<g>
	<polygon points="7.969,5 11.008,6.772 11.398,7 20,7 20,5 	"/>
	<polygon points="11.008,10.228 7.969,12 20,12 20,10 11.398,10 	"/>
</g>
</svg>
