<?xml version="1.0" encoding="iso-8859-1"?>
<!-- Generator: Adobe Illustrator 19.1.0, SVG Export Plug-In . SVG Version: 6.00 Build 0)  -->
<svg version="1.1" id="Layer_1" xmlns="http://www.w3.org/2000/svg" xmlns:xlink="http://www.w3.org/1999/xlink" x="0px" y="0px"
	 viewBox="0 0 32 32" style="enable-background:new 0 0 32 32;" xml:space="preserve">
<line style="fill:none;stroke:#000000;stroke-width:2;stroke-miterlimit:10;" x1="3" y1="3" x2="29" y2="29"/>
<g>
	<path d="M10.685,12.057C12.167,12.679,14.087,13,16,13c2.236,0,4.488-0.435,6.03-1.282c0.145,1.904,0.949,3.675,2.313,5.039
		L25,17.414v5.089c-0.437,0.304-1.308,0.829-2.549,1.32l1.537,1.537c1.692-0.774,2.597-1.543,2.671-1.607L27,23.454v-6.868
		l-1.243-1.243C24.624,14.21,24,12.703,24,11.101V9c0-2.626-4.024-4-8-4S8,6.374,8,9v0.372L10.685,12.057z M16,7
		c3.722,0,6,1.295,6,2s-2.278,2-6,2s-6-1.295-6-2S12.278,7,16,7z"/>
	<path d="M17,17.5h2c0-1.379-1.122-2.5-2.5-2.5h-1c-0.529,0-1.018,0.167-1.423,0.449L15.628,17H16.5C16.776,17,17,17.225,17,17.5z"
		/>
	<path d="M15.5,23h1c0.638,0,1.215-0.248,1.657-0.643l-1.423-1.423C16.663,20.972,16.586,21,16.5,21h-1c-0.276,0-0.5-0.225-0.5-0.5
		h-2C13,21.879,14.122,23,15.5,23z"/>
	<path d="M15.5,20h0.3l-2.772-2.772C13.018,17.318,13,17.407,13,17.5C13,18.879,14.122,20,15.5,20z"/>
	<path d="M20.295,24.495C19.071,24.789,17.65,25,16,25c-4.951,0-8.021-1.814-9-2.497v-5.089l0.657-0.657
		c0.863-0.863,1.501-1.89,1.89-3.01L7.91,12.11c-0.206,1.218-0.776,2.342-1.668,3.233L5,16.586v6.868l0.341,0.299
		C5.493,23.885,9.132,27,16,27c2.37,0,4.345-0.374,5.935-0.865L20.295,24.495z"/>
</g>
<circle cx="18" cy="9" r="1"/>
<circle cx="14" cy="9" r="1"/>
</svg>
