<?xml version="1.0" encoding="iso-8859-1"?>
<!-- Generator: Adobe Illustrator 19.1.1, SVG Export Plug-In . SVG Version: 6.00 Build 0)  -->
<svg version="1.1" id="Layer_1" xmlns="http://www.w3.org/2000/svg" xmlns:xlink="http://www.w3.org/1999/xlink" x="0px" y="0px"
	 viewBox="0 0 32 32" style="enable-background:new 0 0 32 32;" xml:space="preserve">
<path d="M20.915,10c-1.422,0-2.331,0.953-2.915,2.444v2.394l1.28,0.914C19.727,12.358,20.589,12,20.915,12
	C22.145,12,26,17.014,26,24.084C26,24.446,25.59,25,25.085,25H23c-1.991,0-4-1.237-4-4c0-1.114,0.028-2.081,0.074-2.938l-1.92-1.372
	C17.037,18.063,17,19.534,17,21c0,3.477,2.523,6,6,6h2.085C26.638,27,28,25.638,28,24.084C28,16.83,24.009,10,20.915,10z"/>
<polyline style="fill:none;stroke:#000000;stroke-width:2;stroke-miterlimit:10;" points="16,5 16,16 20.223,19 23,22 "/>
<line style="fill:none;stroke:#000000;stroke-width:2;stroke-miterlimit:10;" x1="20.132" y1="19" x2="23" y2="18"/>
<path d="M11.085,10c1.422,0,2.331,0.953,2.915,2.444v2.394l-1.28,0.914C12.273,12.358,11.411,12,11.085,12
	C9.855,12,6,17.014,6,24.084C6,24.446,6.41,25,6.915,25H9c1.991,0,4-1.237,4-4c0-1.114-0.028-2.081-0.074-2.938l1.92-1.372
	C14.963,18.063,15,19.534,15,21c0,3.477-2.523,6-6,6H6.915C5.362,27,4,25.638,4,24.084C4,16.83,7.991,10,11.085,10z"/>
<polyline style="fill:none;stroke:#000000;stroke-width:2;stroke-miterlimit:10;" points="16,5 16,16 11.777,19 9,22 "/>
<line style="fill:none;stroke:#000000;stroke-width:2;stroke-miterlimit:10;" x1="11.868" y1="19" x2="9" y2="18"/>
</svg>
