<?xml version="1.0" encoding="iso-8859-1"?>
<!-- Generator: Adobe Illustrator 19.1.0, SVG Export Plug-In . SVG Version: 6.00 Build 0)  -->
<svg version="1.1" id="Layer_1" xmlns="http://www.w3.org/2000/svg" xmlns:xlink="http://www.w3.org/1999/xlink" x="0px" y="0px"
	 viewBox="0 0 32 32" style="enable-background:new 0 0 32 32;" xml:space="preserve">
<line style="fill:none;stroke:#000000;stroke-width:2;stroke-miterlimit:10;" x1="12" y1="23" x2="12" y2="6"/>
<path style="fill:none;stroke:#000000;stroke-width:2;stroke-miterlimit:10;" d="M20.53,14.294l-3.302,0.478l0.478-3.302
	l9.885-9.885c0.78-0.78,2.044-0.78,2.824,0l0,0c0.78,0.78,0.78,2.044,0,2.824L20.53,14.294z"/>
<polygon points="26,12.359 26,22.341 21,24.484 21,16.752 19,17.041 19,24.557 11.975,21.923 6,24.483 6,9.659 12.025,7.077 
	16.78,8.861 18.334,7.307 11.975,4.923 4,8.341 4,27.517 12.025,24.077 20.025,27.077 28,23.659 28,10.359 "/>
</svg>
