<?xml version="1.0" encoding="iso-8859-1"?>
<!-- Generator: Adobe Illustrator 19.1.1, SVG Export Plug-In . SVG Version: 6.00 Build 0)  -->
<svg version="1.1" id="Layer_1" xmlns="http://www.w3.org/2000/svg" xmlns:xlink="http://www.w3.org/1999/xlink" x="0px" y="0px"
	 viewBox="0 0 32 32" style="enable-background:new 0 0 32 32;" xml:space="preserve">
<path style="fill:none;stroke:#000000;stroke-width:2;stroke-linecap:round;stroke-linejoin:round;stroke-miterlimit:10;" d="
	M6.413,6.449c-1.115,1.125-2.044,2.773-0.867,3.944c4.516,4.497,6.074,3.826,7.03,3.028c0.449-0.376,0.436-0.376,0.836-0.845
	c0.81-0.946,1.492-2.485-3.068-7.024C9.134,4.349,7.527,5.324,6.413,6.449z"/>
<rect x="5" y="18" style="fill:none;stroke:#000000;stroke-width:2;stroke-miterlimit:10;" width="20" height="9"/>
<circle cx="16" cy="24" r="1"/>
<circle cx="21" cy="24" r="1"/>
<circle cx="10" cy="10" r="1"/>
<line style="fill:none;stroke:#000000;stroke-width:2;stroke-miterlimit:10;" x1="15" y1="21" x2="22" y2="21"/>
<line style="fill:none;stroke:#000000;stroke-width:2;stroke-miterlimit:10;" x1="12" y1="20" x2="12" y2="25"/>
<line style="fill:none;stroke:#000000;stroke-width:2;stroke-miterlimit:10;" x1="9" y1="20" x2="9" y2="25"/>
<path style="fill:none;stroke:#000000;stroke-width:2;stroke-miterlimit:10;" d="M25,18c0,0,2-1.375,2-4c0-3-3-3-3-3
	c-3.25,0-4.5,3-8,3c-1.813,0-3-1-3-1"/>
</svg>
