<?xml version="1.0" encoding="iso-8859-1"?>
<!-- Generator: Adobe Illustrator 19.2.0, SVG Export Plug-In . SVG Version: 6.00 Build 0)  -->
<svg version="1.1" id="Layer_1" xmlns="http://www.w3.org/2000/svg" xmlns:xlink="http://www.w3.org/1999/xlink" x="0px" y="0px"
	 viewBox="0 0 32 32" style="enable-background:new 0 0 32 32;" xml:space="preserve">
<path style="fill:none;stroke:#000000;stroke-width:2;stroke-linecap:round;stroke-linejoin:round;stroke-miterlimit:10;" d="
	M22.837,11.439C22.931,11.656,23,11.855,23,12c0,1.657-3.134,3-7,3s-7-1.343-7-3c0-0.145,0.069-0.344,0.162-0.56
	C7.22,13.699,6,16.812,6,20c0,4.25,4.477,8,10,8s10-3.667,10-8C26,16.811,24.78,13.699,22.837,11.439z"/>
<g>
	<path style="fill:none;stroke:#000000;stroke-width:2;stroke-linecap:round;stroke-miterlimit:10;" d="M20.642,8.255
		c-0.007-0.007-0.017-0.013-0.023-0.019C20.862,8.472,21,8.729,21,9c0,1.105-2.239,2-5,2s-5-0.895-5-2
		c0-0.26,0.133-0.506,0.358-0.734c-0.021,0.021-0.05,0.041-0.07,0.063C11.102,8.538,9,11.104,9,12c0,1.657,3.134,3,7,3s7-1.343,7-3
		C23,11.104,20.873,8.485,20.642,8.255z"/>
</g>
<path style="fill:none;stroke:#000000;stroke-width:2;stroke-miterlimit:10;" d="M18.456,10.718L20.5,7.141
	c0.566-1.019,1.476-1.803,2.568-2.212L25.544,4"/>
<path d="M19.68,6.57c-0.015,0.026-0.034,0.049-0.048,0.075l-0.973,1.702C19.389,8.562,19.84,8.828,19.975,9
	c-0.257,0.327-1.627,1-3.975,1c-2.347,0-3.717-0.673-3.975-1C12.283,8.673,13.653,8,16,8c0.195,0,0.373,0.011,0.555,0.02
	l1.086-1.917C17.101,6.034,16.547,6,16,6c-2.89,0-6,0.939-6,3s3.11,3,6,3s6-0.939,6-3C22,7.852,21.034,7.053,19.68,6.57z"/>
</svg>
