<?xml version="1.0" encoding="iso-8859-1"?>
<!-- Generator: Adobe Illustrator 19.1.1, SVG Export Plug-In . SVG Version: 6.00 Build 0)  -->
<svg version="1.1" id="Layer_1" xmlns="http://www.w3.org/2000/svg" xmlns:xlink="http://www.w3.org/1999/xlink" x="0px" y="0px"
	 viewBox="0 0 32 32" style="enable-background:new 0 0 32 32;" xml:space="preserve">
<path style="fill:none;stroke:#000000;stroke-width:2;stroke-miterlimit:10;" d="M2,21v-7c0-1.105,0.895-2,2-2h3
	c1.105,0,2,0.895,2,2v7"/>
<path style="fill:none;stroke:#000000;stroke-width:2;stroke-miterlimit:10;" d="M9,21v-7c0-1.105,0.895-2,2-2h3
	c1.105,0,2,0.895,2,2v7"/>
<path style="fill:none;stroke:#000000;stroke-width:2;stroke-miterlimit:10;" d="M20,14c0-1.105,0.895-2,2-2h6c1.105,0,2,0.895,2,2
	v4c0,1.105-0.895,2-2,2h-6c-1.105,0-2-0.895-2-2V14z"/>
<line style="fill:none;stroke:#000000;stroke-width:2;stroke-miterlimit:10;" x1="20" y1="25" x2="20" y2="15"/>
</svg>
