<?xml version="1.0" encoding="iso-8859-1"?>
<!-- Generator: Adobe Illustrator 19.1.1, SVG Export Plug-In . SVG Version: 6.00 Build 0)  -->
<svg version="1.1" id="Layer_1" xmlns="http://www.w3.org/2000/svg" xmlns:xlink="http://www.w3.org/1999/xlink" x="0px" y="0px"
	 viewBox="0 0 32 32" style="enable-background:new 0 0 32 32;" xml:space="preserve">
<path id="XMLID_144_" d="M19.548,14.685L24,4h-2l-4.029,9.669C18.543,13.938,19.073,14.279,19.548,14.685z"/>
<path id="XMLID_145_" d="M15,13c0.411,0,0.812,0.043,1.204,0.111L20,4h-2l-3.768,9.044C14.484,13.017,14.74,13,15,13z"/>
<path id="XMLID_146_" d="M14.029,13.669L10,4H8l4.452,10.685C12.927,14.279,13.457,13.938,14.029,13.669z"/>
<circle id="XMLID_147_" style="fill:none;stroke:#000000;stroke-width:2;stroke-miterlimit:10;" cx="16" cy="20" r="7"/>
<g id="XMLID_148_">
	<polygon id="XMLID_149_" points="15.458,7.5 14,4 12,4 14.458,9.9 	"/>
</g>
<path id="XMLID_19_" style="fill:none;stroke:#000000;stroke-width:2;stroke-miterlimit:10;" d="M14,19v-0.5
	c0-0.828,0.469-1.5,2-1.5s2,0.672,2,1.5v0.84c0,0.42-4,3.41-4,3.41V23h5"/>
</svg>
