<?xml version="1.0" encoding="iso-8859-1"?>
<!-- Generator: Adobe Illustrator 19.1.0, SVG Export Plug-In . SVG Version: 6.00 Build 0)  -->
<svg version="1.1" id="Layer_1" xmlns="http://www.w3.org/2000/svg" xmlns:xlink="http://www.w3.org/1999/xlink" x="0px" y="0px"
	 viewBox="0 0 32 32" style="enable-background:new 0 0 32 32;" xml:space="preserve">
<path style="fill:none;stroke:#000000;stroke-width:2;stroke-miterlimit:10;" d="M15.825,25c0,0-9.825,0.504-9.825-8.84
	C6,13.305,7.779,11,9.985,11c1.298,0,2.595,0.574,2.595,0.574S14.354,10,17,10c9.639,0,9,14,9,14s-2.302,2-5.85,2
	c-7.267,0-9.55-5.782-9.099-10.242"/>
<path style="fill:none;stroke:#000000;stroke-width:2;stroke-miterlimit:10;" d="M6,6c0,0,3.12,1.941,4.288,4.926"/>
<path style="fill:none;stroke:#000000;stroke-width:2;stroke-miterlimit:10;" d="M10.042,6.367C10.042,6.367,11.469,5,13,5"/>
<path style="fill:none;stroke:#000000;stroke-width:2;stroke-miterlimit:10;" d="M17.996,4c0,1.277,0.362,4.991,3.606,7.436"/>
<path style="fill:none;stroke:#000000;stroke-width:2;stroke-miterlimit:10;" d="M21.132,6.923c1.551-0.752,2.445-1.928,2.445-1.928
	"/>
</svg>
