<?xml version="1.0" encoding="iso-8859-1"?>
<!-- Generator: Adobe Illustrator 21.0.0, SVG Export Plug-In . SVG Version: 6.00 Build 0)  -->
<svg version="1.1" 
	 xmlns="http://www.w3.org/2000/svg" xmlns:xlink="http://www.w3.org/1999/xlink" x="0px" y="0px" viewBox="0 0 32 32"
	 style="enable-background:new 0 0 32 32;" xml:space="preserve">
<path d="M29.553,8.504c-0.055-0.073-0.112-0.145-0.176-0.211c-0.048-0.05-0.096-0.1-0.149-0.145
	c-0.133-0.113-0.276-0.217-0.438-0.297l-7.243-3.566c-0.185-0.091-0.382-0.16-0.585-0.208C20.751,4.027,20.533,4,20.314,4h0
	c-0.972,0-1.891,0.504-2.398,1.316L16.91,6.924l-2.307,3.692l-0.889-1.957c-0.216-0.341-0.511-0.605-0.859-0.777
	c0,0-6.865-3.379-6.865-3.38L5.77,4.395C5.368,4.197,4.95,4.097,4.527,4.097C3.086,4.097,2,5.228,2,6.728V21.76
	c0,1.164,0.732,2.337,1.781,2.853l6.228,3.066C10.442,27.892,10.891,28,11.342,28C12.857,28,14,26.801,14,25.21v-3.444l4,1.969
	l7.419,3.653l0.368,0.182c0.5,0.246,1.008,0.37,1.511,0.37c1.54,0,2.702-1.174,2.702-2.73V9.796C30,9.314,29.83,8.872,29.553,8.504z
	 M12,18.553v2.229v4.428c0,0.495-0.271,0.79-0.658,0.79c-0.137,0-0.289-0.037-0.449-0.116l-6.228-3.066
	C4.299,22.638,4,22.162,4,21.76V9.526V6.728c0-0.396,0.217-0.632,0.527-0.632c0.11,0,0.232,0.03,0.36,0.093l0.218,0.107
	c0.001,0.001,0.002,0.001,0.003,0.001l6.863,3.379c0.012,0.006,0.02,0.017,0.03,0.027V18.553z M14.883,19.972L14,19.537v-0.985
	v-4.429l3.17,6.974L14.883,19.972z M15.595,12.8l3.059-4.895l0.956-1.529C19.76,6.137,20.036,6,20.314,6
	c0.022,0,0.041,0.013,0.063,0.014c0.098,0.008,0.197,0.021,0.288,0.066l7.24,3.564l0,0.001c0.031,0.015,0.034,0.052,0.05,0.08
	c0,0.016,0.003,0.033-0.007,0.048L21.95,19.37L20,22.491L15.595,12.8z M28,25.21c0,0.465-0.284,0.73-0.702,0.73
	c-0.187,0-0.4-0.053-0.627-0.165l-1.889-0.93v0l-2.979-1.466l0.555-0.888L28,13.465V25.21z"/>
</svg>
