<?xml version="1.0" encoding="iso-8859-1"?>
<!-- Generator: Adobe Illustrator 19.1.1, SVG Export Plug-In . SVG Version: 6.00 Build 0)  -->
<svg version="1.1" id="Layer_1" xmlns="http://www.w3.org/2000/svg" xmlns:xlink="http://www.w3.org/1999/xlink" x="0px" y="0px"
	 viewBox="0 0 32 32" style="enable-background:new 0 0 32 32;" xml:space="preserve">
<path d="M24,16c0-2.626-1.026-5.012-2.687-6.798l-1.414,1.414C21.199,12.039,22,13.925,22,16s-0.801,3.961-2.101,5.385l1.414,1.414
	C22.974,21.012,24,18.626,24,16z"/>
<polygon style="fill:none;stroke:#000000;stroke-width:2;stroke-miterlimit:10;" points="9,12 5,12 5,20 9,20 14,25 14,7 "/>
<g>
	<path d="M17.06,13.455C17.638,14.149,18,15.028,18,16s-0.362,1.851-0.94,2.545l1.426,1.426C19.425,18.912,20,17.523,20,16
		s-0.575-2.912-1.514-3.971L17.06,13.455z"/>
</g>
</svg>
