<?xml version="1.0" encoding="utf-8"?>
<!-- Generator: Adobe Illustrator 18.1.1, SVG Export Plug-In . SVG Version: 6.00 Build 0)  -->
<svg version="1.1" id="Layer_1" xmlns="http://www.w3.org/2000/svg" xmlns:xlink="http://www.w3.org/1999/xlink" x="0px" y="0px"
	 viewBox="0 0 32 32" enable-background="new 0 0 32 32" xml:space="preserve">
<circle cx="8" cy="25" r="1"/>
<path fill="none" stroke="#000000" stroke-width="2" stroke-linejoin="round" stroke-miterlimit="10" d="M6,9c0-1.6,1.2-4,4-4"/>
<path fill="none" stroke="#000000" stroke-width="2" stroke-linejoin="round" stroke-miterlimit="10" d="M6,18c0,0,2-0.4,2-3"/>
<path fill="none" stroke="#000000" stroke-width="2" stroke-linejoin="round" stroke-miterlimit="10" d="M26,16c0,0,1-1.7,1-5"/>
<circle fill="none" stroke="#000000" stroke-width="2" stroke-miterlimit="10" cx="17" cy="13" r="2"/>
<circle fill="none" stroke="#000000" stroke-width="2" stroke-miterlimit="10" cx="25" cy="25" r="2"/>
<circle cx="15.5" cy="19.5" r="1.5"/>
<path fill="none" stroke="#000000" stroke-width="2" stroke-miterlimit="10" d="M23,13c0-3.3-2.7-6-6-6s-6,2.7-6,6
	c0,1.5,0.7,2.5,0.7,4c0,1-0.7,2.1-0.7,3.3c0,2.5,2.3,3.7,4.5,3.7C20.8,24,23,17.6,23,13z"/>
</svg>
