<?xml version="1.0" encoding="iso-8859-1"?>
<!-- Generator: Adobe Illustrator 20.0.0, SVG Export Plug-In . SVG Version: 6.00 Build 0)  -->
<svg version="1.1"  xmlns="http://www.w3.org/2000/svg" xmlns:xlink="http://www.w3.org/1999/xlink" x="0px" y="0px"
	 viewBox="0 0 32 32" style="enable-background:new 0 0 32 32;" xml:space="preserve">
<path d="M26.013,7.72l-1.638,1.166C26.008,10.806,27,13.288,27,16c0,6.065-4.935,11-11,11S5,22.065,5,16S9.935,5,16,5
	c2.115,0,4.086,0.61,5.764,1.649l1.747-1.24C21.387,3.898,18.799,3,16,3C8.832,3,3,8.832,3,16s5.832,13,13,13s13-5.832,13-13
	C29,12.856,27.878,9.971,26.013,7.72z"/>
<line style="fill:none;stroke:#000000;stroke-width:2;stroke-miterlimit:10;" x1="22.291" y1="11.476" x2="26.167" y2="8.892"/>
<path d="M16,11c-2.761,0-5,2.239-5,5s2.239,5,5,5s5-2.239,5-5S18.761,11,16,11z M16,18c-1.105,0-2-0.895-2-2c0-1.105,0.895-2,2-2
	s2,0.895,2,2C18,17.105,17.105,18,16,18z"/>
</svg>
