<?xml version="1.0" encoding="iso-8859-1"?>
<!-- Generator: Adobe Illustrator 19.1.1, SVG Export Plug-In . SVG Version: 6.00 Build 0)  -->
<svg version="1.1" id="Layer_1" xmlns="http://www.w3.org/2000/svg" xmlns:xlink="http://www.w3.org/1999/xlink" x="0px" y="0px"
	 viewBox="0 0 32 32" style="enable-background:new 0 0 32 32;" xml:space="preserve">
<path d="M26,5h-5h-1h-0.054l-1,3H17.3L17,9l-2.9-4H14H9.102H8.1H8.053L3,21l5.4,5h5.9l0.9-3.6l0.604,0.575h1.6L20,26h6l3-15L26,5z
	 M21.71,11l1-3H20l0.667-2h4.512l-1.058,5H21.71z M21.323,9l-0.667,2h-3.328l0.584-2H21.323z M8.145,8l0.638-2h4.785l-0.636,2H8.145
	z M4.369,20l1.547-5h1.816l-1.333,4H9.67L9.38,20H4.369z M9.959,18H7.8l-0.024,0.03L8.119,17h2.129L9.959,18z M16.5,21l1.7-6.6h-1.9
	l-1.073,3.555h-3.4L12.9,14.4H11L10.537,16H8.452l0.667-2H6.232l1.606-5h6.445l-0.874,3H23.95l-2.25,9H16.5z"/>
</svg>
