<?xml version="1.0" encoding="utf-8"?>
<!-- Generator: Adobe Illustrator 18.1.1, SVG Export Plug-In . SVG Version: 6.00 Build 0)  -->
<svg version="1.1" id="Layer_1" xmlns="http://www.w3.org/2000/svg" xmlns:xlink="http://www.w3.org/1999/xlink" x="0px" y="0px"
	 viewBox="0 0 32 32" enable-background="new 0 0 32 32" xml:space="preserve">
<path fill="none" stroke="#000000" stroke-width="2" stroke-miterlimit="10" d="M23,26h4c0.6,0,1-0.4,1-1l0-2.8
	c0-1.8-1.2-3.3-2.9-3.8C23,17.7,19.8,17,16,17s-7,0.7-9.1,1.3C5.2,18.8,4,20.4,4,22.2L4,25c0,0.6,0.4,1,1,1h4c0.6,0,1-0.4,1-1v-3.3
	c0,0,2-1.2,6-1.2s6,1.2,6,1.2V25C22,25.6,22.4,26,23,26z"/>
<polyline fill="none" stroke="#000000" stroke-width="2" stroke-miterlimit="10" points="9.3,7.3 16,14 23.7,6.3 "/>
<polyline fill="none" stroke="#000000" stroke-width="2" stroke-miterlimit="10" points="24,12 24,6 18,6 "/>
</svg>
