<?xml version="1.0" encoding="iso-8859-1"?>
<!-- Generator: Adobe Illustrator 22.0.1, SVG Export Plug-In . SVG Version: 6.00 Build 0)  -->
<svg version="1.1" id="&#x421;&#x43B;&#x43E;&#x439;_1"
	 xmlns="http://www.w3.org/2000/svg" xmlns:xlink="http://www.w3.org/1999/xlink" x="0px" y="0px" viewBox="0 0 32 32"
	 style="enable-background:new 0 0 32 32;" xml:space="preserve">
<g>
	<path d="M24,31.4l-6.6-6.7c-0.1-0.1-1.4-1.5-1.4-3.1c0-2.5,2-4.6,4.5-4.6c1.5,0,2.7,0.8,3.5,1.4c0.7-0.6,2-1.4,3.5-1.4
		c2.5,0,4.5,2.1,4.5,4.6c0,1.6-1.3,3-1.5,3.1L24,31.4z M20.5,19c-1.4,0-2.5,1.2-2.5,2.6c0,0.7,0.7,1.5,0.9,1.7l5.1,5.3l5.1-5.3
		c0.2-0.2,0.9-1.1,0.9-1.7c0-1.4-1.1-2.6-2.5-2.6c-1.5,0-2.8,1.4-2.8,1.5L24,21.3l-0.8-0.8C22.9,20.1,21.7,19,20.5,19z"/>
	<g>
		<path d="M22,15.201c0.764,0.188,1.441,0.478,1.979,0.784c0.006-0.004,0.014-0.007,0.021-0.01V13h-2V15.201z"/>
		<path d="M15.878,26H11c-0.551,0-1-0.448-1-1v-1h4.565c-0.268-0.584-0.468-1.264-0.529-2H10v-9H8v12c0,1.654,1.346,3,3,3h6.843
			l-1.868-1.896C15.967,26.095,15.929,26.056,15.878,26z"/>
		<path d="M21,4H11C9.346,4,8,5.346,8,7v1h2V7c0-0.551,0.449-1,1-1h10c0.551,0,1,0.449,1,1v1h2V7C24,5.346,22.654,4,21,4z"/>
	</g>
</g>
<g>
	<path style="fill:none;stroke:#000000;stroke-width:2;stroke-miterlimit:10;" d="M18,12c0,1.102,0.898,2,2,2s2-0.898,2-2"/>
	<path style="fill:none;stroke:#000000;stroke-width:2;stroke-miterlimit:10;" d="M14,12c0,1.102,0.898,2,2,2c1.102,0,2-0.898,2-2"
		/>
	<path style="fill:none;stroke:#000000;stroke-width:2;stroke-miterlimit:10;" d="M10,12c0,1.102,0.898,2,2,2c1.102,0,2-0.898,2-2"
		/>
	<line style="fill:none;stroke:#000000;stroke-width:2;stroke-miterlimit:10;" x1="24" y1="9" x2="8" y2="9"/>
	<path style="fill:none;stroke:#000000;stroke-width:2;stroke-miterlimit:10;" d="M9,8l-3,4c0,1.102,0.898,2,2,2
		c1.102,0,2-0.898,2-2"/>
	<path style="fill:none;stroke:#000000;stroke-width:2;stroke-miterlimit:10;" d="M22,12c0,1.102,0.898,2,2,2c1.102,0,2-0.898,2-2
		l-3-4"/>
</g>
</svg>
