<?xml version="1.0" encoding="iso-8859-1"?>
<!-- Generator: Adobe Illustrator 22.0.1, SVG Export Plug-In . SVG Version: 6.00 Build 0)  -->
<svg version="1.1" id="&#x421;&#x43B;&#x43E;&#x439;_1"
	 xmlns="http://www.w3.org/2000/svg" xmlns:xlink="http://www.w3.org/1999/xlink" x="0px" y="0px" viewBox="0 0 32 32"
	 style="enable-background:new 0 0 32 32;" xml:space="preserve">
<path d="M25,23.602L25.199,24l0.5,1.102l1.199,0.097l0.5,0.102L27,25.602l-0.898,0.796l0.199,1.102l0.097,0.5L26,27.801l-1-0.602
	l-1,0.602L23.602,28l0.097-0.5l0.199-1.102L23,25.602l-0.398-0.301l0.5-0.102l1.199-0.097l0.5-1.102L25,23.602 M25,18.699l-2,4.602
	l-5,0.5l3.699,3.301l-1,4.898L25,29.5l4.301,2.5l-1-4.898L32,23.801l-5-0.5L25,18.699z"/>
<g>
	<polygon points="16,24 9,24 9,22 14,22 	"/>
</g>
<g>
	<path style="fill:none;stroke:#000000;stroke-width:2;stroke-miterlimit:10;" d="M18,12c0,1.102,0.898,2,2,2s2-0.898,2-2"/>
	<path style="fill:none;stroke:#000000;stroke-width:2;stroke-miterlimit:10;" d="M14,12c0,1.102,0.898,2,2,2c1.102,0,2-0.898,2-2"
		/>
	<path style="fill:none;stroke:#000000;stroke-width:2;stroke-miterlimit:10;" d="M10,12c0,1.102,0.898,2,2,2c1.102,0,2-0.898,2-2"
		/>
	<line style="fill:none;stroke:#000000;stroke-width:2;stroke-miterlimit:10;" x1="24" y1="9" x2="8" y2="9"/>
	<path style="fill:none;stroke:#000000;stroke-width:2;stroke-miterlimit:10;" d="M9,8l-3,4c0,1.102,0.898,2,2,2
		c1.102,0,2-0.898,2-2"/>
	<path style="fill:none;stroke:#000000;stroke-width:2;stroke-miterlimit:10;" d="M22,12c0,1.102,0.898,2,2,2c1.102,0,2-0.898,2-2
		l-3-4"/>
</g>
<g>
	<path d="M10,9V7c0-0.551,0.448-1,1-1h10c0.552,0,1,0.449,1,1v2h2V7c0-1.654-1.346-3-3-3H11C9.346,4,8,5.346,8,7v2H10z"/>
	<polygon points="22,13 22,20 24,16 24,13 	"/>
	<path d="M11,26c-0.552,0-1-0.448-1-1V13H8v12c0,1.654,1.346,3,3,3h8l-2-2H11z"/>
</g>
</svg>
