<?xml version="1.0" encoding="iso-8859-1"?>
<!-- Generator: Adobe Illustrator 22.0.1, SVG Export Plug-In . SVG Version: 6.00 Build 0)  -->
<svg version="1.1" id="&#x421;&#x43B;&#x43E;&#x439;_1"
	 xmlns="http://www.w3.org/2000/svg" xmlns:xlink="http://www.w3.org/1999/xlink" x="0px" y="0px" viewBox="0 0 32 32"
	 style="enable-background:new 0 0 32 32;" xml:space="preserve">
<path d="M25,23.602L25.199,24l0.5,1.102l1.199,0.097l0.5,0.102L27,25.602l-0.898,0.796l0.199,1.102l0.097,0.5L26,27.801l-1-0.602
	l-1,0.602L23.602,28l0.097-0.5l0.199-1.102L23,25.602l-0.398-0.301l0.5-0.102l1.199-0.097l0.5-1.102L25,23.602 M25,18.699l-2,4.602
	l-5,0.5l3.699,3.301l-1,4.898L25,29.5l4.301,2.5l-1-4.898L32,23.801l-5-0.5L25,18.699z"/>
<line style="fill:none;stroke:#000000;stroke-width:2;stroke-miterlimit:10;" x1="9" y1="23" x2="16" y2="23"/>
<path style="fill:none;stroke:#000000;stroke-width:2;stroke-miterlimit:10;" d="M11,5v4c0,1.102,0.898,2,2,2c1.102,0,2-0.898,2-2"
	/>
<path style="fill:none;stroke:#000000;stroke-width:2;stroke-miterlimit:10;" d="M15,5v4c0,1.102,0.898,2,2,2s2-0.898,2-2"/>
<path style="fill:none;stroke:#000000;stroke-width:2;stroke-miterlimit:10;" d="M19,5v4c0,1.102,0.898,2,2,2c1.102,0,2-0.898,2-2"
	/>
<path style="fill:none;stroke:#000000;stroke-width:2;stroke-miterlimit:10;" d="M18.208,27H11c-1.105,0-2-0.895-2-2V7
	c0-1.105,0.895-2,2-2h10c1.105,0,2,0.895,2,2v11"/>
</svg>
