<?xml version="1.0" encoding="iso-8859-1"?>
<!-- Generator: Adobe Illustrator 21.0.2, SVG Export Plug-In . SVG Version: 6.00 Build 0)  -->
<svg version="1.1" id="Layer_1" xmlns="http://www.w3.org/2000/svg" xmlns:xlink="http://www.w3.org/1999/xlink" x="0px" y="0px"
	 viewBox="0 0 32 32" style="enable-background:new 0 0 32 32;" xml:space="preserve">
<g>
	<path d="M25,24c-1.224,0-2-0.703-2-1h-2c0,0.306-0.756,1-2,1c-1.224,0-2-0.703-2-1h-2c0,0.217-0.387,0.626-1.053,0.848
		c0.32,0.739,0.497,1.38,0.536,1.926c0.589-0.183,1.107-0.472,1.522-0.829C16.744,25.582,17.815,26,19,26c1.187,0,2.26-0.42,3-1.059
		C22.74,25.58,23.813,26,25,26c2.168,0,4-1.374,4-3h-2C27,23.306,26.244,24,25,24z"/>
	<path d="M25,17c-1.224,0-2-0.703-2-1h-2c0,0.306-0.756,1-2,1c-1.224,0-2-0.703-2-1h-2c0,0.306-0.755,1-2,1c-1.224,0-2-0.703-2-1H9
		c0,0.306-0.755,1-2,1c-1.224,0-2-0.703-2-1H3c0,1.626,1.832,3,4,3c1.187,0,2.26-0.42,3-1.059C10.74,18.58,11.813,19,13,19
		s2.26-0.42,3-1.059C16.74,18.58,17.813,19,19,19s2.26-0.42,3-1.059C22.74,18.58,23.813,19,25,19c2.168,0,4-1.374,4-3h-2
		C27,16.306,26.244,17,25,17z"/>
	<path d="M7,12c1.187,0,2.26-0.42,3-1.059C10.74,11.58,11.813,12,13,12c1.188,0,2.263-0.421,3.003-1.062
		c0.507,0.433,1.167,0.766,1.916,0.931C17.656,11.298,17.5,10.669,17.5,10c0-0.125,0.014-0.26,0.031-0.396
		C17.191,9.393,17,9.147,17,9h-2c0,0.306-0.755,1-2,1c-1.224,0-2-0.703-2-1H9c0,0.306-0.755,1-2,1c-1.224,0-2-0.703-2-1H3
		C3,10.626,4.832,12,7,12z"/>
	<path d="M22,13c1.654,0,3-1.346,3-3c0-1.278-1.522-3.621-2.177-4.568L22,4.24l-0.823,1.191C20.522,6.379,19,8.722,19,10
		C19,11.654,20.346,13,22,13z M22,7.854c0.576,0.969,0.991,1.84,1,2.147C23,10.552,22.551,11,22,11c-0.552,0-1-0.449-1-0.999
		C21.008,9.695,21.424,8.824,22,7.854z"/>
	<path d="M29,9h-2c0,0.152-0.188,0.401-0.53,0.612C26.486,9.745,26.5,9.877,26.5,10c0,0.669-0.156,1.298-0.419,1.869
		C27.741,11.504,29,10.345,29,9z"/>
	<path d="M10,20.24l-0.823,1.191C8.522,22.38,7,24.722,7,26c0,1.654,1.346,3,3,3s3-1.346,3-3c0-1.278-1.522-3.62-2.177-4.568
		L10,20.24z M10,27c-0.551,0-1-0.448-1-0.999c0.008-0.306,0.424-1.177,1-2.147c0.576,0.97,0.991,1.841,1,2.147
		C11,26.552,10.551,27,10,27z"/>
	<path d="M5,23H3c0,1.235,1.059,2.321,2.518,2.774c0.039-0.547,0.217-1.19,0.537-1.93C5.394,23.62,5,23.21,5,23z"/>
</g>
</svg>
