<?xml version="1.0" encoding="iso-8859-1"?>
<!-- Generator: Adobe Illustrator 19.1.1, SVG Export Plug-In . SVG Version: 6.00 Build 0)  -->
<svg version="1.1" id="Layer_1" xmlns="http://www.w3.org/2000/svg" xmlns:xlink="http://www.w3.org/1999/xlink" x="0px" y="0px"
	 viewBox="0 0 32 32" style="enable-background:new 0 0 32 32;" xml:space="preserve">
<path style="fill:none;stroke:#000000;stroke-width:2;stroke-miterlimit:10;" d="M16,28c10.967,0,11-10,11-10h1v-4h-3
	c0-4.971-4.029-9-9-9s-9,4.029-9,9H4v4h1C5,18,5.033,28,16,28z"/>
<ellipse cx="16" cy="7" rx="2" ry="1"/>
<polyline points="25,15 22,15 22,17 19,17 19,15 13,15 13,17 10,17 10,15 7,15 7,18 9,18 9,22 13,22 13,19 19,19 19,22 23,22 23,18 
	25,18 "/>
<path d="M11,9c0,0-0.459,6.242,4,3L11,9z"/>
<path d="M20.987,9c0,0,0.459,6.242-4,3L20.987,9z"/>
</svg>
