<?xml version="1.0" encoding="iso-8859-1"?>
<!-- Generator: Adobe Illustrator 19.1.0, SVG Export Plug-In . SVG Version: 6.00 Build 0)  -->
<svg version="1.1" id="Layer_1" xmlns="http://www.w3.org/2000/svg" xmlns:xlink="http://www.w3.org/1999/xlink" x="0px" y="0px"
	 viewBox="0 0 32 32" style="enable-background:new 0 0 32 32;" xml:space="preserve">
<circle style="fill:none;stroke:#000000;stroke-width:2;stroke-miterlimit:10;" cx="16" cy="8" r="3"/>
<polyline style="fill:none;stroke:#000000;stroke-width:2;stroke-miterlimit:10;" points="12,14 12,22 14,22 14,27 18,27 18,22 
	20,22 20,14 "/>
<path style="fill:none;stroke:#000000;stroke-width:2;stroke-miterlimit:10;" d="M6,12l2.75,3.667
	c0.138,0.184,0.399,0.221,0.583,0.083l3.133-2.35c0.346-0.26,0.767-0.4,1.2-0.4H14.5l1.5,4l1.5-4h0.833c0.433,0,0.854,0.14,1.2,0.4
	l3.133,2.35c0.184,0.138,0.445,0.101,0.583-0.083L26,12"/>
<line style="fill:none;stroke:#000000;stroke-miterlimit:10;" x1="25.997" y1="14.991" x2="23.005" y2="7"/>
</svg>
