<?xml version="1.0" encoding="iso-8859-1"?>
<!-- Generator: Adobe Illustrator 19.1.1, SVG Export Plug-In . SVG Version: 6.00 Build 0)  -->
<svg version="1.1" id="Layer_1" xmlns="http://www.w3.org/2000/svg" xmlns:xlink="http://www.w3.org/1999/xlink" x="0px" y="0px"
	 viewBox="0 0 32 32" style="enable-background:new 0 0 32 32;" xml:space="preserve">
<line style="fill:none;stroke:#000000;stroke-width:2;stroke-miterlimit:10;" x1="10.005" y1="20" x2="10.003" y2="16"/>
<path style="fill:none;stroke:#000000;stroke-width:2;stroke-miterlimit:10;" d="M18,15l0-1c0-1.105,0.895-2,2-2h0
	c1.105,0,2,0.895,2,2l0,2"/>
<path style="fill:none;stroke:#000000;stroke-width:2;stroke-miterlimit:10;" d="M14,15l0-2c0-1.105,0.895-2,2-2h0
	c1.105,0,2,0.895,2,2l0,3"/>
<path style="fill:none;stroke:#000000;stroke-width:2;stroke-miterlimit:10;" d="M22,15L22,15c0-1.105,0.895-2,2-2h0
	c1.105,0,2,0.895,2,2l0.003,7c0,3.314-2.686,6-6,6h-5.285c-1.726,0-3.368-0.743-4.507-2.04l-2.371-2.698
	c-1.067-1.214-1.123-3.013-0.134-4.292L10.003,16V7c0-1.105,0.895-2,2-2h0C13.107,5,14,5.792,14,7l0.003,9"/>
<path d="M11.997,3c-2.209,0-4,1.791-4,4c0,1.862,1.278,3.412,3,3.859V7c0-0.55,0.45-1,1-1s1,0.45,1,1v3.859
	c1.722-0.446,3-1.997,3-3.859C15.997,4.791,14.206,3,11.997,3z"/>
</svg>
