<?xml version="1.0" encoding="iso-8859-1"?>
<!-- Generator: Adobe Illustrator 19.1.0, SVG Export Plug-In . SVG Version: 6.00 Build 0)  -->
<svg version="1.1" id="Layer_1" xmlns="http://www.w3.org/2000/svg" xmlns:xlink="http://www.w3.org/1999/xlink" x="0px" y="0px"
	 viewBox="0 0 32 32" style="enable-background:new 0 0 32 32;" xml:space="preserve">
<path style="fill:none;stroke:#000000;stroke-width:2;stroke-miterlimit:10;" d="M8.527,27C13.036,17.025,22,19,22,19"/>
<path style="fill:none;stroke:#000000;stroke-width:2;stroke-miterlimit:10;" d="M13.513,15.155c0,0,1.176-1.773,0.542-4.735
	C13.251,6.66,9.698,5,9.698,5S6,8.526,6,12.551c0,4.695,4.148,6.713,4.148,6.713s1.326-5.266,7.852-5.266c5.68,0,10,4.002,10,4.002
	s-3.749,6-10,6c-3.915,0-6.148-1.507-6.148-1.507"/>
<path style="fill:none;stroke:#000000;stroke-width:2;stroke-miterlimit:10;" d="M9.675,11.836c0,0-0.687,4.852,0.546,7.36"/>
</svg>
