<?xml version="1.0" encoding="iso-8859-1"?>
<!-- Generator: Adobe Illustrator 19.1.1, SVG Export Plug-In . SVG Version: 6.00 Build 0)  -->
<svg version="1.1" id="Layer_1" xmlns="http://www.w3.org/2000/svg" xmlns:xlink="http://www.w3.org/1999/xlink" x="0px" y="0px"
	 viewBox="0 0 32 32" style="enable-background:new 0 0 32 32;" xml:space="preserve">
<path style="fill:none;stroke:#000000;stroke-width:2;stroke-miterlimit:10;" d="M25.415,5.58c-1.198-1.198-2.965-0.302-3.83,0.562
	c-0.864,0.865-15.847,19.12-15.847,19.12s18.22-14.959,19.111-15.853C25.744,8.516,26.61,6.775,25.415,5.58z"/>
<path style="fill:none;stroke:#000000;stroke-width:2;stroke-miterlimit:10;" d="M15,5c5.681,0,8,3,8,3"/>
<path style="fill:none;stroke:#000000;stroke-width:2;stroke-miterlimit:10;" d="M24.323,9.856C24.323,9.856,25,11.5,25,13
	c0,4.648-7,4.454-7,9c0,5.316,7.325,5,8,5"/>
<path d="M22.015,8.978c-0.395-0.397-0.259-1.179,0.309-1.745c0.567-0.568,1.349-0.705,1.746-0.308
	c0.395,0.396,0.257,1.178-0.309,1.744C23.193,9.237,22.412,9.376,22.015,8.978z"/>
</svg>
