<?xml version="1.0" encoding="iso-8859-1"?>
<!-- Generator: Adobe Illustrator 19.1.1, SVG Export Plug-In . SVG Version: 6.00 Build 0)  -->
<svg version="1.1" id="Layer_1" xmlns="http://www.w3.org/2000/svg" xmlns:xlink="http://www.w3.org/1999/xlink" x="0px" y="0px"
	 viewBox="0 0 32 32" style="enable-background:new 0 0 32 32;" xml:space="preserve">
<g>
	<path d="M3.85,12c0.411,0,0.852,0,1.263,0c-0.004,2.511-0.009,5.022-0.013,7.534c-0.441,0.045-0.926,0.107-1.366,0.157
		c-0.562-1.574-0.909-2.551-1.473-4.207c-0.001,1.683-0.002,2.717-0.004,4.4C1.848,19.937,1.409,19.993,1,20.051
		C1,17.367,1,14.684,1,12c0.462,0,0.751,0,1.213,0c0.545,1.762,1.088,2.871,1.63,4.547C3.846,14.83,3.848,13.717,3.85,12z
		 M9.839,13.244C9.839,12.882,9.83,12.362,9.831,12c-1.171,0-2.328,0-3.499,0c-0.005,2.476-0.009,4.952-0.014,7.428
		c1.17-0.106,2.342-0.193,3.514-0.261c0.001-0.362,0.001-0.882,0.002-1.244c-0.762,0.047-1.492,0.096-2.252,0.147
		c0.001-0.666,0.003-1.216,0.004-1.882c0.555-0.01,1.142-0.001,1.709-0.011c0.001-0.364,0.001-0.886,0.002-1.25
		c-0.562,0.01-1.156,0.011-1.709,0.022c0.001-0.666,0.003-1.031,0.004-1.697C7.941,13.247,9.549,13.247,9.839,13.244z
		 M10.649,13.243c0.056,0,1.269,0.006,1.313,0.006c-0.003,1.996-0.005,3.819-0.008,5.815c0.412-0.015,0.853-0.028,1.266-0.039
		c0.002-1.985,0.004-3.797,0.006-5.782c0.436-0.002,0.885-0.003,1.321-0.004c0-0.354,0-0.88,0.001-1.233c-1.284,0-2.612,0-3.896,0
		C10.65,12.365,10.65,12.883,10.649,13.243z M18.879,12c-1.171,0-2.342,0-3.513,0c0,2.33-0.001,4.661-0.001,6.991
		c0.136-0.001,0.273-0.001,0.411-0.001c0.281,0,0.564,0.001,0.841,0.003c0-0.989-0.001-1.892-0.001-2.881
		c0.069,0,1.545-0.002,1.711,0.001c0-0.355-0.001-0.882-0.001-1.237c-0.156-0.002-1.646,0-1.71,0c0-0.636,0-0.995-0.001-1.63
		c0.137,0,1.923,0,2.265,0.002C18.88,12.893,18.88,12.355,18.879,12z M20.958,17.863c-0.003-2.015,0.008-3.843,0.005-5.858
		c-0.411,0-0.852,0-1.263,0c0.003,2.353-0.008,4.706-0.005,7.059c1.123,0.042,2.303,0.087,3.425,0.165
		c-0.001-0.362-0.001-0.882-0.002-1.244C22.407,17.943,21.668,17.893,20.958,17.863z M24.17,19.306
		c0.412,0.032,0.837,0.066,1.248,0.102c0.002-2.466,0.005-4.935,0-7.402c-0.411,0-0.852,0-1.263,0
		C24.161,14.439,24.165,16.872,24.17,19.306z M29.349,15.798c0.533-1.264,1.078-2.47,1.632-3.792c-0.455,0-0.924,0-1.379,0
		c-0.342,0.817-0.577,1.342-0.905,2.119c-0.305-0.809-0.51-1.332-0.816-2.119c-0.455,0-0.924,0-1.379,0
		c0.505,1.23,0.967,2.464,1.48,3.771c-0.533,1.255-1.076,2.502-1.608,3.706c0.441,0.044,0.897,0.107,1.338,0.156
		c0.316-0.775,0.604-1.372,0.92-2.169c0.316,0.848,0.603,1.504,0.918,2.379c0.44,0.057,1.01,0.139,1.45,0.201
		C30.467,18.627,29.885,17.144,29.349,15.798z"/>
</g>
</svg>
