<?xml version="1.0" encoding="utf-8"?>
<!-- Generator: Adobe Illustrator 21.0.0, SVG Export Plug-In . SVG Version: 6.00 Build 0)  -->
<svg version="1.1" id="Layer_1" xmlns="http://www.w3.org/2000/svg" xmlns:xlink="http://www.w3.org/1999/xlink" x="0px" y="0px"
	 viewBox="0 0 32 32" style="enable-background:new 0 0 32 32;" xml:space="preserve">
<style type="text/css">
	.st0{fill:none;stroke:#000000;stroke-width:2;stroke-miterlimit:10;}
</style>
<path class="st0" d="M28,16V5H4v18h5c0-0.6,0.4-1,1-1l0,0c0.6,0,1,0.4,1,1h3"/>
<circle class="st0" cx="12" cy="12" r="3"/>
<path class="st0" d="M8,19c0-2.2,1.8-4,4-4s4,1.8,4,4"/>
<line class="st0" x1="19" y1="12" x2="25" y2="12"/>
<g>
	<path d="M23,30l-2-2h-3v-3l-2-2l2-2v-3h3l2-2l2,2h3v3l2,2l-2,2v3h-3L23,30z M20,26h2l1,1l1-1h2v-2l1-1l-1-1v-2h-2l-1-1l-1,1h-2v2
		l-1.1,1l1.1,1V26z"/>
</g>
</svg>
