<?xml version="1.0" encoding="iso-8859-1"?>
<!-- Generator: Adobe Illustrator 22.0.1, SVG Export Plug-In . SVG Version: 6.00 Build 0)  -->
<svg version="1.1" id="&#x421;&#x43B;&#x43E;&#x439;_1"
	 xmlns="http://www.w3.org/2000/svg" xmlns:xlink="http://www.w3.org/1999/xlink" x="0px" y="0px" viewBox="0 0 32 32"
	 style="enable-background:new 0 0 32 32;" xml:space="preserve">
<g>
	<path style="fill:none;stroke:#000000;stroke-width:2;stroke-miterlimit:10;" d="M25,27H7c-1.105,0-2-0.895-2-2V7
		c0-1.105,0.895-2,2-2h18c1.105,0,2,0.895,2,2v18C27,26.105,26.105,27,25,27z"/>
	<path style="fill:none;stroke:#000000;stroke-width:2;stroke-miterlimit:10;" d="M21,23h-5l-7-7v-5c0-1.105,0.895-2,2-2h10
		c1.105,0,2,0.895,2,2v10C23,22.105,22.105,23,21,23z"/>
	<circle cx="9.5" cy="22.5" r="1.5"/>
</g>
</svg>
