<?xml version="1.0" encoding="iso-8859-1"?>
<!-- Generator: Adobe Illustrator 22.0.1, SVG Export Plug-In . SVG Version: 6.00 Build 0)  -->
<svg version="1.1" id="&#x421;&#x43B;&#x43E;&#x439;_1"
	 xmlns="http://www.w3.org/2000/svg" xmlns:xlink="http://www.w3.org/1999/xlink" x="0px" y="0px" viewBox="0 0 32 32"
	 style="enable-background:new 0 0 32 32;" xml:space="preserve">
<g>
	<g>
		<path d="M23.83,5.63c-0.58-0.44-1.2-0.83-1.85-1.17c-0.63-0.33-1.3-0.61-2-0.83c-0.7-0.23-1.43-0.4-2.18-0.5
			C17.93,3.39,18,3.69,18,4c0,0.42-0.13,0.81-0.35,1.13c0.69,0.1,1.36,0.26,2,0.49c0.64,0.22,1.25,0.5,1.82,0.84
			c0.59,0.33,1.14,0.72,1.66,1.16C25.5,9.64,27,12.65,27,16c0,6.07-4.93,11-11,11S5,22.07,5,16c0-3.35,1.5-6.36,3.87-8.38
			c0.52-0.44,1.07-0.83,1.66-1.16c0.57-0.34,1.18-0.62,1.82-0.84c0.64-0.23,1.31-0.39,2-0.49C14.13,4.81,14,4.42,14,4
			c0-0.31,0.07-0.61,0.2-0.87c-0.75,0.1-1.48,0.27-2.18,0.5c-0.7,0.22-1.37,0.5-2,0.83C9.37,4.8,8.75,5.19,8.17,5.63
			C5.03,8,3,11.77,3,16c0,7.17,5.83,13,13,13c7.17,0,13-5.83,13-13C29,11.77,26.97,8,23.83,5.63z"/>
	</g>
	<g>
		<path d="M21.99,9.29c-0.5-0.45-1.05-0.84-1.64-1.17c-0.52,0.56-1.16,1.02-1.87,1.34c0.73,0.27,1.4,0.66,1.99,1.16
			C22.02,11.9,23,13.84,23,16c0,3.86-3.14,7-7,7s-7-3.14-7-7c0-2.16,0.98-4.1,2.53-5.38c0.59-0.5,1.26-0.89,1.99-1.16
			c-0.71-0.32-1.35-0.78-1.87-1.34c-0.59,0.33-1.14,0.72-1.64,1.17C8.16,10.94,7,13.34,7,16c0,4.96,4.04,9,9,9c4.96,0,9-4.04,9-9
			C25,13.34,23.84,10.94,21.99,9.29z M16,7c-0.78,0-1.54,0.1-2.27,0.29C14.38,7.74,15.16,8,16,8c0.84,0,1.62-0.26,2.27-0.71
			C17.54,7.1,16.78,7,16,7z"/>
	</g>
	<g>
		<path d="M19.98,3.63c-0.7-0.23-1.43-0.4-2.18-0.5C17.93,3.39,18,3.69,18,4c0,0.42-0.13,0.81-0.35,1.13C17.29,5.65,16.68,6,16,6
			s-1.29-0.35-1.65-0.87C14.13,4.81,14,4.42,14,4c0-0.31,0.07-0.61,0.2-0.87c-0.75,0.1-1.48,0.27-2.18,0.5C12.01,3.75,12,3.88,12,4
			c0,0.58,0.12,1.12,0.35,1.62c0.29,0.68,0.78,1.26,1.38,1.67C14.38,7.74,15.16,8,16,8c0.84,0,1.62-0.26,2.27-0.71
			c0.6-0.41,1.09-0.99,1.38-1.67C19.88,5.12,20,4.58,20,4C20,3.88,19.99,3.75,19.98,3.63z"/>
	</g>
	<g>
		<path d="M10.02,4.46C9.37,4.8,8.75,5.19,8.17,5.63C8.31,6.33,8.55,7,8.87,7.62c0.52-0.44,1.07-0.83,1.66-1.16
			C10.25,5.84,10.07,5.17,10.02,4.46z M21.98,4.46c-0.05,0.71-0.23,1.38-0.51,2c0.59,0.33,1.14,0.72,1.66,1.16
			c0.32-0.62,0.56-1.29,0.7-1.99C23.25,5.19,22.63,4.8,21.98,4.46z M18.48,9.46C17.73,9.81,16.89,10,16,10s-1.73-0.19-2.48-0.54
			c-0.71-0.32-1.35-0.78-1.87-1.34c-0.59,0.33-1.14,0.72-1.64,1.17c0.45,0.51,0.95,0.96,1.52,1.33C12.8,11.49,14.35,12,16,12
			c1.65,0,3.2-0.51,4.47-1.38c0.57-0.37,1.07-0.82,1.52-1.33c-0.5-0.45-1.05-0.84-1.64-1.17C19.83,8.68,19.19,9.14,18.48,9.46z"/>
	</g>
</g>
</svg>
