<?xml version="1.0" encoding="iso-8859-1"?>
<!-- Generator: Adobe Illustrator 19.1.1, SVG Export Plug-In . SVG Version: 6.00 Build 0)  -->
<svg version="1.1" id="Layer_1" xmlns="http://www.w3.org/2000/svg" xmlns:xlink="http://www.w3.org/1999/xlink" x="0px" y="0px"
	 viewBox="0 0 32 32" style="enable-background:new 0 0 32 32;" xml:space="preserve">
<path style="fill:none;stroke:#000000;stroke-width:2;stroke-miterlimit:10;" d="M16,28c-3.65,0-7.542-3.751-8.866-7.639
	c-0.008,0-0.015,0.002-0.023,0.002C6.24,18.14,6,14.495,6,13.818C6,8.396,10.477,4,16,4s10,4.396,10,9.818
	c0,0.677-0.24,4.321-1.111,6.545c-0.008,0-0.015-0.002-0.023-0.002C23.542,24.249,19.65,28,16,28z"/>
<path style="fill:none;stroke:#000000;stroke-width:2;stroke-miterlimit:10;" d="M14,9c-5.813,0-8,4-8,4"/>
<path style="fill:none;stroke:#000000;stroke-width:2;stroke-miterlimit:10;" d="M16,17l-4.667,1c0,0-2.333,0.055-2.333-2
	c0-3.923,7-4,7-4s7,0.077,7,4c0,2.055-2.333,2-2.333,2L16,17z"/>
<path style="fill:none;stroke:#000000;stroke-width:2;stroke-miterlimit:10;" d="M17,24c4.729,0,8-4,8-4"/>
<path style="fill:none;stroke:#000000;stroke-width:2;stroke-miterlimit:10;" d="M7,18c0,0-3,1.28-3,7"/>
<line style="fill:none;stroke:#000000;stroke-width:2;stroke-miterlimit:10;" x1="7" y1="27" x2="7" y2="20"/>
<circle cx="13" cy="15" r="1"/>
<circle cx="19" cy="15" r="1"/>
</svg>
