<?xml version="1.0" encoding="utf-8"?>
<!-- Generator: Adobe Illustrator 18.0.0, SVG Export Plug-In . SVG Version: 6.00 Build 0)  -->
<svg version="1.1" id="Layer_1" xmlns="http://www.w3.org/2000/svg" xmlns:xlink="http://www.w3.org/1999/xlink" x="0px" y="0px"
	 viewBox="0 0 32 32" enable-background="new 0 0 32 32" xml:space="preserve">
<polyline fill="none" stroke="#000000" stroke-width="2" stroke-miterlimit="10" points="21,19 17,19 17,13 21,13 "/>
<line fill="none" stroke="#000000" stroke-width="2" stroke-miterlimit="10" x1="17" y1="16" x2="20" y2="16"/>
<polyline id="XMLID_17_" fill="none" stroke="#000000" stroke-width="2" stroke-miterlimit="10" points="10,20 10,13 10.5,13 12,15 
	13.5,13 14,13 14,20 "/>
<polyline fill="none" stroke="#000000" stroke-width="2" stroke-miterlimit="10" points="25,22 25,28 7,28 7,22 "/>
<polyline fill="none" stroke="#000000" stroke-width="2" stroke-miterlimit="10" points="7,10 7,4 25,4 25,10 "/>
<polyline fill="none" stroke="#000000" stroke-width="2" stroke-miterlimit="10" points="27,20 27,19 25,13 25,13 23,19 23,20 "/>
<line fill="none" stroke="#000000" stroke-width="2" stroke-miterlimit="10" x1="23.4" y1="18" x2="26.6" y2="18"/>
<line id="XMLID_19_" fill="none" stroke="#000000" stroke-width="2" stroke-miterlimit="10" x1="4" y1="12" x2="4" y2="20"/>
<line id="XMLID_18_" fill="none" stroke="#000000" stroke-width="2" stroke-miterlimit="10" x1="7" y1="12" x2="7" y2="20"/>
<line fill="none" stroke="#000000" stroke-width="2" stroke-miterlimit="10" x1="4" y1="14" x2="7" y2="18"/>
</svg>
