<?xml version="1.0" encoding="iso-8859-1"?>
<!-- Generator: Adobe Illustrator 19.1.0, SVG Export Plug-In . SVG Version: 6.00 Build 0)  -->
<svg version="1.1" id="Layer_1" xmlns="http://www.w3.org/2000/svg" xmlns:xlink="http://www.w3.org/1999/xlink" x="0px" y="0px"
	 viewBox="0 0 32 32" style="enable-background:new 0 0 32 32;" xml:space="preserve">
<path id="XMLID_2_" style="fill:none;stroke:#000000;stroke-width:2;stroke-miterlimit:10;" d="M16,11c-0.032-4.262,3-6,3-6"/>
<path style="fill:none;stroke:#000000;stroke-width:2;stroke-miterlimit:10;" d="M14.16,6.142c1.71,1.364,2.039,3.797,2.039,3.797
	s-2.445,0.222-4.155-1.142S10.005,5,10.005,5S12.45,4.778,14.16,6.142z"/>
<line style="fill:none;stroke:#000000;stroke-width:2;stroke-miterlimit:10;" x1="3" y1="3" x2="29" y2="29"/>
<g>
	<path d="M10.015,11.387C10.624,11.14,11.294,11,12,11c1.239,0,2.43,0.43,3.355,1.21L16,12.755l0.645-0.545
		C17.57,11.43,18.761,11,20,11c2.757,0,5,2.085,5,4.647c0,2.858-1.717,5.481-3.507,7.218l1.407,1.407
		c2.189-2.131,4.1-5.281,4.1-8.625C27,11.982,23.86,9,20,9c-1.436,0-2.83,0.421-4,1.198C14.83,9.421,13.436,9,12,9
		c-1.268,0-2.455,0.327-3.482,0.889L10.015,11.387z"/>
	<path d="M19.943,24.143C19.149,24.687,18.443,25,18,25c-0.319,0-0.637-0.051-0.943-0.149c-0.346-0.112-0.701-0.168-1.057-0.168
		c-0.355,0-0.71,0.056-1.055,0.168C14.637,24.949,14.319,25,14,25c-1.688,0-7-3.42-7-9.353c0-1.206,0.51-2.297,1.323-3.124
		l-1.419-1.419C5.727,12.294,5,13.89,5,15.647C5,22.711,11.251,27,14,27c0.528,0,1.053-0.083,1.561-0.247
		c0.293-0.095,0.587-0.093,0.88,0C16.947,26.917,17.472,27,18,27c0.903,0,2.121-0.526,3.37-1.431L19.943,24.143z"/>
</g>
</svg>
