<?xml version="1.0" encoding="iso-8859-1"?>
<!-- Generator: Adobe Illustrator 19.1.0, SVG Export Plug-In . SVG Version: 6.00 Build 0)  -->
<svg version="1.1" id="Layer_1" xmlns="http://www.w3.org/2000/svg" xmlns:xlink="http://www.w3.org/1999/xlink" x="0px" y="0px"
	 viewBox="0 0 32 32" style="enable-background:new 0 0 32 32;" xml:space="preserve">
<line style="fill:none;stroke:#000000;stroke-width:2;stroke-miterlimit:10;" x1="3" y1="3" x2="29" y2="29"/>
<circle id="XMLID_5892_" cx="18" cy="13" r="1"/>
<g>
	<path d="M11.013,12.358L12,10.113v-2.91c1.223,0.539,1.61,1.968,1.629,2.038L13.817,10h3.879l2.179,1.455l4.835,1.583l-0.703,1.972
		C23.581,16.2,22.445,17,21.181,17h-4.948l-0.116,0.462l1.647,1.647L17.791,19h3.39c2.108,0,4.001-1.333,4.709-3.318l1.4-3.919
		l-6.421-2.05l-2.062-1.377C18.477,8.116,18.094,8,17.697,8h-2.391C14.729,6.683,13.38,5,11,5h-1v4.693l-0.505,1.148L11.013,12.358z
		"/>
	<polygon points="15.548,19.722 14.429,24.171 8.211,18.73 10.149,14.323 8.632,12.805 5.789,19.27 15.571,27.829 17.195,21.369 	
		"/>
</g>
</svg>
