<?xml version="1.0" encoding="iso-8859-1"?>
<!-- Generator: Adobe Illustrator 19.1.0, SVG Export Plug-In . SVG Version: 6.00 Build 0)  -->
<svg version="1.1" id="Layer_1" xmlns="http://www.w3.org/2000/svg" xmlns:xlink="http://www.w3.org/1999/xlink" x="0px" y="0px"
	 viewBox="0 0 32 32" style="enable-background:new 0 0 32 32;" xml:space="preserve">
<line style="fill:none;stroke:#000000;stroke-width:2;stroke-miterlimit:10;" x1="3" y1="3" x2="29" y2="29"/>
<g>
	<path d="M19.826,24H5c-0.551,0-1-0.448-1-1V13h4.826l-2-2H4V9c0-0.231,0.091-0.434,0.223-0.603L2.801,6.975C2.308,7.51,2,8.217,2,9
		v14c0,1.654,1.346,3,3,3h16.826L19.826,24z"/>
	<path d="M27,6H5C4.893,6,4.791,6.021,4.686,6.032L6.654,8H27c0.551,0,1,0.448,1,1v2H9.654l2,2H28v10c0,0.552-0.449,1-1,1h-4.346
		l2,2H27c1.654,0,3-1.346,3-3V9C30,7.346,28.654,6,27,6z"/>
</g>
</svg>
