<?xml version="1.0" encoding="iso-8859-1"?>
<!-- Generator: Adobe Illustrator 19.1.0, SVG Export Plug-In . SVG Version: 6.00 Build 0)  -->
<svg version="1.1" id="Layer_1" xmlns="http://www.w3.org/2000/svg" xmlns:xlink="http://www.w3.org/1999/xlink" x="0px" y="0px"
	 viewBox="0 0 32 32" style="enable-background:new 0 0 32 32;" xml:space="preserve">
<circle cx="22.5" cy="16.5" r="1.5"/>
<line style="fill:none;stroke:#000000;stroke-width:2;stroke-miterlimit:10;" x1="3" y1="3" x2="29" y2="29"/>
<g>
	<path d="M28.943,15.668c-0.094-0.266-2.305-6.334-8.436-6.655C19.151,7.462,15.83,6,12,6h-1.495l0.571,1.382
		c0.399,0.969,0.881,2.77,0.789,3.9c-0.382,0.229-0.772,0.497-1.164,0.79l1.422,1.422c1.403-1.004,2.895-1.616,4.459-1.823
		l-0.264-1.982c-0.716,0.095-1.556,0.282-2.474,0.63c-0.065-0.768-0.234-1.556-0.427-2.243c2.935,0.317,5.185,1.554,5.729,2.445
		L19.438,11H20c4.529,0,6.526,4.056,6.964,5.098c-0.234,1.112-1.414,5.406-5.648,6.59l1.565,1.565
		c5.078-2.107,6.095-8.024,6.106-8.096l0.04-0.25L28.943,15.668z"/>
	<path d="M18.8,23h-0.171l-0.281,0.242c-0.496,0.427-1.561,1.191-2.479,1.555c0.003-0.568,0.091-1.109,0.144-1.344l0.19-0.847
		l-0.81-0.309c-2.44-0.931-4.512-2.652-5.636-3.952l-0.689-0.79l-0.76,0.723c-0.015,0.015-1.313,1.23-3.203,1.61
		c0.234-1.32,0.781-2.425,0.789-2.439l0.22-0.44l-0.212-0.442C5.895,16.552,5.35,15.405,5.11,14.11
		c1.905,0.376,3.175,1.589,3.187,1.601l0.752,0.743l0.7-0.791c0.275-0.311,0.555-0.601,0.838-0.876l-1.41-1.41
		c-0.091,0.088-0.182,0.168-0.273,0.261C7.953,12.96,6.214,12,4,12H3v1c0,1.593,0.588,3.229,0.904,3.993C3.584,17.744,3,19.343,3,21
		v1h1c2.191,0,3.943-0.967,4.9-1.643c0.947,0.95,2.678,2.448,5.022,3.496c-0.073,0.646-0.108,1.562,0.109,2.397L14.227,27H15
		c1.666,0,3.618-1.412,4.365-2.006c0.458-0.014,0.888-0.062,1.304-0.125L18.8,23z"/>
</g>
</svg>
