<?xml version="1.0" encoding="iso-8859-1"?>
<!-- Generator: Adobe Illustrator 19.1.1, SVG Export Plug-In . SVG Version: 6.00 Build 0)  -->
<svg version="1.1" id="Layer_1" xmlns="http://www.w3.org/2000/svg" xmlns:xlink="http://www.w3.org/1999/xlink" x="0px" y="0px"
	 viewBox="0 0 32 32" style="enable-background:new 0 0 32 32;" xml:space="preserve">
<circle style="fill:none;stroke:#000000;stroke-width:2;stroke-miterlimit:10;" cx="15" cy="15" r="11"/>
<line style="fill:none;stroke:#000000;stroke-width:2;stroke-miterlimit:10;" x1="28" y1="28" x2="23" y2="23"/>
<line style="fill:none;stroke:#000000;stroke-width:2;stroke-miterlimit:10;" x1="22.7" y1="7.3" x2="7.3" y2="22.7"/>
<rect x="14" y="6" width="2" height="3"/>
<rect x="14" y="21" width="2" height="3"/>
<g>
	<polygon points="11,20 11,20.414 11.414,20 	"/>
	<polygon points="18.586,10 19,10 19,9.586 	"/>
	<path d="M11.824,15.348l1.48-1.48C12.545,13.584,12,12.857,12,12c0-1.103,0.897-2,2-2h3.172L19,8.172V8h-5c-2.206,0-4,1.794-4,4
		C10,13.403,10.729,14.634,11.824,15.348z"/>
	<path d="M18.176,14.652l-1.48,1.48C17.455,16.416,18,17.143,18,18c0,1.103-0.897,2-2,2h-3.172L11,21.828V22h5c2.206,0,4-1.794,4-4
		C20,16.597,19.271,15.366,18.176,14.652z"/>
</g>
</svg>
