<?xml version="1.0" encoding="utf-8"?>
<!-- Generator: Adobe Illustrator 18.1.1, SVG Export Plug-In . SVG Version: 6.00 Build 0)  -->
<svg version="1.1" id="Layer_1" xmlns="http://www.w3.org/2000/svg" xmlns:xlink="http://www.w3.org/1999/xlink" x="0px" y="0px"
	 viewBox="0 0 32 32" enable-background="new 0 0 32 32" xml:space="preserve">
<path d="M18,27c0,1.1-0.9,2-2,2c-1.1,0-2-0.9-2-2H18z"/>
<g>
	<path d="M9.2,10.4c0.7-2.8,3.1-5,6-5.3c4.2-0.5,7.8,2.8,7.8,7c0,2-0.9,3.9-2.4,5.3c-0.8,0.7-1.5,1.6-1.9,2.6l1.5,1.5
		c0.3-1,0.9-1.9,1.7-2.6c1.9-1.7,3.1-4.2,3.1-6.8c0-5.3-4.6-9.6-10-8.9c-3.3,0.4-6.2,2.7-7.4,5.7L9.2,10.4z"/>
	<path d="M18,22H14c-0.2-1.8-1.1-3.5-2.5-4.7c-1.3-1.1-2.1-2.6-2.4-4.3l-2-2c-0.3,3,0.8,5.9,3.1,7.8c1.1,1,1.8,2.4,1.8,3.9V24v4h8
		v-4v0L18,22z M18,26h-4v-2h4V26z"/>
</g>
<line fill="none" stroke="#000000" stroke-width="2" stroke-miterlimit="10" x1="3" y1="3" x2="29" y2="29"/>
</svg>
