<?xml version="1.0" encoding="iso-8859-1"?>
<!-- Generator: Adobe Illustrator 19.1.0, SVG Export Plug-In . SVG Version: 6.00 Build 0)  -->
<svg version="1.1" id="Layer_1" xmlns="http://www.w3.org/2000/svg" xmlns:xlink="http://www.w3.org/1999/xlink" x="0px" y="0px"
	 viewBox="0 0 32 32" style="enable-background:new 0 0 32 32;" xml:space="preserve">
<line style="fill:none;stroke:#000000;stroke-width:2;stroke-miterlimit:10;" x1="11" y1="27" x2="21" y2="27"/>
<line style="fill:none;stroke:#000000;stroke-width:2;stroke-miterlimit:10;" x1="16" y1="27" x2="16" y2="23"/>
<line style="fill:none;stroke:#000000;stroke-width:2;stroke-miterlimit:10;" x1="3" y1="3" x2="29" y2="29"/>
<g>
	<path d="M13,14.372V6h6v12h-2.372l2,2H19c1.103,0,2-0.897,2-2V6c0-1.103-0.897-2-2-2h-6c-1.103,0-2,0.897-2,2v6.372L13,14.372z"/>
	<path d="M21.886,23.258C23.74,22.236,25,20.263,25,18v-4h-2v4c0,1.722-1.1,3.18-2.629,3.743L21.886,23.258z"/>
	<path d="M13,20h2.8l-2-2H13v-0.8l-2-2V18C11,19.103,11.897,20,13,20z"/>
	<path d="M17.8,22H13c-2.206,0-4-1.794-4-4v-4H7v4c0,3.309,2.691,6,6,6h6c0.254,0,0.503-0.021,0.748-0.052L17.8,22z"/>
</g>
</svg>
