<?xml version="1.0" encoding="iso-8859-1"?>
<!-- Generator: Adobe Illustrator 19.1.0, SVG Export Plug-In . SVG Version: 6.00 Build 0)  -->
<svg version="1.1" id="Layer_1" xmlns="http://www.w3.org/2000/svg" xmlns:xlink="http://www.w3.org/1999/xlink" x="0px" y="0px"
	 viewBox="0 0 32 32" style="enable-background:new 0 0 32 32;" xml:space="preserve">
<line style="fill:none;stroke:#000000;stroke-width:2;stroke-miterlimit:10;" x1="3" y1="3" x2="29" y2="29"/>
<g>
	<path d="M12.07,8.55l-1.822,3.071l1.459,1.459l2.652-4.471l0.14-0.335V7h-1C13.224,7,13,6.775,13,6.5S13.224,6,13.5,6h5
		C18.776,6,19,6.225,19,6.5S18.776,7,18.5,7l-1,0.1v1.274l3.081,5.193C20.855,14.029,21,14.559,21,15.098v7.274l2,2v-9.274
		c0-0.897-0.242-1.78-0.7-2.551L19.93,8.55C20.576,8.098,21,7.348,21,6.5C21,5.121,19.878,4,18.5,4h-5C12.122,4,11,5.121,11,6.5
		C11,7.348,11.424,8.098,12.07,8.55z"/>
	<path d="M20.966,25.166C20.884,25.636,20.492,26,20,26h-8c-0.551,0-1-0.448-1-1v-9.8l-1.72-1.72C9.102,14,9,14.544,9,15.098V25
		c0,1.654,1.346,3,3,3h8c1.031,0,1.942-0.523,2.482-1.318L20.966,25.166z"/>
</g>
</svg>
