<?xml version="1.0" encoding="iso-8859-1"?>
<!-- Generator: Adobe Illustrator 19.1.0, SVG Export Plug-In . SVG Version: 6.00 Build 0)  -->
<svg version="1.1" id="Layer_1" xmlns="http://www.w3.org/2000/svg" xmlns:xlink="http://www.w3.org/1999/xlink" x="0px" y="0px"
	 viewBox="0 0 32 32" style="enable-background:new 0 0 32 32;" xml:space="preserve">
<line style="fill:none;stroke:#000000;stroke-width:2;stroke-miterlimit:10;" x1="3" y1="3" x2="29" y2="29"/>
<g>
	<path d="M12.143,13.515C12.316,13.213,12.628,13,13,13h6c0.551,0,1,0.448,1,1v7.372l2,2V14c0-1.654-1.346-3-3-3h-6
		c-0.922,0-1.738,0.427-2.289,1.083L12.143,13.515z"/>
	<polygon points="20,24.2 20,26 12,26 12,16.2 10,14.2 10,28 22,28 22,26.2 	"/>
</g>
<path style="fill:none;stroke:#000000;stroke-width:2;stroke-miterlimit:10;" d="M19,12h-6v-2c0-0.552,0.448-1,1-1h4
	c0.552,0,1,0.448,1,1V12z"/>
<polygon points="15.203,4 14.406,9.645 17.594,9.645 16.797,4 "/>
</svg>
