<?xml version="1.0" encoding="iso-8859-1"?>
<!-- Generator: Adobe Illustrator 19.1.0, SVG Export Plug-In . SVG Version: 6.00 Build 0)  -->
<svg version="1.1" id="Layer_1" xmlns="http://www.w3.org/2000/svg" xmlns:xlink="http://www.w3.org/1999/xlink" x="0px" y="0px"
	 viewBox="0 0 32 32" style="enable-background:new 0 0 32 32;" xml:space="preserve">
<path id="XMLID_399_" style="fill:none;stroke:#000000;stroke-width:2;stroke-linecap:round;stroke-linejoin:round;stroke-miterlimit:10;" d="
	M19.17,7.064c0,1.14,0.924,2.064,2.063,2.064c1.142,0,2.065-0.925,2.065-2.064C23.298,5.925,22.375,5,21.233,5
	C20.094,5,19.17,5.925,19.17,7.064z"/>
<line style="fill:none;stroke:#000000;stroke-width:2;stroke-miterlimit:10;" x1="3" y1="3" x2="29" y2="29"/>
<g>
	<path d="M11.501,12.847l2.604-2.826c0.03-0.031,0.077-0.036,0.114-0.014l1.587,1.061l-2.324,3.253
		c-0.073,0.102-0.131,0.211-0.187,0.319l5.849,5.849c-0.098-0.257-0.23-0.503-0.434-0.707l-3.536-3.536
		c-0.205-0.205-0.232-0.528-0.063-0.763l2.359-3.303l0.808,0.54l1.593,2.389C20.243,15.667,20.865,16,21.535,16H26v-2h-4.465
		l-1.813-2.721l-4.39-2.934c-0.862-0.578-1.997-0.442-2.698,0.319l-2.548,2.766L11.501,12.847z"/>
	<path d="M13.703,17.876L11.586,20H7v2h4.586c0.526,0,1.042-0.214,1.415-0.587l2.116-2.123L13.703,17.876z"/>
	<polygon points="17.205,21.378 14.389,27 16.626,27 18.695,22.869 	"/>
</g>
</svg>
