<?xml version="1.0" encoding="iso-8859-1"?>
<!-- Generator: Adobe Illustrator 19.1.0, SVG Export Plug-In . SVG Version: 6.00 Build 0)  -->
<svg version="1.1" id="Layer_1" xmlns="http://www.w3.org/2000/svg" xmlns:xlink="http://www.w3.org/1999/xlink" x="0px" y="0px"
	 viewBox="0 0 32 32" style="enable-background:new 0 0 32 32;" xml:space="preserve">
<line style="fill:none;stroke:#000000;stroke-width:2;stroke-miterlimit:10;" x1="3" y1="3" x2="29" y2="29"/>
<g>
	<path d="M16.695,20.868C16.477,20.95,16.245,21,16,21h-1.571l0.231-1.853c0.245,0.176,0.497,0.314,0.748,0.434l-2.505-2.505
		l-0.515,4.13c-0.611,0.289-1.094,0.857-1.266,1.559L11,26.398c-0.002,0.101-0.023,0.233-0.179,0.361
		c-0.235,0.197-0.644,0.285-0.993,0.23L6.21,26.293c-0.317-0.049-0.562-0.197-0.728-0.441c-0.202-0.3-0.26-0.722-0.161-1.138
		l1.627-6.302c0.266-0.768,0.143-1.62-0.328-2.281c-0.449-0.631-1.167-1.02-1.937-1.054c0.788-0.543,1.182-1.404,1.296-1.951L6,11
		h0.826l-3-3H3l1,2v2.793c-0.081,0.262-0.328,0.785-1,0.785H2v1c0,0.994,1.025,2.496,2.571,2.496c0.23,0,0.362,0.136,0.42,0.217
		c0.057,0.08,0.143,0.248,0.044,0.544l-1.654,6.397c-0.232,0.978-0.07,1.976,0.443,2.738c0.478,0.706,1.219,1.168,2.047,1.292
		l3.604,0.695c0.185,0.031,0.371,0.046,0.558,0.046c0.766,0,1.523-0.253,2.068-0.706c0.566-0.471,0.886-1.133,0.899-1.854
		l0.09-3.271C13.139,23.073,13.232,23,13.297,23h0.116h0.767H16c0.803,0,1.548-0.243,2.175-0.651L16.695,20.868z"/>
	<path d="M29,9V8h-2v1H7.654l3,3H16v-1h13v1h-1h-0.612H18v2h8.395l-0.496,1H13.654l2,2H18v2c0,0.107-0.015,0.211-0.032,0.314
		l1.55,1.55C19.815,20.304,20,19.677,20,19v-2h7.139l1.489-3H31V9H29z"/>
</g>
</svg>
