<?xml version="1.0" encoding="iso-8859-1"?>
<!-- Generator: Adobe Illustrator 22.0.1, SVG Export Plug-In . SVG Version: 6.00 Build 0)  -->
<svg version="1.1" id="&#x421;&#x43B;&#x43E;&#x439;_1"
	 xmlns="http://www.w3.org/2000/svg" xmlns:xlink="http://www.w3.org/1999/xlink" x="0px" y="0px" viewBox="0 0 32 32"
	 style="enable-background:new 0 0 32 32;" xml:space="preserve">
<rect x="12" y="25" width="2" height="2"/>
<rect x="15" y="25" width="2" height="2"/>
<rect x="18" y="25" width="2" height="2"/>
<path style="fill:none;stroke:#000000;stroke-width:2;stroke-miterlimit:10;" d="M8,14c0,4.418,3.582,8,8,8s8-3.582,8-8"/>
<path d="M20.91,13.06c-0.02-0.47-0.05-0.97-0.09-1.49c-0.1-1.39-0.23-2.96-0.4-4.67L20.32,6h-8.64l-0.1,0.9
	c-0.17,1.71-0.3,3.28-0.4,4.67c-0.04,0.52-0.07,1.02-0.09,1.49l-0.02,0.37l0.24,0.3C12.45,15.17,14.16,16,16,16s3.55-0.83,4.69-2.27
	l0.24-0.3L20.91,13.06z"/>
<path d="M18,19h-4c-0.552,0-1-0.448-1-1v0c0-0.552,0.448-1,1-1h4c0.552,0,1,0.448,1,1v0C19,18.552,18.552,19,18,19z"/>
<path style="fill:none;stroke:#000000;stroke-width:2;stroke-miterlimit:10;" d="M24,16.063c0-4.375-0.25-7.125-1-10
	c-0.46-1.763-1.343-3-3-3h-3.958h0h-4c-1.657,0-2.54,1.237-3,3c-0.75,2.875-1,5.625-1,10V16c0,4.375,0.25,7.125,1,10
	c0.46,1.763,1.343,3,3,3h4h0H20c1.657,0,2.54-1.237,3-3c0.75-2.875,1-5.625,1-10V16.063z"/>
</svg>
