<?xml version="1.0" encoding="iso-8859-1"?>
<!-- Generator: Adobe Illustrator 19.1.1, SVG Export Plug-In . SVG Version: 6.00 Build 0)  -->
<svg version="1.1" id="Layer_1" xmlns="http://www.w3.org/2000/svg" xmlns:xlink="http://www.w3.org/1999/xlink" x="0px" y="0px"
	 viewBox="0 0 32 32" style="enable-background:new 0 0 32 32;" xml:space="preserve">
<line id="XMLID_5_" style="fill:none;stroke:#000000;stroke-width:2;stroke-miterlimit:10;" x1="5" y1="12" x2="5" y2="20"/>
<line id="XMLID_4_" style="fill:none;stroke:#000000;stroke-width:2;stroke-miterlimit:10;" x1="8" y1="12" x2="8" y2="20"/>
<line id="XMLID_3_" style="fill:none;stroke:#000000;stroke-width:2;stroke-miterlimit:10;" x1="5" y1="14" x2="8" y2="18"/>
<line id="XMLID_8_" style="fill:none;stroke:#000000;stroke-width:2;stroke-miterlimit:10;" x1="23" y1="12" x2="23" y2="20"/>
<line id="XMLID_7_" style="fill:none;stroke:#000000;stroke-width:2;stroke-miterlimit:10;" x1="26" y1="12" x2="26" y2="20"/>
<line id="XMLID_6_" style="fill:none;stroke:#000000;stroke-width:2;stroke-miterlimit:10;" x1="23" y1="14" x2="26" y2="18"/>
<path style="fill:none;stroke:#000000;stroke-width:2;stroke-miterlimit:10;" d="M12.5,13L12.5,13c-0.828,0-1.5,0.672-1.5,1.5v3
	c0,0.828,0.672,1.5,1.5,1.5h0c0.828,0,1.5-0.672,1.5-1.5v-3C14,13.672,13.328,13,12.5,13z"/>
<rect x="1" y="8" style="fill:none;stroke:#000000;stroke-width:2;stroke-miterlimit:10;" width="30" height="16"/>
<path id="XMLID_127_" style="fill:none;stroke:#000000;stroke-width:2;stroke-miterlimit:10;" d="M20,12v5.5
	c0,0.828-0.672,1.5-1.5,1.5h0c-0.828,0-1.5-0.672-1.5-1.5V12"/>
</svg>
