<?xml version="1.0" encoding="iso-8859-1"?>
<!-- Generator: Adobe Illustrator 19.1.1, SVG Export Plug-In . SVG Version: 6.00 Build 0)  -->
<svg version="1.1" id="Layer_1" xmlns="http://www.w3.org/2000/svg" xmlns:xlink="http://www.w3.org/1999/xlink" x="0px" y="0px"
	 viewBox="0 0 32 32" style="enable-background:new 0 0 32 32;" xml:space="preserve">
<path style="fill:none;stroke:#000000;stroke-width:2;stroke-miterlimit:10;" d="M26,4c0,3.292-1.854,3.854-3,5"/>
<path style="fill:none;stroke:#000000;stroke-width:2;stroke-miterlimit:10;" d="M12,7c0,0,0.764,3.764,5,8s8,5,8,5
	c5.271-5.271-2-11-2-11S17.292,1.708,12,7z"/>
<path style="fill:none;stroke:#000000;stroke-width:2;stroke-linejoin:bevel;stroke-miterlimit:10;" d="M12.045,8.324
	c-0.819,0.578-1.615,1.246-2.37,2c-4.35,4.35-5.823,10.093-3.749,13.638c0.53,0.659-1.031,3.142-1.031,3.142
	s2.483-1.514,3.142-1.031c3.545,2.074,9.288,0.601,13.638-3.749c0.64-0.64,1.616-1.741,1.991-2.533"/>
</svg>
