<?xml version="1.0" encoding="iso-8859-1"?>
<!-- Generator: Adobe Illustrator 19.1.0, SVG Export Plug-In . SVG Version: 6.00 Build 0)  -->
<svg version="1.1" id="Layer_1" xmlns="http://www.w3.org/2000/svg" xmlns:xlink="http://www.w3.org/1999/xlink" x="0px" y="0px"
	 viewBox="0 0 32 32" style="enable-background:new 0 0 32 32;" xml:space="preserve">
<ellipse cx="14" cy="12" rx="1" ry="1"/>
<ellipse cx="18" cy="12" rx="1" ry="1"/>
<path style="fill:none;stroke:#000000;stroke-width:2;stroke-miterlimit:10;" d="M16,19c1.171,0,2-0.219,2-0.219v1.631v0
	C18,24.308,21.373,27,24.834,27c1.849,0,3.736-1.104,3.736-1.104"/>
<path style="fill:none;stroke:#000000;stroke-width:2;stroke-miterlimit:10;" d="M16,5.001C16,5.001,16,5.001,16,5.001L16,5.001
	C16,5.001,16,5.001,16,5.001C16,5.001,16,5.001,16,5.001c3.314,0,6,2.678,6,6C22,14.524,21,17,21,17s-0.492,6,4,6h0
	c1.657,0,3-1.226,3-3c0-1.985-2-2.913-2-5.232C26,12.406,28.268,12,29,12"/>
<path style="fill:none;stroke:#000000;stroke-width:2;stroke-miterlimit:10;" d="M16,19c-1.171,0-2-0.219-2-0.219v1.631v0
	C14,24.308,10.627,27,7.166,27c-1.849,0-3.736-1.104-3.736-1.104"/>
<path style="fill:none;stroke:#000000;stroke-width:2;stroke-miterlimit:10;" d="M16,5.001C16,5.001,16,5.001,16,5.001L16,5.001
	C16,5.001,16,5.001,16,5.001C16,5.001,16,5.001,16,5.001c-3.314,0-6,2.678-6,6C10,14.524,11,17,11,17s0.492,6-4,6h0
	c-1.657,0-3-1.226-3-3c0-1.985,2-2.913,2-5.232C6,12.406,3.732,12,3,12"/>
</svg>
