<?xml version="1.0" encoding="iso-8859-1"?>
<!-- Generator: Adobe Illustrator 19.0.1, SVG Export Plug-In . SVG Version: 6.00 Build 0)  -->
<svg version="1.1" id="Layer_1" xmlns="http://www.w3.org/2000/svg" xmlns:xlink="http://www.w3.org/1999/xlink" x="0px" y="0px"
	 viewBox="0 0 32 32" style="enable-background:new 0 0 32 32;" xml:space="preserve">
<polygon id="XMLID_168_" style="fill:none;stroke:#000000;stroke-width:2;stroke-miterlimit:10;" points="21,15 11,15 11,16 14,19 
	18,19 21,16 "/>
<polygon id="XMLID_169_" style="fill:none;stroke:#000000;stroke-width:2;stroke-miterlimit:10;" points="17,27 15,27 14,19 18,19 
	"/>
<path id="XMLID_170_" style="fill:none;stroke:#000000;stroke-width:2;stroke-miterlimit:10;" d="M20,11c0,2.209-1.791,4-4,4
	s-4-1.791-4-4s4-6,4-6S20,8.791,20,11z"/>
<path id="XMLID_171_" d="M18,12c0,1.105-0.895,2-2,2s-2-0.895-2-2s2-3,2-3S18,10.895,18,12z"/>
</svg>
