<?xml version="1.0" encoding="iso-8859-1"?>
<!-- Generator: Adobe Illustrator 19.1.1, SVG Export Plug-In . SVG Version: 6.00 Build 0)  -->
<svg version="1.1" id="Layer_1" xmlns="http://www.w3.org/2000/svg" xmlns:xlink="http://www.w3.org/1999/xlink" x="0px" y="0px"
	 viewBox="0 0 32 32" style="enable-background:new 0 0 32 32;" xml:space="preserve">
<polygon style="fill:none;stroke:#000000;stroke-width:2;stroke-miterlimit:10;" points="15.997,4 18.964,6.87 23.051,6.292 
	23.764,10.357 27.41,12.292 25.597,16 27.41,19.708 23.764,21.643 23.051,25.708 18.964,25.13 15.997,28 13.031,25.13 8.944,25.708 
	8.231,21.643 4.585,19.708 6.397,16 4.585,12.292 8.231,10.357 8.944,6.292 13.031,6.87 "/>
<polygon points="22.562,17 22.562,16 20,16 20,20 22.562,20 22.562,19 21,19 21,18.5 22.335,18.5 22.335,17.5 21,17.5 21,17 "/>
<polygon points="18.563,17 18.563,16 16,16 16,20 18.563,20 18.563,19 17,19 17,18.5 18.335,18.5 18.335,17.5 17,17.5 17,17 "/>
<g>
	<polygon points="11.562,17 11.562,16 9,16 9,20 10,20 10,18.5 11.335,18.5 11.335,17.5 10,17.5 10,17 	"/>
</g>
<path d="M13.487,20h-1v-3.982h1.252c0.69,0,1.252,0.562,1.252,1.252s-0.562,1.252-1.252,1.252h-0.252V20z M13.487,17.522h0.252
	c0.139,0,0.252-0.113,0.252-0.252s-0.113-0.252-0.252-0.252h-0.252V17.522z"/>
<polygon points="15.182,20 14.295,17.841 13.371,18.221 14.101,20 "/>
<path d="M17,15h-1v-2.722c-0.222,0.123-0.707,0.285-1.021,0.285v-1c0.271,0,0.753-0.301,0.835-0.393l0.149-0.167L17,11V15z"/>
</svg>
