<?xml version="1.0" encoding="iso-8859-1"?>
<!-- Generator: Adobe Illustrator 22.1.0, SVG Export Plug-In . SVG Version: 6.00 Build 0)  -->
<svg version="1.1" id="Layer_1" xmlns="http://www.w3.org/2000/svg" xmlns:xlink="http://www.w3.org/1999/xlink" x="0px" y="0px"
	 viewBox="0 0 32 32" style="enable-background:new 0 0 32 32;" xml:space="preserve">
<rect x="5" y="5" style="fill:none;stroke:#000000;stroke-width:2;stroke-miterlimit:10;" width="22" height="22"/>
<line style="fill:none;stroke:#000000;stroke-width:2;stroke-miterlimit:10;" x1="27.125" y1="11" x2="5.156" y2="11"/>
<rect x="7" y="7" width="2" height="2"/>
<rect x="10" y="7" width="2" height="2"/>
<rect x="13" y="7" width="2" height="2"/>
<path style="fill:none;stroke:#000000;stroke-width:2;stroke-miterlimit:10;" d="M18,18v-0.618C18,16.619,17.381,16,16.618,16
	h-1.236C14.619,16,14,16.619,14,17.382l0,0c0,0.379,0.214,0.725,0.553,0.894l2.894,1.447C17.786,19.893,18,20.239,18,20.618l0,0
	C18,21.381,17.381,22,16.618,22h-1.236C14.619,22,14,21.381,14,20.618V20"/>
<line style="fill:none;stroke:#000000;stroke-width:2;stroke-miterlimit:10;" x1="16" y1="16" x2="16" y2="14"/>
<line style="fill:none;stroke:#000000;stroke-width:2;stroke-miterlimit:10;" x1="16" y1="24" x2="16" y2="22"/>
</svg>
