<?xml version="1.0" encoding="utf-8"?>
<!-- Generator: Adobe Illustrator 18.0.0, SVG Export Plug-In . SVG Version: 6.00 Build 0)  -->
<svg version="1.1" id="Layer_1" xmlns="http://www.w3.org/2000/svg" xmlns:xlink="http://www.w3.org/1999/xlink" x="0px" y="0px"
	 viewBox="0 0 32 32" enable-background="new 0 0 32 32" xml:space="preserve">
<rect x="7" y="4" fill="none" stroke="#000000" stroke-width="2" stroke-miterlimit="10" width="18" height="24"/>
<line fill="none" stroke="#000000" stroke-width="2" stroke-miterlimit="10" x1="16" y1="16" x2="16" y2="19"/>
<path d="M23.4,6.1l-0.7-1.9C23.1,4.1,23.6,4,24,4v2C23.8,6,23.6,6,23.4,6.1z"/>
<path d="M18.7,11.1l-1.8-1c0.3-0.6,0.7-1.2,1.1-1.7l1.6,1.1C19.3,10,19,10.5,18.7,11.1z"/>
<path d="M20.8,8.2l-1.5-1.3c0.5-0.5,1-1,1.5-1.4L22,7C21.6,7.3,21.2,7.7,20.8,8.2z"/>
<path d="M8.6,6.1l0.7-1.9C8.9,4.1,8,4,8,4v2C8,6,8.4,6,8.6,6.1z"/>
<path d="M17.9,12.7L16,11.9l-1.9,0.8c0.2,0.6,0.4,1.1,0.6,1.7L16,14l1.4,0.4C17.5,13.8,17.7,13.3,17.9,12.7z"/>
<path d="M12.3,9.6L14,8.4c0.4,0.5,0.7,1.1,1.1,1.7l-1.8,1C13,10.5,12.7,10,12.3,9.6z"/>
<path d="M10,7l1.2-1.6c0.5,0.4,1,0.9,1.5,1.4l-1.5,1.3C10.8,7.7,10.4,7.3,10,7z"/>
<circle fill="none" stroke="#000000" stroke-width="2" stroke-miterlimit="10" cx="16" cy="21" r="2"/>
</svg>
