<?xml version="1.0" encoding="utf-8"?>
<!-- Generator: Adobe Illustrator 18.0.0, SVG Export Plug-In . SVG Version: 6.00 Build 0)  -->
<svg version="1.1" id="Layer_1" xmlns="http://www.w3.org/2000/svg" xmlns:xlink="http://www.w3.org/1999/xlink" x="0px" y="0px"
	 viewBox="0 0 32 32" enable-background="new 0 0 32 32" xml:space="preserve">
<path fill="none" stroke="#000000" stroke-width="2" stroke-miterlimit="10" d="M17,14.4L17,14.4c0-0.7-0.5-1.4-1.5-1.4
	c-0.8,0-1.5,0.7-1.5,1.5v0c0,0.8,0.7,1.5,1.5,1.5h0c0.8,0,1.5,0.7,1.5,1.5v0c0,0.8-0.6,1.5-1.5,1.5c-1.1,0-1.5-0.6-1.5-1.4l0,0"/>
<polyline id="XMLID_20_" fill="none" stroke="#000000" stroke-width="2" stroke-miterlimit="10" points="20,20 20,13 20.5,13 22,15 
	23.5,13 24,13 24,20 "/>
<path fill="none" stroke="#000000" stroke-width="2" stroke-miterlimit="10" d="M9.5,13L9.5,13C8.7,13,8,13.7,8,14.5v3
	C8,18.3,8.7,19,9.5,19h0c0.8,0,1.5-0.7,1.5-1.5v-3C11,13.7,10.3,13,9.5,13z"/>
<polyline fill="none" stroke="#000000" stroke-width="2" stroke-miterlimit="10" points="25,22 25,28 7,28 7,22 "/>
<polyline fill="none" stroke="#000000" stroke-width="2" stroke-miterlimit="10" points="7,10 7,4 25,4 25,10 "/>
</svg>
