<?xml version="1.0" encoding="utf-8"?>
<!-- Generator: Adobe Illustrator 18.1.1, SVG Export Plug-In . SVG Version: 6.00 Build 0)  -->
<svg version="1.1" id="Layer_1" xmlns="http://www.w3.org/2000/svg" xmlns:xlink="http://www.w3.org/1999/xlink" x="0px" y="0px"
	 viewBox="0 0 32 32" enable-background="new 0 0 32 32" xml:space="preserve">
<rect x="5" y="5" fill="none" stroke="#000000" stroke-width="2" stroke-miterlimit="10" width="22" height="22"/>
<path fill="none" stroke="#000000" stroke-width="2" stroke-miterlimit="10" d="M18.5,12h-5c-0.8,0-1.5-0.7-1.5-1.5v0
	C12,9.7,12.7,9,13.5,9h5c0.8,0,1.5,0.7,1.5,1.5v0C20,11.3,19.3,12,18.5,12z"/>
<line fill="none" stroke="#000000" stroke-width="2" stroke-miterlimit="10" x1="24" y1="23" x2="18" y2="23"/>
<polygon points="24,19 23,18 22,19 22,21 24,21 "/>
<polygon points="20,19 19,18 18,19 18,21 20,21 "/>
</svg>
