<?xml version="1.0" encoding="iso-8859-1"?>
<!-- Generator: Adobe Illustrator 19.2.0, SVG Export Plug-In . SVG Version: 6.00 Build 0)  -->
<svg version="1.1" id="Layer_1" xmlns="http://www.w3.org/2000/svg" xmlns:xlink="http://www.w3.org/1999/xlink" x="0px" y="0px"
	 viewBox="0 0 32 32" style="enable-background:new 0 0 32 32;" xml:space="preserve">
<polyline style="fill:none;stroke:#000000;stroke-width:2;stroke-miterlimit:10;" points="18,26 7,26 7,6 25,6 25,18 "/>
<path id="XMLID_22_" style="fill:none;stroke:#000000;stroke-width:2;stroke-miterlimit:10;" d="M13,18h4c1.105,0,2-0.895,2-2v-3
	c0-1.105-0.895-2-2-2h-4v11"/>
<circle style="fill:none;stroke:#000000;stroke-width:2;stroke-miterlimit:10;" cx="24.5" cy="24.5" r="6.5"/>
<polygon points="27,23 27,22 25,22 25,21 24,21 24,22 22,22 22,25 26,25 26,26 22,26 22,27 24,27 24,28 25,28 25,27 26,27 27,27 
	27,24 23,24 23,23 "/>
</svg>
