<?xml version="1.0" encoding="iso-8859-1"?>
<!-- Generator: Adobe Illustrator 19.1.1, SVG Export Plug-In . SVG Version: 6.00 Build 0)  -->
<svg version="1.1" id="Layer_1" xmlns="http://www.w3.org/2000/svg" xmlns:xlink="http://www.w3.org/1999/xlink" x="0px" y="0px"
	 viewBox="0 0 32 32" style="enable-background:new 0 0 32 32;" xml:space="preserve">
<path style="fill:none;stroke:#000000;stroke-width:2;stroke-miterlimit:10;" d="M6.633,11.367L6.633,11.367
	c-0.844-0.844-0.844-2.212,0-3.057L9.31,5.633c0.844-0.844,2.212-0.844,3.057,0l0,0c0.844,0.844,0.844,2.212,0,3.057L9.69,11.367
	C8.845,12.211,7.477,12.211,6.633,11.367z"/>
<line style="fill:none;stroke:#000000;stroke-width:2;stroke-miterlimit:10;" x1="23" y1="18" x2="18" y2="13"/>
<path style="fill:none;stroke:#000000;stroke-width:2;stroke-miterlimit:10;" d="M7,23h2.121c1.413-0.119,2.32,0.52,3.065,1.726
	l2.374,3.845c0.3,0.486,0.969,0.575,1.386,0.185l0.616-0.575c0.464-0.434,0.573-1.128,0.264-1.684L12,18"/>
<line style="fill:none;stroke:#000000;stroke-width:2;stroke-miterlimit:10;" x1="25" y1="3" x2="18.003" y2="9.997"/>
<path d="M16.716,9.798l1.414,1.414L7.707,21.707C7.512,21.902,7.256,22,7,22c-0.256,0-0.512-0.098-0.707-0.293
	c-0.391-0.391-0.391-1.023,0-1.414l10.289-10.41 M16.709,6.962L4.871,18.886c-1.162,1.162-1.162,3.065,0.007,4.235
	C5.445,23.688,6.199,24,7,24c0.801,0,1.555-0.312,2.121-0.879l11.83-11.916L16.709,6.962L16.709,6.962z"/>
<path style="fill:none;stroke:#000000;stroke-width:2;stroke-miterlimit:10;" d="M15.853,15.435l2.025,4.24
	c0.208,0.435,0.145,0.952-0.161,1.325L15,24"/>
<line style="fill:none;stroke:#000000;stroke-width:2;stroke-miterlimit:10;" x1="11" y1="10" x2="13" y2="12"/>
</svg>
