<?xml version="1.0" encoding="iso-8859-1"?>
<!-- Generator: Adobe Illustrator 19.1.0, SVG Export Plug-In . SVG Version: 6.00 Build 0)  -->
<svg version="1.1" id="Layer_1" xmlns="http://www.w3.org/2000/svg" xmlns:xlink="http://www.w3.org/1999/xlink" x="0px" y="0px"
	 viewBox="0 0 32 32" style="enable-background:new 0 0 32 32;" xml:space="preserve">
<path style="fill:none;stroke:#000000;stroke-width:2;stroke-miterlimit:10;" d="M23,27H9c-1.105,0-2-0.895-2-2V12h18v13
	C25,26.105,24.105,27,23,27z"/>
<rect x="18" y="15" width="3" height="3"/>
<rect x="11" y="15" width="3" height="3"/>
<rect x="11" y="21" width="3" height="3"/>
<path style="fill:none;stroke:#000000;stroke-width:2;stroke-miterlimit:10;" d="M8,13c0-4.418,3.582-8,8-8s8,3.582,8,8"/>
<rect x="15" y="15" width="1" height="1"/>
<rect x="16" y="16" width="1" height="1"/>
<rect x="15" y="17" width="1" height="1"/>
<rect x="16" y="18" width="1" height="1"/>
<rect x="15" y="19" width="1" height="1"/>
<rect x="13" y="19" width="1" height="1"/>
<rect x="11" y="19" width="1" height="1"/>
<rect x="16" y="20" width="1" height="1"/>
<rect x="17" y="19" width="1" height="1"/>
<rect x="18" y="20" width="1" height="1"/>
<rect x="19" y="19" width="1" height="1"/>
<rect x="20" y="20" width="1" height="1"/>
<rect x="18" y="21" width="1" height="1"/>
<rect x="17" y="22" width="1" height="1"/>
<rect x="16" y="22" width="1" height="1"/>
<rect x="16" y="23" width="1" height="1"/>
<rect x="19" y="22" width="1" height="1"/>
<rect x="20" y="23" width="1" height="1"/>
</svg>
