<?xml version="1.0" encoding="iso-8859-1"?>
<!-- Generator: Adobe Illustrator 19.1.0, SVG Export Plug-In . SVG Version: 6.00 Build 0)  -->
<svg version="1.1" id="Layer_1" xmlns="http://www.w3.org/2000/svg" xmlns:xlink="http://www.w3.org/1999/xlink" x="0px" y="0px"
	 viewBox="0 0 32 32" style="enable-background:new 0 0 32 32;" xml:space="preserve">
<polyline style="fill:none;stroke:#000000;stroke-width:2;stroke-miterlimit:10;" points="20,16 20,10 16,5 12,10 12,16 "/>
<path style="fill:none;stroke:#000000;stroke-width:2;stroke-miterlimit:10;" d="M25,9l-2,3v4H9v-4L7,9l-2,3v14h8v-3
	c0-1.657,1.343-3,3-3h0c1.657,0,3,1.343,3,3v3h8V12L25,9z"/>
<path d="M17,16h-2v-3c0-0.552,0.448-1,1-1h0c0.552,0,1,0.448,1,1V16z"/>
<rect x="22" y="20" width="2" height="3"/>
<rect x="8" y="20" width="2" height="3"/>
</svg>
