<?xml version="1.0" encoding="iso-8859-1"?>
<!-- Generator: Adobe Illustrator 19.2.0, SVG Export Plug-In . SVG Version: 6.00 Build 0)  -->
<svg version="1.1" id="Layer_1" xmlns="http://www.w3.org/2000/svg" xmlns:xlink="http://www.w3.org/1999/xlink" x="0px" y="0px"
	 viewBox="0 0 32 32" style="enable-background:new 0 0 32 32;" xml:space="preserve">
<path style="fill:none;stroke:#000000;stroke-width:2;stroke-linejoin:round;stroke-miterlimit:10;" d="M10.356,24.06
	c0.916,0.32,1.694,0.961,2.426,1.602c0.87,0.824,2.014,1.328,3.25,1.328s2.381-0.549,3.25-1.328
	c0.732-0.641,1.511-1.282,2.426-1.602c3.159-1.144,5.265-3.479,5.265-7.096c0-5.539-4.898-11.033-10.987-11.033S5,11.425,5,16.965
	C5,20.581,7.106,22.916,10.356,24.06z"/>
<path d="M21.526,7.443c0.137-0.641,0.458-1.282,0.916-1.74c1.053-1.053,2.518-0.732,3.571,0.32c1.053,1.053,1.419,2.518,0.32,3.571
	c-0.412,0.412-0.961,0.687-1.557,0.87"/>
<path d="M10.448,7.443C10.31,6.802,9.99,6.161,9.532,5.703C8.479,4.604,7.06,4.925,6.007,6.023S4.588,8.495,5.641,9.594
	c0.412,0.412,0.961,0.687,1.556,0.87"/>
<path d="M18,21.843c0,0.55-0.9,1.503-2,1.503s-2-0.953-2-1.503C14,21.293,14.9,21,16,21S18,21.343,18,21.843z"/>
<path d="M21.909,14.95c-1.297-1.297-3.591-1.097-4.339-0.399c-0.748,0.698-0.898,3.042,0.399,4.339
	c1.297,1.297,3.242,1.496,4.339,0.399C23.356,18.191,23.206,16.246,21.909,14.95z M19,17c-0.552,0-1-0.448-1-1c0-0.552,0.448-1,1-1
	s1,0.448,1,1C20,16.552,19.552,17,19,17z"/>
<path d="M9.666,19.289c1.097,1.097,3.042,0.898,4.339-0.399c1.297-1.297,1.147-3.641,0.399-4.339
	c-0.748-0.698-3.042-0.898-4.339,0.399C8.768,16.246,8.618,18.191,9.666,19.289z M11.974,16c0-0.552,0.448-1,1-1s1,0.448,1,1
	c0,0.552-0.448,1-1,1S11.974,16.552,11.974,16z"/>
</svg>
