<?xml version="1.0" encoding="iso-8859-1"?>
<!-- Generator: Adobe Illustrator 19.1.1, SVG Export Plug-In . SVG Version: 6.00 Build 0)  -->
<svg version="1.1" id="Layer_1" xmlns="http://www.w3.org/2000/svg" xmlns:xlink="http://www.w3.org/1999/xlink" x="0px" y="0px"
	 viewBox="0 0 32 32" style="enable-background:new 0 0 32 32;" xml:space="preserve">
<ellipse transform="matrix(0.1345 -0.9909 0.9909 0.1345 -1.2457 48.4988)" cx="27.14" cy="24.963" rx="2.053" ry="0.821"/>
<ellipse transform="matrix(-0.7167 -0.6973 0.6973 -0.7167 23.7938 56.4555)" cx="23.363" cy="23.395" rx="2.128" ry="0.851"/>
<ellipse transform="matrix(0.9238 0.3828 -0.3828 0.9238 12.1325 -6.7964)" cx="23.146" cy="27.091" rx="1.975" ry="0.851"/>
<ellipse transform="matrix(-1 -0.0063 0.0063 -1 55.5598 58.4726)" cx="27.872" cy="29.149" rx="2.128" ry="0.851"/>
<path d="M16.306,10.516l-0.408-0.055l-0.187-0.374c-0.734-1.469-2.796-1.44-3.49,0.049l-0.177,0.38l-0.406,0.066
	c-1.593,0.26-2.203,2.275-1.033,3.41l0.298,0.289l-0.064,0.415c-0.251,1.63,1.435,2.846,2.852,2.058l0.361-0.201l0.367,0.191
	c1.438,0.748,3.09-0.516,2.795-2.138l-0.075-0.413l0.29-0.298C18.569,12.728,17.905,10.731,16.306,10.516z M14,14.002
	c-0.552-0.001-0.999-0.45-0.998-1.003c0.001-0.552,0.45-0.999,1.003-0.997c0.552,0.001,0.999,0.45,0.998,1.002
	C15.001,13.557,14.552,14.003,14,14.002z"/>
<path style="fill:none;stroke:#000000;stroke-width:2;stroke-linejoin:bevel;stroke-miterlimit:10;" d="M9.41,19.031l4.631,3.067
	C14.234,20.91,15.257,20,16.5,20c0.566,0,1.19,0.245,1.609,0.563l0,0c0-1.381,1.01-2.563,2.391-2.563
	c0.56,0,1.072,0.191,1.488,0.502l1.651-2.477"/>
<polyline style="fill:none;stroke:#000000;stroke-width:2;stroke-miterlimit:10;" points="23.64,16.025 25.656,13 11.125,3.375 
	3.359,15.024 9.41,19.031 "/>
</svg>
