<?xml version="1.0" encoding="iso-8859-1"?>
<!-- Generator: Adobe Illustrator 19.1.1, SVG Export Plug-In . SVG Version: 6.00 Build 0)  -->
<svg version="1.1" id="Layer_1" xmlns="http://www.w3.org/2000/svg" xmlns:xlink="http://www.w3.org/1999/xlink" x="0px" y="0px"
	 viewBox="0 0 32 32" style="enable-background:new 0 0 32 32;" xml:space="preserve">
<path style="fill:none;stroke:#000000;stroke-width:2;stroke-miterlimit:10;" d="M26,13c0-3.198-1.15-5-4-5c-1.9,0-3.314,1-4,1
	c-0.739,0-1.203-2-4-2c-3.113,0-4,3-4,3c-2.216,0-4,1.228-4,4c0,3.465,2.058,6.857,2.744,9.416C9.325,25.868,10.731,28,13,28
	c1.319,0,2.077-1.013,2.974-1.013S17.734,28,19,28c2.269,0,3.464-1.919,4.256-4.584C23.836,21.497,26,15.825,26,13z"/>
<path style="fill:none;stroke:#000000;stroke-width:2;stroke-miterlimit:10;" d="M14,7c-3.167,0-4,3-4,3
	c0,5.875,3.208,12.417,3.208,12.417"/>
<path style="fill:none;stroke:#000000;stroke-width:2;stroke-miterlimit:10;" d="M20,4c0,0-3,0.063-3,4"/>
</svg>
