<?xml version="1.0" encoding="iso-8859-1"?>
<!-- Generator: Adobe Illustrator 19.0.1, SVG Export Plug-In . SVG Version: 6.00 Build 0)  -->
<svg version="1.1" id="Layer_1" xmlns="http://www.w3.org/2000/svg" xmlns:xlink="http://www.w3.org/1999/xlink" x="0px" y="0px"
	 viewBox="0 0 32 32" style="enable-background:new 0 0 32 32;" xml:space="preserve">
<circle id="XMLID_219_" style="fill:none;stroke:#000000;stroke-width:2;stroke-miterlimit:10;" cx="13" cy="18" r="2"/>
<polyline id="XMLID_202_" style="fill:none;stroke:#000000;stroke-width:2;stroke-miterlimit:10;" points="16.127,23.289 
	12.195,24.108 8.403,21.838 7.327,18.21 "/>
<path id="XMLID_199_" style="fill:none;stroke:#000000;stroke-width:2;stroke-miterlimit:10;" d="M7,17L5,9l4-4
	c6.6,0,16.165,4.647,18,13l-4,4l-5.515,0.985"/>
<path id="XMLID_201_" style="fill:none;stroke:#000000;stroke-width:2;stroke-miterlimit:10;" d="M23,22
	c-0.986-3.631-3.295-6.617-6.172-8.807C13.28,10.491,8.866,9,5,9"/>
<path id="XMLID_231_" style="fill:none;stroke:#000000;stroke-width:2;stroke-miterlimit:10;" d="M8.61,21.826l-1.257,1.893
	c-0.658,0.992-0.368,2.331,0.642,2.961l0,0c0.956,0.597,2.212,0.338,2.855-0.588l1.464-2.11"/>
</svg>
