<?xml version="1.0" encoding="iso-8859-1"?>
<!-- Generator: Adobe Illustrator 19.1.0, SVG Export Plug-In . SVG Version: 6.00 Build 0)  -->
<svg version="1.1" id="Layer_1" xmlns="http://www.w3.org/2000/svg" xmlns:xlink="http://www.w3.org/1999/xlink" x="0px" y="0px"
	 viewBox="0 0 32 32" style="enable-background:new 0 0 32 32;" xml:space="preserve">
<path style="fill:none;stroke:#000000;stroke-width:2;stroke-miterlimit:10;" d="M22.428,17.283l-0.367-3.438
	c-0.275-1.008-2.429-2.979-3.483-3.208l-3.483-0.458c-1.558-0.275-2.979,0.367-3.529,1.696L5,26l1,1l14.686-6.325
	C22.107,20.125,22.52,18.75,22.428,17.283z"/>
<path style="fill:none;stroke:#000000;stroke-width:2;stroke-miterlimit:10;" d="M26.231,8.611c0.974,1.391,1.008,2.99,1.008,2.99
	l-5.178,2.061"/>
<path style="fill:none;stroke:#000000;stroke-width:2;stroke-miterlimit:10;" d="M22.002,8.017l2.074-3.3
	c0,0,1.508-0.134,2.425,0.783s0.913,2.312,0.913,2.312l-3.406,2.187"/>
<path style="fill:none;stroke:#000000;stroke-width:2;stroke-miterlimit:10;" d="M18.598,10.739l1.026-5.64
	c0,0,2.086-0.522,3.755,0.556"/>
<line style="fill:none;stroke:#000000;stroke-width:2;stroke-miterlimit:10;" x1="18.867" y1="16.52" x2="21.332" y2="12.935"/>
<line style="fill:none;stroke:#000000;stroke-width:2;stroke-miterlimit:10;" x1="15.82" y1="13.921" x2="19.136" y2="11.098"/>
</svg>
