<?xml version="1.0" encoding="iso-8859-1"?>
<!-- Generator: Adobe Illustrator 19.1.1, SVG Export Plug-In . SVG Version: 6.00 Build 0)  -->
<svg version="1.1" id="Layer_1" xmlns="http://www.w3.org/2000/svg" xmlns:xlink="http://www.w3.org/1999/xlink" x="0px" y="0px"
	 viewBox="0 0 32 32" style="enable-background:new 0 0 32 32;" xml:space="preserve">
<path style="fill:none;stroke:#000000;stroke-width:2;stroke-miterlimit:10;" d="M12,4c0,0,4,2.086,4,7"/>
<path style="fill:none;stroke:#000000;stroke-width:2;stroke-miterlimit:10;" d="M16,11c0-6.954,6-7,6-7S21.936,11,16,11z"/>
<path style="fill:none;stroke:#000000;stroke-width:2;stroke-miterlimit:10;" d="M16,29c2.478,0,5.155-0.865,6.784-2.819
	c1.924-2.307,1.175-5.147-0.505-7.354C21.128,17.316,19.467,15.915,19,14c-0.392-1.61-1.343-3-3-3s-2.608,1.39-3,3
	c-0.467,1.915-2.128,3.316-3.279,4.827c-1.68,2.207-2.429,5.047-0.505,7.354C10.845,28.135,13.522,29,16,29z"/>
</svg>
