<?xml version="1.0" encoding="iso-8859-1"?>
<!-- Generator: Adobe Illustrator 19.2.0, SVG Export Plug-In . SVG Version: 6.00 Build 0)  -->
<svg version="1.1" id="Layer_1" xmlns="http://www.w3.org/2000/svg" xmlns:xlink="http://www.w3.org/1999/xlink" x="0px" y="0px"
	 viewBox="0 0 32 32" style="enable-background:new 0 0 32 32;" xml:space="preserve">
<path style="fill:none;stroke:#000000;stroke-width:2;stroke-miterlimit:10;" d="M17,28c0,0,2-3.387,2-6
	c0-6.738-6.794-6.879-6.794-9.95c0-1.008,0.794-1.65,0.794-3.483C13,7.329,12.151,6,9.631,6C8.382,6,7.462,7,6.169,7
	C4.696,7,3.5,5.5,3.5,5.5"/>
<path style="fill:none;stroke:#000000;stroke-width:2;stroke-miterlimit:10;" d="M11.744,6.435C14.938,8.9,21.46,9,24.237,9
	C27.656,9,28,11.922,28,13.755h-0.1C27.686,13.573,27.028,13,26,13c-1.679,0-3.177,4-6.583,4c-2.69,0-3.783-1.329-3.783-1.329"/>
<path style="fill:none;stroke:#000000;stroke-width:2;stroke-miterlimit:10;" d="M13.077,10.079
	c2.797,3.747,10.679,0.899,14.749,2.695"/>
<path style="fill:none;stroke:#000000;stroke-width:2;stroke-miterlimit:10;" d="M3.629,9.364c0,0,1.25,0.659,3.371,0.659
	c0,5.235,6,4.412,6,11.977"/>
<circle cx="12" cy="9" r="1"/>
</svg>
