<?xml version="1.0" encoding="iso-8859-1"?>
<!-- Generator: Adobe Illustrator 19.1.0, SVG Export Plug-In . SVG Version: 6.00 Build 0)  -->
<svg version="1.1" id="Layer_1" xmlns="http://www.w3.org/2000/svg" xmlns:xlink="http://www.w3.org/1999/xlink" x="0px" y="0px"
	 viewBox="0 0 32 32" style="enable-background:new 0 0 32 32;" xml:space="preserve">
<polygon points="23.25,6 20.75,6 8.75,26 11.25,26 "/>
<path style="fill:none;stroke:#000000;stroke-width:2;stroke-miterlimit:10;" d="M22.5,17L22.5,17c-1.381,0-2.5,1.119-2.5,2.5v3
	c0,1.381,1.119,2.5,2.5,2.5h0c1.381,0,2.5-1.119,2.5-2.5v-3C25,18.119,23.881,17,22.5,17z"/>
<path style="fill:none;stroke:#000000;stroke-width:2;stroke-miterlimit:10;" d="M9.5,7L9.5,7C8.119,7,7,8.119,7,9.5v3
	C7,13.881,8.119,15,9.5,15h0c1.381,0,2.5-1.119,2.5-2.5v-3C12,8.119,10.881,7,9.5,7z"/>
</svg>
