<?xml version="1.0" encoding="iso-8859-1"?>
<!-- Generator: Adobe Illustrator 22.0.1, SVG Export Plug-In . SVG Version: 6.00 Build 0)  -->
<svg version="1.1" id="Icons" xmlns="http://www.w3.org/2000/svg" xmlns:xlink="http://www.w3.org/1999/xlink" x="0px" y="0px"
	 viewBox="0 0 32 32" style="enable-background:new 0 0 32 32;" xml:space="preserve">
<g>
	<g>
		<path style="fill:none;stroke:#000000;stroke-width:2;stroke-miterlimit:10;" d="M29,23.586C29,24.367,28.367,25,27.586,25H4.414
			C3.633,25,3,24.367,3,23.586c0-0.375,0.148-0.734,0.414-1L6,20h20l2.586,2.586C28.852,22.852,29,23.211,29,23.586L29,23.586z"/>
		<path style="fill:none;stroke:#000000;stroke-width:2;stroke-miterlimit:10;" d="M26,8v12H6C6,20,6,8,6,8c0-0.552,0.448-1,1-1
			c0,0,18,0,18,0C25.552,7,26,7.448,26,8z"/>
	</g>
	<polyline style="fill:none;stroke:#000000;stroke-width:2;stroke-miterlimit:10;" points="9,15 12,12 16,16 21,11 23,13 	"/>
</g>
</svg>
