<?xml version="1.0" encoding="iso-8859-1"?>
<!-- Generator: Adobe Illustrator 19.1.1, SVG Export Plug-In . SVG Version: 6.00 Build 0)  -->
<svg version="1.1" id="Layer_1" xmlns="http://www.w3.org/2000/svg" xmlns:xlink="http://www.w3.org/1999/xlink" x="0px" y="0px"
	 viewBox="0 0 32 32" style="enable-background:new 0 0 32 32;" xml:space="preserve">
<path style="fill:none;stroke:#000000;stroke-width:2;stroke-miterlimit:10;" d="M26,30v-4c0,0-0.036,0-1,0c-2,0-4-2.018-4-4
	c0-0.982,0-2.25,0-2.25s-1.104-0.291-1.694-0.46c-0.762-0.218-0.936-1.045-0.587-1.728c0.311-0.609,2.691-5.382,2.691-5.382
	S24.125,5,29,5"/>
<path style="fill:none;stroke:#000000;stroke-width:2;stroke-miterlimit:10;" d="M10,25.661c1.414-0.657,2.547-2.169,2.547-3.661
	c0-0.982,0-2.25,0-2.25s1.104-0.291,1.694-0.46c0.762-0.218,0.936-1.045,0.587-1.728c-0.311-0.609-2.691-5.382-2.691-5.382
	s-0.571-2.949-3.14-5.067"/>
<circle cx="8" cy="14" r="1"/>
<circle cx="25" cy="14" r="1"/>
<path style="fill:none;stroke:#000000;stroke-width:2;stroke-miterlimit:10;" d="M21,23.141C19.197,24.909,16.726,26,14,26
	C8.477,26,4,21.523,4,16S8.477,6,14,6c3.272,0,6.177,1.571,8.001,4"/>
</svg>
