<?xml version="1.0" encoding="iso-8859-1"?>
<!-- Generator: Adobe Illustrator 21.0.0, SVG Export Plug-In . SVG Version: 6.00 Build 0)  -->
<svg version="1.1"  xmlns="http://www.w3.org/2000/svg" xmlns:xlink="http://www.w3.org/1999/xlink" x="0px" y="0px"
	 viewBox="0 0 32 32" style="enable-background:new 0 0 32 32;" xml:space="preserve">
<path style="fill:none;stroke:#000000;stroke-width:2;stroke-linecap:round;stroke-miterlimit:10;" d="M8.687,28h14.625
	C24.244,28,25,27.233,25,26.286V5.714C25,4.767,24.244,4,23.312,4h-8.438L7,12v14.286C7,27.233,7.755,28,8.687,28z"/>
<path style="fill:none;stroke:#000000;stroke-width:2;stroke-miterlimit:10;" d="M16,22c-1.65,0-3-1.406-3-3.15
	c0-2.081,3-5.85,3-5.85s3,3.769,3,5.85C19,20.594,17.65,22,16,22z"/>
<polyline style="fill:none;stroke:#000000;stroke-width:2;stroke-miterlimit:10;" points="23.312,4 19.375,7.938 10.937,7.938 "/>
<line style="fill:none;stroke:#000000;stroke-width:2;stroke-miterlimit:10;" x1="5" y1="9" x2="9" y2="5"/>
</svg>
