<?xml version="1.0" encoding="iso-8859-1"?>
<!-- Generator: Adobe Illustrator 19.1.0, SVG Export Plug-In . SVG Version: 6.00 Build 0)  -->
<svg version="1.1" id="Layer_1" xmlns="http://www.w3.org/2000/svg" xmlns:xlink="http://www.w3.org/1999/xlink" x="0px" y="0px"
	 viewBox="0 0 32 32" style="enable-background:new 0 0 32 32;" xml:space="preserve">
<path style="fill:none;stroke:#000000;stroke-width:2;stroke-miterlimit:10;" d="M27.005,16.94
	c-0.007-1.304-0.851-2.398-2.015-2.805l-0.001-0.184C24.962,8.981,20.911,4.973,15.94,5c-4.971,0.027-8.978,4.078-8.951,9.049
	l0.001,0.184c-1.16,0.42-1.992,1.523-1.985,2.827c0.007,1.378,0.948,2.521,2.215,2.866C8.107,23.99,11.734,27.023,16.06,27
	c4.326-0.024,7.92-3.096,8.762-7.17C26.085,19.471,27.013,18.318,27.005,16.94z"/>
<path style="fill:none;stroke:#000000;stroke-width:2;stroke-miterlimit:10;" d="M13,18v-8h2c1.105,0,2,0.895,2,2v0
	c0,1.105-0.895,2-2,2h-2"/>
<polygon points="16,14 14,14 19,23 21,23 "/>
<polygon points="19,16 21,16 17,23 15,23 "/>
</svg>
