<?xml version="1.0" encoding="iso-8859-1"?>
<!-- Generator: Adobe Illustrator 22.0.1, SVG Export Plug-In . SVG Version: 6.00 Build 0)  -->
<svg version="1.1" id="&#x421;&#x43B;&#x43E;&#x439;_1"
	 xmlns="http://www.w3.org/2000/svg" xmlns:xlink="http://www.w3.org/1999/xlink" x="0px" y="0px" viewBox="0 0 32 32"
	 style="enable-background:new 0 0 32 32;" xml:space="preserve">
<g>
	<rect x="5" y="14" style="fill:none;stroke:#000000;stroke-width:2;stroke-miterlimit:10;" width="8" height="6"/>
	<path style="fill:none;stroke:#000000;stroke-width:2;stroke-miterlimit:10;" d="M11,14v-2c0-1.102-0.898-2-2-2
		c-1.102,0-2,0.898-2,2v2"/>
	<path style="fill:none;stroke:#000000;stroke-width:2;stroke-miterlimit:10;" d="M14,24h4"/>
	<path d="M22,4H10C8.898,4,8,4.898,8,6v1h2V6h12v20H10v-3H8v3c0,1.102,0.898,2,2,2h12c1.102,0,2-0.898,2-2V6C24,4.898,23.102,4,22,4
		z"/>
</g>
</svg>
