<?xml version="1.0" encoding="iso-8859-1"?>
<!-- Generator: Adobe Illustrator 19.1.1, SVG Export Plug-In . SVG Version: 6.00 Build 0)  -->
<svg version="1.1" id="Layer_1" xmlns="http://www.w3.org/2000/svg" xmlns:xlink="http://www.w3.org/1999/xlink" x="0px" y="0px"
	 viewBox="0 0 32 32" style="enable-background:new 0 0 32 32;" xml:space="preserve">
<g>
	<path d="M31,25.896c-1.158,0.76-5.434,2.477-5.531,2.509c-3.127-3.489-1.289-11.945-5.823-12.241
		c-0.211-0.014-0.375,0.079-0.375,0.079c1.271,1.122,2.076,1.308,2.076,4.206c0,1.175-0.489,3.021-0.489,3.021
		s-0.908,0.338-2.26,0.338c-1.352,0-1.855-0.143-1.908-0.143c-0.02-0.22-0.103-1.755-0.103-2.16c0,0,1.8-1.504,1.843-2.4
		c0,0-2.207,2.6-4.493,2.6c-0.623,0-2.969-3.357-3.147-3.616c-0.63-0.919-1.169-1.033-1.294-1.387
		c-0.127,0.02-7.44,1.669-7.851,1.718c-0.106,0.013-0.496-0.008-0.627-0.49c-0.137-0.507,0.492-0.74,0.691-0.783
		c0.106-0.023,7.018-1.527,7.239-1.581c-0.401-0.726,0.307-0.892,0.994-1.027c0.471-0.093,0.805-0.723,1.396,0.491
		c0,0,1.924-0.413,2.116-0.466c0.738-0.206,1.069,0.023,1.166,0.365c0.098,0.342-0.171,0.632-0.421,0.717
		c-0.211,0.072-2.03,0.44-2.847,0.63c-0.189,0.701,1.349,2.267,2.746,3.471c1.472,0,3.008-2.55,3.008-3.113
		c0-1.748-2.294-0.792-2.294-1.865c0-0.287,0.126-0.468,0.168-0.544c-0.352-0.099-0.689-0.193-1.028-0.288
		c1.011-1.225,0.454-2.199,0.57-2.636c0.055-0.067,0.6-0.28,2.5-0.28c2.445,0,2.218,0.362,3.202,2.883
		c0.23-0.114,0.462-0.229,0.718-0.355c-0.314,2.189-1.812,0.465-1.812,1.933C25.308,15.48,25.431,21.387,31,25.896z"/>
	<path d="M19.776,10.175c-0.053,0.347,0.198,0.407,0.672,1.253c-0.092,0.198-0.151,0.351-0.455,0.432
		c-0.893-1.103-0.855-1.279-2.51-1.279c-2.594,0-3.563,0.524-3.853,0.635c0.243-0.893,1.393-1.101,2.4-1.763
		c0.834-0.548,1.287-1.287,2.057-2.077c0.338,0.147,0.707,1.35,1.676,1.242c0,0.375,0,1.1,0,1.1c7.73-2.148,9.422-6.616,10.43-8.271
		C28.982,7.915,22.44,9.952,19.776,10.175z"/>
	<path d="M22.686,27.867c-0.103,0.043-2.09,1.052-5.656,0.544c-0.002-0.261-0.385-2.223-0.345-2.416
		c0.12-0.122,1.801-0.98,4.43-1.092C21.234,24.898,22.559,27.453,22.686,27.867z"/>
	<path d="M14.289,19.343c-0.15-0.381-1.259-3.174-1.299-3.249c0.241-0.06,0.47-0.117,0.717-0.178
		c0.052,0.052,1.481,2.381,1.701,2.695C15.042,18.851,14.668,19.095,14.289,19.343z"/>
	<path d="M20.821,23.933c0.144,0.102,0.113,0.385,0.135,0.474c-0.575,0.192-2.956,0.677-3.328,0.733l-0.122-0.764
		C17.711,24.296,20.461,23.951,20.821,23.933z"/>
	<path d="M16.689,24.112c0.145,0,0.282,0,0.438,0c0.053,0.418,0.105,0.835,0.157,1.248c-0.121,0.046-0.496,0.155-0.595,0.174
		C16.647,25.309,16.59,24.451,16.689,24.112z"/>
	<path d="M11.891,14.119c0.117-0.033,0.216-0.066,0.317-0.089c0.233-0.052,0.461-0.122,0.705-0.127
		c0.185-0.004,0.559,0.392,0.754,0.481c-0.491,0.105-0.955,0.204-1.437,0.307C12.194,14.631,11.945,14.211,11.891,14.119z"/>
</g>
</svg>
