<?xml version="1.0" encoding="iso-8859-1"?>
<!-- Generator: Adobe Illustrator 19.1.1, SVG Export Plug-In . SVG Version: 6.00 Build 0)  -->
<svg version="1.1" id="Layer_1" xmlns="http://www.w3.org/2000/svg" xmlns:xlink="http://www.w3.org/1999/xlink" x="0px" y="0px"
	 viewBox="0 0 32 32" style="enable-background:new 0 0 32 32;" xml:space="preserve">
<path style="fill:none;stroke:#000000;stroke-width:2;stroke-miterlimit:10;" d="M18.625,20.063c0,0,1.589-3.719,1.85-4.119
	c0.401-0.615,3.936-0.919,4.493-1.943c0.492-0.903,0.464-2.632,0.952-3.938C26.635,8.15,28.094,7.028,30,6.305V6.246
	c-6.917,1.667-9.094,8.972-10.25,11.254c0,0-0.767-2.5-3.923-2.5C11.259,15,8.71,20.097,7,23c-1.938,0.906-5,1-5,1s0.914,2,4,2
	c2.145,0,5.594-1,9-1c2.926,0,4.25,0,5,0c0.17,0.025,0.338-0.054,0.424-0.199l2.512-4.191c0.15-0.254-0.012-0.576-0.31-0.61
	c-0.844,0-0.566,0-1.625,0c-5.25,0-8.406,2-11,2"/>
</svg>
