<?xml version="1.0" encoding="iso-8859-1"?>
<!-- Generator: Adobe Illustrator 19.0.1, SVG Export Plug-In . SVG Version: 6.00 Build 0)  -->
<svg version="1.1" id="Layer_1" xmlns="http://www.w3.org/2000/svg" xmlns:xlink="http://www.w3.org/1999/xlink" x="0px" y="0px"
	 viewBox="0 0 32 32" style="enable-background:new 0 0 32 32;" xml:space="preserve">
<g id="XMLID_227_">
	
		<circle id="XMLID_220_" style="fill:none;stroke:#000000;stroke-width:2;stroke-linecap:round;stroke-linejoin:round;stroke-miterlimit:10;" cx="7" cy="7" r="2"/>
</g>
<g id="XMLID_223_">
	
		<path id="XMLID_224_" style="fill:none;stroke:#000000;stroke-width:2;stroke-linecap:round;stroke-linejoin:round;stroke-miterlimit:10;" d="
		M9.783,14.996l8.135,8.131c-1.001-0.016-2.001-0.191-2.945-0.567c-0.379-0.071-1.902-0.318-2.483,0.262
		c-1.33,1.33-2.546,3.145-3.211,3.81c-0.665,0.665-1.607,0.388-2.5-0.504c-0.892-0.892-1.149-1.854-0.503-2.498
		c0.644-0.644,2.48-1.879,3.812-3.21c0.609-0.61,0.292-2.296,0.244-2.533C9.969,16.96,9.8,15.978,9.783,14.996z M17.918,23.127
		c3.039-0.169,4.798-1.206,5.995-2.404c3.239-3.238,4.626-8.431,0.667-12.388C20.624,4.379,15.425,5.764,12.188,9
		c-1.198,1.197-2.138,2.584-2.405,5.996"/>
</g>
</svg>
