<?xml version="1.0" encoding="iso-8859-1"?>
<!-- Generator: Adobe Illustrator 19.2.0, SVG Export Plug-In . SVG Version: 6.00 Build 0)  -->
<svg version="1.1" id="Layer_1" xmlns="http://www.w3.org/2000/svg" xmlns:xlink="http://www.w3.org/1999/xlink" x="0px" y="0px"
	 viewBox="0 0 32 32" style="enable-background:new 0 0 32 32;" xml:space="preserve">
<path d="M10.564,10.633C10.526,10.427,10.5,10.217,10.5,10c0-1.884,1.491-3.408,3.356-3.485C14.508,6.194,15.23,6,16,6
	s1.492,0.194,2.144,0.515C20.009,6.592,21.5,8.116,21.5,10c0,0.217-0.026,0.427-0.064,0.633C21.78,10.991,22,11.467,22,12h1v-0.875
	C23,7.196,19.859,4,16,4s-7,3.196-7,7.125V12h1C10,11.467,10.22,10.991,10.564,10.633z"/>
<circle cx="14" cy="10" r="1"/>
<circle cx="18" cy="10" r="1"/>
<polygon points="16,12 14,13.5 16,15 18,13.5 "/>
<path d="M23,13.048c0.75,2.688,4.234,6.796,6,7.952c-1.405,0-5.417-0.244-6-1.952c-0.97-1.172-1-6-1-6S22.774,12.941,23,13.048z"/>
<path d="M9,13.048C8.25,15.735,4.766,19.844,3,21c1.405,0,5.417-0.244,6-1.952c0.97-1.172,1-6,1-6S9.226,12.941,9,13.048z"/>
<polygon points="10,26 22,26 24,28 24,28 8,28 8,28 "/>
<path d="M24.133,17.777l-0.184-0.635C23.461,15.471,23,13.892,23,12c0-0.593-0.181-1.166-0.516-1.657
	C22.495,10.226,22.5,10.112,22.5,10c-0.75-2.344-2.594-3.719-4.5-4.5c-0.699,0-1.38,0.162-2,0.473C15.38,5.662,14.699,5.5,14,5.5
	c-2.469,1.156-3.438,2.188-4.5,4.5c0,0.112,0.005,0.226,0.016,0.343C9.181,10.834,9,11.407,9,12c0,1.892-0.461,3.471-0.949,5.143
	l-0.184,0.635c-0.774,2.695-0.391,5.255,1.079,7.205C10.412,26.929,12.758,28,15.552,28h0.896c2.794,0,5.14-1.071,6.605-3.018
	C24.523,23.032,24.906,20.473,24.133,17.777z M21.456,23.779C20.377,25.211,18.599,26,16.448,26h-0.896
	c-2.15,0-3.929-0.789-5.008-2.221c-1.083-1.438-1.351-3.373-0.755-5.451l0.182-0.625C10.477,15.97,11,14.178,11,12
	c0-0.331,0-1.612,0-2c0-1.657,1.343-3,3-3c0.772,0,1.468,0.3,2,0.779C16.532,7.3,17.228,7,18,7c1.657,0,3,1.343,3,3
	c0,0.388,0,1.669,0,2c0,2.178,0.523,3.97,1.029,5.703l0.182,0.625C22.807,20.406,22.539,22.342,21.456,23.779z"/>
</svg>
