<?xml version="1.0" encoding="iso-8859-1"?>
<!-- Generator: Adobe Illustrator 19.1.0, SVG Export Plug-In . SVG Version: 6.00 Build 0)  -->
<svg version="1.1" id="Layer_1" xmlns="http://www.w3.org/2000/svg" xmlns:xlink="http://www.w3.org/1999/xlink" x="0px" y="0px"
	 viewBox="0 0 32 32" style="enable-background:new 0 0 32 32;" xml:space="preserve">
<polyline style="fill:none;stroke:#000000;stroke-width:2;stroke-miterlimit:10;" points="24.828,21 26,19.481 26,16 6,16 6,19.481 
	7.224,20.938 "/>
<line style="fill:none;stroke:#000000;stroke-width:2;stroke-miterlimit:10;" x1="13" y1="23" x2="19" y2="23"/>
<g>
	<path style="fill:none;stroke:#000000;stroke-width:2;stroke-miterlimit:10;" d="M10,20c-1.656,0-3,1.344-3,3s1.344,3,3,3
		s3-1.344,3-3S11.656,20,10,20L10,20z"/>
</g>
<g>
	<path style="fill:none;stroke:#000000;stroke-width:2;stroke-miterlimit:10;" d="M22,20c-1.656,0-3,1.344-3,3s1.344,3,3,3
		s3-1.344,3-3S23.656,20,22,20L22,20z"/>
</g>
<path style="fill:none;stroke:#000000;stroke-width:2;stroke-miterlimit:10;" d="M11,6c0,0,2,2.527,2,7.429"/>
<path style="fill:none;stroke:#000000;stroke-width:2;stroke-miterlimit:10;" d="M24,16c0-3.638,2-7,2-7l-5-3c0,0-2.567,1-5,1
	s-5-1-5-1L6,9c0,0,2,3.362,2,7"/>
<path style="fill:none;stroke:#000000;stroke-width:2;stroke-miterlimit:10;" d="M21,6c0,0-2,2.527-2,7.429"/>
</svg>
