<?xml version="1.0" encoding="iso-8859-1"?>
<!-- Generator: Adobe Illustrator 19.1.1, SVG Export Plug-In . SVG Version: 6.00 Build 0)  -->
<svg version="1.1" id="Layer_1" xmlns="http://www.w3.org/2000/svg" xmlns:xlink="http://www.w3.org/1999/xlink" x="0px" y="0px"
	 viewBox="0 0 32 32" style="enable-background:new 0 0 32 32;" xml:space="preserve">
<path style="fill:none;stroke:#000000;stroke-width:2;stroke-linejoin:round;stroke-miterlimit:10;" d="M16.002,28
	c0,0,0-0.056,0-0.328c0-3.605,6.317-6.12,6.317-6.12"/>
<path style="fill:none;stroke:#000000;stroke-width:2;stroke-linejoin:round;stroke-miterlimit:10;" d="M16.002,28
	c0,0,0-1.726,0-1.998c0-4.97-6.982-7.065-6.982-7.065"/>
<path style="fill:none;stroke:#000000;stroke-width:2;stroke-miterlimit:10;" d="M14.561,21.818
	c0.166-0.013,0.223-0.481,0.314-0.787c0.882-2.953-2.949-7.362-9.873-3.55c0,0,0.898,3.454,2.637,5.384
	c1.788,1.983,4.056,0.86,4.518,0.44"/>
<path style="fill:none;stroke:#000000;stroke-width:2;stroke-miterlimit:10;" d="M19.266,22.928c0,0-0.093-0.259-0.166-0.527
	c-0.706-2.583,2.36-5.44,7.9-2.106c0,0-0.985,1.82-2.377,3.508c-1.431,1.735-3.241,1.303-3.658,0.651"/>
<circle style="fill:none;stroke:#000000;stroke-width:2;stroke-miterlimit:10;" cx="22" cy="10" r="3"/>
<line style="fill:none;stroke:#000000;stroke-width:2;stroke-miterlimit:10;" x1="22" y1="7" x2="22" y2="4"/>
<line style="fill:none;stroke:#000000;stroke-width:2;stroke-miterlimit:10;" x1="22" y1="16" x2="22" y2="13"/>
<line style="fill:none;stroke:#000000;stroke-width:2;stroke-miterlimit:10;" x1="25" y1="10" x2="28" y2="10"/>
<line style="fill:none;stroke:#000000;stroke-width:2;stroke-miterlimit:10;" x1="16" y1="10" x2="19" y2="10"/>
<line style="fill:none;stroke:#000000;stroke-width:2;stroke-miterlimit:10;" x1="24.121" y1="7.879" x2="26.243" y2="5.757"/>
<line style="fill:none;stroke:#000000;stroke-width:2;stroke-miterlimit:10;" x1="17.757" y1="14.243" x2="19.879" y2="12.121"/>
<line style="fill:none;stroke:#000000;stroke-width:2;stroke-miterlimit:10;" x1="24.121" y1="12.121" x2="26.243" y2="14.243"/>
<line style="fill:none;stroke:#000000;stroke-width:2;stroke-miterlimit:10;" x1="17.757" y1="5.757" x2="19.879" y2="7.879"/>
</svg>
