<?xml version="1.0" encoding="utf-8"?>
<!-- Generator: Adobe Illustrator 18.0.0, SVG Export Plug-In . SVG Version: 6.00 Build 0)  -->
<svg version="1.1" id="Layer_1" xmlns="http://www.w3.org/2000/svg" xmlns:xlink="http://www.w3.org/1999/xlink" x="0px" y="0px"
	 viewBox="0 0 32 32" enable-background="new 0 0 32 32" xml:space="preserve">
<path fill="none" stroke="#000000" stroke-width="2" stroke-miterlimit="10" d="M22,22c0-0.7,0.4-1.4,1-1.7v-2.6c-0.6-0.3-1-1-1-1.7
	c0-0.7,0.4-1.4,1-1.7V14c0-1.3-0.6-2.4-1.6-3.2L19,9V7c0-1.1-0.9-2-2-2h-2c-1.1,0-2,0.9-2,2v2l-2.4,1.8C9.6,11.6,9,12.7,9,14v0.3
	c0.6,0.3,1,1,1,1.7c0,0.7-0.4,1.4-1,1.7v2.6c0.6,0.3,1,1,1,1.7c0,0.7-0.4,1.4-1,1.7V25c0,1.1,0.9,2,2,2h10c1.1,0,2-0.9,2-2v-1.3
	C22.4,23.4,22,22.7,22,22z"/>
<line fill="none" stroke="#000000" stroke-width="2" stroke-miterlimit="10" x1="13" y1="9" x2="19" y2="9"/>
<line fill="none" stroke="#000000" stroke-width="2" stroke-miterlimit="10" x1="16" y1="14" x2="23" y2="14"/>
<line fill="none" stroke="#000000" stroke-width="2" stroke-miterlimit="10" x1="16" y1="20" x2="23" y2="20"/>
</svg>
