<?xml version="1.0" encoding="iso-8859-1"?>
<!-- Generator: Adobe Illustrator 19.1.1, SVG Export Plug-In . SVG Version: 6.00 Build 0)  -->
<svg version="1.1" id="Layer_1" xmlns="http://www.w3.org/2000/svg" xmlns:xlink="http://www.w3.org/1999/xlink" x="0px" y="0px"
	 viewBox="0 0 32 32" style="enable-background:new 0 0 32 32;" xml:space="preserve">
<path id="path2406" d="M9,16c0,1.667-1.333,3-3,3s-3-1.333-3-3s1.333-3,3-3C7.667,13.111,9,14.444,9,16z"/>
<path id="path2406_1_" d="M24,7c0,1.667-1.333,3-3,3s-3-1.333-3-3s1.333-3,3-3C22.667,4.111,24,5.444,24,7z"/>
<path id="path2406_4_" d="M14,7c0,1.667-1.333,3-3,3S8,8.667,8,7s1.333-3,3-3C12.667,4.111,14,5.444,14,7z"/>
<path id="path2406_6_" d="M24,25c0,1.667-1.333,3-3,3s-3-1.333-3-3s1.333-3,3-3C22.667,22.111,24,23.444,24,25z"/>
<path id="path2406_5_" d="M14,25c0,1.667-1.333,3-3,3s-3-1.333-3-3s1.333-3,3-3C12.667,22.111,14,23.444,14,25z"/>
<path id="path2406_3_" d="M9,16c0,1.667-1.333,3-3,3s-3-1.333-3-3s1.333-3,3-3C7.667,13.111,9,14.444,9,16z"/>
<path id="path2418" d="M20,16c0,2.2-1.8,4-4,4s-4-1.8-4-4s1.8-4,4-4C18.2,11.9,20,13.8,20,16z"/>
<path id="path2424" d="M9.978,9.801c0,0,2.457,0.546,2.857,1.346c0.5,0.9,0.151,1.965-0.249,2.865c-0.5,1.2,5.1-1.8,3.8-2
	c-1.9-0.2-2.251-0.465-2.751-1.265c-0.5-0.8,0.359-3.292,0.359-3.292L9.978,9.801z"/>
<path id="path2406_2_" d="M29,16c0,1.667-1.333,3-3,3s-3-1.333-3-3s1.333-3,3-3C27.667,13.111,29,14.444,29,16z"/>
</svg>
