<?xml version="1.0" encoding="iso-8859-1"?>
<!-- Generator: Adobe Illustrator 19.1.1, SVG Export Plug-In . SVG Version: 6.00 Build 0)  -->
<svg version="1.1" id="Layer_1" xmlns="http://www.w3.org/2000/svg" xmlns:xlink="http://www.w3.org/1999/xlink" x="0px" y="0px"
	 viewBox="0 0 32 32" style="enable-background:new 0 0 32 32;" xml:space="preserve">
<circle cx="13" cy="19" r="1"/>
<circle cx="19" cy="19" r="1"/>
<ellipse cx="16" cy="20.5" rx="1" ry="0.5"/>
<path d="M24,20c0,0-5.167,1.75-2,6C26,24.333,24,20,24,20z"/>
<polygon points="25,7 28,10 29,7 28,6 "/>
<path style="fill:none;stroke:#000000;stroke-width:2;stroke-miterlimit:10;" d="M10,25c-1.542,0-3-1.833-3-4s1-3,1-3
	c0-1,1.333-3.042,2-4c-6.583-2.167-7-8-7-8c5.833,0.25,9,6,9,6s1.542-1,4-1s4,1,4,1s3.167-5.75,9-6c0,0-0.417,5.833-7,8
	c0.667,0.958,2,3,2,4c0,0,1,0.833,1,3s-1.458,4-3,4"/>
<path d="M8,20c0,0,5.167,1.75,2,6C6,24.333,8,20,8,20z"/>
<polygon points="7,7 4,10 3,7 4,6 "/>
</svg>
