<?xml version="1.0" encoding="iso-8859-1"?>
<!-- Generator: Adobe Illustrator 21.0.0, SVG Export Plug-In . SVG Version: 6.00 Build 0)  -->
<svg version="1.1"  xmlns="http://www.w3.org/2000/svg" xmlns:xlink="http://www.w3.org/1999/xlink" x="0px" y="0px"
	 viewBox="0 0 32 32" style="enable-background:new 0 0 32 32;" xml:space="preserve">
<path d="M12.739,6.782c1.284,0,2.711,0.494,4.234,1.463l4.063,2.616l-1.997,0.692l-1.649,0.571l0.342,1.711l0.722,3.61l-3.61-0.722
	l-1.721-0.344l-0.565,1.662l-0.662,1.948L9.26,15.974c-1.965-3.087-1.946-5.667,0.054-7.668C10.34,7.281,11.46,6.782,12.739,6.782
	L12.739,6.782 M12.739,4.782c-1.737,0-3.384,0.654-4.839,2.109c-2.895,2.895-2.621,6.552-0.328,10.156l4.899,7.463l1.98-5.825
	l6.552,1.31l-1.31-6.552l5.882-2.038l-7.52-4.842C16.264,5.423,14.458,4.782,12.739,4.782L12.739,4.782z"/>
<g>
	<path d="M8.059,8.338C8.022,8.243,7.09,6,2,6V4c6.645,0,7.898,3.533,7.949,3.684L8.059,8.338z"/>
</g>
<rect x="17" y="22" style="fill-rule:evenodd;clip-rule:evenodd;" width="2" height="2"/>
<rect x="23" y="22" style="fill-rule:evenodd;clip-rule:evenodd;" width="2" height="2"/>
<rect x="17" y="27" style="fill-rule:evenodd;clip-rule:evenodd;" width="2" height="2"/>
<rect x="23" y="16" style="fill-rule:evenodd;clip-rule:evenodd;" width="2" height="2"/>
<rect x="28" y="16" style="fill-rule:evenodd;clip-rule:evenodd;" width="2" height="2"/>
</svg>
