<?xml version="1.0" encoding="utf-8"?>
<!-- Generator: Adobe Illustrator 21.0.2, SVG Export Plug-In . SVG Version: 6.00 Build 0)  -->
<svg version="1.1" id="Layer_1" xmlns="http://www.w3.org/2000/svg" xmlns:xlink="http://www.w3.org/1999/xlink" x="0px" y="0px"
	 viewBox="0 0 32 32" style="enable-background:new 0 0 32 32;" xml:space="preserve">
<style type="text/css">
	.st0{fill:none;stroke:#000000;stroke-width:2;stroke-miterlimit:10;}
</style>
<path class="st0" d="M27,17c0-1.3-0.8-2.4-2-2.8V14c0-5-4-9-9-9s-9,4-9,9v0.2c-1.2,0.4-2,1.5-2,2.8c0,1.4,0.9,2.5,2.2,2.9
	c0.9,4,4.5,7.1,8.8,7.1s7.9-3.1,8.8-7.1C26.1,19.5,27,18.4,27,17z"/>
<path d="M21.3,14.8l-3.7-0.4L16,11l-1.5,3.4l-3.7,0.4l2.8,2.5L12.8,21l3.2-1.9l3.2,1.9l-0.8-3.7L21.3,14.8z"/>
</svg>
