<?xml version="1.0" encoding="utf-8"?>
<!-- Generator: Adobe Illustrator 18.0.0, SVG Export Plug-In . SVG Version: 6.00 Build 0)  -->
<svg version="1.1" id="Layer_1" xmlns="http://www.w3.org/2000/svg" xmlns:xlink="http://www.w3.org/1999/xlink" x="0px" y="0px"
	 viewBox="0 0 32 32" enable-background="new 0 0 32 32" xml:space="preserve">
<path fill="none" stroke="#000000" stroke-width="2" stroke-miterlimit="10" d="M14,9.1C9.4,9.3,6,10.5,6,12c0,1.7,4.5,3,10,3
	s10-1.3,10-3c0-1.5-3.4-2.7-8-2.9"/>
<path fill="none" stroke="#000000" stroke-width="2" stroke-miterlimit="10" d="M26,12c0,0.5,0,8.5,0,9c0,1.7-4.5,3-10,3
	S6,22.7,6,21c0-0.5,0-8.5,0-9"/>
<path fill="none" stroke="#000000" stroke-width="2" stroke-miterlimit="10" d="M16,5c-1.1,0-2,0.3-2,0.6v5.8c0,0.3,0.9,0.6,2,0.6
	s2-0.3,2-0.6V5.6C18,5.3,17.1,5,16,5z"/>
<line fill="none" stroke="#000000" stroke-width="2" stroke-miterlimit="10" x1="16" y1="19.8" x2="16" y2="28"/>
<circle cx="16" cy="19.8" r="1"/>
<line fill="none" stroke="#000000" stroke-width="2" stroke-miterlimit="10" x1="21" y1="18.8" x2="25.2" y2="25.2"/>
<circle cx="21" cy="18.8" r="1"/>
<line fill="none" stroke="#000000" stroke-width="2" stroke-miterlimit="10" x1="11" y1="18.8" x2="6.8" y2="25.2"/>
<circle cx="11" cy="18.8" r="1"/>
</svg>
