<?xml version="1.0" encoding="iso-8859-1"?>
<!-- Generator: Adobe Illustrator 21.0.2, SVG Export Plug-In . SVG Version: 6.00 Build 0)  -->
<svg version="1.1"  xmlns="http://www.w3.org/2000/svg" xmlns:xlink="http://www.w3.org/1999/xlink" x="0px" y="0px"
	 viewBox="0 0 32 32" style="enable-background:new 0 0 32 32;" xml:space="preserve">
<path style="fill:none;stroke:#000000;stroke-width:2;stroke-miterlimit:10;" d="M11,19v9l5-2l5,2v-9"/>
<circle style="fill:none;stroke:#000000;stroke-width:2;stroke-miterlimit:10;" cx="16" cy="13" r="4"/>
<polygon style="fill:none;stroke:#000000;stroke-width:2;stroke-linecap:round;stroke-miterlimit:10;" points="17.989,5.768 
	20.552,5.235 21.338,7.732 23.824,8.552 23.257,11.107 25,13.059 23.232,14.989 23.765,17.552 21.268,18.338 20.448,20.824 
	17.893,20.257 15.941,22 14.011,20.232 11.448,20.765 10.662,18.268 8.176,17.448 8.743,14.893 7,12.941 8.768,11.011 8.235,8.448 
	10.732,7.662 11.552,5.176 14.107,5.743 16.059,4 "/>
</svg>
