<?xml version="1.0" encoding="utf-8"?>
<!-- Generator: Adobe Illustrator 18.0.0, SVG Export Plug-In . SVG Version: 6.00 Build 0)  -->
<svg version="1.1" id="Layer_1" xmlns="http://www.w3.org/2000/svg" xmlns:xlink="http://www.w3.org/1999/xlink" x="0px" y="0px"
	 viewBox="0 0 32 32" enable-background="new 0 0 32 32" xml:space="preserve">
<line fill="none" stroke="#000000" stroke-width="2" stroke-miterlimit="10" x1="18" y1="3" x2="18" y2="6"/>
<line fill="none" stroke="#000000" stroke-width="2" stroke-miterlimit="10" x1="22" y1="3" x2="22" y2="6"/>
<line fill="none" stroke="#000000" stroke-width="2" stroke-miterlimit="10" x1="14" y1="3" x2="14" y2="6"/>
<line fill="none" stroke="#000000" stroke-width="2" stroke-miterlimit="10" x1="10" y1="3" x2="10" y2="6"/>
<line fill="none" stroke="#000000" stroke-width="2" stroke-miterlimit="10" x1="18" y1="26" x2="18" y2="29"/>
<line fill="none" stroke="#000000" stroke-width="2" stroke-miterlimit="10" x1="22" y1="26" x2="22" y2="29"/>
<line fill="none" stroke="#000000" stroke-width="2" stroke-miterlimit="10" x1="14" y1="26" x2="14" y2="29"/>
<line fill="none" stroke="#000000" stroke-width="2" stroke-miterlimit="10" x1="10" y1="26" x2="10" y2="29"/>
<line fill="none" stroke="#000000" stroke-width="2" stroke-miterlimit="10" x1="29" y1="18" x2="26" y2="18"/>
<line fill="none" stroke="#000000" stroke-width="2" stroke-miterlimit="10" x1="29" y1="22" x2="26" y2="22"/>
<line fill="none" stroke="#000000" stroke-width="2" stroke-miterlimit="10" x1="29" y1="14" x2="26" y2="14"/>
<line fill="none" stroke="#000000" stroke-width="2" stroke-miterlimit="10" x1="29" y1="10" x2="26" y2="10"/>
<line fill="none" stroke="#000000" stroke-width="2" stroke-miterlimit="10" x1="6" y1="18" x2="3" y2="18"/>
<line fill="none" stroke="#000000" stroke-width="2" stroke-miterlimit="10" x1="6" y1="22" x2="3" y2="22"/>
<line fill="none" stroke="#000000" stroke-width="2" stroke-miterlimit="10" x1="6" y1="14" x2="3" y2="14"/>
<line fill="none" stroke="#000000" stroke-width="2" stroke-miterlimit="10" x1="6" y1="10" x2="3" y2="10"/>
<rect x="8" y="8" fill="none" stroke="#000000" stroke-width="2" stroke-miterlimit="10" width="16" height="16"/>
<circle cx="12.5" cy="12.5" r="1.5"/>
<circle cx="19.5" cy="19.5" r="1.5"/>
</svg>
