<?xml version="1.0" encoding="iso-8859-1"?>
<!-- Generator: Adobe Illustrator 19.1.1, SVG Export Plug-In . SVG Version: 6.00 Build 0)  -->
<svg version="1.1" id="Layer_1" xmlns="http://www.w3.org/2000/svg" xmlns:xlink="http://www.w3.org/1999/xlink" x="0px" y="0px"
	 viewBox="0 0 32 32" style="enable-background:new 0 0 32 32;" xml:space="preserve">
<path style="fill:none;stroke:#000000;stroke-width:2;stroke-miterlimit:10;" d="M23.059,6H16H8.941C7.317,6,6,7.317,6,8.941V16
	v7.059C6,24.683,7.317,26,8.941,26H16h7.059C24.683,26,26,24.683,26,23.059V16V8.941C26,7.317,24.683,6,23.059,6z"/>
<path id="XMLID_127_" style="fill:none;stroke:#000000;stroke-width:2;stroke-miterlimit:10;" d="M18,12v5.5
	c0,0.828-0.672,1.5-1.5,1.5h0c-0.828,0-1.5-0.672-1.5-1.5V12"/>
<polyline id="XMLID_96_" style="fill:none;stroke:#000000;stroke-width:2;stroke-miterlimit:10;" points="24,19 21,19 21,13 24,13 
	"/>
<line id="XMLID_113_" style="fill:none;stroke:#000000;stroke-width:2;stroke-miterlimit:10;" x1="21" y1="16" x2="23" y2="16"/>
<path style="fill:none;stroke:#000000;stroke-width:2;stroke-miterlimit:10;" d="M10.5,13L10.5,13C9.672,13,9,13.672,9,14.5v3
	c0,0.828,0.672,1.5,1.5,1.5H12v-4.5C12,13.672,11.328,13,10.5,13z"/>
<polygon id="XMLID_194_" points="12,17 10,17 12,21 14,21 "/>
</svg>
