<?xml version="1.0" encoding="iso-8859-1"?>
<!-- Generator: Adobe Illustrator 19.1.0, SVG Export Plug-In . SVG Version: 6.00 Build 0)  -->
<svg version="1.1" id="Layer_1" xmlns="http://www.w3.org/2000/svg" xmlns:xlink="http://www.w3.org/1999/xlink" x="0px" y="0px"
	 viewBox="0 0 32 32" style="enable-background:new 0 0 32 32;" xml:space="preserve">
<path style="fill:none;stroke:#000000;stroke-width:2;stroke-linejoin:round;stroke-miterlimit:10;" d="M11.876,16.427
	c-2.062-0.948-3.714-0.233-4.573,0.687c-3.14,3.364,0.952,7.097-2.478,10.527"/>
<path style="fill:none;stroke:#000000;stroke-width:2;stroke-linejoin:round;stroke-miterlimit:10;" d="M5.484,26.86
	c3.022-3.022,6.98,1.065,9.947-1.693c0.988-0.918,1.455-2.943,0.392-4.982"/>
<path style="fill:none;stroke:#000000;stroke-width:2;stroke-miterlimit:10;" d="M14.006,18c0,0,4.187-3.49,8.572-7.173
	C25.174,8.645,24.03,5,20.761,5c-1.211,0-2.93,0.912-2.93,2.638c0,0.677,0.437,0.59,0.587,1.209
	c0.113,0.467-2.083,1.642-0.627,3.098"/>
<path style="fill:none;stroke:#000000;stroke-width:2;stroke-miterlimit:10;" d="M20.576,12.522C23.94,9.51,26,11.377,26,13.074
	C26,14.39,25.245,15,23.538,15c-1.757,0-1.531,3.771-3.915,1.387"/>
<path style="fill:none;stroke:#000000;stroke-width:2;stroke-linecap:round;stroke-linejoin:round;stroke-miterlimit:10;" d="
	M15.894,21.248c-1.439,0.959-3.209,1.019-4.557-0.48c-1.295-1.439-1.247-2.926-0.528-4.461"/>
</svg>
