<?xml version="1.0" encoding="utf-8"?>
<!-- Generator: Adobe Illustrator 18.1.1, SVG Export Plug-In . SVG Version: 6.00 Build 0)  -->
<svg version="1.1" id="Layer_1" xmlns="http://www.w3.org/2000/svg" xmlns:xlink="http://www.w3.org/1999/xlink" x="0px" y="0px"
	 viewBox="0 0 32 32" enable-background="new 0 0 32 32" xml:space="preserve">
<rect x="5" y="5" fill="none" stroke="#000000" stroke-width="2" stroke-miterlimit="10" width="22" height="22"/>
<g>
	<path d="M16,13.3l0.5,1.1l0.5,1.1l1.2,0.1l1.2,0.1l-0.9,0.8l-0.9,0.8l0.2,1.1l0.3,1.2L17,19l-1-0.6L15,19l-1,0.6l0.3-1.2l0.2-1.1
		l-0.9-0.8l-0.9-0.8l1.2-0.1l1.2-0.1l0.5-1.1L16,13.3 M16,8.4l-2.3,5.2L8,14.2l4.3,3.8l-1.2,5.6l4.9-2.9l4.9,2.9L19.7,18l4.3-3.8
		l-5.7-0.6L16,8.4L16,8.4z"/>
</g>
</svg>
