<?xml version="1.0" encoding="iso-8859-1"?>
<!-- Generator: Adobe Illustrator 19.1.1, SVG Export Plug-In . SVG Version: 6.00 Build 0)  -->
<svg version="1.1" id="Layer_1" xmlns="http://www.w3.org/2000/svg" xmlns:xlink="http://www.w3.org/1999/xlink" x="0px" y="0px"
	 viewBox="0 0 32 32" style="enable-background:new 0 0 32 32;" xml:space="preserve">
<circle style="fill:none;stroke:#000000;stroke-width:2;stroke-linecap:round;stroke-miterlimit:10;" cx="26" cy="6" r="2"/>
<path style="fill:none;stroke:#000000;stroke-width:2;stroke-linecap:square;stroke-miterlimit:10;" d="M13.338,14.911
	c0,0-0.753,2.572-2.268,4.087c-1.619,1.619-5.222,2.83-6.173,3.782c-1.195,1.195-1.196,3.13,0,4.325
	c1.194,1.194,3.129,1.194,4.324-0.001c0.952-0.952,2.148-4.553,3.774-6.18c1.508-1.508,4.096-2.259,4.096-2.259"/>
<path style="fill:none;stroke:#000000;stroke-width:2;stroke-miterlimit:10;" d="M26.375,16.125C25.528,16.972,21.955,15.955,19,13
	s-4.018-6.486-3.171-7.333"/>
<path style="fill:none;stroke:#000000;stroke-width:2;stroke-linecap:round;stroke-miterlimit:10;" d="M24.243,4.999
	C23.141,4.364,21.863,4,20.5,4C16.358,4,13,7.358,13,11.5s3.358,7.5,7.5,7.5s7.5-3.358,7.5-7.5c0-1.265-0.313-2.456-0.866-3.501"/>
</svg>
