<?xml version="1.0" encoding="utf-8"?>
<!-- Generator: Adobe Illustrator 18.0.0, SVG Export Plug-In . SVG Version: 6.00 Build 0)  -->
<svg version="1.1" id="Layer_1" xmlns="http://www.w3.org/2000/svg" xmlns:xlink="http://www.w3.org/1999/xlink" x="0px" y="0px"
	 viewBox="0 0 32 32" enable-background="new 0 0 32 32" xml:space="preserve">
<polyline fill="none" stroke="#000000" stroke-width="2" stroke-miterlimit="10" points="25,22 25,28 7,28 7,22 "/>
<polyline fill="none" stroke="#000000" stroke-width="2" stroke-miterlimit="10" points="7,10 7,4 25,4 25,10 "/>
<polyline fill="none" stroke="#000000" stroke-width="2" stroke-miterlimit="10" points="16,20 16,19 14.1,13 13.9,13 12,19 12,20 
	"/>
<line fill="none" stroke="#000000" stroke-width="2" stroke-miterlimit="10" x1="12.4" y1="18" x2="15.6" y2="18"/>
<polyline fill="none" stroke="#000000" stroke-width="2" stroke-miterlimit="10" points="18,12 18,13 20,19 20,19 21.5,14.5 
	21.5,14.5 23,19 23,19 25,13 25,12 "/>
<path fill="none" stroke="#000000" stroke-width="2" stroke-miterlimit="10" d="M6,16h1.5C8.3,16,9,15.3,9,14.5v0
	C9,13.7,8.3,13,7.5,13H6v7"/>
<polygon points="8.7,16 6.7,16 8,20 10,20 "/>
</svg>
