<?xml version="1.0" encoding="UTF-8" standalone="no"?><!DOCTYPE svg PUBLIC "-//W3C//DTD SVG 1.1//EN" "http://www.w3.org/Graphics/SVG/1.1/DTD/svg11.dtd"><svg width="100%" height="100%" viewBox="0 0 32 32" version="1.1" xmlns="http://www.w3.org/2000/svg" xmlns:xlink="http://www.w3.org/1999/xlink" xml:space="preserve" style="fill-rule:evenodd;clip-rule:evenodd;stroke-linejoin:round;stroke-miterlimit:1.41421;"><path d="M25.4,17.6c0.3,-1.1 0.6,-2.7 0.6,-5l0,-1l-1,0c-1.8,0 -3.2,0.6 -4.2,1.2c-0.3,-2 -1.3,-5.4 -4,-8.8l-0.8,-1l-0.8,1c-2.7,3.4 -3.7,6.8 -4,8.8c-1,-0.6 -2.5,-1.2 -4.2,-1.2l-1,0l0,1c0,2.3 0.3,3.9 0.6,5l-3.6,0l0,1c0,1.9 1.4,3.7 2,4.4l0,4.6l22,0l0,-4.5c0.8,-0.6 2,-1.9 2,-4.5l0,-1l-3.6,0Zm-15.8,2l-0.7,-1.4c0,-0.1 -0.8,-1.6 -0.9,-4.5c2,0.3 3.3,1.6 3.3,1.6l1.7,1.7l0,-2.4c0,0 0,-4 3,-8.3c2.9,4.2 3,8.3 3,8.3l0,2.4l1.7,-1.7c0,0 1.3,-1.2 3.3,-1.6c-0.2,3 -0.9,4.5 -0.9,4.5l-0.7,1.4l4.5,0c-0.3,1.2 -1,1.8 -1.3,2l-8.6,0l2,-2l-3,-3l-3,3l2,2l-8.6,0c-0.4,-0.5 -0.9,-1.2 -1.2,-2l4.4,0Zm15.4,6l-18,0l0,-2l18,0l0,2Z" style="fill-rule:nonzero;"/></svg>