<?xml version="1.0" encoding="iso-8859-1"?>
<!-- Generator: Adobe Illustrator 19.2.0, SVG Export Plug-In . SVG Version: 6.00 Build 0)  -->
<svg version="1.1" id="Layer_1" xmlns="http://www.w3.org/2000/svg" xmlns:xlink="http://www.w3.org/1999/xlink" x="0px" y="0px"
	 viewBox="0 0 32 32" style="enable-background:new 0 0 32 32;" xml:space="preserve">
<path style="fill:none;stroke:#000000;stroke-width:2;stroke-miterlimit:10;" d="M6.484,24.558c0,0,1.352-0.558,2.715-0.558
	s4.754,3,6.048,3c0.96,0,7.526-2.55,10.515-3.867c0.982-0.433,1.469-1.54,1.13-2.558l0,0c-0.323-0.97-1.305-1.561-2.314-1.393
	l-5.962,0.972C18.276,19.638,14.082,17,11.474,17C8.68,17,4.41,18.69,4.41,18.69"/>
<path style="fill:none;stroke:#000000;stroke-width:2;stroke-miterlimit:10;" d="M12.228,20.787l4.443,2.114
	c0.739,0.259,1.561-0.004,2.012-0.645l0,0c0.557-0.793,0.364-1.887-0.431-2.441l-0.3-0.213"/>
<path style="fill:none;stroke:#000000;stroke-width:2;stroke-miterlimit:10;" d="M16.181,10.872C14.925,10.514,14,9.371,14,8
	c0-1.657,1.343-3,3-3s3,1.343,3,3"/>
<circle style="fill:none;stroke:#000000;stroke-width:2;stroke-miterlimit:10;" cx="20" cy="12" r="4"/>
</svg>
