<?xml version="1.0" encoding="iso-8859-1"?>
<!-- Generator: Adobe Illustrator 19.1.1, SVG Export Plug-In . SVG Version: 6.00 Build 0)  -->
<svg version="1.1" id="Layer_1" xmlns="http://www.w3.org/2000/svg" xmlns:xlink="http://www.w3.org/1999/xlink" x="0px" y="0px"
	 viewBox="0 0 32 32" style="enable-background:new 0 0 32 32;" xml:space="preserve">
<path style="fill:none;stroke:#000000;stroke-width:2;stroke-miterlimit:10;" d="M30.31,4.966c-0.333-0.692-0.787-1.342-1.361-1.916
	c-2.734-2.734-7.166-2.734-9.899,0s-2.734,7.166,0,9.899s7.166,2.734,9.899,0c1.186-1.186,1.858-2.692,2.014-4.24"/>
<polyline style="fill:none;stroke:#000000;stroke-width:2;stroke-miterlimit:10;" points="26,5 31,5 31,0 "/>
<rect x="4" y="9" width="2" height="18"/>
<rect x="8" y="9" width="6" height="18"/>
<path d="M20,27h4v-9c-1.423,0-2.774-0.302-4-0.838V27z"/>
<path d="M16,13.982V27h2V15.986C17.242,15.416,16.569,14.741,16,13.982z"/>
<path d="M26,17.799V27h2v-9.838C27.364,17.44,26.696,17.658,26,17.799z"/>
</svg>
