<?xml version="1.0" encoding="iso-8859-1"?>
<!-- Generator: Adobe Illustrator 19.1.1, SVG Export Plug-In . SVG Version: 6.00 Build 0)  -->
<svg version="1.1" id="Layer_1" xmlns="http://www.w3.org/2000/svg" xmlns:xlink="http://www.w3.org/1999/xlink" x="0px" y="0px"
	 viewBox="0 0 32 32" style="enable-background:new 0 0 32 32;" xml:space="preserve">
<path d="M7.548,12.737v-5.73C3.265,7.726,0,11.449,0,15.936c0,2.23,0.808,4.271,2.145,5.849C5.316,20.251,7.532,16.779,7.548,12.737
	z"/>
<path d="M9.057,18.223c-0.564,2.336-2.249,4.332-4.349,5.659c1.291,0.708,2.772,1.111,4.348,1.111c1.576,0,3.058-0.403,4.349-1.111
	C11.306,22.555,9.621,20.558,9.057,18.223z"/>
<path d="M15.969,10.087c-1.353-1.596-3.248-2.718-5.402-3.079v5.687h0c0,4.059,2.22,7.549,5.401,9.09
	c-1.336-1.578-2.144-3.618-2.144-5.848C13.824,13.706,14.631,11.664,15.969,10.087z"/>
<path d="M15.969,10.087c1.337,1.578,2.207,3.619,2.207,5.85c0,2.23-0.87,4.27-2.207,5.848l-0.001-0.001c0,0,0.001,0.001,0.001,0.001
	c3.171-1.535,5.45-5.007,5.465-9.048v-5.73C19.28,7.369,17.322,8.49,15.969,10.087z"/>
<path d="M24.453,12.695L24.453,12.695c0,4.059,2.221,7.549,5.402,9.09C31.192,20.207,32,18.166,32,15.936
	c0-4.487-3.264-8.21-7.547-8.929V12.695z"/>
<path d="M22.944,18.223c-0.564,2.336-2.249,4.332-4.349,5.659c1.291,0.708,2.772,1.111,4.348,1.111c1.576,0,3.058-0.403,4.349-1.111
	C25.193,22.555,23.508,20.558,22.944,18.223z"/>
</svg>
