<?xml version="1.0" encoding="iso-8859-1"?>
<!-- Generator: Adobe Illustrator 19.2.0, SVG Export Plug-In . SVG Version: 6.00 Build 0)  -->
<svg version="1.1" id="Layer_1" xmlns="http://www.w3.org/2000/svg" xmlns:xlink="http://www.w3.org/1999/xlink" x="0px" y="0px"
	 viewBox="0 0 32 32" style="enable-background:new 0 0 32 32;" xml:space="preserve">
<circle cx="16" cy="4.5" r="1.5"/>
<circle cx="26.5" cy="15" r="1.5"/>
<circle cx="5.5" cy="15" r="1.5"/>
<rect x="15" y="5" width="2" height="3"/>
<rect x="6" y="14" width="3" height="2"/>
<rect x="23" y="14" width="3" height="2"/>
<rect x="13" y="14" width="2" height="2"/>
<rect x="17" y="14" width="2" height="2"/>
<path style="fill:none;stroke:#000000;stroke-width:2;stroke-miterlimit:10;" d="M19,23.2v-1.874c1.792-0.865,3-2.476,3-4.326h1v-4
	h-1c0-2.761-2.686-5-6-5s-6,2.239-6,5H9v4h1c0,1.85,1.208,3.461,3,4.326V23.2L6,26v2h20v-2L19,23.2z"/>
</svg>
