<?xml version="1.0" encoding="iso-8859-1"?>
<!-- Generator: Adobe Illustrator 19.1.0, SVG Export Plug-In . SVG Version: 6.00 Build 0)  -->
<svg version="1.1" id="Layer_1" xmlns="http://www.w3.org/2000/svg" xmlns:xlink="http://www.w3.org/1999/xlink" x="0px" y="0px"
	 viewBox="0 0 32 32" style="enable-background:new 0 0 32 32;" xml:space="preserve">
<path style="fill:none;stroke:#000000;stroke-width:2;stroke-miterlimit:10;" d="M25.191,13.967
	c2.105-2.104,1.793-8.951,1.793-8.951s-6.793-0.344-8.943,1.805S7.575,20.139,7.575,20.139l4.29,4.288
	C11.865,24.427,23.086,16.071,25.191,13.967z"/>
<circle cx="20.445" cy="11.564" r="2.022"/>
<path style="fill:none;stroke:#000000;stroke-width:2;stroke-miterlimit:10;" d="M9.339,25.073C7.966,26.446,5,27,5,27
	s0.669-3.096,1.922-4.35"/>
<path style="fill:none;stroke:#000000;stroke-width:2;stroke-miterlimit:10;" d="M11.865,24.427L12.58,28l2.565-2.075
	c0.747-0.604,1.159-1.53,1.108-2.489l-0.116-2.192"/>
<path style="fill:none;stroke:#000000;stroke-width:2;stroke-miterlimit:10;" d="M7.575,20.139L4,19.425l2.077-2.564
	c0.604-0.746,1.53-1.158,2.489-1.107l2.215,0.118"/>
</svg>
