<?xml version="1.0" encoding="iso-8859-1"?>
<!-- Generator: Adobe Illustrator 22.1.0, SVG Export Plug-In . SVG Version: 6.00 Build 0)  -->
<svg version="1.1" id="Layer_1" xmlns="http://www.w3.org/2000/svg" xmlns:xlink="http://www.w3.org/1999/xlink" x="0px" y="0px"
	 viewBox="0 0 32 32" style="enable-background:new 0 0 32 32;" xml:space="preserve">
<g>
	<polygon points="7.76,12 4,12 4,8.24 	"/>
</g>
<path style="fill:none;stroke:#000000;stroke-width:2;stroke-miterlimit:10;" d="M16,4c6.6,0,12,5.4,12,12"/>
<g>
	<path d="M16,3v2c-3.39,0-6.41,1.44-8.47,3.95L6.11,7.53C8.56,4.68,12.13,3,16,3z"/>
</g>
<g>
	<path d="M21.36,25.6l1.46,1.46C20.83,28.29,18.5,29,16,29v-2C17.95,27,19.78,26.49,21.36,25.6z"/>
	<path d="M29,16c0,3.95-1.77,7.49-4.55,9.87l-1.41-1.41C25.46,22.43,27,19.4,27,16H29z"/>
</g>
<g>
	<g>
		<path style="fill:none;stroke:#000000;stroke-width:2;stroke-miterlimit:10;" d="M16,28c-0.3,0-0.7,0-1,0"/>
		<path style="fill:none;stroke:#000000;stroke-width:2;stroke-miterlimit:10;stroke-dasharray:1.8716,1.8716;" d="M13.2,27.7
			c-4.6-1.1-8.2-5-9-9.7"/>
		<path style="fill:none;stroke:#000000;stroke-width:2;stroke-miterlimit:10;" d="M4,17c0-0.3,0-0.7,0-1"/>
	</g>
</g>
<g>
	<line style="fill:none;stroke:#000000;stroke-width:2;stroke-miterlimit:10;" x1="3" y1="3" x2="29" y2="29"/>
</g>
<g>
	<g>
		<g>
			<path style="fill:#FFFFFF;" d="M6.11,7.53C6.07,7.57,6.03,7.62,6,7.67V7.42L6.11,7.53z"/>
		</g>
	</g>
</g>
</svg>
