<?xml version="1.0" encoding="iso-8859-1"?>
<!-- Generator: Adobe Illustrator 19.1.1, SVG Export Plug-In . SVG Version: 6.00 Build 0)  -->
<svg version="1.1" id="Layer_1" xmlns="http://www.w3.org/2000/svg" xmlns:xlink="http://www.w3.org/1999/xlink" x="0px" y="0px"
	 viewBox="-8 10 32 32" style="enable-background:new -8 10 32 32;" xml:space="preserve">
<path d="M19.293,13.293l-0.987,0.987c-0.752,0.725-1.852,1.088-2.915,1.438c-1.118,0.369-2.274,0.75-3.098,1.574
	c-1.121,1.121-1.332,2.38-1.335,3.166l-2.554,1.532l-3.698-3.698l-1.414,1.414L5.586,22l-2,2l1.015,1.015l-1.591,1.581L2,25.586
	L-1.414,29l1.173,1.173c-0.406,0.702-1.006,1.661-1.466,2.12c-0.602,0.603-1.405,0.713-1.403,0.713l-0.349,0.039L-5.414,35
	L-1,39.414l1.937-1.941l0.051-0.319c0.041-0.256,0.245-1.008,0.69-1.419c0.437-0.404,1.432-1.038,2.162-1.479L7,37.414L10.414,34
	l-3.013-3.013l1.592-1.58l4.3,4.3l1.414-1.414L11.414,29l2-2l-1.419-1.419l1.538-2.538c0.786-0.003,2.052-0.213,3.174-1.336
	c0.814-0.814,1.17-1.927,1.513-3.002c0.343-1.071,0.696-2.179,1.499-3.009l0.988-0.988L19.293,13.293z M0.322,34.265
	c-0.776,0.717-1.11,1.711-1.24,2.239L-1,36.586L-2.586,35l0.075-0.075c0.511-0.12,1.433-0.433,2.218-1.218
	c0.851-0.851,1.818-2.577,2.104-3.104l5.809-5.809l3.965-2.378L9.206,26.38l-5.82,5.819C2.878,32.494,1.107,33.539,0.322,34.265z
	 M7.586,34L7,34.586l-1.607-1.607l0.588-0.584L7.586,34z M16.314,18.096c-0.295,0.926-0.551,1.726-1.021,2.197
	c-0.688,0.688-1.453,0.761-1.831,0.755l-0.255-0.255l-0.254-0.254c-0.012-0.384,0.068-1.146,0.754-1.832
	c0.487-0.487,1.373-0.779,2.311-1.089c0.167-0.055,0.336-0.111,0.508-0.169C16.451,17.668,16.383,17.885,16.314,18.096z"/>
</svg>
