<?xml version="1.0" encoding="iso-8859-1"?>
<!-- Generator: Adobe Illustrator 19.1.0, SVG Export Plug-In . SVG Version: 6.00 Build 0)  -->
<svg version="1.1" id="Layer_1" xmlns="http://www.w3.org/2000/svg" xmlns:xlink="http://www.w3.org/1999/xlink" x="0px" y="0px"
	 viewBox="0 0 32 32" style="enable-background:new 0 0 32 32;" xml:space="preserve">
<path d="M28.27,9.035C27.699,8.377,26.872,8,26.002,8H6.006C5.135,8,4.308,8.378,3.737,9.036c-0.57,0.657-0.826,1.528-0.703,2.389
	l1.43,10C4.674,22.893,5.951,24,7.436,24h17.137c1.484,0,2.762-1.107,2.972-2.575l1.43-10C29.097,10.563,28.84,9.692,28.27,9.035z
	 M8,15c-0.552,0-1-0.448-1-1c0-0.552,0.448-1,1-1s1,0.448,1,1C9,14.552,8.552,15,8,15z M10,19c-0.552,0-1-0.448-1-1
	c0-0.552,0.448-1,1-1s1,0.448,1,1C11,18.552,10.552,19,10,19z M12,15c-0.552,0-1-0.448-1-1c0-0.552,0.448-1,1-1s1,0.448,1,1
	C13,14.552,12.552,15,12,15z M14,19c-0.552,0-1-0.448-1-1c0-0.552,0.448-1,1-1s1,0.448,1,1C15,18.552,14.552,19,14,19z M16,15
	c-0.552,0-1-0.448-1-1c0-0.552,0.448-1,1-1s1,0.448,1,1C17,14.552,16.552,15,16,15z M18,19c-0.552,0-1-0.448-1-1
	c0-0.552,0.448-1,1-1s1,0.448,1,1C19,18.552,18.552,19,18,19z M20,15c-0.552,0-1-0.448-1-1c0-0.552,0.448-1,1-1s1,0.448,1,1
	C21,14.552,20.552,15,20,15z M22,19c-0.552,0-1-0.448-1-1c0-0.552,0.448-1,1-1s1,0.448,1,1C23,18.552,22.552,19,22,19z M24,15
	c-0.552,0-1-0.448-1-1c0-0.552,0.448-1,1-1s1,0.448,1,1C25,14.552,24.552,15,24,15z"/>
</svg>
