<?xml version="1.0" encoding="iso-8859-1"?>
<!-- Generator: Adobe Illustrator 21.0.0, SVG Export Plug-In . SVG Version: 6.00 Build 0)  -->
<svg version="1.1" 
	 xmlns="http://www.w3.org/2000/svg" xmlns:xlink="http://www.w3.org/1999/xlink" x="0px" y="0px" viewBox="0 0 32 32"
	 style="enable-background:new 0 0 32 32;" xml:space="preserve">
<g>
	<path d="M26.728,21.369c-0.38-0.904-1.277-1.887-3.365-3.185c-0.809-0.542-1.805-1.25-2.002-1.416C21.131,16.577,21,16.297,21,16
		c0-0.551,0.449-1,1-1s1,0.449,1,1v1h3v-6h-5c-0.461,0-0.904,0.079-1.316,0.223c0.094-0.26,0.166-0.527,0.217-0.8
		C19.966,10.1,20,9.792,20,9.5c0-0.315-0.035-0.635-0.108-0.978C19.858,8.345,19.8,8.157,19.74,7.968l-0.068-0.196
		c-0.709-1.99-2.582-3.414-4.799-3.713L14.9,4.057C15.265,4.023,15.63,4,16,4c0.334,0,0.662,0.024,0.988,0.05
		c0.363,0.03,0.721,0.079,1.075,0.141c0.416,0.072,0.743,0.149,1.066,0.237l0.14,0.036c0.306,0.086,0.606,0.188,0.902,0.297
		l0.094,0.035c0.367,0.141,0.64,0.263,0.908,0.391l0.217,0.104c0.255,0.129,0.502,0.267,0.745,0.411l0.243,0.147
		c0.229,0.144,0.45,0.294,0.667,0.452l0.263,0.197c0.204,0.157,0.399,0.317,0.591,0.484c0.092,0.082,0.185,0.166,0.276,0.252
		c0.178,0.166,0.349,0.332,0.514,0.505c0.096,0.102,0.19,0.208,0.284,0.313c0.15,0.168,0.297,0.339,0.438,0.517
		c0.09,0.114,0.177,0.233,0.264,0.352c0.141,0.194,0.267,0.367,0.384,0.546c0.075,0.115,0.145,0.234,0.215,0.352l0.051,0.087
		c0.117,0.198,0.213,0.358,0.3,0.524c0.068,0.13,0.13,0.265,0.193,0.4l0.096,0.205c0.064,0.137,0.13,0.273,0.188,0.414
		c0.06,0.146,0.112,0.297,0.166,0.448l0.103,0.291c0.04,0.11,0.08,0.22,0.114,0.333c0.051,0.169,0.092,0.341,0.134,0.514l0.08,0.322
		c0.024,0.095,0.049,0.189,0.069,0.286c0.045,0.228,0.076,0.463,0.106,0.699c0,0,0.061,0.394,0.067,0.462
		C27.978,15.196,28,15.595,28,16c0,0.338-0.024,0.67-0.051,1.001c-0.016,0.172-0.037,0.358-0.061,0.547
		C27.716,18.888,27.322,20.178,26.728,21.369z"/>
	<path d="M19.592,5.615c0.075,0.026,0.151,0.054,0.23,0.083l0.099,0.036l0.07,0.026c0.232,0.09,0.477,0.198,0.749,0.328l0.079,0.037
		l0.124,0.06c0.232,0.117,0.458,0.243,0.696,0.386c0.069,0.041,0.138,0.082,0.208,0.126c0.208,0.131,0.411,0.27,0.608,0.412
		c0.082,0.06,0.163,0.12,0.245,0.183c0.184,0.142,0.364,0.289,0.537,0.441c0.087,0.076,0.172,0.154,0.258,0.235
		c0.161,0.149,0.317,0.303,0.467,0.46c0.089,0.094,0.175,0.19,0.262,0.289c0.138,0.155,0.273,0.312,0.4,0.472
		c0.08,0.101,0.156,0.206,0.257,0.345c0.112,0.154,0.225,0.308,0.329,0.467H25h-4c-0.008,0-0.017,0-0.025,0
		C20.992,9.829,21,9.663,21,9.5c0-0.384-0.042-0.771-0.122-1.149c-0.053-0.275-0.126-0.505-0.188-0.698L20.67,7.596l-0.003-0.009
		c-0.016-0.05-0.033-0.099-0.052-0.148C20.375,6.771,20.026,6.158,19.592,5.615 M26.806,18c-0.081,0.442-0.188,0.877-0.321,1.303
		c-0.413-0.416-0.933-0.846-1.583-1.303H25H26.806 M16,3c-0.401,0-0.796,0.025-1.188,0.061c-0.05,0.005-0.101,0.003-0.151,0.008
		c-0.182,0.019-0.358,0.056-0.537,0.082c-0.184,0.027-0.368,0.052-0.549,0.086c-0.076,0.014-0.154,0.02-0.229,0.036
		c-0.023,0.005-0.045,0.013-0.068,0.017c-0.003,0.001-0.006,0.002-0.01,0.003c-0.36,0.078-0.714,0.174-1.062,0.281
		c-0.009,0.003-0.018,0.004-0.026,0.007c-0.028,0.009-0.055,0.021-0.084,0.03c-0.3,0.096-0.595,0.202-0.886,0.318
		c-0.047,0.017-0.094,0.033-0.141,0.052c-0.064,0.026-0.131,0.045-0.195,0.072c-0.002,0.001-0.004,0.002-0.006,0.003
		c-0.036,0.02-0.073,0.04-0.11,0.059c-0.155,0.069-0.307,0.145-0.459,0.22c-0.074,0.034-0.148,0.065-0.22,0.101
		c-0.005,0.003-0.011,0.005-0.016,0.008h0.017C9.743,4.617,9.413,4.8,9.094,5c0,0,3.974,0,4.406,0c0.116,0,0.229,0.008,0.343,0.014
		C13.897,5.013,13.946,5,14,5c2.228,0,4.093,1.32,4.739,3.132c0.017,0.043,0.03,0.087,0.045,0.13
		c0.049,0.154,0.099,0.307,0.13,0.468C18.967,8.981,19,9.237,19,9.5c0,0.253-0.034,0.499-0.083,0.741
		c-0.211,1.141-0.897,2.126-1.871,2.805c0,0,0,0,0,0c-0.01,0,0.096,0.526,0.306,0.955C17.616,14.538,18,15,18,15
		c0-1.657,1.343-3,3-3c1.079,0,4,0,4,0v4c-0.474,0-1,0-1,0c0-1.105-0.895-2-2-2c-1.105,0-2,0.895-2,2
		c0,0.617,0.279,1.169,0.719,1.536c0.26,0.217,1.343,0.98,2.116,1.498C26,21,26,22,26,23c0,0.402,0,0.904,0,1.304
		c1.535-1.847,2.558-4.129,2.88-6.63c0.026-0.201,0.048-0.398,0.065-0.59C28.975,16.726,29,16.366,29,16
		c0-0.438-0.023-0.87-0.065-1.297c-0.015-0.146-0.043-0.288-0.063-0.433c-0.037-0.277-0.072-0.554-0.126-0.825
		c-0.035-0.176-0.085-0.346-0.127-0.519c-0.057-0.233-0.11-0.467-0.179-0.695c-0.056-0.186-0.126-0.366-0.19-0.548
		c-0.073-0.206-0.142-0.414-0.225-0.615c-0.079-0.191-0.169-0.375-0.256-0.562c-0.085-0.182-0.168-0.366-0.262-0.544
		c-0.102-0.193-0.214-0.38-0.325-0.567c-0.094-0.159-0.188-0.32-0.288-0.475c-0.126-0.194-0.261-0.381-0.398-0.567
		c-0.099-0.136-0.198-0.273-0.303-0.405c-0.152-0.192-0.312-0.378-0.474-0.561c-0.101-0.114-0.203-0.228-0.308-0.339
		c-0.179-0.187-0.364-0.368-0.553-0.545c-0.1-0.093-0.2-0.185-0.303-0.275c-0.206-0.18-0.418-0.354-0.636-0.522
		c-0.095-0.073-0.191-0.145-0.288-0.215c-0.235-0.17-0.474-0.334-0.72-0.489c-0.087-0.055-0.176-0.108-0.265-0.161
		c-0.263-0.156-0.53-0.306-0.804-0.444c-0.078-0.039-0.158-0.076-0.237-0.114c-0.291-0.139-0.586-0.27-0.889-0.388
		c-0.066-0.026-0.133-0.048-0.199-0.073c-0.32-0.119-0.644-0.228-0.976-0.322c-0.05-0.014-0.101-0.025-0.151-0.039
		c-0.351-0.094-0.705-0.178-1.067-0.243c-0.029-0.005-0.059-0.008-0.088-0.013c-0.384-0.067-0.772-0.119-1.167-0.151
		C16.715,3.025,16.361,3,16,3L16,3z"/>
</g>
<g>
	<path d="M13.56,27.75c-3.031-0.628-5.734-2.415-7.508-5.038c-0.394-0.585-0.741-1.219-1.039-1.897l-0.101-0.23
		c-0.081-0.196-0.149-0.393-0.217-0.59c-0.134-0.396-0.234-0.724-0.315-1.053c-0.181-0.742-0.293-1.495-0.345-2.279l-0.018-0.354
		c-0.006-0.15-0.01-0.287-0.012-0.422C4.027,12.984,5.083,10.245,7,8.079V18H6v3h7v-3h-1v-4.806l0.073,0.18
		c0.064,0.16,1.29,3.118,4.928,6.683c-0.038-0.008-0.076-0.015-0.115-0.021C16.767,20.012,16.64,20,16.5,20
		c-0.187,0-0.373,0.022-0.571,0.069c-0.071,0.015-0.157,0.042-0.243,0.072l-0.197,0.075c-1.074,0.437-1.916,1.574-2.288,3.11
		C13.071,23.759,13,24.324,13,25C13,26.023,13.203,26.966,13.56,27.75z M19.5,27c-1.378,0-2.5-0.897-2.5-2
		c0-0.017,0-0.034,0.001-0.05C18.14,24.717,19,23.707,19,22.5c0-0.255-0.04-0.502-0.112-0.736c0.231,0.193,0.47,0.388,0.715,0.583
		l-0.153,0.064l1.594,1.032C21.651,23.832,22,24.399,22,25C22,26.103,20.878,27,19.5,27z M12,12V8h1
		c0.788,0,1.408,0.372,1.744,1.047c0.164,0.309,0.246,0.605,0.255,0.898l-0.006,0.101c0.001,0.089,0.005,0.136,0.011,0.184
		c-0.004,0.09-0.043,0.257-0.126,0.444l-0.045,0.116C14.495,11.536,13.781,12,13,12H12z"/>
	<path d="M13,9c0.411,0,0.681,0.157,0.849,0.493l0.012,0.024l0.012,0.023c0.07,0.132,0.111,0.257,0.123,0.38l-0.002,0.101
		l-0.001,0.045l0.001,0.045c0,0.022,0.001,0.045,0.002,0.067c-0.006,0.028-0.02,0.061-0.032,0.088l-0.02,0.045l-0.018,0.046
		l-0.015,0.04l-0.004,0.009C13.745,10.767,13.389,11,13,11V9 M6,11.416V17H5.065c-0.012-0.127-0.022-0.255-0.031-0.383l-0.006-0.104
		c-0.005-0.076-0.009-0.153-0.012-0.258c-0.005-0.127-0.009-0.254-0.01-0.341C5.017,14.332,5.361,12.807,6,11.416 M13,16.925
		c0.018,0.025,0.035,0.05,0.053,0.075H13V16.925 M14,18.242c0.291,0.36,0.609,0.734,0.954,1.118
		c-0.341,0.159-0.66,0.369-0.954,0.623V19V18.242 M12.585,22c-0.137,0.327-0.252,0.675-0.344,1.041C12.079,23.608,12,24.25,12,25
		c0,0.442,0.034,0.872,0.099,1.286c-2.094-0.795-3.928-2.225-5.226-4.145C6.841,22.094,6.81,22.047,6.779,22H7h5H12.585
		 M19.748,23.803l0.756,0.483C20.654,24.381,21,24.641,21,25c0,0.473-0.616,1-1.5,1c-0.548,0-0.993-0.202-1.252-0.469
		C18.922,25.141,19.455,24.532,19.748,23.803 M8,5.772c-0.079,0.06-0.158,0.12-0.235,0.181c-0.24,0.19-0.463,0.403-0.689,0.612
		c-2.482,2.348-4.042,5.656-4.07,9.335c0.002,0.145,0.006,0.29,0.012,0.435c0.003,0.132,0.013,0.263,0.02,0.394
		c0.052,0.799,0.165,1.604,0.36,2.408c0.004,0.015,0.007,0.029,0.011,0.044c0.087,0.356,0.196,0.71,0.315,1.064
		c0.084,0.242,0.166,0.484,0.263,0.719c0.034,0.085,0.075,0.169,0.111,0.254c0.314,0.716,0.685,1.401,1.117,2.042
		c0.003,0.004,0.006,0.009,0.009,0.013C7.56,26.728,11.514,29,16,29c0.129,0,0.253-0.016,0.381-0.019
		c-0.042-0.006-0.084-0.011-0.112-0.017C14.998,28.775,14,27.082,14,25c0-0.573,0.056-1.047,0.174-1.44
		c0.29-1.197,0.928-2.107,1.715-2.427c0.03-0.013,0.061-0.024,0.092-0.035c0.059-0.02,0.118-0.042,0.178-0.055
		C16.269,21.017,16.382,21,16.5,21c0.084,0,0.151,0.007,0.205,0.021C17.435,21.121,18,21.742,18,22.5c0,0.828-0.672,1.5-1.5,1.5
		c-0.09,0-0.177-0.011-0.263-0.026C16.097,24.295,16,24.635,16,25c0,1.657,1.567,3,3.5,3s3.5-1.343,3.5-3
		c0-0.986-0.562-1.853-1.419-2.4c0.004-0.002,0.013-0.006,0.013-0.006C14.953,17.844,13,13,13,13c1.217,0,2.26-0.728,2.73-1.77
		c0.004-0.008,0.009-0.016,0.014-0.025c0.018-0.04,0.031-0.082,0.047-0.124C15.918,10.798,16,10.491,16,10.15
		c0-0.028-0.006-0.054-0.007-0.081C15.994,10.045,16,10.023,16,10c0-0.508-0.138-0.979-0.361-1.399C15.158,7.635,14.221,7,13,7
		c-0.178,0-1.546,0-2,0c0,0,0,10,0,11s1,1,1,1v1H7v-1c0,0,1,0,1-1S8,5.772,8,5.772L8,5.772z"/>
</g>
</svg>
