<?xml version="1.0" encoding="iso-8859-1"?>
<!-- Generator: Adobe Illustrator 19.1.0, SVG Export Plug-In . SVG Version: 6.00 Build 0)  -->
<svg version="1.1" id="Layer_1" xmlns="http://www.w3.org/2000/svg" xmlns:xlink="http://www.w3.org/1999/xlink" x="0px" y="0px"
	 viewBox="0 0 32 32" style="enable-background:new 0 0 32 32;" xml:space="preserve">
<path style="fill:none;stroke:#000000;stroke-width:2;stroke-miterlimit:10;" d="M13.287,6.146c0,0-4.71,0.676-4.248,2.796
	c0.084,0.424,0.378,1.821,0.547,2.527C10,13.487,12.698,14,15.936,14s5.828-0.633,6.392-2.531c0.252-0.659,0.463-1.638,0.631-2.438
	C23.332,7.485,20.814,6,17.668,6"/>
<path style="fill:none;stroke:#000000;stroke-width:2;stroke-miterlimit:10;" d="M12,8c1.079-2.371,2.499-3,2.697-3
	s0.739,0.777,1.307,1.022c0.483,0.204,0.824-0.204,1.136-0.204c0.54,0,1.604,0.541,1.86,2.176"/>
<path style="fill:none;stroke:#000000;stroke-width:2;stroke-miterlimit:10;" d="M22,22c1.77-0.653,3.957-2.196,3.478-4.488
	c-0.174-0.871-0.957-4.033-2.957-5.729"/>
<path style="fill:none;stroke:#000000;stroke-width:2;stroke-miterlimit:10;" d="M6.357,19.071c0,0-0.357,1.788-0.357,3.117
	C6,24.846,10.478,27,16,27s10-2.154,10-4.812c0-0.183-0.087-1.879-0.609-3.117"/>
<path style="fill:none;stroke:#000000;stroke-width:2;stroke-miterlimit:10;" d="M9.435,11.829
	c-1.478,0.779-2.783,3.117-3.304,6.279c-0.174,1.192,2.011,3.663,4.839,3.856"/>
<path style="fill:none;stroke:#000000;stroke-width:2;stroke-miterlimit:10;" d="M16,18c3.242,0,5.174-1.235,5.174-1.235"/>
<path style="fill:none;stroke:#000000;stroke-width:2;stroke-miterlimit:10;" d="M23,8.667C23,9.257,20.017,11,16,11
	S9,9.626,9,8.667"/>
</svg>
