<?xml version="1.0" encoding="iso-8859-1"?>
<!-- Generator: Adobe Illustrator 19.1.0, SVG Export Plug-In . SVG Version: 6.00 Build 0)  -->
<svg version="1.1" id="Layer_1" xmlns="http://www.w3.org/2000/svg" xmlns:xlink="http://www.w3.org/1999/xlink" x="0px" y="0px"
	 viewBox="0 0 32 32" style="enable-background:new 0 0 32 32;" xml:space="preserve">
<path d="M9,18c-0.202,0-0.393,0.036-0.589,0.06l-0.407,2.123C8.317,20.072,8.649,20,9,20c1.654,0,3,1.346,3,3s-1.346,3-3,3
	s-3-1.346-3-3c0-0.263,0.092-0.756,0.092-0.756l-0.501-0.099l0.633-3.298C4.884,19.744,4,21.27,4,23c0,2.757,2.243,5,5,5
	s5-2.243,5-5S11.757,18,9,18z"/>
<line style="fill:none;stroke:#000000;stroke-width:2;stroke-linecap:round;stroke-linejoin:round;stroke-miterlimit:10;" x1="11.836" y1="25.824" x2="20.37" y2="17.18"/>
<line style="fill:none;stroke:#000000;stroke-width:2;stroke-miterlimit:10;" x1="8" y1="7" x2="5.094" y2="22.143"/>
<path style="fill:none;stroke:#000000;stroke-width:2;stroke-miterlimit:10;" d="M20.407,16.586l-4.993-4.993
	c-0.781-0.781-0.781-2.047,0-2.828l2.144-2.144c2.16-2.16,5.662-2.16,7.822,0l0,0c2.16,2.16,2.16,5.662,0,7.822l-2.144,2.144
	C22.455,17.367,21.188,17.367,20.407,16.586z"/>
<circle cx="22" cy="10" r="2"/>
<line style="fill:none;stroke:#000000;stroke-width:2;stroke-linejoin:round;stroke-miterlimit:10;" x1="17.869" y1="14.131" x2="19.461" y2="12.539"/>
</svg>
