<?xml version="1.0" encoding="iso-8859-1"?>
<!-- Generator: Adobe Illustrator 19.1.1, SVG Export Plug-In . SVG Version: 6.00 Build 0)  -->
<svg version="1.1" id="Layer_1" xmlns="http://www.w3.org/2000/svg" xmlns:xlink="http://www.w3.org/1999/xlink" x="0px" y="0px"
	 viewBox="0 0 32 32" style="enable-background:new 0 0 32 32;" xml:space="preserve">
<rect x="11" y="6" style="fill:none;stroke:#000000;stroke-width:2;stroke-miterlimit:10;" width="10" height="6"/>
<line style="fill:none;stroke:#000000;stroke-width:2;stroke-miterlimit:10;" x1="17" y1="9" x2="17" y2="6"/>
<path style="fill:none;stroke:#000000;stroke-width:2;stroke-miterlimit:10;" d="M17.7,20.5L17,17l3.5,0.7l9.9,9.9
	c0.8,0.8,0.8,2,0,2.8l0,0c-0.8,0.8-2,0.8-2.8,0L17.7,20.5z"/>
<g>
	<polygon points="17.957,25 11,25 11,18 14.141,18 13.764,16.118 13.741,16 9,16 9,25 7,25 7,7 21.586,7 25,10.414 25,17.957 
		27,19.957 27,9.586 22.414,5 5,5 5,27 9,27 19.957,27 	"/>
</g>
</svg>
