<?xml version="1.0" encoding="iso-8859-1"?>
<!-- Generator: Adobe Illustrator 19.1.0, SVG Export Plug-In . SVG Version: 6.00 Build 0)  -->
<svg version="1.1" id="Layer_1" xmlns="http://www.w3.org/2000/svg" xmlns:xlink="http://www.w3.org/1999/xlink" x="0px" y="0px"
	 viewBox="0 0 32 32" style="enable-background:new 0 0 32 32;" xml:space="preserve">
<circle style="fill:none;stroke:#000000;stroke-width:2;stroke-miterlimit:10;" cx="16" cy="16" r="11"/>
<circle cx="20.5" cy="11.5" r="1.5"/>
<g>
	<path d="M22.48,22l-2.654-4.488l0.884-2.953l-1.438-0.43l-0.821,2.744c-0.16,0.534-0.089,1.111,0.195,1.591L20.737,22H22.48z"/>
	<polygon points="17.959,22 18.943,20.439 17.999,18.842 17.756,19.509 16.185,22 	"/>
</g>
<circle cx="13.5" cy="12.5" r="1.5"/>
<path style="fill:none;stroke:#000000;stroke-width:1.5;stroke-miterlimit:10;" d="M9.661,17.189l0.637-1.409
	c0.097-0.214,0.266-0.387,0.478-0.489l0.942-0.453c0.21-0.101,0.449-0.125,0.676-0.069l0.999,0.25
	c0.299,0.075,0.548,0.284,0.672,0.566l0.316,0.715c0.121,0.274,0.358,0.479,0.646,0.559l1.092,0.304l0.809-1.937
	c0.094-0.226,0.269-0.41,0.49-0.516l1.202-0.577c0.21-0.101,0.449-0.125,0.676-0.069l1.312,0.328
	c0.299,0.075,0.548,0.284,0.672,0.566l0.481,1.09c0.095,0.215,0.262,0.389,0.473,0.493l1.253,0.617"/>
<g>
	<path d="M15.48,22l-2.654-4.488l0.884-2.953l-1.438-0.43l-0.821,2.744c-0.16,0.534-0.089,1.111,0.195,1.591L13.737,22H15.48z"/>
	<polygon points="10.959,22 11.943,20.439 10.999,18.842 10.756,19.509 9.185,22 	"/>
</g>
</svg>
