<?xml version="1.0" encoding="iso-8859-1"?>
<!-- Generator: Adobe Illustrator 19.2.0, SVG Export Plug-In . SVG Version: 6.00 Build 0)  -->
<svg version="1.1" id="Layer_1" xmlns="http://www.w3.org/2000/svg" xmlns:xlink="http://www.w3.org/1999/xlink" x="0px" y="0px"
	 viewBox="0 0 32 32" style="enable-background:new 0 0 32 32;" xml:space="preserve">
<line style="fill:none;stroke:#000000;stroke-width:2;stroke-linejoin:round;stroke-miterlimit:10;" x1="16" y1="11" x2="16" y2="6"/>
<line style="fill:none;stroke:#000000;stroke-width:2;stroke-linejoin:round;stroke-miterlimit:10;" x1="16" y1="25" x2="16" y2="12"/>
<polyline style="fill:none;stroke:#000000;stroke-width:2;stroke-linejoin:round;stroke-miterlimit:10;" points="23.5,6 21,5 16,6 
	11,5 8.5,6 "/>
<line style="fill:none;stroke:#000000;stroke-width:2;stroke-linejoin:round;stroke-miterlimit:10;" x1="20" y1="25" x2="12" y2="25"/>
<path d="M22.5,19L22.5,19c-0.828,0-1.5,0.672-1.5,1.5v6c0,0.828,0.672,1.5,1.5,1.5h0c0.828,0,1.5-0.672,1.5-1.5v-6
	C24,19.672,23.328,19,22.5,19z"/>
<path d="M9.5,19L9.5,19C8.672,19,8,19.672,8,20.5v6C8,27.328,8.672,28,9.5,28h0c0.828,0,1.5-0.672,1.5-1.5v-6
	C11,19.672,10.328,19,9.5,19z"/>
</svg>
