<?xml version="1.0" encoding="iso-8859-1"?>
<!-- Generator: Adobe Illustrator 19.1.1, SVG Export Plug-In . SVG Version: 6.00 Build 0)  -->
<svg version="1.1" id="Layer_1" xmlns="http://www.w3.org/2000/svg" xmlns:xlink="http://www.w3.org/1999/xlink" x="0px" y="0px"
	 viewBox="0 0 32 32" style="enable-background:new 0 0 32 32;" xml:space="preserve">
<circle style="fill:none;stroke:#000000;stroke-width:2;stroke-linecap:round;stroke-linejoin:round;stroke-miterlimit:10;" cx="16" cy="16" r="12"/>
<line style="fill:none;stroke:#000000;stroke-width:2;stroke-miterlimit:10;" x1="16" y1="19" x2="16" y2="18"/>
<circle cx="18" cy="16" r="1"/>
<circle cx="14" cy="16" r="1"/>
<line style="fill:none;stroke:#000000;stroke-width:2;stroke-miterlimit:10;" x1="12.346" y1="19.654" x2="9.749" y2="22.251"/>
<circle cx="23" cy="10" r="1"/>
<circle cx="22" cy="9" r="1"/>
<circle cx="10" cy="23" r="1"/>
<circle cx="9" cy="22" r="1"/>
<line style="fill:none;stroke:#000000;stroke-width:2;stroke-miterlimit:10;" x1="22.261" y1="9.739" x2="19.808" y2="12.192"/>
<line style="fill:none;stroke:#000000;stroke-width:2;stroke-miterlimit:10;" x1="12.346" y1="12.346" x2="9.735" y2="9.735"/>
<circle cx="22" cy="23" r="1"/>
<circle cx="23" cy="22" r="1"/>
<circle cx="9" cy="10" r="1"/>
<circle cx="10" cy="9" r="1"/>
<line style="fill:none;stroke:#000000;stroke-width:2;stroke-miterlimit:10;" x1="22.248" y1="22.248" x2="19.808" y2="19.808"/>
<path style="fill:none;stroke:#000000;stroke-width:2;stroke-miterlimit:10;" d="M11.998,17.998C11.371,17.162,11,16.125,11,15
	c0-2.761,2.239-5,5-5s5,2.239,5,5c0,1.126-0.372,2.164-1,3l0,1c0,0.68-0.32,1-1,1h-1v0.615c0,0.68-0.551,1.231-1.231,1.231h-1.538
	c-0.68,0-1.231-0.551-1.231-1.231V20h-1c-0.68,0-1-0.32-1-1v-1L11.998,17.998z"/>
</svg>
