<?xml version="1.0" encoding="iso-8859-1"?>
<!-- Generator: Adobe Illustrator 19.1.1, SVG Export Plug-In . SVG Version: 6.00 Build 0)  -->
<svg version="1.1" id="Layer_1" xmlns="http://www.w3.org/2000/svg" xmlns:xlink="http://www.w3.org/1999/xlink" x="0px" y="0px"
	 viewBox="0 0 32 32" style="enable-background:new 0 0 32 32;" xml:space="preserve">
<rect x="19" y="12" style="fill:none;stroke:#000000;stroke-width:2;stroke-miterlimit:10;" width="4" height="10"/>
<path style="fill:none;stroke:#000000;stroke-width:2;stroke-miterlimit:10;" d="M23,8c0-1.1-2-4-2-4s-2,2.9-2,4s0.9,2,2,2
	S23,9.1,23,8z"/>
<rect x="9" y="12" style="fill:none;stroke:#000000;stroke-width:2;stroke-miterlimit:10;" width="4" height="10"/>
<path style="fill:none;stroke:#000000;stroke-width:2;stroke-miterlimit:10;" d="M13,8c0-1.1-2-4-2-4S9,6.9,9,8s0.9,2,2,2
	S13,9.1,13,8z"/>
<line style="fill:none;stroke:#000000;stroke-width:2;stroke-miterlimit:10;" x1="8" y1="29" x2="14" y2="29"/>
<line style="fill:none;stroke:#000000;stroke-width:2;stroke-miterlimit:10;" x1="18" y1="29" x2="24" y2="29"/>
<line style="fill:none;stroke:#000000;stroke-width:2;stroke-miterlimit:10;" x1="11" y1="25" x2="11" y2="29"/>
<line style="fill:none;stroke:#000000;stroke-width:2;stroke-miterlimit:10;" x1="21" y1="25" x2="21" y2="29"/>
<path style="fill:none;stroke:#000000;stroke-width:2;stroke-miterlimit:10;" d="M8,22h6c0,1.657-1.343,3-3,3S8,23.657,8,22z"/>
<path style="fill:none;stroke:#000000;stroke-width:2;stroke-miterlimit:10;" d="M18,22h6c0,1.657-1.343,3-3,3S18,23.657,18,22z"/>
</svg>
