<?xml version="1.0" encoding="iso-8859-1"?>
<!-- Generator: Adobe Illustrator 19.1.1, SVG Export Plug-In . SVG Version: 6.00 Build 0)  -->
<svg version="1.1" id="Layer_1" xmlns="http://www.w3.org/2000/svg" xmlns:xlink="http://www.w3.org/1999/xlink" x="0px" y="0px"
	 viewBox="-8 10 32 32" style="enable-background:new -8 10 32 32;" xml:space="preserve">
<g>
	<path d="M0.071,25.298v0.842L0.9,26.283c0.801,0.139,1.511,0.428,2.101,0.751l-2.909,0.319v0.896c0,1.134-0.462,2.535-0.769,3.462
		C-0.901,32.392-1,32.704-1,33l1.995,0.079c0.018-0.104,0.134-0.457,0.228-0.74c0.275-0.834,0.663-2.008,0.81-3.187l5.6-0.616
		l-1.294-1.447c-0.074-0.084-1.699-1.874-4.295-2.596c-0.174-2.627-1.122-5.735-1.688-7.395C6.82,18.092,15,25.785,15,33h2
		c0-8.935-10.473-18.01-18-18.01h-1v1.476l0.067,0.174C-1.913,16.692,0.071,21.872,0.071,25.298z"/>
	<path d="M20,36c-1.224,0-2-0.703-2-1h-2c0,0.306-0.756,1-2,1c-1.224,0-2-0.703-2-1h-2c0,0.306-0.756,1-2,1c-1.224,0-2-0.703-2-1H4
		c0,0.306-0.755,1-2,1c-1.224,0-2-0.703-2-1h-2c0,0.306-0.755,1-2,1v2c1.187,0,2.26-0.42,3-1.059C-0.26,37.58,0.813,38,2,38
		s2.26-0.42,3-1.059C5.74,37.58,6.813,38,8,38c1.187,0,2.26-0.42,3-1.059C11.74,37.58,12.813,38,14,38s2.26-0.42,3-1.059
		C17.74,37.58,18.813,38,20,38V36z"/>
</g>
</svg>
