<?xml version="1.0" encoding="iso-8859-1"?>
<!-- Generator: Adobe Illustrator 19.2.0, SVG Export Plug-In . SVG Version: 6.00 Build 0)  -->
<svg version="1.1" id="Layer_1" xmlns="http://www.w3.org/2000/svg" xmlns:xlink="http://www.w3.org/1999/xlink" x="0px" y="0px"
	 viewBox="0 0 32 32" style="enable-background:new 0 0 32 32;" xml:space="preserve">
<line style="fill:none;stroke:#000000;stroke-width:2;stroke-miterlimit:10;" x1="18" y1="27" x2="18" y2="19"/>
<line style="fill:none;stroke:#000000;stroke-width:2;stroke-miterlimit:10;" x1="8" y1="27" x2="8" y2="19"/>
<path style="fill:none;stroke:#000000;stroke-width:2;stroke-miterlimit:10;" d="M21,27v-6c0,0,1.789-0.261,2.481-1.912"/>
<path style="fill:none;stroke:#000000;stroke-width:2;stroke-miterlimit:10;" d="M11,27v-5c0,0,0.935-0.269,1.5-0.901
	C13.187,21.654,14.049,22,15,22c1.258,0,2.367-0.592,3.1-1.501"/>
<path style="fill:none;stroke:#000000;stroke-width:2;stroke-miterlimit:10;" d="M25.961,14.56C25.987,14.377,26,14.19,26,14
	c0-2.048-1.545-3.717-3.529-3.953C21.785,8.831,20.496,8,19,8c-0.692,0-1.333,0.192-1.9,0.501C16.367,7.593,15.258,7,14,7
	c-1.113,0-2.118,0.456-2.844,1.19C10.788,8.078,10.405,8,10,8c-2.209,0-4,1.791-4,4c0,0.18,0.03,0.352,0.053,0.526
	C4.834,13.211,4,14.502,4,16c0,1.623,0.971,3.173,2.36,3.8c0.394,1.095,1.447,1.541,1.447,1.541"/>
<path d="M20,14.5c0,0.828-0.448,1.5-1,1.5s-1-0.424-1-1.35c0-1.421,1.428-2.65,2-2.65C20,12,20,13.672,20,14.5z"/>
<path d="M26.455,13.936c-1.248-1.248-3.271-1.248-4.519,0c-1.248,1.248-1.248,3.271,0,4.519c1.248,1.248,4.925,2,5.722,1.203
	C28.455,18.861,27.703,15.184,26.455,13.936z M24,17c-0.552,0-1-0.448-1-1c0-0.552,0.448-1,1-1s1,0.448,1,1
	C25,16.552,24.552,17,24,17z"/>
</svg>
