<?xml version="1.0" encoding="iso-8859-1"?>
<!-- Generator: Adobe Illustrator 19.1.0, SVG Export Plug-In . SVG Version: 6.00 Build 0)  -->
<svg version="1.1" id="Layer_1" xmlns="http://www.w3.org/2000/svg" xmlns:xlink="http://www.w3.org/1999/xlink" x="0px" y="0px"
	 viewBox="0 0 32 32" style="enable-background:new 0 0 32 32;" xml:space="preserve">
<circle cx="16" cy="5.5" r="1.5"/>
<circle cx="16" cy="26.5" r="1.5"/>
<circle cx="25.093" cy="10.75" r="1.5"/>
<circle cx="6.907" cy="21.25" r="1.5"/>
<circle cx="25.093" cy="21.25" r="1.5"/>
<circle cx="6.907" cy="10.75" r="1.5"/>
<path id="XMLID_6001_" style="fill:none;stroke:#000000;stroke-width:2;stroke-miterlimit:10;" d="M24.66,11h-5.774L16,6l-2.887,5
	H7.34l2.887,5L7.34,21h5.774L16,26l2.887-5h5.774l-2.887-5L24.66,11z"/>
<path id="XMLID_6003_" style="fill:none;stroke:#000000;stroke-width:2;stroke-miterlimit:10;" d="M16,19c-1.68,0-3-1.32-3-3
	s1.32-3,3-3s3,1.32,3,3S17.68,19,16,19z"/>
</svg>
