<?xml version="1.0" encoding="iso-8859-1"?>
<!-- Generator: Adobe Illustrator 19.1.1, SVG Export Plug-In . SVG Version: 6.00 Build 0)  -->
<svg version="1.1" id="Layer_1" xmlns="http://www.w3.org/2000/svg" xmlns:xlink="http://www.w3.org/1999/xlink" x="0px" y="0px"
	 viewBox="0 0 32 32" style="enable-background:new 0 0 32 32;" xml:space="preserve">
<path style="fill:none;stroke:#000000;stroke-width:2;stroke-miterlimit:10;" d="M29,12.5c0,3.038-6.373,5.5-13,5.5S3,15.538,3,12.5
	S9.373,7,16,7S29,9.462,29,12.5z"/>
<path d="M16,10c5.357,0,9.428,1.696,9.956,2.5C25.428,13.304,21.357,15,16,15s-9.428-1.696-9.956-2.5C6.572,11.696,10.643,10,16,10"
	/>
<path style="fill:none;stroke:#000000;stroke-width:2;stroke-miterlimit:10;" d="M29,20.5c0,3.038-6.373,5.5-13,5.5S3,23.538,3,20.5
	"/>
<line style="fill:none;stroke:#000000;stroke-width:2;stroke-miterlimit:10;" x1="3" y1="13" x2="3" y2="21"/>
<line style="fill:none;stroke:#000000;stroke-width:2;stroke-miterlimit:10;" x1="29" y1="13" x2="29" y2="21"/>
<path d="M20,21v-1h-8v1h-2v2h2v1h8v-1h2v-2H20z M16,23c-0.552,0-1-0.448-1-1c0-0.552,0.448-1,1-1s1,0.448,1,1
	C17,22.552,16.552,23,16,23z"/>
</svg>
