<?xml version="1.0" encoding="utf-8"?>
<!-- Generator: Adobe Illustrator 18.1.1, SVG Export Plug-In . SVG Version: 6.00 Build 0)  -->
<svg version="1.1" id="Layer_1" xmlns="http://www.w3.org/2000/svg" xmlns:xlink="http://www.w3.org/1999/xlink" x="0px" y="0px"
	 viewBox="0 0 32 32" enable-background="new 0 0 32 32" xml:space="preserve">
<line fill="none" stroke="#000000" stroke-width="2" stroke-miterlimit="10" x1="1" y1="15" x2="31" y2="15"/>
<path fill="none" stroke="#000000" stroke-width="2" stroke-miterlimit="10" d="M29,15H3l1.7,8.4c0.2,0.9,1,1.6,2,1.6h18.7
	c1,0,1.8-0.7,2-1.6L29,15z"/>
<polygon points="26,25 24,25 25,28 27,28 "/>
<polygon points="6,25 8,25 7,28 5,28 "/>
<path fill="none" stroke="#000000" stroke-width="2" stroke-miterlimit="10" d="M29,15V8c0-1.7-1.3-3-3-3h0c-1.7,0-3,1.3-3,3v1"/>
<line fill="none" stroke="#000000" stroke-width="2" stroke-miterlimit="10" x1="20" y1="9" x2="26" y2="9"/>
</svg>
