<?xml version="1.0" encoding="utf-8"?>
<!-- Generator: Adobe Illustrator 18.1.1, SVG Export Plug-In . SVG Version: 6.00 Build 0)  -->
<svg version="1.1" id="Layer_1" xmlns="http://www.w3.org/2000/svg" xmlns:xlink="http://www.w3.org/1999/xlink" x="0px" y="0px"
	 viewBox="0 0 32 32" enable-background="new 0 0 32 32" xml:space="preserve">
<path fill="none" stroke="#000000" stroke-width="2" stroke-linejoin="round" stroke-miterlimit="10" d="M28,15c-2.3,0-4.4,3-5.5,3
	s0-3-0.9-3c-0.7,0-2.8,4-6.1,4c-1,0-2.5-1.2-2.5-3.8s1.1-4.2,3-4.2c1.7,0,2,1.5,2,2.4c0,2.5-5.6,6.6-9.4,6.6C6.4,20,5,17,5,14.2
	C5,8.4,7.7,5,9.3,5S11,7.1,11,8.8C11,16,5,22,5,22"/>
<line fill="none" stroke="#000000" stroke-width="2" stroke-linejoin="round" stroke-miterlimit="10" x1="4" y1="27" x2="28" y2="27"/>
</svg>
