<?xml version="1.0" encoding="iso-8859-1"?>
<!-- Generator: Adobe Illustrator 19.1.1, SVG Export Plug-In . SVG Version: 6.00 Build 0)  -->
<svg version="1.1" id="Layer_1" xmlns="http://www.w3.org/2000/svg" xmlns:xlink="http://www.w3.org/1999/xlink" x="0px" y="0px"
	 viewBox="0 0 32 32" style="enable-background:new 0 0 32 32;" xml:space="preserve">
<path style="fill:none;stroke:#000000;stroke-width:2;stroke-miterlimit:10;" d="M27,20c1.105,0,2,0.895,2,2s-0.895,2-2,2H3"/>
<line style="fill:none;stroke:#000000;stroke-width:2;stroke-miterlimit:10;" x1="9" y1="20" x2="9" y2="24"/>
<line style="fill:none;stroke:#000000;stroke-width:2;stroke-miterlimit:10;" x1="21" y1="20" x2="21" y2="24"/>
<path style="fill:none;stroke:#000000;stroke-width:2;stroke-miterlimit:10;" d="M3,10V9.5C3,8.672,3.672,8,4.5,8S6,8.708,6,9.5
	c0,1.375-2,2.708-2,6v0C4,17.975,6.025,20,8.5,20h12c2.475,0,4.5-2.025,4.5-4.5v0V13c0-1.105,0.895-2,2-2s2,0.895,2,2"/>
<path style="fill:none;stroke:#000000;stroke-width:2;stroke-miterlimit:10;" d="M25,13c0,3.167-3,3-3,3s-2.042,0-5,0s-3-3-3-3v-1
	c0-3.875-4-4-4-4H4.5"/>
</svg>
