<?xml version="1.0" encoding="iso-8859-1"?>
<!-- Generator: Adobe Illustrator 22.0.1, SVG Export Plug-In . SVG Version: 6.00 Build 0)  -->
<svg version="1.1" id="Icons" xmlns="http://www.w3.org/2000/svg" xmlns:xlink="http://www.w3.org/1999/xlink" x="0px" y="0px"
	 viewBox="0 0 32 32" style="enable-background:new 0 0 32 32;" xml:space="preserve">
<g>
	<path d="M14,25c0,0.551-0.449,1-1,1c-0.551,0-1-0.449-1-1c0-0.551,0.449-1,1-1C13.551,24,14,24.449,14,25L14,25z"/>
	<path style="fill:none;stroke:#000000;stroke-width:2;stroke-miterlimit:10;" d="M20,11v15c0,1.105-0.895,2-2,2H8
		c-1.105,0-2-0.895-2-2V6c0-1.105,0.895-2,2-2h7"/>
	<circle style="fill:none;stroke:#000000;stroke-width:2;stroke-miterlimit:10;" cx="13" cy="14" r="3"/>
	<rect x="18" y="4" style="fill:none;stroke:#000000;stroke-width:2;stroke-miterlimit:10;" width="9" height="4"/>
	<polygon points="18,4 14,9 18,9 	"/>
	<path d="M13,17c-2.767,0-5,2.233-5,5h2c0-1.657,1.343-3,3-3s3,1.343,3,3h2C18,19.233,15.767,17,13,17z"/>
	<path d="M13,18H9v-4c1,1,1.281,1.277,2,2C11.724,16.728,12,17,13,18z"/>
	<path d="M17,14v4h-4c1-1,1.272-1.244,2-2C15.692,15.281,16,15,17,14z"/>
</g>
</svg>
