<?xml version="1.0" encoding="iso-8859-1"?>
<!-- Generator: Adobe Illustrator 19.1.1, SVG Export Plug-In . SVG Version: 6.00 Build 0)  -->
<svg version="1.1"  xmlns="http://www.w3.org/2000/svg" xmlns:xlink="http://www.w3.org/1999/xlink" x="0px" y="0px"
	 viewBox="0 0 32 32" style="enable-background:new 0 0 32 32;" xml:space="preserve">
<path  style="fill:none;stroke:#000000;stroke-width:2;stroke-miterlimit:10;" d="M11,28v-3c0,0,0.036,0,1,0
	c2,0,4-2.018,4-4c0-0.982,0-2.25,0-2.25l2.119-0.674c0.8-0.255,1.133-1.205,0.667-1.903L16,12c0-3.542-1.958-8-10-8
	C5.319,4,4.653,4.068,4.01,4.198"/>
<circle  cx="12" cy="14" r="1"/>
<circle cx="21" cy="22" r="1"/>
<circle cx="24" cy="20" r="1"/>
<circle cx="24" cy="24" r="1"/>
<circle cx="27" cy="22" r="1"/>
<circle cx="27" cy="18" r="1"/>
<circle cx="27" cy="26" r="1"/>
</svg>
