<?xml version="1.0" encoding="utf-8"?>
<!-- Generator: Adobe Illustrator 18.0.0, SVG Export Plug-In . SVG Version: 6.00 Build 0)  -->
<svg version="1.1" id="Layer_1" xmlns="http://www.w3.org/2000/svg" xmlns:xlink="http://www.w3.org/1999/xlink" x="0px" y="0px"
	 viewBox="0 0 32 32" enable-background="new 0 0 32 32" xml:space="preserve">
<polygon fill="none" stroke="#000000" stroke-width="2" stroke-miterlimit="10" points="25,17 7,17 5,25 5,27 27,27 27,25 "/>
<g>
	<polygon points="17.1,20.8 19.2,20.8 19,19 17,19 	"/>
	<polygon points="17.2,25 19.5,25 19.3,22.8 17.1,22.8 	"/>
	<polygon points="21,19 21.3,20.8 23.4,20.8 23,19 	"/>
	<polygon points="21.9,25 24.2,25 23.8,22.8 21.6,22.8 	"/>
	<polygon points="12.8,20.8 14.9,20.8 15,19 13,19 	"/>
	<polygon points="12.5,25 14.8,25 14.9,22.8 12.7,22.8 	"/>
	<polygon points="8.6,20.8 10.7,20.8 11,19 9,19 	"/>
	<polygon points="7.8,25 10.1,25 10.4,22.8 8.2,22.8 	"/>
</g>
<path d="M21,8h-2.6l1.8-1.8l-1.4-1.4L17,6.6V4h-2v2.6l-1.8-1.8l-1.4,1.4L13.6,8H11v2h2.6l-1.8,1.8l1.4,1.4l1.8-1.8V14h2v-2.6
	l1.8,1.8l1.4-1.4L18.4,10H21V8z M16,11c-1.1,0-2-0.9-2-2c0-1.1,0.9-2,2-2s2,0.9,2,2C18,10.1,17.1,11,16,11z"/>
</svg>
