<?xml version="1.0" encoding="iso-8859-1"?>
<!-- Generator: Adobe Illustrator 19.1.1, SVG Export Plug-In . SVG Version: 6.00 Build 0)  -->
<svg version="1.1" id="Layer_1" xmlns="http://www.w3.org/2000/svg" xmlns:xlink="http://www.w3.org/1999/xlink" x="0px" y="0px"
	 viewBox="0 0 32 32" style="enable-background:new 0 0 32 32;" xml:space="preserve">
<path style="fill:none;stroke:#000000;stroke-width:2;stroke-miterlimit:10;" d="M12,13.5C12,9.91,13.791,7,16,7s4,2.91,4,6.5"/>
<path style="fill:none;stroke:#000000;stroke-width:2;stroke-miterlimit:10;" d="M16,14c-9.375,0-14.719-0.75-14.719-0.75L2.813,19
	c0,0,9.271,0,13.188,0s13.187,0,13.187,0l1.5-5.75C30.687,13.25,25.375,14,16,14z"/>
<path d="M21,26c-1.156-1.156-2.672-1-3.5-1S16,24.328,16,23.5s0.672-1.5,1.5-1.5S21,22.938,21,26z"/>
<path d="M11,26c1.156-1.156,2.672-1,3.5-1s1.5-0.672,1.5-1.5S15.328,22,14.5,22S11,22.938,11,26z"/>
<polygon points="16,16 14,18 18,18 "/>
<polygon points="20,16 18,18 22,18 "/>
<polygon points="12,16 10,18 14,18 "/>
<polygon points="24,16 22,18 26,18 "/>
<polygon points="8,16 6,18 10,18 "/>
<polygon points="28,16 26,18 30,18 "/>
<polygon points="4,16 2,18 6,18 "/>
</svg>
