<?xml version="1.0" encoding="iso-8859-1"?>
<!-- Generator: Adobe Illustrator 19.2.0, SVG Export Plug-In . SVG Version: 6.00 Build 0)  -->
<svg version="1.1" id="Layer_1" xmlns="http://www.w3.org/2000/svg" xmlns:xlink="http://www.w3.org/1999/xlink" x="0px" y="0px"
	 viewBox="0 0 32 32" style="enable-background:new 0 0 32 32;" xml:space="preserve">
<polygon points="24.324,15 27,15 27,17 24.775,17 "/>
<polygon points="7.676,15 5,15 5,17 7.225,17 "/>
<ellipse style="fill:none;stroke:#000000;stroke-width:2;stroke-linecap:round;stroke-linejoin:round;stroke-miterlimit:10;" cx="16" cy="20.5" rx="7" ry="6.5"/>
<path style="fill:none;stroke:#000000;stroke-width:2;stroke-miterlimit:10;" d="M23,20c0-4.967-1.75-7.614-1.75-7.614
	S19.317,10,16,10s-5.25,2.386-5.25,2.386S9,15.033,9,20"/>
<path style="fill:none;stroke:#000000;stroke-width:2;stroke-linejoin:round;stroke-miterlimit:10;" d="M7,16H5V7
	c0-1.105,0.895-2,2-2h18c1.105,0,2,0.895,2,2v9h-2"/>
<rect x="14" y="25" width="4" height="2"/>
<rect x="14" y="14" width="4" height="2"/>
<rect x="21" y="19" width="2" height="3"/>
<rect x="9" y="19" width="2" height="3"/>
</svg>
