<?xml version="1.0" encoding="iso-8859-1"?>
<!-- Generator: Adobe Illustrator 19.1.0, SVG Export Plug-In . SVG Version: 6.00 Build 0)  -->
<svg version="1.1" id="Layer_1" xmlns="http://www.w3.org/2000/svg" xmlns:xlink="http://www.w3.org/1999/xlink" x="0px" y="0px"
	 viewBox="0 0 32 32" style="enable-background:new 0 0 32 32;" xml:space="preserve">
<polyline style="fill:none;stroke:#000000;stroke-width:2;stroke-miterlimit:10;" points="19.442,5 25.879,20.541 20.751,27 
	12.558,26.059 6.121,10.518 "/>
<g>
	<path d="M21.369,21.14l-1.136,0.47L19.5,19.84l-0.91,0.378l0.687,1.657l-1.09,0.451L17.5,20.669l-1.06,0.438l0.761,1.837
		l-1.136,0.47l-1.336-3.225l5.331-2.207L21.369,21.14z"/>
</g>
<path d="M16.147,10.874c-0.151-0.367-0.53-0.287-0.649-0.239c-1.028,0.412,0.386,2.508-1.547,3.299
	c-0.568,0.235-1.666,0.546-2.402-1.217c-0.1-0.333-0.866-1.782,0.736-2.404l0.187-0.077l0.557,1.344c0,0-0.797,0.209-0.558,0.764
	c0.062,0.144,0.269,0.431,0.7,0.235c1.063-0.483-0.374-2.403,1.516-3.181c0.555-0.206,1.674-0.594,2.389,1.057
	c0.712,1.643-0.356,2.16-0.929,2.406l-0.538-1.299C15.609,11.56,16.338,11.335,16.147,10.874z"/>
<path d="M18.041,15.444c-0.151-0.367-0.53-0.287-0.649-0.239c-1.028,0.412,0.386,2.508-1.547,3.299
	c-0.568,0.235-1.666,0.546-2.402-1.217c-0.1-0.333-0.866-1.782,0.736-2.404l0.187-0.077l0.557,1.344c0,0-0.797,0.209-0.558,0.764
	c0.062,0.144,0.269,0.431,0.7,0.235c1.063-0.483-0.374-2.403,1.516-3.181c0.555-0.206,1.674-0.594,2.389,1.057
	c0.712,1.643-0.356,2.16-0.929,2.406l-0.538-1.299C17.503,16.13,18.231,15.905,18.041,15.444z"/>
</svg>
