<?xml version="1.0" encoding="iso-8859-1"?>
<!-- Generator: Adobe Illustrator 19.1.0, SVG Export Plug-In . SVG Version: 6.00 Build 0)  -->
<svg version="1.1" id="Layer_1" xmlns="http://www.w3.org/2000/svg" xmlns:xlink="http://www.w3.org/1999/xlink" x="0px" y="0px"
	 viewBox="0 0 32 32" style="enable-background:new 0 0 32 32;" xml:space="preserve">
<polyline style="fill:none;stroke:#000000;stroke-width:2;stroke-miterlimit:10;" points="13.753,13.194 14.367,13.808 
	19.431,16.114 19.502,16.043 17.728,12.289 17.799,12.219 21.553,13.993 21.623,13.922 19.317,8.858 18.703,8.244 "/>
<polyline style="fill:none;stroke:#000000;stroke-width:2;stroke-miterlimit:10;" points="28,15.077 15.077,28 6.462,25.538 
	4,16.923 16.923,4 "/>
<path style="fill:none;stroke:#000000;stroke-width:2;stroke-miterlimit:10;" d="M12.435,20.955l0.48,0.48
	c0.429,0.429,1.125,0.429,1.554,0l0.96-0.96c0.429-0.429,0.429-1.125,0-1.554l0,0c-0.294-0.294-0.73-0.397-1.124-0.265l-2.483,0.828
	c-0.395,0.132-0.83,0.029-1.124-0.265l0,0c-0.429-0.429-0.429-1.125,0-1.554l0.96-0.96c0.429-0.429,1.125-0.429,1.554,0l0.48,0.48"
	/>
</svg>
