<?xml version="1.0" encoding="iso-8859-1"?>
<!-- Generator: Adobe Illustrator 22.0.1, SVG Export Plug-In . SVG Version: 6.00 Build 0)  -->
<svg version="1.1" id="Layer_1" xmlns="http://www.w3.org/2000/svg" xmlns:xlink="http://www.w3.org/1999/xlink" x="0px" y="0px"
	 viewBox="0 0 32 32" style="enable-background:new 0 0 32 32;" xml:space="preserve">
<g>
	<g>
		<path style="fill:none;stroke:#000000;stroke-width:2;stroke-miterlimit:10;" d="M24,20c0,0-1.674-3.318-6.519-3.903
			C16.434,14.44,15,13,15,13l-5,3l0.501,1.503c-1.294,0.689-2.303,1.455-2.897,1.957C7.08,18.867,5.983,18,4,18v6
			c1.938,0,3.032-0.83,3.571-1.421c0.678,0.66,1.915,1.768,3.429,2.715v1.898c0.382,0,1.204-0.322,2.072-0.83
			C14.02,26.745,15.01,27,16,27c6,0,8-3,8-3s-1-1-1-2S24,20,24,20z"/>
	</g>
</g>
<path d="M19.5,20.278c-0.431,0-0.778-0.348-0.778-0.778c0-0.17,0.065-0.318,0.157-0.446C18.757,19.022,18.632,19,18.5,19
	c-0.831,0-1.5,0.67-1.5,1.5c0,0.828,0.669,1.5,1.5,1.5c0.829,0,1.5-0.672,1.5-1.5c0-0.132-0.022-0.257-0.054-0.379
	C19.818,20.213,19.67,20.278,19.5,20.278z"/>
<path style="fill:none;stroke:#000000;stroke-width:2;stroke-miterlimit:10;" d="M23,10c0,0,0,0.144,0,0.5
	c0,1.381,1.119,2.5,2.5,2.5s2.5-1.119,2.5-2.5C28,8,26,7,26,4V3"/>
<polygon points="25,10 22,10 22,7 "/>
</svg>
