<?xml version="1.0" encoding="iso-8859-1"?>
<!-- Generator: Adobe Illustrator 19.2.0, SVG Export Plug-In . SVG Version: 6.00 Build 0)  -->
<svg version="1.1" id="Layer_1" xmlns="http://www.w3.org/2000/svg" xmlns:xlink="http://www.w3.org/1999/xlink" x="0px" y="0px"
	 viewBox="0 0 32 32" style="enable-background:new 0 0 32 32;" xml:space="preserve">
<path style="fill:none;stroke:#000000;stroke-width:2;stroke-miterlimit:10;" d="M5,25.5c0,0,4-8.55,4-19.5"/>
<path style="fill:none;stroke:#000000;stroke-width:2;stroke-miterlimit:10;" d="M14,25.5c0,0,4-8.55,4-19.5"/>
<path d="M10.939,8.335c-0.068,1.409-0.195,2.765-0.362,4.062c2.625,6.731,2.518,12.619,2.516,12.691l2,0.054
	C15.103,24.777,15.259,16.712,10.939,8.335z"/>
<path style="fill:none;stroke:#000000;stroke-width:2;stroke-miterlimit:10;" d="M23,25.5c0,0,4-8.55,4-19.5"/>
<path d="M19.939,8.335c-0.068,1.409-0.195,2.765-0.362,4.062c2.625,6.731,2.518,12.619,2.516,12.691l2,0.054
	C24.103,24.777,24.259,16.712,19.939,8.335z"/>
</svg>
