<?xml version="1.0" encoding="iso-8859-1"?>
<!-- Generator: Adobe Illustrator 19.1.1, SVG Export Plug-In . SVG Version: 6.00 Build 0)  -->
<svg version="1.1" id="Layer_1" xmlns="http://www.w3.org/2000/svg" xmlns:xlink="http://www.w3.org/1999/xlink" x="0px" y="0px"
	 viewBox="0 0 32 32" style="enable-background:new 0 0 32 32;" xml:space="preserve">
<g>
	<path d="M15.859,14.1c-0.95-1.3-2.45-3.25-2.6-3.2s0.75,2.25,1.4,3.7C15.009,14.4,15.409,14.2,15.859,14.1z"/>
	<path d="M16.659,14c0.25,0,0.45,0,0.65,0.05c-0.2-1.6-0.5-4.05-0.65-4.05s-0.45,2.45-0.65,4.05C16.209,14,16.409,14,16.659,14z"/>
	<path d="M18.659,14.65c0.65-1.5,1.55-3.65,1.4-3.7c-0.15-0.1-1.6,1.9-2.6,3.2C17.909,14.2,18.309,14.4,18.659,14.65z"/>
	<path d="M19.559,15.85c1.301-0.95,3.051-2.35,3-2.45c-0.05-0.15-2.199,0.75-3.7,1.4C19.159,15.1,19.409,15.45,19.559,15.85z"/>
	<path d="M19.609,16.15c0,0.1,0.05,0.2,0.05,0.35c0,0.35-0.1,0.65-0.25,0.95c1.6-0.2,4.05-0.5,4.05-0.65S21.259,16.35,19.609,16.15z
		"/>
	<path d="M13.759,15.85c0.15-0.4,0.35-0.75,0.7-1.05c-1.5-0.65-3.6-1.55-3.7-1.4C10.709,13.55,12.459,14.9,13.759,15.85z"/>
	<path d="M13.659,16.5c0-0.1,0-0.2,0.05-0.35c-0.95,0.1-2.15,0.25-2.9,0.4c-0.55,0.1-0.5,0.4,0.05,0.5c0.85,0.15,2.1,0.3,3.05,0.4
		C13.759,17.15,13.659,16.85,13.659,16.5z"/>
</g>
<line style="fill:none;stroke:#000000;stroke-width:2;stroke-miterlimit:10;" x1="4" y1="11" x2="11" y2="11"/>
<path style="fill:none;stroke:#000000;stroke-width:2;stroke-miterlimit:10;" d="M6,9.5C6,8.672,7.5,6,7.5,6S9,8.672,9,9.5
	S8.328,11,7.5,11S6,10.328,6,9.5z"/>
<path style="fill:none;stroke:#000000;stroke-width:2;stroke-miterlimit:10;" d="M14,16.5c0-1.381,1.119-2.5,2.5-2.5
	s2.5,1.119,2.5,2.5S17.881,20,16.5,20S14,17.881,14,16.5z"/>
<path style="fill:none;stroke:#000000;stroke-width:2;stroke-linecap:round;stroke-linejoin:round;" d="M7.5,11
	c0.001,0.002,0.848,7,0.848,7s3.333,4,5.652,4c1.12,0,6,0,6,0s3,0.38,3,3"/>
<path style="fill:none;stroke:#000000;stroke-width:2;stroke-linecap:round;stroke-linejoin:round;" d="M7.5,11l0.848,7
	c0,0,2.181,4.164,3.653,4.794"/>
<g>
	<path d="M11.88,20.514c-0.93,2.396-2.173,4.729-2.833,5.367c-0.073-0.462,0.09-1.398,0.414-2.541
		c-0.554-0.59-1.035-1.302-1.448-2.092c-0.76,2.143-1.375,4.694-0.582,5.924C7.775,27.706,8.333,28,9,28
		c1.408,0,3.005-2.275,4.745-6.764L11.88,20.514z"/>
</g>
<polygon points="21.43,30 24.302,25.403 25.652,26.303 23.434,30 25.766,30 28.348,25.697 23.698,22.597 19.07,30 "/>
<path d="M13.701,30c-0.792-0.972-2.406-3.107-2.739-4.274l-1.923,0.549c0.319,1.116,1.31,2.611,2.132,3.726H13.701z"/>
</svg>
