<?xml version="1.0" encoding="iso-8859-1"?>
<!-- Generator: Adobe Illustrator 19.1.1, SVG Export Plug-In . SVG Version: 6.00 Build 0)  -->
<svg version="1.1" id="Layer_1" xmlns="http://www.w3.org/2000/svg" xmlns:xlink="http://www.w3.org/1999/xlink" x="0px" y="0px"
	 viewBox="0 0 32 32" style="enable-background:new 0 0 32 32;" xml:space="preserve">
<circle style="fill:none;stroke:#000000;stroke-miterlimit:10;" cx="19" cy="13" r="2.5"/>
<path d="M12,18c-0.455,0-0.87,0.158-1.206,0.414l1.591,0.663c0.51,0.212,0.751,0.798,0.538,1.308C12.763,20.769,12.392,21,12,21
	c-0.129,0-0.259-0.025-0.385-0.078l-1.589-0.662C10.155,21.241,10.985,22,12,22c1.105,0,2-0.895,2-2C14,18.895,13.105,18,12,18z"/>
<path d="M5,5v11l3.824,1.593c0.709-0.934,1.809-1.546,3.063-1.582l2.137-3.247C14.149,10.115,16.319,8,19,8c2.761,0,5,2.239,5,5
	c0,2.681-2.115,4.851-4.764,4.976l-3.247,2.137C15.927,22.269,14.17,24,12,24c-2.209,0-4-1.791-4-4c0-0.192,0.03-0.375,0.056-0.56
	L5,18.167V27h22V5H5z"/>
</svg>
