<?xml version="1.0" encoding="iso-8859-1"?>
<!-- Generator: Adobe Illustrator 19.1.0, SVG Export Plug-In . SVG Version: 6.00 Build 0)  -->
<svg version="1.1" id="Layer_1" xmlns="http://www.w3.org/2000/svg" xmlns:xlink="http://www.w3.org/1999/xlink" x="0px" y="0px"
	 viewBox="0 0 32 32" style="enable-background:new 0 0 32 32;" xml:space="preserve">
<path style="fill:none;stroke:#000000;stroke-width:2;stroke-miterlimit:10;" d="M6,6L6,6C4.895,6,4,6.895,4,8v9c0,0,2.667,3,6,3
	s6-3,6-3V8c0-1.105-0.895-2-2-2h0"/>
<circle cx="13" cy="6" r="2"/>
<circle cx="7" cy="6" r="2"/>
<path style="fill:none;stroke:#000000;stroke-width:2;stroke-miterlimit:10;" d="M10,20v3c0,2.761,2.239,5,5,5h0
	c2.761,0,5-2.239,5-5v-5c0-1.657,1.343-3,3-3h0c1.657,0,3,1.343,3,3v2"/>
<circle style="fill:none;stroke:#000000;stroke-width:2;stroke-miterlimit:10;" cx="26" cy="21" r="2"/>
</svg>
