<?xml version="1.0" encoding="iso-8859-1"?>
<!-- Generator: Adobe Illustrator 21.0.2, SVG Export Plug-In . SVG Version: 6.00 Build 0)  -->
<svg version="1.1" id="Layer_1" xmlns="http://www.w3.org/2000/svg" xmlns:xlink="http://www.w3.org/1999/xlink" x="0px" y="0px"
	 viewBox="0 0 32 32" style="enable-background:new 0 0 32 32;" xml:space="preserve">
<polyline style="fill:none;stroke:#000000;stroke-width:2;stroke-miterlimit:10;" points="19,4 19,10 25,10 "/>
<polygon points="16,13 19,14 21,18 16,18 "/>
<circle style="fill:none;stroke:#000000;stroke-width:2;stroke-miterlimit:10;" cx="16" cy="18" r="5"/>
<polygon points="17,27 8,27 8,5 18.586,5 24,10.414 24,17 26,17 26,9.586 19.414,3 6,3 6,29 17,29 "/>
<path d="M32,32H19V21.5c0-1.381,1.119-2.5,2.5-2.5H32V32z M21,30h9v-9h-9V30z"/>
</svg>
