<?xml version="1.0" encoding="iso-8859-1"?>
<!-- Generator: Adobe Illustrator 19.1.1, SVG Export Plug-In . SVG Version: 6.00 Build 0)  -->
<svg version="1.1" id="Layer_1" xmlns="http://www.w3.org/2000/svg" xmlns:xlink="http://www.w3.org/1999/xlink" x="0px" y="0px"
	 viewBox="0 0 32 32" style="enable-background:new 0 0 32 32;" xml:space="preserve">
<polyline style="fill:none;stroke:#000000;stroke-width:2;stroke-miterlimit:10;" points="11,5 6,5 6,28 26,28 26,5 21,5 "/>
<path style="fill:none;stroke:#000000;stroke-width:2;stroke-miterlimit:10;" d="M18,5c0-1.105-0.895-2-2-2s-2,0.895-2,2h-3v4h10V5
	H18z"/>
<circle cx="11" cy="24" r="1"/>
<circle cx="20" cy="16" r="1"/>
<rect x="8.958" y="14.504" transform="matrix(0.7104 0.7038 -0.7038 0.7104 14.2376 -3.5964)" width="5.062" height="1.998"/>
<polygon points="10.42,18.004 9.007,16.59 12.583,13 13.996,14.414 "/>
<rect x="17.962" y="21.5" transform="matrix(0.7104 0.7038 -0.7038 0.7104 21.7682 -7.9069)" width="5.062" height="1.998"/>
<polygon points="19.424,25 18.011,23.586 21.587,19.996 23,21.41 "/>
<line style="fill:none;stroke:#000000;stroke-width:2;stroke-miterlimit:10;" x1="20" y1="14" x2="20" y2="12"/>
<line style="fill:none;stroke:#000000;stroke-width:2;stroke-miterlimit:10;" x1="12.542" y1="22.458" x2="18.417" y2="17.583"/>
<path d="M18,13h4l-2-2L18,13z"/>
</svg>
