<?xml version="1.0" encoding="iso-8859-1"?>
<!-- Generator: Adobe Illustrator 19.1.1, SVG Export Plug-In . SVG Version: 6.00 Build 0)  -->
<svg version="1.1" id="Layer_1" xmlns="http://www.w3.org/2000/svg" xmlns:xlink="http://www.w3.org/1999/xlink" x="0px" y="0px"
	 viewBox="-8 10 32 32" style="enable-background:new -8 10 32 32;" xml:space="preserve">
<g>
	<path d="M20,16.338V15h-2v2.867l0.801,0.163C19.495,18.171,20,18.79,20,19.5c0,0.722-0.517,1.34-1.228,1.47l-0.751,0.138
		l-0.065,0.76c-0.065,0.75-0.217,1.512-0.432,2.269C17.217,24.307,17,24.623,17,25c0,0.147,0.036,0.285,0.093,0.411
		c-0.221,0.565-0.478,1.118-0.771,1.654C16.22,27.03,16.114,27,16,27c-0.552,0-1,0.448-1,1c0,0.273,0.111,0.518,0.287,0.699
		c-0.348,0.473-0.723,0.919-1.122,1.334C14.109,30.024,14.059,30,14,30c-0.552,0-1,0.448-1,1c0,0.028,0.013,0.051,0.016,0.078
		C11.532,32.257,9.818,33,8,33c-1.818,0-3.532-0.743-5.016-1.922C2.987,31.051,3,31.028,3,31c0-0.552-0.448-1-1-1
		c-0.059,0-0.11,0.024-0.165,0.033c-0.399-0.415-0.774-0.862-1.122-1.334C0.889,28.518,1,28.273,1,28c0-0.552-0.448-1-1-1
		c-0.114,0-0.22,0.03-0.322,0.065c-0.293-0.537-0.55-1.09-0.771-1.655C-1.036,25.284-1,25.147-1,25c0-0.377-0.217-0.693-0.524-0.863
		c-0.215-0.757-0.367-1.519-0.432-2.269l-0.065-0.76l-0.751-0.138C-3.484,20.84-4,20.222-4,19.5c0-0.71,0.504-1.329,1.2-1.47
		l0.8-0.163V15h-2v1.337c-1.195,0.57-2,1.793-2,3.163c0,1.425,0.86,2.678,2.127,3.216C-3.049,28.661,1.851,35,8,35
		c6.149,0,11.049-6.339,11.872-12.284C21.141,22.178,22,20.925,22,19.5C22,18.13,21.195,16.907,20,16.338z"/>
	<circle cx="3.5" cy="17.5" r="1.5"/>
	<circle cx="12.5" cy="17.5" r="1.5"/>
	<path d="M12.483,24.755c-0.893-0.493-2.979-0.79-4.482-0.792c-1.52-0.039-3.63,0.297-4.502,0.801L4.5,26.497
		c0.326-0.188,1.894-0.533,3.484-0.533c0.004,0,0.009,0,0.014,0c1.528,0.002,3.129,0.328,3.518,0.542L12.483,24.755z"/>
	<circle cx="8" cy="28" r="1"/>
	<circle cx="12" cy="28" r="1"/>
	<circle cx="4" cy="28" r="1"/>
	<circle cx="8" cy="22" r="1"/>
	<circle cx="12" cy="22" r="1"/>
	<circle cx="4" cy="22" r="1"/>
	<circle cx="0" cy="22" r="1"/>
	<circle cx="16" cy="22" r="1"/>
	<circle cx="6" cy="31" r="1"/>
	<circle cx="10" cy="31" r="1"/>
	<circle cx="14" cy="25" r="1"/>
	<circle cx="2" cy="25" r="1"/>
</g>
</svg>
