<?xml version="1.0" encoding="iso-8859-1"?>
<!-- Generator: Adobe Illustrator 19.2.0, SVG Export Plug-In . SVG Version: 6.00 Build 0)  -->
<svg version="1.1" id="Layer_1" xmlns="http://www.w3.org/2000/svg" xmlns:xlink="http://www.w3.org/1999/xlink" x="0px" y="0px"
	 viewBox="0 0 32 32" style="enable-background:new 0 0 32 32;" xml:space="preserve">
<path style="fill:none;stroke:#000000;stroke-width:2;stroke-miterlimit:10;" d="M9,17l0.007,0.273C8.408,17.619,8,18.259,8,19
	c0,1.049,0.811,1.9,1.838,1.984C10.598,23.452,12.992,27,16,27s5.402-3.548,6.162-6.016C23.189,20.9,24,20.049,24,19
	c0-0.741-0.401-1.381-1-1.727V17"/>
<circle cx="13" cy="19" r="1"/>
<circle cx="19" cy="19" r="1"/>
<polygon style="fill:none;stroke:#000000;stroke-width:2;stroke-miterlimit:10;" points="6.4,7 16,4.046 25.6,7 16,9.954 "/>
<path style="fill:none;stroke:#000000;stroke-width:2;stroke-miterlimit:10;" d="M16,9.954l-6-1.846V12c0,0.705,2.278,2,6,2
	c3.722,0,6-1.295,6-2V8.108L16,9.954z"/>
<path style="fill:none;stroke:#000000;stroke-width:2;stroke-miterlimit:10;" d="M23,17c0-2.761-0.448-5-1-5"/>
<path style="fill:none;stroke:#000000;stroke-width:2;stroke-miterlimit:10;" d="M9,17c0-2.761,0.448-5,1-5"/>
</svg>
