<?xml version="1.0" encoding="iso-8859-1"?>
<!-- Generator: Adobe Illustrator 19.1.1, SVG Export Plug-In . SVG Version: 6.00 Build 0)  -->
<svg version="1.1" id="Layer_1" xmlns="http://www.w3.org/2000/svg" xmlns:xlink="http://www.w3.org/1999/xlink" x="0px" y="0px"
	 viewBox="0 0 32 32" style="enable-background:new 0 0 32 32;" xml:space="preserve">
<circle cx="13" cy="18" r="1"/>
<circle cx="19" cy="18" r="1"/>
<line style="fill:none;stroke:#000000;stroke-width:2;stroke-miterlimit:10;" x1="18" y1="18" x2="21" y2="16"/>
<line style="fill:none;stroke:#000000;stroke-width:2;stroke-miterlimit:10;" x1="14" y1="18" x2="11" y2="16"/>
<path d="M18.484,24h-2.609h-2.36C13.232,24,13,23.768,13,23.484V22.5c0-0.825,0.675-1.5,1.5-1.5h3.06c0.792,0,1.44,0.648,1.44,1.44
	v1.045C19,23.768,18.768,24,18.484,24z"/>
<path style="fill:none;stroke:#000000;stroke-width:2;stroke-miterlimit:10;" d="M8.007,16.273C7.408,16.619,7,17.259,7,18
	c0,1.049,0.811,1.9,1.838,1.984c0.759,2.469,1.872,5.226,2.636,6.034c2.499,2.644,6.552,2.644,9.051,0
	c0.764-0.808,1.877-3.565,2.636-6.034C24.189,19.9,25,19.049,25,18c0-0.741-0.401-1.381-1-1.727V15c0-5.342-2.453-7-5-7l-1-2
	C10.978,6,8,9.261,8,15L8.007,16.273z"/>
<path style="fill:none;stroke:#000000;stroke-width:2;stroke-miterlimit:10;" d="M19,8c2.966,5.924-6.958,0.783-7,6"/>
</svg>
