<?xml version="1.0" encoding="iso-8859-1"?>
<!-- Generator: Adobe Illustrator 19.1.0, SVG Export Plug-In . SVG Version: 6.00 Build 0)  -->
<svg version="1.1" id="Layer_1" xmlns="http://www.w3.org/2000/svg" xmlns:xlink="http://www.w3.org/1999/xlink" x="0px" y="0px"
	 viewBox="0 0 32 32" style="enable-background:new 0 0 32 32;" xml:space="preserve">
<circle cx="10.001" cy="17.999" r="0.999"/>
<circle cx="12.001" cy="20.999" r="0.999"/>
<circle cx="8.001" cy="20.999" r="0.999"/>
<path d="M29.184,15.739c-0.466-0.468-0.583-1.077-0.408-1.686c0.058-0.14,0.058-0.375,0.058-0.562c0-1.545-1.166-2.809-3.031-3.184
	c-0.641-0.141-1.107-0.468-1.399-0.936c-0.641-1.171-2.04-1.967-3.73-1.967c-0.758,0-1.457-0.234-1.982-0.609
	C17.934,6.281,17.002,6,16.011,6c-0.991,0-1.924,0.281-2.681,0.796c-0.525,0.375-1.224,0.609-1.982,0.609
	c-1.69,0-3.148,0.843-3.789,2.013c-0.233,0.421-0.699,0.749-1.224,0.843c-1.982,0.375-3.148,1.686-3.148,3.231
	c0,0.187,0,0.421,0.058,0.609c0.117,0.609,0,1.217-0.466,1.686c-0.641,0.702-0.933,1.592-0.7,2.575
	C2.255,18.97,2.663,19.579,3.187,20h1.329c0-5.994,4.925-11.747,11.494-11.747c6.569,0,11.494,5.519,11.494,11.747h1.33
	C29.534,19.391,30,18.595,30,17.706C30,16.957,29.709,16.301,29.184,15.739z"/>
<path style="fill:none;stroke:#000000;stroke-width:2;stroke-miterlimit:10;" d="M26,25H6c-1.105,0-2-0.895-2-2v-3
	C4,13.373,9.373,8,16,8h0c6.627,0,12,5.373,12,12v3C28,24.105,27.105,25,26,25z"/>
</svg>
