<?xml version="1.0" encoding="iso-8859-1"?>
<!-- Generator: Adobe Illustrator 19.1.1, SVG Export Plug-In . SVG Version: 6.00 Build 0)  -->
<svg version="1.1" id="Layer_1" xmlns="http://www.w3.org/2000/svg" xmlns:xlink="http://www.w3.org/1999/xlink" x="0px" y="0px"
	 viewBox="0 0 32 32" style="enable-background:new 0 0 32 32;" xml:space="preserve">
<path style="fill:none;stroke:#000000;stroke-width:2;stroke-miterlimit:10;" d="M16,28h9c0-3.906-1-7-1-7l1-8c0,0-2-0.056-2-3
	c0-2.012,1-5,1-5l-4-1c-0.573,1.292-2.183,2-4,2s-3.427-0.708-4-2L8,5c0,0,1,2.988,1,5c0,2.944-2,3-2,3l1,8c0,0-1,3.094-1,7
	C7,28,16,28,16,28z"/>
<line style="fill:none;stroke:#000000;stroke-width:2;stroke-miterlimit:10;" x1="16" y1="8" x2="16" y2="11"/>
<line style="fill:none;stroke:#000000;stroke-width:2;stroke-miterlimit:10;" x1="16" y1="12" x2="16" y2="15"/>
<line style="fill:none;stroke:#000000;stroke-width:2;stroke-miterlimit:10;" x1="16" y1="16" x2="16" y2="19"/>
<line style="fill:none;stroke:#000000;stroke-width:2;stroke-miterlimit:10;" x1="16" y1="20" x2="16" y2="23"/>
<line style="fill:none;stroke:#000000;stroke-width:2;stroke-miterlimit:10;" x1="16" y1="24" x2="16" y2="27"/>
</svg>
