<?xml version="1.0" encoding="iso-8859-1"?>
<!-- Generator: Adobe Illustrator 19.1.1, SVG Export Plug-In . SVG Version: 6.00 Build 0)  -->
<svg version="1.1" id="Layer_1" xmlns="http://www.w3.org/2000/svg" xmlns:xlink="http://www.w3.org/1999/xlink" x="0px" y="0px"
	 viewBox="0 0 32 32" style="enable-background:new 0 0 32 32;" xml:space="preserve">
<polygon points="3,29 5.796,24.796 7.805,22.805 9.195,24.195 7.204,26.204 "/>
<rect x="8.879" y="17.464" transform="matrix(-0.7071 -0.7071 0.7071 -0.7071 3.9289 43.6274)" style="fill:none;stroke:#000000;stroke-width:2;stroke-miterlimit:10;" width="4.243" height="7.071"/>
<polyline style="fill:none;stroke:#000000;stroke-width:2;stroke-miterlimit:10;" points="8,13 19,24 27.5,15.5 18,6 "/>
<path style="fill:none;stroke:#000000;stroke-width:2;stroke-miterlimit:10;" d="M24.001,5c0.5,0.255,0.969,0.592,1.388,1.011
	c2.148,2.148,2.148,5.63,0,7.778"/>
<rect x="12.672" y="10.379" transform="matrix(-0.7071 0.7071 -0.7071 -0.7071 35.299 10.3787)" width="5.657" height="4.243"/>
<rect x="16.672" y="14.379" transform="matrix(-0.7071 0.7071 -0.7071 -0.7071 44.9558 14.3787)" width="5.657" height="4.243"/>
<line style="fill:none;stroke:#000000;stroke-width:2;stroke-miterlimit:10;" x1="17" y1="11" x2="20" y2="8"/>
<line style="fill:none;stroke:#000000;stroke-width:2;stroke-miterlimit:10;" x1="21" y1="15" x2="24" y2="12"/>
</svg>
