<?xml version="1.0" encoding="iso-8859-1"?>
<!-- Generator: Adobe Illustrator 21.0.2, SVG Export Plug-In . SVG Version: 6.00 Build 0)  -->
<svg version="1.1" id="Layer_1" xmlns="http://www.w3.org/2000/svg" xmlns:xlink="http://www.w3.org/1999/xlink" x="0px" y="0px"
	 viewBox="0 0 32 32" style="enable-background:new 0 0 32 32;" xml:space="preserve">
<path style="fill:none;stroke:#000000;stroke-width:2;stroke-miterlimit:10;" d="M25.501,5.149
	c-0.734,0.29-21.568,9.074-21.568,9.074s-1.009,0.345-0.929,0.982c0.08,0.637,0.903,0.929,0.903,0.929l5.362,1.805
	c0,0,1.619,5.309,1.938,6.317c0.319,1.009,0.574,1.033,0.574,1.033c0.296,0.129,0.567-0.077,0.567-0.077l3.465-3.159l5.401,4.141
	c1.46,0.637,1.991-0.69,1.991-0.69L26.926,6.44C27.256,4.964,26.276,4.844,25.501,5.149z"/>
<path d="M22.859,9.764c0.027-0.451-0.602-0.129-0.602-0.129L9.159,17.748c0,0,1.729,5.5,2.048,6.509
	c0.318,1.009,0.754,1.181,0.754,1.181l0.978-6.224c0,0,9.257-8.627,9.655-8.999C22.992,9.844,22.859,9.764,22.859,9.764z"/>
</svg>
