<?xml version="1.0" encoding="iso-8859-1"?>
<!-- Generator: Adobe Illustrator 21.0.0, SVG Export Plug-In . SVG Version: 6.00 Build 0)  -->
<svg version="1.1" id="Layer_1" xmlns="http://www.w3.org/2000/svg" xmlns:xlink="http://www.w3.org/1999/xlink" x="0px" y="0px"
	 viewBox="0 0 32 32" style="enable-background:new 0 0 32 32;" xml:space="preserve">
<path style="fill:none;stroke:#000000;stroke-width:2;stroke-linecap:round;stroke-miterlimit:10;" d="M16,3c-3.6,0-6,5-9,6
	c0,5,0.8,6,2,8h14c1.4-4,2-4,2-8C22,8,19.6,3,16,3z"/>
<line style="fill:none;stroke:#000000;stroke-width:2;stroke-miterlimit:10;" x1="16" y1="3" x2="16" y2="17"/>
<line style="fill:none;stroke:#000000;stroke-width:2;stroke-miterlimit:10;" x1="12" y1="10" x2="20" y2="10"/>
<circle cx="13" cy="20" r="1"/>
<circle cx="19" cy="20" r="1"/>
<path d="M23.907,17.14C23.759,16.467,21.722,17,21.722,17C21.894,17.295,22,17.634,22,18v1h1c0.552,0,1,0.448,1,1s-0.448,1-1,1h-1v1
	c0,3.309-2.691,6-6,6s-6-2.691-6-6v-1H9c-0.551,0-1-0.448-1-1s0.449-1,1-1h1v-1c0-0.366,0.106-0.705,0.278-1
	c0,0-2.037-0.533-2.185,0.14C6.881,17.525,6,18.662,6,20c0,1.32,0.857,2.444,2.044,2.844C8.467,26.86,11.874,30,16,30
	s7.533-3.14,7.956-7.156C25.143,22.444,26,21.32,26,20C26,18.662,25.119,17.525,23.907,17.14z"/>
</svg>
