<?xml version="1.0" encoding="iso-8859-1"?>
<!-- Generator: Adobe Illustrator 22.0.1, SVG Export Plug-In . SVG Version: 6.00 Build 0)  -->
<svg version="1.1" id="Layer_1" xmlns="http://www.w3.org/2000/svg" xmlns:xlink="http://www.w3.org/1999/xlink" x="0px" y="0px"
	 viewBox="0 0 32 32" style="enable-background:new 0 0 32 32;" xml:space="preserve">
<g>
	<g>
	</g>
</g>
<path style="fill:#1D1D1B;" d="M12.316,11.55c0,0.3,0.172,0.402,0.24,0.45h-1.12c0.047-0.051,0.24-0.15,0.24-0.45
	c0-0.75,0-2.175,0-2.175h-0.16c-0.24,0-0.48,0.226-0.48,0.226L11.196,9h1.6l0.16,0.601c0,0-0.24-0.225-0.48-0.225h-0.16
	C12.316,9.43,12.316,10.8,12.316,11.55z"/>
<path style="fill:#1D1D1B;" d="M15.92,11.55C15.92,11.85,16,12,16,12h-0.72c0,0,0.08-0.15,0.08-0.45v-1.125h-0.72v1.125
	c0,0.3,0.08,0.45,0.08,0.45H14c0,0,0.08-0.15,0.08-0.45v-2.1C14.08,9.225,14,9,14,9h0.72c0,0-0.08,0.225-0.08,0.45v0.6h0.72v-0.6
	c0-0.225-0.081-0.45-0.081-0.45h0.719c0,0-0.079,0.225-0.079,0.45C15.92,9.45,15.92,11.025,15.92,11.55z"/>
<path style="fill:#1D1D1B;" d="M17.72,10.575c0,0-0.002,1.074,0.001,1.097c0.009,0.048,0.039,0.072,0.089,0.072
	c0.018,0,0.432-0.062,0.488-0.085C18.372,11.628,18.6,11.4,18.6,11.4L18.52,12H17c0,0,0.08-0.15,0.08-0.45c0-0.225,0-1.8,0-2.1
	C17.08,9.225,17,9,17,9h1.52l-0.08,0.45C18.401,9.393,18.36,9.3,18.2,9.3s-0.48,0-0.48,0v0.9h0.24c0.24,0,0.4-0.075,0.4-0.075v0.525
	c0,0-0.16-0.075-0.4-0.075H17.72z"/>
<path d="M5.759,15.886c-0.176-0.234-0.397-0.414-0.664-0.539c-0.13-0.062-0.466-0.149-0.615-0.178c0.08,0,0.569-0.334,0.821-0.677
	c0.405-0.554,0.619-1.319,0.619-2.327c0-0.547-0.081-1.062-0.218-1.515C5.48,9.933,5.137,9.457,4.671,9.223
	C4.366,9.074,3.874,9,3.194,9H0.08c0.24,0.487,0.56,1.299,0.56,1.948c0,0.731,0,8.443,0,9.742c0,0.485-0.335,1.018-0.64,1.299
	l3.515-0.001c0.71,0.016,1.298-0.164,1.763-0.539C6.026,20.864,6.4,19.825,6.4,18.334C6.4,17.265,6.186,16.449,5.759,15.886z
	 M2.375,9.874C2.65,9.835,2.88,9.827,3.04,9.812c0.374-0.023,0.685,0.274,0.876,0.828c0.16,0.461,0.244,0.978,0.244,1.689
	c0,0.593-0.13,1.145-0.382,1.52c-0.214,0.328-0.471,0.509-0.738,0.509c-0.237,0-0.474-0.019-0.665-0.112V9.874z M3.25,21.126
	c-0.32,0-0.517-0.014-0.64-0.151c-0.122-0.137-0.235-0.375-0.235-0.734V15.62c0.397-0.101,0.65-0.125,0.665-0.125
	c0.435,0,0.818,0.326,1.139,0.989c0.275,0.578,0.381,1.203,0.381,1.771C4.56,20.203,4,21.126,3.25,21.126z"/>
<path d="M17.99,15.203l0.506,0c0.74,0,0.953,0.452,1.13,0.688C19.522,15.468,19.236,14,19.236,14h-3.841
	c0,0-0.394,1.769-0.394,1.891c0.066-0.171,0.389-0.688,1.01-0.688l0.625,0c0,0,0,6.359,0,8.422c0,0.384-0.078,0.859-0.623,1.375h2.6
	c-0.545-0.516-0.623-0.991-0.623-1.375C17.99,21.563,17.99,15.203,17.99,15.203z"/>
<path d="M21.375,20.125c0,1,0.319,1.042,0.467,1.042c0.72,0,1.474-0.698,1.6-0.833C23.36,20.747,23.202,22,23.202,22h-3.44
	c0.16-0.333,0.24-0.833,0.24-1.482c0-1.292,0-5.167,0-5.167c0-0.518-0.08-1.018-0.252-1.352h1.875
	c-0.037,0.068-0.25,0.292-0.25,0.625C21.375,14.708,21.375,20.125,21.375,20.125z"/>
<path d="M25.133,17.875v3.25c0.022,0.129,0.126,0.271,0.25,0.25c0.75-0.125,1.22-0.213,1.361-0.273
	c0.185-0.083,0.438-0.292,0.757-0.625C27.456,20.825,27.258,22,27.258,22h-3.67c0.16-0.417,0.17-0.875,0.17-0.875s0-5.25,0-6.5
	c0-0.333-0.25-0.625-0.25-0.625h3.67l-0.17,1.125c-0.097-0.152-0.18-0.375-0.5-0.375c-0.4,0-1.375,0-1.375,0V17h0.875
	c0.32,0,0.617-0.167,0.75-0.25V18c-0.148-0.121-0.505-0.125-0.825-0.125H25.133z"/>
<path d="M8.375,17.875v3.25c0.022,0.129,0.126,0.271,0.25,0.25c0.75-0.125,1.22-0.213,1.361-0.273
	c0.185-0.083,0.438-0.292,0.757-0.625C10.698,20.825,10.5,22,10.5,22H6.83C6.99,21.583,7,21.125,7,21.125s0-5.25,0-6.5
	C7,14.292,6.75,14,6.75,14h3.67l-0.17,1.125c-0.097-0.152-0.18-0.375-0.5-0.375c-0.4,0-1.375,0-1.375,0V17H9.25
	c0.32,0,0.617-0.167,0.75-0.25V18c-0.148-0.121-0.505-0.125-0.825-0.125H8.375z"/>
<path d="M31.286,15.368l0.357-1.244c-0.074,0.107-0.199,0.174-0.286,0.174c-0.06,0-0.232-0.037-0.513-0.186
	c-0.281-0.149-0.556-0.228-0.824-0.236c-0.958-0.031-1.632,0.449-1.92,1.437c-0.057,0.194-0.089,0.392-0.098,0.593
	c-0.009,0.204,0.007,0.412,0.048,0.624c0.121,0.597,0.476,1.063,0.965,1.4c0.683,0.475,1.199,0.766,1.523,1.416
	c0.078,0.184,0.125,0.388,0.125,0.607c0,0.754-0.396,1.421-1.138,1.421c-0.002,0-0.047,0.003-0.106,0.003
	c-0.729,0-1.19-0.59-1.19-1.251c0-0.194,0.09-0.463,0.09-0.525c0-0.05-0.018-0.102-0.07-0.102c-0.088,0-0.232,0.125-0.309,0.25
	c-0.121,0.199-0.191,0.41-0.191,0.815c0,0.503,0.258,1.002,0.65,1.289c0.4,0.292,0.833,0.395,1.268,0.395
	c0.764,0,1.35-0.245,1.759-0.735C31.809,21.055,32,20.424,32,19.62c0-0.858-0.402-1.562-1.206-2.114
	c-0.335-0.214-0.667-0.433-0.995-0.655c-0.398-0.343-0.556-0.602-0.556-1.031c0-0.36,0.135-0.639,0.329-0.83
	c0.161-0.161,0.397-0.237,0.618-0.23c0.288,0.015,0.49,0.079,0.724,0.253C31.139,15.181,31.286,15.368,31.286,15.368z"/>
<path style="fill:#1D1D1B;" d="M13.83,22H16c-0.319-0.159-0.56-0.833-1.035-3.23c0,0-0.43-2.221-0.623-3.15
	c-0.096-0.453-0.102-0.765-0.102-0.954c0-0.332,0.102-0.561,0.391-0.667c-0.185,0-0.397,0-0.634,0c-0.237,0-0.441,0-0.612,0h-0.657
	c-0.245,0-0.434,0-0.568,0c0.193,0.068,0.281,0.236,0.281,0.5c0,0.189-0.043,0.512-0.147,0.973
	c-0.119,0.536-0.237,1.073-0.356,1.609l-0.312,1.518c-0.289,1.428-0.479,2.289-0.568,2.583C10.94,21.615,10.78,21.887,10.58,22
	h0.701c0.178,0,0.408,0,0.69,0c0.215-0.008,0.36-0.008,0.434,0c-0.082-0.078-0.165-0.083-0.122-0.391
	c0.009-0.066,0.114-0.745,0.249-1.609h1.233C13.897,20.941,14,21.691,14,21.75C14,21.917,13.83,22,13.83,22z M13.173,15.881
	c0,0,0.244,1.681,0.467,3.244h-0.972C12.908,17.577,13.173,15.881,13.173,15.881z"/>
</svg>
