<?xml version="1.0" encoding="iso-8859-1"?>
<!-- Generator: Adobe Illustrator 19.1.1, SVG Export Plug-In . SVG Version: 6.00 Build 0)  -->
<svg version="1.1" id="Layer_1" xmlns="http://www.w3.org/2000/svg" xmlns:xlink="http://www.w3.org/1999/xlink" x="0px" y="0px"
	 viewBox="-7 9 32 32" style="enable-background:new -7 9 32 32;" xml:space="preserve">
<path d="M18,38.999c-2.757,0-4.999-2.242-4.999-4.999s2.242-4.999,4.999-4.999s4.999,2.242,4.999,4.999S20.757,38.999,18,38.999z
	 M18,31.001c-1.653,0-2.999,1.346-2.999,2.999s1.346,2.999,2.999,2.999s2.999-1.346,2.999-2.999S19.653,31.001,18,31.001z"/>
<rect x="14.87" y="27.929" width="2" height="1.856"/>
<rect x="19.13" y="38.215" width="2" height="1.856"/>
<rect x="22.143" y="30.942" width="2" height="1.855"/>
<rect x="11.857" y="35.202" width="2" height="1.855"/>
<rect x="19.13" y="27.929" width="2" height="1.856"/>
<rect x="14.87" y="38.215" width="2" height="1.856"/>
<rect x="22.143" y="35.202" width="2" height="1.855"/>
<rect x="11.857" y="30.942" width="2" height="1.855"/>
<path style="fill:none;stroke:#000000;stroke-width:2;stroke-miterlimit:10;" d="M5,26.422V14H1v12.422C-0.764,27.194-2,28.951-2,31
	c0,2.761,2.239,5,5,5s5-2.239,5-5C8,28.951,6.764,27.194,5,26.422z"/>
<line style="fill:none;stroke:#000000;stroke-width:2;stroke-miterlimit:10;" x1="1" y1="17" x2="5" y2="17"/>
<line style="fill:none;stroke:#000000;stroke-width:2;stroke-miterlimit:10;" x1="-2" y1="23" x2="1" y2="23"/>
<line style="fill:none;stroke:#000000;stroke-width:2;stroke-miterlimit:10;" x1="-2" y1="20" x2="1" y2="20"/>
<line style="fill:none;stroke:#000000;stroke-width:2;stroke-miterlimit:10;" x1="-2" y1="17" x2="1" y2="17"/>
</svg>
