<?xml version="1.0" encoding="iso-8859-1"?>
<!-- Generator: Adobe Illustrator 19.1.1, SVG Export Plug-In . SVG Version: 6.00 Build 0)  -->
<svg version="1.1" id="Layer_1" xmlns="http://www.w3.org/2000/svg" xmlns:xlink="http://www.w3.org/1999/xlink" x="0px" y="0px"
	 viewBox="0 0 32 32" style="enable-background:new 0 0 32 32;" xml:space="preserve">
<path style="fill:none;stroke:#000000;stroke-width:2;stroke-miterlimit:10;" d="M25,27H7L9,7c0,0,3.173-2,7-2s7,2,7,2L25,27z"/>
<line style="fill:none;stroke:#000000;stroke-width:2;stroke-miterlimit:10;" x1="4" y1="27" x2="28" y2="27"/>
<circle cx="12" cy="10" r="1"/>
<circle cx="16" cy="10" r="1"/>
<circle cx="20" cy="10" r="1"/>
<circle cx="12" cy="16" r="1"/>
<circle cx="16" cy="16" r="1"/>
<circle cx="20" cy="16" r="1"/>
<circle cx="14" cy="13" r="1"/>
<circle cx="10" cy="19" r="1"/>
<circle cx="10" cy="13" r="1"/>
<circle cx="22" cy="19" r="1"/>
<circle cx="22" cy="13" r="1"/>
<circle cx="14" cy="19" r="1"/>
<circle cx="18" cy="19" r="1"/>
<circle cx="18" cy="13" r="1"/>
</svg>
