<?xml version="1.0" encoding="iso-8859-1"?>
<!-- Generator: Adobe Illustrator 19.1.1, SVG Export Plug-In . SVG Version: 6.00 Build 0)  -->
<svg version="1.1"  xmlns="http://www.w3.org/2000/svg" xmlns:xlink="http://www.w3.org/1999/xlink" x="0px" y="0px"
	 viewBox="0 0 32 32" style="enable-background:new 0 0 32 32;" xml:space="preserve">
<polyline style="fill:none;stroke:#000000;stroke-width:2;stroke-miterlimit:10;" points="9,14 12,18.738 20.381,15.452 "/>
<line style="fill:none;stroke:#000000;stroke-width:2;stroke-miterlimit:10;" x1="16.137" y1="17.369" x2="20.278" y2="24.043"/>
<line style="fill:none;stroke:#000000;stroke-width:2;stroke-miterlimit:10;" x1="7.307" y1="20.706" x2="19.833" y2="24.762"/>
<path d="M16,29h-1v-1.792l0.615-0.256c3.672-1.531,5.341-5.289,6.005-7.769c-0.548,0.344-1.007,0.615-1.112,0.678l-0.771-1.163
	l-0.393-0.451C19.351,18.24,20,17.543,20,15c0-1.014-0.329-1.435-0.503-1.517l-4.943-1.45c-0.146-0.034-0.31-0.051-0.473-0.036
	c-0.228,0.019-0.475,0.098-0.8,0.257c-0.885,0.434-1.681,1.036-2.782,1.869l-3.426,2.558l0.977-2.991
	c0.003-0.011,0.301-0.926,0.481-1.668C7.356,9.658,8.313,7.485,9.118,6.492C9.895,4.348,11.337,3.247,11.4,3.2L13,2v2.52
	C13.81,4.254,14.878,4,16,4c7.532,0,13,5.468,13,13C28.999,17.131,28.717,29,16,29z M24,14.692V17c0,1.116-0.819,6.157-4.234,9.533
	c7.055-1.929,7.23-9.19,7.234-9.545C27,10.626,22.374,6,16,6c-1.788,0-3.521,0.878-3.537,0.887L11,7.649v-0.48
	c-0.018,0.049-0.035,0.098-0.052,0.147l-0.067,0.204l-0.146,0.158c-0.146,0.164-1.444,1.712-0.283,3.69l0.122,0.208
	c0.611-0.436,1.191-0.808,1.827-1.119c0.554-0.271,1.036-0.416,1.519-0.455c0.378-0.027,0.755,0.002,1.154,0.1l5.042,1.481
	C20.301,11.637,22,12.2,22,15c0,0.598-0.031,1.125-0.086,1.589c0.173-0.125,0.313-0.234,0.402-0.318L24,14.692z"/>
<path d="M11,9.657c0,0,0.042,0.343,0.332,0.343s0.623-0.322,0.665-0.686C12.023,9.093,11.864,9,11.685,9C11.042,9,11,9.657,11,9.657
	z"/>
<path style="fill:none;stroke:#000000;stroke-width:2;stroke-miterlimit:10;" d="M10,7c0,0-6,2.083-6,9c0,6.875,6,10,6,10v-0.098
	c0,0-6-7.194-1-11.902"/>
<path style="display:none;opacity:0.53;fill:none;stroke:#000000;stroke-width:2;stroke-miterlimit:10;" d="M8.881,21.476
	c0,0,0.913,1.597,2.19,2.19c-0.776-1.095-1.095-2.19-1.095-2.19"/>
</svg>
