<?xml version="1.0" encoding="iso-8859-1"?>
<!-- Generator: Adobe Illustrator 19.1.1, SVG Export Plug-In . SVG Version: 6.00 Build 0)  -->
<svg version="1.1" id="Layer_1" xmlns="http://www.w3.org/2000/svg" xmlns:xlink="http://www.w3.org/1999/xlink" x="0px" y="0px"
	 viewBox="0 0 32 32" style="enable-background:new 0 0 32 32;" xml:space="preserve">
<rect x="11" y="9" width="2" height="2"/>
<rect x="11" y="13" width="2" height="2"/>
<rect x="11" y="17" width="2" height="2"/>
<rect x="19" y="10" width="2" height="2"/>
<rect x="19" y="14" width="2" height="2"/>
<rect x="19" y="18" width="2" height="2"/>
<polyline style="fill:none;stroke:#000000;stroke-width:2;stroke-miterlimit:10;" points="27,19 27,5 20,8 12,5 5,8 5,20 5,20 "/>
<line style="fill:none;stroke:#000000;stroke-width:2;stroke-miterlimit:10;" x1="18" y1="27" x2="22" y2="27"/>
<line id="XMLID_81_" style="fill:none;stroke:#000000;stroke-width:2;stroke-miterlimit:10;" x1="27" y1="30" x2="27" y2="22"/>
<polyline style="fill:none;stroke:#000000;stroke-width:2;stroke-miterlimit:10;" points="24,22 24,26 27,26 "/>
<polygon points="12,20.932 11.975,20.923 6,23.483 6,18 4,18 4,26.517 12,23.088 "/>
</svg>
