<?xml version="1.0" encoding="iso-8859-1"?>
<!-- Generator: Adobe Illustrator 19.1.1, SVG Export Plug-In . SVG Version: 6.00 Build 0)  -->
<svg version="1.1" id="Layer_1" xmlns="http://www.w3.org/2000/svg" xmlns:xlink="http://www.w3.org/1999/xlink" x="0px" y="0px"
	 viewBox="0 0 32 32" style="enable-background:new 0 0 32 32;" xml:space="preserve">
<polyline style="fill:none;stroke:#000000;stroke-width:2;stroke-miterlimit:10;" points="26,8 26,13 14.349,27.085 12.934,28.5 
	3.5,19.066 4.915,17.651 19,6 24,6 "/>
<g>
	<g>
		<g>
			<g>
				<line style="fill:none;stroke:#000000;stroke-width:2;stroke-miterlimit:10;" x1="5.488" y1="18.249" x2="6.195" y2="18.956"/>
				
					<line style="fill:none;stroke:#000000;stroke-width:2;stroke-miterlimit:10;stroke-dasharray:1.9928,0.9964;" x1="6.9" y1="19.661" x2="12.888" y2="25.649"/>
				
					<line style="fill:none;stroke:#000000;stroke-width:2;stroke-miterlimit:10;" x1="13.241" y1="26.002" x2="13.948" y2="26.709"/>
			</g>
		</g>
	</g>
</g>
<line style="fill:none;stroke:#000000;stroke-width:2;stroke-miterlimit:10;" x1="19" y1="6" x2="26" y2="13"/>
<rect x="24.14" y="4.524" transform="matrix(0.7071 0.7071 -0.7071 0.7071 11.7993 -16.7691)" style="fill:none;stroke:#000000;stroke-width:2;stroke-miterlimit:10;" width="4.003" height="2.668"/>
<g>
	<path d="M18.362,14.654c-0.192-0.192-0.389-0.334-0.585-0.43c-0.096-0.196-0.239-0.394-0.43-0.585
		C16.917,13.208,16.435,13,15.967,13c-0.445,0-0.878,0.189-1.241,0.555c-0.543,0.542-0.444,1.233-0.839,1.931
		c-0.452,0.796-1.167,1.645-0.768,2.044c0.096,0.097,0.204,0.146,0.317,0.146c0.139,0,0.286-0.073,0.436-0.223
		c0.378-0.378,0.951-0.799,1.449-1.137c0.049-0.033,0.1-0.048,0.148-0.048c0.19,0,0.346,0.222,0.217,0.412
		c-0.338,0.498-0.759,1.07-1.137,1.449c-0.273,0.273-0.292,0.539-0.077,0.754C14.553,18.965,14.654,19,14.769,19
		c0.447,0,1.114-0.526,1.747-0.885c0.697-0.395,1.388-0.297,1.931-0.839C19.196,16.526,19.2,15.492,18.362,14.654z"/>
</g>
</svg>
