<?xml version="1.0" encoding="iso-8859-1"?>
<!-- Generator: Adobe Illustrator 21.0.2, SVG Export Plug-In . SVG Version: 6.00 Build 0)  -->
<svg version="1.1" id="Layer_1" xmlns="http://www.w3.org/2000/svg" xmlns:xlink="http://www.w3.org/1999/xlink" x="0px" y="0px"
	 viewBox="0 0 32 32" style="enable-background:new 0 0 32 32;" xml:space="preserve">
<path style="fill:none;stroke:#000000;stroke-width:2;stroke-miterlimit:10;" d="M15,4.09C15.35,4.03,15.69,4,16,4
	c6.54,0,11.85,5.22,11.99,11.73C27.86,14.36,25,12,20,12c-2.02,0-3.72,0.47-5,0.99"/>
<circle cx="12" cy="10" r="1"/>
<path style="fill:none;stroke:#000000;stroke-width:2;stroke-linejoin:round;stroke-miterlimit:10;" d="M15,4.09v7.41
	c0,1.93-1.57,3.5-3.5,3.5S8,13.43,8,11.5C8,7.68,11.05,4.54,15,4.09z"/>
<path style="fill:none;stroke:#000000;stroke-width:2;stroke-miterlimit:10;" d="M17.99,18.36v0.26c-0.01,0.13-0.01,0.27-0.02,0.4
	c-0.22,3.68-1.61,6.88-3.65,8.86C8.49,27.07,4,22.06,4,16c0-4.17,2.13-7.85,5.36-9.99C11,4.91,12.92,4.26,15,4.09v5.16v5.01
	C16.71,14.86,17.94,16.46,17.99,18.36z"/>
<path style="fill:none;stroke:#000000;stroke-width:2;stroke-miterlimit:10;" d="M23,12c0,0.108,0.01,0.214,0.016,0.32
	C26.135,13.009,28,15,28,16c0-3-1.308-6.128-3.269-8.214C23.662,8.87,23,10.357,23,12z"/>
</svg>
