<?xml version="1.0" encoding="iso-8859-1"?>
<!-- Generator: Adobe Illustrator 19.1.1, SVG Export Plug-In . SVG Version: 6.00 Build 0)  -->
<svg version="1.1"  xmlns="http://www.w3.org/2000/svg" xmlns:xlink="http://www.w3.org/1999/xlink" x="0px" y="0px"
	 viewBox="0 0 32 32" style="enable-background:new 0 0 32 32;" xml:space="preserve">
<circle style="fill:none;stroke:#000000;stroke-width:2;stroke-miterlimit:10;" cx="6" cy="6" r="1"/>
<circle style="fill:none;stroke:#000000;stroke-width:2;stroke-miterlimit:10;" cx="26" cy="26" r="1"/>
<circle cx="10" cy="6" r="1"/>
<circle cx="13" cy="6" r="1"/>
<circle cx="16" cy="6" r="1"/>
<circle cx="19" cy="6" r="1"/>
<circle cx="22" cy="6" r="1"/>
<circle cx="25" cy="6" r="1"/>
<circle cx="27" cy="8" r="1"/>
<circle cx="13" cy="19" r="1"/>
<circle cx="10" cy="19" r="1"/>
<circle cx="5" cy="21" r="1"/>
<circle cx="22" cy="19" r="1"/>
<circle cx="19" cy="19" r="1"/>
<circle cx="25" cy="19" r="1"/>
<circle cx="10" cy="26" r="1"/>
<circle cx="5" cy="24" r="1"/>
<circle cx="7" cy="19" r="1"/>
<circle cx="7" cy="26" r="1"/>
<circle cx="16" cy="26" r="1"/>
<circle cx="19" cy="26" r="1"/>
<circle cx="22" cy="26" r="1"/>
<circle cx="13" cy="26" r="1"/>
<circle cx="27" cy="11" r="1"/>
<circle cx="27" cy="14" r="1"/>
<circle cx="27" cy="17" r="1"/>
<path d="M16,10c-1.654,0-3,1.346-3,3c0,1.249,1.615,4.492,2.11,5.457L16,20.189l0.89-1.732C17.385,17.492,19,14.249,19,13
	C19,11.346,17.654,10,16,10z M16,14c-0.552,0-1-0.448-1-1c0-0.552,0.448-1,1-1s1,0.448,1,1C17,13.552,16.552,14,16,14z"/>
</svg>
