<?xml version="1.0" encoding="iso-8859-1"?>
<!-- Generator: Adobe Illustrator 19.1.0, SVG Export Plug-In . SVG Version: 6.00 Build 0)  -->
<svg version="1.1" id="Layer_1" xmlns="http://www.w3.org/2000/svg" xmlns:xlink="http://www.w3.org/1999/xlink" x="0px" y="0px"
	 viewBox="0 0 32 32" style="enable-background:new 0 0 32 32;" xml:space="preserve">
<path style="fill:none;stroke:#000000;stroke-width:2;stroke-miterlimit:10;" d="M23,26H9c-1.105,0-2-0.895-2-2V12
	c0-2.761,2.239-5,5-5h8c2.761,0,5,2.239,5,5v12C25,25.105,24.105,26,23,26z"/>
<line style="fill:none;stroke:#000000;stroke-width:2;stroke-miterlimit:10;" x1="7" y1="17" x2="25" y2="17"/>
<circle cx="20.5" cy="21.5" r="1.5"/>
<circle cx="11.5" cy="21.5" r="1.5"/>
<polygon points="22,26 19.649,26 22.649,29 25,29 "/>
<polygon points="10,26 12.351,26 9.351,29 7,29 "/>
<polyline style="fill:none;stroke:#000000;stroke-width:2;stroke-miterlimit:10;" points="9,4 11,3 21,3 23,4 "/>
<line style="fill:none;stroke:#000000;stroke-width:2;stroke-miterlimit:10;" x1="16" y1="7" x2="16" y2="5"/>
</svg>
