<?xml version="1.0" encoding="iso-8859-1"?>
<!-- Generator: Adobe Illustrator 19.1.1, SVG Export Plug-In . SVG Version: 6.00 Build 0)  -->
<svg version="1.1" id="Layer_1" xmlns="http://www.w3.org/2000/svg" xmlns:xlink="http://www.w3.org/1999/xlink" x="0px" y="0px"
	 viewBox="0 0 32 32" style="enable-background:new 0 0 32 32;" xml:space="preserve">
<line style="fill:none;stroke:#000000;stroke-width:2;stroke-miterlimit:10;" x1="9" y1="11" x2="20" y2="11"/>
<line style="fill:none;stroke:#000000;stroke-width:2;stroke-miterlimit:10;" x1="9" y1="6" x2="20" y2="6"/>
<rect x="4" y="5" width="3" height="2"/>
<rect x="4" y="10" width="3" height="2"/>
<line style="fill:none;stroke:#000000;stroke-width:2;stroke-miterlimit:10;" x1="9" y1="26" x2="20" y2="26"/>
<line style="fill:none;stroke:#000000;stroke-width:2;stroke-miterlimit:10;" x1="9" y1="21" x2="20" y2="21"/>
<rect x="4" y="20" width="3" height="2"/>
<rect x="4" y="25" width="3" height="2"/>
<rect x="26" y="5" width="2" height="2"/>
<rect x="26" y="10" width="2" height="2"/>
<line style="fill:none;stroke:#000000;stroke-width:2;stroke-miterlimit:10;" x1="9" y1="16" x2="20" y2="16"/>
<rect x="4" y="15" width="3" height="2"/>
<rect x="26" y="15" width="2" height="2"/>
<rect x="26" y="20" width="2" height="2"/>
<rect x="26" y="25" width="2" height="2"/>
<rect x="23" y="5" width="2" height="2"/>
<rect x="23" y="20" width="2" height="2"/>
</svg>
