<?xml version="1.0" encoding="iso-8859-1"?>
<!-- Generator: Adobe Illustrator 19.1.0, SVG Export Plug-In . SVG Version: 6.00 Build 0)  -->
<svg version="1.1" id="Layer_1" xmlns="http://www.w3.org/2000/svg" xmlns:xlink="http://www.w3.org/1999/xlink" x="0px" y="0px"
	 viewBox="0 0 32 32" style="enable-background:new 0 0 32 32;" xml:space="preserve">
<path style="fill:none;stroke:#000000;stroke-width:2;stroke-miterlimit:10;" d="M12,24v0.5c0,1.381,1.119,2.5,2.5,2.5
	s2.5-1.119,2.5-2.5V7c0-1.105,0.895-2,2-2s2,0.895,2,2c0,6.478-13,3.028-13,10.496c0,4.468,6.632,4.463,9,4.463"/>
<path style="fill:none;stroke:#000000;stroke-width:2;stroke-miterlimit:10;" d="M17,22c0.539,0,0.961,0,1.5,0
	c1.933,0,3.5-1.567,3.5-3.5S20.433,15,18.5,15c-0.539,0-0.961,0-1.5,0"/>
<path style="fill:none;stroke:#000000;stroke-width:2;stroke-miterlimit:10;" d="M13,19v-0.5c0-1.933,1.567-3.5,3.5-3.5
	c0.539,0-0.039,0,0.5,0"/>
</svg>
