<?xml version="1.0" encoding="iso-8859-1"?>
<!-- Generator: Adobe Illustrator 19.1.0, SVG Export Plug-In . SVG Version: 6.00 Build 0)  -->
<svg version="1.1" id="Layer_1" xmlns="http://www.w3.org/2000/svg" xmlns:xlink="http://www.w3.org/1999/xlink" x="0px" y="0px"
	 viewBox="0 0 32 32" style="enable-background:new 0 0 32 32;" xml:space="preserve">
<path style="fill:none;stroke:#000000;stroke-width:2;stroke-miterlimit:10;" d="M18.517,24.483l4.648-4.648
	c1.105-1.105,1.105-2.895,0-4l0,0c-1.105-1.105-2.895-1.105-4,0l-8.329,8.329c-1.105,1.105-2.895,1.105-4,0l0,0
	c-1.105-1.105-1.105-2.895,0-4c0,0,8.61-8.61,9.712-9.712s0.006-5.006,0.433-5.433l0.52-0.518l4.998,5l-0.518,0.518
	c-0.546,0.546-4.072-0.928-5.433,0.433"/>
<line style="fill:none;stroke:#000000;stroke-width:2;stroke-miterlimit:10;" x1="15.655" y1="24.655" x2="18.345" y2="27.345"/>
<line style="fill:none;stroke:#000000;stroke-width:2;stroke-miterlimit:10;" x1="19" y1="19" x2="21.5" y2="21.5"/>
<line style="fill:none;stroke:#000000;stroke-width:2;stroke-miterlimit:10;" x1="14" y1="16" x2="16.5" y2="18.5"/>
<line style="fill:none;stroke:#000000;stroke-width:2;stroke-miterlimit:10;" x1="10" y1="20" x2="12.5" y2="22.5"/>
</svg>
