<?xml version="1.0" encoding="iso-8859-1"?>
<!-- Generator: Adobe Illustrator 19.2.0, SVG Export Plug-In . SVG Version: 6.00 Build 0)  -->
<svg version="1.1" id="Layer_1" xmlns="http://www.w3.org/2000/svg" xmlns:xlink="http://www.w3.org/1999/xlink" x="0px" y="0px"
	 viewBox="0 0 32 32" style="enable-background:new 0 0 32 32;" xml:space="preserve">
<path style="fill:none;stroke:#000000;stroke-width:2;stroke-miterlimit:10;" d="M22.176,24.376c0,0.073-0.03,0.142-0.085,0.191
	C22.023,24.626,20.418,26,16.731,26c-4.42,0-4.548-4.931-4.548-5.493v-6.213h-2.106c-0.14,0-0.253-0.113-0.253-0.253v-2.217
	c0-0.104,0.064-0.199,0.161-0.237c0.04-0.015,3.992-1.603,3.992-5.334C13.977,6.113,14.09,6,14.23,6h2.501
	c0.14,0,0.253,0.113,0.253,0.253v4.703h4.089c0.14,0,0.254,0.113,0.254,0.253v3.02c0,0.14-0.114,0.253-0.254,0.253h-4.089v5.93
	c0,0.077,0.031,1.919,1.918,1.919c1.562,0,2.874-0.804,2.888-0.812c0.076-0.05,0.175-0.052,0.256-0.007
	c0.08,0.045,0.129,0.129,0.129,0.222v2.642H22.176z"/>
</svg>
