<?xml version="1.0" encoding="iso-8859-1"?>
<!-- Generator: Adobe Illustrator 19.2.0, SVG Export Plug-In . SVG Version: 6.00 Build 0)  -->
<svg version="1.1" xmlns="http://www.w3.org/2000/svg" xmlns:xlink="http://www.w3.org/1999/xlink" x="0px" y="0px"
	 viewBox="0 0 32 32" style="enable-background:new 0 0 32 32;" xml:space="preserve">
<g >
	<path d="M3.617,18C3.401,18.093,3,17.893,3,17.621C3,17.203,3,13,3,13l-2,2h1.022L2,18c0,0.594,0.5,1,1,1
		C4.329,19,4.129,18,3.617,18z"/>
	<path d="M4.5,15h-2C2.225,15,2,14.775,2,14.5v0C2,14.225,2.225,14,2.5,14h2C4.775,14,5,14.225,5,14.5v0C5,14.775,4.775,15,4.5,15z"
		/>
	<path d="M30.617,18C30.382,18,30,17.893,30,17.621C30,17.203,30,13,30,13l-2,2h1.022L29,18c0,0.594,0.5,1,1,1
		C31.329,19,31.109,18,30.617,18z"/>
	<path d="M30.5,15h-1c-0.275,0-0.5-0.225-0.5-0.5v0c0-0.275,0.225-0.5,0.5-0.5h1c0.275,0,0.5,0.225,0.5,0.5v0
		C31,14.775,30.775,15,30.5,15z"/>
	<path d="M24.982,19H24.5c-0.275,0-0.5-0.225-0.5-0.5v0c0-0.275,0.225-0.5,0.5-0.5h0.482c0.275,0,0.5,0.225,0.5,0.5v0
		C25.482,18.775,25.257,19,24.982,19z"/>
	<path d="M12.5,15h-1c-0.275,0-0.5-0.225-0.5-0.5v0c0-0.275,0.225-0.5,0.5-0.5h1c0.275,0,0.5,0.225,0.5,0.5v0
		C13,14.775,12.775,15,12.5,15z"/>
	<path d="M11.5,15h-1c-0.275,0-0.5-0.225-0.5-0.5v0c0-0.275,0.225-0.5,0.5-0.5h1c0.275,0,0.5,0.225,0.5,0.5v0
		C12,14.775,11.775,15,11.5,15z"/>
	<path d="M18.5,19h-7c-0.275,0-0.5-0.225-0.5-0.5l0,0c0-0.275,0.225-0.5,0.5-0.5h7c0.275,0,0.5,0.225,0.5,0.5l0,0
		C19,18.775,18.775,19,18.5,19z"/>
	<path d="M8.219,14.75C8.219,15.164,7.897,17,7.5,17s-0.719-1.836-0.719-2.25C6.781,14.336,7.103,14,7.5,14
		S8.219,14.336,8.219,14.75z"/>
	<path d="M10.067,14.23l-1.151,2.942l-1.13-1.447H7.163l-1.146,1.468L4.913,14.23L3.84,14.788l1.677,3.962
		c0.152,0.322,0.525,0.332,0.818,0.022L7.475,17l1.14,1.772c0.293,0.31,0.666,0.3,0.818-0.022l1.711-3.943L10.067,14.23z"/>
	<polygon points="13,18 12,18 12,15 12.316,14.089 13,14.5 	"/>
	<path d="M17.5,15h-1c-0.275,0-0.5-0.225-0.5-0.5v0c0-0.275,0.225-0.5,0.5-0.5h1c0.275,0,0.5,0.225,0.5,0.5v0
		C18,14.775,17.775,15,17.5,15z"/>
	<polygon points="18,18 17,18 17,15 17.316,14.089 18,14.5 	"/>
	<circle cx="12.5" cy="12.5" r="0.5"/>
	<circle cx="17.5" cy="12.5" r="0.5"/>
	<path d="M14,13.645C14,11.759,15.676,11,15.676,11S15,12.37,15,13.645c0,1.065,0,4.47,0,4.47h-1C14,18.114,14,14.762,14,13.645z"/>
	<g>
		<g>
			<path d="M27.209,19c-0.289,0-0.977-0.183-1.115-1.071C25.979,17.189,26.235,15,25.454,15c-0.468,0-0.923,0.486-1.047,0.568
				c-0.263,0.175,0.214,0.368-0.059,0.21c-0.274-0.157-0.099-0.278-0.332-0.903C24.147,14.631,24.553,14,25.5,14
				c0.724,0,1.5,0.5,1.5,1.471C27,16.907,26.991,18,27.388,18c0.328,0,0.521,0.087,0.597,0.397C28.061,18.709,27.835,19,27.586,19
				C27.497,19,27.47,19,27.209,19z"/>
		</g>
	</g>
	<path d="M22.164,16.683C22.712,16.422,23,15.978,23,15.471c0-0.327-0.083-0.626-0.338-0.868c0.166-0.258,0.326-0.603,0.326-0.878
		c0-0.447-0.166-0.725-0.488-0.725c-0.345,0-0.488,0.263-0.488,0.529c0,0.173,0.016,0.384,0.125,0.729
		c-0.279-0.102-0.764-0.242-1.1-0.242c-1.124,0-2.037,0.652-2.037,1.455c0,0.457,0.301,0.86,0.764,1.128
		c-0.111,0.07-0.222,0.169-0.222,0.303c0,0.291,0.222,0.455,0.518,0.474c0.776,0.051,2.596,0.137,2.596,1.296
		c0,0.897-0.761,1.328-1.327,1.328c-0.869,0-1.206-0.227-1.328-0.706c-0.072-0.285,0.059-0.622,0.371-0.622
		c0.145,0,0.376,0.175,0.376,0.582c0.242,0,0.388-0.352,0.388-0.582c0-0.388-0.521-0.582-0.97-0.582
		c-0.922,0-1.164,0.642-1.164,1.164c0,1.358,1.528,1.746,2.328,1.746c2.036,0,2.328-1.806,2.328-2.328
		C23.657,17.438,22.854,17.027,22.164,16.683z M21.008,16.344c-0.547,0-0.991-0.391-0.991-0.873c0-0.482,0.444-0.873,0.991-0.873
		c0.547,0,0.991,0.391,0.991,0.873C21.999,15.953,21.555,16.344,21.008,16.344z"/>
	<path d="M25,18.114L24,18.5c0,0,0-3.79,0-4.855C24,12.37,23.324,11,23.324,11S25,11.759,25,13.645C25,14.762,25,18.114,25,18.114z"
		/>
</g>
<g >
</g>
</svg>
