<?xml version="1.0" encoding="iso-8859-1"?>
<!-- Generator: Adobe Illustrator 19.1.1, SVG Export Plug-In . SVG Version: 6.00 Build 0)  -->
<svg version="1.1" id="Layer_1" xmlns="http://www.w3.org/2000/svg" xmlns:xlink="http://www.w3.org/1999/xlink" x="0px" y="0px"
	 viewBox="-7 9 32 32" style="enable-background:new -7 9 32 32;" xml:space="preserve">
<g>
	<circle cx="9" cy="23.951" r="1"/>
	<path d="M21.998,27.47c-0.051-0.928-0.416-5.629-2.531-7.125c-0.064-0.045-0.133-0.071-0.199-0.11
		c0.118-0.281,0.214-0.573,0.26-0.889c0.396-2.705-1.966-5.862-2.236-6.213l-0.378-0.322l-0.241-0.126
		c-0.235-0.084-5.134-1.796-7.673,0.594c-2.539-2.392-7.439-0.679-7.673-0.594l-0.406,0.243l-0.213,0.205
		c-0.271,0.351-2.631,3.508-2.236,6.213c0.046,0.316,0.142,0.608,0.26,0.889c-0.066,0.039-0.135,0.065-0.199,0.111
		c-2.115,1.496-2.479,6.197-2.531,7.125l-0.01,0.176l0.16,0.532l0.107,0.143c0.547,0.726,3.405,4.352,5.998,4.441
		c0.029,0.002,0.058,0.002,0.087,0.002c0.016,0.079,0.019,0.158,0.042,0.238c0.789,2.687,5.674,4.712,6.229,4.935l0.182,0.072
		l0.201-0.001l0.197,0.001l0.174-0.066c0.554-0.21,5.435-2.131,6.259-4.837c0.035-0.114,0.043-0.228,0.064-0.342
		c0.018,0,0.035,0,0.053-0.001c2.593-0.09,5.451-3.716,5.998-4.441l0.108-0.144l0.158-0.533L21.998,27.47z M15.069,24.641
		l-1.727-0.629L13.34,24.02c-0.107-0.039-0.219-0.069-0.34-0.069c-0.552,0-1,0.448-1,1c0,0.432,0.277,0.791,0.66,0.931l-0.003,0.008
		l1.809,0.659c0.083,0.557-0.481,1.841-1.316,2.973c-1.264,0.459-2.626,0.638-3.149,0.422V27.95H10c0-0.552-0.448-0.999-1-0.999
		s-0.999,0.447-1,0.999H7.999v1.995c-0.523,0.216-1.886,0.038-3.149-0.422c-0.757-1.031-1.406-2.385-1.317-2.972l1.81-0.66
		L5.34,25.882c0.383-0.14,0.66-0.5,0.66-0.931c0-0.552-0.448-1-1-1c-0.121,0-0.233,0.03-0.34,0.069l-0.003-0.008l-1.726,0.629
		c-0.376-0.457-0.593-1.741-0.574-2.908c0.596-0.886,1.668-1.976,2.296-2.046l1.576,1.902l0.011-0.009
		c0.183,0.221,0.45,0.37,0.759,0.37c0.552,0,1-0.448,1-1c0-0.242-0.097-0.456-0.24-0.629l0.01-0.009l-1.495-1.804
		C6.61,17.986,7.843,17.341,9,16.993c1.157,0.348,2.389,0.993,2.724,1.516l-1.494,1.805l0.011,0.009
		C10.097,20.495,10,20.709,10,20.951c0,0.552,0.448,1,1,1c0.31,0,0.576-0.15,0.76-0.371l0.011,0.009l1.574-1.901
		c0.594,0.068,1.622,1.044,2.298,2.049C15.665,22.902,15.448,24.185,15.069,24.641z M15.826,14.512
		c0.648,0.897,1.941,3.057,1.723,4.546c-0.062,0.416-0.237,0.734-0.55,0.992l-0.084,0.03c-0.678-0.879-1.934-2.226-3.36-2.382
		C12.89,16.374,11.091,15.583,10,15.21v-0.009C11.192,13.23,14.972,14.251,15.826,14.512z M2.174,14.511
		c0.853-0.262,4.628-1.292,5.826,0.69v0.008c-1.091,0.373-2.891,1.164-3.556,2.487c-1.427,0.158-2.683,1.504-3.361,2.383
		L1.001,20.05c-0.313-0.258-0.489-0.577-0.55-0.992C0.232,17.568,1.526,15.408,2.174,14.511z M-1.984,27.323
		c0.144-1.91,0.73-4.68,1.672-5.346c0.143-0.1,0.292-0.152,0.478-0.102l0.188,0.071c0.001,1.148,0.172,3.126,1.232,4.178
		c-0.279,1.468,0.72,3.235,1.394,4.224l-0.122,0.176c-0.156,0.174-0.311,0.237-0.531,0.24C1.166,30.724-0.828,28.794-1.984,27.323z
		 M13.714,32.521c-0.362,1.192-2.855,2.646-4.705,3.408c-1.856-0.8-4.355-2.304-4.704-3.492c-0.073-0.248-0.033-0.448,0.14-0.693
		l0.15-0.191C5.733,31.92,7.687,32.35,9,31.651c1.314,0.698,3.268,0.266,4.406-0.098l0.146,0.185l0.006,0.009
		C13.8,32.088,13.772,32.329,13.714,32.521z M15.673,30.764c-0.234-0.001-0.379-0.065-0.509-0.211l-0.143-0.206
		c0.674-0.989,1.672-2.755,1.393-4.223c1.062-1.052,1.231-3.032,1.232-4.18l0.081-0.031l0.037-0.013
		c0.261-0.075,0.404-0.022,0.547,0.077c0.942,0.666,1.527,3.437,1.672,5.346C18.828,28.794,16.834,30.724,15.673,30.764z"/>
</g>
</svg>
