<?xml version="1.0" encoding="iso-8859-1"?>
<!-- Generator: Adobe Illustrator 19.1.0, SVG Export Plug-In . SVG Version: 6.00 Build 0)  -->
<svg version="1.1" id="Layer_1" xmlns="http://www.w3.org/2000/svg" xmlns:xlink="http://www.w3.org/1999/xlink" x="0px" y="0px"
	 viewBox="0 0 32 32" style="enable-background:new 0 0 32 32;" xml:space="preserve">
<polygon points="17,6 15,6 18.52,11 20.52,11 "/>
<polygon points="17,23 15,23 18.52,18 20.52,18 "/>
<line style="fill:none;stroke:#000000;stroke-width:2;stroke-miterlimit:10;" x1="16" y1="11" x2="16" y2="5"/>
<line style="fill:none;stroke:#000000;stroke-width:2;stroke-miterlimit:10;" x1="16" y1="26.118" x2="16" y2="17.958"/>
<line style="fill:none;stroke:#000000;stroke-width:2;stroke-linejoin:round;stroke-miterlimit:10;" x1="6" y1="13" x2="26" y2="13"/>
<line style="fill:none;stroke:#000000;stroke-width:2;stroke-linejoin:round;stroke-miterlimit:10;" x1="10" y1="26" x2="22" y2="26"/>
<path style="fill:none;stroke:#000000;stroke-width:2;stroke-linejoin:round;stroke-miterlimit:10;" d="M27.009,18
	c0,0-0.705-2-2.658-2H6.026"/>
<polygon points="5,6 7,6 10.49,11 8.49,11 "/>
<polygon points="15,6 17,6 13.48,11 11.48,11 "/>
<polygon points="27,6 25,6 21.51,11 23.51,11 "/>
<polygon points="27,23 25,23 21.51,18 23.51,18 "/>
<polygon points="5,23 7,23 10.49,18 8.49,18 "/>
<polygon points="15,23 17,23 13.48,18 11.48,18 "/>
</svg>
