<?xml version="1.0" encoding="iso-8859-1"?>
<!-- Generator: Adobe Illustrator 19.1.1, SVG Export Plug-In . SVG Version: 6.00 Build 0)  -->
<svg version="1.1" id="Layer_1" xmlns="http://www.w3.org/2000/svg" xmlns:xlink="http://www.w3.org/1999/xlink" x="0px" y="0px"
	 viewBox="0 0 32 32" style="enable-background:new 0 0 32 32;" xml:space="preserve">
<path style="fill:none;stroke:#000000;stroke-width:2;stroke-miterlimit:10;" d="M10.007,17.273C9.408,17.619,9,18.259,9,19
	c0,1.049,0.811,1.9,1.838,1.984C11.598,23.452,13.587,27,18,27s6.402-3.548,7.162-6.016C26.189,20.9,27,20.049,27,19
	c0-0.741-0.401-1.381-1-1.727V16c0-4.019-2.227-8-8-8s-8,3.943-8,8L10.007,17.273z"/>
<circle cx="15" cy="19" r="1"/>
<circle cx="20.5" cy="18.5" r="1.5"/>
<path style="fill:none;stroke:#000000;stroke-width:2;stroke-miterlimit:10;" d="M9,17V9c0-2.209,1.791-4,4-4h10
	c2.209,0,4,1.791,4,4v8"/>
<line style="fill:none;stroke:#000000;stroke-width:2;stroke-miterlimit:10;" x1="4" y1="15" x2="10" y2="15"/>
<line style="fill:none;stroke:#000000;stroke-width:2;stroke-miterlimit:10;" x1="6" y1="13" x2="6" y2="24"/>
<circle cx="6" cy="24" r="2"/>
</svg>
