<?xml version="1.0" encoding="iso-8859-1"?>
<!-- Generator: Adobe Illustrator 19.1.1, SVG Export Plug-In . SVG Version: 6.00 Build 0)  -->
<svg version="1.1"  xmlns="http://www.w3.org/2000/svg" xmlns:xlink="http://www.w3.org/1999/xlink" x="0px" y="0px"
	 viewBox="0 0 32 32" style="enable-background:new 0 0 32 32;" xml:space="preserve">
<path style="fill:none;stroke:#000000;stroke-width:2;stroke-linecap:round;stroke-linejoin:round;stroke-miterlimit:10;" d="
	M15.334,26.793L4.467,19.22c-0.397-0.277-0.564-0.768-0.412-1.216l4.15-12.253C8.358,5.304,8.793,5,9.284,5h13.432
	c0.491,0,0.926,0.304,1.078,0.751l4.15,12.253c0.152,0.448-0.015,0.939-0.412,1.216l-10.866,7.573
	C16.269,27.069,15.731,27.069,15.334,26.793z"/>
<path d="M13.264,9h6.381c0.205,0,0.371,0.162,0.371,0.36v1.726c0,0.199-0.166,0.36-0.371,0.36h-4.137
	c-0.129,0-0.239,0.093-0.256,0.217L15.01,12.68c-0.033,0.265,0.229,0.462,0.49,0.382c0.246-0.076,0.659-0.14,1.045-0.14
	c1.563,0,3.986,0.786,3.986,3.661S18.085,21,16,21c-3.131,0-4.148-2.015-4.452-2.95c-0.076-0.232,0.105-0.466,0.355-0.466h2.437
	c0.114,0,0.221,0.048,0.289,0.137c0.172,0.221,0.586,0.634,1.275,0.634c0.942,0,1.649-0.809,1.649-1.58
	c0-0.771-0.664-1.545-1.735-1.545c-0.744,0-1.039,0.483-1.228,0.778c-0.085,0.131-0.247,0.191-0.401,0.153l-1.916-0.474
	c-0.187-0.046-0.306-0.224-0.274-0.409l0.898-5.976C12.928,9.127,13.083,9,13.264,9z"/>
</svg>
