<?xml version="1.0" encoding="iso-8859-1"?>
<!-- Generator: Adobe Illustrator 21.1.0, SVG Export Plug-In . SVG Version: 6.00 Build 0)  -->
<svg version="1.1" xmlns="http://www.w3.org/2000/svg" xmlns:xlink="http://www.w3.org/1999/xlink" x="0px" y="0px"
	 viewBox="0 0 32 32" style="enable-background:new 0 0 32 32;" xml:space="preserve">
<g id="Layer_1">
	<g>
		<path d="M19.116,5c0.969,0,1.797,0.693,1.969,1.647l0.127,0.707C21.382,8.306,22.211,9,23.18,9H26c1.103,0,2,0.897,2,2v13
			c0,1.103-0.897,2-2,2H6c-1.103,0-2-0.897-2-2V11c0-1.103,0.897-2,2-2h2.82c0.968,0,1.797-0.694,1.969-1.647l0.127-0.707
			C11.087,5.693,11.915,5,12.884,5H19.116 M19.116,3h-6.231c-1.937,0-3.595,1.387-3.937,3.293L8.82,7H6c-2.209,0-4,1.791-4,4v13
			c0,2.209,1.791,4,4,4h20c2.209,0,4-1.791,4-4V11c0-2.209-1.791-4-4-4h-2.82l-0.127-0.707C22.711,4.387,21.052,3,19.116,3L19.116,3
			z"/>
	</g>
	<g>
		<path d="M16,13c2.481,0,4.5,2.019,4.5,4.5S18.481,22,16,22s-4.5-2.019-4.5-4.5S13.519,13,16,13 M16,11c-3.59,0-6.5,2.91-6.5,6.5
			S12.41,24,16,24s6.5-2.91,6.5-6.5S19.59,11,16,11L16,11z"/>
	</g>
</g>
<g id="Layer_2">
</g>
</svg>
