<?xml version="1.0" encoding="iso-8859-1"?>
<!-- Generator: Adobe Illustrator 19.2.1, SVG Export Plug-In . SVG Version: 6.00 Build 0)  -->
<svg version="1.1" id="Layer_1" xmlns="http://www.w3.org/2000/svg" xmlns:xlink="http://www.w3.org/1999/xlink" x="0px" y="0px"
	 viewBox="0 0 32 32" style="enable-background:new 0 0 32 32;" xml:space="preserve">
<line style="fill:none;stroke:#000000;stroke-width:2;stroke-miterlimit:10;" x1="23" y1="25.5" x2="23" y2="21"/>
<line style="fill:none;stroke:#000000;stroke-width:2;stroke-miterlimit:10;" x1="23" y1="29" x2="23" y2="27"/>
<polygon points="4,5 4,27 13.405,27.016 14.553,25 6,25 6,7 26,7 26,15.959 28,19.411 28,5 "/>
<line style="fill:none;stroke:#000000;stroke-width:2;stroke-miterlimit:10;" x1="5" y1="10" x2="27" y2="10"/>
<line style="fill:none;stroke:#000000;stroke-width:2;stroke-miterlimit:10;" x1="9" y1="15" x2="11" y2="15"/>
<polygon points="13,18 13,20 17.403,20 18.538,18 "/>
<polygon points="13,14 13,16 19.403,16 20.538,14 "/>
<line style="fill:none;stroke:#000000;stroke-width:2;stroke-miterlimit:10;" x1="9" y1="19" x2="11" y2="19"/>
<path style="fill:none;stroke:#000000;stroke-width:2;stroke-miterlimit:10;" d="M15.149,29.349l6.898-11.947
	c0.424-0.734,1.483-0.734,1.906,0l6.898,11.947C31.275,30.083,30.745,31,29.898,31H16.102C15.255,31,14.725,30.083,15.149,29.349z"
	/>
</svg>
