<?xml version="1.0" encoding="iso-8859-1"?>
<!-- Generator: Adobe Illustrator 19.2.0, SVG Export Plug-In . SVG Version: 6.00 Build 0)  -->
<svg version="1.1" id="Layer_1" xmlns="http://www.w3.org/2000/svg" xmlns:xlink="http://www.w3.org/1999/xlink" x="0px" y="0px"
	 viewBox="0 0 32 32" style="enable-background:new 0 0 32 32;" xml:space="preserve">
<path style="fill:none;stroke:#000000;stroke-width:2;stroke-miterlimit:10;" d="M19,28c0-3.069,1-5.024,1-7s-1-2.834-1-4
	c0-1.523,2-3.091,2-5.774c0-1.333,0.694-4.294,1.262-4.994"/>
<path style="fill:none;stroke:#000000;stroke-width:2;stroke-miterlimit:10;" d="M16,6c1.554,0,3.111,1,4.323,1
	c1.62,0,2.735-2,4.677-2c1.75,0,3,1.472,3,3.422c0,1.89-1,4.078-1,4.078"/>
<path style="fill:none;stroke:#000000;stroke-width:2;stroke-miterlimit:10;" d="M13,28c0-3.069-1-5.024-1-7s1-2.834,1-4
	c0-1.523-2-3.091-2-5.774c0-1.333-0.694-4.294-1.262-4.994"/>
<path style="fill:none;stroke:#000000;stroke-width:2;stroke-miterlimit:10;" d="M16,6c-1.554,0-3.111,1-4.323,1
	C10.057,7,8.942,5,7,5C5.25,5,4,6.472,4,8.422c0,1.89,1,4.078,1,4.078"/>
<circle cx="26.5" cy="12.5" r="1.5"/>
<circle cx="5.5" cy="12.5" r="1.5"/>
</svg>
