<?xml version="1.0" encoding="iso-8859-1"?>
<!-- Generator: Adobe Illustrator 19.1.1, SVG Export Plug-In . SVG Version: 6.00 Build 0)  -->
<svg version="1.1" id="Layer_1" xmlns="http://www.w3.org/2000/svg" xmlns:xlink="http://www.w3.org/1999/xlink" x="0px" y="0px"
	 viewBox="0 0 32 32" style="enable-background:new 0 0 32 32;" xml:space="preserve">
<rect x="1" y="8" style="fill:none;stroke:#000000;stroke-width:2;stroke-miterlimit:10;" width="30" height="16"/>
<path id="XMLID_2_" style="fill:none;stroke:#000000;stroke-width:2;stroke-miterlimit:10;" d="M18,16h1.5
	c0.828,0,1.5-0.672,1.5-1.5v0c0-0.828-0.672-1.5-1.5-1.5H18v7"/>
<polygon id="XMLID_1_" points="20.687,16.018 18.687,16.018 20,20 22,20 "/>
<polyline id="XMLID_96_" style="fill:none;stroke:#000000;stroke-width:2;stroke-miterlimit:10;" points="16,19 12,19 12,13 16,13 
	"/>
<line id="XMLID_113_" style="fill:none;stroke:#000000;stroke-width:2;stroke-miterlimit:10;" x1="12" y1="16" x2="15" y2="16"/>
<path id="XMLID_274_" style="fill:none;stroke:#000000;stroke-width:2;stroke-miterlimit:10;" d="M24,16h1.5
	c0.828,0,1.5-0.672,1.5-1.5v0c0-0.828-0.672-1.5-1.5-1.5H24v6h1.5c0.828,0,1.5-0.672,1.5-1.5v0c0-0.828-0.672-1.5-1.5-1.5H25"/>
<polyline style="fill:none;stroke:#000000;stroke-width:2;stroke-miterlimit:10;" points="5,12 5,13 6.95,19 7.05,19 9,13 9,12 "/>
</svg>
