<?xml version="1.0" encoding="iso-8859-1"?>
<!-- Generator: Adobe Illustrator 19.2.0, SVG Export Plug-In . SVG Version: 6.00 Build 0)  -->
<svg version="1.1" id="Layer_1" xmlns="http://www.w3.org/2000/svg" xmlns:xlink="http://www.w3.org/1999/xlink" x="0px" y="0px"
	 viewBox="0 0 32 32" style="enable-background:new 0 0 32 32;" xml:space="preserve">
<polygon points="19.562,13 15,17.563 12.437,15 11,16.438 14.281,19.719 15,20.406 15.719,19.719 21,14.438 "/>
<path d="M16,6c0.968,0,1.853,0.459,2.429,1.259l0.746,1.037l1.255-0.241c0.188-0.036,0.38-0.054,0.571-0.054
	c0.801,0,1.554,0.312,2.121,0.878c0.704,0.704,1.012,1.71,0.824,2.692l-0.241,1.255l1.037,0.746C25.541,14.147,26,15.032,26,16
	c0,0.968-0.459,1.853-1.259,2.429l-1.037,0.746l0.241,1.255c0.188,0.981-0.119,1.988-0.824,2.692
	c-0.566,0.566-1.319,0.878-2.12,0.878c-0.191,0-0.384-0.018-0.571-0.054l-1.255-0.241l-0.746,1.037C17.853,25.541,16.968,26,16,26
	s-1.853-0.459-2.429-1.259l-0.746-1.037l-1.255,0.241c-0.188,0.036-0.38,0.054-0.571,0.054c-0.801,0-1.554-0.312-2.12-0.878
	c-0.704-0.704-1.012-1.711-0.824-2.692l0.241-1.255l-1.037-0.746C6.459,17.853,6,16.968,6,16c0-0.968,0.459-1.853,1.259-2.429
	l1.037-0.746L8.055,11.57c-0.188-0.981,0.119-1.987,0.824-2.692c0.566-0.566,1.319-0.878,2.12-0.878
	c0.191,0,0.384,0.018,0.571,0.054l1.255,0.241l0.746-1.037C14.147,6.459,15.032,6,16,6 M16,4c-1.673,0-3.145,0.829-4.052,2.091
	c-0.313-0.06-0.631-0.09-0.949-0.09c-1.279,0-2.559,0.488-3.535,1.464c-1.219,1.218-1.676,2.909-1.374,4.483
	C4.829,12.855,4,14.327,4,16s0.829,3.145,2.091,4.052c-0.302,1.574,0.155,3.265,1.374,4.483c0.976,0.976,2.255,1.464,3.535,1.464
	c0.318,0,0.635-0.03,0.949-0.09C12.855,27.171,14.327,28,16,28s3.145-0.829,4.052-2.091c0.313,0.06,0.631,0.09,0.949,0.09
	c1.279,0,2.559-0.488,3.535-1.464c1.219-1.219,1.676-2.909,1.374-4.483C27.171,19.145,28,17.673,28,16s-0.829-3.145-2.091-4.052
	c0.302-1.574-0.155-3.265-1.374-4.483c-0.976-0.976-2.255-1.464-3.535-1.464c-0.318,0-0.635,0.03-0.949,0.09
	C19.145,4.829,17.673,4,16,4L16,4z"/>
</svg>
