<?xml version="1.0" encoding="iso-8859-1"?>
<!-- Generator: Adobe Illustrator 19.1.1, SVG Export Plug-In . SVG Version: 6.00 Build 0)  -->
<svg version="1.1" id="Layer_1" xmlns="http://www.w3.org/2000/svg" xmlns:xlink="http://www.w3.org/1999/xlink" x="0px" y="0px"
	 viewBox="0 0 32 32" style="enable-background:new 0 0 32 32;" xml:space="preserve">
<polyline style="fill:none;stroke:#000000;stroke-width:2;stroke-miterlimit:10;" points="24.75,24 28,24 28,4 4,4 4,24 7.25,24 "/>
<rect x="21" y="19" width="2" height="2"/>
<rect x="9" y="19" width="2" height="2"/>
<rect x="5" y="19" width="2" height="2"/>
<rect x="21" y="7" width="2" height="2"/>
<rect x="25" y="19" width="2" height="2"/>
<rect x="25" y="7" width="2" height="2"/>
<rect x="17" y="7" width="2" height="2"/>
<rect x="9" y="7" width="2" height="2"/>
<rect x="13" y="7" width="2" height="2"/>
<rect x="5" y="7" width="2" height="2"/>
<path d="M10,13v3l4.6,5l-1.9,2c-0.2,0-0.5,0-0.7,0c-1.7,0-3,1.3-3,3c0,1.7,1.3,3,3,3s3-1.3,3-3c0-0.7-0.2-1.3-0.6-1.7l1.6-1.7
	l1.5,1.7C17.2,24.8,17,25.4,17,26c0,1.7,1.3,3,3,3c1.7,0,3-1.3,3-3c0-1.7-1.3-3-3-3c-0.3,0-0.5,0-0.7,0.1L17.4,21l4.6-5v-3l-6,6.5
	L10,13z M13,26c0,0.6-0.4,1-1,1c-0.6,0-1-0.4-1-1s0.4-1,1-1C12.6,25,13,25.4,13,26z M21,26c0,0.6-0.4,1-1,1s-1-0.4-1-1s0.4-1,1-1
	S21,25.4,21,26z"/>
<g>
	<path d="M7.998,23H6v2h1.096C7.242,24.252,7.565,23.582,7.998,23z"/>
	<path d="M24.003,23c0.433,0.582,0.755,1.252,0.901,2H26v-2H24.003z"/>
</g>
</svg>
