<?xml version="1.0" encoding="iso-8859-1"?>
<!-- Generator: Adobe Illustrator 19.1.1, SVG Export Plug-In . SVG Version: 6.00 Build 0)  -->
<svg version="1.1" id="Layer_1" xmlns="http://www.w3.org/2000/svg" xmlns:xlink="http://www.w3.org/1999/xlink" x="0px" y="0px"
	 viewBox="-7 9 32 32" enable-background="new -7 9 32 32" xml:space="preserve">
<path d="M23.062,34c0,0.306-0.756,1-2,1c-0.585,0-1.063-0.162-1.408-0.362C19.86,34.209,20,33.669,20,33
	c0-2.052-1.914-3.615-2.132-3.786l-1.236,1.572C16.987,31.065,18,32.07,18,33c0,0.599-0.177,0.878-0.296,1h-0.642
	c0,0.306-0.756,1-2,1c-1.224,0-2-0.703-2-1h-2c0,0.306-0.756,1-2,1c-1.224,0-2-0.703-2-1h-2c0,0.306-0.755,1-2,1
	c-1.224,0-2-0.703-2-1h-1.548C-0.701,33.633-1,32.953-1,32c0-0.518,0.234-0.954,0.513-1.297C-0.03,31.42,0.754,32,2,32h11
	c1.575,0,2.538-1.34,3.313-2.416c0.56-0.779,1.138-1.584,1.625-1.586C18.115,28.009,19,28.109,19,29h2c0-2.064-1.757-2.924-3-3
	c-1.575,0-2.538,1.34-3.313,2.416C14.128,29.195,13.55,30,13,30H9v-2h4.525l0.298-0.433C13.871,27.498,15,25.829,15,23
	s-1.129-4.498-1.177-4.568L13.525,18H9v-2.002c0.016-0.003,0.084-0.016,0.21-0.039c0.05-0.01,0.112-0.021,0.183-0.034
	c0.05-0.016,0.141-0.021,0.242-0.025c0.392-0.032,1.057,0.111,1.805,0.117c0.759,0.005,1.456-0.264,1.881-0.534
	c0.219-0.131,0.387-0.252,0.5-0.345C13.935,15.05,14,15,14,15s-0.079,0.022-0.217,0.061c-0.136,0.044-0.334,0.092-0.57,0.129
	c-0.473,0.087-1.086,0.061-1.611-0.16c-0.528-0.215-1.066-0.58-1.631-0.784c-0.137-0.05-0.265-0.097-0.411-0.128
	c-0.126-0.028-0.235-0.052-0.325-0.072C9.094,14.017,9.013,14,9.013,14H9H7v4H1.251l0.887,1.507C2.146,19.521,3,21.028,3,23
	c0,1.978-0.855,3.481-0.862,3.493L1.251,28H7v2H2c-0.805,0-0.988-0.55-1-1.012L0,29h-1h-0.634C-2.299,29.649-3,30.651-3,32
	c0,1.325,0.389,2.301,0.738,2.921C-2.468,34.967-2.69,35-2.938,35c-1.224,0-2-0.703-2-1h-2c0,1.626,1.832,3,4,3
	c1.187,0,2.26-0.42,3-1.059C0.802,36.58,1.875,37,3.062,37s2.26-0.42,3-1.059C6.802,36.58,7.875,37,9.062,37
	c1.187,0,2.26-0.42,3-1.059c0.74,0.639,1.813,1.059,3,1.059s2.26-0.42,3-1.059c0.74,0.639,1.813,1.059,3,1.059c2.168,0,4-1.374,4-3
	H23.062z M4.508,20h7.893C12.646,20.544,13,21.576,13,23c0,1.426-0.354,2.458-0.599,3H4.508C4.765,25.218,5,24.18,5,23
	S4.765,20.782,4.508,20z"/>
</svg>
