<?xml version="1.0" encoding="iso-8859-1"?>
<!-- Generator: Adobe Illustrator 19.1.1, SVG Export Plug-In . SVG Version: 6.00 Build 0)  -->
<svg version="1.1" id="Layer_1" xmlns="http://www.w3.org/2000/svg" xmlns:xlink="http://www.w3.org/1999/xlink" x="0px" y="0px"
	 viewBox="0 0 32 32" style="enable-background:new 0 0 32 32;" xml:space="preserve">
<path d="M27,29H5l0.039-2.275L7.246,19H11l-1,4c0.663,0.479,3.356,2,6,2c2.639,0,5.332-1.518,6-2l-1-4h3.754L27,27V29z"/>
<path style="fill:none;stroke:#000000;stroke-width:2;stroke-miterlimit:10;" d="M15.959,4L10,23c0,0,1.462,2,6,2s6-2,6-2L16.018,4
	H15.959z"/>
<path d="M16,11c-1.375,0-2.575-1.161-2.707-1.293L16,5l2.707,4.707C18.575,9.839,17.375,11,16,11z"/>
<path d="M16,20c-2.771,0-4.483-1.12-4.555-1.168l-0.586-0.391l1.536-5.145c0,0,0.98,1.704,3.605,1.704s3.604-1.686,3.604-1.686
	l1.537,5.126l-0.586,0.391C20.483,18.88,18.771,20,16,20z"/>
</svg>
