<?xml version="1.0" encoding="iso-8859-1"?>
<!-- Generator: Adobe Illustrator 19.1.0, SVG Export Plug-In . SVG Version: 6.00 Build 0)  -->
<svg version="1.1" id="Layer_1" xmlns="http://www.w3.org/2000/svg" xmlns:xlink="http://www.w3.org/1999/xlink" x="0px" y="0px"
	 viewBox="0 0 32 32" style="enable-background:new 0 0 32 32;" xml:space="preserve">
<polygon style="fill:none;stroke:#000000;stroke-width:2;stroke-miterlimit:10;" points="28,25 4,25 4,19 7,7 25,7 28,19 "/>
<line style="fill:none;stroke:#000000;stroke-width:2;stroke-miterlimit:10;" x1="4" y1="19" x2="28" y2="19"/>
<circle cx="24" cy="22" r="1"/>
<circle cx="8" cy="22" r="1"/>
<circle cx="11" cy="22" r="1"/>
<circle cx="14" cy="22" r="1"/>
<path d="M19.5,15.5h2c0.276,0,0.5-0.224,0.5-0.5l0-1.413c0-0.89-0.588-1.667-1.441-1.921C19.486,11.347,17.885,11,16,11
	s-3.486,0.347-4.559,0.666C10.588,11.92,10,12.697,10,13.587L10,15c0,0.276,0.224,0.5,0.5,0.5h2c0.276,0,0.5-0.224,0.5-0.5v-1.645
	c0,0,0.988-0.579,3-0.579s3,0.579,3,0.579V15C19,15.276,19.224,15.5,19.5,15.5z"/>
</svg>
