<?xml version="1.0" encoding="iso-8859-1"?>
<!-- Generator: Adobe Illustrator 19.1.0, SVG Export Plug-In . SVG Version: 6.00 Build 0)  -->
<svg version="1.1" id="Layer_1" xmlns="http://www.w3.org/2000/svg" xmlns:xlink="http://www.w3.org/1999/xlink" x="0px" y="0px"
	 viewBox="0 0 32 32" style="enable-background:new 0 0 32 32;" xml:space="preserve">
<line style="fill:none;stroke:#000000;stroke-width:2;stroke-miterlimit:10;" x1="8" y1="13" x2="8" y2="10"/>
<line style="fill:none;stroke:#000000;stroke-width:2;stroke-miterlimit:10;" x1="8" y1="22" x2="8" y2="19"/>
<circle cx="8" cy="16" r="2"/>
<line style="fill:none;stroke:#000000;stroke-width:2;stroke-linecap:round;stroke-miterlimit:10;" x1="14.49" y1="16.49" x2="13.332" y2="15.332"/>
<polygon points="17.73,25.387 16.344,24 5,24 5,8 27,8 27,23.951 28.749,26 29,26 29,6 3,6 3,26 18.448,26 "/>
<path style="fill:none;stroke:#000000;stroke-width:2;stroke-miterlimit:10;" d="M15.639,19.76l3.859,3.859l5.216,4.453
	c0.382,0.326,0.951,0.304,1.307-0.051h0c0.355-0.355,0.378-0.925,0.051-1.307l-4.453-5.216l-3.859-3.859l-2.917-1.503l-0.707,0.707
	L15.639,19.76z"/>
</svg>
