<?xml version="1.0" encoding="iso-8859-1"?>
<!-- Generator: Adobe Illustrator 19.1.1, SVG Export Plug-In . SVG Version: 6.00 Build 0)  -->
<svg version="1.1" id="Layer_1" xmlns="http://www.w3.org/2000/svg" xmlns:xlink="http://www.w3.org/1999/xlink" x="0px" y="0px"
	 viewBox="0 0 32 32" style="enable-background:new 0 0 32 32;" xml:space="preserve">
<path style="fill:none;stroke:#000000;stroke-width:2;stroke-miterlimit:10;" d="M10,24c-0.673,0-1-0.563-1-1c0-0.643,0.645-1,1-1
	c3.849,0,4,3,4,3c0,2.547-3.053,3-4,3c-3.55,0-5-2.239-5-5s2.239-5,5-5c3.793,0,5.97,2.327,8,5c0,0,2.875,4,7,4l1.875-15
	C22.547,12,20,9,20,9c-2.03-2.673-2.906-5-7-5c-1.941,0-3.344,1.641-4,4l0,0L5.27,21.254"/>
</svg>
