<?xml version="1.0" encoding="iso-8859-1"?>
<!-- Generator: Adobe Illustrator 19.1.0, SVG Export Plug-In . SVG Version: 6.00 Build 0)  -->
<svg version="1.1" id="Layer_1" xmlns="http://www.w3.org/2000/svg" xmlns:xlink="http://www.w3.org/1999/xlink" x="0px" y="0px"
	 viewBox="0 0 32 32" style="enable-background:new 0 0 32 32;" xml:space="preserve">
<path style="fill:none;stroke:#000000;stroke-width:2;stroke-miterlimit:10;" d="M16,20h8.5c0.828,0,1.5,0.672,1.5,1.5v0
	c0,0.828-0.672,1.5-1.5,1.5H16"/>
<path style="fill:none;stroke:#000000;stroke-width:2;stroke-miterlimit:10;" d="M16,17h9.5c0.828,0,1.5,0.672,1.5,1.5v0
	c0,0.828-0.672,1.5-1.5,1.5H16"/>
<path style="fill:none;stroke:#000000;stroke-width:2;stroke-miterlimit:10;" d="M16,23h5.5c0.828,0,1.5,0.672,1.5,1.5
	S22.328,26,21.5,26H9c-2.209,0-4-1.791-4-4v-3.691c0-1.24,0.531-2.35,1.37-3.136l-0.023-0.034l5.618-5.618
	c0.694-0.694,1.82-0.694,2.514,0c0.694,0.694,0.694,1.82,0,2.514L12.514,14H24.5c0.828,0,1.5,0.672,1.5,1.5v0
	c0,0.828-0.672,1.5-1.5,1.5H16"/>
<path style="fill:none;stroke:#000000;stroke-width:2;stroke-miterlimit:10;" d="M24,9c0-1.105-2-4-2-4s-2,2.895-2,4s0.895,2,2,2
	S24,10.105,24,9z"/>
</svg>
