<?xml version="1.0" encoding="iso-8859-1"?>
<!-- Generator: Adobe Illustrator 21.0.2, SVG Export Plug-In . SVG Version: 6.00 Build 0)  -->
<svg version="1.1"  xmlns="http://www.w3.org/2000/svg" xmlns:xlink="http://www.w3.org/1999/xlink" x="0px" y="0px"
	 viewBox="0 0 32 32" style="enable-background:new 0 0 32 32;" xml:space="preserve">
<path style="fill:none;stroke:#000000;stroke-width:2;stroke-miterlimit:10;" d="M15.98,10C11.793,10,6.965,11.605,4,14.255
	L12.211,23c0.997-0.636,2.519-1,3.769-1c1.249,0,2.746,0.364,3.743,1L28,14.293C25.029,11.621,20.186,10,15.98,10z"/>
<line style="fill:none;stroke:#000000;stroke-width:2;stroke-miterlimit:10;" x1="16" y1="26" x2="11" y2="14"/>
<circle cx="16" cy="26" r="2"/>
<circle cx="16" cy="17" r="1"/>
<circle cx="16" cy="13" r="1"/>
<circle cx="16" cy="9" r="1"/>
<circle cx="14" cy="6" r="1"/>
<circle cx="11" cy="5" r="1"/>
<circle cx="8" cy="6" r="1"/>
<circle cx="7" cy="9" r="1"/>
<circle cx="18" cy="6" r="1"/>
<circle cx="21" cy="5" r="1"/>
<circle cx="24" cy="6" r="1"/>
<circle cx="25" cy="9" r="1"/>
</svg>
