<?xml version="1.0" encoding="iso-8859-1"?>
<!-- Generator: Adobe Illustrator 19.1.1, SVG Export Plug-In . SVG Version: 6.00 Build 0)  -->
<svg version="1.1" id="Layer_1" xmlns="http://www.w3.org/2000/svg" xmlns:xlink="http://www.w3.org/1999/xlink" x="0px" y="0px"
	 viewBox="-8 10 32 32" style="enable-background:new -8 10 32 32;" xml:space="preserve">
<path d="M21,28c0-2.243-1.757-4-4-4H9.818C11.49,22.81,14,20.665,14,18.5c0-1.93-1.57-3.5-3.5-3.5c-0.979,0-1.864,0.403-2.5,1.053
	C7.364,15.403,6.479,15,5.5,15C3.57,15,2,16.57,2,18.5c0,2.165,2.51,4.31,4.183,5.5H-1c-2.243,0-4,1.757-4,4
	c0,1.03,0.383,1.946,1,2.648V37h24v-6.352C20.617,29.946,21,29.03,21,28z M4,18.5C4,17.673,4.673,17,5.5,17S7,17.673,7,18.5h2
	c0-0.827,0.673-1.5,1.5-1.5s1.5,0.673,1.5,1.5c0,1.213-2.192,3.135-4,4.319C6.192,21.635,4,19.713,4,18.5z M-1,26h18
	c1.141,0,2,0.86,2,2c0,1.141-0.859,2-2,2s-2-0.859-2-2h-2c0,1.141-0.859,2-2,2s-2-0.859-2-2H7c0,1.141-0.86,2-2,2s-2-0.859-2-2H1
	c0,1.141-0.86,2-2,2s-2-0.859-2-2C-3,26.86-2.14,26-1,26z M-2,35v-3.136C-1.68,31.944-1.349,32-1,32c1.213,0,2.272-0.525,3-1.352
	C2.728,31.475,3.787,32,5,32s2.272-0.525,3-1.352C8.728,31.475,9.787,32,11,32s2.272-0.525,3-1.352C14.728,31.475,15.787,32,17,32
	c0.349,0,0.68-0.056,1-0.136V35H-2z"/>
</svg>
