<?xml version="1.0" encoding="iso-8859-1"?>
<!-- Generator: Adobe Illustrator 19.0.1, SVG Export Plug-In . SVG Version: 6.00 Build 0)  -->
<svg version="1.1" id="Layer_1" xmlns="http://www.w3.org/2000/svg" xmlns:xlink="http://www.w3.org/1999/xlink" x="0px" y="0px"
	 viewBox="0 0 32 32" style="enable-background:new 0 0 32 32;" xml:space="preserve">
<circle style="fill:none;stroke:#000000;stroke-width:2;stroke-linecap:round;stroke-linejoin:round;stroke-miterlimit:10;" cx="16" cy="11" r="2"/>
<path style="fill:none;stroke:#000000;stroke-width:2;stroke-linejoin:round;stroke-miterlimit:10;" d="M10.5,8c0,0,0.957,8,5.5,8
	s5.5-8,5.5-8"/>
<polyline style="fill:none;stroke:#000000;stroke-width:2;stroke-miterlimit:10;" points="7,27 18.271,20.958 22,21 22,28 "/>
<line style="fill:none;stroke:#000000;stroke-width:2;stroke-miterlimit:10;" x1="18.271" y1="20.958" x2="18.541" y2="14.836"/>
<line style="fill:none;stroke:#000000;stroke-width:2;stroke-miterlimit:10;" x1="12.993" y1="14.534" x2="14.173" y2="22.986"/>
<path style="fill:none;stroke:#000000;stroke-width:2;stroke-linejoin:round;stroke-miterlimit:10;" d="M7.525,9
	c0,0,3.228-2,8.475-2s9.092,2.082,9.092,2.082"/>
<rect x="24.908" y="6.915" transform="matrix(0.9109 0.4126 -0.4126 0.9109 6.4432 -9.9762)" style="fill:none;stroke:#000000;stroke-width:2;stroke-miterlimit:10;" width="2.833" height="6.036"/>
<rect x="4.259" y="6.915" transform="matrix(-0.9109 0.4126 -0.4126 -0.9109 14.9439 16.6397)" style="fill:none;stroke:#000000;stroke-width:2;stroke-miterlimit:10;" width="2.833" height="6.036"/>
</svg>
