<?xml version="1.0" encoding="iso-8859-1"?>
<!-- Generator: Adobe Illustrator 19.1.0, SVG Export Plug-In . SVG Version: 6.00 Build 0)  -->
<svg version="1.1" id="Layer_1" xmlns="http://www.w3.org/2000/svg" xmlns:xlink="http://www.w3.org/1999/xlink" x="0px" y="0px"
	 viewBox="0 0 32 32" style="enable-background:new 0 0 32 32;" xml:space="preserve">
<path style="fill:none;stroke:#000000;stroke-width:2;stroke-miterlimit:10;" d="M14.584,27.414l-9.998-9.998
	c-0.782-0.782-0.782-2.049,0-2.831l9.998-9.998c0.782-0.782,2.049-0.782,2.831,0l9.998,9.998c0.782,0.782,0.782,2.049,0,2.831
	l-9.998,9.998C16.634,28.195,15.366,28.195,14.584,27.414z"/>
<path d="M10.7,18.8l4,4.2c2-1,2.3-4.2,2.3-4.2s0.7,0.7,2.6,0.3c0.5-0.1,1,0.5,1.6,0c0.5-0.5,0.8-0.4,0.8-0.6c0-0.1,0.2-0.8-0.2-1
	c-1.2-0.7-2.8-2.9-3.8-3.2c-1.3-0.5-1.8,0.2-2,0.1s-0.9-0.7-1.4-1s-1.7-0.4-1.9,0c-0.2,0.3,0.3,1.3,1,1.6s1.1,0.1,1.1,0.1
	S13,18.6,10.7,18.8z"/>
<path d="M17.8,15.1L17,12.7c0,0,0.7-2.4,0.5-2.6c-0.2-0.2-0.8,2.4-1,2.3c-0.2-0.2-0.5-0.4-0.7-0.6s0.1-3.6-0.1-3.7s-0.6,3.3-0.6,3.3
	s-0.4-0.4-0.7-0.7C14,10.3,14.2,7.5,14,7.5s-0.4,3.3-0.1,3.6c0.3,0.3,2,2.3,2,2.3l0.5,1.7H17.8z"/>
</svg>
