<?xml version="1.0" encoding="utf-8"?>
<!-- Generator: Adobe Illustrator 18.0.0, SVG Export Plug-In . SVG Version: 6.00 Build 0)  -->
<svg version="1.1" id="Layer_1" xmlns="http://www.w3.org/2000/svg" xmlns:xlink="http://www.w3.org/1999/xlink" x="0px" y="0px"
	 viewBox="0 0 32 32" enable-background="new 0 0 32 32" xml:space="preserve">
<polyline id="XMLID_31_" fill="none" stroke="#000000" stroke-width="2" stroke-miterlimit="10" points="14,20 14,13 14.5,13 16,15 
	17.5,13 18,13 18,20 "/>
<polyline fill="none" stroke="#000000" stroke-width="2" stroke-miterlimit="10" points="24,22 24,28 6,28 6,22 "/>
<polyline fill="none" stroke="#000000" stroke-width="2" stroke-miterlimit="10" points="6,10 6,4 24,4 24,10 "/>
<polyline fill="none" stroke="#000000" stroke-width="2" stroke-miterlimit="10" points="25,20 25,19 23,13 23,13 21,19 21,20 "/>
<line fill="none" stroke="#000000" stroke-width="2" stroke-miterlimit="10" x1="21.4" y1="18" x2="24.6" y2="18"/>
<polyline fill="none" stroke="#000000" stroke-width="2" stroke-miterlimit="10" points="4,12 4,13 5.9,19 6.1,19 7.4,14.5 
	7.6,14.5 8.9,19 9.1,19 11,13 11,12 "/>
</svg>
