<?xml version="1.0" encoding="iso-8859-1"?>
<!-- Generator: Adobe Illustrator 19.1.1, SVG Export Plug-In . SVG Version: 6.00 Build 0)  -->
<svg version="1.1" id="Layer_1" xmlns="http://www.w3.org/2000/svg" xmlns:xlink="http://www.w3.org/1999/xlink" x="0px" y="0px"
	 viewBox="0 0 32 32" style="enable-background:new 0 0 32 32;" xml:space="preserve">
<path d="M32,9.984l-0.924,1.387c-0.255,0.383-0.685,0.613-1.146,0.613h-6.946c-0.5,0-0.961,0.271-1.204,0.708L19,18l-3-5l-3,5
	l-2.801-5.308c-0.243-0.438-0.704-0.708-1.204-0.708H2.07c-0.461,0-0.891-0.23-1.146-0.613L0,9.984h10.482
	c0.522,0,0.999,0.295,1.232,0.761l1.619,3.239L16,9l2.667,4.984l1.619-3.239c0.233-0.466,0.71-0.761,1.232-0.761H32z"/>
<path d="M16,18.917L13,24l-2.996-5.353C9.752,18.245,9.311,18,8.836,18H6.07c-0.461,0-0.891-0.23-1.146-0.613L4,16h6.013
	c0.494,0,0.95,0.264,1.195,0.693L13,20l3-5l3,5l1.792-3.307C21.038,16.264,21.494,16,21.987,16H28l-0.924,1.387
	C26.82,17.77,26.39,18,25.93,18h-2.765c-0.475,0-0.916,0.245-1.168,0.647L19,24L16,18.917z"/>
<path d="M22.369,13.613L21.67,15h6.551c0.461,0,0.891-0.23,1.146-0.613L30.292,13h-6.777C23.054,13,22.624,13.23,22.369,13.613z"/>
<path d="M10.263,15l-0.698-1.387C9.309,13.23,8.879,13,8.419,13h-6.71l0.924,1.387C2.888,14.77,3.318,15,3.779,15H10.263z"/>
</svg>
