<?xml version="1.0" encoding="iso-8859-1"?>
<!-- Generator: Adobe Illustrator 19.1.1, SVG Export Plug-In . SVG Version: 6.00 Build 0)  -->
<svg version="1.1" id="Layer_1" xmlns="http://www.w3.org/2000/svg" xmlns:xlink="http://www.w3.org/1999/xlink" x="0px" y="0px"
	 viewBox="0 0 32 32" style="enable-background:new 0 0 32 32;" xml:space="preserve">
<path style="fill:none;stroke:#000000;stroke-width:2;stroke-miterlimit:10;" d="M24,28c0,0,3-4.962,3-12S24,4,24,4H8
	c0,0-3,4.962-3,12s3,12,3,12H24z"/>
<line style="fill:none;stroke:#000000;stroke-width:2;stroke-miterlimit:10;" x1="16" y1="4" x2="16" y2="28"/>
<path d="M21.978,28.21l-1.955-0.42C20.032,27.744,21,23.147,21,16S20.032,4.256,20.022,4.21l1.955-0.42C22.02,3.983,23,8.622,23,16
	S22.02,28.017,21.978,28.21z"/>
<path d="M10.022,28.21C9.98,28.017,9,23.378,9,16S9.98,3.983,10.022,3.79l1.955,0.42C11.968,4.256,11,8.853,11,16
	s0.968,11.744,0.978,11.79L10.022,28.21z"/>
<line style="fill:none;stroke:#000000;stroke-width:2;stroke-miterlimit:10;" x1="6" y1="9" x2="26" y2="9"/>
<line style="fill:none;stroke:#000000;stroke-width:2;stroke-miterlimit:10;" x1="6" y1="23" x2="26" y2="23"/>
</svg>
