<?xml version="1.0" encoding="iso-8859-1"?>
<!-- Generator: Adobe Illustrator 19.1.0, SVG Export Plug-In . SVG Version: 6.00 Build 0)  -->
<svg version="1.1" id="Layer_1" xmlns="http://www.w3.org/2000/svg" xmlns:xlink="http://www.w3.org/1999/xlink" x="0px" y="0px"
	 viewBox="0 0 32 32" style="enable-background:new 0 0 32 32;" xml:space="preserve">
<polyline style="fill:none;stroke:#000000;stroke-width:2;stroke-miterlimit:10;" points="28,21 18,21 18,16 28,16 "/>
<line style="fill:none;stroke:#000000;stroke-width:2;stroke-miterlimit:10;" x1="20" y1="28" x2="20" y2="21"/>
<polygon points="24,16 21.5,16 17.5,21 20,21 "/>
<line style="fill:none;stroke:#000000;stroke-width:2;stroke-miterlimit:10;" x1="20" y1="25" x2="28" y2="25"/>
<circle id="XMLID_483_" style="fill:none;stroke:#000000;stroke-width:2;stroke-miterlimit:10;" cx="9" cy="8" r="3"/>
<path id="XMLID_28_" style="fill:none;stroke:#000000;stroke-width:2;stroke-miterlimit:10;" d="M11,18v9H7v-6l-2-1v-5
	c0-2.209,1.791-4,4-4h0c2.326,0,4.328,1.642,4.784,3.922L14,16h2"/>
<polygon points="28,16 26.5,16 22.5,21 25,21 28,17.25 "/>
<circle style="fill:none;stroke:#000000;stroke-width:2;stroke-miterlimit:10;" cx="23" cy="13" r="2"/>
</svg>
