<?xml version="1.0" encoding="utf-8"?>
<!-- Generator: Adobe Illustrator 18.1.1, SVG Export Plug-In . SVG Version: 6.00 Build 0)  -->
<svg version="1.1" id="Layer_1" xmlns="http://www.w3.org/2000/svg" xmlns:xlink="http://www.w3.org/1999/xlink" x="0px" y="0px"
	 viewBox="0 0 32 32" enable-background="new 0 0 32 32" xml:space="preserve">
<path fill="none" stroke="#000000" stroke-width="2" stroke-miterlimit="10" d="M19.5,16.7l0.9-0.9c0.5,0.1,1,0.2,1.5,0.2
	c3.3,0,6-2.7,6-6c0-1-0.2-1.9-0.7-2.7l-4.5,4.5L20,8.9l4.4-4.4C23.7,4.2,22.9,4,22,4c-3.3,0-6,2.7-6,6c0,0.5,0.1,1.1,0.2,1.5
	l-0.5,0.5"/>
<path fill="none" stroke="#000000" stroke-width="2" stroke-miterlimit="10" d="M6.6,21.2l-1.7,1.7c-1.2,1.2-1.2,3.1,0,4.2
	c1.2,1.2,3.1,1.2,4.2,0l3.5-3.5"/>
<g>
	<path d="M11.5,10c1,0,2,0.4,2.8,1.2l0.4,0.5l-0.8,0.8l4.5,4.5c0.4,0.2,0.6,0.7,0.6,1.2c0,0.8-0.7,1.5-1.5,1.5
		c-0.3,0-0.5-0.1-0.8-0.2c0,0,0,0.1,0,0.2c0,0.8-0.7,1.5-1.5,1.5c-0.3,0-0.5-0.1-0.8-0.2c0,0,0,0.1,0,0.2c0,0.8-0.7,1.5-1.5,1.5
		c-0.3,0-0.6-0.1-0.8-0.2c-0.2,0.6-0.8,1-1.4,1c-0.5,0-0.9-0.2-1.2-0.6l-3.6-3.6c-1.4-1.4-1.4-3.8,0-5.2l2.8-2.8
		C9.6,10.4,10.6,10,11.5,10 M11.5,8c-1.5,0-3,0.6-4,1.7l-2.8,2.8c-2.2,2.2-2.2,5.8,0,8.1l3.6,3.6c0.7,0.8,1.6,1.2,2.6,1.2
		c0.8,0,1.6-0.3,2.2-0.8c0,0,0,0,0.1,0c1.2,0,2.3-0.6,2.9-1.5c0.9-0.2,1.7-0.7,2.2-1.5c1.6-0.3,2.8-1.7,2.8-3.4c0-1-0.5-2-1.3-2.7
		l-3-3l0.7-0.7l-1.2-1.4l-0.4-0.5l0,0l0,0C14.7,8.7,13.1,8,11.5,8L11.5,8z"/>
</g>
</svg>
