<?xml version="1.0" encoding="iso-8859-1"?>
<!-- Generator: Adobe Illustrator 21.0.2, SVG Export Plug-In . SVG Version: 6.00 Build 0)  -->
<svg version="1.1" id="Layer_1" xmlns="http://www.w3.org/2000/svg" xmlns:xlink="http://www.w3.org/1999/xlink" x="0px" y="0px"
	 viewBox="0 0 32 32" style="enable-background:new 0 0 32 32;" xml:space="preserve">
<g>
	<path style="fill:#231F20;" d="M16,28c-2.367,0-4.649-0.69-6.622-2H6v-3.378C4.69,20.649,4,18.367,4,16c0-2.367,0.69-4.649,2-6.622
		V6h3.378C11.351,4.69,13.633,4,16,4c2.367,0,4.649,0.69,6.622,2H26v3.378c1.31,1.973,2,4.255,2,6.622c0,2.367-0.69,4.649-2,6.622
		V26h-3.378C20.649,27.31,18.367,28,16,28z M8,24h2.003l0.259,0.182C11.956,25.371,13.94,26,16,26c2.061,0,4.045-0.629,5.738-1.818
		L21.997,24H24v-2.003l0.182-0.259C25.371,20.045,26,18.061,26,16c0-2.06-0.629-4.044-1.818-5.738L24,10.003V8h-2.003l-0.259-0.182
		C20.045,6.629,18.061,6,16,6c-2.06,0-4.044,0.629-5.738,1.818L10.003,8H8v2.003l-0.182,0.259C6.629,11.956,6,13.94,6,16
		c0,2.061,0.629,4.045,1.818,5.738L8,21.997V24z"/>
</g>
<g>
	<path style="fill:#231F20;" d="M19,11l0.335,0.669c0.107,0.214,0.134,0.458,0.076,0.69l-1.127,4.508L16,11l-2.283,5.867
		l-1.127-4.508c-0.058-0.232-0.031-0.476,0.076-0.69L13,11H9l0.794,0.794c0.135,0.134,0.228,0.305,0.269,0.49l1.818,8.18
		c0.074,0.334-0.027,0.682-0.269,0.924L11,22h4l-0.463-0.927L16,17l1.463,4.073L17,22h4l-0.612-0.612
		c-0.242-0.242-0.343-0.59-0.269-0.924l1.818-8.18c0.041-0.186,0.135-0.356,0.269-0.49L23,11H19z"/>
</g>
</svg>
