<?xml version="1.0" encoding="iso-8859-1"?>
<!-- Generator: Adobe Illustrator 21.0.2, SVG Export Plug-In . SVG Version: 6.00 Build 0)  -->
<svg version="1.1"  xmlns="http://www.w3.org/2000/svg" xmlns:xlink="http://www.w3.org/1999/xlink" x="0px" y="0px"
	 viewBox="0 0 32 32" style="enable-background:new 0 0 32 32;" xml:space="preserve">
<path d="M3,13.115h1.951l0.702,3.79l1.028-3.79h1.944l1.03,3.785l0.703-3.785h1.94l-1.465,6.77H8.819l-1.165-4.262l-1.161,4.262
	H4.479L3,13.115z"/>
<path d="M12.552,16.505c0-1.105,0.302-1.966,0.907-2.581C14.064,13.307,14.905,13,15.984,13c1.106,0,1.958,0.302,2.557,0.907
	c0.599,0.604,0.898,1.452,0.898,2.542c0,0.791-0.131,1.44-0.392,1.946c-0.262,0.506-0.639,0.901-1.133,1.182
	C17.419,19.859,16.803,20,16.066,20c-0.749,0-1.37-0.122-1.861-0.365c-0.491-0.243-0.889-0.628-1.195-1.154
	C12.705,17.954,12.552,17.296,12.552,16.505z M14.606,16.513c0,0.684,0.125,1.175,0.374,1.473c0.249,0.299,0.588,0.448,1.018,0.448
	c0.441,0,0.783-0.146,1.025-0.439c0.242-0.293,0.362-0.818,0.362-1.575c0-0.637-0.126-1.102-0.379-1.397
	c-0.252-0.294-0.595-0.441-1.027-0.441c-0.414,0-0.747,0.149-0.998,0.448C14.731,15.33,14.606,15.824,14.606,16.513z"/>
<path d="M19.702,13.115h1.951l0.702,3.79l1.028-3.79h1.944l1.03,3.785l0.703-3.785H29l-1.465,6.77h-2.014l-1.165-4.262l-1.161,4.262
	h-2.014L19.702,13.115z"/>
<polygon points="7.276,12 6.259,10 8,10 9.562,10 9.94,8.485 10.286,7.104 12.971,8.715 14.31,9.518 15.414,8.414 17.689,6.139 
	18.336,7.109 19.079,8.224 20.392,7.961 23,7.44 23,9 23,11 25,11 26.143,11 25.778,12 27.907,12 29,9 25,9 25,5 20,6 18,3 14,7 
	9,4 8,8 3,8 5.032,12 "/>
<polygon points="24.938,21 25.438,23 24,23 22.558,23 22.103,24.368 21.773,25.355 18.743,24.143 17.518,23.653 16.586,24.586 
	15.311,25.861 14.664,24.891 13.764,23.54 12.257,24.143 10,25.046 10,24 10,22 8,22 6.775,22 7.108,21 5,21 4,24 8,24 8,28 13,26 
	15,29 18,26 23,28 24,25 28,25 27,21 "/>
</svg>
