<?xml version="1.0" encoding="iso-8859-1"?>
<!-- Generator: Adobe Illustrator 19.2.0, SVG Export Plug-In . SVG Version: 6.00 Build 0)  -->
<svg version="1.1" id="Layer_1" xmlns="http://www.w3.org/2000/svg" xmlns:xlink="http://www.w3.org/1999/xlink" x="0px" y="0px"
	 viewBox="0 0 32 32" style="enable-background:new 0 0 32 32;" xml:space="preserve">
<circle style="fill:none;stroke:#000000;stroke-width:2;stroke-linecap:round;stroke-linejoin:round;stroke-miterlimit:10;" cx="20.5" cy="10.5" r="2.5"/>
<circle style="fill:none;stroke:#000000;stroke-width:2;stroke-linecap:round;stroke-linejoin:round;stroke-miterlimit:10;" cx="12.5" cy="8.5" r="2.5"/>
<path d="M17.234,21.756l3.463-2.151c0.313-0.194,0.543-0.496,0.647-0.847l0.465-1.564l1.293,1.61l-2.326,3.295L19.83,27h2.037
	l0.792-4.1l2.947-4.175l-2.915-3.63l0.892-1.037l0.168-0.005l2.727,2.792c0.533,0.545,0.671,1.375,0.345,2.064l-1.57,3.31
	c-0.21,0.445-0.19,0.965,0.056,1.393L27.265,27h2.31l-2.403-4.161l1.457-3.073c0.684-1.441,0.395-3.177-0.721-4.318l-2.726-2.791
	c-0.413-0.423-0.99-0.651-1.579-0.637c-0.591,0.019-1.151,0.286-1.537,0.735l-1.563,1.818l-1.021,3.433l-3.303,2.051L17.234,21.756z
	"/>
<path d="M5.153,21.521L2.506,27h2.221l2.314-4.788c0.166-0.345,0.194-0.736,0.08-1.1l-0.995-3.174
	c-0.207-0.662-0.148-1.366,0.167-1.982l1.469-2.883c0.338-0.665,1.105-0.961,1.803-0.722l-2.436,5.633l2.703,3.76L10.976,27h2.047
	l-1.259-5.784c-0.044-0.199-0.126-0.384-0.248-0.555l-2.102-2.924l1.562-3.611l0.892,1.988C12.109,16.652,12.646,17,13.237,17h3.857
	v-2H13.56l-1.766-3.938L10.359,10.5c-1.679-0.657-3.561,0.058-4.38,1.664L4.51,15.047c-0.553,1.086-0.657,2.325-0.292,3.489
	L5.153,21.521z"/>
</svg>
