<?xml version="1.0" encoding="iso-8859-1"?>
<!-- Generator: Adobe Illustrator 19.1.1, SVG Export Plug-In . SVG Version: 6.00 Build 0)  -->
<svg version="1.1"  xmlns="http://www.w3.org/2000/svg" xmlns:xlink="http://www.w3.org/1999/xlink" x="0px" y="0px"
	 viewBox="0 0 32 32" style="enable-background:new 0 0 32 32;" xml:space="preserve">
<g>
	<path style="fill:none;stroke:#000000;stroke-width:2;stroke-miterlimit:10;" d="M21.072,5H10.928
		c-0.649,0-1.287,0.377-1.609,0.955l-5.078,9.083c-0.322,0.585-0.322,1.338,0,1.922l5.078,9.083C9.641,26.623,10.279,27,10.928,27
		h10.144c0.649,0,1.287-0.377,1.609-0.955l5.078-9.083c0.322-0.585,0.322-1.338,0-1.922l-5.078-9.083
		C22.359,5.376,21.721,5,21.072,5L21.072,5z"/>
</g>
<path d="M20.498,21H18.78c-0.072,0-0.142-0.045-0.176-0.108l-2.58-4.792c-0.014-0.025-0.019-0.055-0.024-0.079
	c-0.005,0.024-0.009,0.054-0.024,0.079l-2.59,4.792c-0.028,0.064-0.095,0.104-0.167,0.108h-1.701c-0.138,0-0.243-0.183-0.171-0.312
	L13.871,16l-2.523-4.699c-0.062-0.113,0.014-0.276,0.133-0.301h1.739c0.066,0,0.133,0.044,0.167,0.104l2.59,4.792
	c0.014,0.024,0.019,0.05,0.024,0.079c0.005-0.03,0.009-0.054,0.024-0.079l2.58-4.793C18.642,11.04,18.709,11,18.78,11h1.718
	c0.133,0,0.233,0.178,0.171,0.301L18.146,16l2.523,4.688C20.741,20.817,20.636,21,20.498,21z"/>
</svg>
