<?xml version="1.0" encoding="iso-8859-1"?>
<!-- Generator: Adobe Illustrator 19.1.0, SVG Export Plug-In . SVG Version: 6.00 Build 0)  -->
<svg version="1.1" id="Layer_1" xmlns="http://www.w3.org/2000/svg" xmlns:xlink="http://www.w3.org/1999/xlink" x="0px" y="0px"
	 viewBox="0 0 32 32" style="enable-background:new 0 0 32 32;" xml:space="preserve">
<path style="fill:none;stroke:#000000;stroke-width:2;stroke-linejoin:round;stroke-miterlimit:10;" d="M10.561,20.012H7.676
	c-0.173,0-0.303-0.08-0.376-0.197c-0.077-0.123-0.081-0.285,0-0.443l3.065-5.409c0.003-0.007,0.003-0.01,0-0.017l-1.95-3.376
	c-0.083-0.159-0.094-0.318-0.018-0.443c0.074-0.118,0.22-0.18,0.393-0.18h2.885c0.443,0,0.66,0.286,0.803,0.541
	c0,0,1.972,3.44,1.984,3.459c-0.116,0.206-3.114,5.507-3.114,5.507C11.201,19.721,10.993,20.012,10.561,20.012z M24.697,6.629
	L18.31,17.92c-0.004,0.007-0.004,0.013,0,0.019l4.067,7.431c0.081,0.16,0.084,0.322,0.006,0.446C22.309,25.934,22.175,26,22,26
	h-2.881c-0.441,0-0.663-0.293-0.805-0.55c0,0-4.089-7.499-4.099-7.519C14.419,17.57,20.633,6.55,20.633,6.55
	C20.787,6.272,20.975,6,21.405,6h2.915c0.173,0,0.31,0.065,0.383,0.184C24.779,6.306,24.777,6.469,24.697,6.629z"/>
</svg>
