<?xml version="1.0" encoding="iso-8859-1"?>
<!-- Generator: Adobe Illustrator 19.1.1, SVG Export Plug-In . SVG Version: 6.00 Build 0)  -->
<svg version="1.1" id="Layer_1" xmlns="http://www.w3.org/2000/svg" xmlns:xlink="http://www.w3.org/1999/xlink" x="0px" y="0px"
	 viewBox="-7 9 32 32" style="enable-background:new -7 9 32 32;" xml:space="preserve">
<path d="M7,27c0,0.552-0.448,1-1,1s-1-0.448-1-1s0.448-1,1-1S7,26.448,7,27z M12,26c-0.552,0-1,0.448-1,1s0.448,1,1,1s1-0.448,1-1
	S12.552,26,12,26z M18,25.5c0,2.076-1.184,3.957-3.012,4.885C14.819,33.236,12.77,36,9,36s-5.819-2.764-5.989-5.615
	C1.184,29.457,0,27.577,0,25.5C0,22.467,2.467,20,5.5,20c1.291,0,2.52,0.457,3.5,1.279C9.98,20.457,11.209,20,12.5,20
	C15.532,20,18,22.467,18,25.5z M16,25.5c0-1.93-1.57-3.5-3.5-3.5c-1.052,0-2.043,0.484-2.72,1.328L9,24.303l-0.78-0.975
	C7.543,22.484,6.552,22,5.5,22C3.57,22,2,23.57,2,25.5c0,1.478,0.948,2.8,2.359,3.29l0.727,0.252L5.028,29.81
	c-0.005,0.066-0.014,0.131-0.024,0.194C5,31.927,6.252,34,9,34s4-2.073,4-4c-0.014-0.058-0.023-0.123-0.028-0.19l-0.058-0.768
	l0.727-0.252C15.052,28.3,16,26.978,16,25.5z M23,27.5c0,1.908-1.535,3.465-3.436,3.499C18.24,35.688,13.938,39,9,39
	c-4.939,0-9.24-3.313-10.564-8.001C-3.465,30.965-5,29.408-5,27.5c0-1.378,0.813-2.606,2.019-3.171
	c0.175-4.005,1.979-9.788,10.768-10.281C7.552,13.521,7.06,13,6,13v-2c1.405,0,2.381,0.551,3.018,1.302C9.638,11.563,10.59,11,12,11
	v2c-0.992,0-1.484,0.524-1.737,1.05c8.78,0.514,10.556,6.322,10.723,10.281C22.189,24.897,23,26.124,23,27.5z M21,27.5
	c0-0.712-0.505-1.33-1.2-1.47l-0.803-0.162l0.006-0.932C19,19.028,15.636,16,9,16s-10,3.028-10,9v0.819l-0.8,0.211
	C-2.495,26.17-3,26.788-3,27.5c0,0.827,0.673,1.5,1.5,1.5c0.12,0,0.252-0.022,0.414-0.07l1.059-0.315l0.208,1.085
	C0.992,33.93,4.701,37,9,37c4.299,0,8.008-3.07,8.818-7.301l0.208-1.085l1.059,0.314C19.248,28.978,19.38,29,19.5,29
	C20.327,29,21,28.327,21,27.5z"/>
</svg>
