<?xml version="1.0" encoding="iso-8859-1"?>
<!-- Generator: Adobe Illustrator 19.1.1, SVG Export Plug-In . SVG Version: 6.00 Build 0)  -->
<svg version="1.1" id="Layer_1" xmlns="http://www.w3.org/2000/svg" xmlns:xlink="http://www.w3.org/1999/xlink" x="0px" y="0px"
	 viewBox="0 0 32 32" style="enable-background:new 0 0 32 32;" xml:space="preserve">
<circle cx="19" cy="18" r="1"/>
<path d="M17,30h-1l-1-0.094c0-2.215,0.482-3.674,1.475-4.653c1.322-1.305,3.21-1.278,4.872-1.258L22,24c1.884,0,2-3.001,2.001-3.031
	L24.03,20h0.701c-1.889-5.369-8.375-5.02-8.668-5.002l-0.907,0.058l-0.144-0.898c-0.959-5.99-4.024-8.081-5.807-8.798
	c0.729,3.864,2.713,7.43,4.437,8.874l1.179,0.988l-1.381,0.677c-2.687,1.317-3.45,5.245-3.457,5.284l-0.057,0.304l-3.513,3.928L5,24
	l3.085-3.5c0.231-0.975,1.086-3.909,3.321-5.67C9.211,12.349,7.396,8.015,7.005,4.1L6.884,2.888l1.212,0.116
	c0.288,0.028,6.884,0.77,8.737,9.981c3.392,0.078,8.886,1.7,10.146,7.643L27,21c0,1-1.104,1-1.104,1c-0.313,1.747-1.363,4-3.896,4
	l-0.68-0.006c-1.396-0.02-2.714-0.037-3.441,0.682C17.296,27.252,17,28.37,17,30z"/>
<path style="fill:none;stroke:#000000;stroke-width:2;stroke-miterlimit:10;" d="M17,14c0,0,0.594-6.156-2.844-10.219
	C13.469,4.906,13,7,13,7"/>
<path style="fill:none;stroke:#000000;stroke-width:2;stroke-miterlimit:10;" d="M5.891,23.563C5.891,23.563,8.625,29,16,29"/>
</svg>
