<?xml version="1.0" encoding="iso-8859-1"?>
<!-- Generator: Adobe Illustrator 21.0.2, SVG Export Plug-In . SVG Version: 6.00 Build 0)  -->
<svg version="1.1" id="Layer_1" xmlns="http://www.w3.org/2000/svg" xmlns:xlink="http://www.w3.org/1999/xlink" x="0px" y="0px"
	 viewBox="0 0 32 32" style="enable-background:new 0 0 32 32;" xml:space="preserve">
<polyline style="fill:none;stroke:#000000;stroke-width:2;stroke-miterlimit:10;" points="19,4 19,10 25,10 "/>
<line style="fill:none;stroke:#000000;stroke-width:2;stroke-miterlimit:10;" x1="12.571" y1="16" x2="17.226" y2="21.431"/>
<path d="M21.189,17.591c0.076-0.033,0.153-0.064,0.23-0.094l1.34-1.148l-2.474-2.886l-4.286,5l-3.429-4l-3.33,3.886l1.518,1.302
	l1.813-2.114l3.429,4l4.286-5L21.189,17.591z"/>
<path d="M17.683,27H8V5h10.586L24,10.414V17c0.695,0,1.366,0.105,2,0.294V9.586L19.414,3H6v26h13.106
	C18.52,28.426,18.039,27.749,17.683,27z"/>
<path d="M24,32c-4.4,0-8-3.6-8-8s3.6-8,8-8s8,3.6,8,8S28.4,32,24,32z M24,18c-3.3,0-6,2.7-6,6s2.7,6,6,6s6-2.7,6-6S27.3,18,24,18z
	 M28,23h-3v-3h-2v3h-3v2h3v3h2v-3h3V23z"/>
<rect x="19" y="15" width="2" height="3"/>
</svg>
