<?xml version="1.0" encoding="iso-8859-1"?>
<!-- Generator: Adobe Illustrator 19.1.1, SVG Export Plug-In . SVG Version: 6.00 Build 0)  -->
<svg version="1.1" id="Layer_1" xmlns="http://www.w3.org/2000/svg" xmlns:xlink="http://www.w3.org/1999/xlink" x="0px" y="0px"
	 viewBox="0 0 32 32" style="enable-background:new 0 0 32 32;" xml:space="preserve">
<g>
	<path d="M16,14c-2.762,0-5,2.238-5,5c0,2.761,2.238,5,5,5s5-2.239,5-5C21,16.238,18.762,14,16,14z M15.813,21.333
		c-0.461,0-0.849-0.069-1.163-0.207v-0.903c0.328,0.201,0.676,0.301,1.046,0.301c0.687,0,0.889-0.512,0.889-0.739
		c0-0.475-0.335-0.712-1.006-0.712c-0.247,0-0.533,0.019-0.856,0.057l0.18-2.674h2.537v0.863H15.71l-0.067,0.959
		c0.172-0.013,0.32-0.02,0.445-0.02c1.304,0,1.575,0.994,1.575,1.431C17.662,20.381,17.284,21.333,15.813,21.333z"/>
</g>
<line style="fill:none;stroke:#000000;stroke-width:2;stroke-miterlimit:10;" x1="15.969" y1="7" x2="15.969" y2="13"/>
<polygon points="19.469,8 16,4 12.469,8 "/>
<polyline style="fill:none;stroke:#000000;stroke-width:2;stroke-miterlimit:10;" points="27,12 27,27 5,27 5,12 "/>
</svg>
