<?xml version="1.0" encoding="iso-8859-1"?>
<!-- Generator: Adobe Illustrator 19.1.1, SVG Export Plug-In . SVG Version: 6.00 Build 0)  -->
<svg version="1.1"  xmlns="http://www.w3.org/2000/svg" xmlns:xlink="http://www.w3.org/1999/xlink" x="0px" y="0px"
	 viewBox="0 0 32 32" style="enable-background:new 0 0 32 32;" xml:space="preserve">
<line style="fill:none;stroke:#000000;stroke-width:2;stroke-miterlimit:10;" x1="8.007" y1="24.006" x2="25" y2="7"/>
<g>
	<polygon points="9.183,20 9.604,19.578 7.993,5.883 6.007,6.117 7.64,20 	"/>
	<polygon points="12,22.84 12,24.36 25.883,25.993 26.117,24.007 12.442,22.398 	"/>
</g>
<path d="M28,4l-5,1l4,4L28,4z"/>
<polygon points="11.015,20.997 8.007,24.006 8,29 11,26 "/>
<polygon points="6,21 3,24 8.007,24.006 11.015,21 "/>
<path style="fill:none;stroke:#000000;stroke-width:2;stroke-miterlimit:10;" d="M22,10c0,0,4,3.083,4,9v5c0,0-0.083,2,2,2h1"/>
<path style="fill:none;stroke:#000000;stroke-width:2;stroke-miterlimit:10;" d="M22,10c0,0-3.083-4-9-4H8c0,0-2,0.083-2-2V3"/>
</svg>
