<?xml version="1.0" encoding="iso-8859-1"?>
<!-- Generator: Adobe Illustrator 19.1.0, SVG Export Plug-In . SVG Version: 6.00 Build 0)  -->
<svg version="1.1" id="Layer_1" xmlns="http://www.w3.org/2000/svg" xmlns:xlink="http://www.w3.org/1999/xlink" x="0px" y="0px"
	 viewBox="0 0 32 32" style="enable-background:new 0 0 32 32;" xml:space="preserve">
<ellipse cx="20" cy="17.5" rx="1" ry="1.5"/>
<ellipse cx="12" cy="17.5" rx="1" ry="1.5"/>
<path style="fill:none;stroke:#000000;stroke-width:2;stroke-miterlimit:10;" d="M12,18c1.425,0,1.441-2.25,4-2.25S18.575,18,20,18"
	/>
<path style="fill:none;stroke:#000000;stroke-width:2;stroke-miterlimit:10;" d="M23,21c0,0,4-1.672,4-7
	c0-4.484-2.485-6.196-3.394-9h-0.169C20.498,5.604,19,10.737,19,10.737"/>
<path style="fill:none;stroke:#000000;stroke-width:2;stroke-miterlimit:10;" d="M13,10.737c0,0-1.498-5.133-4.437-5.737H8.394
	C7.485,7.804,5,9.516,5,14c0,5.328,4,7,4,7"/>
<path style="fill:none;stroke:#000000;stroke-width:2;stroke-miterlimit:10;" d="M9,20c0,2.518,4.519,7,7,7s7-4.549,7-7"/>
<path style="fill:none;stroke:#000000;stroke-width:2;stroke-miterlimit:10;" d="M22,15c0,0-1.388-5-6-5s-6,5-6,5"/>
<path d="M16,22.6c-2.013,0-3.3-1.654-3.3-1.654L15,20.4h2l2.3,0.546C19.3,20.946,18.013,22.6,16,22.6z"/>
</svg>
