<?xml version="1.0" encoding="iso-8859-1"?>
<!-- Generator: Adobe Illustrator 19.1.0, SVG Export Plug-In . SVG Version: 6.00 Build 0)  -->
<svg version="1.1" id="Layer_1" xmlns="http://www.w3.org/2000/svg" xmlns:xlink="http://www.w3.org/1999/xlink" x="0px" y="0px"
	 viewBox="0 0 32 32" style="enable-background:new 0 0 32 32;" xml:space="preserve">
<path style="fill:none;stroke:#000000;stroke-width:2;stroke-miterlimit:10;" d="M13,8V5c0-0.552,0.448-1,1-1h4c0.552,0,1,0.448,1,1
	v3"/>
<line style="fill:none;stroke:#000000;stroke-width:2;stroke-miterlimit:10;" x1="13" y1="14" x2="21" y2="14"/>
<line style="fill:none;stroke:#000000;stroke-width:2;stroke-miterlimit:10;" x1="13" y1="23" x2="21" y2="23"/>
<path style="fill:none;stroke:#000000;stroke-width:2;stroke-miterlimit:10;" d="M22,13c0-1.938-1.001-4.495-3-5h-6
	c-1.998,0.501-3,3.081-3,5c0,0.984,1,1,1,1c0,1.175,0,9,0,9s-1,0.047-1,1v2c0,1.1,0.9,2,2,2h8c1.1,0,2-0.9,2-2v-2c0-0.953-1-1-1-1
	s0-7.825,0-9C21,14,22,13.984,22,13z"/>
</svg>
