<?xml version="1.0" encoding="iso-8859-1"?>
<!-- Generator: Adobe Illustrator 21.0.0, SVG Export Plug-In . SVG Version: 6.00 Build 0)  -->
<svg version="1.1" xmlns="http://www.w3.org/2000/svg" xmlns:xlink="http://www.w3.org/1999/xlink" x="0px" y="0px"
	 viewBox="0 0 32 32" style="enable-background:new 0 0 32 32;" xml:space="preserve">
<g id="Layer_1">
</g>
<g id="Layer_2">
	<path d="M15,24H4.414C4.186,24,4,23.814,4,23.586c0-0.109,0.044-0.216,0.121-0.293L6.414,21H18l1-1
		c-0.048-0.134-0.045-0.533-0.002-1H7V8h18v4.665c0.527-0.103,1.192-0.115,2,0.004V6H5v13.586l-2.293,2.293
		C2.251,22.335,2,22.941,2,23.586C2,24.917,3.083,26,4.414,26H13L15,24z"/>
	<path style="fill:none;stroke:#000000;stroke-width:2;stroke-linecap:round;stroke-linejoin:round;stroke-miterlimit:10;" d="
		M28.399,15.402l-2.382,2.382c-0.605,0.605-0.605,1.586,0,2.191c0.003,0.003,0.006,0.005,0.008,0.008
		c0.605,0.605,1.586,0.605,2.191,0l2.382-2.382c0.827,1.734,0.523,3.875-0.912,5.31c-1.143,1.143-2.733,1.568-4.209,1.276
		l-6.054,6.054C18.938,30.727,18.279,31,17.592,31c-0.687,0-1.347-0.273-1.833-0.759C15.273,29.755,15,29.096,15,28.408
		c0-0.687,0.273-1.347,0.759-1.833l6.054-6.054c-0.292-1.476,0.134-3.066,1.277-4.208C24.525,14.878,26.665,14.574,28.399,15.402z"
		/>
</g>
</svg>
