<?xml version="1.0" encoding="iso-8859-1"?>
<!-- Generator: Adobe Illustrator 18.1.1, SVG Export Plug-In . SVG Version: 6.00 Build 0)  -->
<svg version="1.1" id="Layer_1" xmlns="http://www.w3.org/2000/svg" xmlns:xlink="http://www.w3.org/1999/xlink" x="0px" y="0px"
	 viewBox="0 0 32 32" style="enable-background:new 0 0 32 32;" xml:space="preserve">
<circle style="fill:none;stroke:#000000;stroke-width:2;stroke-linecap:round;stroke-linejoin:round;stroke-miterlimit:10;" cx="12.5" cy="6.5" r="2.5"/>
<path style="fill:none;stroke:#000000;stroke-width:2;stroke-miterlimit:10;" d="M5.482,16.27l3.113,0.791
	c0.474,0.12,0.966-0.12,1.162-0.568l1.895-4.321l4.273-1.028l2.805,2.404c0.353,0.302,0.867,0.322,1.242,0.047l2.606-1.911"/>
<path style="fill:none;stroke:#000000;stroke-width:2;stroke-miterlimit:10;" d="M15.655,11.794l1.082,6.869l-1.682,3.318
	c-0.192,0.378-0.124,0.835,0.168,1.142l2.812,2.95"/>
<path style="fill:none;stroke:#000000;stroke-width:2;stroke-miterlimit:10;" d="M11.868,12.875l1.028,6.274l-1.766,3.124
	c-0.085,0.15-0.13,0.32-0.13,0.493L11.003,28"/>
<circle cx="24" cy="21" r="2"/>
<polyline style="fill:none;stroke:#000000;stroke-width:2;stroke-miterlimit:10;" points="25,21 25,16.438 27,16.438 "/>
</svg>
