<?xml version="1.0" encoding="iso-8859-1"?>
<!-- Generator: Adobe Illustrator 19.1.0, SVG Export Plug-In . SVG Version: 6.00 Build 0)  -->
<svg version="1.1" id="Layer_1" xmlns="http://www.w3.org/2000/svg" xmlns:xlink="http://www.w3.org/1999/xlink" x="0px" y="0px"
	 viewBox="0 0 32 32" style="enable-background:new 0 0 32 32;" xml:space="preserve">
<path style="fill:none;stroke:#000000;stroke-width:2;stroke-miterlimit:10;" d="M15.5,21L15.5,21c-1.933,0-3.5-1.567-3.5-3.5v-3
	c0-1.933,1.567-3.5,3.5-3.5h0c1.933,0,3.5,1.567,3.5,3.5v3C19,19.433,17.433,21,15.5,21z"/>
<path style="fill:none;stroke:#000000;stroke-width:2;stroke-miterlimit:10;" d="M19,10v8c0,1.656,1.342,2.999,2.999,3h0
	c2.746,0.001,4.991-2.214,5.001-4.96c0-0.127-0.001-0.254-0.005-0.382c-0.176-5.794-5.034-10.572-10.83-10.657
	C9.4,4.902,4.009,10.911,5.154,17.869c0.769,4.677,4.618,8.394,9.315,9.028c3.192,0.431,6.165-0.51,8.414-2.315"/>
</svg>
