<?xml version="1.0" encoding="iso-8859-1"?>
<!-- Generator: Adobe Illustrator 18.1.1, SVG Export Plug-In . SVG Version: 6.00 Build 0)  -->
<svg version="1.1" id="Layer_1" xmlns="http://www.w3.org/2000/svg" xmlns:xlink="http://www.w3.org/1999/xlink" x="0px" y="0px"
	 viewBox="0 0 32 32" style="enable-background:new 0 0 32 32;" xml:space="preserve">
<g>
	<path style="fill:none;stroke:#000000;stroke-width:2;stroke-miterlimit:10;" d="M12.417,5c-6.639,0-7.416,5.679-7.416,6.42
		c0,0.642,0.409,0.913,0.913,0.913s0.913-0.409,0.913-0.913c0-1.038-0.897-1.91-0.897-1.91"/>
	<path style="fill:none;stroke:#000000;stroke-width:2;stroke-miterlimit:10;" d="M23.767,25.687c0,0-1.303-0.516-2.269-0.516
		c-0.505,0-0.914,0.409-0.914,0.914S21.054,27,21.498,27c2.103,0,5.502-2.277,5.502-7.421S21.894,12,18,12
		c-7.349,0-12.999,4.217-12.999,9.458c0,3.115,2.198,5.541,5.5,5.541"/>
</g>
<g>
	<path d="M18.984,14.576C18.99,14.766,19,14.953,19,15.148c0,5.401-2.628,10.851-8.499,10.851v2C17.754,27.999,21,21.545,21,15.148
		c0-0.017-0.001-0.032-0.002-0.049C20.31,14.83,19.609,14.663,18.984,14.576z"/>
	<path d="M17.85,9.506c0.051,0,0.099-0.006,0.15-0.006c0.7,0,1.402,0.059,2.096,0.172C18.766,6.114,16.038,4,12.417,4v2
		C14.856,6,16.734,7.272,17.85,9.506z"/>
</g>
</svg>
