<?xml version="1.0" encoding="iso-8859-1"?>
<!-- Generator: Adobe Illustrator 21.0.2, SVG Export Plug-In . SVG Version: 6.00 Build 0)  -->
<svg version="1.1"  xmlns="http://www.w3.org/2000/svg" xmlns:xlink="http://www.w3.org/1999/xlink" x="0px" y="0px"
	 viewBox="0 0 32 32" style="enable-background:new 0 0 32 32;" xml:space="preserve">
<polyline style="fill:none;stroke:#000000;stroke-width:2;stroke-miterlimit:10;" points="19,21 3,21 3,11 25,11 "/>
<polyline style="fill:none;stroke:#000000;stroke-width:2;stroke-miterlimit:10;" points="29,10 29,21 22,21 "/>
<circle cx="7" cy="16" r="2"/>
<circle cx="13" cy="16" r="2"/>
<circle cx="19" cy="16" r="2"/>
<circle cx="25" cy="16" r="2"/>
<polyline style="fill:none;stroke:#000000;stroke-width:2;stroke-miterlimit:10;" points="25,16 25,5 14,5 "/>
<polygon points="14,6 12,7 8,7 8,3 12,3 14,4 "/>
<polyline style="fill:none;stroke:#000000;stroke-width:2;stroke-miterlimit:10;" points="19,16 19,21 19,27 14,27 "/>
<polygon points="14,28 12,29 8,29 8,25 12,25 14,26 "/>
</svg>
