<?xml version="1.0" encoding="iso-8859-1"?>
<!-- Generator: Adobe Illustrator 19.1.0, SVG Export Plug-In . SVG Version: 6.00 Build 0)  -->
<svg version="1.1" id="Layer_1" xmlns="http://www.w3.org/2000/svg" xmlns:xlink="http://www.w3.org/1999/xlink" x="0px" y="0px"
	 viewBox="0 0 32 32" style="enable-background:new 0 0 32 32;" xml:space="preserve">
<path style="fill:none;stroke:#000000;stroke-width:2;stroke-linecap:round;stroke-miterlimit:10;" d="M29.115,15.446
	C29.489,15.675,30,16.132,30,16.825c0,0.773-4.083,7.225-4.083,7.225S23.365,25.8,16,25.8s-9.917-1.75-9.917-1.75S2,17.598,2,16.825
	c0-0.633,0.427-1.07,0.786-1.314"/>
<path d="M11.595,13.509c-0.189,0.42-0.684,0.607-1.104,0.418c-0.42-0.19-0.607-0.684-0.417-1.104
	c0.189-0.42,1.446-1.178,1.446-1.178S11.784,13.088,11.595,13.509z"/>
<path d="M16,15c-0.552,0-1-0.448-1-1c0-0.552,1-2,1-2s1,1.448,1,2C17,14.552,16.552,15,16,15z"/>
<path d="M21.509,13.926c-0.42,0.189-0.914,0.003-1.104-0.418c-0.189-0.42,0.075-1.864,0.075-1.864s1.257,0.758,1.446,1.178
	C22.116,13.242,21.929,13.736,21.509,13.926z"/>
<path style="fill:none;stroke:#000000;stroke-width:2;stroke-linecap:round;stroke-miterlimit:10;" d="M16,7.659
	c-6.38,0-13,5.939-13,8.259c0,1.456,0.951,2.645,3.324,2.626c0.642-0.005,1.388-0.129,2.247-0.412
	c0.877,0.97,2.444,1.482,4.108,1.463c1.124-0.013,2.292-0.227,3.321-0.863c1.029,0.636,2.197,0.85,3.321,0.863
	c1.663,0.019,3.231-0.493,4.108-1.463c0.859,0.283,1.605,0.407,2.247,0.412C28.049,18.564,29,17.374,29,15.918
	C29,13.598,22.38,7.659,16,7.659z"/>
</svg>
