<?xml version="1.0" encoding="iso-8859-1"?>
<!-- Generator: Adobe Illustrator 19.0.1, SVG Export Plug-In . SVG Version: 6.00 Build 0)  -->
<svg version="1.1" id="Layer_1" xmlns="http://www.w3.org/2000/svg" xmlns:xlink="http://www.w3.org/1999/xlink" x="0px" y="0px"
	 viewBox="0 0 32 32" style="enable-background:new 0 0 32 32;" xml:space="preserve">
<path id="XMLID_399_" style="fill:none;stroke:#000000;stroke-width:2;stroke-linecap:round;stroke-linejoin:round;stroke-miterlimit:10;" d="
	M18.17,8.064c0,1.14,0.924,2.064,2.063,2.064c1.142,0,2.065-0.925,2.065-2.064C22.298,6.925,21.375,6,20.233,6
	C19.094,6,18.17,6.925,18.17,8.064z"/>
<path id="XMLID_391_" style="fill:none;stroke:#000000;stroke-width:2;stroke-miterlimit:10;" d="M6,22h4.586
	c0.265,0,0.52-0.105,0.707-0.293l1.473-1.473"/>
<path id="XMLID_207_" style="fill:none;stroke:#000000;stroke-width:2;stroke-miterlimit:10;" d="M9,14l3.369-3.657
	c0.363-0.395,0.96-0.466,1.406-0.168L18,13l1.703,2.555C19.889,15.833,20.201,16,20.535,16H25"/>
<path id="XMLID_210_" d="M16.295,22.197L13.389,28h2.237l2.458-4.907c0.386-0.77,0.235-1.701-0.374-2.31l-3.536-3.536
	c-0.205-0.205-0.232-0.528-0.063-0.763l2.716-3.803l-1.628-1.162l-2.716,3.803c-0.736,1.031-0.62,2.443,0.276,3.339L16.295,22.197z"
	/>
</svg>
