<?xml version="1.0" encoding="iso-8859-1"?>
<!-- Generator: Adobe Illustrator 19.1.1, SVG Export Plug-In . SVG Version: 6.00 Build 0)  -->
<svg version="1.1" id="Layer_1" xmlns="http://www.w3.org/2000/svg" xmlns:xlink="http://www.w3.org/1999/xlink" x="0px" y="0px"
	 viewBox="0 0 32 32" style="enable-background:new 0 0 32 32;" xml:space="preserve">
<polygon style="fill:none;stroke:#000000;stroke-width:2;stroke-miterlimit:10;" points="15.997,4 18.964,6.87 23.051,6.292 
	23.764,10.357 27.41,12.292 25.597,16 27.41,19.708 23.764,21.643 23.051,25.708 18.964,25.13 15.997,28 13.031,25.13 8.944,25.708 
	8.231,21.643 4.585,19.708 6.397,16 4.585,12.292 8.231,10.357 8.944,6.292 13.031,6.87 "/>
<polygon points="22.562,15 22.562,14 20,14 20,18 22.562,18 22.562,17 21,17 21,16.5 22.335,16.5 22.335,15.5 21,15.5 21,15 "/>
<polygon points="16,18 15,18 15,17.579 14.5,16.04 14,17.579 14,18 13,18 13.024,17.346 14.111,14 14.838,14 15.001,14.346 16,17.5 
	"/>
<rect x="13.695" y="16.5" width="1.609" height="1"/>
<path d="M10.75,18c-0.771,0-1.25-0.456-1.25-1.19h1c0,0.15,0,0.19,0.25,0.19c0.218,0,0.25-0.156,0.25-0.25
	c0-0.138-0.112-0.25-0.25-0.25c-0.689,0-1.25-0.561-1.25-1.25S10.061,14,10.75,14c0.812,0,1.25,0.62,1.25,1.204h-1
	C11,15.143,10.976,15,10.75,15c-0.138,0-0.25,0.112-0.25,0.25s0.112,0.25,0.25,0.25c0.689,0,1.25,0.561,1.25,1.25
	C12,17.463,11.463,18,10.75,18z"/>
<polyline id="XMLID_77_" style="fill:none;stroke:#000000;stroke-miterlimit:10;" points="17.5,14 17.5,17.5 19,17.5 "/>
</svg>
