<?xml version="1.0" encoding="iso-8859-1"?>
<!-- Generator: Adobe Illustrator 19.1.0, SVG Export Plug-In . SVG Version: 6.00 Build 0)  -->
<svg version="1.1" id="Layer_1" xmlns="http://www.w3.org/2000/svg" xmlns:xlink="http://www.w3.org/1999/xlink" x="0px" y="0px"
	 viewBox="0 0 32 32" style="enable-background:new 0 0 32 32;" xml:space="preserve">
<polygon points="17,28 15,28 14,27 14,25 18,25 18,27 "/>
<path style="fill:none;stroke:#000000;stroke-width:2;stroke-linecap:round;stroke-miterlimit:10;" d="M17,25h-2
	c-2.209,0-4-1.791-4-4h10C21,23.209,19.209,25,17,25z"/>
<polygon points="17,17.604 17,21 19,21 19,17.21 "/>
<polygon points="13,17.16 13,21 15,21 15,16.825 "/>
<path d="M10.137,10.956c-0.533,0.09-1.037-0.353-1.124-0.893l0,0C8.926,9.525,9.285,9.016,9.817,8.927l12.046-2.355
	c0.533-0.09,1.037,0.276,1.124,0.816v0c0.087,0.538-0.272,1.124-0.804,1.213l-0.306,0.052L10.137,10.956z"/>
<path d="M10.137,14.453c-0.533,0.09-1.037-0.353-1.124-0.893l0,0c-0.087-0.538,0.272-1.047,0.804-1.136l12.046-2.355
	c0.533-0.09,1.037,0.276,1.124,0.816v0c0.087,0.538-0.272,1.124-0.804,1.213l-0.306,0.052L10.137,14.453z"/>
<path d="M10.137,17.95c-0.533,0.09-1.037-0.353-1.124-0.893l0,0c-0.087-0.538,0.272-1.047,0.804-1.136l12.046-2.355
	c0.533-0.09,1.037,0.276,1.124,0.816v0c0.087,0.538-0.272,1.124-0.804,1.213l-0.306,0.052L10.137,17.95z"/>
<path d="M10.179,7.52C9.626,7.613,9.104,7.153,9.014,6.594v0c-0.09-0.558,0.282-1.085,0.833-1.178c0,0,6.118-1.042,6.823-1.216
	C17.539,3.987,18.183,3,18.183,3s3.023,0.657,3.023,1.721c0,0.549-0.6,0.711-0.6,0.711L10.179,7.52z"/>
</svg>
