<?xml version="1.0" encoding="iso-8859-1"?>
<!-- Generator: Adobe Illustrator 19.1.1, SVG Export Plug-In . SVG Version: 6.00 Build 0)  -->
<svg version="1.1"  xmlns="http://www.w3.org/2000/svg" xmlns:xlink="http://www.w3.org/1999/xlink" x="0px" y="0px"
	 viewBox="0 0 32 32" style="enable-background:new 0 0 32 32;" xml:space="preserve">
<path style="fill:none;stroke:#000000;stroke-width:2;stroke-miterlimit:10;" d="M10.913,18.478c0,0,1.504,2.522,4.087,2.522
	c4.805,0,6.509-3.586,9-5c2.592-1.533,2.832-1,3.741-1C28.6,15,29,14.437,29,13.97c0-0.93-0.98-1.353-0.98-1.353
	s0.156-1.574-1.263-1.574c-1.19,0-1.208,1.337-1.208,1.337C24.987,13.111,23.522,14,22.209,14c-1.942,0-6.048-3-9.601-3
	S3,13.381,3,23.565C3,23.565,6.652,27,14,27c8.657,0,11-4.985,11-7"/>
<g>
	<path d="M25.248,18.166c-0.417,0.236-0.871,0.626-1.354,1.067C23.956,19.477,24,19.73,24,20h2c0-0.757-0.175-1.431-0.421-2.024
		C25.476,18.034,25.369,18.095,25.248,18.166z"/>
</g>
<polygon points="11.772,17.966 10.915,18.478 10.913,18.479 "/>
<path style="fill:none;stroke:#000000;stroke-width:2;stroke-miterlimit:10;" d="M19.002,12.809C19.295,12.123,19.605,11.5,20,11
	c1.379-1.746,2.38-1.23,3.222-1.572C24.017,9.104,24.176,8.432,24,8c-0.35-0.861-1.417-0.884-1.417-0.884s-0.554-1.412-1.763-0.983
	c-1.122,0.398-0.681,1.887-0.681,1.887c-0.245,0.889-1.251,1.949-2.468,2.443c-0.93,0.378-2.302,0.546-5.085,0.546"/>
</svg>
