<?xml version="1.0" encoding="iso-8859-1"?>
<!-- Generator: Adobe Illustrator 18.1.1, SVG Export Plug-In . SVG Version: 6.00 Build 0)  -->
<svg version="1.1" id="Layer_1" xmlns="http://www.w3.org/2000/svg" xmlns:xlink="http://www.w3.org/1999/xlink" x="0px" y="0px"
	 viewBox="0 0 32 32" style="enable-background:new 0 0 32 32;" xml:space="preserve">
<path style="fill:none;stroke:#000000;stroke-width:2;stroke-miterlimit:10;" d="M13.556,22.858h-0.741
	c-0.741,0-1.359,0.247-1.854,0.741l-4.119,4.119c-0.371,0.371-1.112,0.371-1.606,0l-0.865-0.989c-0.494-0.371-0.494-1.112,0-1.483
	l4.119-4.119c0.494-0.494,0.741-1.112,0.741-1.854v-0.741"/>
<path style="fill:none;stroke:#000000;stroke-width:2;stroke-miterlimit:10;" d="M9.27,17.397L22.463,4.204
	c0,0,1.349-0.989,3.868,1.439s1.439,3.868,1.439,3.868L14.577,22.704c-0.27,0.27-0.81,0.27-1.079,0L9.27,18.476
	C8.91,18.206,8.91,17.757,9.27,17.397z"/>
<circle cx="9.5" cy="7.5" r="2.5"/>
</svg>
