<?xml version="1.0" encoding="iso-8859-1"?>
<!-- Generator: Adobe Illustrator 19.1.1, SVG Export Plug-In . SVG Version: 6.00 Build 0)  -->
<svg version="1.1" id="Layer_1" xmlns="http://www.w3.org/2000/svg" xmlns:xlink="http://www.w3.org/1999/xlink" x="0px" y="0px"
	 viewBox="0 0 32 32" style="enable-background:new 0 0 32 32;" xml:space="preserve">
<rect x="17" y="8" style="fill:none;stroke:#000000;stroke-width:2;stroke-linecap:round;stroke-miterlimit:10;" width="10" height="16"/>
<line style="fill:none;stroke:#000000;stroke-width:2;stroke-miterlimit:10;" x1="25" y1="11" x2="21" y2="11"/>
<line style="fill:none;stroke:#000000;stroke-width:2;stroke-miterlimit:10;" x1="20" y1="11" x2="18" y2="11"/>
<line style="fill:none;stroke:#000000;stroke-width:2;stroke-miterlimit:10;" x1="25" y1="14" x2="21" y2="14"/>
<line style="fill:none;stroke:#000000;stroke-width:2;stroke-miterlimit:10;" x1="20" y1="14" x2="18" y2="14"/>
<line style="fill:none;stroke:#000000;stroke-width:2;stroke-miterlimit:10;" x1="25" y1="17" x2="21" y2="17"/>
<line style="fill:none;stroke:#000000;stroke-width:2;stroke-miterlimit:10;" x1="20" y1="17" x2="18" y2="17"/>
<line style="fill:none;stroke:#000000;stroke-width:2;stroke-miterlimit:10;" x1="25" y1="20" x2="21" y2="20"/>
<line style="fill:none;stroke:#000000;stroke-width:2;stroke-miterlimit:10;" x1="20" y1="20" x2="18" y2="20"/>
<g>
	<path style="fill:none;stroke:#000000;stroke-width:2;stroke-miterlimit:10;" d="M16,5L5,7.444v17.111L16,27h1V5l0,0L16,5z"/>
</g>
<path d="M9.152,20.258l0.892-2.486c0.105-0.312,0.171-0.545,0.199-0.698h0.023c0.06,0.325,0.118,0.548,0.175,0.669l1.345,2.945
	l2.448,0.31l-2.661-5.041L14.162,11l-2.299,0.286l-1.24,2.685c-0.132,0.386-0.222,0.676-0.271,0.872h-0.024
	c-0.077-0.325-0.163-0.606-0.259-0.843l-0.644-2.315L7.3,11.948l-0.066,0.037l1.751,4.016L7,19.985L9.152,20.258z"/>
</svg>
