<?xml version="1.0" encoding="iso-8859-1"?>
<!-- Generator: Adobe Illustrator 19.1.0, SVG Export Plug-In . SVG Version: 6.00 Build 0)  -->
<svg version="1.1" id="Layer_1" xmlns="http://www.w3.org/2000/svg" xmlns:xlink="http://www.w3.org/1999/xlink" x="0px" y="0px"
	 viewBox="0 0 32 32" style="enable-background:new 0 0 32 32;" xml:space="preserve">
<polyline style="fill:none;stroke:#000000;stroke-width:2;stroke-miterlimit:10;" points="12.558,27 6.121,11.459 11.249,5 
	19.442,5.941 25.879,21.482 "/>
<path d="M16.773,10.795l-2.914,2.257l0.007,0.015l3.284-1.362l0.538,1.299l-5.33,2.209l-0.631-1.523l2.909-2.289l-0.006-0.015
	l-3.292,1.364l-0.538-1.3l5.331-2.208L16.773,10.795z"/>
<path d="M18.835,15.774l-2.913,2.257l0.006,0.015l3.285-1.361l0.539,1.3l-5.331,2.208l-0.63-1.523l2.909-2.29l-0.006-0.014
	l-3.293,1.364l-0.537-1.3l5.33-2.208L18.835,15.774z"/>
<path d="M21.581,22.403l-3.462,2.073l0.007,0.015l3.842-1.155l0.557,1.344l-5.707,1.298l-0.63-1.523l3.392-1.947l-0.007-0.015
	l-3.775,1.021l-0.63-1.523l4.953-3.119l0.557,1.344l-3.516,1.945l0.006,0.016l3.895-1.028L21.581,22.403z"/>
</svg>
