<?xml version="1.0" encoding="utf-8"?>
<!-- Generator: Adobe Illustrator 18.1.1, SVG Export Plug-In . SVG Version: 6.00 Build 0)  -->
<svg version="1.1" id="Layer_1" xmlns="http://www.w3.org/2000/svg" xmlns:xlink="http://www.w3.org/1999/xlink" x="0px" y="0px"
	 viewBox="0 0 32 32" enable-background="new 0 0 32 32" xml:space="preserve">
<path fill="none" stroke="#000000" stroke-width="2" stroke-miterlimit="10" d="M24.6,15.1c0.2-0.5,0.4-1.1,0.4-1.6
	c0-3-2.5-5.5-5.5-5.5S14,10.8,14,10.8S11.5,8,8.5,8S3,10.5,3,13.5c0,1.9,1.8,3.7,1.8,3.7l9.2,9.2l3.8-3.8"/>
<path fill="none" stroke="#000000" stroke-width="2" stroke-miterlimit="10" d="M22,16.8c0,0-1.6-1.8-3.5-1.8S15,16.6,15,18.5
	c0,1.2,1.2,2.3,1.2,2.3l5.8,5.8l5.8-5.8c0,0,1.2-1.1,1.2-2.3c0-1.9-1.6-3.5-3.5-3.5S22,16.8,22,16.8z"/>
</svg>
