<?xml version="1.0" encoding="utf-8"?>
<!-- Generator: Adobe Illustrator 18.1.1, SVG Export Plug-In . SVG Version: 6.00 Build 0)  -->
<svg version="1.1" id="Layer_1" xmlns="http://www.w3.org/2000/svg" xmlns:xlink="http://www.w3.org/1999/xlink" x="0px" y="0px"
	 viewBox="0 0 32 32" enable-background="new 0 0 32 32" xml:space="preserve">
<rect x="5" y="8" fill="none" stroke="#000000" stroke-width="2" stroke-miterlimit="10" width="22" height="14"/>
<line fill="none" stroke="#000000" stroke-width="2" stroke-linejoin="round" stroke-miterlimit="10" x1="10" y1="25" x2="22" y2="25"/>
<g>
	<path d="M20.4,11.9h-3.2L16.5,18c0,0,1.4,0,3.1,0c1.9,0,3.4-1.2,3.4-3.7C23,12,20.4,11.9,20.4,11.9z M19.3,16.9h-1l0.5-3.8h0.9
		c0,0,1.6,0.1,1.6,1.6C21.3,16.6,19.3,16.9,19.3,16.9z"/>
	<g>
		<path d="M9.8,16.9c0-0.3,0.1-0.6,0.1-0.6h1.7c0,0-0.1,1,0.9,1c0.7,0,1.3-0.2,1.3-0.9c0-1-3.2-0.4-3.2-2.4c0-1.9,1.5-2.4,3.5-2.4
			c0.7,0,1.2,0.2,1.6,0.4c-0.7-0.6-1.6-1-2.6-1c-2.2,0-4,1.8-4,4c0,1,0.3,1.9,0.9,2.6C9.8,17.3,9.8,17,9.8,16.9z"/>
		<path d="M16.1,12.4c0.1,0.2,0.2,0.4,0.2,0.6c0,0.3-0.1,0.6-0.1,0.6h-1.8c0-0.4-0.2-0.9-0.8-0.9c-0.4,0-1.1,0.2-1.1,0.9
			c0,1.1,3.3,0.5,3.3,2.3c0,1.1-1,2.7-3.6,2.7c-0.8,0-1.3-0.1-1.7-0.3c0.7,0.5,1.5,0.8,2.4,0.8c2.2,0,4-1.8,4-4
			C17.1,14,16.7,13.1,16.1,12.4z"/>
	</g>
</g>
</svg>
