<?xml version="1.0" encoding="iso-8859-1"?>
<!-- Generator: Adobe Illustrator 19.2.0, SVG Export Plug-In . SVG Version: 6.00 Build 0)  -->
<svg version="1.1" id="Layer_1" xmlns="http://www.w3.org/2000/svg" xmlns:xlink="http://www.w3.org/1999/xlink" x="0px" y="0px"
	 viewBox="0 0 32 32" style="enable-background:new 0 0 32 32;" xml:space="preserve">
<path style="fill:none;stroke:#000000;stroke-width:2;stroke-miterlimit:10;" d="M9,15c0,0-2-1.152-2-3.5
	c0-0.816,0.397-1.533,1.001-1.99C8.001,9.507,8,9.504,8,9.5C8,8.119,9.119,7,10.5,7c0.187,0,0.368,0.024,0.544,0.063
	C11.251,5.892,12.269,5,13.5,5c0.088,0,0.171,0.017,0.257,0.026C14.307,4.402,15.103,4,16,4s1.693,0.402,2.243,1.026
	C18.329,5.017,18.412,5,18.5,5c1.231,0,2.249,0.892,2.456,2.063C21.132,7.024,21.313,7,21.5,7C22.881,7,24,8.119,24,9.5
	c0,0.004-0.001,0.007-0.001,0.01C24.603,9.967,25,10.684,25,11.5c0,2.348-2,3.5-2,3.5"/>
<path d="M19,14c0,0.552-0.448,1-1,1s-1-0.448-1-1H15c0,0.552-0.448,1-1,1s-1-0.448-1-1h-2c0,3.024,2,3.724,2,3.724S14.133,20,16,20
	s3-2.276,3-2.276s2-0.699,2-3.724H19z"/>
<path style="fill:none;stroke:#000000;stroke-width:2;stroke-miterlimit:10;" d="M18.784,26C22.968,26,24,22,24,22h4"/>
<path style="fill:none;stroke:#000000;stroke-width:2;stroke-miterlimit:10;" d="M4,22h4c0,0,1.032,4,5.216,4"/>
<g>
	<path d="M7.999,19l-0.018-0.151L7.539,18.6C6.59,18.064,6,17.068,6,16c0-1.413,0.877-2.218,1.612-2.645l-1.004-1.73
		C4.951,12.587,4,14.182,4,16c0,1.101,0.379,2.147,1.033,3H7.999z"/>
	<path d="M24.461,18.6l-0.442,0.249L24.001,19h2.966C27.621,18.147,28,17.101,28,16c0-1.818-0.951-3.413-2.608-4.375l-1.004,1.73
		C25.123,13.782,26,14.587,26,16C26,17.068,25.41,18.064,24.461,18.6z"/>
</g>
<circle style="fill:none;stroke:#000000;stroke-width:2;stroke-miterlimit:10;" cx="16" cy="25" r="3"/>
</svg>
