<?xml version="1.0" encoding="iso-8859-1"?>
<!-- Generator: Adobe Illustrator 19.1.1, SVG Export Plug-In . SVG Version: 6.00 Build 0)  -->
<svg version="1.1"  xmlns="http://www.w3.org/2000/svg" xmlns:xlink="http://www.w3.org/1999/xlink" x="0px" y="0px"
	 viewBox="0 0 32 32" style="enable-background:new 0 0 32 32;" xml:space="preserve">
<path style="fill:none;stroke:#000000;stroke-width:2;stroke-miterlimit:10;" d="M26.466,8.534L23,12h-3V9l3.466-3.466
	C22.713,5.194,21.88,5,21,5c-3.314,0-6,2.686-6,6c0,0.838,0.173,1.635,0.483,2.359L5.651,23.19c-0.869,0.869-0.869,2.29,0,3.159
	c0.869,0.869,2.29,0.869,3.159,0l9.831-9.831C19.365,16.827,20.162,17,21,17c3.314,0,6-2.686,6-6
	C27,10.12,26.806,9.287,26.466,8.534z"/>
</svg>
