<?xml version="1.0" encoding="utf-8"?>
<!-- Generator: Adobe Illustrator 18.0.0, SVG Export Plug-In . SVG Version: 6.00 Build 0)  -->
<svg version="1.1" id="Layer_1" xmlns="http://www.w3.org/2000/svg" xmlns:xlink="http://www.w3.org/1999/xlink" x="0px" y="0px"
	 viewBox="0 0 32 32" enable-background="new 0 0 32 32" xml:space="preserve">
<rect x="1" y="8" fill="none" stroke="#000000" stroke-width="2" stroke-miterlimit="10" width="30" height="16"/>
<path fill="none" stroke="#000000" stroke-width="2" stroke-miterlimit="10" d="M9,20v-7H8.4c0,0-0.9,1-2,1"/>
<path fill="none" stroke="#000000" stroke-width="2" stroke-miterlimit="10" d="M23,17v0.5c0,0.8-0.7,1.5-1.5,1.5h0
	c-0.8,0-1.5-0.7-1.5-1.5v-3c0-0.8,0.7-1.5,1.5-1.5h0c0.8,0,1.5,0.7,1.5,1.5V15"/>
<path fill="none" stroke="#000000" stroke-width="2" stroke-miterlimit="10" d="M13,15v-0.5c0-0.8,0.7-1.5,1.5-1.5h0
	c0.8,0,1.5,0.7,1.5,1.5v0.8c0,0.4-0.2,0.8-0.5,1.1L13,18.8V19h4"/>
</svg>
