<?xml version="1.0" encoding="iso-8859-1"?>
<!-- Generator: Adobe Illustrator 19.1.1, SVG Export Plug-In . SVG Version: 6.00 Build 0)  -->
<svg version="1.1" id="Layer_1" xmlns="http://www.w3.org/2000/svg" xmlns:xlink="http://www.w3.org/1999/xlink" x="0px" y="0px"
	 viewBox="0 0 32 32" style="enable-background:new 0 0 32 32;" xml:space="preserve">
<g>
	<path d="M14.736,5.797l-0.084-0.374l-0.469,0.081c-1.09,0.188-2.139,0.543-3.119,1.058l-0.46,0.242l0.291,0.506L9.648,9.516
		l2.771-0.641l1.731,1.066l0.539-1.96l2.463-1.422L14.736,5.797z"/>
	<path d="M7.597,17.015l-1.808-2.733l-0.426,1.618l-0.017,0.129c0.006,1.991,0.568,3.934,1.626,5.62l0.085,0.135l2.681,1.118
		L8.834,19.71l1.163-2.401L7.597,17.015z"/>
	<polygon points="23.187,17.049 22.998,13.436 20.198,15.729 17.022,15.09 17.958,18.372 16.144,21.527 19.503,21.34 21.625,23.951 
		22.737,20.484 25.795,18.969 	"/>
</g>
<circle style="fill:none;stroke:#000000;stroke-width:2;stroke-miterlimit:10;" cx="16" cy="16" r="11"/>
<line style="fill:none;stroke:#000000;stroke-width:2;stroke-miterlimit:10;" x1="22.895" y1="5.789" x2="27.053" y2="9.947"/>
<line style="fill:none;stroke:#000000;stroke-width:2;stroke-miterlimit:10;" x1="28.257" y1="4.743" x2="25" y2="8"/>
</svg>
