<?xml version="1.0" encoding="utf-8"?>
<!-- Generator: Adobe Illustrator 18.1.1, SVG Export Plug-In . SVG Version: 6.00 Build 0)  -->
<svg version="1.1" id="Layer_1" xmlns="http://www.w3.org/2000/svg" xmlns:xlink="http://www.w3.org/1999/xlink" x="0px" y="0px"
	 viewBox="0 0 32 32" enable-background="new 0 0 32 32" xml:space="preserve">
<path fill="none" stroke="#000000" stroke-width="2" stroke-miterlimit="10" d="M23,11.4c0-0.7,0-1.5,0-1.5C23,7,21.2,4,16,4
	c-5.4,0-7,3.1-7,5.9v0c0,0,0,0.8,0,1.5v0.6"/>
<g>
	<g>
		<g id="XMLID_2827_">
			<path id="XMLID_2828_" fill="none" stroke="#000000" stroke-width="2" stroke-miterlimit="10" d="M10.3,21c-0.3,0-0.6,0.1-1,0.4
				C7.7,23.1,11.7,28,16,28c4.3,0,8.2-5,6.6-6.6c-0.3-0.3-0.6-0.4-0.9-0.4c-1.4,0-3,2.4-5.8,2.4C13.3,23.4,11.7,21,10.3,21L10.3,21z
				"/>
		</g>
	</g>
</g>
<path fill="none" stroke="#000000" stroke-width="2" stroke-miterlimit="10" d="M25,11c-1.7,0-5.2,1-9,1s-7.4-1-9-1s-3,1.3-3,3
	s1.3,3,3,3c0,0,2-2,9-2s9,2,9,2c1.7,0,3-1.3,3-3S26.7,11,25,11z"/>
<circle cx="16" cy="19" r="2"/>
</svg>
