<?xml version="1.0" encoding="utf-8"?>
<!-- Generator: Adobe Illustrator 18.1.1, SVG Export Plug-In . SVG Version: 6.00 Build 0)  -->
<svg version="1.1" id="Layer_1" xmlns="http://www.w3.org/2000/svg" xmlns:xlink="http://www.w3.org/1999/xlink" x="0px" y="0px"
	 viewBox="0 0 32 32" enable-background="new 0 0 32 32" xml:space="preserve">
<polyline fill="none" stroke="#000000" stroke-width="2" stroke-miterlimit="10" points="29,20 29,17 3,17 3,20 "/>
<path fill="none" stroke="#000000" stroke-width="2" stroke-miterlimit="10" d="M16,17v-3c0,0,1.8-1,4.5-1s4.5,1,4.5,1v3"/>
<path fill="none" stroke="#000000" stroke-width="2" stroke-miterlimit="10" d="M7,17v-3c0,0,1.8-1,4.5-1s4.5,1,4.5,1v3"/>
<path fill="none" stroke="#000000" stroke-width="2" stroke-miterlimit="10" d="M3,9v17h3v-2h20v2h3V9c0,0-4.1-3-13-3S3,9,3,9z"/>
<path d="M16,8.8c0,0-0.4-0.5-1-0.5s-1,0.5-1,1c0,0.3,0.3,0.7,0.3,0.7l1.7,1.7l1.7-1.7c0,0,0.3-0.3,0.3-0.7c0-0.5-0.4-1-1-1
	S16,8.8,16,8.8z"/>
</svg>
