<?xml version="1.0" encoding="iso-8859-1"?>
<!-- Generator: Adobe Illustrator 19.1.1, SVG Export Plug-In . SVG Version: 6.00 Build 0)  -->
<svg version="1.1" id="Layer_1" xmlns="http://www.w3.org/2000/svg" xmlns:xlink="http://www.w3.org/1999/xlink" x="0px" y="0px"
	 viewBox="0 0 32 32" style="enable-background:new 0 0 32 32;" xml:space="preserve">
<path d="M7,9v1h9.172c0,0-0.844-1-2.203-1S7,9,7,9z"/>
<polygon points="18,9 18,10 23.177,10 22.867,9 18,9 "/>
<polygon points="26.983,9 26.673,10 32,10 32,9 26.983,9 "/>
<polygon points="16.668,11 7,11 7,12 17,12 16.896,11.525 16.813,11.293 16.715,11.084 16.668,11 "/>
<rect x="9" y="13" width="2" height="1"/>
<polygon points="17.092,13 14,13 14,14 16.947,14 16.972,13.932 17.026,13.676 17.06,13.416 17.086,13.149 17.092,12.985 "/>
<polygon points="16.57,15 9,15 9,16 15.727,16.012 15.876,15.897 16.047,15.723 16.202,15.533 16.348,15.333 16.488,15.121 
	16.57,14.976 "/>
<polygon points="18,11 18,12 23.772,12 23.462,11 18,11 "/>
<polygon points="32,11.002 26.385,11.002 26.084,12.016 32,12.016 32,11.002 "/>
<polygon points="20,13 20,14 24.361,14 24.051,13 20,13 "/>
<polygon points="30,13 25.789,13 25.485,14 30,14 30,13 "/>
<polygon points="22.278,16 27.731,16 28,15.112 28,16 30,16 30,15 25.203,15 24.925,15.888 24.646,15 20,15 20,16 22,16 22,15.104 
	22.278,16 "/>
<polygon points="15.727,17 9,17 9,18 16.57,18 16.487,17.881 16.348,17.674 16.202,17.479 16.047,17.291 15.876,17.124 15.727,17 
	"/>
<rect x="9" y="19" width="2" height="1"/>
<polygon points="16.947,19 14.243,19 14.243,20 17.093,20 17.087,19.849 17.061,19.592 17.027,19.345 16.973,19.098 16.947,19 "/>
<polygon points="17.011,21 7,21 7,22 16.678,22 16.725,21.911 16.823,21.679 16.906,21.441 16.972,21.202 17.011,21 "/>
<polygon points="16.047,23 7,23 7,24 13.786,24 14.014,23.989 14.242,23.96 14.454,23.914 14.676,23.861 14.897,23.776 15.1,23.686 
	15.306,23.576 15.509,23.455 15.696,23.317 15.876,23.16 16.047,23 "/>
<polygon points="20,17 20,18 22,18 22,17 20,17 "/>
<polygon points="26.73,18 27.037,17 22.81,17 23.11,18 26.73,18 "/>
<polygon points="28,17 28,18 30,18 30,17 28,17 "/>
<polygon points="20,19 20,20 22,20 22,19 20,19 "/>
<polygon points="26.461,19 23.389,19 23.693,20 26.157,20 26.461,19 "/>
<polygon points="28,19 28,20 30,20 30,19 28,19 "/>
<polygon points="18,21 18,22 22,22 22,21 18,21 "/>
<polygon points="25.878,21 23.968,21 24.272,22 25.577,22 25.878,21 "/>
<polygon points="28,21 28,22 32,22 32,21 28,21 "/>
<polygon points="18,23 18,24 22,24 22,23 18,23 "/>
<polygon points="28,23 28,24 32,24 32,23 28,23 "/>
<polygon points="24.988,24 25.292,23 24.557,23 24.858,24 24.988,24 "/>
<rect y="9" width="6" height="1"/>
<rect y="11" width="6" height="1"/>
<rect y="21" width="6" height="1"/>
<rect y="23" width="6" height="1"/>
<rect x="2" y="13" width="2" height="1"/>
<rect x="2" y="15" width="2" height="1"/>
<rect x="2" y="17" width="2" height="1"/>
<rect x="2" y="19" width="2" height="1"/>
</svg>
