<?xml version="1.0" encoding="iso-8859-1"?>
<!-- Generator: Adobe Illustrator 21.0.0, SVG Export Plug-In . SVG Version: 6.00 Build 0)  -->
<svg version="1.1" xmlns="http://www.w3.org/2000/svg" xmlns:xlink="http://www.w3.org/1999/xlink" x="0px" y="0px"
	 viewBox="0 0 32 32" style="enable-background:new 0 0 32 32;" xml:space="preserve">
<g >
	<circle style="fill:none;stroke:#000000;stroke-width:2;stroke-miterlimit:10;" cx="16" cy="16" r="12"/>
	<path d="M22.968,9.034c0-0.001,0-0.001,0-0.002l-0.002,0.002c-3.978,0.032-7.945,2.977-9.935,4.966c-2,0-5,1-6,3
		c0.982,0,3.295,0,5,0l-1,2L13,21l2-1c0,1.705,0,4.018,0,5c2-1,3-4,3-6c1.989-1.989,4.934-5.956,4.966-9.935L23,9.032
		C22.989,9.032,22.979,9.033,22.968,9.034z M19,14c-0.552,0-1-0.448-1-1c0-0.552,0.448-1,1-1s1,0.448,1,1C20,13.552,19.552,14,19,14
		z"/>
	<path d="M12.409,21.413l-0.191-0.191c0,0-0.716,0.586-2.011,0.586l-0.01-0.002l0-0.012c0-1.295,0.586-2.011,0.586-2.011
		l-0.191-0.191c0,0-1.585,0.616-1.587,3.405L9,23c0.001,0,0.003,0,0.004,0c0,0,0,0,0,0l0,0
		C11.792,22.998,12.409,21.413,12.409,21.413z"/>
</g>
<g >
</g>
</svg>
