<?xml version="1.0" encoding="iso-8859-1"?>
<!-- Generator: Adobe Illustrator 19.1.1, SVG Export Plug-In . SVG Version: 6.00 Build 0)  -->
<svg version="1.1" id="Layer_1" xmlns="http://www.w3.org/2000/svg" xmlns:xlink="http://www.w3.org/1999/xlink" x="0px" y="0px"
	 viewBox="0 0 32 32" style="enable-background:new 0 0 32 32;" xml:space="preserve">
<path style="fill:none;stroke:#000000;stroke-width:2;stroke-miterlimit:10;" d="M29,14v0.078c2.062,0.969,0.953,5.097-3,3.578
	c-1.86-0.633-2.791-3.239-3.721-4.504C21.465,12.013,20.302,11,18.326,11c-0.914,0-1.729,0.419-2.326,1.111
	C15.404,11.419,14.588,11,13.674,11c-1.977,0-3.14,1.013-3.953,2.152C8.791,14.418,7.86,17.023,6,17.656
	c-3.953,1.519-5.063-2.609-3-3.578V14c-1.922,0-2,2.696-2,2.696C1,18.721,2.163,21,7.744,21c3.129,0,6.594-0.904,8.256-3.049
	C17.661,20.096,21.126,21,24.256,21C29.837,21,31,18.721,31,16.696C31,16.696,30.922,14,29,14z"/>
</svg>
