<?xml version="1.0" encoding="iso-8859-1"?>
<!-- Generator: Adobe Illustrator 21.0.2, SVG Export Plug-In . SVG Version: 6.00 Build 0)  -->
<svg version="1.1" id="Layer_1" xmlns="http://www.w3.org/2000/svg" xmlns:xlink="http://www.w3.org/1999/xlink" x="0px" y="0px"
	 viewBox="0 0 32 32" style="enable-background:new 0 0 32 32;" xml:space="preserve">
<path style="fill:none;stroke:#000000;stroke-width:2;stroke-miterlimit:10;" d="M20.685,22.359L21.998,26
	c0.127,0.257,0.57,0.489,0.934,0.619c1.066,0.381,3.516,1.323,3.813,1.372c0.384,0.063,0.943-0.256,1.075-0.956
	c0.084-0.442,0.144-1.139,0.176-1.592c0.021-0.292-0.085-0.575-0.296-0.778C27.185,24.172,24,22,16.998,22
	C11,22,6.813,24.172,6.299,24.665c-0.211,0.203-0.317,0.485-0.296,0.778c0.032,0.453,0.091,1.15,0.176,1.592
	c0.132,0.7,0.692,1.019,1.075,0.956C7.551,27.942,10,27,11.066,26.619C11.43,26.489,11.873,26.257,12,26l1.313-3.641"/>
<path style="fill:none;stroke:#000000;stroke-width:2;stroke-miterlimit:10;" d="M23,18l1,1h3v-4c0-4-7-9-7-9V4h-1v1h-4V4h-1v2
	c0,0-7,5-7,9c0,1,0,4,0,4h3l1-1H23z"/>
<rect x="19" y="10" width="2" height="2"/>
<rect x="13" y="10" width="2" height="2"/>
<rect x="16" y="10" width="2" height="2"/>
<rect x="19" y="13" width="2" height="2"/>
<rect x="13" y="13" width="2" height="2"/>
<rect x="16" y="13" width="2" height="2"/>
<path style="fill:none;stroke:#000000;stroke-width:2;stroke-miterlimit:10;" d="M7,25c-1.657,0-3-1.239-3-4s1.343-5,3-5"/>
</svg>
