<?xml version="1.0" encoding="iso-8859-1"?>
<!-- Generator: Adobe Illustrator 19.1.0, SVG Export Plug-In . SVG Version: 6.00 Build 0)  -->
<svg version="1.1" id="Layer_1" xmlns="http://www.w3.org/2000/svg" xmlns:xlink="http://www.w3.org/1999/xlink" x="0px" y="0px"
	 viewBox="0 0 32 32" style="enable-background:new 0 0 32 32;" xml:space="preserve">
<path style="fill:none;stroke:#000000;stroke-width:2;stroke-miterlimit:10;" d="M23,9H6c0,6.882,1.768,14.394,2.589,17.514
	C8.821,27.393,9.614,28,10.522,28h7.956c0.908,0,1.701-0.605,1.932-1.483C21.232,23.404,23,15.903,23,9z"/>
<path style="fill:none;stroke:#000000;stroke-width:2;stroke-miterlimit:10;" d="M23,14h2c1.105,0,2,0.895,2,2v3
	c0,1.105-0.895,2-2,2h-3"/>
<line style="fill:none;stroke:#000000;stroke-width:2;stroke-miterlimit:10;" x1="12" y1="7" x2="12" y2="3"/>
<line style="fill:none;stroke:#000000;stroke-width:2;stroke-miterlimit:10;" x1="16" y1="7" x2="16" y2="4"/>
<path style="fill:none;stroke:#000000;stroke-width:2;stroke-miterlimit:10;" d="M14,9c0,0,0,0.464,0,5"/>
<rect x="11" y="14" style="fill:none;stroke:#000000;stroke-width:2;stroke-miterlimit:10;" width="6" height="5"/>
</svg>
