<?xml version="1.0" encoding="iso-8859-1"?>
<!-- Generator: Adobe Illustrator 19.1.1, SVG Export Plug-In . SVG Version: 6.00 Build 0)  -->
<svg version="1.1" id="Layer_1" xmlns="http://www.w3.org/2000/svg" xmlns:xlink="http://www.w3.org/1999/xlink" x="0px" y="0px"
	 viewBox="0 0 32 32" style="enable-background:new 0 0 32 32;" xml:space="preserve">
<g>
	<g>
		<path d="M17.987,19.561c-0.589,0-1.066-0.478-1.066-1.066c0-0.588,0.476-1.066,1.066-1.066c0.588,0,1.065,0.478,1.065,1.066
			C19.051,19.083,18.574,19.561,17.987,19.561z M23.034,19.561c-0.588,0-1.065-0.478-1.065-1.066c0-0.588,0.478-1.066,1.065-1.066
			c0.589,0,1.067,0.478,1.067,1.066C24.101,19.083,23.623,19.561,23.034,19.561z"/>
		<path d="M17.235,9.171c0.777,0,1.406,0.63,1.406,1.406c0,0.778-0.629,1.408-1.406,1.408c-0.779,0-1.407-0.63-1.407-1.408
			C15.828,9.8,16.458,9.171,17.235,9.171z M10.562,11.985c-0.777,0-1.406-0.63-1.406-1.408c0-0.776,0.629-1.406,1.406-1.406
			c0.778,0,1.407,0.63,1.407,1.406S11.339,11.985,10.562,11.985z"/>
	</g>
</g>
<path style="fill:none;stroke:#000000;stroke-width:2;stroke-miterlimit:10;" d="M22.672,15.483C22.88,14.85,23,14.188,23,13.5
	C23,9.358,18.971,6,14,6s-9,3.358-9,7.5c0,1.549,0.564,2.987,1.529,4.182l-0.414,3.241l2.859-1.201C10.409,20.529,12.139,21,14,21
	c0.008,0,0.017-0.001,0.025-0.001"/>
<path style="fill:none;stroke:#000000;stroke-width:2;stroke-miterlimit:10;" d="M25.865,23.64C26.58,22.77,27,21.718,27,20.583
	c0-2.992-2.91-5.417-6.5-5.417S14,17.592,14,20.583C14,23.575,16.91,26,20.5,26c1.504,0,2.886-0.43,3.987-1.145l1.628,0.914
	L25.865,23.64z"/>
</svg>
