<?xml version="1.0" encoding="utf-8"?>
<!-- Generator: Adobe Illustrator 19.1.0, SVG Export Plug-In . SVG Version: 6.00 Build 0)  -->
<svg version="1.1" id="Layer_1" xmlns="http://www.w3.org/2000/svg" xmlns:xlink="http://www.w3.org/1999/xlink" x="0px" y="0px"
	 viewBox="0 0 32 32" style="enable-background:new 0 0 32 32;" xml:space="preserve">
<style type="text/css">
	.st0{fill:none;stroke:#000000;stroke-width:2;stroke-miterlimit:10;}
</style>
<rect x="24.8" y="14.6" width="1.5" height="4.5"/>
<ellipse cx="25.6" cy="13.4" rx="0.9" ry="0.8"/>
<polygon points="19,12.9 23.9,12.9 23.9,14.4 20.6,14.4 20.6,15.8 23.6,15.8 23.6,17.2 20.6,17.2 20.6,19.1 19,19.1 "/>
<g>
	<path d="M24.3,10.4C22.5,7.8,19.5,6,16,6s-6.5,1.8-8.3,4.4H24.3z"/>
	<path d="M7.7,21.6C9.5,24.2,12.5,26,16,26s6.5-1.8,8.3-4.4H7.7z"/>
</g>
<path class="st0" d="M7,22h18c2.2,0,4-1.8,4-4v-4c0-2.2-1.8-4-4-4H7c-2.2,0-4,1.8-4,4v4C3,20.2,4.8,22,7,22z"/>
<path d="M4,11v10h10c1.7,0,3-1.3,3-3v-4c0-1.7,1.3-3,3-3H4z M10.6,19.1H9.1l-0.6-3.8l-0.6,3.8H6.4L5,12.9h1.6l0.5,3.6l0.6-3.6h1.5
	l0.6,3.6l0.5-3.6h1.6L10.6,19.1z M14.1,19.1h-1.5v-4.5h1.5V19.1z M13.4,14.2c-0.5,0-0.9-0.4-0.9-0.8c0-0.4,0.4-0.8,0.9-0.8
	s0.9,0.4,0.9,0.8S13.9,14.2,13.4,14.2z"/>
</svg>
