<?xml version="1.0" encoding="utf-8"?>
<!-- Generator: Adobe Illustrator 18.1.1, SVG Export Plug-In . SVG Version: 6.00 Build 0)  -->
<svg version="1.1" id="Layer_1" xmlns="http://www.w3.org/2000/svg" xmlns:xlink="http://www.w3.org/1999/xlink" x="0px" y="0px"
	 viewBox="0 0 32 32" enable-background="new 0 0 32 32" xml:space="preserve">
<line fill="none" stroke="#000000" stroke-width="2" stroke-miterlimit="10" x1="5" y1="27" x2="27" y2="27"/>
<polyline fill="none" stroke="#000000" stroke-width="2" stroke-miterlimit="10" points="5,16 5,18 27,18 27,16 "/>
<polyline fill="none" stroke="#000000" stroke-width="2" stroke-miterlimit="10" points="22,16 22,6 10,6 10,16 "/>
<line fill="none" stroke="#000000" stroke-width="2" stroke-miterlimit="10" x1="16" y1="16" x2="16" y2="11"/>
<g>
	<path fill="none" stroke="#000000" stroke-width="2" stroke-miterlimit="10" d="M26,27c0,0,1-2.5,1-4.5S26,18,26,18"/>
	<path fill="none" stroke="#000000" stroke-width="2" stroke-miterlimit="10" d="M22.7,27c0,0,0.7-2.5,0.7-4.5S22.7,18,22.7,18"/>
	<path fill="none" stroke="#000000" stroke-width="2" stroke-miterlimit="10" d="M19.3,27c0,0,0.3-2.5,0.3-4.5S19.3,18,19.3,18"/>
	<path fill="none" stroke="#000000" stroke-width="2" stroke-miterlimit="10" d="M16,27c0,0,0-2.5,0-4.5s0-4.5,0-4.5"/>
	<path fill="none" stroke="#000000" stroke-width="2" stroke-miterlimit="10" d="M12.7,27c0,0-0.3-2.5-0.3-4.5s0.3-4.5,0.3-4.5"/>
	<path fill="none" stroke="#000000" stroke-width="2" stroke-miterlimit="10" d="M9.3,27c0,0-0.7-2.5-0.7-4.5S9.3,18,9.3,18"/>
	<path fill="none" stroke="#000000" stroke-width="2" stroke-miterlimit="10" d="M6,27c0,0-1-2.5-1-4.5S6,18,6,18"/>
</g>
<line fill="none" stroke="#000000" stroke-width="2" stroke-miterlimit="10" x1="10" y1="11" x2="22" y2="11"/>
</svg>
