<?xml version="1.0" encoding="iso-8859-1"?>
<!-- Generator: Adobe Illustrator 19.1.0, SVG Export Plug-In . SVG Version: 6.00 Build 0)  -->
<svg version="1.1" id="Layer_1" xmlns="http://www.w3.org/2000/svg" xmlns:xlink="http://www.w3.org/1999/xlink" x="0px" y="0px"
	 viewBox="0 0 32 32" style="enable-background:new 0 0 32 32;" xml:space="preserve">
<path style="fill:none;stroke:#000000;stroke-width:2;stroke-miterlimit:10;" d="M24.299,13.869l-6.168-6.168
	c-0.31-0.31-0.387-0.784-0.191-1.176l0.48-0.961c0.311-0.622,1.14-0.757,1.632-0.265l6.648,6.648
	c0.492,0.492,0.357,1.321-0.265,1.632l-0.961,0.48C25.083,14.256,24.609,14.179,24.299,13.869z"/>
<path style="fill:none;stroke:#000000;stroke-width:2;stroke-miterlimit:10;" d="M13.288,20.154l1.441-1.441l3.078-0.77
	c1.758-0.44,3.364-1.349,4.646-2.63l1.645-1.645"/>
<path style="fill:none;stroke:#000000;stroke-width:2;stroke-miterlimit:10;" d="M11.846,18.712l1.441-1.441l0.77-3.078
	c0.44-1.758,1.349-3.364,2.63-4.646l1.645-1.645"/>
<line style="fill:none;stroke:#000000;stroke-width:2;stroke-miterlimit:10;" x1="6.802" y1="25.198" x2="16" y2="16"/>
<line style="fill:none;stroke:#000000;stroke-width:2;stroke-miterlimit:10;" x1="15.45" y1="10.785" x2="21.215" y2="16.55"/>
<polygon points="8.784,24.297 7.703,23.216 6.441,23.397 5,24.838 7.162,27 8.603,25.559 "/>
</svg>
