<?xml version="1.0" encoding="iso-8859-1"?>
<!-- Generator: Adobe Illustrator 19.1.0, SVG Export Plug-In . SVG Version: 6.00 Build 0)  -->
<svg version="1.1" id="Layer_1" xmlns="http://www.w3.org/2000/svg" xmlns:xlink="http://www.w3.org/1999/xlink" x="0px" y="0px"
	 viewBox="0 0 32 32" style="enable-background:new 0 0 32 32;" xml:space="preserve">
<path style="fill:none;stroke:#000000;stroke-width:2;stroke-miterlimit:10;" d="M13,16.422V6H9v10.422C7.236,17.194,6,18.951,6,21
	c0,2.761,2.239,5,5,5s5-2.239,5-5C16,18.951,14.764,17.194,13,16.422z"/>
<line style="fill:none;stroke:#000000;stroke-width:2;stroke-miterlimit:10;" x1="13" y1="14" x2="16" y2="14"/>
<line style="fill:none;stroke:#000000;stroke-width:2;stroke-miterlimit:10;" x1="13" y1="10" x2="16" y2="10"/>
<line style="fill:none;stroke:#000000;stroke-width:2;stroke-miterlimit:10;" x1="13" y1="6" x2="16" y2="6"/>
<path d="M28,23c0,1.105-0.895,2-2,2s-2-0.895-2-2s2-4,2-4S28,21.895,28,23z"/>
<path d="M28,11c0,1.105-0.895,2-2,2s-2-0.895-2-2s2-4,2-4S28,9.895,28,11z"/>
<path d="M24,17c0,1.105-0.895,2-2,2s-2-0.895-2-2s2-4,2-4S24,15.895,24,17z"/>
</svg>
