<?xml version="1.0" encoding="iso-8859-1"?>
<!-- Generator: Adobe Illustrator 20.1.0, SVG Export Plug-In . SVG Version: 6.00 Build 0)  -->
<svg version="1.1"  xmlns="http://www.w3.org/2000/svg" xmlns:xlink="http://www.w3.org/1999/xlink" x="0px" y="0px"
	 viewBox="0 0 32 32" style="enable-background:new 0 0 32 32;" xml:space="preserve">
<rect x="5" y="9" style="fill:none;stroke:#000000;stroke-width:2;stroke-miterlimit:10;" width="22" height="19"/>
<polygon points="9,5 12,2 15,5 "/>
<polygon points="17,2 20,5 23,2 "/>
<circle style="fill:none;stroke:#000000;stroke-width:2;stroke-miterlimit:10;" cx="20.5" cy="13.5" r="1.5"/>
<path style="fill:none;stroke:#000000;stroke-width:2;stroke-miterlimit:10;" d="M22,26l0-5h1v-2.5c0-1.381-1.119-2.5-2.5-2.5h0
	c-1.381,0-2.5,1.119-2.5,2.5V21h0h1l0,5"/>
<circle style="fill:none;stroke:#000000;stroke-width:2;stroke-miterlimit:10;" cx="11.5" cy="13.5" r="1.5"/>
<path style="fill:none;stroke:#000000;stroke-width:2;stroke-miterlimit:10;" d="M13,26l0-5h1v-2.5c0-1.381-1.119-2.5-2.5-2.5h0
	C10.119,16,9,17.119,9,18.5V21h0h1l0,5"/>
</svg>
