<?xml version="1.0" encoding="iso-8859-1"?>
<!-- Generator: Adobe Illustrator 19.1.1, SVG Export Plug-In . SVG Version: 6.00 Build 0)  -->
<svg version="1.1" id="Layer_1" xmlns="http://www.w3.org/2000/svg" xmlns:xlink="http://www.w3.org/1999/xlink" x="0px" y="0px"
	 viewBox="0 0 32 32" style="enable-background:new 0 0 32 32;" xml:space="preserve">
<path style="fill-rule:evenodd;clip-rule:evenodd;" d="M28,16c0-6.615-5.385-12-12-12C9.385,4,4,9.385,4,16c0,6.641,5.385,12,12,12
	C22.615,28,28,22.641,28,16L28,16L28,16z M26.577,16c0,5.847-4.731,10.578-10.578,10.578c-5.847,0-10.585-4.731-10.585-10.578
	c0-5.847,4.739-10.586,10.585-10.586C21.846,5.414,26.577,10.185,26.577,16L26.577,16L26.577,16z M25.338,15.999
	c0-3.312-1.686-6.735-5.311-7.832c-0.753-0.231-1.387-0.38-2.118-0.38c-1.678,0-1.738,0.955-2.521,0.955
	c-0.433,0-0.724-0.313-0.724-0.694c0-0.664,0.783-1.186,2.029-1.186c1.164,0,2.059,0.291,2.23,0.373l0.03-0.082
	c-0.313-0.119-1.417-0.5-2.954-0.5c-3.342,0-6.735,1.716-7.832,5.311c-0.231,0.753-0.38,1.395-0.38,2.118
	c0,1.686,0.955,1.768,0.955,2.551c0,0.41-0.313,0.701-0.694,0.701c-0.664,0-1.186-0.761-1.186-2.036c0-1.156,0.291-2.059,0.343-2.23
	l-0.082-0.03c-0.09,0.351-0.47,1.425-0.47,2.961c0,3.364,1.716,6.758,5.311,7.862c0.753,0.231,1.395,0.373,2.118,0.373
	c1.686,0,1.738-0.985,2.521-0.985c0.41,0,0.731,0.321,0.731,0.723c0,0.641-0.761,1.164-2.036,1.164c-1.156,0-2.089-0.291-2.23-0.351
	l-0.03,0.089c0.321,0.142,1.425,0.463,2.961,0.463c3.334,0,6.758-1.686,7.832-5.311c0.231-0.724,0.373-1.387,0.373-2.089
	c0-1.708-0.955-1.768-0.955-2.551c0-0.433,0.291-0.724,0.694-0.724c0.671,0,1.193,0.783,1.193,2.059c0,1.134-0.291,2.029-0.351,2.23
	l0.089,0.03C24.988,18.64,25.338,17.566,25.338,15.999L25.338,15.999L25.338,15.999z M22.179,18.951
	c0,1.384-1.195,2.832-2.951,2.832c-2.12,0-3.196-1.788-3.196-3.386c0-2.247,1.535-3.196,2.184-3.536
	c-0.127-0.095-0.221-0.214-0.309-0.372c-0.744,0.522-1.416,0.989-2.832,1.788c-0.063,0.981-0.15,2.057-0.403,2.801
	c-0.522,1.566-1.598,2.706-3.014,2.706c-1.195,0-1.78-0.862-1.78-1.788c0-0.672,0.396-1.535,1.108-2.184
	c0.894-0.799,1.875-1.29,3.228-2.002c0.032-0.182,0.063-0.364,0.095-0.585c-0.34,0.308-0.831,0.435-1.234,0.435
	c-0.641,0-1.171-0.554-1.29-1.139c-0.862-0.063-1.511-0.68-1.543-1.661c0-0.704,0.277-1.321,0.744-1.321
	c0.182,0,0.245,0.15,0.245,0.277c0,0.119-0.158,0.522-0.158,0.918c0,0.403,0.19,0.926,0.68,0.926c0-1.598,1.171-3.663,2.555-3.663
	c0.918,0,1.044,0.68,1.044,0.989c0,1.448-1.448,3.046-2.619,3.441c0.032,0.127,0.158,0.467,0.53,0.467
	c0.459,0,1.013-0.435,1.29-0.775c0.119-0.641,0.585-1.566,1.203-1.566c0.245,0,0.364,0.182,0.364,0.403
	c0,0.459-0.49,1.044-0.862,1.44c-0.055,0.309-0.087,0.649-0.087,0.926c1.076-0.649,1.63-0.981,2.429-1.566
	c-0.063-0.214-0.063-0.467-0.063-0.712c0-1.44,0.957-3.046,2.215-3.046c0.712,0,1.076,0.498,1.076,1.052
	c0,1.044-0.894,1.962-2.152,2.919c0.095,0.245,0.245,0.459,0.491,0.585c0.032-0.063,0.435-0.127,0.767-0.127
	c0.372,0,0.894,0.095,0.894,0.467c0,0.427-0.585,0.522-1.044,0.522c-0.245,0.032-0.649-0.063-0.649-0.063
	c-0.672,0.182-1.97,0.957-1.97,2.919c0,1.329,0.831,2.555,2.128,2.555c0.981,0,1.78-0.736,1.812-1.875
	c0-0.736-0.309-1.511-1.044-1.511c-0.372,0-0.704,0.277-0.704,0.68c-0.032,0.617,0.427,0.68,0.427,1.076
	c0,0.277-0.214,0.403-0.427,0.403c-0.617,0-1.084-0.617-1.084-1.384c0-0.926,0.807-1.693,1.851-1.693
	C21.474,16.522,22.179,17.693,22.179,18.951L22.179,18.951L22.179,18.951z M19.684,11.472c0-0.142-0.03-0.321-0.209-0.321
	c-0.433,0-1.126,0.932-1.126,2.118C19.214,12.516,19.684,11.875,19.684,11.472L19.684,11.472L19.684,11.472z M14.545,11.352
	c0-0.142-0.082-0.201-0.201-0.201c-0.612,0-1.477,1.596-1.477,2.551C13.821,13.18,14.545,11.994,14.545,11.352L14.545,11.352
	L14.545,11.352z M14.202,16.783c-1.305,0.634-2.961,1.768-2.961,3.013c0,0.462,0.231,0.753,0.664,0.753
	C13.18,20.549,13.963,18.521,14.202,16.783L14.202,16.783L14.202,16.783z"/>
</svg>
