<?xml version="1.0" encoding="iso-8859-1"?>
<!-- Generator: Adobe Illustrator 19.1.1, SVG Export Plug-In . SVG Version: 6.00 Build 0)  -->
<svg version="1.1" id="Layer_1" xmlns="http://www.w3.org/2000/svg" xmlns:xlink="http://www.w3.org/1999/xlink" x="0px" y="0px"
	 viewBox="0 0 32 32" style="enable-background:new 0 0 32 32;" xml:space="preserve">
<circle cx="19.5" cy="16.5" r="1.5"/>
<circle cx="12.5" cy="16.5" r="1.5"/>
<path style="fill:none;stroke:#000000;stroke-width:2;stroke-miterlimit:10;" d="M13,23c0,0,1.204-1,3-1s3,1,3,1"/>
<path style="fill:none;stroke:#000000;stroke-width:2;stroke-miterlimit:10;" d="M24,15c-0.014,0-0.026,0.004-0.04,0.004
	C23.691,7.737,22,6,22,6s-0.621-1-3-1c-2.547,0-3,0-3,0s-0.453,0-3,0c-2.379,0-3,1-3,1s-1.691,1.737-1.96,9.004
	C8.026,15.004,8.014,15,8,15c-1.105,0-2,0.895-2,2c0,1.105,0.895,2,2,2c0.049,0,0.094-0.011,0.142-0.014C9.174,26.632,16,28,16,28
	s6.826-1.368,7.858-9.014C23.906,18.989,23.951,19,24,19c1.105,0,2-0.895,2-2C26,15.895,25.105,15,24,15z"/>
<path d="M12,27H6.154l-0.141-0.834C5.973,25.92,5,20.104,5,17c0-3.472,1.498-8.748,4.273-11.687C11.478,2.979,15.819,2.998,16.011,3
	l-0.02,2c-0.976,0.006-3.935,0.279-5.264,1.687C8.156,9.408,7,14.356,7,17c0,4.75,5,8,5,8V27z"/>
<path d="M25.846,27H20v-2c0,0,5-4.625,5-8c0-2.644-1.156-7.592-3.727-10.313C19.936,5.271,17.013,5.023,16.011,5l-0.021-2
	c0.198,0.01,4.533-0.021,6.738,2.313C25.502,8.252,27,13.528,27,17c0,3.104-0.973,8.92-1.014,9.166L25.846,27z"/>
</svg>
