<?xml version="1.0" encoding="iso-8859-1"?>
<!-- Generator: Adobe Illustrator 19.1.1, SVG Export Plug-In . SVG Version: 6.00 Build 0)  -->
<svg version="1.1"  xmlns="http://www.w3.org/2000/svg" xmlns:xlink="http://www.w3.org/1999/xlink" x="0px" y="0px"
	 viewBox="0 0 32 32" style="enable-background:new 0 0 32 32;" xml:space="preserve">
<path style="fill:none;stroke:#000000;stroke-width:2;stroke-miterlimit:10;" d="M27,20c0,5.523-3.145,7-11,7S5,25.523,5,20
	c0-7.013,8-11,8-11h6.003C19.003,9,27,12.987,27,20z"/>
<path style="fill:none;stroke:#000000;stroke-width:2;stroke-miterlimit:10;" d="M19,9h-6l-2-4c0,0,2.242-1,5-1s5,1,5,1L19,9z"/>
<path style="fill:none;stroke:#000000;stroke-width:2;stroke-miterlimit:10;" d="M19,9c5.238,0,8,3,8,3"/>
<line style="fill:none;stroke:#000000;stroke-width:2;stroke-miterlimit:10;" x1="16" y1="24" x2="16" y2="19"/>
<line style="fill:none;stroke:#000000;stroke-width:2;stroke-miterlimit:10;" x1="13" y1="19" x2="19" y2="19"/>
<line style="fill:none;stroke:#000000;stroke-width:2;stroke-miterlimit:10;" x1="13" y1="22" x2="19" y2="22"/>
<polygon points="16.844,18.537 21.004,13 18.633,13 16,16.313 13.527,13 11.156,13 15.316,18.537 "/>
</svg>
