<?xml version="1.0" encoding="iso-8859-1"?>
<!-- Generator: Adobe Illustrator 19.1.0, SVG Export Plug-In . SVG Version: 6.00 Build 0)  -->
<svg version="1.1" id="Layer_1" xmlns="http://www.w3.org/2000/svg" xmlns:xlink="http://www.w3.org/1999/xlink" x="0px" y="0px"
	 viewBox="0 0 32 32" style="enable-background:new 0 0 32 32;" xml:space="preserve">
<line style="fill:none;stroke:#000000;stroke-width:2;stroke-miterlimit:10;" x1="3" y1="3" x2="29" y2="29"/>
<g>
	<path d="M19.129,25.266c0.679,0.163,1.432,0.261,2.238,0.275l-2.415-2.415c-1.449-0.474-2.444-1.21-2.781-1.498
		c0.072,1.068,0.455,3.57,1.356,4.838L17.499,26.5h-1.467c0,0-0.807-2.947-0.733-4.988c-0.513,0.437-1.393,1.02-2.493,1.312
		c-0.609,0.177-1.226,0.235-1.771,0.235c-0.858,0-1.54-0.143-1.738-0.194l-0.01-0.04c0,0,1.247-1.312,3.08-1.749
		c0.22-0.073,0.44-0.146,0.66-0.146c-0.733-0.146-1.466-0.291-2.273-0.583c-2.406-0.888-4.055-2.46-4.25-2.656L6.5,17.65
		c0,0,0.351-0.042,0.932-0.042c0.944,0,2.493,0.112,4.127,0.698c0.44,0.146,0.88,0.292,1.247,0.51
		C12.2,18.28,9.93,16.33,8.945,13.119l-1.957-1.957L6.543,11.64l0.201,1.035c0.217,1.017,0.558,1.997,1.022,2.937
		c-0.116-0.003-0.227-0.004-0.333-0.004c-0.667,0-1.093,0.047-1.172,0.057L4.36,15.893l0.146,1.909l0.056,0.736l0.523,0.564
		c0.153,0.153,1.225,1.202,2.93,2.168c-0.092,0.087-0.152,0.149-0.179,0.177l-0.765,0.805l0.279,1.075l0.296,1.142L8.8,24.801
		c0.167,0.043,1.062,0.257,2.235,0.257c0.827,0,1.61-0.106,2.328-0.314c0.075-0.02,0.15-0.041,0.223-0.063
		c0.211,1.205,0.468,2.166,0.517,2.346l0.403,1.472h1.526h1.467h0.921l0.599-0.699l1.016-1.187l-0.876-1.307
		C19.148,25.294,19.139,25.28,19.129,25.266z"/>
	<path d="M14.559,15.904c-0.078-0.631-0.139-1.377-0.139-2.202c0-3.706,1.466-7.203,1.466-7.203h0.219
		c0.345,0.88,1.246,3.995,1.246,7.203c0,1.087-0.303,3.604-0.365,4.093c0.163-0.388,0.777-1.594,1.607-2.858
		c1.599-2.434,4.919-4.211,4.919-4.211l0.071,0.046c-0.115,0.501-0.891,3.306-2.637,6.002c-0.435,0.672-1.79,1.949-1.906,2.041
		c0.205-0.052,0.911-0.329,3.007-0.447c0.504-0.029,0.965-0.039,1.375-0.039c1.295,0,2.077,0.108,2.077,0.108l0.003,0.035
		c-0.61,0.582-2.261,1.51-4.02,2.013c-0.583,0.167-1.349,0.285-1.978,0.362l3.753,3.753l0.022-0.037l0.538-0.919l-0.443-0.993
		c-0.096-0.2-0.207-0.392-0.33-0.575c1.541-0.57,3.054-1.408,3.838-2.155l0.683-0.65l-0.068-0.94l-0.116-1.616l-1.608-0.256
		c-0.092-0.013-0.915-0.121-2.246-0.127c1.445-2.708,2-5.083,2.006-5.111l0.311-1.358l-1.166-0.762l-0.071-0.046l-0.993-0.649
		l-1.046,0.56c-0.252,0.135-1.802,0.987-3.357,2.336c-0.293-2.623-0.967-4.824-1.245-5.53L17.468,4.5h-1.363h-0.219h-1.33
		l-0.514,1.226c-0.058,0.138-1.26,3.041-1.557,6.491c-1.349-1.01-2.522-1.6-2.913-1.786L8.65,9.996L14.559,15.904z"/>
</g>
</svg>
