<?xml version="1.0" encoding="iso-8859-1"?>
<!-- Generator: Adobe Illustrator 19.1.0, SVG Export Plug-In . SVG Version: 6.00 Build 0)  -->
<svg version="1.1" id="Layer_1" xmlns="http://www.w3.org/2000/svg" xmlns:xlink="http://www.w3.org/1999/xlink" x="0px" y="0px"
	 viewBox="0 0 32 32" style="enable-background:new 0 0 32 32;" xml:space="preserve">
<path style="fill:none;stroke:#000000;stroke-width:2;stroke-linecap:round;stroke-miterlimit:10;" d="M24,17v-2
	c0-2.964-3.582-2-8-2s-8-1.021-8,2v2c-1.105,0-2,0.895-2,2c0,1.105,0.895,2,2,2v1c0,2.761,2.239,5,5,5h1.277
	c0.346,0.595,0.984,1,1.723,1s1.376-0.405,1.723-1H19c2.761,0,5-2.239,5-5v-1c1.105,0,2-0.895,2-2C26,17.895,25.105,17,24,17z"/>
<path style="fill:none;stroke:#000000;stroke-width:2;stroke-linecap:round;stroke-miterlimit:10;" d="M20,21h-2
	c-0.552,0-1-0.448-1-1v-2c0-0.552,0.448-1,1-1h2c0.552,0,1,0.448,1,1v2C21,20.552,20.552,21,20,21z"/>
<path style="fill:none;stroke:#000000;stroke-width:2;stroke-linecap:round;stroke-miterlimit:10;" d="M14,21h-2
	c-0.552,0-1-0.448-1-1v-2c0-0.552,0.448-1,1-1h2c0.552,0,1,0.448,1,1v2C15,20.552,14.552,21,14,21z"/>
<path style="fill:none;stroke:#000000;stroke-width:2;stroke-miterlimit:10;" d="M26,19c0,0,1-0.53,1-2.2C27,10.721,24.972,6,16,6
	S5,10.714,5,16.8C5,18.47,6,19,6,19"/>
<path style="fill:none;stroke:#000000;stroke-width:2;stroke-miterlimit:10;" d="M12,7c0-2.209,1.791-4,4-4s4,1.791,4,4"/>
</svg>
