<?xml version="1.0" encoding="iso-8859-1"?>
<!-- Generator: Adobe Illustrator 21.0.2, SVG Export Plug-In . SVG Version: 6.00 Build 0)  -->
<svg version="1.1"  xmlns="http://www.w3.org/2000/svg" xmlns:xlink="http://www.w3.org/1999/xlink" x="0px" y="0px"
	 viewBox="0 0 32 32" style="enable-background:new 0 0 32 32;" xml:space="preserve">
<circle cx="28" cy="4" r="1"/>
<circle cx="25" cy="7" r="1"/>
<circle cx="22" cy="10" r="1"/>
<circle cx="19" cy="13" r="1"/>
<circle cx="16" cy="16" r="1"/>
<circle cx="13" cy="19" r="1"/>
<circle cx="10" cy="22" r="1"/>
<circle cx="7" cy="25" r="1"/>
<circle cx="4" cy="28" r="1"/>
<path d="M9.476,19.746l1.76-1.76C7.774,17.846,5,14.995,5,11.5C5,7.916,7.916,5,11.5,5c3.495,0,6.346,2.774,6.487,6.235l1.76-1.76
	C18.834,5.765,15.488,3,11.5,3C6.813,3,3,6.813,3,11.5C3,15.488,5.765,18.834,9.476,19.746z"/>
<path d="M22.757,12.314l-1.714,1.714C24.374,14.305,27,17.099,27,20.5c0,3.584-2.916,6.5-6.5,6.5c-3.401,0-6.195-2.626-6.472-5.956
	l-1.714,1.714C13.306,26.35,16.596,29,20.5,29c4.687,0,8.5-3.813,8.5-8.5C29,16.596,26.35,13.306,22.757,12.314z"/>
<path d="M9.702,8l-0.391,3.488l1.172,0.302c0-0.074,0.327-0.372,0.952-0.372c0.234,0,1.172-0.005,1.172,1.186
	c0,0.149-0.01,1.279-1.026,1.279c-0.782,0-1.026-0.609-1.026-0.907H9.164C9.086,13.647,9.707,15,11.582,15
	C13.223,15,14,13.865,14,12.674c0-0.372-0.063-2.302-2.174-2.302c-0.625,0-1.021,0.233-1.099,0.233l0.147-1.488h2.906V8H9.702z"/>
<path d="M22,17.001V24h-1.523v-5.391c-0.276,0.157-0.857,0.337-1.977,0.562v-1.033c1.522-0.388,2.608-0.995,2.857-1.137L22,17.001
	L22,17.001z"/>
</svg>
