<?xml version="1.0" encoding="iso-8859-1"?>
<!-- Generator: Adobe Illustrator 19.1.1, SVG Export Plug-In . SVG Version: 6.00 Build 0)  -->
<svg version="1.1" id="Layer_1" xmlns="http://www.w3.org/2000/svg" xmlns:xlink="http://www.w3.org/1999/xlink" x="0px" y="0px"
	 viewBox="0 0 32 32" style="enable-background:new 0 0 32 32;" xml:space="preserve">
<path d="M16.047,22.326c-3.7,0-5.355-1.819-5.355-3.182c0-0.699,0.516-1.189,1.228-1.189c1.583,0,1.173,2.273,4.127,2.273
	c1.512,0,2.347-0.821,2.347-1.662c0-0.505-0.249-1.065-1.245-1.31l-3.29-0.822c-2.65-0.664-3.131-2.097-3.131-3.444
	c0-2.796,2.633-3.846,5.105-3.846c2.277,0,4.962,1.258,4.962,2.936c0,0.719-0.622,1.137-1.333,1.137c-1.351,0-1.103-1.87-3.824-1.87
	c-1.351,0-2.099,0.612-2.099,1.487c0,0.873,1.067,1.152,1.993,1.364l2.436,0.541c2.668,0.594,3.344,2.152,3.344,3.619
	C21.312,20.629,19.567,22.326,16.047,22.326z"/>
<path style="fill:none;stroke:#000000;stroke-width:2;stroke-linejoin:round;stroke-miterlimit:10;" d="M26.279,18.146
	C26.423,17.453,26.5,16.736,26.5,16c0-5.799-4.701-10.5-10.5-10.5c-0.736,0-1.453,0.077-2.146,0.221C13.005,5.261,12.033,5,11,5
	c-3.314,0-6,2.686-6,6c0,1.033,0.261,2.005,0.721,2.854C5.577,14.547,5.5,15.264,5.5,16c0,5.799,4.701,10.5,10.5,10.5
	c0.736,0,1.453-0.077,2.146-0.221C18.995,26.739,19.967,27,21,27c3.314,0,6-2.686,6-6C27,19.967,26.739,18.995,26.279,18.146z"/>
</svg>
