<?xml version="1.0" encoding="iso-8859-1"?>
<!-- Generator: Adobe Illustrator 22.0.1, SVG Export Plug-In . SVG Version: 6.00 Build 0)  -->
<svg version="1.1" id="&#x421;&#x43B;&#x43E;&#x439;_1"
	 xmlns="http://www.w3.org/2000/svg" xmlns:xlink="http://www.w3.org/1999/xlink" x="0px" y="0px" viewBox="0 0 32 32"
	 style="enable-background:new 0 0 32 32;" xml:space="preserve">
<g>
	<path style="fill:none;stroke:#000000;stroke-width:2;stroke-miterlimit:10;" d="M14,24h4"/>
	<path d="M10,4h12c1.102,0,2,0.898,2,2v3l-2,2V6H10v20h12v-5l2,2v3c0,1.102-0.898,2-2,2H10c-1.102,0-2-0.898-2-2V6
		C8,4.898,8.898,4,10,4z"/>
	<path d="M26.36,9.64l-1.41,1.41C26.22,12.32,27,14.07,27,16s-0.78,3.68-2.05,4.95l1.41,1.41C27.99,20.73,29,18.48,29,16
		S27.99,11.27,26.36,9.64z"/>
	<path d="M23.54,12.46l-1.42,1.42C22.66,14.42,23,15.18,23,16s-0.34,1.58-0.88,2.12l1.42,1.42C24.44,18.63,25,17.38,25,16
		S24.44,13.37,23.54,12.46z"/>
	<polygon points="20,10 16,14 14,14 14,18 16,18 20,22 	"/>
</g>
</svg>
