<?xml version="1.0" encoding="iso-8859-1"?>
<!-- Generator: Adobe Illustrator 21.0.2, SVG Export Plug-In . SVG Version: 6.00 Build 0)  -->
<svg version="1.1" id="Layer_1" xmlns="http://www.w3.org/2000/svg" xmlns:xlink="http://www.w3.org/1999/xlink" x="0px" y="0px"
	 viewBox="0 0 32 32" style="enable-background:new 0 0 32 32;" xml:space="preserve">
<path style="fill:none;stroke:#000000;stroke-width:2;stroke-miterlimit:10;" d="M28,29H4v-2c0,0,4.138-2,12-2s12,2,12,2V29z"/>
<polyline style="fill:none;stroke:#000000;stroke-width:2;stroke-miterlimit:10;" points="20.248,25.119 26,8.382 24.147,7.736 
	25.109,4.937 19.549,3 18.587,5.799 16.733,5.153 9.692,25.644 "/>
<path d="M17.136,13.8c-0.522-0.181-1.091,0.096-1.272,0.618l-0.654,1.89l1.89,0.654l0.654-1.89
	C17.934,14.55,17.658,13.98,17.136,13.8z"/>
<path d="M20.469,14.953c-0.522-0.181-1.091,0.096-1.272,0.618l-0.654,1.89l1.89,0.654l0.654-1.89
	C21.268,15.703,20.991,15.134,20.469,14.953z"/>
<path d="M15.664,18.052c-0.522-0.181-1.091,0.096-1.272,0.618l-0.654,1.89l1.89,0.654l0.654-1.89
	C16.463,18.803,16.186,18.233,15.664,18.052z"/>
<path d="M18.998,19.206c-0.522-0.181-1.091,0.096-1.272,0.618l-0.654,1.89l1.89,0.654l0.654-1.89
	C19.797,19.956,19.52,19.387,18.998,19.206z"/>
<path d="M18.607,9.547c-0.522-0.181-1.091,0.096-1.272,0.618l-0.654,1.89l1.89,0.654l0.654-1.89
	C19.406,10.297,19.129,9.728,18.607,9.547z"/>
<path d="M21.941,10.701c-0.522-0.181-1.091,0.096-1.272,0.618l-0.654,1.89l1.89,0.654l0.654-1.89
	C22.739,11.451,22.463,10.881,21.941,10.701z"/>
<line style="fill:none;stroke:#000000;stroke-width:2;stroke-miterlimit:10;" x1="24.147" y1="7.736" x2="18.587" y2="5.799"/>
</svg>
