<?xml version="1.0" encoding="iso-8859-1"?>
<!-- Generator: Adobe Illustrator 19.1.0, SVG Export Plug-In . SVG Version: 6.00 Build 0)  -->
<svg version="1.1" id="Layer_1" xmlns="http://www.w3.org/2000/svg" xmlns:xlink="http://www.w3.org/1999/xlink" x="0px" y="0px"
	 viewBox="0 0 32 32" style="enable-background:new 0 0 32 32;" xml:space="preserve">
<path style="fill:none;stroke:#000000;stroke-width:2;stroke-miterlimit:10;" d="M5.319,24l9.815-17
	c0.385-0.667,1.347-0.667,1.732,0l9.815,17c0.385,0.667-0.096,1.5-0.866,1.5H6.185C5.415,25.5,4.934,24.667,5.319,24z"/>
<g>
	<polygon points="15.982,19.397 15.676,18.888 17.116,16.511 16.26,15.992 14.641,18.663 	"/>
	<polygon points="14.025,18.326 15.566,15.747 14.706,15.233 13.146,17.844 	"/>
	<polygon points="15.262,20.144 15.456,20.468 15.456,23 16.458,23 16.458,20.799 	"/>
	<polygon points="12.819,18.806 12,23 13.02,23 13.741,19.311 	"/>
</g>
<circle cx="17.209" cy="13.738" r="1.252"/>
<path d="M17.934,23h4.03c0,0-1.254-3.004-1.765-3.004c-0.473,0-0.507,1.502-1.155,1.502C18.379,21.498,17.934,23,17.934,23z"/>
<path style="fill:none;stroke:#000000;stroke-miterlimit:10;" d="M17.195,19.951l-0.437-3.183c-0.044-0.324-0.244-0.605-0.535-0.754
	l-0.806-0.413c-0.141-0.072-0.298-0.11-0.457-0.11h-1.526c-0.162,0-0.315,0.079-0.408,0.211l-1.004,1.417l7.999,4.38"/>
</svg>
