<?xml version="1.0" encoding="iso-8859-1"?>
<!-- Generator: Adobe Illustrator 19.1.1, SVG Export Plug-In . SVG Version: 6.00 Build 0)  -->
<svg version="1.1" id="Layer_1" xmlns="http://www.w3.org/2000/svg" xmlns:xlink="http://www.w3.org/1999/xlink" x="0px" y="0px"
	 viewBox="0 0 32 32" style="enable-background:new 0 0 32 32;" xml:space="preserve">
<path style="fill:none;stroke:#000000;stroke-width:2;stroke-linejoin:round;stroke-miterlimit:10;" d="M21,17
	c0-1.733,1.394-4.989,2.327-4.989s2.667,1.867,2.667,5.333C25.994,21.077,24.6,27,17,27"/>
<path style="fill:none;stroke:#000000;stroke-width:2;stroke-miterlimit:10;" d="M4.604,3.841C4.604,3.841,7,5.733,7,10v13"/>
<path style="fill:none;stroke:#000000;stroke-width:2;stroke-miterlimit:10;" d="M7,9.467C7,7.6,9.6,4,10.667,4S14,8,14,9.467
	S14,23,14,23"/>
<path style="fill:none;stroke:#000000;stroke-width:2;stroke-miterlimit:10;" d="M14,9.467C14,7.6,16.267,4,17.333,4
	C18.4,4,21,8,21,9.467s0,7.6,0,10.267c0,4.512,6.383,8.495,6.383,8.495"/>
</svg>
