<?xml version="1.0" encoding="iso-8859-1"?>
<!-- Generator: Adobe Illustrator 21.0.0, SVG Export Plug-In . SVG Version: 6.00 Build 0)  -->
<svg version="1.1" id="Layer_1" xmlns="http://www.w3.org/2000/svg" xmlns:xlink="http://www.w3.org/1999/xlink" x="0px" y="0px"
	 viewBox="0 0 32 32" style="enable-background:new 0 0 32 32;" xml:space="preserve">
<path style="fill:none;stroke:#000000;stroke-width:2;stroke-miterlimit:10;" d="M29,15H3v9c0,0,0,1,1,1h9.041
	c0.428,0,0.768-0.576,0.959-1l1-3c0.168-0.372,0-1,1-1c1,0,0.832,0.628,1,1l1,3c0.192,0.424,0.532,1,0.959,1H28c1,0,1-1,1-1V15z"/>
<g>
	<path d="M12.406,18H6.46C6.208,18,6,18.174,6,18.388v3.211C6,21.801,6.233,22,6.471,22h5.027c0.232,0,0.384-0.25,0.473-0.401
		c0.425-0.816,0.546-1.72,0.997-3.092C13.057,18.27,12.989,18,12.406,18L12.406,18z"/>
</g>
<g>
	<path d="M25.54,18h-5.946c-0.582,0-0.65,0.27-0.562,0.507c0.452,1.372,0.572,2.277,0.997,3.092C20.118,21.75,20.27,22,20.502,22
		h5.027C25.767,22,26,21.801,26,21.599v-3.211C26,18.174,25.792,18,25.54,18L25.54,18z"/>
</g>
<g>
	<path d="M11,3C9,3,2,14,2,14h4c0,0,4-8,5-9c0,0.961,0,3,1,3c1.164,0,1-2,1-2C13,4.836,13,3,11,3L11,3z"/>
</g>
<g>
	<path d="M21.008,3c-2,0-2,1.836-2,3c0,0-0.164,2,1,2c1,0,1-2.039,1-3c1,1,5,9,5,9h4C30.008,14,23.008,3,21.008,3L21.008,3z"/>
</g>
</svg>
