<?xml version="1.0" encoding="iso-8859-1"?>
<!-- Generator: Adobe Illustrator 21.0.0, SVG Export Plug-In . SVG Version: 6.00 Build 0)  -->
<svg version="1.1" 
	 xmlns="http://www.w3.org/2000/svg" xmlns:xlink="http://www.w3.org/1999/xlink" x="0px" y="0px" viewBox="0 0 32 32"
	 style="enable-background:new 0 0 32 32;" xml:space="preserve">
<polygon style="fill:none;stroke:#000000;stroke-width:2;stroke-miterlimit:22.9256;" points="9.5,28 20,28 26,15.987 20,4 9.948,4 
	7,8.975 13.001,11.025 8.042,16.047 13,20.922 7,23 "/>
<polyline style="fill:none;stroke:#000000;stroke-width:2;stroke-miterlimit:22.9256;" points="7.001,8.975 15,8.975 15,23 7,23 "/>
<line style="fill:none;stroke:#000000;stroke-width:2;stroke-miterlimit:22.9256;" x1="20" y1="28" x2="15" y2="23"/>
<line style="fill:none;stroke:#000000;stroke-width:2;stroke-miterlimit:22.9256;" x1="26" y1="15.987" x2="15" y2="23"/>
<line style="fill:none;stroke:#000000;stroke-width:2;stroke-miterlimit:22.9256;" x1="13" y1="20.922" x2="26" y2="15.987"/>
<line style="fill:none;stroke:#000000;stroke-width:2;stroke-miterlimit:22.9256;" x1="20" y1="4" x2="15" y2="8.975"/>
<line style="fill:none;stroke:#000000;stroke-width:2;stroke-miterlimit:22.9256;" x1="15" y1="8.975" x2="26" y2="15.987"/>
<line style="fill:none;stroke:#000000;stroke-width:2;stroke-miterlimit:22.9256;" x1="13.001" y1="11.025" x2="26" y2="15.987"/>
<polygon points="15,8.975 26,15.987 6.633,8.975 "/>
<polygon points="7,23 26,15.987 15,23 "/>
</svg>
