<?xml version="1.0" encoding="iso-8859-1"?>
<!-- Generator: Adobe Illustrator 21.0.0, SVG Export Plug-In . SVG Version: 6.00 Build 0)  -->
<svg version="1.1" xmlns="http://www.w3.org/2000/svg" xmlns:xlink="http://www.w3.org/1999/xlink" x="0px" y="0px"
	 viewBox="0 0 32 32" style="enable-background:new 0 0 32 32;" xml:space="preserve">
<g id="Layer_1">
</g>
<g id="Layer_2">
	<polyline style="fill:none;stroke:#000000;stroke-width:2;stroke-linecap:round;" points="6,23 6,5 10,7 13,5 16,7 19,5 22,7 26,5 
		26,20 	"/>
	<line style="fill:none;stroke:#000000;stroke-width:2;stroke-linecap:round;" x1="25.531" y1="27" x2="9" y2="27"/>
	<line style="fill:none;stroke:#000000;stroke-width:2;stroke-miterlimit:6;" x1="9" y1="10.992" x2="14" y2="10.992"/>
	<line style="fill:none;stroke:#000000;stroke-width:2;stroke-miterlimit:6;" x1="9" y1="14.992" x2="12" y2="14.992"/>
	<line style="fill:none;stroke:#000000;stroke-width:2;stroke-miterlimit:6;" x1="21" y1="14.992" x2="23" y2="14.992"/>
	<line style="fill:none;stroke:#000000;stroke-width:2;stroke-miterlimit:6;" x1="16" y1="10.992" x2="23" y2="10.992"/>
	<line style="fill:none;stroke:#000000;stroke-width:2;stroke-miterlimit:6;" x1="14" y1="15" x2="19" y2="14.991"/>
	
		<ellipse style="fill:none;stroke:#000000;stroke-width:2;stroke-linejoin:round;stroke-miterlimit:6;" cx="8.5" cy="23.5" rx="2.5" ry="3.5"/>
	<path style="fill:none;stroke:#000000;stroke-width:2;stroke-linejoin:round;stroke-miterlimit:6;" d="M25.375,20
		C26.824,20,28,21.568,28,23.5S26.824,27,25.375,27"/>
	
		<line style="fill:none;stroke:#000000;stroke-width:2;stroke-linejoin:round;stroke-miterlimit:6;" x1="8.435" y1="20" x2="25.5" y2="20"/>
	<line style="fill:none;stroke:#000000;stroke-width:2;stroke-linecap:round;" x1="25.531" y1="27" x2="8.624" y2="27"/>
</g>
</svg>
