<?xml version="1.0" encoding="iso-8859-1"?>
<!-- Generator: Adobe Illustrator 21.0.2, SVG Export Plug-In . SVG Version: 6.00 Build 0)  -->
<svg version="1.1" id="Layer_1" xmlns="http://www.w3.org/2000/svg" xmlns:xlink="http://www.w3.org/1999/xlink" x="0px" y="0px"
	 viewBox="0 0 32 32" style="enable-background:new 0 0 32 32;" xml:space="preserve">
<polyline style="fill:none;stroke:#000000;stroke-width:2;stroke-miterlimit:10;" points="19,4 19,10 25,10 "/>
<g>
	<polygon points="16,13 19,14 21,18 16,18 	"/>
</g>
<path d="M17.38,21.74C16.948,21.9,16.487,22,16,22c-2.206,0-4-1.794-4-4s1.794-4,4-4s4,1.794,4,4c0,0.096-0.022,0.187-0.028,0.281
	c0.6-0.423,1.266-0.757,1.985-0.976C21.61,14.323,19.073,12,16,12c-3.309,0-6,2.691-6,6s2.691,6,6,6
	c0.343,0,0.677-0.035,1.005-0.091C17.014,23.15,17.147,22.422,17.38,21.74z"/>
<path d="M17.683,27H8V5h10.586L24,10.414V17c0.695,0,1.366,0.105,2,0.294V9.586L19.414,3H6v26h13.106
	C18.52,28.426,18.039,27.749,17.683,27z"/>
<path d="M24,32c-4.4,0-8-3.6-8-8s3.6-8,8-8s8,3.6,8,8S28.4,32,24,32z M24,18c-3.3,0-6,2.7-6,6s2.7,6,6,6s6-2.7,6-6S27.3,18,24,18z
	 M28,23h-3v-3h-2v3h-3v2h3v3h2v-3h3V23z"/>
</svg>
