<?xml version="1.0" encoding="iso-8859-1"?>
<!-- Generator: Adobe Illustrator 19.1.0, SVG Export Plug-In . SVG Version: 6.00 Build 0)  -->
<svg version="1.1" id="Layer_1" xmlns="http://www.w3.org/2000/svg" xmlns:xlink="http://www.w3.org/1999/xlink" x="0px" y="0px"
	 viewBox="0 0 32 32" style="enable-background:new 0 0 32 32;" xml:space="preserve">
<line style="fill:none;stroke:#000000;stroke-width:2;stroke-miterlimit:10;" x1="18" y1="22" x2="31" y2="22"/>
<path style="fill:none;stroke:#000000;stroke-width:2;stroke-miterlimit:10;" d="M26.557,19c0.031-0.111,0.079-0.216,0.107-0.328
	C25.681,18.18,25,17.174,25,16c0-1.174,0.681-2.18,1.663-2.672c-0.243-0.968-0.613-1.92-1.137-2.828
	c-0.524-0.907-1.163-1.704-1.88-2.398c-0.918,0.604-2.129,0.691-3.146,0.104c-1.017-0.587-1.547-1.68-1.483-2.777
	c-1.942-0.554-4.03-0.57-6.034,0.004c0.063,1.096-0.468,2.187-1.483,2.773c-1.015,0.586-2.225,0.5-3.143-0.102
	c-1.499,1.449-2.529,3.265-3.02,5.224C6.319,13.82,7,14.826,7,16c0,1.174-0.681,2.18-1.663,2.672
	c0.243,0.968,0.613,1.92,1.137,2.828c0.524,0.907,1.164,1.704,1.881,2.399c0.918-0.604,2.129-0.691,3.146-0.104
	c1.017,0.587,1.547,1.679,1.483,2.776c1.616,0.461,3.331,0.525,5.017,0.211"/>
<path style="fill:none;stroke:#000000;stroke-width:2;stroke-miterlimit:10;" d="M19.977,19C20.61,18.162,21,17.131,21,16
	c0-2.761-2.239-5-5-5s-5,2.239-5,5s2.239,5,5,5c0.712,0,1.387-0.154,2-0.422"/>
<rect x="18" y="19" style="fill:none;stroke:#000000;stroke-width:2;stroke-miterlimit:10;" width="13" height="12"/>
<polyline style="fill:none;stroke:#000000;stroke-width:2;stroke-miterlimit:10;" points="22,25.5 24,27.5 27,24.5 "/>
</svg>
