<?xml version="1.0" encoding="iso-8859-1"?>
<!-- Generator: Adobe Illustrator 22.1.0, SVG Export Plug-In . SVG Version: 6.00 Build 0)  -->
<svg version="1.1" id="Layer_1_1_" xmlns="http://www.w3.org/2000/svg" xmlns:xlink="http://www.w3.org/1999/xlink" x="0px" y="0px"
	 viewBox="0 0 32 32" style="enable-background:new 0 0 32 32;" xml:space="preserve">
<circle style="fill:none;stroke:#000000;stroke-width:2;stroke-miterlimit:10;" cx="16" cy="16" r="4"/>
<circle style="fill:none;stroke:#000000;stroke-width:2;stroke-miterlimit:10;" cx="26.5" cy="23.5" r="4.5"/>
<line style="fill:none;stroke:#000000;stroke-width:2;stroke-miterlimit:10;" x1="19" y1="31" x2="23.2" y2="26.8"/>
<path d="M19.335,26.422l0.091-0.455C19.15,25.179,19,24.349,19,23.5c0-0.031,0.004-0.062,0.005-0.093
	c-0.205,0.083-0.41,0.167-0.622,0.233l-0.566,0.177L17.18,27H14.82l-0.637-3.185l-0.566-0.177c-1.121-0.35-2.14-0.942-3.027-1.76
	l-0.437-0.402l-3.089,1.045l-1.18-2.044l2.442-2.147l-0.129-0.578C8.066,17.161,8,16.571,8,16s0.066-1.161,0.198-1.752l0.129-0.578
	l-2.442-2.147l1.18-2.044l3.089,1.044l0.437-0.402c0.888-0.818,1.906-1.41,3.027-1.76l0.566-0.177L14.82,5h2.359l0.637,3.185
	l0.566,0.177c1.121,0.35,2.14,0.942,3.027,1.76l0.437,0.402l3.089-1.045l1.18,2.044l-2.442,2.147l0.129,0.578
	C23.934,14.839,24,15.429,24,16c0,0.147-0.017,0.298-0.026,0.447c0.64-0.23,1.318-0.374,2.025-0.422C25.999,16.017,26,16.008,26,16
	c0-0.525-0.045-1.06-0.133-1.597l2.801-2.461l-2.82-4.884L22.31,8.255c-0.833-0.681-1.771-1.226-2.761-1.604L18.82,3H13.18
	l-0.729,3.648c-0.998,0.379-1.923,0.917-2.762,1.605L6.152,7.058l-2.82,4.884l2.801,2.461C6.045,14.94,6,15.475,6,16
	s0.045,1.06,0.133,1.597l-2.801,2.461l2.82,4.884l3.538-1.197c0.833,0.681,1.771,1.226,2.761,1.604L13.18,29h3.578L19.335,26.422z"
	/>
</svg>
