<?xml version="1.0" encoding="iso-8859-1"?>
<!-- Generator: Adobe Illustrator 19.1.0, SVG Export Plug-In . SVG Version: 6.00 Build 0)  -->
<svg version="1.1" id="Layer_1" xmlns="http://www.w3.org/2000/svg" xmlns:xlink="http://www.w3.org/1999/xlink" x="0px" y="0px"
	 viewBox="0 0 32 32" style="enable-background:new 0 0 32 32;" xml:space="preserve">
<path style="fill:none;stroke:#000000;stroke-width:2;stroke-miterlimit:10;" d="M13.412,14.054c0,0-1.157-2.054-3.209-2.054
	C8.017,12,7,13.578,7,15.052c0,0-2,1.422-2,4.948c0,3.858,3.184,7,7,7s6.47-4.486,6.47-4.486c1.863-1.514,5.036-1.719,6.684-2.68
	C26.253,19.181,27,17.67,27,16.483C27,15.832,26.665,15,26.665,15c-2.206,0-3.67,2.266-4.54,2.632
	c-1.785,0.732-2.784,0.773-4.478,1.094c-3.933,0.81-4.078,2.059-5.647,0.921v-0.342c1.484-0.352,1.762-2.03,3.22-2.513
	c2.874-0.953,3.59-1.826,4.368-3.703c0,0,2.569-0.404,3.749-3.231C24.306,9.512,25,8.587,25,7.5C25,6.119,23.881,5,22.5,5
	c-1.179,0-2.16,0.818-2.424,1.916c-2.673,2.343-5.791,4.837-8.613,5.45"/>
<circle cx="10" cy="15" r="1"/>
<polygon points="24.753,9.483 23.222,9.806 22.9,11.377 25.519,12.143 "/>
<path d="M24.035,15.942l1.237-0.501c0.057-0.023,0.111-0.053,0.161-0.089l0.934-0.668l-2.274-1.508L24.035,15.942z"/>
<polygon points="22.12,11.748 20.568,11.945 20.119,13.485 22.667,14.46 "/>
<polygon points="19.743,13.843 18.191,14.04 17.742,15.58 20.29,16.556 "/>
</svg>
