<?xml version="1.0" encoding="iso-8859-1"?>
<!-- Generator: Adobe Illustrator 19.1.0, SVG Export Plug-In . SVG Version: 6.00 Build 0)  -->
<svg version="1.1" id="Layer_1" xmlns="http://www.w3.org/2000/svg" xmlns:xlink="http://www.w3.org/1999/xlink" x="0px" y="0px"
	 viewBox="0 0 32 32" style="enable-background:new 0 0 32 32;" xml:space="preserve">
<rect x="3" y="7" style="fill:none;stroke:#000000;stroke-width:2;stroke-miterlimit:10;" width="26" height="18"/>
<path d="M16.076,19.281h-1.719l-0.498-1.558h-2.49l-0.493,1.558H9.167l2.549-7.002h1.87L16.076,19.281z M13.498,16.513l-0.752-2.354
	c-0.055-0.176-0.094-0.386-0.117-0.63h-0.039c-0.016,0.205-0.057,0.408-0.122,0.61l-0.762,2.373H13.498z"/>
<path d="M18.341,19.281h-1.543v-7.402h1.543V19.281z"/>
<path d="M22.663,19.223c-0.228,0.12-0.571,0.181-1.03,0.181c-1.087,0-1.631-0.564-1.631-1.694v-2.29h-0.811v-1.138h0.811v-1.079
	l1.538-0.439v1.519h1.123v1.138H21.54v2.021c0,0.521,0.207,0.781,0.62,0.781c0.163,0,0.331-0.047,0.503-0.142V19.223z"/>
</svg>
