<?xml version="1.0" encoding="iso-8859-1"?>
<!-- Generator: Adobe Illustrator 19.1.1, SVG Export Plug-In . SVG Version: 6.00 Build 0)  -->
<svg version="1.1" id="Layer_1" xmlns="http://www.w3.org/2000/svg" xmlns:xlink="http://www.w3.org/1999/xlink" x="0px" y="0px"
	 viewBox="0 0 32 32" style="enable-background:new 0 0 32 32;" xml:space="preserve">
<path style="fill-rule:evenodd;clip-rule:evenodd;" d="M18.071,15.047c0,1.348,0.032,2.471-0.647,3.67
	c-0.55,0.974-1.424,1.572-2.395,1.572c-1.327,0-2.103-1.011-2.103-2.508c0-2.946,2.643-3.483,5.146-3.483V15.047z M21.558,23.482
	c-0.229,0.205-0.559,0.219-0.817,0.081c-1.149-0.956-1.355-1.397-1.983-2.306c-1.899,1.935-3.244,2.515-5.704,2.515
	c-2.913,0-5.178-1.798-5.178-5.392c0-2.809,1.521-4.718,3.689-5.655c1.877-0.824,4.499-0.973,6.505-1.198v-0.449
	c0-0.824,0.065-1.798-0.421-2.509c-0.421-0.637-1.23-0.899-1.942-0.899c-1.319,0-2.493,0.676-2.781,2.078
	c-0.06,0.312-0.287,0.62-0.601,0.636L8.973,10.02C8.69,9.956,8.375,9.729,8.457,9.297C9.227,5.229,12.901,4,16.193,4
	c1.683,0,3.883,0.449,5.211,1.723c1.683,1.572,1.521,3.67,1.521,5.954v5.39c0,1.621,0.673,2.332,1.306,3.206
	c0.221,0.315,0.27,0.689-0.011,0.919c-0.706,0.593-1.962,1.683-2.653,2.298L21.558,23.482z"/>
<g>
	<path style="fill-rule:evenodd;clip-rule:evenodd;" d="M26.113,24.901C23.372,26.924,19.397,28,15.975,28
		c-4.796,0-9.115-1.773-12.384-4.724c-0.257-0.232-0.028-0.549,0.281-0.369c3.526,2.052,7.887,3.288,12.391,3.288
		c3.038,0,6.378-0.63,9.451-1.934C26.178,24.064,26.566,24.566,26.113,24.901z"/>
	<path style="fill-rule:evenodd;clip-rule:evenodd;" d="M27.254,23.599c-0.351-0.449-2.318-0.213-3.201-0.107
		c-0.268,0.032-0.309-0.201-0.068-0.371c1.569-1.102,4.14-0.784,4.439-0.415c0.301,0.373-0.079,2.95-1.549,4.18
		c-0.226,0.189-0.441,0.088-0.341-0.161C26.864,25.898,27.605,24.048,27.254,23.599z"/>
</g>
</svg>
