<?xml version="1.0" encoding="iso-8859-1"?>
<!-- Generator: Adobe Illustrator 19.1.0, SVG Export Plug-In . SVG Version: 6.00 Build 0)  -->
<svg version="1.1" id="Layer_1" xmlns="http://www.w3.org/2000/svg" xmlns:xlink="http://www.w3.org/1999/xlink" x="0px" y="0px"
	 viewBox="0 0 32 32" style="enable-background:new 0 0 32 32;" xml:space="preserve">
<path style="fill:none;stroke:#000000;stroke-width:2;stroke-miterlimit:10;" d="M21,3v2c0,1.105-0.895,2-2,2h-1"/>
<path style="fill:none;stroke:#000000;stroke-width:2;stroke-miterlimit:10;" d="M16,6c0.943,0,3,1.154,3,3.6
	c0,1.754-1.329,2.4-3,2.4s-3-0.646-3-2.4C13,6.969,15.057,6,16,6z"/>
<path d="M19,7.667C19,4.867,17,4,17,4v2.2L19,7.667z"/>
<g>
	<polyline style="fill:none;stroke:#000000;stroke-width:2;stroke-miterlimit:10;" points="19,13 23,12 25,7 	"/>
	<polyline style="fill:none;stroke:#000000;stroke-width:2;stroke-miterlimit:10;" points="20,16 24,15 27,18 	"/>
	<polyline style="fill:none;stroke:#000000;stroke-width:2;stroke-miterlimit:10;" points="19,18 24,20 26,27 	"/>
</g>
<path style="fill:none;stroke:#000000;stroke-width:2;stroke-miterlimit:10;" d="M14,7h-1c-1.105,0-2-0.895-2-2V3"/>
<g>
	<polyline style="fill:none;stroke:#000000;stroke-width:2;stroke-miterlimit:10;" points="7,7 9,12 13,13 	"/>
	<polyline style="fill:none;stroke:#000000;stroke-width:2;stroke-miterlimit:10;" points="5,18 8,15 12,16 	"/>
	<polyline style="fill:none;stroke:#000000;stroke-width:2;stroke-miterlimit:10;" points="6,27 8,20 13,18 	"/>
</g>
<path d="M15,4v2.2l-2,1.533C13,4.867,15,4,15,4"/>
<path style="fill:none;stroke:#000000;stroke-width:2;stroke-miterlimit:10;" d="M16.035,19C19.45,19,20,17.134,20,15.429
	C20,12.914,18.229,12,16,12s-4,0.914-4,3.429C12,17.134,12.62,19,16.035,19z"/>
<path style="fill:none;stroke:#000000;stroke-width:2;stroke-miterlimit:10;" d="M12,22.158C12,20.011,15.486,19,16,19
	c0.514,0,4,1.011,4,3.158S18.222,27,16,27S12,24.305,12,22.158z"/>
</svg>
