<?xml version="1.0" encoding="iso-8859-1"?>
<!-- Generator: Adobe Illustrator 19.1.1, SVG Export Plug-In . SVG Version: 6.00 Build 0)  -->
<svg version="1.1" id="Layer_1" xmlns="http://www.w3.org/2000/svg" xmlns:xlink="http://www.w3.org/1999/xlink" x="0px" y="0px"
	 viewBox="0 0 32 32" style="enable-background:new 0 0 32 32;" xml:space="preserve">
<path style="fill:none;stroke:#000000;stroke-width:2;stroke-miterlimit:10;" d="M10.893,6.838C12.118,5.682,12.981,2,12.981,2
	h6.191c0,0,0.975,3.655,2.26,4.825"/>
<path style="fill:none;stroke:#000000;stroke-width:2;stroke-miterlimit:10;" d="M21,7H11c-1.65,0-3,1.35-3,3v12c0,1.65,1.35,3,3,3
	h10c1.65,0,3-1.35,3-3V10C24,8.35,22.65,7,21,7z"/>
<path style="fill:none;stroke:#000000;stroke-width:2;stroke-miterlimit:10;" d="M10.693,25.162C11.918,26.318,12.781,30,12.781,30
	h6.391c0,0,0.775-3.655,2.06-4.825"/>
<line style="fill:none;stroke:#000000;stroke-width:2;stroke-miterlimit:10;" x1="25" y1="11" x2="25" y2="15"/>
</svg>
