<?xml version="1.0" encoding="iso-8859-1"?>
<!-- Generator: Adobe Illustrator 19.1.0, SVG Export Plug-In . SVG Version: 6.00 Build 0)  -->
<svg version="1.1" id="Layer_1" xmlns="http://www.w3.org/2000/svg" xmlns:xlink="http://www.w3.org/1999/xlink" x="0px" y="0px"
	 viewBox="0 0 32 32" style="enable-background:new 0 0 32 32;" xml:space="preserve">
<path style="fill:none;stroke:#000000;stroke-width:2;stroke-miterlimit:10;" d="M10,21l-1,3.667c0,0,2.456,2.333,7,2.333
	s7-2.333,7-2.333L22,21"/>
<path style="fill:none;stroke:#000000;stroke-width:2;stroke-miterlimit:10;" d="M19,5c0,0-1.047,2-3,2s-3-2-3-2h-0.1l-1.445,1
	c0,0,0.001,2.887,4.545,4.716C20.539,8.873,20.545,6,20.545,6L19.1,5H19z"/>
<path style="fill:none;stroke:#000000;stroke-width:2;stroke-miterlimit:10;" d="M20.545,6C24.395,6,26,9,26,9
	c-1.291,1.153-2.385,2.614-3,4c-1.458,0-4.254-0.666-5-3.474"/>
<path style="fill:none;stroke:#000000;stroke-width:2;stroke-miterlimit:10;" d="M25,9.997c0,0,2,1.736,2,4.683
	c0,0-1.29,1.32-4,1.32"/>
<path style="fill:none;stroke:#000000;stroke-width:2;stroke-miterlimit:10;" d="M11.455,6C7.605,6,6,9,6,9
	c1.291,1.153,2.385,2.614,3,4c1.458,0,4.254-0.666,5-3.474"/>
<path style="fill:none;stroke:#000000;stroke-width:2;stroke-miterlimit:10;" d="M7,9.997c0,0-2,1.736-2,4.683c0,0,1.29,1.32,4,1.32
	"/>
<path style="fill:none;stroke:#000000;stroke-width:2;stroke-miterlimit:10;" d="M9.164,13.149C8.472,17.47,10,21,10,21s2.203,2,6,2
	s6-2,6-2s1.525-3.71,0.803-8"/>
</svg>
