<?xml version="1.0" encoding="iso-8859-1"?>
<!-- Generator: Adobe Illustrator 19.1.0, SVG Export Plug-In . SVG Version: 6.00 Build 0)  -->
<svg version="1.1" id="Layer_1" xmlns="http://www.w3.org/2000/svg" xmlns:xlink="http://www.w3.org/1999/xlink" x="0px" y="0px"
	 viewBox="0 0 32 32" style="enable-background:new 0 0 32 32;" xml:space="preserve">
<path style="fill:none;stroke:#000000;stroke-width:2;stroke-miterlimit:10;" d="M16,19c0,0-1.317-2.633-1.317-2.633
	C14.265,15.529,13.409,15,12.472,15h0C11.107,15,10,16.107,10,17.472v0.292c0,0.778,0.366,1.511,0.989,1.978L14,22v6l-8-2l1-4
	c0,0-1-2.966-1-6C6,7.985,16,4,16,4c0,0,10,3.985,10,12c0,3.034-1,6-1,6l1,4l-8,2v-6l3.011-2.258c0.622-0.467,0.989-1.2,0.989-1.978
	v-0.292C22,16.107,20.893,15,19.528,15h0c-0.936,0-1.792,0.529-2.211,1.367C17.317,16.367,16,19,16,19z"/>
<circle cx="16" cy="11" r="1"/>
<circle cx="20" cy="11" r="1"/>
<circle cx="24" cy="11" r="1"/>
<circle cx="12" cy="11" r="1"/>
<circle cx="8" cy="11" r="1"/>
<path style="fill:none;stroke:#000000;stroke-width:2;stroke-miterlimit:10;" d="M14,26.072C14.637,26.028,15.29,26,15.93,26
	c0.687,0,1.389,0.032,2.07,0.082"/>
</svg>
