<?xml version="1.0" encoding="iso-8859-1"?>
<!-- Generator: Adobe Illustrator 19.1.0, SVG Export Plug-In . SVG Version: 6.00 Build 0)  -->
<svg version="1.1" id="Layer_1" xmlns="http://www.w3.org/2000/svg" xmlns:xlink="http://www.w3.org/1999/xlink" x="0px" y="0px"
	 viewBox="0 0 32 32" style="enable-background:new 0 0 32 32;" xml:space="preserve">
<path style="fill:none;stroke:#000000;stroke-width:2;stroke-miterlimit:10;" d="M19,5C13.859,5,7,8,7,8
	c0,6.663-0.369,8.862-1,9.991L10,20c0,0.174,0,0.826,0,1c0,1.104,0.896,2,2,2s2-0.896,2-2c0-0.174,0-0.826,0-1l4.818-2.273
	c0,0-0.818-1.1-0.818-2.273C18,12.826,19,5,19,5z"/>
<path style="fill:none;stroke:#000000;stroke-width:2;stroke-miterlimit:10;" d="M20,27c0-3.778,3.364-6,3.364-6"/>
<line style="fill:none;stroke:#000000;stroke-width:2;stroke-miterlimit:10;" x1="7" y1="11" x2="10" y2="11"/>
<line style="fill:none;stroke:#000000;stroke-width:2;stroke-miterlimit:10;" x1="7" y1="15" x2="10" y2="15"/>
<path d="M27.382,24.003l-0.029-0.107c-0.586-1.758-2.003-3.104-3.788-3.6l-2.761-0.767l-2.747,1.312l4.972,1.381
	c1.127,0.313,2.023,1.155,2.409,2.257L25.764,26H7.312C7.169,25.498,7,24.659,7,23.5c0-0.724,0.12-1.441,0.272-2.072L5.445,20.51
	C5.208,21.367,5,22.412,5,23.5c0,2.479,0.647,3.813,0.722,3.957L6.001,28h22.235L27.382,24.003z"/>
</svg>
