<?xml version="1.0" encoding="iso-8859-1"?>
<!-- Generator: Adobe Illustrator 19.1.0, SVG Export Plug-In . SVG Version: 6.00 Build 0)  -->
<svg version="1.1" id="Layer_1" xmlns="http://www.w3.org/2000/svg" xmlns:xlink="http://www.w3.org/1999/xlink" x="0px" y="0px"
	 viewBox="0 0 32 32" style="enable-background:new 0 0 32 32;" xml:space="preserve">
<path style="fill:none;stroke:#000000;stroke-width:2;stroke-linejoin:round;stroke-miterlimit:10;" d="M17,26c2.2,0,4-1.8,4-4
	c0-3,3-4.1,3-9c0-3.9-3.1-7-7-7s-7,3.1-7,7"/>
<path style="fill:none;stroke:#000000;stroke-width:2;stroke-miterlimit:10;" d="M25.7,8.1c-0.8-1.4-1.9-2.5-3.2-3.4"/>
<path style="fill:none;stroke:#000000;stroke-width:2;stroke-miterlimit:10;" d="M28.3,6.6c-1-1.8-2.4-3.3-4.1-4.4"/>
<path style="fill:none;stroke:#000000;stroke-width:2;stroke-linejoin:round;stroke-miterlimit:10;" d="M13,13c0-2.2,1.8-4,4-4
	s4,1.8,4,4"/>
<circle cx="17" cy="14" r="1"/>
<circle cx="14" cy="17" r="1"/>
<circle cx="8" cy="23" r="1"/>
<circle cx="5" cy="26" r="1"/>
<rect x="10.185" y="17.965" transform="matrix(-0.7071 0.7071 -0.7071 -0.7071 32.9552 26.2786)" width="1.7" height="4"/>
</svg>
