<?xml version="1.0" encoding="iso-8859-1"?>
<!-- Generator: Adobe Illustrator 19.1.1, SVG Export Plug-In . SVG Version: 6.00 Build 0)  -->
<svg version="1.1" id="Layer_1" xmlns="http://www.w3.org/2000/svg" xmlns:xlink="http://www.w3.org/1999/xlink" x="0px" y="0px"
	 viewBox="0 0 32 32" style="enable-background:new 0 0 32 32;" xml:space="preserve">
<path style="fill:none;stroke:#000000;stroke-width:2;stroke-miterlimit:10;" d="M8.308,9.609C10.142,7.404,12.907,6,16,6
	c2.996,0,5.684,1.318,7.517,3.405"/>
<line style="fill:none;stroke:#000000;stroke-width:2;stroke-miterlimit:10;" x1="16" y1="1" x2="16" y2="6"/>
<path d="M16,31L16,31c-0.552,0-1-0.448-1-1v0c0-0.552,0.448-1,1-1h0c0.552,0,1,0.448,1,1v0C17,30.552,16.552,31,16,31z"/>
<path d="M16,27L16,27c-0.552,0-1-0.448-1-1v0c0-0.552,0.448-1,1-1h0c0.552,0,1,0.448,1,1v0C17,26.552,16.552,27,16,27z"/>
<path d="M6,17L6,17c-0.552,0-1-0.448-1-1v0c0-0.552,0.448-1,1-1h0c0.552,0,1,0.448,1,1v0C7,16.552,6.552,17,6,17z"/>
<path d="M26,17L26,17c-0.552,0-1-0.448-1-1v0c0-0.552,0.448-1,1-1h0c0.552,0,1,0.448,1,1v0C27,16.552,26.552,17,26,17z"/>
<path d="M22.364,23.778L22.364,23.778c-0.391-0.391-0.391-1.024,0-1.414l0,0c0.391-0.391,1.024-0.39,1.414,0l0,0
	c0.39,0.391,0.39,1.024,0,1.414l0,0C23.388,24.169,22.755,24.169,22.364,23.778z"/>
<path d="M8.222,23.778L8.222,23.778c-0.39-0.39-0.39-1.023,0-1.414l0,0c0.39-0.391,1.024-0.391,1.414,0h0
	c0.39,0.39,0.39,1.023,0,1.414l0,0C9.245,24.169,8.612,24.169,8.222,23.778z"/>
<path d="M5.838,20.211L5.838,20.211c-0.211-0.51,0.031-1.095,0.541-1.307l0,0c0.51-0.211,1.095,0.031,1.306,0.541l0,0
	c0.211,0.51-0.031,1.095-0.541,1.306l0,0C6.634,20.963,6.049,20.721,5.838,20.211z"/>
<path d="M11.808,26.17L11.808,26.17c-0.511-0.211-0.755-0.795-0.544-1.306l0,0c0.211-0.51,0.795-0.754,1.306-0.543l0.001,0
	c0.511,0.211,0.754,0.795,0.543,1.306l0,0C12.903,26.137,12.319,26.381,11.808,26.17z"/>
<path d="M6.293,13.399L6.293,13.399c-0.517-0.196-0.777-0.772-0.582-1.289l0,0C5.906,11.593,6.483,11.332,7,11.528l0.001,0
	c0.516,0.195,0.777,0.772,0.582,1.289l0,0C7.387,13.334,6.81,13.594,6.293,13.399z"/>
<path d="M22.364,23.778L22.364,23.778c-0.391-0.391-0.391-1.024,0-1.414l0,0c0.391-0.391,1.024-0.39,1.414,0l0,0
	c0.39,0.391,0.39,1.024,0,1.414l0,0C23.388,24.169,22.755,24.169,22.364,23.778z"/>
<path d="M24.856,20.752L24.856,20.752c-0.51-0.211-0.753-0.796-0.541-1.307l0,0c0.211-0.51,0.796-0.752,1.306-0.541l0,0
	c0.51,0.211,0.752,0.796,0.541,1.306l0,0C25.951,20.721,25.366,20.963,24.856,20.752z"/>
<path d="M18.886,25.627L18.886,25.627c-0.211-0.511,0.032-1.096,0.543-1.306l0.001,0c0.51-0.211,1.095,0.033,1.306,0.543l0,0
	c0.211,0.511-0.033,1.095-0.543,1.306l-0.001,0C19.681,26.381,19.097,26.137,18.886,25.627z"/>
<path d="M24.418,12.817L24.418,12.817C24.223,12.3,24.483,11.723,25,11.528l0.001,0c0.517-0.195,1.094,0.065,1.289,0.582l0,0
	c0.195,0.516-0.065,1.093-0.582,1.289l-0.001,0C25.19,13.594,24.613,13.334,24.418,12.817z"/>
<line style="fill:none;stroke:#000000;stroke-width:2;stroke-miterlimit:10;" x1="26.607" y1="5.393" x2="23.071" y2="8.929"/>
<path d="M5.394,26.606L5.394,26.606c-0.39-0.39-0.39-1.024,0-1.414h0c0.39-0.39,1.024-0.39,1.414,0h0c0.39,0.39,0.39,1.024,0,1.414
	h0C6.417,26.997,5.784,26.997,5.394,26.606z"/>
<line style="fill:none;stroke:#000000;stroke-width:2;stroke-miterlimit:10;" x1="5.393" y1="5.393" x2="8.929" y2="8.929"/>
<path d="M25.192,26.606L25.192,26.606c-0.39-0.39-0.39-1.024,0-1.414l0,0c0.39-0.39,1.024-0.39,1.414,0l0,0
	c0.39,0.39,0.39,1.024,0,1.414l0,0C26.216,26.997,25.583,26.997,25.192,26.606z"/>
<path d="M2,17L2,17c-0.552,0-1-0.448-1-1v0c0-0.552,0.448-1,1-1h0c0.552,0,1,0.448,1,1v0C3,16.552,2.552,17,2,17z"/>
<path d="M30,17L30,17c-0.552,0-1-0.448-1-1v0c0-0.552,0.448-1,1-1h0c0.552,0,1,0.448,1,1v0C31,16.552,30.552,17,30,17z"/>
<line style="fill:none;stroke:#000000;stroke-width:2;stroke-miterlimit:10;" x1="2" y1="10" x2="30" y2="10"/>
<path id="XMLID_59_" style="fill:none;stroke:#000000;stroke-width:2;stroke-miterlimit:10;" d="M15,15.5c0-0.828,0.672-1.5,1.5-1.5
	h0c0.828,0,1.5,0.672,1.5,1.5"/>
<path id="XMLID_58_" style="fill:none;stroke:#000000;stroke-width:2;stroke-miterlimit:10;" d="M18,15.5c0,0.828-0.672,1.5-1.5,1.5
	h0c-0.828,0-1.5-0.672-1.5-1.5"/>
<path id="XMLID_57_" style="fill:none;stroke:#000000;stroke-width:2;stroke-miterlimit:10;" d="M15,18.5c0-0.828,0.672-1.5,1.5-1.5
	h0c0.828,0,1.5,0.672,1.5,1.5"/>
<path id="XMLID_56_" style="fill:none;stroke:#000000;stroke-width:2;stroke-miterlimit:10;" d="M18,18.5c0,0.828-0.672,1.5-1.5,1.5
	h0c-0.828,0-1.5-0.672-1.5-1.5"/>
<line id="XMLID_1_" style="fill:none;stroke:#000000;stroke-width:2;stroke-miterlimit:10;" x1="12" y1="21" x2="12" y2="13"/>
<path style="fill:none;stroke:#000000;stroke-width:2;stroke-miterlimit:10;" d="M7.999,10C9.824,7.571,12.728,6,16,6
	c3.272,0,6.177,1.572,8.002,4.001"/>
<circle cx="21" cy="14" r="1"/>
</svg>
