<?xml version="1.0" encoding="iso-8859-1"?>
<!-- Generator: Adobe Illustrator 19.2.0, SVG Export Plug-In . SVG Version: 6.00 Build 0)  -->
<svg version="1.1" id="Layer_1" xmlns="http://www.w3.org/2000/svg" xmlns:xlink="http://www.w3.org/1999/xlink" x="0px" y="0px"
	 viewBox="0 0 32 32" style="enable-background:new 0 0 32 32;" xml:space="preserve">
<path style="fill:none;stroke:#000000;stroke-width:2;stroke-miterlimit:10;" d="M16,27L16,27c0-1.657,1.343-3,3-3h12V7H19
	c-1.657,0-3,1.343-3,3v0"/>
<path style="fill:none;stroke:#000000;stroke-width:2;stroke-miterlimit:10;" d="M16,10L16,10c0-1.657-1.343-3-3-3H1v17h12
	c1.657,0,3,1.343,3,3v0"/>
<path d="M15,17c-0.174,0-0.826,0-1,0c-1.105,0-2,0.895-2,2c0,1.105,0.895,2,2,2c0.174,0,0.826,0,1,0c1.105,0,2-0.895,2-2
	C17,17.895,16.105,17,15,17z"/>
<polyline style="fill:none;stroke:#000000;stroke-width:2;stroke-miterlimit:10;" points="16,19 16,13 19,13 "/>
</svg>
