<?xml version="1.0" encoding="iso-8859-1"?>
<!-- Generator: Adobe Illustrator 19.1.1, SVG Export Plug-In . SVG Version: 6.00 Build 0)  -->
<svg version="1.1" id="Layer_1" xmlns="http://www.w3.org/2000/svg" xmlns:xlink="http://www.w3.org/1999/xlink" x="0px" y="0px"
	 viewBox="0 0 32 32" style="enable-background:new 0 0 32 32;" xml:space="preserve">
<path style="fill:none;stroke:#000000;stroke-width:2;stroke-miterlimit:10;" d="M13,10V8.77c0-4.472,1.202-6.098,3.365-6.683
	C17.951,1.658,20,2.919,20,5.978V8"/>
<path d="M18.667,21.674c0.177,0.743,0.951,1.079,1.728,0.751c0.777-0.328,1.263-1.195,1.085-1.938L18.667,21.674z"/>
<path style="fill:none;stroke:#000000;stroke-width:2;stroke-miterlimit:10;" d="M8.487,11.951c0,0,2.724-0.396,3.473,2.811
	c0.728,3.117,1.081,8.572,1.081,8.572s3.261-0.877,8.289-3.164C23.863,19.018,26.875,17,26.875,17s-1.067-5.039-1.944-7.49
	c-0.881-2.463-2.827-2.685-4.163-2.267c-0.786,0.246-10.817,3.98-10.817,3.98c-1.194,0.562-2.236,0.466-2.563,3.452L6,27
	c1.974,1.819,6,3,6,3l14-7c0-2.53,0-5,0-5"/>
<line style="fill:none;stroke:#000000;stroke-width:2;stroke-miterlimit:10;" x1="12" y1="30" x2="12" y2="15"/>
<path d="M14,10c0,0.542,0,0.966,0,1.334S13.552,12,13,12s-1-0.298-1-0.666s0-0.75,0-1.334"/>
<path d="M21,7c0,0.417,0,1.224,0,1.5S20.552,9,20,9s-1-0.224-1-0.5s0-0.875,0-1.5H21z"/>
</svg>
