<?xml version="1.0" encoding="iso-8859-1"?>
<!-- Generator: Adobe Illustrator 19.1.1, SVG Export Plug-In . SVG Version: 6.00 Build 0)  -->
<svg version="1.1" id="Layer_1" xmlns="http://www.w3.org/2000/svg" xmlns:xlink="http://www.w3.org/1999/xlink" x="0px" y="0px"
	 viewBox="0 0 32 32" style="enable-background:new 0 0 32 32;" xml:space="preserve">
<path style="fill:none;stroke:#000000;stroke-width:2;stroke-miterlimit:10;" d="M29.571,23.012C29,21.792,25.625,19.25,23,23
	c-1.224-1.252-4.25-1.792-6,1.012c-2.381-2.436-5.281,2.625-5.281,2.625l-0.125-0.063c0,0,1.781-5.563-1.594-5.563
	c1.75-2.938-0.817-5.152-2.472-5.219c0-4-2.653-5.002-5.152-4.277l-0.042-0.034c4.268-6.584,12.59-5.4,12.59-5.4
	S10.643,9.376,15,13.012l3-3l0.034,2.246l0.674,0.295L20,11.012v4c5.619,0.8,4.826-4.526,4.826-4.526s6.828,4.947,4.797,12.526
	L29.571,23.012z"/>
<line style="fill:none;stroke:#000000;stroke-width:2;stroke-miterlimit:10;" x1="16.563" y1="11.625" x2="18.708" y2="12.554"/>
</svg>
