<?xml version="1.0" encoding="iso-8859-1"?>
<!-- Generator: Adobe Illustrator 19.1.1, SVG Export Plug-In . SVG Version: 6.00 Build 0)  -->
<svg version="1.1" id="Layer_1" xmlns="http://www.w3.org/2000/svg" xmlns:xlink="http://www.w3.org/1999/xlink" x="0px" y="0px"
	 viewBox="0 0 32 32" style="enable-background:new 0 0 32 32;" xml:space="preserve">
<g>
	<path style="fill:none;stroke:#000000;stroke-width:2;stroke-linecap:round;stroke-linejoin:round;stroke-miterlimit:10;" d="
		M8.75,13.594c0,1.45,0.85,2.4,2.25,2.4c1.7,0,2.5-1.4,2.5-2.4"/>
</g>
<g>
	<path style="fill:none;stroke:#000000;stroke-width:2;stroke-linecap:round;stroke-linejoin:round;stroke-miterlimit:10;" d="
		M18.5,13.594c0,1.45,0.85,2.4,2.25,2.4c1.7,0,2.5-1.4,2.5-2.4"/>
</g>
<path style="fill:none;stroke:#000000;stroke-width:2;stroke-linecap:round;stroke-linejoin:round;stroke-miterlimit:10;" d="
	M16,5.5c-3.45,0-12,3.35-12,8.15C4,14.9,5,16,6.35,16c1.2,0,2.35-1.1,2.35-2C8.7,7.7,16,5.5,16,5.5s-2.5,1.1-2.5,8.5
	c0,0.85,0.924,2,2.5,2s2.5-1.2,2.5-2C18.5,7.1,16,5.5,16,5.5S23.238,7,23.238,14c0,1,1.15,2,2.35,2c1.35,0,2.4-1.05,2.4-2.3
	C27.988,8.9,19.6,5.5,16,5.5z"/>
<line style="fill:none;stroke:#000000;stroke-width:2;stroke-miterlimit:10;" x1="16" y1="3" x2="16" y2="5.9"/>
<line style="fill:none;stroke:#000000;stroke-width:2;stroke-miterlimit:10;" x1="16" y1="16.5" x2="16" y2="23.9"/>
<path style="fill:none;stroke:#000000;stroke-width:2;stroke-miterlimit:10;" d="M13,25.5c0,0,1.35-1,3-1s3,1,3,1"/>
<circle cx="22" cy="25" r="1"/>
<circle cx="10" cy="25" r="1"/>
<circle cx="26" cy="25" r="1"/>
<circle cx="6" cy="25" r="1"/>
<circle cx="24" cy="28" r="1"/>
<circle cx="8" cy="28" r="1"/>
<circle cx="12" cy="28" r="1"/>
<circle cx="20" cy="28" r="1"/>
<circle cx="16" cy="28" r="1"/>
</svg>
