<?xml version="1.0" encoding="iso-8859-1"?>
<!-- Generator: Adobe Illustrator 19.1.1, SVG Export Plug-In . SVG Version: 6.00 Build 0)  -->
<svg version="1.1" id="Layer_1" xmlns="http://www.w3.org/2000/svg" xmlns:xlink="http://www.w3.org/1999/xlink" x="0px" y="0px"
	 viewBox="0 0 32 32" style="enable-background:new 0 0 32 32;" xml:space="preserve">
<polyline style="fill:none;stroke:#000000;stroke-width:2;stroke-miterlimit:10;" points="14,27 14,26 15,11 "/>
<line style="fill:none;stroke:#000000;stroke-width:2;stroke-miterlimit:10;" x1="17" y1="11" x2="18" y2="26"/>
<path style="fill:none;stroke:#000000;stroke-width:2;stroke-miterlimit:10;" d="M16,11c0,0-8,0.25-8,8H7.924
	C4.083,9.167,14,8.208,14,8.208V8c-2.083-1.417-7-1-7-1V6.833c0,0,4.083-4.875,9-1.833c4.917-3.042,9,1.833,9,1.833V7
	c0,0-4.833-0.583-7,1v0.208c0,0,9.917,0.958,6.076,10.792H24C24,11.25,16,11,16,11z"/>
<path style="fill:none;stroke:#000000;stroke-width:2;stroke-miterlimit:10;" d="M4,25c0,0,2.961,2,6.72,2s6.757-1,10.56-1
	S28,28,28,28"/>
</svg>
