<?xml version="1.0" encoding="utf-8"?>
<!-- Generator: Adobe Illustrator 18.1.1, SVG Export Plug-In . SVG Version: 6.00 Build 0)  -->
<svg version="1.1" id="Layer_1" xmlns="http://www.w3.org/2000/svg" xmlns:xlink="http://www.w3.org/1999/xlink" x="0px" y="0px"
	 viewBox="0 0 32 32" enable-background="new 0 0 32 32" xml:space="preserve">
<path fill="none" stroke="#000000" stroke-width="2" stroke-miterlimit="10" d="M8,21v-7.5C8,12.7,7.3,12,6.5,12h0
	C5.7,12,5,12.7,5,13.5V27h3v-2h16v2h3v-6H8z"/>
<path fill="none" stroke="#000000" stroke-width="2" stroke-miterlimit="10" d="M14,21h13v-4c0-1.1-0.9-2-2-2H14V21z"/>
<circle fill="none" stroke="#000000" stroke-width="2" stroke-miterlimit="10" cx="11" cy="18" r="3"/>
<path fill="none" stroke="#000000" stroke-width="2" stroke-miterlimit="10" d="M14.4,5.6L13,7h-3C9.4,7,9,7.4,9,8v0
	c0,0.6,0.4,1,1,1h3l1.4,1.4c0.4,0.4,0.9,0.6,1.4,0.6H24c1.7,0,3-1.3,3-3v0c0-1.7-1.3-3-3-3h-8.2C15.3,5,14.8,5.2,14.4,5.6z"/>
<line fill="none" stroke="#000000" stroke-width="2" stroke-miterlimit="10" x1="12" y1="8" x2="20" y2="8"/>
</svg>
