<?xml version="1.0" encoding="iso-8859-1"?>
<!-- Generator: Adobe Illustrator 19.1.1, SVG Export Plug-In . SVG Version: 6.00 Build 0)  -->
<svg version="1.1" id="Layer_1" xmlns="http://www.w3.org/2000/svg" xmlns:xlink="http://www.w3.org/1999/xlink" x="0px" y="0px"
	 viewBox="0 0 32 32" style="enable-background:new 0 0 32 32;" xml:space="preserve">
<path style="fill:none;stroke:#000000;stroke-width:2;stroke-miterlimit:10;" d="M24.018,12.384
	c-0.593-0.304-1.281-0.482-2.018-0.482s-1.425,0.177-2.018,0.482L18,11v4.5c0,1.933,1.791,3.5,4,3.5s4-1.567,4-3.5V11L24.018,12.384
	z"/>
<path style="fill:none;stroke:#000000;stroke-width:2;stroke-miterlimit:10;" d="M9.001,13.329C8.128,12.594,7,11.216,7,9
	c0-3.613,3.606-5,6-5c3.169,0,5,2,5,2"/>
<g>
	<path d="M16,11.219V9.162C15.515,9.061,15.015,9,14.5,9C10.364,9,7,12.364,7,16.5V29h2V16.5c0-3.033,2.468-5.5,5.5-5.5
		C15.022,11,15.522,11.082,16,11.219z"/>
	<path d="M17.024,18.569C16.428,18.216,15.741,18,15,18c-2.206,0-4,1.794-4,4v7h2v-7c0-1.103,0.897-2,2-2s2,0.897,2,2v7h2v-7
		c0-0.784-0.235-1.511-0.626-2.129C17.851,19.506,17.392,19.069,17.024,18.569z"/>
	<path d="M22,21c-0.212,0-0.421-0.011-0.627-0.03C21.248,20.977,21.127,21,21,21v8h2v-8.083C22.674,20.968,22.341,21,22,21z"/>
</g>
</svg>
