<?xml version="1.0" encoding="iso-8859-1"?>
<!-- Generator: Adobe Illustrator 19.1.1, SVG Export Plug-In . SVG Version: 6.00 Build 0)  -->
<svg version="1.1" id="Layer_1" xmlns="http://www.w3.org/2000/svg" xmlns:xlink="http://www.w3.org/1999/xlink" x="0px" y="0px"
	 viewBox="0 0 32 32" style="enable-background:new 0 0 32 32;" xml:space="preserve">
<circle cx="13" cy="19" r="1"/>
<circle cx="19" cy="19" r="1"/>
<path style="fill:none;stroke:#000000;stroke-width:2;stroke-miterlimit:10;" d="M28,29v-3C28,8.019,19.567,8,16,8S4,8.019,4,26v3"
	/>
<path style="fill:none;stroke:#000000;stroke-width:2;stroke-miterlimit:10;" d="M19,12c0,5.409-10,1.091-10,6c0,3.909,2.855,9,7,9
	s7-5.071,7-9c0,0,1-1.269,1-4c0,0,0.032-6-8-6"/>
<path style="fill:none;stroke:#000000;stroke-width:2;stroke-miterlimit:10;" d="M9,18c0,0-1-1.269-1-4c0,0-0.032-6,8-6"/>
<path style="fill:none;stroke:#000000;stroke-width:2;stroke-miterlimit:10;" d="M11,9c0-2.761,2.239-5,5-5s5,2.239,5,5"/>
</svg>
