<?xml version="1.0" encoding="utf-8"?>
<!-- Generator: Adobe Illustrator 18.1.1, SVG Export Plug-In . SVG Version: 6.00 Build 0)  -->
<svg version="1.1" id="Layer_1" xmlns="http://www.w3.org/2000/svg" xmlns:xlink="http://www.w3.org/1999/xlink" x="0px" y="0px"
	 viewBox="0 0 32 32" enable-background="new 0 0 32 32" xml:space="preserve">
<polygon fill="none" stroke="#000000" stroke-width="2" stroke-miterlimit="10" points="5,8 5,27 14,27 14,23 18,23 18,27 27,27 
	27,8 16,5 "/>
<rect x="13" y="18" width="2" height="2"/>
<rect x="17" y="18" width="2" height="2"/>
<rect x="13" y="14" width="2" height="2"/>
<rect x="17" y="14" width="2" height="2"/>
<rect x="13" y="10" width="2" height="2"/>
<rect x="17" y="10" width="2" height="2"/>
<rect x="21" y="18" width="2" height="2"/>
<rect x="21" y="14" width="2" height="2"/>
<rect x="21" y="10" width="2" height="2"/>
<rect x="9" y="18" width="2" height="2"/>
<rect x="9" y="22" width="2" height="2"/>
<rect x="21" y="22" width="2" height="2"/>
<rect x="9" y="14" width="2" height="2"/>
<rect x="9" y="10" width="2" height="2"/>
</svg>
