<?xml version="1.0" encoding="iso-8859-1"?>
<!-- Generator: Adobe Illustrator 19.1.1, SVG Export Plug-In . SVG Version: 6.00 Build 0)  -->
<svg version="1.1" id="Layer_1" xmlns="http://www.w3.org/2000/svg" xmlns:xlink="http://www.w3.org/1999/xlink" x="0px" y="0px"
	 viewBox="0 0 32 32" style="enable-background:new 0 0 32 32;" xml:space="preserve">
<path style="fill:none;stroke:#000000;stroke-width:2;stroke-miterlimit:10;" d="M7,27c0,0,2.789,1,9,1s9-1,9-1V14
	c-4-3.339-0.579-7.913-0.579-7.913L19.158,4c0,0-1.053,2.087-3.158,2.087S12.842,4,12.842,4L7.579,6.087
	c0,0,3.579,4.887-0.579,7.913V27z"/>
<rect x="12" y="16" style="fill:none;stroke:#000000;stroke-width:2;stroke-miterlimit:10;" width="8" height="8"/>
<line style="fill:none;stroke:#000000;stroke-width:2;stroke-miterlimit:10;" x1="23" y1="18" x2="27" y2="18"/>
<line style="fill:none;stroke:#000000;stroke-width:2;stroke-miterlimit:10;" x1="23" y1="22" x2="27" y2="22"/>
<line style="fill:none;stroke:#000000;stroke-width:2;stroke-miterlimit:10;" x1="5" y1="18" x2="9" y2="18"/>
<line style="fill:none;stroke:#000000;stroke-width:2;stroke-miterlimit:10;" x1="5" y1="22" x2="9" y2="22"/>
</svg>
