<?xml version="1.0" encoding="iso-8859-1"?>
<!-- Generator: Adobe Illustrator 19.1.0, SVG Export Plug-In . SVG Version: 6.00 Build 0)  -->
<svg version="1.1" id="Layer_1" xmlns="http://www.w3.org/2000/svg" xmlns:xlink="http://www.w3.org/1999/xlink" x="0px" y="0px"
	 viewBox="0 0 32 32" style="enable-background:new 0 0 32 32;" xml:space="preserve">
<polyline style="fill:none;stroke:#000000;stroke-width:2;stroke-miterlimit:10;" points="6,10 6,6 26,6 26,10 "/>
<polyline style="fill:none;stroke:#000000;stroke-width:2;stroke-miterlimit:10;" points="26,22 26,26 6,26 6,22 "/>
<path id="XMLID_38_" style="fill:none;stroke:#000000;stroke-width:2;stroke-miterlimit:10;" d="M15,17v0.5
	c0,0.828-0.672,1.5-1.5,1.5h0c-0.828,0-1.5-0.672-1.5-1.5v-3c0-0.828,0.672-1.5,1.5-1.5h0c0.828,0,1.5,0.672,1.5,1.5V15"/>
<polyline id="XMLID_74_" style="fill:none;stroke:#000000;stroke-width:2;stroke-miterlimit:10;" points="25,12 25,19 28,19 "/>
<polyline style="fill:none;stroke:#000000;stroke-width:2;stroke-miterlimit:10;" points="22,20 22,19 20.05,13 19.95,13 18,19 
	18,20 "/>
<line id="XMLID_46_" style="fill:none;stroke:#000000;stroke-width:2;stroke-miterlimit:10;" x1="18.391" y1="18" x2="21.609" y2="18"/>
<polygon id="XMLID_136_" points="10.469,12 8.469,12 5,18 7,18 "/>
<polygon id="XMLID_137_" points="6,15 8,15 10.469,20 8.469,20 "/>
<line id="XMLID_143_" style="fill:none;stroke:#000000;stroke-width:2;stroke-miterlimit:10;" x1="6" y1="12" x2="6" y2="20"/>
</svg>
