<?xml version="1.0" encoding="iso-8859-1"?>
<!-- Generator: Adobe Illustrator 19.1.1, SVG Export Plug-In . SVG Version: 6.00 Build 0)  -->
<svg version="1.1"  xmlns="http://www.w3.org/2000/svg" xmlns:xlink="http://www.w3.org/1999/xlink" x="0px" y="0px"
	 viewBox="0 0 32 32" style="enable-background:new 0 0 32 32;" xml:space="preserve">
<g>
	<path d="M18.488,14c0.256,0,0.532,0.102,0.8,0.305c0.663,0.487,0.825,1.24,0.641,1.524l-0.017,0.026l-0.016,0.026
		c-0.027,0.045-0.078,0.077-0.152,0.096l-1.595-0.961c-0.171-0.355-0.189-0.689-0.086-0.847C18.163,14.017,18.394,14,18.488,14
		 M18.488,12c-0.853,0-1.643,0.372-2.103,1.081c-0.636,0.971-0.454,2.33,0.318,3.398l2.498,1.505C19.311,17.995,19.42,18,19.528,18
		c0.867,0,1.635-0.35,2.08-1.084c0.817-1.262,0.318-3.155-1.135-4.223C19.856,12.226,19.153,12,18.488,12L18.488,12z"/>
</g>
<ellipse transform="matrix(-0.8 -0.6 0.6 -0.8 33.738 32.8377)" cx="22.342" cy="10.796" rx="1.5" ry="1"/>
<path style="fill:none;stroke:#000000;stroke-width:2;stroke-miterlimit:10;" d="M3,26h6.022c3.029,0,4.896-1.684,6.155-3.521
	c0,0,1.198-1.172,2.093-1.731C18.235,20.147,19,19.57,19,18.279C19,17.011,18.04,16,16.831,16c-1.343,0-2.227,0.707-3.188,1.225
	C13.165,17.484,10,19.208,10,19.208V19L20,5l8,6L18,25l-2.813-2.125"/>
<path d="M11,10c-1.397,0-2.387,0.847-3.345,1.666l-0.356,0.303C6.577,12.574,4.418,14.38,3,15.565v2.606
	c0.236-0.197,4.508-3.767,5.585-4.671l0.371-0.314C9.84,12.428,10.372,12,11,12h5v-2H11z"/>
</svg>
