<?xml version="1.0" encoding="iso-8859-1"?>
<!-- Generator: Adobe Illustrator 18.1.1, SVG Export Plug-In . SVG Version: 6.00 Build 0)  -->
<svg version="1.1" id="Layer_1" xmlns="http://www.w3.org/2000/svg" xmlns:xlink="http://www.w3.org/1999/xlink" x="0px" y="0px"
	 viewBox="0 0 32 32" style="enable-background:new 0 0 32 32;" xml:space="preserve">
<path style="fill:none;stroke:#000000;stroke-width:2;stroke-linecap:round;stroke-miterlimit:10;" d="M23,11c0,3.285-1,5-1,5
	s2,2,2,4s0,3,0,3c0,2.209-1.791,4-4,4H10c-2.209,0-4-1.791-4-4c0,0,0-1,0-3s2-4,2-4s-1-2.21-1-5"/>
<path style="fill:none;stroke:#000000;stroke-width:2;stroke-linejoin:round;stroke-miterlimit:10;" d="M11.125,16.875
	C15,18.562,20.947,17.634,22,16c3.555,0,5-2.143,5-5"/>
<ellipse style="fill:none;stroke:#000000;stroke-width:2;stroke-linecap:round;stroke-linejoin:round;stroke-miterlimit:10;" cx="15" cy="11" rx="8" ry="3"/>
<path style="fill:none;stroke:#000000;stroke-width:2;stroke-linejoin:round;stroke-miterlimit:10;" d="M20,9.253V6.5
	C20,5.672,19.328,5,18.5,5h0C17.672,5,17,5.672,17,6.5v1.895"/>
<path style="fill:none;stroke:#000000;stroke-width:2;stroke-linejoin:round;stroke-miterlimit:10;" d="M10,9.252V6.5
	C10,5.672,10.672,5,11.5,5h0C12.328,5,13,5.672,13,6.5v1.895"/>
</svg>
