<?xml version="1.0" encoding="iso-8859-1"?>
<!-- Generator: Adobe Illustrator 19.1.1, SVG Export Plug-In . SVG Version: 6.00 Build 0)  -->
<svg version="1.1" id="Layer_1" xmlns="http://www.w3.org/2000/svg" xmlns:xlink="http://www.w3.org/1999/xlink" x="0px" y="0px"
	 viewBox="-7 9 32 32" style="enable-background:new -7 9 32 32;" xml:space="preserve">
<path d="M21,14v-2c-1.99,0-3.54,0.553-4.607,1.642c-0.615,0.628-0.949,1.326-1.141,1.929C14.748,15.218,14.157,15,13.5,15
	c-2.524,0-3.476,2.008-3.5,3.375c0,0.219-0.009,0.45-0.023,0.686C9.303,21.049,7.999,19.735,8,17
	c-3.221,3.42,0.25,4.684-1.732,6.666c-0.421,0.421-1.43,0.585-2.059-0.188c-0.831-0.988,0.861-2.613-0.741-3.83
	c0.294,1.829-1.118,1.449-1.593,1.06C1.255,20.2,0.125,19.083,2,16c-1.917,0.875-3.076,2.651-3,4
	c0.199,3.535,5.663,6.604,3.458,8.667C1.344,29.709-0.845,28.301,0,26c-1.052,0.536-2.284,1.81-1.89,3.788
	C-1.616,31.161,0.375,34.25-3,36c0,0,0.017,0.005,0.043,0.011l-0.086,1.988c0.067,0.003,0.336,0.014,0.769,0.014
	c2.814,0,12.546-0.436,18.538-6.172C19.406,28.831,21,24.847,21,20c0-1.383-0.627-4-3-4c-0.293,0-0.566,0.039-0.826,0.101
	c0.117-0.335,0.311-0.717,0.647-1.06C18.499,14.351,19.568,14,21,14z M18,18c0.944,0,1,1.983,1,2c0,4.277-1.385,7.773-4.115,10.391
	c-4.424,4.24-11.396,5.293-15.181,5.543c0.922-0.212,2.031-0.641,3.246-1.46c5.849-3.207,8.929-10.77,9.043-15.806H12v-0.274
	C12.004,18.16,12.096,17,13.5,17c0.855,0,1.5,1.213,1.5,2h2C17,18.571,17.104,18,18,18z"/>
</svg>
