<?xml version="1.0" encoding="iso-8859-1"?>
<!-- Generator: Adobe Illustrator 19.1.0, SVG Export Plug-In . SVG Version: 6.00 Build 0)  -->
<svg version="1.1" id="Layer_1" xmlns="http://www.w3.org/2000/svg" xmlns:xlink="http://www.w3.org/1999/xlink" x="0px" y="0px"
	 viewBox="0 0 32 32" style="enable-background:new 0 0 32 32;" xml:space="preserve">
<circle cx="9" cy="13" r="1"/>
<circle cx="11" cy="16" r="1"/>
<circle cx="23" cy="14" r="1"/>
<circle cx="20" cy="25" r="1"/>
<circle cx="20" cy="22" r="1"/>
<circle cx="17" cy="23" r="1"/>
<ellipse style="fill:none;stroke:#000000;stroke-width:2;stroke-miterlimit:10;" cx="16" cy="13" rx="11" ry="7"/>
<path style="fill:none;stroke:#000000;stroke-width:2;stroke-miterlimit:10;" d="M5,13c0,0,0,5.485,0,6c0,3.866,4.925,7,11,7
	s11-3.134,11-7c0-0.515,0-6,0-6"/>
<path style="fill:none;stroke:#000000;stroke-width:2;stroke-miterlimit:10;" d="M17,10c-1.812,0-5,0.536-5,2.5s2.1,2.5,4.1,2.5
	c1.8,0,4.9-1.1,4.9-4c0-3.802-5.1-5-5.1-5"/>
</svg>
