<?xml version="1.0" encoding="UTF-8" standalone="no"?><!DOCTYPE svg PUBLIC "-//W3C//DTD SVG 1.1//EN" "http://www.w3.org/Graphics/SVG/1.1/DTD/svg11.dtd"><svg width="100%" height="100%" viewBox="0 0 32 32" version="1.1" xmlns="http://www.w3.org/2000/svg" xmlns:xlink="http://www.w3.org/1999/xlink" xml:space="preserve" style="fill-rule:evenodd;clip-rule:evenodd;stroke-linejoin:round;stroke-miterlimit:1.41421;"><g ><path d="M5,16.006l0,-0.002c0,-6.073 4.931,-11.004 11.004,-11.004c6.073,0 11.004,4.931 11.004,11.004c0,6.073 -4.931,11.004 -11.004,11.004l-0.002,0l-0.002,0c-6.069,0 -11,-4.93 -11,-11l0,-0.002Zm12.064,8.92c0.888,-1.278 1.924,-3.428 1.936,-4.926c-4.725,-1.102 -5.751,-5.506 -6,-7c-3.157,0.99 -4.899,3.266 -5.792,4.841c0.849,4.079 4.467,7.147 8.796,7.147c0.359,0 0.712,-0.021 1.06,-0.062Zm6.996,-4.943c-0.752,-0.006 -1.635,0.001 -2.06,0.017c0.164,0.68 0.288,1.57 0.256,2.453c0.734,-0.711 1.346,-1.545 1.804,-2.47Zm-3.917,-11.954c-0.597,0.413 -1.358,1.057 -2.143,1.971c1.523,0.703 3.516,2.53 4,7c0.376,-0.002 1.824,-0.033 2.95,-0.165c0.025,-0.274 0.038,-0.551 0.038,-0.831c0,-3.466 -1.967,-6.477 -4.845,-7.975Zm-4.139,3.971c0,0 3.279,1.134 3.996,5c-4.105,-0.957 -3.996,-5 -3.996,-5Zm-0.792,-4.945c-2.602,0.227 -4.888,1.567 -6.379,3.539c1.308,-0.828 2.996,-1.533 5.167,-1.594c0.26,-0.853 0.717,-1.465 1.212,-1.945Z"/></g></svg>