<?xml version="1.0" encoding="iso-8859-1"?>
<!-- Generator: Adobe Illustrator 19.2.0, SVG Export Plug-In . SVG Version: 6.00 Build 0)  -->
<svg version="1.1"  xmlns="http://www.w3.org/2000/svg" xmlns:xlink="http://www.w3.org/1999/xlink" x="0px" y="0px"
	 viewBox="0 0 32 32" style="enable-background:new 0 0 32 32;" xml:space="preserve">
<path d="M3,15v14h13h13V15H16H3z M6.912,17H16h9.088c-0.057,0.16-0.087,0.33-0.088,0.5c0,0.828,0.672,1.5,1.5,1.5
	c0.17-0.001,0.34-0.03,0.5-0.088v6.176c-0.16-0.057-0.33-0.087-0.5-0.088c-0.828,0-1.5,0.672-1.5,1.5
	c0.001,0.17,0.03,0.34,0.088,0.5H16H6.912C6.97,26.84,6.999,26.67,7,26.5C7,25.672,6.328,25,5.5,25c-0.17,0.001-0.34,0.03-0.5,0.088
	v-6.176C5.16,18.97,5.33,18.999,5.5,19C6.328,19,7,18.328,7,17.5C6.999,17.33,6.97,17.16,6.912,17z M9,20.5
	c-0.828,0-1.5,0.672-1.5,1.5s0.672,1.5,1.5,1.5s1.5-0.672,1.5-1.5S9.828,20.5,9,20.5z M23,20.5c-0.828,0-1.5,0.672-1.5,1.5
	s0.672,1.5,1.5,1.5s1.5-0.672,1.5-1.5S23.828,20.5,23,20.5z"/>
<circle style="fill:none;stroke:#000000;stroke-width:2;stroke-miterlimit:10;" cx="16" cy="22" r="2"/>
<circle style="fill:none;stroke:#000000;stroke-width:2;stroke-miterlimit:10;" cx="7.5" cy="6.5" r="2.5"/>
<circle style="fill:none;stroke:#000000;stroke-width:2;stroke-miterlimit:10;" cx="16" cy="6" r="3"/>
<circle style="fill:none;stroke:#000000;stroke-width:2;stroke-miterlimit:10;" cx="24.5" cy="6.5" r="2.5"/>
<path d="M13.184,13c0.414-1.161,1.514-2,2.816-2s2.402,0.839,2.816,2h2.083C20.434,10.721,18.414,9,16,9s-4.434,1.721-4.899,4
	H13.184z"/>
<path d="M5.051,13c0.232-1.14,1.242-2,2.449-2c1.208,0,2.217,0.86,2.449,2h2C11.697,10.756,9.81,9,7.5,9s-4.197,1.756-4.449,4H5.051
	z"/>
<path d="M22.051,13c0.232-1.14,1.242-2,2.449-2c1.208,0,2.217,0.86,2.449,2h2c-0.252-2.244-2.139-4-4.449-4s-4.197,1.756-4.449,4
	H22.051z"/>
</svg>
