<?xml version="1.0" encoding="iso-8859-1"?>
<!-- Generator: Adobe Illustrator 19.1.0, SVG Export Plug-In . SVG Version: 6.00 Build 0)  -->
<svg version="1.1" id="Layer_1" xmlns="http://www.w3.org/2000/svg" xmlns:xlink="http://www.w3.org/1999/xlink" x="0px" y="0px"
	 viewBox="0 0 32 32" style="enable-background:new 0 0 32 32;" xml:space="preserve">
<path d="M5.464,4.048L3.998,8.461l1.716,2.702l2.106-6.34L5.464,4.048z"/>
<circle style="fill:none;stroke:#000000;stroke-width:2;stroke-miterlimit:10;" cx="18.24" cy="10.792" r="2.873"/>
<line style="fill:none;stroke:#000000;stroke-width:2;stroke-linejoin:round;stroke-miterlimit:10;" x1="5.657" y1="7.264" x2="10.667" y2="9.057"/>
<line style="fill:none;stroke:#000000;stroke-width:2;stroke-miterlimit:10;" x1="28" y1="27" x2="10" y2="27"/>
<path d="M12.784,16.61c0.079,0.08,0.177,0.138,0.264,0.208c-0.694,4.713-1.029,7.025-1.193,8.182h2.019
	c0.245-1.709,0.697-4.796,1.073-7.353l3.372,1.024c0.068,0.021,0.126,0.06,0.188,0.094L17.707,25h2.016l0.501-3.906L22.86,25h2.413
	l-4.759-7.051c-0.385-0.569-0.958-0.993-1.615-1.192l-4.271-1.296c-0.159-0.048-0.304-0.136-0.421-0.255l-2.379-2.414
	c-0.195-0.198-0.299-0.47-0.287-0.747l0.214-4.856L9.758,7.102l-0.214,4.856c-0.037,0.83,0.277,1.646,0.861,2.238L12.784,16.61z"/>
</svg>
