<?xml version="1.0" encoding="iso-8859-1"?>
<!-- Generator: Adobe Illustrator 19.1.1, SVG Export Plug-In . SVG Version: 6.00 Build 0)  -->
<svg version="1.1" id="Layer_1" xmlns="http://www.w3.org/2000/svg" xmlns:xlink="http://www.w3.org/1999/xlink" x="0px" y="0px"
	 viewBox="0 0 32 32" style="enable-background:new 0 0 32 32;" xml:space="preserve">
<g>
	<path d="M12,13c0.917,0.167,1.708,0.501,2.47,0.873c0.755,0.383,1.462,0.828,2.13,1.327H15.4c0.666-0.501,1.373-0.947,2.128-1.329
		C18.29,13.498,19.082,13.165,20,13c-0.415,0.835-0.957,1.502-1.528,2.129c-0.579,0.617-1.204,1.172-1.872,1.671l-0.602,0.45
		L15.4,16.8c-0.666-0.501-1.292-1.056-1.87-1.673C12.959,14.499,12.417,13.833,12,13z"/>
</g>
<path style="fill:none;stroke:#000000;stroke-width:2;stroke-miterlimit:10;" d="M6,21C6,21,5.667,3,16,3s10,18,10,18s-6.5,8-10,8
	S6,21,6,21z"/>
<line style="fill:none;stroke:#000000;stroke-width:2;stroke-miterlimit:10;" x1="16" y1="20" x2="16" y2="29"/>
<path style="fill:none;stroke:#000000;stroke-width:2;stroke-miterlimit:10;" d="M19,28v-4l2-7v-4c0-5.167-3.417-6-5-6s-5,0.833-5,6
	v4l2,7v4"/>
</svg>
