<?xml version="1.0" encoding="iso-8859-1"?>
<!-- Generator: Adobe Illustrator 22.0.1, SVG Export Plug-In . SVG Version: 6.00 Build 0)  -->
<svg version="1.1" id="&#x421;&#x43B;&#x43E;&#x439;_1"
	 xmlns="http://www.w3.org/2000/svg" xmlns:xlink="http://www.w3.org/1999/xlink" x="0px" y="0px" viewBox="0 0 32 32"
	 style="enable-background:new 0 0 32 32;" xml:space="preserve">
<polyline style="fill:none;stroke:#000000;stroke-width:2;stroke-miterlimit:10;" points="24,14 24,5 5,24 14,24 "/>
<path d="M24,22c1.1,0,2,0.9,2,2s-0.9,2-2,2s-2-0.9-2-2S22.9,22,24,22z M29.9,25c-0.2,0.9-0.5,1.7-1,2.5l1.5,1.5L29,30.4l-1.5-1.5
	c-0.7,0.5-1.6,0.9-2.5,1V32h-2v-2.1c-0.9-0.2-1.7-0.5-2.5-1L19,30.4L17.6,29l1.5-1.5c-0.5-0.7-0.9-1.6-1-2.5H16v-2h2.1
	c0.2-0.9,0.5-1.7,1-2.5l-1.5-1.4l1.4-1.4l1.5,1.5c0.7-0.5,1.6-0.9,2.5-1V16h2v2.1c0.9,0.2,1.7,0.5,2.5,1l1.5-1.5l1.4,1.4l-1.5,1.5
	c0.5,0.7,0.9,1.6,1,2.5H32v2H29.9z M28,24c0-2.2-1.8-4-4-4s-4,1.8-4,4s1.8,4,4,4S28,26.2,28,24z"/>
</svg>
