<?xml version="1.0" encoding="iso-8859-1"?>
<!-- Generator: Adobe Illustrator 19.1.1, SVG Export Plug-In . SVG Version: 6.00 Build 0)  -->
<svg version="1.1" id="Layer_1" xmlns="http://www.w3.org/2000/svg" xmlns:xlink="http://www.w3.org/1999/xlink" x="0px" y="0px"
	 viewBox="0 0 32 32" style="enable-background:new 0 0 32 32;" xml:space="preserve">
<line style="fill:none;stroke:#000000;stroke-width:2;stroke-miterlimit:10;" x1="12" y1="20" x2="20" y2="12"/>
<line style="fill:none;stroke:#000000;stroke-width:2;stroke-miterlimit:10;" x1="21" y1="27" x2="27" y2="21"/>
<circle style="fill:none;stroke:#000000;stroke-width:2;stroke-miterlimit:10;" cx="24" cy="24" r="7"/>
<g>
	<path d="M16.072,12.393c-0.204-1.295,0.178-2.663,1.175-3.659l1.487-1.486C19.538,6.442,20.606,6,21.744,6
		c1.137,0,2.206,0.442,3.01,1.247c1.66,1.659,1.66,4.36,0,6.02l-0.735,0.734c0.854,0.002,1.679,0.121,2.47,0.325
		C27.464,13.193,28,11.767,28,10.257c0-1.671-0.651-3.242-1.833-4.424C24.986,4.65,23.415,4,21.744,4
		c-1.671,0-3.243,0.65-4.424,1.833l-1.487,1.486C14.651,8.501,14,10.072,14,11.743c0,0.794,0.163,1.558,0.448,2.274L16.072,12.393z"
		/>
	<path d="M14.001,24.019l-0.734,0.734C12.462,25.558,11.394,26,10.256,26c-1.137,0-2.206-0.442-3.01-1.247
		c-1.66-1.659-1.66-4.36,0-6.02l1.487-1.486C9.538,16.442,10.606,16,11.744,16c0.224,0,0.443,0.025,0.658,0.063l1.615-1.615
		C13.301,14.163,12.537,14,11.744,14c-1.671,0-3.243,0.65-4.424,1.833l-1.487,1.486C4.651,18.501,4,20.072,4,21.743
		s0.651,3.242,1.833,4.424C7.014,27.35,8.585,28,10.256,28c1.511,0,2.936-0.536,4.07-1.511
		C14.122,25.697,14.003,24.873,14.001,24.019z"/>
</g>
<line style="fill:none;stroke:#000000;stroke-width:2;stroke-miterlimit:10;" x1="21" y1="21" x2="27" y2="27"/>
</svg>
