<?xml version="1.0" encoding="iso-8859-1"?>
<!-- Generator: Adobe Illustrator 21.0.2, SVG Export Plug-In . SVG Version: 6.00 Build 0)  -->
<svg version="1.1" id="Layer_1" xmlns="http://www.w3.org/2000/svg" xmlns:xlink="http://www.w3.org/1999/xlink" x="0px" y="0px"
	 viewBox="0 0 32 32" style="enable-background:new 0 0 32 32;" xml:space="preserve">
<polyline style="fill:none;stroke:#000000;stroke-width:2;stroke-miterlimit:10;" points="19,4 19,10 25,10 "/>
<path d="M17.683,27H8V5h10.586L24,10.414V17c0.695,0,1.366,0.105,2,0.294V9.586L19.414,3H6v26h13.106
	C18.52,28.426,18.039,27.749,17.683,27z"/>
<path d="M24,32c-4.4,0-8-3.6-8-8s3.6-8,8-8s8,3.6,8,8S28.4,32,24,32z M24,18c-3.3,0-6,2.7-6,6s2.7,6,6,6s6-2.7,6-6S27.3,18,24,18z
	 M27.7,21.7l-1.4-1.4L24,22.6l-2.3-2.3l-1.4,1.4l2.3,2.3l-2.3,2.3l1.4,1.4l2.3-2.3l2.3,2.3l1.4-1.4L25.4,24L27.7,21.7z"/>
<polygon points="22.759,16.349 20.286,13.463 16,18.463 13.331,15.349 13.331,15.349 12.571,14.463 9.241,18.349 10.759,19.651 
	12.571,17.537 12.602,17.572 16,21.537 16,21.536 16.467,22.082 17.986,20.78 17.317,20 19.031,18 21,18 21,17.37 21.241,17.651 "/>
</svg>
