<?xml version="1.0" encoding="iso-8859-1"?>
<!-- Generator: Adobe Illustrator 21.0.0, SVG Export Plug-In . SVG Version: 6.00 Build 0)  -->
<svg version="1.1" xmlns="http://www.w3.org/2000/svg" xmlns:xlink="http://www.w3.org/1999/xlink" x="0px" y="0px"
	 viewBox="0 0 32 32" style="enable-background:new 0 0 32 32;" xml:space="preserve">
<g >
	<g>
		<path d="M23.353,16.978h1.794v1.509h-3.596v-5.162h1.802C23.353,13.325,23.353,16.978,23.353,16.978z M17.477,16.693l-2.963,2.33
			l-2.709-2.13c-0.391,0.939-1.331,1.593-2.422,1.593H7.069v-5.162h2.315c1.216,0,2.091,0.769,2.42,1.593l2.71-2.13l1.005,0.79
			l-2.482,1.952l0.476,0.374l2.482-1.952l1.004,0.789l-2.482,1.952l0.477,0.374l2.485-1.951v-1.792h1.802v3.652h1.794v1.51h-3.596
			L17.477,16.693L17.477,16.693z M10.322,15.906c0-0.702-0.464-1.098-1.119-1.098H8.802v2.196h0.392
			C9.802,17.004,10.322,16.67,10.322,15.906"/>
	</g>
	
		<circle style="fill:none;stroke:#000000;stroke-width:2;stroke-linecap:round;stroke-linejoin:round;stroke-miterlimit:10;" cx="16" cy="16" r="12"/>
</g>
<g >
</g>
</svg>
