<?xml version="1.0" encoding="utf-8"?>
<!-- Generator: Adobe Illustrator 18.1.1, SVG Export Plug-In . SVG Version: 6.00 Build 0)  -->
<svg version="1.1" id="Layer_1" xmlns="http://www.w3.org/2000/svg" xmlns:xlink="http://www.w3.org/1999/xlink" x="0px" y="0px"
	 viewBox="0 0 32 32" enable-background="new 0 0 32 32" xml:space="preserve">
<path fill="none" stroke="#000000" stroke-width="2" stroke-miterlimit="10" d="M18,13V5c0-1.1-0.9-2-2-2h0c-1.1,0-2,0.9-2,2v0v2"/>
<path fill="none" stroke="#000000" stroke-width="2" stroke-miterlimit="10" d="M18,13V6c0-1.1,0.9-2,2-2h0c1.1,0,2,0.9,2,2v3"/>
<path fill="none" stroke="#000000" stroke-width="2" stroke-miterlimit="10" d="M14,14V7c0-1.1-0.9-2-2-2s-2,0.9-2,2v12.2l-2.6-2.6
	c-0.8-0.8-2-0.8-2.8,0c-0.8,0.8-0.8,2,0,2.8l8.2,8.1c1.2,0.9,2.7,1.5,4.4,1.5h1.7c4,0,7.2-3.2,7.2-7.2V9c0-1.1-0.9-2-2-2s-2,0.9-2,2
	v5"/>
<line fill="none" stroke="#000000" stroke-width="2" stroke-miterlimit="10" x1="15" y1="17" x2="21" y2="23"/>
<line fill="none" stroke="#000000" stroke-width="2" stroke-miterlimit="10" x1="21" y1="17" x2="15" y2="23"/>
</svg>
