<?xml version="1.0" encoding="iso-8859-1"?>
<!-- Generator: Adobe Illustrator 19.1.1, SVG Export Plug-In . SVG Version: 6.00 Build 0)  -->
<svg version="1.1" xmlns="http://www.w3.org/2000/svg" xmlns:xlink="http://www.w3.org/1999/xlink" x="0px" y="0px"
	 viewBox="0 0 32 32" style="enable-background:new 0 0 32 32;" xml:space="preserve">
<g >
</g>
<g >
	<path style="fill:none;stroke:#000000;stroke-width:2;stroke-linecap:round;stroke-miterlimit:10;" d="M15,11
		C7.467,11.48,2,17.678,2,25v1"/>
	<path style="fill:none;stroke:#000000;stroke-width:2;stroke-linecap:round;stroke-miterlimit:10;" d="M30,26v-1
		c0-5.788-3.512-10.755-8.521-12.887"/>
	<path d="M17,10.944C17.527,9.855,18.031,8.105,18.5,7c0.092,0.028,0.103,0.094,0.127,0.146c0.416,0.903,0.848,2.47,1.255,3.377
		c0.199,0.444,0.176,0.473-0.304,0.475c-0.703,0.004-1.406,0.001-2.109,0C17.321,10.998,17.173,10.988,17,10.944z"/>
	<path d="M10.494,18c-0.146-0.003-0.292-0.002-0.438-0.038C10,17.949,9.99,17.901,10.009,17.776
		c0.082-0.528,0.175-1.044,0.288-1.534c0.071-0.306,0.249-0.323,0.347-0.048c0.054,0.153,0.09,0.337,0.127,0.518
		c0.067,0.329,0.137,0.655,0.201,0.987c0.046,0.239,0.043,0.238-0.057,0.266C10.774,18.007,10.634,17.995,10.494,18z"/>
	<path d="M7.531,22c-0.157-0.007-0.301-0.001-0.445-0.059c-0.084-0.034-0.099-0.114-0.077-0.254c0.076-0.491,0.156-0.98,0.265-1.444
		c0.07-0.296,0.253-0.329,0.339-0.053c0.154,0.491,0.272,1.02,0.376,1.562c0.028,0.144-0.007,0.177-0.067,0.202
		C7.789,22.008,7.653,21.985,7.531,22z"/>
	<path d="M12.483,17.997c-0.527,0.013-0.527,0.014-0.439-0.567c0.065-0.428,0.137-0.854,0.245-1.271
		c0.017-0.065,0.029-0.161,0.105-0.159c0.061,0.002,0.067,0.093,0.088,0.15c0.192,0.511,0.344,1.038,0.494,1.566
		c0.058,0.206,0.007,0.283-0.174,0.281C12.697,17.996,12.59,17.997,12.483,17.997z"/>
	<path d="M23.979,19.795c-0.017-0.079-0.035-0.158-0.058-0.235c-0.029-0.095-0.312-1.192-0.355-1.446
		c-0.008-0.044-0.006-0.106-0.042-0.114c-0.044-0.008-0.056,0.058-0.07,0.104c-0.055,0.186-0.402,1.551-0.448,1.761
		c-0.016,0.075,0,0.104,0.074,0.112c0.146,0.017,0.291,0.027,0.438,0.02c0.105,0,0.211,0.006,0.315-0.001
		C24.018,19.983,24.019,19.979,23.979,19.795z"/>
	<path d="M21.971,17.399c-0.031-0.105-0.09-0.315-0.09-0.316c0,0-0.001-0.004-0.002-0.005C21.866,17.034,21.55,16.077,21.5,16
		c-0.014,0.047-0.475,1.297-0.482,1.325c-0.027,0.064-0.018,0.129-0.008,0.194c0.071,0.465,0.092,0.483,0.547,0.482
		c0.075,0,0.149,0,0.224,0c0.108-0.001,0.174-0.037,0.196-0.164C22.003,17.687,22.014,17.545,21.971,17.399z"/>
	<path d="M18,6.498c0.237-0.139,0.473-0.291,0.713-0.412c0.082-0.041,0.193-0.205,0.254,0.067c0.046,0.205,0.042,0.426-0.002,0.638
		c-0.05,0.24-0.154,0.227-0.248,0.185C18.477,6.868,18.239,6.738,18,6.617C18,6.577,18,6.538,18,6.498z"/>
	<rect x="1" y="25" width="2" height="2"/>
	<rect x="29" y="25" width="2" height="2"/>
	<path d="M26.007,23.36c0.13-0.006,0.253-0.008,0.405-0.024c0.223-0.023,0.258-0.084,0.154-0.277
		c-0.123-0.227-0.286-0.428-0.439-0.635c-0.115-0.156-0.265-0.237-0.439-0.269c-0.162-0.418-0.326-0.804-0.365-0.892
		c-0.099-0.223-0.107-0.657-0.184-0.89c-0.035-0.108-0.103-0.198-0.186-0.277c-0.119-0.113-0.239-0.13-0.364-0.009
		c-0.076,0.073-0.127,0.146-0.206,0.216c-0.071,0.062-0.152,0.075-0.198-0.02c-0.108-0.222-0.301-0.282-0.515-0.284
		c0,0-0.211,0-0.56,0l0.01,0c-0.548,0-0.811-0.809-0.885-0.948c-0.12-0.228,0.23-0.474,0.154-0.72
		C22.331,18.138,22.213,18.009,22,18l-0.976,0c-0.625,0-0.659-0.903-0.659-0.903s0.013-0.232-0.088-0.58
		c-0.102-0.352-0.3-0.408-0.3-0.642c-0.011-0.422,0.022-2.167,0-2.454c-0.01-0.131-0.087-0.165-0.216-0.164
		c0.122-0.141,0.21-0.395,0.216-0.641c0.004-0.148-0.006-0.293-0.103-0.409C19.837,12.139,19.643,12,19.418,12h-1.771
		c-0.191,0-0.417,0.181-0.486,0.256c-0.095,0.103-0.138,0.213-0.139,0.327c-0.001,0.083,0.02,0.169,0.059,0.256
		c0.073,0.164,0.144,0.307,0.218,0.419c-0.022,0-0.051,0-0.071-0.001C17.093,13.254,17.015,13.3,17,13.424c0,0,0,0.836,0,1.018
		c0,0.172,0,0.126,0,0.435c0,0.156-1.253,0.131-1.417,0.125c-0.174-0.001-0.219-0.066-0.228-0.162
		c-0.19-0.522-0.065-0.185-0.266-0.636c-0.058-0.131-0.147-0.267-0.294-0.26c-0.14,0.007-0.201,0.163-0.251,0.279
		c-0.161,0.376-0.473,0.919-0.669,1.298c-0.004,0.067-0.051,0.135-0.087,0.197c-0.092,0.158-0.06,0.248,0.12,0.275
		C13.938,15.997,13.969,15.996,14,16c0,0.417,0.01,0.688,0.01,1.32c0,0.575-0.323,0.659-0.628,0.68L12,18
		c-0.123,0,0.015,0.479-0.114,0.613c-0.08,0.083-0.396,0.202-0.528,0.122c-0.136-0.082-0.115-0.224-0.069-0.355
		c0.013-0.037,0.033-0.072,0.051-0.107c0.123-0.229,0.104-0.27-0.149-0.273H8.96c-0.099,0-0.126,0.004-0.092,0.106
		C8.958,18.377,8.996,18.658,9,18.943c0.004,0.293-0.004,0.868-0.004,1.702l0.007,0c-0.012,0.164-0.011,0.325-0.025,0.543
		c-0.01,0.15-0.182,0.81-0.624,0.811c-0.711,0-1.2-0.001-1.955,0c-0.093,0-0.175,0.02-0.241,0.114
		C5.955,22.4,5.738,22.675,5.535,22.96c-0.124,0.174-0.112,0.19,0.105,0.215C6.278,23.25,5.74,23.25,6,23.25
		c-0.137,0.001-0.157,0.768-0.154,0.928c0.005,0.23-0.101,0.656-0.138,0.883c-0.025,0.157-0.125,0.631-0.207,1.001
		C5.464,26.303,5.093,27,5.513,27H13v-2c0-1.65,1.35-3,3-3s3,1.35,3,3v2h7.458c0.31,0,0.049-0.697,0.011-0.937
		c-0.035-0.434-0.349-1.949-0.4-1.979c-0.008-0.379-0.104-0.709-0.069-0.709C26.005,23.375,26.003,23.362,26.007,23.36z"/>
</g>
</svg>
