<?xml version="1.0" encoding="iso-8859-1"?>
<!-- Generator: Adobe Illustrator 19.1.0, SVG Export Plug-In . SVG Version: 6.00 Build 0)  -->
<svg version="1.1" id="Layer_1" xmlns="http://www.w3.org/2000/svg" xmlns:xlink="http://www.w3.org/1999/xlink" x="0px" y="0px"
	 viewBox="0 0 32 32" style="enable-background:new 0 0 32 32;" xml:space="preserve">
<path style="fill:none;stroke:#000000;stroke-width:2;stroke-miterlimit:10;" d="M5,25C15.958,25,16,7,27,7"/>
<path d="M17.729,17.031c-0.365,0.596-0.736,1.202-1.119,1.805C19.082,22.649,21.966,26,27,26v-2c-4.361,0-6.845-3.257-9.222-7.049
	C17.762,16.978,17.746,17.004,17.729,17.031z"/>
<path d="M15.77,16.396c0.282-0.461,0.552-0.919,0.819-1.372C13.819,10.509,10.863,6,5,6v2c4.945,0,7.483,4.146,10.17,8.535
	c0.084,0.138,0.169,0.275,0.254,0.413C15.54,16.764,15.658,16.58,15.77,16.396z"/>
<path d="M21,22l-2-1v-5.762c0.637-0.994,1.292-1.942,2-2.781V22z"/>
<path d="M25,9.547V24h-2V10.562C23.614,10.123,24.275,9.773,25,9.547z"/>
<path d="M11,22l2-1v-5.762c-0.637-0.994-1.292-1.942-2-2.781V22z"/>
<path d="M7,9.547V24h2V10.562C8.386,10.123,7.725,9.773,7,9.547z"/>
</svg>
