<?xml version="1.0" encoding="iso-8859-1"?>
<!-- Generator: Adobe Illustrator 19.1.1, SVG Export Plug-In . SVG Version: 6.00 Build 0)  -->
<svg version="1.1" id="Layer_1" xmlns="http://www.w3.org/2000/svg" xmlns:xlink="http://www.w3.org/1999/xlink" x="0px" y="0px"
	 viewBox="0 0 32 32" style="enable-background:new 0 0 32 32;" xml:space="preserve">
<g>
	<g>
		<path style="fill:none;stroke:#000000;stroke-width:2;stroke-miterlimit:10;" d="M6,12.9l10,4.375L26,12.9"/>
	</g>
</g>
<line style="fill:none;stroke:#000000;stroke-width:2;stroke-miterlimit:10;" x1="16" y1="27.528" x2="16" y2="17.25"/>
<g>
	<g>
		<path style="fill:none;stroke:#000000;stroke-width:2;stroke-linecap:round;stroke-miterlimit:10;" d="M6,12.9v10l10,4.75l10-4.75
			v-10L16,9.15L6,12.9z"/>
	</g>
</g>
<g>
	<polygon points="23,8.105 23,4 21,4 21,7.355 	"/>
	<polygon points="27,9.605 27,4 25,4 25,8.855 	"/>
	<polygon points="19,6.605 19,4 17,4 17,5.855 	"/>
	<polygon points="7,8.855 7,4 5,4 5,9.605 	"/>
	<polygon points="15,5.855 15,4 13,4 13,6.605 	"/>
	<polygon points="11,7.355 11,4 9,4 9,8.105 	"/>
</g>
</svg>
