<?xml version="1.0" encoding="iso-8859-1"?>
<!-- Generator: Adobe Illustrator 19.1.0, SVG Export Plug-In . SVG Version: 6.00 Build 0)  -->
<svg version="1.1" id="Layer_1" xmlns="http://www.w3.org/2000/svg" xmlns:xlink="http://www.w3.org/1999/xlink" x="0px" y="0px"
	 viewBox="0 0 32 32" style="enable-background:new 0 0 32 32;" xml:space="preserve">
<path d="M18.074,21.771l0.1,0.1c0,0-2.196,0.998-3.095,1.497c-1.298,0.599-4.093,1.997-4.392,2.196s-0.499,0.299-0.599,0.2
	c-0.2-0.1-0.399-0.299-0.599-0.799c-0.2-0.399-0.2-0.799-0.1-0.998c0-0.1,0-0.2,0.2-0.399c0.1,0,0.499-0.299,0.599-0.399
	c0.2-0.1,0.599-0.299,0.699-0.399c0.1,0,0.1,0,0.1,0c0,0.1,0,0.299,0.1,0.299h0.1c0,0.1,0,0.1,0.1,0.1h0.1v0.1h0.1
	c0.1,0,0.1,0.1,0.1,0.1c0,0.1,0,0.1,0.1,0c0.1,0,0.1,0,0.1,0h0.1l0.1,0.1h0.1c0,0,0,0.1,0.1,0.1c0,0,0.1-0.1,0.1,0
	c0.1,0.1-0.1,0.2,0,0.2h0.1h0.1h0.1h0.1h0.1c0,0,0-0.1,0.1-0.1s0,0.1,0,0.1h0.1c0.1,0,0.1-0.1,0.1-0.1c0-0.1,0.1-0.2,0.1-0.299
	c0,0,0.1-0.2,0.2-0.299c0-0.1,0.2-0.299,0.2-0.399l0.1-0.1c0,0,0-0.1,0.1-0.2c0-0.1,0.2-0.2,0.2-0.299c0,0,0.1-0.2,0.1-0.299
	s0.1-0.2,0.2-0.299c0-0.1,0.1-0.2,0.1-0.2l0.1-0.1c0,0,0-0.1,0.1-0.1c0-0.1,0.1-0.2,0.2-0.299c0-0.1,0.1-0.2,0.1-0.2l0.1-0.2
	l0.1-0.1c0,0,0-0.1,0.1-0.2c0,0,0.1-0.1,0.1-0.2l0.1-0.299c0-0.1,0.2-0.299,0.2-0.399s0.2-0.299,0.2-0.399s0-0.1,0-0.2
	c0,0,0.1-0.1,0.1-0.2l0.1-0.299c0,0,0-0.1,0.1-0.1c0,0,0.1,0,0.1,0.1c0,0,0.1,0,0.1,0.1l0.2,0.2h0.1v0.1l0.1,0.1c0,0,0,0.1,0.1,0.1
	c0,0,0.1,0.1,0.2,0.1c0,0,0.2,0.2,0.2,0.299c0,0,0,0.1,0.1,0.1l0.1,0.1v0.1l0.1,0.1c0,0,0,0.1,0.1,0.1c0,0,0,0,0.1,0.1
	c0,0,0,0.1,0,0.2l0.1,0.1l0.1,0.1c0,0,0,0.1,0,0.2l0.1,0.1v0.1v0.1v0.1v0.1v0.1l0.1,0.1v0.1l0.1,0.1v0.1l0,0
	C18.074,21.671,18.074,21.671,18.074,21.771L18.074,21.771z M6.394,15.681L6.394,15.681c0.1,0,0.1,0,0.1,0v0.1c0,0,0,0.1,0.1,0.1
	h0.1v0.1c0.1,0.1,0,0.399,0.1,0.399c0.1,0,0.2,0,0.299-0.1c0.1-0.1,0.1-0.1,0.2-0.2c0.1,0,0.2-0.1,0.299-0.1c0.1,0,0.1-0.1,0.2-0.1
	s0-0.1,0.1-0.1s0.1-0.1,0.2,0c0,0,0,0.1,0.1,0.1c0.1,0,0.1,0,0.1,0.1s0.2,0,0.2,0l0.2-0.1c0.1,0,0.299-0.1,0.299-0.1l0.2-0.1
	c2.296-1.098,4.193-1.697,5.89-2.396c2.596-0.998,7.188-2.196,8.086-2.396c0.1,0,0.299-0.1,0.299-0.1s0.1,0,0.1-0.1s0-0.2,0-0.2
	s0.1-0.2,0.1-0.299c-0.2-0.2-0.299-0.2-0.299-0.2s0-0.1,0-0.2s-0.1-0.1-0.2-0.2c0-0.1,0-0.2,0-0.299s-0.1-0.1-0.1-0.1s0,0,0-0.1
	h-0.1v-0.1l-0.1-0.1c0,0,0.1,0.1,0.1,0v-0.1c0,0-0.1,0-0.2,0c0,0-0.1,0-0.2,0c-0.1,0-0.1,0.1-0.2,0.1c-0.1,0-0.2,0-0.299,0
	s-0.1,0.1-0.2,0.1c-0.699,0.2-3.893,1.098-6.289,1.997c-2.196,0.799-4.892,1.997-6.489,2.895c-1.198,0.599-1.897,0.998-2.096,1.198
	c-0.1,0.1-0.299,0.2-0.299,0.2c0,0.1-0.1,0.2-0.2,0.2c-0.1,0-0.1,0.1-0.1,0.1s-0.1,0-0.1,0.1
	C6.294,15.581,6.294,15.581,6.394,15.681C6.294,15.681,6.394,15.681,6.394,15.681z M25.661,13.585c0.1-0.1,0.2-0.1,0.2-0.299
	c-0.1-0.299-0.2-0.799-0.399-1.098c-0.2-0.399-0.399-0.599-0.599-0.799c-0.1-0.1-0.1-0.1-0.299,0
	c-0.699,0.2-3.394,1.098-4.293,1.398c-1.098,0.2-3.095,0.898-3.893,1.198c-0.1,0.1-0.2,0.1-0.1,0.2c0.1,0.1,0.1,0.1,0.2,0.1
	c0,0,0.2,0.2,0.299,0.2c0.1,0.1,0.2,0.299,0.299,0.299l0.1,0.1c0.1,0,0.1,0.1,0.1,0.1l0.1,0.1l0.1,0.1l0.1,0.1l0.1,0.1l0.1,0.1
	l0.2,0.2l0.2,0.2l0.299,0.299c0,0,0.1,0.1,0.1,0.2c0.1,0.2,0.1,0.1,0.299,0c0.499-0.299,1.997-0.998,2.795-1.398
	C22.866,14.782,24.863,13.884,25.661,13.585z M28.956,15.781c-0.1-0.399-0.299-0.898-0.399-1.098c-0.1-0.1-0.1-0.2-0.299-0.1
	c-0.399,0.1-2.895,0.599-4.692,1.098c-1.797,0.499-3.794,1.098-4.093,1.198c-0.1,0-0.2,0-0.1,0.1c0.1,0.1,0.1,0.1,0.2,0.2
	c0,0,0.1,0.1,0.2,0.1c0.1,0,0.1,0.1,0.1,0.1s0.1,0.1,0.1,0.2l0.1,0.2l0.1,0.1c0,0,0,0.1,0.1,0.1c0,0,0.1,0.1,0.1,0.2l0.1,0.299
	l3.494-0.1c0,0,0.699-0.2,1.198-0.399c0.399-0.1,1.497-0.499,1.897-0.599c0.399-0.1,1.198-0.299,1.398-0.399
	c0.299-0.1,0.499-0.1,0.499-0.2C28.956,16.779,29.055,16.28,28.956,15.781z M13.682,9.192L13.682,9.192c0,0.1,0.1,0.1,0.1,0.2
	c0,0,0,0.1,0.1,0.1c0,0,0,0,0.1,0.1c0,0,0,0.1,0.1,0.1c0,0,0,0.1,0.1,0.1c0,0,0.1,0.1,0.1,0.2c0,0.1,0.1,0.1,0.2,0.1
	c0.1,0,0.1,0.1,0.1,0.1s0.1,0,0.2,0h0.2l0,0h0.1c0,0,0,0,0,0.1c0,0,0.1,0,0.2,0c0.1,0,0.2,0,0.2-0.1l0.1-0.1l0.1-0.1
	c0-0.1,0.1,0,0.1-0.1l0.1-0.1c0,0,0.1-0.1,0.2-0.2l0.299-0.399l0.1-0.2c0,0,0.1-0.299,0.1-0.399l0.1-0.2c0-0.1,0-0.2,0-0.299
	c0-0.1,0-0.2,0.1-0.299c0-0.1-0.1-0.299-0.1-0.299v-0.1c0,0,0,0,0-0.1v-0.1c0-0.1-0.1-0.1-0.1-0.2c0-0.1-0.1-0.1-0.1-0.2
	c0-0.1-0.1-0.1-0.1-0.1v-0.1c0-0.1-0.299-0.299-0.299-0.299s-0.1,0-0.1-0.1h-0.1c-0.1,0-0.1,0-0.1,0s-0.1,0-0.2,0l-0.1,0.1
	c-0.1,0-0.2,0-0.2,0h-0.1l-0.1,0.1l-0.1,0h-0.1c0,0-0.2,0.1-0.2,0.2c0,0-0.2,0.1-0.2,0.2c-0.1,0-0.299,0.299-0.299,0.299
	c0,0.1-0.2,0.2-0.2,0.299s-0.1,0.2-0.1,0.299s-0.1,0.2-0.1,0.299c0,0.1-0.1,0.299-0.1,0.299c0,0.1,0,0.1-0.1,0.2
	c0,0.1,0,0.2,0,0.299C13.582,8.893,13.582,9.092,13.682,9.192C13.582,9.092,13.582,9.092,13.682,9.192z M11.086,22.07
	c0,0,0-0.1,0-0.2c0,0,0.1-0.1,0.1-0.2c0-0.1,0.1-0.299,0.1-0.399c0.1-0.1,0.1-0.2,0.1-0.299c0-0.1,0.1-0.2,0.1-0.299
	s0.1-0.399,0.1-0.399c0-0.1,0.1-0.2,0.2-0.299c0-0.1,0.1-0.299,0.1-0.399c0-0.2,0.2-0.599,0.299-0.699c0-0.1,0.1-0.299,0.1-0.399
	l0.1-0.2v-0.2c0,0,0.1-0.1,0.1-0.2c0,0,0.1-0.299,0.1-0.399c0,0,0.1-0.299,0.2-0.299c0-0.1,0.1-0.2,0.1-0.299
	c0-0.1,0.1-0.299,0.1-0.299c0-0.1,0.1-0.299,0.1-0.399c0-0.1,0.2-0.399,0.2-0.499s0-0.2,0.1-0.2c0,0,0.1-0.1,0.1-0.2
	c0-0.1,0-0.1,0-0.2c0-0.1,0-0.1,0-0.1s0-0.1-0.1-0.1s-0.299,0.1-0.399,0.2c-0.2,0.1-1.497,0.699-2.396,1.098
	c-0.799,0.399-2.396,1.198-3.394,1.697c-0.898,0.499-2.496,1.298-2.995,1.597c0.1,0.2-0.2,0.399-0.299,0.499
	c-0.1,0.1-0.2,0.299-0.2,0.399c0,0.1,0,0.399,0.1,0.699s0.2,0.599,0.299,0.699c0.1,0.1,0.2,0.2,0.399,0.1
	c0.1-0.1,0.799-0.299,1.098-0.399c0.299-0.1,0.699-0.299,1.098-0.399c0.399-0.1,1.398-0.499,1.398-0.499s-1.298,0.699-1.497,0.799
	c-0.699,0.299-2.695,1.398-2.895,1.597C3.1,23.168,3,23.268,3,23.567c0,0.299,0.1,0.699,0.299,0.898
	c0.1,0.299,0.399,0.599,0.599,0.799c0.2,0.1,0.399-0.1,0.599-0.1c0.2-0.1,2.995-1.398,3.394-1.597
	C8.191,23.368,10.986,22.17,11.086,22.07L11.086,22.07z"/>
</svg>
