<?xml version="1.0" encoding="iso-8859-1"?>
<!-- Generator: Adobe Illustrator 19.1.0, SVG Export Plug-In . SVG Version: 6.00 Build 0)  -->
<svg version="1.1" id="Layer_1" xmlns="http://www.w3.org/2000/svg" xmlns:xlink="http://www.w3.org/1999/xlink" x="0px" y="0px"
	 viewBox="0 0 32 32" style="enable-background:new 0 0 32 32;" xml:space="preserve">
<g>
	<path d="M16,18.461c-8.837,0-16,1.103-16,2.461c0,1.36,7.163,2.461,16,2.461c8.838,0,16-1.102,16-2.461
		C31.999,19.564,24.837,18.461,16,18.461z M16,21.719c-2.085,0-3.773-0.405-3.773-0.905S13.915,19.91,16,19.91
		s3.773,0.405,3.773,0.905S18.084,21.719,16,21.719z"/>
</g>
<path d="M14.025,8.616l1.728,5.419l4.065-5.419h6.896c3.383,0,5.75,1.808,5.208,4.132c-0.54,2.325-3.766,4.133-7.133,4.133h-4.578
	c0,0,0.108-0.039,0.126-0.112c0.183-0.788,1.246-5.271,1.257-5.345c0.014-0.081-0.075-0.105-0.075-0.105h3.323
	c0,0-0.064-0.009-0.09,0.105c-0.016,0.068-0.688,2.893-0.834,3.524c-0.017,0.073-0.113,0.113-0.113,0.113h0.795
	c1.884,0,3.67-0.702,4.045-2.314c0.343-1.479-0.906-2.314-2.938-2.314h-0.741l-3.178,0.005l-7.308,8.358l-2.796-8.21
	c0,0-0.022-0.053-0.048-0.124c-0.006-0.018-0.079-0.087-0.145-0.048c-0.048,0.03-0.059,0.101-0.049,0.121
	c0.022,0.053,0.03,0.07,0.036,0.095c0.41,0.783,0.338,1.693,0.235,2.119c-0.564,2.317-3.766,4.133-7.133,4.133H0
	c0,0,0.108-0.039,0.126-0.112c0.183-0.789,1.248-5.295,1.258-5.345c0.012-0.068-0.076-0.105-0.076-0.105h3.351
	c0,0-0.097,0.03-0.118,0.103c-0.017,0.066-0.688,2.896-0.833,3.525C3.69,15.019,3.575,15.06,3.575,15.06h0.814
	c1.887,0,3.661-0.702,4.036-2.314c0.343-1.479-0.897-2.314-2.925-2.314H4.757H1.52c0,0,0.089-0.042,0.106-0.112
	c0.086-0.373,0.362-1.551,0.373-1.602c0.014-0.059-0.075-0.102-0.075-0.102H14.025L14.025,8.616z"/>
</svg>
