<?xml version="1.0" encoding="iso-8859-1"?>
<!-- Generator: Adobe Illustrator 19.1.1, SVG Export Plug-In . SVG Version: 6.00 Build 0)  -->
<svg version="1.1" id="Layer_1" xmlns="http://www.w3.org/2000/svg" xmlns:xlink="http://www.w3.org/1999/xlink" x="0px" y="0px"
	 viewBox="0 0 32 32" style="enable-background:new 0 0 32 32;" xml:space="preserve">
<rect x="14" y="12" style="fill:none;stroke:#000000;stroke-width:2;stroke-miterlimit:10;" width="4" height="5"/>
<path style="fill:none;stroke:#000000;stroke-width:2;stroke-miterlimit:10;" d="M18,8c0-1.1-2-4-2-4s-2,2.9-2,4s0.9,2,2,2
	S18,9.1,18,8z"/>
<polyline style="fill:none;stroke:#000000;stroke-width:2;stroke-miterlimit:10;" points="9,22.5 10,28 22,28 23,23 "/>
<path style="fill:none;stroke:#000000;stroke-width:2;stroke-miterlimit:10;" d="M11.851,22.388c0.664-0.508,1.634-0.508,2.297,0
	C14.653,22.774,15.292,23,16,23c0.708,0,1.347-0.226,1.852-0.612c0.711-0.545,1.689-0.408,2.43,0.096
	c0.51,0.347,1.141,0.538,1.833,0.514c1.535-0.052,2.831-1.349,2.884-2.884C25.058,18.359,23.738,17,22,17H10.116
	c-1.641,0-3.07,1.269-3.115,2.91C6.954,21.654,8.27,23,10,23C10.708,23,11.347,22.774,11.851,22.388z"/>
</svg>
