<?xml version="1.0" encoding="iso-8859-1"?>
<!-- Generator: Adobe Illustrator 19.1.1, SVG Export Plug-In . SVG Version: 6.00 Build 0)  -->
<svg version="1.1" id="Layer_1" xmlns="http://www.w3.org/2000/svg" xmlns:xlink="http://www.w3.org/1999/xlink" x="0px" y="0px"
	 viewBox="0 0 32 32" style="enable-background:new 0 0 32 32;" xml:space="preserve">
<path style="fill:none;stroke:#000000;stroke-width:2;stroke-miterlimit:10;" d="M10,16.162c0,2.764,1,3.246,1,5.243
	c0,1.161-2.179,2.868-2.179,2.868S7,24.576,7,27h4"/>
<path style="fill:none;stroke:#000000;stroke-width:2;stroke-miterlimit:10;" d="M12.974,10.107C13.623,10.462,14,11.432,14,12.369
	C14,14.599,17.936,15,19.629,15C23.909,15,26,17.755,26,19.937s-2,2.611-2,4.049c0,1.037,1,1.956,1,3.015c-2.388,0-12,0-12,0
	s-0.468-3,7-3"/>
<path style="fill:none;stroke:#000000;stroke-width:2;stroke-miterlimit:10;" d="M12.546,15.414c0,0-1.484,0.586-2.576,0.586
	C6.921,16,5,14,5,14c0-1.998,2.174-5,5.26-5c0.246,0,1.434,0,1.434,0s2.573-3.927,6.718-3.927C19.271,5.073,20,5.69,20,6.55
	c0,0.015,0,0.03,0,0.045c0,0.773-0.599,1.394-1.368,1.473c-3.589,0.372-5.14,2.399-5.14,2.932"/>
<circle cx="9" cy="12" r="1"/>
<circle cx="26.5" cy="21.5" r="1.5"/>
<path style="fill:none;stroke:#000000;stroke-width:2;stroke-miterlimit:10;" d="M20,24c-1.472,0-5-0.348-5-2.5
	c0-1.772,2.838-2.5,4-2.5"/>
</svg>
