<?xml version="1.0" encoding="iso-8859-1"?>
<!-- Generator: Adobe Illustrator 19.1.0, SVG Export Plug-In . SVG Version: 6.00 Build 0)  -->
<svg version="1.1" id="Layer_1" xmlns="http://www.w3.org/2000/svg" xmlns:xlink="http://www.w3.org/1999/xlink" x="0px" y="0px"
	 viewBox="0 0 32 32" style="enable-background:new 0 0 32 32;" xml:space="preserve">
<path style="fill:none;stroke:#000000;stroke-width:2;stroke-miterlimit:10;" d="M25.982,5.874c0,0-2.799,4.575-5.327,6.94
	c-0.483,0.452-0.693,0.795-0.919,1.349"/>
<path style="fill:none;stroke:#000000;stroke-width:2;stroke-miterlimit:10;" d="M23.807,9.122c-1.35,1.86-0.149,4.104,1.624,5.791"
	/>
<path style="fill:none;stroke:#000000;stroke-width:2;stroke-miterlimit:10;" d="M18.389,8.843c0,0,3.35,2.626,5.227,0.545"/>
<path d="M22.541,14.661c-0.032,2.212-1.063,4.066-2.055,5.326C18.162,22.938,14.236,25,10.94,25C8.618,25,7,22.967,7,21.142
	c0-2.492,1.121-2.937,3.655-3.706c1.366-0.415,2.915-0.885,4.402-1.918c0.901-0.625,1.557-1.372,2.137-2.031
	c0.756-0.86,1.35-1.518,2.269-1.783c-0.752-0.283-1.469-0.676-2.111-1.152c-0.647,0.475-1.17,1.057-1.66,1.614
	c-0.528,0.601-1.075,1.223-1.775,1.709c-1.229,0.854-2.558,1.257-3.842,1.646C7.58,16.279,5,17.062,5,21.142
	C5,23.971,7.387,27,10.94,27c3.929,0,8.396-2.321,11.117-5.775c1.141-1.449,1.889-3.009,2.247-4.595
	C23.602,16.047,23.009,15.364,22.541,14.661z"/>
</svg>
