<?xml version="1.0" encoding="iso-8859-1"?>
<!-- Generator: Adobe Illustrator 19.1.0, SVG Export Plug-In . SVG Version: 6.00 Build 0)  -->
<svg version="1.1" id="Layer_1" xmlns="http://www.w3.org/2000/svg" xmlns:xlink="http://www.w3.org/1999/xlink" x="0px" y="0px"
	 viewBox="0 0 32 32" style="enable-background:new 0 0 32 32;" xml:space="preserve">
<rect x="18" y="6" style="fill:none;stroke:#000000;stroke-width:2;stroke-miterlimit:10;" width="8" height="20"/>
<line style="fill:none;stroke:#000000;stroke-width:2;stroke-miterlimit:10;" x1="26" y1="22" x2="20" y2="22"/>
<line style="fill:none;stroke:#000000;stroke-width:2;stroke-miterlimit:10;" x1="14" y1="22" x2="8" y2="22"/>
<line style="fill:none;stroke:#000000;stroke-width:2;stroke-miterlimit:10;" x1="14" y1="11" x2="8" y2="11"/>
<line style="fill:none;stroke:#000000;stroke-width:2;stroke-miterlimit:10;" x1="26" y1="11" x2="20" y2="11"/>
<rect x="6" y="6" style="fill:none;stroke:#000000;stroke-width:2;stroke-miterlimit:10;" width="8" height="20"/>
<g>
	<polygon points="22,13.622 22.724,15.255 24.5,15.439 23.171,16.632 23.545,18.378 22,17.483 20.455,18.378 20.829,16.632 
		19.5,15.439 21.276,15.255 	"/>
</g>
<g>
	<polygon points="10,13.622 10.724,15.255 12.5,15.439 11.171,16.632 11.545,18.378 10,17.483 8.455,18.378 8.829,16.632 
		7.5,15.439 9.276,15.255 	"/>
</g>
</svg>
