<?xml version="1.0" encoding="iso-8859-1"?>
<!-- Generator: Adobe Illustrator 21.0.2, SVG Export Plug-In . SVG Version: 6.00 Build 0)  -->
<svg version="1.1"  xmlns="http://www.w3.org/2000/svg" xmlns:xlink="http://www.w3.org/1999/xlink" x="0px" y="0px"
	 viewBox="0 0 32 32" style="enable-background:new 0 0 32 32;" xml:space="preserve">
<line style="fill:none;stroke:#000000;stroke-width:2;stroke-miterlimit:10;" x1="5" y1="27" x2="27" y2="5"/>
<path d="M24.861,11.382C25.585,12.765,26,14.334,26,16c0,5.514-4.486,10-10,10c-1.666,0-3.235-0.415-4.618-1.139l-1.465,1.465
	C11.703,27.382,13.778,28,16,28c6.617,0,12-5.383,12-12c0-2.222-0.618-4.297-1.674-6.083L24.861,11.382z"/>
<path d="M7.518,24.489C5.25,22.221,4,19.207,4,16C4,9.383,9.383,4,16,4c3.205,0,6.217,1.248,8.484,3.513L23.07,8.928
	C21.181,7.04,18.67,6,16,6C10.486,6,6,10.486,6,16c0,2.672,1.041,5.185,2.932,7.074L7.518,24.489z"/>
</svg>
