<?xml version="1.0" encoding="iso-8859-1"?>
<!-- Generator: Adobe Illustrator 19.1.1, SVG Export Plug-In . SVG Version: 6.00 Build 0)  -->
<svg version="1.1" id="Layer_1" xmlns="http://www.w3.org/2000/svg" xmlns:xlink="http://www.w3.org/1999/xlink" x="0px" y="0px"
	 viewBox="-8 10 32 32" style="enable-background:new -8 10 32 32;" xml:space="preserve">
<g>
	<path d="M8,34c1.654,0,3-1.346,3-3c0-1.302-0.839-2.402-2-2.816V26h2v-2H9v-2h2v-2H9v-2h2v-2H9v-2H7v14.184
		C5.839,28.598,5,29.698,5,31C5,32.654,6.346,34,8,34z M8,30c0.551,0,1,0.448,1,1s-0.449,1-1,1s-1-0.448-1-1S7.449,30,8,30z"/>
	<path d="M19,30c0,0.306-0.756,1-2,1c-1.224,0-2-0.703-2-1h-2c0,1.626,1.832,3,4,3s4-1.374,4-3H19z"/>
	<path d="M3,30H1c0,0.306-0.755,1-2,1c-1.224,0-2-0.703-2-1h-2c0,1.626,1.832,3,4,3S3,31.626,3,30z"/>
	<path d="M14,36c-1.224,0-2-0.703-2-1h-2c0,0.306-0.756,1-2,1c-1.224,0-2-0.703-2-1H4c0,0.306-0.755,1-2,1c-1.224,0-2-0.703-2-1h-2
		c0,1.626,1.832,3,4,3c1.187,0,2.26-0.42,3-1.059C5.74,37.58,6.813,38,8,38c1.187,0,2.26-0.42,3-1.059C11.74,37.58,12.813,38,14,38
		c2.168,0,4-1.374,4-3h-2C16,35.306,15.244,36,14,36z"/>
</g>
</svg>
