<?xml version="1.0" encoding="iso-8859-1"?>
<!-- Generator: Adobe Illustrator 19.1.1, SVG Export Plug-In . SVG Version: 6.00 Build 0)  -->
<svg version="1.1" id="Layer_1" xmlns="http://www.w3.org/2000/svg" xmlns:xlink="http://www.w3.org/1999/xlink" x="0px" y="0px"
	 viewBox="0 0 32 32" style="enable-background:new 0 0 32 32;" xml:space="preserve">
<path style="fill:none;stroke:#000000;stroke-width:2;stroke-miterlimit:10;" d="M14,25.799C14.646,25.93,15.315,26,16,26
	c5.523,0,10-4.477,10-10c0-5.523-4.477-10-10-10c-0.685,0-1.354,0.07-2,0.201"/>
<path style="fill:none;stroke:#000000;stroke-width:2;stroke-miterlimit:10;" d="M18,25.799C18.646,25.93,19.315,26,20,26
	c5.523,0,10-4.477,10-10c0-5.523-4.477-10-10-10c-0.685,0-1.354,0.07-2,0.201"/>
<circle style="fill:none;stroke:#000000;stroke-width:2;stroke-miterlimit:10;" cx="12" cy="16" r="10"/>
<line style="fill:none;stroke:#000000;stroke-width:2;stroke-miterlimit:10;" x1="9" y1="20" x2="15" y2="20"/>
<line style="fill:none;stroke:#000000;stroke-width:2;stroke-miterlimit:10;" x1="12" y1="11" x2="12" y2="20"/>
<path style="fill:none;stroke:#000000;stroke-width:2;stroke-miterlimit:10;" d="M9,14L9,14c1.657,0,3-1.343,3-3v0"/>
</svg>
