<?xml version="1.0" encoding="iso-8859-1"?>
<!-- Generator: Adobe Illustrator 19.1.1, SVG Export Plug-In . SVG Version: 6.00 Build 0)  -->
<svg version="1.1" id="Layer_1" xmlns="http://www.w3.org/2000/svg" xmlns:xlink="http://www.w3.org/1999/xlink" x="0px" y="0px"
	 viewBox="-7 9 32 32" style="enable-background:new -7 9 32 32;" xml:space="preserve">
<path d="M22,19h-1c-3.176,0-5.136-0.567-7.03-1.116C12.399,17.429,10.916,17,9,17c-1.917,0-3.402,0.43-4.975,0.885
	C2.129,18.433,0.169,19-3,19h-1v3c0,0.119,0.03,1.364,1,2.771v2.842c0,0.534,0.214,1.05,0.589,1.419
	c0.329,0.32,0.865,0.771,1.556,1.103c0.271,0.13,0.563,0.194,0.853,0.194c0.043,0,0.085-0.015,0.129-0.018
	c0.106,0.294,0.273,0.564,0.51,0.787c0.537,0.502,1.511,1.149,3.099,1.386c0.095,0.014,0.189,0.021,0.284,0.021
	c0.193,0,0.383-0.035,0.566-0.091C4.948,32.775,5.448,33,6,33h2c0.366,0,0.705-0.106,1-0.278C9.295,32.894,9.634,33,10,33h2
	c0.552,0,1.052-0.225,1.414-0.588c0.184,0.056,0.373,0.091,0.566,0.091c0.094,0,0.189-0.007,0.283-0.021
	c1.59-0.236,2.563-0.884,3.101-1.387c0.237-0.222,0.403-0.492,0.509-0.786c0.043,0.003,0.085,0.018,0.128,0.018
	c0.29,0,0.581-0.064,0.854-0.194c0.692-0.332,1.229-0.783,1.556-1.104C20.785,28.665,21,28.148,21,27.613v-2.842
	c0.97-1.407,1-2.652,1-2.771V19z M-2,20.981c2.889-0.108,4.839-0.672,6.581-1.175C6.076,19.374,7.367,19,9,19
	c1.632,0,2.921,0.373,4.413,0.805c1.741,0.504,3.691,1.069,6.587,1.177v1.003C19.994,22.19,19.72,27,9,27s-10.994-4.81-11-5V20.981z
	 M-1,27.613v-0.913c0.302,0.203,0.634,0.398,1,0.586v1.039C-0.44,28.114-0.794,27.815-1,27.613z M2,29.631v-1.31v-0.23
	c0.604,0.189,1.268,0.355,2,0.491v1.916C2.885,30.326,2.27,29.886,2,29.631z M6,31v-0.501v-1.64c0.627,0.061,1.292,0.104,2,0.124V31
	H6z M12,31h-2v-2.017c0.708-0.02,1.373-0.063,2-0.124v1.64V31z M14,30.499v-1.916c0.732-0.136,1.394-0.302,1.998-0.491l-0.002,1.545
	C15.728,29.889,15.106,30.337,14,30.499z M18,28.321v-1.035c0.369-0.189,0.705-0.387,1.009-0.591l0.004,0.906
	C18.793,27.816,18.438,28.117,18,28.321z"/>
</svg>
