<?xml version="1.0" encoding="iso-8859-1"?>
<!-- Generator: Adobe Illustrator 19.1.0, SVG Export Plug-In . SVG Version: 6.00 Build 0)  -->
<svg version="1.1" id="Layer_1" xmlns="http://www.w3.org/2000/svg" xmlns:xlink="http://www.w3.org/1999/xlink" x="0px" y="0px"
	 viewBox="0 0 32 32" style="enable-background:new 0 0 32 32;" xml:space="preserve">
<path id="XMLID_15_" style="fill:none;stroke:#000000;stroke-width:2;stroke-miterlimit:10;" d="M7,23c0,0.984,1.328,2,3,2s3-1,3-2"
	/>
<path id="XMLID_14_" style="fill:none;stroke:#000000;stroke-width:2;stroke-miterlimit:10;" d="M13,23c0,0.984,1.328,2,3,2s3-1,3-2
	"/>
<path id="XMLID_13_" style="fill:none;stroke:#000000;stroke-width:2;stroke-miterlimit:10;" d="M19,23c0,0.984,1.328,2,3,2s3-1,3-2
	"/>
<path id="XMLID_11_" style="fill:none;stroke:#000000;stroke-width:2;stroke-miterlimit:10;" d="M25,23c0,0.984,1.328,2,3,2s3-1,3-2
	"/>
<path id="XMLID_10_" style="fill:none;stroke:#000000;stroke-width:2;stroke-miterlimit:10;" d="M1,23c0,0.984,1.328,2,3,2s3-1,3-2"
	/>
<polyline style="fill:none;stroke:#000000;stroke-width:2;stroke-miterlimit:10;" points="28,25 28,20 10.375,20 7,20 7,11.875 
	9,9.875 9,5.875 4,5.875 4,25 "/>
<polygon style="fill:none;stroke:#000000;stroke-width:2;stroke-linejoin:round;stroke-miterlimit:10;" points="28,17 13,17 13,12 
	16,6 25,6 28,12 "/>
<path d="M13,19h3l1-3h-5v2C12,18.552,12.448,19,13,19z"/>
<path d="M25,19h3c0.552,0,1-0.448,1-1v-2h-5L25,19z"/>
<line style="fill:none;stroke:#000000;stroke-width:2;stroke-miterlimit:10;" x1="27" y1="10" x2="14" y2="10"/>
<circle cx="24.5" cy="13.5" r="1.5"/>
<circle cx="16.5" cy="13.5" r="1.5"/>
</svg>
