<?xml version="1.0" encoding="iso-8859-1"?>
<!-- Generator: Adobe Illustrator 19.1.1, SVG Export Plug-In . SVG Version: 6.00 Build 0)  -->
<svg version="1.1" id="Layer_1" xmlns="http://www.w3.org/2000/svg" xmlns:xlink="http://www.w3.org/1999/xlink" x="0px" y="0px"
	 viewBox="0 0 32 32" style="enable-background:new 0 0 32 32;" xml:space="preserve">
<line style="fill:none;stroke:#000000;stroke-width:2;stroke-miterlimit:10;" x1="11" y1="8" x2="11" y2="5"/>
<line style="fill:none;stroke:#000000;stroke-width:2;stroke-miterlimit:10;" x1="5" y1="11" x2="8" y2="11"/>
<line style="fill:none;stroke:#000000;stroke-width:2;stroke-miterlimit:10;" x1="13.121" y1="8.879" x2="15.243" y2="6.757"/>
<line style="fill:none;stroke:#000000;stroke-width:2;stroke-miterlimit:10;" x1="6.757" y1="6.757" x2="8.879" y2="8.879"/>
<path style="fill:none;stroke:#000000;stroke-width:2;stroke-miterlimit:10;" d="M26,13c-15.708,0-20,4-20,4v9h20V13z"/>
<path d="M9.34,12.115C9.126,11.796,9,11.412,9,11c0-1.103,0.897-2,2-2s2,0.897,2,2c0,0.056-0.012,0.109-0.017,0.163
	c1.193-0.248,2.528-0.472,4.017-0.655V10h-2.142c-0.447-1.72-2-3-3.858-3c-2.206,0-4,1.794-4,4c0,0.653,0.175,1.259,0.456,1.802
	C8.007,12.575,8.634,12.343,9.34,12.115z"/>
<path style="fill:none;stroke:#000000;stroke-width:2;stroke-miterlimit:10;" d="M26,17c-12.583,0-20,8-20,8"/>
<path style="fill:none;stroke:#000000;stroke-width:2;stroke-miterlimit:10;" d="M15,26c0,0,5-4.583,11-5"/>
</svg>
