<?xml version="1.0" encoding="iso-8859-1"?>
<!-- Generator: Adobe Illustrator 19.1.0, SVG Export Plug-In . SVG Version: 6.00 Build 0)  -->
<svg version="1.1" id="Layer_1" xmlns="http://www.w3.org/2000/svg" xmlns:xlink="http://www.w3.org/1999/xlink" x="0px" y="0px"
	 viewBox="0 0 32 32" style="enable-background:new 0 0 32 32;" xml:space="preserve">
<rect x="8" y="9" width="2" height="2"/>
<rect x="12" y="9" width="2" height="2"/>
<rect x="8" y="13" width="2" height="2"/>
<rect x="12" y="13" width="2" height="2"/>
<rect x="8" y="17" width="2" height="2"/>
<rect x="12" y="17" width="2" height="2"/>
<rect x="8" y="21" width="2" height="2"/>
<rect x="12" y="21" width="2" height="2"/>
<path style="fill:none;stroke:#000000;stroke-width:2;stroke-miterlimit:10;" d="M24.111,22.889C24.111,24.607,22.718,26,21,26
	s-3.111-1.393-3.111-3.111c0-2.569,0.943-4.494,0.943-4.494s0.833,1.337,1.723,1.337c1.241,0,1.137-4.102,1.137-4.102
	S24.111,18.316,24.111,22.889z"/>
<path style="fill:none;stroke:#000000;stroke-width:2;stroke-miterlimit:10;" d="M17,12.569V6H5v20h16"/>
<path style="fill:none;stroke:#000000;stroke-width:2;stroke-miterlimit:10;" d="M28,19.778C28,23.644,24.866,26,21,26
	s-7-2.356-7-6.222C14,14.452,21,8,21,8S28,15.155,28,19.778z"/>
</svg>
