<?xml version="1.0" encoding="iso-8859-1"?>
<!-- Generator: Adobe Illustrator 19.1.1, SVG Export Plug-In . SVG Version: 6.00 Build 0)  -->
<svg version="1.1" id="Layer_1" xmlns="http://www.w3.org/2000/svg" xmlns:xlink="http://www.w3.org/1999/xlink" x="0px" y="0px"
	 viewBox="0 0 32 32" style="enable-background:new 0 0 32 32;" xml:space="preserve">
<polygon points="16,9 16.319,9.651 17.032,9.755 16.516,10.262 16.638,10.977 16,10.639 15.362,10.977 15.484,10.262 14.968,9.755 
	15.681,9.651 "/>
<polygon points="12.935,9.923 13.254,10.574 13.967,10.678 13.451,11.185 13.573,11.9 12.935,11.562 12.297,11.9 12.419,11.185 
	11.903,10.678 12.616,10.574 "/>
<polygon points="10.758,11.945 11.077,12.596 11.79,12.7 11.274,13.207 11.396,13.922 10.758,13.584 10.12,13.922 10.242,13.207 
	9.726,12.7 10.439,12.596 "/>
<polygon points="19.065,9.923 18.746,10.574 18.033,10.678 18.549,11.185 18.427,11.9 19.065,11.562 19.703,11.9 19.581,11.185 
	20.097,10.678 19.384,10.574 "/>
<polygon points="12.935,19.759 13.254,20.41 13.967,20.515 13.451,21.021 13.573,21.737 12.935,21.399 12.297,21.737 12.419,21.021 
	11.903,20.515 12.616,20.41 "/>
<polygon points="19.065,19.759 18.746,20.41 18.033,20.515 18.549,21.021 18.427,21.737 19.065,21.399 19.703,21.737 19.581,21.021 
	20.097,20.515 19.384,20.41 "/>
<polygon points="21.242,11.945 20.923,12.596 20.21,12.7 20.726,13.207 20.604,13.922 21.242,13.584 21.88,13.922 21.758,13.207 
	22.274,12.7 21.561,12.596 "/>
<polygon points="10.758,17.708 11.077,18.359 11.79,18.463 11.274,18.97 11.396,19.685 10.758,19.347 10.12,19.685 10.242,18.97 
	9.726,18.463 10.439,18.359 "/>
<polygon points="21.242,17.708 20.923,18.359 20.21,18.463 20.726,18.97 20.604,19.685 21.242,19.347 21.88,19.685 21.758,18.97 
	22.274,18.463 21.561,18.359 "/>
<polygon points="21.968,15.011 22.287,15.662 23,15.767 22.484,16.273 22.606,16.989 21.968,16.651 21.33,16.989 21.452,16.273 
	20.936,15.767 21.649,15.662 "/>
<polygon points="10.032,15.011 10.351,15.662 11.064,15.767 10.548,16.273 10.67,16.989 10.032,16.651 9.394,16.989 9.516,16.273 
	9,15.767 9.713,15.662 "/>
<polygon points="16,21.023 16.319,21.673 17.032,21.778 16.516,22.284 16.638,23 16,22.662 15.362,23 15.484,22.284 14.968,21.778 
	15.681,21.673 "/>
<rect x="3" y="7" style="fill:none;stroke:#000000;stroke-width:2;stroke-miterlimit:10;" width="26" height="18"/>
</svg>
