<?xml version="1.0" encoding="iso-8859-1"?>
<!-- Generator: Adobe Illustrator 19.2.0, SVG Export Plug-In . SVG Version: 6.00 Build 0)  -->
<svg version="1.1" id="Layer_1" xmlns="http://www.w3.org/2000/svg" xmlns:xlink="http://www.w3.org/1999/xlink" x="0px" y="0px"
	 viewBox="0 0 32 32" style="enable-background:new 0 0 32 32;" xml:space="preserve">
<rect x="14.759" y="23.645" transform="matrix(0.5878 0.809 -0.809 0.5878 27.432 -4.5492)" width="6.842" height="2"/>
<rect x="10.399" y="23.645" transform="matrix(-0.5878 0.809 -0.809 -0.5878 41.8808 27.9498)" width="6.842" height="2"/>
<g>
	<path d="M22,6c0,7.122-1.567,8.58-2.402,9H7.681C8.938,12.991,10,10.085,10,6H22 M24,4H8v2c0,6.563-2.969,9.781-5,11h17
		c2.25-0.844,4-3.281,4-11V4L24,4z"/>
</g>
<g>
	<path d="M24,21v-5.331c-0.518,1.392-1.207,2.26-2,2.807V21H10v-2H8v2H6v2h20v-2H24z"/>
	<path d="M8.334,12.917L8,13v0.913C8.121,13.597,8.231,13.263,8.334,12.917z"/>
</g>
</svg>
