<?xml version="1.0" encoding="iso-8859-1"?>
<!-- Generator: Adobe Illustrator 19.2.0, SVG Export Plug-In . SVG Version: 6.00 Build 0)  -->
<svg version="1.1" id="Layer_1" xmlns="http://www.w3.org/2000/svg" xmlns:xlink="http://www.w3.org/1999/xlink" x="0px" y="0px"
	 viewBox="0 0 32 32" style="enable-background:new 0 0 32 32;" xml:space="preserve">
<circle cx="14" cy="19" r="1"/>
<circle cx="11" cy="20" r="1"/>
<circle cx="13" cy="16" r="1"/>
<circle cx="12" cy="13" r="1"/>
<circle cx="11" cy="10" r="1"/>
<circle cx="10" cy="7" r="1"/>
<circle cx="9" cy="4" r="1"/>
<circle cx="8" cy="21" r="1"/>
<circle cx="5" cy="22" r="1"/>
<path style="fill:none;stroke:#000000;stroke-width:2;stroke-miterlimit:10;" d="M8.001,21.025
	c-0.563-0.824-0.892-1.819-0.892-2.892c0-2.754,2.169-5.001,4.891-5.127"/>
<path d="M26.877,22.519C25.718,20.406,25,18.077,25,13V3h-2v10c0,4.756,0.596,7.694,2.123,10.481
	c0.661,1.205,0.838,2.185,0.498,2.759C25.312,26.762,24.563,27,24,27c-0.531,0-1.181-0.197-1.869-0.406
	C21.213,26.316,20.172,26,19,26c-1.188,0-2.635,0.328-3.91,0.617C14.259,26.805,13.399,27,13,27c-0.979,0-1.953-0.367-2.293-0.707
	l-0.568-0.569c2.273-0.766,4.737-1.622,5.195-1.781C15.483,23.89,19,22.603,19,19c0-2.361-1.115-5.422-2.964-10.494
	C15.443,6.88,14.777,5.049,14.06,3h-2.137l0.143,0.357c0.761,2.184,1.466,4.118,2.092,5.834C15.869,13.889,17,16.992,17,19
	c0,2.177-2.243,3.024-2.329,3.056c-2.159,0.751-7.968,2.75-8.901,2.971L5,25.209V26c0,1.71,1.29,3,3,3
	c0.872,0,1.585-0.367,2.07-0.722C10.876,28.726,11.95,29,13,29c0.623,0,1.508-0.201,2.532-0.433C16.705,28.301,18.035,28,19,28
	c0.876,0,1.728,0.258,2.551,0.508C22.348,28.75,23.173,29,24,29c1.065,0,2.58-0.456,3.342-1.741
	C28.077,26.017,27.921,24.422,26.877,22.519z M9.231,26.36C9.227,26.366,8.657,27,8,27c-0.324,0-0.59-0.118-0.767-0.321
	c0.639-0.2,1.48-0.478,2.381-0.779L9.231,26.36z"/>
</svg>
