<?xml version="1.0" encoding="iso-8859-1"?>
<!-- Generator: Adobe Illustrator 19.1.1, SVG Export Plug-In . SVG Version: 6.00 Build 0)  -->
<svg version="1.1" id="Layer_1" xmlns="http://www.w3.org/2000/svg" xmlns:xlink="http://www.w3.org/1999/xlink" x="0px" y="0px"
	 viewBox="0 0 32 32" style="enable-background:new 0 0 32 32;" xml:space="preserve">
<path style="fill:none;stroke:#000000;stroke-width:2;stroke-miterlimit:10;" d="M9,15v1l-2-1c0,0,0,3.747,0,4c0,1.105,0.895,2,2,2
	c0,3.866,4.688,7,7,7c2.312,0,7-3.134,7-7c1.105,0,2-0.895,2-2c0-0.253,0-4,0-4l-2,1v-1"/>
<path d="M10.973,17c0,0-0.417,3,2,3c1.333,0,2-1,2-1L10.973,17z"/>
<path d="M20.973,17c0,0,0.417,3-2,3c-1.333,0-2-1-2-1L20.973,17z"/>
<path d="M18,22l-0.5,1L17,22l-0.5,1L16,22l-0.5,1L15,22l-0.5,1L14,22c-0.552,0-1,0.448-1,1c0,0,0.007,0.155,0.076,0.375
	c0.003,0.006,0.003,0.013,0.006,0.019C13.269,23.976,13.896,25,16,25s2.731-1.024,2.918-1.606c0.003-0.006,0.004-0.013,0.006-0.019
	C18.993,23.155,19,23,19,23C19,22.448,18.552,22,18,22z"/>
<path style="fill:none;stroke:#000000;stroke-width:2;stroke-miterlimit:10;" d="M16,16c-6.375,0-12-2.953-12-2.953V13
	c0,0,3.917-0.042,5-2c0,0,1.458-7,4.479-7C14.875,4,16,5.021,16,6"/>
<path style="fill:none;stroke:#000000;stroke-width:2;stroke-miterlimit:10;" d="M16,16c6.375,0,12-2.953,12-2.953V13
	c0,0-3.917-0.042-5-2c0,0-1.458-7-4.479-7C17.125,4,16,5.021,16,6"/>
<path style="fill:none;stroke:#000000;stroke-width:2;stroke-miterlimit:10;" d="M9,11c0,0,2.292,1,7,1s7-1,7-1"/>
</svg>
