<?xml version="1.0" encoding="iso-8859-1"?>
<!-- Generator: Adobe Illustrator 21.0.0, SVG Export Plug-In . SVG Version: 6.00 Build 0)  -->
<svg version="1.1" 
	 xmlns="http://www.w3.org/2000/svg" xmlns:xlink="http://www.w3.org/1999/xlink" x="0px" y="0px" viewBox="0 0 32 32"
	 style="enable-background:new 0 0 32 32;" xml:space="preserve">
<path d="M21,5c-2.288,0-4.392,0.859-6,2.265V13h0.014c0.477-2.837,3.013-5,5.986-5c3.314,0,6,2.686,6,6s-2.686,6-6,6
	c-1.768,0-3.358-0.765-4.456-1.982c-0.018-0.02-1.913-2.207-2.552-2.899C12.757,13.784,10.962,13,9,13c-3.866,0-7,3.134-7,7
	c0,3.866,3.134,7,7,7c1.49,0,2.865-0.474,4-1.267V21c0,0-1,3-4,3c-2.209,0-4-1.791-4-4c0-2.209,1.791-4,4-4
	c1.217,0,2.304,0.548,3.037,1.406c0,0,2.455,2.778,2.629,2.957C16.268,22.008,18.522,23,21,23c4.971,0,9-4.029,9-9
	C30,9.029,25.971,5,21,5z"/>
</svg>
