<?xml version="1.0" encoding="iso-8859-1"?>
<!-- Generator: Adobe Illustrator 19.1.0, SVG Export Plug-In . SVG Version: 6.00 Build 0)  -->
<svg version="1.1" id="Layer_1" xmlns="http://www.w3.org/2000/svg" xmlns:xlink="http://www.w3.org/1999/xlink" x="0px" y="0px"
	 viewBox="0 0 32 32" style="enable-background:new 0 0 32 32;" xml:space="preserve">
<path style="fill:none;stroke:#000000;stroke-width:2;stroke-miterlimit:10;" d="M19.148,25.855
	c1.163,0.248,2.434,0.205,3.769-0.341c2.119-0.867,3.702-2.812,4.018-5.08C27.493,16.429,24.397,13,20.5,13h-0.273
	C19.55,13,19,12.45,19,11.773V7l-2-2l-2,2h-2v4.773C13,12.45,12.45,13,11.773,13h0c-3.338,0-6.336,2.396-6.726,5.711
	C4.583,22.654,7.651,26,11.5,26c0.464,0,0.916-0.052,1.352-0.145"/>
<path style="fill:none;stroke:#000000;stroke-width:2;stroke-miterlimit:10;" d="M17.937,16.173c0,0,3.063,2.173,3.063,5.827
	c0,2.761-2.239,5-5,5s-5-2.239-5-5c0-1.04,0.328-2.014,0.879-2.82"/>
</svg>
