<?xml version="1.0" encoding="iso-8859-1"?>
<!-- Generator: Adobe Illustrator 19.1.1, SVG Export Plug-In . SVG Version: 6.00 Build 0)  -->
<svg version="1.1" id="Layer_1" xmlns="http://www.w3.org/2000/svg" xmlns:xlink="http://www.w3.org/1999/xlink" x="0px" y="0px"
	 viewBox="0 0 32 32" style="enable-background:new 0 0 32 32;" xml:space="preserve">
<circle style="fill:none;stroke:#000000;stroke-width:2;stroke-miterlimit:10;" cx="16" cy="8" r="4"/>
<circle cx="16" cy="15" r="1"/>
<circle cx="16" cy="18" r="1"/>
<line style="fill:none;stroke:#000000;stroke-width:2;stroke-miterlimit:10;" x1="24.437" y1="10.625" x2="25.375" y2="13.875"/>
<line style="fill:none;stroke:#000000;stroke-width:2;stroke-miterlimit:10;" x1="18.937" y1="25.75" x2="22.312" y2="24.063"/>
<line style="fill:none;stroke:#000000;stroke-width:2;stroke-miterlimit:10;" x1="13.063" y1="25.75" x2="9.688" y2="24.063"/>
<path style="fill:none;stroke:#000000;stroke-width:2;stroke-miterlimit:10;" d="M27.939,11.515
	c-0.13-0.522-0.456-0.961-0.919-1.236c-0.459-0.273-0.998-0.351-1.505-0.219L17.754,12h-3.508l-7.755-1.938
	c-0.518-0.134-1.056-0.056-1.515,0.218c-0.462,0.275-0.787,0.715-0.916,1.234C3.93,12.032,4.01,12.57,4.284,13.028
	c0.275,0.458,0.713,0.783,1.231,0.912L12,15.562v3.263l-2.828,6.363c-0.446,1.009,0.01,2.193,1.016,2.64
	C10.444,27.942,10.718,28,10.999,28c0.789,0,1.507-0.466,1.829-1.187L15.412,21h1.177l2.583,5.813
	C19.494,27.535,20.212,28,21.001,28c0.281,0,0.555-0.058,0.812-0.173c1.006-0.447,1.462-1.631,1.016-2.64L20,18.825v-3.263
	l6.484-1.621c0.519-0.129,0.956-0.454,1.231-0.912C27.99,12.57,28.07,12.032,27.939,11.515z"/>
<line style="fill:none;stroke:#000000;stroke-width:2;stroke-miterlimit:10;" x1="7.563" y1="10.625" x2="6.625" y2="13.875"/>
</svg>
