<?xml version="1.0" encoding="iso-8859-1"?>
<!-- Generator: Adobe Illustrator 19.1.1, SVG Export Plug-In . SVG Version: 6.00 Build 0)  -->
<svg version="1.1" id="Layer_1" xmlns="http://www.w3.org/2000/svg" xmlns:xlink="http://www.w3.org/1999/xlink" x="0px" y="0px"
	 viewBox="0 0 32 32" style="enable-background:new 0 0 32 32;" xml:space="preserve">
<g>
	<path d="M21.013,17.226C20.8,17.65,20.576,18.075,20.33,18.5c-0.246,0.427-0.502,0.832-0.763,1.229
		c0.758-0.118,1.464-0.27,2.105-0.453C21.511,18.629,21.289,17.941,21.013,17.226z"/>
	<path d="M12.432,19.729c-0.26-0.396-0.516-0.802-0.762-1.228c-0.246-0.427-0.47-0.853-0.684-1.276
		c-0.276,0.716-0.497,1.403-0.66,2.051C10.969,19.459,11.675,19.61,12.432,19.729z"/>
	<path d="M13.749,19.896C14.463,19.963,15.213,20,16,20c0.786,0,1.536-0.037,2.249-0.104c0.414-0.585,0.822-1.215,1.215-1.896
		c0.393-0.68,0.735-1.348,1.034-1.999c-0.299-0.651-0.642-1.319-1.034-2c-0.394-0.681-0.801-1.312-1.216-1.897
		C17.535,12.038,16.785,12,16,12c-0.786,0-1.536,0.038-2.25,0.104c-0.414,0.585-0.821,1.215-1.215,1.896
		c-0.393,0.681-0.735,1.349-1.034,2c0.299,0.651,0.642,1.319,1.034,2S13.335,19.312,13.749,19.896z M16,14.833
		c0.645,0,1.166,0.522,1.166,1.167c0,0.645-0.521,1.166-1.166,1.166S14.834,16.644,14.834,16C14.834,15.356,15.355,14.833,16,14.833
		z"/>
	<path d="M19.566,12.271c0.261,0.396,0.518,0.803,0.764,1.23c0.246,0.426,0.47,0.851,0.683,1.275
		c0.276-0.716,0.498-1.404,0.66-2.051C21.031,12.542,20.324,12.39,19.566,12.271z"/>
	<path d="M12.433,12.271c-0.758,0.119-1.464,0.271-2.107,0.454c0.162,0.648,0.384,1.336,0.66,2.052
		c0.214-0.424,0.438-0.85,0.684-1.277S12.173,12.667,12.433,12.271z"/>
	<path d="M16,11c0.492,0,0.972,0.019,1.444,0.046c-0.481-0.597-0.966-1.132-1.445-1.596c-0.479,0.464-0.964,1-1.445,1.596
		C15.027,11.019,15.508,11,16,11z"/>
	<path d="M16,3C8.82,3,3,8.82,3,16s5.82,13,13,13s13-5.82,13-13S23.18,3,16,3z M22.827,19.942c0.49,2.665,0.076,4.774-1.327,5.585
		s-3.438,0.114-5.5-1.643c-2.062,1.756-4.097,2.452-5.5,1.643c-1.403-0.811-1.818-2.92-1.328-5.586C6.619,19.034,5,17.62,5,16
		s1.619-3.034,4.172-3.942C8.682,9.394,9.097,7.285,10.5,6.475c1.402-0.81,3.438-0.115,5.5,1.642c2.062-1.756,4.097-2.452,5.5-1.642
		c1.402,0.81,1.817,2.919,1.328,5.584C25.381,12.966,27,14.38,27,16S25.38,19.034,22.827,19.942z"/>
	<path d="M22.614,13.028c-0.239,0.947-0.584,1.946-1.028,2.973c0.444,1.027,0.788,2.025,1.028,2.972C24.751,18.193,26,17.076,26,16
		S24.751,13.808,22.614,13.028z"/>
	<path d="M21.881,11.758c0.393-2.24,0.05-3.88-0.881-4.417c-0.932-0.538-2.523-0.015-4.268,1.446c0.7,0.681,1.394,1.478,2.06,2.376
		C19.903,11.291,20.941,11.492,21.881,11.758z"/>
	<path d="M18.793,20.838c-0.667,0.898-1.36,1.696-2.061,2.377c1.744,1.461,3.336,1.984,4.268,1.446
		c0.931-0.537,1.274-2.178,0.881-4.419C20.941,20.508,19.904,20.709,18.793,20.838z"/>
	<path d="M10.118,20.242c-0.393,2.24-0.05,3.881,0.882,4.418c0.931,0.538,2.522,0.016,4.267-1.445
		c-0.7-0.682-1.394-1.479-2.06-2.377C12.096,20.709,11.058,20.508,10.118,20.242z"/>
	<path d="M16,21c-0.493,0-0.974-0.02-1.447-0.046c0.481,0.597,0.967,1.133,1.446,1.597c0.479-0.464,0.965-1,1.446-1.597
		C16.973,20.981,16.492,21,16,21z"/>
	<path d="M9.386,13.028C7.249,13.808,6,14.924,6,16s1.249,2.192,3.386,2.973C9.625,18.025,9.97,17.027,10.414,16
		C9.969,14.974,9.625,13.975,9.386,13.028z"/>
	<path d="M13.207,11.163c0.667-0.898,1.359-1.695,2.06-2.376C13.522,7.326,11.931,6.803,11,7.341
		c-0.932,0.537-1.275,2.177-0.882,4.417C11.058,11.492,12.096,11.291,13.207,11.163z"/>
</g>
</svg>
