<?xml version="1.0" encoding="iso-8859-1"?>
<!-- Generator: Adobe Illustrator 19.1.1, SVG Export Plug-In . SVG Version: 6.00 Build 0)  -->
<svg version="1.1" id="Layer_1" xmlns="http://www.w3.org/2000/svg" xmlns:xlink="http://www.w3.org/1999/xlink" x="0px" y="0px"
	 viewBox="0 0 32 32" style="enable-background:new 0 0 32 32;" xml:space="preserve">
<path d="M18,28h-4C14,7.643,7.02,4.068,7.02,4.068S18,9.503,18,28z"/>
<path d="M13,28H9c0-11.703-5-16-5-16S13,17.811,13,28z"/>
<path d="M19,28h4c0-11.703,5-16,5-16S19,17.811,19,28z"/>
<path d="M25,8c0,0-4.905,1.24-7.219,7.502c0.145,0.481,0.283,0.981,0.412,1.5c0.243,0.974,0.456,2.015,0.632,3.125
	C20.281,9.891,25,8,25,8z"/>
</svg>
