<?xml version="1.0" encoding="utf-8"?>
<!-- Generator: Adobe Illustrator 18.1.1, SVG Export Plug-In . SVG Version: 6.00 Build 0)  -->
<svg version="1.1" id="Layer_1" xmlns="http://www.w3.org/2000/svg" xmlns:xlink="http://www.w3.org/1999/xlink" x="0px" y="0px"
	 viewBox="0 0 32 32" enable-background="new 0 0 32 32" xml:space="preserve">
<path fill="none" stroke="#000000" stroke-width="2" stroke-miterlimit="10" d="M16,27c4,0,4.1-3.6,5-4.6c1-0.9,6-2.8,6-7.3
	C27,10.5,25,5,16,5S5,10.5,5,15.1s5,6.4,6,7.3C11.9,23.4,12,27,16,27z"/>
<path d="M16.5,21.6c0,0.5,0.3,0.5,0.6,0.5s0.5,0,0.5-0.5c0-0.6-1.1-2-1.1-1.7C16.5,20.2,16.5,21,16.5,21.6z"/>
<path fill="none" stroke="#000000" stroke-width="2" stroke-miterlimit="10" d="M18.1,17.9c0.1,0.1,3,0.5,4.6-1.1
	c1.6-1.6,1.3-4.4,1.1-4.6c-0.2-0.2-3-0.5-4.6,1.1C17.6,14.8,18,17.7,18.1,17.9z"/>
<path fill="none" stroke="#000000" stroke-width="2" stroke-miterlimit="10" d="M13.9,17.9c-0.1,0.1-3,0.5-4.6-1.1S8,12.4,8.2,12.2
	c0.2-0.2,3-0.5,4.6,1.1S14,17.7,13.9,17.9z"/>
<path d="M15.4,19.9c0-0.3-1.1,1.1-1.1,1.7c0,0.5,0.3,0.5,0.6,0.5c0.3,0,0.5,0,0.5-0.5C15.4,21,15.4,20.2,15.4,19.9z"/>
</svg>
