<?xml version="1.0" encoding="iso-8859-1"?>
<!-- Generator: Adobe Illustrator 19.1.0, SVG Export Plug-In . SVG Version: 6.00 Build 0)  -->
<svg version="1.1" id="Layer_1" xmlns="http://www.w3.org/2000/svg" xmlns:xlink="http://www.w3.org/1999/xlink" x="0px" y="0px"
	 viewBox="0 0 32 32" style="enable-background:new 0 0 32 32;" xml:space="preserve">
<circle cx="14" cy="18" r="2.5"/>
<line style="fill:none;stroke:#000000;stroke-width:2;stroke-miterlimit:10;" x1="8.389" y1="20.389" x2="11.611" y2="23.611"/>
<path d="M21.951,13.741l-1.468,1.468c0.155,0.302,0.288,0.601,0.372,0.887c0.307,1.039,0.127,1.874-0.55,2.551
	c-0.241,0.24-0.539,0.389-0.913,0.454c-2.164,0.376-3.843,2.265-3.993,4.492c-0.064,0.951-0.417,1.771-1.02,2.375
	c-1.725,1.724-4.998,1.255-7.3-1.046c-2.301-2.301-2.77-5.576-1.046-7.3c0.604-0.603,1.424-0.956,2.375-1.02
	c2.227-0.15,4.115-1.829,4.492-3.993c0.065-0.374,0.213-0.672,0.454-0.913C13.818,11.23,14.356,11,14.984,11
	c0.287,0,0.594,0.048,0.92,0.145c0.958,0.283,2.053,0.992,3.006,1.945c0.051,0.051,0.092,0.105,0.141,0.156l1.414-1.414
	c-0.049-0.051-0.091-0.106-0.141-0.157c-1.199-1.199-2.567-2.069-3.854-2.449c-1.757-0.518-3.323-0.153-4.532,1.054
	c-0.534,0.534-0.874,1.202-1.01,1.984c-0.22,1.267-1.337,2.251-2.656,2.34c-1.44,0.097-2.704,0.65-3.654,1.601
	c-2.504,2.504-2.035,7.048,1.046,10.128c1.749,1.749,3.968,2.656,6.019,2.656c1.562,0,3.027-0.527,4.11-1.61
	c0.951-0.95,1.504-2.214,1.601-3.654c0.089-1.319,1.073-2.436,2.34-2.656c0.783-0.136,1.451-0.476,1.985-1.01
	c1.208-1.208,1.573-2.775,1.054-4.532C22.6,14.942,22.313,14.338,21.951,13.741z"/>
<path d="M27.989,7.269l0.426-0.426l-0.319-0.319l0.745-0.745c0.213-0.213,0.213-0.426,0-0.639l-1.916-1.916
	c-0.213-0.213-0.426-0.213-0.639,0L25.54,3.969L25.22,3.649l-0.426,0.426l0.319,0.319L24.688,4.82l-0.319-0.319l-0.426,0.426
	l0.319,0.319l-0.745,0.745c-0.213,0.213-0.213,0.426,0,0.639l0,0L13.074,17.074l1.916,1.916l10.55-10.55l0,0
	c0.213,0.213,0.426,0.213,0.639,0l0.745-0.745l0.319,0.319l0.426-0.426L27.35,7.269l0.426-0.426L27.989,7.269z M25.007,6.63
	l-0.426-0.426l1.916-1.916l0.426,0.426L25.007,6.63z M25.859,7.376L25.433,6.95l1.916-1.916l0.426,0.426L25.859,7.376z"/>
</svg>
