<?xml version="1.0" encoding="iso-8859-1"?>
<!-- Generator: Adobe Illustrator 19.1.1, SVG Export Plug-In . SVG Version: 6.00 Build 0)  -->
<svg version="1.1" id="Layer_1" xmlns="http://www.w3.org/2000/svg" xmlns:xlink="http://www.w3.org/1999/xlink" x="0px" y="0px"
	 viewBox="0 0 32 32" style="enable-background:new 0 0 32 32;" xml:space="preserve">
<line style="fill:none;stroke:#000000;stroke-width:2;stroke-miterlimit:10;" x1="4" y1="28" x2="12" y2="20"/>
<circle style="fill:none;stroke:#000000;stroke-width:2;stroke-miterlimit:10;" cx="19" cy="13" r="9"/>
<path style="fill:none;stroke:#000000;stroke-width:2;stroke-miterlimit:10;" d="M19,13c0,0,1.8-2.07,1.8-4.5S19,4,19,4"/>
<path style="fill:none;stroke:#000000;stroke-width:2;stroke-miterlimit:10;" d="M19,13c0,0-0.218-2.734-1.954-4.435
	S12.573,6.7,12.573,6.7"/>
<path style="fill:none;stroke:#000000;stroke-width:2;stroke-miterlimit:10;" d="M19,13c0,0-2.07-1.8-4.5-1.8S10,13,10,13"/>
<path style="fill:none;stroke:#000000;stroke-width:2;stroke-miterlimit:10;" d="M19,13c0,0-2.738,0.164-4.474,1.865
	S12.573,19.3,12.573,19.3"/>
<path style="fill:none;stroke:#000000;stroke-width:2;stroke-miterlimit:10;" d="M19,13c0,0-1.8,2.07-1.8,4.5S19,22,19,22"/>
<path style="fill:none;stroke:#000000;stroke-width:2;stroke-miterlimit:10;" d="M19,13c0,0,0.218,2.734,1.954,4.435
	c1.735,1.701,4.474,1.865,4.474,1.865"/>
<path style="fill:none;stroke:#000000;stroke-width:2;stroke-miterlimit:10;" d="M19,13c0,0,2.07,1.8,4.5,1.8S28,13,28,13"/>
<path style="fill:none;stroke:#000000;stroke-width:2;stroke-miterlimit:10;" d="M19,13c0,0,2.738-0.164,4.474-1.865
	S25.427,6.7,25.427,6.7"/>
</svg>
