<?xml version="1.0" encoding="iso-8859-1"?>
<!-- Generator: Adobe Illustrator 19.1.0, SVG Export Plug-In . SVG Version: 6.00 Build 0)  -->
<svg version="1.1" id="Layer_1" xmlns="http://www.w3.org/2000/svg" xmlns:xlink="http://www.w3.org/1999/xlink" x="0px" y="0px"
	 viewBox="0 0 32 32" style="enable-background:new 0 0 32 32;" xml:space="preserve">
<path style="fill:none;stroke:#000000;stroke-width:2;stroke-miterlimit:10;" d="M17,12v-2c0-1.105,0.895-2,2-2h0
	c1.105,0,2,0.895,2,2v2"/>
<path style="fill:none;stroke:#000000;stroke-width:2;stroke-miterlimit:10;" d="M13,12V9c0-1.105,0.895-2,2-2h0
	c1.105,0,2,0.895,2,2v3"/>
<path style="fill:none;stroke:#000000;stroke-width:2;stroke-miterlimit:10;" d="M21,12v-1c0-1.105,0.895-2,2-2h0
	c1.105,0,2,0.895,2,2v9c0,3.314-2.686,6-6,6h-5.285c-1.726,0-3.368-0.743-4.507-2.04l-2.371-2.698
	c-1.067-1.214-1.123-3.013-0.134-4.292L9,14v-4c0-1.105,0.895-2,2-2h0c1.105,0,2,0.895,2,2v2"/>
<line style="fill:none;stroke:#000000;stroke-width:2;stroke-miterlimit:10;" x1="9" y1="18" x2="9" y2="13"/>
</svg>
