<?xml version="1.0" encoding="iso-8859-1"?>
<!-- Generator: Adobe Illustrator 19.1.0, SVG Export Plug-In . SVG Version: 6.00 Build 0)  -->
<svg version="1.1" id="Layer_1" xmlns="http://www.w3.org/2000/svg" xmlns:xlink="http://www.w3.org/1999/xlink" x="0px" y="0px"
	 viewBox="0 0 32 32" style="enable-background:new 0 0 32 32;" xml:space="preserve">
<path style="fill:none;stroke:#000000;stroke-width:2;stroke-linecap:round;stroke-linejoin:round;stroke-miterlimit:10;" d="
	M13.153,22.918L12.26,21.28l4.929-1.276c1.216-0.425,1.703-1.308,1.452-2.361c-0.251-1.053-1.308-1.703-2.361-1.452l-6.441,0.833
	c0,0-2.305,0.176-2.776,2.864c-0.165,0.943,0.032,1.952,0.157,2.37l0.773,2.509C8.768,27.283,11.094,29,13.727,29H19
	c3.314,0,6-2.686,6-6v-9.917"/>
<path style="fill:none;stroke:#000000;stroke-width:2;stroke-miterlimit:10;" d="M9.944,16.967L7.091,7.582
	C6.77,6.526,7.366,5.408,8.423,5.087l0,0c1.057-0.321,2.174,0.275,2.495,1.332l2.081,6.845"/>
<path style="fill:none;stroke:#000000;stroke-width:2;stroke-miterlimit:10;" d="M21.143,17.643L21.143,17.643
	c-1.026-0.41-1.524-1.574-1.114-2.6l1.114-2.785c0.41-1.026,1.574-1.524,2.6-1.114l0,0c1.026,0.41,1.524,1.574,1.114,2.6
	l-1.114,2.785C23.333,17.554,22.169,18.053,21.143,17.643z"/>
<path style="fill:none;stroke:#000000;stroke-width:2;stroke-miterlimit:10;" d="M15.962,16.233
	c-0.246-0.493-0.289-1.085-0.069-1.637l1.484-3.715c0.41-1.026,1.574-1.525,2.599-1.115l0,0c1.026,0.41,1.525,1.574,1.115,2.599
	l-1.484,3.715c-0.205,0.513-0.598,0.894-1.069,1.096"/>
<path style="fill:none;stroke:#000000;stroke-width:2;stroke-miterlimit:10;" d="M13,13.233V5c0-1.105,0.895-2,2-2h0
	c1.105,0,2,0.895,2,2v6.828"/>
</svg>
