<?xml version="1.0" encoding="iso-8859-1"?>
<!-- Generator: Adobe Illustrator 19.1.1, SVG Export Plug-In . SVG Version: 6.00 Build 0)  -->
<svg version="1.1" id="Layer_1" xmlns="http://www.w3.org/2000/svg" xmlns:xlink="http://www.w3.org/1999/xlink" x="0px" y="0px"
	 viewBox="0 0 32 32" style="enable-background:new 0 0 32 32;" xml:space="preserve">
<polyline style="fill:none;stroke:#000000;stroke-width:2;stroke-miterlimit:10;" points="7,27 7,8 10,5 22,5 25,8 25,27 "/>
<line id="XMLID_185_" style="fill:none;stroke:#000000;stroke-width:2;stroke-miterlimit:10;" x1="16" y1="11" x2="16" y2="19"/>
<path id="XMLID_321_" style="fill:none;stroke:#000000;stroke-width:2;stroke-miterlimit:10;" d="M10,15h1.5
	c0.828,0,1.5-0.672,1.5-1.5v0c0-0.828-0.672-1.5-1.5-1.5H10v7"/>
<polygon id="XMLID_320_" points="12.687,15.018 10.687,15.018 12,19 14,19 "/>
<path id="XMLID_217_" style="fill:none;stroke:#000000;stroke-width:2;stroke-miterlimit:10;" d="M19,19v-7h1c1.105,0,2,0.895,2,2v0
	c0,1.105-0.895,2-2,2h-1"/>
<path style="fill:none;stroke:#000000;stroke-width:2;stroke-miterlimit:10;" d="M3,28c0,0,5.516-2,13-2s13,2,13,2"/>
</svg>
