<?xml version="1.0" encoding="iso-8859-1"?>
<!-- Generator: Adobe Illustrator 19.1.1, SVG Export Plug-In . SVG Version: 6.00 Build 0)  -->
<svg version="1.1" id="Layer_1" xmlns="http://www.w3.org/2000/svg" xmlns:xlink="http://www.w3.org/1999/xlink" x="0px" y="0px"
	 viewBox="0 0 32 32" style="enable-background:new 0 0 32 32;" xml:space="preserve">
<line style="fill:none;stroke:#000000;stroke-width:2;stroke-miterlimit:10;" x1="23.071" y1="8.929" x2="28" y2="4"/>
<polyline style="fill:none;stroke:#000000;stroke-width:2;stroke-miterlimit:10;" points="24,4 28,4 28,8 "/>
<polygon style="fill:none;stroke:#000000;stroke-width:2;stroke-miterlimit:10;" points="6,28 6,26 4,26 6,24 8,24 8,26 "/>
<line style="fill:none;stroke:#000000;stroke-width:2;stroke-miterlimit:10;" x1="8" y1="24" x2="16" y2="16"/>
<line style="fill:none;stroke:#000000;stroke-width:2;stroke-miterlimit:10;" x1="3" y1="29" x2="6.211" y2="25.789"/>
<path d="M20,7.104c-2.085,0-3.924,1.068-5,2.687c-1.076-1.618-2.915-2.687-5-2.687c-3.364,0-6,2.59-6,5.896
	c0,3.073,3.063,6.578,5.884,9.157l1.427-1.427C8.657,18.309,6,15.278,6,13c0-2.185,1.757-3.896,4-3.896c2.206,0,4,1.794,4,4h2
	c0-2.206,1.794-4,4-4c2.243,0,4,1.711,4,3.896c0,3.434-6.037,8.587-9,10.769c-0.625-0.46-1.389-1.058-2.202-1.738l-1.427,1.427
	c1.488,1.246,2.71,2.12,3.056,2.362L15,26.221l0.573-0.401C16.641,25.073,26,18.371,26,13C26,9.694,23.364,7.104,20,7.104z"/>
</svg>
