<?xml version="1.0" encoding="iso-8859-1"?>
<!-- Generator: Adobe Illustrator 19.1.1, SVG Export Plug-In . SVG Version: 6.00 Build 0)  -->
<svg version="1.1"  xmlns="http://www.w3.org/2000/svg" xmlns:xlink="http://www.w3.org/1999/xlink" x="0px" y="0px"
	 viewBox="0 0 32 32" style="enable-background:new 0 0 32 32;" xml:space="preserve">
<path style="fill:none;stroke:#000000;stroke-width:2;stroke-miterlimit:10;" d="M10.149,10.294
	c0.037-0.017,0.074-0.033,0.111-0.049C11.935,9.505,13.863,9,16,9c7.956,0,13,7,13,7s-2.652,3.696-7.162,5.717"/>
<line style="fill:none;stroke:#000000;stroke-width:2;stroke-miterlimit:10;" x1="3" y1="3" x2="29" y2="29"/>
<path d="M17.601,21.887C17.069,21.955,16.535,22,16,22c-6.033,0-10.34-4.39-11.718-6.001c0.668-0.783,2.031-2.218,3.941-3.49
	l-1.442-1.442c-2.866,1.989-4.505,4.226-4.593,4.348l-0.421,0.583l0.419,0.584C2.405,16.886,7.605,24,16,24
	c1.115,0,2.225-0.136,3.324-0.391L17.601,21.887z"/>
<path d="M17.258,18.715C18.284,18.239,19,17.206,19,16c0-1.657-1.343-3-3-3c-1.206,0-2.239,0.716-2.715,1.742L17.258,18.715z"/>
<path d="M11.096,12.554C12.183,11.012,13.974,10,16,10c3.309,0,6,2.691,6,6c0,2.026-1.012,3.817-2.554,4.904l1.427,1.427
	C22.77,20.866,24,18.577,24,16c0-4.411-3.589-8-8-8c-2.577,0-4.866,1.23-6.33,3.127L11.096,12.554z"/>
<path d="M17.513,21.799C17.029,21.926,16.524,22,16,22c-3.309,0-6-2.691-6-6c0-0.524,0.074-1.029,0.201-1.513l-1.578-1.578
	C8.222,13.86,8,14.904,8,16c0,4.411,3.589,8,8,8c1.096,0,2.14-0.222,3.092-0.623L17.513,21.799z"/>
</svg>
