<?xml version="1.0" encoding="iso-8859-1"?>
<!-- Generator: Adobe Illustrator 19.1.1, SVG Export Plug-In . SVG Version: 6.00 Build 0)  -->
<svg version="1.1" id="Layer_1" xmlns="http://www.w3.org/2000/svg" xmlns:xlink="http://www.w3.org/1999/xlink" x="0px" y="0px"
	 viewBox="-7 9 32 32" style="enable-background:new -7 9 32 32;" xml:space="preserve">
<path d="M21.016,14.446l-1.404-1.425l-2.322,2.289C15.924,14.344,13.541,13,10.814,13c-4.18,0-6.427,2.199-6.521,2.293L3.697,15.89
	l0.488,0.688c0.002,0.003,0.01,0.013,0.013,0.018c-1.501,0.748-3.695,2.41-5.129,6.036l-0.316,0.799l0.338,0.197
	C-1.862,24.912-3,27.054-3,30v0.987L-2.013,31c0.024,0,0.061,0.001,0.109,0.001c0.094,0,0.238-0.002,0.409-0.007
	C-2.02,32.772-2.005,34.741-2,35.02l0.019,0.962L-1.02,36c0.034,0,0.094,0.001,0.177,0.001c0.585,0,2.29-0.045,3.849-0.505
	C2.998,35.757,2.999,35.941,3,36.013L3.013,37H4c2.946,0,5.088-1.138,6.371-2.092l0.197,0.338l0.799-0.316
	c3.625-1.433,5.288-3.627,6.036-5.128c0.006,0.004,0.017,0.012,0.02,0.014l0.721,0.51l0.596-0.651
	c0.092-0.102,2.262-2.522,2.262-6.675c0-2.598-1.287-4.879-2.297-6.275L21.016,14.446z M5.71,18.117
	c0.898,0.712,2.18,1.463,3.83,1.756c-0.15,0.481-0.256,0.978-0.335,1.456c-0.886,0.565-4.472,2.617-7.91,1.2
	C2.767,19.452,4.808,18.431,5.71,18.117z M9.14,28.35c-0.7,0.401-2.609,1.371-5.09,1.601c0.231-2.462,1.197-4.378,1.599-5.085
	c1.327-0.24,2.489-0.7,3.352-1.127C9,23.868,9,23.974,9.001,24.02l0.019,0.961L9.981,25c0.046,0.001,0.151,0.001,0.279,0
	C9.834,25.863,9.38,27.026,9.14,28.35z M0.929,24.516c0.817,0.293,1.624,0.444,2.409,0.488c-0.372,0.823-0.783,1.932-1.051,3.242
	c-0.87,0.445-2.219,0.643-3.228,0.715C-0.697,26.83,0.252,25.338,0.929,24.516z M0.03,33.969c0.067-0.985,0.265-2.298,0.709-3.195
	c0.421-0.071,0.853-0.159,1.276-0.283C2.009,30.66,2,30.827,2,31v1h1c0.173,0,0.342-0.009,0.511-0.015
	c-0.126,0.429-0.221,0.87-0.293,1.297C2.324,33.716,1.008,33.902,0.03,33.969z M5.753,31.713c1.305-0.267,2.41-0.675,3.232-1.046
	c0.045,0.782,0.206,1.59,0.498,2.404c-0.825,0.675-2.325,1.625-4.445,1.87C5.111,33.932,5.308,32.583,5.753,31.713z M11.472,32.704
	c-1.416-3.438,0.634-7.023,1.199-7.908c0.479-0.079,0.976-0.185,1.458-0.335c0.293,1.65,1.044,2.932,1.755,3.831
	C15.572,29.185,14.552,31.232,11.472,32.704z M17.828,27.498c-0.763-0.817-1.827-2.344-1.827-4.498v-1.777l-1.52,0.923
	c-0.881,0.535-2.374,0.75-3.45,0.823c0.072-1.075,0.287-2.565,0.824-3.45L12.778,18h-1.777c-2.183,0-3.721-1.093-4.529-1.856
	C7.286,15.645,8.739,15,10.814,15c2.554,0,4.86,1.563,5.83,2.324c0.839,1.035,2.356,3.246,2.356,5.676
	C19.001,25.075,18.336,26.621,17.828,27.498z"/>
</svg>
