<?xml version="1.0" encoding="utf-8"?>
<!-- Generator: Adobe Illustrator 18.1.1, SVG Export Plug-In . SVG Version: 6.00 Build 0)  -->
<svg version="1.1" id="Layer_1" xmlns="http://www.w3.org/2000/svg" xmlns:xlink="http://www.w3.org/1999/xlink" x="0px" y="0px"
	 viewBox="0 0 32 32" enable-background="new 0 0 32 32" xml:space="preserve">
<g id="XMLID_2819_">
	<path id="XMLID_2820_" fill="none" stroke="#000000" stroke-width="2" stroke-miterlimit="10" d="M12.4,16.2L4,24.3L6.6,27
		c0,0,4-0.3,5.7-2s1.4-2.9,3.7-5.2"/>
</g>
<g>
	<g>
		<g id="XMLID_2833_">
			<path id="XMLID_2834_" fill="none" stroke="#000000" stroke-width="2" stroke-miterlimit="10" d="M23.4,5.6
				C23.3,5.6,23.3,5.6,23.4,5.6c-4,3.8-11,10.5-11,10.5l5.1,5.3C27.9,11.2,28,8.6,28,3.6h-0.1C27.9,3.6,25.3,5.6,23.4,5.6z"/>
		</g>
	</g>
</g>
<path id="XMLID_2889_" d="M24.5,23c0,0.6-0.4,1-1,1s-1-0.4-1-1s1-2,1-2S24.5,22.4,24.5,23z"/>
<path id="XMLID_2890_" d="M27.5,17.5c0,0.8-0.7,1.5-1.5,1.5s-1.5-0.7-1.5-1.5s1.5-4,1.5-4S27.5,16.7,27.5,17.5z"/>
</svg>
