<?xml version="1.0" encoding="iso-8859-1"?>
<!-- Generator: Adobe Illustrator 19.1.1, SVG Export Plug-In . SVG Version: 6.00 Build 0)  -->
<svg version="1.1" id="Layer_1" xmlns="http://www.w3.org/2000/svg" xmlns:xlink="http://www.w3.org/1999/xlink" x="0px" y="0px"
	 viewBox="0 0 32 32" style="enable-background:new 0 0 32 32;" xml:space="preserve">
<path style="fill:none;stroke:#000000;stroke-width:2;stroke-miterlimit:10;" d="M8,21v-7.5C8,12.672,7.328,12,6.5,12h0
	C5.672,12,5,12.672,5,13.5V27h3v-2h16v2h3v-6H8z"/>
<path style="fill:none;stroke:#000000;stroke-width:2;stroke-miterlimit:10;" d="M14,21h13v-4c0-1.105-0.895-2-2-2H14V21z"/>
<circle style="fill:none;stroke:#000000;stroke-width:2;stroke-miterlimit:10;" cx="11" cy="18" r="3"/>
<path d="M17,3c-2.761,0-5,2.239-5,5c0,2.761,2.239,5,5,5s5-2.239,5-5C22,5.239,19.761,3,17,3z M18,7h-2V5h2V7z M18,11h-2V8h2V11z"/>
</svg>
