<?xml version="1.0" encoding="iso-8859-1"?>
<!-- Generator: Adobe Illustrator 19.1.1, SVG Export Plug-In . SVG Version: 6.00 Build 0)  -->
<svg version="1.1" id="Layer_1" xmlns="http://www.w3.org/2000/svg" xmlns:xlink="http://www.w3.org/1999/xlink" x="0px" y="0px"
	 viewBox="0 0 32 32" style="enable-background:new 0 0 32 32;" xml:space="preserve">
<path style="fill:none;stroke:#000000;stroke-width:2;stroke-linecap:round;stroke-linejoin:round;stroke-miterlimit:10;" d="
	M20.583,10C19.687,10,18,10.241,18,12.36c0,3.069,3,3.044,3,6.424c0,2.701-2.094,3.049-2,6.115c0.05,1.648,0.479,3.1,2.919,3.1
	c1.662,0,2.621-1.741,2.621-3.314c0-4.281,2.587-5.563,2.46-9.74C26.873,10.769,22.258,10,20.583,10z"/>
<path d="M19.862,4.695c0.357,1.271-0.003,2.623-0.804,3.018c-0.801,0.395-1.739-0.315-2.095-1.586s0.003-2.623,0.804-3.018
	S19.506,3.424,19.862,4.695z"/>
<ellipse transform="matrix(-0.9991 -0.0421 0.0421 -0.9991 43.4146 11.8797)" cx="21.832" cy="5.483" rx="1.122" ry="1.483"/>
<ellipse transform="matrix(-0.9466 -0.3225 0.3225 -0.9466 45.5318 20.2684)" cx="24.445" cy="6.363" rx="0.992" ry="1.399"/>
<ellipse transform="matrix(-0.8531 -0.5217 0.5217 -0.8531 44.9217 28.4392)" cx="26.464" cy="7.896" rx="0.984" ry="1.277"/>
<ellipse transform="matrix(0.6485 -0.7612 0.7612 0.6485 2.2505 24.8086)" cx="27.989" cy="9.967" rx="1.141" ry="0.861"/>
<path style="fill:none;stroke:#000000;stroke-width:2;stroke-linecap:round;stroke-linejoin:round;stroke-miterlimit:10;" d="
	M4.977,14.945c-0.127,4.177,2.46,5.459,2.46,9.74c0,1.572,0.959,3.314,2.621,3.314c2.439,0,2.869-1.452,2.919-3.1
	c0.094-3.066-2-3.414-2-6.115c0-3.379,3-3.354,3-6.424c0-2.119-1.687-2.36-2.583-2.36C9.719,10,5.105,10.769,4.977,14.945z"/>
<path d="M14.21,3.109c0.801,0.395,1.161,1.747,0.804,3.018s-1.295,1.982-2.095,1.586c-0.801-0.395-1.161-1.747-0.804-3.018
	C12.471,3.424,13.409,2.714,14.21,3.109z"/>
<ellipse transform="matrix(0.0421 0.9991 -0.9991 0.0421 15.1954 -4.8838)" cx="10.145" cy="5.483" rx="1.483" ry="1.122"/>
<ellipse transform="matrix(0.3225 0.9466 -0.9466 0.3225 11.1258 -2.8191)" cx="7.532" cy="6.363" rx="1.399" ry="0.992"/>
<ellipse transform="matrix(0.5217 0.8531 -0.8531 0.5217 9.3731 -0.9266)" cx="5.513" cy="7.896" rx="1.277" ry="0.984"/>
<ellipse transform="matrix(0.7612 -0.6485 0.6485 0.7612 -5.5115 4.9667)" cx="3.989" cy="9.967" rx="0.861" ry="1.141"/>
</svg>
