<?xml version="1.0" encoding="iso-8859-1"?>
<!-- Generator: Adobe Illustrator 19.1.0, SVG Export Plug-In . SVG Version: 6.00 Build 0)  -->
<svg version="1.1" id="Layer_1" xmlns="http://www.w3.org/2000/svg" xmlns:xlink="http://www.w3.org/1999/xlink" x="0px" y="0px"
	 viewBox="0 0 32 32" style="enable-background:new 0 0 32 32;" xml:space="preserve">
<circle cx="9.5" cy="21.5" r="1.5"/>
<path d="M6,28h3l1-3H5v2C5,27.552,5.448,28,6,28z"/>
<line style="fill:none;stroke:#000000;stroke-width:2;stroke-miterlimit:10;" x1="6" y1="26" x2="26" y2="26"/>
<polyline style="fill:none;stroke:#000000;stroke-width:2;stroke-miterlimit:10;" points="26,11 26,5 6,5 6,11 "/>
<line style="fill:none;stroke:#000000;stroke-width:2;stroke-miterlimit:10;" x1="23" y1="15" x2="9" y2="15"/>
<line style="fill:none;stroke:#000000;stroke-width:2;stroke-miterlimit:10;" x1="28" y1="16" x2="28" y2="12"/>
<line style="fill:none;stroke:#000000;stroke-width:2;stroke-miterlimit:10;" x1="4" y1="16" x2="4" y2="12"/>
<circle cx="22.5" cy="21.5" r="1.5"/>
<path style="fill:none;stroke:#000000;stroke-width:2;stroke-miterlimit:10;" d="M26,24v-5c0-1.105-0.895-2-2-2l-1.586-5.549
	C22.169,10.592,21.384,10,20.491,10h-8.983c-0.893,0-1.678,0.592-1.923,1.451L8,17c-1.105,0-2,0.895-2,2v5"/>
<path d="M26,28h-3l-1-3h5v2C27,27.552,26.552,28,26,28z"/>
<path style="fill:none;stroke:#000000;stroke-width:2;stroke-miterlimit:10;" d="M19,23v-3c0-0.552-0.448-1-1-1h-4
	c-0.552,0-1,0.448-1,1v3"/>
</svg>
