<?xml version="1.0" encoding="iso-8859-1"?>
<!-- Generator: Adobe Illustrator 19.1.1, SVG Export Plug-In . SVG Version: 6.00 Build 0)  -->
<svg version="1.1" id="Layer_1" xmlns="http://www.w3.org/2000/svg" xmlns:xlink="http://www.w3.org/1999/xlink" x="0px" y="0px"
	 viewBox="0 0 32 32" style="enable-background:new 0 0 32 32;" xml:space="preserve">
<polyline style="fill:none;stroke:#000000;stroke-width:2;stroke-miterlimit:10;" points="5,9 5,5 9,5 "/>
<polyline style="fill:none;stroke:#000000;stroke-width:2;stroke-miterlimit:10;" points="9,27 5,27 5,23 "/>
<polyline style="fill:none;stroke:#000000;stroke-width:2;stroke-miterlimit:10;" points="27,23 27,27 23,27 "/>
<polyline style="fill:none;stroke:#000000;stroke-width:2;stroke-miterlimit:10;" points="23,5 27,5 27,9 "/>
<line style="fill:none;stroke:#000000;stroke-width:2;stroke-miterlimit:10;" x1="4" y1="19" x2="28" y2="19"/>
<path style="fill:none;stroke:#000000;stroke-width:2;stroke-miterlimit:10;" d="M8.581,18.999C8.206,18.073,8,17.06,8,16
	c0-4.418,3.582-8,8-8s8,3.582,8,8c0,1.061-0.207,2.074-0.581,3"/>
<path d="M18,15c-0.552,0-1-0.448-1-1c0-0.273,0.111-0.519,0.288-0.699C16.896,13.114,16.463,13,16,13c-1.657,0-3,1.343-3,3
	s1.343,3,3,3s3-1.343,3-3c0-0.463-0.114-0.896-0.301-1.288C18.519,14.889,18.273,15,18,15z"/>
<path d="M19.583,22c-1.061,0.633-2.285,1-3.583,1c-1.299,0-2.523-0.367-3.584-1H9.311c1.673,1.87,4.069,3,6.689,3
	c2.618,0,5.015-1.13,6.689-3H19.583z"/>
</svg>
