<?xml version="1.0" encoding="iso-8859-1"?>
<!-- Generator: Adobe Illustrator 19.1.1, SVG Export Plug-In . SVG Version: 6.00 Build 0)  -->
<svg version="1.1" id="Layer_1" xmlns="http://www.w3.org/2000/svg" xmlns:xlink="http://www.w3.org/1999/xlink" x="0px" y="0px"
	 viewBox="0 0 32 32" style="enable-background:new 0 0 32 32;" xml:space="preserve">
<path d="M5.957,12.239l0.978-1.39l1.442-1.596l0.154-0.875L8.016,8.119c0.103-0.103,0.154-0.154,0.257-0.257L9.51,7.605l1.339,0.618
	l-0.463,0.463l1.493-0.257l1.39,0.103L11.518,9.51l-0.566,0.515l0.154,1.03l0.566,0.154l0.618-1.03l0.875-0.515l0.875,0.463
	l0.257,0.772l-1.751,0.875l0.618,0.412l-1.854,0.566l-0.978,0.927l-1.39,0.824l-0.051,1.03l-0.978-1.287l-1.133,0.051l-0.36,1.133
	l1.339,2.06l-1.03-1.03l-0.978-0.618l-0.051-1.957L5.957,12.239z M17.388,7.913l-1.545,1.339l-0.566-0.566l0.206-0.566l-0.772-1.133
	l0.463-0.669l0.978-0.206l0.875,0.669L16.976,7.45L17.388,7.913z M8.222,17.543l1.133-0.103l3.656,1.596l0.257,1.03l0.669-0.412
	l1.751,0.772l1.184,0.103c-0.257,0.309-0.566,0.618-0.824,0.875l-3.811,2.575c-0.103,0.051-0.154,0.051-0.257,0.051l-0.669-0.824
	l-0.309-0.824l-1.545-0.824l-0.515-0.618l-0.978-0.875l0.412-1.854L8.222,17.543z"/>
<g>
	<polygon points="25.019,27 19,22 28,20 	"/>
</g>
<path style="fill:none;stroke:#000000;stroke-width:2;stroke-miterlimit:10;" d="M16,5c0,0,6.917,7.083,7.917,17.292"/>
<path style="fill:none;stroke:#000000;stroke-width:2;stroke-miterlimit:10;" d="M11,25c0,0,9.042-2.042,12-17"/>
<g>
	<path d="M18.744,24.387C17.706,24.777,16.589,25,15.417,25c-5.238,0-9.5-4.262-9.5-9.5s4.262-9.5,9.5-9.5
		c4.399,0,8.098,3.009,9.174,7.074c0.672,1.603,1.27,3.358,1.702,5.257l0.272-0.061c0.221-0.889,0.351-1.813,0.351-2.77
		c0-6.341-5.159-11.5-11.5-11.5s-11.5,5.159-11.5,11.5S9.076,27,15.417,27c1.812,0,3.521-0.433,5.048-1.183L18.744,24.387z"/>
</g>
</svg>
