<?xml version="1.0" encoding="iso-8859-1"?>
<!-- Generator: Adobe Illustrator 21.0.0, SVG Export Plug-In . SVG Version: 6.00 Build 0)  -->
<svg version="1.1" 
	 xmlns="http://www.w3.org/2000/svg" xmlns:xlink="http://www.w3.org/1999/xlink" x="0px" y="0px" viewBox="0 0 32 32"
	 style="enable-background:new 0 0 32 32;" xml:space="preserve">
<path d="M8,27c0,1.657-1.343,3-3,3s-3-1.343-3-3c0-1.3,0.827-2.407,1.984-2.823L5,26h3V27z"/>
<circle cx="14" cy="7" r="1"/>
<g>
	<path d="M5.589,17.298c-0.141-0.686-0.21-1.357-0.135-2.505c0.042-0.651,0.385-2.052,0.513-2.537l0.768-2.906l1.388,2.538
		c0.715,1.308,1.631,2.351,2.724,3.1c1.265,0.851,2.525,1.312,3.84,1.403L5.589,17.298z M18,15.943v-4.459l-1.161,0.189
		c-0.685,0.111-1.271,0.111-2.013,0.111c-2.069-0.132-3.851-0.553-5.401-1.282L6.761,9.248l0.081-0.304l-2.519,2.32
		c-0.025,0.022-0.332,0.306-0.865,0.827c0.642-1.748,1.867-2.669,2.951-3.155l2.056-0.921L6.403,7.108
		C6.328,7.075,5.87,6.881,5.185,6.742c0.918-0.563,1.965-0.65,2.929-0.73l1.624-0.135L8.883,4.491
		C8.724,4.234,8.528,4.008,8.297,3.813C8.363,3.812,8.43,3.811,8.498,3.811c1.204,0,2.282,0.22,2.293,0.222l0.452,0.093l0.252-0.196
		C10.616,4.665,10.057,5.768,10.057,7c0,2.206,1.794,4,4,4s4-1.794,4-4c0-0.347-0.044-0.684-0.128-1.005l0.286,0.181
		c2.248,1.424,4.685,4.479,4.726,7.82c0.009,0.695-0.009,1.21-0.032,1.573l-5.661,0.565L18,15.943z M12.539,3.299
		C13.01,3.104,13.515,3.002,14.037,3C13.507,3.002,13.001,3.109,12.539,3.299z M14.039,3C14.04,3,14.04,3,14.039,3z M14.045,3
		C14.045,3,14.045,3,14.045,3z M14.051,3C14.051,3,14.051,3,14.051,3z M14.062,3C14.062,3,14.062,3,14.062,3z"/>
	<path d="M9.057,6.938c0,0.021,0,0.042,0,0.062c0,0.062,0.001,0.124,0.003,0.185L8.586,6.977L9.057,6.938 M18.954,8.008
		c1.578,1.454,2.957,3.654,2.986,6c0.003,0.241,0.003,0.458,0,0.652L19,14.955V12.66v-2.353l-1.413,0.231
		C18.267,9.859,18.754,8.985,18.954,8.008 M9.358,8.711C9.466,9.006,9.6,9.288,9.759,9.554L8.646,9.03L9.358,8.711 M7.061,12.029
		l0.184,0.337c0.791,1.447,1.812,2.606,3.051,3.455c0.001,0,0.001,0.001,0.002,0.001l-3.857,0.385
		c-0.027-0.371-0.026-0.794,0.011-1.35c0.031-0.479,0.301-1.661,0.482-2.347L7.061,12.029 M14.057,2
		c-1.156,0-2.217,0.394-3.063,1.054c0,0-1.165-0.242-2.496-0.242c-1.327,0-2.818,0.241-3.482,1.205c0,0,0.251-0.039,0.614-0.039
		c0.711,0,1.854,0.15,2.401,1.039C6.495,5.143,4.328,5.328,2.965,7.668C3.251,7.62,3.531,7.601,3.797,7.601
		C5.039,7.601,6,8.024,6,8.024c-1.471,0.659-4.033,2.412-3.988,6.953C3.838,13.071,5,12,5,12s-0.486,1.837-0.544,2.727
		c-0.115,1.755,0.088,2.539,0.356,3.653l19.001-1.896c0,0,0.15-0.672,0.127-2.5c-0.043-3.494-2.441-6.91-5.19-8.653
		C18.06,3.395,16.23,2,14.057,2L14.057,2z M14.057,10c-1.657,0-3-1.343-3-3s1.343-3,3-3s3,1.343,3,3S15.713,10,14.057,10L14.057,10z
		 M15.183,15.407c-1.276,0-2.498-0.388-3.771-1.245C10.316,13.411,9.548,12.409,9,11.407c1.863,0.877,3.836,1.252,5.808,1.378
		c0.767,0,1.425,0,2.192-0.125v2.505C16.376,15.324,15.774,15.407,15.183,15.407L15.183,15.407z"/>
</g>
<path d="M11.01,20.976c-0.452,1.008-2.115,1.244-3.714,0.527c-1.046-0.469-1.987-1.539-2.261-2.291
	c-0.145-0.397-0.436-1.61-0.28-1.959c0.452-1.008,2.578-0.117,4.177,0.6C10.532,18.57,11.462,19.968,11.01,20.976z"/>
<path d="M26.616,26.812c-0.559,1.263-2.65,1.561-4.67,0.667c-1.3-0.576-2.254-1.505-2.62-2.431l4.705-0.673l-0.061-1.468
	C25.99,23.801,27.175,25.55,26.616,26.812z"/>
<path d="M29.831,18.645l-0.403-3.98l-3.98,0.403L2.565,17.386l1.008,9.949l21.888-2.217l-0.605-5.969L29.831,18.645z M21.221,23.537
	l-0.402-3.968l-1.99,0.201l0.402,3.968l-1.99,0.201l-0.402-3.968l-1.99,0.202l0.402,3.968l-1.99,0.202l-0.402-3.968l-1.99,0.201
	l0.402,3.968l-1.99,0.202l-0.402-3.968l-1.99,0.202l0.402,3.968l-1.932,0.196l-0.202-1.99l-0.403-3.98l17.908-1.814l0.201,1.99
	l0.403,3.98L21.221,23.537z"/>
<ellipse transform="matrix(0.9277 -0.3734 0.3734 0.9277 -5.2988 11.2922)" cx="26.5" cy="19.324" rx="2.5" ry="1.5"/>
</svg>
