<?xml version="1.0" encoding="iso-8859-1"?>
<!-- Generator: Adobe Illustrator 21.0.0, SVG Export Plug-In . SVG Version: 6.00 Build 0)  -->
<svg version="1.1"  xmlns="http://www.w3.org/2000/svg" xmlns:xlink="http://www.w3.org/1999/xlink" x="0px" y="0px"
	 viewBox="0 0 32 32" style="enable-background:new 0 0 32 32;" xml:space="preserve">
<circle cx="13" cy="16" r="1"/>
<path style="fill:none;stroke:#000000;stroke-width:2;stroke-miterlimit:10;" d="M16,14.074c1.4,0,1.867-1.067,3.387-1.067
	c1.747,0,3.613,1.478,3.613,2.222c0,1.6-2.855,4.711-4.379,4.711c-1.196,0-1.221-1.067-2.621-1.067s-1.425,1.067-2.621,1.067
	C11.855,19.941,9,16.83,9,15.23c0-0.745,1.867-2.222,3.613-2.222C14.133,13.008,14.6,14.074,16,14.074z"/>
<circle cx="19" cy="16" r="1"/>
<path style="fill:none;stroke:#000000;stroke-width:2;stroke-miterlimit:10;" d="M15.943,25c3.695,0,4.751-2.094,8.446-2.639
	c0-0.978,0-3.011,3.167-3.183c0-3.261-2.639-6.662-2.639-6.662s1.864-5.214,0.585-6.43c-0.731-0.694-6.919,3.079-6.919,3.079
	c-1.056-0.543-2.111-0.528-2.639-0.528s-1.584-0.015-2.639,0.528c0,0-6.188-3.774-6.919-3.079c-1.279,1.216,0.585,6.43,0.585,6.43
	S4.33,15.916,4.33,19.177c3.167,0.172,3.167,2.206,3.167,3.183C11.192,22.906,12.248,25,15.943,25"/>
</svg>
