<?xml version="1.0" encoding="iso-8859-1"?>
<!-- Generator: Adobe Illustrator 19.1.0, SVG Export Plug-In . SVG Version: 6.00 Build 0)  -->
<svg version="1.1" id="Layer_1" xmlns="http://www.w3.org/2000/svg" xmlns:xlink="http://www.w3.org/1999/xlink" x="0px" y="0px"
	 viewBox="0 0 32 32" style="enable-background:new 0 0 32 32;" xml:space="preserve">
<path style="fill:none;stroke:#000000;stroke-width:2;stroke-miterlimit:10;" d="M8,29c2.986,0,1.517-4.09,3.322-5.661
	C13.606,21.351,18,22.493,18,15.378c0,0,1.465,0.623,3,0.623"/>
<path style="fill:none;stroke:#000000;stroke-width:2;stroke-miterlimit:10;" d="M24,3c0.523,0,1.553,0.366,2.057,0.858S27,5,27,5
	s2.908,0.89,4,4.573V10h-1.83c0,0-1.296,0.699-2.118-0.214c-1.461-0.548-1.463,2.922-3.393,4.531C22.753,15.071,23,16.537,23,17.399
	C23,18.894,21.929,20,20,20"/>
<path style="fill:none;stroke:#000000;stroke-width:2;stroke-linejoin:round;stroke-miterlimit:10;" d="M1,23c0,0,0.642,1,2.501,1
	C9.883,24,5.37,5,15,5c3.765,0,5.494,4,6.945,4c1.764,0,2.205-1.927,2.884-2.639"/>
<path style="fill:none;stroke:#000000;stroke-width:2;stroke-miterlimit:10;" d="M10.405,14.906c1.424,0.278,5.389,3.943,0.92,8.412
	"/>
</svg>
