<?xml version="1.0" encoding="iso-8859-1"?>
<!-- Generator: Adobe Illustrator 19.1.1, SVG Export Plug-In . SVG Version: 6.00 Build 0)  -->
<svg version="1.1" id="Layer_1" xmlns="http://www.w3.org/2000/svg" xmlns:xlink="http://www.w3.org/1999/xlink" x="0px" y="0px"
	 viewBox="-7 9 32 32" style="enable-background:new -7 9 32 32;" xml:space="preserve">
<g>
	<circle cx="9" cy="12" r="1"/>
	<path d="M15.984,20L16,21.016c0.029,1.852-0.813,2.547-1.445,2.815c-0.684-1.104-1.267-2.41-1.586-4.077l-0.988-3.954
		C11.783,14.832,10.907,13,9,13c-1.892,0-2.769,1.803-2.975,2.777L5.013,19.84c-0.581,3.585-2.27,5.417-3.759,7.033
		c-0.2,0.217-0.396,0.433-0.586,0.648c-0.318-1.383-0.583-3.476-0.668-5.562l-0.003,0C-0.028,19.862-1.783,19.039-3,19h-1v2
		l0.957-0.001C-2.654,21.021-2,21.18-2,22v10.001c0.001,1.428,0.851,3.465,3.094,3.904C2.718,37.658,5.312,39,9,39
		c4.547,0,7.436-2.035,8.882-4.373C21.987,32.072,22,27.167,22,21v-1H15.984z M7.97,16.243l0.01-0.044C7.982,16.187,8.257,15,9,15
		c0.75,0,1.019,1.193,1.03,1.243L10.721,19h-3.44L7.97,16.243z M9,37c-5.458,0-8-3.58-8-6c0-0.858,0.623-1.576,1.724-2.771
		c1.414-1.535,3.303-3.62,4.084-7.229h4.404c0.817,3.238,2.53,5.254,3.938,6.886C16.184,29.083,17,30.029,17,31
		C17,33.42,14.457,37,9,37z M18.959,30.48c-0.194-1.456-1.172-2.6-2.294-3.901c-0.304-0.352-0.616-0.719-0.925-1.101
		c0.999-0.561,1.969-1.628,2.207-3.478h2.052C19.983,25.745,19.851,28.513,18.959,30.48z"/>
</g>
</svg>
