<?xml version="1.0" encoding="iso-8859-1"?>
<!-- Generator: Adobe Illustrator 19.1.1, SVG Export Plug-In . SVG Version: 6.00 Build 0)  -->
<svg version="1.1" id="Layer_1" xmlns="http://www.w3.org/2000/svg" xmlns:xlink="http://www.w3.org/1999/xlink" x="0px" y="0px"
	 viewBox="0 0 32 32" style="enable-background:new 0 0 32 32;" xml:space="preserve">
<ellipse transform="matrix(-0.7071 0.7071 -0.7071 -0.7071 38.6274 16)" style="fill:none;stroke:#000000;stroke-width:2;stroke-miterlimit:10;" cx="16" cy="16" rx="12.499" ry="9.259"/>
<path d="M21.707,11.707C21.317,12.098,19,13,19,13s0.902-2.317,1.293-2.707c0.391-0.391,1.024-0.391,1.414,0
	C22.098,10.683,22.098,11.317,21.707,11.707z"/>
<path d="M11.707,21.707c-0.391,0.391-1.024,0.391-1.414,0c-0.391-0.391-0.391-1.024,0-1.414C10.683,19.902,13,19,13,19
	S12.098,21.317,11.707,21.707z"/>
<path d="M13.707,12.293C14.098,12.683,15,15,15,15s-2.317-0.902-2.707-1.293c-0.391-0.391-0.391-1.024,0-1.414
	C12.683,11.902,13.317,11.902,13.707,12.293z"/>
<path d="M19.707,19.707c-0.391,0.391-1.024,0.391-1.414,0C17.902,19.317,17,17,17,17s2.317,0.902,2.707,1.293
	C20.098,18.683,20.098,19.317,19.707,19.707z"/>
<path d="M18,11c0,0.552-1,3-1,3s-1-2.448-1-3s0.448-1,1-1S18,10.448,18,11z"/>
<path d="M22,15c0,0.552-0.448,1-1,1s-3-1-3-1s2.448-1,3-1S22,14.448,22,15z"/>
<path d="M16,21c0,0.552-0.448,1-1,1s-1-0.448-1-1s1-3,1-3S16,20.448,16,21z"/>
<path d="M14,17c0,0-2.448,1-3,1s-1-0.448-1-1s0.448-1,1-1S14,17,14,17z"/>
</svg>
