<?xml version="1.0" encoding="utf-8"?>
<!-- Generator: Adobe Illustrator 19.1.1, SVG Export Plug-In . SVG Version: 6.00 Build 0)  -->
<svg version="1.1" id="Layer_1" xmlns="http://www.w3.org/2000/svg" xmlns:xlink="http://www.w3.org/1999/xlink" x="0px" y="0px"
	 viewBox="-7 9 32 32" style="enable-background:new -7 9 32 32;" xml:space="preserve">
<path d="M21.1,21.7c-0.1-0.9-0.5-1.8-1.1-2.4c0.3-1.4-0.1-2.8-1-3.7c-1.2-1.2-3-1.6-5.1-1c-1.4-0.7-3.6-0.8-5.1-0.1
	c-1.7-0.9-4-1.1-6,0.1c-1.5-0.3-3,0.2-4.1,1.4c-0.8,1-1.2,2.3-0.9,3.4c-0.5,0.5-0.9,1.2-1,2.1c-0.2,1-0.1,2.3,0.5,3.3
	c-0.7,1.4-0.6,3.3,0.9,4.9c-0.5,2.3,0.8,4,2.2,4.8c0.9,0.5,2.3,0.6,3.5,0.2c1-0.3,1.8-0.9,2.2-1.7C6.5,32.4,6.4,31,6,29.9
	c-0.3-0.7-0.6-1.2-1.1-1.7c0.5-1.4,0.2-3.1-0.4-4.3c0.5-0.8,0.6-1.7,0.6-2.3C5.7,21.9,6.4,22,7,22c0.8,0,1.6-0.3,2.3-0.8
	c1,0.5,2.3,0.5,3.4,0.1c-0.1,0.9,0.1,2,0.6,3.1c-0.8,1.3-0.8,2.7-0.3,3.7c-0.5,0.6-0.8,1.3-0.9,2c-1.8,0.4-3,1.8-3,3.6
	c0,2.6,1,4.3,2.5,4.3c1.5,0,2.1-1.9,2.3-3.1c1.9-0.3,4.6-1.6,4.9-4.5c0.8-0.5,1.4-1.5,1.7-2.6c0.3-1.1,0.2-2.1-0.1-2.9
	C21,23.9,21.2,22.8,21.1,21.7z M18.4,24.1l-0.6,0.6l0.6,0.7c0.3,0.4,0.4,1.1,0.2,1.9c-0.2,0.8-0.7,1.4-1.1,1.6l-0.6,0.2v0.7
	c0,3-3.8,3.2-3.9,3.2l-0.9,0L12,33.9c-0.1,0.7-0.3,1.6-0.5,2c-0.2-0.3-0.5-1.1-0.5-2.2c0-1,0.8-1.7,1.9-1.7h1.1L14,30.9
	c0-0.6,0.1-1.1,0.9-1.9l0.7-0.6L15,27.6c-0.5-0.6-0.6-1.5,0.3-2.5l0.5-0.6l-0.4-0.6c-0.6-0.8-0.7-1.6-0.7-2.1
	c0.8,0.2,1.6,0.3,2.1,0.3c0.2,0,0.3,0,0.4,0l-0.1-2c-0.7,0-2.3-0.1-2.8-0.8l-0.7-0.8l-0.8,0.7c-0.8,0.7-2.2,0.8-2.8,0.2l-0.7-0.7
	l-0.7,0.8C8,19.8,7.5,20,6.9,20c-0.8,0-1.5-0.3-1.9-0.7l-0.6-0.6l-0.7,0.6C3.2,19.6,2.5,20,1,20v2c0.9,0,1.5-0.1,2.1-0.3
	c0,0.5-0.2,1.1-0.6,1.7L2,24.1l0.6,0.6c0.5,0.6,0.9,2.5,0.2,3.3l-0.8,1l1.2,0.5c1,0.4,1.2,2.3,1.1,2.7c-0.1,0.3-0.5,0.5-1,0.7
	c-0.8,0.2-1.6,0.2-2,0c-0.7-0.4-1.7-1.2-1.1-3l0.2-0.6L0,28.7c-1.6-1.4-1.1-2.8-0.7-3.3L0,24.7L-0.8,24c-0.4-0.4-0.6-1.3-0.5-2.1
	c0.1-0.6,0.4-1,0.6-1.1l1-0.4l-0.5-1c-0.3-0.6-0.2-1.5,0.3-2.1c0.6-0.7,1.5-1,2.4-0.7l0.5,0.1l0.4-0.3c1.6-1.1,3.5-0.8,4.7,0
	l0.6,0.4l0.6-0.4c0.9-0.6,2.9-0.6,3.8,0l0.4,0.3l0.5-0.2c1.5-0.5,2.8-0.4,3.5,0.4c0.5,0.6,0.7,1.4,0.3,2.3l-0.3,0.8l0.7,0.4
	c0.3,0.2,0.6,0.7,0.7,1.4C19.1,22.4,19.1,23.3,18.4,24.1z"/>
</svg>
