<?xml version="1.0" encoding="iso-8859-1"?>
<!-- Generator: Adobe Illustrator 19.1.1, SVG Export Plug-In . SVG Version: 6.00 Build 0)  -->
<svg version="1.1" id="Layer_1" xmlns="http://www.w3.org/2000/svg" xmlns:xlink="http://www.w3.org/1999/xlink" x="0px" y="0px"
	 viewBox="0 0 32 32" style="enable-background:new 0 0 32 32;" xml:space="preserve">
<g>
	<path d="M23.342,13.374c-0.176,0-0.351,0.036-0.492,0.25c-0.352,0.463-1.335,3.172-1.301,3.706c0,0.179,0.106,0.356,0.352,0.356
		s0.421-0.177,0.562-0.428c0.283-0.498,1.161-2.922,1.195-3.528C23.658,13.587,23.624,13.374,23.342,13.374z"/>
	<path d="M22.688,5H9.312C6.94,5,5,6.94,5,9.31v13.38C5,25.06,6.94,27,9.312,27h13.377C25.06,27,27,25.06,27,22.69V9.31
		C27,6.94,25.06,5,22.688,5z M7.876,19.361c-0.668,0-1.265-0.321-1.265-1.104c-0.035-1.391,1.334-4.599,2.004-5.632
		c0.316-0.499,0.668-0.749,1.264-0.749c0.564,0,0.704,0.286,0.668,0.607c0,0.927-1.475,3.743-1.967,4.847
		c1.159-0.179,1.441,0.214,1.405,0.642C9.88,19.148,8.825,19.396,7.876,19.361z M12.34,16.261c-0.069,0.214-0.211,0.642-0.316,1.106
		c0.388-0.072,0.668-0.143,1.159-0.143c0.529,0,0.915,0.249,0.915,0.712c0,1.141-1.266,1.461-2.109,1.461
		c-0.949,0-1.757-0.534-1.757-1.568c0-1.248,0.632-3.101,1.265-4.314c0.738-1.532,1.512-1.746,2.846-1.746
		c0.564,0,1.266,0.286,1.266,0.821c0,0.784-0.668,1.07-1.3,1.105c-0.282,0.036-0.704,0.036-0.95,0.036c0,0-0.21,0.321-0.421,0.891
		c1.159-0.142,1.686,0.107,1.475,0.821C14.133,16.367,13.324,16.438,12.34,16.261z M19.51,16.367
		c-0.352,1.675-1.51,3.029-3.198,3.029c-1.16,0-1.862-0.641-1.862-1.818c0-0.855,0.421-2.173,0.737-2.958
		c0.704-1.639,1.442-2.814,3.303-2.814c1.127,0,2.005,0.427,1.864,1.498c-0.105,0.783-0.492,1.211-1.159,1.282
		c-0.212,0-1.019,0-0.738-0.784c0.07-0.25,0.14-0.465-0.281-0.465c-0.317,0-0.527,0.215-0.668,0.429
		c-0.352,0.499-1.09,2.459-1.195,3.242c-0.106,0.57,0.14,0.677,0.387,0.677c0.421,0,0.878-0.462,1.054-1.176
		c0,0-0.808-0.035-0.598-0.712c0.212-0.712,0.633-0.855,1.301-0.891C19.756,14.87,19.616,15.832,19.51,16.367z M25.239,14.727
		c-0.211,0.998-0.668,2.175-1.123,3.029c-0.81,1.461-1.758,1.64-2.567,1.64c-0.844,0-1.792-0.32-1.792-1.64
		c0-0.927,0.387-2.244,0.739-3.1c0.597-1.569,1.194-2.851,3.091-2.815C25.802,11.841,25.415,13.871,25.239,14.727z"/>
</g>
</svg>
