<?xml version="1.0" encoding="iso-8859-1"?>
<!-- Generator: Adobe Illustrator 19.1.1, SVG Export Plug-In . SVG Version: 6.00 Build 0)  -->
<svg version="1.1" id="Layer_1" xmlns="http://www.w3.org/2000/svg" xmlns:xlink="http://www.w3.org/1999/xlink" x="0px" y="0px"
	 viewBox="0 0 32 32" style="enable-background:new 0 0 32 32;" xml:space="preserve">
<path style="fill:none;stroke:#000000;stroke-width:2;stroke-miterlimit:10;" d="M12,21c0-2.209,1.791-4,4-4s4,1.791,4,4"/>
<path style="fill:none;stroke:#000000;stroke-width:2;stroke-miterlimit:10;" d="M4,16C4,9.373,9.373,4,16,4
	c3.314,0,6.314,1.343,8.485,3.515"/>
<path style="fill:none;stroke:#000000;stroke-width:2;stroke-miterlimit:10;" d="M28,16c0,6.627-5.373,12-12,12
	c-3.313,0-6.313-1.343-8.484-3.514"/>
<polygon points="31.5,17 24.5,17 28,12.625 "/>
<polygon points="0.5,14 7.5,14 4,18.375 "/>
<path style="fill:none;stroke:#000000;stroke-width:2;stroke-miterlimit:10;" d="M21,14c0,0-3.004,3-5,3c-1.657,0-3-1.343-3-3
	s1.343-3,3-3C18.06,11,21,14,21,14z"/>
</svg>
