<?xml version="1.0" encoding="iso-8859-1"?>
<!-- Generator: Adobe Illustrator 19.1.0, SVG Export Plug-In . SVG Version: 6.00 Build 0)  -->
<svg version="1.1" id="Layer_1" xmlns="http://www.w3.org/2000/svg" xmlns:xlink="http://www.w3.org/1999/xlink" x="0px" y="0px"
	 viewBox="0 0 32 32" style="enable-background:new 0 0 32 32;" xml:space="preserve">
<path d="M11.954,23h-2.95v-9.492h2.95V23z M10.449,12.151c-0.951,0-1.72-0.771-1.72-1.72c0-0.949,0.77-1.719,1.72-1.719
	c0.948,0,1.719,0.771,1.719,1.719C12.168,11.38,11.397,12.151,10.449,12.151z M23.004,23h-2.948v-4.616
	c0-1.101-0.02-2.517-1.533-2.517c-1.535,0-1.771,1.199-1.771,2.437V23h-2.948v-9.492h2.83v1.297h0.04
	c0.394-0.746,1.356-1.533,2.791-1.533c2.987,0,3.539,1.966,3.539,4.522V23z"/>
<path style="fill:none;stroke:#000000;stroke-width:2;stroke-miterlimit:10;" d="M24.5,26h-17C6.672,26,6,25.328,6,24.5v-17
	C6,6.672,6.672,6,7.5,6h17C25.328,6,26,6.672,26,7.5v17C26,25.328,25.328,26,24.5,26z"/>
</svg>
