<?xml version="1.0" encoding="utf-8"?>
<!-- Generator: Adobe Illustrator 21.0.0, SVG Export Plug-In . SVG Version: 6.00 Build 0)  -->
<svg version="1.1"  xmlns="http://www.w3.org/2000/svg" xmlns:xlink="http://www.w3.org/1999/xlink" x="0px" y="0px"
	 viewBox="0 0 32 32" enable-background="new 0 0 32 32" xml:space="preserve">
<path d="M22,18h3.2L16,27l-9.2-9H10V4h12V18z M24,2H8v14H2l14,14l14-14h-6V2L24,2z"/>
<path d="M16,12c-0.6,0-1-0.4-1-0.9s0.4-0.9,1-0.9s1,0.4,1,0.9h2c0-1.2-0.8-2.3-2-2.7V7h-2v1.5c-1.2,0.4-2,1.4-2,2.7
	c0,1.6,1.3,2.9,3,2.9c0.6,0,1,0.4,1,0.9s-0.4,0.9-1,0.9c0,0,0,0,0,0c-0.6,0-1-0.4-1-0.9l-2,0c0,1.2,0.8,2.3,2,2.7V19h2v-1.5
	c1.2-0.4,2-1.4,2-2.7C19,13.3,17.7,12,16,12z"/>
</svg>
