<?xml version="1.0" encoding="iso-8859-1"?>
<!-- Generator: Adobe Illustrator 22.0.0, SVG Export Plug-In . SVG Version: 6.00 Build 0)  -->
<svg version="1.1" id="Layer_1" xmlns="http://www.w3.org/2000/svg" xmlns:xlink="http://www.w3.org/1999/xlink" x="0px" y="0px"
	 viewBox="0 0 32 32" style="enable-background:new 0 0 32 32;" xml:space="preserve">
<circle style="fill:none;stroke:#000000;stroke-width:2;stroke-miterlimit:10;" cx="15.5" cy="7.5" r="2.5"/>
<path d="M12.203,14.54c0.173-0.333,0.513-0.54,0.888-0.54h0.3L18,21l1.776-0.918l-4.608-7C14.823,12.415,14.143,12,13.391,12h-0.3
	c-1.125,0-2.146,0.621-2.658,1.609L8.336,17.54c-0.396,0.764-0.444,1.662-0.133,2.465c0.312,0.803,0.953,1.433,1.767,1.732
	L12,22.469L10,28h2.132l1.744-4.839c0.185-0.502,0.164-1.046-0.061-1.531s-0.625-0.854-1.132-1.04l-2.028-0.731
	c-0.273-0.101-0.481-0.306-0.587-0.577c-0.105-0.271-0.089-0.563,0.039-0.811L12.203,14.54z"/>
<polygon points="14.258,28 16.35,28 15.328,25.032 "/>
<polygon points="18.167,14 19.484,16 22,16 22,20 19,20 16,17 16,22 24,22 24,14 "/>
</svg>
