<?xml version="1.0" encoding="iso-8859-1"?>
<!-- Generator: Adobe Illustrator 19.1.0, SVG Export Plug-In . SVG Version: 6.00 Build 0)  -->
<svg version="1.1" id="Layer_1" xmlns="http://www.w3.org/2000/svg" xmlns:xlink="http://www.w3.org/1999/xlink" x="0px" y="0px"
	 viewBox="0 0 32 32" style="enable-background:new 0 0 32 32;" xml:space="preserve">
<rect x="4" y="6" style="fill:none;stroke:#000000;stroke-width:2;stroke-miterlimit:10;" width="24" height="20"/>
<path d="M13.844,19.44h-1.592l-2.886-4.399c-0.169-0.257-0.286-0.451-0.352-0.581h-0.02c0.026,0.247,0.039,0.625,0.039,1.133v3.848
	H7.545v-7.002h1.699l2.778,4.263c0.127,0.192,0.244,0.383,0.352,0.571h0.02c-0.026-0.163-0.039-0.483-0.039-0.962v-3.872h1.489
	V19.44z"/>
<path d="M15.983,15.988c-0.254,0-0.466-0.077-0.635-0.231c-0.169-0.155-0.254-0.347-0.254-0.574c0-0.234,0.087-0.427,0.262-0.576
	c0.174-0.149,0.391-0.225,0.651-0.225c0.264,0,0.479,0.076,0.647,0.227c0.167,0.152,0.251,0.343,0.251,0.574
	c0,0.237-0.085,0.432-0.257,0.581C16.479,15.913,16.256,15.988,15.983,15.988z M15.983,19.562c-0.254,0-0.466-0.078-0.635-0.234
	s-0.254-0.349-0.254-0.576c0-0.234,0.087-0.427,0.262-0.576c0.174-0.149,0.391-0.225,0.651-0.225c0.264,0,0.479,0.075,0.647,0.228
	c0.167,0.15,0.251,0.342,0.251,0.573c0,0.237-0.085,0.433-0.257,0.583C16.479,19.487,16.256,19.562,15.983,19.562z"/>
<path d="M24.455,19.44h-1.592l-2.886-4.399c-0.169-0.257-0.286-0.451-0.352-0.581h-0.02c0.026,0.247,0.039,0.625,0.039,1.133v3.848
	h-1.489v-7.002h1.699l2.778,4.263c0.127,0.192,0.244,0.383,0.352,0.571h0.02c-0.026-0.163-0.039-0.483-0.039-0.962v-3.872h1.489
	V19.44z"/>
</svg>
