<?xml version="1.0" encoding="iso-8859-1"?>
<!-- Generator: Adobe Illustrator 21.0.2, SVG Export Plug-In . SVG Version: 6.00 Build 0)  -->
<svg version="1.1" id="Layer_1" xmlns="http://www.w3.org/2000/svg" xmlns:xlink="http://www.w3.org/1999/xlink" x="0px" y="0px"
	 viewBox="0 0 32 32" style="enable-background:new 0 0 32 32;" xml:space="preserve">
<polygon points="24,20 26,22 26,26 21,26 21,22 23.293,22 21.293,20 19,20 19,28 28,28 28,20 "/>
<polyline style="fill:none;stroke:#000000;stroke-width:2;stroke-miterlimit:10;" points="25,20 25,12 29,12 "/>
<path style="fill:none;stroke:#000000;stroke-width:2;stroke-miterlimit:10;" d="M11.5,4c0,0-2.413,3.32,0,7.5"/>
<path style="fill:none;stroke:#000000;stroke-width:2;stroke-miterlimit:10;" d="M11.5,19c0,0,2.413-3.32,0-7.5"/>
<path style="fill:none;stroke:#000000;stroke-width:2;stroke-miterlimit:10;" d="M19,11.5c0,0-3.32-2.413-7.5,0"/>
<path style="fill:none;stroke:#000000;stroke-width:2;stroke-miterlimit:10;" d="M4,11.5c0,0,3.32,2.413,7.5,0"/>
<path style="fill:none;stroke:#000000;stroke-width:2;stroke-miterlimit:10;" d="M16.803,6.197c0,0-4.054,0.642-5.303,5.303"/>
<path style="fill:none;stroke:#000000;stroke-width:2;stroke-miterlimit:10;" d="M6.197,16.803c0,0,4.054-0.642,5.303-5.303"/>
<path style="fill:none;stroke:#000000;stroke-width:2;stroke-miterlimit:10;" d="M6.197,6.197c0,0,0.642,4.054,5.303,5.303"/>
<path d="M16.718,15.359C15.533,16.957,13.638,18,11.5,18C7.916,18,5,15.084,5,11.5S7.916,5,11.5,5S18,7.916,18,11.5
	c0,0.696-0.113,1.366-0.317,1.996l1.538,1.538C19.716,13.956,20,12.762,20,11.5C20,6.813,16.187,3,11.5,3S3,6.813,3,11.5
	S6.813,20,11.5,20c2.689,0,5.086-1.259,6.645-3.215L16.718,15.359z"/>
<line style="fill:none;stroke:#000000;stroke-width:2;stroke-linecap:round;stroke-miterlimit:10;" x1="11" y1="11" x2="23.5" y2="23.5"/>
</svg>
