<?xml version="1.0" encoding="iso-8859-1"?>
<!-- Generator: Adobe Illustrator 19.1.0, SVG Export Plug-In . SVG Version: 6.00 Build 0)  -->
<svg version="1.1" id="Layer_1" xmlns="http://www.w3.org/2000/svg" xmlns:xlink="http://www.w3.org/1999/xlink" x="0px" y="0px"
	 viewBox="0 0 32 32" style="enable-background:new 0 0 32 32;" xml:space="preserve">
<path style="fill:none;stroke:#000000;stroke-width:2;stroke-miterlimit:10;" d="M20,29v-4c0,0,0,0,1,0c2,0,4-2,4-4c0-1,0-2.2,0-2.2
	s1.1-0.3,1.7-0.5c0.8-0.2,0.9-1,0.6-1.7c-0.3-0.6-2.7-5.4-2.7-5.4S23.2,4,15,4C9.5,4,5,8.5,5,14c0,3.8,3,6.6,3,10.1V29"/>
<rect x="14" y="21" width="2" height="2"/>
<path style="fill:none;stroke:#000000;stroke-width:2;stroke-miterlimit:10;" d="M12,13L12,13c0-1.657,1.343-3,3-3h0
	c1.657,0,3,1.343,3,3v0c0,1.461-0.704,2.345-1.429,2.867C15.569,16.589,15,17.766,15,19v0"/>
</svg>
