<?xml version="1.0" encoding="iso-8859-1"?>
<!-- Generator: Adobe Illustrator 19.1.0, SVG Export Plug-In . SVG Version: 6.00 Build 0)  -->
<svg version="1.1" id="Layer_1" xmlns="http://www.w3.org/2000/svg" xmlns:xlink="http://www.w3.org/1999/xlink" x="0px" y="0px"
	 viewBox="0 0 32 32" style="enable-background:new 0 0 32 32;" xml:space="preserve">
<ellipse style="fill:none;stroke:#000000;stroke-width:2;stroke-miterlimit:10;" cx="14" cy="10" rx="10" ry="3"/>
<path style="fill:none;stroke:#000000;stroke-width:2;stroke-miterlimit:10;" d="M7,12c0,0,0,7.105,0,8c0,1.205,3.134,2.182,7,2.182
	s7-0.977,7-2.182c0-0.895,0-8,0-8"/>
<path style="fill:none;stroke:#000000;stroke-width:2;stroke-miterlimit:10;" d="M6.727,20c0-0.013,0-0.039,0-0.055
	C5.041,20.482,4,21.204,4,22c0,1.657,4.477,3,10,3s10-1.343,10-3c0-0.796-1.041-1.518-2.727-2.055c0,0.015,0,0.042,0,0.055"/>
<ellipse cx="14" cy="10" rx="5" ry="1"/>
<path style="fill:none;stroke:#000000;stroke-width:2;stroke-miterlimit:10;" d="M23,11c3.6,0,5,1,5,1v12h-0.1c0,0-1.46-2-3.9-2"/>
</svg>
