<?xml version="1.0" encoding="iso-8859-1"?>
<!-- Generator: Adobe Illustrator 22.0.1, SVG Export Plug-In . SVG Version: 6.00 Build 0)  -->
<svg version="1.1" id="&#x421;&#x43B;&#x43E;&#x439;_1"
	 xmlns="http://www.w3.org/2000/svg" xmlns:xlink="http://www.w3.org/1999/xlink" x="0px" y="0px" viewBox="0 0 32 32"
	 style="enable-background:new 0 0 32 32;" xml:space="preserve">
<path d="M17,24c0,0.551-0.449,1-1,1c-0.551,0-1-0.449-1-1c0-0.551,0.449-1,1-1C16.551,23,17,23.449,17,24L17,24z"/>
<path style="fill:none;stroke:#000000;stroke-width:2;stroke-miterlimit:10;" d="M23,18v7c0,1.105-0.895,2-2,2H11
	c-1.105,0-2-0.895-2-2V7c0-1.105,0.895-2,2-2h10c1.105,0,2,0.895,2,2v2"/>
<rect x="14" y="10" style="fill:none;stroke:#000000;stroke-width:2;stroke-miterlimit:10;" width="14" height="9"/>
<polyline style="fill:none;stroke:#000000;stroke-width:2;stroke-miterlimit:10;" points="14,10.668 21,15 28,10.668 "/>
</svg>
