<?xml version="1.0" encoding="utf-8"?>
<!-- Generator: Adobe Illustrator 18.0.0, SVG Export Plug-In . SVG Version: 6.00 Build 0)  -->
<svg version="1.1" id="Layer_1" xmlns="http://www.w3.org/2000/svg" xmlns:xlink="http://www.w3.org/1999/xlink" x="0px" y="0px"
	 viewBox="0 0 32 32" enable-background="new 0 0 32 32" xml:space="preserve">
<polyline id="XMLID_12_" fill="none" stroke="#000000" stroke-width="2" stroke-miterlimit="10" points="6,20 6,13 6.5,13 8,15 
	9.5,13 10,13 10,20 "/>
<path fill="none" stroke="#000000" stroke-width="2" stroke-miterlimit="10" d="M19,16h1.5c0.8,0,1.5-0.7,1.5-1.5v0
	c0-0.8-0.7-1.5-1.5-1.5H19v6h1.5c0.8,0,1.5-0.7,1.5-1.5v0c0-0.8-0.7-1.5-1.5-1.5H20"/>
<path fill="none" stroke="#000000" stroke-width="2" stroke-miterlimit="10" d="M16,27L16,27c0-1.7,1.3-3,3-3h12V7H19
	c-1.7,0-3,1.3-3,3v0"/>
<path fill="none" stroke="#000000" stroke-width="2" stroke-miterlimit="10" d="M16,10L16,10c0-1.7-1.3-3-3-3H1v17h12
	c1.7,0,3,1.3,3,3v0"/>
<line fill="none" stroke="#000000" stroke-width="2" stroke-miterlimit="10" x1="25" y1="12" x2="25" y2="20"/>
<path fill="none" stroke="#000000" stroke-width="2" stroke-miterlimit="10" d="M14.5,13L14.5,13c-0.8,0-1.5,0.7-1.5,1.5v3
	c0,0.8,0.7,1.5,1.5,1.5h0c0.8,0,1.5-0.7,1.5-1.5v-3C16,13.7,15.3,13,14.5,13z"/>
</svg>
