<?xml version="1.0" encoding="iso-8859-1"?>
<!-- Generator: Adobe Illustrator 19.1.1, SVG Export Plug-In . SVG Version: 6.00 Build 0)  -->
<svg version="1.1" id="Layer_1" xmlns="http://www.w3.org/2000/svg" xmlns:xlink="http://www.w3.org/1999/xlink" x="0px" y="0px"
	 viewBox="0 0 32 32" style="enable-background:new 0 0 32 32;" xml:space="preserve">
<path style="fill:none;stroke:#000000;stroke-width:2;stroke-miterlimit:10;" d="M10,12c0,0.702,0,1,0,1c0,3.314,2.686,6,6,6
	s6-2.686,6-6c0,0,0-0.298,0-1"/>
<path style="fill:none;stroke:#000000;stroke-width:2;stroke-miterlimit:10;" d="M7,28c0-4.971,4.029-9,9-9s9,4.029,9,9"/>
<polygon style="fill:none;stroke:#000000;stroke-width:2;stroke-miterlimit:10;" points="23,8 19,9 16,5 13,9 9,8 10,12 22,12 "/>
<circle cx="16" cy="4" r="1"/>
<circle cx="24" cy="7" r="1"/>
<circle cx="8" cy="7" r="1"/>
<path style="fill:none;stroke:#000000;stroke-width:2;stroke-miterlimit:10;" d="M10,12c0,0-3,2.828-3,8h5"/>
<path style="fill:none;stroke:#000000;stroke-width:2;stroke-miterlimit:10;" d="M22,12c0,0,3,2.828,3,8h-5"/>
</svg>
