<?xml version="1.0" encoding="iso-8859-1"?>
<!-- Generator: Adobe Illustrator 19.1.0, SVG Export Plug-In . SVG Version: 6.00 Build 0)  -->
<svg version="1.1" id="Layer_1" xmlns="http://www.w3.org/2000/svg" xmlns:xlink="http://www.w3.org/1999/xlink" x="0px" y="0px"
	 viewBox="0 0 32 32" style="enable-background:new 0 0 32 32;" xml:space="preserve">
<path style="fill:none;stroke:#000000;stroke-width:1.9996;stroke-miterlimit:10;" d="M27,15.158C27,16.277,24.455,17,22.111,17
	C18.562,17,18,15.524,18,12C22.107,14.137,27,13.01,27,15.158z"/>
<path style="fill:none;stroke:#000000;stroke-width:2;stroke-miterlimit:10;" d="M15.999,9c1.105,0,2,0.384,2,1.709
	C17.999,10.858,18,12,18,12"/>
<path style="fill:none;stroke:#000000;stroke-width:2;stroke-miterlimit:10;" d="M17,15c0,0,1,1.993,1,4s-0.17,5-2,5s-2-2.991-2-5
	s1-4,1-4"/>
<path d="M18,8.555C18,9.353,17.105,10,16,10s-2-0.647-2-1.445c0-0.798,0.246-1.827,2-1.445C17.73,6.645,18,7.757,18,8.555z"/>
<polyline style="fill:none;stroke:#000000;stroke-width:1.9996;stroke-miterlimit:10;" points="19.199,12.431 22,10 21,8 
	23.633,5.449 "/>
<polyline style="fill:none;stroke:#000000;stroke-width:1.9996;stroke-miterlimit:10;" points="23,16.282 24,19.394 26,22 "/>
<polyline style="fill:none;stroke:#000000;stroke-width:1.9996;stroke-miterlimit:10;" points="21,17 21,21.929 23.874,27 "/>
<path style="fill:none;stroke:#000000;stroke-width:1.9996;stroke-miterlimit:10;" d="M4.999,15.158C4.999,16.277,7.544,17,9.889,17
	c3.549,0,4.111-1.476,4.111-5C9.893,14.137,4.999,13.01,4.999,15.158z"/>
<path style="fill:none;stroke:#000000;stroke-width:2;stroke-miterlimit:10;" d="M16,9c-1.105,0-2,0.384-2,1.709
	C14,10.858,13.999,12,13.999,12"/>
<path style="fill:none;stroke:#000000;stroke-width:2;stroke-miterlimit:10;" d="M13.999,13.812c0,0,0.505,1.188,2,1.188
	S18,13.812,18,13.812"/>
<polyline style="fill:none;stroke:#000000;stroke-width:1.9996;stroke-miterlimit:10;" points="12.8,12.431 9.999,10 10.999,8 
	8.367,5.449 "/>
<polyline style="fill:none;stroke:#000000;stroke-width:1.9996;stroke-miterlimit:10;" points="8.999,16.282 7.999,19.394 5.999,22 
	"/>
<polyline style="fill:none;stroke:#000000;stroke-width:1.9996;stroke-miterlimit:10;" points="10.999,17 10.999,21.929 8.125,27 
	"/>
<line style="fill:none;stroke:#000000;stroke-width:2;stroke-miterlimit:10;" x1="16" y1="5" x2="16" y2="8"/>
</svg>
