<?xml version="1.0" encoding="iso-8859-1"?>
<!-- Generator: Adobe Illustrator 19.1.1, SVG Export Plug-In . SVG Version: 6.00 Build 0)  -->
<svg version="1.1" id="Layer_1" xmlns="http://www.w3.org/2000/svg" xmlns:xlink="http://www.w3.org/1999/xlink" x="0px" y="0px"
	 viewBox="0 0 32 32" style="enable-background:new 0 0 32 32;" xml:space="preserve">
<path d="M12.439,10.989c-0.695,0.053-1.384,0.101-2.076,0.151c-0.861,3.128-1.764,6.243-2.631,9.371
	c0.579,0.039,1.158,0.08,1.74,0.125c0.181-0.701,0.36-1.402,0.535-2.106c0.909,0.044,1.821,0.074,2.732,0.077
	c0.196,0.74,0.389,1.482,0.57,2.225c0.68,0.062,1.366,0.113,2.052,0.157C14.379,17.66,13.435,14.315,12.439,10.989z M10.378,16.926
	c0.3-1.39,0.746-2.747,0.945-4.158c0.267,1.408,0.68,2.78,1.019,4.17C11.685,16.935,11.032,16.932,10.378,16.926z"/>
<path style="fill:none;stroke:#000000;stroke-width:2;stroke-miterlimit:10;" d="M18.051,15.742C18.922,15.906,19.928,16,21,16
	c3.314,0,6-0.895,6-2"/>
<path style="fill:none;stroke:#000000;stroke-width:2;stroke-miterlimit:10;" d="M18.051,19.742C18.922,19.906,19.928,20,21,20
	c3.314,0,6-0.895,6-2"/>
<path style="fill:none;stroke:#000000;stroke-width:2;stroke-miterlimit:10;" d="M18,11.73c0.883,0.171,1.906,0.27,3,0.27
	c3.314,0,6-0.895,6-2c0-1.105-2.686-2-6-2c-1.094,0-2.117,0.099-3,0.27"/>
<path style="fill:none;stroke:#000000;stroke-width:2;stroke-miterlimit:10;" d="M18,23.73c0.883,0.171,1.906,0.27,3,0.27
	c3.314,0,6-0.895,6-2c0-0.365,0-12,0-12"/>
<g>
	<path style="fill:none;stroke:#000000;stroke-width:2;stroke-linecap:round;stroke-miterlimit:10;" d="M5,7.444v17.111L18,27V5
		L5,7.444z"/>
</g>
</svg>
