<?xml version="1.0" encoding="iso-8859-1"?>
<!-- Generator: Adobe Illustrator 19.1.1, SVG Export Plug-In . SVG Version: 6.00 Build 0)  -->
<svg version="1.1" id="Layer_1" xmlns="http://www.w3.org/2000/svg" xmlns:xlink="http://www.w3.org/1999/xlink" x="0px" y="0px"
	 viewBox="0 0 32 32" style="enable-background:new 0 0 32 32;" xml:space="preserve">
<path d="M13.693,19.474c-0.204,0.366-0.482,0.664-0.833,0.89c-0.35,0.227-0.759,0.39-1.223,0.489C11.171,20.952,10.679,21,10.163,21
	c-0.531,0-1.035-0.044-1.515-0.135c-0.478-0.09-0.894-0.224-1.244-0.404v-2.158c0.391,0.328,0.816,0.574,1.275,0.738
	c0.459,0.164,0.921,0.245,1.389,0.245c0.274,0,0.513-0.023,0.718-0.073c0.204-0.05,0.375-0.117,0.512-0.205
	c0.137-0.088,0.24-0.191,0.306-0.31c0.066-0.119,0.102-0.249,0.102-0.388c0-0.188-0.054-0.357-0.162-0.506
	c-0.109-0.149-0.255-0.286-0.442-0.412c-0.187-0.126-0.408-0.247-0.665-0.364c-0.256-0.117-0.532-0.237-0.829-0.358
	c-0.755-0.315-1.318-0.699-1.69-1.153c-0.371-0.455-0.556-1.002-0.556-1.646c0-0.504,0.102-0.937,0.303-1.299
	c0.202-0.362,0.478-0.66,0.826-0.894c0.35-0.233,0.753-0.405,1.212-0.515c0.46-0.11,0.944-0.165,1.457-0.165
	c0.504,0,0.949,0.03,1.339,0.091c0.388,0.061,0.747,0.154,1.076,0.28v2.016c-0.162-0.112-0.338-0.211-0.53-0.296
	c-0.192-0.085-0.387-0.156-0.591-0.212c-0.203-0.056-0.404-0.098-0.603-0.125c-0.199-0.026-0.389-0.04-0.57-0.04
	c-0.247,0-0.472,0.023-0.674,0.07c-0.202,0.048-0.374,0.114-0.512,0.199c-0.139,0.085-0.247,0.188-0.324,0.306
	c-0.076,0.119-0.114,0.253-0.114,0.402c0,0.162,0.043,0.306,0.128,0.435c0.085,0.128,0.207,0.249,0.365,0.365
	c0.157,0.114,0.348,0.227,0.573,0.337c0.225,0.11,0.479,0.224,0.762,0.34c0.387,0.162,0.733,0.333,1.041,0.516
	c0.308,0.182,0.572,0.387,0.793,0.617c0.22,0.229,0.388,0.491,0.506,0.786C13.942,17.382,14,17.724,14,18.116
	C14,18.654,13.897,19.107,13.693,19.474z"/>
<path style="fill:none;stroke:#000000;stroke-width:2;stroke-miterlimit:10;" d="M19,10c3.315,0,6,2.685,6,6s-2.685,6-6,6"/>
<g>
	<path d="M18,12.816C18.314,12.928,18.647,13,19,13c1.657,0,3-1.343,3-3s-1.343-3-3-3c-0.353,0-0.686,0.072-1,0.184V12.816z"/>
	<path d="M19,19c-0.353,0-0.686,0.072-1,0.184v5.633C18.314,24.928,18.647,25,19,25c1.657,0,3-1.343,3-3S20.657,19,19,19z"/>
	<circle cx="25" cy="16" r="3"/>
</g>
<g>
	<path style="fill:none;stroke:#000000;stroke-width:2;stroke-miterlimit:10;" d="M16,5L5,7.444v17.111L16,27h1V5l0,0L16,5z"/>
</g>
</svg>
