<?xml version="1.0" encoding="iso-8859-1"?>
<!-- Generator: Adobe Illustrator 19.1.1, SVG Export Plug-In . SVG Version: 6.00 Build 0)  -->
<svg version="1.1" id="Layer_1" xmlns="http://www.w3.org/2000/svg" xmlns:xlink="http://www.w3.org/1999/xlink" x="0px" y="0px"
	 viewBox="0 0 32 32" style="enable-background:new 0 0 32 32;" xml:space="preserve">
<path style="fill:none;stroke:#000000;stroke-width:2;stroke-miterlimit:10;" d="M6,13C6,7.477,10.477,3,16,3s10,4.477,10,10
	s-2.5,16-10,16S6,18.523,6,13z"/>
<path style="fill:none;stroke:#000000;stroke-width:2;stroke-miterlimit:10;" d="M6,12c0,0,4.208-1,10-1s10,1,10,1"/>
<path style="fill:none;stroke:#000000;stroke-width:2;stroke-miterlimit:10;" d="M6,18c0,0,4.208,1,10,1s10-1,10-1"/>
<path style="fill:none;stroke:#000000;stroke-width:2;stroke-miterlimit:10;" d="M26,12c0,0-8.375-4.292-18-5"/>
<path style="fill:none;stroke:#000000;stroke-width:2;stroke-miterlimit:10;" d="M22,5c0,0-3.833,0.583-7,3"/>
<path style="fill:none;stroke:#000000;stroke-width:2;stroke-miterlimit:10;" d="M13,19c0,0,4.333,3.625,11,5"/>
<path style="fill:none;stroke:#000000;stroke-width:2;stroke-miterlimit:10;" d="M7,19c0,0,3.583,4.917,13,8l1.042,0.292"/>
<path d="M20,17c-1.093,0-1.877-0.87-2-1.519c0,0,3.274-0.91,5-1.481C23,15.151,21.841,17,20,17z"/>
<path d="M9,14c1.726,0.571,5,1.481,5,1.481C13.877,16.13,13.093,17,12,17C10.159,17,9,15.151,9,14z"/>
</svg>
