<?xml version="1.0" encoding="iso-8859-1"?>
<!-- Generator: Adobe Illustrator 19.2.0, SVG Export Plug-In . SVG Version: 6.00 Build 0)  -->
<svg version="1.1" id="Layer_1" xmlns="http://www.w3.org/2000/svg" xmlns:xlink="http://www.w3.org/1999/xlink" x="0px" y="0px"
	 viewBox="0 0 32 32" style="enable-background:new 0 0 32 32;" xml:space="preserve">
<path d="M25.999,18.194c0-1.631-1.536-4.485-4.637-4.485c-2.137,0-3.007,0.679-3.701,1.199c-0.645-1.121-1.988-2.017-3.182-2.017
	s-2.081,0.4-2.835,1.121C11.486,13.462,10.719,12,9,12c-2.438,0-3,2.281-3,2.791C6,15.116,6,20,6,20h5.017v3h4.994v4
	c0,0,6.664,0,9.99,0C25.999,27,25.999,19.681,25.999,18.194z"/>
<circle cx="20.997" cy="9" r="3"/>
<circle cx="14.5" cy="8.499" r="2.5"/>
<circle cx="9" cy="9" r="2"/>
</svg>
