<?xml version="1.0" encoding="iso-8859-1"?>
<!-- Generator: Adobe Illustrator 19.1.1, SVG Export Plug-In . SVG Version: 6.00 Build 0)  -->
<svg version="1.1" id="Layer_1" xmlns="http://www.w3.org/2000/svg" xmlns:xlink="http://www.w3.org/1999/xlink" x="0px" y="0px"
	 viewBox="0 0 32 32" style="enable-background:new 0 0 32 32;" xml:space="preserve">
<polygon points="12,14 12,15.662 11,14.813 11,14 10,14 10,18 11,18 11,16.338 12,17.187 12,18 13,18 13,14 "/>
<polygon points="17,15 17,14 14,14 14,18 17,18 17,17 15,17 15,16.5 16.773,16.5 16.773,15.5 15,15.5 15,15 "/>
<polygon points="21.731,18 21.04,18 20.865,17.669 20.5,16.646 20.017,18 19.327,18 19.149,17.676 18,14.5 18,14 18.99,14 
	18.99,14.409 19.631,16.132 20.124,14.75 20.819,14.75 20.994,15.081 21.369,16.132 22.01,14.409 22.01,14 23,14 22.968,14.676 "/>
<polygon style="fill:none;stroke:#000000;stroke-width:2;stroke-miterlimit:10;" points="16.004,4 18.97,6.87 23.057,6.292 
	23.77,10.357 27.416,12.292 25.604,16 27.416,19.708 23.77,21.643 23.057,25.708 18.97,25.13 16.004,28 13.037,25.13 8.95,25.708 
	8.237,21.643 4.591,19.708 6.404,16 4.591,12.292 8.237,10.357 8.95,6.292 13.037,6.87 "/>
</svg>
