<?xml version="1.0" encoding="iso-8859-1"?>
<!-- Generator: Adobe Illustrator 21.0.0, SVG Export Plug-In . SVG Version: 6.00 Build 0)  -->
<svg version="1.1" xmlns="http://www.w3.org/2000/svg" xmlns:xlink="http://www.w3.org/1999/xlink" x="0px" y="0px"
	 viewBox="0 0 32 32" style="enable-background:new 0 0 32 32;" xml:space="preserve">
<g >
	<g>
		<path d="M5.8,10c0.333,0.013,1.542-1.606,1.8-1.8c1.88,2.573,2.212,3.569,6.545,7.478C13.884,13.897,11.005,8.642,9.4,7
			c0.783-0.791,1.945-2.461,2.4-3c0.481,1.385,2.425,6.934,4.2,10.2l0,0c1.357-2.573,3.622-9.211,3.6-10.2
			c0.776,0.718,2.094,2.275,2.95,3.019c-1.671,1.286-4.193,7.175-5.237,9.946c-0.128,0.406-0.113,1.463-0.113,1.463
			c0.936,0.718,4.226,4.228,4.8,4.772c-1.756-7.906,0.73-13.219,2.4-15c0.268,0.282,0.944,0.928,1.8,1.8
			c-0.887,1.187-2.328,3.968-2.4,7.2c-0.104,4.651,0.547,7.169,1.8,9c-0.56,0.687-1.006,0.859-1.8,1.8
			c-1.257-1.154-6.6-6.249-6.6-6.249V25c0.04,0.205-0.202,2.128,0.6,3h-3.6c0.589-0.796,0.586-2.529,0.6-3.068V19.34
			c-0.695-0.667-4.056-3.787-4.362-4.107l0,0c0.365,1.88,0.372,7.763-2.238,12.167c-0.214-0.308-2.444-2.331-2.4-2.4
			c0.802-1.257,2.373-4.558,2.4-7.2C8.25,12.975,6.576,11.18,5.8,10L5.8,10z"/>
	</g>
</g>
<g >
</g>
</svg>
