<?xml version="1.0" encoding="iso-8859-1"?>
<!-- Generator: Adobe Illustrator 19.1.0, SVG Export Plug-In . SVG Version: 6.00 Build 0)  -->
<svg version="1.1" id="Layer_1" xmlns="http://www.w3.org/2000/svg" xmlns:xlink="http://www.w3.org/1999/xlink" x="0px" y="0px"
	 viewBox="0 0 32 32" style="enable-background:new 0 0 32 32;" xml:space="preserve">
<line style="fill:none;stroke:#000000;stroke-width:2;stroke-miterlimit:10;" x1="3" y1="3" x2="29" y2="29"/>
<g>
	<polygon points="16,20.174 15.826,20 15,20 15,19.174 13,17.174 13,20 12,20 12,22 16,22 	"/>
	<path d="M10.563,11.909C11.58,11.333,12.751,11,14,11c3.86,0,7,3.141,7,7c0,1.249-0.333,2.42-0.909,3.437l1.454,1.454
		C22.462,21.481,23,19.803,23,18c0-4.963-4.038-9-9-9c-1.803,0-3.481,0.538-4.891,1.455L10.563,11.909z"/>
	<path d="M18.856,23.03C17.596,24.247,15.886,25,14,25c-3.86,0-7-3.141-7-7c0-1.886,0.753-3.596,1.97-4.856L7.556,11.73
		C5.977,13.352,5,15.563,5,18c0,4.963,4.038,9,9,9c2.437,0,4.648-0.977,6.27-2.556L18.856,23.03z"/>
	<polygon points="13,14 13,14.346 15,16.346 15,14 	"/>
</g>
<path style="fill:none;stroke:#000000;stroke-width:2;stroke-miterlimit:10;" d="M21.873,19.378C24.305,18.281,26,15.841,26,13
	c0-3.866-3.134-7-7-7c-2.841,0-5.281,1.695-6.378,4.127"/>
</svg>
