<?xml version="1.0" encoding="iso-8859-1"?>
<!-- Generator: Adobe Illustrator 19.1.0, SVG Export Plug-In . SVG Version: 6.00 Build 0)  -->
<svg version="1.1" id="Layer_1" xmlns="http://www.w3.org/2000/svg" xmlns:xlink="http://www.w3.org/1999/xlink" x="0px" y="0px"
	 viewBox="0 0 32 32" style="enable-background:new 0 0 32 32;" xml:space="preserve">
<line style="fill:none;stroke:#000000;stroke-width:2;stroke-miterlimit:10;" x1="3" y1="3" x2="29" y2="29"/>
<g>
	<path d="M17.689,19.061c1.236-1.633,2.229-2.955,2.503-3.322l-1.6-1.199c-0.709,0.945-1.509,2.007-2.331,3.093L17.689,19.061z"/>
	<path d="M15.042,19.242c-2.521,3.315-4.959,6.471-5.461,6.972c-1.047,1.046-2.749,1.047-3.795,0c-1.046-1.046-1.046-2.749,0-3.795
		c0.501-0.501,3.657-2.94,6.973-5.461l-1.427-1.427c-3.002,2.283-6.347,4.861-6.96,5.474c-1.826,1.826-1.826,4.797,0,6.623
		c0.913,0.913,2.112,1.37,3.312,1.37c1.199-0.001,2.398-0.457,3.312-1.37c0.613-0.612,3.191-3.957,5.474-6.959L15.042,19.242z"/>
	<path d="M14.367,15.739c1.087-0.822,2.149-1.622,3.094-2.331l-1.2-1.6c-0.366,0.275-1.688,1.268-3.321,2.504L14.367,15.739z"/>
	<rect x="7.043" y="19.94" transform="matrix(-0.7071 0.7071 -0.7071 -0.7071 33.6873 27.9265)" width="8.033" height="2"/>
</g>
<path style="fill:none;stroke:#000000;stroke-width:2;stroke-miterlimit:10;" d="M27.31,11.5C27.73,11.133,28,10.601,28,10
	c0-0.873-0.563-1.608-1.343-1.88C26.874,7.8,27,7.415,27,7c0-1.105-0.895-2-2-2c-0.415,0-0.8,0.126-1.12,0.343
	C23.608,4.563,22.873,4,22,4c-0.601,0-1.133,0.27-1.5,0.69C20.133,4.27,19.601,4,19,4c-1.105,0-2,0.895-2,2c-1.105,0-2,0.895-2,2
	c0,0.873,0.563,1.608,1.343,1.88C16.126,10.2,16,10.585,16,11c0,1.105,0.895,2,2,2c0.09,0,0.176-0.015,0.263-0.027
	c0.18,0.32,0.443,0.583,0.764,0.764C19.015,13.824,19,13.91,19,14c0,1.105,0.895,2,2,2c0.415,0,0.8-0.126,1.12-0.343
	C22.392,16.437,23.127,17,24,17c1.105,0,2-0.895,2-2c1.105,0,2-0.895,2-2C28,12.399,27.73,11.867,27.31,11.5z"/>
</svg>
