<?xml version="1.0" encoding="iso-8859-1"?>
<!-- Generator: Adobe Illustrator 19.1.0, SVG Export Plug-In . SVG Version: 6.00 Build 0)  -->
<svg version="1.1" id="Layer_1" xmlns="http://www.w3.org/2000/svg" xmlns:xlink="http://www.w3.org/1999/xlink" x="0px" y="0px"
	 viewBox="0 0 32 32" style="enable-background:new 0 0 32 32;" xml:space="preserve">
<polygon points="17,8 15,8 15,5 17,3 "/>
<line style="fill:none;stroke:#000000;stroke-width:2;stroke-miterlimit:10;" x1="3" y1="3" x2="29" y2="29"/>
<g>
	<path d="M11.081,12.453c0.125-0.169,0.248-0.325,0.358-0.453h9.121C21.12,12.653,22,13.91,22,15c0,0.974-0.557,4.26-1.11,7.262
		l1.716,1.716C23.203,20.819,24,16.354,24,15c0-1.925-1.373-3.684-2-4.389V10c0-1.654-1.346-3-3-3h-6c-1.654,0-3,1.346-3,3v0.611
		c-0.099,0.111-0.219,0.256-0.346,0.415L11.081,12.453z M13,9h6c0.552,0,1,0.448,1,1h-8C12,9.448,12.448,9,13,9z"/>
	<path d="M20.442,24.642c-0.095,0.493-0.184,0.952-0.263,1.358h-8.357C11.195,22.812,10,16.426,10,15
		c0-0.225,0.044-0.458,0.109-0.691l-1.548-1.548C8.24,13.439,8,14.202,8,15c0,2.04,1.812,11.163,2.02,12.196L10.181,28h11.639
		l0.161-0.804c0.028-0.141,0.089-0.444,0.168-0.848L20.442,24.642z"/>
</g>
</svg>
