<?xml version="1.0" encoding="iso-8859-1"?>
<!-- Generator: Adobe Illustrator 19.1.0, SVG Export Plug-In . SVG Version: 6.00 Build 0)  -->
<svg version="1.1" id="Layer_1" xmlns="http://www.w3.org/2000/svg" xmlns:xlink="http://www.w3.org/1999/xlink" x="0px" y="0px"
	 viewBox="0 0 32 32" style="enable-background:new 0 0 32 32;" xml:space="preserve">
<path d="M21,8c4.484,0.73,7.775,4.893,4.98,9.786L21,8z"/>
<path d="M6.02,17.786C3.225,12.893,6.516,8.73,11,8L6.02,17.786z"/>
<path style="fill:none;stroke:#000000;stroke-width:2;stroke-linecap:round;stroke-miterlimit:10;" d="M24,16v-2
	c0-4.418-3.582-8-8-8s-8,3.582-8,8v2c-1.105,0-2,0.895-2,2c0,1.105,0.895,2,2,2v1c0,2.761,2.239,5,5,5h1.277
	c0.346,0.595,0.984,1,1.723,1s1.376-0.405,1.723-1H19c2.761,0,5-2.239,5-5v-1c1.105,0,2-0.895,2-2C26,16.895,25.105,16,24,16z"/>
<path style="fill:none;stroke:#000000;stroke-width:2;stroke-linecap:round;stroke-miterlimit:10;" d="M20,20h-2
	c-0.552,0-1-0.448-1-1v-2c0-0.552,0.448-1,1-1h2c0.552,0,1,0.448,1,1v2C21,19.552,20.552,20,20,20z"/>
<path style="fill:none;stroke:#000000;stroke-width:2;stroke-linecap:round;stroke-miterlimit:10;" d="M14,20h-2
	c-0.552,0-1-0.448-1-1v-2c0-0.552,0.448-1,1-1h2c0.552,0,1,0.448,1,1v2C15,19.552,14.552,20,14,20z"/>
</svg>
