<?xml version="1.0" encoding="UTF-8" standalone="no"?><!DOCTYPE svg PUBLIC "-//W3C//DTD SVG 1.1//EN" "http://www.w3.org/Graphics/SVG/1.1/DTD/svg11.dtd"><svg width="100%" height="100%" viewBox="0 0 32 32" version="1.1" xmlns="http://www.w3.org/2000/svg" xmlns:xlink="http://www.w3.org/1999/xlink" xml:space="preserve" style="fill-rule:evenodd;clip-rule:evenodd;stroke-linejoin:round;stroke-miterlimit:1.41421;"><path d="M26,7l-0.3,-0.3c-1.7,-1.9 -4.2,-2.5 -4.2,-2.5c-3,-0.9 -7.7,1.1 -11.9,5.2c-3.5,3.3 -5.6,7.3 -5.6,10.3c0,0.4 0.1,0.8 0.1,1.2c0.2,2 1.5,4.1 2.6,5.1c1.4,1.4 3.2,2.1 5.2,2.1c3.3,0 7.2,-1.9 10.8,-5.3c5.6,-5.5 7,-12 3.3,-15.8Zm-16,14.7c0,-1.3 1.4,-4 4.4,-7c2.9,-2.9 5.9,-3.7 7.3,-4c-0.7,1.9 -2.2,4.2 -4.4,6.4c-2.1,2 -4.5,3.6 -6.6,4.4c-0.2,0.1 -0.5,0.1 -0.7,0.2Zm1,-10.9c3.3,-3.3 6.8,-4.9 9,-4.9c0.7,0 1.3,0.2 1.7,0.6c0.4,0.4 0.6,1.2 0.5,2.1c-1.2,0.1 -5.3,0.8 -9.2,4.7c-2.5,2.5 -5.1,6.1 -4.9,8.6c-0.6,0 -1.2,-0.2 -1.5,-0.5c-0.2,-0.2 -0.4,-0.5 -0.5,-0.9c0,0 -0.1,-0.5 -0.1,-0.8c0.1,-2.5 2,-6 5,-8.9Zm10.3,10.5c-4.8,4.8 -10.3,6.1 -13.2,3.3c-0.2,-0.2 -0.4,-0.4 -0.6,-0.7c0.2,0.1 0.5,0.1 0.8,0.1c0.9,0 2,-0.2 3.1,-0.6c2.4,-0.9 5,-2.6 7.3,-4.9c3.5,-3.5 5.5,-7.5 5.5,-10.4l0.1,0.1l0.3,0.2c2.8,2.9 1.4,8.3 -3.3,12.9Z" style="fill-rule:nonzero;"/></svg>