<?xml version="1.0" encoding="iso-8859-1"?>
<!-- Generator: Adobe Illustrator 19.2.0, SVG Export Plug-In . SVG Version: 6.00 Build 0)  -->
<svg version="1.1" id="Layer_1" xmlns="http://www.w3.org/2000/svg" xmlns:xlink="http://www.w3.org/1999/xlink" x="0px" y="0px"
	 viewBox="0 0 32 32" style="enable-background:new 0 0 32 32;" xml:space="preserve">
<g>
	<path d="M17,27h-2c0-1.103-0.897-2-2-2H3V6h10c1.193,0,2.267,0.525,3,1.357C16.733,6.525,17.807,6,19,6h10v19H19
		C17.897,25,17,25.897,17,27z M5,23h8c1.193,0,2.267,0.525,3,1.357C16.733,23.525,17.807,23,19,23h8V8h-8c-1.103,0-2,0.897-2,2h-2
		c0-1.103-0.897-2-2-2H5V23z"/>
</g>
<rect x="15" y="12" width="2" height="2"/>
<rect x="15" y="16" width="2" height="2"/>
<rect x="15" y="20" width="2" height="2"/>
</svg>
