<?xml version="1.0" encoding="utf-8"?>
<!-- Generator: Adobe Illustrator 18.1.1, SVG Export Plug-In . SVG Version: 6.00 Build 0)  -->
<svg version="1.1" id="Layer_1" xmlns="http://www.w3.org/2000/svg" xmlns:xlink="http://www.w3.org/1999/xlink" x="0px" y="0px"
	 viewBox="0 0 32 32" enable-background="new 0 0 32 32" xml:space="preserve">
<circle fill="none" stroke="#000000" stroke-width="2" stroke-miterlimit="10" cx="8" cy="19" r="5"/>
<circle fill="none" stroke="#000000" stroke-width="2" stroke-miterlimit="10" cx="22" cy="19" r="5"/>
<circle fill="none" stroke="#000000" stroke-width="2" stroke-miterlimit="10" cx="15" cy="18" r="2"/>
<path fill="none" stroke="#000000" stroke-width="2" stroke-miterlimit="10" d="M26.7,17.4l-2.3-8.2C24,7.9,22.9,7,21.5,7H21
	c0-1.1-0.9-2-2-2s-2,0.9-2,2h-4c0-1.1-0.9-2-2-2S9,5.9,9,7H8.5C7.1,7,6,7.9,5.6,9.2l-2.3,8.2"/>
<line fill="none" stroke="#000000" stroke-width="2" stroke-miterlimit="10" x1="29" y1="19" x2="29" y2="28"/>
<circle cx="28" cy="19" r="2"/>
<circle cx="29" cy="28" r="2"/>
</svg>
