<?xml version="1.0" encoding="iso-8859-1"?>
<!-- Generator: Adobe Illustrator 19.1.0, SVG Export Plug-In . SVG Version: 6.00 Build 0)  -->
<svg version="1.1" id="Layer_1" xmlns="http://www.w3.org/2000/svg" xmlns:xlink="http://www.w3.org/1999/xlink" x="0px" y="0px"
	 viewBox="0 0 32 32" style="enable-background:new 0 0 32 32;" xml:space="preserve">
<path style="fill:none;stroke:#000000;stroke-width:2;stroke-miterlimit:10;" d="M9,9v2.101c0,1.857-0.737,3.637-2.05,4.95L6,17v6
	c0,0,3.429,3,10,3s10-3,10-3v-6l-0.95-0.95c-1.313-1.313-2.05-3.093-2.05-4.95V9"/>
<ellipse style="fill:none;stroke:#000000;stroke-width:2;stroke-miterlimit:10;" cx="16" cy="9" rx="7" ry="3"/>
<circle cx="18" cy="9" r="1"/>
<circle cx="14" cy="9" r="1"/>
<path style="fill:none;stroke:#000000;stroke-width:2;stroke-miterlimit:10;" d="M14,23v-7h3c0.552,0,1,0.448,1,1v2
	c0,0.552-0.448,1-1,1h-3"/>
</svg>
