<?xml version="1.0" encoding="iso-8859-1"?>
<!-- Generator: Adobe Illustrator 22.0.1, SVG Export Plug-In . SVG Version: 6.00 Build 0)  -->
<svg version="1.1" id="&#x421;&#x43B;&#x43E;&#x439;_1"
	 xmlns="http://www.w3.org/2000/svg" xmlns:xlink="http://www.w3.org/1999/xlink" x="0px" y="0px" viewBox="0 0 32 32"
	 style="enable-background:new 0 0 32 32;" xml:space="preserve">
<g>
	<path d="M24,15c0.551,0,1,0.449,1,1c0,0.551-0.449,1-1,1c-0.551,0-1-0.449-1-1C23,15.449,23.449,15,24,15L24,15z"/>
	<path style="fill:none;stroke:#000000;stroke-width:2;stroke-miterlimit:10;" d="M27,11v10c0,1.105-0.895,2-2,2H7
		c-1.105,0-2-0.895-2-2V11c0-1.105,0.895-2,2-2h18C26.105,9,27,9.895,27,11z"/>
	<polyline style="fill:none;stroke:#000000;stroke-width:2;stroke-miterlimit:10;" points="8,17 10,15 14,19 19,14 21,16 	"/>
</g>
</svg>
