<?xml version="1.0" encoding="iso-8859-1"?>
<!-- Generator: Adobe Illustrator 22.0.1, SVG Export Plug-In . SVG Version: 6.00 Build 0)  -->
<svg version="1.1" id="&#x421;&#x43B;&#x43E;&#x439;_1"
	 xmlns="http://www.w3.org/2000/svg" xmlns:xlink="http://www.w3.org/1999/xlink" x="0px" y="0px" viewBox="0 0 32 32"
	 style="enable-background:new 0 0 32 32;" xml:space="preserve">
<g>
	<path style="fill:none;stroke:#000000;stroke-width:2;stroke-miterlimit:10;" d="M14,24h4"/>
	<path d="M10,4h12c1.102,0,2,0.898,2,2v2h-2V6H10v20h12v-2h2v2c0,1.102-0.898,2-2,2H10c-1.102,0-2-0.898-2-2V6C8,4.898,8.898,4,10,4
		z"/>
</g>
<path style="fill:none;stroke:#000000;stroke-width:2;stroke-miterlimit:10;" d="M26.953,16.02c0,2.207-1.789,4-4,4
	c-2.207,0-4-1.793-4-4c0-2.211,1.793-4,4-4C25.164,12.02,26.953,13.809,26.953,16.02L26.953,16.02z"/>
<line style="fill:none;stroke:#000000;stroke-width:2;stroke-miterlimit:10;" x1="17.008" y1="18.441" x2="18.957" y2="17.648"/>
<line style="fill:none;stroke:#000000;stroke-width:2;stroke-miterlimit:10;" x1="26.949" y1="14.391" x2="28.996" y2="13.559"/>
<line style="fill:none;stroke:#000000;stroke-width:2;stroke-miterlimit:10;" x1="20.559" y1="10.004" x2="21.375" y2="12.004"/>
<line style="fill:none;stroke:#000000;stroke-width:2;stroke-miterlimit:10;" x1="24.633" y1="19.996" x2="25.445" y2="21.996"/>
<line style="fill:none;stroke:#000000;stroke-width:2;stroke-miterlimit:10;" x1="20.395" y1="22.004" x2="21.23" y2="20.016"/>
<line style="fill:none;stroke:#000000;stroke-width:2;stroke-miterlimit:10;" x1="24.578" y1="12.062" x2="25.418" y2="10.074"/>
<line style="fill:none;stroke:#000000;stroke-width:2;stroke-miterlimit:10;" x1="16.938" y1="13.527" x2="19.094" y2="14.434"/>
<line style="fill:none;stroke:#000000;stroke-width:2;stroke-miterlimit:10;" x1="26.715" y1="17.645" x2="28.871" y2="18.551"/>
</svg>
