<?xml version="1.0" encoding="iso-8859-1"?>
<!-- Generator: Adobe Illustrator 19.2.0, SVG Export Plug-In . SVG Version: 6.00 Build 0)  -->
<svg version="1.1" id="Layer_1" xmlns="http://www.w3.org/2000/svg" xmlns:xlink="http://www.w3.org/1999/xlink" x="0px" y="0px"
	 viewBox="0 0 32 32" style="enable-background:new 0 0 32 32;" xml:space="preserve">
<line style="fill:none;stroke:#000000;stroke-width:2;stroke-miterlimit:10;" x1="14" y1="5" x2="14" y2="7"/>
<path style="fill:none;stroke:#000000;stroke-width:2;stroke-miterlimit:10;" d="M14,11c0,0,0,1.346,0,1.928c0,1.143-1,2.42-1,2.42"
	/>
<path style="fill:none;stroke:#000000;stroke-width:2;stroke-miterlimit:10;" d="M10,7c0-1.126,0.703-2,2.004-2
	C20.296,5,24,9.322,24,11c0,3.343-4.841,7-9,7s-7-2.292-7-5.75C8,10.625,9.125,9,11,9c1.458,0,5.281,0,5.281,0l1,2H19"/>
<path style="fill:none;stroke:#000000;stroke-width:2;stroke-miterlimit:10;" d="M19,9c0,0.303,0.5,0.941,0.5,2
	c0,0.981-0.5,2.305-0.5,3"/>
<path style="fill:none;stroke:#000000;stroke-width:2;stroke-miterlimit:10;" d="M11,9c-3.089,0-6,2.59-6,7.946
	C5,24.25,7,27.066,7,28"/>
<path style="fill:none;stroke:#000000;stroke-width:2;stroke-miterlimit:10;" d="M23,14c0,0,0.081,7,5,7"/>
<path style="fill:none;stroke:#000000;stroke-width:2;stroke-miterlimit:10;" d="M7,28c0-3.875,1.491-7,6-7"/>
<circle cx="13" cy="21" r="1"/>
<circle cx="16" cy="22" r="1"/>
<circle cx="18" cy="24" r="1"/>
<circle cx="20" cy="26" r="1"/>
<circle cx="23" cy="27" r="1"/>
<circle cx="26" cy="26" r="1"/>
<circle cx="27" cy="23" r="1"/>
</svg>
