<?xml version="1.0" encoding="iso-8859-1"?>
<!-- Generator: Adobe Illustrator 19.1.0, SVG Export Plug-In . SVG Version: 6.00 Build 0)  -->
<svg version="1.1" id="Layer_1" xmlns="http://www.w3.org/2000/svg" xmlns:xlink="http://www.w3.org/1999/xlink" x="0px" y="0px"
	 viewBox="0 0 32 32" style="enable-background:new 0 0 32 32;" xml:space="preserve">
<polygon style="fill:none;stroke:#000000;stroke-width:2;stroke-miterlimit:10;" points="28,26 4,26 4,11 16,6 28,11 "/>
<path d="M20.79,12.443l-0.932-0.976C19.105,12.221,16.798,11.798,16,11c-0.798,0.798-3.105,1.221-3.859,0.467l-0.932,0.976
	c0,0,0.577,1.02,0.577,1.907c0,1.464-0.577,1.996-0.577,3.903c0,3.504,4.081,4.214,4.79,4.746c0.754-0.532,4.79-1.242,4.79-4.746
	c0-1.907-0.577-2.395-0.577-3.903C20.214,13.463,20.79,12.443,20.79,12.443z M18.002,19.659L16,18.448l-2.002,1.159l0.474-2.266
	l-1.739-1.528l2.319-0.211L16,13.494l0.948,2.108l2.319,0.211l-1.739,1.528L18.002,19.659z"/>
</svg>
