<?xml version="1.0" encoding="utf-8"?>
<!-- Generator: Adobe Illustrator 18.1.1, SVG Export Plug-In . SVG Version: 6.00 Build 0)  -->
<svg version="1.1" id="Layer_1" xmlns="http://www.w3.org/2000/svg" xmlns:xlink="http://www.w3.org/1999/xlink" x="0px" y="0px"
	 viewBox="0 0 32 32" enable-background="new 0 0 32 32" xml:space="preserve">
<path d="M16.6,17.4c0,0,0.7,1.6,2.4,1.6c2.2,0,3-4,3-4S20.2,17.4,16.6,17.4z"/>
<path fill="none" stroke="#000000" stroke-width="2" stroke-linejoin="round" stroke-miterlimit="10" d="M31,23
	c0-13.3-9.1-16-9.1-16"/>
<path fill="none" stroke="#000000" stroke-width="2" stroke-linejoin="round" stroke-miterlimit="10" d="M28,25
	c0-9.5-4.2-13.6-4.2-13.6"/>
<path fill="none" stroke="#000000" stroke-width="2" stroke-linejoin="round" stroke-miterlimit="10" d="M4,25
	c0-9.5,4.2-13.6,4.2-13.6"/>
<ellipse fill="none" stroke="#000000" stroke-width="2" stroke-linejoin="round" stroke-miterlimit="10" cx="16" cy="9" rx="5" ry="4"/>
<path fill="none" stroke="#000000" stroke-width="2" stroke-linejoin="round" stroke-miterlimit="10" d="M24,11c-0.3,3.7-3.9,6-8,6
	c-4.4,0-8-2.7-8-6s3.6-6,8-6S24.3,7.7,24,11z"/>
<polygon fill="none" stroke="#000000" stroke-width="2" stroke-miterlimit="10" points="18,23 16.5,21 15.5,21 14,23 14,27 18,27 
	"/>
<path fill="none" stroke="#000000" stroke-width="2" stroke-miterlimit="10" d="M18,25l4.3-1.4c1.2-0.4,1.8-1.5,1.6-2.7l-1.4-6.5"/>
<path d="M15.4,17.4c0,0-0.7,1.6-2.4,1.6c-2.2,0-3-4-3-4S11.8,17.4,15.4,17.4z"/>
<path fill="none" stroke="#000000" stroke-width="2" stroke-linejoin="round" stroke-miterlimit="10" d="M1,23C1,9.7,10.1,7,10.1,7"
	/>
<path fill="none" stroke="#000000" stroke-width="2" stroke-miterlimit="10" d="M14,25l-4.3-1.4c-1.2-0.4-1.8-1.5-1.6-2.7l1.4-6.5"
	/>
</svg>
