<?xml version="1.0" encoding="iso-8859-1"?>
<!-- Generator: Adobe Illustrator 19.0.1, SVG Export Plug-In . SVG Version: 6.00 Build 0)  -->
<svg version="1.1" id="Layer_1" xmlns="http://www.w3.org/2000/svg" xmlns:xlink="http://www.w3.org/1999/xlink" x="0px" y="0px"
	 viewBox="0 0 32 32" style="enable-background:new 0 0 32 32;" xml:space="preserve">
<polygon id="XMLID_188_" points="3,9 3,11 9.5,11 11.5,9 "/>
<polygon id="XMLID_189_" points="29,9 29,11 22.5,11 20.5,9 "/>
<circle id="XMLID_244_" style="fill:none;stroke:#000000;stroke-width:2;stroke-miterlimit:10;" cx="16" cy="5.98" r="1.98"/>
<path id="XMLID_250_" style="fill:none;stroke:#000000;stroke-width:2;stroke-miterlimit:10;" d="M8.01,9.944l1.746,3.817
	c0.115,0.252,0.451,0.305,0.638,0.1L13,11h6l2.609,2.864c0.186,0.204,0.52,0.153,0.636-0.097L24,10"/>
<path id="XMLID_251_" style="fill:none;stroke:#000000;stroke-width:2;stroke-miterlimit:10;" d="M14,11v8l-0.895,4.475
	c-0.066,0.328,0.037,0.667,0.273,0.903L17,28"/>
<path id="XMLID_252_" style="fill:none;stroke:#000000;stroke-width:2;stroke-miterlimit:10;" d="M18,11v8l0.863,3.451
	c0.085,0.341-0.015,0.701-0.263,0.95l-1.472,1.472"/>
<line id="XMLID_186_" style="fill:none;stroke:#000000;stroke-width:2;stroke-miterlimit:10;" x1="14" y1="19" x2="18" y2="19"/>
</svg>
