<?xml version="1.0" encoding="iso-8859-1"?>
<!-- Generator: Adobe Illustrator 19.1.1, SVG Export Plug-In . SVG Version: 6.00 Build 0)  -->
<svg version="1.1" id="Layer_1" xmlns="http://www.w3.org/2000/svg" xmlns:xlink="http://www.w3.org/1999/xlink" x="0px" y="0px"
	 viewBox="0 0 32 32" style="enable-background:new 0 0 32 32;" xml:space="preserve">
<path style="fill:none;stroke:#000000;stroke-width:2;stroke-linecap:round;stroke-miterlimit:10;" d="M16,9.937V10
	C8.099,8.193,4,12.183,4,17.403C4,25.017,8.486,28,16,28s12-2.983,12-10.597C28,12.183,23.901,8.13,16,9.937z"/>
<path style="fill:none;stroke:#000000;stroke-width:2;stroke-linecap:round;stroke-miterlimit:10;" d="M16,28c3.451,0,8-2.335,8-10
	c0-8.154-4.922-8.258-8-8.063"/>
<path style="fill:none;stroke:#000000;stroke-width:2;stroke-linecap:round;stroke-miterlimit:10;" d="M16,28
	c2.406,0.013,3-5.125,3-9c0-3.584-0.246-8.5-3-9.063"/>
<path style="fill:none;stroke:#000000;stroke-width:2;stroke-linecap:round;stroke-miterlimit:10;" d="M16,28c-3.451,0-8-2.335-8-10
	c0-8.154,4.922-8.258,8-8.063"/>
<path style="fill:none;stroke:#000000;stroke-width:2;stroke-linecap:round;stroke-miterlimit:10;" d="M16,28
	c-2.406,0.013-3-5.125-3-9c0-3.584,0.246-8.5,3-9.063"/>
<path style="fill:none;stroke:#000000;stroke-width:2;stroke-miterlimit:10;" d="M19,4c-5.125,0-3,6-3,6"/>
</svg>
