<?xml version="1.0" encoding="iso-8859-1"?>
<!-- Generator: Adobe Illustrator 19.1.1, SVG Export Plug-In . SVG Version: 6.00 Build 0)  -->
<svg version="1.1" id="Layer_1" xmlns="http://www.w3.org/2000/svg" xmlns:xlink="http://www.w3.org/1999/xlink" x="0px" y="0px"
	 viewBox="0 0 32 32" style="enable-background:new 0 0 32 32;" xml:space="preserve">
<path style="fill:none;stroke:#000000;stroke-width:2;stroke-miterlimit:10;" d="M16,27c-8.058,0-13-3.429-13-5.714
	c0-4.241,5-5.255,5-9.083v-0.059C8,11.511,8.347,11,9,11c0,0,7,0,7,0h7c0.653,0,1,0.511,1,1.143v0.059c0,3.829,5,4.842,5,9.083
	C29,23.571,24.058,27,16,27z"/>
<circle cx="14.5" cy="5.5" r="1.5"/>
<circle cx="17.5" cy="5.5" r="1.5"/>
<path style="fill:none;stroke:#000000;stroke-width:2;stroke-miterlimit:10;" d="M6,16l-0.045-5.143C5.955,9.279,7.278,8,8.909,8H23
	c1.632,0,2.955,1.279,2.955,2.857L26,16"/>
<path style="fill:none;stroke:#000000;stroke-width:2;stroke-miterlimit:10;" d="M16,27c-3.314,0-6-2.239-6-5s3-4.002,3-7"/>
<path style="fill:none;stroke:#000000;stroke-width:2;stroke-miterlimit:10;" d="M16,27c3.314,0,6-2.239,6-5s-3-4.002-3-7"/>
</svg>
