<?xml version="1.0" encoding="iso-8859-1"?>
<!-- Generator: Adobe Illustrator 19.2.0, SVG Export Plug-In . SVG Version: 6.00 Build 0)  -->
<svg version="1.1" xmlns="http://www.w3.org/2000/svg" xmlns:xlink="http://www.w3.org/1999/xlink" x="0px" y="0px"
	 viewBox="0 0 32 32" style="enable-background:new 0 0 32 32;" xml:space="preserve">
<g >
	<g>
		<path d="M10.647,9c1.58-0.898,3.404-1.418,5.353-1.418S19.774,8.103,21.353,9C21.725,8.688,22,8.268,22,7.703
			c0-1.377-1.236-2.327-3.113-2.471C18.231,4.501,17.186,4.02,16,4.02s-2.231,0.481-2.887,1.212C11.236,5.376,10,6.326,10,7.703
			C10,8.268,10.275,8.686,10.647,9z"/>
	</g>
	<rect x="15" y="3" width="2" height="2"/>
	<path d="M16,10.5c4.687,0,8.5,3.813,8.5,8.5s-3.813,8.5-8.5,8.5S7.5,23.687,7.5,19S11.313,10.5,16,10.5 M16,9
		C10.477,9,6,13.477,6,19c0,5.523,4.477,10,10,10s10-4.477,10-10C26,13.477,21.523,9,16,9L16,9z"/>
	<path d="M18.187,20.187C17.762,20.965,16.947,21.5,16,21.5c-1.378,0-2.5-1.122-2.5-2.5c0-1.379,1.122-2.5,2.5-2.5
		c0.947,0,1.762,0.535,2.187,1.313l1.094-1.094C18.558,15.682,17.36,15,16,15c-2.209,0-4,1.791-4,4c0,2.209,1.791,4,4,4
		c1.36,0,2.558-0.682,3.281-1.719L18.187,20.187z"/>
	<rect x="15" y="18" width="2" height="1"/>
	<rect x="15" y="18" width="1" height="6"/>
	<rect x="15" y="20" width="2" height="1"/>
	<path d="M11.649,22.351C10.932,21.422,10.5,20.262,10.5,19c0-1.664,0.729-3.194,1.983-4.231C13.266,15.172,16,16.5,16,16.5
		s2.422-1.203,3.511-1.736C20.769,15.801,21.5,17.333,21.5,19c0,1.262-0.432,2.422-1.149,3.351l1.072,1.072
		C22.408,22.218,23,20.678,23,19c0-2.548-1.362-4.779-3.397-6.003c-0.082,0.045-3.605,1.809-3.605,1.809S12.417,13.021,12.393,13
		C10.36,14.225,9,16.453,9,19c0,1.678,0.592,3.218,1.577,4.423L11.649,22.351z"/>
</g>
<g >
</g>
</svg>
