<?xml version="1.0" encoding="utf-8"?>
<!-- Generator: Adobe Illustrator 18.1.1, SVG Export Plug-In . SVG Version: 6.00 Build 0)  -->
<svg version="1.1" id="Layer_1" xmlns="http://www.w3.org/2000/svg" xmlns:xlink="http://www.w3.org/1999/xlink" x="0px" y="0px"
	 viewBox="0 0 32 32" enable-background="new 0 0 32 32" xml:space="preserve">
<circle fill="none" stroke="#000000" stroke-width="2" stroke-miterlimit="10" cx="24" cy="9" r="3"/>
<g>
	<path d="M16.6,7c1.3,0,2.6,0.9,3,2.2l2,6.8H19l-1.1-4.3l-6.6,2.8L13,24.6V25h-2.5l-1.4-8.2L8.5,25H6v-0.4L7,13
		c0.1-1.7,1-2.7,2.3-3.3c0.6-0.3,3.7-1.5,6.1-2.5C15.8,7.1,16.2,7,16.6,7 M16.6,5c-0.6,0-1.3,0.1-1.9,0.4C11.1,6.8,9,7.6,8.5,7.9
		c-2.1,1-3.3,2.7-3.5,4.9L4,24.5l0,0.1v0.1V25v2h2h2.5h1.9h0.1H13h2v-2v-0.4v-0.2l0-0.2l-1.5-8.6l3-1.3l0.5,2.1l0.4,1.5H19h2.5h2.7
		l-0.7-2.6l-2-6.8C20.8,6.5,18.8,5,16.6,5L16.6,5z"/>
</g>
<path fill="none" stroke="#000000" stroke-width="2" stroke-miterlimit="10" d="M18,17v7c0,1.1,0.9,2,2,2h4c1.1,0,2-0.9,2-2v-7H18z"
	/>
</svg>
