<?xml version="1.0" encoding="iso-8859-1"?>
<!-- Generator: Adobe Illustrator 19.1.1, SVG Export Plug-In . SVG Version: 6.00 Build 0)  -->
<svg version="1.1"  xmlns="http://www.w3.org/2000/svg" xmlns:xlink="http://www.w3.org/1999/xlink" x="0px" y="0px"
	 viewBox="0 0 32 32" style="enable-background:new 0 0 32 32;" xml:space="preserve">
<path style="fill:none;stroke:#000000;stroke-width:2;stroke-miterlimit:10;" d="M8,26h16c1.105,0,2-0.895,2-2V8
	c0-1.105-0.895-2-2-2H8C6.895,6,6,6.895,6,8v16C6,25.105,6.895,26,8,26z"/>
<polygon points="16,17.614 18.381,17.614 19.948,15 20.384,17.614 23,17.614 20.62,19.297 21.02,21.941 18.958,20.359 16.189,22 
	17.461,19.203 "/>
<path d="M15.431,10c-1.867,0-3.776,0-3.776,0L10,18h1.897l0.582-3c0,0,0.473,0,1.536,0s1.218,0.707,1.03,2.226
	C14.982,17.739,15.104,18,15.104,18h2.076c-0.119-0.206-0.31-0.714-0.18-2c0.123-1.215-0.354-1.75-0.354-1.75
	s1.232-0.415,1.354-2.083C18.134,10.351,17.057,10,15.431,10z M14.772,13.724c-0.675,0-1.987-0.025-1.987,0l0.499-2.264
	c0,0,1.783,0,1.961,0c0.59,0,1.104,0.322,0.943,1.108C16.029,13.341,15.37,13.724,14.772,13.724z"/>
</svg>
