<?xml version="1.0" encoding="iso-8859-1"?>
<!-- Generator: Adobe Illustrator 19.1.1, SVG Export Plug-In . SVG Version: 6.00 Build 0)  -->
<svg version="1.1" id="Layer_1" xmlns="http://www.w3.org/2000/svg" xmlns:xlink="http://www.w3.org/1999/xlink" x="0px" y="0px"
	 viewBox="-8 10 32 32" style="enable-background:new -8 10 32 32;" xml:space="preserve">
<g>
	<path d="M0.293,27.707L2.586,30l-5.074,5.074C-2.653,35.031-2.822,35-3,35c-1.105,0-2,0.895-2,2s0.895,2,2,2s2-0.895,2-2
		c0-0.178-0.031-0.347-0.074-0.512L4,31.414l2.293,2.293l1.414-1.414l-6-6L0.293,27.707z"/>
	<path d="M20.61,13.239C16.906,15.534,6.469,25.424,4.311,27.483l2.206,2.206c2.058-2.158,11.95-12.602,14.242-16.301L21,13
		L20.61,13.239z"/>
</g>
</svg>
