<?xml version="1.0" encoding="iso-8859-1"?>
<!-- Generator: Adobe Illustrator 19.2.0, SVG Export Plug-In . SVG Version: 6.00 Build 0)  -->
<svg version="1.1" id="Layer_1" xmlns="http://www.w3.org/2000/svg" xmlns:xlink="http://www.w3.org/1999/xlink" x="0px" y="0px"
	 viewBox="0 0 32 32" style="enable-background:new 0 0 32 32;" xml:space="preserve">
<g>
	<path d="M10.003,28c-1.385,0-2.652-0.698-3.388-1.869C6.347,25.706,4,21.795,4,15.529c0-5.25,2.327-9.193,2.593-9.625
		c0.561-0.911,1.441-1.548,2.48-1.796c1.038-0.249,2.114-0.076,3.023,0.484c1.867,1.15,2.46,3.61,1.322,5.484
		C13.409,10.093,12,12.519,12,15.529c0,3.913,1.384,6.337,1.398,6.361c0.556,0.883,0.739,1.954,0.502,2.996
		c-0.237,1.043-0.865,1.931-1.769,2.499C11.492,27.787,10.756,28,10.003,28z M10.004,5.998c-0.155,0-0.312,0.019-0.467,0.055
		c-0.52,0.124-0.96,0.443-1.24,0.897C8.062,7.333,6,10.827,6,15.529c0,5.706,2.071,9.162,2.307,9.538
		c0.568,0.9,1.849,1.197,2.76,0.626c0.451-0.284,0.766-0.728,0.884-1.249s0.027-1.058-0.258-1.509
		C11.688,22.927,10,20.085,10,15.529c0-3.608,1.69-6.459,1.707-6.487c0.571-0.94,0.274-2.171-0.66-2.746
		C10.729,6.099,10.369,5.998,10.004,5.998z"/>
</g>
<g>
	<path d="M23.003,28c-1.385,0-2.651-0.698-3.388-1.868C19.347,25.706,17,21.795,17,15.529c0-5.25,2.328-9.193,2.593-9.625
		c0.561-0.911,1.441-1.548,2.48-1.796c1.042-0.25,2.113-0.076,3.023,0.484c1.866,1.151,2.46,3.61,1.322,5.484
		C26.409,10.093,25,12.519,25,15.529c0,3.909,1.386,6.338,1.399,6.363c0.555,0.881,0.738,1.952,0.502,2.995
		c-0.237,1.042-0.865,1.93-1.77,2.499C24.491,27.787,23.756,28,23.003,28z M23.004,5.998c-0.155,0-0.312,0.018-0.467,0.055
		c-0.52,0.124-0.96,0.443-1.24,0.897C21.063,7.333,19,10.828,19,15.529c0,5.706,2.071,9.162,2.308,9.538
		c0.567,0.9,1.847,1.197,2.759,0.626c0.451-0.284,0.766-0.728,0.884-1.249c0.119-0.521,0.027-1.058-0.257-1.509
		C24.68,22.914,23,20.085,23,15.529c0-3.607,1.69-6.459,1.708-6.487c0.57-0.94,0.273-2.171-0.66-2.747
		C23.729,6.099,23.37,5.998,23.004,5.998z"/>
</g>
<g>
	<polygon points="12,30 11,26 15,27 14,28 14,29 13,29 	"/>
</g>
<g>
	<polygon points="12,2 11,6 15,5 14,4 14,3 13,3 	"/>
</g>
<g>
	<polygon points="25,30 24,26 28,27 27,28 27,29 26,29 	"/>
</g>
<g>
	<polygon points="25,2 24,6 28,5 27,4 27,3 26,3 	"/>
</g>
</svg>
