<?xml version="1.0" encoding="iso-8859-1"?>
<!-- Generator: Adobe Illustrator 19.1.0, SVG Export Plug-In . SVG Version: 6.00 Build 0)  -->
<svg version="1.1" id="Layer_1" xmlns="http://www.w3.org/2000/svg" xmlns:xlink="http://www.w3.org/1999/xlink" x="0px" y="0px"
	 viewBox="0 0 32 32" style="enable-background:new 0 0 32 32;" xml:space="preserve">
<path style="fill:none;stroke:#000000;stroke-width:2;stroke-miterlimit:10;" d="M17.64,18.635c-1.02,1.02-2.025,0.432-3.427,1.834
	C12.81,21.871,13.974,26,5,26c0-6.562,4.406-7.469,6.062-8.531c0.745-0.478,1.586-1.905,2.022-2.724"/>
<path style="fill:none;stroke:#000000;stroke-width:2;stroke-miterlimit:10;" d="M21.842,5.885l-8.547,8.547
	c-0.393,0.393-0.393,1.031,0,1.424l2.849,2.849c0.393,0.393,1.031,0.393,1.424,0l8.547-8.547c1.18-1.18,1.18-3.093,0-4.273l0,0
	C24.935,4.705,23.022,4.705,21.842,5.885z"/>
<line style="fill:none;stroke:#000000;stroke-width:2;stroke-miterlimit:10;" x1="19.705" y1="16.568" x2="15.432" y2="12.295"/>
<line style="fill:none;stroke:#000000;stroke-width:2;stroke-miterlimit:10;" x1="22.554" y1="13.719" x2="18.281" y2="9.446"/>
</svg>
