<?xml version="1.0" encoding="iso-8859-1"?>
<!-- Generator: Adobe Illustrator 19.1.1, SVG Export Plug-In . SVG Version: 6.00 Build 0)  -->
<svg version="1.1" id="Layer_1" xmlns="http://www.w3.org/2000/svg" xmlns:xlink="http://www.w3.org/1999/xlink" x="0px" y="0px"
	 viewBox="0 0 32 32" style="enable-background:new 0 0 32 32;" xml:space="preserve">
<path style="fill:none;stroke:#000000;stroke-width:2;stroke-miterlimit:10;" d="M25.537,16c0,0-4.815,0-5.962,0
	c-1.148,0-2.217,2-3.575,2s-2.389-2-3.581-2c-1.191,0-5.956,0-5.956,0c-1.498,0-2.65-1.248-2.438-2.643L4.64,8.776
	c0.142-0.937,0.868-1.703,1.847-1.922C7.938,6.529,12.788,6,16,6s8.062,0.529,9.512,0.854c0.979,0.219,1.705,0.985,1.847,1.922
	l0.615,4.582C28.186,14.752,27.036,16,25.537,16z"/>
<path style="fill:none;stroke:#000000;stroke-width:2;stroke-miterlimit:10;" d="M16,21c-1.657,0-3,1.343-3,3s1.343,3,3,3
	s3-1.343,3-3S17.657,21,16,21z"/>
<path d="M16,23c-0.552,0-1,0.448-1,1s0.448,1,1,1s1-0.448,1-1S16.552,23,16,23z"/>
<path style="fill:none;stroke:#000000;stroke-width:2;stroke-miterlimit:10;" d="M12,16c1.883,0,2.088-3,4-3s2.121,3,4,3"/>
<path style="fill:none;stroke:#000000;stroke-width:2;stroke-miterlimit:10;" d="M21,24h2c2.79,0,4,1.21,4,4"/>
</svg>
