<?xml version="1.0" encoding="iso-8859-1"?>
<!-- Generator: Adobe Illustrator 19.1.1, SVG Export Plug-In . SVG Version: 6.00 Build 0)  -->
<svg version="1.1"  xmlns="http://www.w3.org/2000/svg" xmlns:xlink="http://www.w3.org/1999/xlink" x="0px" y="0px"
	 viewBox="0 0 32 32" style="enable-background:new 0 0 32 32;" xml:space="preserve">
<path style="fill:none;stroke:#000000;stroke-width:2;stroke-miterlimit:10;" d="M3,18.127C3,18.127,7.255,21,16,21
	s13-2.873,13-2.873V18l-13-7L3,18V18.127z"/>
<path d="M16,26c-8.948,0-13.376-2.92-13.56-3.044L2,22.658v-2.2l1.56,0.84C3.598,21.323,7.723,24,16,24s12.402-2.677,12.443-2.704
	L30,20.5V22v0.658l-0.44,0.298C29.376,23.08,24.948,26,16,26z"/>
<path d="M16,30c-8.948,0-13.376-2.92-13.56-3.044L2,26.658v-2.2l1.56,0.84C3.598,25.323,7.723,28,16,28s12.402-2.677,12.443-2.704
	L30,24.5V26v0.658l-0.44,0.298C29.376,27.08,24.948,30,16,30z"/>
<polygon points="30,13.538 16,6 2,13.538 2,15.859 16,8.271 30,15.811 "/>
<polygon points="30,9.538 16,2 2,9.538 2,11.859 16,4.271 30,11.811 "/>
<polygon points="16,13 15.102,15.164 12.845,15.375 14.548,16.789 14.05,19 16,17.844 17.95,19 17.452,16.789 19.155,15.375 
	16.898,15.164 "/>
</svg>
