<?xml version="1.0" encoding="iso-8859-1"?>
<!-- Generator: Adobe Illustrator 19.1.1, SVG Export Plug-In . SVG Version: 6.00 Build 0)  -->
<svg version="1.1" id="Layer_1" xmlns="http://www.w3.org/2000/svg" xmlns:xlink="http://www.w3.org/1999/xlink" x="0px" y="0px"
	 viewBox="0 0 32 32" style="enable-background:new 0 0 32 32;" xml:space="preserve">
<path style="fill:none;stroke:#000000;stroke-width:2;stroke-miterlimit:10;" d="M26.952,11.954C28.116,11.741,29,10.726,29,9.5
	c0-1.209-0.859-2.218-2-2.45V5"/>
<path style="fill:none;stroke:#000000;stroke-width:2;stroke-miterlimit:10;" d="M5,5v2.05C3.859,7.282,3,8.291,3,9.5
	c0,1.226,0.884,2.241,2.048,2.454"/>
<circle cx="11.5" cy="7.5" r="1.5"/>
<circle cx="20.5" cy="7.5" r="1.5"/>
<path style="fill:none;stroke:#000000;stroke-width:2;stroke-miterlimit:10;" d="M12,15.631c0.611-0.353,2.469-0.669,4-0.667
	c1.554,0.002,3.385,0.327,4,0.667"/>
<path d="M16,28C9.146,28,4.902,22.331,4.051,12.037l-0.089-1.083h1.086c2.224,0,3.83,3.003,5.384,5.907
	c0.576,1.078,1.434,2.679,1.872,3.04c0.506-0.059,1.03-0.471,1.539-0.871C14.488,18.524,15.155,18,16,18s1.512,0.524,2.157,1.031
	c0.509,0.399,1.033,0.812,1.539,0.871c0.437-0.361,1.289-1.957,1.862-3.031c1.554-2.909,3.159-5.916,5.394-5.916h1.1l-0.104,1.094
	C26.943,22.633,22.924,28,16,28z"/>
</svg>
