<?xml version="1.0" encoding="iso-8859-1"?>
<!-- Generator: Adobe Illustrator 19.1.1, SVG Export Plug-In . SVG Version: 6.00 Build 0)  -->
<svg version="1.1" id="Layer_1" xmlns="http://www.w3.org/2000/svg" xmlns:xlink="http://www.w3.org/1999/xlink" x="0px" y="0px"
	 viewBox="0 0 32 32" style="enable-background:new 0 0 32 32;" xml:space="preserve">
<path style="fill:none;stroke:#000000;stroke-width:2;stroke-miterlimit:10;" d="M25.64,11.64C27.029,11.013,28,9.623,28,8
	c0-2.209-1.791-4-4-4c-1.623,0-3.013,0.971-3.64,2.36L25.64,11.64z"/>
<line style="fill:none;stroke:#000000;stroke-width:2;stroke-miterlimit:10;" x1="14" y1="10" x2="22" y2="18"/>
<path d="M23.409,12.237l-6.086,14.782c-0.896-0.014-2.644-0.185-3.988-1.172l9.82-13.864l-1.435-1.435L11.495,24.983
	c-3.647-0.252-4.337-3.242-4.466-4.487l14.41-10.229l-1.435-1.434L6.208,18.626c-1.024-1.532-1.212-3.129-1.231-3.947l14.786-6.088
	l-1.532-1.532L3.079,13.298l-0.071,0.58c-0.018,0.147-0.391,3.516,2.01,6.496c0.066,0.882,0.396,3.124,2.037,4.771
	c1.146,1.15,2.678,1.764,4.548,1.841c1.939,1.79,4.608,2.036,5.835,2.036c0.378,0,0.618-0.021,0.657-0.025l0.6-0.058l6.246-15.169
	L23.409,12.237z"/>
</svg>
