<?xml version="1.0" encoding="utf-8"?>
<!-- Generator: Adobe Illustrator 18.1.1, SVG Export Plug-In . SVG Version: 6.00 Build 0)  -->
<svg version="1.1" id="Layer_1" xmlns="http://www.w3.org/2000/svg" xmlns:xlink="http://www.w3.org/1999/xlink" x="0px" y="0px"
	 viewBox="0 0 32 32" enable-background="new 0 0 32 32" xml:space="preserve">
<path fill="none" stroke="#000000" stroke-width="2" stroke-miterlimit="10" d="M8,24h16c1.1,0,2-0.9,2-2V10c0-1.1-0.9-2-2-2H8
	c-1.1,0-2,0.9-2,2v12C6,23.1,6.9,24,8,24z"/>
<line fill="none" stroke="#000000" stroke-width="2" stroke-miterlimit="10" x1="6" y1="14" x2="12" y2="14"/>
<path fill="none" stroke="#000000" stroke-width="2" stroke-miterlimit="10" d="M6,19h5.5c1.4,0,2.5,1.1,2.5,2.5v0
	c0,1.4-1.1,2.5-2.5,2.5H10"/>
<path fill="none" stroke="#000000" stroke-width="2" stroke-miterlimit="10" d="M12,19v-6c0-1.1-0.9-2-2-2h0"/>
<line fill="none" stroke="#000000" stroke-width="2" stroke-miterlimit="10" x1="26" y1="14" x2="20" y2="14"/>
<path fill="none" stroke="#000000" stroke-width="2" stroke-miterlimit="10" d="M26,19h-5.5c-1.4,0-2.5,1.1-2.5,2.5v0
	c0,1.4,1.1,2.5,2.5,2.5H22"/>
<path fill="none" stroke="#000000" stroke-width="2" stroke-miterlimit="10" d="M20,19v-6c0-1.1,0.9-2,2-2h0"/>
</svg>
