<?xml version="1.0" encoding="iso-8859-1"?>
<!-- Generator: Adobe Illustrator 19.2.0, SVG Export Plug-In . SVG Version: 6.00 Build 0)  -->
<svg version="1.1" id="Layer_1" xmlns="http://www.w3.org/2000/svg" xmlns:xlink="http://www.w3.org/1999/xlink" x="0px" y="0px"
	 viewBox="0 0 32 32" style="enable-background:new 0 0 32 32;" xml:space="preserve">
<polyline style="fill:none;stroke:#000000;stroke-width:2;stroke-miterlimit:10;" points="4,7 27,7 27,25 "/>
<line style="fill:none;stroke:#000000;stroke-width:2;stroke-miterlimit:10;" x1="12" y1="25" x2="30" y2="25"/>
<path style="fill:none;stroke:#000000;stroke-width:2;stroke-miterlimit:10;" d="M8.002,10C6.343,10,5,11.343,5,13
	c0,1.659,1.343,3,3.002,3C9.657,16,11,14.659,11,13C11,11.343,9.657,10,8.002,10z"/>
<circle cx="17.5" cy="14.5" r="1.5"/>
<path style="fill:none;stroke:#000000;stroke-width:2;stroke-miterlimit:10;" d="M5,26v-7h4.504c0.326,0,0.647,0.08,0.935,0.232
	l3.094,1.635c0.292,0.155,0.642,0.155,0.935,0L18,19"/>
<line style="fill:none;stroke:#000000;stroke-width:2;stroke-miterlimit:10;" x1="10" y1="19" x2="10" y2="26"/>
<path d="M21,11c0,0-0.917-1-3-1v4l1,0.5V12c1.138,0,2,0.881,2,0.881V11z"/>
</svg>
