<?xml version="1.0" encoding="iso-8859-1"?>
<!-- Generator: Adobe Illustrator 19.1.1, SVG Export Plug-In . SVG Version: 6.00 Build 0)  -->
<svg version="1.1" id="Layer_1" xmlns="http://www.w3.org/2000/svg" xmlns:xlink="http://www.w3.org/1999/xlink" x="0px" y="0px"
	 viewBox="0 0 32 32" style="enable-background:new 0 0 32 32;" xml:space="preserve">
<path style="fill:none;stroke:#000000;stroke-width:2;stroke-linecap:round;stroke-linejoin:round;stroke-miterlimit:10;" d="
	M11.966,27.645c-1.896,1.905-5.119,1.733-7.035-0.192c-2.215-2.225-0.048-3.794,2.011-5.861C7.761,20.77,17.858,10.629,19.334,9.147
	c2.503-2.514,3.742-5.824,5.904-5.024c2.061,0.762,4.708,5.464,0.607,9.583C23.765,15.796,13.026,26.581,11.966,27.645z"/>
<path style="fill:none;stroke:#000000;stroke-width:2;stroke-linecap:round;stroke-linejoin:round;stroke-miterlimit:10;" d="
	M24.374,16.5c-0.243,0.829,0.131,1.5,0.835,1.5c0.705,0,1.473-0.671,1.716-1.5c0.243-0.828-0.131-1.5-0.835-1.5
	C25.386,15,24.618,15.672,24.374,16.5z"/>
<path style="fill:none;stroke:#000000;stroke-width:2;stroke-linecap:round;stroke-linejoin:round;stroke-miterlimit:10;" d="
	M23.398,16.695c0,0,0.933,0.867,1.254,1.121C24.799,17.934,24.988,18,25.21,18c0.705,0,1.473-0.671,1.716-1.5
	c0.152-0.518,0.063-0.974-0.197-1.244c-0.143-0.148-1.072-1.022-1.072-1.022"/>
<path style="fill:none;stroke:#000000;stroke-width:2;stroke-linecap:round;stroke-linejoin:round;stroke-miterlimit:10;" d="
	M13.374,27.5c-0.243,0.829,0.131,1.5,0.835,1.5c0.705,0,1.473-0.671,1.716-1.5c0.243-0.828-0.131-1.5-0.835-1.5
	C14.386,26,13.618,26.672,13.374,27.5z"/>
<path style="fill:none;stroke:#000000;stroke-width:2;stroke-linecap:round;stroke-linejoin:round;stroke-miterlimit:10;" d="
	M12.398,27.695c0,0,0.933,0.867,1.254,1.121C13.799,28.934,13.988,29,14.21,29c0.705,0,1.473-0.671,1.716-1.5
	c0.152-0.518,0.063-0.974-0.197-1.244c-0.143-0.148-1.072-1.022-1.072-1.022"/>
<circle cx="23" cy="10.996" r="1.004"/>
<circle cx="20" cy="13.996" r="1.004"/>
<circle cx="13" cy="21.004" r="1.004"/>
<circle cx="10" cy="24.004" r="1.004"/>
</svg>
