<?xml version="1.0" encoding="iso-8859-1"?>
<!-- Generator: Adobe Illustrator 22.0.1, SVG Export Plug-In . SVG Version: 6.00 Build 0)  -->
<svg version="1.1" id="Layer_1" xmlns="http://www.w3.org/2000/svg" xmlns:xlink="http://www.w3.org/1999/xlink" x="0px" y="0px"
	 viewBox="0 0 32 32" style="enable-background:new 0 0 32 32;" xml:space="preserve">
<path d="M22,4v1H10V4c0-0.552,0.448-1,1-1h10C21.552,3,22,3.448,22,4z"/>
<path style="fill:none;stroke:#000000;stroke-width:2;stroke-miterlimit:10;" d="M21,12V7H11v5.981c0,0.378,0.214,0.724,0.552,0.894
	l8.878,4.222C20.778,18.263,21,18.614,21,19v2c0,0.283-0.12,0.554-0.331,0.743L16,26l-4.669-4.257C11.12,21.554,11,21.283,11,21v-3"
	/>
<line style="fill:none;stroke:#000000;stroke-width:2;stroke-linecap:round;stroke-miterlimit:10;" x1="16" y1="28" x2="16" y2="26"/>
</svg>
