<?xml version="1.0" encoding="iso-8859-1"?>
<!-- Generator: Adobe Illustrator 19.1.1, SVG Export Plug-In . SVG Version: 6.00 Build 0)  -->
<svg version="1.1" id="Layer_1" xmlns="http://www.w3.org/2000/svg" xmlns:xlink="http://www.w3.org/1999/xlink" x="0px" y="0px"
	 viewBox="0 0 32 32" style="enable-background:new 0 0 32 32;" xml:space="preserve">
<circle cx="21" cy="23" r="4"/>
<polyline style="fill:none;stroke:#000000;stroke-width:2;stroke-miterlimit:10;" points="24,23 24,6 29,8 "/>
<rect x="5" y="15" width="16" height="2"/>
<g>
	<path d="M15.812,20H5v2h10.09C15.212,21.282,15.459,20.608,15.812,20z"/>
	<path d="M15.35,25H5v2h11.541C16.022,26.422,15.615,25.746,15.35,25z"/>
</g>
<path d="M13,10V8h-1.184c-0.035-0.098-0.072-0.193-0.116-0.285l0.836-0.836l-1.414-1.414l-0.836,0.836
	C10.193,6.256,10.098,6.219,10,6.184V5H8v1.184C7.902,6.219,7.807,6.256,7.715,6.301L6.879,5.464L5.464,6.879l0.836,0.836
	C6.256,7.807,6.219,7.902,6.184,8H5v2h1.184c0.035,0.098,0.072,0.193,0.116,0.285l-0.836,0.836l1.414,1.414l0.836-0.836
	C7.807,11.744,7.902,11.781,8,11.816V13h2v-1.184c0.098-0.035,0.193-0.072,0.285-0.116l0.836,0.836l1.414-1.414l-0.836-0.836
	c0.044-0.093,0.081-0.188,0.116-0.285H13z M9,10c-0.551,0-1-0.448-1-1s0.449-1,1-1s1,0.448,1,1S9.551,10,9,10z"/>
<g>
	<polygon points="15,11.485 14.485,12 21,12 21,10 15,10 	"/>
	<polygon points="13.485,5 15,6.515 15,7 21,7 21,5 	"/>
</g>
</svg>
