<?xml version="1.0" encoding="iso-8859-1"?>
<!-- Generator: Adobe Illustrator 19.1.1, SVG Export Plug-In . SVG Version: 6.00 Build 0)  -->
<svg version="1.1" id="Layer_1" xmlns="http://www.w3.org/2000/svg" xmlns:xlink="http://www.w3.org/1999/xlink" x="0px" y="0px"
	 viewBox="0 0 32 32" style="enable-background:new 0 0 32 32;" xml:space="preserve">
<path d="M14.044,15.241c-2.243,0.506-8.158,2.023-8.872,2.833c-0.714,0.911,0.816,7.082,4.079,10.825
	c-1.326-5.16-2.855-9.004-2.142-9.813c0.306-0.304,1.326-0.911,2.549-1.518l-0.102,0.101c-0.714,0.809-0.204,7.284,2.957,10.623
	c-1.428-4.654-2.04-9.307-1.326-10.016c0.204-0.304,1.02-0.607,1.938-0.911c-0.204,0.911-0.408,1.922-0.408,2.934
	c0,3.642,2.04,6.576,3.263,6.576s3.263-2.934,3.263-6.576c0-1.113-0.102-2.023-0.408-2.934c0.918,0.304,1.734,0.607,1.938,0.911
	c0.714,0.809,0.102,5.362-1.224,10.117c3.161-3.339,3.671-9.813,2.957-10.623l-0.102-0.101c1.224,0.607,2.243,1.214,2.549,1.518
	C25.67,20.097,24.14,23.84,22.814,29c3.161-3.743,4.793-9.914,3.977-10.825c-0.714-0.809-6.527-2.327-8.872-2.833
	c0-0.101-0.102-0.101-0.102-0.202c2.243,0.708,5.915,1.113,7.138,0.101c1.938-1.72-0.51-9.51-2.04-11.027
	c0.204,1.619,2.651,10.319-0.918,10.42c-0.306,0-0.612,0-1.02,0c1.53-3.642,0.408-7.891-2.651-11.634
	c1.122,1.821,2.957,9.409,1.122,11.027c-0.51,0.506-1.53,0.101-2.957-0.101l0,0c0.918-0.405,1.632-1.518,1.632-2.833
	c0-1.619-1.02-3.035-2.243-3.035s-2.243,1.315-2.243,3.035c0,1.315,0.714,2.428,1.632,2.833l0,0
	c-1.428,0.101-2.447,0.506-2.957,0.101c-1.836-1.619,0-9.206,1.122-11.027c-2.855,3.642-3.977,7.891-2.447,11.533
	c-0.306,0-0.714,0-1.02,0c-3.569-0.101-1.122-8.802-0.918-10.42C7.518,5.63,5.07,13.42,7.008,15.14
	c1.122,1.012,4.793,0.607,7.138-0.101C14.146,15.14,14.044,15.241,14.044,15.241"/>
</svg>
