<?xml version="1.0" encoding="iso-8859-1"?>
<!-- Generator: Adobe Illustrator 19.1.1, SVG Export Plug-In . SVG Version: 6.00 Build 0)  -->
<svg version="1.1" id="Layer_1" xmlns="http://www.w3.org/2000/svg" xmlns:xlink="http://www.w3.org/1999/xlink" x="0px" y="0px"
	 viewBox="0 0 32 32" style="enable-background:new 0 0 32 32;" xml:space="preserve">
<path d="M12.099,3c0,0.504-0.195,0.907-0.293,1.31c-0.098,0.504-0.195,0.907-0.293,1.411c-0.293,1.109-0.586,2.318-0.488,3.829
	c0.879,0.202,2.052,0,2.833-0.101c0.488,0.302,0.684,0.806,1.172,1.109c-0.098-0.605,0.293-0.705,0.586-0.806
	c-0.098,0.202-0.391,0.403-0.293,0.907c0.195,0.101,0.195-0.202,0.391-0.302c0.195,0.202,0.488,0.202,0.684,0
	c0.195,0,0.098,0.302,0.293,0.302c0.195-0.302-0.098-0.705-0.195-0.907c0.293,0.202,0.684,0.302,0.586,0.806
	c0.293-0.202,0.684-0.705,1.075-1.008c0.879,0.202,1.954,0.302,2.931,0.202c0-2.519-0.684-4.535-1.27-6.55
	c0.195,0,0.195,0.202,0.195,0.302c0.586,1.31,1.172,2.922,1.563,4.535c0.098,0.202,0.195,0.605,0.293,0.907
	c0.098,0.302,0.195,0.806,0.195,0.907c-0.098,0.302-0.586,0.504-0.782,0.806c-0.293-0.403-1.27-0.302-2.247-0.302
	c-0.293,0-0.586-0.101-0.782,0c-0.391,0.101-0.488,0.605-0.684,0.907c0.488,0,0.879-0.504,1.368-0.504
	c0.293,0,0.684,0.202,1.075,0.302c1.075,0.302,2.247,0.504,3.224,0.806c0.098-3.426-0.782-6.147-1.954-8.465
	c1.172,1.612,1.856,3.426,2.442,5.643c0.098,0.202,0.098,0.504,0.195,0.907c0.098,0.504,0.098,1.209,0.391,1.612
	c-0.293,0.403-0.782,0.705-1.075,1.008c-0.977-0.605-2.931-1.512-4.591-1.31c-0.391,0-0.782,0.202-0.977,0.504
	c0.488,0.202,0.879,0.202,1.465,0.202c0.195,0,0.391-0.101,0.488,0c0.098,0,0.391,0.302,0.586,0.504
	c1.172,1.209,2.247,2.116,3.615,3.023c0.391,0.302,0.684,0.605,1.172,0.202c0.098,4.031-0.977,6.953-2.247,9.674
	c-0.195,0.302-0.195,0.705-0.488,0.907c0.977-2.318,1.661-5.039,1.661-8.264c0-0.302,0.098-0.806,0-1.008
	c-0.098-0.403-0.684-0.907-1.075-1.209c-1.075-1.008-1.856-1.713-3.028-2.62c-0.195-0.202-0.391-0.403-0.586-0.504
	c-0.195-0.101-0.488-0.101-0.782-0.101c-0.293,0-0.586-0.101-0.782-0.101c0.488,0.504,1.172,1.109,1.758,1.612
	c0.098,0.101,0.195,0,0.391,0c0.195,4.636-0.195,9.271-1.465,12.698c-0.293,0.806-0.684,1.612-1.172,2.217
	c1.758-3.225,1.856-8.767,1.465-13.705c0.391-0.302,0.195-0.605-0.098-1.008c-0.391-0.403-0.977-1.109-1.465-1.31
	c0,0.202,0,0.403,0.098,0.605c0.098,0.202,0.293,0.403,0.293,0.504c0.098,0.403-0.098,1.209-0.195,1.612
	c-0.293,1.411-0.782,3.023-1.27,4.132c-0.195,0-0.098-0.302-0.195-0.403c-0.195,0-0.098,0.302-0.195,0.403
	c-0.586-1.008-1.075-2.62-1.27-4.132c-0.098-0.504-0.195-1.209-0.195-1.612c0.098-0.403,0.488-0.705,0.391-1.109
	c-0.391,0.101-0.684,0.504-0.977,0.806c-0.293,0.302-0.586,0.705-0.782,1.008c0,0.202,0.195,0.202,0.195,0.403
	c-0.293,4.938-0.293,10.481,1.563,13.705c-0.195,0-0.293-0.302-0.391-0.403c-1.465-2.721-1.856-7.054-2.052-11.488
	c0-1.008-0.098-1.915,0-2.922c0-0.202,0.195,0.101,0.391,0c0.684-0.504,1.27-1.109,1.856-1.612
	c-0.488,0.101-1.075,0.101-1.563,0.202c-0.391,0.202-0.879,0.605-1.27,1.008c-1.172,1.008-2.442,2.116-3.419,3.225
	c-0.195,3.729,0.586,6.752,1.661,9.372c-1.563-2.822-2.931-6.047-2.735-10.481c0.586,0.504,1.368-0.302,1.856-0.705
	c1.172-0.907,2.54-2.116,3.419-3.124c0.684,0.101,1.465,0,2.052-0.101c-0.684-0.907-2.54-0.504-3.615-0.101
	c-0.782,0.202-1.465,0.504-1.856,0.907c-0.488-0.302-0.782-0.705-1.172-1.008c0.293-0.705,0.391-2.016,0.586-2.822
	c0.586-2.116,1.368-3.93,2.442-5.643c0,0.302-0.195,0.605-0.391,0.907c-0.879,2.016-1.465,4.636-1.465,7.558
	c0.977-0.202,2.052-0.504,3.224-0.806c0.391-0.101,0.782-0.302,0.977-0.302c0.488,0,0.879,0.504,1.368,0.504
	c-0.098-0.403-0.391-0.705-0.586-0.907c-0.879,0-1.856-0.101-2.638,0c0,0-0.098,0.101-0.195,0.101l-0.195,0.202
	c-0.195,0-0.684-0.605-0.782-0.705C10.438,7.233,11.317,5.116,12.099,3z"/>
</svg>
