<?xml version="1.0" encoding="iso-8859-1"?>
<!-- Generator: Adobe Illustrator 19.1.0, SVG Export Plug-In . SVG Version: 6.00 Build 0)  -->
<svg version="1.1" id="Layer_1" xmlns="http://www.w3.org/2000/svg" xmlns:xlink="http://www.w3.org/1999/xlink" x="0px" y="0px"
	 viewBox="0 0 32 32" style="enable-background:new 0 0 32 32;" xml:space="preserve">
<polyline style="fill:none;stroke:#000000;stroke-width:2;stroke-miterlimit:10;" points="18,11 23,6 28,11 "/>
<polyline style="fill:none;stroke:#000000;stroke-width:2;stroke-miterlimit:10;" points="4,11 9,6 14,11 "/>
<path d="M22,6v8.5c0,1.379-1.121,2.5-2.5,2.5c-0.871,0-1.678,0.26-2.368,0.69c0.421,0.511,0.753,1.096,0.988,1.728
	C18.516,19.155,18.99,19,19.5,19c2.481,0,4.5-2.019,4.5-4.5V6H22z"/>
<path style="fill:none;stroke:#000000;stroke-width:2;stroke-miterlimit:10;" d="M16,28v-6.5c0-1.933-1.567-3.5-3.5-3.5h0
	C10.567,18,9,16.433,9,14.5V6"/>
</svg>
