<?xml version="1.0" encoding="iso-8859-1"?>
<!-- Generator: Adobe Illustrator 19.1.0, SVG Export Plug-In . SVG Version: 6.00 Build 0)  -->
<svg version="1.1" id="Layer_1" xmlns="http://www.w3.org/2000/svg" xmlns:xlink="http://www.w3.org/1999/xlink" x="0px" y="0px"
	 viewBox="0 0 32 32" style="enable-background:new 0 0 32 32;" xml:space="preserve">
<line style="fill:none;stroke:#000000;stroke-width:2;stroke-miterlimit:10;" x1="3" y1="3" x2="29" y2="29"/>
<g>
	<path d="M20.595,24.794c-0.27,0.071-0.571,0.107-0.943,0.048c-1.073-0.172-1.827-0.7-1.827-1.146c0-0.188,0.461-0.379,1.117-0.555
		l-2.042-2.042c-0.297,0.006-0.59,0.015-0.899,0.015c-7.765,0-12-2.072-12-3.137c0-0.408,0.796-1.18,2.845-1.875
		c0.599,1.798,3.656,2.192,7.324,2.267l-2.106-2.106c-2.443-0.184-3.15-0.539-3.313-0.798l0.056-0.209
		c0.143-0.535,0.305-1.139,0.484-1.766L7.68,11.88c-0.212,0.685-0.407,1.38-0.591,2.059C3.769,14.88,2,16.266,2,17.977
		C2,19.795,4.056,21.141,7.033,22c0.294,1.881,1.067,5.03,2.954,5.03c3.119,0,4.194-1.949,5.89-1.949
		c1.696,0,3.122,1.949,5.89,1.949c0.301,0,0.574-0.089,0.827-0.235L20.595,24.794z M11.731,24.842
		c-2.14,0.342-2.463-1.851-2.463-2.297c1.721,0.24,4.29,0.705,4.29,1.151S12.804,24.671,11.731,24.842z"/>
	<path d="M24.887,13.933c-1.096-3.859-2.351-8.183-5.414-8.183c-0.462,0-0.955,0.126-1.477,0.261
		c-0.603,0.155-1.286,0.33-1.996,0.33c-0.705,0-1.379-0.174-1.975-0.327C13.5,5.878,13.002,5.75,12.527,5.75
		c-1.933,0-3.186,1.766-4.111,4.038l1.554,1.554c0.685-1.933,1.54-3.592,2.557-3.592c0.221,0,0.599,0.097,1,0.2
		C14.202,8.125,15.042,8.341,16,8.341c0.962,0,1.811-0.218,2.493-0.393c0.396-0.102,0.77-0.198,0.979-0.198
		c1.58,0,2.701,3.95,3.52,6.834l0.264,0.919c-0.149,0.363-1.388,0.883-7.256,0.883c-0.347,0-0.676-0.002-0.992-0.006l2.004,2.004
		c3.552-0.017,7.455-0.204,8.143-2.281C27.204,16.797,28,17.569,28,17.977c0,0.887-2.949,2.469-8.421,2.974l4.299,4.299
		c0.511-1.021,0.835-2.283,1.025-3.231C27.915,21.161,30,19.808,30,17.977C30,16.262,28.222,14.874,24.887,13.933z"/>
</g>
<rect style="fill:none;" width="32" height="32"/>
</svg>
