<?xml version="1.0" encoding="utf-8"?>
<!-- Generator: Adobe Illustrator 19.1.1, SVG Export Plug-In . SVG Version: 6.00 Build 0)  -->
<svg version="1.1" id="Layer_1" xmlns="http://www.w3.org/2000/svg" xmlns:xlink="http://www.w3.org/1999/xlink" x="0px" y="0px"
	 viewBox="-7 9 32 32" enable-background="new -7 9 32 32" xml:space="preserve">
<path d="M10.6,24.1l0.3,1.8l-1.5-1.6L8.1,26l0.2-1.9L6,23.3l2.5-0.6L9,14l1.4,8.7l2.6,0.6L10.6,24.1z"/>
<path d="M3,39H1c0-17,6.9-25.8,7.2-26.2l0.7-0.9l0.8,0.8C10,13,18,20.8,18,37h-2c0-4-4-7-5-7C9.7,30,3,33.7,3,39z M9.1,15
	c-1.4,2.3-4.7,8.3-5.8,17.9C5.8,29.9,9.4,28,11,28c1.2,0,3.1,1.1,4.6,2.9C14.3,22.3,10.7,17,9.1,15z"/>
</svg>
