<?xml version="1.0" encoding="iso-8859-1"?>
<!-- Generator: Adobe Illustrator 19.1.0, SVG Export Plug-In . SVG Version: 6.00 Build 0)  -->
<svg version="1.1" id="Layer_1" xmlns="http://www.w3.org/2000/svg" xmlns:xlink="http://www.w3.org/1999/xlink" x="0px" y="0px"
	 viewBox="0 0 32 32" style="enable-background:new 0 0 32 32;" xml:space="preserve">
<polyline style="fill:none;stroke:#000000;stroke-width:2;stroke-miterlimit:10;" points="15,6 5,6 5,14 12,14 12,6 "/>
<line style="fill:none;stroke:#000000;stroke-width:2;stroke-miterlimit:10;" x1="20" y1="23" x2="12" y2="23"/>
<line style="fill:none;stroke:#000000;stroke-width:2;stroke-miterlimit:10;" x1="25" y1="9" x2="18" y2="9"/>
<path style="fill:none;stroke:#000000;stroke-width:2;stroke-miterlimit:10;" d="M24,23h4l-0.956-2.433
	c0.578-0.684,0.943-1.554,0.955-2.516c0.029-2.229-1.99-4.05-4.22-4.05H23V9h-3v5H5v7c0,1.105,0.895,2,2,2h1.083"/>
<path d="M14.22,25c-0.549,0.609-1.337,1-2.22,1c-1.654,0-3-1.346-3-3s1.346-3,3-3c0.883,0,1.67,0.391,2.22,1h2.356
	c-0.774-1.763-2.531-3-4.576-3c-2.757,0-5,2.243-5,5s2.243,5,5,5c2.045,0,3.802-1.237,4.576-3H14.22z"/>
<path d="M17.78,21c0.549-0.609,1.337-1,2.22-1c1.654,0,3,1.346,3,3s-1.346,3-3,3c-0.883,0-1.67-0.391-2.22-1h-2.356
	c0.774,1.763,2.531,3,4.576,3c2.757,0,5-2.243,5-5s-2.243-5-5-5c-2.045,0-3.802,1.237-4.576,3H17.78z"/>
</svg>
