<?xml version="1.0" encoding="iso-8859-1"?>
<!-- Generator: Adobe Illustrator 19.0.1, SVG Export Plug-In . SVG Version: 6.00 Build 0)  -->
<svg version="1.1" id="Layer_1" xmlns="http://www.w3.org/2000/svg" xmlns:xlink="http://www.w3.org/1999/xlink" x="0px" y="0px"
	 viewBox="0 0 32 32" style="enable-background:new 0 0 32 32;" xml:space="preserve">
<circle id="XMLID_502_" style="fill:none;stroke:#000000;stroke-width:2;stroke-miterlimit:10;" cx="13" cy="7" r="2"/>
<path id="XMLID_499_" style="fill:none;stroke:#000000;stroke-width:2;stroke-miterlimit:10;" d="M11,17.379l3.376,1.368
	C14.753,18.9,15,19.267,15,19.674V24"/>
<circle id="XMLID_497_" style="fill:none;stroke:#000000;stroke-width:2;stroke-miterlimit:10;" cx="22" cy="25" r="2"/>
<line id="XMLID_496_" style="fill:none;stroke:#000000;stroke-width:2;stroke-miterlimit:10;" x1="21.999" y1="27" x2="9.999" y2="27"/>
<polyline id="XMLID_495_" style="fill:none;stroke:#000000;stroke-width:2;stroke-miterlimit:10;" points="20.853,26.769 18,24 
	14,24 "/>
<path id="XMLID_209_" d="M22.414,18L20,15.586v-1.238l-2,1.038v0.201c0,0.526,0.213,1.042,0.586,1.414L21,19.414V24h2v-4.586
	C23,18.888,22.787,18.372,22.414,18z"/>
<path id="XMLID_494_" style="fill:none;stroke:#000000;stroke-width:2;stroke-miterlimit:10;" d="M20,12l-3.512,1.756
	c-0.304,0.152-0.665,0.139-0.957-0.034l-2.769-1.642c-0.368-0.218-0.84-0.001-0.914,0.421L11,17.379l1,4.698V27"/>
</svg>
