<?xml version="1.0" encoding="iso-8859-1"?>
<!-- Generator: Adobe Illustrator 19.1.0, SVG Export Plug-In . SVG Version: 6.00 Build 0)  -->
<svg version="1.1" id="Layer_1" xmlns="http://www.w3.org/2000/svg" xmlns:xlink="http://www.w3.org/1999/xlink" x="0px" y="0px"
	 viewBox="0 0 32 32" style="enable-background:new 0 0 32 32;" xml:space="preserve">
<path d="M18.95,7.933c0,0,6.57-1.136,9.05-2.933h-9.262L18.95,7.933z"/>
<path style="fill:none;stroke:#000000;stroke-width:2;stroke-miterlimit:10;" d="M17.844,8.756c0.464-0.454,1.013-1.108,1.013-1.899
	c0-1.262-1.023-2.286-2.286-2.286C15.499,4.571,14.857,4,14.857,4s-0.571,1.069-0.571,2.857C14.286,10.492,21,13.385,21,19s-7,9-7,9
	"/>
<path style="fill:none;stroke:#000000;stroke-width:2;stroke-miterlimit:10;" d="M18.261,12.841C21.905,20.736,7,15.988,7,23.771
	C7,25.486,8,28,8,28h0.5c0,0,6.5-2.452,6.5-7"/>
</svg>
