<?xml version="1.0" encoding="iso-8859-1"?>
<!-- Generator: Adobe Illustrator 19.2.0, SVG Export Plug-In . SVG Version: 6.00 Build 0)  -->
<svg version="1.1" id="Layer_1" xmlns="http://www.w3.org/2000/svg" xmlns:xlink="http://www.w3.org/1999/xlink" x="0px" y="0px"
	 viewBox="0 0 32 32" style="enable-background:new 0 0 32 32;" xml:space="preserve">
<circle cx="13" cy="19" r="1"/>
<circle cx="19" cy="19" r="1"/>
<path style="fill:none;stroke:#000000;stroke-width:2;stroke-miterlimit:10;" d="M17.035,13.965c-2.931,0.506-7.41,1.112-7.41,4.035
	c0,3.909,2.6,9,6.375,9s6.375-5.071,6.375-9"/>
<path style="fill:none;stroke:#000000;stroke-width:2;stroke-miterlimit:10;" d="M19,26h8c0-7.732-2.239-14-5-14"/>
<path style="fill:none;stroke:#000000;stroke-width:2;stroke-miterlimit:10;" d="M13,26H5c0-7.732,2.239-14,5-14"/>
<polygon style="fill:none;stroke:#000000;stroke-width:2;stroke-miterlimit:10;" points="6.4,7 16,4.046 25.6,7 16,9.954 "/>
<path style="fill:none;stroke:#000000;stroke-width:2;stroke-miterlimit:10;" d="M16,9.954l-6-1.846V12c0,0.705,2.278,2,6,2
	c3.722,0,6-1.295,6-2V8.108L16,9.954z"/>
</svg>
