<?xml version="1.0" encoding="iso-8859-1"?>
<!-- Generator: Adobe Illustrator 21.0.2, SVG Export Plug-In . SVG Version: 6.00 Build 0)  -->
<svg version="1.1"  xmlns="http://www.w3.org/2000/svg" xmlns:xlink="http://www.w3.org/1999/xlink" x="0px" y="0px"
	 viewBox="0 0 32 32" style="enable-background:new 0 0 32 32;" xml:space="preserve">
<path style="fill:none;stroke:#000000;stroke-width:2;stroke-miterlimit:10;" d="M16,17c1.505-4,1.15-6.236,0-9"/>
<path style="fill:none;stroke:#000000;stroke-width:2;stroke-miterlimit:10;" d="M14,29v-5.023c0-1.321-0.523-2.589-1.454-3.525
	l-3.358-3.377c-0.274-0.298-0.664-0.489-1.101-0.489c-0.828,0-1.5,0.672-1.5,1.5c0,0.411,0.166,0.782,0.433,1.053
	c0.001,0.002,3.419,3.421,3.419,3.421"/>
<path style="fill:none;stroke:#000000;stroke-width:2;stroke-miterlimit:10;" d="M16.723,13.409c0.484,0.362,1.39,0.929,2.497-0.091
	c1.256-1.157,1.791-5.326-4.795-8.319c-0.472,2.993-2.7,4.005-2.397,6.851C12.346,14.842,16.138,14.031,16.723,13.409z"/>
<path style="fill:none;stroke:#000000;stroke-width:2;stroke-miterlimit:10;" d="M8,29v-3l-3.121-3.121
	C4.316,22.316,4,21.553,4,20.757V12c0-1.105,0.895-2,2-2s2,0.895,2,2v4.592"/>
<path style="fill:none;stroke:#000000;stroke-width:2;stroke-miterlimit:10;" d="M18,29v-5.023c0-1.321,0.523-2.589,1.454-3.525
	l3.358-3.377c0.274-0.298,0.664-0.489,1.101-0.489c0.828,0,1.5,0.672,1.5,1.5c0,0.411-0.166,0.782-0.433,1.053
	c-0.001,0.002-3.419,3.421-3.419,3.421"/>
<path style="fill:none;stroke:#000000;stroke-width:2;stroke-miterlimit:10;" d="M24,29v-3l3.121-3.121
	C27.684,22.316,28,21.553,28,20.757V12c0-1.105-0.895-2-2-2s-2,0.895-2,2v4.592"/>
</svg>
