<?xml version="1.0" encoding="iso-8859-1"?>
<!-- Generator: Adobe Illustrator 19.1.0, SVG Export Plug-In . SVG Version: 6.00 Build 0)  -->
<svg version="1.1" id="Layer_1" xmlns="http://www.w3.org/2000/svg" xmlns:xlink="http://www.w3.org/1999/xlink" x="0px" y="0px"
	 viewBox="0 0 32 32" style="enable-background:new 0 0 32 32;" xml:space="preserve">
<g>
	<path d="M17.654,21.91l-0.251,0.146c-1.115,0.652-2.52,0.517-3.492-0.336l-1.544-1.354l2.586-1.511l1.872,1.222l0.207-0.121
		l-0.856-2.691l-1.164-0.76l-6.049,3.534l3.63,3.185c0.937,0.821,2.112,1.243,3.298,1.243c0.816,0,1.632-0.208,2.382-0.615
		L17.654,21.91z"/>
	<path d="M27.893,14.284L26.9,9.558l-6.049,3.535l0.146,2.231l-2.9,1.695l0.621,1.953l4.354-2.544l-0.146-2.231l2.586-1.511
		l0.422,2.011c0.266,1.265-0.306,2.554-1.423,3.207l-5.172,3.022l0.622,1.953l5.56-3.249C27.384,18.541,28.336,16.393,27.893,14.284
		z"/>
</g>
<g>
	<polygon points="23.491,9.657 12.271,5.301 11.729,6.699 21.828,10.621 	"/>
</g>
<circle cx="12" cy="6" r="2"/>
<path d="M6.35,28L12,9.435L17.65,28h2.091L12.957,5.709C12.828,5.288,12.44,5,12,5s-0.828,0.288-0.957,0.709L4.259,28H6.35z"/>
</svg>
