<?xml version="1.0" encoding="iso-8859-1"?>
<!-- Generator: Adobe Illustrator 19.1.1, SVG Export Plug-In . SVG Version: 6.00 Build 0)  -->
<svg version="1.1" id="Layer_1" xmlns="http://www.w3.org/2000/svg" xmlns:xlink="http://www.w3.org/1999/xlink" x="0px" y="0px"
	 viewBox="0 0 32 32" style="enable-background:new 0 0 32 32;" xml:space="preserve">
<line style="fill:none;stroke:#000000;stroke-width:2;stroke-miterlimit:10;" x1="16" y1="27" x2="16" y2="31"/>
<g>
	<g>
		<path style="fill:none;stroke:#000000;stroke-width:2;stroke-miterlimit:10;" d="M23,5c-2.044-0.889-5.149-1.766-5.149-1.766
			L17.27,2H16h-1.27l-0.581,1.234c0,0-3.105,0.877-5.149,1.766c0,4.356,3,7.532,3,10c0,1.851-3,2.623-3,10h14c0-7.377-3-8.149-3-10
			C20,12.532,23,9.356,23,5z"/>
	</g>
</g>
<path style="fill:none;stroke:#000000;stroke-width:2;stroke-miterlimit:10;" d="M23,5c0,2.583-1.208,4.917-1.208,4.917
	C20.792,12.125,19,12,19,12c-1.031,0-2-0.938-2-2"/>
<path style="fill:none;stroke:#000000;stroke-width:2;stroke-miterlimit:10;" d="M15,10c0,1.063-0.969,2-2,2
	c0,0-1.792,0.125-2.792-2.083C10.208,9.917,9,7.583,9,5"/>
</svg>
