<?xml version="1.0" encoding="iso-8859-1"?>
<!-- Generator: Adobe Illustrator 19.1.1, SVG Export Plug-In . SVG Version: 6.00 Build 0)  -->
<svg version="1.1" id="Layer_1" xmlns="http://www.w3.org/2000/svg" xmlns:xlink="http://www.w3.org/1999/xlink" x="0px" y="0px"
	 viewBox="0 0 32 32" style="enable-background:new 0 0 32 32;" xml:space="preserve">
<path id="XMLID_7_" style="fill:none;stroke:#000000;stroke-width:2;stroke-miterlimit:10;" d="M7,25c0,0.984,1.328,2,3,2s3-1,3-2"
	/>
<path id="XMLID_6_" style="fill:none;stroke:#000000;stroke-width:2;stroke-miterlimit:10;" d="M13,25c0,0.984,1.328,2,3,2s3-1,3-2"
	/>
<path id="XMLID_5_" style="fill:none;stroke:#000000;stroke-width:2;stroke-miterlimit:10;" d="M19,25c0,0.984,1.328,2,3,2s3-1,3-2"
	/>
<path id="XMLID_4_" style="fill:none;stroke:#000000;stroke-width:2;stroke-miterlimit:10;" d="M25,25c0,0.984,1.328,2,3,2"/>
<path id="XMLID_1_" style="fill:none;stroke:#000000;stroke-width:2;stroke-miterlimit:10;" d="M4,27c1.672,0,3-1,3-2"/>
<path style="fill:none;stroke:#000000;stroke-width:2;stroke-miterlimit:10;" d="M13,13c-4.284,0-8.222-2.717-8.222-7h0.04
	c0,0,1.855,1,8.182,1c2.238,0,2.965,2,2.965,2h0.065c0,0,0.733-2,2.971-2c6.328,0,9.059-1,9.059-1h0.052c0,4.283-4.827,7-9.111,7"/>
<g>
	<path d="M20.841,23C20.57,21.335,20,17.21,20,12h-2c0,5.081,0.516,9.099,0.814,11H20.841z"/>
	<path d="M13.186,23C13.484,21.099,14,17.081,14,12h-2c0,5.132-0.573,9.313-0.843,11H13.186z"/>
</g>
</svg>
