<?xml version="1.0" encoding="iso-8859-1"?>
<!-- Generator: Adobe Illustrator 19.1.0, SVG Export Plug-In . SVG Version: 6.00 Build 0)  -->
<svg version="1.1" id="Layer_1" xmlns="http://www.w3.org/2000/svg" xmlns:xlink="http://www.w3.org/1999/xlink" x="0px" y="0px"
	 viewBox="0 0 32 32" style="enable-background:new 0 0 32 32;" xml:space="preserve">
<path d="M10.5,18C9.672,18,9,17.328,9,16.5S9.671,15,10.5,15c0.828,0,1.5,0.672,1.5,1.5C12,17.328,11.328,18,10.5,18z"/>
<path d="M12,22c-0.552,0-1-0.448-1-1s0.447-1,1-1c0.552,0,1,0.448,1,1C13,21.552,12.552,22,12,22z"/>
<path style="fill:none;stroke:#000000;stroke-width:2;stroke-miterlimit:10;" d="M22.598,9.097
	c-1.826-2.205-5.719-2.861-7.466-1.048c-1.598,1.659-1.514,4.77,0.312,6.975s5.131,2.773,7.107,1.137
	C24.526,14.524,24.424,11.302,22.598,9.097z"/>
<path d="M18.465,11.418c-0.634,0.655-1.58,0.775-2.113,0.268c-0.533-0.507-0.451-1.449,0.184-2.104
	c0.634-0.655,1.58-0.775,2.113-0.268C19.181,9.821,19.099,10.763,18.465,11.418z"/>
<line style="fill:none;stroke:#000000;stroke-width:2;stroke-linejoin:round;stroke-miterlimit:10;" x1="16.022" y1="15.978" x2="13.672" y2="18.328"/>
<path style="fill:none;stroke:#000000;stroke-width:2;stroke-miterlimit:10;" d="M14,25.5c0-1.38,1.118-2.5,2.5-2.5
	c0.065,0,0.127,0.014,0.191,0.019l0.557-0.601l-8.583-9.101L6.12,16.808l6.797,10.281l1.121-1.209C14.019,25.755,14,25.63,14,25.5z"
	/>
<polygon points="28,4 26.136,4.45 21.812,8.774 23.227,10.188 27.55,5.864 "/>
<polygon points="4,28 5.864,27.55 10.188,23.226 8.773,21.812 4.45,26.136 "/>
</svg>
