<?xml version="1.0" encoding="iso-8859-1"?>
<!-- Generator: Adobe Illustrator 19.1.1, SVG Export Plug-In . SVG Version: 6.00 Build 0)  -->
<svg version="1.1" id="Layer_1" xmlns="http://www.w3.org/2000/svg" xmlns:xlink="http://www.w3.org/1999/xlink" x="0px" y="0px"
	 viewBox="0 0 32 32" style="enable-background:new 0 0 32 32;" xml:space="preserve">
<circle style="fill:none;stroke:#000000;stroke-width:2;stroke-miterlimit:10;" cx="10" cy="16" r="8"/>
<path d="M14,7c-0.688,0-1.356,0.085-2,0.232c1.504,0.343,2.862,1.064,3.976,2.057C18.875,10.144,21,12.827,21,16
	s-2.125,5.856-5.024,6.711c-1.114,0.993-2.472,1.714-3.976,2.057C12.644,24.915,13.312,25,14,25c4.963,0,9-4.037,9-9S18.963,7,14,7z
	"/>
<path d="M18,7c-0.688,0-1.356,0.085-2,0.232c1.504,0.343,2.862,1.064,3.976,2.057C22.875,10.144,25,12.827,25,16
	s-2.125,5.856-5.024,6.711c-1.114,0.993-2.472,1.714-3.976,2.057C16.644,24.915,17.312,25,18,25c4.963,0,9-4.037,9-9S22.963,7,18,7z
	"/>
<path d="M21.5,7c-0.58,0-1.139,0.076-1.688,0.183c1.738,0.357,3.293,1.217,4.509,2.42C26.778,10.691,28.5,13.145,28.5,16
	s-1.722,5.309-4.178,6.397c-1.217,1.202-2.771,2.063-4.509,2.42C20.361,24.924,20.92,25,21.5,25c4.963,0,9-4.037,9-9
	S26.463,7,21.5,7z"/>
<polyline style="fill:none;stroke:#000000;stroke-width:2;stroke-miterlimit:10;" points="10,11 10,16 13,19 "/>
</svg>
