<?xml version="1.0" encoding="iso-8859-1"?>
<!-- Generator: Adobe Illustrator 21.0.2, SVG Export Plug-In . SVG Version: 6.00 Build 0)  -->
<svg version="1.1"  xmlns="http://www.w3.org/2000/svg" xmlns:xlink="http://www.w3.org/1999/xlink" x="0px" y="0px"
	 viewBox="0 0 32 32" style="enable-background:new 0 0 32 32;" xml:space="preserve">
<path style="fill:none;stroke:#000000;stroke-width:2;stroke-linecap:round;stroke-miterlimit:10;" d="M15.857,4
	C20.749,4,25,7.829,25,12.552c0,1.181-0.244,2.307-0.696,3.329C23.285,18.182,16,28,16,28s-7.285-9.818-8.304-12.119
	C7.244,14.859,7,13.733,7,12.552C7,7.829,10.966,4,15.857,4"/>
<path d="M19.662,8c-0.113,0-0.214,0.052-0.275,0.131l-2.491,3.458l-1.327-1.149l-0.001-0.001l-0.002-0.002h-0.001
	c-0.057-0.052-0.135-0.084-0.222-0.084c-0.139,0-0.253,0.083-0.297,0.197l-0.004,0.001l-3.023,7.038l0.003,0.001
	C12.01,17.623,12,17.658,12,17.695C12,17.864,12.148,18,12.329,18c0.104,0,0.192-0.047,0.253-0.116l0.003,0.002l3.076-3.414
	l1.469,1.107l0.004-0.001c0.055,0.043,0.124,0.072,0.202,0.072c0.139,0,0.254-0.084,0.298-0.199l0.004-0.001l2.344-7.044
	C19.995,8.375,20,8.344,20,8.312C19.999,8.139,19.849,8,19.662,8z"/>
</svg>
