<?xml version="1.0" encoding="iso-8859-1"?>
<!-- Generator: Adobe Illustrator 19.0.1, SVG Export Plug-In . SVG Version: 6.00 Build 0)  -->
<svg version="1.1" id="Layer_1" xmlns="http://www.w3.org/2000/svg" xmlns:xlink="http://www.w3.org/1999/xlink" x="0px" y="0px"
	 viewBox="0 0 32 32" style="enable-background:new 0 0 32 32;" xml:space="preserve">
<path id="XMLID_490_" style="fill:none;stroke:#000000;stroke-width:2;stroke-miterlimit:10;" d="M21.5,6C22.881,6,24,7.119,24,8.5
	S22.881,11,21.5,11c-1.381,0-4.143-2.5-4.143-2.5S20.119,6,21.5,6z"/>
<g id="XMLID_487_">
	<g id="XMLID_488_">
		<path id="XMLID_489_" style="fill:none;stroke:#000000;stroke-width:2;stroke-miterlimit:10;" d="M23.5,19
			c-1.925,0-3.5,1.575-3.5,3.5s1.575,3.5,3.5,3.5s3.5-1.575,3.5-3.5S25.425,19,23.5,19L23.5,19z"/>
	</g>
</g>
<g id="XMLID_484_">
	<g id="XMLID_485_">
		<path id="XMLID_486_" style="fill:none;stroke:#000000;stroke-width:2;stroke-miterlimit:10;" d="M8.5,19
			C6.575,19,5,20.575,5,22.5S6.575,26,8.5,26s3.5-1.575,3.5-3.5S10.425,19,8.5,19L8.5,19z"/>
	</g>
</g>
<path id="XMLID_464_" style="fill:none;stroke:#000000;stroke-width:2;stroke-miterlimit:10;" d="M25,15l-5.171-0.01l-4.524-3.379
	c-0.418-0.313-1.007-0.25-1.351,0.143l-2.774,3.17c-0.324,0.399-0.174,0.998,0.301,1.195l4.443,1.848
	c0.434,0.181,0.684,0.639,0.6,1.102l-0.904,4.988"/>
</svg>
