<?xml version="1.0" encoding="iso-8859-1"?>
<!-- Generator: Adobe Illustrator 22.0.1, SVG Export Plug-In . SVG Version: 6.00 Build 0)  -->
<svg version="1.1" id="Layer_1" xmlns="http://www.w3.org/2000/svg" xmlns:xlink="http://www.w3.org/1999/xlink" x="0px" y="0px"
	 viewBox="0 0 32 32" style="enable-background:new 0 0 32 32;" xml:space="preserve">
<line style="fill:none;stroke:#000000;stroke-width:2;stroke-linecap:round;stroke-miterlimit:10;" x1="20" y1="19" x2="22" y2="19"/>
<path d="M14.9,13c0-1.2-0.8-2.2-1.9-2.5h1v-2H9.9l-0.7,3.9h3.1c0.3,0,0.6,0.3,0.6,0.6s-0.3,0.6-0.6,0.6h-0.6
	c-0.4-0.1-0.6-0.3-0.6-0.6h-2c0,1.5,1.1,2.6,2.6,2.6h0.6C13.8,15.5,14.9,14.4,14.9,13z"/>
<path d="M21.798,14c-0.142,0.696-0.36,1.364-0.639,2H26v10H16v-4.841c-0.636,0.279-1.304,0.497-2,0.639V28h14V14H21.798z"/>
<path style="fill:none;stroke:#000000;stroke-width:2;stroke-miterlimit:10;" d="M23,7l5,0"/>
<polygon points="24,3 20,7 24,11 "/>
<path style="fill:none;stroke:#000000;stroke-width:2;stroke-miterlimit:10;" d="M9,25H4"/>
<polygon points="8,21 12,25 8,29 "/>
<circle style="fill:none;stroke:#000000;stroke-width:2;stroke-miterlimit:10;" cx="12" cy="12" r="7"/>
</svg>
