<?xml version="1.0" encoding="iso-8859-1"?>
<!-- Generator: Adobe Illustrator 21.0.2, SVG Export Plug-In . SVG Version: 6.00 Build 0)  -->
<svg version="1.1" id="Layer_1" xmlns="http://www.w3.org/2000/svg" xmlns:xlink="http://www.w3.org/1999/xlink" x="0px" y="0px"
	 viewBox="0 0 32 32" style="enable-background:new 0 0 32 32;" xml:space="preserve">
<path d="M18,27h-2c0-0.552-0.449-1-1-1s-1,0.448-1,1h-2c0-1.654,1.346-3,3-3c0.675,0,1.299,0.224,1.801,0.602
	C17.531,23.63,18.693,23,20,23c0-1.307,0.63-2.469,1.602-3.199C21.224,19.299,21,18.675,21,18c0-1.654,1.346-3,3-3v2
	c-0.552,0-1,0.448-1,1s0.448,1,1,1v2c-1.103,0-2,0.897-2,2c0,0.254,0.071,0.507,0.239,0.847l0.292,0.594l-0.938,1.088l-0.719-0.314
	C19.503,24.541,18,25.604,18,27z"/>
<polygon points="18,21 16,13 14,17 10,19 "/>
<polyline style="fill:none;stroke:#000000;stroke-width:2;stroke-miterlimit:10;" points="15,18 9,12 17,9 11.651,3.682 "/>
</svg>
