<?xml version="1.0" encoding="iso-8859-1"?>
<!-- Generator: Adobe Illustrator 19.1.0, SVG Export Plug-In . SVG Version: 6.00 Build 0)  -->
<svg version="1.1" id="Layer_1" xmlns="http://www.w3.org/2000/svg" xmlns:xlink="http://www.w3.org/1999/xlink" x="0px" y="0px"
	 viewBox="0 0 32 32" style="enable-background:new 0 0 32 32;" xml:space="preserve">
<polygon points="14.049,19.365 12.635,17.951 4,26.586 4,28 5.414,28 "/>
<line style="fill:none;stroke:#000000;stroke-width:2;stroke-miterlimit:10;" x1="3" y1="3" x2="29" y2="29"/>
<g>
	<path d="M11.522,12.319c1.16-0.369,2.421-0.417,3.638-0.097l0.659,0.173l4.951-6.778l5.612,5.612l-6.777,4.952l0.174,0.66
		c0.319,1.215,0.271,2.477-0.098,3.638l1.546,1.546c0.703-1.553,0.938-3.304,0.635-5.014l7.587-5.543l-8.915-8.915l-5.543,7.587
		c-1.715-0.305-3.465-0.07-5.016,0.633L11.522,12.319z"/>
	<path d="M8.219,11.845c-0.253,0.201-0.498,0.414-0.73,0.645l-0.707,0.707l12.021,12.021l0.707-0.707
		c0.231-0.231,0.444-0.476,0.644-0.729L8.219,11.845z"/>
</g>
</svg>
