<?xml version="1.0" encoding="iso-8859-1"?>
<!-- Generator: Adobe Illustrator 19.1.1, SVG Export Plug-In . SVG Version: 6.00 Build 0)  -->
<svg version="1.1" id="Layer_1" xmlns="http://www.w3.org/2000/svg" xmlns:xlink="http://www.w3.org/1999/xlink" x="0px" y="0px"
	 viewBox="0 0 32 32" style="enable-background:new 0 0 32 32;" xml:space="preserve">
<path style="fill:none;stroke:#000000;stroke-width:2;stroke-miterlimit:10;" d="M22.389,5.672l4.483,9.157
	c0.297,0.607,0.064,1.285-0.543,1.582l-9.177,4.469c-0.607,0.297-1.285,0.064-1.582-0.543l-4.483-9.157
	c-0.297-0.607-0.064-1.285,0.543-1.582l9.177-4.469C21.414,4.832,22.092,5.064,22.389,5.672z"/>
<path style="fill:none;stroke:#000000;stroke-width:2;stroke-miterlimit:10;" d="M11.253,11.616l-2.265,1.076
	c-0.531,0.26-0.725,0.825-0.466,1.356l0.631,1.29l-2.741,2.28l1.218,2.478l3.483-0.762l0.631,1.29
	c0.26,0.531,0.825,0.725,1.356,0.466l2.284-1.133"/>
<path d="M9,26c0,1.1-0.9,2-2,2s-2-0.9-2-2s2-4,2-4S9,24.9,9,26z"/>
</svg>
