<?xml version="1.0" encoding="iso-8859-1"?>
<!-- Generator: Adobe Illustrator 22.0.1, SVG Export Plug-In . SVG Version: 6.00 Build 0)  -->
<svg version="1.1" id="Layer_1" xmlns="http://www.w3.org/2000/svg" xmlns:xlink="http://www.w3.org/1999/xlink" x="0px" y="0px"
	 viewBox="0 0 32 32" style="enable-background:new 0 0 32 32;" xml:space="preserve">
<g transform="matrix(0.1,0,0,-0.1,0,362)">
	<path d="M267.199,3577.453c-5.5-1.419-17.119-3.986-25.781-5.675c-22.069-4.256-25.575-5.54-35.406-12.701
		c-13.956-10.201-23.719-29.929-23.65-47.832c0.069-6.823,1.1-11.688,2.269-10.404c0.275,0.338,1.238,2.297,2.062,4.324
		c4.194,9.931,16.362,25.064,26.744,33.239c5.294,4.189,15.95,8.31,15.95,6.148c0-0.743-3.644-5.202-7.975-9.661
		c-4.056-4.256-5.431-6.013-13.062-16.89c-7.906-11.417-18.219-31.82-25.162-49.993c-6.738-17.633-11.688-31.685-14.988-42.224
		c-5.569-18.038-10.587-32.293-11.481-32.563c-1.1-0.405-4.125,9.256-10.45,33.239c-9.831,37.563-14.025,50.467-24.062,73.977
		c-6.875,16.011-15.95,28.848-34.375,48.507c-10.106,10.877-24.475,21.281-33.137,24.118c-5.637,1.892-6.119,0.946-1.856-3.716
		c20.075-22.227,31.694-38.711,44-62.154c10.381-19.93,17.531-39.725,30.525-85.124c3.3-11.62,10.588-41.211,12.925-52.696
		c2.613-12.769,5.5-25.267,6.256-27.226c0.275-0.608,1.306-1.419,2.338-1.689c2.337-0.608,13.612-0.608,16.019,0
		c3.575,1.013,4.262,3.783,9.212,35.671c3.3,21.551,6.119,34.455,11.756,53.709c9.556,32.834,19.731,56.885,25.919,60.803
		c0.894,0.541,5.294,1.622,9.9,2.365c17.875,2.905,32.244,10.674,42.419,23.038c6.806,8.242,8.594,14.322,10.312,34.59
		c0.894,10.742,1.444,13.782,3.506,20.2c1.306,4.189,2.2,7.972,2.062,8.445C279.505,3580.493,278.405,3580.358,267.199,3577.453z"/>
</g>
</svg>
