<?xml version="1.0" encoding="iso-8859-1"?>
<!-- Generator: Adobe Illustrator 19.1.1, SVG Export Plug-In . SVG Version: 6.00 Build 0)  -->
<svg version="1.1" id="Layer_1" xmlns="http://www.w3.org/2000/svg" xmlns:xlink="http://www.w3.org/1999/xlink" x="0px" y="0px"
	 viewBox="0 0 32 32" style="enable-background:new 0 0 32 32;" xml:space="preserve">
<path d="M16,3.1c-4.9,0-8.9,3-8.9,10.1s4,15.6,8.9,15.6s8.9-8.5,8.9-15.6S20.9,3.1,16,3.1z M10.3,17.9c-0.3-0.4-0.9-0.5-0.9-0.5
	l-0.1-0.7c0,0,0,0-0.5-1.6c-0.5-1.8-0.6-3.8,0.2-5c0.4-0.7,1-0.9,1-0.9s-0.7,0.9-0.4,1.7c0.2,0.7,1,0.7,1.3,0.5
	c0.2-0.2,0.6-0.4,0.6-0.4s-0.4,1,0.1,2.7c0.3,1.2,0.9,1.9,1.5,2c0.9,0.2,1.9-2,1.9-2s0.1,2.6,0.1,3.1c0,0-0.9,0.5-1.3,1.1
	c-0.3,0.5-1,1.5-1.6,1.8c-0.6-0.4-0.8-0.9-1.2-1.1c-0.4,0-1,0.3-1,0.3S10.6,18.3,10.3,17.9z M19.7,24.9c-0.1,0.3-0.5,0.9-1.1,1.4
	c0-0.3-0.3-0.9-0.3-0.9S18,26.5,18,26.8c-0.1,0-0.1,0.1-0.2,0.1c-0.1-0.5-0.4-1.2-0.4-1.2s-0.3,1.1-0.2,1.4c-0.1,0-0.1,0-0.2,0
	c0-0.8-0.4-2-0.4-2S16,26.7,16,27.2v-0.1v0.1c0-0.5-0.5-2.1-0.5-2.1s-0.4,1.2-0.4,2c-0.1,0-0.1,0-0.2,0c0-0.3-0.2-1.4-0.2-1.4
	s-0.3,0.7-0.4,1.2c-0.1,0-0.1-0.1-0.2-0.1c0-0.3-0.3-1.4-0.3-1.4s-0.3,0.6-0.3,0.9c-0.6-0.5-1-1.1-1.1-1.4c-0.4-0.5-1.6-2.2-1.4-2.8
	c0.1,0.3,0.4,0.9,0.4,0.9s0-0.9,0-1.4l0.1-0.1c0.2,0.9,0.7,2.2,0.7,2.2s0.2-1,0.1-2.6c0.1,0,0.2-0.1,0.2-0.1
	c0.4,1.3,0.8,2.3,0.8,2.3s0.2-0.8,0.3-2.6c0.1,0,0.1,0,0.2-0.1c0.2,1.1,0.6,2.3,0.6,2.3s0.3-1.1,0.4-2.5c0-0.1,0.1,0,0.2,0
	c0.2,1.7,0.5,3.2,0.5,3.2s0.5-1.3,0.5-3.3v0.1v-0.1c0.1,2,0.5,3.3,0.5,3.3s0.4-1.5,0.5-3.2c0.1,0,0.2,0,0.2,0
	c0.1,1.4,0.4,2.5,0.4,2.5s0.4-1.3,0.6-2.3c0.1,0,0.1,0,0.2,0.1c0.1,1.8,0.3,2.6,0.3,2.6s0.4-1,0.8-2.3c0.1,0,0.2,0.1,0.2,0.1
	c-0.1,1.6,0.1,2.6,0.1,2.6s0.5-1.3,0.7-2.2l0.1,0.1c0,0.5,0,1.4,0,1.4s0.3-0.7,0.4-0.9C21.2,22.7,20,24.4,19.7,24.9z M22.7,16.8
	l-0.1,0.7c0,0-0.6,0.1-0.9,0.5c-0.3,0.3,0.2,1.1,0.2,1.1s-0.6-0.3-1-0.3c-0.4,0.2-0.6,0.6-1.2,1.1c-0.6-0.4-1.3-1.3-1.6-1.8
	c-0.4-0.6-1.3-1.1-1.3-1.1c0.1-0.5,0.1-3.1,0.1-3.1s0.9,2.2,1.9,2c0.7-0.2,1.2-0.9,1.5-2c0.6-1.9,0.2-2.9,0.2-2.9s0.4,0.2,0.6,0.3
	c0.3,0.2,1,0.2,1.3-0.5S22,9.1,22,9.1s0.5,0.2,1,0.9c0.7,1.2,0.7,3.2,0.1,5.1C22.7,16.8,22.7,16.8,22.7,16.8z"/>
<path style="fill:none;stroke:#000000;stroke-width:2;stroke-miterlimit:10;" d="M7,14c0-4.971,4.029-10,9-10s9,5.029,9,10
	c0,6.808-4.029,14-9,14S7,20.853,7,14z"/>
</svg>
