<?xml version="1.0" encoding="iso-8859-1"?>
<!-- Generator: Adobe Illustrator 19.1.0, SVG Export Plug-In . SVG Version: 6.00 Build 0)  -->
<svg version="1.1" id="Layer_1" xmlns="http://www.w3.org/2000/svg" xmlns:xlink="http://www.w3.org/1999/xlink" x="0px" y="0px"
	 viewBox="0 0 32 32" style="enable-background:new 0 0 32 32;" xml:space="preserve">
<path style="fill:none;stroke:#000000;stroke-width:2;stroke-miterlimit:10;" d="M5.03,10h21.938c1.248,0,2.192,1.131,1.967,2.359
	l-1.826,10C26.936,23.31,26.108,24,25.142,24H6.863c-0.966,0-1.793-0.69-1.967-1.639l-1.833-10C2.838,11.132,3.781,10,5.03,10z"/>
<circle cx="21" cy="14" r="1"/>
<circle cx="17" cy="14" r="1"/>
<circle cx="13" cy="14" r="1"/>
<circle cx="9" cy="14" r="1"/>
<circle cx="23" cy="17" r="1"/>
<circle cx="19" cy="17" r="1"/>
<circle cx="15" cy="17" r="1"/>
<circle cx="11" cy="17" r="1"/>
<circle cx="21" cy="20" r="1"/>
<circle cx="17" cy="20" r="1"/>
<circle cx="13" cy="20" r="1"/>
<circle cx="9" cy="20" r="1"/>
</svg>
