<?xml version="1.0" encoding="iso-8859-1"?>
<!-- Generator: Adobe Illustrator 19.1.0, SVG Export Plug-In . SVG Version: 6.00 Build 0)  -->
<svg version="1.1" id="Layer_1" xmlns="http://www.w3.org/2000/svg" xmlns:xlink="http://www.w3.org/1999/xlink" x="0px" y="0px"
	 viewBox="0 0 32 32" style="enable-background:new 0 0 32 32;" xml:space="preserve">
<line style="fill:none;stroke:#000000;stroke-width:2;stroke-miterlimit:10;" x1="22" y1="26" x2="19.409" y2="22.114"/>
<circle cx="16" cy="6" r="2"/>
<circle cx="15" cy="25" r="2"/>
<circle cx="24" cy="9" r="2"/>
<circle cx="7" cy="9" r="2"/>
<circle cx="7" cy="18" r="2"/>
<circle cx="22" cy="26" r="2"/>
<circle cx="26" cy="20" r="2"/>
<circle cx="19" cy="17" r="2"/>
<circle cx="15" cy="19" r="1"/>
<circle cx="14" cy="14" r="1"/>
<circle cx="8" cy="24" r="2"/>
<line style="fill:none;stroke:#000000;stroke-width:2;stroke-miterlimit:10;" x1="22" y1="11" x2="23.5" y2="9.5"/>
<line style="fill:none;stroke:#000000;stroke-width:2;stroke-miterlimit:10;" x1="8.687" y1="23.313" x2="11.05" y2="20.95"/>
<line style="fill:none;stroke:#000000;stroke-width:2;stroke-miterlimit:10;" x1="26" y1="20" x2="23" y2="18.8"/>
<line style="fill:none;stroke:#000000;stroke-width:2;stroke-miterlimit:10;" x1="16" y1="6" x2="16" y2="9"/>
<line style="fill:none;stroke:#000000;stroke-width:2;stroke-miterlimit:10;" x1="7" y1="9" x2="10.135" y2="11.438"/>
<path d="M23,13c-0.221,0-0.43,0.044-0.629,0.111C22.771,13.992,23,14.969,23,16c0,0.338-0.032,0.667-0.078,0.992
	C22.948,16.993,22.973,17,23,17c1.105,0,2-0.895,2-2C25,13.895,24.105,13,23,13z"/>
<circle style="fill:none;stroke:#000000;stroke-width:2;stroke-miterlimit:10;" cx="16" cy="16" r="7"/>
</svg>
