<?xml version="1.0" encoding="iso-8859-1"?>
<!-- Generator: Adobe Illustrator 19.0.1, SVG Export Plug-In . SVG Version: 6.00 Build 0)  -->
<svg version="1.1" id="Layer_1" xmlns="http://www.w3.org/2000/svg" xmlns:xlink="http://www.w3.org/1999/xlink" x="0px" y="0px"
	 viewBox="0 0 32 32" style="enable-background:new 0 0 32 32;" xml:space="preserve">
<g id="XMLID_509_">
	<path id="XMLID_510_" style="fill:none;stroke:#000000;stroke-width:2;stroke-miterlimit:10;" d="M16,4C9.4,4,4,9.4,4,16
		s5.4,12,12,12s12-5.4,12-12S22.6,4,16,4L16,4z"/>
</g>
<path id="XMLID_508_" style="fill:none;stroke:#000000;stroke-width:2;stroke-linecap:round;stroke-linejoin:round;stroke-miterlimit:10;" d="
	M11.325,5.664c0,1.544,0.643,6.175,4.76,10.292"/>
<path id="XMLID_507_" style="fill:none;stroke:#000000;stroke-width:2;stroke-linecap:round;stroke-linejoin:round;stroke-miterlimit:10;" d="
	M9.396,25.348c1.287-0.901,5.018-3.602,6.561-9.263"/>
<path id="XMLID_506_" style="fill:none;stroke:#000000;stroke-width:2;stroke-linecap:round;stroke-linejoin:round;stroke-miterlimit:10;" d="
	M27.407,17.115c-1.415-0.772-5.661-2.573-11.322-1.029"/>
<path id="XMLID_505_" style="fill:none;stroke:#000000;stroke-width:2;stroke-linecap:round;stroke-linejoin:round;stroke-miterlimit:10;" d="
	M11.84,8.495c0.772-0.386,7.076-2.444,13.509,0.643"/>
<path id="XMLID_504_" style="fill:none;stroke:#000000;stroke-width:2;stroke-linecap:round;stroke-linejoin:round;stroke-miterlimit:10;" d="
	M13.384,12.354c0.772-0.386,6.819-2.83,13.766,1.029"/>
<path id="XMLID_503_" style="fill:none;stroke:#000000;stroke-width:2;stroke-linecap:round;stroke-linejoin:round;stroke-miterlimit:10;" d="
	M11.711,23.547c-0.643-0.515-6.175-5.403-5.918-12.865"/>
<path id="XMLID_501_" style="fill:none;stroke:#000000;stroke-width:2;stroke-linecap:round;stroke-linejoin:round;stroke-miterlimit:10;" d="
	M14.285,20.074c-0.643-0.515-5.918-4.503-6.047-12.351"/>
<path id="XMLID_500_" style="fill:none;stroke:#000000;stroke-width:2;stroke-linecap:round;stroke-linejoin:round;stroke-miterlimit:10;" d="
	M24.577,16.085c0,0.643-0.515,7.719-6.819,11.45"/>
<path id="XMLID_498_" style="fill:none;stroke:#000000;stroke-width:2;stroke-linecap:round;stroke-linejoin:round;stroke-miterlimit:10;" d="
	M20.46,15.442c0,0.901-0.901,7.462-7.719,11.45"/>
</svg>
