<?xml version="1.0" encoding="iso-8859-1"?>
<!-- Generator: Adobe Illustrator 19.1.1, SVG Export Plug-In . SVG Version: 6.00 Build 0)  -->
<svg version="1.1" id="Layer_1" xmlns="http://www.w3.org/2000/svg" xmlns:xlink="http://www.w3.org/1999/xlink" x="0px" y="0px"
	 viewBox="0 0 32 32" style="enable-background:new 0 0 32 32;" xml:space="preserve">
<path style="fill:none;stroke:#000000;stroke-width:2;stroke-miterlimit:10;" d="M16,27c0,0-10-4.009-10-19c4.966,0,6-3,10-3
	s5.057,3,10,3C26,23.047,16,27,16,27z"/>
<circle style="fill:none;stroke:#000000;stroke-width:2;stroke-miterlimit:10;" cx="16" cy="15" r="5"/>
<path d="M16,9.5c3.035,0,5.5,2.464,5.5,5.5s-2.465,5.5-5.5,5.5s-5.5-2.464-5.5-5.5S12.965,9.5,16,9.5z M15.235,10.832
	c-0.21,0.017-0.446,0.081-0.567,0.113c-0.375,0.102-0.705,0.351-1.021,0.567c-0.355,0.24-0.858,0.438-1.077,0.822
	c-0.092,0.161-0.055,0.271,0,0.369c0.063,0.11,0.126,0.219,0,0.369c-0.124,0.147-0.325,0.158-0.284,0.397
	c0.067,0.386,0.714,0.288,0.964,0.454c0.148,0.098,0.284,0.26,0.17,0.454c-0.122,0.21-0.378,0.127-0.567,0.17
	c-0.194,0.044-0.275,0.09-0.425,0.227c-0.324,0.297-0.532,0.654-0.51,1.106c0.023,0.492,0.347,1.063,0.765,1.332
	c0.21,0.134,0.25,0.147,0.397,0.397c0.415,0.703,1.283,1.661,2.183,1.616c0.173-0.01-0.403-1.968-0.425-2.126
	c-0.124-0.859,0.964-1.758,0.482-2.608c-0.209-0.37-0.539-0.045-0.879-0.028c-0.156,0.008-0.58-0.139-0.624-0.312
	c-0.086-0.34,0.454-0.825,0.765-0.652c0.259,0.144,0.112,0.595,0.454,0.369c0.466-0.309,0.491-0.988,0.624-1.474
	c0.099-0.362,0.478-1.17,0.085-1.474C15.643,10.839,15.445,10.815,15.235,10.832z M17.928,11.173c-0.058-0.004-0.09,0.053-0.17,0.17
	c-0.201,0.292-0.26,0.744-0.369,1.077c-0.132,0.406-0.265,0.958,0.085,1.276c0.48,0.438,0.981-0.051,1.503,0.142
	c0.65,0.238-0.253,0.653-0.51,0.822c-0.328,0.211-0.767,0.615-0.595,1.049c0.069,0.173,0.292,0.264,0.425,0.369
	c0.211,0.164,0.274,0.282,0.34,0.539c0.095,0.37,0.091,0.83-0.057,1.191c-0.154,0.376-0.521,0.602-0.709,0.936
	c0.369,0.056,0.898-0.487,1.106-0.737c0.32-0.382,0.629-0.862,0.851-1.304c0.28-0.557,0.227-1.379,0.227-1.985
	c0-0.53-0.077-1.065-0.34-1.531c-0.065-0.119-0.151-0.241-0.227-0.369c-0.206-0.348-0.451-0.702-0.709-0.964
	c-0.188-0.19-0.381-0.352-0.595-0.51C18.061,11.254,17.986,11.177,17.928,11.173z"/>
</svg>
