<?xml version="1.0" encoding="iso-8859-1"?>
<!-- Generator: Adobe Illustrator 21.1.0, SVG Export Plug-In . SVG Version: 6.00 Build 0)  -->
<svg version="1.1" id="Layer_1" xmlns="http://www.w3.org/2000/svg" xmlns:xlink="http://www.w3.org/1999/xlink" x="0px" y="0px"
	 viewBox="0 0 32 32" style="enable-background:new 0 0 32 32;" xml:space="preserve">
<path d="M8.295,14.888l1.338,1.486l2.196,2.439l-1.354,1.219l7.876,8.748c2.104-0.389,4.029-1.284,5.649-2.554l-2.543-2.844
	l-2.913,2.622L13.3,20.181l1.354-1.219l-3.534-3.925l1.43-1.288L8.994,9.8l5.631-5.203l1.936,2.054L19.506,4l1.555,1.727
	l1.222-1.101C20.42,3.595,18.281,3,16,3C11.546,3,7.618,5.243,5.275,8.658l4.45,4.942L8.295,14.888z"/>
<rect x="12.443" y="8.125" transform="matrix(0.7432 -0.6691 0.6691 0.7432 -3.0286 12.1828)" width="3.824" height="3.824"/>
<rect x="14.661" y="13.425" transform="matrix(0.7432 -0.6691 0.6691 0.7432 -6.0055 15.0275)" width="3.824" height="3.824"/>
<rect x="16.866" y="18.77" transform="matrix(0.7432 -0.6691 0.6691 0.7432 -9.0158 17.8762)" width="3.824" height="3.824"/>
<rect x="18.006" y="7.029" transform="matrix(0.7432 -0.6691 0.6691 0.7432 -0.6624 15.1643)" width="2.832" height="2.832"/>
<rect x="20.162" y="11.752" transform="matrix(0.7432 -0.6691 0.6691 0.7432 -3.2689 17.8197)" width="2.832" height="2.832"/>
<rect x="22.146" y="16.681" transform="matrix(0.7432 -0.6691 0.6691 0.7432 -6.0571 20.4132)" width="2.832" height="2.832"/>
<rect x="24.201" y="21.388" transform="matrix(0.7432 -0.6691 0.6691 0.7432 -8.6792 22.9973)" width="2.832" height="2.832"/>
<rect x="26.889" y="15.726" transform="matrix(0.7432 -0.6691 0.6691 0.7432 -3.967 22.817)" width="1.699" height="1.699"/>
<rect x="24.919" y="11.126" transform="matrix(0.7432 -0.6691 0.6691 0.7432 -1.3951 20.3173)" width="1.699" height="1.699"/>
<rect x="22.947" y="6.479" transform="matrix(0.7432 -0.6691 0.6691 0.7432 1.2079 17.8044)" width="1.699" height="1.699"/>
<path style="fill:none;stroke:#000000;stroke-width:2;stroke-miterlimit:10;" d="M19.361,27.523C18.294,27.834,17.167,28,16,28
	C9.373,28,4,22.627,4,16c0-2.923,1.045-5.601,2.781-7.682"/>
</svg>
