<?xml version="1.0" encoding="iso-8859-1"?>
<!-- Generator: Adobe Illustrator 19.1.1, SVG Export Plug-In . SVG Version: 6.00 Build 0)  -->
<svg version="1.1" id="Layer_1" xmlns="http://www.w3.org/2000/svg" xmlns:xlink="http://www.w3.org/1999/xlink" x="0px" y="0px"
	 viewBox="0 0 32 32" style="enable-background:new 0 0 32 32;" xml:space="preserve">
<rect x="6" y="12" style="fill:none;stroke:#000000;stroke-width:2;stroke-miterlimit:10;" width="20" height="16"/>
<path style="fill:none;stroke:#000000;stroke-width:2;stroke-miterlimit:10;" d="M16,12c0,0-5.291-1.756-6.268-2.732
	s-0.976-2.559,0-3.536s2.559-0.976,3.536,0S16,12,16,12"/>
<path style="fill:none;stroke:#000000;stroke-width:2;stroke-miterlimit:10;" d="M16,12c0,0,1.756-5.291,2.732-6.268
	s2.559-0.976,3.536,0s0.976,2.559,0,3.536S16,12,16,12"/>
<path d="M16,24c0,0,5-2.998,5-5.5c0-1.381-1.119-2.5-2.5-2.5S16,17.119,16,18.5l0,0c0-1.381-1.119-2.5-2.5-2.5S11,17.119,11,18.5
	C11,21.002,16,24,16,24z"/>
</svg>
