<?xml version="1.0" encoding="iso-8859-1"?>
<!-- Generator: Adobe Illustrator 19.1.0, SVG Export Plug-In . SVG Version: 6.00 Build 0)  -->
<svg version="1.1" id="Layer_1" xmlns="http://www.w3.org/2000/svg" xmlns:xlink="http://www.w3.org/1999/xlink" x="0px" y="0px"
	 viewBox="0 0 32 32" style="enable-background:new 0 0 32 32;" xml:space="preserve">
<line style="fill:none;stroke:#000000;stroke-width:2;stroke-miterlimit:10;" x1="16" y1="29" x2="16" y2="23"/>
<line style="fill:none;stroke:#000000;stroke-width:2;stroke-miterlimit:10;" x1="16" y1="9" x2="16" y2="3"/>
<line style="fill:none;stroke:#000000;stroke-width:2;stroke-miterlimit:10;" x1="23" y1="16" x2="29" y2="16"/>
<path d="M8.519,11.004C10.135,8.592,12.885,7,16,7c4.963,0,9,4.038,9,9s-4.037,9-9,9c-3.115,0-5.865-1.592-7.481-4.004l-2.927-1.464
	C7.068,23.868,11.171,27,16,27c6.065,0,11-4.935,11-11S22.065,5,16,5c-4.829,0-8.932,3.132-10.408,7.468L8.519,11.004z"/>
<polygon points="3,16 9,19 8,16 9,13 "/>
</svg>
