<?xml version="1.0" encoding="iso-8859-1"?>
<!-- Generator: Adobe Illustrator 19.1.0, SVG Export Plug-In . SVG Version: 6.00 Build 0)  -->
<svg version="1.1" id="Layer_1" xmlns="http://www.w3.org/2000/svg" xmlns:xlink="http://www.w3.org/1999/xlink" x="0px" y="0px"
	 viewBox="0 0 32 32" style="enable-background:new 0 0 32 32;" xml:space="preserve">
<path style="fill:none;stroke:#000000;stroke-width:2;stroke-miterlimit:10;" d="M10,17V7c0-1.105,0.895-2,2-2h0
	c1.105,0,2,0.895,2,2v8"/>
<path style="fill:none;stroke:#000000;stroke-width:2;stroke-miterlimit:10;" d="M18,15V7c0-1.105,0.895-2,2-2h0
	c1.105,0,2,0.895,2,2v8"/>
<path style="fill:none;stroke:#000000;stroke-width:2;stroke-miterlimit:10;" d="M14,15V5c0-1.105,0.895-2,2-2h0
	c1.105,0,2,0.895,2,2v10"/>
<path style="fill:none;stroke:#000000;stroke-width:2;stroke-miterlimit:10;" d="M10,17v3.172l-2.586-2.586
	c-0.781-0.781-2.047-0.781-2.828,0c-0.781,0.781-0.781,2.047,0,2.828l6.791,6.772C12.421,28.226,13.779,29,15.375,29H20
	c3.314,0,6-2.686,6-6V11c0-1.105-0.895-2-2-2s-2,0.895-2,2v4"/>
</svg>
