<?xml version="1.0" encoding="iso-8859-1"?>
<!-- Generator: Adobe Illustrator 22.0.1, SVG Export Plug-In . SVG Version: 6.00 Build 0)  -->
<svg version="1.1" id="&#x421;&#x43B;&#x43E;&#x439;_1"
	 xmlns="http://www.w3.org/2000/svg" xmlns:xlink="http://www.w3.org/1999/xlink" x="0px" y="0px" viewBox="0 0 32 32"
	 style="enable-background:new 0 0 32 32;" xml:space="preserve">
<g>
	<line style="fill:none;stroke:#000000;stroke-width:2;stroke-miterlimit:10;" x1="3" y1="3" x2="29" y2="29"/>
	<g>
		<path d="M13.177,17.419c-1.117,0.425-2.119,1.086-2.935,1.934l1.414,1.41c0.826-0.866,1.906-1.49,3.121-1.744L13.177,17.419z"/>
		<path d="M5.82,10.063c-0.951,0.656-1.837,1.399-2.644,2.221l1.414,1.414c0.807-0.824,1.711-1.55,2.68-2.186L5.82,10.063z"/>
		<path d="M15.504,16.918l2.238,2.238c1.003,0.307,1.896,0.866,2.602,1.607l1.414-1.41c-1.457-1.516-3.496-2.461-5.758-2.461
			C15.833,16.892,15.669,16.908,15.504,16.918z"/>
		<path d="M9.446,13.688c-1.003,0.591-1.927,1.302-2.735,2.13l1.41,1.414c0.81-0.834,1.755-1.532,2.792-2.077L9.446,13.688z"/>
		<path d="M16,6.893c-3.04,0-5.901,0.769-8.415,2.107l1.494,1.494C11.177,9.479,13.518,8.892,16,8.892
			c4.465,0,8.508,1.844,11.41,4.805l1.414-1.414C25.559,8.958,21.016,6.893,16,6.893z"/>
		<path d="M11.355,12.769l1.572,1.572c0.977-0.286,2.005-0.448,3.073-0.448c3.086,0,5.879,1.281,7.879,3.34l1.41-1.414
			C22.93,13.4,19.641,11.892,16,11.892C14.36,11.892,12.799,12.212,11.355,12.769z"/>
		<path d="M13.781,22.888L16,25.107l2.219-2.219c-0.547-0.605-1.336-0.996-2.219-0.996S14.328,22.283,13.781,22.888z"/>
	</g>
</g>
</svg>
