<?xml version="1.0" encoding="iso-8859-1"?>
<!-- Generator: Adobe Illustrator 19.1.1, SVG Export Plug-In . SVG Version: 6.00 Build 0)  -->
<svg version="1.1" id="Layer_1" xmlns="http://www.w3.org/2000/svg" xmlns:xlink="http://www.w3.org/1999/xlink" x="0px" y="0px"
	 viewBox="0 0 32 32" style="enable-background:new 0 0 32 32;" xml:space="preserve">
<polyline style="fill:none;stroke:#000000;stroke-width:2;stroke-miterlimit:10;" points="7,20 7,21 8.95,27 9.05,27 10.45,22.5 
	10.55,22.5 11.95,27 12.05,27 14,21 14,20 "/>
<line style="fill:none;stroke:#000000;stroke-width:2;stroke-miterlimit:10;" x1="17" y1="20" x2="17" y2="28"/>
<line id="XMLID_318_" style="fill:none;stroke:#000000;stroke-width:2;stroke-miterlimit:10;" x1="21" y1="20" x2="21" y2="28"/>
<line id="XMLID_312_" style="fill:none;stroke:#000000;stroke-width:2;stroke-miterlimit:10;" x1="25" y1="20" x2="25" y2="28"/>
<line id="XMLID_311_" style="fill:none;stroke:#000000;stroke-width:2;stroke-miterlimit:10;" x1="21" y1="22" x2="25" y2="26"/>
<line style="fill:none;stroke:#000000;stroke-width:2;stroke-miterlimit:10;" x1="4" y1="18" x2="28" y2="18"/>
<polygon style="fill:none;stroke:#000000;stroke-width:2;stroke-miterlimit:10;" points="13,15 14,10 18,10 19,15 "/>
<polygon points="16,10 16,15 19,15 18,10 "/>
<line style="fill:none;stroke:#000000;stroke-width:2;stroke-miterlimit:10;" x1="16" y1="4" x2="16" y2="7"/>
<line style="fill:none;stroke:#000000;stroke-width:2;stroke-miterlimit:10;" x1="6" y1="15" x2="9" y2="15"/>
<line style="fill:none;stroke:#000000;stroke-width:2;stroke-miterlimit:10;" x1="23" y1="15" x2="26" y2="15"/>
<line style="fill:none;stroke:#000000;stroke-width:2;stroke-miterlimit:10;" x1="21.75" y1="9.813" x2="24" y2="8"/>
<line style="fill:none;stroke:#000000;stroke-width:2;stroke-miterlimit:10;" x1="10.25" y1="9.813" x2="8" y2="8"/>
</svg>
