<?xml version="1.0" encoding="iso-8859-1"?>
<!-- Generator: Adobe Illustrator 19.1.0, SVG Export Plug-In . SVG Version: 6.00 Build 0)  -->
<svg version="1.1" id="Layer_1" xmlns="http://www.w3.org/2000/svg" xmlns:xlink="http://www.w3.org/1999/xlink" x="0px" y="0px"
	 viewBox="0 0 32 32" style="enable-background:new 0 0 32 32;" xml:space="preserve">
<path d="M18,25.305C17.501,25.144,16.835,25,16,25s-1.501,0.144-2,0.305v1.979C14.458,27.681,15.104,28,16,28s1.542-0.319,2-0.716
	V25.305z"/>
<path d="M23.25,8.473l-1.732,1.146c2.772,2.22,4.278,5.457,4.462,9.659c-1.896,0.241-4.854,0.912-5.86,2.775
	c-0.34,0.629-0.597,1.327-0.844,2.002c-0.24,0.653-0.467,1.27-0.735,1.733C18.24,26.309,17.648,27,16,27s-2.24-0.691-2.541-1.211
	c-0.269-0.464-0.495-1.08-0.735-1.733c-0.247-0.675-0.504-1.373-0.844-2.002c-1.007-1.863-3.965-2.534-5.86-2.775
	c0.184-4.202,1.69-7.44,4.462-9.659L8.75,8.473C5.611,11.229,4,15.152,4,20.18v0.927l0.925,0.07c2.112,0.16,4.64,0.801,5.195,1.828
	c0.271,0.503,0.503,1.132,0.727,1.74c0.259,0.704,0.525,1.433,0.882,2.047C12.578,28.258,14.015,29,16,29s3.422-0.742,4.271-2.208
	c0.356-0.614,0.623-1.343,0.882-2.047c0.224-0.608,0.455-1.237,0.727-1.74c0.556-1.027,3.083-1.668,5.195-1.828L28,21.106V20.18
	C28,15.152,26.389,11.229,23.25,8.473z"/>
<path d="M20.485,16c0.686,0.686,0.686,1.799,0,2.485s-1.799,0.686-2.485,0L20.485,16z"/>
<path d="M14,18.485c-0.686,0.686-1.799,0.686-2.485,0s-0.686-1.799,0-2.485L14,18.485z"/>
<path style="fill:none;stroke:#000000;stroke-width:2;stroke-miterlimit:10;" d="M6.909,12.058c0,0-0.909-1.936-0.909-3.872
	C6,5.96,7.429,4,7.429,4l4.533,3c0,0,1.275-1,4.039-1s4.039,1,4.039,1l4.533-3C24.573,4,26,5.96,26,8.186
	c0,1.936-0.909,3.872-0.909,3.872"/>
</svg>
