<?xml version="1.0" encoding="iso-8859-1"?>
<!-- Generator: Adobe Illustrator 19.1.0, SVG Export Plug-In . SVG Version: 6.00 Build 0)  -->
<svg version="1.1" id="Layer_1" xmlns="http://www.w3.org/2000/svg" xmlns:xlink="http://www.w3.org/1999/xlink" x="0px" y="0px"
	 viewBox="0 0 32 32" style="enable-background:new 0 0 32 32;" xml:space="preserve">
<path d="M23.942,22.044c-1.201,1.574-2.849,2.785-4.763,3.429c0.488-0.94,0.878-2.092,1.171-3.37
	c-0.566-0.571-1.222-1.281-1.904-2.103h-5.158c-0.138-0.917-0.232-1.921-0.269-3h3.27c-0.392-0.641-0.76-1.307-1.078-2h-2.192
	c0.037-1.079,0.131-2.083,0.269-3h0.938C14.092,11.34,14,10.673,14,10h-0.314c0.139-0.55,0.295-1.042,0.459-1.489
	c0.334-1.767,1.252-3.325,2.544-4.476C16.459,4.022,16.232,4,16,4C9.383,4,4,9.383,4,16s5.383,12,12,12
	c6.383,0,11.604-5.014,11.965-11.309C26.783,18.82,25.275,20.719,23.942,22.044z M6.841,12h4.428c-0.132,0.973-0.218,1.981-0.251,3
	H6.051C6.156,13.943,6.431,12.935,6.841,12z M6.841,20c-0.41-0.935-0.685-1.942-0.79-3h4.967c0.033,1.019,0.118,2.027,0.251,3H6.841
	z M8.019,22h3.606c0.295,1.32,0.695,2.507,1.197,3.473C10.888,24.823,9.223,23.597,8.019,22z M11.625,10H8.019
	c1.204-1.597,2.869-2.823,4.802-3.473C12.32,7.493,11.92,8.68,11.625,10z M16,26c-0.727,0-1.68-1.485-2.314-4h4.629
	C17.68,24.515,16.727,26,16,26z"/>
<path style="fill:none;stroke:#000000;stroke-width:2;stroke-miterlimit:10;" d="M27,10c0,2.761-5,10-5,10s-5-7.239-5-10
	s2.239-5,5-5S27,7.239,27,10z"/>
<circle cx="22" cy="10" r="1.5"/>
</svg>
