<?xml version="1.0" encoding="utf-8"?>
<!-- Generator: Adobe Illustrator 18.0.0, SVG Export Plug-In . SVG Version: 6.00 Build 0)  -->
<svg version="1.1" id="Layer_1" xmlns="http://www.w3.org/2000/svg" xmlns:xlink="http://www.w3.org/1999/xlink" x="0px" y="0px"
	 viewBox="0 0 32 32" enable-background="new 0 0 32 32" xml:space="preserve">
<path fill="none" stroke="#000000" stroke-width="2" stroke-miterlimit="10" d="M19,14.4L19,14.4c0-0.7-0.5-1.4-1.5-1.4
	c-0.8,0-1.5,0.7-1.5,1.5v0c0,0.8,0.7,1.5,1.5,1.5h0c0.8,0,1.5,0.7,1.5,1.5v0c0,0.8-0.6,1.5-1.5,1.5c-1.1,0-1.5-0.6-1.5-1.4l0,0"/>
<rect x="1" y="8" fill="none" stroke="#000000" stroke-width="2" stroke-miterlimit="10" width="30" height="16"/>
<polyline fill="none" stroke="#000000" stroke-width="2" stroke-miterlimit="10" points="6,12 6,13 7.9,19 8.1,19 9.4,14.5 
	9.6,14.5 10.9,19 11.1,19 13,13 13,12 "/>
<line id="XMLID_33_" fill="none" stroke="#000000" stroke-width="2" stroke-miterlimit="10" x1="22" y1="12" x2="22" y2="20"/>
<line id="XMLID_32_" fill="none" stroke="#000000" stroke-width="2" stroke-miterlimit="10" x1="25" y1="12" x2="25" y2="20"/>
<line fill="none" stroke="#000000" stroke-width="2" stroke-miterlimit="10" x1="22" y1="16" x2="25" y2="16"/>
</svg>
