<?xml version="1.0" encoding="iso-8859-1"?>
<!-- Generator: Adobe Illustrator 19.1.1, SVG Export Plug-In . SVG Version: 6.00 Build 0)  -->
<svg version="1.1" id="Layer_1" xmlns="http://www.w3.org/2000/svg" xmlns:xlink="http://www.w3.org/1999/xlink" x="0px" y="0px"
	 viewBox="0 0 32 32" style="enable-background:new 0 0 32 32;" xml:space="preserve">
<g>
	<g>
		<path style="fill:none;stroke:#000000;stroke-width:2;" d="M27.398,15.866c0,0-0.07-0.076-0.192-0.194"/>
		<path style="fill:none;stroke:#000000;stroke-width:2;stroke-dasharray:0.9177,0.9177;" d="M26.832,15.335
			c-0.475-0.4-1.173-0.879-1.785-0.879c-0.837,0-1.664,0.537-2.496,1.117"/>
		<path style="fill:none;stroke:#000000;stroke-width:2;" d="M22.34,15.72c-0.075,0.053-0.15,0.105-0.226,0.157"/>
	</g>
</g>
<path style="fill:none;stroke:#000000;stroke-width:2;stroke-miterlimit:10;" d="M20,4c1.224,0,3.74,0.921,4,4
	c1.162,0,4.213,0.941,2.349,4.255"/>
<path style="fill:none;stroke:#000000;stroke-width:2;stroke-miterlimit:10;" d="M16.443,4C16.443,4,15,5.58,15,7
	c0,4.379,6.963,0.356,8.047,5.255"/>
<polyline style="fill:none;stroke:#000000;stroke-width:2;stroke-miterlimit:10;" points="4.747,21 13,28 28,28 "/>
<g>
	<polygon points="9.369,23.609 4.078,27.327 5.229,28.963 10.946,24.947 	"/>
	<polygon points="12.637,23.758 22.772,16.638 21.622,15.001 11.061,22.421 	"/>
</g>
</svg>
