<?xml version="1.0" encoding="iso-8859-1"?>
<!-- Generator: Adobe Illustrator 19.1.1, SVG Export Plug-In . SVG Version: 6.00 Build 0)  -->
<svg version="1.1"  xmlns="http://www.w3.org/2000/svg" xmlns:xlink="http://www.w3.org/1999/xlink" x="0px" y="0px"
	 viewBox="0 0 32 32" style="enable-background:new 0 0 32 32;" xml:space="preserve">
<path d="M31,15.382l-15,7.5c-8.308-4.155-12.686-6.344-15-7.501v2.236c5.223,2.611,14.553,7.277,14.553,7.277L16,25.118l15-7.5
	V15.382z"/>
<path d="M25.192,16.05l2.288-1.144C25.295,10.799,20.976,8,16,8c-5.077,0-9.463,2.917-11.603,7.16C6.67,12.038,10.343,10,14.5,10
	C19.04,10,23.003,12.429,25.192,16.05z"/>
<path d="M21.61,17.841l2.294-1.147C22.377,13.897,19.41,12,16,12c-3.709,0-6.892,2.245-8.27,5.449C9.273,15.36,11.741,14,14.531,14
	C17.493,14,20.096,15.529,21.61,17.841z"/>
<path d="M17.969,19.661l2.299-1.15C19.407,17.017,17.815,16,15.971,16c-2.196,0-4.039,1.436-4.702,3.415
	C12.086,18.548,13.235,18,14.518,18C15.915,18,17.147,18.655,17.969,19.661z"/>
</svg>
