<?xml version="1.0" encoding="iso-8859-1"?>
<!-- Generator: Adobe Illustrator 19.1.0, SVG Export Plug-In . SVG Version: 6.00 Build 0)  -->
<svg version="1.1" id="Layer_1" xmlns="http://www.w3.org/2000/svg" xmlns:xlink="http://www.w3.org/1999/xlink" x="0px" y="0px"
	 viewBox="0 0 32 32" style="enable-background:new 0 0 32 32;" xml:space="preserve">
<path id="XMLID_8_" d="M17,4.812V4h-2v2.527c-0.758-0.706-1.696-1.232-2.758-1.498l-0.484,1.94c1.002,0.251,1.838,0.845,2.413,1.633
	C14.558,6.987,15.599,5.625,17,4.812z"/>
<path id="XMLID_6765_" style="fill:none;stroke:#000000;stroke-width:2;stroke-miterlimit:10;" d="M21,11
	c-2.049,0-3.806,1.236-4.578,3h-0.844c-0.772-1.764-2.529-3-4.578-3c-2.762,0-5,2.239-5,5c0,4.917,7.785,5.192,9.9,10h0.2
	c2.002-5.001,9.9-5.018,9.9-10C26,13.239,23.761,11,21,11z"/>
<path style="fill:none;stroke:#000000;stroke-width:2;stroke-miterlimit:10;" d="M16,14v-4c0-2.209,1.796-4,4-4c1.068,0,2,0.5,2,0.5
	"/>
<line style="fill:none;stroke:#000000;stroke-width:2;stroke-miterlimit:10;" x1="16" y1="28" x2="16" y2="26"/>
</svg>
