<?xml version="1.0" encoding="utf-8"?>
<!-- Generator: Adobe Illustrator 18.0.0, SVG Export Plug-In . SVG Version: 6.00 Build 0)  -->
<svg version="1.1" id="Layer_1" xmlns="http://www.w3.org/2000/svg" xmlns:xlink="http://www.w3.org/1999/xlink" x="0px" y="0px"
	 viewBox="0 0 32 32" enable-background="new 0 0 32 32" xml:space="preserve">
<path fill="none" stroke="#000000" stroke-width="2" stroke-miterlimit="10" d="M20,5v5l7,14v1c0,1.1-0.9,2-2,2H7c-1.1,0-2-0.9-2-2
	v-1l7-14V5"/>
<line fill="none" stroke="#000000" stroke-width="2" stroke-miterlimit="10" x1="9" y1="5" x2="23" y2="5"/>
<path fill="none" stroke="#000000" stroke-width="2" stroke-miterlimit="10" d="M20.9,18.1c0,0-1.7-0.2-3.1,0.5
	C17.4,17.1,16,16,16,16s-1.4,1.1-1.8,2.6c-1.4-0.7-3.1-0.5-3.1-0.5s-0.3,2.5,1.1,3.9S16,23,16,23s2.5,0.3,3.9-1.1
	S20.9,18.1,20.9,18.1z"/>
</svg>
