<?xml version="1.0" encoding="iso-8859-1"?>
<!-- Generator: Adobe Illustrator 19.1.1, SVG Export Plug-In . SVG Version: 6.00 Build 0)  -->
<svg version="1.1" id="Layer_1" xmlns="http://www.w3.org/2000/svg" xmlns:xlink="http://www.w3.org/1999/xlink" x="0px" y="0px"
	 viewBox="0 0 32 32" style="enable-background:new 0 0 32 32;" xml:space="preserve">
<line style="fill:none;stroke:#000000;stroke-width:2;stroke-miterlimit:10;" x1="20" y1="11" x2="20" y2="3"/>
<path style="fill:none;stroke:#000000;stroke-width:2;stroke-miterlimit:10;" d="M14.194,6.211c0,0,3.368-0.617,6.281,0.743
	c2.864,1.337,4.579,4.363,4.579,4.363l-7.229,15.56c0,0-3.231,0.655-6.281-0.743c-3.297-1.55-4.579-4.363-4.579-4.363L14.194,6.211z
	"/>
<line style="fill:none;stroke:#000000;stroke-width:2;stroke-miterlimit:10;" x1="17" y1="15" x2="13.283" y2="23"/>
<g>
	<path d="M24,18.142v7.354c-0.634,0.428-2.091,1.255-4.094,1.458l-0.578,1.245l-0.338,0.801C18.994,28.999,18.997,29,19,29
		c3.964,0,6.54-2.146,6.647-2.237l0.353-0.3V13.837L24,18.142z"/>
</g>
<path d="M19,9v1.5c0,0.276-0.224,0.5-0.5,0.5S18,10.776,18,10.5V9.277c-0.595,0.346-1,0.984-1,1.723c0,1.105,0.895,2,2,2
	s2-0.895,2-2C21,9.895,20.105,9,19,9z"/>
</svg>
