<?xml version="1.0" encoding="iso-8859-1"?>
<!-- Generator: Adobe Illustrator 19.1.0, SVG Export Plug-In . SVG Version: 6.00 Build 0)  -->
<svg version="1.1" id="Layer_1" xmlns="http://www.w3.org/2000/svg" xmlns:xlink="http://www.w3.org/1999/xlink" x="0px" y="0px"
	 viewBox="0 0 32 32" style="enable-background:new 0 0 32 32;" xml:space="preserve">
<path style="fill:none;stroke:#000000;stroke-width:2;stroke-miterlimit:10;" d="M5,24h22c1.105,0,2-0.895,2-2v0
	c0-1.105-0.895-2-2-2H5c-1.105,0-2,0.895-2,2v0C3,23.105,3.895,24,5,24z"/>
<path style="fill:none;stroke:#000000;stroke-width:2;stroke-miterlimit:10;" d="M28,20H4c-0.552,0-1-0.448-1-1l1-7h1.017
	c0.998,0,1.924,0.455,2.579,1.208C8.623,14.385,11.413,16,19,16l0-4h3c3.866,0,7,3.134,7,7v0C29,19.552,28.552,20,28,20z"/>
<line style="fill:none;stroke:#000000;stroke-width:2;stroke-miterlimit:10;" x1="4" y1="12" x2="4" y2="5"/>
<line style="fill:none;stroke:#000000;stroke-width:2;stroke-miterlimit:10;" x1="16" y1="13" x2="20" y2="9"/>
</svg>
