<?xml version="1.0" encoding="iso-8859-1"?>
<!-- Generator: Adobe Illustrator 19.1.1, SVG Export Plug-In . SVG Version: 6.00 Build 0)  -->
<svg version="1.1" id="Layer_1" xmlns="http://www.w3.org/2000/svg" xmlns:xlink="http://www.w3.org/1999/xlink" x="0px" y="0px"
	 viewBox="0 0 32 32" style="enable-background:new 0 0 32 32;" xml:space="preserve">
<polyline style="fill:none;stroke:#000000;stroke-width:2;stroke-miterlimit:10;" points="5,9 5,5 9,5 "/>
<polyline style="fill:none;stroke:#000000;stroke-width:2;stroke-miterlimit:10;" points="9,27 5,27 5,23 "/>
<polyline style="fill:none;stroke:#000000;stroke-width:2;stroke-miterlimit:10;" points="27,23 27,27 23,27 "/>
<polyline style="fill:none;stroke:#000000;stroke-width:2;stroke-miterlimit:10;" points="23,5 27,5 27,9 "/>
<line style="fill:none;stroke:#000000;stroke-width:2;stroke-miterlimit:10;" x1="4" y1="19" x2="28" y2="19"/>
<path style="fill:none;stroke:#000000;stroke-width:2;stroke-miterlimit:10;" d="M13,5.896c-2.976,1.462-4.715,4.502-4.982,7.515
	L8.013,13.47l-0.002,0.059l-0.009,0.317c-0.004,0.542,0.017,1.282,0.111,2.153"/>
<g>
	<path d="M21.757,16.637c-0.547-0.563-0.767-1.986-0.758-2.601c0-1.082-0.415-2.096-1.169-2.856C19.076,10.419,18.071,10,17,10
		c-2.402,0-3.825,1.861-3.996,3.789L13,13.958c-0.008,1.16,0.147,3.662,1.416,6.042h2.36c-1.605-2.206-1.784-4.896-1.772-6.124
		C15.084,12.973,15.743,12,17,12c0.533,0,1.034,0.209,1.41,0.588C18.791,12.972,19,13.485,19,14.021
		c0,0.026-0.022,2.624,1.323,4.009C20.964,18.692,21.815,19,23,19h1v-2h-1C22.109,17,21.872,16.755,21.757,16.637z"/>
	<path d="M13.303,20c-1.159-2.439-1.311-4.896-1.302-6.065l0.008-0.235C12.215,11.364,13.996,9,17,9
		c1.339,0,2.597,0.524,3.541,1.476C21.482,11.425,22,12.7,22,14.064l2,0.001c0-1.896-0.723-3.67-2.039-4.997
		C20.638,7.734,18.876,7,17,7c-4.206,0-6.697,3.282-6.99,6.588l-0.009,0.317C9.992,15.113,10.13,17.493,11.123,20H13.303z"/>
	<path d="M19.605,18.727c-1.674-1.724-1.606-4.666-1.605-4.695l-0.006,0C17.994,14.021,18,14.011,18,14c0-0.552-0.448-1-1-1
		c-0.54,0-0.974,0.43-0.993,0.966l-0.006,0c-0.005,0.152-0.097,3.689,2.063,6.035H23C21.547,20,20.437,19.583,19.605,18.727z"/>
	<path d="M15.828,22c0.059,0.064,0.112,0.131,0.173,0.194C17.775,24.03,20.195,25,23,25v-2c-1.503,0-2.855-0.346-4.004-1H15.828z"/>
	<path d="M14.526,22h-2.418c0.47,0.785,1.038,1.555,1.736,2.278c0.708,0.733,1.501,1.371,2.358,1.895l1.044-1.706
		c-0.712-0.436-1.373-0.967-1.964-1.579C15.005,22.601,14.758,22.303,14.526,22z"/>
</g>
</svg>
