<?xml version="1.0" encoding="iso-8859-1"?>
<!-- Generator: Adobe Illustrator 19.1.0, SVG Export Plug-In . SVG Version: 6.00 Build 0)  -->
<svg version="1.1" id="Layer_1" xmlns="http://www.w3.org/2000/svg" xmlns:xlink="http://www.w3.org/1999/xlink" x="0px" y="0px"
	 viewBox="0 0 32 32" style="enable-background:new 0 0 32 32;" xml:space="preserve">
<polygon points="10,12 4,13 5,7 "/>
<line id="XMLID_6_" style="stroke:#000000;stroke-width:2;stroke-miterlimit:10;" x1="14" y1="20" x2="14" y2="12"/>
<path style="fill:none;stroke:#000000;stroke-width:2;stroke-miterlimit:10;" d="M5.75,12C7.35,7.903,11.336,5,16,5
	c6.075,0,11,4.925,11,11s-4.925,11-11,11S5,22.075,5,16"/>
<line style="fill:none;stroke:#000000;stroke-width:2;stroke-miterlimit:10;" x1="16" y1="7" x2="16" y2="5"/>
<line style="fill:none;stroke:#000000;stroke-width:2;stroke-miterlimit:10;" x1="16" y1="27" x2="16" y2="25"/>
<line style="fill:none;stroke:#000000;stroke-width:2;stroke-miterlimit:10;" x1="25" y1="16" x2="27" y2="16"/>
<polyline style="fill:none;stroke:#000000;stroke-width:2;stroke-miterlimit:10;" points="14,16 11,16 11,12 "/>
<path style="fill:none;stroke:#000000;stroke-width:2;stroke-miterlimit:10;" d="M19,16h-1c-0.552,0-1,0.448-1,1v1
	c0,0.552,0.448,1,1,1h1c0.552,0,1-0.448,1-1v-1C20,16.448,19.552,16,19,16z"/>
<path style="fill:none;stroke:#000000;stroke-width:2;stroke-miterlimit:10;" d="M19,13h-1c-0.552,0-1,0.448-1,1v1
	c0,0.552,0.448,1,1,1h1c0.552,0,1-0.448,1-1v-1C20,13.448,19.552,13,19,13z"/>
</svg>
