<?xml version="1.0" encoding="iso-8859-1"?>
<!-- Generator: Adobe Illustrator 19.1.1, SVG Export Plug-In . SVG Version: 6.00 Build 0)  -->
<svg version="1.1" id="Layer_1" xmlns="http://www.w3.org/2000/svg" xmlns:xlink="http://www.w3.org/1999/xlink" x="0px" y="0px"
	 viewBox="0 0 32 32" style="enable-background:new 0 0 32 32;" xml:space="preserve">
<path d="M14,21l-6-0.5v-8.9l6-0.6v2.2l-3.789,0.2v1.5l3.263-0.1V17h-3.263v1.6L14,18.8V21z"/>
<path d="M17,11h0.39c0.098,0,0.195,0,0.195,0.097l1.268,1.259c0.098,0.097,0.098,0.194,0,0.29l-0.488,0.484
	c-0.098,0.097-0.195,0.097-0.293,0l-0.585-0.581l0,0H17v3.389c0.878,0.775,1.659,1.355,1.366,1.646
	C18.268,17.777,17.683,17.487,17,17.1v3.485h0.195c1.561-1.162,2.829-3.292,3.22-2.905c0.488,0.387-2.634,4.454-3.024,4.454H17V11z
	 M25,20.488v1.259c0,0.194-0.098,0.29-0.293,0.29h-1.268h-0.488H22c-0.098,0-0.487,0.026-0.61-0.097l-1.268-1.259
	c-0.098-0.097-0.098-0.194,0-0.29l0.488-0.484c0.098-0.097,0.195-0.097,0.293,0l0.585,0.581l0,0h2.049v-1.743
	c-1.171-1.549-3.317-2.808-2.927-3.195C21,15.066,25,18.165,25,18.455V20.488L25,20.488z M25,14c0,0.097,0.007,0.478-0.098,0.582
	l-1.268,1.259c-0.098,0.097-0.195,0.097-0.293,0l-0.488-0.387c-0.098-0.097-0.098-0.194,0-0.29l0.585-0.581l0,0v-2.033h-1.756
	c-1.561,1.162-2.829,3.292-3.22,2.905C17.976,15.066,21,11.097,21.39,11h2.049h1.268C24.902,11,25,11.097,25,11.29V14z"/>
<rect x="17" y="9" style="fill:none;stroke:#000000;stroke-width:2;stroke-linecap:round;stroke-miterlimit:10;" width="10" height="15"/>
<g>
	<path style="fill:none;stroke:#000000;stroke-width:2;stroke-miterlimit:10;" d="M16,5L5,7.444v17.111L16,27h1V5l0,0L16,5z"/>
</g>
</svg>
