<?xml version="1.0" encoding="iso-8859-1"?>
<!-- Generator: Adobe Illustrator 19.1.1, SVG Export Plug-In . SVG Version: 6.00 Build 0)  -->
<svg version="1.1" id="Layer_1" xmlns="http://www.w3.org/2000/svg" xmlns:xlink="http://www.w3.org/1999/xlink" x="0px" y="0px"
	 viewBox="0 0 32 32" style="enable-background:new 0 0 32 32;" xml:space="preserve">
<circle style="fill:none;stroke:#000000;stroke-width:2;stroke-linecap:round;stroke-miterlimit:10;" cx="16" cy="16" r="12"/>
<line style="fill:none;stroke:#000000;stroke-width:2;stroke-miterlimit:10;" x1="21.889" y1="9.553" x2="24.009" y2="7.075"/>
<line style="fill:none;stroke:#000000;stroke-width:2;stroke-miterlimit:10;" x1="10.111" y1="9.553" x2="7.991" y2="7.075"/>
<polygon points="16,18.317 11.349,22.303 12.911,23.598 16,20.951 18.955,23.484 20.605,22.263 "/>
<path d="M10.538,20.366C9.578,19.167,9,17.651,9,16c0-3.86,3.141-7,7-7s7,3.14,7,7c0,1.651-0.578,3.167-1.538,4.366l1.52,1.303
	C24.242,20.12,25,18.147,25,16c0-4.962-4.037-9-9-9s-9,4.038-9,9c0,2.147,0.758,4.12,2.018,5.668L10.538,20.366z"/>
<path d="M19.994,21.74C18.86,22.532,17.485,23,16,23c-1.485,0-2.86-0.468-3.994-1.26l-1.554,1.332C11.982,24.275,13.906,25,16,25
	s4.018-0.725,5.548-1.928L19.994,21.74z"/>
<line style="fill:none;stroke:#000000;stroke-width:2;stroke-miterlimit:10;" x1="16" y1="20" x2="16" y2="12"/>
<polygon points="19.697,16.218 16,10.056 12.303,16.218 8.667,19.334 9.828,20.974 13.857,17.515 16,13.944 18.143,17.515 
	22.233,21.026 23.311,19.316 "/>
</svg>
