<?xml version="1.0" encoding="iso-8859-1"?>
<!-- Generator: Adobe Illustrator 19.2.0, SVG Export Plug-In . SVG Version: 6.00 Build 0)  -->
<svg version="1.1" id="Layer_1" xmlns="http://www.w3.org/2000/svg" xmlns:xlink="http://www.w3.org/1999/xlink" x="0px" y="0px"
	 viewBox="0 0 32 32" style="enable-background:new 0 0 32 32;" xml:space="preserve">
<circle style="fill:none;stroke:#000000;stroke-width:2;stroke-miterlimit:10;" cx="11" cy="18" r="4"/>
<path style="fill:none;stroke:#000000;stroke-width:2;stroke-miterlimit:10;" d="M5,28c0-3.314,2.687-6,6-6c3.314,0,6,2.686,6,6"/>
<rect x="22" y="16" width="2" height="2"/>
<rect x="22" y="12" width="2" height="2"/>
<rect x="22" y="8" width="2" height="2"/>
<rect x="18" y="16" width="2" height="2"/>
<rect x="22" y="20" width="2" height="2"/>
<rect x="18" y="20" width="2" height="2"/>
<rect x="18" y="12" width="2" height="2"/>
<rect x="18" y="8" width="2" height="2"/>
<rect x="14" y="8" width="2" height="2"/>
<g>
	<path d="M16,13.111V12h-1.413C15.104,12.311,15.58,12.682,16,13.111z"/>
	<path d="M10,4v7.08c0.328-0.047,0.66-0.08,1-0.08s0.672,0.033,1,0.08V6h14v18h-6.957c0.316,0.63,0.565,1.297,0.727,2H28V4H10z"/>
</g>
</svg>
