<?xml version="1.0" encoding="iso-8859-1"?>
<!-- Generator: Adobe Illustrator 19.1.0, SVG Export Plug-In . SVG Version: 6.00 Build 0)  -->
<svg version="1.1" id="Layer_1" xmlns="http://www.w3.org/2000/svg" xmlns:xlink="http://www.w3.org/1999/xlink" x="0px" y="0px"
	 viewBox="0 0 32 32" style="enable-background:new 0 0 32 32;" xml:space="preserve">
<line style="fill:none;stroke:#000000;stroke-width:2;stroke-miterlimit:10;" x1="22" y1="14" x2="22" y2="5"/>
<line style="fill:none;stroke:#000000;stroke-width:2;stroke-miterlimit:10;" x1="10" y1="14" x2="10" y2="5"/>
<line style="fill:none;stroke:#000000;stroke-width:2;stroke-miterlimit:10;" x1="5" y1="10" x2="27" y2="10"/>
<path style="fill:none;stroke:#000000;stroke-width:2;stroke-miterlimit:10;" d="M19.5,23c-0.828,0-1.5,0.672-1.5,1.5
	s0.672,1.5,1.5,1.5H25c1.105,0,2-0.895,2-2v-8c0-1.105-0.895-2-2-2h-5.5c-0.828,0-1.5,0.672-1.5,1.5s0.672,1.5,1.5,1.5"/>
<path style="fill:none;stroke:#000000;stroke-width:2;stroke-miterlimit:10;" d="M19.5,17c-0.828,0-1.5,0.672-1.5,1.5
	s0.672,1.5,1.5,1.5"/>
<path style="fill:none;stroke:#000000;stroke-width:2;stroke-miterlimit:10;" d="M19.5,20c-0.828,0-1.5,0.672-1.5,1.5
	s0.672,1.5,1.5,1.5"/>
<line style="fill:none;stroke:#000000;stroke-width:2;stroke-miterlimit:10;" x1="21" y1="17" x2="19" y2="17"/>
<line style="fill:none;stroke:#000000;stroke-width:2;stroke-miterlimit:10;" x1="21" y1="20" x2="19" y2="20"/>
<line style="fill:none;stroke:#000000;stroke-width:2;stroke-miterlimit:10;" x1="21" y1="23" x2="19" y2="23"/>
<path style="fill:none;stroke:#000000;stroke-width:2;stroke-miterlimit:10;" d="M12.5,17c0.828,0,1.5-0.672,1.5-1.5
	S13.328,14,12.5,14H7c-1.105,0-2,0.895-2,2v8c0,1.105,0.895,2,2,2h5.5c0.828,0,1.5-0.672,1.5-1.5S13.328,23,12.5,23"/>
<path style="fill:none;stroke:#000000;stroke-width:2;stroke-miterlimit:10;" d="M12.5,23c0.828,0,1.5-0.672,1.5-1.5
	S13.328,20,12.5,20"/>
<path style="fill:none;stroke:#000000;stroke-width:2;stroke-miterlimit:10;" d="M12.5,20c0.828,0,1.5-0.672,1.5-1.5
	S13.328,17,12.5,17"/>
<line style="fill:none;stroke:#000000;stroke-width:2;stroke-miterlimit:10;" x1="11" y1="23" x2="13" y2="23"/>
<line style="fill:none;stroke:#000000;stroke-width:2;stroke-miterlimit:10;" x1="11" y1="20" x2="13" y2="20"/>
<line style="fill:none;stroke:#000000;stroke-width:2;stroke-miterlimit:10;" x1="11" y1="17" x2="13" y2="17"/>
</svg>
