<?xml version="1.0" encoding="iso-8859-1"?>
<!-- Generator: Adobe Illustrator 19.1.1, SVG Export Plug-In . SVG Version: 6.00 Build 0)  -->
<svg version="1.1" id="Layer_1" xmlns="http://www.w3.org/2000/svg" xmlns:xlink="http://www.w3.org/1999/xlink" x="0px" y="0px"
	 viewBox="-7 9 32 32" style="enable-background:new -7 9 32 32;" xml:space="preserve">
<path d="M8,27h2v8c0,1.654-1.346,3-3,3s-3-1.346-3-3v-1h2v1c0,0.552,0.449,1,1,1s1-0.448,1-1V27z M21,27h-2c0-0.29-0.876-1-2.5-1
	S14,26.71,14,27h-2c0-0.249-1.064-1-3-1c-1.936,0-3,0.751-3,1H4c0-0.29-0.876-1-2.5-1S-1,26.71-1,27h-2
	c0-4.936,4.641-10.418,11-10.948V14h2v2.052C16.359,16.582,21,22.064,21,27z M18.412,24.273C17.049,20.98,13.419,18,9,18
	s-8.049,2.98-9.412,6.273C0.164,24.101,0.805,24,1.5,24c1.485,0,2.743,0.441,3.553,1.136C5.952,24.441,7.35,24,9,24
	s3.048,0.441,3.947,1.136C13.757,24.441,15.015,24,16.5,24C17.195,24,17.836,24.101,18.412,24.273z M0.5,17
	C1.328,17,2,16.328,2,15.5S0.5,12,0.5,12S-1,14.672-1,15.5S-0.328,17,0.5,17z M19.5,18c0.828,0,1.5-0.672,1.5-1.5S19.5,13,19.5,13
	S18,15.672,18,16.5S18.672,18,19.5,18z"/>
</svg>
