<?xml version="1.0" encoding="iso-8859-1"?>
<!-- Generator: Adobe Illustrator 19.1.1, SVG Export Plug-In . SVG Version: 6.00 Build 0)  -->
<svg version="1.1" id="Layer_1" xmlns="http://www.w3.org/2000/svg" xmlns:xlink="http://www.w3.org/1999/xlink" x="0px" y="0px"
	 viewBox="0 0 32 32" style="enable-background:new 0 0 32 32;" xml:space="preserve">
<line style="fill:none;stroke:#000000;stroke-width:2;stroke-miterlimit:10;" x1="22.995" y1="21" x2="22.995" y2="16"/>
<path style="fill:none;stroke:#000000;stroke-width:2;stroke-miterlimit:10;" d="M14.997,15v-2c0-1.105-0.895-2-2-2h0
	c-1.105,0-2,0.895-2,2v2"/>
<path style="fill:none;stroke:#000000;stroke-width:2;stroke-miterlimit:10;" d="M18.997,15v-3c0-1.105-0.895-2-2-2h0
	c-1.105,0-2,0.895-2,2v3"/>
<line style="fill:none;stroke:#000000;stroke-width:2;stroke-miterlimit:10;" x1="18.995" y1="8" x2="18.995" y2="15"/>
<path style="fill:none;stroke:#000000;stroke-width:2;stroke-miterlimit:10;" d="M22.995,6c0-1.105-0.895-2-2-2h0
	c-1.105,0-2,0.895-2,2"/>
<path style="fill:none;stroke:#000000;stroke-width:2;stroke-miterlimit:10;" d="M10.997,15v-1c0-1.105-0.895-2-2-2h0
	c-1.105,0-2,0.895-2,2v9c0,3.314,2.686,6,6,6h5.285c1.726,0,3.368-0.743,4.507-2.04l2.371-2.698
	c1.067-1.214,1.123-3.013,0.134-4.292L22.997,17l-0.002-8"/>
<path style="fill:none;stroke:#000000;stroke-width:2;stroke-miterlimit:10;" d="M21,7.5c0,0,2.672-1.5,3.5-1.5S26,6.672,26,7.5
	S25.328,9,24.5,9S21,7.5,21,7.5z"/>
<path style="fill:none;stroke:#000000;stroke-width:2;stroke-miterlimit:10;" d="M16,7.5C16,6.672,16.672,6,17.5,6S21,7.5,21,7.5
	S18.328,9,17.5,9S16,8.328,16,7.5z"/>
</svg>
