<?xml version="1.0" encoding="iso-8859-1"?>
<!-- Generator: Adobe Illustrator 19.2.0, SVG Export Plug-In . SVG Version: 6.00 Build 0)  -->
<svg version="1.1" id="Layer_1" xmlns="http://www.w3.org/2000/svg" xmlns:xlink="http://www.w3.org/1999/xlink" x="0px" y="0px"
	 viewBox="0 0 32 32" style="enable-background:new 0 0 32 32;" xml:space="preserve">
<circle cx="16" cy="5" r="2"/>
<circle cx="5" cy="9" r="2"/>
<circle cx="5" cy="23" r="2"/>
<circle cx="27" cy="9" r="2"/>
<circle cx="27" cy="23" r="2"/>
<circle cx="16" cy="27" r="2"/>
<polygon points="8,10 8,9.926 5.522,8.378 4.462,10.074 8,12.284 "/>
<g>
	<rect x="15" y="6" width="2" height="3"/>
	<rect x="15" y="23" width="2" height="3.208"/>
</g>
<polygon points="8,22 8,19.924 4.462,22.135 5.522,23.831 8,22.282 "/>
<rect x="10" y="11" style="fill:none;stroke:#000000;stroke-width:2;stroke-miterlimit:10;" width="11.999" height="10"/>
<line style="fill:none;stroke:#000000;stroke-width:2;stroke-linecap:round;stroke-miterlimit:10;" x1="14" y1="14" x2="18" y2="14"/>
<polygon points="24,12.284 27.538,10.074 26.478,8.378 24,9.926 "/>
<polygon points="24,19.924 24,22.282 26.478,23.831 27.538,22.135 "/>
</svg>
