<?xml version="1.0" encoding="iso-8859-1"?>
<!-- Generator: Adobe Illustrator 19.1.0, SVG Export Plug-In . SVG Version: 6.00 Build 0)  -->
<svg version="1.1" id="Layer_1" xmlns="http://www.w3.org/2000/svg" xmlns:xlink="http://www.w3.org/1999/xlink" x="0px" y="0px"
	 viewBox="0 0 32 32" style="enable-background:new 0 0 32 32;" xml:space="preserve">
<path d="M19,11h-2V9h2V11z M15,11h-2V9h2V11z"/>
<polyline style="fill:none;stroke:#000000;stroke-width:2;stroke-miterlimit:10;" points="10,15 10,6 22,6 22,15 "/>
<path d="M24,14H8c-1.654,0-3,1.346-3,3v10h22V17C27,15.346,25.654,14,24,14z M20.207,23.793l-1.414,1.414L16,22.414l-2.793,2.793
	l-1.414-1.414L14.586,21l-2.793-2.793l1.414-1.414L16,19.586l2.793-2.793l1.414,1.414L17.414,21L20.207,23.793z"/>
</svg>
