<?xml version="1.0" encoding="utf-8"?>
<!-- Generator: Adobe Illustrator 18.1.1, SVG Export Plug-In . SVG Version: 6.00 Build 0)  -->
<svg version="1.1" id="Layer_1" xmlns="http://www.w3.org/2000/svg" xmlns:xlink="http://www.w3.org/1999/xlink" x="0px" y="0px"
	 viewBox="0 0 32 32" enable-background="new 0 0 32 32" xml:space="preserve">
<line fill="none" stroke="#000000" stroke-width="2" stroke-miterlimit="10" x1="23" y1="4" x2="23" y2="19"/>
<path fill="none" stroke="#000000" stroke-width="2" stroke-miterlimit="10" d="M24.2,19h-2.5c-1,0-1.9,0.8-2,1.8L19,27h8l-0.8-6.2
	C26.1,19.8,25.2,19,24.2,19z"/>
<line fill="none" stroke="#000000" stroke-width="2" stroke-miterlimit="10" x1="19.6" y1="22" x2="26.4" y2="22"/>
<polygon points="10.8,14 12.2,16 15.8,16 14.2,26 7.8,26 6.2,16 9,16 8,14 3.8,14 6.2,28 15.8,28 18.2,14 "/>
<path fill="none" stroke="#000000" stroke-width="2" stroke-miterlimit="10" d="M8,13c0-1.7,1.3-3,3-3s3,1.3,3,3"/>
<path fill="none" stroke="#000000" stroke-width="2" stroke-miterlimit="10" d="M14,13c0-0.8,0.7-1.5,1.5-1.5c0.8,0,1.5,0.7,1.5,1.5
	"/>
<line fill="none" stroke="#000000" stroke-width="2" stroke-miterlimit="10" x1="11" y1="18" x2="5" y2="10"/>
<circle cx="11" cy="18" r="1"/>
</svg>
