<?xml version="1.0" encoding="utf-8"?>
<!-- Generator: Adobe Illustrator 18.1.1, SVG Export Plug-In . SVG Version: 6.00 Build 0)  -->
<svg version="1.1" id="Layer_1" xmlns="http://www.w3.org/2000/svg" xmlns:xlink="http://www.w3.org/1999/xlink" x="0px" y="0px"
	 viewBox="0 0 32 32" enable-background="new 0 0 32 32" xml:space="preserve">
<polygon fill="none" stroke="#000000" stroke-width="2" stroke-miterlimit="10" points="6.8,5.8 6,13.1 6.6,13.1 10.5,6.8 "/>
<polygon fill="none" stroke="#000000" stroke-width="2" stroke-miterlimit="10" points="18.2,6.7 19.1,9.5 19.1,11.3 21.8,10.4 
	24.3,11.2 24.4,11 23.2,8.4 23,5 22.8,4.8 20.6,7 "/>
<polygon fill="none" stroke="#000000" stroke-width="2" stroke-miterlimit="10" points="10.6,16.8 14.5,12.2 14.3,16.8 18.9,16.8 
	18,19.5 19.7,22.9 19.4,23.1 15.2,22.3 14.3,26 11.5,23.2 7.3,25.2 6.9,25.1 8.8,19.5 6,18.1 6,17.7 "/>
<polygon fill="none" stroke="#000000" stroke-width="2" stroke-miterlimit="10" points="23.4,17.6 23.9,15.6 26,15 27.5,16.5 
	27,18.6 24.9,19.2 "/>
<polygon fill="none" stroke="#000000" stroke-width="2" stroke-miterlimit="10" points="26.2,23.4 27.1,27.1 22.5,26.2 22.5,23.8 
	"/>
</svg>
