<?xml version="1.0" encoding="iso-8859-1"?>
<!-- Generator: Adobe Illustrator 21.0.2, SVG Export Plug-In . SVG Version: 6.00 Build 0)  -->
<svg version="1.1"  xmlns="http://www.w3.org/2000/svg" xmlns:xlink="http://www.w3.org/1999/xlink" x="0px" y="0px"
	 viewBox="0 0 32 32" style="enable-background:new 0 0 32 32;" xml:space="preserve">
<line style="fill:none;stroke:#000000;stroke-width:2;stroke-miterlimit:10;" x1="8" y1="14" x2="24" y2="14"/>
<path style="fill:none;stroke:#000000;stroke-width:2;stroke-miterlimit:10;" d="M26,27H6c-0.552,0-1-0.448-1-1V6
	c0-0.552,0.448-1,1-1h20c0.552,0,1,0.448,1,1v20C27,26.552,26.552,27,26,27z"/>
<line style="fill:none;stroke:#000000;stroke-width:2;stroke-miterlimit:10;" x1="22" y1="17" x2="22" y2="14"/>
<line style="fill:none;stroke:#000000;stroke-width:2;stroke-miterlimit:10;" x1="10" y1="17" x2="10" y2="14"/>
<polygon points="12,16 11,24 15,24 15,16 "/>
<polygon points="17,16 17,24 21,24 20,16 "/>
<polygon points="15,12 15,8 13,8 12.5,12 "/>
<polygon points="19.5,12 19,8 17,8 17,12 "/>
</svg>
