<?xml version="1.0" encoding="iso-8859-1"?>
<!-- Generator: Adobe Illustrator 19.2.0, SVG Export Plug-In . SVG Version: 6.00 Build 0)  -->
<svg version="1.1"  xmlns="http://www.w3.org/2000/svg" xmlns:xlink="http://www.w3.org/1999/xlink" x="0px" y="0px"
	 viewBox="0 0 32 32" style="enable-background:new 0 0 32 32;" xml:space="preserve">
<g>
	<path d="M16,21h1.872c0.353-0.746,0.826-1.425,1.405-2H16V21z"/>
	<path d="M17.188,24.024c0-0.008,0.001-0.016,0.001-0.024H5c-0.565,0-1-0.435-1-1V9c0-0.565,0.435-1,1-1h22c0.565,0,1,0.435,1,1
		v9.005c0.781,0.485,1.46,1.116,2,1.857V9c0-1.645-1.355-3-3-3H5C3.355,6,2,7.355,2,9v14c0,1.645,1.355,3,3,3h12.472
		C17.29,25.372,17.188,24.71,17.188,24.024z"/>
	<rect x="16" y="12" width="9" height="2"/>
	<rect x="11" y="19" width="4" height="2"/>
	<rect x="6" y="12" width="5" height="4"/>
	<rect x="6" y="19" width="4" height="2"/>
</g>
<g>
	<g >
		<path d="M23,27h2v2h-2V27z M25,25.7c1-0.4,2-1.4,2-2.7c0-1.2-0.8-3-3-3s-3,1.8-3,3h2c0-0.5,0.2-1,1-1s1,0.5,1,1s-0.5,0.8-0.8,0.9
			H24c-0.6,0.2-1,0.8-1,1.5V26h2V25.7z M32,24c0-4.4-3.6-8-8-8s-8,3.6-8,8s3.6,8,8,8S32,28.4,32,24z M30,24c0,3.3-2.7,6-6,6
			s-6-2.7-6-6s2.7-6,6-6S30,20.7,30,24z"/>
	</g>
</g>
</svg>
