<?xml version="1.0" encoding="iso-8859-1"?>
<!-- Generator: Adobe Illustrator 18.1.1, SVG Export Plug-In . SVG Version: 6.00 Build 0)  -->
<svg version="1.1" id="Layer_1" xmlns="http://www.w3.org/2000/svg" xmlns:xlink="http://www.w3.org/1999/xlink" x="0px" y="0px"
	 viewBox="0 0 32 32" style="enable-background:new 0 0 32 32;" xml:space="preserve">
<circle cx="13.5" cy="16.5" r="1.5"/>
<circle cx="16" cy="19.074" r="1"/>
<circle cx="13" cy="20.074" r="1"/>
<path style="fill:none;stroke:#000000;stroke-width:2;stroke-miterlimit:10;" d="M19.773,24.228C19.905,24.712,20,25,20,25h6
	c0,0,1-3.003,1-6c0-4.978-2.5-8.014-2.5-9c0-0.987,0.5-2.029,0.5-3.5C25,5.119,24.105,4,23,4s-2,1.119-2,2.5
	c0,1.437,0.5,2.486,0.5,3.5c0,0.733-1.301,2.528-2.025,5.329"/>
<path style="fill:none;stroke:#000000;stroke-width:2;stroke-miterlimit:10;" d="M13,12c-4.4,0-8,3.6-8,8s3.6,8,8,8s8-3.6,8-8
	S17.4,12,13,12z"/>
<line style="fill:none;stroke:#000000;stroke-width:2;stroke-miterlimit:10;" x1="21.288" y1="10" x2="24.712" y2="10"/>
<line style="fill:none;stroke:#000000;stroke-width:2;stroke-miterlimit:10;" x1="20.294" y1="13" x2="25.706" y2="13"/>
</svg>
