<?xml version="1.0" encoding="utf-8"?>
<!-- Generator: Adobe Illustrator 18.1.1, SVG Export Plug-In . SVG Version: 6.00 Build 0)  -->
<svg version="1.1" id="Layer_1" xmlns="http://www.w3.org/2000/svg" xmlns:xlink="http://www.w3.org/1999/xlink" x="0px" y="0px"
	 viewBox="0 0 32 32" enable-background="new 0 0 32 32" xml:space="preserve">
<polyline fill="none" stroke="#000000" stroke-width="2" stroke-miterlimit="10" points="13.6,18 18.9,25.9 19.9,23.7 22.3,23.7 
	18.6,18.1 "/>
<polyline fill="none" stroke="#000000" stroke-width="2" stroke-miterlimit="10" points="15.9,21.6 13.1,25.9 12.1,23.7 9.7,23.7 
	13.4,18.1 "/>
<ellipse fill="none" stroke="#000000" stroke-width="2" stroke-miterlimit="10" cx="29" cy="14" rx="2" ry="4"/>
<path fill="none" stroke="#000000" stroke-width="2" stroke-miterlimit="10" d="M29,10H3c-1.1,0-2,1.8-2,4c0,2.2,0.9,4,2,4h26"/>
<path fill="none" stroke="#000000" stroke-width="2" stroke-miterlimit="10" d="M19,10c-1.1,0-2,1.8-2,4s0.9,4,2,4"/>
<path fill="none" stroke="#000000" stroke-width="2" stroke-miterlimit="10" d="M14,10c-1.1,0-2,1.8-2,4s0.9,4,2,4"/>
</svg>
