<?xml version="1.0" encoding="iso-8859-1"?>
<!-- Generator: Adobe Illustrator 19.1.0, SVG Export Plug-In . SVG Version: 6.00 Build 0)  -->
<svg version="1.1" id="Layer_1" xmlns="http://www.w3.org/2000/svg" xmlns:xlink="http://www.w3.org/1999/xlink" x="0px" y="0px"
	 viewBox="0 0 32 32" style="enable-background:new 0 0 32 32;" xml:space="preserve">
<rect x="17.54" y="8.319" transform="matrix(0.9956 0.094 -0.094 0.9956 0.9585 -1.7023)" width="2" height="2"/>
<rect x="21.522" y="8.695" transform="matrix(0.9956 0.094 -0.094 0.9956 1.0116 -2.0752)" width="2" height="2"/>
<rect x="17.164" y="12.301" transform="matrix(0.9956 0.094 -0.094 0.9956 1.3314 -1.6493)" width="2" height="2"/>
<rect x="21.146" y="12.677" transform="matrix(0.9956 0.094 -0.094 0.9956 1.3844 -2.0222)" width="2" height="2"/>
<rect x="16.788" y="16.283" transform="matrix(0.9956 0.094 -0.094 0.9956 1.7042 -1.5963)" width="2" height="2"/>
<rect x="16.412" y="20.265" transform="matrix(0.9956 0.094 -0.094 0.9956 2.0771 -1.5432)" width="2" height="2"/>
<rect x="8.944" y="12.501" transform="matrix(0.986 -0.1667 0.1667 0.986 -2.1111 1.8462)" width="2" height="2"/>
<rect x="12.888" y="11.835" transform="matrix(0.986 -0.1667 0.1667 0.986 -1.9448 2.4942)" width="2" height="2"/>
<rect x="9.611" y="16.445" transform="matrix(0.986 -0.1667 0.1667 0.986 -2.7591 2.0125)" width="2" height="2"/>
<rect x="10.277" y="20.389" transform="matrix(0.986 -0.1667 0.1667 0.986 -3.4071 2.1787)" width="2" height="2"/>
<polyline style="fill:none;stroke:#000000;stroke-width:2;stroke-miterlimit:10;" points="14.585,8.66 5.333,10.224 8,26 
	14.095,24.97 "/>
<rect x="13.967" y="5.48" transform="matrix(0.9956 0.094 -0.094 0.9956 1.5443 -1.8092)" style="fill:none;stroke:#000000;stroke-width:2;stroke-miterlimit:10;" width="12" height="20"/>
<polyline style="fill:none;stroke:#000000;stroke-width:2;stroke-miterlimit:10;" points="4,26.669 14.095,24.97 28,26.282 "/>
<polyline style="fill:none;stroke:#000000;stroke-width:2;stroke-miterlimit:10;" points="18.54,25.389 21.68,22 20.787,19 
	22.146,16.64 "/>
</svg>
