<?xml version="1.0" encoding="iso-8859-1"?>
<!-- Generator: Adobe Illustrator 19.1.1, SVG Export Plug-In . SVG Version: 6.00 Build 0)  -->
<svg version="1.1" id="Layer_1" xmlns="http://www.w3.org/2000/svg" xmlns:xlink="http://www.w3.org/1999/xlink" x="0px" y="0px"
	 viewBox="0 0 32 32" style="enable-background:new 0 0 32 32;" xml:space="preserve">
<path style="fill:none;stroke:#000000;stroke-width:2;stroke-miterlimit:10;" d="M9,19V4.99C9,4.443,9.443,4,9.99,4H22.01
	C22.557,4,23,4.443,23,4.99V19"/>
<path d="M8,18v9.12C8,28.158,8.842,29,9.88,29h12.24c1.038,0,1.88-0.842,1.88-1.88V18H8z M16,19c0.552,0,1,0.448,1,1
	c0,0.552-0.448,1-1,1s-1-0.448-1-1C15,19.448,15.448,19,16,19z M13,27h-1.366C10.731,27,10,26.269,10,25.366V25h3V27z M13,24h-3
	v-0.366C10,22.731,10.731,22,11.634,22H13V24z M18,27h-4v-2h4V27z M18,24h-4v-2h4V24z M22,25.366C22,26.269,21.269,27,20.366,27H19
	v-2h3V25.366z M22,24h-3v-2h1.366C21.269,22,22,22.731,22,23.634V24z"/>
</svg>
