<?xml version="1.0" encoding="iso-8859-1"?>
<!-- Generator: Adobe Illustrator 22.1.0, SVG Export Plug-In . SVG Version: 6.00 Build 0)  -->
<svg version="1.1" id="Layer_1" xmlns="http://www.w3.org/2000/svg" xmlns:xlink="http://www.w3.org/1999/xlink" x="0px" y="0px"
	 viewBox="0 0 48 48" style="enable-background:new 0 0 48 48;" xml:space="preserve">
<path style="fill:#616161;" d="M34.873,27.298l-3-8c-0.067-0.178-0.159-0.346-0.272-0.498l-6-8
	c-0.018-0.024-0.043-0.042-0.062-0.066C27.542,10.082,29,8.221,29,6c0-2.761-2.239-5-5-5s-5,2.239-5,5
	c0,2.218,1.454,4.076,3.453,4.731l-5.654,6.462l-5.497-4.712c-0.839-0.718-2.102-0.621-2.82,0.217
	c-0.719,0.839-0.622,2.102,0.217,2.82l7,6c0.833,0.714,2.084,0.624,2.807-0.202L22,17.323v9.352l-5.897,17.692
	c-0.349,1.048,0.217,2.18,1.265,2.53c1.044,0.35,2.181-0.216,2.53-1.265L24,33.325l4.103,12.308C28.382,46.471,29.162,47,30,47
	c0.21,0,0.423-0.033,0.633-0.103c1.048-0.35,1.614-1.482,1.265-2.53L26,26.675V18l2.228,2.971l2.899,7.731
	C31.428,29.505,32.19,30,33,30c0.233,0,0.471-0.041,0.702-0.128C34.736,29.485,35.261,28.332,34.873,27.298z"/>
<g>
	<circle style="fill:#D84315;" cx="24" cy="4" r="2"/>
	<circle style="fill:#D84315;" cx="33" cy="28" r="2"/>
	<circle style="fill:#D84315;" cx="10" cy="14" r="2"/>
	<circle style="fill:#D84315;" cx="17" cy="20" r="2"/>
	<circle style="fill:#D84315;" cx="24" cy="12" r="2"/>
	<circle style="fill:#D84315;" cx="30" cy="20" r="2"/>
	<circle style="fill:#D84315;" cx="24" cy="20" r="2"/>
	<circle style="fill:#D84315;" cx="30" cy="45" r="2"/>
	<circle style="fill:#D84315;" cx="27" cy="36" r="2"/>
	<circle style="fill:#D84315;" cx="21" cy="36" r="2"/>
	<circle style="fill:#D84315;" cx="18" cy="45" r="2"/>
</g>
<circle style="fill:#EF6C00;" cx="24" cy="28" r="2"/>
</svg>
