<?xml version="1.0" encoding="iso-8859-1"?>
<!-- Generator: Adobe Illustrator 19.1.0, SVG Export Plug-In . SVG Version: 6.00 Build 0)  -->
<svg version="1.1" id="Layer_1" xmlns="http://www.w3.org/2000/svg" xmlns:xlink="http://www.w3.org/1999/xlink" x="0px" y="0px"
	 viewBox="0 0 32 32" style="enable-background:new 0 0 32 32;" xml:space="preserve">
<path style="fill:none;stroke:#000000;stroke-width:2;stroke-linejoin:round;stroke-miterlimit:10;" d="M16,12c0,1.104,0.895,2,2,2
	s2-0.896,2-2"/>
<path style="fill:none;stroke:#000000;stroke-width:2;stroke-linejoin:round;stroke-miterlimit:10;" d="M20,12c0,1.104,0.895,2,2,2
	s2-0.896,2-2"/>
<path style="fill:none;stroke:#000000;stroke-width:2;stroke-linejoin:round;stroke-miterlimit:10;" d="M12,12c0,1.104,0.895,2,2,2
	s2-0.896,2-2"/>
<path style="fill:none;stroke:#000000;stroke-width:2;stroke-linejoin:round;stroke-miterlimit:10;" d="M8,12c0,1.104,0.895,2,2,2
	s2-0.896,2-2"/>
<path d="M19.5,19.5c0,0.828-0.672,1.5-1.5,1.5v-3C18.828,18,19.5,18.672,19.5,19.5z"/>
<path d="M14,21c-0.828,0-1.5-0.672-1.5-1.5S13.172,18,14,18V21z"/>
<polyline style="fill:none;stroke:#000000;stroke-width:2;stroke-miterlimit:10;" points="5,14 5,26 27,26 27,14 "/>
<path style="fill:none;stroke:#000000;stroke-width:2;stroke-miterlimit:10;" d="M24,12c0,1.104,0.895,2,2,2s2-0.896,2-2l-2-6H6
	l-2,6c0,1.104,0.895,2,2,2s2-0.896,2-2"/>
<line style="fill:none;stroke:#000000;stroke-width:2;stroke-miterlimit:10;" x1="16" y1="26" x2="16" y2="14"/>
</svg>
