<?xml version="1.0" encoding="iso-8859-1"?>
<!-- Generator: Adobe Illustrator 19.1.1, SVG Export Plug-In . SVG Version: 6.00 Build 0)  -->
<svg version="1.1" id="Layer_1" xmlns="http://www.w3.org/2000/svg" xmlns:xlink="http://www.w3.org/1999/xlink" x="0px" y="0px"
	 viewBox="-8 10 32 32" style="enable-background:new -8 10 32 32;" xml:space="preserve">
<path d="M17.5,24c-0.596,0-1.162,0.122-1.684,0.334C15.934,23.878,16,23.431,16,23c0-3.309-2.691-6-6-6
	c-2.084,0-3.924,1.068-5,2.687C3.924,18.068,2.084,17,0,17c-3.309,0-6,2.691-6,6c0,5.419,9.418,11.125,10.492,11.758l0.457,0.27
	l0.479-0.227c0.037-0.018,0.916-0.438,2.146-1.299c0.249-0.174,0.523-0.374,0.798-0.575c2.025,2.026,4.682,3.528,5.148,3.783
	L14,36.973l0.48-0.263C15.25,36.289,22,32.48,22,28.5C22,26.019,19.981,24,17.5,24z M5.032,32.747C2.125,30.945-4,26.435-4,23
	c0-2.206,1.794-4,4-4s4,1.794,4,4h2c0-2.206,1.794-4,4-4c2.206,0,4,1.794,4,4c0,0.484-0.129,1.021-0.384,1.597
	c-0.064,0.145-0.159,0.3-0.239,0.451C12.596,24.396,11.595,24,10.5,24C8.019,24,6,26.019,6,28.5c0,0.995,0.422,1.979,1.066,2.902
	c-0.217,0.158-0.439,0.321-0.639,0.46C5.851,32.267,5.363,32.561,5.032,32.747z M14,34.684c-2.502-1.465-6-4.199-6-6.184
	c0-1.379,1.121-2.5,2.5-2.5s2.5,1.121,2.5,2.5h2c0-1.379,1.121-2.5,2.5-2.5s2.5,1.121,2.5,2.5C20,30.484,16.502,33.219,14,34.684z"
	/>
</svg>
