<?xml version="1.0" encoding="iso-8859-1"?>
<!-- Generator: Adobe Illustrator 19.1.1, SVG Export Plug-In . SVG Version: 6.00 Build 0)  -->
<svg version="1.1"  xmlns="http://www.w3.org/2000/svg" xmlns:xlink="http://www.w3.org/1999/xlink" x="0px" y="0px"
	 viewBox="0 0 32 32" style="enable-background:new 0 0 32 32;" xml:space="preserve">
<circle style="fill:none;stroke:#000000;stroke-width:2;stroke-linejoin:round;stroke-miterlimit:10;" cx="16" cy="16" r="12"/>
<path style="fill:#231F20;" d="M7,18c0-4.773,4.243-9.162,9-10c0,0-2,1.282-2,2.308C14,12.362,15,12,15,12s-0.04,6.643-0.04,7.173
	S15.305,20,16,20c0.695,0,2-0.86,2-0.86s0-5.412,0-6.14s-0.6-1.657-1-2c1.069,0,1.359,0.599,1.359,0.599S19.392,9.946,23,9
	c-0.548,0.698-2,2.617-2,3.247s0,6.897,0,7.262S21.735,20,22,20s1.629-0.487,3-2c0,0.46-1.845,3.556-5,5l-2-1l-2,2
	c0,0-4.193-0.307-6-3c0.488,0.073,1.96,0.195,1.96-0.567c0-0.761,0-5.626,0-6.122s-0.232-0.728-0.662-0.728
	C10.868,13.584,9.328,13.89,7,18z"/>
</svg>
