<?xml version="1.0" encoding="iso-8859-1"?>
<!-- Generator: Adobe Illustrator 19.1.0, SVG Export Plug-In . SVG Version: 6.00 Build 0)  -->
<svg version="1.1" id="Layer_1" xmlns="http://www.w3.org/2000/svg" xmlns:xlink="http://www.w3.org/1999/xlink" x="0px" y="0px"
	 viewBox="0 0 32 32" style="enable-background:new 0 0 32 32;" xml:space="preserve">
<path id="XMLID_2_" style="fill:none;stroke:#000000;stroke-width:2;stroke-miterlimit:10;" d="M17,17h1.5
	c0.828,0,1.5-0.672,1.5-1.5v0c0-0.828-0.672-1.5-1.5-1.5H17v6h2.5c0.828,0,1.5-0.672,1.5-1.5v0c0-0.828-0.672-1.5-1.5-1.5H17"/>
<path style="fill:none;stroke:#000000;stroke-width:2;stroke-miterlimit:10;" d="M21.388,8c-9.703,0-14.115,3.383-15.561,4.838
	c-0.418,0.42-0.677,0.984-0.73,1.589L4.51,21.228c-0.065,0.748,0.192,1.483,0.705,2.016C5.684,23.731,6.311,24,6.981,24h15.483
	c1.057,0,1.998-0.686,2.342-1.707C27.5,14.325,27.5,13.609,27.5,13.34C27.5,11.757,22.881,8,21.388,8z"/>
<polyline id="XMLID_1_" style="fill:none;stroke:#000000;stroke-width:2;stroke-miterlimit:10;" points="11,13 11,20 15,20 "/>
</svg>
