<?xml version="1.0" encoding="iso-8859-1"?>
<!-- Generator: Adobe Illustrator 19.1.1, SVG Export Plug-In . SVG Version: 6.00 Build 0)  -->
<svg version="1.1" id="Layer_1" xmlns="http://www.w3.org/2000/svg" xmlns:xlink="http://www.w3.org/1999/xlink" x="0px" y="0px"
	 viewBox="0 0 32 32" style="enable-background:new 0 0 32 32;" xml:space="preserve">
<circle cx="19" cy="12" r="1"/>
<path style="fill:none;stroke:#000000;stroke-width:2;stroke-miterlimit:10;" d="M23,20c0,1.105-0.895,2-2,2s-2-0.895-2-2s2-4,2-4
	S23,18.895,23,20z"/>
<path style="fill:none;stroke:#000000;stroke-width:2;stroke-miterlimit:10;" d="M22,13c4.458-3.917,0-10,0-10h-0.021L20,6l-2-3
	h-0.029L16,6l-2-3h-0.038L12,6L9,3H8.941c0,0,0.038,8,6.059,8l0,0.071c0,0-5.625,3.554-10,7.929h4l-1,4l4-1v4l3.438-1.375L16,28l3-2
	l2,2.708c0,0,1-3.646,1-7.708"/>
<polyline points="21,16 29,16 25,14 29,12 21,12 "/>
</svg>
