<?xml version="1.0" encoding="iso-8859-1"?>
<!-- Generator: Adobe Illustrator 19.1.1, SVG Export Plug-In . SVG Version: 6.00 Build 0)  -->
<svg version="1.1" id="Layer_1" xmlns="http://www.w3.org/2000/svg" xmlns:xlink="http://www.w3.org/1999/xlink" x="0px" y="0px"
	 viewBox="0 0 32 32" style="enable-background:new 0 0 32 32;" xml:space="preserve">
<path style="fill:none;stroke:#000000;stroke-width:2;stroke-miterlimit:10;" d="M25,8.5c0,1.381-4.582,2.5-9,2.5S7,9.881,7,8.5
	S11.582,6,16,6S25,7.119,25,8.5z"/>
<path style="fill:none;stroke:#000000;stroke-width:2;stroke-miterlimit:10;" d="M25,8.5c0,0-2.85,14.45-3,15.5
	c-0.156,1.093-2.686,2-6,2s-5.783-0.917-6-2C9.75,22.75,7,8.5,7,8.5"/>
<path style="fill:none;stroke:#000000;stroke-width:2;stroke-miterlimit:10;" d="M22.861,19.402c0,0-1.204,2.598-6.861,2.598
	s-6.866-2.581-6.866-2.581"/>
<circle style="fill:none;stroke:#000000;stroke-width:2;stroke-miterlimit:10;" cx="16" cy="16" r="2"/>
</svg>
