<?xml version="1.0" encoding="iso-8859-1"?>
<!-- Generator: Adobe Illustrator 19.1.0, SVG Export Plug-In . SVG Version: 6.00 Build 0)  -->
<svg version="1.1" id="Layer_1" xmlns="http://www.w3.org/2000/svg" xmlns:xlink="http://www.w3.org/1999/xlink" x="0px" y="0px"
	 viewBox="0 0 32 32" style="enable-background:new 0 0 32 32;" xml:space="preserve">
<polyline style="fill:none;stroke:#000000;stroke-width:2;stroke-miterlimit:10;" points="13,17 23.154,17 27,22 28,22 28,9 27,9 
	23.154,14 13.154,14 "/>
<path style="fill:none;stroke:#000000;stroke-width:2;stroke-miterlimit:10;" d="M22.417,14H13c-2.209,0-4,1.791-4,4v0
	c0,2.209,1.791,4,4,4h3.5c1.381,0,2.5-1.119,2.5-2.5v0c0-1.381-1.119-2.5-2.5-2.5"/>
<line style="fill:none;stroke:#000000;stroke-width:2;stroke-miterlimit:10;" x1="4" y1="18" x2="4" y2="14"/>
<path d="M11,18h3v-2h-1C11.897,16,11,16.897,11,18z"/>
<path d="M7.812,15H4v2h3.09C7.212,16.282,7.459,15.608,7.812,15z"/>
</svg>
