<?xml version="1.0" encoding="utf-8"?>
<!-- Generator: Adobe Illustrator 18.1.1, SVG Export Plug-In . SVG Version: 6.00 Build 0)  -->
<svg version="1.1" id="Layer_1" xmlns="http://www.w3.org/2000/svg" xmlns:xlink="http://www.w3.org/1999/xlink" x="0px" y="0px"
	 viewBox="0 0 32 32" enable-background="new 0 0 32 32" xml:space="preserve">
<polyline fill="none" stroke="#000000" stroke-width="2" stroke-miterlimit="10" points="28,26 28,11 16,6 4,11 4,26 "/>
<path fill="none" stroke="#000000" stroke-width="2" stroke-miterlimit="10" d="M23.9,17.7l-1.4-4.3c-0.3-0.8-1-1.4-1.9-1.4h-9.1
	c-0.9,0-1.6,0.6-1.9,1.4l-1.4,4.3C8,17.9,8,18.1,8,18.3V22c0,0.6,0.4,1,1,1h14c0.6,0,1-0.4,1-1v-3.7C24,18.1,24,17.9,23.9,17.7z"/>
<circle cx="21" cy="20" r="1"/>
<circle cx="11" cy="20" r="1"/>
<path d="M24,23h-2v2c0,0.6,0.4,1,1,1h0c0.6,0,1-0.4,1-1V23z"/>
<path d="M10,23H8v2c0,0.6,0.4,1,1,1h0c0.6,0,1-0.4,1-1V23z"/>
<line fill="none" stroke="#000000" stroke-width="2" stroke-miterlimit="10" x1="8.4" y1="17" x2="23.6" y2="17"/>
</svg>
