<?xml version="1.0" encoding="iso-8859-1"?>
<!-- Generator: Adobe Illustrator 19.1.0, SVG Export Plug-In . SVG Version: 6.00 Build 0)  -->
<svg version="1.1" id="Layer_1" xmlns="http://www.w3.org/2000/svg" xmlns:xlink="http://www.w3.org/1999/xlink" x="0px" y="0px"
	 viewBox="0 0 32 32" style="enable-background:new 0 0 32 32;" xml:space="preserve">
<path style="fill:none;stroke:#000000;stroke-width:2;stroke-miterlimit:10;" d="M25,5c0,0-0.97,0-1.764,0
	c-4.129,0-4.611,5.727-4.611,5.727s-1.86,0.909-3.629,0.909S12.162,11,10.384,11C8.343,11,7,12.39,7,14.518c0,2.237,2,3.963,2,3.963
	S9.131,20.463,8,22v6"/>
<path style="fill:none;stroke:#000000;stroke-width:2;stroke-miterlimit:10;" d="M22,9.866c0.707,1.938,2.815,1.599,3.351,1.385
	c0.432,0.141,1.783,0.496,1.783,0.496l0.658-0.728c0.327-0.362,0.313-0.916-0.032-1.261L26,8c0,0-0.867-2-3-2"/>
<path style="fill:none;stroke:#000000;stroke-width:2;stroke-miterlimit:10;" d="M21,28v-9.341c0,0,2-1.458,2-3.429
	c0-1.847-1.011-3.833,0.242-4.704"/>
<path style="fill:none;stroke:#000000;stroke-width:2;stroke-miterlimit:10;" d="M7.022,12.586c0,0-0.385-0.208-1.149-0.208
	C4.286,12.379,3,15.322,3,19"/>
<path style="fill:none;stroke:#000000;stroke-width:2;stroke-miterlimit:10;" d="M11,28v-5.502c0,0,2-1.584,2-4.498h0.121
	c0,0,0.605,1.357,4.879,1.357V28"/>
</svg>
