<?xml version="1.0" encoding="iso-8859-1"?>
<!-- Generator: Adobe Illustrator 22.1.0, SVG Export Plug-In . SVG Version: 6.00 Build 0)  -->
<svg version="1.1" id="Layer_1" xmlns="http://www.w3.org/2000/svg" xmlns:xlink="http://www.w3.org/1999/xlink" x="0px" y="0px"
	 viewBox="0 0 32 32" style="enable-background:new 0 0 32 32;" xml:space="preserve">
<path d="M27,10h-2V6h2c1.105,0,2,0.895,2,2l0,0C29,9.105,28.105,10,27,10z"/>
<path d="M5,6h2v4H5c-1.105,0-2-0.895-2-2l0,0C3,6.895,3.895,6,5,6z"/>
<path style="fill:none;stroke:#000000;stroke-width:2;stroke-miterlimit:10;" d="M25,7v20H7V7H25z"/>
<rect x="11.455" y="15" width="6" height="1.5"/>
<rect x="11.455" y="17.5" width="6" height="1.5"/>
<path style="fill:none;stroke:#000000;stroke-width:2;stroke-miterlimit:10;" d="M19.5,13.419C18.769,12.574,18.012,12,16.925,12
	c-2.259,0-3.47,2.239-3.47,5s1.211,5,3.47,5c1.086,0,1.844-0.464,2.575-1.309"/>
</svg>
