<?xml version="1.0" encoding="iso-8859-1"?>
<!-- Generator: Adobe Illustrator 19.1.1, SVG Export Plug-In . SVG Version: 6.00 Build 0)  -->
<svg version="1.1" id="Layer_1" xmlns="http://www.w3.org/2000/svg" xmlns:xlink="http://www.w3.org/1999/xlink" x="0px" y="0px"
	 viewBox="0 0 32 32" style="enable-background:new 0 0 32 32;" xml:space="preserve">
<path d="M19.994,9.9c0,0.097-0.075,0.179-0.175,0.19C19.134,10.169,17,10.501,17,11.023v9.965c0,0.962,2.781,0.953,2.801,0.954
	c0.108,0.002,0.193,0.087,0.193,0.192v0.691c0,0.106-0.088,0.192-0.198,0.192h-7.604c-0.109,0-0.198-0.086-0.198-0.192v-0.691
	c0-0.105,0.087-0.19,0.195-0.192c0.021,0,2.81,0.042,2.81-0.954v-9.965c0-0.439-1.961-0.811-2.836-0.934
	c-0.097-0.014-0.169-0.094-0.169-0.19V9.209c0-0.106,0.089-0.192,0.198-0.192h7.604c0.11,0,0.198,0.086,0.198,0.192V9.9z"/>
<path style="fill:none;stroke:#000000;stroke-width:2;stroke-miterlimit:10;" d="M23.059,6H16H8.941C7.317,6,6,7.317,6,8.941V16
	v7.059C6,24.683,7.317,26,8.941,26H16h7.059C24.683,26,26,24.683,26,23.059V16V8.941C26,7.317,24.683,6,23.059,6z"/>
</svg>
