<?xml version="1.0" encoding="iso-8859-1"?>
<!-- Generator: Adobe Illustrator 19.1.1, SVG Export Plug-In . SVG Version: 6.00 Build 0)  -->
<svg version="1.1" id="Layer_1" xmlns="http://www.w3.org/2000/svg" xmlns:xlink="http://www.w3.org/1999/xlink" x="0px" y="0px"
	 viewBox="0 0 32 32" style="enable-background:new 0 0 32 32;" xml:space="preserve">
<rect x="25" y="5" width="2" height="6"/>
<rect x="27" y="11" width="2" height="10"/>
<rect x="23" y="13" width="2" height="8"/>
<rect x="21" y="5" width="4" height="2"/>
<rect x="11" y="3" width="10" height="2"/>
<rect x="11" y="7" width="8" height="2"/>
<rect x="3" y="27" width="2" height="2"/>
<rect x="23" y="7" width="2" height="2"/>
<rect x="3" y="25" width="2" height="2"/>
<rect x="7" y="21" width="2" height="2"/>
<rect x="9" y="23" width="2" height="2"/>
<rect x="5" y="23" width="2" height="2"/>
<rect x="7" y="25" width="2" height="2"/>
<rect x="9" y="19" width="2" height="2"/>
<rect x="11" y="21" width="2" height="2"/>
<rect x="11" y="17" width="2" height="2"/>
<rect x="13" y="19" width="2" height="2"/>
<rect x="13" y="15" width="2" height="2"/>
<rect x="9" y="5" width="2" height="2"/>
<rect x="15" y="17" width="2" height="2"/>
<rect x="15" y="13" width="2" height="2"/>
<rect x="17" y="15" width="2" height="2"/>
<rect x="17" y="11" width="2" height="2"/>
<rect x="19" y="13" width="2" height="2"/>
<rect x="19" y="9" width="2" height="2"/>
<rect x="21" y="11" width="2" height="2"/>
<rect x="25" y="21" width="2" height="2"/>
<rect x="5" y="27" width="2" height="2"/>
</svg>
