<?xml version="1.0" encoding="iso-8859-1"?>
<!-- Generator: Adobe Illustrator 19.1.0, SVG Export Plug-In . SVG Version: 6.00 Build 0)  -->
<svg version="1.1" id="Layer_1" xmlns="http://www.w3.org/2000/svg" xmlns:xlink="http://www.w3.org/1999/xlink" x="0px" y="0px"
	 viewBox="0 0 32 32" style="enable-background:new 0 0 32 32;" xml:space="preserve">
<path id="XMLID_15_" style="fill:none;stroke:#000000;stroke-width:2;stroke-miterlimit:10;" d="M16,24c0,0.984-1.328,2-3,2
	s-3-1-3-2"/>
<path id="XMLID_14_" style="fill:none;stroke:#000000;stroke-width:2;stroke-miterlimit:10;" d="M10,24c0,0.984-1.328,2-3,2
	s-3-1-3-2"/>
<line style="fill:none;stroke:#000000;stroke-width:2;stroke-miterlimit:10;" x1="3" y1="3" x2="29" y2="29"/>
<g>
	<path d="M23,24h-0.346l2.953,2.953C27.498,26.724,29,25.471,29,24h-2c0,0.297-0.776,1-2,1C23.755,25,23,24.306,23,24z"/>
	<path d="M12.092,13.438l-0.52-1.62l4.383-2.041c0.443-0.206,0.966-0.063,1.245,0.34l4.833,7.014l1.646-1.135l-4.833-7.014
		c-0.834-1.211-2.404-1.64-3.737-1.018l-5.794,2.698L12.092,13.438z"/>
	<path d="M20.445,24.619C20.098,24.828,19.604,25,19,25c-1.245,0-2-0.694-2-1h-2c0,1.626,1.832,3,4,3
		c1.121,0,2.13-0.382,2.864-0.963L20.445,24.619z"/>
	<polygon points="10.336,14.51 11.057,16.755 8.767,20.729 10.499,21.727 13.079,17.253 	"/>
</g>
<circle id="XMLID_7278_" style="fill:none;stroke:#000000;stroke-width:2;stroke-miterlimit:10;" cx="23.5" cy="7.499" r="2.5"/>
<polyline style="fill:none;stroke:#000000;stroke-width:2;stroke-miterlimit:10;" points="3,21 10,21 10,25 "/>
</svg>
