<?xml version="1.0" encoding="utf-8"?>
<!-- Generator: Adobe Illustrator 19.2.0, SVG Export Plug-In . SVG Version: 6.00 Build 0)  -->
<svg version="1.0"  xmlns="http://www.w3.org/2000/svg" xmlns:xlink="http://www.w3.org/1999/xlink" x="0px" y="0px"
	 viewBox="0 0 32 32" style="enable-background:new 0 0 32 32;" xml:space="preserve">
<path d="M22.5,27.3l-3.6-6l0.7-0.5c1.5-1.2,2.4-2.9,2.4-4.8c0-3.4-2.6-6-6-6s-6,2.6-6,6c0,1.9,0.9,3.6,2.4,4.8l0.7,0.5l-3.6,6
	l-0.9-0.6C5.2,24.4,3,20.3,3,16C3,8.8,8.8,3,16,3c7.2,0,13,5.8,13,13c0,4.4-2.1,8.3-5.6,10.7L22.5,27.3z M16,5C9.9,5,5,9.9,5,16
	c0,3.2,1.5,6.4,3.9,8.4l1.6-2.6C8.9,20.3,8,18.2,8,16c0-4.5,3.5-8,8-8c4.5,0,8,3.5,8,8c0,2.2-0.9,4.3-2.5,5.8l1.6,2.6
	c2.5-2.1,3.9-5.1,3.9-8.4C27,9.9,22.1,5,16,5z M20,16c0-2.2-1.8-4-4-4s-4,1.8-4,4c0,1.7,1,3.1,2.5,3.7l-1.3,9l0.9,0.2
	C14.7,29,15.4,29,16,29s1.3,0,1.9-0.1l0.9-0.2l-1.3-9C19,19.1,20,17.7,20,16z"/>
</svg>
