<?xml version="1.0" encoding="iso-8859-1"?>
<!-- Generator: Adobe Illustrator 19.1.0, SVG Export Plug-In . SVG Version: 6.00 Build 0)  -->
<svg version="1.1" id="Layer_1" xmlns="http://www.w3.org/2000/svg" xmlns:xlink="http://www.w3.org/1999/xlink" x="0px" y="0px"
	 viewBox="0 0 32 32" style="enable-background:new 0 0 32 32;" xml:space="preserve">
<ellipse style="fill:none;stroke:#000000;stroke-width:2;stroke-miterlimit:10;" cx="16.5" cy="8" rx="3.5" ry="4"/>
<path style="fill:none;stroke:#000000;stroke-width:2;stroke-miterlimit:10;" d="M6.505,11.442C5.549,13.073,5,14.972,5,17
	c0,6.075,4.925,11,11,11c2.374,0,4.572-0.752,6.37-2.031c0,0-1.37-1.985-1.37-4.969c0-5.335,5.994-10.293,5.994-10.293
	c0-0.551-0.768-1.801-1.858-2.419C24.394,8.983,20.96,13,16,13c-2.754,0-7.566-4.035-8.255-4.854
	c-0.886,0.483-1.732,1.49-2.054,2.497c0,0,5.729,5.255,6.309,6.27c0.445,1.303-1,3.639-1,7.143c0,1.5,0.373,2.981,0.373,2.981"/>
<path style="fill:none;stroke:#000000;stroke-width:2;stroke-miterlimit:10;" d="M13.205,6.358C11.481,6.81,9.923,7.669,8.638,8.826
	"/>
<path style="fill:none;stroke:#000000;stroke-width:2;stroke-miterlimit:10;" d="M23.935,9.382c-1.13-1.177-2.519-2.102-4.075-2.686
	"/>
<path style="fill:none;stroke:#000000;stroke-width:2;stroke-miterlimit:10;" d="M25.018,23.3C26.267,21.516,27,19.343,27,17
	c0-1.807-0.435-3.511-1.207-5.015"/>
</svg>
