<?xml version="1.0" encoding="iso-8859-1"?>
<!-- Generator: Adobe Illustrator 19.1.1, SVG Export Plug-In . SVG Version: 6.00 Build 0)  -->
<svg version="1.1" id="Layer_1" xmlns="http://www.w3.org/2000/svg" xmlns:xlink="http://www.w3.org/1999/xlink" x="0px" y="0px"
	 viewBox="0 0 32 32" style="enable-background:new 0 0 32 32;" xml:space="preserve">
<path d="M14,12v9l-3-3l1,5H8l4,3h8.935L24,24h-3l2-4l-4,1l1-6l-3,4L14,12z"/>
<path style="fill:none;stroke:#000000;stroke-width:2;stroke-miterlimit:10;" d="M27.465,26C27.805,25.412,28,24.729,28,24
	c0-0.951-0.346-1.813-0.901-2.5C27.654,20.813,28,19.951,28,19c0-2.209-1.791-4-4-4c0-2.209-1.791-4-4-4
	c-0.034,0-0.066,0.009-0.1,0.01C19.441,8.723,17.422,7,15,7c-2.761,0-5,2.239-5,5c0,0.379,0.05,0.746,0.13,1.101
	C8.341,13.499,7,15.09,7,17c0,0.75,0.219,1.443,0.578,2.043C5.57,19.256,4,20.935,4,23c0,1.195,0.524,2.268,1.355,3.001"/>
</svg>
