<?xml version="1.0" encoding="iso-8859-1"?>
<!-- Generator: Adobe Illustrator 19.1.0, SVG Export Plug-In . SVG Version: 6.00 Build 0)  -->
<svg version="1.1" id="Layer_1" xmlns="http://www.w3.org/2000/svg" xmlns:xlink="http://www.w3.org/1999/xlink" x="0px" y="0px"
	 viewBox="0 0 32 32" style="enable-background:new 0 0 32 32;" xml:space="preserve">
<path style="fill:none;stroke:#000000;stroke-width:2;stroke-miterlimit:10;" d="M19.715,14.326
	c0.542,1.626-1.987,4.396-5.962,6.022s-7.648,1.807-8.431-0.12c-1.385-3.372,2.529-8.07,3.975-8.852
	C10.381,10.773,18.45,10.593,19.715,14.326z"/>
<circle cx="9.5" cy="15.5" r="0.5"/>
<circle cx="8.5" cy="17.5" r="0.5"/>
<circle cx="10.5" cy="17.5" r="0.5"/>
<g>
	<path d="M20.097,11.697L30,7.6V5.436L19.299,9.864c-1.872,0.856-3.325,0.646-3.332,0.646l-0.334,1.972
		c0.03,0.005,0.314,0.051,0.783,0.051C17.22,12.533,18.563,12.399,20.097,11.697z"/>
	<path d="M30,10.273l-1.267,0.52c-1.83,0.75-3.503,1.435-4.371,1.813C22.619,13.261,22,15.382,22,17c0,4.479-2.719,9-8.794,9
		c-6.372,0-9.201-4.615-9.201-6.369c0-2.056,1.304-3.123,2.954-4.473l0.44-0.361l-1.276-1.54l-0.43,0.354
		c-1.728,1.414-3.687,3.018-3.687,6.021C2.005,22.634,5.748,28,13.206,28C20.622,28,24,22.298,24,17c0-1.028,0.373-2.261,1.112-2.54
		c0.907-0.394,2.566-1.073,4.38-1.816L30,12.435V10.273z"/>
</g>
</svg>
