<?xml version="1.0" encoding="iso-8859-1"?>
<!-- Generator: Adobe Illustrator 19.2.0, SVG Export Plug-In . SVG Version: 6.00 Build 0)  -->
<svg version="1.1" id="Layer_1" xmlns="http://www.w3.org/2000/svg" xmlns:xlink="http://www.w3.org/1999/xlink" x="0px" y="0px"
	 viewBox="0 0 32 32" style="enable-background:new 0 0 32 32;" xml:space="preserve">
<rect x="5" y="8" style="fill:none;stroke:#000000;stroke-width:2;stroke-miterlimit:10;" width="22" height="14"/>
<line style="fill:none;stroke:#000000;stroke-width:2;stroke-linejoin:round;stroke-miterlimit:10;" x1="10" y1="25" x2="22" y2="25"/>
<line style="fill:none;stroke:#000000;stroke-width:2;stroke-linejoin:round;stroke-miterlimit:10;" x1="16" y1="15" x2="16" y2="10"/>
<path d="M18,10.424v2.356c0.609,0.549,1,1.337,1,2.22c0,1.654-1.346,3-3,3s-3-1.346-3-3c0-0.883,0.391-1.67,1-2.22v-2.356
	c-1.763,0.774-3,2.531-3,4.576c0,2.757,2.243,5,5,5s5-2.243,5-5C21,12.955,19.763,11.198,18,10.424z"/>
</svg>
