<?xml version="1.0" encoding="iso-8859-1"?>
<!-- Generator: Adobe Illustrator 19.1.1, SVG Export Plug-In . SVG Version: 6.00 Build 0)  -->
<svg version="1.1" id="Layer_1" xmlns="http://www.w3.org/2000/svg" xmlns:xlink="http://www.w3.org/1999/xlink" x="0px" y="0px"
	 viewBox="0 0 32 32" style="enable-background:new 0 0 32 32;" xml:space="preserve">
<path style="fill:none;stroke:#000000;stroke-width:2;stroke-miterlimit:10;" d="M16,25c0-3.866,3.134-7,7-7s7,3.134,7,7"/>
<path style="fill:none;stroke:#000000;stroke-width:2;stroke-miterlimit:10;" d="M2,25c0-3.866,3.134-7,7-7s7,3.134,7,7"/>
<path style="fill:none;stroke:#000000;stroke-width:2;stroke-miterlimit:10;" d="M30.729,13c0,0-4.403,5-7.729,5
	c-2.761,0-5-2.239-5-5s2.239-5,5-5C26.434,8,30.729,13,30.729,13z"/>
<path style="fill:none;stroke:#000000;stroke-width:2;stroke-miterlimit:10;" d="M16.729,13c0,0-4.403,5-7.729,5
	c-2.761,0-5-2.239-5-5s2.239-5,5-5C12.434,8,16.729,13,16.729,13z"/>
</svg>
