<?xml version="1.0" encoding="iso-8859-1"?>
<!-- Generator: Adobe Illustrator 19.1.1, SVG Export Plug-In . SVG Version: 6.00 Build 0)  -->
<svg version="1.1"  xmlns="http://www.w3.org/2000/svg" xmlns:xlink="http://www.w3.org/1999/xlink" x="0px" y="0px"
	 viewBox="0 0 32 32" style="enable-background:new 0 0 32 32;" xml:space="preserve">
<path d="M17.5,23c-0.828,0-1.5-0.672-1.5-1.5v-7c-0.037-0.509-0.285-1.5-1.5-1.5c-1.003,0-1.663,1.181-1.67,1.193l-4.027,8.051
	c-0.27,0.47-0.786,0.761-1.312,0.756c-0.542-0.003-1.039-0.298-1.303-0.771l-5-10c-0.402-0.725-0.142-1.638,0.583-2.04
	c0.722-0.4,1.637-0.142,2.04,0.583l3.707,7.673l2.679-5.688C10.713,11.765,12.236,10,14.5,10c3.156,0,4.42,2.651,4.498,4.434
	L19,21.5C19,22.329,18.328,23,17.5,23z"/>
<path d="M23.5,23c-0.828,0-1.5-0.672-1.5-1.5v-7c0-0.827-0.673-1.5-1.5-1.5S19,13.673,19,14.5v7c0,0.828-0.672,1.5-1.5,1.5
	S16,22.329,16,21.5v-7c0-2.481,2.019-4.5,4.5-4.5s4.5,2.019,4.5,4.5v7C25,22.329,24.328,23,23.5,23z"/>
<path d="M29.5,23c-0.828,0-1.5-0.672-1.5-1.5v-7c0-0.827-0.673-1.5-1.5-1.5S25,13.673,25,14.5v7c0,0.828-0.672,1.5-1.5,1.5
	S22,22.329,22,21.5v-7c0-2.481,2.019-4.5,4.5-4.5s4.5,2.019,4.5,4.5V16v5.5C31,22.329,30.328,23,29.5,23z"/>
</svg>
