<?xml version="1.0" encoding="iso-8859-1"?>
<!-- Generator: Adobe Illustrator 19.2.1, SVG Export Plug-In . SVG Version: 6.00 Build 0)  -->
<svg version="1.1" id="Layer_1" xmlns="http://www.w3.org/2000/svg" xmlns:xlink="http://www.w3.org/1999/xlink" x="0px" y="0px"
	 viewBox="0 0 32 32" style="enable-background:new 0 0 32 32;" xml:space="preserve">
<polyline style="fill:none;stroke:#000000;stroke-width:2;stroke-miterlimit:10;" points="3,18 3,25 29,25 29,18 "/>
<rect x="27" y="20" transform="matrix(-1.836970e-16 1 -1 -1.836970e-16 49 -7)" width="2" height="2"/>
<rect x="23" y="20" transform="matrix(-1.836970e-16 1 -1 -1.836970e-16 45 -3)" width="2" height="2"/>
<rect x="19" y="20" transform="matrix(-1.836970e-16 1 -1 -1.836970e-16 41 1)" width="2" height="2"/>
<rect x="11" y="20" transform="matrix(-1.836970e-16 1 -1 -1.836970e-16 33 9)" width="2" height="2"/>
<rect x="7" y="20" transform="matrix(-1.836970e-16 1 -1 -1.836970e-16 29 13)" width="2" height="2"/>
<rect x="3" y="20" transform="matrix(-1.836970e-16 1 -1 -1.836970e-16 25 17)" width="2" height="2"/>
<rect x="15" y="20" transform="matrix(-1.836970e-16 1 -1 -1.836970e-16 37 5)" width="2" height="2"/>
<polyline style="fill:none;stroke:#000000;stroke-width:2;stroke-miterlimit:10;" points="13,8 11.804,8 9,12.688 9,13 15,13 "/>
<line style="fill:none;stroke:#000000;stroke-width:2;stroke-miterlimit:10;" x1="13" y1="16" x2="13" y2="7"/>
<polygon id="XMLID_173_" points="22.528,7 20.528,7 17,14 19,14 "/>
<polygon id="XMLID_174_" points="19,11 20.511,9.794 23,16 21,16 "/>
<line id="XMLID_175_" style="fill:none;stroke:#000000;stroke-width:2;stroke-miterlimit:10;" x1="18" y1="7" x2="18" y2="16"/>
</svg>
