<?xml version="1.0" encoding="iso-8859-1"?>
<!-- Generator: Adobe Illustrator 19.1.1, SVG Export Plug-In . SVG Version: 6.00 Build 0)  -->
<svg version="1.1" id="Layer_1" xmlns="http://www.w3.org/2000/svg" xmlns:xlink="http://www.w3.org/1999/xlink" x="0px" y="0px"
	 viewBox="-8 10 32 32" style="enable-background:new -8 10 32 32;" xml:space="preserve">
<g>
	<circle cx="3.5" cy="17.5" r="1.5"/>
	<circle cx="12.5" cy="17.5" r="1.5"/>
	<path d="M20,16.338V15h-2v2.867l0.801,0.163C19.495,18.171,20,18.79,20,19.5c0,0.722-0.517,1.341-1.229,1.472l-0.75,0.138
		l-0.065,0.76C17.79,23.796,17.08,25.816,16,27.603V27h-1c-1.362,0-2.093,1.146-2.627,1.983C12.115,29.388,11.725,30,11.504,30
		c-0.226,0-0.279-0.038-0.357-0.254c-0.126-0.358-0.126-0.914-0.126-1.379V27.6l-0.74-0.199C10.032,27.334,8.75,27,8,27
		s-2.03,0.334-2.279,0.402l-0.74,0.246v0.767c0.001,0.353,0.001,0.887-0.131,1.275C4.745,30,4.652,30,4.498,30
		c-0.222,0-0.612-0.612-0.871-1.017C3.093,28.146,2.361,27,1,27H0v0.6c-1.083-1.788-1.789-3.798-1.956-5.732l-0.065-0.76
		l-0.751-0.138C-3.484,20.84-4,20.222-4,19.5c0-0.71,0.504-1.329,1.2-1.47l0.8-0.163V15h-2v1.337c-1.195,0.57-2,1.793-2,3.163
		c0,1.425,0.86,2.678,2.128,3.216c0.423,3.036,1.926,6.17,4.101,8.514C1.127,37.105,4.594,38,8.002,38
		c3.411,0,6.88-0.896,7.773-6.791c2.147-2.324,3.672-5.466,4.097-8.492C21.14,22.178,22,20.925,22,19.5
		C22,18.13,21.195,16.907,20,16.338z"/>
	<path d="M4.5,26.497c0.326-0.188,1.894-0.533,3.484-0.533c0.004,0,0.009,0,0.014,0c1.528,0.002,3.129,0.328,3.518,0.542
		l0.967-1.751c-0.893-0.493-2.979-0.79-4.482-0.792c-1.52-0.039-3.63,0.297-4.502,0.801L4.5,26.497z"/>
</g>
</svg>
