<?xml version="1.0" encoding="iso-8859-1"?>
<!-- Generator: Adobe Illustrator 19.1.1, SVG Export Plug-In . SVG Version: 6.00 Build 0)  -->
<svg version="1.1" id="Layer_1" xmlns="http://www.w3.org/2000/svg" xmlns:xlink="http://www.w3.org/1999/xlink" x="0px" y="0px"
	 viewBox="-7 9 32 32" style="enable-background:new -7 9 32 32;" xml:space="preserve">
<path style="fill:none;stroke:#000000;stroke-width:2;stroke-miterlimit:10;" d="M0,26.6c0-0.417,0-3.183,0-3.6c0-4.971,4.029-9,9-9
	s9,4.029,9,9c0,0.417,0,3.183,0,3.6"/>
<path d="M9,37c-4.126,0-7.533-3.14-7.956-7.156C-0.143,29.444-1,28.32-1,27c0-1.338,0.881-2.475,2.093-2.86
	C1.487,22.346,3.089,21,5,21h4c0.551,0,1-0.449,1-1v-1h2v1c0,0.551,0.448,1,1,1c1.91,0,3.513,1.346,3.907,3.14
	C18.119,24.525,19,25.662,19,27c0,1.32-0.857,2.444-2.044,2.844C16.533,33.86,13.126,37,9,37z M2,26c-0.551,0-1,0.448-1,1
	s0.449,1,1,1h1v1c0,3.309,2.691,6,6,6s6-2.691,6-6v-1h1c0.552,0,1-0.448,1-1s-0.448-1-1-1h-1v-1c0-1.103-0.897-2-2-2
	c-0.768,0-1.469-0.29-2-0.766C10.469,22.71,9.768,23,9,23H5c-1.103,0-2,0.897-2,2v1H2z"/>
<circle cx="6" cy="27" r="1"/>
<circle cx="12" cy="27" r="1"/>
</svg>
