<?xml version="1.0" encoding="utf-8"?>
<!-- Generator: Adobe Illustrator 18.1.1, SVG Export Plug-In . SVG Version: 6.00 Build 0)  -->
<svg version="1.1" id="Layer_1" xmlns="http://www.w3.org/2000/svg" xmlns:xlink="http://www.w3.org/1999/xlink" x="0px" y="0px"
	 viewBox="0 0 32 32" enable-background="new 0 0 32 32" xml:space="preserve">
<circle cx="16" cy="22" r="1"/>
<g>
	<path d="M26,9v11c0,0.6-0.4,1-1,1h-1l-2,2h3c1.7,0,3-1.3,3-3V9H26z"/>
	<path d="M6,20V9H4v11c0,1.7,1.3,3,3,3h3l-2-2H7C6.4,21,6,20.6,6,20z"/>
</g>
<polygon points="10,7 8,7 7,11 9,11 "/>
<polygon points="13.8,7 11.8,7 10.8,11 12.8,11 "/>
<polygon points="17.5,7 15.5,7 14.5,11 16.5,11 "/>
<polygon points="21.2,7 19.2,7 18.2,11 20.2,11 "/>
<polygon points="25,7 23,7 22,11 24,11 "/>
<path fill="none" stroke="#000000" stroke-width="2" stroke-miterlimit="10" d="M20,17c-1,0-1.8,0.7-2,1.6c-0.6-0.4-1.3-0.6-2-0.6
	s-1.4,0.2-2,0.6c-0.2-0.9-1-1.6-2-1.6c-1.1,0-2,0.9-2,2c0,1.1,0.9,2,2,2c0,0,0.1,0,0.1,0c-0.1,0.3-0.1,0.7-0.1,1c0,2.2,1.8,4,4,4
	s4-1.8,4-4c0-0.4-0.1-0.7-0.1-1c0,0,0.1,0,0.1,0c1.1,0,2-0.9,2-2C22,17.9,21.1,17,20,17z"/>
</svg>
