<?xml version="1.0" encoding="iso-8859-1"?>
<!-- Generator: Adobe Illustrator 19.1.1, SVG Export Plug-In . SVG Version: 6.00 Build 0)  -->
<svg version="1.1" id="Layer_1" xmlns="http://www.w3.org/2000/svg" xmlns:xlink="http://www.w3.org/1999/xlink" x="0px" y="0px"
	 viewBox="-7 9 32 32" enable-background="new -7 9 32 32" xml:space="preserve">
<polyline fill="none" stroke="#000000" stroke-width="2" stroke-miterlimit="10" points="14.281,29.281 21.56,22.001 12.001,12.44 
	4.719,19.72 "/>
<circle cx="-0.753" cy="34.754" r="1.093"/>
<path d="M20.057,24.163c-0.29,0.293-2.149,1.732-3.015,0.859c-0.572-0.577,1.033-2.47,0.145-3.366
	c-0.889-0.896-2.988,0.989-3.781,0.188c-0.464-0.469-0.565-1.143-0.207-2.001c0.358-0.857,1.092-2.859,0.582-3.374
	c-0.511-0.515-1.622-0.001-2.541,0.589c-0.582,0.375-1.976,1.039-2.655,0.354c-0.984-0.993,0.769-2.93,1.04-3.203l2.379-2.504
	l10.261,10.353L20.057,24.163z"/>
<path fill="none" stroke="#000000" stroke-width="2" stroke-miterlimit="10" d="M7,30c0,0-4.707,5.95-5.879,7.121
	c-1.172,1.172-3.071,1.172-4.243,0c-1.172-1.172-1.172-3.071,0-4.243C-1.95,31.707,4,27,4,27c1.048-1.047-1.57-4.991-1.57-4.991
	l3.29-3.29l9.561,9.562l-3.29,3.29C11.991,31.571,8.233,28.767,7,30z"/>
</svg>
