<?xml version="1.0" encoding="iso-8859-1"?>
<!-- Generator: Adobe Illustrator 21.1.0, SVG Export Plug-In . SVG Version: 6.00 Build 0)  -->
<svg version="1.1" id="Layer_1" xmlns="http://www.w3.org/2000/svg" xmlns:xlink="http://www.w3.org/1999/xlink" x="0px" y="0px"
	 viewBox="0 0 32 32" style="enable-background:new 0 0 32 32;" xml:space="preserve">
<path style="fill:none;stroke:#000000;stroke-width:2;stroke-miterlimit:10;" d="M15.875,5.625C15.25,5.25,14.416,5,13,5
	C8.96,5,5,9.416,5,15c0,6.081,3.779,8.929,6.05,10.019c1.994,0.957,4.45,1.481,5.825,2.606c1-1.125,2.045-1.533,4.125-2.875
	c3.875-2.5,6-4.762,6-9.75c0-5.25-3.6-10-8-10c-3,0-8,2.894-8,10c0,3.143,2,6,2,6"/>
<path style="fill:none;stroke:#000000;stroke-width:2;stroke-linejoin:round;stroke-miterlimit:10;" d="M15.5,5.5
	c1.625-0.875,0.625-3,0.625-3"/>
</svg>
