<?xml version="1.0" encoding="iso-8859-1"?>
<!-- Generator: Adobe Illustrator 19.1.0, SVG Export Plug-In . SVG Version: 6.00 Build 0)  -->
<svg version="1.1" id="Layer_1" xmlns="http://www.w3.org/2000/svg" xmlns:xlink="http://www.w3.org/1999/xlink" x="0px" y="0px"
	 viewBox="0 0 32 32" style="enable-background:new 0 0 32 32;" xml:space="preserve">
<circle cx="16" cy="24" r="2"/>
<line style="fill:none;stroke:#000000;stroke-width:2;stroke-miterlimit:10;" x1="7" y1="14" x2="25" y2="14"/>
<line style="fill:none;stroke:#000000;stroke-width:2;stroke-miterlimit:10;" x1="7" y1="20" x2="25" y2="20"/>
<polygon points="22,27 19.649,27 22.649,30 25,30 "/>
<polygon points="10,27 12.351,27 9.351,30 7,30 "/>
<path style="fill:none;stroke:#000000;stroke-width:2;stroke-miterlimit:10;" d="M21,10h-1v0c0-1.105-0.895-2-2-2h-4
	c-1.105,0-2,0.895-2,2v0h-1c-2.209,0-4,1.791-4,4v9c0,2.761,2.239,5,5,5h8c2.761,0,5-2.239,5-5v-9C25,11.791,23.209,10,21,10z"/>
<polygon points="5,8 16,5 27,8 27,6 16,3 5,6 "/>
</svg>
