<?xml version="1.0" encoding="iso-8859-1"?>
<!-- Generator: Adobe Illustrator 19.1.0, SVG Export Plug-In . SVG Version: 6.00 Build 0)  -->
<svg version="1.1" id="Layer_1" xmlns="http://www.w3.org/2000/svg" xmlns:xlink="http://www.w3.org/1999/xlink" x="0px" y="0px"
	 viewBox="0 0 32 32" style="enable-background:new 0 0 32 32;" xml:space="preserve">
<g>
	<polygon points="14.049,18.803 13.439,17.786 16.315,13.039 14.604,12.002 11.372,17.337 	"/>
	<polygon points="10.141,16.663 13.219,11.513 11.502,10.487 8.385,15.702 	"/>
	<polygon points="12.612,20.296 13,20.943 13,26 15,26 15,21.604 	"/>
	<polygon points="7.731,17.624 6.096,26 8.134,26 9.573,18.632 	"/>
</g>
<circle style="fill:none;stroke:#000000;stroke-width:2;stroke-linecap:round;stroke-linejoin:round;stroke-miterlimit:10;" cx="16.5" cy="7.499" r="2.5"/>
<path style="fill:none;stroke:#000000;stroke-width:2;stroke-linecap:round;stroke-miterlimit:10;" d="M17.95,25H26
	c0,0-2.505-6-3.525-6c-0.945,0-1.013,3-2.307,3C18.837,22,17.95,25,17.95,25z"/>
<path style="fill:none;stroke:#000000;stroke-width:2;stroke-miterlimit:10;" d="M16.486,20.001l-0.885-6.448
	c-0.089-0.647-0.488-1.21-1.069-1.508l-1.609-0.825C12.64,11.075,12.328,11,12.01,11H8.961c-0.324,0-0.628,0.157-0.816,0.422
	l-2.005,2.83l14.049,7.693"/>
</svg>
