<?xml version="1.0" encoding="iso-8859-1"?>
<!-- Generator: Adobe Illustrator 19.1.0, SVG Export Plug-In . SVG Version: 6.00 Build 0)  -->
<svg version="1.1" id="Layer_1" xmlns="http://www.w3.org/2000/svg" xmlns:xlink="http://www.w3.org/1999/xlink" x="0px" y="0px"
	 viewBox="0 0 32 32" style="enable-background:new 0 0 32 32;" xml:space="preserve">
<rect id="XMLID_7729_" x="7" y="22" width="2" height="3"/>
<rect id="XMLID_7728_" x="7" y="26" width="2" height="2"/>
<rect id="XMLID_27_" x="7" y="19" width="2" height="2"/>
<rect id="XMLID_29_" x="11" y="17" width="2" height="2"/>
<rect id="XMLID_36_" x="19" y="17" width="2" height="2"/>
<rect id="XMLID_37_" x="23" y="19" width="2" height="2"/>
<rect id="XMLID_7727_" x="11" y="20" width="2" height="3"/>
<rect id="XMLID_7726_" x="11" y="24" width="2" height="4"/>
<rect id="XMLID_7725_" x="15" y="22" width="2" height="3"/>
<rect id="XMLID_7730_" x="15" y="18" width="2" height="3"/>
<rect id="XMLID_7724_" x="15" y="26" width="2" height="2"/>
<rect id="XMLID_7723_" x="23" y="22" width="2" height="3"/>
<rect id="XMLID_7722_" x="23" y="26" width="2" height="2"/>
<rect id="XMLID_7721_" x="19" y="20" width="2" height="3"/>
<rect id="XMLID_7720_" x="19" y="24" width="2" height="4"/>
<path d="M28.997,13.802C28.892,10.585,26.242,8,23,8c-0.389,0-0.777,0.042-1.173,0.127C20.537,6.18,18.372,5,16,5
	c-3.226,0-6.041,2.257-6.794,5.344c-1.247,0.482-2.256,1.455-2.788,2.673C2.909,12.731,0,15.553,0,19c0,2.967,2.167,5.431,5,5.91
	v-2.052C3.28,22.411,2,20.859,2,19c0-2.206,1.794-4,4-4c0.275,0,0.563,0.035,0.881,0.106l0.979,0.221l0.217-0.979
	c0.246-1.106,1.12-1.991,2.227-2.256l0.658-0.157l0.099-0.669C11.42,8.834,13.543,7,16,7c1.894,0,3.603,1.054,4.46,2.751
	l0.396,0.782l0.828-0.29C22.151,10.08,22.582,10,23,10c2.206,0,4,1.794,4,4c0,0.038-0.008,0.074-0.013,0.111
	c-0.009,0.068-0.018,0.137-0.024,0.206l-0.06,0.72l0.665,0.283C29.045,15.95,30,17.395,30,19c0,1.859-1.28,3.411-3,3.858v2.052
	c2.833-0.478,5-2.942,5-5.91C32,16.834,30.842,14.864,28.997,13.802z"/>
</svg>
