<?xml version="1.0" encoding="iso-8859-1"?>
<!-- Generator: Adobe Illustrator 19.1.1, SVG Export Plug-In . SVG Version: 6.00 Build 0)  -->
<svg version="1.1" id="Layer_1" xmlns="http://www.w3.org/2000/svg" xmlns:xlink="http://www.w3.org/1999/xlink" x="0px" y="0px"
	 viewBox="0 0 32 32" style="enable-background:new 0 0 32 32;" xml:space="preserve">
<path style="fill:none;stroke:#000000;stroke-width:2;stroke-miterlimit:10;" d="M11,20v8c0,0,5-0.333,5-8"/>
<path style="fill:none;stroke:#000000;stroke-width:2;stroke-miterlimit:10;" d="M6,21v4c0,0,1.887-0.126,3.342-2"/>
<path style="fill:none;stroke:#000000;stroke-width:2;stroke-miterlimit:10;" d="M2,14c0,0,2.958,1,8,1"/>
<circle cx="9" cy="12" r="1"/>
<path style="fill:none;stroke:#000000;stroke-width:2;stroke-miterlimit:10;" d="M16,23.852C26.958,22,26,11,26,11"/>
<path style="fill:none;stroke:#000000;stroke-width:2;stroke-miterlimit:10;" d="M11.001,23.683C2.975,21.88,2,13,2,13s-0.917-7,8-7
	c6,0,7.083,8,11,8c3.167,0,4.792-2.667,5-4"/>
<path d="M30,6c-1.846,0-3.088,0.755-3.878,1.653c-0.078-0.097-0.153-0.194-0.246-0.289C24.983,6.459,23.679,6,22,6h-1
	c0,3.955,3.271,5,5.011,5C27.736,10.981,31,9.913,31,6H30z"/>
</svg>
