<?xml version="1.0" encoding="iso-8859-1"?>
<!-- Generator: Adobe Illustrator 19.1.0, SVG Export Plug-In . SVG Version: 6.00 Build 0)  -->
<svg version="1.1" id="Layer_1" xmlns="http://www.w3.org/2000/svg" xmlns:xlink="http://www.w3.org/1999/xlink" x="0px" y="0px"
	 viewBox="0 0 32 32" style="enable-background:new 0 0 32 32;" xml:space="preserve">
<polyline id="XMLID_3_" style="fill:none;stroke:#000000;stroke-width:2;stroke-miterlimit:10;" points="12,12 12,19 16,19 "/>
<path style="fill:none;stroke:#000000;stroke-width:2;stroke-miterlimit:10;" d="M6,14.476C6,17.013,8.55,25,14.477,25H26
	c0.347,0,0.669-0.18,0.851-0.475c0.183-0.295,0.198-0.664,0.043-0.974c-0.025-0.051-2.572-5.168-2.572-8.567
	c0-3.516,0.731-6.727,0.739-6.759c0.068-0.297-0.002-0.609-0.192-0.848C24.679,7.139,24.391,7,24.086,7H8.276
	c-0.44,0-0.828,0.288-0.957,0.709C7.265,7.886,6,12.069,6,14.476z"/>
<line style="fill:none;stroke:#000000;stroke-width:2;stroke-miterlimit:10;" x1="18" y1="20" x2="18" y2="13"/>
<line style="fill:none;stroke:#000000;stroke-width:2;stroke-miterlimit:10;" x1="15" y1="13" x2="21" y2="13"/>
</svg>
