<?xml version="1.0" encoding="utf-8"?>
<!-- Generator: Adobe Illustrator 18.0.0, SVG Export Plug-In . SVG Version: 6.00 Build 0)  -->
<svg version="1.1" id="Layer_1" xmlns="http://www.w3.org/2000/svg" xmlns:xlink="http://www.w3.org/1999/xlink" x="0px" y="0px"
	 viewBox="0 0 32 32" enable-background="new 0 0 32 32" xml:space="preserve">
<circle fill="none" stroke="#000000" stroke-width="2" stroke-miterlimit="10" cx="16" cy="16" r="11"/>
<path fill="none" stroke="#000000" stroke-width="2" stroke-miterlimit="10" d="M15,20h2c1.1,0,2-0.9,2-2v0c0-1.1-0.9-2-2-2h-2
	c-1.1,0-2,0.9-2,2v0C13,19.1,13.9,20,15,20z"/>
<path fill="none" stroke="#000000" stroke-width="2" stroke-miterlimit="10" d="M15,16h2c1.1,0,2-0.9,2-2v0c0-1.1-0.9-2-2-2h-2
	c-1.1,0-2,0.9-2,2v0C13,15.1,13.9,16,15,16z"/>
</svg>
