<?xml version="1.0" encoding="iso-8859-1"?>
<!-- Generator: Adobe Illustrator 21.0.0, SVG Export Plug-In . SVG Version: 6.00 Build 0)  -->
<svg version="1.1"  xmlns="http://www.w3.org/2000/svg" xmlns:xlink="http://www.w3.org/1999/xlink" x="0px" y="0px"
	 viewBox="0 0 32 32" style="enable-background:new 0 0 32 32;" xml:space="preserve">
<g>
	<g>
		<g>
			<path d="M25.37,15.24C24.932,15.081,24.471,15,24,15c-0.069,0.013-0.134,0.021-0.2,0.024l-0.821,0.046l-0.203-0.798
				c-0.145-0.568-0.36-1.115-0.64-1.626l1.754-0.96c0.234,0.427,0.433,0.873,0.594,1.333c0.536,0.043,1.062,0.157,1.568,0.341
				L25.37,15.24z"/>
		</g>
		<g>
			<path d="M21.129,11.245c-0.786-0.851-1.775-1.497-2.861-1.868l0.646-1.893c1.399,0.479,2.674,1.31,3.684,2.403L21.129,11.245z
				 M13.209,9.582L12.407,7.75c1.364-0.598,2.869-0.84,4.338-0.719l-0.165,1.993C15.438,8.931,14.269,9.118,13.209,9.582z"/>
		</g>
		<g>
			<path d="M10.087,12.209l-0.623-0.147c-0.565-0.133-0.917-0.057-1.308,0.124l-0.84-1.815c0.618-0.286,1.273-0.418,1.974-0.358
				c0.367-0.41,0.769-0.786,1.201-1.123l1.228,1.579c-0.46,0.357-0.876,0.773-1.238,1.236L10.087,12.209z"/>
		</g>
		<g>
			<path d="M5.121,16.224l-1.438-1.39c0.394-0.408,0.837-0.753,1.322-1.033c0.032-0.648,0.222-1.28,0.552-1.837l1.72,1.021
				C7.096,13.29,7,13.641,7,14c0,0.062,0.011,0.123,0.02,0.183l0.105,0.756l-0.692,0.38C5.938,15.531,5.496,15.835,5.121,16.224z"/>
		</g>
		<g>
			<path d="M24,25h-3.062v-2H24c0.198,0,0.393-0.014,0.584-0.042l0.291,1.979C24.59,24.979,24.298,25,24,25z M19.041,25h-3.792v-2
				h3.792V25z M13.353,25H9.56v-2h3.793V25z M7.592,24.986c-1.532-0.103-2.951-0.782-3.998-1.913l1.468-1.357
				c0.698,0.754,1.644,1.206,2.664,1.274L7.592,24.986z M27.006,24.193l-1.004-1.73c0.889-0.516,1.54-1.34,1.832-2.319l1.916,0.57
				C29.312,22.186,28.338,23.421,27.006,24.193z M2.4,21.158C2.135,20.47,2,19.743,2,19c0-0.788,0.15-1.554,0.447-2.275l1.85,0.761
				C4.1,17.965,4,18.475,4,19c0,0.496,0.09,0.98,0.267,1.439L2.4,21.158z M27.984,18.646c-0.09-1.02-0.562-1.956-1.33-2.638
				l1.328-1.495c1.151,1.022,1.859,2.428,1.994,3.958L27.984,18.646z"/>
		</g>
	</g>
</g>
</svg>
