<?xml version="1.0" encoding="iso-8859-1"?>
<!-- Generator: Adobe Illustrator 19.1.1, SVG Export Plug-In . SVG Version: 6.00 Build 0)  -->
<svg version="1.1" id="Layer_1" xmlns="http://www.w3.org/2000/svg" xmlns:xlink="http://www.w3.org/1999/xlink" x="0px" y="0px"
	 viewBox="0 0 32 32" style="enable-background:new 0 0 32 32;" xml:space="preserve">
<path style="fill:none;stroke:#000000;stroke-width:2;stroke-miterlimit:10;" d="M16,12c0-0.875,1.458-2,4-2c4.875,0,5,4,5,4v7.002
	c0,1.224-0.732,2.329-1.864,2.796C20.984,24.687,17.544,26,16,26"/>
<path style="fill:none;stroke:#000000;stroke-width:2;stroke-miterlimit:10;" d="M16,12c0-0.875-1.458-2-4-2c-4.875,0-5,4-5,4v7.002
	c0,1.224,0.732,2.329,1.864,2.796C11.016,24.687,14.456,26,16,26"/>
<path style="fill:none;stroke:#000000;stroke-width:2;stroke-miterlimit:10;" d="M31,7c-1.625,0-6.5-0.375-9,4"/>
<path style="fill:none;stroke:#000000;stroke-width:2;stroke-miterlimit:10;" d="M25,15c0,0,4-1.583,4-8"/>
<path style="fill:none;stroke:#000000;stroke-width:2;stroke-miterlimit:10;" d="M1,7c1.625,0,6.5-0.375,9,4"/>
<path style="fill:none;stroke:#000000;stroke-width:2;stroke-miterlimit:10;" d="M7,15c0,0-4-1.583-4-8"/>
<circle cx="19.5" cy="16.5" r="1.5"/>
<path style="fill:none;stroke:#000000;stroke-width:2;stroke-miterlimit:10;" d="M17,15c0,0,0.958,0,3,0s3,1,3,1"/>
<circle cx="12.5" cy="16.5" r="1.5"/>
<path style="fill:none;stroke:#000000;stroke-width:2;stroke-miterlimit:10;" d="M15,15c0,0-1.292,0-3,0s-3,1-3,1"/>
<circle cx="16" cy="20" r="2"/>
<path d="M16,19c-3.75,0-4,2-4,2c0.458,1.833,4,2,4,2s3.542-0.167,4-2C20,21,19.75,19,16,19z"/>
</svg>
