<?xml version="1.0" encoding="iso-8859-1"?>
<!-- Generator: Adobe Illustrator 19.1.1, SVG Export Plug-In . SVG Version: 6.00 Build 0)  -->
<svg version="1.1" id="Layer_1" xmlns="http://www.w3.org/2000/svg" xmlns:xlink="http://www.w3.org/1999/xlink" x="0px" y="0px"
	 viewBox="0 0 32 32" style="enable-background:new 0 0 32 32;" xml:space="preserve">
<path style="fill:none;stroke:#000000;stroke-width:2;stroke-miterlimit:10;" d="M20,29v-4c0,0,0.036,0,1,0c2,0,4-2.018,4-4
	c0-0.982,0-2.25,0-2.25s1.104-0.291,1.694-0.46c0.762-0.218,0.936-1.045,0.587-1.728c-0.311-0.609-2.691-5.382-2.691-5.382
	S23.199,4,15,4C9.477,4,5,8.477,5,14c0,3.785,3,6.574,3,10.136V29"/>
<path style="fill:none;stroke:#000000;stroke-width:2;stroke-miterlimit:10;" d="M15,4c0,0,0.169,8.555-10,10"/>
</svg>
