<?xml version="1.0" encoding="iso-8859-1"?>
<!-- Generator: Adobe Illustrator 19.1.1, SVG Export Plug-In . SVG Version: 6.00 Build 0)  -->
<svg version="1.1" id="Layer_1" xmlns="http://www.w3.org/2000/svg" xmlns:xlink="http://www.w3.org/1999/xlink" x="0px" y="0px"
	 viewBox="0 0 32 32" style="enable-background:new 0 0 32 32;" xml:space="preserve">
<circle style="fill:none;stroke:#000000;stroke-width:2;stroke-miterlimit:10;" cx="16" cy="25" r="2"/>
<path d="M16,4C9.935,4,5,8.935,5,15c0,4.272,2.453,7.975,6.021,9.796c0.03-0.715,0.211-1.387,0.511-1.994
	C8.829,21.247,7,18.336,7,15c0-4.962,4.038-9,9-9s9,4.038,9,9c0,3.336-1.829,6.247-4.532,7.801c0.3,0.608,0.482,1.279,0.511,1.994
	C24.547,22.975,27,19.272,27,15C27,8.935,22.065,4,16,4z"/>
</svg>
