<?xml version="1.0" encoding="iso-8859-1"?>
<!-- Generator: Adobe Illustrator 19.1.0, SVG Export Plug-In . SVG Version: 6.00 Build 0)  -->
<svg version="1.1" id="Layer_1" xmlns="http://www.w3.org/2000/svg" xmlns:xlink="http://www.w3.org/1999/xlink" x="0px" y="0px"
	 viewBox="0 0 32 32" style="enable-background:new 0 0 32 32;" xml:space="preserve">
<path style="fill:none;stroke:#000000;stroke-width:2;stroke-miterlimit:10;" d="M11.375,12.665l-0.48,0.48
	c-0.429,0.429-0.429,1.125,0,1.554l0.96,0.96c0.429,0.429,1.125,0.429,1.554,0l0,0c0.294-0.294,0.397-0.73,0.265-1.124l-0.828-2.483
	c-0.132-0.395-0.029-0.83,0.265-1.124l0,0c0.429-0.429,1.125-0.429,1.554,0l0.96,0.96c0.429,0.429,0.429,1.125,0,1.554l-0.48,0.48"
	/>
<polyline id="XMLID_7_" style="fill:none;stroke:#000000;stroke-width:2;stroke-miterlimit:10;" points="17.735,21.394 
	15.274,18.932 18.966,15.24 21.427,17.701 "/>
<line id="XMLID_6_" style="fill:none;stroke:#000000;stroke-width:2;stroke-miterlimit:10;" x1="17.12" y1="17.086" x2="18.966" y2="18.932"/>
<polyline style="fill:none;stroke:#000000;stroke-width:2;stroke-miterlimit:10;" points="4,15.077 16.923,28 25.538,25.538 
	28,16.923 15.077,4 "/>
</svg>
