<?xml version="1.0" encoding="iso-8859-1"?>
<!-- Generator: Adobe Illustrator 19.1.1, SVG Export Plug-In . SVG Version: 6.00 Build 0)  -->
<svg version="1.1" id="Layer_1" xmlns="http://www.w3.org/2000/svg" xmlns:xlink="http://www.w3.org/1999/xlink" x="0px" y="0px"
	 viewBox="0 0 32 32" style="enable-background:new 0 0 32 32;" xml:space="preserve">
<circle style="fill:none;stroke:#000000;stroke-width:2;stroke-miterlimit:10;" cx="16" cy="15" r="10"/>
<rect x="10" y="23" style="fill:none;stroke:#000000;stroke-width:2;stroke-miterlimit:10;" width="12" height="1"/>
<rect x="8" y="26" style="fill:none;stroke:#000000;stroke-width:2;stroke-miterlimit:10;" width="16" height="1"/>
<polygon style="fill:none;stroke:#000000;stroke-width:2;stroke-miterlimit:10;" points="15,23 11,23 11,13 13,11 15,13 "/>
<line style="fill:none;stroke:#000000;stroke-width:2;stroke-miterlimit:10;" x1="13" y1="9" x2="13" y2="11"/>
<path style="fill:none;stroke:#000000;stroke-width:2;stroke-linecap:round;stroke-linejoin:bevel;stroke-miterlimit:10;" d="
	M21.732,23.001C21.902,22.706,22,22.365,22,22c0-1.105-0.895-2-2-2c-0.375,0-0.721,0.11-1.021,0.289C18.87,19.009,17.808,18,16.5,18
	c-0.563,0-1.082,0.186-1.5,0.5"/>
<path style="fill:none;stroke:#000000;stroke-width:2;stroke-linejoin:bevel;stroke-miterlimit:10;" d="M8,21c0-1.105,0.895-2,2-2"
	/>
<rect x="15" y="7" width="2" height="2"/>
<rect x="18" y="9" width="2" height="2"/>
<rect x="21" y="11" width="2" height="2"/>
<rect x="18" y="13" width="2" height="2"/>
<rect x="21" y="15" width="2" height="2"/>
</svg>
