<?xml version="1.0" encoding="iso-8859-1"?>
<!-- Generator: Adobe Illustrator 19.1.1, SVG Export Plug-In . SVG Version: 6.00 Build 0)  -->
<svg version="1.1" id="Layer_1" xmlns="http://www.w3.org/2000/svg" xmlns:xlink="http://www.w3.org/1999/xlink" x="0px" y="0px"
	 viewBox="0 0 32 32" style="enable-background:new 0 0 32 32;" xml:space="preserve">
<path style="fill:none;stroke:#000000;stroke-width:2;stroke-miterlimit:10;" d="M16,18c3.536,0,11,2.216,11,4c0,3.913-11,4-11,4
	S5,25.964,5,22C5,19.938,12.464,18,16,18z"/>
<path style="fill:none;stroke:#000000;stroke-width:2;stroke-miterlimit:10;" d="M8,15c0,0.889,1.499,3,8,3s8-2.083,8-3
	s-2.041-4-8-4S8,14.111,8,15z"/>
<path style="fill:none;stroke:#000000;stroke-width:2;stroke-miterlimit:10;" d="M10,9c0-0.478,1.338-3,4-3c2.804,0,4,1.494,4,2
	s-1.335,3-4,3C11.477,11,10,9.478,10,9z"/>
</svg>
