<?xml version="1.0" encoding="iso-8859-1"?>
<!-- Generator: Adobe Illustrator 19.1.1, SVG Export Plug-In . SVG Version: 6.00 Build 0)  -->
<svg version="1.1"  xmlns="http://www.w3.org/2000/svg" xmlns:xlink="http://www.w3.org/1999/xlink" x="0px" y="0px"
	 viewBox="0 0 32 32" style="enable-background:new 0 0 32 32;" xml:space="preserve">
<path d="M16,29c-1.829,0-3.463-0.986-4.334-2.537c-1.716,0.479-3.565,0.022-4.858-1.271c-1.293-1.293-1.752-3.146-1.271-4.858
	C3.986,19.462,3,17.829,3,16s0.986-3.462,2.537-4.334C5.056,9.953,5.515,8.101,6.808,6.808c1.293-1.292,3.144-1.75,4.858-1.271
	C12.537,3.986,14.171,3,16,3s3.463,0.986,4.334,2.537c1.716-0.48,3.565-0.021,4.858,1.271c1.293,1.293,1.752,3.146,1.271,4.858
	C28.014,12.538,29,14.171,29,16s-0.986,3.462-2.537,4.334c0.481,1.713,0.022,3.565-1.271,4.858c-1.292,1.293-3.142,1.75-4.858,1.271
	C19.463,28.014,17.829,29,16,29z M12.796,23.736l0.356,1.148C13.545,26.149,14.689,27,16,27s2.455-0.851,2.848-2.116l0.356-1.148
	l1.064,0.559c1.17,0.617,2.582,0.41,3.51-0.517c0.927-0.926,1.134-2.337,0.518-3.51l-0.56-1.063l1.147-0.357
	C26.149,18.455,27,17.31,27,16s-0.851-2.455-2.116-2.848l-1.147-0.357l0.56-1.063c0.616-1.173,0.409-2.584-0.518-3.51
	c-0.928-0.927-2.338-1.134-3.51-0.517l-1.064,0.559l-0.356-1.148C18.455,5.851,17.311,5,16,5s-2.455,0.851-2.848,2.116l-0.356,1.148
	l-1.064-0.559c-1.171-0.618-2.583-0.41-3.51,0.517c-0.927,0.926-1.134,2.337-0.518,3.51l0.56,1.063l-1.147,0.357
	C5.851,13.545,5,14.69,5,16s0.851,2.455,2.116,2.848l1.147,0.357l-0.56,1.063c-0.616,1.173-0.409,2.584,0.518,3.51
	c0.927,0.927,2.337,1.134,3.51,0.517L12.796,23.736z"/>
<path d="M17,19h-2v-0.827c0-1.027,0.663-1.943,1.649-2.281c0.804-0.275,1.515-1.141,1.317-2.264
	c-0.138-0.787-0.81-1.458-1.596-1.596c-0.609-0.105-1.195,0.047-1.656,0.435C14.261,12.849,14,13.408,14,14h-2
	c0-1.185,0.521-2.302,1.429-3.064c0.907-0.762,2.102-1.08,3.288-0.873c1.613,0.283,2.938,1.607,3.221,3.22
	c0.345,1.966-0.766,3.859-2.641,4.502C17.116,17.847,17,17.999,17,18.173V19z"/>
<rect x="15" y="20" width="2" height="2"/>
</svg>
