<?xml version="1.0" encoding="iso-8859-1"?>
<!-- Generator: Adobe Illustrator 19.1.1, SVG Export Plug-In . SVG Version: 6.00 Build 0)  -->
<svg version="1.1" id="Layer_1" xmlns="http://www.w3.org/2000/svg" xmlns:xlink="http://www.w3.org/1999/xlink" x="0px" y="0px"
	 viewBox="0 0 32 32" style="enable-background:new 0 0 32 32;" xml:space="preserve">
<path style="fill:none;stroke:#000000;stroke-width:2;stroke-miterlimit:10;" d="M24,12c0,4.418-8,16-8,16S8,16.418,8,12
	s3.582-8,8-8S24,7.582,24,12z"/>
<path d="M17,12c-0.552,0-1-0.448-1-1c0-0.403,0.241-0.745,0.584-0.903C16.398,10.04,16.205,10,16,10c-1.105,0-2,0.895-2,2
	c0,1.105,0.895,2,2,2s2-0.895,2-2c0-0.205-0.04-0.398-0.097-0.584C17.745,11.759,17.403,12,17,12z"/>
<circle style="fill:none;stroke:#000000;stroke-width:2;stroke-miterlimit:10;" cx="16" cy="12" r="4.5"/>
</svg>
