<?xml version="1.0" encoding="iso-8859-1"?>
<!-- Generator: Adobe Illustrator 19.1.1, SVG Export Plug-In . SVG Version: 6.00 Build 0)  -->
<svg version="1.1" id="Layer_1" xmlns="http://www.w3.org/2000/svg" xmlns:xlink="http://www.w3.org/1999/xlink" x="0px" y="0px"
	 viewBox="0 0 32 32" style="enable-background:new 0 0 32 32;" xml:space="preserve">
<rect x="3" y="7" style="fill:none;stroke:#000000;stroke-width:2;stroke-miterlimit:10;" width="26" height="18"/>
<polygon points="16,19 20,23 20,21 22,21 19,18 "/>
<polygon points="16,19 12,23 12,21 10,21 13,18 "/>
<path style="fill:none;stroke:#000000;stroke-width:2;stroke-miterlimit:10;" d="M16.549,11.177l0.797,0.575l0.97,0.157
	c0.399,0.064,0.711,0.377,0.776,0.776l0.157,0.97l0.575,0.797c0.236,0.328,0.236,0.77,0,1.097l-0.575,0.797l-0.157,0.97
	c-0.064,0.399-0.377,0.711-0.776,0.776l-0.97,0.157l-0.797,0.575c-0.328,0.236-0.77,0.236-1.097,0l-0.797-0.575l-0.97-0.157
	c-0.399-0.064-0.711-0.377-0.776-0.776l-0.157-0.97l-0.575-0.797c-0.236-0.328-0.236-0.77,0-1.097l0.575-0.797l0.157-0.97
	c0.064-0.399,0.377-0.711,0.776-0.776l0.97-0.157l0.797-0.575C15.779,10.941,16.221,10.941,16.549,11.177z"/>
</svg>
