<?xml version="1.0" encoding="iso-8859-1"?>
<!-- Generator: Adobe Illustrator 22.0.1, SVG Export Plug-In . SVG Version: 6.00 Build 0)  -->
<svg version="1.1" id="&#x421;&#x43B;&#x43E;&#x439;_1"
	 xmlns="http://www.w3.org/2000/svg" xmlns:xlink="http://www.w3.org/1999/xlink" x="0px" y="0px" viewBox="0 0 32 32"
	 style="enable-background:new 0 0 32 32;" xml:space="preserve">
<g>
	<polyline style="fill:none;stroke:#000000;stroke-width:2;stroke-miterlimit:10;" points="24,17 24,5 6,5 6,27 17,27 	"/>
	<line style="fill:none;stroke:#000000;stroke-width:2;stroke-miterlimit:10;" x1="6" y1="12" x2="24" y2="12"/>
	<line style="fill:none;stroke:#000000;stroke-width:2;stroke-miterlimit:10;" x1="6" y1="20" x2="18" y2="20"/>
	<path d="M24,16c-4.4,0-8,3.6-8,8c0,4.4,3.6,8,8,8c4.4,0,8-3.6,8-8C32,19.6,28.4,16,24,16z M24,30c-3.3,0-6-2.7-6-6s2.7-6,6-6
		s6,2.7,6,6S27.3,30,24,30z"/>
	<polygon points="27.7,21.7 26.3,20.3 24,22.6 21.7,20.3 20.3,21.7 22.6,24 20.3,26.3 21.7,27.7 24,25.4 26.3,27.7 27.7,26.3 
		25.4,24 	"/>
</g>
</svg>
