<?xml version="1.0" encoding="iso-8859-1"?>
<!-- Generator: Adobe Illustrator 19.1.0, SVG Export Plug-In . SVG Version: 6.00 Build 0)  -->
<svg version="1.1" id="Layer_1" xmlns="http://www.w3.org/2000/svg" xmlns:xlink="http://www.w3.org/1999/xlink" x="0px" y="0px"
	 viewBox="0 0 32 32" style="enable-background:new 0 0 32 32;" xml:space="preserve">
<path style="fill:none;stroke:#000000;stroke-width:2;stroke-miterlimit:10;" d="M8,25c0,1.105,0.895,2,2,2h12c1.105,0,2-0.895,2-2"
	/>
<path style="fill:none;stroke:#000000;stroke-width:2;stroke-miterlimit:10;" d="M8,10v1c0,1.105,0.895,2,2,2h12
	c1.105,0,2-0.895,2-2v-1"/>
<path style="fill:none;stroke:#000000;stroke-width:2;stroke-miterlimit:10;" d="M24,23V7c0-1.105-0.895-2-2-2H10
	C8.895,5,8,5.895,8,7v16"/>
<path style="fill:none;stroke:#000000;stroke-width:2;stroke-miterlimit:10;" d="M27,16v6c0,0.552-0.448,1-1,1H6
	c-0.552,0-1-0.448-1-1v-6"/>
<path d="M18,19c0,1.105-0.895,2-2,2s-2-0.895-2-2s2-4,2-4S18,17.895,18,19z"/>
</svg>
