<?xml version="1.0" encoding="iso-8859-1"?>
<!-- Generator: Adobe Illustrator 19.1.0, SVG Export Plug-In . SVG Version: 6.00 Build 0)  -->
<svg version="1.1" id="Layer_1" xmlns="http://www.w3.org/2000/svg" xmlns:xlink="http://www.w3.org/1999/xlink" x="0px" y="0px"
	 viewBox="0 0 32 32" style="enable-background:new 0 0 32 32;" xml:space="preserve">
<polygon style="fill:none;stroke:#000000;stroke-width:2;stroke-miterlimit:10;" points="13,10 13,14 9,14 9,10 5,10 5,22 9,22 
	9,18 13,18 13,22 17,22 17,10 "/>
<path id="XMLID_129_" style="fill:none;stroke:#000000;stroke-width:2;stroke-miterlimit:10;" d="M20,22h4c1.657,0,3-1.343,3-3v0
	c0-1.657-1.343-3-3-3h-2"/>
<path id="XMLID_130_" style="fill:none;stroke:#000000;stroke-width:2;stroke-miterlimit:10;" d="M22,16h2c1.657,0,3-1.343,3-3v0
	c0-1.657-1.343-3-3-3h-4"/>
</svg>
