<?xml version="1.0" encoding="iso-8859-1"?>
<!-- Generator: Adobe Illustrator 19.1.0, SVG Export Plug-In . SVG Version: 6.00 Build 0)  -->
<svg version="1.1" id="Layer_1" xmlns="http://www.w3.org/2000/svg" xmlns:xlink="http://www.w3.org/1999/xlink" x="0px" y="0px"
	 viewBox="0 0 32 32" style="enable-background:new 0 0 32 32;" xml:space="preserve">
<path style="fill:none;stroke:#000000;stroke-width:2;stroke-miterlimit:10;" d="M18,4c0,0-2,1.533-2,5"/>
<line style="fill:none;stroke:#000000;stroke-width:2;stroke-miterlimit:10;" x1="3" y1="3" x2="29" y2="29"/>
<g>
	<path d="M10.484,11.856C11.528,10.655,14.089,10,16,10c1.989,0,4.7,0.703,5.652,2H10.628l2,2H21c0.664,1.108,1,2.787,1,5
		c0,1.277-0.307,2.487-0.837,3.535l1.468,1.468C23.496,22.556,24,20.828,24,19c0-2.04-0.264-3.688-0.788-5H24v-1
		c0-3.449-4.678-5-8-5c-2.344,0-5.355,0.776-6.93,2.442L10.484,11.856z"/>
	<path d="M20,24.2c-0.767,0.806-1.712,1.393-2.773,1.651l-0.607,0.147l-0.134,0.61C16.437,26.835,16.232,27,16,27
		s-0.437-0.165-0.486-0.392l-0.134-0.61l-0.607-0.147C12.007,25.178,10,22.297,10,19c0-1.73,0.212-3.122,0.619-4.181l-2.54-2.54
		C8.032,12.51,8,12.749,8,13v1h0.788C8.264,15.312,8,16.96,8,19c0,4.005,2.401,7.549,5.781,8.646C14.204,28.458,15.056,29,16,29
		s1.796-0.542,2.219-1.354c1.212-0.394,2.295-1.106,3.19-2.038L20,24.2z"/>
</g>
</svg>
