<?xml version="1.0" encoding="utf-8"?>
<!-- Generator: Adobe Illustrator 18.0.0, SVG Export Plug-In . SVG Version: 6.00 Build 0)  -->
<svg version="1.1" id="Layer_1" xmlns="http://www.w3.org/2000/svg" xmlns:xlink="http://www.w3.org/1999/xlink" x="0px" y="0px"
	 viewBox="0 0 32 32" enable-background="new 0 0 32 32" xml:space="preserve">
<rect x="8.2" y="18" width="0" height="0.1"/>
<path fill="none" stroke="#000000" stroke-width="2" stroke-miterlimit="10" d="M9,8c0,0,1.5-3,4.5-3C15.6,5,17,5.9,17,5.9
	S18.7,5,22,5"/>
<path fill="none" stroke="#000000" stroke-width="2" stroke-miterlimit="10" d="M9.5,8.6"/>
<path fill="none" stroke="#000000" stroke-width="2" stroke-linejoin="round" stroke-miterlimit="10" d="M27,7c0,0-1.7,2-3.5,2
	C21.2,9,20,8,20,8"/>
<line fill="none" stroke="#000000" stroke-width="2" stroke-linejoin="round" stroke-miterlimit="10" x1="7" y1="11" x2="19" y2="11"/>
<ellipse cx="13" cy="20.8" rx="0.6" ry="0.6"/>
<g>
	<path d="M14.3,20.8h2.2c0-1.3-0.7-2.5-1.7-3.1l-1.1,2C14,19.9,14.3,20.3,14.3,20.8z"/>
	<path d="M13,22.1c-0.2,0-0.4-0.1-0.6-0.2l-1.1,2c0.5,0.3,1.1,0.5,1.7,0.5s1.2-0.2,1.7-0.5l-1.1-2C13.4,22,13.2,22.1,13,22.1z"/>
	<path d="M12.4,19.6l-1.1-2c-1,0.6-1.7,1.8-1.7,3.1h2.2C11.7,20.3,12,19.9,12.4,19.6z"/>
</g>
<polygon fill="none" stroke="#000000" stroke-width="2" stroke-miterlimit="10" points="17,15 17,11 9,11 9,15 5,25 5,27 21,27 
	21,25 "/>
</svg>
