<?xml version="1.0" encoding="utf-8"?>
<!-- Generator: Adobe Illustrator 18.1.1, SVG Export Plug-In . SVG Version: 6.00 Build 0)  -->
<svg version="1.1" id="Layer_1" xmlns="http://www.w3.org/2000/svg" xmlns:xlink="http://www.w3.org/1999/xlink" x="0px" y="0px"
	 viewBox="0 0 32 32" enable-background="new 0 0 32 32" xml:space="preserve">
<path fill="none" stroke="#000000" stroke-width="2" stroke-miterlimit="10" d="M20.6,13c0.3-0.6,0.4-1.3,0.4-2c0-2.8-2.2-5-5-5
	s-5,2.2-5,5c0,0.7,0.2,1.4,0.4,2"/>
<path fill="none" stroke="#000000" stroke-width="2" stroke-miterlimit="10" d="M5,25V14c0-0.6,0.4-1,1-1h20c0.6,0,1,0.4,1,1v11
	c0,0.6-0.4,1-1,1H6C5.4,26,5,25.6,5,25z"/>
<circle fill="none" stroke="#000000" stroke-width="2" stroke-miterlimit="10" cx="16" cy="19" r="3"/>
<path fill="none" stroke="#000000" stroke-width="2" stroke-miterlimit="10" d="M12,26c0-2.2,1.8-4,4-4s4,1.8,4,4"/>
</svg>
