<?xml version="1.0" encoding="iso-8859-1"?>
<!-- Generator: Adobe Illustrator 19.1.1, SVG Export Plug-In . SVG Version: 6.00 Build 0)  -->
<svg version="1.1" id="Layer_1" xmlns="http://www.w3.org/2000/svg" xmlns:xlink="http://www.w3.org/1999/xlink" x="0px" y="0px"
	 viewBox="0 0 32 32" style="enable-background:new 0 0 32 32;" xml:space="preserve">
<g>
	<g>
		<path style="fill:none;stroke:#000000;stroke-width:2;stroke-miterlimit:10;" d="M26.045,13.324C26.045,7.006,21.548,3,16,3
			S5.955,7.006,5.955,13.324C5.955,18.134,6.653,22.703,9,25c-1.262,1.559-2,4-2,4s3.778,0,9,0s9,0,9,0s-0.738-2.441-2-4
			C25.347,22.703,26.045,18.134,26.045,13.324z"/>
	</g>
</g>
<path d="M19,22.182C19,23.186,17.657,24,16,24s-3-0.814-3-1.818C13,21.178,14.343,20,16,20S19,21.178,19,22.182z"/>
<path d="M21,17c-1.535,0-4-1.5-4-1.5s2.444-1.5,4-1.5c1.104,0,2,0.672,2,1.5C23,16.329,22.104,17,21,17z"/>
<path d="M11,17c1.535,0,4-1.5,4-1.5S12.556,14,11,14c-1.104,0-2,0.672-2,1.5C9,16.328,9.896,17,11,17z"/>
</svg>
