<?xml version="1.0" encoding="iso-8859-1"?>
<!-- Generator: Adobe Illustrator 19.1.1, SVG Export Plug-In . SVG Version: 6.00 Build 0)  -->
<svg version="1.1" xmlns="http://www.w3.org/2000/svg" xmlns:xlink="http://www.w3.org/1999/xlink" x="0px" y="0px"
	 viewBox="0 0 32 32" style="enable-background:new 0 0 32 32;" xml:space="preserve">
<g >
</g>
<g >
	<path style="fill:none;stroke:#000000;stroke-width:2;stroke-linecap:round;stroke-linejoin:round;" d="M25.482,16.895
		l-17.64,9.944c-0.593,0.337-1.347,0.126-1.682-0.469c-0.106-0.188-0.161-0.4-0.16-0.615V6.256C5.992,5.571,6.537,5.009,7.219,5
		c0.218-0.002,0.433,0.052,0.623,0.16l17.64,9.944c0.492,0.281,0.664,0.91,0.383,1.405C25.774,16.67,25.642,16.803,25.482,16.895z"
		/>
	<path d="M17.249,19.002c-0.417,0-0.828-0.208-1.063-0.583c-0.123-0.192-0.189-0.423-0.186-0.658v-3.533
		c-0.008-0.662,0.543-1.218,1.229-1.228c0.204,0.001,0.416,0.046,0.605,0.145l3.52,1.805c0.301,0.156,0.52,0.427,0.605,0.745
		c0.086,0.314,0.034,0.654-0.141,0.932c-0.107,0.173-0.265,0.319-0.452,0.419c-0.004,0.003-0.009,0.005-0.013,0.007l-3.528,1.808
		C17.644,18.956,17.445,19.002,17.249,19.002z"/>
	<path d="M15,13.357l-3.666-2.067c-0.341-0.194-0.711-0.267-1.128-0.29C8.975,11.016,7.985,12.033,8,13.256v12.869
		c0,0.553,0.448,1,1,1s1-0.447,1-1V13.244c-0.001-0.133,0.103-0.242,0.228-0.244c0.048,0.006,0.086,0.011,0.123,0.031L15,15.652
		V13.357z"/>
	<path d="M15,16.046l-9.37,5.335c-0.48,0.273-0.647,0.884-0.375,1.364c0.185,0.323,0.522,0.505,0.87,0.505
		c0.167,0,0.338-0.042,0.494-0.131L15,18.347V16.046z"/>
</g>
</svg>
