<?xml version="1.0" encoding="iso-8859-1"?>
<!-- Generator: Adobe Illustrator 19.1.0, SVG Export Plug-In . SVG Version: 6.00 Build 0)  -->
<svg version="1.1" id="Layer_1" xmlns="http://www.w3.org/2000/svg" xmlns:xlink="http://www.w3.org/1999/xlink" x="0px" y="0px"
	 viewBox="0 0 32 32" style="enable-background:new 0 0 32 32;" xml:space="preserve">
<polygon style="fill:none;stroke:#000000;stroke-width:2;stroke-miterlimit:10;" points="21.5,9 20,7 12,7 10.5,9 4,9 4,25 28,25 
	28,9 "/>
<g>
	<polygon points="18,16 22,16 22,12 	"/>
</g>
<g>
	<polygon points="14,18 10,18 10,22 	"/>
</g>
<g>
	<path d="M12.1,16c0.4-1.7,2-3,3.9-3c1.6,0,3.1,1,3.7,2.5l1.9-0.7C20.7,12.5,18.5,11,16,11c-3,0-5.4,2.2-5.9,5H12.1z"/>
	<path d="M19.9,18c-0.4,1.7-2,3-3.9,3c-1.6,0-3.1-1-3.7-2.5l-1.9,0.7c0.9,2.3,3.1,3.8,5.6,3.8c3,0,5.4-2.2,5.9-5H19.9z"/>
</g>
</svg>
