<?xml version="1.0" encoding="iso-8859-1"?>
<!-- Generator: Adobe Illustrator 19.1.0, SVG Export Plug-In . SVG Version: 6.00 Build 0)  -->
<svg version="1.1" id="Layer_1" xmlns="http://www.w3.org/2000/svg" xmlns:xlink="http://www.w3.org/1999/xlink" x="0px" y="0px"
	 viewBox="0 0 32 32" style="enable-background:new 0 0 32 32;" xml:space="preserve">
<path style="fill:none;stroke:#000000;stroke-width:2;stroke-miterlimit:10;" d="M5,16c0,5.087,3.621,8.525,3.988,8.892
	C9.858,25.762,12.15,27,16,27s6.004-1.192,7.012-2.108C23.425,24.525,27,21.087,27,16"/>
<path style="fill:none;stroke:#000000;stroke-width:2;stroke-miterlimit:10;" d="M12.126,7.807c0,0-2.126,0.684-2.126,3.221
	c0,4.949,5.995,5.035,7.91,5.972h0.259c0,0,1.83-2.581,1.83-6.421C20,6.385,17.615,6,16.859,6c-0.774,0-1.564,0.488-2.358,0.821"/>
<g>
	<path d="M22.475,11.732c-0.029,0.733-0.084,1.415-0.153,2.038C24.64,14.403,26,15.304,26,16c0,1.194-3.988,3-10,3S6,17.194,6,16
		c0-0.541,0.825-1.206,2.28-1.774c-0.305-0.56-0.531-1.19-0.657-1.899C5.45,13.166,4,14.394,4,16c0,3.283,6.037,5,12,5
		s12-1.717,12-5C28,13.961,25.669,12.527,22.475,11.732z"/>
</g>
<path style="fill:none;stroke:#000000;stroke-width:2;stroke-miterlimit:10;" d="M12,4c0,2.72-0.092,5.133,3.3,7.816"/>
</svg>
