<?xml version="1.0" encoding="iso-8859-1"?>
<!-- Generator: Adobe Illustrator 19.1.1, SVG Export Plug-In . SVG Version: 6.00 Build 0)  -->
<svg version="1.1" id="Layer_1" xmlns="http://www.w3.org/2000/svg" xmlns:xlink="http://www.w3.org/1999/xlink" x="0px" y="0px"
	 viewBox="0 0 32 32" style="enable-background:new 0 0 32 32;" xml:space="preserve">
<line style="fill:none;stroke:#000000;stroke-width:2;stroke-miterlimit:10;" x1="4.784" y1="23.784" x2="23.784" y2="4.784"/>
<path style="fill:none;stroke:#000000;stroke-width:2;stroke-miterlimit:10;" d="M22.569,6.001
	c4.574,4.575,4.574,11.993-0.001,16.568c-4.575,4.575-11.993,4.575-16.569,0"/>
<line style="fill:none;stroke:#000000;stroke-width:2;stroke-miterlimit:10;" x1="22.569" y1="6" x2="22.569" y2="6.001"/>
<path style="fill:none;stroke:#000000;stroke-width:2;stroke-miterlimit:10;" d="M22.417,4.833
	c5.875,4.917,5.842,13.359,0.809,18.392s-12.496,5.17-18.475-0.809"/>
<path d="M20.707,19.293c0.391,0.391,0.391,1.024,0,1.414c-0.391,0.391-1.024,0.391-1.414,0C18.902,20.317,18,18,18,18
	S20.317,18.902,20.707,19.293z"/>
<path d="M22.108,15.695c0.537,0.13,0.866,0.671,0.736,1.208s-0.671,0.866-1.208,0.736S19.123,16,19.123,16
	S21.571,15.565,22.108,15.695z"/>
<path d="M21.636,12.362c0.537-0.13,1.077,0.199,1.208,0.736c0.13,0.537-0.199,1.077-0.736,1.208C21.571,14.435,19.123,14,19.123,14
	S21.099,12.492,21.636,12.362z"/>
<path d="M17.638,21.636c0.13,0.537-0.199,1.077-0.736,1.208s-1.077-0.199-1.208-0.736C15.565,21.571,16,19.123,16,19.123
	S17.508,21.099,17.638,21.636z"/>
<path d="M13.713,22.024c-0.175,0.524-0.741,0.807-1.265,0.632s-0.807-0.741-0.632-1.265c0.175-0.524,1.843-2.367,1.843-2.367
	S13.887,21.5,13.713,22.024z"/>
</svg>
