<?xml version="1.0" encoding="iso-8859-1"?>
<!-- Generator: Adobe Illustrator 19.1.1, SVG Export Plug-In . SVG Version: 6.00 Build 0)  -->
<svg version="1.1" id="Layer_1" xmlns="http://www.w3.org/2000/svg" xmlns:xlink="http://www.w3.org/1999/xlink" x="0px" y="0px"
	 viewBox="0 0 32 32" style="enable-background:new 0 0 32 32;" xml:space="preserve">
<path d="M5.706,16c0,4.074,2.367,7.596,5.802,9.265L6.597,11.811C6.026,13.09,5.706,14.507,5.706,16z M22.949,15.479
	c0-1.272-0.456-2.153-0.849-2.838c-0.521-0.849-1.011-1.565-1.011-2.414c0-0.945,0.717-1.826,1.728-1.826
	c0.045,0,0.089,0.006,0.134,0.007C21.12,6.729,18.68,5.705,16,5.705c-3.597,0-6.761,1.845-8.601,4.641
	c0.242,0.007,0.469,0.012,0.663,0.012c1.077,0,2.743-0.131,2.743-0.131c0.555-0.032,0.62,0.783,0.066,0.849
	c0,0-0.558,0.065-1.178,0.097l3.748,11.151l2.253-6.756l-1.603-4.395c-0.555-0.032-1.08-0.097-1.08-0.097
	c-0.555-0.033-0.49-0.882,0.065-0.849c0,0,1.7,0.131,2.711,0.131c1.077,0,2.744-0.131,2.744-0.131
	c0.555-0.032,0.62,0.783,0.066,0.849c0,0-0.559,0.065-1.178,0.097l3.72,11.065l1.028-3.431
	C22.688,17.47,22.949,16.362,22.949,15.479z M16.181,16.9l-3.089,8.974c0.923,0.271,1.898,0.419,2.909,0.419
	c1.198,0,2.349-0.207,3.419-0.583c-0.027-0.044-0.053-0.092-0.074-0.142L16.181,16.9z M25.033,11.061
	c0.045,0.328,0.069,0.679,0.069,1.059c0,1.044-0.196,2.218-0.783,3.686l-3.144,9.091c3.061-1.785,5.118-5.1,5.118-8.897
	C26.294,14.209,25.837,12.526,25.033,11.061z"/>
<g>
	<path d="M4,16c0,6.616,5.383,12,12,12c6.618,0,12-5.384,12-12S22.618,4,16,4S4,9.382,4,16z M4.55,16C4.55,9.687,9.686,4.55,16,4.55
		S27.45,9.687,27.45,16S22.313,27.449,16,27.449S4.55,22.312,4.55,16z"/>
</g>
</svg>
