<?xml version="1.0" encoding="iso-8859-1"?>
<!-- Generator: Adobe Illustrator 19.1.1, SVG Export Plug-In . SVG Version: 6.00 Build 0)  -->
<svg version="1.1"  xmlns="http://www.w3.org/2000/svg" xmlns:xlink="http://www.w3.org/1999/xlink" x="0px" y="0px"
	 viewBox="0 0 32 32" style="enable-background:new 0 0 32 32;" xml:space="preserve">
<path style="fill:none;stroke:#000000;stroke-width:2;stroke-miterlimit:10;" d="M18,27H6c-1.657,0-3-1.343-3-3l0,0
	c0-1.657,1.343-3,3-3h12c1.657,0,3,1.343,3,3l0,0C21,25.657,19.657,27,18,27z"/>
<circle cx="18" cy="24" r="1"/>
<circle cx="6" cy="24" r="1"/>
<circle cx="10" cy="24" r="1"/>
<circle cx="14" cy="24" r="1"/>
<path style="fill:none;stroke:#000000;stroke-width:2;stroke-miterlimit:10;" d="M28,13l-4,5.896V19h3.845
	C28.483,19,29,18.483,29,17.844c0,0,0-3.826,0-4.844C29,12.375,28,13,28,13z"/>
<line style="fill:none;stroke:#000000;stroke-width:2;stroke-miterlimit:10;" x1="8" y1="21" x2="8" y2="18"/>
<line style="fill:none;stroke:#000000;stroke-width:2;stroke-miterlimit:10;" x1="15" y1="18" x2="15" y2="21"/>
<line style="fill:none;stroke:#000000;stroke-width:2;stroke-miterlimit:10;" x1="16.664" y1="9.622" x2="23" y2="6"/>
<path style="fill:none;stroke:#000000;stroke-width:2;stroke-miterlimit:10;" d="M9.933,13H6c-0.552,0-1,0.448-1,1v3
	c0,0.552,0.448,1,1,1h12c0.552,0,1-0.448,1-1v-2h-7.911L9.933,13z"/>
<path style="fill:none;stroke:#000000;stroke-width:2;stroke-miterlimit:10;" d="M10,13L9.992,8.623C9.996,8.278,10.278,8,10.623,8
	H14c0.357,0,0.693,0.165,0.912,0.446l3.722,4.461C18.871,13.211,19,13.586,19,13.972V15"/>
<circle style="fill:none;stroke:#000000;stroke-width:2;stroke-miterlimit:10;" cx="23" cy="6" r="1"/>
<g>
	<path d="M25.59,7.486c-0.341,0.592-0.87,1.057-1.514,1.306l4.165,4.859l1.518-1.302L25.59,7.486z"/>
</g>
</svg>
