<?xml version="1.0" encoding="iso-8859-1"?>
<!-- Generator: Adobe Illustrator 19.1.1, SVG Export Plug-In . SVG Version: 6.00 Build 0)  -->
<svg version="1.1" id="Layer_1" xmlns="http://www.w3.org/2000/svg" xmlns:xlink="http://www.w3.org/1999/xlink" x="0px" y="0px"
	 viewBox="0 0 32 32" style="enable-background:new 0 0 32 32;" xml:space="preserve">
<polyline points="23.757,11.705 24.39,10.558 25.917,11.958 25.577,9.961 29,11 26.532,8.634 30,7 26.306,7.523 28,4 24.955,7.074 
	24,4 23.596,7.159 22,6 "/>
<circle cx="7" cy="20" r="1"/>
<path style="fill:none;stroke:#000000;stroke-width:2;stroke-miterlimit:10;" d="M11,19c0,0-1.448-2.854-6.083-2.208 M11,19
	c0,0-2.125,0.042-2,2s1,4,1,4l-6,2c0,0-1-1.248-1-3c0-2.583,2-5,2-5v-2.208c0,0,4.151-2.973,3.435-5.273l11.924-3.726l0,0
	l1.191,3.818l-5.394,1.748l0.526,1.792C16.683,15.152,12.312,16.188,11,19c0,0,1.031,1,2.562,1c0,0,4.552-0.046,3.162-4.64"/>
<path style="fill:none;stroke:#000000;stroke-width:2;stroke-miterlimit:10;" d="M19.14,9.132l-1.191-3.818l0,0"/>
<path style="fill:none;stroke:#000000;stroke-width:2;stroke-miterlimit:10;" d="M4,13c2.844,0,4,1,4,1"/>
<line style="fill:none;stroke:#000000;stroke-width:2;stroke-miterlimit:10;" x1="13" y1="13" x2="11" y2="13.667"/>
</svg>
