<?xml version="1.0" encoding="iso-8859-1"?>
<!-- Generator: Adobe Illustrator 19.2.0, SVG Export Plug-In . SVG Version: 6.00 Build 0)  -->
<svg version="1.1" id="Layer_1" xmlns="http://www.w3.org/2000/svg" xmlns:xlink="http://www.w3.org/1999/xlink" x="0px" y="0px"
	 viewBox="0 0 32 32" style="enable-background:new 0 0 32 32;" xml:space="preserve">
<path style="fill:none;stroke:#000000;stroke-width:2;stroke-miterlimit:10;" d="M9.899,13.942c0,0-0.225,0.058-1.103,0.058
	C6.191,14,6,16.953,6,18"/>
<path style="fill:none;stroke:#000000;stroke-width:2;stroke-miterlimit:10;" d="M15.599,13.6c0,0-1.65-0.6-3.381-0.6
	C10.39,13,9,14.288,9,16.034c0,1.836,1.083,2.313,1.083,3.123S8.928,20.782,8,22.043V27"/>
<path style="fill:none;stroke:#000000;stroke-width:2;stroke-miterlimit:10;" d="M23.244,11.283c0.58,1.59,2.309,1.312,2.75,1.136
	c0.355,0.116,1.612,0.466,1.612,0.466c0.486-0.466,0.501-1.319,0.115-1.736l-1.225-1.024c0,0,0.076-1.56-1.496-1.825V7
	c-3.656,0-5,3.083-5,6"/>
<circle cx="16.5" cy="6.5" r="1.5"/>
<path style="fill:none;stroke:#000000;stroke-width:2;stroke-miterlimit:10;" d="M22.104,18.565
	c0.123,2.748,1.661,5.122,1.661,5.122l-0.681,1.617"/>
<path style="fill:none;stroke:#000000;stroke-width:2;stroke-miterlimit:10;" d="M21,27c0-1.147-1-1.909-1-1.909
	s0.626-3.135,1.16-5.591c0,0,1.84-0.928,1.84-2.863c0-1.515,0.205-3.724,1.234-4.439"/>
<path style="fill:none;stroke:#000000;stroke-width:2;stroke-miterlimit:10;" d="M14,27v-1.1l-2-3.577
	C13.484,20.865,13.435,19,13.435,19h0.283c0,0,2.163,1,4.282,1"/>
<path style="fill:none;stroke:#000000;stroke-width:2;stroke-miterlimit:10;" d="M17,18v-3.537l-2.299-1.388
	c0,0,0.625-2.529,0.788-3.072c0.107-0.358,0.325-0.603,0.7-0.603C16.82,9.4,18,12,18,12h2"/>
<polygon points="19.006,19 18,19 18,21 18.638,21 "/>
</svg>
