<?xml version="1.0" encoding="iso-8859-1"?>
<!-- Generator: Adobe Illustrator 19.1.0, SVG Export Plug-In . SVG Version: 6.00 Build 0)  -->
<svg version="1.1" id="Layer_1" xmlns="http://www.w3.org/2000/svg" xmlns:xlink="http://www.w3.org/1999/xlink" x="0px" y="0px"
	 viewBox="0 0 32 32" style="enable-background:new 0 0 32 32;" xml:space="preserve">
<path style="fill:none;stroke:#000000;stroke-width:2;stroke-linecap:round;stroke-miterlimit:10;" d="M19.127,9.6
	c-3.049-2.167-7.386-4.463-12.656-3.351c0.842,1.952,3.204,3.639,3.204,3.639"/>
<path style="fill:none;stroke:#000000;stroke-width:2;stroke-miterlimit:10;" d="M16.653,15.413
	c-0.918,1.841,0.345,4.286,0.345,4.286L17,25.592c0,0,1.117,0.392,2.331,0.392c1.558,0,2.669-1.317,2.669-1.317L20,19.1V19
	c0,0,2.5-1.48,2.5-4.491c0-1.051-0.417-2.092-0.417-2.092S24,11.085,24,8.491"/>
<path style="fill:none;stroke:#000000;stroke-width:2;stroke-miterlimit:10;" d="M29,8c-2.792,0-4.758,0.559-4.758,0.559
	S23.556,8,22,8c-1.853,0-2.35,1.659-2.618,2.244c-0.228,0.498-1.026,1.208-1.151,1.457C14.436,10.705,11.391,10,8.19,10
	C5.348,10,4,10.42,4,10.42c2.717,3.144,5.788,4.882,8.375,5.413c2.538,0.522,5.5-1.042,5.5-1.042"/>
</svg>
