<?xml version="1.0" encoding="iso-8859-1"?>
<!-- Generator: Adobe Illustrator 19.1.0, SVG Export Plug-In . SVG Version: 6.00 Build 0)  -->
<svg version="1.1" id="Layer_1" xmlns="http://www.w3.org/2000/svg" xmlns:xlink="http://www.w3.org/1999/xlink" x="0px" y="0px"
	 viewBox="0 0 32 32" style="enable-background:new 0 0 32 32;" xml:space="preserve">
<line style="fill:none;stroke:#000000;stroke-width:2;stroke-miterlimit:10;" x1="3" y1="3" x2="29" y2="29"/>
<g>
	<polygon points="16.434,17.78 21.823,15.76 23.841,8.697 27.447,6.895 26.553,5.105 22.159,7.303 20.177,14.24 14.881,16.227 	"/>
	<path d="M13.897,15.243c0.065-0.034,0.136-0.053,0.199-0.094l5.426-1.969l-1.748-4.812l-5.505,1.992
		c-0.783,0.289-1.344,0.915-1.603,1.652L13.897,15.243z M12.956,12.238l3.62-1.311l0.383,1.055l-3.827,1.389l-0.128,0.101
		c-0.045,0.036-0.075,0.044-0.131,0.027c-0.112-0.032-0.26-0.158-0.333-0.365C12.412,12.771,12.601,12.369,12.956,12.238z"/>
	<path d="M11.298,16.063c0-0.231-0.031-0.454-0.079-0.671L8.906,13.08C8.689,13.031,8.465,13,8.233,13
		c-1.689,0-3.063,1.374-3.063,3.063s1.374,3.064,3.063,3.064S11.298,17.753,11.298,16.063z M7.17,16.063
		C7.17,15.478,7.647,15,8.233,15c0.587,0,1.064,0.478,1.064,1.063c0,0.587-0.478,1.064-1.064,1.064
		C7.647,17.128,7.17,16.65,7.17,16.063z"/>
	<polygon points="12.824,16.998 12.408,17.154 6.241,24.35 7.759,25.65 13.592,18.846 14.377,18.551 	"/>
</g>
</svg>
