<?xml version="1.0" encoding="iso-8859-1"?>
<!-- Generator: Adobe Illustrator 19.2.0, SVG Export Plug-In . SVG Version: 6.00 Build 0)  -->
<svg version="1.1" id="Layer_1" xmlns="http://www.w3.org/2000/svg" xmlns:xlink="http://www.w3.org/1999/xlink" x="0px" y="0px"
	 viewBox="0 0 32 32" style="enable-background:new 0 0 32 32;" xml:space="preserve">
<path style="fill:none;stroke:#000000;stroke-width:2;stroke-linejoin:round;stroke-miterlimit:10;" d="M15.25,15
	c0,0,0.232,3,3.75,3"/>
<path style="fill:none;stroke:#000000;stroke-width:2;stroke-linejoin:round;stroke-miterlimit:10;" d="M13.177,16.066
	c0,0-1.057,3.432,2.848,4.974"/>
<path style="fill:none;stroke:#000000;stroke-width:2;stroke-miterlimit:10;" d="M5.596,14.37c0,0,0.306,1.63,3.404,1.63"/>
<path style="fill:none;stroke:#000000;stroke-width:2;stroke-miterlimit:10;" d="M5.17,18.356C5.17,18.356,6.045,20,9,20"/>
<circle cx="19.5" cy="6.5" r="1.5"/>
<path style="fill:none;stroke:#000000;stroke-width:2;stroke-miterlimit:10;" d="M24.97,5h-8.251c-6.716,0-8.473,4.681-8.473,4.681
	s0.383,2.131,3.285,3.978"/>
<path style="fill:none;stroke:#000000;stroke-width:2;stroke-miterlimit:10;" d="M26,22.836c0,0-4.034,4.164-9.85,4.164
	c-5.216,0-11.16-3.387-11.16-10c0-3.79,3.057-6.876,3.057-6.876"/>
<path style="fill:none;stroke:#000000;stroke-width:2;stroke-miterlimit:10;" d="M27,7c-7.969,0-4.006,8-13,8
	c-1.045,1.825-2.913,2.036-2.913,4.893c0,1.705,1.705,6.115,5.838,6.115S22.51,21,22.51,21"/>
</svg>
