<?xml version="1.0" encoding="iso-8859-1"?>
<!-- Generator: Adobe Illustrator 19.1.1, SVG Export Plug-In . SVG Version: 6.00 Build 0)  -->
<svg version="1.1" id="Layer_1" xmlns="http://www.w3.org/2000/svg" xmlns:xlink="http://www.w3.org/1999/xlink" x="0px" y="0px"
	 viewBox="-7 9 32 32" enable-background="new -7 9 32 32" xml:space="preserve">
<path d="M21,22c0-4.81-4.146-7-8-7c-1.383,0-2.801,0.409-4,1.131C7.801,15.409,6.383,15,5,15c-3.853,0-8,2.19-8,7
	c0,3.558,2.241,6.688,5.609,8.461c-1.792,1.244-3.511,2.216-4.632,2.767l0.88,1.796c0.245-0.12,3.005-1.491,5.933-3.658
	C6.101,31.775,7.52,32,9,32c1.463,0,2.866-0.22,4.164-0.621c2.904,2.194,5.641,3.598,5.884,3.721l0.904-1.783
	c-1.115-0.566-2.829-1.563-4.612-2.829C18.736,28.72,21,25.576,21,22z M10,21c0,1.077-0.374,2.163-0.997,3.223
	C8.377,23.158,8,22.071,8,21c0-0.904,0.389-1.701,1-2.342C9.611,19.299,10,20.096,10,21z M4.427,29.113C1.207,27.783-1,25.094-1,22
	c0-4.86,5.386-5,6-5c0.785,0,1.597,0.184,2.335,0.512C6.514,18.464,6,19.648,6,21c0,1.732,0.689,3.409,1.745,4.968
	C6.798,27.088,5.639,28.153,4.427,29.113z M9,30c-0.772,0-1.524-0.07-2.247-0.204C7.546,29.109,8.309,28.368,9,27.585
	c0.682,0.78,1.434,1.52,2.215,2.208C10.5,29.929,9.758,30,9,30z M10.258,25.973C11.313,24.422,12,22.745,12,21
	c0-1.352-0.514-2.536-1.335-3.488C11.403,17.184,12.215,17,13,17c0.614,0,6,0.14,6,5c0,3.047-2.26,5.761-5.484,7.106
	C12.327,28.144,11.19,27.083,10.258,25.973z"/>
</svg>
