<?xml version="1.0" encoding="iso-8859-1"?>
<!-- Generator: Adobe Illustrator 22.1.0, SVG Export Plug-In . SVG Version: 6.00 Build 0)  -->
<svg version="1.1" id="Layer_1" xmlns="http://www.w3.org/2000/svg" xmlns:xlink="http://www.w3.org/1999/xlink" x="0px" y="0px"
	 viewBox="0 0 32 32" style="enable-background:new 0 0 32 32;" xml:space="preserve">
<ellipse transform="matrix(0.0063 -1 1 0.0063 0.8991 30.9057)" cx="16" cy="15" rx="0.999" ry="2.5"/>
<path d="M11.85,11.078c-1.223-0.517-2.035-1.307-1.814-1.764c0.221-0.457,1.391-0.409,2.614,0.108
	c1.223,0.517,2.035,1.307,1.814,1.764C14.243,11.644,13.073,11.595,11.85,11.078z"/>
<path d="M13.166,6.47c-0.911-0.881-1.388-1.917-1.066-2.315c0.322-0.398,1.322-0.006,2.233,0.875s1.388,1.917,1.066,2.315
	C15.077,7.742,14.077,7.351,13.166,6.47z"/>
<path d="M16.743,8.987c0.409-1.234,1.192-2.117,1.748-1.972c0.556,0.145,0.675,1.263,0.266,2.497
	c-0.409,1.234-1.192,2.117-1.748,1.972C16.453,11.339,16.334,10.221,16.743,8.987z"/>
<path style="fill:none;stroke:#000000;stroke-width:2;stroke-miterlimit:10;" d="M3,15h7c0,3.314,2.686,6,6,6s6-2.686,6-6h7"/>
<circle cx="13" cy="24" r="1"/>
<circle cx="16" cy="27" r="1"/>
<circle cx="19" cy="24" r="1"/>
<circle cx="4" cy="21" r="1"/>
<circle cx="22" cy="21" r="1"/>
<circle cx="7" cy="18" r="1"/>
<circle cx="25" cy="18" r="1"/>
<circle cx="25" cy="24" r="1"/>
<circle cx="28" cy="27" r="1"/>
<circle cx="28" cy="21" r="1"/>
<circle cx="4" cy="27" r="1"/>
<circle cx="22" cy="27" r="1"/>
<circle cx="10" cy="21" r="1"/>
<circle cx="10" cy="27" r="1"/>
<circle cx="7" cy="24" r="1"/>
</svg>
