<?xml version="1.0" encoding="iso-8859-1"?>
<!-- Generator: Adobe Illustrator 21.1.0, SVG Export Plug-In . SVG Version: 6.00 Build 0)  -->
<svg version="1.1" id="Layer_1" xmlns="http://www.w3.org/2000/svg" xmlns:xlink="http://www.w3.org/1999/xlink" x="0px" y="0px"
	 viewBox="0 0 32 32" style="enable-background:new 0 0 32 32;" xml:space="preserve">
<path style="fill:none;stroke:#000000;stroke-width:2;stroke-miterlimit:10;" d="M5,16C5,9.925,7.925,5,14,5
	c5.695,0,7.294,1.817,8.413,3.53C23.223,9.771,27,11.861,27,16c0,6.075-4.925,11-11,11S5,22.075,5,16z"/>
<rect x="24" y="15" width="2" height="2"/>
<rect x="20" y="15" width="2" height="2"/>
<rect x="16" y="15" width="2" height="2"/>
<rect x="12" y="15" width="2" height="2"/>
<rect x="8" y="15" width="2" height="2"/>
<rect x="16" y="19" width="2" height="2"/>
<rect x="16" y="23" width="2" height="2"/>
<rect x="16" y="11" width="2" height="2"/>
<rect x="16" y="7" width="2" height="2"/>
</svg>
