<?xml version="1.0" encoding="iso-8859-1"?>
<!-- Generator: Adobe Illustrator 19.0.1, SVG Export Plug-In . SVG Version: 6.00 Build 0)  -->
<svg version="1.1" id="Layer_1" xmlns="http://www.w3.org/2000/svg" xmlns:xlink="http://www.w3.org/1999/xlink" x="0px" y="0px"
	 viewBox="0 0 32 32" style="enable-background:new 0 0 32 32;" xml:space="preserve">
<path id="XMLID_279_" style="fill:none;stroke:#000000;stroke-width:2;stroke-miterlimit:10;" d="M25.5,12.604
	c0,0,0.5-1.226,0.5-2.007C26,6.692,21.406,6,20,6l-1.349-1h-5.301L12,6c-1.406,0-6,0.692-6,4.598c0,0.781,0.5,2.079,0.5,2.079
	S5,14.763,5,17.107L7,19c1.775-0.517,2.45-3,2.45-3h0.1c0,0,0.95,1.531,0.95,5.533c0,0.391-0.5,1.692-0.5,2.343
	c0,0.781,0.41,2.083,2,3.124h8c1.59-1.041,2-2.343,2-3.124c0-0.651-0.5-1.953-0.5-2.343c0-4.001,0.95-5.533,0.95-5.533h0.1
	c0,0,0.675,2.483,2.45,3l2-1.893C27,14.763,25.5,12.604,25.5,12.604z"/>
<path id="XMLID_258_" d="M25.5,13c0.331,0,0.5-1.621,0.5-2.402c0-3.905-5.242-4.81-6.069-4.609
	c-0.852,2.405,0.055,5.031,0.055,5.031S23.378,13,25.5,13z"/>
<path id="XMLID_411_" d="M6.323,13c-0.331,0-0.5-1.621-0.5-2.402c0-3.905,5.778-4.965,6.192-4.598C12.942,7.917,12,11.019,12,11.019
	S8.446,13,6.323,13z"/>
</svg>
