<?xml version="1.0" encoding="iso-8859-1"?>
<!-- Generator: Adobe Illustrator 19.1.0, SVG Export Plug-In . SVG Version: 6.00 Build 0)  -->
<svg version="1.1" id="Layer_1" xmlns="http://www.w3.org/2000/svg" xmlns:xlink="http://www.w3.org/1999/xlink" x="0px" y="0px"
	 viewBox="0 0 32 32" style="enable-background:new 0 0 32 32;" xml:space="preserve">
<circle style="fill:none;stroke:#000000;stroke-width:2;stroke-miterlimit:10;" cx="16" cy="16" r="11"/>
<circle style="fill:none;stroke:#000000;stroke-width:2;stroke-miterlimit:10;" cx="16" cy="16" r="5"/>
<circle cx="16" cy="16" r="2"/>
<g>
	<path d="M14.99,19.858l-1.98,0.283l0.648,4.539c0.662,0.179,1.352,0.284,2.065,0.306L14.99,19.858z"/>
	<path d="M18.99,20.142l-1.98-0.283l-0.732,5.128c0.712-0.022,1.403-0.127,2.065-0.306L18.99,20.142z"/>
	<path d="M12,19v-2H7.059c0.077,0.695,0.24,1.362,0.466,2H12z"/>
	<path d="M12.142,14.99l-0.283-1.98L7.32,13.658c-0.179,0.662-0.284,1.352-0.306,2.065L12.142,14.99z"/>
	<path d="M20,17v2h4.475c0.227-0.638,0.389-1.305,0.466-2H20z"/>
	<path d="M20.142,13.01l-0.283,1.98l5.128,0.732c-0.022-0.712-0.127-1.403-0.306-2.065L20.142,13.01z"/>
</g>
</svg>
