<?xml version="1.0" encoding="iso-8859-1"?>
<!-- Generator: Adobe Illustrator 19.1.1, SVG Export Plug-In . SVG Version: 6.00 Build 0)  -->
<svg version="1.1" id="Layer_1" xmlns="http://www.w3.org/2000/svg" xmlns:xlink="http://www.w3.org/1999/xlink" x="0px" y="0px"
	 viewBox="0 0 32 32" style="enable-background:new 0 0 32 32;" xml:space="preserve">
<circle style="fill:none;stroke:#000000;stroke-width:2;stroke-miterlimit:10;" cx="13.018" cy="8" r="2"/>
<path style="fill:none;stroke:#000000;stroke-width:2;stroke-miterlimit:10;" d="M11.018,18v-5c0-1.1,0.9-2,2-2l0,0c1.1,0,2,0.9,2,2
	v1"/>
<path style="fill:none;stroke:#000000;stroke-width:2;stroke-miterlimit:10;" d="M25,14c1.657,0,3-1.343,3-3s-1.343-3-3-3h-4L9,20H7
	c-1.657,0-3,1.343-3,3s1.343,3,3,3h0.018H11l12-12H25z"/>
<polygon points="18,22 18,27 23,27 "/>
<line style="fill:none;stroke:#000000;stroke-width:2;stroke-miterlimit:10;" x1="19" y1="26" x2="25" y2="20"/>
</svg>
