<?xml version="1.0" encoding="iso-8859-1"?>
<!-- Generator: Adobe Illustrator 19.1.1, SVG Export Plug-In . SVG Version: 6.00 Build 0)  -->
<svg version="1.1" id="Layer_1" xmlns="http://www.w3.org/2000/svg" xmlns:xlink="http://www.w3.org/1999/xlink" x="0px" y="0px"
	 viewBox="0 0 32 32" style="enable-background:new 0 0 32 32;" xml:space="preserve">
<path style="fill:none;stroke:#000000;stroke-width:2;stroke-miterlimit:10;" d="M9,24c-0.917,0-1-1-1-1c0-1.143,0.649-2,1.792-2
	C11.22,21,12,22.167,12,23.766C12,25.75,10.708,27,8.625,27c-2.233,0-3.667-1.81-3.667-4.042C4.958,20.167,6.834,18,9.625,18
	C13.542,18,15,20.512,15,24v5"/>
<path style="fill:none;stroke:#000000;stroke-width:2;stroke-miterlimit:10;" d="M10.704,14.999C11.477,14.369,12.473,14,13.625,14
	C17.542,14,19,16.512,19,20v3"/>
<path style="fill:none;stroke:#000000;stroke-width:2;stroke-miterlimit:10;" d="M15.704,9.999C16.477,9.369,17.473,9,18.625,9
	C22.542,9,24,11.512,24,15v0.542"/>
<path style="fill:none;stroke:#000000;stroke-width:2;stroke-miterlimit:10;" d="M6.318,19.365L19.625,6.042
	c0,0,1.089-1.042,2.63-1.042C27.875,5,27,11,27,11L15.165,28.412"/>
</svg>
