<?xml version="1.0" encoding="iso-8859-1"?>
<!-- Generator: Adobe Illustrator 19.2.0, SVG Export Plug-In . SVG Version: 6.00 Build 0)  -->
<svg version="1.1" xmlns="http://www.w3.org/2000/svg" xmlns:xlink="http://www.w3.org/1999/xlink" x="0px" y="0px"
	 viewBox="0 0 32 32" style="enable-background:new 0 0 32 32;" xml:space="preserve">
<g >
	<path d="M13.25,9v1c-0.6,0-1,0.25-1,1.1V13h-1V9h1v0.65C12.45,9.2,12.75,9,13.25,9z"/>
	<path d="M10.182,10.468C9.972,10.227,9.673,10.05,9.3,10C9.76,9.771,10,9.365,10,8.6C10,7.7,9.266,7,8.365,7H6v6h2.35
		c1.15,0,2.15-0.3,2.15-1.65C10.5,11.028,10.386,10.714,10.182,10.468z M7,8h1.178c0.566,0,0.801,0.3,0.801,0.75
		c0,0.55-0.377,0.75-0.801,0.75H7V8z M8.358,12H7v-1.5h1.358c0.582,0,0.97,0.194,0.97,0.774C9.328,11.807,8.989,12,8.358,12z"/>
	<path d="M22.182,22.468C21.972,22.227,21.673,22.05,21.3,22c0.461-0.229,0.7-0.635,0.7-1.4c0-0.9-0.735-1.6-1.635-1.6H18v6h2.35
		c1.15,0,2.15-0.3,2.15-1.65C22.5,23.027,22.386,22.713,22.182,22.468z M19,20h1.178c0.566,0,0.801,0.3,0.801,0.75
		c0,0.55-0.377,0.75-0.801,0.75H19V20z M20.358,24H19v-1.5h1.358c0.582,0,0.97,0.194,0.97,0.774C21.328,23.806,20.989,24,20.358,24z
		"/>
	<rect x="4" y="4" style="fill:none;stroke:#000000;stroke-width:2;stroke-miterlimit:10;" width="12" height="12"/>
	<rect x="16" y="16" style="fill:none;stroke:#000000;stroke-width:2;stroke-miterlimit:10;" width="12" height="12"/>
	<path d="M26,22c0-0.74-0.8-1-1.5-1c-0.63,0-1.215,0.288-1.326,1h0.784c0.075-0.172,0.235-0.25,0.542-0.25
		c0.35,0,0.655,0.156,0.655,0.4v0.1c-0.2,0.1-1.15,0.35-1.15,0.35C23.555,22.7,23,23.05,23,23.8s0.555,1.2,1.155,1.2
		c0.4,0,0.75-0.15,1.05-0.45c0,0.1-0.005,0.325-0.005,0.45H26C26,24.9,26,22,26,22z M25,23.608c0,0.45-0.332,0.619-0.613,0.619
		c-0.225,0-0.512-0.169-0.512-0.45s0.291-0.424,0.523-0.52c0,0,0.546-0.212,0.602-0.156V23.608z"/>
</g>
<g >
</g>
</svg>
