<?xml version="1.0" encoding="utf-8"?>
<!-- Generator: Adobe Illustrator 18.1.1, SVG Export Plug-In . SVG Version: 6.00 Build 0)  -->
<svg version="1.1" id="Layer_1" xmlns="http://www.w3.org/2000/svg" xmlns:xlink="http://www.w3.org/1999/xlink" x="0px" y="0px"
	 viewBox="0 0 32 32" enable-background="new 0 0 32 32" xml:space="preserve">
<path fill="none" stroke="#000000" stroke-width="2" stroke-miterlimit="10" d="M16,4C9.4,4,4,9.4,4,16s5.4,12,12,12s12-5.4,12-12
	S22.6,4,16,4z"/>
<path fill="none" stroke="#000000" stroke-width="2" stroke-miterlimit="10" d="M16,24c-4.4,0-8-3.6-8-8s3.6-8,8-8s8,3.6,8,8
	S20.4,24,16,24z"/>
<path d="M16,11c-2.8,0-5,2.2-5,5s2.2,5,5,5s5-2.2,5-5S18.8,11,16,11z M18.5,19.3L16,17.5l-2.4,1.8l1-3l-2.4-1.9h3l0.9-2.7l1,2.7H20
	l-2.4,1.9L18.5,19.3z"/>
</svg>
