<?xml version="1.0" encoding="iso-8859-1"?>
<!-- Generator: Adobe Illustrator 19.1.1, SVG Export Plug-In . SVG Version: 6.00 Build 0)  -->
<svg version="1.1" id="Layer_1" xmlns="http://www.w3.org/2000/svg" xmlns:xlink="http://www.w3.org/1999/xlink" x="0px" y="0px"
	 viewBox="0 0 32 32" style="enable-background:new 0 0 32 32;" xml:space="preserve">
<line style="fill:none;stroke:#000000;stroke-width:2;stroke-miterlimit:10;" x1="23" y1="13" x2="28" y2="18"/>
<line style="fill:none;stroke:#000000;stroke-width:2;stroke-miterlimit:10;" x1="9" y1="13" x2="4" y2="18"/>
<path style="fill:none;stroke:#000000;stroke-width:2;stroke-miterlimit:10;" d="M22,27c0,0-2.938,1-6,1s-6-1-6-1s-1-3.989-1-11
	s1-11,1-11s3.048-1,6-1s6,1,6,1s1,4.071,1,11S22,27,22,27z"/>
<path style="fill:none;stroke:#000000;stroke-width:2;stroke-miterlimit:10;" d="M9,16c0-2.208,1-3,1-3s3.048-1,6-1s6,1,6,1
	s1,0.583,1,3"/>
<path style="fill:none;stroke:#000000;stroke-width:2;stroke-miterlimit:10;" d="M9,18c0,3.875,1,5,1,5s2.938,1,6,1s6-1,6-1
	s1-1.083,1-5"/>
</svg>
