<?xml version="1.0" encoding="utf-8"?>
<!-- Generator: Adobe Illustrator 18.0.0, SVG Export Plug-In . SVG Version: 6.00 Build 0)  -->
<svg version="1.1" id="Layer_1" xmlns="http://www.w3.org/2000/svg" xmlns:xlink="http://www.w3.org/1999/xlink" x="0px" y="0px"
	 viewBox="0 0 32 32" enable-background="new 0 0 32 32" xml:space="preserve">
<circle fill="none" stroke="#000000" stroke-width="2" stroke-miterlimit="10" cx="16" cy="16" r="9"/>
<circle fill="none" stroke="#000000" stroke-width="2" stroke-miterlimit="10" cx="16" cy="16" r="4"/>
<line fill="none" stroke="#000000" stroke-width="2" stroke-miterlimit="10" x1="4.9" y1="20.6" x2="8.6" y2="19.1"/>
<line fill="none" stroke="#000000" stroke-width="2" stroke-miterlimit="10" x1="23.4" y1="12.9" x2="27.1" y2="11.4"/>
<line fill="none" stroke="#000000" stroke-width="2" stroke-miterlimit="10" x1="11.4" y1="4.9" x2="12.9" y2="8.6"/>
<line fill="none" stroke="#000000" stroke-width="2" stroke-miterlimit="10" x1="19.1" y1="23.4" x2="20.6" y2="27.1"/>
<line fill="none" stroke="#000000" stroke-width="2" stroke-miterlimit="10" x1="4.9" y1="11.4" x2="8.6" y2="12.9"/>
<line fill="none" stroke="#000000" stroke-width="2" stroke-miterlimit="10" x1="23.4" y1="19.1" x2="27.1" y2="20.6"/>
<line fill="none" stroke="#000000" stroke-width="2" stroke-miterlimit="10" x1="20.6" y1="4.9" x2="19.1" y2="8.6"/>
<line fill="none" stroke="#000000" stroke-width="2" stroke-miterlimit="10" x1="12.9" y1="23.4" x2="11.4" y2="27.1"/>
<ellipse fill="none" stroke="#000000" stroke-width="2" stroke-miterlimit="10" cx="16" cy="11.2" rx="0" ry="1.2"/>
<ellipse fill="none" stroke="#000000" stroke-width="2" stroke-miterlimit="10" cx="16" cy="20.8" rx="0" ry="1.2"/>
<ellipse fill="none" stroke="#000000" stroke-width="2" stroke-miterlimit="10" cx="20.8" cy="16" rx="0" ry="1.2"/>
<ellipse fill="none" stroke="#000000" stroke-width="2" stroke-miterlimit="10" cx="11.2" cy="16" rx="0" ry="1.2"/>
<ellipse fill="none" stroke="#000000" stroke-width="2" stroke-miterlimit="10" cx="19.4" cy="12.6" rx="0" ry="1.2"/>
<ellipse fill="none" stroke="#000000" stroke-width="2" stroke-miterlimit="10" cx="12.6" cy="19.4" rx="0" ry="1.2"/>
<ellipse fill="none" stroke="#000000" stroke-width="2" stroke-miterlimit="10" cx="19.4" cy="19.4" rx="0" ry="1.2"/>
<ellipse fill="none" stroke="#000000" stroke-width="2" stroke-miterlimit="10" cx="12.6" cy="12.6" rx="0" ry="1.2"/>
</svg>
