<?xml version="1.0" encoding="iso-8859-1"?>
<!-- Generator: Adobe Illustrator 21.0.2, SVG Export Plug-In . SVG Version: 6.00 Build 0)  -->
<svg version="1.1" id="Layer_1" xmlns="http://www.w3.org/2000/svg" xmlns:xlink="http://www.w3.org/1999/xlink" x="0px" y="0px"
	 viewBox="0 0 32 32" style="enable-background:new 0 0 32 32;" xml:space="preserve">
<path style="fill:none;stroke:#000000;stroke-width:2;stroke-miterlimit:10;" d="M20,8c0,0,1.735-4,6.882-4c0,0,0.735,5.727-1.471,9
	"/>
<path style="fill:none;stroke:#000000;stroke-width:2;stroke-miterlimit:10;" d="M12,8c0,0-1.735-4-6.882-4c0,0-0.735,5.727,1.471,9
	"/>
<path style="fill:none;stroke:#000000;stroke-width:2;stroke-miterlimit:10;" d="M5.231,16.05C5.025,16.678,4.8,17.3,4.519,17.898
	L4,19c0,0,3.95,2.471,6.995,4.985L11,24l0.211,0.619C11.898,26.638,13.827,28,16,28s4.102-1.362,4.789-3.381L21,24l0.005-0.015
	C24.05,21.471,28,19,28,19l-0.519-1.102c-0.281-0.598-0.506-1.22-0.712-1.848C24.812,10.689,20.725,7,16,7S7.188,10.689,5.231,16.05
	z"/>
<path d="M14.204,23.315l1.308,1.46c0.27,0.301,0.707,0.301,0.976,0l1.308-1.46C18.231,22.829,17.923,22,17.308,22h-2.617
	C14.077,22,13.769,22.829,14.204,23.315z"/>
<path d="M20.2,16c-1.8,0-2.2,3-2.2,3s1.471,0,1.8,0c1.8,0,2.2-3,2.2-3S20.529,16,20.2,16z"/>
<path d="M11.8,16c1.8,0,2.2,3,2.2,3s-1.471,0-1.8,0c-1.8,0-2.2-3-2.2-3S11.471,16,11.8,16z"/>
</svg>
