<?xml version="1.0" encoding="iso-8859-1"?>
<!-- Generator: Adobe Illustrator 19.1.1, SVG Export Plug-In . SVG Version: 6.00 Build 0)  -->
<svg version="1.1" id="Layer_1" xmlns="http://www.w3.org/2000/svg" xmlns:xlink="http://www.w3.org/1999/xlink" x="0px" y="0px"
	 viewBox="0 0 32 32" style="enable-background:new 0 0 32 32;" xml:space="preserve">
<path style="fill:none;stroke:#000000;stroke-width:2;stroke-miterlimit:10;" d="M3,24c2.554,0,6.198-1.025,8-4
	c2.435-4.497,10.089-13.927,14-16"/>
<path d="M10.955,25.907c-0.204,0-0.404-0.015-0.601-0.035C10.112,27.011,10,28.109,10,29h2c0-0.941,0.134-2.142,0.447-3.339
	C11.98,25.807,11.489,25.907,10.955,25.907z"/>
<path d="M14.523,21.207C14.313,19.511,13.175,17.13,13,17l-1.098,0.684L10,21l-3.607,2.193l1.087,0.661
	c0.847,0.516,2.168,1.053,3.475,1.053c1.028,0,2.048-0.333,2.818-1.273C14.371,22.906,14.63,22.066,14.523,21.207z M12,23
	c-0.552,0-1-0.448-1-1c0-0.552,0.448-1,1-1s1,0.448,1,1C13,22.552,12.552,23,12,23z"/>
<path d="M26.582,7.092c-5.581,2.573-9.589,7.391-12.009,10.798c0.313,0.748,0.606,1.618,0.787,2.375
	c2.23-3.32,6.191-8.652,12.059-11.357L26.582,7.092z"/>
</svg>
