<?xml version="1.0" encoding="iso-8859-1"?>
<!-- Generator: Adobe Illustrator 19.1.1, SVG Export Plug-In . SVG Version: 6.00 Build 0)  -->
<svg version="1.1" id="Layer_1" xmlns="http://www.w3.org/2000/svg" xmlns:xlink="http://www.w3.org/1999/xlink" x="0px" y="0px"
	 viewBox="0 0 32 32" style="enable-background:new 0 0 32 32;" xml:space="preserve">
<path style="fill:none;stroke:#000000;stroke-width:2;stroke-miterlimit:10;" d="M21,14H11c-0.552,0-1-0.448-1-1V7
	c0-0.552,0.448-1,1-1h10c0.552,0,1,0.448,1,1v6C22,13.552,21.552,14,21,14z"/>
<path style="fill:none;stroke:#000000;stroke-width:2;stroke-miterlimit:10;" d="M21,26H11c-0.552,0-1-0.448-1-1v-6
	c0-0.552,0.448-1,1-1h10c0.552,0,1,0.448,1,1v6C22,25.552,21.552,26,21,26z"/>
</svg>
