<?xml version="1.0" encoding="iso-8859-1"?>
<!-- Generator: Adobe Illustrator 22.0.1, SVG Export Plug-In . SVG Version: 6.00 Build 0)  -->
<svg version="1.1" id="Icons" xmlns="http://www.w3.org/2000/svg" xmlns:xlink="http://www.w3.org/1999/xlink" x="0px" y="0px"
	 viewBox="0 0 32 32" style="enable-background:new 0 0 32 32;" xml:space="preserve">
<g>
	<rect x="11" y="25" width="2" height="2"/>
	<rect x="14" y="25" width="2" height="2"/>
	<rect x="17" y="25" width="2" height="2"/>
	<path style="fill:none;stroke:#000000;stroke-width:2;stroke-miterlimit:10;" d="M7,14c0,4.418,3.582,8,8,8s8-3.582,8-8"/>
	<path d="M19.91,13.06c-0.02-0.47-0.05-0.97-0.09-1.49c-0.1-1.39-0.23-2.96-0.4-4.67L19.32,6h-8.64l-0.1,0.9
		c-0.17,1.71-0.3,3.28-0.4,4.67c-0.04,0.52-0.07,1.02-0.09,1.49l-0.02,0.37l0.24,0.3C11.45,15.17,13.16,16,15,16
		s3.55-0.83,4.69-2.27l0.24-0.3L19.91,13.06z"/>
	<path d="M17,19h-4c-0.552,0-1-0.448-1-1v0c0-0.552,0.448-1,1-1h4c0.552,0,1,0.448,1,1v0C18,18.552,17.552,19,17,19z"/>
	<path style="fill:none;stroke:#000000;stroke-width:2;stroke-miterlimit:10;" d="M22,26c0.29-2.786,1-5,1-10s-0.453-7.26-1-10
		c0-1.657-1.343-3-3-3c0,0-8,0-8,0C9.343,3,8,4.343,8,6c-0.295,2.776-1,5-1,9.997C7,21,7.71,23.213,8,26c0,1.657,1.343,3,3,3
		c0,0,0,0,0,0s8,0,8,0C20.657,29,22,27.657,22,26z"/>
</g>
</svg>
