<?xml version="1.0" encoding="iso-8859-1"?>
<!-- Generator: Adobe Illustrator 19.2.0, SVG Export Plug-In . SVG Version: 6.00 Build 0)  -->
<svg version="1.1" id="Layer_1" xmlns="http://www.w3.org/2000/svg" xmlns:xlink="http://www.w3.org/1999/xlink" x="0px" y="0px"
	 viewBox="0 0 32 32" style="enable-background:new 0 0 32 32;" xml:space="preserve">
<path d="M22,12c3.456-1.288,5-2,5-2s-0.624-5-6-5C21,5,24.553,7.944,22,12z"/>
<circle cx="18.5" cy="8.5" r="1.5"/>
<path style="fill:none;stroke:#000000;stroke-width:2;stroke-miterlimit:10;" d="M15,24c0,1.374-1,2.881-1,2.881V27h5"/>
<line style="fill:none;stroke:#000000;stroke-width:2;stroke-miterlimit:10;" x1="14" y1="9" x2="18.5" y2="9"/>
<path style="fill:none;stroke:#000000;stroke-width:2;stroke-miterlimit:10;" d="M5,22c0,0,4.674,2,8.706,2
	C18.384,24,22,22.16,22,17.706c0-3.204-0.987-4.97-0.987-4.97S23,11.526,23,9s-2.015-4-4.5-4"/>
<path style="fill:none;stroke:#000000;stroke-width:2;stroke-miterlimit:10;" d="M7,23c1.334-5.642,5.46-9,10-9"/>
<path d="M18.5,4C15.467,4,13,6.468,13,9.5c0,1.107,0.341,2.163,0.953,3.06c0.732-0.258,1.474-0.428,2.213-0.504
	C15.431,11.389,15,10.478,15,9.5C15,7.57,16.57,6,18.5,6c0.552,0,1-0.447,1-1S19.052,4,18.5,4z"/>
</svg>
