<?xml version="1.0" encoding="iso-8859-1"?>
<!-- Generator: Adobe Illustrator 19.1.1, SVG Export Plug-In . SVG Version: 6.00 Build 0)  -->
<svg version="1.1" id="Layer_1" xmlns="http://www.w3.org/2000/svg" xmlns:xlink="http://www.w3.org/1999/xlink" x="0px" y="0px"
	 viewBox="0 0 32 32" style="enable-background:new 0 0 32 32;" xml:space="preserve">
<path style="fill:none;stroke:#000000;stroke-width:2;stroke-miterlimit:10;" d="M26,22c0.021,2.597-0.577,6-4,6
	c-1.597,0-2.982-1.596-3-4c-0.005-0.615,0.016-1.285,0.208-2H26z"/>
<path style="fill:none;stroke:#000000;stroke-width:2;stroke-miterlimit:10;" d="M26,17c0,0,0.957-2.292,0.997-4.323
	C27.069,8.971,25.426,4,22,4c-3.784,0-4.129,5.485-3.983,7.438C18.216,14.107,19,17,19,17H26z"/>
<path style="fill:none;stroke:#000000;stroke-width:2;stroke-miterlimit:10;" d="M12.792,22c0.192,0.714,0.213,1.385,0.208,2
	c-0.018,2.405-1.403,4-3,4c-3.423,0-4.021-3.403-4-6H12.792z"/>
<path style="fill:none;stroke:#000000;stroke-width:2;stroke-miterlimit:10;" d="M13,17c0,0,0.784-2.893,0.983-5.562
	C14.129,9.485,13.784,4,10,4c-3.426,0-5.07,4.971-4.997,8.677C5.043,14.708,6,17,6,17H13z"/>
</svg>
