<?xml version="1.0" encoding="iso-8859-1"?>
<!-- Generator: Adobe Illustrator 19.1.0, SVG Export Plug-In . SVG Version: 6.00 Build 0)  -->
<svg version="1.1" id="Layer_1" xmlns="http://www.w3.org/2000/svg" xmlns:xlink="http://www.w3.org/1999/xlink" x="0px" y="0px"
	 viewBox="0 0 32 32" style="enable-background:new 0 0 32 32;" xml:space="preserve">
<path style="fill:none;stroke:#000000;stroke-width:2;stroke-miterlimit:10;" d="M18.964,7.716c0,0-2.742-2.716-5.675-2.716
	C8.779,5,6,7.779,6,11.834c0,2.916,2.141,4.51,2.961,7.471C9.872,22.676,10.237,27,12.378,27C13.517,27,14,26.093,14,24.635
	C14,22.585,13.959,18,15.996,18S18,22.585,18,24.635C18,26.093,18.483,27,19.621,27c2.141,0,2.506-4.37,3.417-7.695
	c0.82-2.961,2.961-4.556,2.961-7.471C26.045,7.779,23.143,5,19.068,5c-1.078,0-3.105,0.556-3.105,0.556"/>
</svg>
