<?xml version="1.0" encoding="utf-8"?>
<!-- Generator: Adobe Illustrator 18.1.1, SVG Export Plug-In . SVG Version: 6.00 Build 0)  -->
<svg version="1.1" id="Layer_1" xmlns="http://www.w3.org/2000/svg" xmlns:xlink="http://www.w3.org/1999/xlink" x="0px" y="0px"
	 viewBox="0 0 32 32" enable-background="new 0 0 32 32" xml:space="preserve">
<path fill="none" stroke="#000000" stroke-width="2" stroke-miterlimit="10" d="M25,27H15c-0.6,0-1-0.4-1-1V10c0-0.6,0.4-1,1-1h10
	c0.6,0,1,0.4,1,1v16C26,26.6,25.6,27,25,27z"/>
<path fill="none" stroke="#000000" stroke-width="2" stroke-miterlimit="10" d="M14,23H7c-0.6,0-1-0.4-1-1V6c0-0.6,0.4-1,1-1h10
	c0.6,0,1,0.4,1,1v3"/>
<line fill="none" stroke="#000000" stroke-width="2" stroke-miterlimit="10" x1="18.5" y1="24" x2="21.5" y2="24"/>
<line fill="none" stroke="#000000" stroke-width="2" stroke-miterlimit="10" x1="10.5" y1="20" x2="14" y2="20"/>
</svg>
