<?xml version="1.0" encoding="iso-8859-1"?>
<!-- Generator: Adobe Illustrator 19.1.0, SVG Export Plug-In . SVG Version: 6.00 Build 0)  -->
<svg version="1.1" id="Layer_1" xmlns="http://www.w3.org/2000/svg" xmlns:xlink="http://www.w3.org/1999/xlink" x="0px" y="0px"
	 viewBox="0 0 32 32" style="enable-background:new 0 0 32 32;" xml:space="preserve">
<polyline style="fill:none;stroke:#000000;stroke-width:2;stroke-miterlimit:10;" points="27,19.442 11.459,25.879 5,20.751 
	5.941,12.558 21.482,6.121 "/>
<path d="M12.079,14.837l2.072,3.463l0.015-0.006l-1.154-3.844l1.344-0.557l1.296,5.709l-1.523,0.631l-1.947-3.393l-0.015,0.006
	l1.021,3.776l-1.523,0.63L8.548,16.3l1.344-0.557l1.945,3.516l0.016-0.007l-1.028-3.896L12.079,14.837z"/>
<path d="M23.016,10.308l2.072,3.462l0.015-0.006l-1.154-3.843l1.344-0.557l1.297,5.708l-1.523,0.631l-1.947-3.393l-0.015,0.007
	l1.021,3.775l-1.523,0.631l-3.118-4.954l1.344-0.557l1.945,3.516l0.016-0.007l-1.028-3.895L23.016,10.308z"/>
<path d="M17.284,13.666c-0.367,0.151-0.287,0.53-0.239,0.649c0.412,1.028,2.508-0.386,3.299,1.547
	c0.235,0.568,0.546,1.666-1.217,2.402c-0.333,0.1-1.782,0.866-2.404-0.736l-0.077-0.187l1.344-0.557c0,0,0.209,0.797,0.764,0.558
	c0.144-0.062,0.431-0.269,0.235-0.7c-0.483-1.063-2.403,0.374-3.181-1.516c-0.206-0.555-0.594-1.674,1.057-2.389
	c1.643-0.712,2.16,0.356,2.406,0.929l-1.299,0.538C17.971,14.204,17.746,13.476,17.284,13.666z"/>
</svg>
