<?xml version="1.0" encoding="iso-8859-1"?>
<!-- Generator: Adobe Illustrator 19.1.1, SVG Export Plug-In . SVG Version: 6.00 Build 0)  -->
<svg version="1.1" id="Layer_1" xmlns="http://www.w3.org/2000/svg" xmlns:xlink="http://www.w3.org/1999/xlink" x="0px" y="0px"
	 viewBox="0 0 32 32" style="enable-background:new 0 0 32 32;" xml:space="preserve">
<path d="M20.853,15.915l-1.568,0.911l-4.276-7.362c-0.171-0.295-0.071-0.672,0.223-0.843l0.502-0.292
	c0.295-0.171,0.671-0.071,0.843,0.223L20.853,15.915z"/>
<rect x="19.792" y="16.552" transform="matrix(-0.8645 0.5027 -0.5027 -0.8645 47.3664 22.1385)" width="1.813" height="1.805"/>
<rect x="8.534" y="14.923" transform="matrix(-0.5046 0.8634 -0.8634 -0.5046 32.169 13.256)" width="7.494" height="1.869"/>
<path d="M8.6,21.921l0.78-2.952l1.613,0.944L8.804,22.04c-0.039,0.038-0.1,0.046-0.147,0.018C8.61,22.031,8.586,21.974,8.6,21.921"
	/>
<path d="M13.497,11.925l0.543-0.929c0.172-0.295,0.55-0.393,0.844-0.221l0.548,0.321c0.294,0.172,0.393,0.55,0.221,0.845
	L15.11,12.87L13.497,11.925z"/>
<path d="M21.698,18.26c-0.255,0.145-0.635,0.369-0.858,0.503c-0.419,0.251-0.096,0.985-0.001,1.144
	c0.543,0.909,1.103,0.782,1.526,1.426c0.231,0.352,0.166,0.508,0.239,0.625c0.027,0.044,0.12,0.085,0.156,0.035
	c0.651-0.901,0.459-2.451-0.013-3.14C22.528,18.53,22.129,18.016,21.698,18.26"/>
<polygon points="23.98,16.891 21.731,16.891 20.749,15.087 23.98,15.087 "/>
<polygon points="18.916,16.891 13.048,16.891 14.049,15.087 17.915,15.087 "/>
<polygon points="10.282,16.891 7.997,16.891 7.997,15.087 11.349,15.087 "/>
<circle style="fill:none;stroke:#000000;stroke-width:2;stroke-linecap:round;stroke-linejoin:round;stroke-miterlimit:10;" cx="16" cy="16" r="12"/>
</svg>
