<?xml version="1.0" encoding="iso-8859-1"?>
<!-- Generator: Adobe Illustrator 21.1.0, SVG Export Plug-In . SVG Version: 6.00 Build 0)  -->
<svg version="1.1" id="Layer_1" xmlns="http://www.w3.org/2000/svg" xmlns:xlink="http://www.w3.org/1999/xlink" x="0px" y="0px"
	 viewBox="0 0 32 32" style="enable-background:new 0 0 32 32;" xml:space="preserve">
<g>
	<path d="M10.855,12.752c-0.05,0.031-1.238,0.677-1.238,2.111c0,1.486,1.302,2.111,1.524,2.209C11.1,17.245,9.98,20,8.629,20
		c-0.727,0-0.989-0.451-1.828-0.451C5.899,19.549,5.644,20,4.954,20C3.826,20,2,17.628,2,15.028c0-1.99,1.214-3.368,2.799-3.368
		c0.734,0,1.387,0.494,1.835,0.494c0.429,0,1.232-0.494,2.139-0.494C9.164,11.66,10.209,11.776,10.855,12.752z M6.571,11.52
		c-0.131-0.641,0.23-1.281,0.566-1.69C7.565,9.335,8.243,9,8.828,9c0.037,0.641-0.199,1.269-0.628,1.727
		C7.827,11.221,7.174,11.593,6.571,11.52z"/>
</g>
<path style="fill:none;stroke:#000000;stroke-width:2;stroke-miterlimit:10;" d="M14,16h1.5c0.828,0,1.5-0.672,1.5-1.5l0,0
	c0-0.828-0.672-1.5-1.5-1.5H14v7"/>
<polyline style="fill:none;stroke:#000000;stroke-width:2;stroke-miterlimit:10;" points="23,20 23,19 21.05,13 20.95,13 19,19 
	19,20 "/>
<line id="XMLID_19_" style="fill:none;stroke:#000000;stroke-width:2;stroke-miterlimit:10;" x1="19.391" y1="18" x2="22.609" y2="18"/>
<polyline style="fill:none;stroke:#000000;stroke-width:2;stroke-miterlimit:10;" points="25,12 25,13 26.95,16 27.05,16 29,13 
	29,12 "/>
<line id="XMLID_193_" style="fill:none;stroke:#000000;stroke-width:2;stroke-miterlimit:10;" x1="27" y1="20" x2="27" y2="16"/>
</svg>
