<?xml version="1.0" encoding="iso-8859-1"?>
<!-- Generator: Adobe Illustrator 19.1.1, SVG Export Plug-In . SVG Version: 6.00 Build 0)  -->
<svg version="1.1"  xmlns="http://www.w3.org/2000/svg" xmlns:xlink="http://www.w3.org/1999/xlink" x="0px" y="0px"
	 viewBox="0 0 32 32" style="enable-background:new 0 0 32 32;" xml:space="preserve">
<circle style="fill:none;stroke:#000000;stroke-width:2;stroke-miterlimit:10;" cx="16" cy="16" r="4"/>
<circle style="fill:none;stroke:#000000;stroke-width:2;stroke-miterlimit:10;" cx="16" cy="16" r="11"/>
<g>
	<path d="M7.763,8.788c-0.178-0.175-0.458-0.193-0.657-0.04C6.907,8.9,6.853,9.177,6.979,9.394l4.837,8.378
		c0.09,0.157,0.257,0.25,0.433,0.25c0.033,0,0.067-0.003,0.102-0.01c0.211-0.044,0.37-0.218,0.396-0.432l0.373-3.227
		c0.018-0.153-0.036-0.305-0.146-0.413L7.763,8.788z"/>
	<path d="M18.996,18.03l-2.981,1.29c-0.142,0.061-0.246,0.184-0.285,0.332l-1.857,7.087c-0.063,0.242,0.062,0.494,0.293,0.589
		c0.063,0.025,0.127,0.038,0.19,0.038c0.174,0,0.342-0.091,0.433-0.25l4.839-8.377c0.108-0.187,0.084-0.421-0.06-0.583
		C19.425,17.995,19.191,17.944,18.996,18.03z"/>
	<path d="M26.232,11.491l-9.674-0.001c-0.216,0-0.407,0.138-0.475,0.343c-0.067,0.205,0.003,0.43,0.177,0.559l2.607,1.937
		c0.087,0.065,0.191,0.099,0.298,0.099c0.044,0,0.089-0.006,0.132-0.018l7.066-1.936c0.242-0.066,0.397-0.301,0.363-0.549
		C26.694,11.676,26.482,11.491,26.232,11.491z"/>
</g>
</svg>
