<?xml version="1.0" encoding="iso-8859-1"?>
<!-- Generator: Adobe Illustrator 19.1.1, SVG Export Plug-In . SVG Version: 6.00 Build 0)  -->
<svg version="1.1"  xmlns="http://www.w3.org/2000/svg" xmlns:xlink="http://www.w3.org/1999/xlink" x="0px" y="0px"
	 viewBox="0 0 32 32" style="enable-background:new 0 0 32 32;" xml:space="preserve">
<line style="fill:none;stroke:#000000;stroke-width:2;stroke-miterlimit:10;" x1="21.219" y1="21.781" x2="26.313" y2="27.375"/>
<line style="fill:none;stroke:#000000;stroke-width:2;stroke-miterlimit:10;" x1="10.75" y1="21.594" x2="5.781" y2="27.281"/>
<rect x="15" y="5" width="2" height="4"/>
<path d="M19,6.688C19,6.688,17.531,7,16,7s-3-0.313-3-0.313V5.313C13,5.313,14.5,5,16,5s3,0.313,3,0.313V6.688z"/>
<circle cx="16" cy="4" r="2"/>
<g>
	<path d="M27.525,6.584c-0.801-1.185-1.531-2.098-2.714-3.003L24.05,3.024l-0.616,0.713c0,0-2.499,2.892-2.79,3.224
		c-0.495,0.564-0.601,1.746-0.59,2.747c0.567,0.368,1.078,0.811,1.525,1.313c0.06,0.001,0.114,0.004,0.178,0.004
		c0.86,0,2.011-0.108,2.619-0.62c0.485-0.409,2.972-2.475,2.972-2.475l0.687-0.596L27.525,6.584z M23.116,8.854
		c-0.145,0.082-0.558,0.141-1.041,0.161c0.024-0.352,0.065-0.648,0.116-0.785c0.293-0.337,1.399-1.616,2.121-2.45
		c0.386,0.368,0.717,0.759,1.047,1.202C24.585,7.626,23.415,8.6,23.116,8.854z"/>
	<path d="M10.401,10.999c0.469-0.522,1.008-0.978,1.606-1.352c0.006-0.988-0.107-2.134-0.592-2.686
		c-0.291-0.332-2.79-3.224-2.808-3.244L7.974,3.024L7.229,3.594c-1.165,0.893-1.896,1.806-2.697,2.99L4,7.34l0.711,0.591
		c0,0,2.486,2.065,2.974,2.476c0.607,0.511,1.758,0.619,2.617,0.619C10.325,11.025,10.366,11.01,10.401,10.999z M8.972,8.876
		C8.653,8.607,7.476,7.628,6.699,6.982C7.028,6.54,7.359,6.15,7.747,5.779c0.718,0.832,1.826,2.113,2.12,2.45
		C9.918,8.366,9.96,8.664,9.983,9.016C9.504,8.998,9.099,8.944,8.972,8.876z"/>
</g>
<path d="M26,19c0,0-0.983,1.335-2.903,2.786c0,0,0.943,0.344,0.977,0.3C23.402,22.932,20.988,26,19,26
	c-0.814,0-1.796-1.146-1.965-2.58C16.696,23.467,16.352,23.5,16,23.5c-0.354,0-0.699-0.033-1.039-0.08C14.774,24.726,13.78,26,13,26
	c-1.988,0-4.371-3.068-5.044-3.914c0.035,0.044,0.977-0.3,0.977-0.3C7.015,20.335,6,19,6,19s-0.063,3.188,0.421,4.659l0.019,0.032
	c0,0,0.329-0.525,0.481-0.768c0.152,0.255,1.593,2.907,4.354,4.476c1.08,0.613,2.892,0.918,3.284,1.123
	C15.184,28.849,15.699,29.575,16,30c0.301-0.425,0.816-1.151,1.441-1.477c0.392-0.205,2.204-0.509,3.284-1.123
	c2.762-1.569,4.234-4.221,4.386-4.476c0.152,0.244,0.481,0.768,0.481,0.768C26.063,22.656,26,19,26,19z"/>
<path d="M16,8c-4.418,0-8,3.582-8,8s3.582,8,8,8s8-3.582,8-8S20.418,8,16,8z M16,22c-3.314,0-6-2.686-6-6s2.686-6,6-6s6,2.686,6,6
	S19.314,22,16,22z"/>
<path d="M20,12.021L19.971,12c-1.014,0.339-1.256,0.591-1.951,0.958c0.005-0.064,0.011-0.13,0.011-0.202
	c0-0.372-0.176-0.765-1.032-0.756c-2.021,0.021-2.922,0.728-5,1.969l0,0c0,0.979,1.118,3.462,2,5.031l0.034,0.014
	c0.372-0.451,1.341-1.295,1.966-1.576c0,0,0.001,0.1,0.001,0.333c0,0.401,0.069,0.831,0.355,1.066
	c0.263,0.215,0.673,0.237,1.22,0.065C18.254,18.689,21.24,17.239,22,17c0.038-0.096-0.033,0.098,0,0
	C20.874,15.187,19.912,14.416,20,12.021z"/>
<line style="fill:none;stroke:#000000;stroke-miterlimit:10;" x1="11" y1="12" x2="15" y2="23"/>
</svg>
