<?xml version="1.0" encoding="iso-8859-1"?>
<!-- Generator: Adobe Illustrator 19.1.1, SVG Export Plug-In . SVG Version: 6.00 Build 0)  -->
<svg version="1.1"  xmlns="http://www.w3.org/2000/svg" xmlns:xlink="http://www.w3.org/1999/xlink" x="0px" y="0px"
	 viewBox="0 0 32 32" style="enable-background:new 0 0 32 32;" xml:space="preserve">
<path style="display:none;opacity:0.49;fill:#ED1C24;" d="M9,14l6,4l-3,2l-6-4L9,14 M9,12.798l-0.555,0.37l-3,2L4.197,16
	l1.248,0.832l6,4L12,21.202l0.555-0.37l3-2L16.803,18l-1.248-0.832l-6-4L9,12.798L9,12.798z"/>
<line style="display:none;fill:none;stroke:#000000;stroke-miterlimit:10;" x1="8.1" y1="10.753" x2="12.333" y2="14.101"/>
<polygon style="display:none;" points="22,15 25,12 19,7 17,10 "/>
<path style="display:none;opacity:0.39;fill:#FFF200;" d="M23.316,11.051L21,10.279V9.924V9V8.358l-0.583-0.267l-3-1.375
	l-0.426-0.195l-0.423,0.203l-4,1.917L12,8.912v0.63v0.404l-0.316,0.105l-3,1L8,11.279V12v2v0.414l0.293,0.293l1,1L11,17.414V15
	v-0.284l0.507,0.287l0.451,0.255l0.469-0.221l3.093-1.459L16,13.352l0.481,0.227l3.093,1.459l0.469,0.221l0.451-0.255L21,14.716V15
	v1h1h1h1v-1v-3v-0.721L23.316,11.051z M13,9.542l4-1.917L20,9v0.924l-0.025,0.013l-0.07-0.023l-0.381,0.206l-3.093,1.674L16,12.028
	l-3-1.624V9.542z M12,14.133L10,13v2l-1-1v-2l3-1l2.95,1.596l-0.256,0.139l0.135,0.064L12,14.133z M23,15h-1v-2l-2,1.133
	l-2.828-1.334l0.135-0.064l-0.248-0.134l3.004-1.58L23,12V15z"/>
<circle style="fill:none;stroke:#000000;stroke-width:2;stroke-miterlimit:10;" cx="16" cy="16" r="12"/>
<polygon points="24.016,16.984 22.016,14.984 19.226,16.223 15.508,17.958 12.359,16.405 10,15 7,17 13,20 15.508,17.958 
	17.016,19.984 "/>
<g>
	<polygon points="13.072,21.154 10,19.618 10,21 15,24 15,19.618 	"/>
	<polygon points="16.787,21.17 16,20.208 16,23.5 22,21 22,18.936 	"/>
</g>
<g>
	<polygon points="24,13 18,9 17,10 16,9 8,13 10,15 10,14 12.397,15.329 15,14.221 13,13.137 13,12 16,13.624 19.969,11.956 
		19.969,13.04 17.053,14.266 19.219,15.17 22,14 22,15 	"/>
</g>
</svg>
