<?xml version="1.0" encoding="iso-8859-1"?>
<!-- Generator: Adobe Illustrator 21.0.0, SVG Export Plug-In . SVG Version: 6.00 Build 0)  -->
<svg version="1.1" 
	 xmlns="http://www.w3.org/2000/svg" xmlns:xlink="http://www.w3.org/1999/xlink" x="0px" y="0px" viewBox="0 0 32 32"
	 style="enable-background:new 0 0 32 32;" xml:space="preserve">
<path style="fill:none;stroke:#000000;stroke-width:2;stroke-miterlimit:10;" d="M9.669,9.79c-1.885-3.314,1.295-7.545,1.744-6.674
	c0.912,1.769,2.224,3.586,2.939,4.529"/>
<path style="fill:none;stroke:#000000;stroke-width:2;stroke-miterlimit:10;" d="M19.149,7.984c1.803-1.396,3.149-4.568,3.559-3.899
	c0.616,1.006,1.624,3.897,0.346,6.547"/>
<path style="fill:none;stroke:#000000;stroke-width:2;stroke-miterlimit:10;" d="M28,19.886c-0.07-1.942-2.042-3.972-2.042-3.972
	s1.663-0.174,1.722-0.82c0.063-0.689-2.288-2.998-4.092-4.291c-0.709-0.258-1.345,0.031-1.627,0.658
	c-0.513-0.746-1.604-2.477-2.503-3.414c-0.403-0.419-1.063-1.027-1.497-1.008c-1.068-0.338-0.849,1.653-0.818,1.885
	c-0.492-0.359-1.943-1.303-3.793-1.293c-0.601,0.004-1.043,0.158-1.314,0.471c-0.258,0.297-0.263,0.614-0.258,0.705
	c0.001,0.022,0.004,0.046,0.007,0.069c0.013,0.087,0.065,0.286,0.25,0.556c-0.204,0.018-0.422,0.042-0.645,0.07l-1.039,0.158
	c-1.876,0.347-5.285,0.955-5.302,2.172c-0.028,0.837,2.175,1.47,2.175,1.47s-2.175,1.082-2.175,1.969
	c0,0.788,1.473,1.355,1.473,1.355C5.394,17.314,4,18.501,4,20c0,0.68,0.319,0.808,0.509,0.91c0.246,0.133,1.553-0.015,1.553-0.015
	s-0.678,1.772-0.781,2.542c-0.531,3.969,2.094,1.875,2.094,1.875C9.34,27.435,13.094,29,16.015,29c3.086,0,6.872-1.39,8.739-3.725
	c0.567,0.282,0.923,0.504,1.345,0.594c0.704-0.471,0.992-3.459,0.141-5.107C27.01,20.72,28.024,20.575,28,19.886z M16,14.218
	c2.7,0,4.889,2.061,4.889,4.603S18.7,23.424,16,23.424s-4.889-2.061-4.889-4.603S13.3,14.218,16,14.218z"/>
<path d="M16,17c-0.442,0-0.843,0.171-1.165,0.446C15.486,17.506,16,17.94,16,18.486c0,0.588-0.586,1.063-1.307,1.063
	c-0.198,0-0.383-0.042-0.55-0.107c0.168,0.949,0.934,1.666,1.857,1.666c1.045,0,1.894-0.919,1.894-2.054
	C17.894,17.919,17.045,17,16,17z"/>
</svg>
