<?xml version="1.0" encoding="iso-8859-1"?>
<!-- Generator: Adobe Illustrator 19.1.1, SVG Export Plug-In . SVG Version: 6.00 Build 0)  -->
<svg version="1.1" id="Layer_1" xmlns="http://www.w3.org/2000/svg" xmlns:xlink="http://www.w3.org/1999/xlink" x="0px" y="0px"
	 viewBox="0 0 32 32" style="enable-background:new 0 0 32 32;" xml:space="preserve">
<path d="M18.735,22.25c0.339,0,0.699,0.021,0.954,0.191c0.254,0.17,0.403,0.551,0.487,0.763c0.085,0.212,0,0.339-0.17,0.424
	c-0.148,0.085-0.17,0.042-0.318-0.233c-0.148-0.276-0.276-0.551-1.017-0.551c-0.742,0-0.975,0.254-1.335,0.551
	s-0.487,0.403-0.615,0.233c-0.127-0.17-0.085-0.339,0.148-0.551s0.615-0.551,0.975-0.699C18.206,22.229,18.396,22.25,18.735,22.25
	L18.735,22.25z"/>
<path d="M15.217,24.666c0.424,0.339,1.06,0.615,2.416,0.615s2.31-0.382,2.734-0.699c0.191-0.148,0.276-0.021,0.297,0.064
	c0.021,0.085,0.064,0.212-0.085,0.36c-0.106,0.106-1.081,0.784-2.225,0.89c-1.145,0.106-2.692,0.17-3.624-0.678
	c-0.148-0.148-0.106-0.36,0-0.445s0.191-0.148,0.318-0.148S15.154,24.624,15.217,24.666L15.217,24.666z"/>
<path d="M10.215,20.809c0.021-1.653,1.568-3.2,3.518-3.222c2.48-0.021,4.197,2.459,5.447,2.437c1.06-0.021,3.094-2.098,4.091-2.098
	c1.06,0,1.356,1.102,1.356,1.759c0,0.657-0.212,1.844-0.721,2.586s-0.827,1.017-1.42,0.975c-0.763-0.064-2.289-2.437-3.264-2.48
	c-1.229-0.042-3.9,2.565-5.998,2.565c-1.272,0-1.653-0.191-2.077-0.466C10.512,22.42,10.194,21.741,10.215,20.809L10.215,20.809z"/>
<path style="fill:none;stroke:#000000;stroke-width:2;stroke-miterlimit:10;" d="M26,18c0,5.523-4.477,10-10,10S6,23.523,6,18
	c0-4.463,2.924-8.243,6.96-9.53C14.405,7.926,15,5.296,15,5.296s1.745,2.63,3.016,2.907C22.572,9.136,26,13.168,26,18z"/>
</svg>
