<?xml version="1.0" encoding="iso-8859-1"?>
<!-- Generator: Adobe Illustrator 19.1.1, SVG Export Plug-In . SVG Version: 6.00 Build 0)  -->
<svg version="1.1"  xmlns="http://www.w3.org/2000/svg" xmlns:xlink="http://www.w3.org/1999/xlink" x="0px" y="0px"
	 viewBox="0 0 32 32" style="enable-background:new 0 0 32 32;" xml:space="preserve">
<g>
	<path d="M31,11c-0.755,0.842-2.375,3-7,3c-1.75,0-2.856,0.034-4.237-0.547c-0.679-0.286-1.627-0.442-2.756-0.452
		c-1.29-0.011-3.628,0.447-4.715,1.083C11.725,14.415,8,16.593,8,20.426c0,1.442,0.531,3.449,1.407,4.686
		c0.736,1.04,2.29,1.742,3.593,1.888c0.418,0.047,0.588-0.003,1,0c0.691,0.005,1.044-0.041,1.732-0.227
		C18.129,26.126,20,24.376,20,21c0-1.006-0.391-2.139-1.262-2.963C18.048,17.384,17.542,17,16,17c-0.748,0-0.254-0.045-1,0
		c-2.417,0.542-2.152,2.607-1.68,3.136c0.219,0.245,0.47,0.485,0.606,0.775c0.412,0.875-0.381,1.882-1.097,2.05
		c-1.126,0.265-1.923-0.178-2.537-1.165c-0.434-0.697-0.306-1.797,0-2.504C10.698,18.353,12.083,16,15.833,16
		c3.042,0,5.476,1.444,6.167,1.792C24.583,18.667,27.583,17,29,17c-1.917,0.833-3,5-6,5c0,2-1.458,3.625-2,4
		c1.333,0,2.108,0.079,3,0c-0.51,0.203-3.125,2-11,2c-2.75,0-5.494-1.305-6.341-1.921C5.132,24.967,4.015,23.018,4,21
		c-0.017-2.228,0.847-4.041,2.334-5.621c1.122-1.192,2.46-2.066,3.977-2.653C11.412,12.301,13.5,12,15,12c-0.917-0.5-2.917-1-4-1
		c-1.429-0.021-2.622,0.539-3.912,1.118C5.784,12.704,4.433,13.049,3,13c-0.435-0.015-1.567,0.064-2,0c3.75-1.958,4.333-5.042,10-8
		C9.542,6.375,8.175,7.949,8.208,7.995C13.083,5.333,16.542,4.75,20,4c-3.333,1.417-6.208,3.083-9,5
		c0.018,0.042,2.87-0.648,4.265-0.871C15.828,8.039,16.5,8,17,8c4.333,0,7,4,10,4C28.485,12,31,10.939,31,11z"/>
</g>
</svg>
