<?xml version="1.0" encoding="iso-8859-1"?>
<!-- Generator: Adobe Illustrator 19.1.1, SVG Export Plug-In . SVG Version: 6.00 Build 0)  -->
<svg version="1.1" id="Layer_1" xmlns="http://www.w3.org/2000/svg" xmlns:xlink="http://www.w3.org/1999/xlink" x="0px" y="0px"
	 viewBox="0 0 32 32" style="enable-background:new 0 0 32 32;" xml:space="preserve">
<g>
	<path style="fill:none;stroke:#000000;stroke-width:2;stroke-miterlimit:10;" d="M15.975,4.975c-6.075,0-11,4.925-11,11
		s4.925,11,11,11s11-4.925,11-11S22.05,4.975,15.975,4.975L15.975,4.975z"/>
</g>
<path d="M6.044,13.47c0,0,1.394-2.431,3.626-2.431c2.197,0,5.189,2.673,8.569,4.901c2.627,1.734,5.22,3.148,7.651,3.148
	c0.438,0-1.315,2.71-1.315,2.71s-1.954,0.837-4.145,0.837c-7.291,0-10.559-3.228-12.392-3.228c-1.395,0-1.514,1.196-1.514,1.196
	S4.409,16.419,6.044,13.47z"/>
<path d="M8.515,9.047c0,0,0.556-1.036,3.147-1.036c3.109,0,5.699,3.307,7.85,5.22c2.153,1.913,4.901,4.185,6.775,4.185
	c0.359-2.311-0.08-3.906-0.319-4.344c-0.24-0.438,0.041,0.837-0.796,0.837c-2.272,0-3.986-7.571-10.321-7.571
	C11.024,6.337,9.232,7.89,8.515,9.047z"/>
<path d="M11.622,25.386c0,0-0.797-1.754,0.678-1.754c1.473,0,3.026,0.956,6.095,0.956s4.743-0.956,4.743-0.956
	s-2.232,2.391-6.058,2.79C13.255,26.819,12.619,25.943,11.622,25.386z"/>
</svg>
