<?xml version="1.0" encoding="iso-8859-1"?>
<!-- Generator: Adobe Illustrator 19.1.1, SVG Export Plug-In . SVG Version: 6.00 Build 0)  -->
<svg version="1.1" id="Layer_1" xmlns="http://www.w3.org/2000/svg" xmlns:xlink="http://www.w3.org/1999/xlink" x="0px" y="0px"
	 viewBox="0 0 32 32" style="enable-background:new 0 0 32 32;" xml:space="preserve">
<path d="M30.889,6.972l-2.676-0.861C27.945,6.024,21.593,4,16,4C9.383,4,4,9.383,4,16c0,2.543,0.806,4.979,2.276,7.013l-5.164,2.015
	l2.676,0.862C4.055,25.976,10.407,28,16,28c6.617,0,12-5.383,12-12c0-2.539-0.805-4.98-2.274-7.014L30.889,6.972z M6,16
	c0-5.514,4.486-10,10-10c3.04,0,6.409,0.663,8.73,1.228l-10.396,4.056l0.008,0.021C12.402,11.992,11,13.827,11,16
	c0,1.794,0.958,3.358,2.382,4.24l-5.173,2.018C6.783,20.486,6,18.295,6,16z M16,19c-1.654,0-3-1.346-3-3s1.346-3,3-3s3,1.346,3,3
	S17.654,19,16,19z M26,16c0,5.514-4.486,10-10,10c-3.04,0-6.41-0.663-8.73-1.229l10.396-4.056l-0.008-0.02
	C19.598,20.008,21,18.173,21,16c0-1.794-0.959-3.358-2.383-4.241l5.172-2.018C25.214,11.514,26,13.708,26,16z"/>
</svg>
