<?xml version="1.0" encoding="iso-8859-1"?>
<!-- Generator: Adobe Illustrator 19.1.1, SVG Export Plug-In . SVG Version: 6.00 Build 0)  -->
<svg version="1.1" id="Layer_1" xmlns="http://www.w3.org/2000/svg" xmlns:xlink="http://www.w3.org/1999/xlink" x="0px" y="0px"
	 viewBox="0 0 32 32" style="enable-background:new 0 0 32 32;" xml:space="preserve">
<circle style="fill:none;stroke:#000000;stroke-width:2;stroke-miterlimit:10;" cx="16" cy="16" r="11"/>
<path d="M30,13H11c-0.552,0-1-0.448-1-1v0c0-0.552,0.448-1,1-1h19c0.552,0,1,0.448,1,1v0C31,12.552,30.552,13,30,13z"/>
<path d="M21,21H2c-0.552,0-1-0.448-1-1v0c0-0.552,0.448-1,1-1h19c0.552,0,1,0.448,1,1v0C22,20.552,21.552,21,21,21z"/>
<path d="M21,17H11c-0.552,0-1-0.448-1-1v0c0-0.552,0.448-1,1-1h10c0.552,0,1,0.448,1,1v0C22,16.552,21.552,17,21,17z"/>
</svg>
