<?xml version="1.0" encoding="iso-8859-1"?>
<!-- Generator: Adobe Illustrator 19.1.1, SVG Export Plug-In . SVG Version: 6.00 Build 0)  -->
<svg version="1.1" id="Layer_1" xmlns="http://www.w3.org/2000/svg" xmlns:xlink="http://www.w3.org/1999/xlink" x="0px" y="0px"
	 viewBox="0 0 32 32" style="enable-background:new 0 0 32 32;" xml:space="preserve">
<g>
	<path style="fill:none;stroke:#000000;stroke-width:2;stroke-miterlimit:10;" d="M21.279,5c0.974,0,1.938,0.473,2.946,1.447
		c2.007,1.94,0.632,7.668-4.613,13.104c-3.439,3.563-7.593,5.866-10.584,5.866c-1.009,0-1.797-0.267-2.342-0.794
		C5.551,23.528,5,22.479,5,21.417c0-3.285,2.548-4.973,5.012-6.604c1.029-0.681,2.001-1.325,2.712-2.061
		c0.724-0.75,1.282-1.731,1.872-2.769C15.989,7.533,17.43,5,21.279,5"/>
</g>
<path d="M24.975,5.809c4.976,4.916,3.42,11.811-1.807,17.226s-12.272,6.636-16.914,2.489c2.15,0.726,8.116-0.716,13.342-6.132
	S24.841,7.079,24.975,5.809z"/>
<path d="M16.855,11.802c-0.406,1.12-0.754,2.45-1.764,3.496c-0.975,1.011-2.656,1.741-3.691,2.254
	c-2.664,1.32-3.653,4.142-3.458,6.043c0.584-2.144,2.683-3.435,4.432-4.289c1.151-0.563,3.094-1.199,4.335-2.485
	c1.321-1.37,1.539-2.977,1.997-4.191c0.621-1.647,2.582-4.094,4.432-5.165C21.482,7.416,18.105,8.356,16.855,11.802z"/>
</svg>
