<?xml version="1.0" encoding="iso-8859-1"?>
<!-- Generator: Adobe Illustrator 19.2.1, SVG Export Plug-In . SVG Version: 6.00 Build 0)  -->
<svg version="1.1" id="Layer_1" xmlns="http://www.w3.org/2000/svg" xmlns:xlink="http://www.w3.org/1999/xlink" x="0px" y="0px"
	 viewBox="0 0 32 32" style="enable-background:new 0 0 32 32;" xml:space="preserve">
<path style="fill:none;stroke:#000000;stroke-width:2;stroke-linejoin:round;stroke-miterlimit:10;" d="M8,11.529l-3.76,3.76
	c-0.392,0.392-0.392,1.028,0,1.42L8,20.471V11.529z"/>
<path style="fill:none;stroke:#000000;stroke-width:2;stroke-linejoin:round;stroke-miterlimit:10;" d="M21.588,9.227l-4.932-4.932
	c-0.392-0.392-1.028-0.392-1.42,0L12,7.529v11.285L21.588,9.227z"/>
<g>
	<path style="fill:none;stroke:#000000;stroke-width:2;stroke-linejoin:round;stroke-miterlimit:10;" d="M16.855,19.615L12,24.471
		l3.235,3.235c0.392,0.392,1.028,0.392,1.42,0l4.145-4.145L16.855,19.615z"/>
	<path style="fill:none;stroke:#000000;stroke-width:2;stroke-linejoin:round;stroke-miterlimit:10;" d="M27.651,15.29l-3.235-3.235
		l-4.733,4.733l3.945,3.945l4.022-4.022C28.043,16.318,28.043,15.682,27.651,15.29z"/>
</g>
</svg>
