<?xml version="1.0" encoding="iso-8859-1"?>
<!-- Generator: Adobe Illustrator 22.1.0, SVG Export Plug-In . SVG Version: 6.00 Build 0)  -->
<svg version="1.1" id="Layer_1" xmlns="http://www.w3.org/2000/svg" xmlns:xlink="http://www.w3.org/1999/xlink" x="0px" y="0px"
	 viewBox="0 0 32 32" style="enable-background:new 0 0 32 32;" xml:space="preserve">
<path d="M17.788,8.678C17.244,8.173,16.646,7.728,16,7.353c-0.646,0.375-1.244,0.82-1.788,1.325
	c-0.728,0.676-1.356,1.459-1.859,2.322H19v2h-7.532c-0.204,0.641-0.345,1.31-0.415,2H20v2h-8.947c0.069,0.69,0.211,1.359,0.415,2H19
	v2h-6.647c0.503,0.863,1.131,1.646,1.859,2.322c0.544,0.505,1.142,0.95,1.788,1.325c0.646-0.375,1.244-0.82,1.788-1.325
	C19.758,21.494,21,18.892,21,16S19.758,10.506,17.788,8.678z"/>
<circle style="fill:none;stroke:#000000;stroke-width:2;stroke-miterlimit:10;" cx="11" cy="16" r="9"/>
<path style="fill:none;stroke:#000000;stroke-width:2;stroke-miterlimit:10;" d="M16,8.516C17.43,7.558,19.15,7,21,7
	c4.971,0,9,4.029,9,9s-4.029,9-9,9c-1.85,0-3.57-0.558-5-1.516"/>
</svg>
