<?xml version="1.0" encoding="iso-8859-1"?>
<!-- Generator: Adobe Illustrator 19.1.1, SVG Export Plug-In . SVG Version: 6.00 Build 0)  -->
<svg version="1.1" id="Layer_1" xmlns="http://www.w3.org/2000/svg" xmlns:xlink="http://www.w3.org/1999/xlink" x="0px" y="0px"
	 viewBox="0 0 32 32" style="enable-background:new 0 0 32 32;" xml:space="preserve">
<path d="M9.959,10.827c-2.617,1.629-4.113,3.944-4.113,3.944s0.388-4.854,4.113-7.695C11.441,5.946,13.467,5,16.191,5
	c1.024,0,3.17,0.178,5.103,1.37s2.714,2.19,3.585,3.652c0.376,0.631,0.682,1.441,0.873,2.223c0.358,1.465,0.401,3.216,0.401,3.216
	v2.307H12.337c0,0-0.337,4.642,6.017,4.642c2.21,0,2.984-0.347,3.711-0.562c1.138-0.337,2.237-1.088,2.237-1.088l0.002,4.638
	c0,0-2.601,1.602-6.529,1.602c-1.106,0-2.272-0.093-3.397-0.458c-0.983-0.319-3.04-1.179-4.418-3.194
	c-0.487-0.713-1.015-1.662-1.277-2.588c-0.283-1.002-0.279-1.975-0.279-2.512c0-2.006,0.685-3.921,1.874-5.305
	c1.54-1.793,3.487-2.583,3.487-2.583s-0.634,0.739-1.024,1.66s-0.497,1.846-0.497,1.846h7.802c0,0,0.456-4.662-4.415-4.662
	C13.796,9.205,11.542,9.842,9.959,10.827z"/>
</svg>
