<?xml version="1.0" encoding="iso-8859-1"?>
<!-- Generator: Adobe Illustrator 19.1.1, SVG Export Plug-In . SVG Version: 6.00 Build 0)  -->
<svg version="1.1"  xmlns="http://www.w3.org/2000/svg" xmlns:xlink="http://www.w3.org/1999/xlink" x="0px" y="0px"
	 viewBox="0 0 32 32" style="enable-background:new 0 0 32 32;" xml:space="preserve">
<polyline style="fill:none;stroke:#000000;stroke-width:2;stroke-linecap:round;stroke-linejoin:round;stroke-miterlimit:10;" points="
	27.137,14.157 15,28 27.86,14.846 "/>
<circle style="fill:none;stroke:#000000;stroke-width:2;stroke-miterlimit:10;" cx="27.5" cy="14.5" r="0.5"/>
<g>
	<path d="M13.496,26.682l1.41-1.609L7,23.231V8l12.603,1.887c0.25,0.033,0.325,0.074,0.344,0.073C19.957,9.986,20,10.108,20,10.458
		v8.805l2-2.281v-6.524c0-0.975-0.222-2.3-2.117-2.552L7.265,6.018C6.696,5.942,6.117,6.114,5.683,6.495C5.249,6.875,5,7.423,5,8
		v15.231c0,0.904,0.61,1.699,1.516,1.94l6.909,1.609C13.45,26.748,13.469,26.713,13.496,26.682z"/>
	<path d="M17.958,27.836l0.269,0.063c0.259,0.069,0.521,0.104,0.781,0.104c0.65,0,1.287-0.214,1.819-0.622
		C21.572,26.807,22,25.939,22,25v-1.299L17.958,27.836z"/>
</g>
<g>
	<path d="M19.751,26.002l1.205,1.269c0.491-0.466,2.966-2.822,3.461-3.49C24.798,23.264,25,22.647,25,22v-1.367L19.751,26.002z"/>
	<path d="M23,8.5v7.342l2-2.281V8.5c0-1.497-1.119-2.775-2.601-2.974L11.263,4.018c-0.542-0.073-1.083,0.081-1.448,0.374
		C9.563,4.549,7.66,5.486,5.967,6.301l0.867,1.803c3.849-1.853,4.07-2.027,4.163-2.104l11.135,1.509C22.627,7.575,23,8.001,23,8.5z"
		/>
</g>
</svg>
