<?xml version="1.0" encoding="iso-8859-1"?>
<!-- Generator: Adobe Illustrator 19.2.0, SVG Export Plug-In . SVG Version: 6.00 Build 0)  -->
<svg version="1.1" xmlns="http://www.w3.org/2000/svg" xmlns:xlink="http://www.w3.org/1999/xlink" x="0px" y="0px"
	 viewBox="0 0 32 32" style="enable-background:new 0 0 32 32;" xml:space="preserve">
<g >
	<path d="M23.051,9.949L23.051,9.949c0.389,0.389,1.025,0.389,1.414,0l4.243-4.243c0.389-0.389,0.389-1.025,0-1.414l0,0
		c-0.389-0.389-1.025-0.389-1.414,0l-4.243,4.243C22.663,8.923,22.663,9.56,23.051,9.949z"/>
	<path d="M21.5,5.292L21.5,5.292c-0.389,0.389-0.389,1.025,0,1.414l4.794,4.794c0.389,0.389,1.025,0.389,1.414,0l0,0
		c0.389-0.389,0.389-1.025,0-1.414l-4.794-4.794C22.525,4.903,21.889,4.903,21.5,5.292z"/>
	<path d="M24.625,14.833c0,0,0.148,1.999,0.097,2.012c-0.165,0.257-0.335,0.49-0.67,0.697c0.114,0.106,0.17,0.212,0.17,0.345
		c0,0.036-0.007,0.069-0.011,0.104c0.002,0.01,0.011,0.019,0.011,0.029c0,0.491-0.437,0.922-1.123,1.19
		c-0.011,0.101-0.013,0.19-0.013,0.268c0,0.141-0.005,0.187-0.012,0.187c-0.013,0-0.034-0.148-0.05-0.148
		C23.011,19.516,23,19.62,23,20c0,1.087,3,3,3,3s0-0.689,0-1.06c0-1.315,1-1.681,1-2.94C27,16.281,24.625,14.833,24.625,14.833z"/>
	<path style="fill:none;stroke:#000000;stroke-width:2;stroke-miterlimit:10;" d="M15.062,8.054
		c-3.491,0.397-6.383,3.136-6.951,6.603C7.798,16.561,8.165,18.363,9,19.87V21c0,1.105,0.895,2,2,2h1v1c0,1.105,0.895,2,2,2h4
		c1.105,0,2-0.895,2-2v-1h1c1.105,0,2-0.895,2-2v-1.13c0.636-1.147,1-2.466,1-3.87C24,11.273,19.9,7.503,15.062,8.054z"/>
	<g>
		<path d="M23.354,12.866L26,10l-3-3l-2.291,2.532C21.868,10.377,22.784,11.53,23.354,12.866z"/>
		<path d="M12,24v-1h-1c-0.696,0-1.308-0.356-1.666-0.895L4,28c3.94-0.588,6.576-2.053,8.149-3.247C12.054,24.52,12,24.267,12,24z"
			/>
	</g>
	<g>
		<path d="M22.666,22.105C22.308,22.644,21.696,23,21,23h-1v1c0,0.267-0.054,0.52-0.149,0.753C21.424,25.947,24.06,27.412,28,28
			L22.666,22.105z"/>
		<path d="M11.303,9.546L9,7l-3,3l2.656,2.878C9.227,11.544,10.143,10.393,11.303,9.546z"/>
	</g>
	<path d="M16,15c4.469,0,7,0,7,0v-2.062c0,0-2.344-1.938-7-1.938s-7,1.938-7,1.938V15C9,15,11.531,15,16,15z"/>
	<line style="fill:none;stroke:#000000;stroke-width:2;stroke-miterlimit:10;" x1="16" y1="21" x2="16" y2="23"/>
	<circle cx="19" cy="18" r="2"/>
	<circle cx="13" cy="18" r="2"/>
	<path d="M8.949,9.949L8.949,9.949c-0.389,0.389-1.025,0.389-1.414,0L3.292,5.706c-0.389-0.389-0.389-1.025,0-1.414l0,0
		c0.389-0.389,1.025-0.389,1.414,0l4.243,4.243C9.337,8.923,9.337,9.56,8.949,9.949z"/>
	<path d="M10.5,5.292L10.5,5.292c0.389,0.389,0.389,1.025,0,1.414L5.706,11.5c-0.389,0.389-1.025,0.389-1.414,0l0,0
		c-0.389-0.389-0.389-1.025,0-1.414l4.794-4.794C9.475,4.903,10.111,4.903,10.5,5.292z"/>
</g>
<g >
</g>
</svg>
