<?xml version="1.0" encoding="iso-8859-1"?>
<!-- Generator: Adobe Illustrator 19.1.1, SVG Export Plug-In . SVG Version: 6.00 Build 0)  -->
<svg version="1.1"  xmlns="http://www.w3.org/2000/svg" xmlns:xlink="http://www.w3.org/1999/xlink" x="0px" y="0px"
	 viewBox="0 0 32 32" style="enable-background:new 0 0 32 32;" xml:space="preserve">
<g>
	<path d="M17.582,5.996C17.582,5.996,17.582,5.996,17.582,5.996C17.582,5.996,17.582,5.996,17.582,5.996 M17.581,5.996
		C21.946,6.065,23,8.614,23,10c-1.257,0.105-2.306,0.159-2.77,0.898c-1.059,1.687-0.266,4.538,0.478,5.822
		c0.08,0.138,0.946,0.957,1.292,1.28c0.126,0.118-0.46,0.276-0.58,0.4c-0.335,0.348-0.33,1.401-0.4,2.587C21.007,20.995,21,21,21,21
		s0.005,0.11,0.011,0.261C21.008,21.374,21,21.477,21,21.6v2.016C21,26.124,19.603,27,18.438,27c-1.237,0-2.302-1.01-2.302-1.867
		c0-0.503-0.081-1.362-0.136-2.133c0.013-1.777,0-2.422,0-3c0-0.559-1-1-1-1c0.125-0.292,0.53-0.892,0.53-0.892
		C15.834,17.351,15.994,16.631,16,15c0.003-0.746-0.098-1.56-0.309-2.491C15.403,11.24,14.44,10.01,13,10c-0.009,0-0.018,0-0.027,0
		c-0.585,0-0.515,0-0.973,0C12,8,14.665,5.996,17.581,5.996 M17.581,5.996C17.581,5.996,17.581,5.996,17.581,5.996
		C17.581,5.996,17.581,5.996,17.581,5.996 M17.581,3.996C13.543,3.996,10,6.802,10,10c0,1.105,0.895,2,2,2l0.42,0l0.553,0
		c0.385,0.003,0.678,0.558,0.767,0.951c0.177,0.781,0.262,1.449,0.26,2.041c-0.005,1.271-0.111,1.784-0.259,2.194
		c-0.192,0.295-0.441,0.702-0.58,1.026c-0.404,0.942-0.028,2.024,0.842,2.522c0.003,0.482,0.005,1.145-0.003,2.251
		c0,0.052,0.001,0.105,0.005,0.157l0.048,0.637c0.041,0.522,0.083,1.062,0.083,1.353c0,2.024,2.051,3.867,4.302,3.867
		C20.635,29,23,27.315,23,23.616V21.6c0-0.048,0.003-0.091,0.004-0.134l0.006-0.144c0.001-0.045,0.001-0.089,0-0.134
		c0.003-0.028,0.005-0.056,0.007-0.085l0.029-0.548c0.012-0.25,0.028-0.554,0.048-0.802c0.375-0.261,0.784-0.69,0.898-1.392
		c0.107-0.659-0.14-1.369-0.628-1.824c-0.401-0.373-0.816-0.774-1.008-0.97c-0.514-0.993-0.819-2.632-0.52-3.425
		c0.273-0.061,0.776-0.103,1.163-0.135l0.168-0.014C24.203,11.907,25,11.04,25,10c0-2.036-1.544-5.911-7.387-6.003
		C17.602,3.997,17.592,3.996,17.581,3.996L17.581,3.996z"/>
</g>
<g>
	<path d="M9.325,4.994c1.339,0,2.361,0.294,3.271,0.636c-2.15,1.019-2.595,3.163-2.595,5.369c0,0.002,0.001,0.004,0.001,0.006
		c0,0.005-0.002,0.009-0.002,0.014c-0.001,0.088,0.029,0.247,0.029,0.462C10.029,12.5,10,14.71,10,16
		c0,2.201,2.352,4.003,2.962,4.003c0.014,0,0.026-0.001,0.038-0.003c-1.167,0.667-2.917,1-3.999,1C6.347,21,5.086,11.638,5,10
		C4.771,5.636,6.646,5.082,9,5C9.111,4.996,9.219,4.994,9.325,4.994 M9.325,2.994C9.325,2.994,9.324,2.994,9.325,2.994
		c-0.13,0-0.261,0.002-0.395,0.007c-1.517,0.053-3.237,0.292-4.5,1.67c-1.09,1.189-1.557,2.967-1.428,5.433
		c0.047,0.888,0.388,3.76,1.098,6.51C4.809,19.355,6.088,23,9.001,23c1.384,0,3.465-0.391,4.992-1.263
		c0.837-0.478,1.214-1.486,0.896-2.396c-0.242-0.693-0.835-1.18-1.525-1.308C12.93,17.757,12,16.831,12,16
		c0-0.678,0.008-1.613,0.016-2.492c0.007-0.794,0.013-1.543,0.013-2.026c0-0.203-0.015-0.374-0.028-0.51
		c0-0.009,0-0.017-0.001-0.026c0.01-2.482,0.703-3.153,1.452-3.508c0.726-0.344,1.175-1.088,1.142-1.89
		C14.561,4.745,14.051,4.04,13.3,3.758C12.353,3.402,11.046,2.994,9.325,2.994L9.325,2.994z"/>
</g>
<path d="M22.605,4.972c0.985,0,2.925,0.199,3.893,1.654C27.713,8.455,26.542,18.417,23,19c0.917-0.292,1.833-0.292,2-3
	c0-0.833-0.046-3.619,0-4c0.063-0.518,0.019-1.448,0-2c0.015-0.073,0.014-0.152,0.014-0.245C25.014,6.912,22,5,22,5
	S22.235,4.972,22.605,4.972 M22.605,2.972c-0.464,0-0.781,0.035-0.84,0.042c-0.84,0.1-1.527,0.717-1.715,1.542
	c-0.188,0.825,0.164,1.679,0.879,2.132c0.011,0.008,2.085,1.404,2.085,3.066c0,0,0,0.005,0,0.011
	c-0.012,0.1-0.016,0.202-0.012,0.303l0.007,0.194c0.014,0.386,0.044,1.189,0.007,1.494c-0.04,0.325-0.044,0.948-0.023,3.176
	C22.996,15.379,23,15.767,23,16c0,0.577,0.171,0.927,0,1l-0.75,1.5c-0.154,0.308-0.209,0.657-0.158,0.999
	C22.205,20.266,22.25,21,22.997,21c0.108,0,0.218-0.009,0.328-0.027c1.19-0.196,2.873-1.038,4.133-3.933
	c1.489-3.423,2.107-9.412,0.704-11.521C26.689,3.303,24.048,2.972,22.605,2.972L22.605,2.972z"/>
<path d="M26.36,20.126c-1.501,0.359-2.223,0.168-2.573-0.082c-0.056,0.047-2.85-0.625-1.788,2c0.047,0.01,1.384-0.004,1.384-0.004
	c0.744,0.039,1.717-0.202,2.288-0.51C26.902,20.867,27.573,19.836,26.36,20.126z"/>
<path d="M13.878,12.71C13.675,12.891,13.354,13.049,13,13c-0.576-0.08-1.018-0.68-0.987-0.904h0c0.03-0.224,0.523-0.341,1.099-0.261
	c0.2,0.028,0.382,0.077,0.535,0.137C14.056,12.149,14.102,12.441,13.878,12.71z"/>
<path d="M21.133,12.701c0.203,0.181,0.525,0.34,0.878,0.29c0.576-0.08,1.018-0.68,0.987-0.904h0
	c-0.03-0.224-0.523-0.341-1.099-0.261c-0.2,0.028-0.382,0.077-0.535,0.137C20.956,12.14,20.909,12.432,21.133,12.701z"/>
<path d="M18,4c0,0,1.125-1,4-1s-1,2-1,2S18.688,4.688,18,4z"/>
<path d="M16,5c0,0-2.417-2-7-2v1l5,2L16,5z"/>
</svg>
