<?xml version="1.0" encoding="iso-8859-1"?>
<!-- Generator: Adobe Illustrator 22.0.1, SVG Export Plug-In . SVG Version: 6.00 Build 0)  -->
<svg version="1.1" id="Layer_1" xmlns="http://www.w3.org/2000/svg" xmlns:xlink="http://www.w3.org/1999/xlink" x="0px" y="0px"
	 viewBox="0 0 32 32" style="enable-background:new 0 0 32 32;" xml:space="preserve">
<path style="fill:none;stroke:#000000;stroke-width:2;stroke-linecap:round;stroke-miterlimit:10;" d="M15.891,10.462
	c1.304,0,2.321,1.434,2.544,2.08c0.223,0.646-0.151,1.341-0.836,1.551c-0.685,0.21-1.421-0.142-1.644-0.789
	C15.732,12.658,16.544,8,13.59,8c-3.67,0-1.612,8-4.873,8c-1.957,0-0.652-3.077-1.957-3.077c-0.496,0-0.58,0.334-0.895,0.809
	c-0.233,0.35-0.701,0.518-1.108,0.365C4.35,13.943,3.826,13.538,3.5,12.923"/>
<path d="M15.975,11.308c-0.179-0.05-0.457-0.061-0.687-0.048c-0.241,0.015-0.477,0.062-0.697,0.153
	c-0.223,0.09-0.415,0.241-0.571,0.443c-0.167,0.2-0.248,0.464-0.318,0.738c-0.037-0.274-0.068-0.577,0.024-0.874
	c0.08-0.296,0.244-0.595,0.48-0.826c0.233-0.234,0.512-0.419,0.807-0.561c0.305-0.14,0.584-0.249,0.963-0.313l0.068-0.012
	c0.367-0.062,0.714,0.182,0.776,0.545c0.062,0.363-0.184,0.707-0.551,0.768C16.168,11.34,16.067,11.333,15.975,11.308z"/>
<path style="fill:none;stroke:#000000;stroke-linecap:round;stroke-linejoin:round;stroke-miterlimit:10;" d="M2.401,12.295
	c-0.247-0.093-0.537-0.093-0.901-0.093"/>
<path style="fill:none;stroke:#000000;stroke-linecap:round;stroke-linejoin:round;stroke-miterlimit:10;" d="M2.4,11.5
	c0,1.054,0.9,1.405,0.9,1.405"/>
<path style="fill:none;stroke:#000000;stroke-width:2;stroke-linecap:round;stroke-miterlimit:10;" d="M14.223,17.474
	c-0.551-1.178,0.416-2.676,0.983-3.148c0.567-0.473,1.436-0.426,1.942,0.105c0.505,0.53,0.455,1.343-0.112,1.815
	c-0.567,0.473-6.101,1.659-4.853,4.326c1.551,3.315,9.307-2.181,10.685,0.764c0.827,1.767-3.124,2.021-2.572,3.199
	c0.21,0.448,1.226,0.367,1.845,0.453c0.457,0.064,0.842,0.416,0.857,0.848c0.014,0.433,0,1.022-0.688,1.664"/>
<path d="M14.709,17.205c0.017,0.179,0.112,0.435,0.214,0.637c0.108,0.211,0.247,0.407,0.427,0.569
	c0.178,0.167,0.41,0.277,0.681,0.336c0.272,0.068,0.573,0.034,0.879-0.013c-0.257,0.144-0.544,0.295-0.883,0.334
	c-0.331,0.05-0.71,0.022-1.045-0.106c-0.337-0.122-0.641-0.311-0.905-0.528c-0.267-0.229-0.488-0.444-0.702-0.769l-0.041-0.062
	c-0.209-0.316-0.093-0.726,0.259-0.913c0.352-0.188,0.807-0.084,1.016,0.233C14.666,17.011,14.7,17.109,14.709,17.205z"/>
<path style="fill:none;stroke:#000000;stroke-linecap:round;stroke-linejoin:round;stroke-miterlimit:10;" d="M21.325,28.631
	c-0.009,0.264,0,0.435,0,0.869"/>
<path style="fill:none;stroke:#000000;stroke-linecap:round;stroke-linejoin:round;stroke-miterlimit:10;" d="M20.5,28.631
	c1.237,0,1.65-0.869,1.65-0.869"/>
<path style="fill:none;stroke:#000000;stroke-width:2;stroke-linecap:round;stroke-miterlimit:10;" d="M26,4
	c0,0-1.333,0-1.694,0.222C24.09,4.355,24.007,4.51,24,4.668c-0.005,0.116,0.04,0.245,0.132,0.4c0.293,0.498,0.707,0.732,0.461,1.147
	c-0.479,0.808-1.778-0.365-2.795-0.342c-0.357,0.008-0.683,0.165-0.935,0.591c-0.149,0.25-0.199,0.499-0.197,0.748
	c0.024,2.468,6.717,4.942,5.063,7.732c-1.466,2.471-5.419-0.803-6.141-0.935c-0.723-0.132-1.423,0.311-1.563,0.988
	c-0.141,0.677,0.332,1.332,1.055,1.464c0.723,0.132,2.585-0.013,3.233-1.104"/>
<path d="M21.575,14.889c0.14-0.126,0.295-0.352,0.402-0.55c0.111-0.207,0.19-0.426,0.218-0.652c0.031-0.227-0.013-0.458-0.122-0.683
	c-0.102-0.233-0.309-0.423-0.532-0.61c0.278,0.097,0.58,0.212,0.813,0.428c0.238,0.204,0.434,0.481,0.53,0.786
	c0.1,0.303,0.129,0.622,0.111,0.934c-0.026,0.321-0.068,0.603-0.205,0.949l-0.024,0.061c-0.132,0.334-0.543,0.509-0.918,0.391
	c-0.375-0.118-0.571-0.483-0.439-0.817C21.445,15.035,21.504,14.953,21.575,14.889z"/>
<path style="fill:none;stroke:#000000;stroke-linecap:round;stroke-linejoin:round;stroke-miterlimit:10;" d="M27.174,3.556
	c0.304-0.051,0.533-0.528,0.533-1.056"/>
<path style="fill:none;stroke:#000000;stroke-linecap:round;stroke-linejoin:round;stroke-miterlimit:10;" d="M28.5,3.452
	c-1.189,0-2.775,0.476-2.775,0.476"/>
</svg>
