<?xml version="1.0" encoding="iso-8859-1"?>
<!-- Generator: Adobe Illustrator 19.1.1, SVG Export Plug-In . SVG Version: 6.00 Build 0)  -->
<svg version="1.1" xmlns="http://www.w3.org/2000/svg" xmlns:xlink="http://www.w3.org/1999/xlink" x="0px" y="0px"
	 viewBox="0 0 32 32" style="enable-background:new 0 0 32 32;" xml:space="preserve">
<g >
</g>
<g >
	<path d="M14.5,19l-2.4-6h-1.75L8,19h1.75l0.3-0.9c0.35,0.15,0.75,0.25,1.2,0.25s0.85-0.1,1.2-0.25l0.3,0.9H14.5z M11.25,17.05
		c-0.3,0-0.55-0.05-0.75-0.2l0.75-2.15L12,16.85C11.8,17,11.55,17.05,11.25,17.05z"/>
	<path d="M4,18.55c0,0,0.55,0.45,2.2,0.45s2.65-0.85,2.65-1.7c0-1.15-1.1-1.55-1.75-1.7c-1.5-0.4-1.6-0.6-1.6-0.9
		c0-0.75,2-0.4,2.5-0.2c0.15-0.4,0.45-1.15,0.45-1.15S7.9,13,6.2,13S4,14.05,4,14.7s0.35,1.4,1.3,1.7c1,0.3,1.75,0.35,1.75,0.85
		s-1.7,0.6-2.65,0L4,18.55z"/>
	<path d="M16.25,13H14v3.5v1V19h1.5v-1.5h0.75c1.25,0,2.25-1,2.25-2.25S17.5,13,16.25,13z M16.25,16H15.5v-1.5h0.75
		c0.4,0,0.75,0.35,0.75,0.75S16.65,16,16.25,16z"/>
	<polygon style="fill:none;stroke:#000000;stroke-width:2;stroke-miterlimit:10;" points="2,10 29,10 16,22 2,22 	"/>
</g>
</svg>
