<?xml version="1.0" encoding="iso-8859-1"?>
<!-- Generator: Adobe Illustrator 19.1.1, SVG Export Plug-In . SVG Version: 6.00 Build 0)  -->
<svg version="1.1" id="Layer_1" xmlns="http://www.w3.org/2000/svg" xmlns:xlink="http://www.w3.org/1999/xlink" x="0px" y="0px"
	 viewBox="0 0 32 32" style="enable-background:new 0 0 32 32;" xml:space="preserve">
<path style="fill:none;stroke:#000000;stroke-width:2;stroke-miterlimit:10;" d="M25.919,14.078C25.967,13.724,26,13.366,26,13
	c0-4.418-3.582-8-8-8c-3.638,0-6.704,2.431-7.675,5.756C9.669,10.285,8.87,10,8,10c-2.209,0-4,1.791-4,4
	c0,0.261,0.029,0.515,0.077,0.763C2.242,15.789,1,17.748,1,20c0,3.314,2.686,6,6,6h18c3.314,0,6-2.686,6-6
	C31,17,28.795,14.521,25.919,14.078z"/>
<line style="fill:none;stroke:#000000;stroke-width:2;stroke-miterlimit:10;" x1="21" y1="22" x2="21" y2="13"/>
<line style="fill:none;stroke:#000000;stroke-width:2;stroke-miterlimit:10;" x1="17" y1="22" x2="17" y2="15"/>
<line style="fill:none;stroke:#000000;stroke-width:2;stroke-miterlimit:10;" x1="13" y1="22" x2="13" y2="16"/>
<line style="fill:none;stroke:#000000;stroke-width:2;stroke-miterlimit:10;" x1="9" y1="22" x2="9" y2="17"/>
</svg>
