<?xml version="1.0" encoding="iso-8859-1"?>
<!-- Generator: Adobe Illustrator 22.1.0, SVG Export Plug-In . SVG Version: 6.00 Build 0)  -->
<svg version="1.1" id="Layer_1" xmlns="http://www.w3.org/2000/svg" xmlns:xlink="http://www.w3.org/1999/xlink" x="0px" y="0px"
	 viewBox="0 0 32 32" style="enable-background:new 0 0 32 32;" xml:space="preserve">
<path d="M16,14h-4.627c-0.213-0.21-0.516-0.578-0.714-1.098c-0.267-0.702-0.06-1.501,0.471-2.032L13,9h-1.828L13,3V0L9.053,9.247
	L9.051,9.246c-0.035,0.076-0.068,0.151-0.1,0.226l-2.038,4.504L13,27v-5.112l-0.015-0.604c0,0-1.084-0.283-0.985-3.283h4V14z"/>
<path d="M15.913,14h4.627c0.213-0.21,0.516-0.578,0.714-1.098c0.267-0.702,0.06-1.501-0.471-2.032L18.913,9h1.828l-1.828-6V0
	l3.947,9.247l0.002-0.001c0.035,0.076,0.068,0.151,0.1,0.226L25,13.976L19,27l-0.087-5.112l0.015-0.604c0,0,1.171-0.283,1.072-3.283
	h-4.087V14z"/>
<polygon points="13.458,19 12.458,17 14.458,17 "/>
<polygon points="18.458,19 17.458,17 19.458,17 "/>
<polygon points="13,12 12,14 14,14 "/>
<polygon points="15.5,3 14.5,5 16.5,5 "/>
<polygon points="19,12 18,14 20,14 "/>
<path style="fill:none;stroke:#000000;stroke-width:2;stroke-miterlimit:10;" d="M15,16c0,3,2,4,2,4.875c0,1-2,2.333-2,3.333
	C15,25.098,17,26,17,28"/>
<polygon points="18,28 16.167,32 14,28 "/>
<path style="fill:none;stroke:#000000;stroke-width:2;stroke-miterlimit:10;" d="M16,15c0-2-1-3-1-4c0-2,3-1.954,3-4
	c0-0.995-0.709-0.991-1.438-1C15.792,5.991,15,6,15,6"/>
<path d="M14.5,5c0,0-1.5,0.719-1.5,3c1-1,2-1,2-1s3.333-1.333,2-2H14.5z"/>
</svg>
