<?xml version="1.0" encoding="iso-8859-1"?>
<!-- Generator: Adobe Illustrator 19.1.1, SVG Export Plug-In . SVG Version: 6.00 Build 0)  -->
<svg version="1.1" id="Layer_1" xmlns="http://www.w3.org/2000/svg" xmlns:xlink="http://www.w3.org/1999/xlink" x="0px" y="0px"
	 viewBox="0 0 32 32" style="enable-background:new 0 0 32 32;" xml:space="preserve">
<path d="M24.349,25.701L24.349,25.701c-1.13,0.378-2.353-0.232-2.731-1.362L15.432,5.843c-0.378-1.13,0.232-2.353,1.362-2.731l0,0
	c1.13-0.378,2.353,0.232,2.731,1.362l6.187,18.496C26.089,24.1,25.48,25.323,24.349,25.701z"/>
<path d="M15.206,28.888L15.206,28.888c-1.13,0.378-2.353-0.232-2.731-1.362L6.289,9.03C5.911,7.9,6.52,6.677,7.651,6.299l0,0
	c1.13-0.378,2.353,0.232,2.731,1.362l6.187,18.496C16.946,27.287,16.336,28.51,15.206,28.888z"/>
<path d="M6.299,24.349L6.299,24.349c-0.378-1.13,0.232-2.353,1.362-2.731l18.496-6.187c1.13-0.378,2.353,0.232,2.731,1.362v0
	c0.378,1.13-0.232,2.353-1.362,2.731L9.03,25.711C7.9,26.089,6.677,25.48,6.299,24.349z"/>
<path d="M3.112,15.206L3.112,15.206c-0.378-1.13,0.232-2.353,1.362-2.731L22.97,6.289c1.13-0.378,2.353,0.232,2.731,1.362l0,0
	c0.378,1.13-0.232,2.353-1.362,2.731L5.843,16.568C4.713,16.946,3.49,16.336,3.112,15.206z"/>
</svg>
