<?xml version="1.0" encoding="iso-8859-1"?>
<!-- Generator: Adobe Illustrator 19.1.1, SVG Export Plug-In . SVG Version: 6.00 Build 0)  -->
<svg version="1.1" id="Layer_1" xmlns="http://www.w3.org/2000/svg" xmlns:xlink="http://www.w3.org/1999/xlink" x="0px" y="0px"
	 viewBox="0 0 32 32" style="enable-background:new 0 0 32 32;" xml:space="preserve">
<ellipse cx="19.672" cy="13.49" rx="2.672" ry="2.51"/>
<ellipse cx="12.328" cy="13.49" rx="2.672" ry="2.51"/>
<path d="M19.551,28c0,0-2.544,0-2.544-2.524s0-7.052,0-7.052s0.06-1.262,1.262-1.262c0.621,0,1.563,0.08,3.025,0.08
	c3.546,0,6.851-2.664,7.212-2.664c0.361,0,0.501,0.321,0.501,0.541c0,1.122-3.346,3.285-5.449,4.067c0,0,0.521,1.543,0.521,3.306
	S22.997,28,19.551,28z"/>
<path d="M12.449,28c0,0,2.544,0,2.544-2.524s0-7.052,0-7.052s-0.06-1.262-1.262-1.262c-0.621,0-1.563,0.08-3.025,0.08
	c-3.546,0-6.851-2.664-7.212-2.664s-0.501,0.321-0.501,0.541c0,1.122,3.346,3.285,5.449,4.067c0,0-0.521,1.543-0.521,3.306
	S9.003,28,12.449,28z"/>
<polygon points="14.307,20.321 17.616,21.293 17.477,19.696 14.596,17.499 "/>
<path style="fill:none;stroke:#000000;stroke-width:2;stroke-miterlimit:10;" d="M6,17V7c0-1.105,0.895-2,2-2h16
	c1.105,0,2,0.895,2,2v10"/>
<rect style="fill:none;" width="32" height="32"/>
</svg>
