<?xml version="1.0" encoding="iso-8859-1"?>
<!-- Generator: Adobe Illustrator 19.1.1, SVG Export Plug-In . SVG Version: 6.00 Build 0)  -->
<svg version="1.1"  xmlns="http://www.w3.org/2000/svg" xmlns:xlink="http://www.w3.org/1999/xlink" x="0px" y="0px"
	 viewBox="0 0 32 32" style="enable-background:new 0 0 32 32;" xml:space="preserve">
<g>
	<g>
		<path d="M1.545,16.263c-0.068,0-0.124,0.054-0.133,0.129l-0.315,2.874l0.315,2.81c0.009,0.075,0.065,0.13,0.133,0.13
			c0.067,0,0.122-0.053,0.133-0.129l0.358-2.811l-0.358-2.874C1.667,16.316,1.613,16.263,1.545,16.263z"/>
		<path d="M0.362,17.363c-0.067,0-0.119,0.052-0.128,0.125L0,19.266l0.234,1.747c0.009,0.074,0.062,0.125,0.128,0.125
			c0.065,0,0.117-0.051,0.128-0.124l0.277-1.748L0.49,17.488C0.48,17.415,0.427,17.363,0.362,17.363z"/>
		<path d="M2.803,15.699c-0.085,0-0.152,0.066-0.16,0.157c0,0-0.299,3.41-0.299,3.41l0.299,3.285
			c0.008,0.091,0.076,0.157,0.16,0.157c0.083,0,0.15-0.066,0.16-0.157l0.339-3.286l-0.339-3.41
			C2.953,15.765,2.886,15.699,2.803,15.699z"/>
		<path d="M4.07,15.579c-0.099,0-0.18,0.079-0.188,0.185L3.6,19.267l0.282,3.389C3.89,22.761,3.971,22.84,4.07,22.84
			c0.098,0,0.179-0.079,0.187-0.184l0.321-3.389l-0.321-3.504C4.249,15.658,4.168,15.579,4.07,15.579z"/>
		<polygon points="5.563,22.684 5.563,22.684 5.563,22.685 		"/>
		<path d="M5.563,16.016c-0.008-0.12-0.101-0.211-0.215-0.211c-0.115,0-0.208,0.091-0.215,0.212l-0.266,3.25l0.266,3.417
			c0.007,0.12,0.1,0.212,0.215,0.212c0.114,0,0.207-0.091,0.215-0.212l0.302-3.417L5.563,16.016z"/>
		<path d="M6.636,13.741c-0.129,0-0.236,0.105-0.242,0.24l-0.25,5.287l0.25,3.417c0.007,0.133,0.113,0.239,0.242,0.239
			c0.128,0,0.235-0.106,0.242-0.24v0.001l0.283-3.417l-0.283-5.288C6.87,13.846,6.764,13.741,6.636,13.741z"/>
		<path d="M7.914,12.523c-0.145,0-0.264,0.117-0.27,0.267c0,0-0.234,6.497-0.234,6.497l0.234,3.396
			c0.006,0.149,0.124,0.266,0.27,0.266c0.144,0,0.263-0.117,0.269-0.267l0,0.002l0.265-3.396L8.184,12.79
			C8.177,12.64,8.058,12.523,7.914,12.523z"/>
		<path d="M9.243,11.936c-0.161,0-0.291,0.13-0.297,0.295L8.728,19.27l0.218,3.361c0.006,0.164,0.136,0.293,0.297,0.293
			c0.16,0,0.29-0.129,0.297-0.294l0,0.002l0.246-3.361L9.54,12.231C9.533,12.066,9.403,11.936,9.243,11.936z"/>
		<path d="M10.886,11.994c-0.006-0.181-0.148-0.322-0.324-0.322c-0.177,0-0.319,0.142-0.324,0.322l-0.202,7.276l0.202,3.34
			c0.005,0.179,0.147,0.32,0.324,0.32c0.176,0,0.318-0.141,0.324-0.322l0.227-3.338L10.886,11.994z"/>
		<polygon points="10.886,22.608 10.886,22.609 10.886,22.61 		"/>
		<path d="M11.891,11.831c-0.193,0-0.347,0.154-0.352,0.35l-0.186,7.09l0.186,3.308c0.004,0.194,0.159,0.348,0.351,0.348
			c0.192,0,0.346-0.154,0.351-0.35v0.002l0.209-3.309l-0.209-7.091C12.237,11.984,12.083,11.831,11.891,11.831z"/>
		<path d="M13.23,12.062c-0.208,0-0.375,0.166-0.379,0.377l-0.169,6.831l0.169,3.287c0.004,0.209,0.17,0.375,0.379,0.375
			c0.208,0,0.374-0.165,0.379-0.377v0.003l0.19-3.287l-0.19-6.832C13.605,12.228,13.438,12.062,13.23,12.062z"/>
		<path d="M14.805,10.807c-0.065-0.044-0.142-0.069-0.224-0.069c-0.08,0-0.155,0.024-0.219,0.066
			c-0.111,0.072-0.185,0.197-0.187,0.339l-0.001,0.077l-0.152,8.05c0,0.005,0.153,3.268,0.153,3.268
			c0,0.005,0.001,0.009,0.001,0.014c0.005,0.091,0.039,0.175,0.095,0.241c0.075,0.09,0.187,0.147,0.311,0.147
			c0.11,0,0.211-0.045,0.284-0.119c0.073-0.073,0.12-0.174,0.122-0.286l0.017-0.323l0.154-2.941l-0.171-8.13
			C14.984,11.003,14.912,10.88,14.805,10.807z"/>
		<polygon points="14.986,22.538 14.986,22.537 14.986,22.538 14.986,22.536 14.987,22.535 14.986,22.536 14.986,22.537 		"/>
		<path d="M16.145,10.036c-0.065-0.039-0.14-0.062-0.22-0.062c-0.103,0-0.199,0.037-0.273,0.099
			c-0.096,0.079-0.158,0.199-0.16,0.333l-0.001,0.045l-0.177,8.822l0.09,1.631l0.088,1.587c0.003,0.235,0.197,0.429,0.434,0.429
			c0.235,0,0.43-0.194,0.433-0.432v0.004v0l0.193-3.218v0l-0.193-8.867C16.355,10.249,16.27,10.112,16.145,10.036z"/>
		<path d="M28.064,15.076c-0.539,0-1.054,0.109-1.522,0.306c-0.313-3.547-3.288-6.33-6.916-6.33c-0.888,0-1.753,0.175-2.518,0.47
			c-0.297,0.115-0.376,0.233-0.379,0.463v12.492c0.003,0.241,0.19,0.428,0.425,0.452c0.01,0.001,10.91,0,10.91,0
			c2.174,0,3.936-1.743,3.936-3.917C32,16.838,30.238,15.076,28.064,15.076z"/>
	</g>
</g>
</svg>
