<?xml version="1.0" encoding="iso-8859-1"?>
<!-- Generator: Adobe Illustrator 19.1.1, SVG Export Plug-In . SVG Version: 6.00 Build 0)  -->
<svg version="1.1" id="Layer_1" xmlns="http://www.w3.org/2000/svg" xmlns:xlink="http://www.w3.org/1999/xlink" x="0px" y="0px"
	 viewBox="0 0 32 32" style="enable-background:new 0 0 32 32;" xml:space="preserve">
<path d="M16,5C9.935,5,5,9.935,5,16s4.935,11,11,11s11-4.935,11-11S22.065,5,16,5z M10.649,7.565C12.21,6.522,14.032,6,16.028,6
	c1.865,0,3.644,0.522,5.119,1.435c0.13,0.043,0.391,0.261,0.564,0.435c-1.432-1.608-5.683,1.826-5.683,1.826
	c-1.475-1.13-2.82-1.913-3.818-2.174c-0.867-0.218-1.432-0.043-1.735,0.174C10.518,7.652,10.605,7.609,10.649,7.565z M16.028,26
	c-5.51,0-9.978-4.478-9.978-10c0-2.652,1.041-5.043,2.689-6.826c0,0,0.434-0.522,1.128-0.522c0.651,0.044,1.345,0.304,1.953,0.695
	c0.043,0.043,0.043,0.043,0.043,0.043c1.302,0.782,2.343,1.913,2.343,1.913c-1.128,1.087-3.818,4.391-4.729,6.609
	c-1.345,3.391-0.738,4.87-0.738,4.87c0.173-1.87,2.95-5.174,3.948-6.217c0.521-0.608,1.518-1.609,2.3-2.391
	c0.564-0.609,1.041-1.087,1.041-1.087c0.304,0.305,0.607,0.609,0.867,0.87c1.258,1.261,2.213,2.261,2.863,3
	c0.651,0.739,1.779,2.13,2.083,2.565c1.345,1.913,1.562,3.217,1.562,3.217C21.581,24.739,18.935,26,16.028,26z M23.447,22.739
	c0.52-2.565-0.347-4.435-1.779-6.782c-1.475-2.348-3.818-4.653-3.818-4.653c2.083-1.957,3.818-2.565,4.165-2.695
	c0.39,0,0.868,0.087,1.215,0.478c0.044,0.044,0.087,0.087,0.13,0.13C25.009,11,26.007,13.391,26.05,16
	C26.05,18.609,25.052,20.957,23.447,22.739z"/>
<circle style="fill:none;stroke:#000000;stroke-width:2;stroke-miterlimit:10;" cx="16" cy="16" r="11"/>
</svg>
