<?xml version="1.0" encoding="iso-8859-1"?>
<!-- Generator: Adobe Illustrator 19.1.1, SVG Export Plug-In . SVG Version: 6.00 Build 0)  -->
<svg version="1.1"  xmlns="http://www.w3.org/2000/svg" xmlns:xlink="http://www.w3.org/1999/xlink" x="0px" y="0px"
	 viewBox="0 0 32 32" style="enable-background:new 0 0 32 32;" xml:space="preserve">
<line style="fill:none;stroke:#000000;stroke-width:2;stroke-linecap:round;stroke-miterlimit:10;" x1="21" y1="22" x2="25" y2="22"/>
<path style="fill:none;stroke:#000000;stroke-width:2;stroke-miterlimit:10;" d="M18,25H6c-1.657,0-3-1.343-3-3l0,0
	c0-1.657,1.343-3,3-3h12c1.657,0,3,1.343,3,3l0,0C21,23.657,19.657,25,18,25z"/>
<path d="M30,26h-6V15h2c0,6.751,3.499,9.039,3.534,9.061L30,24.355V26z M26,24h0.677c-0.223-0.29-0.451-0.619-0.677-0.99V24z"/>
<line style="fill:none;stroke:#000000;stroke-width:2;stroke-miterlimit:10;" x1="19" y1="11" x2="19" y2="14"/>
<path style="fill:none;stroke:#000000;stroke-width:2;stroke-miterlimit:10;" d="M6,14c0,0-2,0.42-2,3c0,1.082,0,3,0,3"/>
<path style="fill:none;stroke:#000000;stroke-width:2;stroke-miterlimit:10;" d="M22,22v-7c0-0.552-0.448-1-1-1h-7"/>
<circle cx="18" cy="22" r="1"/>
<circle cx="6" cy="22" r="1"/>
<circle cx="10" cy="22" r="1"/>
<circle cx="14" cy="22" r="1"/>
<path style="fill:none;stroke:#000000;stroke-width:2;stroke-miterlimit:10;" d="M13,15H7c-0.552,0-1-0.448-1-1V8
	c0-0.552,0.448-1,1-1h6c0.552,0,1,0.448,1,1v6C14,14.552,13.552,15,13,15z"/>
</svg>
