<?xml version="1.0" encoding="iso-8859-1"?>
<!-- Generator: Adobe Illustrator 19.1.1, SVG Export Plug-In . SVG Version: 6.00 Build 0)  -->
<svg version="1.1" id="Layer_1" xmlns="http://www.w3.org/2000/svg" xmlns:xlink="http://www.w3.org/1999/xlink" x="0px" y="0px"
	 viewBox="-8 10 32 32" style="enable-background:new -8 10 32 32;" xml:space="preserve">
<g>
	<circle cx="10" cy="21" r="1"/>
	<circle cx="6" cy="21" r="1"/>
	<path d="M21,28c-1.447,0-3.349-1.673-3.904-3.216c-0.013-0.042-0.031-0.083-0.043-0.125c-0.059-0.189-0.098-0.376-0.111-0.556
		c-0.044-0.34-0.047-0.689-0.005-1.039c0.146-1.218,0.04-2.451-0.317-3.664c-0.322-1.095-0.865-2.09-1.553-2.964l0.021-0.015
		c-0.481-0.677-1.018-1.148-1.543-1.5c-1.138-0.892-2.479-1.529-3.942-1.783c-2.614-0.452-5.253,0.238-7.276,1.884
		c-0.41,0.298-0.82,0.697-1.207,1.196C-0.235,17.828-1,19.861-1,22c0,0.306,0.016,0.607,0.046,0.907
		c0.039,0.381,0.036,0.741,0.003,1.083l-0.019,0l0,0.053C-1.008,25.721-3.319,28-5,28v2c1.007,0,2.062-0.411,3.004-1.063
		C-2.015,32.179-0.382,35.141,2.1,37H-1v2h9h9v-2h-3.014c0.349-0.262,0.688-0.539,1.005-0.85C16.932,34.253,18,31.714,18,29
		c0-0.019-0.003-0.037-0.003-0.056C18.941,29.592,19.994,30,21,30V28z M1.036,22.705C1.012,22.473,1,22.238,1,22
		c0-2.068,0.907-4.018,2.489-5.353C4.279,16.061,4.992,16.002,5,16c0.329,0,1.948,0.102,1.992,1.931
		c0,0.025-0.007,0.044-0.007,0.069H7h1.985H9c0-0.026-0.007-0.045-0.007-0.071c0.043-1.753,1.535-1.922,1.948-1.93
		c0.04,0.002,0.691,0.057,1.432,0.537c1.088,0.871,1.924,2.054,2.329,3.429c0.279,0.951,0.363,1.914,0.249,2.861v0.001
		c-0.045,0.38-0.044,0.759-0.02,1.135H14.93c0,0.054,0.001,0.107,0.004,0.161L15,27c0,2.509-0.828,4.701-2.332,6.172
		c-1.266,1.237-2.949,1.891-4.853,1.826C3.729,34.905,0.927,31.623,1,27.01l0.028-2.703C1.087,23.796,1.093,23.263,1.036,22.705z"/>
	<path d="M11.688,23.726L8,21.882l-3.688,1.844L8,27.414L11.688,23.726z"/>
</g>
</svg>
