<?xml version="1.0" encoding="iso-8859-1"?>
<!-- Generator: Adobe Illustrator 19.1.1, SVG Export Plug-In . SVG Version: 6.00 Build 0)  -->
<svg version="1.1"  xmlns="http://www.w3.org/2000/svg" xmlns:xlink="http://www.w3.org/1999/xlink" x="0px" y="0px"
	 viewBox="0 0 32 32" style="enable-background:new 0 0 32 32;" xml:space="preserve">
<g>
	<circle style="fill:none;stroke:#000000;stroke-width:2;stroke-miterlimit:10;" cx="22" cy="8" r="2"/>
</g>
<path style="fill:none;stroke:#000000;stroke-width:2;stroke-miterlimit:10;" d="M21,13v6"/>
<path style="fill:none;stroke:#000000;stroke-width:2;stroke-miterlimit:10;" d="M28,6l-1,4l-3,3h-4c-0.741,0-3,3-3,3l-1,4"/>
<g>
	<polyline points="25,19 23,19 24.411,22.289 25,27 27,27 26.3,22 	"/>
</g>
<g>
	<polygon points="20,19 22,19 20.589,22.289 20,27 18,27 18.7,22 	"/>
</g>
<circle style="fill:none;stroke:#000000;stroke-width:2;stroke-miterlimit:10;" cx="9" cy="8" r="2"/>
<line style="fill:none;stroke:#000000;stroke-width:2;stroke-miterlimit:10;" x1="24" y1="19" x2="24" y2="13"/>
<polyline style="fill:none;stroke:#000000;stroke-width:2;stroke-miterlimit:10;" points="14,6 14,10 11,13 7,13 4,10 4,6 "/>
<path d="M10,27h2l0.986-4.835c0.045-0.27-0.022-0.546-0.187-0.765l-2.663-3.55l1.792-4.478l-1.857-0.743l-2,5
	C7.942,17.953,7.99,18.321,8.2,18.6l2.743,3.658L10,27z"/>
<path d="M8,27c-0.321-2.423-1-6.85-1-8c0-1.048,1.171-3.98,1.908-5.582l-1.816-0.837C6.878,13.046,5,17.173,5,19
	c0,1.32,0.701,5.857,0.983,8H8z"/>
</svg>
