<?xml version="1.0" encoding="iso-8859-1"?>
<!-- Generator: Adobe Illustrator 19.1.0, SVG Export Plug-In . SVG Version: 6.00 Build 0)  -->
<svg version="1.1" id="Layer_1" xmlns="http://www.w3.org/2000/svg" xmlns:xlink="http://www.w3.org/1999/xlink" x="0px" y="0px"
	 viewBox="0 0 32 32" style="enable-background:new 0 0 32 32;" xml:space="preserve">
<path style="fill:none;stroke:#000000;stroke-width:2;stroke-miterlimit:10;" d="M27,25H5c-1.105,0-2-0.895-2-2V9
	c0-1.105,0.895-2,2-2h22c1.105,0,2,0.895,2,2v14C29,24.105,28.105,25,27,25z"/>
<path d="M17,10c-0.519,0-1.481,0-2,0c3.314,0,5,2.686,5,6s-1.686,6-5,6c0.519,0,1.481,0,2,0c3.314,0,6-2.686,6-6S20.314,10,17,10z"
	/>
<circle style="fill:none;stroke:#000000;stroke-width:2;stroke-miterlimit:10;" cx="15" cy="16" r="5"/>
<g>
	<path d="M14.175,13.651C13.202,13.993,12.5,14.91,12.5,16c0,1.09,0.702,2.007,1.675,2.349V13.651z"/>
	<path d="M15.825,13.651v4.699C16.798,18.007,17.5,17.09,17.5,16C17.5,14.91,16.798,13.993,15.825,13.651z"/>
</g>
</svg>
