<?xml version="1.0" encoding="iso-8859-1"?>
<!-- Generator: Adobe Illustrator 21.0.0, SVG Export Plug-In . SVG Version: 6.00 Build 0)  -->
<svg version="1.1" 
	 xmlns="http://www.w3.org/2000/svg" xmlns:xlink="http://www.w3.org/1999/xlink" x="0px" y="0px" viewBox="0 0 32 32"
	 style="enable-background:new 0 0 32 32;" xml:space="preserve">
<path d="M25,10h-9.586c-0.265,0-0.52-0.105-0.707-0.293l-0.414-0.414C14.105,9.105,13.851,9,13.586,9H7c-1.657,0-3,1.343-3,3v12
	c0,1.657,1.343,3,3,3h4l-2-2H7c-0.551,0-1-0.449-1-1V12c0-0.551,0.449-1,1-1h6.172l0.121,0.121C13.859,11.688,14.613,12,15.414,12
	H25c0.551,0,1,0.449,1,1v6l2,2v-8C28,11.343,26.657,10,25,10z"/>
<polygon points="17.75,20 16.933,21.25 19.937,21.25 20.667,20 "/>
<path d="M22.372,20c-1.888,0-1.901,2.083-1.901,2.083l-0.065,0.846C20.211,24.61,19,24.583,19,24.583h-0.417L18.362,25h1.771
	c0,0,1.485,0,1.667-1.667c0,0,0.104-1.211,0.117-1.25s0.026-1.25,1.25-1.25c0,0,0.402,0.006,0.601,0.085L24,20.625
	C23.102,19.961,22.372,20,22.372,20z"/>
<path d="M16.387,22.084l-1.497,2.29C14.729,24.651,14.929,25,15.25,25h2.499l0.487-0.833h-1.445l0.541-0.833h1.388l0.729-1.25
	H16.387z"/>
<path style="fill:none;stroke:#000000;stroke-width:2;stroke-miterlimit:10;" d="M23.5,18c-0.158,0-0.46,0.046-0.46,0.046
	s-0.217-0.273-0.339-0.382C21.785,16.65,20.474,16,19,16c-2.066,0-3.838,1.253-4.6,3.04C14.271,19.014,14.137,19,14,19
	c-1.105,0-2,0.895-2,2c-1.657,0-3,1.343-3,3s1.343,3,3,3c0,0,10.602,0,11.929,0C26.177,27,28,25.153,28,22.875
	c0-0.065,0-0.311,0-0.375C28,20.015,25.985,18,23.5,18z"/>
<path d="M7,8c0-0.551,0.449-1,1-1h9.586c0.801,0,1.555-0.312,2.121-0.879L19.828,6H24c0.551,0,1,0.449,1,1v4h2V7
	c0-1.657-1.343-3-3-3h-4.586c-0.265,0-0.52,0.105-0.707,0.293l-0.414,0.414C18.105,4.895,17.851,5,17.586,5H8C6.343,5,5,6.343,5,8v3
	l2-0.917V8z"/>
</svg>
