<?xml version="1.0" encoding="iso-8859-1"?>
<!-- Generator: Adobe Illustrator 19.1.1, SVG Export Plug-In . SVG Version: 6.00 Build 0)  -->
<svg version="1.1" id="Layer_1" xmlns="http://www.w3.org/2000/svg" xmlns:xlink="http://www.w3.org/1999/xlink" x="0px" y="0px"
	 viewBox="0 0 32 32" style="enable-background:new 0 0 32 32;" xml:space="preserve">
<path style="fill:none;stroke:#000000;stroke-width:2;stroke-miterlimit:10;" d="M16,26L16,26c6.075,0,11-4.925,11-11V8
	c0-1.105-0.895-2-2-2H7C5.895,6,5,6.895,5,8v7C5,21.075,9.925,26,16,26z"/>
<path d="M22.401,11.994c-0.586-0.586-1.535-0.585-2.12,0l-4.213,4.213L11.72,11.86c-0.586-0.586-1.535-0.586-2.12,0
	c-0.585,0.586-0.586,1.535,0,2.12l5.407,5.407c0.281,0.281,0.663,0.439,1.06,0.439c0.398,0,0.779-0.158,1.06-0.439l5.274-5.274
	C22.986,13.529,22.986,12.58,22.401,11.994z"/>
</svg>
