<?xml version="1.0" encoding="iso-8859-1"?>
<!-- Generator: Adobe Illustrator 19.1.1, SVG Export Plug-In . SVG Version: 6.00 Build 0)  -->
<svg version="1.1" id="Layer_1" xmlns="http://www.w3.org/2000/svg" xmlns:xlink="http://www.w3.org/1999/xlink" x="0px" y="0px"
	 viewBox="0 0 32 32" style="enable-background:new 0 0 32 32;" xml:space="preserve">
<line style="fill:none;stroke:#000000;stroke-width:2;stroke-linecap:round;stroke-linejoin:round;stroke-miterlimit:10;" x1="21.976" y1="12.649" x2="7.312" y2="27.957"/>
<path style="fill:none;stroke:#000000;stroke-width:2;stroke-linecap:round;stroke-linejoin:round;stroke-miterlimit:10;" d="
	M22.019,12.637L17.24,9.738c0,0-8.706-5.282-9.218-5.592C7.51,3.836,7,4.023,7,4.672c0,1.081,0,11.277,0,11.277s0,11.019,0,11.505
	s0.364,0.696,0.809,0.427c0.444-0.27,9.43-5.721,9.43-5.721l4.778-2.899c0,0,4.055-2.459,4.594-2.786
	c0.539-0.327,0.487-0.776,0.032-1.033C26.19,15.185,22.019,12.637,22.019,12.637z"/>
<line style="fill:none;stroke:#000000;stroke-width:2;stroke-linecap:round;stroke-linejoin:round;stroke-miterlimit:10;" x1="21.976" y1="19.234" x2="7.397" y2="4.03"/>
</svg>
