<?xml version="1.0" encoding="iso-8859-1"?>
<!-- Generator: Adobe Illustrator 19.1.1, SVG Export Plug-In . SVG Version: 6.00 Build 0)  -->
<svg version="1.1" id="Layer_1" xmlns="http://www.w3.org/2000/svg" xmlns:xlink="http://www.w3.org/1999/xlink" x="0px" y="0px"
	 viewBox="-8 10 32 32" style="enable-background:new -8 10 32 32;" xml:space="preserve">
<g>
	<path d="M8,13C1.935,13-3,17.935-3,24c0,5.729,4.401,10.448,10,10.955v3.959l1.367-0.539C15.124,35.709,19,30.47,19,24
		C19,17.935,14.065,13,8,13z M9,35.918V33H8c-4.962,0-9-4.037-9-9c0-4.962,4.038-9,9-9c4.963,0,9,4.038,9,9
		C17,29.242,14.174,33.429,9,35.918z"/>
	<path d="M3,24h2c0,1.103-0.897,2-2,2v2c2.206,0,4-1.794,4-4v-4H3V24z"/>
	<path d="M9,24h2c0,1.103-0.897,2-2,2v2c2.206,0,4-1.794,4-4v-4H9V24z"/>
</g>
</svg>
