<?xml version="1.0" encoding="iso-8859-1"?>
<!-- Generator: Adobe Illustrator 18.1.1, SVG Export Plug-In . SVG Version: 6.00 Build 0)  -->
<svg version="1.1" id="Layer_1" xmlns="http://www.w3.org/2000/svg" xmlns:xlink="http://www.w3.org/1999/xlink" x="0px" y="0px"
	 viewBox="0 0 32 32" style="enable-background:new 0 0 32 32;" xml:space="preserve">
<ellipse style="fill:none;stroke:#000000;stroke-width:2;stroke-miterlimit:10;" cx="16" cy="8" rx="8" ry="2"/>
<path style="fill:none;stroke:#000000;stroke-width:2;stroke-miterlimit:10;" d="M8,8c0,0.598,0,3.402,0,4c0,1.105,3.582,2,8,2
	s8-0.895,8-2c0-0.598,0-3.402,0-4"/>
<path style="fill:none;stroke:#000000;stroke-width:2;stroke-miterlimit:10;" d="M20,18c1.657,0,3,1.343,3,3"/>
<path style="fill:none;stroke:#000000;stroke-width:2;stroke-miterlimit:10;" d="M12,18c-1.657,0-3,1.343-3,3"/>
<ellipse transform="matrix(0.7071 -0.7071 0.7071 0.7071 -8.734 23.9142)" style="fill:none;stroke:#000000;stroke-width:2;stroke-miterlimit:10;" cx="24.5" cy="22.5" rx="4.548" ry="1.949"/>
<ellipse transform="matrix(0.7071 0.7071 -0.7071 0.7071 18.1066 1.2868)" style="fill:none;stroke:#000000;stroke-width:2;stroke-miterlimit:10;" cx="7.5" cy="22.5" rx="4.548" ry="1.949"/>
<polyline style="fill:none;stroke:#000000;stroke-width:2;stroke-miterlimit:10;" points="14,14 14,20 18,20 18,14 "/>
</svg>
