<?xml version="1.0" encoding="iso-8859-1"?>
<!-- Generator: Adobe Illustrator 19.1.0, SVG Export Plug-In . SVG Version: 6.00 Build 0)  -->
<svg version="1.1" id="Layer_1" xmlns="http://www.w3.org/2000/svg" xmlns:xlink="http://www.w3.org/1999/xlink" x="0px" y="0px"
	 viewBox="0 0 32 32" style="enable-background:new 0 0 32 32;" xml:space="preserve">
<rect x="5" y="7" style="fill:none;stroke:#000000;stroke-width:2;stroke-miterlimit:10;" width="22" height="18"/>
<path id="XMLID_161_" style="fill:none;stroke:#000000;stroke-width:2;stroke-miterlimit:10;" d="M16,14.408L16,14.408
	C16,13.756,15.53,13,14.5,13c-0.828,0-1.5,0.672-1.5,1.5v0c0,0.828,0.672,1.5,1.5,1.5h0c0.828,0,1.5,0.672,1.5,1.5v0
	c0,0.828-0.576,1.5-1.5,1.5c-1.104,0-1.5-0.572-1.5-1.381l0,0"/>
<path style="fill:none;stroke:#000000;stroke-width:2;stroke-miterlimit:10;" d="M20.5,13L20.5,13c-0.828,0-1.5,0.672-1.5,1.5v3
	c0,0.828,0.672,1.5,1.5,1.5h0c0.828,0,1.5-0.672,1.5-1.5v-3C22,13.672,21.328,13,20.5,13z"/>
<line id="XMLID_251_" style="fill:none;stroke:#000000;stroke-width:2;stroke-miterlimit:10;" x1="10" y1="12" x2="10" y2="20"/>
</svg>
