<?xml version="1.0" encoding="iso-8859-1"?>
<!-- Generator: Adobe Illustrator 19.1.1, SVG Export Plug-In . SVG Version: 6.00 Build 0)  -->
<svg version="1.1" id="Layer_1" xmlns="http://www.w3.org/2000/svg" xmlns:xlink="http://www.w3.org/1999/xlink" x="0px" y="0px"
	 viewBox="0 0 32 32" style="enable-background:new 0 0 32 32;" xml:space="preserve">
<circle style="fill:none;stroke:#000000;stroke-width:2;stroke-miterlimit:10;" cx="22.5" cy="7.5" r="2.5"/>
<path style="fill:none;stroke:#000000;stroke-width:2;stroke-miterlimit:10;" d="M24,28v-6.369l2-1V16c0-1.657-1.343-3-3-3h-1.146"
	/>
<rect x="20" y="21" width="2" height="7"/>
<circle style="fill:none;stroke:#000000;stroke-width:2;stroke-miterlimit:10;" cx="9.5" cy="7.5" r="2.5"/>
<path d="M9,28H7v-5.751l-2-1V16c0-2.206,1.794-4,4-4h1.146c1.525,0,2.896,0.847,3.578,2.211l1.07,2.141l2.914,2.315l-1.43,1.391
	l-3.072-2.41l-1.271-2.542C11.594,14.423,10.908,14,10.146,14H9c-1.103,0-2,0.897-2,2v4.013l2,1V28z"/>
<rect x="10" y="21" width="2" height="7"/>
<g>
	<path d="M18.276,14.211l-1.067,2.135l-0.406,0.311l1.327,1.041l0.298,0.234l0.363-0.278l1.274-2.548
		C20.406,14.423,21.092,14,21.854,14v-2C20.329,12,18.958,12.847,18.276,14.211z"/>
</g>
</svg>
