<?xml version="1.0" encoding="iso-8859-1"?>
<!-- Generator: Adobe Illustrator 19.1.1, SVG Export Plug-In . SVG Version: 6.00 Build 0)  -->
<svg version="1.1" id="Layer_1" xmlns="http://www.w3.org/2000/svg" xmlns:xlink="http://www.w3.org/1999/xlink" x="0px" y="0px"
	 viewBox="0 0 32 32" style="enable-background:new 0 0 32 32;" xml:space="preserve">
<path style="fill:none;stroke:#000000;stroke-width:2;stroke-miterlimit:10;" d="M4,28C17.333,28,21,9,21,9"/>
<path style="fill:none;stroke:#000000;stroke-width:2;stroke-linejoin:bevel;stroke-miterlimit:10;" d="M24.07,9.163
	C24.641,8.617,25,7.852,25,7c0-1.657-1.343-3-3-3c-1.512,0-2.751,1.123-2.957,2.578C18.443,6.219,17.75,6,17,6c-2.209,0-4,1.791-4,4
	c0,1.226,0.564,2.31,1.432,3.044C14.29,13.023,14.148,13,14,13c-1.657,0-3,1.343-3,3c0,0.923,0.345,1.866,1,2.417
	c-1.083,0.333-2,1.708-2,3.083c0,1.381,1.119,2.5,2.5,2.5c0.566,0,1.082-0.195,1.501-0.512c0,0.004-0.001,0.008-0.001,0.012
	c0,1.381,1.119,2.5,2.5,2.5s2.5-1.119,2.5-2.5c0-0.548-0.102-1.209-0.306-1.811C19.09,21.882,19.53,22,20,22c1.657,0,3-1.343,3-3
	c0-0.817-0.329-1.557-0.859-2.098C22.418,16.963,22.704,17,23,17c2.209,0,4-1.791,4-4C27,11.164,25.756,9.634,24.07,9.163z"/>
</svg>
