<?xml version="1.0" encoding="utf-8"?>
<!-- Generator: Adobe Illustrator 18.1.1, SVG Export Plug-In . SVG Version: 6.00 Build 0)  -->
<svg version="1.1" id="Layer_1" xmlns="http://www.w3.org/2000/svg" xmlns:xlink="http://www.w3.org/1999/xlink" x="0px" y="0px"
	 viewBox="0 0 32 32" enable-background="new 0 0 32 32" xml:space="preserve">
<path fill="none" stroke="#000000" stroke-width="2" stroke-miterlimit="10" d="M14.1,4.1c-4.9,0.8-8.9,4.7-9.9,9.6
	c-0.3,1.4-0.3,2.7-0.1,4c0.2,1.6,2.2,2.3,3.4,1.1l0,0c1.6-1.6,4.1-1.6,5.7,0l0,0c1.6,1.6,1.6,4.1,0,5.7l0,0
	c-1.2,1.2-0.5,3.2,1.1,3.4c1.3,0.2,2.6,0.2,4-0.1c4.9-0.9,8.8-5,9.6-9.9C29.1,9.8,22.2,2.9,14.1,4.1z"/>
<circle cx="9" cy="13" r="2"/>
<circle cx="14" cy="9" r="2"/>
<circle cx="23" cy="18" r="2"/>
<circle cx="21" cy="11" r="2"/>
<circle cx="19" cy="23" r="2"/>
</svg>
