<?xml version="1.0" encoding="iso-8859-1"?>
<!-- Generator: Adobe Illustrator 19.1.1, SVG Export Plug-In . SVG Version: 6.00 Build 0)  -->
<svg version="1.1" id="Layer_1" xmlns="http://www.w3.org/2000/svg" xmlns:xlink="http://www.w3.org/1999/xlink" x="0px" y="0px"
	 viewBox="0 0 32 32" style="enable-background:new 0 0 32 32;" xml:space="preserve">
<circle cx="14" cy="19" r="1"/>
<circle cx="19.5" cy="18.5" r="1.5"/>
<path style="fill:none;stroke:#000000;stroke-width:2;stroke-miterlimit:10;" d="M8,17V9c0-2.209,1.791-4,4-4h10
	c2.209,0,4,1.791,4,4v8"/>
<line style="fill:none;stroke:#000000;stroke-width:2;stroke-miterlimit:10;" x1="3" y1="15" x2="9" y2="15"/>
<line style="fill:none;stroke:#000000;stroke-width:2;stroke-miterlimit:10;" x1="5" y1="13" x2="5" y2="24"/>
<circle cx="5" cy="24" r="2"/>
<circle cx="14" cy="19" r="1"/>
<path style="fill:none;stroke:#000000;stroke-width:2;stroke-miterlimit:10;" d="M20.077,26L26,26c0-4.24,0.083-7.5-1-9
	c0-6.511-3.003-7-4.875-7L19,8C14.259,8,9,9.053,9,17c-0.917,0.958-1,6.125-1,9l6.025,0"/>
<path style="fill:none;stroke:#000000;stroke-width:2;stroke-miterlimit:10;" d="M20,12c0,5.409-10,1.091-10,6c0,3.909,2.855,9,7,9
	s7-5.071,7-9"/>
</svg>
