<?xml version="1.0" encoding="iso-8859-1"?>
<!-- Generator: Adobe Illustrator 21.0.2, SVG Export Plug-In . SVG Version: 6.00 Build 0)  -->
<svg version="1.1" id="Layer_1" xmlns="http://www.w3.org/2000/svg" xmlns:xlink="http://www.w3.org/1999/xlink" x="0px" y="0px"
	 viewBox="0 0 32 32" style="enable-background:new 0 0 32 32;" xml:space="preserve">
<g>
	<path style="fill:none;stroke:#000000;stroke-width:2;stroke-miterlimit:10;" d="M25,21H7c-2.75,0-5-2.25-5-5v0c0-2.75,2.25-5,5-5
		h18c2.75,0,5,2.25,5,5v0C30,18.75,27.75,21,25,21z"/>
	<rect x="12" y="16" width="2" height="2"/>
	<rect x="15" y="16" width="2" height="2"/>
	<rect x="18" y="16" width="2" height="2"/>
	<rect x="21" y="16" width="2" height="2"/>
	<rect x="6" y="16" width="2" height="2"/>
	<rect x="9" y="16" width="2" height="2"/>
	<rect x="12" y="14" width="2" height="2"/>
	<rect x="15" y="14" width="2" height="2"/>
	<rect x="18" y="14" width="2" height="2"/>
	<rect x="21" y="14" width="2" height="2"/>
	<rect x="24" y="16" width="2" height="2"/>
	<rect x="24" y="14" width="2" height="2"/>
	<rect x="6" y="14" width="2" height="2"/>
	<rect x="9" y="14" width="2" height="2"/>
	<line style="fill:none;stroke:#000000;stroke-width:2;stroke-miterlimit:10;" x1="5" y1="16" x2="27" y2="16"/>
</g>
</svg>
