<?xml version="1.0" encoding="iso-8859-1"?>
<!-- Generator: Adobe Illustrator 19.1.1, SVG Export Plug-In . SVG Version: 6.00 Build 0)  -->
<svg version="1.1" id="Layer_1" xmlns="http://www.w3.org/2000/svg" xmlns:xlink="http://www.w3.org/1999/xlink" x="0px" y="0px"
	 viewBox="0 0 32 32" style="enable-background:new 0 0 32 32;" xml:space="preserve">
<ellipse style="fill:none;stroke:#000000;stroke-width:2;stroke-miterlimit:10;" cx="16" cy="5.5" rx="3" ry="1.5"/>
<path style="fill:none;stroke:#000000;stroke-width:2;stroke-miterlimit:10;" d="M14,10h-2c0,0-1.563-4-5-4s-3,6-3,6
	c0,6.438,3,8,3,17"/>
<path style="fill:none;stroke:#000000;stroke-width:2;stroke-miterlimit:10;" d="M18,10h2c0,0,1.562-4,5-4c3.437,0,3,6,3,6
	c0,6.438-3,8-3,17"/>
<polyline style="fill:none;stroke:#000000;stroke-width:2;stroke-miterlimit:10;" points="11.208,21.333 8,16 12,10 "/>
<polyline style="fill:none;stroke:#000000;stroke-width:2;stroke-miterlimit:10;" points="20.792,21.333 24,16 20,10 "/>
<polygon points="11,22 21,22 16,25 "/>
<polygon points="12,12 13,16 16,16 "/>
<path d="M13,29c-0.314-1.008-1.144-4.28-1.004-5.915c0.153-1.786,1.697-3.364,1.711-3.378l0.379-0.378L12,12v6.706
	c-0.607,0.726-1.835,2.326-1.996,4.208c-0.173,2.013,0.671,5.12,0.952,6.085H13z"/>
<polygon points="20,12 19,16 16,16 "/>
<path d="M19,29c0.314-1.008,1.144-4.28,1.004-5.915c-0.153-1.786-1.697-3.364-1.711-3.378l-0.379-0.378L20,12v6.706
	c0.607,0.726,1.835,2.326,1.996,4.208c0.173,2.013-0.671,5.12-0.952,6.085H19z"/>
</svg>
