<?xml version="1.0" encoding="iso-8859-1"?>
<!-- Generator: Adobe Illustrator 19.1.1, SVG Export Plug-In . SVG Version: 6.00 Build 0)  -->
<svg version="1.1" id="Layer_1" xmlns="http://www.w3.org/2000/svg" xmlns:xlink="http://www.w3.org/1999/xlink" x="0px" y="0px"
	 viewBox="0 0 32 32" style="enable-background:new 0 0 32 32;" xml:space="preserve">
<path d="M25.643,15.937c-0.567,0.131-1.115,0.188-1.608,0.188c-2.776,0-4.913-1.939-4.913-5.309c0-1.652,0.639-2.511,1.542-2.511
	c0.859,0,1.432,0.771,1.432,2.335c0,0.889-0.238,1.864-0.414,2.441c0,0,0.855,1.492,3.194,1.034
	c0.497-1.103,0.767-2.531,0.767-3.783C25.643,6.961,23.925,5,20.775,5c-3.238,0-5.133,2.489-5.133,5.772
	c0,3.252,1.52,6.043,4.027,7.315c-1.054,2.109-2.395,3.966-3.794,5.365c-2.538-3.068-4.832-7.161-5.774-15.148H6.357
	c1.73,13.302,6.885,17.538,8.248,18.351c0.771,0.463,1.435,0.441,2.14,0.044c1.107-0.629,4.43-3.952,6.272-7.844
	c0.773-0.002,1.702-0.091,2.627-0.3V15.937z"/>
</svg>
