<?xml version="1.0" encoding="iso-8859-1"?>
<!-- Generator: Adobe Illustrator 19.1.0, SVG Export Plug-In . SVG Version: 6.00 Build 0)  -->
<svg version="1.1" id="Layer_1" xmlns="http://www.w3.org/2000/svg" xmlns:xlink="http://www.w3.org/1999/xlink" x="0px" y="0px"
	 viewBox="0 0 32 32" style="enable-background:new 0 0 32 32;" xml:space="preserve">
<path d="M24.41,4.101c-0.252,0.092-2.258,1.405-4.188,3.788c-2.388,2.947-3.17,6.549-4.477,7.856
	c-1.307,1.307-4.909,2.09-7.856,4.477c-2.383,1.93-3.696,3.936-3.788,4.188c-0.092,0.252-0.263,0.609,0.27,1.142
	c1.026,1.026,8.765,4.275,11.974,1.066c3.693-3.693-0.914-7.912,0.724-9.55s5.857,2.969,9.55-0.724
	c3.209-3.209-0.04-10.948-1.066-11.974C25.019,3.838,24.662,4.009,24.41,4.101z M15.292,25.516
	c-1.905,1.905-5.407,0.117-6.347-0.822c-0.539-0.539-1.71-2.068,0.206-3.639c1.916-1.572,4.346-2.478,5.772-1.052
	C15.582,20.661,17.197,23.61,15.292,25.516z M25.516,15.292c-1.905,1.905-4.855,0.29-5.514-0.369
	c-1.426-1.426-0.519-3.855,1.052-5.772c1.572-1.916,3.1-0.746,3.639-0.206C25.633,9.884,27.421,13.387,25.516,15.292z"/>
</svg>
