<?xml version="1.0" encoding="iso-8859-1"?>
<!-- Generator: Adobe Illustrator 21.0.2, SVG Export Plug-In . SVG Version: 6.00 Build 0)  -->
<svg version="1.1"  xmlns="http://www.w3.org/2000/svg" xmlns:xlink="http://www.w3.org/1999/xlink" x="0px" y="0px"
	 viewBox="0 0 32 32" style="enable-background:new 0 0 32 32;" xml:space="preserve">
<path style="fill-rule:evenodd;clip-rule:evenodd;fill:none;stroke:#000000;stroke-width:2;stroke-miterlimit:10;" d="M9.082,6
	h13.836C24.62,6,26,7.38,26,9.082v13.836C26,24.62,24.62,26,22.918,26H9.082C7.38,26,6,24.62,6,22.918V9.082C6,7.38,7.38,6,9.082,6"
	/>
<path style="fill-rule:evenodd;clip-rule:evenodd;" d="M15.832,20.001h0.818c0,0,0.247-0.027,0.373-0.163
	c0.116-0.125,0.112-0.359,0.112-0.359s-0.016-1.098,0.493-1.259c0.502-0.159,1.147,1.061,1.831,1.53
	c0.517,0.355,0.91,0.277,0.91,0.277l1.828-0.026c0,0,0.956-0.059,0.503-0.811c-0.037-0.061-0.264-0.556-1.359-1.572
	c-1.146-1.064-0.993-0.892,0.388-2.732c0.841-1.121,1.177-1.805,1.072-2.098c-0.1-0.279-0.719-0.205-0.719-0.205l-2.058,0.013
	c0,0-0.153-0.021-0.266,0.047c-0.111,0.066-0.182,0.221-0.182,0.221s-0.326,0.867-0.76,1.605c-0.916,1.556-1.283,1.638-1.433,1.542
	c-0.349-0.225-0.261-0.905-0.261-1.387c0-1.508,0.229-2.137-0.445-2.3c-0.224-0.054-0.388-0.09-0.961-0.096
	c-0.734-0.007-1.356,0.002-1.708,0.175c-0.234,0.115-0.415,0.37-0.305,0.385c0.136,0.018,0.444,0.083,0.607,0.305
	c0.211,0.287,0.204,0.931,0.204,0.931s0.121,1.775-0.283,1.996c-0.277,0.151-0.658-0.158-1.475-1.569
	c-0.419-0.723-0.735-1.523-0.735-1.523s-0.061-0.149-0.17-0.229c-0.132-0.097-0.316-0.128-0.316-0.128l-1.956,0.013
	c0,0-0.294,0.008-0.401,0.136c-0.096,0.114-0.008,0.348-0.008,0.348s1.531,3.582,3.265,5.387
	C14.027,20.109,15.832,20.001,15.832,20.001"/>
</svg>
