<?xml version="1.0" encoding="iso-8859-1"?>
<!-- Generator: Adobe Illustrator 19.1.1, SVG Export Plug-In . SVG Version: 6.00 Build 0)  -->
<svg version="1.1" id="Layer_1" xmlns="http://www.w3.org/2000/svg" xmlns:xlink="http://www.w3.org/1999/xlink" x="0px" y="0px"
	 viewBox="0 0 32 32" style="enable-background:new 0 0 32 32;" xml:space="preserve">
<path d="M7.857,20.941c-0.298-0.01-0.561-0.188-0.717-0.484c-0.113-0.215-0.19-0.573-0.239-1.005
	c-0.135-1.305,0.03-3.272,0.419-3.898c0.183-0.288,0.452-0.439,0.748-0.428c0.196,0.002,0.369,0.066,4.241,1.663
	c0.003,0,1.132,0.46,1.132,0.46c0.407,0.152,0.658,0.577,0.632,1.058c-0.028,0.469-0.297,0.836-0.696,0.937
	c-0.007,0.004-1.609,0.515-1.609,0.515C8.168,20.917,8.049,20.95,7.857,20.941z"/>
<path d="M16.063,23.362c-0.011,3.785-0.018,3.909-0.08,4.092c-0.106,0.281-0.348,0.469-0.683,0.53
	c-0.962,0.165-3.979-0.946-4.608-1.693c-0.128-0.154-0.203-0.322-0.219-0.492c-0.013-0.118,0.003-0.236,0.044-0.347
	c0.065-0.189,0.178-0.336,2.892-3.521c0.002,0,0.791-0.937,0.791-0.937c0.27-0.338,0.752-0.444,1.199-0.272
	c0.435,0.168,0.7,0.541,0.674,0.95C16.072,21.69,16.063,23.362,16.063,23.362z"/>
<path d="M15.411,15.447c-0.195,0.061-0.791,0.245-1.524-0.941c0,0-4.946-7.782-5.063-8.021C8.754,6.214,8.842,5.909,9.08,5.661
	c0.739-0.763,4.732-1.883,5.776-1.623c0.342,0.085,0.577,0.301,0.66,0.604c0.058,0.335,0.545,7.556,0.616,9.177
	C16.199,15.204,15.606,15.387,15.411,15.447z"/>
<path d="M17.923,16.998c-0.254-0.389-0.251-0.845,0.01-1.161c0.012-0.012,1.002-1.362,1.002-1.362
	c2.19-2.995,2.307-3.151,2.465-3.254c0.254-0.171,0.561-0.182,0.868-0.033c0.869,0.423,2.629,3.038,2.734,4.041
	c0.002,0.012,0,0.024,0,0.035c0.021,0.341-0.104,0.619-0.35,0.786c-0.162,0.105-0.319,0.158-4.412,1.149
	c-0.656,0.156-1.018,0.245-1.221,0.32c0.005-0.006,0.022-0.034,0.022-0.034C18.634,17.599,18.187,17.402,17.923,16.998z"/>
<path d="M25.134,22.279c-0.141,0.971-2.125,3.494-3.036,3.858c-0.314,0.125-0.616,0.095-0.854-0.092
	c-0.155-0.121-0.317-0.365-2.455-3.838l-0.636-1.034c-0.243-0.371-0.198-0.86,0.107-1.232c0.294-0.362,0.731-0.499,1.112-0.352
	c0.02,0.011,1.601,0.532,1.601,0.532c3.599,1.183,3.716,1.227,3.87,1.342C25.076,21.649,25.181,21.94,25.134,22.279z"/>
</svg>
