<?xml version="1.0" encoding="iso-8859-1"?>
<!-- Generator: Adobe Illustrator 19.1.0, SVG Export Plug-In . SVG Version: 6.00 Build 0)  -->
<svg version="1.1" id="Layer_1" xmlns="http://www.w3.org/2000/svg" xmlns:xlink="http://www.w3.org/1999/xlink" x="0px" y="0px"
	 viewBox="0 0 32 32" style="enable-background:new 0 0 32 32;" xml:space="preserve">
<path style="fill:none;stroke:#000000;stroke-width:2;stroke-linejoin:round;stroke-miterlimit:10;" d="M14.769,6.342L16.19,4.92
	c0.75-0.75,1.965-0.75,2.715,0l0,0c0.75,0.75,0.75,1.965,0,2.715l-1.763,1.763"/>
<path style="fill:none;stroke:#000000;stroke-width:2;stroke-linejoin:round;stroke-miterlimit:10;" d="M18.794,7.747l0.564-0.564
	c0.75-0.75,1.965-0.75,2.715,0l0,0c0.75,0.75,0.75,1.965,0,2.715l-3.168,3.168"/>
<path style="fill:none;stroke:#000000;stroke-width:2;stroke-linejoin:round;stroke-miterlimit:10;" d="M18.906,15.781
	L18.906,15.781c-0.75-0.75-0.75-1.965,0-2.715l2.715-2.715c0.75-0.75,1.965-0.75,2.715,0l0,0c0.75,0.75,0.75,1.965,0,2.715
	l-2.715,2.715C20.871,16.531,19.655,16.531,18.906,15.781z"/>
<path style="fill:none;stroke:#000000;stroke-width:2;stroke-linejoin:round;stroke-miterlimit:10;" d="M21.168,18.949
	L21.168,18.949c-0.75-0.75-0.75-1.965,0-2.715l2.263-2.263c0.75-0.75,1.965-0.75,2.715,0l0,0c0.75,0.75,0.75,1.965,0,2.715
	l-2.263,2.263C23.134,19.699,21.918,19.699,21.168,18.949z"/>
<path style="fill:none;stroke:#000000;stroke-width:2;stroke-linejoin:round;stroke-miterlimit:10;" d="M25.694,17.139
	c0,0,0.217,1.593-1.172,2.983c-1.106,1.106-4.19,4.19-4.19,4.19c-1.42,1.42-3.538,1.879-5.418,1.174l-2.58-0.968"/>
<path style="fill:none;stroke:#000000;stroke-width:2;stroke-miterlimit:10;" d="M2.56,21.266l3.3-3.3l0.332-7.434
	c0.055-1.231,0.856-2.303,2.021-2.703l4.554-1.566c1.097-0.329,2.28,0.093,2.921,1.041l2.7,3.999
	c0.505,0.747,0.321,1.76-0.414,2.283l0,0c-0.706,0.502-1.679,0.378-2.235-0.286l-1.816-2.164l-1.713,0.317
	c0,0,3.585,4.79,2.76,7.772"/>
<line style="fill:none;stroke:#000000;stroke-width:2;stroke-linejoin:round;stroke-miterlimit:10;" x1="11.76" y1="29.263" x2="15.255" y2="25.768"/>
<path style="fill:none;stroke:#000000;stroke-width:1.5;stroke-linejoin:round;stroke-miterlimit:10;" d="M28.016,21.363
	c0,0-1.166,2.239-3.038,4.111c-1.872,1.872-4.143,3.006-4.143,3.006"/>
<path style="fill:none;stroke:#000000;stroke-width:1.5;stroke-linejoin:round;stroke-miterlimit:10;" d="M28.58,25.403
	c0,0-0.672,1.077-1.634,2.039s-2.051,1.622-2.051,1.622"/>
<path style="fill:none;stroke:#000000;stroke-width:1.5;stroke-linejoin:round;stroke-miterlimit:10;" d="M3.285,9.515
	c0,0,0.335-1.961,2.15-3.775s3.678-2.122,3.678-2.122"/>
</svg>
