<?xml version="1.0" encoding="UTF-8" standalone="no"?>
<!DOCTYPE svg PUBLIC "-//W3C//DTD SVG 1.1//EN" "http://www.w3.org/Graphics/SVG/1.1/DTD/svg11.dtd">
<svg width="100%" height="100%" viewBox="0 0 542 80" version="1.1" xmlns="http://www.w3.org/2000/svg" xmlns:xlink="http://www.w3.org/1999/xlink" xml:space="preserve" xmlns:serif="http://www.serif.com/" style="fill-rule:evenodd;clip-rule:evenodd;stroke-linejoin:round;stroke-miterlimit:2;">
  <style>
    @keyframes blink {
      0%, 10%, 90%, 100% {
        opacity: 1;
      }
      50%, 60% {
        opacity: 0;
      }
    }
    #backplate {
      fill:#254758;
      fill-rule:nonzero;
    }
    #blinker {
      fill:#ffa000;
      fill-rule:nonzero;
      animation: blink 1s ease;
      animation-iteration-count: 4;
    }
    #logotype {
      fill:#00c853;
      fill-rule:nonzero;
    }

    @media (prefers-color-scheme:dark){
      #backplate {
        fill:#224150
      }
      #blinker {
        fill:#ff8f00
      }
      #logotype {
        fill:#00B94A
      }
    }
  </style>
    <g transform="matrix(1,0,0,1,-4640.28,0)">
        <g id="logotype" transform="matrix(0.339682,0,0,0.0807867,3071.12,0)">
            <rect x="4619.47" y="0" width="1595.61" height="990.262" style="fill:none;"/>
            <clipPath id="_clip1">
                <rect x="4619.47" y="0" width="1595.61" height="990.262"/>
            </clipPath>
            <g clip-path="url(#_clip1)">
                <g transform="matrix(2.01123,0,0,8.47173,4137.15,-2041.77)">
                    <path
                      id="backplate"
                      d="M1033.16,270.232C1033.16,254.104 1020.04,241.01 1003.88,241.01L269.1,241.01C252.937,241.01 239.815,254.104 239.815,270.232L239.815,328.677C239.815,344.806 252.937,357.9 269.1,357.9L1003.88,357.9C1020.04,357.9 1033.16,344.806 1033.16,328.677L1033.16,270.232Z"/>
                </g>
                <g id="blink" transform="matrix(3.2826,0,0,13.8032,-6963.9,-3487.35)">
                    <path
                      id="blinker"
                      d="M3552.55,291.794L3552.55,304.89L3546,304.89L3546,291.794L3552.55,291.794ZM3552.55,285.245L3546,285.245L3546,272.149L3552.55,272.149L3552.55,285.245Z"/>
                </g>
                <g id="logotype1" serif:id="logotype" transform="matrix(3.2826,0,0,13.8032,-12434.1,-6339.25)">
                    <path
                      id="logotype" d="M5238.56,511.502L5238.56,504.953L5232.01,504.953L5232.01,498.405L5225.46,498.405L5225.46,491.857L5232.01,491.857L5232.01,485.308L5238.56,485.308L5238.56,478.76L5245.11,478.76L5245.11,485.308L5238.56,485.308L5238.56,491.857L5232.01,491.857L5232.01,498.405L5238.56,498.405L5238.56,504.953L5245.11,504.953L5245.11,511.502L5238.56,511.502ZM5644.1,511.502L5644.1,504.953L5650.64,504.953L5650.64,498.405L5657.19,498.405L5657.19,491.857L5650.64,491.857L5650.64,485.308L5644.1,485.308L5644.1,478.76L5650.64,478.76L5650.64,485.308L5657.19,485.308L5657.19,491.857L5663.74,491.857L5663.74,498.405L5657.19,498.405L5657.19,504.953L5650.64,504.953L5650.64,511.502L5644.1,511.502ZM5284.4,485.308L5284.4,504.953L5277.85,504.953L5277.85,511.502L5258.21,511.502L5258.21,504.953L5251.66,504.953L5251.66,485.308L5258.21,485.308L5258.21,478.76L5277.85,478.76M5277.85,485.308L5258.21,485.308L5258.21,504.953L5277.85,504.953L5277.85,485.308ZM5290.9,511.502L5290.9,478.76L5297.44,478.76L5297.44,485.308L5303.99,485.308L5303.99,491.857L5310.54,491.857L5310.54,485.308L5317.09,485.308L5317.09,478.76L5323.64,478.76L5323.64,511.502L5317.09,511.502L5317.09,491.857L5310.54,491.857L5310.54,498.405L5303.99,498.405L5303.99,491.857L5297.44,491.857L5297.44,511.502L5290.9,511.502ZM5362.88,485.308L5362.88,491.857L5356.33,491.857L5356.33,498.405L5336.68,498.405L5336.68,511.502L5330.14,511.502L5330.14,478.76L5356.33,478.76M5356.33,491.857L5356.33,485.308L5336.68,485.308L5336.68,491.857L5356.33,491.857ZM5369.37,511.502L5369.37,478.76L5402.11,478.76L5402.11,485.308L5375.92,485.308L5375.92,491.857L5389.02,491.857L5389.02,498.405L5375.92,498.405L5375.92,504.953L5402.11,504.953L5402.11,511.502L5369.37,511.502ZM5428.26,498.405L5434.81,498.405L5434.81,478.76L5441.35,478.76L5441.35,511.502L5434.81,511.502L5434.81,504.953L5428.26,504.953L5428.26,498.405L5421.71,498.405L5421.71,491.857L5428.26,491.857L5428.26,498.405ZM5415.16,485.308L5421.71,485.308L5421.71,491.857L5415.16,491.857L5415.16,511.502L5408.61,511.502L5408.61,478.76L5415.16,478.76L5415.16,485.308ZM5480.59,485.308L5480.59,504.953L5474.04,504.953L5474.04,511.502L5447.85,511.502L5447.85,478.76L5474.04,478.76M5474.04,504.953L5474.04,485.308L5454.4,485.308L5454.4,504.953L5474.04,504.953ZM5487.09,511.502L5487.09,504.953L5500.19,504.953L5500.19,485.308L5487.09,485.308L5487.09,478.76L5519.83,478.76L5519.83,485.308L5506.73,485.308L5506.73,504.953L5519.83,504.953L5519.83,511.502L5487.09,511.502ZM5532.88,511.502L5532.88,504.953L5526.33,504.953L5526.33,478.76L5532.88,478.76L5532.88,504.953L5552.52,504.953L5552.52,478.76L5559.07,478.76L5559.07,504.953L5552.52,504.953L5552.52,511.502L5532.88,511.502ZM5565.57,511.502L5565.57,478.76L5572.12,478.76L5572.12,485.308L5578.66,485.308L5578.66,491.857L5585.21,491.857L5585.21,485.308L5591.76,485.308L5591.76,478.76L5598.31,478.76L5598.31,511.502L5591.76,511.502L5591.76,491.857L5585.21,491.857L5585.21,498.405L5578.66,498.405L5578.66,491.857L5572.12,491.857L5572.12,511.502L5565.57,511.502ZM5604.81,511.502L5604.81,504.953L5611.35,504.953L5611.35,498.405L5617.9,498.405L5617.9,491.857L5624.45,491.857L5624.45,485.308L5631,485.308L5631,478.76L5637.55,478.76L5637.55,485.308L5631,485.308L5631,491.857L5624.45,491.857L5624.45,498.405L5617.9,498.405L5617.9,504.953L5611.35,504.953L5611.35,511.502L5604.81,511.502Z"/>
                </g>
            </g>
        </g>
    </g>
</svg>
