<?xml version="1.0" encoding="iso-8859-1"?>
<!-- Generator: Adobe Illustrator 19.1.1, SVG Export Plug-In . SVG Version: 6.00 Build 0)  -->
<svg version="1.1" xmlns="http://www.w3.org/2000/svg" xmlns:xlink="http://www.w3.org/1999/xlink" x="0px" y="0px"
	 viewBox="0 0 32 32" style="enable-background:new 0 0 32 32;" xml:space="preserve">
<g id="Layer_1">
	<line style="fill:none;stroke:#000000;stroke-width:2;stroke-miterlimit:10;" x1="21.787" y1="23.424" x2="23.976" y2="28.587"/>
	<line style="fill:none;stroke:#000000;stroke-width:2;stroke-miterlimit:10;" x1="10.213" y1="23.424" x2="7.899" y2="28.587"/>
	<path style="fill:none;stroke:#000000;stroke-width:2;stroke-miterlimit:10;" d="M24,11c0-4.08-3.752-7-8-7l0,0
		c-4.248,0-8,2.92-8,7"/>
	<line style="fill:none;stroke:#000000;stroke-width:2;stroke-miterlimit:10;" x1="4" y1="14" x2="8" y2="14"/>
	<line style="fill:none;stroke:#000000;stroke-width:2;stroke-miterlimit:10;" x1="24" y1="14" x2="28" y2="14"/>
	<path style="fill:none;stroke:#000000;stroke-width:2;stroke-miterlimit:10;" d="M16,8c-4.248,0-8,1.117-8,3s3.752,3,8,3
		s8-1.117,8-3S20.248,8,16,8L16,8z"/>
	<path style="fill:none;stroke:#000000;stroke-width:2;stroke-miterlimit:10;" d="M8,14c0,2.197,0.633,12,8,12s8-9.803,8-12H8z"/>
</g>
<g id="Layer_2">
</g>
</svg>
