<?xml version="1.0" encoding="iso-8859-1"?>
<!-- Generator: Adobe Illustrator 19.0.1, SVG Export Plug-In . SVG Version: 6.00 Build 0)  -->
<svg version="1.1" id="Layer_1" xmlns="http://www.w3.org/2000/svg" xmlns:xlink="http://www.w3.org/1999/xlink" x="0px" y="0px"
	 viewBox="0 0 32 32" style="enable-background:new 0 0 32 32;" xml:space="preserve">
<polyline style="fill:none;stroke:#000000;stroke-width:2;stroke-miterlimit:10;" points="5,20.5 5,27 27,27 27,20.5 "/>
<rect x="14" y="11" style="fill:none;stroke:#000000;stroke-width:2;stroke-miterlimit:10;" width="4" height="4"/>
<path style="fill:none;stroke:#000000;stroke-width:2;stroke-miterlimit:10;" d="M18,7c0-1.1-2-4-2-4s-2,2.9-2,4s0.9,2,2,2
	S18,8.1,18,7z"/>
<path style="fill:none;stroke:#000000;stroke-width:2;stroke-miterlimit:10;" d="M22,18c0,1.7,1.3,3,3,3s3-1.3,3-3s-1.3-3-3-3H7
	c-1.7,0-3,1.3-3,3s1.3,3,3,3s3-1.3,3-3"/>
<path style="fill:none;stroke:#000000;stroke-width:2;stroke-miterlimit:10;" d="M16,18c0,1.7,1.3,3,3,3s3-1.3,3-3"/>
<path style="fill:none;stroke:#000000;stroke-width:2;stroke-miterlimit:10;" d="M10,18c0,1.7,1.3,3,3,3s3-1.3,3-3"/>
</svg>
