<?xml version="1.0" encoding="iso-8859-1"?>
<!-- Generator: Adobe Illustrator 19.1.0, SVG Export Plug-In . SVG Version: 6.00 Build 0)  -->
<svg version="1.1" id="Layer_1" xmlns="http://www.w3.org/2000/svg" xmlns:xlink="http://www.w3.org/1999/xlink" x="0px" y="0px"
	 viewBox="0 0 32 32" style="enable-background:new 0 0 32 32;" xml:space="preserve">
<circle style="fill:none;stroke:#000000;stroke-width:2;stroke-linecap:round;stroke-linejoin:round;stroke-miterlimit:10;" cx="16" cy="16" r="8"/>
<path style="fill:none;stroke:#000000;stroke-width:2;stroke-linecap:round;stroke-miterlimit:10;" d="M15.001,8.864
	c0,0-1.783,4.903,2.993,6.304c0.637,3.057,3.825,4.259,4.903,4.139"/>
<path style="fill:none;stroke:#000000;stroke-width:2;stroke-miterlimit:10;" d="M8.63,19.066c0.096,0.335,3.059,2.471,5.352-1.095
	c3.12,1.274,4.776-1.21,4.776-1.21"/>
<path style="fill:none;stroke:#000000;stroke-width:2;stroke-linecap:round;stroke-miterlimit:10;" d="M12.931,8.577
	C13.501,7.191,14.751,5,17.626,5c3.487,0,4.739,2.313,4.739,2.313s2.387,0.022,3.84,2.426c1.684,2.789,0.337,5.999-2.142,7.072"/>
<path style="fill:none;stroke:#000000;stroke-width:2;stroke-linecap:round;stroke-miterlimit:10;" d="M14.045,6.477
	c0,0-5.45-1.16-8.277,3.971c-1.881,3.415,0.045,7.233,0.045,7.233s-0.787,3.654,1.597,5.912c2.29,2.169,6.502,1.238,7.777,0.466"/>
<path style="fill:none;stroke:#000000;stroke-width:2;stroke-linecap:round;stroke-miterlimit:10;" d="M26.048,16.38
	c0,0,1.872,2.445,0.188,5.476c-1.501,2.702-4.661,2.922-4.661,2.922S19.722,27,16.748,27c-2.954,0-4.496-1.746-4.496-1.746"/>
</svg>
