<?xml version="1.0" encoding="iso-8859-1"?>
<!-- Generator: Adobe Illustrator 19.1.1, SVG Export Plug-In . SVG Version: 6.00 Build 0)  -->
<svg version="1.1" id="Layer_1" xmlns="http://www.w3.org/2000/svg" xmlns:xlink="http://www.w3.org/1999/xlink" x="0px" y="0px"
	 viewBox="0 0 32 32" style="enable-background:new 0 0 32 32;" xml:space="preserve">
<path style="fill:none;stroke:#000000;stroke-width:2;stroke-miterlimit:10;" d="M22,9c3.554,1.62,6,6.187,6,10
	c0,5.723-5.373,9-12,9S4,24.723,4,19c0-3.993,2.168-7.949,6-10"/>
<path style="fill:none;stroke:#000000;stroke-width:2;stroke-miterlimit:10;" d="M10,13c0-3.042-1.091-4.621-1.091-5.909
	C8.909,6.243,9.665,6,10,6c0.667,0,2.414,1,3,1c1.622,0,1.397-3,3-3c1.577,0,1.391,3,3,3c0.83,0,2.273-1,3-1
	c0.557,0,1.091,0.454,1.091,1.091C23.091,7.954,22,9.542,22,13"/>
<path style="fill:none;stroke:#000000;stroke-width:2;stroke-miterlimit:10;" d="M13,10l0,4"/>
<path style="fill:none;stroke:#000000;stroke-width:2;stroke-miterlimit:10;" d="M16,9c0,0,0,3.06,0,4"/>
<path style="fill:none;stroke:#000000;stroke-width:2;stroke-miterlimit:10;" d="M19.027,10L19,14"/>
</svg>
