<?xml version="1.0" encoding="iso-8859-1"?>
<!-- Generator: Adobe Illustrator 19.1.1, SVG Export Plug-In . SVG Version: 6.00 Build 0)  -->
<svg version="1.1"  xmlns="http://www.w3.org/2000/svg" xmlns:xlink="http://www.w3.org/1999/xlink" x="0px" y="0px"
	 viewBox="0 0 32 32" style="enable-background:new 0 0 32 32;" xml:space="preserve">
<polygon style="fill:none;stroke:#000000;stroke-width:2;stroke-miterlimit:10;" points="16,3.5 17.108,4.605 18.404,3.773 
	19.276,5.102 20.703,4.581 21.3,6.077 22.797,5.887 23.093,7.485 24.593,7.636 24.576,9.265 26.014,9.75 25.683,11.339 
	26.998,12.137 26.368,13.618 27.5,14.693 26.6,16 27.5,17.307 26.368,18.382 26.998,19.862 25.683,20.661 26.014,22.25 
	24.576,22.735 24.593,24.364 23.093,24.515 22.797,26.112 21.3,25.923 20.703,27.419 19.276,26.898 18.404,28.227 17.108,27.395 
	16,28.5 14.892,27.395 13.596,28.227 12.724,26.898 11.297,27.419 10.7,25.923 9.203,26.112 8.907,24.515 7.407,24.364 
	7.424,22.735 5.986,22.25 6.317,20.661 5.002,19.862 5.632,18.382 4.5,17.307 5.4,16 4.5,14.693 5.632,13.618 5.002,12.137 
	6.317,11.339 5.986,9.75 7.424,9.265 7.407,7.636 8.907,7.485 9.203,5.887 10.7,6.077 11.297,4.581 12.724,5.102 13.596,3.773 
	14.892,4.605 "/>
<ellipse style="fill:none;stroke:#000000;stroke-width:2;stroke-miterlimit:10;" cx="16" cy="16" rx="7.059" ry="8"/>
<path style="fill:none;stroke:#000000;stroke-width:2;stroke-miterlimit:10;" d="M16,8v6c0,1.105-0.895,2-2,2H8.941"/>
<path style="fill:none;stroke:#000000;stroke-width:2;stroke-miterlimit:10;" d="M16,8v6c0,1.105,0.895,2,2,2h5.059"/>
<path style="fill:none;stroke:#000000;stroke-width:2;stroke-miterlimit:10;" d="M16,24v-6c0-1.105,0.895-2,2-2h5.059"/>
<path style="fill:none;stroke:#000000;stroke-width:2;stroke-miterlimit:10;" d="M16,24v-6c0-1.105-0.895-2-2-2H8.941"/>
</svg>
