<?xml version="1.0" encoding="iso-8859-1"?>
<!-- Generator: Adobe Illustrator 19.1.0, SVG Export Plug-In . SVG Version: 6.00 Build 0)  -->
<svg version="1.1" id="Layer_1" xmlns="http://www.w3.org/2000/svg" xmlns:xlink="http://www.w3.org/1999/xlink" x="0px" y="0px"
	 viewBox="0 0 32 32" style="enable-background:new 0 0 32 32;" xml:space="preserve">
<line style="fill:none;stroke:#000000;stroke-width:2;stroke-miterlimit:10;" x1="17.7" y1="7" x2="14.3" y2="7"/>
<path style="fill:none;stroke:#000000;stroke-width:2;stroke-miterlimit:10;" d="M21,15c0,2.2-2.2,4-5,4s-5-1.8-5-4H7l1.456,10.281
	C8.596,26.267,9.44,27,10.437,27h11.212c1.002,0,1.85-0.742,1.982-1.736L25,15H21z"/>
<path d="M11.4,7H13v7.772c0,1.061,1.2,1.829,2,1.929V5H9.2l0.8,8h1.8L11.4,7z"/>
<path d="M20.6,7H19v7.772c0,1.05-1.2,1.829-2,1.929V5h5.8L22,13h-1.8L20.6,7z"/>
<polygon points="8.7,13 8.2,9 11,9 11,7 6,7 6,8 6.9,13 "/>
<polygon points="23.3,13 23.8,9 21,9 21,7 26,7 26,8 25.1,13 "/>
</svg>
