<?xml version="1.0" encoding="iso-8859-1"?>
<!-- Generator: Adobe Illustrator 19.1.1, SVG Export Plug-In . SVG Version: 6.00 Build 0)  -->
<svg version="1.1" xmlns="http://www.w3.org/2000/svg" xmlns:xlink="http://www.w3.org/1999/xlink" x="0px" y="0px"
	 viewBox="0 0 32 32" style="enable-background:new 0 0 32 32;" xml:space="preserve">
<g id="Layer_1">
	<line style="fill:none;stroke:#000000;stroke-width:2;stroke-miterlimit:10;" x1="21" y1="21" x2="25.15" y2="27.499"/>
	<line style="fill:none;stroke:#000000;stroke-width:2;stroke-miterlimit:10;" x1="11" y1="21" x2="6.852" y2="27.362"/>
	<line style="fill:none;stroke:#000000;stroke-width:2;stroke-miterlimit:10;" x1="16" y1="21" x2="16" y2="30"/>
	<path style="fill:none;stroke:#000000;stroke-width:2;stroke-miterlimit:10;" d="M26,12c0,5.523-4.477,10-10,10S6,17.523,6,12H26z"
		/>
	<g>
		<path d="M16,8.24l-0.823,1.191C15.055,9.608,14.929,9.801,14.805,10h2.39c-0.124-0.199-0.25-0.392-0.372-0.568L16,8.24z"/>
		<path d="M12.663,10c0.79-1.555,2.151-3.444,3.337-4.891c1.186,1.447,2.547,3.337,3.337,4.891h2.19
			c-1.206-2.985-4.343-6.607-4.777-7.099L16,2.05l-0.75,0.852C14.817,3.393,11.679,7.015,10.473,10H12.663z"/>
	</g>
</g>
<g id="Layer_2">
</g>
</svg>
