<?xml version="1.0" encoding="iso-8859-1"?>
<!-- Generator: Adobe Illustrator 19.1.0, SVG Export Plug-In . SVG Version: 6.00 Build 0)  -->
<svg version="1.1" id="Layer_1" xmlns="http://www.w3.org/2000/svg" xmlns:xlink="http://www.w3.org/1999/xlink" x="0px" y="0px"
	 viewBox="0 0 32 32" style="enable-background:new 0 0 32 32;" xml:space="preserve">
<path d="M14.397,13.668c-0.673,0.486-5.625,4.546-6.956,5.714c-1.563,1.373-0.66,3.672,0.251,4.558
	c0.578,0.562,2.66,1.826,4.391,0.066c0.895-0.91,10.314-10.563,10.478-10.742c0,0-1.327,0.215-2.647,0.539
	c0,0-8.276,8.134-9.091,9.078c-0.425,0.492-1.655,0.191-2.013-0.157c-0.327-0.318-0.604-1.208,0.029-1.911
	c0.689-0.666,7.264-5.904,7.264-5.904s5.465-0.888,9.199-1.481l1.836-1.974C24.719,11.613,16.254,12.327,14.397,13.668z"/>
<polygon points="19.1,6.916 14.681,13.987 17.492,13.4 22.322,5.495 "/>
<polygon points="25.161,3.199 21.185,9.338 25.205,6.562 27.829,2.274 "/>
<polygon points="28.21,8.301 25.11,10.456 20.872,10.977 28.837,5.371 "/>
<path style="fill:none;stroke:#000000;stroke-width:2;stroke-miterlimit:10;" d="M7.466,22.545c0,0-0.698,0.888-2.908,0.888"/>
<path style="fill:none;stroke:#000000;stroke-width:2;stroke-miterlimit:10;" d="M8.92,23.887c-0.895,0.515-1.377,2.34-1.377,3.071"
	/>
</svg>
