<?xml version="1.0" encoding="iso-8859-1"?>
<!-- Generator: Adobe Illustrator 19.1.0, SVG Export Plug-In . SVG Version: 6.00 Build 0)  -->
<svg version="1.1" id="Layer_1" xmlns="http://www.w3.org/2000/svg" xmlns:xlink="http://www.w3.org/1999/xlink" x="0px" y="0px"
	 viewBox="0 0 32 32" style="enable-background:new 0 0 32 32;" xml:space="preserve">
<ellipse style="fill:none;stroke:#000000;stroke-width:2;stroke-miterlimit:10;" cx="16" cy="12" rx="11" ry="4"/>
<path style="fill:none;stroke:#000000;stroke-width:2;stroke-miterlimit:10;" d="M27,12c0,0,0,7.469,0,8c0,2.209-4.925,4-11,4
	S5,22.209,5,20c0-0.531,0-8,0-8"/>
<path style="fill:none;stroke:#000000;stroke-width:2;stroke-miterlimit:10;" d="M5,16c0,1.105,1.343,2,3,2c0,1.105,1.343,2,3,2
	c0.808,0,1.538-0.215,2.077-0.562C13.378,20.331,14.57,21,16,21s2.622-0.669,2.923-1.562C19.462,19.785,20.192,20,21,20
	c1.657,0,3-0.895,3-2c1.657,0,3-0.895,3-2"/>
</svg>
