<?xml version="1.0" encoding="iso-8859-1"?>
<!-- Generator: Adobe Illustrator 19.1.0, SVG Export Plug-In . SVG Version: 6.00 Build 0)  -->
<svg version="1.1" id="Layer_1" xmlns="http://www.w3.org/2000/svg" xmlns:xlink="http://www.w3.org/1999/xlink" x="0px" y="0px"
	 viewBox="0 0 32 32" style="enable-background:new 0 0 32 32;" xml:space="preserve">
<path d="M16,4C9.383,4,4,9.383,4,16c0,4.43,2.419,8.298,6,10.376v-2.396C7.577,22.154,6,19.261,6,16c0-5.514,4.486-10,10-10
	s10,4.486,10,10c0,3.261-1.577,6.154-4,7.981v2.396c3.581-2.079,6-5.946,6-10.376C28,9.383,22.617,4,16,4z"/>
<path style="fill:none;stroke:#000000;stroke-width:2;stroke-miterlimit:10;" d="M10,15.667C10,17.876,11.343,19,13,19
	s3-1.124,3-3.333S14.657,11,13,11S10,13.458,10,15.667z"/>
<line style="fill:none;stroke:#000000;stroke-width:2;stroke-miterlimit:10;" x1="13" y1="19.087" x2="13" y2="29"/>
<path style="fill:none;stroke:#000000;stroke-width:2;stroke-miterlimit:10;" d="M22,10v6c0,1.657-1.343,3-3,3h0
	c-1.657,0-3-1.343-3-3v-6"/>
<line style="fill:none;stroke:#000000;stroke-width:2;stroke-miterlimit:10;" x1="19" y1="18" x2="19" y2="29"/>
<path d="M18,10v5c0,0.552,0.448,1,1,1h0c0.552,0,1-0.448,1-1v-5H18z"/>
</svg>
