<?xml version="1.0" encoding="iso-8859-1"?>
<!-- Generator: Adobe Illustrator 19.1.0, SVG Export Plug-In . SVG Version: 6.00 Build 0)  -->
<svg version="1.1" id="Layer_1" xmlns="http://www.w3.org/2000/svg" xmlns:xlink="http://www.w3.org/1999/xlink" x="0px" y="0px"
	 viewBox="0 0 32 32" style="enable-background:new 0 0 32 32;" xml:space="preserve">
<line style="fill:none;stroke:#000000;stroke-width:2;stroke-miterlimit:10;" x1="3" y1="3" x2="29" y2="29"/>
<g>
	<path d="M12.929,14.301l4.77,4.77c-0.109-0.571-0.233-1.144-0.364-1.717c1.849,0.424,3.703,0.775,5.494,0.775
		c2.471,0,4.822-0.666,6.878-2.722l-1.414-1.414c-3.04,3.039-7.122,2.227-11.473,1.187c-1.038-4.35-1.853-8.433,1.187-11.473
		l-1.414-1.414c-3.546,3.546-2.955,7.971-1.947,12.372C14.073,14.534,13.5,14.41,12.929,14.301z"/>
	<path d="M9.699,13.899c-2.665-0.104-5.207,0.495-7.406,2.694l1.414,1.414c2.268-2.268,5.129-2.375,8.251-1.849L9.699,13.899z"/>
	<path d="M15.843,20.043c0.526,3.121,0.419,5.981-1.85,8.25l1.414,1.414c2.199-2.199,2.797-4.741,2.693-7.407L15.843,20.043z"/>
</g>
<circle cx="24" cy="12" r="1"/>
<circle cx="26" cy="14" r="1"/>
<circle cx="20" cy="8" r="1"/>
<circle cx="22" cy="10" r="1"/>
<circle cx="18" cy="6" r="1"/>
<circle cx="12" cy="24" r="1"/>
<circle cx="14" cy="26" r="1"/>
<circle cx="8" cy="20" r="1"/>
<circle cx="10" cy="22" r="1"/>
<circle cx="15" cy="21" r="1"/>
<circle cx="11" cy="17" r="1"/>
<circle cx="13" cy="19" r="1"/>
<circle cx="6" cy="18" r="1"/>
<circle cx="21" cy="15" r="1"/>
<circle cx="17" cy="11" r="1"/>
<circle cx="19" cy="13" r="1"/>
</svg>
