<?xml version="1.0" encoding="iso-8859-1"?>
<!-- Generator: Adobe Illustrator 19.1.0, SVG Export Plug-In . SVG Version: 6.00 Build 0)  -->
<svg version="1.1" id="Layer_1" xmlns="http://www.w3.org/2000/svg" xmlns:xlink="http://www.w3.org/1999/xlink" x="0px" y="0px"
	 viewBox="0 0 32 32" style="enable-background:new 0 0 32 32;" xml:space="preserve">
<line style="fill:none;stroke:#000000;stroke-width:2;stroke-miterlimit:10;" x1="3" y1="3" x2="29" y2="29"/>
<g>
	<path d="M17.479,21.679C17.311,24.673,16.1,27,16.1,27h-0.183c-0.379-0.552-1.417-3.094-1.417-6c0-0.661,0.127-1.335,0.308-1.992
		l-0.085-0.085c-0.34,0.608-0.72,1.196-1.197,1.674c-2.343,2.343-5.233,3.253-5.233,3.253l-0.13-0.13
		c0.123-0.658,1.186-3.19,3.241-5.244c0.477-0.477,1.064-0.859,1.67-1.201l-0.085-0.085C12.332,17.371,11.66,17.5,11,17.5
		c-3.314,0-6-1.4-6-1.4v-0.183c0.509-0.349,2.713-1.248,5.329-1.388l-2.737-2.737c0.184,0.314,0.38,0.636,0.607,0.969
		c-2.119,0.388-3.755,1.113-4.329,1.506L3,14.863v1.054V16.1v1.213l1.076,0.561c0.094,0.049,1.754,0.902,4.117,1.353
		c-1.224,1.773-1.868,3.443-1.996,4.126l-0.194,1.036l0.745,0.745l0.13,0.13l0.858,0.858l1.157-0.364
		c0.101-0.032,1.878-0.602,3.868-1.955c0.388,2.119,1.113,3.755,1.506,4.329L14.863,29h1.054H16.1h1.213l0.561-1.076
		c0.049-0.094,0.902-1.754,1.353-4.117c0.354,0.244,0.7,0.459,1.039,0.658L17.479,21.679z"/>
	<path d="M27.924,14.126c-0.094-0.049-1.754-0.902-4.117-1.353c1.224-1.773,1.868-3.443,1.996-4.126l0.194-1.036l-0.746-0.745
		l-0.13-0.13l-0.858-0.857l-1.157,0.364c-0.101,0.032-1.878,0.602-3.868,1.955c-0.388-2.119-1.113-3.756-1.506-4.329L17.137,3
		h-1.054H15.9h-1.213l-0.561,1.076c-0.049,0.094-0.902,1.754-1.353,4.117c-1.773-1.224-3.443-1.868-4.126-1.996L7.612,6.003
		L6.867,6.749l-0.13,0.13L6.122,7.493l3.06,3.06c-0.719-1.28-1.031-2.261-1.031-2.261l0.13-0.13c0.658,0.123,3.19,1.186,5.244,3.241
		c0.568,0.568,1.02,1.279,1.404,2.01C14.683,12.625,14.5,11.803,14.5,11c0-3.314,1.4-6,1.4-6h0.183c0.379,0.552,1.417,3.094,1.417,6
		c0,0.814-0.191,1.648-0.446,2.445c0.387-0.742,0.844-1.465,1.42-2.041c2.343-2.343,5.233-3.253,5.233-3.253l0.13,0.13
		c-0.123,0.658-1.186,3.19-3.241,5.244c-0.576,0.576-1.3,1.03-2.044,1.414C19.35,14.688,20.185,14.5,21,14.5c3.314,0,6,1.4,6,1.4
		v0.183c-0.552,0.379-3.094,1.417-6,1.417c-0.814,0-1.648-0.191-2.445-0.446c0.742,0.387,1.465,0.844,2.041,1.42
		c2.343,2.343,3.253,5.233,3.253,5.233l-0.13,0.13c-0.343-0.064-1.198-0.389-2.225-0.971l3.012,3.012l0.627-0.627l0.13-0.13
		l0.858-0.858l-0.364-1.157c-0.032-0.101-0.602-1.878-1.955-3.868c2.119-0.388,3.756-1.113,4.329-1.506L29,17.137v-1.054V15.9
		v-1.213L27.924,14.126z"/>
</g>
</svg>
