<?xml version="1.0" encoding="iso-8859-1"?>
<!-- Generator: Adobe Illustrator 19.1.0, SVG Export Plug-In . SVG Version: 6.00 Build 0)  -->
<svg version="1.1" id="Layer_1" xmlns="http://www.w3.org/2000/svg" xmlns:xlink="http://www.w3.org/1999/xlink" x="0px" y="0px"
	 viewBox="0 0 32 32" style="enable-background:new 0 0 32 32;" xml:space="preserve">
<line style="fill:none;stroke:#000000;stroke-width:2;stroke-miterlimit:10;" x1="3" y1="3" x2="29" y2="29"/>
<g>
	<path d="M23,13.499v-6.73l-7-2.801L9,6.769v3.603l2,2v-3.47l4,1.539v4.841l-1.961-0.871l4.062,4.062L21,20.379v1.993l2,2v-3.999
		l4-2v4.639l-3.437,1.923l1.469,1.469L29,24.184v-8.085L23,13.499z M12.737,7.427L16,6.122l3.263,1.305L16,8.684L12.737,7.427z
		 M17,10.441l4-1.539v4.603l-4,1.777V10.441z M21.995,18.64l-3.629-1.775l3.64-1.617l3.629,1.572L21.995,18.64z"/>
	<path d="M21,25.2v0.137l-4-2V21.2l-2-2v4.137l-4,2v-4.958l3.478-1.7l-1.495-1.495l-2.978,1.456l-3.639-1.82l3.629-1.572
		l1.895,0.842L9,13.2v0.299l-6,2.6v8.085l6.974,3.902L16,25.073l6.026,3.013l1.192-0.667L21,25.2z M9,25.25l-4-2.238v-4.639l4,2
		V25.25z"/>
</g>
</svg>
