<?xml version="1.0" encoding="iso-8859-1"?>
<!-- Generator: Adobe Illustrator 19.1.0, SVG Export Plug-In . SVG Version: 6.00 Build 0)  -->
<svg version="1.1" id="Layer_1" xmlns="http://www.w3.org/2000/svg" xmlns:xlink="http://www.w3.org/1999/xlink" x="0px" y="0px"
	 viewBox="0 0 32 32" style="enable-background:new 0 0 32 32;" xml:space="preserve">
<g>
	<polygon points="15,9.22 27.884,7.36 27.581,5.383 15,7.415 	"/>
	<polygon points="7,8.707 3.888,9.209 4.129,10.789 7,10.375 	"/>
</g>
<g>
	<polygon points="7,11.174 4,11.198 4,12.801 7,12.826 	"/>
	<polygon points="15,11.107 15,12.892 28,13 28,11 	"/>
</g>
<line style="fill:none;stroke:#000000;stroke-width:2;stroke-linecap:round;stroke-miterlimit:10;" x1="7" y1="18" x2="7" y2="8"/>
<line style="fill:none;stroke:#000000;stroke-width:2;stroke-linecap:round;stroke-miterlimit:10;" x1="10" y1="13" x2="10" y2="7.435"/>
<line style="fill:none;stroke:#000000;stroke-width:2;stroke-linecap:round;stroke-miterlimit:10;" x1="13" y1="13" x2="13" y2="7"/>
<path style="fill:none;stroke:#000000;stroke-width:2;stroke-miterlimit:10;" d="M5,18v2c0,3.314,2.686,6,6,6v1h11v-1.09
	c2.837-0.477,5-2.938,5-5.91v-2H5z"/>
</svg>
