<?xml version="1.0" encoding="iso-8859-1"?>
<!-- Generator: Adobe Illustrator 19.1.0, SVG Export Plug-In . SVG Version: 6.00 Build 0)  -->
<svg version="1.1" id="Layer_1" xmlns="http://www.w3.org/2000/svg" xmlns:xlink="http://www.w3.org/1999/xlink" x="0px" y="0px"
	 viewBox="0 0 32 32" style="enable-background:new 0 0 32 32;" xml:space="preserve">
<path style="fill:none;stroke:#000000;stroke-width:2;stroke-miterlimit:10;" d="M28,4.999c-11.739,0-6.903,8.169-18.238,14.971
	C7.297,21.448,5.76,23.283,5,25.713c0.454,0.453,2.268,1.286,4.875,1.286c9.635,0,16.928-10.015,15.984-16.929
	c-0.387-2.833-0.491-4.156,1.088-4.998"/>
<path d="M9.716,25.454c-0.465,0.436-1.219,0.436-1.684,0c-0.465-0.436-0.77-0.857,0-1.579c0.77-0.722,1.219-0.436,1.684,0
	C10.181,24.312,10.181,25.018,9.716,25.454z"/>
<path d="M14.003,24.018c-0.577,0.541-1.512,0.541-2.089,0c-0.577-0.541-0.955-1.063,0-1.959c0.955-0.896,1.512-0.541,2.089,0
	C14.58,22.6,14.58,23.477,14.003,24.018z"/>
<path d="M17.566,21.601c-1.089,1.021-1.695,0.607-2.342,0c-0.647-0.606-0.647-1.59,0-2.196c0.647-0.607,1.702-0.601,2.342,0
	C18.206,20.005,18.655,20.58,17.566,21.601z"/>
<path d="M19.647,18.838c-1.06,0-1.751-0.735-1.751-1.642c0-0.907,0.229-1.642,1.751-1.642c1.523,0,1.752,0.735,1.752,1.642
	C21.399,18.103,20.708,18.838,19.647,18.838z"/>
<path d="M23.4,14.145c-0.668,0.626-1.75,0.626-2.418,0s-0.883-1.44,0-2.267c0.882-0.827,1.75-0.626,2.418,0
	C24.068,12.504,24.068,13.519,23.4,14.145z"/>
<path d="M23.764,9.842c-0.465,0.436-1.219,0.436-1.684,0c-0.465-0.436-0.77-0.857,0-1.579s1.219-0.436,1.684,0
	C24.229,8.699,24.229,9.406,23.764,9.842z"/>
</svg>
