<?xml version="1.0" encoding="iso-8859-1"?>
<!-- Generator: Adobe Illustrator 19.1.0, SVG Export Plug-In . SVG Version: 6.00 Build 0)  -->
<svg version="1.1" id="Layer_1" xmlns="http://www.w3.org/2000/svg" xmlns:xlink="http://www.w3.org/1999/xlink" x="0px" y="0px"
	 viewBox="0 0 32 32" style="enable-background:new 0 0 32 32;" xml:space="preserve">
<path style="fill:none;stroke:#000000;stroke-width:2;stroke-miterlimit:10;" d="M26,26V6H6v20H26z"/>
<path style="fill:none;stroke:#000000;stroke-width:2;stroke-miterlimit:10;" d="M26,26V6H6v20H26z"/>
<path d="M10.442,26.192c0,0,0.933-1.053,1.632-1.752c0.699-0.699,0.504-1.816-0.252-3.026c0,0-0.992-1.736-1.648-2.796
	c-1.094-1.993,0.558-3.513,0.558-3.513l-2.279,2.188c-0.605,0.605-0.504,1.816,0.252,3.026c0,0,0.553,0.804,1.648,2.745
	S10.442,26.192,10.442,26.192z"/>
<path d="M16.378,17.076c-1.941-1.095-2.745-1.648-2.745-1.648c-0.577-0.361-1.154-0.572-1.666-0.63
	c-0.08-0.009-1.001,0.603-0.899,1.743c0.268,0.072,0.556,0.185,0.864,0.354c1.059,0.656,2.796,1.648,2.796,1.648
	c1.211,0.757,2.328,0.951,3.026,0.252c0.699-0.699,1.752-1.632,1.752-1.632S18.319,18.171,16.378,17.076z"/>
<path d="M23.089,10.365c-1.941-1.095-2.745-1.648-2.745-1.648c-0.577-0.361-1.154-0.572-1.666-0.63
	c-0.08-0.009-1.001,0.603-0.899,1.743c0.268,0.072,0.556,0.185,0.864,0.354c1.059,0.656,2.796,1.648,2.796,1.648
	c1.211,0.757,2.328,0.951,3.026,0.252c0.699-0.699,1.752-1.632,1.752-1.632S25.03,11.459,23.089,10.365z"/>
<path d="M17.231,8.151c0,0-0.933,1.053-1.632,1.752c-0.699,0.699-0.504,1.816,0.252,3.026c0,0,0.992,1.736,1.648,2.796
	c0.169,0.308,0.282,0.596,0.354,0.864c1.141,0.102,1.752-0.819,1.743-0.899c-0.057-0.511-0.269-1.089-0.63-1.666
	c0,0-0.553-0.804-1.648-2.745S17.231,8.151,17.231,8.151z"/>
</svg>
