<?xml version="1.0" encoding="iso-8859-1"?>
<!-- Generator: Adobe Illustrator 19.1.0, SVG Export Plug-In . SVG Version: 6.00 Build 0)  -->
<svg version="1.1" id="Layer_1" xmlns="http://www.w3.org/2000/svg" xmlns:xlink="http://www.w3.org/1999/xlink" x="0px" y="0px"
	 viewBox="0 0 32 32" style="enable-background:new 0 0 32 32;" xml:space="preserve">
<path style="fill:none;stroke:#000000;stroke-width:2;stroke-miterlimit:10;" d="M20.854,17.475
	c0.786,3.062,2.022,4.536,2.022,6.577c0,2.155-2.135,2.948-7.302,2.948c-3.595,0-6.179-1.474-6.179-5.103
	c0-3.062,4.157-10.773,8.314-10.773S19.955,14.3,20.854,17.475z"/>
<path style="fill:none;stroke:#000000;stroke-width:2;stroke-miterlimit:10;" d="M19.684,11.549c0,0-3.031-2.928-3.814-3.718
	c-0.588-0.494-1.469-0.791-2.644-0.791C8.721,7.04,5,14.552,5,17.418c0,1.483,0.392,2.669,1.175,3.558
	c1.077,1.285,4.173,4.129,4.173,4.129"/>
<path style="fill:none;stroke:#000000;stroke-width:2;stroke-miterlimit:10;" d="M13.907,23.304c1.048-0.713,3.139,0.673,4.26-0.448
	c0.917-0.917-1.159-3.326-0.336-4.858"/>
<path style="fill:none;stroke:#000000;stroke-width:2;stroke-miterlimit:10;" d="M25,7.006c-1.936,0.571-4.151,1.991-5.798,4.439"/>
<path style="fill:none;stroke:#000000;stroke-width:2;stroke-miterlimit:10;" d="M20,5c-1.026,0.248-3.071,1.498-4.015,2.84"/>
</svg>
