<?xml version="1.0" encoding="iso-8859-1"?>
<!-- Generator: Adobe Illustrator 19.1.0, SVG Export Plug-In . SVG Version: 6.00 Build 0)  -->
<svg version="1.1" id="Layer_1" xmlns="http://www.w3.org/2000/svg" xmlns:xlink="http://www.w3.org/1999/xlink" x="0px" y="0px"
	 viewBox="0 0 32 32" style="enable-background:new 0 0 32 32;" xml:space="preserve">
<path style="fill:none;stroke:#000000;stroke-width:2;stroke-miterlimit:10;" d="M11,17c0-2.455-2-4-2-4"/>
<path style="fill:none;stroke:#000000;stroke-width:2;stroke-miterlimit:10;" d="M15.079,25.526C15.311,26.373,16.079,27,17,27h8
	c1.105,0,2-0.895,2-2v-9.903c0-0.718-0.193-1.423-0.56-2.041L23.5,8.1V8C24.328,8,25,7.328,25,6.5S24.328,5,23.5,5h-5
	C17.672,5,17,5.672,17,6.5S17.672,8,18.5,8v0.1l-2.94,4.956C15.193,13.674,15,14.379,15,15.097v1.82"/>
<path style="fill:none;stroke:#000000;stroke-width:2;stroke-linecap:round;stroke-miterlimit:10;" d="M17,21.5
	c0,3.038-2.686,5.5-6,5.5s-6-2.462-6-5.5c0-4.044,2.994-6.244,6-5.247C13.982,15.232,17,17.528,17,21.5z"/>
</svg>
