<?xml version="1.0" encoding="iso-8859-1"?>
<!-- Generator: Adobe Illustrator 19.1.1, SVG Export Plug-In . SVG Version: 6.00 Build 0)  -->
<svg version="1.1" id="Layer_1" xmlns="http://www.w3.org/2000/svg" xmlns:xlink="http://www.w3.org/1999/xlink" x="0px" y="0px"
	 viewBox="0 0 32 32" style="enable-background:new 0 0 32 32;" xml:space="preserve">
<line style="fill:none;stroke:#000000;stroke-width:2;stroke-miterlimit:10;" x1="15" y1="17" x2="3.691" y2="28.309"/>
<g>
	<g>
		<path style="fill:none;stroke:#000000;stroke-width:2;stroke-miterlimit:10;" d="M26.432,6.199
			c-1.247-1.302-2.831-1.867-3.986-1.543c-2.06-0.96-4.134-0.894-5.361,0.387c-0.498,0.52-0.799,1.189-0.926,1.94
			c-0.23,0.094-0.437,0.229-0.612,0.412c-0.996,1.039-0.592,3.145,0.901,4.703c0.611,0.638,1.309,1.081,1.99,1.315
			c0.225,0.71,0.65,1.439,1.26,2.076c1.493,1.559,3.511,1.98,4.507,0.941c0.001-0.001,0.001-0.001,0.001-0.002
			c1.102,0.029,2.088-0.302,2.794-1.039c1.03-1.075,1.243-2.773,0.74-4.562C28.36,9.613,27.85,7.678,26.432,6.199z"/>
	</g>
</g>
<path style="fill:none;stroke:#000000;stroke-width:2;stroke-miterlimit:10;" d="M6,19c0,2.209,2.5,4,2.5,4s2.5-1.791,2.5-4
	s-2.5-4-2.5-4S6,16.791,6,19z"/>
<g>
	<polygon points="5.293,26.707 4,24 6.707,25.293 	"/>
</g>
<g>
	<polygon points="11.707,20.293 13,23 10.293,21.707 	"/>
</g>
<path style="fill:none;stroke:#000000;stroke-width:2;stroke-miterlimit:10;" d="M15.318,10.318c-1.757,1.757-1.757,4.607,0,6.364
	c1.757,1.757,4.607,1.757,6.364,0"/>
<path style="fill:none;stroke:#000000;stroke-width:2;stroke-miterlimit:10;" d="M20,9c0,0,3-0.191,3,3"/>
</svg>
