<?xml version="1.0" encoding="iso-8859-1"?>
<!-- Generator: Adobe Illustrator 19.1.1, SVG Export Plug-In . SVG Version: 6.00 Build 0)  -->
<svg version="1.1" id="Layer_1" xmlns="http://www.w3.org/2000/svg" xmlns:xlink="http://www.w3.org/1999/xlink" x="0px" y="0px"
	 viewBox="0 0 32 32" style="enable-background:new 0 0 32 32;" xml:space="preserve">
<path style="fill:none;stroke:#000000;stroke-width:2;stroke-miterlimit:10;" d="M6,22c0,0,2.875,4,10,4s10-4,10-4v-4
	c0,0-4.958-1-10-1S6,18,6,18V22z"/>
<path style="fill:none;stroke:#000000;stroke-width:2;stroke-miterlimit:10;" d="M6,22c0,0,3.835-1,10.001-1S26,22,26,22"/>
<path style="fill:none;stroke:#000000;stroke-width:2;stroke-miterlimit:10;" d="M6,18c0,0-5-0.583-5-3s10.583-9,15-9s15,6.5,15,9
	s-5,3-5,3"/>
<path d="M23,12c0,0-2.046-1-3.875-1C17.311,11,16,11.964,16,11.964S14.689,11,12.875,11C11.046,11,9,12,9,12
	c3.048,0,5.043,1.083,6.051,1.746C15.029,13.829,15,13.91,15,14c0,0.552,0.448,1,1,1s1-0.448,1-1c0-0.09-0.029-0.171-0.051-0.254
	C17.957,13.083,19.952,12,23,12z"/>
</svg>
