<?xml version="1.0" encoding="iso-8859-1"?>
<!-- Generator: Adobe Illustrator 19.1.1, SVG Export Plug-In . SVG Version: 6.00 Build 0)  -->
<svg version="1.1" id="Layer_1" xmlns="http://www.w3.org/2000/svg" xmlns:xlink="http://www.w3.org/1999/xlink" x="0px" y="0px"
	 viewBox="0 0 32 32" style="enable-background:new 0 0 32 32;" xml:space="preserve">
<line style="fill:none;stroke:#000000;stroke-width:2;stroke-miterlimit:10;" x1="15.986" y1="2" x2="16" y2="10"/>
<path style="fill:none;stroke:#000000;stroke-width:2;stroke-miterlimit:10;" d="M8,22l1.103-6.222C9.398,14.177,10.696,13,13,13h5
	c0.927,0,1.714,0.601,1.85,1.412L22,28H10l2-13l4,2l4-2"/>
<path d="M17,12c0-0.552-0.448-1-1-1s-1,0.448-1,1c0,0,0,0.317,0,0.5h2C17,12.317,17,12,17,12z"/>
<rect x="11.221" y="28" width="2" height="2"/>
<rect x="19" y="28" width="2" height="2"/>
<line style="fill:none;stroke:#000000;stroke-width:2;stroke-miterlimit:10;" x1="16" y1="22" x2="16" y2="17"/>
</svg>
