<?xml version="1.0" encoding="iso-8859-1"?>
<!-- Generator: Adobe Illustrator 19.1.1, SVG Export Plug-In . SVG Version: 6.00 Build 0)  -->
<svg version="1.1" id="Layer_1" xmlns="http://www.w3.org/2000/svg" xmlns:xlink="http://www.w3.org/1999/xlink" x="0px" y="0px"
	 viewBox="0 0 32 32" style="enable-background:new 0 0 32 32;" xml:space="preserve">
<path style="fill:none;stroke:#000000;stroke-width:2;stroke-miterlimit:10;" d="M11,10V8c0-2.762,2.238-5,5-5l0,0
	c2.762,0,5,2.238,5,5v2"/>
<polyline style="fill:none;stroke:#000000;stroke-width:2;stroke-miterlimit:10;" points="5.8,19 4,28 28,28 26.2,19 "/>
<path style="fill:none;stroke:#000000;stroke-width:2;stroke-miterlimit:10;" d="M27,19l-2-6H7l-2,6c0,0,3.125,2,11,2S27,19,27,19z"
	/>
<path d="M12,12c0-0.552-0.448-1-1-1s-1,0.448-1,1c0,0,0,0.317,0,0.5h2C12,12.317,12,12,12,12z"/>
<path d="M22,12c0-0.552-0.448-1-1-1s-1,0.448-1,1c0,0,0,0.317,0,0.5h2C22,12.317,22,12,22,12z"/>
<rect x="24" y="28" width="2" height="2"/>
<rect x="6" y="28" width="2" height="2"/>
<circle cx="16" cy="22" r="2"/>
</svg>
