<?xml version="1.0" encoding="iso-8859-1"?>
<!-- Generator: Adobe Illustrator 19.1.1, SVG Export Plug-In . SVG Version: 6.00 Build 0)  -->
<svg version="1.1" id="Layer_1" xmlns="http://www.w3.org/2000/svg" xmlns:xlink="http://www.w3.org/1999/xlink" x="0px" y="0px"
	 viewBox="0 0 32 32" style="enable-background:new 0 0 32 32;" xml:space="preserve">
<path style="fill:none;stroke:#000000;stroke-width:2;stroke-miterlimit:10;" d="M22.804,4.034
	c-2.496-0.331-4.762,1.797-4.766,4.938C18.033,15.511,18,22.538,18,22.538c0,2.077,0.175,5.033,3.051,5.412
	c3.417,0.453,4.14-2.333,4.357-3.935c0,0,0.631-3.115,0.78-4.357c0.485-3.518,1.307-4.57,1.693-7.405
	C28.408,8.424,27.263,4.63,22.804,4.034z"/>
<path style="fill:none;stroke:#000000;stroke-width:2;stroke-miterlimit:10;" d="M18.021,17c0.18-1.774,1.076-5.488,4.979-8
	c3.904,3.057,3.304,9.708,3.137,11"/>
<path style="fill:none;stroke:#000000;stroke-width:2;stroke-miterlimit:10;" d="M4.119,12.254c0.386,2.835,1.209,3.887,1.693,7.405
	c0.15,1.242,0.78,4.357,0.78,4.357c0.217,1.602,0.94,4.388,4.357,3.935C13.825,27.572,14,24.615,14,22.538
	c0,0-0.033-7.028-0.038-13.567c-0.005-3.141-2.27-5.268-4.766-4.938C4.737,4.63,3.592,8.424,4.119,12.254z"/>
<path style="fill:none;stroke:#000000;stroke-width:2;stroke-miterlimit:10;" d="M13.979,17c-0.18-1.774-1.076-5.488-4.979-8
	c-3.904,3.057-3.304,9.708-3.137,11"/>
</svg>
