<?xml version="1.0" encoding="iso-8859-1"?>
<!-- Generator: Adobe Illustrator 19.1.1, SVG Export Plug-In . SVG Version: 6.00 Build 0)  -->
<svg version="1.1" id="Layer_1" xmlns="http://www.w3.org/2000/svg" xmlns:xlink="http://www.w3.org/1999/xlink" x="0px" y="0px"
	 viewBox="0 0 32 32" style="enable-background:new 0 0 32 32;" xml:space="preserve">
<ellipse style="fill:none;stroke:#000000;stroke-width:2;stroke-miterlimit:10;" cx="16" cy="10.5" rx="6" ry="5.5"/>
<path style="fill:none;stroke:#000000;stroke-width:2;stroke-miterlimit:10;" d="M29,18c0,0,0.745,6-12,6h-2C2.255,24,3,18,3,18"/>
<path style="fill:none;stroke:#000000;stroke-width:2;stroke-miterlimit:10;" d="M18,10.175c1.106,0.139,2.554,0.387,4.034,0.825
	C25.432,12.005,29,14.01,29,18c0,0,0.745,8-12,8h-2C2.255,26,3,18,3,18c0-3.991,3.57-5.996,6.969-7.001
	c1.479-0.437,2.926-0.685,4.031-0.824"/>
<ellipse style="fill:none;stroke:#000000;stroke-width:2;stroke-miterlimit:10;" cx="16" cy="10.5" rx="2" ry="1.5"/>
</svg>
