<?xml version="1.0" encoding="iso-8859-1"?>
<!-- Generator: Adobe Illustrator 19.1.1, SVG Export Plug-In . SVG Version: 6.00 Build 0)  -->
<svg version="1.1" id="Layer_1" xmlns="http://www.w3.org/2000/svg" xmlns:xlink="http://www.w3.org/1999/xlink" x="0px" y="0px"
	 viewBox="0 0 32 32" style="enable-background:new 0 0 32 32;" xml:space="preserve">
<polygon style="fill:none;stroke:#000000;stroke-width:2;stroke-miterlimit:10;" points="14.665,23 13.5,21.082 14.665,19 
	17.335,19 18.5,21.082 17.335,23 "/>
<line style="fill:none;stroke:#000000;stroke-width:2;stroke-miterlimit:10;" x1="17.335" y1="19" x2="20" y2="15"/>
<line style="fill:none;stroke:#000000;stroke-width:2;stroke-miterlimit:10;" x1="17" y1="23" x2="19" y2="26"/>
<line style="fill:none;stroke:#000000;stroke-width:2;stroke-miterlimit:10;" x1="21" y1="21" x2="18" y2="21"/>
<line style="fill:none;stroke:#000000;stroke-width:2;stroke-miterlimit:10;" x1="14.665" y1="19" x2="12" y2="15"/>
<line style="fill:none;stroke:#000000;stroke-width:2;stroke-miterlimit:10;" x1="15" y1="23" x2="13" y2="26"/>
<line style="fill:none;stroke:#000000;stroke-width:2;stroke-miterlimit:10;" x1="11" y1="21" x2="13" y2="21"/>
<ellipse style="fill:none;stroke:#000000;stroke-width:2;stroke-miterlimit:10;" cx="16" cy="20" rx="6" ry="6"/>
<g>
	<path d="M30,14c0-1.044-0.414-2.142-1.154-3.2C26.693,7.392,21.748,5,16,5S5.307,7.392,3.154,10.8C2.414,11.858,2,12.956,2,14
		c0,0.124,0.012,0.242,0.018,0.364C2.015,14.447,2,14.528,2,14.611c0,3.279,2.311,6.08,6.384,7.83C8.137,21.671,8,20.852,8,20
		c0-0.417,0.042-0.823,0.104-1.223c-2.138-0.512-3.923-1.932-4.084-4.416c0.034-0.665,0.196-1.31,0.484-1.922
		C5.932,9.996,10.272,7,16,7s10.068,2.996,11.496,5.439c0.286,0.607,0.447,1.246,0.483,1.906c-0.173,1.851-1.727,3.703-4.091,4.374
		C23.955,19.138,24,19.563,24,20c0,0.852-0.137,1.671-0.384,2.441C27.689,20.692,30,17.89,30,14.611
		c0-0.089-0.016-0.176-0.019-0.264C29.988,14.231,30,14.115,30,14z"/>
</g>
</svg>
