<?xml version="1.0" encoding="iso-8859-1"?>
<!-- Generator: Adobe Illustrator 19.1.1, SVG Export Plug-In . SVG Version: 6.00 Build 0)  -->
<svg version="1.1" id="Layer_1" xmlns="http://www.w3.org/2000/svg" xmlns:xlink="http://www.w3.org/1999/xlink" x="0px" y="0px"
	 viewBox="0 0 32 32" style="enable-background:new 0 0 32 32;" xml:space="preserve">
<path d="M10.898,11.043l0.308,0.575c-0.154,0.152-0.177,0.387-0.06,0.604c0.204,0.381,0.695,0.415,1.267,0.095
	c0,0-0.006-0.012-0.009-0.017c-0.002-0.004-0.007-0.013-0.007-0.013l-0.002-0.004c-0.33,0.013-0.616-0.165-0.789-0.489
	c-0.282-0.527-0.101-1.122,0.43-1.407c0.577-0.309,1.223-0.088,1.556,0.534c0.214,0.4,0.212,0.817-0.01,1.184
	c-0.156,0.282-0.434,0.532-0.813,0.735c-0.924,0.495-1.715,0.359-2.103-0.365C10.384,11.946,10.478,11.369,10.898,11.043z
	 M12.89,11.95c0.281-0.151,0.382-0.484,0.229-0.769c-0.152-0.285-0.486-0.388-0.763-0.241c-0.285,0.152-0.377,0.475-0.222,0.765
	S12.611,12.1,12.89,11.95z"/>
<path d="M12.549,13.911l0.418,0.501c-0.121,0.18-0.095,0.414,0.063,0.604c0.277,0.333,0.765,0.267,1.26-0.162
	c0,0-0.008-0.01-0.012-0.015c-0.003-0.004-0.01-0.012-0.01-0.012l-0.003-0.003c-0.32,0.079-0.637-0.038-0.871-0.32
	c-0.383-0.459-0.325-1.079,0.138-1.465c0.503-0.419,1.18-0.333,1.631,0.21c0.291,0.349,0.372,0.757,0.229,1.161
	c-0.096,0.308-0.318,0.608-0.648,0.883c-0.805,0.67-1.607,0.697-2.133,0.065C12.228,14.899,12.204,14.314,12.549,13.911z
	 M14.682,14.399c0.245-0.204,0.277-0.551,0.07-0.8c-0.207-0.248-0.554-0.284-0.795-0.082c-0.248,0.207-0.274,0.541-0.063,0.794
	C14.105,14.564,14.439,14.601,14.682,14.399z"/>
<path d="M14.696,16.368l0.499,0.417c-0.086,0.198-0.02,0.424,0.169,0.582c0.33,0.276,0.798,0.126,1.207-0.384
	c0,0-0.01-0.009-0.015-0.012c-0.003-0.003-0.012-0.01-0.012-0.01l-0.003-0.003c-0.3,0.135-0.631,0.076-0.912-0.159
	c-0.457-0.383-0.511-1.001-0.125-1.461c0.419-0.501,1.099-0.536,1.638-0.085c0.347,0.291,0.5,0.678,0.431,1.099
	c-0.04,0.319-0.203,0.654-0.478,0.982c-0.67,0.801-1.453,0.969-2.08,0.444C14.557,17.396,14.429,16.826,14.696,16.368z
	 M16.876,16.467c0.204-0.244,0.173-0.591-0.074-0.797c-0.247-0.207-0.593-0.179-0.795,0.061c-0.207,0.247-0.173,0.579,0.079,0.79
	C16.338,16.732,16.673,16.709,16.876,16.467z"/>
<path d="M16.798,18.633c0.121-0.184,0.335-0.231,0.53-0.103c0.197,0.129,0.236,0.344,0.115,0.528
	c-0.121,0.184-0.335,0.234-0.531,0.105C16.717,19.035,16.677,18.817,16.798,18.633z"/>
<path d="M18.252,19.028l0.581,0.298c-0.04,0.212,0.075,0.419,0.294,0.531c0.385,0.198,0.808-0.054,1.095-0.642
	c0,0-0.012-0.006-0.017-0.009c-0.004-0.002-0.013-0.007-0.013-0.007l-0.004-0.002c-0.264,0.198-0.601,0.215-0.927,0.047
	c-0.532-0.272-0.721-0.866-0.446-1.401c0.299-0.583,0.956-0.768,1.583-0.446c0.404,0.207,0.64,0.551,0.665,0.979
	c0.032,0.32-0.054,0.684-0.25,1.066c-0.478,0.932-1.206,1.27-1.936,0.895C18.344,20.063,18.093,19.535,18.252,19.028z
	 M20.405,18.641c0.146-0.284,0.039-0.616-0.249-0.763s-0.62-0.044-0.764,0.236c-0.147,0.288-0.041,0.605,0.253,0.756
	C19.939,19.021,20.261,18.923,20.405,18.641z"/>
<circle style="fill:none;stroke:#000000;stroke-width:2;stroke-linecap:round;stroke-linejoin:round;stroke-miterlimit:10;" cx="16" cy="15" r="11"/>
<line style="fill:none;stroke:#000000;stroke-width:2;stroke-miterlimit:10;" x1="8.214" y1="22.786" x2="2.765" y2="28.235"/>
<path style="fill:none;stroke:#000000;stroke-width:2;stroke-miterlimit:10;" d="M25.555,20.775C26.637,21.234,27.784,21.646,29,22"
	/>
<path style="fill:none;stroke:#000000;stroke-width:2;stroke-miterlimit:10;" d="M9,3c0,0,0.321,1.1,1.118,2.789"/>
<path style="fill:none;stroke:#000000;stroke-width:2;stroke-miterlimit:10;" d="M6.676,8.777c-1.427-2.754-2-4.689-2-4.689"/>
<path style="fill:none;stroke:#000000;stroke-width:2;stroke-miterlimit:10;" d="M27,26c-1.701-0.488-3.283-1.091-4.753-1.783"/>
<g>
	<path d="M7.745,11.424c-0.357,0.821-0.597,1.704-0.695,2.63c2.8,4.176,7.113,8.864,13.514,11.946l0.867-1.803
		C14.632,20.924,10.323,15.702,7.745,11.424z"/>
	<path d="M14.409,6.149c-0.695,0.125-1.363,0.325-1.993,0.599c2.586,4.06,7.011,9.044,14.198,12.033l0.768-1.848
		C20.943,14.257,16.869,9.858,14.409,6.149z"/>
</g>
</svg>
