<?xml version="1.0" encoding="iso-8859-1"?>
<!-- Generator: Adobe Illustrator 19.1.1, SVG Export Plug-In . SVG Version: 6.00 Build 0)  -->
<svg version="1.1" id="Layer_1" xmlns="http://www.w3.org/2000/svg" xmlns:xlink="http://www.w3.org/1999/xlink" x="0px" y="0px"
	 viewBox="-7 9 32 32" enable-background="new -7 9 32 32" xml:space="preserve">
<path d="M18.688,15.068l-1.125,1.126l-5.211-5.211l-1.414,1.414l5.211,5.211l-0.586,0.586l-5.211-5.211l-1.415,1.414l5.211,5.211
	l-0.586,0.586l-5.211-5.211l-1.414,1.414l5.211,5.211l-0.586,0.586l-5.211-5.211l-1.414,1.414l5.211,5.211l-0.586,0.586
	l-5.211-5.211l-1.414,1.414l5.211,5.211l-0.586,0.586l-5.211-5.211l-1.414,1.414l5.211,5.211l-0.586,0.586l-5.211-5.211
	l-1.414,1.414l5.211,5.211l-0.586,0.586l-5.211-5.211l-1.414,1.415l5.211,5.211l-0.586,0.586l-5.211-5.211l-1.414,1.414l5.211,5.211
	l-1.189,1.189l4.242,4.242l19.728-19.728L18.688,15.068z M1.789,34.797l16.9-16.9l1.414,1.415l-16.9,16.9L1.789,34.797z"/>
</svg>
