<svg xmlns="http://www.w3.org/2000/svg" fill-rule="evenodd" stroke-linejoin="round" stroke-miterlimit="2" clip-rule="evenodd" viewBox="0 0 400 400"><defs/><path fill="none" d="M0 0h400v400H0z"/><circle cx="200" cy="200" r="119.072" fill="#81c784" fill-opacity=".3"/><circle cx="200" cy="200" r="99.5" fill="#81c784"/><path fill="#fff" d="M200.011 145.221c-5.042 0-9.129 4.136-9.129 9.102v54.834a9.094 9.094 0 009.129 9.103c5.043 0 9.13-4.136 9.13-9.103v-54.834a9.093 9.093 0 00-9.13-9.102zm0 109.558a9.13 9.13 0 009.13-9.13 9.129 9.129 0 00-9.13-9.129 9.129 9.129 0 00-9.129 9.129 9.129 9.129 0 009.129 9.13z"/></svg>