<?xml version="1.0" encoding="iso-8859-1"?>
<!-- Generator: Adobe Illustrator 18.1.1, SVG Export Plug-In . SVG Version: 6.00 Build 0)  -->
<svg version="1.1" id="Layer_1" xmlns="http://www.w3.org/2000/svg" xmlns:xlink="http://www.w3.org/1999/xlink" x="0px" y="0px"
	 viewBox="0 0 32 32" style="enable-background:new 0 0 32 32;" xml:space="preserve">
<path style="fill:none;stroke:#000000;stroke-width:2;stroke-miterlimit:10;" d="M21.3,26H29c0,0,0-8.4,0-9c0-7.2-5.8-13-13-13
	S3,9.8,3,17c0,0.6,0,9,0,9h7.7"/>
<circle cx="19" cy="18" r="1"/>
<circle cx="13" cy="18" r="1"/>
<path style="fill:none;stroke:#000000;stroke-width:2;stroke-miterlimit:10;" d="M8,15v1c-1.1,0-2,0.9-2,2s0.9,2,2,2
	c0,4.4,3.6,8,8,8s8-3.6,8-8c1.1,0,2-0.9,2-2s-0.9-2-2-2h-1"/>
<path style="fill:none;stroke:#000000;stroke-width:2;stroke-miterlimit:10;" d="M19,9"/>
<path style="fill:none;stroke:#000000;stroke-width:2;stroke-miterlimit:10;" d="M19,9c0,7.2-11,1-11,6"/>
</svg>
