<?xml version="1.0" encoding="iso-8859-1"?>
<!-- Generator: Adobe Illustrator 19.1.0, SVG Export Plug-In . SVG Version: 6.00 Build 0)  -->
<svg version="1.1" id="Layer_1" xmlns="http://www.w3.org/2000/svg" xmlns:xlink="http://www.w3.org/1999/xlink" x="0px" y="0px"
	 viewBox="0 0 32 32" style="enable-background:new 0 0 32 32;" xml:space="preserve">
<path style="fill:none;stroke:#000000;stroke-width:2;stroke-miterlimit:10;" d="M22.142,10.747c0,0,1.229-0.747,2.611-0.747
	C26.945,10,28,11,28,11c0,0.411-1.297,2.991-3.199,3c-1.077,0-2.082-0.594-2.082-0.594"/>
<path style="fill:none;stroke:#000000;stroke-width:2;stroke-linejoin:round;stroke-miterlimit:10;" d="M23,4
	c0,1.323-0.867,4-3.756,4"/>
<circle cx="18.5" cy="25.5" r="1.5"/>
<path style="fill:none;stroke:#000000;stroke-width:2;stroke-miterlimit:10;" d="M9.28,13.406c0,0-1.005,0.594-2.082,0.594
	C5.297,13.991,4,11.411,4,11c0,0,1.055-1,3.247-1c1.381,0,2.611,0.747,2.611,0.747"/>
<path style="fill:none;stroke:#000000;stroke-width:2;stroke-linejoin:round;stroke-miterlimit:10;" d="M12.756,8
	C9.867,8,9,5.323,9,4"/>
<path style="fill:none;stroke:#000000;stroke-width:2;stroke-miterlimit:10;" d="M16,27c2.753,0,5-0.772,5-2.341
	C21,23.184,20,22,20,22c0-1.379,2.734-3.234,2.734-7.655C22.734,9.68,19,8,19,8s-1.18-2-3-2c-1.82,0-3,2-3,2
	s-3.734,1.68-3.734,6.345c0,4.42,2.733,6.276,2.734,7.655c0,0-1,1.184-1,2.659C11,26.228,13.247,27,16,27z"/>
<path style="fill:none;stroke:#000000;stroke-width:2;stroke-miterlimit:10;" d="M12.103,22.192c0,0,1.896-0.235,1.896-4.636
	c-0.951-0.381-2-1.428-2-3.145S13.593,11,16,11c2.407,0,4,1.694,4,3.411s-1.049,2.763-2,3.145c0,4.401,1.896,4.636,1.896,4.636"/>
<circle cx="13.5" cy="25.5" r="1.5"/>
</svg>
