<?xml version="1.0" encoding="iso-8859-1"?>
<!-- Generator: Adobe Illustrator 19.1.1, SVG Export Plug-In . SVG Version: 6.00 Build 0)  -->
<svg version="1.1" id="Layer_1" xmlns="http://www.w3.org/2000/svg" xmlns:xlink="http://www.w3.org/1999/xlink" x="0px" y="0px"
	 viewBox="0 0 32 32" style="enable-background:new 0 0 32 32;" xml:space="preserve">
<path style="fill:none;stroke:#000000;stroke-width:2;stroke-miterlimit:10;" d="M11.5,14L11.5,14C10.125,14,9,11.375,9,10V7.5
	C9,6.125,10.125,5,11.5,5h0C12.875,5,14,6.125,14,7.5V10C14,11.375,12.875,14,11.5,14z"/>
<line style="fill:none;stroke:#000000;stroke-width:2;stroke-miterlimit:10;" x1="9" y1="18" x2="7" y2="27"/>
<path style="fill:none;stroke:#000000;stroke-width:2;stroke-miterlimit:10;" d="M14,9l6,15c0,0-2.875,0.813-4,3
	c-1.438-0.875-4.375-1-4.375-1h-0.25c0,0-2.938,0.125-4.375,1c-1.125-2.188-4-3-4-3L9,9"/>
<line style="fill:none;stroke:#000000;stroke-width:2;stroke-miterlimit:10;" x1="14" y1="18" x2="16" y2="27"/>
<path style="fill:none;stroke:#000000;stroke-width:2;stroke-miterlimit:10;" d="M20.5,14L20.5,14c-1.375,0-2.5-2.625-2.5-4V7.5
	C18,6.125,19.125,5,20.5,5h0C21.875,5,23,6.125,23,7.5V10C23,11.375,21.875,14,20.5,14z"/>
<line style="fill:none;stroke:#000000;stroke-width:2;stroke-miterlimit:10;" x1="23" y1="18" x2="25" y2="27"/>
<g>
	<path d="M23.929,8.628l-1.857,0.743l5.623,14.056c-0.889,0.398-2.163,1.125-3.063,2.297c-0.638-0.239-1.174-0.345-1.819-0.454
		c0,0-1.141,0.218-2.258,0.651c-1.117,0.433-1.559,0.603-2.289,1.349c0.853-0.172,1.713-0.253,2.11-0.271l0.207-0.001
		c0.747,0.033,2.904,0.25,3.898,0.855l0.918,0.559l0.491-0.956c0.907-1.764,3.361-2.489,3.383-2.495l1.069-0.302L23.929,8.628z"/>
</g>
</svg>
