<?xml version="1.0" encoding="iso-8859-1"?>
<!-- Generator: Adobe Illustrator 19.1.1, SVG Export Plug-In . SVG Version: 6.00 Build 0)  -->
<svg version="1.1" id="Layer_1" xmlns="http://www.w3.org/2000/svg" xmlns:xlink="http://www.w3.org/1999/xlink" x="0px" y="0px"
	 viewBox="0 0 32 32" style="enable-background:new 0 0 32 32;" xml:space="preserve">
<path d="M27,25L16,3L5,25h9.011v3h4v-3H27z M17.012,27h-2L15,21l-0.148-0.573l-2.713-2.959L15,19.231V15h2v2.56l1.306-0.29
	l0.642-1.134l-0.051,1.38l-1.775,1.283L17,19.806v0.225l1.256-0.146l0.543-0.691l1.085-0.1l0.839-0.984l-0.296,1.627l-1.233,0.247
	l-0.84,0.789L17,21.111L17.012,27z"/>
<polyline style="fill:none;stroke:#000000;stroke-width:2;stroke-miterlimit:10;" points="14,24 14.011,28 18,28 18,24 "/>
</svg>
