<?xml version="1.0" encoding="iso-8859-1"?>
<!-- Generator: Adobe Illustrator 19.1.1, SVG Export Plug-In . SVG Version: 6.00 Build 0)  -->
<svg version="1.1" id="Layer_1" xmlns="http://www.w3.org/2000/svg" xmlns:xlink="http://www.w3.org/1999/xlink" x="0px" y="0px"
	 viewBox="0 0 32 32" style="enable-background:new 0 0 32 32;" xml:space="preserve">
<circle style="fill:none;stroke:#000000;stroke-width:2;stroke-miterlimit:10;" cx="24" cy="24" r="7"/>
<line style="fill:none;stroke:#000000;stroke-width:2;stroke-miterlimit:10;" x1="22" y1="28" x2="22" y2="20"/>
<line style="fill:none;stroke:#000000;stroke-width:2;stroke-miterlimit:10;" x1="26" y1="28" x2="26" y2="20"/>
<line style="fill:none;stroke:#000000;stroke-width:2;stroke-miterlimit:10;" x1="20" y1="22" x2="28" y2="22"/>
<line style="fill:none;stroke:#000000;stroke-width:2;stroke-miterlimit:10;" x1="20" y1="26" x2="28" y2="26"/>
<rect x="4" y="8" style="fill:none;stroke:#000000;stroke-width:2;stroke-miterlimit:10;" width="3" height="3"/>
<rect x="11" y="8" style="fill:none;stroke:#000000;stroke-width:2;stroke-miterlimit:10;" width="3" height="3"/>
<rect x="18" y="8" style="fill:none;stroke:#000000;stroke-width:2;stroke-miterlimit:10;" width="3" height="3"/>
<rect x="25" y="8" style="fill:none;stroke:#000000;stroke-width:2;stroke-miterlimit:10;" width="3" height="3"/>
<rect x="4" y="15" style="fill:none;stroke:#000000;stroke-width:2;stroke-miterlimit:10;" width="3" height="3"/>
<rect x="11" y="15" style="fill:none;stroke:#000000;stroke-width:2;stroke-miterlimit:10;" width="3" height="3"/>
<polyline style="fill:none;stroke:#000000;stroke-width:2;stroke-miterlimit:10;" points="20,18 18,18 18,15 21,15 21,18 "/>
<polyline style="fill:none;stroke:#000000;stroke-width:2;stroke-miterlimit:10;" points="25,17 25,15 28,15 28,18 "/>
<rect x="4" y="22" style="fill:none;stroke:#000000;stroke-width:2;stroke-miterlimit:10;" width="3" height="3"/>
<rect x="11" y="22" style="fill:none;stroke:#000000;stroke-width:2;stroke-miterlimit:10;" width="3" height="3"/>
</svg>
