<?xml version="1.0" encoding="iso-8859-1"?>
<!-- Generator: Adobe Illustrator 19.1.0, SVG Export Plug-In . SVG Version: 6.00 Build 0)  -->
<svg version="1.1" id="Layer_1" xmlns="http://www.w3.org/2000/svg" xmlns:xlink="http://www.w3.org/1999/xlink" x="0px" y="0px"
	 viewBox="0 0 32 32" style="enable-background:new 0 0 32 32;" xml:space="preserve">
<polyline style="fill:none;stroke:#000000;stroke-width:2;stroke-miterlimit:10;" points="9,27 9,6 23,6 23,27 "/>
<line style="fill:none;stroke:#000000;stroke-width:2;stroke-miterlimit:10;" x1="25" y1="16" x2="29" y2="16"/>
<rect x="3" y="15" width="4" height="2"/>
<polygon points="3,9 3,11 7,13 7,11 "/>
<polygon points="7,19 7,21 3,23 3,21 "/>
<polygon points="29,23 29,21 25,19 25,21 "/>
<polygon points="25,13 25,11 29,9 29,11 "/>
<circle style="fill:none;stroke:#000000;stroke-width:2;stroke-miterlimit:10;" cx="16" cy="12" r="2"/>
<path style="fill:none;stroke:#000000;stroke-width:2;stroke-miterlimit:10;" d="M16,15L16,15c-1.657,0-3,1.343-3,3v3l1,1v4h4v-4
	l1-1v-3C19,16.343,17.657,15,16,15z"/>
</svg>
