<?xml version="1.0" encoding="utf-8"?>
<!-- Generator: Adobe Illustrator 18.1.1, SVG Export Plug-In . SVG Version: 6.00 Build 0)  -->
<svg version="1.1" id="Layer_1" xmlns="http://www.w3.org/2000/svg" xmlns:xlink="http://www.w3.org/1999/xlink" x="0px" y="0px"
	 viewBox="0 0 32 32" enable-background="new 0 0 32 32" xml:space="preserve">
<circle fill="none" stroke="#000000" stroke-width="2" stroke-miterlimit="10" cx="13" cy="16" r="5"/>
<path fill="none" stroke="#000000" stroke-width="2" stroke-miterlimit="10" d="M6,28c0-3.9,3.1-7,7-7s7,3.1,7,7"/>
<path d="M28,7h-1.6l1.1-1.1l-1.4-1.4L25,5.6V4h-2v1.6l-1.1-1.1l-1.4,1.4L21.6,7H20v2h1.6l-1.1,1.1l1.4,1.4l1.1-1.1V12h2v-1.6
	l1.1,1.1l1.4-1.4L26.4,9H28V7z M24,10c-1.1,0-2-0.9-2-2c0-1.1,0.9-2,2-2s2,0.9,2,2C26,9.1,25.1,10,24,10z"/>
</svg>
