<?xml version="1.0" encoding="iso-8859-1"?>
<!-- Generator: Adobe Illustrator 19.1.0, SVG Export Plug-In . SVG Version: 6.00 Build 0)  -->
<svg version="1.1" id="Layer_1" xmlns="http://www.w3.org/2000/svg" xmlns:xlink="http://www.w3.org/1999/xlink" x="0px" y="0px"
	 viewBox="0 0 32 32" style="enable-background:new 0 0 32 32;" xml:space="preserve">
<circle cx="16" cy="17" r="2"/>
<line style="fill:none;stroke:#000000;stroke-width:2;stroke-miterlimit:10;" x1="16" y1="17" x2="22.892" y2="13.024"/>
<circle cx="16" cy="9" r="1"/>
<circle cx="8" cy="17" r="1"/>
<circle cx="24" cy="17" r="1"/>
<circle cx="20" cy="10.072" r="1"/>
<circle cx="9.072" cy="21" r="1"/>
<circle cx="22.928" cy="13" r="1"/>
<circle cx="12" cy="10.072" r="1"/>
<circle cx="22.928" cy="21" r="1"/>
<circle cx="9.072" cy="13" r="1"/>
<path style="fill:none;stroke:#000000;stroke-width:2;stroke-miterlimit:10;" d="M23.521,25C25.655,22.995,27,20.16,27,17
	c0-6.075-4.925-11-11-11S5,10.925,5,17c0,3.16,1.345,5.995,3.479,8H23.521z"/>
</svg>
