<?xml version="1.0" encoding="iso-8859-1"?>
<!-- Generator: Adobe Illustrator 19.1.1, SVG Export Plug-In . SVG Version: 6.00 Build 0)  -->
<svg version="1.1" id="Layer_1" xmlns="http://www.w3.org/2000/svg" xmlns:xlink="http://www.w3.org/1999/xlink" x="0px" y="0px"
	 viewBox="0 0 32 32" style="enable-background:new 0 0 32 32;" xml:space="preserve">
<path style="fill:none;stroke:#000000;stroke-width:2;stroke-miterlimit:10;" d="M19.077,25H28c0-15.992-6.203-18-8.75-18l-1.125-2
	C11.727,5,4,7.019,4,25h9.025"/>
<path style="fill:none;stroke:#000000;stroke-width:2;stroke-miterlimit:10;" d="M19,11c0,5.409-10,1.091-10,6c0,3.909,2.855,9,7,9
	s7-5.071,7-9"/>
<path d="M11.001,16.97c-0.04,1.464,0.875,2.914,2.515,3.024C14.674,20.071,16,19.433,16,17.645c0-1.24-0.89-1.429-2.484-1.563
	S11.033,15.835,11.001,16.97z"/>
<path d="M20.999,16.97c0.04,1.464-0.875,2.914-2.515,3.024C17.326,20.072,16,19.433,16,17.645c0-1.24,0.89-1.429,2.484-1.563
	C20.077,15.948,20.967,15.835,20.999,16.97z"/>
<line style="fill:none;stroke:#000000;stroke-width:2;stroke-miterlimit:10;" x1="9" y1="17" x2="12" y2="17"/>
<line style="fill:none;stroke:#000000;stroke-width:2;stroke-miterlimit:10;" x1="20" y1="17" x2="23" y2="17"/>
<line style="fill:none;stroke:#000000;stroke-width:2;stroke-miterlimit:10;" x1="23" y1="17" x2="23" y2="16"/>
</svg>
