<?xml version="1.0" encoding="iso-8859-1"?>
<!-- Generator: Adobe Illustrator 19.1.1, SVG Export Plug-In . SVG Version: 6.00 Build 0)  -->
<svg version="1.1" id="Layer_1" xmlns="http://www.w3.org/2000/svg" xmlns:xlink="http://www.w3.org/1999/xlink" x="0px" y="0px"
	 viewBox="0 0 32 32" style="enable-background:new 0 0 32 32;" xml:space="preserve">
<path style="fill:none;stroke:#000000;stroke-width:2;stroke-miterlimit:10;" d="M17,11c-1.625,3.063-2,6.625-2,11"/>
<path style="fill:none;stroke:#000000;stroke-width:2;stroke-miterlimit:10;" d="M18.825,17.084C23.531,17.656,27,19.622,27,21.958
	C27,24.743,22.075,27,16,27S5,24.743,5,21.958c0-2.053,2.678-3.82,6.519-4.606"/>
<path style="fill:none;stroke:#000000;stroke-width:2;stroke-miterlimit:10;" d="M12,23.635c-1.814-0.368-3-0.979-3-1.67
	C9,20.75,11.045,20,11.045,20C11.528,11.725,14.582,8.678,17,6c0,0-1.938-1-5.125-1"/>
<path style="fill:none;stroke:#000000;stroke-width:2;stroke-miterlimit:10;" d="M27,5c-2.306,0-3.306,0.174-5.027,0.917
	C19.437,9.875,19,14.563,19,20.126c0,0,4,0.499,4,1.839C23,23.089,19.866,24,16,24"/>
</svg>
