<?xml version="1.0" encoding="iso-8859-1"?>
<!-- Generator: Adobe Illustrator 19.1.1, SVG Export Plug-In . SVG Version: 6.00 Build 0)  -->
<svg version="1.1" id="Layer_1" xmlns="http://www.w3.org/2000/svg" xmlns:xlink="http://www.w3.org/1999/xlink" x="0px" y="0px"
	 viewBox="0 0 32 32" style="enable-background:new 0 0 32 32;" xml:space="preserve">
<path style="fill:none;stroke:#000000;stroke-width:2;stroke-miterlimit:10;" d="M6,28v-2c0-4.4,3.6-8,8-8h4c4.4,0,8,3.6,8,8v2H6z"
	/>
<path style="fill:none;stroke:#000000;stroke-width:2;stroke-miterlimit:10;" d="M18.5,18h-5c-0.825,0-1.5-0.675-1.5-1.5v0
	c0-0.825,0.675-1.5,1.5-1.5h5c0.825,0,1.5,0.675,1.5,1.5v0C20,17.325,19.325,18,18.5,18z"/>
<circle cx="16" cy="23" r="2"/>
<path style="fill:none;stroke:#000000;stroke-width:2;stroke-miterlimit:10;" d="M15,15l0.724-8.62C15.884,5.578,16.589,5,17.407,5
	H25"/>
<line style="fill:none;stroke:#000000;stroke-width:2;stroke-miterlimit:10;" x1="17" y1="15" x2="16" y2="6"/>
<line style="fill:none;stroke:#000000;stroke-width:2;stroke-miterlimit:10;" x1="25" y1="3" x2="25" y2="7"/>
</svg>
