<?xml version="1.0" encoding="iso-8859-1"?>
<!-- Generator: Adobe Illustrator 21.1.0, SVG Export Plug-In . SVG Version: 6.00 Build 0)  -->
<svg version="1.1" id="Layer_1" xmlns="http://www.w3.org/2000/svg" xmlns:xlink="http://www.w3.org/1999/xlink" x="0px" y="0px"
	 viewBox="0 0 32 32" style="enable-background:new 0 0 32 32;" xml:space="preserve">
<line style="fill:none;stroke:#000000;stroke-width:2;stroke-linejoin:round;stroke-miterlimit:10;" x1="4" y1="5" x2="28" y2="5"/>
<path style="fill:none;stroke:#000000;stroke-width:2;stroke-linejoin:round;stroke-miterlimit:10;" d="M7,5v20c0,1.105,0.895,2,2,2
	h14c1.105,0,2-0.895,2-2V5"/>
<path style="fill:none;stroke:#000000;stroke-width:2;stroke-miterlimit:10;" d="M11.667,20.336c-1.55-1.548-0.14-5.663,1.613-7.413
	c1.612-1.61,2.898-1.003,4.853,0.949s2.543,3.256,0.951,4.845C17.33,20.468,13.217,21.884,11.667,20.336z"/>
<path d="M21,11c0,0-1.876,0.226-2.675,1.025S17.5,14.5,17.5,14.5s1.727-0.078,2.475-0.825C20.722,12.927,21,11,21,11z"/>
<path d="M16.607,10c0,0,1.71,0.942,1.931,1.985c0.221,1.043-0.731,2.643-0.731,2.643s-1.565-1.329-1.772-2.305S16.607,10,16.607,10z
	"/>
<path d="M22,15.436c0,0-0.919-1.724-1.963-1.966c-1.044-0.242-2.665,0.674-2.665,0.674s1.31,1.588,2.287,1.814
	C20.635,16.184,22,15.436,22,15.436z"/>
</svg>
