<?xml version="1.0" encoding="iso-8859-1"?>
<!-- Generator: Adobe Illustrator 19.1.0, SVG Export Plug-In . SVG Version: 6.00 Build 0)  -->
<svg version="1.1" id="Layer_1" xmlns="http://www.w3.org/2000/svg" xmlns:xlink="http://www.w3.org/1999/xlink" x="0px" y="0px"
	 viewBox="0 0 32 32" style="enable-background:new 0 0 32 32;" xml:space="preserve">
<path style="fill:none;stroke:#000000;stroke-width:2;stroke-miterlimit:10;" d="M24,14c-0.088,0-0.169,0.021-0.256,0.026
	C22.864,10.564,19.736,8,16,8c-2.565,0-4.842,1.212-6.306,3.089C9.47,11.036,9.24,11,9,11c-1.657,0-3,1.343-3,3
	c0,0.137,0.023,0.268,0.04,0.4C4.253,15.163,3,16.934,3,19c0,2.761,2.239,5,5,5c1.35,0,14.65,0,16,0c2.761,0,5-2.239,5-5
	S26.761,14,24,14z"/>
<polyline style="fill:none;stroke:#000000;stroke-width:2;stroke-miterlimit:10;" points="12,16 15,19 20,14 "/>
</svg>
