<?xml version="1.0" encoding="iso-8859-1"?>
<!-- Generator: Adobe Illustrator 19.1.1, SVG Export Plug-In . SVG Version: 6.00 Build 0)  -->
<svg version="1.1"  xmlns="http://www.w3.org/2000/svg" xmlns:xlink="http://www.w3.org/1999/xlink" x="0px" y="0px"
	 viewBox="0 0 32 32" style="enable-background:new 0 0 32 32;" xml:space="preserve">
<circle style="fill:none;stroke:#000000;stroke-width:2;stroke-miterlimit:10;" cx="16" cy="16" r="11"/>
<polygon points="15,17 10,17 10,22 "/>
<g>
	<path d="M12.142,15c0.447-1.721,1.999-3,3.858-3s3.411,1.279,3.858,3h2.052c-0.478-2.833-2.942-5-5.91-5s-5.431,2.167-5.91,5
		H12.142z"/>
	<path d="M19.858,17c-0.447,1.721-1.999,3-3.858,3s-3.411-1.279-3.858-3H10.09c0.478,2.833,2.942,5,5.91,5s5.431-2.167,5.91-5
		H19.858z"/>
</g>
<polygon points="17,15 22,15 22,10 "/>
</svg>
