<?xml version="1.0" encoding="iso-8859-1"?>
<!-- Generator: Adobe Illustrator 21.0.0, SVG Export Plug-In . SVG Version: 6.00 Build 0)  -->
<svg version="1.1"  xmlns="http://www.w3.org/2000/svg" xmlns:xlink="http://www.w3.org/1999/xlink" x="0px" y="0px"
	 viewBox="0 0 32 32" style="enable-background:new 0 0 32 32;" xml:space="preserve">
<circle cx="18" cy="24" r="1"/>
<circle cx="21" cy="24" r="1"/>
<circle cx="24.333" cy="23.958" r="1"/>
<circle cx="27.396" cy="23.021" r="1"/>
<circle cx="28.99" cy="20.51" r="1"/>
<circle cx="28.198" cy="17.354" r="1"/>
<circle cx="26.208" cy="15" r="1"/>
<circle cx="23.417" cy="13.75" r="1"/>
<circle cx="23" cy="11" r="1"/>
<circle cx="21" cy="9" r="1"/>
<circle cx="18" cy="8" r="1"/>
<circle cx="15" cy="8" r="1"/>
<circle cx="12" cy="9" r="1"/>
<circle cx="10.125" cy="10.969" r="1"/>
<ellipse transform="matrix(0.5558 -0.8313 0.8313 0.5558 -6.2755 11.2344)" cx="7.375" cy="11.49" rx="1" ry="1"/>
<circle cx="5.167" cy="13.333" r="1"/>
<circle cx="4" cy="16" r="1"/>
<circle cx="3" cy="19" r="1"/>
<circle cx="3.812" cy="22.062" r="1"/>
<circle cx="15" cy="24" r="1"/>
<circle cx="12" cy="24" r="1"/>
<circle cx="9" cy="24" r="1"/>
<circle cx="6" cy="24" r="1"/>
</svg>
