<?xml version="1.0" encoding="iso-8859-1"?>
<!-- Generator: Adobe Illustrator 21.0.0, SVG Export Plug-In . SVG Version: 6.00 Build 0)  -->
<svg version="1.1"  xmlns="http://www.w3.org/2000/svg" xmlns:xlink="http://www.w3.org/1999/xlink" x="0px" y="0px"
	 viewBox="0 0 32 32" style="enable-background:new 0 0 32 32;" xml:space="preserve">
<line style="fill:none;stroke:#000000;stroke-width:2;stroke-miterlimit:10;" x1="5" y1="6" x2="28" y2="29"/>
<g>
	<path d="M24.484,13.02C23.232,9.438,19.85,7,16,7c-2.586,0-5,1.09-6.71,3.012c-0.535-0.046-1.043,0.024-1.515,0.172l1.929,1.934
		l0.384,0.091l0.395-0.505C11.823,9.985,13.834,9,16,9c3.2,0,5.986,2.168,6.775,5.272l0.202,0.798l0.822-0.046
		c0.064-0.004,0.127-0.011,0.222-0.024C26.217,15.012,28,16.802,28,19c0,2.206-1.794,4-4,4h-3.444l1.995,2H24c3.309,0,6-2.691,6-6
		C30,15.854,27.567,13.267,24.484,13.02z"/>
	<path d="M17.732,23H8c-2.206,0-4-1.794-4-4c0-1.604,0.955-3.049,2.433-3.681l0.692-0.379L7.02,14.183C7.011,14.123,7,14.062,7,14
		c0-0.49,0.184-0.934,0.478-1.282l-1.419-1.422c-0.609,0.672-1.007,1.541-1.054,2.505C3.159,14.863,2,16.834,2,19
		c0,3.309,2.691,6,6,6h11.726L17.732,23z"/>
</g>
</svg>
