<?xml version="1.0" encoding="iso-8859-1"?>
<!-- Generator: Adobe Illustrator 22.1.0, SVG Export Plug-In . SVG Version: 6.00 Build 0)  -->
<svg version="1.1" id="Layer_1" xmlns="http://www.w3.org/2000/svg" xmlns:xlink="http://www.w3.org/1999/xlink" x="0px" y="0px"
	 viewBox="0 0 32 32" style="enable-background:new 0 0 32 32;" xml:space="preserve">
<circle style="fill:none;stroke:#000000;stroke-width:2;stroke-miterlimit:10;" cx="16" cy="16" r="11"/>
<path style="fill:none;stroke:#000000;stroke-width:2;stroke-miterlimit:10;" d="M11,16l2.04,0c1.082,0,1.96,0.858,1.96,1.94v0.05
	c0,1.114-0.895,2.01-2,2.01h-2c-1.105,0-2-0.895-2-2v-0.5"/>
<path style="fill:none;stroke:#000000;stroke-width:2;stroke-miterlimit:10;" d="M11,16h2c1.105,0,2-0.895,2-2v0
	c0-1.105-0.895-2-2-2h-2c-1.105,0-2,0.895-2,2v0.5"/>
<path style="fill:none;stroke:#000000;stroke-width:2;stroke-miterlimit:10;" d="M23,15c0-1.657-1.343-3-3-3h-2v8h2
	c1.657,0,3-1.343,3-3V15z"/>
</svg>
