<?xml version="1.0" encoding="iso-8859-1"?>
<!-- Generator: Adobe Illustrator 18.1.1, SVG Export Plug-In . SVG Version: 6.00 Build 0)  -->
<svg version="1.1" id="Layer_1" xmlns="http://www.w3.org/2000/svg" xmlns:xlink="http://www.w3.org/1999/xlink" x="0px" y="0px"
	 viewBox="0 0 32 32" style="enable-background:new 0 0 32 32;" xml:space="preserve">
<path style="fill:none;stroke:#000000;stroke-width:2;stroke-miterlimit:10;" d="M25.816,14.598L25.816,14.598
	c-0.774,0.774-2.03,0.774-2.805,0l-5.609-5.609c-0.774-0.774-0.774-2.03,0-2.805l0,0c0.774-0.774,2.03-0.774,2.805,0l5.609,5.609
	C26.59,12.568,26.59,13.823,25.816,14.598z"/>
<path style="fill:none;stroke:#000000;stroke-width:2;stroke-miterlimit:10;" d="M27.919,11.092L27.919,11.092
	c-0.774,0.774-2.03,0.774-2.805,0l-4.207-4.207c-0.774-0.774-0.774-2.03,0-2.805l0,0c0.774-0.774,2.03-0.774,2.805,0l4.207,4.207
	C28.694,9.062,28.694,10.318,27.919,11.092z"/>
<line style="fill:none;stroke:#000000;stroke-width:2;stroke-miterlimit:10;" x1="25.816" y1="6.184" x2="27.218" y2="4.782"/>
<line style="fill:none;stroke:#000000;stroke-width:2;stroke-miterlimit:10;" x1="11.793" y1="20.207" x2="20.207" y2="11.793"/>
<path style="fill:none;stroke:#000000;stroke-width:2;stroke-miterlimit:10;" d="M6.184,17.402L6.184,17.402
	c0.774-0.774,2.03-0.774,2.805,0l5.609,5.609c0.774,0.774,0.774,2.03,0,2.805l0,0c-0.774,0.774-2.03,0.774-2.805,0l-5.609-5.609
	C5.41,19.432,5.41,18.177,6.184,17.402z"/>
<path style="fill:none;stroke:#000000;stroke-width:2;stroke-miterlimit:10;" d="M4.081,20.908L4.081,20.908
	c0.774-0.774,2.03-0.774,2.805,0l4.207,4.207c0.774,0.774,0.774,2.03,0,2.805l0,0c-0.774,0.774-2.03,0.774-2.805,0l-4.207-4.207
	C3.306,22.938,3.306,21.682,4.081,20.908z"/>
<line style="fill:none;stroke:#000000;stroke-width:2;stroke-miterlimit:10;" x1="6.184" y1="25.816" x2="4.782" y2="27.218"/>
</svg>
