<?xml version="1.0" encoding="iso-8859-1"?>
<!-- Generator: Adobe Illustrator 19.1.1, SVG Export Plug-In . SVG Version: 6.00 Build 0)  -->
<svg version="1.1" id="Layer_1" xmlns="http://www.w3.org/2000/svg" xmlns:xlink="http://www.w3.org/1999/xlink" x="0px" y="0px"
	 viewBox="0 0 32 32" style="enable-background:new 0 0 32 32;" xml:space="preserve">
<rect x="10" y="5" style="fill:none;stroke:#000000;stroke-width:2;stroke-miterlimit:10;" width="12" height="4"/>
<g>
	<path style="fill:none;stroke:#000000;stroke-width:2;stroke-linejoin:round;stroke-miterlimit:10;" d="M15,16v-0.973
		c0-0.916-0.923-2-2-2c-1.109,0-2,1.084-2,2.027c0,4.626,8,2.932,8,6.025c0,3.011-5,1.92-5,4.336c0,1.625,4,2.611,4,2.611"/>
</g>
<g>
	<path style="fill:none;stroke:#000000;stroke-width:2;stroke-linejoin:round;stroke-miterlimit:10;" d="M17,16v-1
		c0-0.916,0.923-2,2-2c1.109,0,2,1.084,2,2.027c0,4.626-8,3.005-8,6.053c0,3.011,5,1.961,5,4.336c0,1.708-3.918,2.611-3.918,2.611"
		/>
</g>
<line style="fill:none;stroke:#000000;stroke-width:2;stroke-linejoin:round;stroke-miterlimit:10;" x1="10" y1="3" x2="10" y2="11"/>
<line style="fill:none;stroke:#000000;stroke-width:2;stroke-linejoin:round;stroke-miterlimit:10;" x1="22" y1="3" x2="22" y2="11"/>
<path d="M15.988,12.465c0.286-0.34,0.628-0.638,1.012-0.878V9h-2v2.635C15.369,11.867,15.71,12.139,15.988,12.465z"/>
</svg>
