<?xml version="1.0" encoding="iso-8859-1"?>
<!-- Generator: Adobe Illustrator 19.1.1, SVG Export Plug-In . SVG Version: 6.00 Build 0)  -->
<svg version="1.1" id="Layer_1" xmlns="http://www.w3.org/2000/svg" xmlns:xlink="http://www.w3.org/1999/xlink" x="0px" y="0px"
	 viewBox="0 0 32 32" style="enable-background:new 0 0 32 32;" xml:space="preserve">
<path style="fill:none;stroke:#000000;stroke-width:2;stroke-miterlimit:10;" d="M28,27c-8.595,0-11-9-11-9"/>
<path style="fill:none;stroke:#000000;stroke-width:2;stroke-miterlimit:10;" d="M13.103,6.315c0.302-1.179,1.118-1.435,1.737-1.27
	c1.458,0.387,1.789,1.299,3.397,1.726s2.066-0.275,3.547,0.118c0.619,0.165,1.454,0.859,1.152,2.038
	c-0.742,2.892-6.815,7.576-6.815,7.576S12.361,9.207,13.103,6.315z"/>
<path style="fill:none;stroke:#000000;stroke-width:2;stroke-miterlimit:10;" d="M9.082,24.111
	c-0.302,1.185,0.286,1.818,0.904,1.983c1.456,0.39,2.181-0.245,3.786,0.185c1.606,0.43,1.667,1.275,3.145,1.67
	c0.618,0.165,1.678-0.026,1.98-1.211c0.741-2.908-2.959-10.097-2.959-10.097S9.822,21.203,9.082,24.111z"/>
<path style="fill:none;stroke:#000000;stroke-width:2;stroke-miterlimit:10;" d="M8.889,10.082
	c-1.185-0.302-1.818,0.286-1.983,0.904c-0.39,1.456,0.245,2.181-0.185,3.786c-0.43,1.606-1.275,1.667-1.67,3.145
	c-0.165,0.618,0.026,1.678,1.211,1.98c2.908,0.741,9.63-3.394,9.63-3.394S11.797,10.822,8.889,10.082z"/>
<path style="fill:none;stroke:#000000;stroke-width:2;stroke-miterlimit:10;" d="M25.685,13.103c1.179,0.302,1.435,1.118,1.27,1.737
	c-0.387,1.458-1.299,1.789-1.726,3.397c-0.427,1.608,0.275,2.066-0.118,3.547c-0.165,0.619-0.859,1.454-2.038,1.152
	c-2.892-0.742-6.906-6.569-6.906-6.569S22.793,12.361,25.685,13.103z"/>
</svg>
