<?xml version="1.0" encoding="iso-8859-1"?>
<!-- Generator: Adobe Illustrator 19.1.0, SVG Export Plug-In . SVG Version: 6.00 Build 0)  -->
<svg version="1.1" id="Layer_1" xmlns="http://www.w3.org/2000/svg" xmlns:xlink="http://www.w3.org/1999/xlink" x="0px" y="0px"
	 viewBox="0 0 32 32" style="enable-background:new 0 0 32 32;" xml:space="preserve">
<g>
	<path d="M18.316,8.259c0.828,0.322,2.054-0.419,2.545-1.606c0.6-1.204,0.311-2.386-0.517-2.708
		c-0.828-0.322-2.054,0.419-2.545,1.606C17.199,6.755,17.488,7.937,18.316,8.259z"/>
	<path d="M23.757,11.121c0.485,0.262,1.215-0.07,1.569-0.68c0.463-0.626,0.458-1.405-0.01-1.558c-0.485-0.262-1.215,0.07-1.569,0.68
		C23.283,10.189,23.289,10.968,23.757,11.121z"/>
	<path d="M21.72,9.421c0.594,0.245,1.417-0.212,1.863-0.947c0.431-0.844,0.3-1.716-0.294-1.961
		c-0.594-0.245-1.417,0.212-1.863,0.947S21.11,9.066,21.72,9.421z"/>
	<path d="M26.323,12.631c0.496-0.408,0.523-0.97,0.256-1.264c-0.376-0.278-0.904-0.087-1.4,0.321s-0.523,0.97-0.256,1.264
		C25.298,13.23,25.952,13.132,26.323,12.631z"/>
	<path d="M25.412,13.992c-0.387,0.392-0.431,0.844-0.18,1.03c0.251,0.185,0.795,0.104,1.073-0.272
		c0.387-0.392,0.431-0.844,0.18-1.03C26.344,13.519,25.799,13.6,25.412,13.992z"/>
</g>
<circle cx="18" cy="19" r="1"/>
<path style="fill:none;stroke:#000000;stroke-width:2;stroke-miterlimit:10;" d="M21,25h-6v-7.465c0-0.334,0.167-0.647,0.445-0.832
	L18,15l2.555,1.703C20.833,16.889,21,17.201,21,17.535V25z"/>
<path d="M8.533,20.203c2.415-1.163,3.607-3.52,4.66-5.6C14.323,12.369,15.089,11,16.534,11c2.255,0,4.344,1.503,5.129,3.438
	l0.278,0.185c0.976,0.65,1.559,1.739,1.559,2.912v0.418c0.296-0.537,0.5-1.154,0.5-1.887C24,12.302,20.511,9,16.534,9
	c-2.748,0-3.957,2.389-5.126,4.7c-0.953,1.884-1.939,3.833-3.743,4.701C5.9,19.251,4,21.21,4,23.5C4,25.981,6.019,28,8.5,28
	c2.632,0,4.1-1.609,4.977-2.57l0.277-0.3c0.494-0.515,1.09-1.018,1.823-1.536l-1.154-1.634c-0.839,0.593-1.531,1.178-2.114,1.787
	c-0.098,0.103-0.201,0.215-0.31,0.335C11.219,24.937,10.249,26,8.5,26C7.122,26,6,24.878,6,23.5C6,22.151,7.305,20.794,8.533,20.203
	z"/>
</svg>
