<?xml version="1.0" encoding="iso-8859-1"?>
<!-- Generator: Adobe Illustrator 18.1.1, SVG Export Plug-In . SVG Version: 6.00 Build 0)  -->
<svg version="1.1" id="Layer_1" xmlns="http://www.w3.org/2000/svg" xmlns:xlink="http://www.w3.org/1999/xlink" x="0px" y="0px"
	 viewBox="0 0 32 32" style="enable-background:new 0 0 32 32;" xml:space="preserve">
<path style="fill:none;stroke:#000000;stroke-width:2;stroke-miterlimit:10;" d="M24.816,15.598L24.816,15.598
	c-0.774,0.774-2.03,0.774-2.805,0l-5.609-5.609c-0.774-0.774-0.774-2.03,0-2.805l0,0c0.774-0.774,2.03-0.774,2.805,0l5.609,5.609
	C25.59,13.568,25.59,14.823,24.816,15.598z"/>
<path style="fill:none;stroke:#000000;stroke-width:2;stroke-miterlimit:10;" d="M26.919,12.092L26.919,12.092
	c-0.774,0.774-2.03,0.774-2.805,0l-4.207-4.207c-0.774-0.774-0.774-2.03,0-2.805l0,0c0.774-0.774,2.03-0.774,2.805,0l4.207,4.207
	C27.694,10.062,27.694,11.318,26.919,12.092z"/>
<line style="fill:none;stroke:#000000;stroke-width:2;stroke-miterlimit:10;" x1="24.816" y1="7.184" x2="26.218" y2="5.782"/>
<line style="fill:none;stroke:#000000;stroke-width:2;stroke-miterlimit:10;" x1="11.546" y1="17.935" x2="17.935" y2="11.546"/>
<line style="fill:none;stroke:#000000;stroke-width:2;stroke-miterlimit:10;" x1="14.065" y1="20.454" x2="20.454" y2="14.065"/>
<path style="fill:none;stroke:#000000;stroke-width:2;stroke-miterlimit:10;" d="M7.184,16.402L7.184,16.402
	c0.774-0.774,2.03-0.774,2.805,0l5.609,5.609c0.774,0.774,0.774,2.03,0,2.805l0,0c-0.774,0.774-2.03,0.774-2.805,0l-5.609-5.609
	C6.41,18.432,6.41,17.177,7.184,16.402z"/>
<path style="fill:none;stroke:#000000;stroke-width:2;stroke-miterlimit:10;" d="M5.081,19.908L5.081,19.908
	c0.774-0.774,2.03-0.774,2.805,0l4.207,4.207c0.774,0.774,0.774,2.03,0,2.805l0,0c-0.774,0.774-2.03,0.774-2.805,0l-4.207-4.207
	C4.306,21.938,4.306,20.682,5.081,19.908z"/>
<line style="fill:none;stroke:#000000;stroke-width:2;stroke-miterlimit:10;" x1="7.184" y1="24.816" x2="5.782" y2="26.218"/>
</svg>
