<?xml version="1.0" encoding="iso-8859-1"?>
<!-- Generator: Adobe Illustrator 19.2.0, SVG Export Plug-In . SVG Version: 6.00 Build 0)  -->
<svg version="1.1" id="Layer_1" xmlns="http://www.w3.org/2000/svg" xmlns:xlink="http://www.w3.org/1999/xlink" x="0px" y="0px"
	 viewBox="0 0 32 32" style="enable-background:new 0 0 32 32;" xml:space="preserve">
<rect x="8" y="4" style="fill:none;stroke:#000000;stroke-width:2;stroke-miterlimit:10;" width="16" height="24"/>
<rect x="11" y="15" transform="matrix(-1 -1.224647e-016 1.224647e-016 -1 24 34)" width="2" height="4"/>
<rect x="11" y="22" transform="matrix(-1 -1.224647e-016 1.224647e-016 -1 24 50)" width="2" height="6"/>
<rect x="11" y="4" transform="matrix(-1 -1.224647e-016 1.224647e-016 -1 24 16)" width="2" height="8"/>
<rect x="15" y="22" transform="matrix(-1 -1.224647e-016 1.224647e-016 -1 32 50)" width="2" height="6"/>
<rect x="15" y="4" transform="matrix(-1 -1.224647e-016 1.224647e-016 -1 32 23)" width="2" height="15"/>
<rect x="8" y="11" transform="matrix(-1 -1.224647e-016 1.224647e-016 -1 32 24)" width="16" height="2"/>
<rect x="8" y="18" transform="matrix(-1 -1.224647e-016 1.224647e-016 -1 32 38)" width="16" height="2"/>
<rect x="19" y="22" transform="matrix(-1 -1.224647e-016 1.224647e-016 -1 40 50)" width="2" height="6"/>
<rect x="19" y="4" transform="matrix(-1 -1.224647e-016 1.224647e-016 -1 40 17)" width="2" height="9"/>
<path d="M16,13v6h8v-6H16z M22,16c-0.552,0-1-0.448-1-1c0-0.552,0.448-1,1-1s1,0.448,1,1C23,15.552,22.552,16,22,16z"/>
</svg>
