<?xml version="1.0" encoding="iso-8859-1"?>
<!-- Generator: Adobe Illustrator 18.1.1, SVG Export Plug-In . SVG Version: 6.00 Build 0)  -->
<svg version="1.1" id="Layer_1" xmlns="http://www.w3.org/2000/svg" xmlns:xlink="http://www.w3.org/1999/xlink" x="0px" y="0px"
	 viewBox="0 0 32 32" style="enable-background:new 0 0 32 32;" xml:space="preserve">
<path d="M22.144,23.999l-2.485-0.751c-0.453-0.137-0.75-0.579-0.706-1.05l0.885-9.462c0.055-0.591,0.005-1.182-0.148-1.756L17.824,4
	h-2.069l2.002,7.496c0.092,0.345,0.121,0.699,0.088,1.054l-0.885,9.462c-0.131,1.415,0.761,2.739,2.12,3.15l2.736,0.828h-7.503
	c-0.162,0-0.241-0.097-0.279-0.178c-0.037-0.081-0.061-0.204,0.044-0.327L15,24.394l-0.005-5.832l-0.322-0.296
	c-0.062-0.057-1.496-1.424,0.137-3.679l0.564-0.778l-0.756-0.594C11.752,10.96,9.999,6.219,9.303,4H7.212
	c0.551,1.912,2.293,7.182,5.484,10.193c-1.242,2.287-0.502,4.212,0.299,5.197L13,23.662l-0.449,0.531
	c-0.586,0.694-0.713,1.637-0.33,2.461c0.382,0.824,1.185,1.335,2.093,1.335h10.622v-1.136c0-0.786-0.312-1.519-0.881-2.062
	C23.532,24.291,22.859,24.013,22.144,23.999z"/>
</svg>
