<?xml version="1.0" encoding="iso-8859-1"?>
<!-- Generator: Adobe Illustrator 22.0.1, SVG Export Plug-In . SVG Version: 6.00 Build 0)  -->
<svg version="1.1" id="&#x421;&#x43B;&#x43E;&#x439;_1"
	 xmlns="http://www.w3.org/2000/svg" xmlns:xlink="http://www.w3.org/1999/xlink" x="0px" y="0px" viewBox="0 0 32 32"
	 style="enable-background:new 0 0 32 32;" xml:space="preserve">
<line style="fill:none;stroke:#000000;stroke-width:2;stroke-miterlimit:10;" x1="9" y1="23" x2="16" y2="23"/>
<path style="fill:none;stroke:#000000;stroke-width:2;stroke-miterlimit:10;" d="M11,5v4c0,1.102,0.898,2,2,2c1.102,0,2-0.898,2-2"
	/>
<path style="fill:none;stroke:#000000;stroke-width:2;stroke-miterlimit:10;" d="M15,5v4c0,1.102,0.898,2,2,2s2-0.898,2-2"/>
<path style="fill:none;stroke:#000000;stroke-width:2;stroke-miterlimit:10;" d="M19,5v4c0,1.102,0.898,2,2,2c1.102,0,2-0.898,2-2"
	/>
<path style="fill:none;stroke:#000000;stroke-width:2;stroke-miterlimit:10;" d="M16,27h-5c-1.105,0-2-0.895-2-2V7
	c0-1.105,0.895-2,2-2h10c1.105,0,2,0.895,2,2v7"/>
<path d="M23,22v-2c0-1.1,0.9-2,2-2s2,0.9,2,2h2c0-2.2-1.8-4-4-4s-4,1.8-4,4v2h-3v10h14V22H23z M30,30H20v-6h10V30z"/>
</svg>
