<?xml version="1.0" encoding="iso-8859-1"?>
<!-- Generator: Adobe Illustrator 19.1.1, SVG Export Plug-In . SVG Version: 6.00 Build 0)  -->
<svg version="1.1" id="Layer_1" xmlns="http://www.w3.org/2000/svg" xmlns:xlink="http://www.w3.org/1999/xlink" x="0px" y="0px"
	 viewBox="0 0 32 32" style="enable-background:new 0 0 32 32;" xml:space="preserve">
<path style="fill:none;stroke:#000000;stroke-width:2;stroke-miterlimit:10;" d="M27.75,15.609c0,0-1.868-4.305-2.449-5.451
	C24.685,8.942,23.794,8,22.685,8H9.314c-1.109,0-2,0.942-2.616,2.158c-0.581,1.147-2.323,5.107-2.323,5.107"/>
<path style="fill:none;stroke:#000000;stroke-width:2;stroke-linecap:round;stroke-linejoin:round;stroke-miterlimit:10;" d="M16,16
	c-2.762,0-5,2.239-5,4.999S13.238,26,16,26s5-2.241,5-5.001S18.762,16,16,16L16,16z"/>
<path style="fill:none;stroke:#000000;stroke-width:2;stroke-miterlimit:10;" d="M20,23h4c2.2,0,4-1.8,4-4v-2c0-2.2-1.8-4-4-4H8
	c-2.2,0-4,1.8-4,4v2c0,2.2,1.8,4,4,4h4"/>
<path style="fill:none;stroke:#000000;stroke-width:2.092;stroke-miterlimit:10;" d="M10,7.5C10,6.119,11.119,5,12.5,5
	S15,6.119,15,7.5"/>
<path style="fill:none;stroke:#000000;stroke-width:2.092;stroke-miterlimit:10;" d="M17,7.5C17,6.119,18.119,5,19.5,5
	S22,6.119,22,7.5"/>
<line style="fill:none;stroke:#000000;stroke-width:2.092;stroke-miterlimit:10;" x1="15" y1="6" x2="17" y2="6"/>
</svg>
