<?xml version="1.0" encoding="utf-8"?>
<!-- Generator: Adobe Illustrator 18.1.1, SVG Export Plug-In . SVG Version: 6.00 Build 0)  -->
<svg version="1.1" id="Layer_1" xmlns="http://www.w3.org/2000/svg" xmlns:xlink="http://www.w3.org/1999/xlink" x="0px" y="0px"
	 viewBox="0 0 32 32" enable-background="new 0 0 32 32" xml:space="preserve">
<path fill="none" stroke="#000000" stroke-width="2" stroke-miterlimit="10" d="M25,14v7h2c0.6,0,1-0.4,1-1v-5c0-0.6-0.4-1-1-1H25"
	/>
<circle cx="19.5" cy="17.5" r="1.5"/>
<circle cx="12.5" cy="17.5" r="1.5"/>
<path fill="none" stroke="#000000" stroke-width="2" stroke-miterlimit="10" d="M16.5,24H24c1.7,0,3-1.3,3-3v0"/>
<circle cx="16.5" cy="23.5" r="1.5"/>
<path fill="none" stroke="#000000" stroke-width="2" stroke-miterlimit="10" d="M26,14c0-5.5-4.5-10-10-10S6,8.5,6,14
	c0,0.3,0,1.4,0,1.7"/>
<path fill="none" stroke="#000000" stroke-width="2" stroke-miterlimit="10" d="M19,8c0,8.8-12,2.1-12,7.2c-1.1,0.3-2,1.5-2,2.8
	c0,1.4,0.9,2.5,2.2,2.9C8.1,24.9,11.7,28,16,28c3.1,0,5.8-1.5,7.4-3.9"/>
<path fill="none" stroke="#000000" stroke-width="2" stroke-miterlimit="10" d="M25,14c0-2.2-6,0.8-6-6"/>
</svg>
