<?xml version="1.0" encoding="iso-8859-1"?>
<!-- Generator: Adobe Illustrator 19.1.1, SVG Export Plug-In . SVG Version: 6.00 Build 0)  -->
<svg version="1.1" id="Layer_1" xmlns="http://www.w3.org/2000/svg" xmlns:xlink="http://www.w3.org/1999/xlink" x="0px" y="0px"
	 viewBox="0 0 32 32" style="enable-background:new 0 0 32 32;" xml:space="preserve">
<circle style="fill:none;stroke:#000000;stroke-width:2;stroke-miterlimit:10;" cx="9" cy="13" r="5"/>
<path style="fill:none;stroke:#000000;stroke-width:2;stroke-miterlimit:10;" d="M2,25c0-3.866,3.134-7,7-7s7,3.134,7,7"/>
<circle style="fill:none;stroke:#000000;stroke-width:2;stroke-miterlimit:10;" cx="24" cy="24" r="7"/>
<g>
	<path d="M17,24c0-3.866,3.134-7,7-7c1.006,0,1.96,0.216,2.825,0.598C28.147,16.497,29,14.851,29,13c0-3.309-2.691-6-6-6
		s-6,2.691-6,6c0,1.985,0.973,3.743,2.463,4.835C16.823,19.144,15,21.86,15,25h2c0-0.169,0.012-0.334,0.025-0.499
		C17.013,24.335,17,24.169,17,24z M19,13c0-2.206,1.794-4,4-4s4,1.794,4,4s-1.794,4-4,4S19,15.206,19,13z"/>
	<path d="M30.92,25H31c0-0.14-0.023-0.273-0.03-0.411C30.959,24.727,30.94,24.864,30.92,25z"/>
</g>
<polygon points="26,20 22,20 21,25 23,25 23.625,22 26,22 "/>
<path d="M25.1,23H22v-2l-0.7,4h3.1h0.1c0.275,0,0.5,0.225,0.5,0.5c0,0.275-0.225,0.5-0.5,0.5h-0.1h-0.8h-2.554
	c0.216,1.237,1.227,2.1,2.554,2.1h0.8c1.5-0.1,2.6-1.2,2.6-2.6C27,24.3,26.2,23.3,25.1,23z"/>
</svg>
