<?xml version="1.0" encoding="utf-8"?>
<!-- Generator: Adobe Illustrator 18.1.1, SVG Export Plug-In . SVG Version: 6.00 Build 0)  -->
<svg version="1.1" id="Layer_1" xmlns="http://www.w3.org/2000/svg" xmlns:xlink="http://www.w3.org/1999/xlink" x="0px" y="0px"
	 viewBox="0 0 32 32" enable-background="new 0 0 32 32" xml:space="preserve">
<rect x="4" y="4" width="2" height="2"/>
<rect x="4" y="16" width="2" height="2"/>
<rect x="4" y="12" width="2" height="2"/>
<rect x="4" y="8" width="2" height="2"/>
<rect x="4" y="20" width="2" height="2"/>
<rect x="24" y="12" width="2" height="2"/>
<rect x="24" y="8" width="2" height="2"/>
<rect x="24" y="4" width="2" height="2"/>
<rect x="20" y="4" width="2" height="2"/>
<rect x="16" y="4" width="2" height="2"/>
<rect x="12" y="4" width="2" height="2"/>
<rect x="8" y="4" width="2" height="2"/>
<polygon fill="none" stroke="#000000" stroke-width="2" stroke-miterlimit="10" points="22.5,16 21,14 15,14 13.5,16 9,16 9,27 
	27,27 27,16 "/>
<circle fill="none" stroke="#000000" stroke-width="2" stroke-miterlimit="10" cx="18" cy="21" r="3"/>
</svg>
