<?xml version="1.0" encoding="iso-8859-1"?>
<!-- Generator: Adobe Illustrator 19.1.0, SVG Export Plug-In . SVG Version: 6.00 Build 0)  -->
<svg version="1.1" id="Layer_1" xmlns="http://www.w3.org/2000/svg" xmlns:xlink="http://www.w3.org/1999/xlink" x="0px" y="0px"
	 viewBox="0 0 32 32" style="enable-background:new 0 0 32 32;" xml:space="preserve">
<line style="fill:none;stroke:#000000;stroke-width:2;stroke-miterlimit:10;" x1="16" y1="26" x2="16" y2="21"/>
<polygon points="12.5,25 16,28.5 19.5,25 "/>
<polyline style="fill:none;stroke:#000000;stroke-width:2;stroke-miterlimit:10;" points="26,6 26,21 6,21 6,6 "/>
<path style="fill:none;stroke:#000000;stroke-width:2;stroke-miterlimit:10;" d="M15.562,13.438C13.871,15.129,12.5,16.5,12.5,16.5
	S13.871,15.129,15.562,13.438S19.5,9.5,19.5,9.5S17.254,11.746,15.562,13.438z"/>
<path style="fill:none;stroke:#000000;stroke-width:2;stroke-miterlimit:10;" d="M15.562,12.562C13.871,10.871,12.5,9.5,12.5,9.5
	S13.871,10.871,15.562,12.562S19.5,16.5,19.5,16.5S17.254,14.254,15.562,12.562z"/>
</svg>
