<?xml version="1.0" encoding="iso-8859-1"?>
<!-- Generator: Adobe Illustrator 19.1.0, SVG Export Plug-In . SVG Version: 6.00 Build 0)  -->
<svg version="1.1" id="Layer_1" xmlns="http://www.w3.org/2000/svg" xmlns:xlink="http://www.w3.org/1999/xlink" x="0px" y="0px"
	 viewBox="0 0 32 32" style="enable-background:new 0 0 32 32;" xml:space="preserve">
<path style="fill:none;stroke:#000000;stroke-width:2;stroke-miterlimit:10;" d="M16.354,19.064l-0.707,0.707
	c-1.562,1.562-4.095,1.562-5.657,0l0,0c-1.562-1.562-1.562-4.095,0-5.657l0.707-0.707"/>
<line style="fill:none;stroke:#000000;stroke-width:2;stroke-miterlimit:10;" x1="9.99" y1="19.771" x2="6.454" y2="23.306"/>
<path d="M12.818,15.528l-1.414,1.414c-0.391,0.391-0.391,1.024,0,1.414h0c0.391,0.391,1.024,0.391,1.414,0l1.414-1.414
	L12.818,15.528z"/>
<line style="fill:none;stroke:#000000;stroke-width:2;stroke-linecap:round;stroke-linejoin:round;stroke-miterlimit:10;" x1="15.646" y1="7.043" x2="22.718" y2="14.114"/>
<line style="fill:none;stroke:#000000;stroke-width:2;stroke-linecap:round;stroke-linejoin:round;stroke-miterlimit:10;" x1="13.525" y1="9.164" x2="20.596" y2="16.235"/>
<path style="fill:none;stroke:#000000;stroke-width:2;stroke-linecap:round;stroke-linejoin:round;stroke-miterlimit:10;" d="
	M11.404,11.286l8.397,8.397c0.8,0.8,1.2,1.8,1.2,2.9"/>
<line style="fill:none;stroke:#000000;stroke-width:2;stroke-linejoin:round;stroke-miterlimit:10;" x1="21" y1="22.589" x2="21" y2="28"/>
<line style="fill:none;stroke:#000000;stroke-width:2;stroke-miterlimit:10;" x1="17.768" y1="6.336" x2="19.889" y2="4.214"/>
<line style="fill:none;stroke:#000000;stroke-width:2;stroke-miterlimit:10;" x1="20.596" y1="9.164" x2="22.718" y2="7.043"/>
<line style="fill:none;stroke:#000000;stroke-width:2;stroke-miterlimit:10;" x1="23.425" y1="11.993" x2="25.546" y2="9.871"/>
</svg>
