<?xml version="1.0" encoding="iso-8859-1"?>
<!-- Generator: Adobe Illustrator 19.1.1, SVG Export Plug-In . SVG Version: 6.00 Build 0)  -->
<svg version="1.1" id="Layer_1" xmlns="http://www.w3.org/2000/svg" xmlns:xlink="http://www.w3.org/1999/xlink" x="0px" y="0px"
	 viewBox="0 0 32 32" style="enable-background:new 0 0 32 32;" xml:space="preserve">
<path style="fill:none;stroke:#000000;stroke-width:2;stroke-miterlimit:10;" d="M5,6c2,0,6,1.438,6,5c-0.012,3.294-6,6.087-6,10
	c0,5.065,4.541,6,5.958,6"/>
<path style="fill:none;stroke:#000000;stroke-width:2;stroke-miterlimit:10;" d="M26,26c-3.188,0-10-1.327-10-5.875
	c0-2.757,2-5.515,2-8.125c0-5.437-5.125-7-7.342-7"/>
<path d="M22.998,12.662c-0.292,0-0.59-0.064-0.871-0.201c-0.994-0.482-1.409-1.678-0.927-2.672c0.639-1.317,1.374-2.548,2.186-3.657
	c0.653-0.892,1.904-1.083,2.795-0.433c0.891,0.652,1.085,1.904,0.433,2.795c-0.67,0.916-1.281,1.938-1.814,3.04
	C24.454,12.247,23.74,12.662,22.998,12.662z"/>
<path d="M22.998,12.662c-0.292,0-0.59-0.064-0.871-0.201c-0.994-0.482-1.409-1.678-0.927-2.672c0.639-1.317,1.374-2.548,2.186-3.657
	c0.653-0.892,1.904-1.083,2.795-0.433c0.891,0.652,1.085,1.904,0.433,2.795c-0.67,0.916-1.281,1.938-1.814,3.04
	C24.454,12.247,23.74,12.662,22.998,12.662z"/>
<g>
	<path d="M22.127,12.461c0.281,0.136,0.579,0.201,0.871,0.201c0.079,0,0.154-0.023,0.232-0.032c0.99-2.466,2.414-4.911,4.468-6.914
		l-1.396-1.432c-2.272,2.215-3.837,4.874-4.919,7.539C21.571,12.085,21.817,12.31,22.127,12.461z"/>
	<path d="M22.847,13.645c-0.401-0.02-0.791-0.107-1.157-0.284c-0.268-0.13-0.497-0.305-0.707-0.497
		c-2.18,6.042-1.997,11.817-1.983,12.176l1.998-0.079C20.996,24.879,20.82,19.359,22.847,13.645z"/>
</g>
<path style="fill:none;stroke:#000000;stroke-width:2;stroke-miterlimit:10;" d="M22,25c0,0-0.208-6.125,5-12"/>
<path style="fill:none;stroke:#000000;stroke-width:2;stroke-miterlimit:10;" d="M24,26c0,0-0.417-5.042,4-8.002"/>
</svg>
