<?xml version="1.0" encoding="iso-8859-1"?>
<!-- Generator: Adobe Illustrator 21.0.2, SVG Export Plug-In . SVG Version: 6.00 Build 0)  -->
<svg version="1.1"  xmlns="http://www.w3.org/2000/svg" xmlns:xlink="http://www.w3.org/1999/xlink" x="0px" y="0px"
	 viewBox="0 0 32 32" style="enable-background:new 0 0 32 32;" xml:space="preserve">
<path d="M25,10h-3v3h3V10L25,10z"/>
<rect x="22" y="16" width="3" height="2"/>
<path style="fill:none;stroke:#000000;stroke-width:2;stroke-miterlimit:10;" d="M19,19c0,1.105-0.895,2-2,2H4V7h13
	c1.105,0,2,0.895,2,2"/>
<path style="fill:none;stroke:#000000;stroke-width:2;stroke-miterlimit:10;" d="M19,9c0-1.105,0.895-2,2-2h7v14h-7
	c-1.105,0-2-0.895-2-2"/>
<path style="fill:none;stroke:#000000;stroke-width:2;stroke-miterlimit:10;" d="M12.905,11c-0.524,0-1.022,0.186-1.405,0.518
	C11.118,11.186,10.619,11,10.095,11C8.94,11,8,11.9,8,13.007C8,15.286,11.5,17,11.5,17s3.5-1.714,3.5-3.993
	C15,11.9,14.06,11,12.905,11z"/>
<path style="fill:none;stroke:#000000;stroke-width:2;stroke-miterlimit:10;" d="M17.16,23.244
	c-0.282,0.885-1.266,1.388-2.198,1.123L4,21"/>
<path style="fill:none;stroke:#000000;stroke-width:2;stroke-miterlimit:10;" d="M26,21.479L24.239,27l-5.903-1.675
	c-0.931-0.264-1.458-1.196-1.175-2.081"/>
<line style="fill:none;stroke:#000000;stroke-width:2;stroke-miterlimit:10;" x1="18.004" y1="20.605" x2="17.16" y2="23.244"/>
<line style="stroke:#000000;stroke-width:2;stroke-miterlimit:10;" x1="19" y1="10" x2="19" y2="12"/>
<line style="stroke:#000000;stroke-width:2;stroke-miterlimit:10;" x1="19" y1="13" x2="19" y2="15"/>
<line style="stroke:#000000;stroke-width:2;stroke-miterlimit:10;" x1="19" y1="16" x2="19" y2="18"/>
</svg>
