<?xml version="1.0" encoding="iso-8859-1"?>
<!-- Generator: Adobe Illustrator 20.1.0, SVG Export Plug-In . SVG Version: 6.00 Build 0)  -->
<svg version="1.1"  xmlns="http://www.w3.org/2000/svg" xmlns:xlink="http://www.w3.org/1999/xlink" x="0px" y="0px"
	 viewBox="0 0 32 32" style="enable-background:new 0 0 32 32;" xml:space="preserve">
<circle cx="16" cy="16" r="1"/>
<circle cx="20" cy="16" r="1"/>
<circle cx="12" cy="16" r="1"/>
<path style="fill:none;stroke:#000000;stroke-width:2;stroke-linecap:round;stroke-miterlimit:10;" d="M23,27
	c0.68,0,1-0.486,1-1.134V22"/>
<path style="fill:none;stroke:#000000;stroke-width:2;stroke-linecap:round;stroke-miterlimit:10;" d="M19,27
	c0.68,0,1-0.486,1-1.134V22"/>
<path style="fill:none;stroke:#000000;stroke-width:2;stroke-linecap:round;stroke-miterlimit:10;" d="M12,27
	c0.68,0,1-0.486,1-1.134V22"/>
<path style="fill:none;stroke:#000000;stroke-width:2;stroke-linecap:round;stroke-miterlimit:10;" d="M8,27c0.68,0,1-0.486,1-1.134
	V22"/>
<path style="fill:none;stroke:#000000;stroke-width:2;stroke-linecap:round;stroke-linejoin:round;stroke-miterlimit:10;" d="
	M24.816,10C24.928,9.686,25,9.353,25,9c0-1.657-1.343-3-3-3c-0.999,0-1.877,0.493-2.422,1.244C18.926,5.919,17.576,5,16,5
	c-1.312,0-2.467,0.641-3.196,1.617C12.301,6.235,11.68,6,11,6C9.343,6,8,7.343,8,9c0,0.353,0.072,0.686,0.184,1"/>
<rect x="6" y="10" style="fill:none;stroke:#000000;stroke-width:2;stroke-miterlimit:10;" width="20" height="12"/>
</svg>
