<?xml version="1.0" encoding="iso-8859-1"?>
<!-- Generator: Adobe Illustrator 19.1.1, SVG Export Plug-In . SVG Version: 6.00 Build 0)  -->
<svg version="1.1" id="Layer_1" xmlns="http://www.w3.org/2000/svg" xmlns:xlink="http://www.w3.org/1999/xlink" x="0px" y="0px"
	 viewBox="0 0 32 32" style="enable-background:new 0 0 32 32;" xml:space="preserve">
<path style="fill:none;stroke:#000000;stroke-width:2;stroke-miterlimit:10;" d="M26.534,25H5.466C4.656,25,4,24.344,4,23.534
	v-7.068C4,15.656,4.656,15,5.466,15h21.068C27.344,15,28,15.656,28,16.466v7.068C28,24.344,27.344,25,26.534,25z"/>
<polyline style="fill:none;stroke:#000000;stroke-width:2;stroke-miterlimit:10;" points="4,15 16,24 28,15 "/>
<circle cx="8" cy="20" r="2"/>
<circle cx="24" cy="20" r="2"/>
<path style="fill:none;stroke:#000000;stroke-width:2;stroke-miterlimit:10;" d="M4,16l2.525-7.575C6.809,7.574,7.605,7,8.502,7
	h14.996c0.897,0,1.693,0.574,1.977,1.425L28,16"/>
</svg>
