<?xml version="1.0" encoding="iso-8859-1"?>
<!-- Generator: Adobe Illustrator 19.1.1, SVG Export Plug-In . SVG Version: 6.00 Build 0)  -->
<svg version="1.1"  xmlns="http://www.w3.org/2000/svg" xmlns:xlink="http://www.w3.org/1999/xlink" x="0px" y="0px"
	 viewBox="0 0 32 32" style="enable-background:new 0 0 32 32;" xml:space="preserve">
<line style="fill:none;stroke:#000000;stroke-width:2;stroke-miterlimit:10;" x1="5" y1="23" x2="27" y2="23"/>
<polygon style="fill:none;stroke:#000000;stroke-width:2;stroke-miterlimit:10;" points="11,8.657 12.657,7 11,5.343 11,3 8.657,3 
	7,1.343 5.343,3 3,3 3,5.343 1.343,7 3,8.657 3,11 5.343,11 7,12.657 8.657,11 11,11 "/>
<g>
	<polygon points="14,4 14,4.101 15.485,5.586 15.9,6 26,6 26,8 15.9,8 15.485,8.414 14,9.899 14,10 26,10 26,26 6,26 6,15.899 
		5.586,15.485 4.1,14 4,14 4,28 28,28 28,4 	"/>
</g>
</svg>
