<?xml version="1.0" encoding="iso-8859-1"?>
<!-- Generator: Adobe Illustrator 19.1.1, SVG Export Plug-In . SVG Version: 6.00 Build 0)  -->
<svg version="1.1" id="Layer_1" xmlns="http://www.w3.org/2000/svg" xmlns:xlink="http://www.w3.org/1999/xlink" x="0px" y="0px"
	 viewBox="0 0 32 32" style="enable-background:new 0 0 32 32;" xml:space="preserve">
<path style="fill:none;stroke:#000000;stroke-width:2;stroke-miterlimit:10;" d="M14,15.871V27l3.59-0.727v-3.533
	c0.585,0.242,1.222,0.376,1.889,0.376c2.858,0,5.175-2.44,5.175-5.449s-2.317-5.449-5.175-5.449c-0.399,0-0.786,0.052-1.159,0.142
	 M18.632,20.238c-0.375,0-0.729-0.102-1.043-0.282v-4.665c0.313-0.18,0.667-0.282,1.043-0.282c1.274,0,2.307,1.171,2.307,2.615
	C20.939,19.068,19.906,20.238,18.632,20.238z"/>
<path style="fill:none;stroke:#000000;stroke-width:2;stroke-miterlimit:10;" d="M13.478,5c-0.846,0-1.645,0.215-2.35,0.595H8
	v14.187l3.59-0.726v-3.533c0.585,0.242,1.222,0.376,1.889,0.376c2.858,0,5.175-2.44,5.175-5.449C18.653,7.44,16.336,5,13.478,5z
	 M12.632,13.02c-0.375,0-0.729-0.102-1.043-0.282V8.073c0.313-0.18,0.667-0.282,1.043-0.282c1.274,0,2.307,1.171,2.307,2.615
	C14.939,11.85,13.906,13.02,12.632,13.02z"/>
</svg>
