<?xml version="1.0" encoding="utf-8"?>
<!-- Generator: Adobe Illustrator 18.0.0, SVG Export Plug-In . SVG Version: 6.00 Build 0)  -->
<svg version="1.1" id="Layer_1" xmlns="http://www.w3.org/2000/svg" xmlns:xlink="http://www.w3.org/1999/xlink" x="0px" y="0px"
	 viewBox="0 0 32 32" enable-background="new 0 0 32 32" xml:space="preserve">
<polyline fill="none" stroke="#000000" stroke-width="2" stroke-miterlimit="10" points="25,22 25,28 7,28 7,22 "/>
<polyline fill="none" stroke="#000000" stroke-width="2" stroke-miterlimit="10" points="7,10 7,4 25,4 25,10 "/>
<path fill="none" stroke="#000000" stroke-width="2" stroke-miterlimit="10" d="M9,20v-7h1c1.1,0,2,0.9,2,2v0c0,1.1-0.9,2-2,2H9"/>
<path fill="none" stroke="#000000" stroke-width="2" stroke-miterlimit="10" d="M15,20v-7h1c1.1,0,2,0.9,2,2v0c0,1.1-0.9,2-2,2h-1"
	/>
<line id="XMLID_24_" fill="none" stroke="#000000" stroke-width="2" stroke-miterlimit="10" x1="22" y1="13" x2="22" y2="20"/>
<line fill="none" stroke="#000000" stroke-width="2" stroke-miterlimit="10" x1="20" y1="13" x2="24" y2="13"/>
</svg>
