<?xml version="1.0" encoding="iso-8859-1"?>
<!-- Generator: Adobe Illustrator 19.1.0, SVG Export Plug-In . SVG Version: 6.00 Build 0)  -->
<svg version="1.1" id="Layer_1" xmlns="http://www.w3.org/2000/svg" xmlns:xlink="http://www.w3.org/1999/xlink" x="0px" y="0px"
	 viewBox="0 0 32 32" style="enable-background:new 0 0 32 32;" xml:space="preserve">
<path style="fill:none;stroke:#000000;stroke-width:2;stroke-miterlimit:10;" d="M23.792,21.9C23.926,22.241,24,22.612,24,23
	c0,1.657-1.343,3-3,3c-0.828,0-1.578-0.336-2.121-0.879"/>
<path style="fill:none;stroke:#000000;stroke-width:2;stroke-miterlimit:10;" d="M8.208,21.9C8.074,22.241,8,22.612,8,23
	c0,1.657,1.343,3,3,3c0.828,0,1.578-0.336,2.121-0.879"/>
<path style="fill:none;stroke:#000000;stroke-width:2;stroke-miterlimit:10;" d="M21,21.221C21.532,21.7,22.228,22,23,22
	c1.657,0,3-1.343,3-3c0-0.861-0.363-1.637-0.943-2.184"/>
<path style="fill:none;stroke:#000000;stroke-width:2;stroke-miterlimit:10;" d="M21.251,17.016C21.717,17.545,22,18.24,22,19
	c0,1.657-1.343,3-3,3s-3-1.343-3-3c0-0.808,0.32-1.542,0.839-2.081"/>
<path style="fill:none;stroke:#000000;stroke-width:2;stroke-miterlimit:10;" d="M11,21.221C10.468,21.7,9.772,22,9,22
	c-1.657,0-3-1.343-3-3c0-0.861,0.363-1.637,0.943-2.184"/>
<path style="fill:none;stroke:#000000;stroke-width:2;stroke-miterlimit:10;" d="M10.749,17.016C10.283,17.545,10,18.24,10,19
	c0,1.657,1.343,3,3,3s3-1.343,3-3c0-0.808-0.32-1.542-0.839-2.081"/>
<path style="fill:none;stroke:#000000;stroke-width:2;stroke-miterlimit:10;" d="M22.5,16.584C22.943,16.842,23.451,17,24,17
	c1.657,0,3-1.343,3-3s-1.343-3-3-3c-0.549,0-1.057,0.158-1.5,0.416"/>
<path style="fill:none;stroke:#000000;stroke-width:2;stroke-miterlimit:10;" d="M9.5,11.416C9.057,11.158,8.549,11,8,11
	c-1.657,0-3,1.343-3,3s1.343,3,3,3c0.549,0,1.057-0.158,1.5-0.416"/>
<path style="fill:none;stroke:#000000;stroke-width:2;stroke-miterlimit:10;" d="M18.5,15.655C19.037,16.465,19.955,17,21,17
	c1.657,0,3-1.343,3-3s-1.343-3-3-3c-1.045,0-1.963,0.535-2.5,1.345"/>
<path d="M21,9c0.172,0,0.335,0.034,0.502,0.051c0.008-0.02,0.02-0.035,0.028-0.056C21.821,8.255,22,7.336,22,6.265
	c-1.122,1.122-2.578,1.864-4.007,2.241c0.429,0.219,0.959,0.5,1.462,0.748C19.948,9.093,20.466,9,21,9z"/>
<path style="fill:none;stroke:#000000;stroke-width:2;stroke-miterlimit:10;" d="M13.5,12.345C12.963,11.535,12.045,11,11,11
	c-1.657,0-3,1.343-3,3s1.343,3,3,3c1.045,0,1.963-0.535,2.5-1.345"/>
<circle style="fill:none;stroke:#000000;stroke-width:2;stroke-miterlimit:10;" cx="16" cy="14" r="3"/>
<path style="fill:none;stroke:#000000;stroke-width:2;stroke-miterlimit:10;" d="M13.927,21.839C13.358,22.385,13,23.149,13,24
	c0,1.657,1.343,3,3,3s3-1.343,3-3c0-0.851-0.358-1.615-0.927-2.161"/>
<path style="fill:none;stroke:#000000;stroke-width:2;stroke-miterlimit:10;" d="M16,9c0-1.943,0.917-3.375,2-4"/>
<path d="M9,6c0,1.026,0.408,2.188,0.914,3.127C10.265,9.048,10.626,9,11,9c0.9,0,1.762,0.247,2.515,0.687
	c0.163-0.094,0.332-0.177,0.505-0.254C14.02,7.555,10.22,7.445,9,6z"/>
</svg>
