<?xml version="1.0" encoding="iso-8859-1"?>
<!-- Generator: Adobe Illustrator 19.1.1, SVG Export Plug-In . SVG Version: 6.00 Build 0)  -->
<svg version="1.1" id="Layer_1" xmlns="http://www.w3.org/2000/svg" xmlns:xlink="http://www.w3.org/1999/xlink" x="0px" y="0px"
	 viewBox="0 0 32 32" style="enable-background:new 0 0 32 32;" xml:space="preserve">
<circle style="fill:none;stroke:#000000;stroke-width:2;stroke-miterlimit:10;" cx="23" cy="23" r="2"/>
<circle style="fill:none;stroke:#000000;stroke-width:2;stroke-miterlimit:10;" cx="14" cy="23" r="2"/>
<path d="M26.658,9l-2.422,9H11.781L9.159,7.515C8.937,6.625,8.137,6,7.219,6H5C4.448,6,4,6.448,4,7c0,0.552,0.448,1,1,1h2.219
	l2.621,10.485c0.223,0.89,1.023,1.515,1.94,1.515h12.455c0.902,0,1.692-0.604,1.93-1.474L28.764,9H26.658z"/>
<line style="fill:none;stroke:#000000;stroke-width:2;stroke-miterlimit:10;" x1="18" y1="15" x2="18" y2="9"/>
<polygon points="14,10 18,6 22,10 "/>
</svg>
