<?xml version="1.0" encoding="iso-8859-1"?>
<!-- Generator: Adobe Illustrator 21.0.2, SVG Export Plug-In . SVG Version: 6.00 Build 0)  -->
<svg version="1.1" id="Layer_1" xmlns="http://www.w3.org/2000/svg" xmlns:xlink="http://www.w3.org/1999/xlink" x="0px" y="0px"
	 viewBox="0 0 32 32" style="enable-background:new 0 0 32 32;" xml:space="preserve">
<g>
	<path d="M28,24c-1.224,0-2-0.703-2-1h-2c0,0.306-0.756,1-2,1c-1.224,0-2-0.703-2-1h-2c0,0.306-0.756,1-2,1c-1.224,0-2-0.703-2-1h-2
		c0,0.306-0.755,1-2,1c-1.224,0-2-0.703-2-1H6c0,0.306-0.755,1-2,1c-1.224,0-2-0.703-2-1H0c0,1.626,1.832,3,4,3
		c1.187,0,2.26-0.42,3-1.059C7.74,25.58,8.813,26,10,26s2.26-0.42,3-1.059C13.74,25.58,14.813,26,16,26s2.26-0.42,3-1.059
		C19.74,25.58,20.813,26,22,26s2.26-0.42,3-1.059C25.74,25.58,26.813,26,28,26c2.168,0,4-1.374,4-3h-2C30,23.306,29.244,24,28,24z"
		/>
	<path d="M28,16c-1.224,0-2-0.703-2-1h-2c0,0.306-0.756,1-2,1c-1.224,0-2-0.703-2-1h-2c0,0.306-0.756,1-2,1c-1.224,0-2-0.703-2-1h-2
		c0,0.306-0.755,1-2,1c-1.224,0-2-0.703-2-1H6c0,0.306-0.755,1-2,1c-1.224,0-2-0.703-2-1H0c0,1.626,1.832,3,4,3
		c1.187,0,2.26-0.42,3-1.059C7.74,17.58,8.813,18,10,18s2.26-0.42,3-1.059C13.74,17.58,14.813,18,16,18s2.26-0.42,3-1.059
		C19.74,17.58,20.813,18,22,18s2.26-0.42,3-1.059C25.74,17.58,26.813,18,28,18c2.168,0,4-1.374,4-3h-2C30,15.306,29.244,16,28,16z"
		/>
	<path d="M4,10c1.187,0,2.26-0.42,3-1.059C7.74,9.58,8.813,10,10,10s2.26-0.42,3-1.059C13.74,9.58,14.813,10,16,10
		s2.26-0.42,3-1.059C19.74,9.58,20.813,10,22,10s2.26-0.42,3-1.059C25.74,9.58,26.813,10,28,10c2.168,0,4-1.374,4-3h-2
		c0,0.306-0.756,1-2,1c-1.224,0-2-0.703-2-1h-2c0,0.306-0.756,1-2,1c-1.224,0-2-0.703-2-1h-2c0,0.306-0.756,1-2,1
		c-1.224,0-2-0.703-2-1h-2c0,0.306-0.755,1-2,1C8.776,8,8,7.297,8,7H6c0,0.306-0.755,1-2,1C2.776,8,2,7.297,2,7H0
		C0,8.626,1.832,10,4,10z"/>
</g>
</svg>
