<?xml version="1.0" encoding="iso-8859-1"?>
<!-- Generator: Adobe Illustrator 19.1.1, SVG Export Plug-In . SVG Version: 6.00 Build 0)  -->
<svg version="1.1" id="Layer_1" xmlns="http://www.w3.org/2000/svg" xmlns:xlink="http://www.w3.org/1999/xlink" x="0px" y="0px"
	 viewBox="0 0 32 32" style="enable-background:new 0 0 32 32;" xml:space="preserve">
<path id="XMLID_3_" style="fill:none;stroke:#000000;stroke-width:2;stroke-miterlimit:10;" d="M18,14.408L18,14.408
	C18,13.756,17.53,13,16.5,13c-0.828,0-1.5,0.672-1.5,1.5v0c0,0.828,0.672,1.5,1.5,1.5h0c0.828,0,1.5,0.672,1.5,1.5v0
	c0,0.828-0.576,1.5-1.5,1.5c-1.104,0-1.5-0.572-1.5-1.381l0,0"/>
<path id="XMLID_1_" style="fill:none;stroke:#000000;stroke-width:2;stroke-miterlimit:10;" d="M12,14.408L12,14.408
	C12,13.756,11.53,13,10.5,13C9.672,13,9,13.672,9,14.5v0c0,0.828,0.672,1.5,1.5,1.5h0c0.828,0,1.5,0.672,1.5,1.5v0
	c0,0.828-0.576,1.5-1.5,1.5C9.396,19,9,18.428,9,17.619l0,0"/>
<polyline id="XMLID_16_" style="fill:none;stroke:#000000;stroke-width:2;stroke-miterlimit:10;" points="21,12 21,19 24,19 "/>
<g>
	<path d="M26,7c-2.347,0-3.681-0.727-5.093-1.497C19.551,4.764,18.149,4,16,4c-2.147,0-3.544,0.763-4.895,1.501
		C9.695,6.272,8.362,7,6,7H5v1c0,2.992,0.383,5.561,1,7.767V15.62c0,0,0-0.733,0-1.12c0-1.176,0.464-2.239,1.205-3.042
		c-0.093-0.796-0.164-1.62-0.191-2.499c2.275-0.187,3.739-0.987,5.05-1.704C13.298,6.582,14.363,6,16,6
		c1.64,0,2.71,0.583,3.95,1.259c1.311,0.714,2.774,1.512,5.036,1.7c-0.081,2.747-0.52,5.064-1.152,7.041h2.103
		C26.59,13.743,27,11.101,27,8V7H26z"/>
	<path d="M16.002,25.9c-0.819-0.409-2.814-1.587-4.719-3.977C11.028,21.967,10.769,22,10.5,22c-0.691,0-1.324-0.128-1.887-0.355
		c2.978,4.596,6.755,6.179,7.015,6.283l0.369,0.148l0.37-0.146c0.255-0.101,3.858-1.591,6.801-5.93h-2.496
		C18.783,24.345,16.815,25.499,16.002,25.9z"/>
</g>
</svg>
