<?xml version="1.0" encoding="iso-8859-1"?>
<!-- Generator: Adobe Illustrator 19.1.1, SVG Export Plug-In . SVG Version: 6.00 Build 0)  -->
<svg version="1.1" id="Layer_1" xmlns="http://www.w3.org/2000/svg" xmlns:xlink="http://www.w3.org/1999/xlink" x="0px" y="0px"
	 viewBox="0 0 32 32" style="enable-background:new 0 0 32 32;" xml:space="preserve">
<path d="M20.485,21.162c-0.169,0-0.338-0.085-0.508-0.169c-1.608-0.931-3.554-1.438-5.669-1.438c-1.185,0-2.369,0.169-3.469,0.423
	c-0.169,0-0.423,0.085-0.508,0.085c-0.423,0-0.677-0.338-0.677-0.677c0-0.423,0.254-0.677,0.592-0.762
	c1.354-0.338,2.708-0.508,4.146-0.508c2.369,0,4.569,0.592,6.431,1.692c0.254,0.169,0.423,0.338,0.423,0.762
	C21.162,20.908,20.823,21.162,20.485,21.162z M21.669,18.285c-0.254,0-0.423-0.085-0.592-0.169c-1.777-1.1-4.231-1.777-7.023-1.777
	c-1.354,0-2.623,0.169-3.554,0.423c-0.254,0.085-0.338,0.085-0.508,0.085c-0.508,0-0.846-0.423-0.846-0.846
	c0-0.508,0.254-0.762,0.677-0.931c1.269-0.338,2.538-0.592,4.315-0.592c2.877,0,5.669,0.677,7.869,2.031
	c0.338,0.169,0.508,0.508,0.508,0.846C22.515,17.862,22.177,18.285,21.669,18.285z M23.023,14.9c-0.254,0-0.338-0.085-0.592-0.169
	c-2.031-1.185-5.077-1.862-8.038-1.862c-1.523,0-3.046,0.169-4.4,0.508c-0.169,0-0.338,0.085-0.592,0.085
	c-0.592,0.085-1.015-0.423-1.015-1.015c0-0.592,0.338-0.931,0.762-1.015c1.608-0.508,3.3-0.677,5.246-0.677
	c3.215,0,6.6,0.677,9.138,2.115c0.338,0.169,0.592,0.508,0.592,1.015C24.038,14.477,23.615,14.9,23.023,14.9z"/>
<path style="fill:none;stroke:#000000;stroke-width:2;stroke-miterlimit:10;" d="M16,5C9.908,5,5,9.908,5,16s4.908,11,11,11
	s11-4.908,11-11S22.092,5,16,5z"/>
</svg>
