<?xml version="1.0" encoding="iso-8859-1"?>
<!-- Generator: Adobe Illustrator 19.1.1, SVG Export Plug-In . SVG Version: 6.00 Build 0)  -->
<svg version="1.1" id="Layer_1" xmlns="http://www.w3.org/2000/svg" xmlns:xlink="http://www.w3.org/1999/xlink" x="0px" y="0px"
	 viewBox="0 0 32 32" style="enable-background:new 0 0 32 32;" xml:space="preserve">
<path style="fill:none;stroke:#000000;stroke-width:2;stroke-miterlimit:10;" d="M13,27c0,0,0-3.083,0-5s3-3,3-3s3,1.125,3,3
	s0,5,0,5h8V17h-7v-3h-8v3H5v10H13z"/>
<path style="fill:none;stroke:#000000;stroke-width:2;stroke-miterlimit:10;" d="M12,14c0,0-1-0.5-1-2.5S16,6,16,6s5,3.583,5,5.5
	S20,14,20,14"/>
<line style="fill:none;stroke:#000000;stroke-width:2;stroke-miterlimit:10;" x1="16" y1="4" x2="16" y2="6"/>
<path style="fill:none;stroke:#000000;stroke-width:2;stroke-miterlimit:10;" d="M8.504,17C8.504,17,9,16.669,9,15.719
	C9,14.768,6.521,13,6.521,13S4,14.727,4,15.719S4.537,17,4.537,17H8.504z"/>
<path style="fill:none;stroke:#000000;stroke-width:2;stroke-miterlimit:10;" d="M23.537,17c0,0-0.537-0.29-0.537-1.281
	S25.521,13,25.521,13S28,14.768,28,15.719C28,16.669,27.504,17,27.504,17H23.537z"/>
<path d="M10,28H8c0,0,0-1.333,0-2.417C8,24.5,9,24,9,24s1,0.458,1,1.583S10,28,10,28z"/>
<path d="M24,28h-2c0,0,0-1.333,0-2.417C22,24.5,23,24,23,24s1,0.458,1,1.583S24,28,24,28z"/>
<path d="M10,22H8c0,0,0-0.333,0-1.417C8,19.5,9,19,9,19s1,0.458,1,1.583S10,22,10,22z"/>
<path d="M24,22h-2c0,0,0-0.333,0-1.417C22,19.5,23,19,23,19s1,0.458,1,1.583S24,22,24,22z"/>
</svg>
