<?xml version="1.0" encoding="utf-8"?>
<!-- Generator: Adobe Illustrator 18.0.0, SVG Export Plug-In . SVG Version: 6.00 Build 0)  -->
<svg version="1.1" id="Layer_1" xmlns="http://www.w3.org/2000/svg" xmlns:xlink="http://www.w3.org/1999/xlink" x="0px" y="0px"
	 viewBox="0 0 32 32" enable-background="new 0 0 32 32" xml:space="preserve">
<rect x="1" y="8" fill="none" stroke="#000000" stroke-width="2" stroke-miterlimit="10" width="30" height="16"/>
<path fill="none" stroke="#000000" stroke-width="2" stroke-miterlimit="10" d="M24,14.4L24,14.4c0-0.7-0.5-1.4-1.5-1.4
	c-0.8,0-1.5,0.7-1.5,1.5v0c0,0.8,0.7,1.5,1.5,1.5h0c0.8,0,1.5,0.7,1.5,1.5v0c0,0.8-0.6,1.5-1.5,1.5c-1.1,0-1.5-0.6-1.5-1.4l0,0"/>
<polyline fill="none" stroke="#000000" stroke-width="2" stroke-miterlimit="10" points="8,12 8,13 9.9,19 10.1,19 12,13 12,12 "/>
<path fill="none" stroke="#000000" stroke-width="2" stroke-miterlimit="10" d="M15,16h1.5c0.8,0,1.5-0.7,1.5-1.5v0
	c0-0.8-0.7-1.5-1.5-1.5H15v6h1.5c0.8,0,1.5-0.7,1.5-1.5v0c0-0.8-0.7-1.5-1.5-1.5H16"/>
</svg>
