<?xml version="1.0" encoding="iso-8859-1"?>
<!-- Generator: Adobe Illustrator 19.1.0, SVG Export Plug-In . SVG Version: 6.00 Build 0)  -->
<svg version="1.1" id="Layer_1" xmlns="http://www.w3.org/2000/svg" xmlns:xlink="http://www.w3.org/1999/xlink" x="0px" y="0px"
	 viewBox="0 0 32 32" style="enable-background:new 0 0 32 32;" xml:space="preserve">
<line style="fill:none;stroke:#000000;stroke-width:2;stroke-miterlimit:10;" x1="13" y1="12" x2="19" y2="12"/>
<line style="fill:none;stroke:#000000;stroke-width:2;stroke-miterlimit:10;" x1="19" y1="20" x2="13" y2="20"/>
<path style="fill:none;stroke:#000000;stroke-width:2;stroke-miterlimit:10;" d="M28.727,7c0,0-5.9,1.109-9.727,5c0,0,1,1.629,1,4
	s-1,4-1,4c3.797,3.862,9.727,5,9.727,5S30,20.42,30,16S28.727,7,28.727,7z"/>
<line style="fill:none;stroke:#000000;stroke-width:2;stroke-miterlimit:10;" x1="19.991" y1="17.14" x2="23" y2="18"/>
<line style="fill:none;stroke:#000000;stroke-width:2;stroke-miterlimit:10;" x1="19.977" y1="15.006" x2="24" y2="14"/>
<path style="fill:none;stroke:#000000;stroke-width:2;stroke-miterlimit:10;" d="M3.273,7c0,0,5.9,1.109,9.727,5c0,0-1,1.629-1,4
	s1,4,1,4c-3.797,3.862-9.727,5-9.727,5S2,20.42,2,16S3.273,7,3.273,7z"/>
<line style="fill:none;stroke:#000000;stroke-width:2;stroke-miterlimit:10;" x1="12.009" y1="17.14" x2="9" y2="18"/>
<line style="fill:none;stroke:#000000;stroke-width:2;stroke-miterlimit:10;" x1="12.023" y1="15.006" x2="8" y2="14"/>
</svg>
