<?xml version="1.0" encoding="iso-8859-1"?>
<!-- Generator: Adobe Illustrator 19.1.1, SVG Export Plug-In . SVG Version: 6.00 Build 0)  -->
<svg version="1.1" id="Layer_1" xmlns="http://www.w3.org/2000/svg" xmlns:xlink="http://www.w3.org/1999/xlink" x="0px" y="0px"
	 viewBox="0 0 32 32" style="enable-background:new 0 0 32 32;" xml:space="preserve">
<path style="fill:none;stroke:#000000;stroke-width:2;stroke-linecap:round;stroke-linejoin:round;stroke-miterlimit:10;" d="M16,4
	C9.373,4,4,9.373,4,16s5.373,12,12,12s12-5.373,12-12S22.627,4,16,4L16,4L16,4L16,4z"/>
<path style="fill:none;stroke:#000000;stroke-width:2;stroke-linecap:round;stroke-linejoin:round;stroke-miterlimit:10;" d="M16,20
	c2.209,0,4-1.791,4-4s-1.791-4-4-4s-4,1.791-4,4S13.791,20,16,20L16,20L16,20L16,20z"/>
<path style="fill:none;stroke:#000000;stroke-width:2;stroke-linecap:round;stroke-linejoin:round;stroke-miterlimit:10;" d="M16,23
	c-5.093,0-9.485-2.866-11.5-7c2.015-4.134,6.407-7,11.5-7s9.485,2.866,11.5,7C25.485,20.134,21.093,23,16,23L16,23L16,23L16,23z"/>
</svg>
