<?xml version="1.0" encoding="iso-8859-1"?>
<!-- Generator: Adobe Illustrator 19.0.1, SVG Export Plug-In . SVG Version: 6.00 Build 0)  -->
<svg version="1.1" id="Layer_1" xmlns="http://www.w3.org/2000/svg" xmlns:xlink="http://www.w3.org/1999/xlink" x="0px" y="0px"
	 viewBox="0 0 32 32" style="enable-background:new 0 0 32 32;" xml:space="preserve">
<path style="fill:none;stroke:#000000;stroke-width:2;stroke-miterlimit:10;" d="M27,25H5c-1.105,0-2-0.895-2-2V9
	c0-1.105,0.895-2,2-2h22c1.105,0,2,0.895,2,2v14C29,24.105,28.105,25,27,25z"/>
<rect x="8.221" y="14.223" width="0.688" height="3.528"/>
<path d="M11.824,15.99c0,1.037,0.814,1.841,1.862,1.841c0.296,0,0.55-0.058,0.863-0.206v-0.81c-0.275,0.275-0.519,0.386-0.831,0.386
	c-0.693,0-1.185-0.503-1.185-1.217c0-0.677,0.508-1.212,1.153-1.212c0.328,0,0.577,0.117,0.863,0.397v-0.81
	c-0.302-0.153-0.551-0.217-0.847-0.217C12.66,14.144,11.824,14.964,11.824,15.99z"/>
<polygon points="20.006,16.593 19.065,14.223 18.313,14.223 19.811,17.842 20.181,17.842 21.705,14.223 20.959,14.223 "/>
<polygon points="22.016,17.752 23.968,17.752 23.968,17.154 22.704,17.154 22.704,16.202 23.922,16.202 23.922,15.604 
	22.704,15.604 22.704,14.821 23.968,14.821 23.968,14.223 22.016,14.223 "/>
<path d="M26.693,15.265c0-0.661-0.455-1.042-1.249-1.042h-1.02v3.528h0.687v-1.417h0.09l0.953,1.417H27l-1.111-1.486
	C26.408,16.16,26.693,15.805,26.693,15.265z M25.312,15.848h-0.201v-1.069h0.212c0.429,0,0.662,0.18,0.662,0.523
	C25.985,15.657,25.752,15.848,25.312,15.848z"/>
<circle cx="16.598" cy="15.995" r="1.84"/>
<path d="M6.01,14.223H5v3.528h1.005c1.535,0,1.899-1.212,1.899-1.762C7.904,14.949,7.126,14.223,6.01,14.223z M5.872,17.154H5.688
	v-2.333h0.229c0.938,0,1.279,0.609,1.279,1.164C7.195,16.251,7.111,17.154,5.872,17.154z"/>
<path d="M10.592,15.577c-0.413-0.153-0.534-0.254-0.534-0.444c0-0.222,0.216-0.391,0.513-0.391c0.206,0,0.376,0.085,0.555,0.286
	l0.36-0.472c-0.296-0.259-0.65-0.391-1.037-0.391c-0.624,0-1.1,0.434-1.1,1.011c0,0.486,0.225,0.726,0.868,0.968
	c0.375,0.141,0.682,0.225,0.682,0.566c0,0.286-0.227,0.498-0.534,0.498c-0.328,0-0.593-0.164-0.751-0.471l-0.445,0.428
	c0.317,0.465,0.698,0.672,1.222,0.672c0.715,0,1.217-0.476,1.217-1.159C11.607,16.117,11.375,15.864,10.592,15.577z"/>
</svg>
