<?xml version="1.0" encoding="utf-8"?>
<!-- Generator: Adobe Illustrator 18.0.0, SVG Export Plug-In . SVG Version: 6.00 Build 0)  -->
<svg version="1.1" id="Layer_1" xmlns="http://www.w3.org/2000/svg" xmlns:xlink="http://www.w3.org/1999/xlink" x="0px" y="0px"
	 viewBox="0 0 32 32" enable-background="new 0 0 32 32" xml:space="preserve">
<path fill="none" stroke="#000000" stroke-width="2" stroke-linejoin="round" stroke-miterlimit="10" d="M25,11c0,0-0.4-2-1.9-2
	C20.4,9,21,20,17,20c-1.7,0-1.7,3-3.1,3C10.7,23,11,10,8,10c-1.9,0-2,2-2,2"/>
<polygon points="4,15 10.4,15 11,17 4,17 "/>
<polygon points="12.9,15 13.4,17 20.1,17 20.6,15 "/>
<path d="M22.5,15c-0.2,1.1-0.5,2-0.5,2h6v-2H22.5z"/>
<circle cx="5" cy="27" r="1"/>
<circle cx="8" cy="27" r="1"/>
<circle cx="11" cy="27" r="1"/>
<circle cx="14" cy="27" r="1"/>
<circle cx="17" cy="27" r="1"/>
<circle cx="20" cy="27" r="1"/>
<circle cx="23" cy="27" r="1"/>
<circle cx="26" cy="27" r="1"/>
<circle cx="5" cy="5" r="1"/>
<circle cx="8" cy="5" r="1"/>
<circle cx="11" cy="5" r="1"/>
<circle cx="14" cy="5" r="1"/>
<circle cx="17" cy="5" r="1"/>
<circle cx="20" cy="5" r="1"/>
<circle cx="23" cy="5" r="1"/>
<circle cx="26" cy="5" r="1"/>
</svg>
