<?xml version="1.0" encoding="iso-8859-1"?>
<!-- Generator: Adobe Illustrator 19.1.0, SVG Export Plug-In . SVG Version: 6.00 Build 0)  -->
<svg version="1.1" id="Layer_1" xmlns="http://www.w3.org/2000/svg" xmlns:xlink="http://www.w3.org/1999/xlink" x="0px" y="0px"
	 viewBox="0 0 32 32" style="enable-background:new 0 0 32 32;" xml:space="preserve">
<path style="fill:none;stroke:#000000;stroke-width:2;stroke-miterlimit:10;" d="M26,19v-2c0-5.523-4.477-10-10-10S6,11.477,6,17v2"
	/>
<path style="fill:none;stroke:#000000;stroke-width:2;stroke-miterlimit:10;" d="M23,24h1c1.105,0,2-0.895,2-2v-3
	c0-0.552-0.448-1-1-1h-2V24z"/>
<path style="fill:none;stroke:#000000;stroke-width:2;stroke-miterlimit:10;" d="M9,24H8c-1.105,0-2-0.895-2-2v-3
	c0-0.552,0.448-1,1-1h2V24z"/>
<circle style="fill:none;stroke:#000000;stroke-width:2;stroke-miterlimit:10;" cx="16" cy="20" r="7"/>
<path d="M10.146,20.672h2.444l2.656,1.998l-0.705,2.632l0.917,1.575l-0.799,0.4l-2.679-3.29h-0.776l-1.222-1.363v-1.363
	l-1.152-1.316c0,0-0.29-2.325,0.765-3.633c1.055-1.308,1.881-2.351,2.868-2.868c0.987-0.517,2.32-0.717,2.32-0.717l-1.347,1.085
	l0.682,0.094l1.081-0.447l1.598,0.118l0.353,1.528l-1.974,0.376l-0.541-0.752l-1.128,0.259l0.4,1.739l-2.632,1.246l-1.763,1.41
	L10.146,20.672z"/>
<path d="M18.609,26.27l1.148-3.601c0,0-0.47-1.199-0.541-1.199c-0.071,0-1.387,0.235-1.387,0.235l-1.269-1.058l0.635-1.974
	l1.128-0.846l1.152-0.165l1.081,0.658l0.447-0.823l-1.763-0.564l-1.434,0.447l-0.094-1.363l0.564-0.494l0.705,0.306l-0.118-1.316
	l1.481-0.165c0,0,2.045,1.716,2.632,4.042s-0.047,4.113-0.823,5.358C21.379,24.996,19.056,26.528,18.609,26.27z"/>
</svg>
