<?xml version="1.0" encoding="iso-8859-1"?>
<!-- Generator: Adobe Illustrator 19.1.1, SVG Export Plug-In . SVG Version: 6.00 Build 0)  -->
<svg version="1.1" id="Layer_1" xmlns="http://www.w3.org/2000/svg" xmlns:xlink="http://www.w3.org/1999/xlink" x="0px" y="0px"
	 viewBox="0 0 32 32" style="enable-background:new 0 0 32 32;" xml:space="preserve">
<circle style="fill:none;stroke:#000000;stroke-width:2;stroke-miterlimit:10;" cx="7.5" cy="20.5" r="2.5"/>
<circle style="fill:none;stroke:#000000;stroke-width:2;stroke-miterlimit:10;" cx="18.5" cy="7.5" r="2.5"/>
<polyline style="fill:none;stroke:#000000;stroke-width:2;stroke-miterlimit:10;" points="29,26 24,26 24,20 29,20 "/>
<path style="fill:none;stroke:#000000;stroke-width:2;stroke-miterlimit:10;" d="M13,24h11v-4h-9c-1.105,0-2,0.895-2,2V24z"/>
<polyline style="fill:none;stroke:#000000;stroke-width:2;stroke-miterlimit:10;" points="4,27 10,27 13,24 "/>
<path d="M18.333,18l1.522-2.704L21.111,18h2.206l-1.996-4.299l1.319-0.33c0.462-0.12,0.947,0.115,1.149,0.549L25.684,18h2.205
	l-2.285-4.922c-0.606-1.303-2.059-1.996-3.449-1.647l-1.561,0.39c-0.796,0.198-1.483,0.723-1.888,1.439L16.039,18H18.333z"/>
</svg>
