<?xml version="1.0" encoding="utf-8"?>
<!-- Generator: Adobe Illustrator 18.1.1, SVG Export Plug-In . SVG Version: 6.00 Build 0)  -->
<svg version="1.1" id="Layer_1" xmlns="http://www.w3.org/2000/svg" xmlns:xlink="http://www.w3.org/1999/xlink" x="0px" y="0px"
	 viewBox="0 0 32 32" enable-background="new 0 0 32 32" xml:space="preserve">
<path fill="none" stroke="#000000" stroke-width="2" stroke-miterlimit="10" d="M30,25H16c-0.6,0-1-0.4-1-1V14c0-0.6,0.4-1,1-1h14
	c0.6,0,1,0.4,1,1v10C31,24.6,30.6,25,30,25z"/>
<polyline fill="none" stroke="#000000" stroke-width="2" stroke-miterlimit="10" points="15,20 3,20 3,7 23,7 23,13 "/>
<path fill="none" stroke="#000000" stroke-width="2" stroke-miterlimit="10" d="M19,25H2.5C1.7,25,1,24.3,1,23.5v0
	c0-0.3,0.1-0.6,0.3-0.9L3,20h12"/>
<line fill="none" stroke="#000000" stroke-width="2" stroke-miterlimit="10" x1="21" y1="22" x2="25" y2="22"/>
</svg>
