<?xml version="1.0" encoding="iso-8859-1"?>
<!-- Generator: Adobe Illustrator 19.1.0, SVG Export Plug-In . SVG Version: 6.00 Build 0)  -->
<svg version="1.1" id="Layer_1" xmlns="http://www.w3.org/2000/svg" xmlns:xlink="http://www.w3.org/1999/xlink" x="0px" y="0px"
	 viewBox="0 0 32 32" style="enable-background:new 0 0 32 32;" xml:space="preserve">
<circle cx="16" cy="15" r="2"/>
<path d="M16,17L16,17c-1.657,0-3,1.343-3,3v3l1,1v4h4v-4l1-1v-3C19,18.343,17.657,17,16,17z"/>
<path style="fill:none;stroke:#000000;stroke-width:2;stroke-miterlimit:10;" d="M22.121,11.387
	c-0.574-0.642-1.611-0.785-2.395-0.289c-0.659,0.416-0.912,1.39-0.736,1.94c0.239,0.748,0.494,1.163,1.216,2.338
	c0.607,0.987,0.152,4.062,2.794,5.125V25h5v-9.82c0-1.484-0.55-2.915-1.543-4.017l-5.338-5.922
	c-0.607-0.673-1.655-0.695-2.289-0.048l0,0c-0.563,0.573-0.602,1.479-0.092,2.099c0,0,2.921,3.514,3.586,4.362
	c0.665,0.848,1.602,3.082,1.602,3.082"/>
<path style="fill:none;stroke:#000000;stroke-width:2;stroke-miterlimit:10;" d="M9.879,11.387c0.574-0.642,1.611-0.785,2.395-0.289
	c0.659,0.416,0.912,1.39,0.736,1.94c-0.239,0.748-0.494,1.163-1.216,2.338C11.187,16.362,11.643,19.437,9,20.5V25H4v-9.82
	c0-1.484,0.55-2.915,1.543-4.017l5.338-5.922c0.607-0.673,1.655-0.695,2.289-0.048l0,0c0.563,0.573,0.602,1.479,0.092,2.099
	c0,0-2.921,3.514-3.586,4.362c-0.665,0.848-1.602,3.082-1.602,3.082"/>
</svg>
