<?xml version="1.0" encoding="iso-8859-1"?>
<!-- Generator: Adobe Illustrator 19.1.1, SVG Export Plug-In . SVG Version: 6.00 Build 0)  -->
<svg version="1.1" id="Layer_1" xmlns="http://www.w3.org/2000/svg" xmlns:xlink="http://www.w3.org/1999/xlink" x="0px" y="0px"
	 viewBox="0 0 32 32" style="enable-background:new 0 0 32 32;" xml:space="preserve">
<path style="fill:none;stroke:#000000;stroke-width:2;stroke-miterlimit:10;" d="M5,28c0-4.418,3.582-8,8-8s8,3.582,8,8"/>
<circle cx="24" cy="16" r="1.5"/>
<path style="fill:none;stroke:#000000;stroke-width:2;stroke-miterlimit:10;" d="M24,13v-1c0-1.119,3-1.227,3-4c0-1.685-1.343-3-3-3
	h0c-1.657,0-3,1.343-3,3v1"/>
<path style="fill:none;stroke:#000000;stroke-width:2;stroke-miterlimit:10;" d="M21,15c0,0-4.674,5-8,5c-2.761,0-5-2.239-5-5
	s2.239-5,5-5C16.434,10,21,15,21,15z"/>
</svg>
