<?xml version="1.0" encoding="utf-8"?>
<!-- Generator: Adobe Illustrator 18.1.1, SVG Export Plug-In . SVG Version: 6.00 Build 0)  -->
<svg version="1.1" id="Layer_1" xmlns="http://www.w3.org/2000/svg" xmlns:xlink="http://www.w3.org/1999/xlink" x="0px" y="0px"
	 viewBox="0 0 32 32" enable-background="new 0 0 32 32" xml:space="preserve">
<path fill="none" stroke="#000000" stroke-width="2" stroke-miterlimit="10" d="M25,19h0.2c1,0,1.8-0.8,1.8-1.8v0
	c0-0.7-0.4-1.4-1.1-1.7l-9.9-4l-9.9,4C5.4,15.8,5,16.5,5,17.2v0c0,1,0.8,1.8,1.8,1.8H7"/>
<path fill="none" stroke="#000000" stroke-width="2" stroke-linejoin="round" stroke-miterlimit="10" d="M18,7L18,7c0-1.1-0.9-2-2-2
	h0c-1.1,0-2,0.9-2,2v0c0,1.1,0.9,2,2,2h0v2"/>
<rect x="9" y="18" fill="none" stroke="#000000" stroke-width="2" stroke-miterlimit="10" width="14" height="9"/>
</svg>
