<?xml version="1.0" encoding="utf-8"?>
<!-- Generator: Adobe Illustrator 18.1.1, SVG Export Plug-In . SVG Version: 6.00 Build 0)  -->
<svg version="1.1" id="Layer_1" xmlns="http://www.w3.org/2000/svg" xmlns:xlink="http://www.w3.org/1999/xlink" x="0px" y="0px"
	 viewBox="0 0 32 32" enable-background="new 0 0 32 32" xml:space="preserve">
<path fill="none" stroke="#000000" stroke-width="2" stroke-miterlimit="10" d="M6,27h21V5H10C8.3,5,7,6.3,7,8v0c0,1.7,1.3,3,3,3h11
	v16"/>
<path fill="none" stroke="#000000" stroke-width="2" stroke-miterlimit="10" d="M13,27h-1c-2.2,0-4-1.8-4-4v-4h9v4
	C17,25.2,15.2,27,13,27z"/>
<path fill="none" stroke="#000000" stroke-width="2" stroke-miterlimit="10" d="M8,23H7c-1.1,0-2-0.9-2-2v0c0-1.1,0.9-2,2-2h1V23z"
	/>
<circle cx="24" cy="22" r="1"/>
<line fill="none" stroke="#000000" stroke-width="2" stroke-miterlimit="10" x1="12" y1="11.1" x2="12" y2="14.6"/>
</svg>
