<?xml version="1.0" encoding="utf-8"?>
<!-- Generator: Adobe Illustrator 18.0.0, SVG Export Plug-In . SVG Version: 6.00 Build 0)  -->
<svg version="1.1" id="Layer_1" xmlns="http://www.w3.org/2000/svg" xmlns:xlink="http://www.w3.org/1999/xlink" x="0px" y="0px"
	 viewBox="0 0 32 32" enable-background="new 0 0 32 32" xml:space="preserve">
<rect x="6" y="6" fill="none" stroke="#000000" stroke-width="2" stroke-miterlimit="10" width="20" height="20"/>
<line fill="none" stroke="#000000" stroke-width="2" stroke-miterlimit="10" x1="6" y1="12" x2="26" y2="12"/>
<circle cx="23" cy="9" r="1"/>
<circle cx="20" cy="9" r="1"/>
<circle cx="17" cy="9" r="1"/>
<line fill="none" stroke="#000000" stroke-width="2" stroke-miterlimit="10" x1="9" y1="23" x2="15" y2="23"/>
<line fill="none" stroke="#000000" stroke-width="2" stroke-miterlimit="10" x1="12" y1="23" x2="12" y2="20"/>
<path fill="none" stroke="#000000" stroke-width="2" stroke-miterlimit="10" d="M12,20L12,20c-1.1,0-2-0.9-2-2v-3h4v3
	C14,19.1,13.1,20,12,20z"/>
<path fill="none" stroke="#000000" stroke-width="2" stroke-miterlimit="10" d="M20,16h-1v6h1c1.1,0,2-0.9,2-2v-2
	C22,16.9,21.1,16,20,16z"/>
<line fill="none" stroke="#000000" stroke-width="2" stroke-miterlimit="10" x1="19" y1="24" x2="19" y2="14"/>
</svg>
