<?xml version="1.0" encoding="utf-8"?>
<!-- Generator: Adobe Illustrator 18.1.1, SVG Export Plug-In . SVG Version: 6.00 Build 0)  -->
<svg version="1.1" id="Layer_1" xmlns="http://www.w3.org/2000/svg" xmlns:xlink="http://www.w3.org/1999/xlink" x="0px" y="0px"
	 viewBox="0 0 32 32" enable-background="new 0 0 32 32" xml:space="preserve">
<path fill="none" stroke="#000000" stroke-width="2" stroke-linecap="round" stroke-miterlimit="10" d="M6,18.3c0,0.9,0,2.3,0,3.2
	C6,24,10.5,26,16,26s10-2,10-4.5c0-0.9,0-2.3,0-3.2"/>
<rect x="15" y="21" width="2" height="3"/>
<polygon points="21,20 21,23 23,22.1 23,20 "/>
<polygon points="11,20 11,23 9,22.1 9,20 "/>
<path fill="none" stroke="#000000" stroke-width="2" stroke-miterlimit="10" d="M18,9c0,1.1-0.9,2-2,2s-2-0.9-2-2s2-4,2-4
	S18,7.9,18,9z"/>
<path fill="none" stroke="#000000" stroke-width="2" stroke-miterlimit="10" d="M25,13c1.1,0,2-0.9,2-2c0-1.1-2-4-2-4s-2,2.9-2,4
	c0,0.5,0.2,1,0.5,1.4"/>
<path fill="none" stroke="#000000" stroke-width="2" stroke-miterlimit="10" d="M8.5,12.4C8.8,12,9,11.5,9,11c0-1.1-2-4-2-4
	s-2,2.9-2,4c0,1.1,0.9,2,2,2"/>
<ellipse fill="none" stroke="#000000" stroke-width="2" stroke-miterlimit="10" cx="16" cy="16" rx="11" ry="5"/>
</svg>
