<?xml version="1.0" encoding="iso-8859-1"?>
<!-- Generator: Adobe Illustrator 21.0.0, SVG Export Plug-In . SVG Version: 6.00 Build 0)  -->
<svg version="1.1" xmlns="http://www.w3.org/2000/svg" xmlns:xlink="http://www.w3.org/1999/xlink" x="0px" y="0px"
	 viewBox="0 0 32 32" style="enable-background:new 0 0 32 32;" xml:space="preserve">
<g id="Layer_1">
</g>
<g id="Layer_2">
	<path style="fill:none;stroke:#000000;stroke-width:2;stroke-miterlimit:3;" d="M9,8C7.638,7.326,5.978,5.818,6,3"/>
	<path style="fill-rule:evenodd;clip-rule:evenodd;fill:#FFFFFF;" d="M11,15.658C8.671,14.834,7,12.61,7,10c0-3.312,2.689-6,6-6
		s6,2.688,6,6c0,2.61-1.67,4.833-4,5.658V29c-1.003-0.014-6,0-6,0v-8h2V15.658z"/>
	<path style="fill:none;stroke:#000000;stroke-width:2;stroke-linecap:round;stroke-miterlimit:3;" d="M11,15.658
		C8.671,14.834,7,12.61,7,10c0-3.312,2.689-6,6-6s6,2.688,6,6c0,2.61-1.67,4.833-4,5.658V29c-1.003-0.014-6,0-6,0v-8h2V15.658z"/>
	<path style="fill:none;stroke:#000000;stroke-width:2;stroke-miterlimit:3;" d="M11.5,25c-0.403,0.008-1.654,0.009-3,0"/>
	<path style="fill-rule:evenodd;clip-rule:evenodd;fill:#FFFFFF;" d="M20,15c-1.915,0.214-4.306-0.726-5.33-2.5
		c-1.38-2.39-0.56-5.45,1.83-6.83c2.39-1.38,5.45-0.56,6.83,1.83c1.024,1.774,0.812,3.948-0.33,5.5l4,7c-0.413,0.86-1,2-1,2h-2l-2-1
		v-2l-2-1V15z"/>
	<path style="fill:none;stroke:#000000;stroke-width:2;stroke-linecap:round;stroke-miterlimit:3;" d="M20,15
		c-1.915,0.214-4.306-0.726-5.33-2.5c-1.38-2.39-0.56-5.45,1.83-6.83c2.39-1.38,5.45-0.56,6.83,1.83
		c1.024,1.774,0.812,3.948-0.33,5.5l4,7c-0.413,0.86-1,2-1,2h-2l-2-1v-2l-2-1V15z"/>
	
		<ellipse transform="matrix(0.7071 -0.7071 0.7071 0.7071 -0.7992 16.071)" style="fill-rule:evenodd;clip-rule:evenodd;" cx="19" cy="9" rx="1" ry="1"/>
	
		<ellipse transform="matrix(0.7071 -0.7071 0.7071 0.7071 -2.5564 11.8288)" style="fill-rule:evenodd;clip-rule:evenodd;" cx="13" cy="9" rx="1" ry="1"/>
	<path style="fill:none;stroke:#000000;stroke-width:2;stroke-miterlimit:3;" d="M22,3c0.048,2.785-1.012,4.618-3,6"/>
	<path style="fill:none;stroke:#FFFFFF;stroke-width:2;stroke-miterlimit:3;" d="M24,3c0.048,2.785-0.957,5.712-4,8"/>
</g>
</svg>
