<?xml version="1.0" encoding="iso-8859-1"?>
<!-- Generator: Adobe Illustrator 22.0.1, SVG Export Plug-In . SVG Version: 6.00 Build 0)  -->
<svg version="1.1" id="Layer_1" xmlns="http://www.w3.org/2000/svg" xmlns:xlink="http://www.w3.org/1999/xlink" x="0px" y="0px"
	 viewBox="0 0 32 32" style="enable-background:new 0 0 32 32;" xml:space="preserve">
<g>
	<g>
	</g>
</g>
<line style="fill:none;stroke:#000000;stroke-width:2;stroke-miterlimit:10;" x1="29.25" y1="2.75" x2="22.625" y2="9.375"/>
<path style="fill:none;stroke:#000000;stroke-width:2;stroke-miterlimit:10;" d="M23.561,10.439c-0.479-0.479-1.521-1.521-2-2
	c-0.586-0.586-1.536-0.586-2.121,0c-0.194,0.194-1.482,1.482-2.879,2.878l4.123,4.123c1.203-1.204,2.565-2.567,2.878-2.88
	C24.146,11.975,24.146,11.025,23.561,10.439z"/>
<path style="fill:none;stroke:#000000;stroke-width:2;stroke-miterlimit:10;" d="M16.625,11c0,0-4.75,1.25-7.125,3.875
	c-2.438,2.694-2.601,6.347-3,8c-0.875,3.625-2.5,6-2.5,6s8.5-0.5,13.5-6.375c2.483-2.917,3.5-7.125,3.5-7.125"/>
</svg>
