<?xml version="1.0" encoding="utf-8"?>
<!-- Generator: Adobe Illustrator 18.1.1, SVG Export Plug-In . SVG Version: 6.00 Build 0)  -->
<svg version="1.1" id="Layer_1" xmlns="http://www.w3.org/2000/svg" xmlns:xlink="http://www.w3.org/1999/xlink" x="0px" y="0px"
	 viewBox="0 0 32 32" enable-background="new 0 0 32 32" xml:space="preserve">
<line fill="none" stroke="#000000" stroke-width="2" stroke-miterlimit="10" x1="5" y1="28" x2="5" y2="4"/>
<line fill="none" stroke="#000000" stroke-width="2" stroke-miterlimit="10" x1="16" y1="15" x2="16" y2="12"/>
<line fill="none" stroke="#000000" stroke-width="2" stroke-miterlimit="10" x1="16" y1="10" x2="16" y2="8"/>
<line fill="none" stroke="#000000" stroke-width="2" stroke-miterlimit="10" x1="12" y1="10" x2="20" y2="10"/>
<circle cx="21" cy="10" r="2"/>
<circle cx="11" cy="10" r="2"/>
<path fill="none" stroke="#000000" stroke-width="2" stroke-miterlimit="10" d="M18.2,15c-0.5-0.6-1.3-1-2.2-1s-1.7,0.4-2.2,1H5v4
	h8.8c0.5,0.6,1.3,1,2.2,1s1.7-0.4,2.2-1H22c0.6,0,1,0.4,1,1v4h4v-4c0-2.8-2.2-5-5-5H18.2z"/>
</svg>
