<?xml version="1.0" encoding="utf-8"?>
<!-- Generator: Adobe Illustrator 18.0.0, SVG Export Plug-In . SVG Version: 6.00 Build 0)  -->
<svg version="1.1" id="Layer_1" xmlns="http://www.w3.org/2000/svg" xmlns:xlink="http://www.w3.org/1999/xlink" x="0px" y="0px"
	 viewBox="0 0 32 32" enable-background="new 0 0 32 32" xml:space="preserve">
<path id="XMLID_7452_" d="M8.5,15.5c0,0,0-0.1,0-0.1c-0.2-0.2-0.4-0.3-0.7-0.4c-0.2,0.3-0.5,0.5-0.8,0.5c-0.2,0-0.3,0-0.5-0.1
	C6.2,15.7,6,16.1,6,16.5c0,0.7,0.5,1.3,1.2,1.5c0.2-0.3,0.5-0.5,0.8-0.5c0.2,0,0.3,0,0.5,0.1C8.8,17.4,9,17,9,16.5
	c0-0.1,0-0.1,0-0.1C8.7,16.2,8.5,15.9,8.5,15.5z"/>
<path id="XMLID_7453_" d="M15.5,9.5c0,0,0-0.1,0-0.1c-0.2-0.2-0.4-0.3-0.7-0.4c-0.2,0.3-0.5,0.5-0.8,0.5c-0.2,0-0.3,0-0.5-0.1
	c-0.3,0.3-0.5,0.7-0.5,1.1c0,0.7,0.5,1.3,1.2,1.5c0.2-0.3,0.5-0.5,0.8-0.5c0.2,0,0.3,0,0.5,0.1c0.3-0.3,0.5-0.7,0.5-1.1
	c0-0.1,0-0.1,0-0.1C15.7,10.2,15.5,9.9,15.5,9.5z"/>
<path id="XMLID_1_" d="M21.5,8.5c0,0,0-0.1,0-0.1c-0.2-0.2-0.4-0.3-0.7-0.4c-0.2,0.3-0.5,0.5-0.8,0.5c-0.2,0-0.3,0-0.5-0.1
	C19.2,8.7,19,9.1,19,9.5c0,0.7,0.5,1.3,1.2,1.5c0.2-0.3,0.5-0.5,0.8-0.5c0.2,0,0.3,0,0.5,0.1C21.8,10.4,22,10,22,9.5
	c0-0.1,0-0.1,0-0.1C21.7,9.2,21.5,8.9,21.5,8.5z"/>
<path id="XMLID_7454_" d="M17.5,14C17.5,14,17.5,14,17.5,14c0.3,0.1,0.6,0,0.8-0.1c-0.1-0.3,0-0.7,0.3-0.9c0.1-0.1,0.3-0.2,0.4-0.2
	c0-0.4-0.1-0.8-0.4-1.2c-0.5-0.5-1.3-0.6-1.9-0.2c0.1,0.3,0,0.7-0.3,0.9c-0.1,0.1-0.3,0.2-0.4,0.2c0,0.4,0.1,0.8,0.4,1.2
	c0,0,0.1,0.1,0.1,0.1C16.9,13.6,17.2,13.7,17.5,14z"/>
<path id="XMLID_7455_" d="M6.5,22.9C6.5,22.9,6.5,23,6.5,22.9c0.3,0.1,0.6,0,0.8-0.1c-0.1-0.3,0-0.7,0.3-0.9
	c0.1-0.1,0.3-0.2,0.4-0.2c0-0.4-0.1-0.8-0.4-1.2c-0.5-0.5-1.3-0.6-1.9-0.2c0.1,0.3,0,0.7-0.3,0.9c-0.1,0.1-0.3,0.2-0.4,0.2
	c0,0.4,0.1,0.8,0.4,1.2c0,0,0.1,0.1,0.1,0.1C5.9,22.6,6.2,22.7,6.5,22.9z"/>
<line id="XMLID_7456_" fill="none" stroke="#000000" stroke-width="2" stroke-linejoin="round" stroke-miterlimit="10" x1="27" y1="27" x2="9" y2="27"/>
<path fill="none" stroke="#000000" stroke-width="2" stroke-miterlimit="10" d="M24,6h-3V5h-6v1c-1.9,0-3.7,0.9-4.8,2.4L9,10l3,5v12
	h12V6z"/>
<path fill="none" stroke="#000000" stroke-width="2" stroke-miterlimit="10" d="M24,14h-8c-2.2,0-4,1.8-4,4v1"/>
<circle cx="18" cy="23" r="1"/>
</svg>
