<?xml version="1.0" encoding="utf-8"?>
<!-- Generator: Adobe Illustrator 18.1.1, SVG Export Plug-In . SVG Version: 6.00 Build 0)  -->
<svg version="1.1" id="Layer_1" xmlns="http://www.w3.org/2000/svg" xmlns:xlink="http://www.w3.org/1999/xlink" x="0px" y="0px"
	 viewBox="0 0 32 32" enable-background="new 0 0 32 32" xml:space="preserve">
<path fill="none" stroke="#000000" stroke-width="2" stroke-miterlimit="10" d="M8,21v-7.5C8,12.7,7.3,12,6.5,12h0
	C5.7,12,5,12.7,5,13.5V27h3v-2h16v2h3v-6H8z"/>
<path fill="none" stroke="#000000" stroke-width="2" stroke-miterlimit="10" d="M13,21h14v-3c0-1.1-0.9-2-2-2H13V21z"/>
<circle fill="none" stroke="#000000" stroke-width="2" stroke-miterlimit="10" cx="10" cy="10" r="3"/>
<line fill="none" stroke="#000000" stroke-width="2" stroke-miterlimit="10" x1="13" y1="16" x2="11" y2="12"/>
<path fill="none" stroke="#000000" stroke-width="2" stroke-miterlimit="10" d="M27,5v6h-4c0,0-0.4,1-1,1s-1-1-1-1h-4V5
	c0,0,3.5,0,4,0c0.5,0,1,1,1,1s0.4-1,1-1S27,5,27,5z"/>
<line fill="none" stroke="#000000" stroke-width="2" stroke-miterlimit="10" x1="22" y1="12" x2="22" y2="5"/>
</svg>
