<?xml version="1.0" encoding="iso-8859-1"?>
<!-- Generator: Adobe Illustrator 21.1.0, SVG Export Plug-In . SVG Version: 6.00 Build 0)  -->
<svg version="1.1" id="Layer_1" xmlns="http://www.w3.org/2000/svg" xmlns:xlink="http://www.w3.org/1999/xlink" x="0px" y="0px"
	 viewBox="0 0 32 32" style="enable-background:new 0 0 32 32;" xml:space="preserve">
<line style="fill:none;stroke:#000000;stroke-width:2;stroke-miterlimit:10;" x1="22.083" y1="25" x2="22.083" y2="28"/>
<line style="fill:none;stroke:#000000;stroke-width:2;stroke-miterlimit:10;" x1="23.875" y1="17.5" x2="29.375" y2="21.125"/>
<path style="fill:none;stroke:#000000;stroke-width:2;stroke-miterlimit:10;" d="M22.083,25H9c-1.105,0-2-0.895-2-2v-3.042
	c0-3.866,3.134-6,7-6h6.083c2.209,0,4,1.791,4,4V23C24.083,24.105,23.188,25,22.083,25z"/>
<polygon points="9.361,28 10.856,25.516 9.144,24.484 7.028,28 "/>
<path style="fill:none;stroke:#000000;stroke-width:2;stroke-miterlimit:10;" d="M11.567,14.13L9,9.75V8c0-1.657-1.343-3-3-3
	S3,6.343,3,8l4.998,8.543"/>
</svg>
