<?xml version="1.0" encoding="iso-8859-1"?>
<!-- Generator: Adobe Illustrator 19.1.1, SVG Export Plug-In . SVG Version: 6.00 Build 0)  -->
<svg version="1.1" id="Layer_1" xmlns="http://www.w3.org/2000/svg" xmlns:xlink="http://www.w3.org/1999/xlink" x="0px" y="0px"
	 viewBox="0 0 32 32" style="enable-background:new 0 0 32 32;" xml:space="preserve">
<path style="fill:none;stroke:#000000;stroke-width:2;stroke-miterlimit:10;" d="M22,28c0-1.986-4-1-4-4c0-1.776,0-5,0-5"/>
<path style="fill:none;stroke:#000000;stroke-width:2;stroke-miterlimit:10;" d="M10,28c0-1.986,4-1,4-4c0-1.776,0-5,0-5"/>
<polygon style="fill:none;stroke:#000000;stroke-width:2;stroke-miterlimit:10;" points="21,19 11,19 11,12.767 16,10 21,12.767 "/>
<rect x="14" y="14" width="4" height="3"/>
<path style="fill:none;stroke:#000000;stroke-width:2;stroke-miterlimit:10;" d="M18,21.655h0.417C18.954,22.465,19.955,23,21,23
	c1.311,0,2.414-0.846,2.822-2.018C23.882,20.986,23.939,21,24,21c1.657,0,3-1.343,3-3c0-0.772-0.3-1.468-0.779-2
	C26.7,15.468,27,14.772,27,14c0-1.311-0.846-2.414-2.018-2.822C24.986,11.118,25,11.061,25,11c0-1.657-1.343-3-3-3
	c-0.061,0-0.118,0.014-0.178,0.018C21.414,6.846,20.311,6,19,6c-0.243,0-0.477,0.037-0.703,0.092C17.747,5.43,16.928,5,16,5
	s-1.747,0.43-2.297,1.092C13.477,6.037,13.243,6,13,6c-1.311,0-2.414,0.846-2.822,2.018C10.118,8.014,10.061,8,10,8
	c-1.657,0-3,1.343-3,3c0,0.061,0.014,0.118,0.018,0.178C5.846,11.586,5,12.689,5,14c0,0.772,0.3,1.468,0.779,2
	C5.3,16.532,5,17.228,5,18c0,1.657,1.343,3,3,3c0.061,0,0.118-0.014,0.178-0.018C8.586,22.154,9.689,23,11,23
	c1.045,0,2.004-0.535,2.542-1.345H14"/>
</svg>
