<?xml version="1.0" encoding="utf-8"?>
<!-- Generator: Adobe Illustrator 18.1.1, SVG Export Plug-In . SVG Version: 6.00 Build 0)  -->
<svg version="1.1" id="Layer_1" xmlns="http://www.w3.org/2000/svg" xmlns:xlink="http://www.w3.org/1999/xlink" x="0px" y="0px"
	 viewBox="0 0 32 32" enable-background="new 0 0 32 32" xml:space="preserve">
<path fill="none" stroke="#000000" stroke-width="2" stroke-linecap="round" stroke-miterlimit="10" d="M26,24h-4c-0.6,0-1,0.4-1,1
	v2h6v-2C27,24.4,26.6,24,26,24z"/>
<path fill="none" stroke="#000000" stroke-width="2" stroke-miterlimit="10" d="M8.8,25.8C9.2,25.9,9.6,26,10,26c2.8,0,8-1.2,8-4
	s-5.2-6-8-6s-5,2.2-5,5c0,0.9,0.3,1.8,0.7,2.5"/>
<circle fill="none" stroke="#000000" stroke-width="2" stroke-miterlimit="10" cx="7" cy="25" r="2"/>
<path fill="none" stroke="#000000" stroke-width="2" stroke-miterlimit="10" d="M24,24L19.8,8c-0.5-1.8-2.1-3-3.9-3h-5.4
	C9.1,5,8,6.1,8,7.5v0C8,8.9,9.1,10,10.5,10h2.7c1.3,0,2.2,1.3,1.7,2.5L13,17"/>
</svg>
