<?xml version="1.0" encoding="iso-8859-1"?>
<!-- Generator: Adobe Illustrator 19.1.1, SVG Export Plug-In . SVG Version: 6.00 Build 0)  -->
<svg version="1.1"  xmlns="http://www.w3.org/2000/svg" xmlns:xlink="http://www.w3.org/1999/xlink" x="0px" y="0px"
	 viewBox="0 0 32 32" style="enable-background:new 0 0 32 32;" xml:space="preserve">
<polyline style="fill:none;stroke:#000000;stroke-width:2;stroke-miterlimit:10;" points="25,22 25,28 7,28 7,22 "/>
<polyline style="fill:none;stroke:#000000;stroke-width:2;stroke-miterlimit:10;" points="7,10 7,4 25,4 25,10 "/>
<polyline style="fill:none;stroke:#000000;stroke-width:2;stroke-miterlimit:10;" points="12,20 12,19 10.05,13 9.95,13 8,19 8,20 
	"/>
<line  style="fill:none;stroke:#000000;stroke-width:2;stroke-miterlimit:10;" x1="8.391" y1="18" x2="11.609" y2="18"/>
<path  style="fill:none;stroke:#000000;stroke-width:2;stroke-miterlimit:10;" d="M15,20v-7h1c1.105,0,2,0.895,2,2v0
	c0,1.105-0.895,2-2,2h-1"/>
<polygon  points="25,12 23,12 20,18 22,18 "/>
<polygon  points="21,15 23,15 25,20 23,20 "/>
<line  style="fill:none;stroke:#000000;stroke-width:2;stroke-miterlimit:10;" x1="21" y1="12" x2="21" y2="20"/>
</svg>
