<?xml version="1.0" encoding="iso-8859-1"?>
<!-- Generator: Adobe Illustrator 21.1.0, SVG Export Plug-In . SVG Version: 6.00 Build 0)  -->
<svg version="1.1" id="Layer_1" xmlns="http://www.w3.org/2000/svg" xmlns:xlink="http://www.w3.org/1999/xlink" x="0px" y="0px"
	 viewBox="0 0 32 32" style="enable-background:new 0 0 32 32;" xml:space="preserve">
<polyline style="fill:none;stroke:#000000;stroke-width:2;stroke-miterlimit:10;" points="25,22 25,28 7,28 7,22 "/>
<polyline style="fill:none;stroke:#000000;stroke-width:2;stroke-miterlimit:10;" points="7,10 7,4 25,4 25,10 "/>
<path style="fill:none;stroke:#000000;stroke-width:2;stroke-miterlimit:10;" d="M15.5,13H14v3h1.5c0.828,0,1.5-0.672,1.5-1.5
	S16.328,13,15.5,13z"/>
<path style="fill:none;stroke:#000000;stroke-width:2;stroke-miterlimit:10;" d="M15.5,16H14v3h1.5c0.828,0,1.5-0.672,1.5-1.5
	S16.328,16,15.5,16z"/>
<polyline id="XMLID_323_" style="fill:none;stroke:#000000;stroke-width:2;stroke-miterlimit:10;" points="8,20 8,13 12,13 "/>
<line id="XMLID_322_" style="fill:none;stroke:#000000;stroke-width:2;stroke-miterlimit:10;" x1="8" y1="16" x2="11" y2="16"/>
<polygon points="25,12 23,12 19,20 21,20 "/>
<polygon points="19,12 21,12 25,20 23,20 "/>
</svg>
