<?xml version="1.0" encoding="utf-8"?>
<!-- Generator: Adobe Illustrator 18.0.0, SVG Export Plug-In . SVG Version: 6.00 Build 0)  -->
<svg version="1.1" id="Layer_1" xmlns="http://www.w3.org/2000/svg" xmlns:xlink="http://www.w3.org/1999/xlink" x="0px" y="0px"
	 viewBox="0 0 32 32" enable-background="new 0 0 32 32" xml:space="preserve">
<path fill="none" stroke="#000000" stroke-width="2" stroke-miterlimit="10" d="M16,20v-7h1c1.1,0,2,0.9,2,2v0c0,1.1-0.9,2-2,2h-1"
	/>
<path fill="none" stroke="#000000" stroke-width="2" stroke-miterlimit="10" d="M21,19h2.5c0.8,0,1.5-0.7,1.5-1.5v0
	c0-0.8-0.7-1.5-1.5-1.5H23"/>
<path fill="none" stroke="#000000" stroke-width="2" stroke-miterlimit="10" d="M22,16h1.5c0.8,0,1.5-0.7,1.5-1.5v0
	c0-0.8-0.7-1.5-1.5-1.5H21"/>
<polyline id="XMLID_13_" fill="none" stroke="#000000" stroke-width="2" stroke-miterlimit="10" points="8,20 8,13 8.5,13 10,15 
	11.5,13 12,13 12,20 "/>
<polyline fill="none" stroke="#000000" stroke-width="2" stroke-miterlimit="10" points="25,22 25,28 7,28 7,22 "/>
<polyline fill="none" stroke="#000000" stroke-width="2" stroke-miterlimit="10" points="7,10 7,4 25,4 25,10 "/>
</svg>
