<?xml version="1.0" encoding="iso-8859-1"?>
<!-- Generator: Adobe Illustrator 19.2.0, SVG Export Plug-In . SVG Version: 6.00 Build 0)  -->
<svg version="1.1" id="Layer_1" xmlns="http://www.w3.org/2000/svg" xmlns:xlink="http://www.w3.org/1999/xlink" x="0px" y="0px"
	 viewBox="0 0 32 32" style="enable-background:new 0 0 32 32;" xml:space="preserve">
<circle style="fill:none;stroke:#000000;stroke-width:2;stroke-miterlimit:10;" cx="11" cy="18" r="5"/>
<circle style="fill:none;stroke:#000000;stroke-width:2;stroke-miterlimit:10;" cx="21" cy="18" r="5"/>
<path d="M16,9.34C14.482,8.461,12.767,8,11,8c-2.724,0-5.195,1.098-7,2.871v3.265C5.365,11.673,7.99,10,11,10
	c1.589,0,3.126,0.466,4.444,1.349L16,11.721l0.556-0.373C17.874,10.466,19.411,10,21,10c3.01,0,5.635,1.673,7,4.136v-3.265
	C26.195,9.098,23.724,8,21,8C19.233,8,17.518,8.461,16,9.34z"/>
</svg>
