<?xml version="1.0" encoding="iso-8859-1"?>
<!-- Generator: Adobe Illustrator 19.1.1, SVG Export Plug-In . SVG Version: 6.00 Build 0)  -->
<svg version="1.1" id="Layer_1" xmlns="http://www.w3.org/2000/svg" xmlns:xlink="http://www.w3.org/1999/xlink" x="0px" y="0px"
	 viewBox="0 0 32 32" style="enable-background:new 0 0 32 32;" xml:space="preserve">
<path id="XMLID_309_" style="fill:none;stroke:#000000;stroke-width:2;stroke-miterlimit:10;" d="M21,15v-0.5
	c0-0.828,0.672-1.5,1.5-1.5h0c0.828,0,1.5,0.672,1.5,1.5v0.84c0,0.42-0.176,0.822-0.486,1.106L21,18.75V19h4"/>
<path id="XMLID_308_" style="fill:none;stroke:#000000;stroke-width:2;stroke-miterlimit:10;" d="M15,16h1.5
	c0.828,0,1.5-0.672,1.5-1.5v0c0-0.828-0.672-1.5-1.5-1.5H15v7"/>
<polygon id="XMLID_307_" points="17.688,16.018 15.688,16.018 17,20 19,20 "/>
<polyline style="fill:none;stroke:#000000;stroke-width:2;stroke-miterlimit:10;" points="25,22 25,28 7,28 7,22 "/>
<polyline style="fill:none;stroke:#000000;stroke-width:2;stroke-miterlimit:10;" points="7,10 7,4 25,4 25,10 "/>
<path id="XMLID_310_" style="fill:none;stroke:#000000;stroke-width:2;stroke-miterlimit:10;" d="M12,17v0.5
	c0,0.828-0.672,1.5-1.5,1.5h0C9.672,19,9,18.328,9,17.5v-3c0-0.828,0.672-1.5,1.5-1.5h0c0.828,0,1.5,0.672,1.5,1.5V15"/>
</svg>
