<?xml version="1.0" encoding="iso-8859-1"?>
<!-- Generator: Adobe Illustrator 19.1.1, SVG Export Plug-In . SVG Version: 6.00 Build 0)  -->
<svg version="1.1" id="Layer_1" xmlns="http://www.w3.org/2000/svg" xmlns:xlink="http://www.w3.org/1999/xlink" x="0px" y="0px"
	 viewBox="0 0 32 32" style="enable-background:new 0 0 32 32;" xml:space="preserve">
<path d="M6,5L3,4h9.505C14.828,4,22,3.563,22,13.563S14.727,23,12.505,23H3l3-1L6,5z M19,13.563C19,4.775,15.232,5,13.111,5h-4.04
	v17h4.04C15.232,22,19,22.35,19,13.563z"/>
<path d="M13,10l-3-1h9.505C21.828,9,29,8.563,29,18.563S21.727,28,19.505,28H10l3-1V10z M26,18.563C26,9.775,22.232,10,20.111,10
	h-4.04v17h4.04C22.232,27,26,27.35,26,18.563z"/>
</svg>
