<?xml version="1.0" encoding="iso-8859-1"?>
<!-- Generator: Adobe Illustrator 19.1.1, SVG Export Plug-In . SVG Version: 6.00 Build 0)  -->
<svg version="1.1"  xmlns="http://www.w3.org/2000/svg" xmlns:xlink="http://www.w3.org/1999/xlink" x="0px" y="0px"
	 viewBox="0 0 32 32" style="enable-background:new 0 0 32 32;" xml:space="preserve">
<line style="fill:none;stroke:#000000;stroke-width:2;stroke-linecap:round;stroke-miterlimit:10;" x1="6" y1="26" x2="17.427" y2="14.573"/>
<line style="fill:none;stroke:#000000;stroke-width:2;stroke-miterlimit:10;" x1="15.002" y1="18.075" x2="23.147" y2="26.22"/>
<g>
	<g>
		<path style="fill:none;stroke:#000000;stroke-width:2;stroke-linecap:round;stroke-miterlimit:10;" d="M21.5,5
			C18.462,5,16,7.463,16,10.5c0,3.747,3.747,5.548,5.133,10.872c0.096,0.366,0.064,0.632,0.367,0.632s0.271-0.266,0.367-0.632
			C23.253,16.048,27,14.247,27,10.5C27,7.463,24.538,5,21.5,5z"/>
	</g>
</g>
<circle cx="21.5" cy="10.5" r="1.5"/>
<path style="fill:none;stroke:#000000;stroke-width:2;stroke-miterlimit:10;" d="M17,7H7C5.895,7,5,7.895,5,9v16
	c0,1.105,0.895,2,2,2h16c1.105,0,2-0.895,2-2V15"/>
<path d="M10,12v1h1.722c-0.347,0.595-0.985,1-1.722,1c-1.103,0-2-0.897-2-2s0.897-2,2-2c0.551,0,1.051,0.224,1.414,0.586
	l0.708-0.708C11.578,9.336,10.828,9,10,9c-1.657,0-3,1.343-3,3s1.343,3,3,3s3-1.343,3-3H10z"/>
</svg>
