<?xml version="1.0" encoding="iso-8859-1"?>
<!-- Generator: Adobe Illustrator 22.0.1, SVG Export Plug-In . SVG Version: 6.00 Build 0)  -->
<svg version="1.1" id="Icons" xmlns="http://www.w3.org/2000/svg" xmlns:xlink="http://www.w3.org/1999/xlink" x="0px" y="0px"
	 viewBox="0 0 32 32" style="enable-background:new 0 0 32 32;" xml:space="preserve">
<g>
	<path style="fill:none;stroke:#000000;stroke-width:2;stroke-miterlimit:10;" d="M11.969,19H6V6h20v7.031 M11.969,24H4.414
		C3.633,24,3,23.367,3,22.586c0-0.375,0.148-0.734,0.414-1L6,19h6.031"/>
	<g>
		
			<ellipse transform="matrix(0.7071 -0.7071 0.7071 0.7071 -9.1127 22)" style="fill:none;stroke:#000000;stroke-width:2;stroke-miterlimit:10;" cx="22" cy="22" rx="5" ry="6"/>
		<path style="fill:none;stroke:#000000;stroke-width:2;stroke-miterlimit:10;" d="M16.72,22.414
			c1.691,0.403,3.405,0.047,4.573-1.121c1.16-1.16,1.519-2.86,1.128-4.54"/>
		<line style="fill:none;stroke:#000000;stroke-width:2;stroke-miterlimit:10;" x1="14.222" y1="24.121" x2="16.343" y2="23.414"/>
		<line style="fill:none;stroke:#000000;stroke-width:2;stroke-miterlimit:10;" x1="20.586" y1="26.243" x2="19.879" y2="29.778"/>
		<line style="fill:none;stroke:#000000;stroke-width:2;stroke-miterlimit:10;" x1="16.343" y1="27.657" x2="18.42" y2="25.58"/>
		<line style="fill:none;stroke:#000000;stroke-width:2;stroke-miterlimit:10;" x1="24.121" y1="14.222" x2="23.414" y2="16.343"/>
		<line style="fill:none;stroke:#000000;stroke-width:2;stroke-miterlimit:10;" x1="26.243" y1="20.586" x2="29.778" y2="19.879"/>
		<line style="fill:none;stroke:#000000;stroke-width:2;stroke-miterlimit:10;" x1="27.657" y1="16.343" x2="25.58" y2="18.42"/>
		<line style="fill:none;stroke:#000000;stroke-width:2;stroke-miterlimit:10;" x1="21.293" y1="21.293" x2="25.536" y2="25.536"/>
		<line style="fill:none;stroke:#000000;stroke-width:2;stroke-miterlimit:10;" x1="16" y1="20" x2="14" y2="19"/>
		<line style="fill:none;stroke:#000000;stroke-width:2;stroke-miterlimit:10;" x1="20" y1="16" x2="19" y2="14"/>
	</g>
</g>
</svg>
