<?xml version="1.0" encoding="iso-8859-1"?>
<!-- Generator: Adobe Illustrator 19.1.0, SVG Export Plug-In . SVG Version: 6.00 Build 0)  -->
<svg version="1.1" id="Layer_1" xmlns="http://www.w3.org/2000/svg" xmlns:xlink="http://www.w3.org/1999/xlink" x="0px" y="0px"
	 viewBox="0 0 32 32" style="enable-background:new 0 0 32 32;" xml:space="preserve">
<line style="fill:none;stroke:#000000;stroke-width:2;stroke-miterlimit:10;" x1="3" y1="3" x2="29" y2="29"/>
<g>
	<path d="M17.276,21.476l-2.492-2.492c-0.136,0.826,0.049,1.601,0.602,2.087C15.879,21.505,16.564,21.626,17.276,21.476z"/>
	<path d="M18.888,23.088c-1.859,0.854-3.881,0.911-3.909,0.912l-0.522,0.012l-0.289,0.434C14.151,24.471,12.425,27,8.991,27
		c-1.972,0-3.229-0.336-3.885-0.582c0.24-1.199,0.838-3.183,1.981-4.327c1.701-1.701,4.034-2.1,4.055-2.103l0.7-0.115l0.129-0.695
		c0.003-0.014,0.186-0.926,0.87-2.136l-1.46-1.46c-0.662,1.052-1.025,1.984-1.208,2.576c-0.995,0.265-2.928,0.946-4.5,2.519
		c-2.191,2.19-2.649,6.048-2.668,6.211l-0.067,0.6l0.499,0.34C3.614,27.947,5.271,29,8.991,29c3.588,0,5.748-2.107,6.521-3.028
		c0.93-0.077,2.999-0.362,4.861-1.399L18.888,23.088z"/>
	<path d="M14.019,15.39c0.163-0.189,0.323-0.377,0.512-0.566c2.012-2.011,4.283-1.843,4.367-1.829l1.073,0.11L20,12.026
		c0-0.02,0.082-2.044,1.13-3.339c1.268-1.565,3.293-2.773,4.417-3.367C26.103,6.431,27,8.604,27,11.059
		c0,3.972-3.142,4.94-3.269,4.979l-0.67,0.189l-0.059,0.692c-0.002,0.029-0.266,2.898-2.343,4.977
		c-0.023,0.023-0.049,0.042-0.072,0.065l1.412,1.412c0.023-0.023,0.05-0.04,0.074-0.063c1.967-1.968,2.622-4.422,2.831-5.577
		C26.596,16.99,29,14.951,29,11.059c0-4.114-2.107-7.457-2.197-7.598l-0.462-0.722l-0.784,0.346
		C25.4,3.153,21.703,4.801,19.575,7.43c-0.945,1.168-1.323,2.643-1.475,3.591c-1.171,0.109-3.175,0.581-4.984,2.39
		c-0.186,0.186-0.354,0.373-0.519,0.559L14.019,15.39z"/>
	<path d="M19.754,16.103c-1.002-0.881-2.793-0.484-3.999,0.888c-0.022,0.025-0.037,0.052-0.058,0.077l3.399,3.399
		c0.098-0.093,0.198-0.18,0.29-0.284C20.591,18.811,20.756,16.984,19.754,16.103z"/>
</g>
<ellipse transform="matrix(0.9346 0.3557 -0.3557 0.9346 5.6742 -7.6092)" cx="23.53" cy="11.626" rx="1.734" ry="2.373"/>
<ellipse transform="matrix(0.5805 0.8142 -0.8142 0.5805 23.5118 1.8852)" cx="9.926" cy="23.762" rx="1.585" ry="2.169"/>
</svg>
