<?xml version="1.0" encoding="utf-8"?>
<!-- Generator: Adobe Illustrator 18.1.1, SVG Export Plug-In . SVG Version: 6.00 Build 0)  -->
<svg version="1.1" id="Layer_1" xmlns="http://www.w3.org/2000/svg" xmlns:xlink="http://www.w3.org/1999/xlink" x="0px" y="0px"
	 viewBox="0 0 32 32" enable-background="new 0 0 32 32" xml:space="preserve">
<ellipse fill="none" stroke="#000000" stroke-width="2" stroke-miterlimit="10" cx="21.5" cy="8.5" rx="5.5" ry="2.5"/>
<path fill="none" stroke="#000000" stroke-width="2" stroke-miterlimit="10" d="M16,8.5c0,0,0,3.4,0,4c0,1.4,2.5,2.5,5.5,2.5
	s5.5-1.1,5.5-2.5c0-0.6,0-4,0-4"/>
<path fill="none" stroke="#000000" stroke-width="2" stroke-miterlimit="10" d="M16,12.5c0,0,0,3.4,0,4c0,1.4,2.5,2.5,5.5,2.5
	s5.5-1.1,5.5-2.5c0-0.6,0-4,0-4"/>
<path fill="none" stroke="#000000" stroke-width="2" stroke-miterlimit="10" d="M16,16.5c0,0,0,3.4,0,4c0,1.4,2.5,2.5,5.5,2.5
	s5.5-1.1,5.5-2.5c0-0.6,0-4,0-4"/>
<ellipse fill="none" stroke="#000000" stroke-width="2" stroke-miterlimit="10" cx="10.5" cy="15.5" rx="5.5" ry="2.5"/>
<path fill="none" stroke="#000000" stroke-width="2" stroke-miterlimit="10" d="M5,15.5c0,0,0,3.4,0,4c0,1.4,2.5,2.5,5.5,2.5
	s5.5-1.1,5.5-2.5c0-0.6,0-4,0-4"/>
<path fill="none" stroke="#000000" stroke-width="2" stroke-miterlimit="10" d="M5,19.5c0,0,0,3.4,0,4c0,1.4,2.5,2.5,5.5,2.5
	s5.5-1.1,5.5-2.5c0-0.6,0-4,0-4"/>
</svg>
