<?xml version="1.0" encoding="iso-8859-1"?>
<!-- Generator: Adobe Illustrator 21.0.0, SVG Export Plug-In . SVG Version: 6.00 Build 0)  -->
<svg version="1.1" id="Layer_1" xmlns="http://www.w3.org/2000/svg" xmlns:xlink="http://www.w3.org/1999/xlink" x="0px" y="0px"
	 viewBox="0 0 32 32" style="enable-background:new 0 0 32 32;" xml:space="preserve">
<g>
	<path d="M11.06,12.307L4.537,8.156C4.071,7.86,3.453,7.997,3.156,8.463C2.86,8.929,2.997,9.547,3.463,9.844l8.661,5.511
		L11.06,12.307z"/>
	<path d="M24.286,18.036L20.34,15h-2.641l0.698,2h1.263l3.407,2.622c0.182,0.14,0.396,0.207,0.608,0.207
		c0.3,0,0.597-0.134,0.794-0.391C24.806,19.001,24.725,18.373,24.286,18.036z"/>
</g>
<g>
	<path d="M26.202,21.977c-1.606,0-3.059-1.115-3.419-2.746c-0.415-1.885,0.78-3.756,2.665-4.172h-0.001
		c1.884-0.414,3.756,0.779,4.172,2.664c0.201,0.913,0.035,1.85-0.468,2.638c-0.503,0.787-1.283,1.332-2.195,1.534
		C26.703,21.95,26.451,21.977,26.202,21.977z M26.201,16.976c-0.106,0-0.215,0.012-0.322,0.036h-0.001
		c-0.808,0.178-1.319,0.98-1.142,1.788c0.179,0.808,0.98,1.319,1.789,1.142c0.391-0.086,0.725-0.32,0.94-0.658
		c0.216-0.337,0.287-0.738,0.2-1.129C27.512,17.454,26.89,16.976,26.201,16.976z M25.663,16.035h0.01H25.663z"/>
</g>
<g>
	<path d="M19.05,29.802c-1.241,0-2.405-0.775-2.836-2.012l-1.648-4.72c-0.264-0.757-0.217-1.57,0.13-2.292
		c0.349-0.723,0.957-1.266,1.714-1.529c0.757-0.264,1.57-0.218,2.292,0.13c0.722,0.349,1.265,0.957,1.529,1.713l1.647,4.722
		c0.264,0.755,0.218,1.569-0.13,2.291c-0.349,0.723-0.957,1.266-1.713,1.53h-0.001C19.708,29.748,19.376,29.802,19.05,29.802z
		 M19.705,28.69h0.01H19.705z M17.399,21.081c-0.111,0-0.223,0.019-0.331,0.057c-0.252,0.088-0.455,0.269-0.571,0.509
		c-0.116,0.241-0.132,0.512-0.043,0.764l1.648,4.721c0.181,0.52,0.749,0.798,1.272,0.615l0,0c0.252-0.088,0.455-0.269,0.571-0.51
		c0.116-0.24,0.132-0.512,0.043-0.764l-1.647-4.722c-0.088-0.252-0.269-0.454-0.51-0.57C17.695,21.114,17.547,21.081,17.399,21.081z
		"/>
</g>
<g>
	<path d="M19.969,24.406c-0.414,0-0.802-0.259-0.945-0.673l-1.261-3.64l-3.148-2.957L10.058,4.335
		c-0.186-0.521,0.086-1.092,0.606-1.277c0.519-0.186,1.092,0.086,1.277,0.606l4.394,12.345l3.155,2.963l1.423,4.106
		c0.181,0.521-0.096,1.091-0.618,1.272C20.188,24.389,20.077,24.406,19.969,24.406z"/>
</g>
</svg>
