<?xml version="1.0" encoding="iso-8859-1"?>
<!-- Generator: Adobe Illustrator 19.0.1, SVG Export Plug-In . SVG Version: 6.00 Build 0)  -->
<svg version="1.1" id="Layer_1" xmlns="http://www.w3.org/2000/svg" xmlns:xlink="http://www.w3.org/1999/xlink" x="0px" y="0px"
	 viewBox="0 0 32 32" style="enable-background:new 0 0 32 32;" xml:space="preserve">
<circle id="XMLID_303_" style="fill:none;stroke:#000000;stroke-width:2;stroke-miterlimit:10;" cx="22" cy="7" r="2"/>
<circle id="XMLID_268_" cx="19" cy="27" r="1"/>
<circle id="XMLID_262_" cx="11" cy="27" r="1"/>
<path id="XMLID_305_" style="fill:none;stroke:#000000;stroke-width:2;stroke-miterlimit:10;" d="M9.582,11.341l3.88-2.21
	C13.613,9.045,13.784,9,13.958,9h3.181c0.778,0,1.127,0.976,0.525,1.469l-3.194,2.619c-0.641,0.525-0.619,1.513,0.045,2.009
	L17.64,17.7c0.228,0.19,0.36,0.472,0.36,0.768V23"/>
<path id="XMLID_259_" style="fill:none;stroke:#000000;stroke-width:2;stroke-miterlimit:10;" d="M13.417,17.207l-1.253,1.448
	C11.974,18.874,11.698,19,11.408,19H7"/>
<polygon id="XMLID_311_" points="19.188,11.993 16.777,13.993 23,13.993 23,11.993 "/>
<polyline id="XMLID_285_" style="fill:none;stroke:#000000;stroke-width:2;stroke-miterlimit:10;" points="23,24 20,25 10,25 7,24 
	"/>
</svg>
