<?xml version="1.0" encoding="iso-8859-1"?>
<!-- Generator: Adobe Illustrator 19.1.1, SVG Export Plug-In . SVG Version: 6.00 Build 0)  -->
<svg version="1.1" id="Layer_1" xmlns="http://www.w3.org/2000/svg" xmlns:xlink="http://www.w3.org/1999/xlink" x="0px" y="0px"
	 viewBox="0 0 32 32" style="enable-background:new 0 0 32 32;" xml:space="preserve">
<path style="fill:none;stroke:#000000;stroke-width:2;stroke-linecap:round;stroke-linejoin:round;stroke-miterlimit:10;" d="
	M16.154,27c-0.062,0-0.123-0.002-0.183-0.005l0,0C15.932,26.998,15.892,27,15.851,27c-1.422,0-2.335-0.63-3.217-1.239
	c-0.609-0.42-1.184-0.818-1.862-0.927c-0.331-0.053-0.659-0.08-0.977-0.08c-0.573,0-1.025,0.086-1.355,0.149
	c-0.201,0.038-0.374,0.071-0.505,0.071c-0.137,0-0.286-0.029-0.351-0.245c-0.056-0.187-0.097-0.368-0.136-0.543
	c-0.101-0.451-0.172-0.728-0.366-0.757c-2.255-0.34-2.901-0.804-3.044-1.133c-0.02-0.047-0.032-0.094-0.035-0.141
	c-0.007-0.126,0.085-0.238,0.212-0.258c3.466-0.558,5.021-4.018,5.086-4.165c0.002-0.004,0.004-0.008,0.005-0.012
	c0.212-0.42,0.254-0.785,0.124-1.083c-0.238-0.548-1.014-0.788-1.527-0.947c-0.125-0.039-0.245-0.076-0.339-0.112
	c-1.025-0.396-1.11-0.802-1.07-1.009c0.069-0.353,0.551-0.599,0.941-0.599c0.107,0,0.201,0.019,0.28,0.055
	c0.461,0.211,0.877,0.318,1.235,0.318c0.495,0,0.712-0.203,0.738-0.23c-0.013-0.229-0.028-0.468-0.044-0.715
	c-0.103-1.601-0.231-3.589,0.287-4.725c1.554-3.403,4.85-3.667,5.823-3.667C15.78,5.004,16.182,5,16.182,5h0.058
	c0.975,0,4.278,0.265,5.833,3.67c0.519,1.136,0.391,3.126,0.287,4.726l-0.004,0.07c-0.014,0.223-0.028,0.439-0.04,0.646
	c0.025,0.025,0.224,0.211,0.673,0.229h0.001c0.341-0.013,0.734-0.119,1.164-0.316c0.126-0.058,0.266-0.07,0.362-0.07
	c0.146,0,0.293,0.028,0.416,0.078l0.008,0.003c0.348,0.12,0.576,0.359,0.581,0.608c0.004,0.234-0.179,0.587-1.078,0.934
	c-0.093,0.036-0.212,0.073-0.339,0.112c-0.514,0.159-1.29,0.4-1.527,0.947c-0.13,0.299-0.088,0.663,0.124,1.083
	c0.002,0.004,0.004,0.008,0.005,0.012c0.064,0.147,1.618,3.606,5.086,4.164c0.128,0.021,0.219,0.132,0.212,0.259
	c-0.003,0.047-0.015,0.095-0.035,0.142c-0.143,0.327-0.788,0.79-3.044,1.13c-0.184,0.028-0.256,0.262-0.365,0.754
	c-0.04,0.179-0.081,0.355-0.136,0.54c-0.048,0.16-0.151,0.235-0.323,0.235h-0.028c-0.119,0-0.29-0.021-0.505-0.062
	c-0.382-0.073-0.81-0.14-1.355-0.14c-0.318,0-0.647,0.027-0.978,0.08c-0.677,0.11-1.251,0.507-1.859,0.926
	C18.488,26.37,17.576,27,16.154,27z"/>
</svg>
