<?xml version="1.0" encoding="iso-8859-1"?>
<!-- Generator: Adobe Illustrator 19.0.1, SVG Export Plug-In . SVG Version: 6.00 Build 0)  -->
<svg version="1.1" id="Layer_1" xmlns="http://www.w3.org/2000/svg" xmlns:xlink="http://www.w3.org/1999/xlink" x="0px" y="0px"
	 viewBox="0 0 32 32" style="enable-background:new 0 0 32 32;" xml:space="preserve">
<g>
	<path d="M30.761,15.351C30.505,15.051,24.395,8,16,8c-2.817,0-5.367,0.8-7.535,1.867l1.546,1.546
		c0.014-0.024,0.024-0.05,0.039-0.073C11.823,10.555,13.835,10,16,10c2.164,0,4.177,0.558,5.953,1.346C22.63,12.446,23,13.7,23,15
		c0,2.536-1.355,4.776-3.399,6.002l1.836,1.836c5.046-1.99,9.047-5.909,9.269-6.13l0.655-0.653L30.761,15.351z M23.817,19.448
		C24.567,18.131,25,16.614,25,15c0-0.735-0.11-1.453-0.283-2.155c1.772,1.145,3.116,2.367,3.861,3.109
		C27.664,16.765,25.94,18.186,23.817,19.448z"/>
	<path d="M16,12c-1.468,0-2.688,1.062-2.945,2.457l3.488,3.488C17.938,17.688,19,16.468,19,15C19,13.346,17.654,12,16,12z M16,16
		c-0.552,0-1-0.449-1-1s0.448-1,1-1s1,0.449,1,1S16.552,16,16,16z"/>
	<path d="M17.585,21.815c-0.25,0.057-0.504,0.105-0.765,0.134l-0.12,0.01c-0.467,0.039-0.934,0.039-1.4,0l-0.091-0.007
		C11.67,21.554,9,18.565,9,15c0-0.536,0.078-1.059,0.199-1.572l-2.561-2.561c-3.238,1.99-5.254,4.314-5.398,4.484l-0.601,0.704
		l0.655,0.653c0.286,0.285,6.794,6.682,13.758,7.237l0.079,0.007C15.421,23.977,15.71,24,16,24s0.579-0.023,0.869-0.048l0.071-0.006
		c0.798-0.063,1.589-0.211,2.367-0.409L17.585,21.815z M3.421,15.952c0.745-0.743,2.089-1.969,3.864-3.115
		C7.111,13.541,7,14.263,7,15c0,1.612,0.432,3.128,1.182,4.444C6.06,18.182,4.335,16.763,3.421,15.952z"/>
</g>
<line style="fill:none;stroke:#000000;stroke-width:2;stroke-miterlimit:10;" x1="3" y1="3" x2="29" y2="29"/>
</svg>
