<?xml version="1.0" encoding="iso-8859-1"?>
<!-- Generator: Adobe Illustrator 19.1.1, SVG Export Plug-In . SVG Version: 6.00 Build 0)  -->
<svg version="1.1"  xmlns="http://www.w3.org/2000/svg" xmlns:xlink="http://www.w3.org/1999/xlink" x="0px" y="0px"
	 viewBox="0 0 32 32" style="enable-background:new 0 0 32 32;" xml:space="preserve">
<path style="fill:none;stroke:#000000;stroke-width:2;stroke-miterlimit:10;" d="M22.55,26c0,0-0.552-2.125-2.55-3l-0.792-0.333"/>
<circle style="fill:none;stroke:#000000;stroke-width:2;stroke-miterlimit:10;" cx="16" cy="16" r="12"/>
<path style="fill:none;stroke:#000000;stroke-width:2;stroke-miterlimit:10;" d="M16,23c5.247,0,7-3,7-3c-0.024-3.212-1-6-1-6
	c1.423-2.926-1-5-1-5l-2,2.5c0,0-1.118-0.5-3-0.5"/>
<path style="fill:none;stroke:#000000;stroke-width:2;stroke-miterlimit:10;" d="M9.45,26c0,0,0.552-2.125,2.55-3l0.833-0.333"/>
<path style="fill:none;stroke:#000000;stroke-width:2;stroke-miterlimit:10;" d="M16,11c-1.882,0-3,0.5-3,0.5L11,9
	c0,0-2.486,2.032-1,5c0,0-0.976,2.788-1,6c0,0,1.753,3,7,3"/>
<circle cx="18.5" cy="16.5" r="1.5"/>
<circle cx="13.5" cy="16.5" r="1.5"/>
<polygon points="15,19 17,19 16,20 "/>
</svg>
