<?xml version="1.0" encoding="iso-8859-1"?>
<!-- Generator: Adobe Illustrator 19.1.0, SVG Export Plug-In . SVG Version: 6.00 Build 0)  -->
<svg version="1.1" id="Layer_1" xmlns="http://www.w3.org/2000/svg" xmlns:xlink="http://www.w3.org/1999/xlink" x="0px" y="0px"
	 viewBox="0 0 32 32" style="enable-background:new 0 0 32 32;" xml:space="preserve">
<path style="fill:none;stroke:#000000;stroke-width:2;stroke-miterlimit:10;" d="M15.547,28c0,0,0.903-1.25,2.5-1.25
	c1.597,0,2.5,1.25,2.5,1.25"/>
<circle cx="23.5" cy="8.5" r="0.5"/>
<path style="fill:none;stroke:#000000;stroke-width:2;stroke-miterlimit:10;" d="M17,25c3.24,0,6.217-3.831,3-8"/>
<path d="M25,11V8c0,0,2.616,0.228,3,3H25z"/>
<circle cx="22" cy="5" r="2"/>
<circle cx="24.5" cy="5.5" r="1.5"/>
<circle cx="19.5" cy="5.5" r="1.5"/>
<path style="fill:none;stroke:#000000;stroke-width:2;stroke-miterlimit:10;" d="M8.539,12.872c0,0,1.752,1.99,2.174,4.128
	C17.221,17,20,12.728,20,9c0-1.657,1.343-3,3-3s3,1.343,3,3c0,2.107-2.023,3.074-3,3.636c0,0,2,2.523,2,6.101
	C25,22.348,22.47,25,17.314,25c-4.22,0-6.985-6.832-6.985-6.832c-1.867-2.476-4.267-2.21-4.267-2.21"/>
</svg>
