<?xml version="1.0" encoding="iso-8859-1"?>
<!-- Generator: Adobe Illustrator 19.2.0, SVG Export Plug-In . SVG Version: 6.00 Build 0)  -->
<svg version="1.1" xmlns="http://www.w3.org/2000/svg" xmlns:xlink="http://www.w3.org/1999/xlink" x="0px" y="0px"
	 viewBox="0 0 32 32" style="enable-background:new 0 0 32 32;" xml:space="preserve">
<g >
	<path d="M13.811,21c0.759,0,1.394,0.196,2.123,0.655c1.403,0.883,3.669,1.936,6.499,1.936c0.049,0,0.098-0.001,0.147-0.002
		C20.808,25.04,18.458,26,16.34,26c-1.037,0-1.942-0.223-2.702-0.67c-0.702-0.406-1.325-1.252-1.551-2.104
		c-0.131-0.496-0.112-0.944,0.063-1.243C12.543,21.294,13.04,21,13.811,21 M27.689,18.99c-0.97,1.344-3.328,2.6-5.255,2.6
		c-2.087,0-3.989-0.718-5.434-1.628C15.891,19.264,14.875,19,13.811,19c-1.655,0-2.739,0.836-3.398,1.991
		c-1.124,1.927,0.189,4.893,2.223,6.071C13.736,27.708,15.01,28,16.34,28c3.842,0,8.146-2.441,10.054-5.821
		C26.992,21.172,27.424,20.091,27.689,18.99L27.689,18.99z"/>
	<path d="M10.867,9L10.867,9c0.728,0,1.575,0.243,1.823,0.78c0.511,1.118,0.709,2.429-1.716,3.696
		c-1.438,0.77-3.598,1.928-4.877,4.241c-0.142-1.377-0.01-2.859,0.406-4.268c0.573-1.936,1.621-3.436,2.858-4.105
		C9.777,9.126,10.325,9,10.867,9 M10.866,7c-0.854,0-1.717,0.196-2.437,0.575c-4.179,2.259-5.656,9.674-3.172,14.22
		c0.886,1.674,2.094,3.028,3.495,4.017c-0.343-0.482-0.587-0.845-0.957-1.48c-1.004-1.797-0.899-3.859,0-5.55
		c0.952-1.797,2.643-2.749,4.123-3.542c3.542-1.85,3.436-4.44,2.59-6.29C13.898,7.626,12.395,7,10.866,7L10.866,7z"/>
	<g>
		<path d="M19.564,6.755c1.189,0.53,2.336,1.319,3.3,2.302c1.373,1.399,2.151,2.993,2.135,4.353
			c-0.022,0.965-0.318,2.583-2.057,2.583c-0.337,0-0.973-0.071-1.436-0.546c-0.493-0.506-0.737-1.404-0.706-2.618
			C20.825,11.26,20.861,8.92,19.564,6.755 M16.121,4c-1.688,0-3.271,0.356-4.671,1c0.425,0,0.828-0.019,1.545-0.034
			c0.005,0,0.009,0,0.014,0c2.005,0,3.709,1.067,4.724,2.632c1.083,1.665,1.093,3.56,1.068,5.2c-0.1,3.901,2.157,5.195,4.142,5.195
			c2.849,0,4.006-2.322,4.057-4.538c0.054-4.639-5.576-9.417-10.635-9.452C16.283,4.001,16.202,4,16.121,4L16.121,4z"/>
	</g>
</g>
<g >
</g>
</svg>
