<?xml version="1.0" encoding="iso-8859-1"?>
<!-- Generator: Adobe Illustrator 19.1.1, SVG Export Plug-In . SVG Version: 6.00 Build 0)  -->
<svg version="1.1" id="Layer_1" xmlns="http://www.w3.org/2000/svg" xmlns:xlink="http://www.w3.org/1999/xlink" x="0px" y="0px"
	 viewBox="0 0 32 32" style="enable-background:new 0 0 32 32;" xml:space="preserve">
<path id="XMLID_7090_" style="fill:none;stroke:#000000;stroke-width:2;stroke-miterlimit:10;" d="M6.671,18.724L7.49,19.52
	l-0.176,1.142c-0.689,4.483,3.943,7.829,7.838,5.661l0.993-0.552l1.008,0.524c3.952,2.055,8.492-1.419,7.683-5.88l-0.207-1.137
	l0.799-0.82c3.131-3.212,1.306-8.705-3.091-9.295l-1.119-0.15l-0.513-1.03c-2.017-4.041-7.686-3.96-9.592,0.136l-0.486,1.043
	L9.511,9.345C5.13,10.06,3.454,15.602,6.671,18.724z"/>
<path d="M17,13c0,0.552-1.083,3.958-1.083,3.958S15,13.552,15,13s0.448-1,1-1C16.552,12,17,12.448,17,13z"/>
<path d="M20.101,16.577c-0.519,0.188-4.185,0.381-4.185,0.381s2.984-2.073,3.503-2.261c0.519-0.188,1.093,0.08,1.281,0.599
	S20.621,16.389,20.101,16.577z"/>
<path d="M12.606,14.686c0.518,0.191,3.31,2.272,3.31,2.272s-3.483-0.205-4.001-0.395c-0.518-0.191-0.784-0.766-0.593-1.284
	S12.088,14.495,12.606,14.686z"/>
<path d="M12.664,19.423c0.355-0.423,3.253-2.465,3.253-2.465s-1.365,3.326-1.72,3.75c-0.355,0.423-0.985,0.479-1.409,0.124
	C12.365,20.477,12.309,19.847,12.664,19.423z"/>
<path d="M17.899,20.66c-0.366-0.414-1.983-3.701-1.983-3.701s3.116,1.963,3.481,2.377c0.366,0.414,0.327,1.046-0.087,1.412
	C18.897,21.113,18.265,21.073,17.899,20.66z"/>
</svg>
