<?xml version="1.0" encoding="iso-8859-1"?>
<!-- Generator: Adobe Illustrator 19.1.0, SVG Export Plug-In . SVG Version: 6.00 Build 0)  -->
<svg version="1.1" id="Layer_1" xmlns="http://www.w3.org/2000/svg" xmlns:xlink="http://www.w3.org/1999/xlink" x="0px" y="0px"
	 viewBox="0 0 32 32" style="enable-background:new 0 0 32 32;" xml:space="preserve">
<circle cx="23" cy="9" r="1"/>
<circle cx="9" cy="9" r="1"/>
<path style="fill:none;stroke:#000000;stroke-width:2;stroke-miterlimit:10;" d="M7.083,12.49C6.396,13.847,6,15.376,6,17
	c0,5.523,4.477,10,10,10s10-4.477,10-10c0-1.624-0.396-3.153-1.083-4.51"/>
<path style="fill:none;stroke:#000000;stroke-width:2;stroke-miterlimit:10;" d="M19.278,7.561C18.25,7.204,17.15,7,16,7
	s-2.25,0.204-3.278,0.561"/>
<circle style="fill:none;stroke:#000000;stroke-width:2;stroke-miterlimit:10;" cx="23" cy="9" r="4"/>
<path style="fill:none;stroke:#000000;stroke-width:2;stroke-miterlimit:10;" d="M9.944,18.5C11.155,20.59,13.411,22,16,22
	s4.845-1.41,6.056-3.5"/>
<circle style="fill:none;stroke:#000000;stroke-width:2;stroke-miterlimit:10;" cx="9" cy="9" r="4"/>
</svg>
