<?xml version="1.0" encoding="iso-8859-1"?>
<!-- Generator: Adobe Illustrator 19.1.0, SVG Export Plug-In . SVG Version: 6.00 Build 0)  -->
<svg version="1.1" id="Layer_1" xmlns="http://www.w3.org/2000/svg" xmlns:xlink="http://www.w3.org/1999/xlink" x="0px" y="0px"
	 viewBox="0 0 32 32" style="enable-background:new 0 0 32 32;" xml:space="preserve">
<path style="fill:none;stroke:#000000;stroke-width:2;stroke-miterlimit:10;" d="M16.914,13.225
	c0.052,0.469-0.227,0.916-0.677,1.059C15.306,14.58,13.538,15,11,15s-4.306-0.42-5.237-0.716c-0.45-0.143-0.729-0.59-0.677-1.059
	L5.901,5.89C5.957,5.383,6.385,5,6.895,5h8.21c0.51,0,0.938,0.383,0.994,0.89L16.914,13.225z"/>
<line style="fill:none;stroke:#000000;stroke-width:2;stroke-miterlimit:10;" x1="6" y1="9" x2="16" y2="9"/>
<path style="fill:none;stroke:#000000;stroke-width:2;stroke-miterlimit:10;" d="M17,7L17,7c5.523,0,10,4.477,10,10v0
	c0,5.523-4.477,10-10,10h-6"/>
<rect x="5" y="26" width="5" height="2"/>
<path style="fill:none;stroke:#000000;stroke-width:2;stroke-miterlimit:10;" d="M27,17L27,17c0,3.314-2.686,6-6,6H11"/>
<rect x="5" y="22" width="5" height="2"/>
</svg>
