<?xml version="1.0" encoding="iso-8859-1"?>
<!-- Generator: Adobe Illustrator 19.1.1, SVG Export Plug-In . SVG Version: 6.00 Build 0)  -->
<svg version="1.1" id="Layer_1" xmlns="http://www.w3.org/2000/svg" xmlns:xlink="http://www.w3.org/1999/xlink" x="0px" y="0px"
	 viewBox="-7 9 32 32" style="enable-background:new -7 9 32 32;" xml:space="preserve">
<path style="fill:none;stroke:#000000;stroke-width:2.042;stroke-miterlimit:10;" d="M9,14c0,0,5-0.059,5,6S8.114,31,3,31
	s-5-3.507-5-5c0-3.183,4.256-4.256,6-6S6.644,14,9,14z"/>
<path style="fill:none;stroke:#000000;stroke-width:2.042;stroke-miterlimit:10;" d="M-1,30c0,0,11-4.854,11-12"/>
<path style="fill:none;stroke:#000000;stroke-width:2.042;stroke-miterlimit:10;" d="M3,31c0,0,2.667,5,9,5s8-3.292,8-5
	c0-2.958-2.5-3.458-5-4s-3-1-3-1"/>
<path style="fill:none;stroke:#000000;stroke-width:2.042;stroke-miterlimit:10;" d="M8,29c0,0,1.583,2,8,2"/>
</svg>
