<?xml version="1.0" encoding="iso-8859-1"?>
<!-- Generator: Adobe Illustrator 19.0.1, SVG Export Plug-In . SVG Version: 6.00 Build 0)  -->
<svg version="1.1" id="Layer_1" xmlns="http://www.w3.org/2000/svg" xmlns:xlink="http://www.w3.org/1999/xlink" x="0px" y="0px"
	 viewBox="0 0 32 32" style="enable-background:new 0 0 32 32;" xml:space="preserve">
<path id="XMLID_299_" style="fill:none;stroke:#000000;stroke-width:2;stroke-miterlimit:10;" d="M15,10h0.25
	C16.217,10,17,9.217,17,8.25V6.75C17,5.783,16.217,5,15.25,5h-6.5C6.679,5,5,6.679,5,8.75v0C5,9.561,5.263,10.351,5.75,11
	l0.908,1.211C7.435,13.247,8.842,13.579,10,13l0,0"/>
<path id="XMLID_255_" style="fill:none;stroke:#000000;stroke-width:2;stroke-miterlimit:10;" d="M9,10c0,0,1.267-1,3-1s3,1,3,1"/>
<path id="XMLID_228_" style="fill:none;stroke:#000000;stroke-width:2;stroke-miterlimit:10;" d="M22,17v-0.25
	c0-0.966,0.783-1.75,1.75-1.75h1.501c0.966,0,1.75,0.783,1.75,1.75v6.5c0,2.071-1.679,3.75-3.75,3.75h0
	c-0.811,0-1.601-0.263-2.25-0.75l-1.211-0.908C18.753,24.565,18.421,23.158,19,22l0,0"/>
<path id="XMLID_226_" style="fill:none;stroke:#000000;stroke-width:2;stroke-miterlimit:10;" d="M22,23c0,0,1-1.267,1-3s-1-3-1-3"
	/>
<path id="XMLID_295_" style="fill:none;stroke:#000000;stroke-width:2;stroke-miterlimit:10;" d="M25,13v-3c0-1.657-1.343-3-3-3h-3"
	/>
</svg>
