<?xml version="1.0" encoding="iso-8859-1"?>
<!-- Generator: Adobe Illustrator 19.1.1, SVG Export Plug-In . SVG Version: 6.00 Build 0)  -->
<svg version="1.1" id="Layer_1" xmlns="http://www.w3.org/2000/svg" xmlns:xlink="http://www.w3.org/1999/xlink" x="0px" y="0px"
	 viewBox="0 0 32 32" style="enable-background:new 0 0 32 32;" xml:space="preserve">
<path style="fill-rule:evenodd;clip-rule:evenodd;" d="M15.945,27c2.022-1.824,8.462-5.641,10.625-6.343l0,0L13.219,10.576
	l0.662-0.449l5.596,4.206l0,0c0.587,0.421,5.525,1.403,7.523-1.403l0,0L16.038,5l0,0c-1.834,1.731-8.574,5.39-11.019,6.232l0,0
	l13.748,10.399l-0.526,0.491l-4.779-3.611l0,0c-1.575-1.188-5.13-2.751-8.461,0.28l0,0L15.945,27L15.945,27L15.945,27L15.945,27z"/>
</svg>
