<?xml version="1.0" encoding="iso-8859-1"?>
<!-- Generator: Adobe Illustrator 19.1.1, SVG Export Plug-In . SVG Version: 6.00 Build 0)  -->
<svg version="1.1" id="Layer_1" xmlns="http://www.w3.org/2000/svg" xmlns:xlink="http://www.w3.org/1999/xlink" x="0px" y="0px"
	 viewBox="0 0 32 32" style="enable-background:new 0 0 32 32;" xml:space="preserve">
<path style="fill:none;stroke:#000000;stroke-width:2;stroke-miterlimit:10;" d="M16,28h-0.045c-2.187,0-3.977-1.79-3.977-3.977
	L12,8.977C12,6.79,13.79,5,15.977,5h0.045C18.21,5,20,6.79,20,8.977l-0.023,15.045C19.977,26.21,18.187,28,16,28z"/>
<rect x="15" y="21" width="2" height="4"/>
<rect x="14" y="22" width="4" height="2"/>
<path style="fill:none;stroke:#000000;stroke-width:2;stroke-miterlimit:10;" d="M19.75,7.75L25,15l1.656,3.844
	c0,0-2.542,0.728-4.656-1.844l-2.083-2.792"/>
<path style="fill:none;stroke:#000000;stroke-width:2;stroke-miterlimit:10;" d="M12.25,16c0,0-5.917-5.25-6.625-6.292S5,6,5,6h3v2
	h2v2h2"/>
<path style="fill:none;stroke:#000000;stroke-width:2;stroke-miterlimit:10;" d="M6,15c0,0-2.208,1.792,0,4s6,6,6,6"/>
<path style="fill:none;stroke:#000000;stroke-width:2;stroke-miterlimit:10;" d="M8,17c0,0.875-0.125,2-2,2"/>
</svg>
