<?xml version="1.0" encoding="iso-8859-1"?>
<!-- Generator: Adobe Illustrator 19.1.1, SVG Export Plug-In . SVG Version: 6.00 Build 0)  -->
<svg version="1.1" id="Layer_1" xmlns="http://www.w3.org/2000/svg" xmlns:xlink="http://www.w3.org/1999/xlink" x="0px" y="0px"
	 viewBox="0 0 32 32" style="enable-background:new 0 0 32 32;" xml:space="preserve">
<polyline style="fill:none;stroke:#000000;stroke-width:2;stroke-miterlimit:10;" points="7,3 7,7 3,7 "/>
<line style="fill:none;stroke:#000000;stroke-width:2;stroke-miterlimit:10;" x1="9" y1="9" x2="11" y2="11"/>
<line style="fill:none;stroke:#000000;stroke-width:2;stroke-miterlimit:10;" x1="7" y1="7" x2="8" y2="8"/>
<line style="fill:none;stroke:#000000;stroke-width:2;stroke-miterlimit:10;" x1="17" y1="17" x2="19" y2="19"/>
<line style="fill:none;stroke:#000000;stroke-width:2;stroke-miterlimit:10;" x1="20" y1="20" x2="22" y2="22"/>
<line style="fill:none;stroke:#000000;stroke-width:2;stroke-miterlimit:10;" x1="23" y1="23" x2="25" y2="25"/>
<polyline style="fill:none;stroke:#000000;stroke-width:2;stroke-miterlimit:10;" points="28,24 28,28 24,28 "/>
<line style="fill:none;stroke:#000000;stroke-width:2;stroke-miterlimit:10;" x1="26" y1="26" x2="28" y2="28"/>
<g>
	<g>
		<path style="fill:none;stroke:#000000;stroke-width:2;stroke-miterlimit:10;" d="M17.124,11.743
			C17.707,12.404,17.929,13,17.929,13h0.118c0,0,0.226-0.594,0.812-1.253"/>
		<path style="fill:none;stroke:#000000;stroke-width:2;stroke-miterlimit:10;stroke-dasharray:2.8533,1.4266;" d="M19.942,10.827
			C20.685,10.358,21.683,10,23,10c3.812,0,5,2.813,5,5c0,4.133-5.282,8.514-8.168,10.6"/>
		<path style="fill:none;stroke:#000000;stroke-width:2;stroke-miterlimit:10;" d="M19.246,26.015
			C18.487,26.544,18,26.844,18,26.844s-0.487-0.3-1.246-0.829"/>
		<path style="fill:none;stroke:#000000;stroke-width:2;stroke-miterlimit:10;stroke-dasharray:2.8515,1.4257;" d="M15.599,25.181
			C12.64,22.966,8,18.874,8,15c0-2.188,1.187-5,5-5c1.685,0,2.843,0.586,3.611,1.24"/>
	</g>
</g>
</svg>
