<?xml version="1.0" encoding="iso-8859-1"?>
<!-- Generator: Adobe Illustrator 19.0.1, SVG Export Plug-In . SVG Version: 6.00 Build 0)  -->
<svg version="1.1" id="Layer_1" xmlns="http://www.w3.org/2000/svg" xmlns:xlink="http://www.w3.org/1999/xlink" x="0px" y="0px"
	 viewBox="0 0 32 32" style="enable-background:new 0 0 32 32;" xml:space="preserve">
<line id="XMLID_421_" style="fill:none;stroke:#000000;stroke-width:2;stroke-miterlimit:10;" x1="22" y1="11" x2="22" y2="28"/>
<path id="XMLID_316_" style="fill:none;stroke:#000000;stroke-width:2;stroke-linejoin:round;stroke-miterlimit:10;" d="
	M10.452,16.904c-0.997-0.23-2.715-0.299-2.394-1.824c0.684-3.25,1.965-3.868,3.573-3.497"/>
<circle id="XMLID_434_" style="fill:none;stroke:#000000;stroke-width:2;stroke-linecap:round;stroke-linejoin:round;stroke-miterlimit:10;" cx="16.5" cy="7.5" r="2.5"/>
<g id="XMLID_265_">
	<path id="XMLID_324_" d="M15.651,22.269L16.531,28h2.023l-0.925-6.031c-0.077-0.509-0.343-0.963-0.751-1.28l-3.539-2.745
		l1.024-4.669l1.058,0.278l1.776,1.717c0.58,0.56,1.436,0.718,2.174,0.401l2.843-1.212l0.059-2.199l-3.685,1.571l-1.776-1.717
		c-0.247-0.239-0.554-0.411-0.881-0.496l-3.073-0.81l-1.473,6.707c-0.163,0.75,0.123,1.538,0.729,2.008L15.651,22.269z"/>
	<path id="XMLID_325_" d="M10.444,28l2.023-3.912c0.051-0.099,0.095-0.202,0.127-0.304l0.625-1.847l-1.688-1.312l-0.841,2.543
		L8.191,28H10.444z"/>
</g>
</svg>
