<?xml version="1.0" encoding="utf-8"?>
<!-- Generator: Adobe Illustrator 18.1.1, SVG Export Plug-In . SVG Version: 6.00 Build 0)  -->
<svg version="1.1" id="Layer_1" xmlns="http://www.w3.org/2000/svg" xmlns:xlink="http://www.w3.org/1999/xlink" x="0px" y="0px"
	 viewBox="0 0 32 32" enable-background="new 0 0 32 32" xml:space="preserve">
<polyline fill="none" stroke="#000000" stroke-width="2" stroke-miterlimit="10" points="11.8,11.4 3,20.2 11.8,29 20.6,20.2 "/>
<path fill="none" stroke="#000000" stroke-width="2" stroke-linecap="round" stroke-miterlimit="10" d="M16.2,24.6l2.6,2.6l5.3-5.3
	c1.5-1.5,1.5-3.8,0-5.3l-1-1"/>
<path fill="none" stroke="#000000" stroke-width="2" stroke-linecap="round" stroke-miterlimit="10" d="M16.3,8.9l-1-1
	c-1.5-1.5-3.8-1.5-5.3,0l-5.3,5.3l2.6,2.6"/>
<path fill="none" stroke="#000000" stroke-width="2" stroke-linecap="round" stroke-miterlimit="10" d="M27.2,13.6
	c-3,3-5.9,2-8.4-0.4s-3.4-5.4-0.4-8.4s5.9-2,8.4,0.4S30.1,10.6,27.2,13.6z"/>
<line fill="none" stroke="#000000" stroke-width="2" stroke-linejoin="round" stroke-miterlimit="10" x1="7.4" y1="24.6" x2="11.8" y2="20.2"/>
<path fill="none" stroke="#000000" stroke-width="2" stroke-miterlimit="10" d="M9.1,22.8c0,0,2,0.2,3.1,1.3
	c1.1,1.1,1.3,3.1,1.3,3.1"/>
<path fill="none" stroke="#000000" stroke-width="2" stroke-miterlimit="10" d="M4.8,18.5c0,0,2,0.2,3.1,1.3s1.3,3.1,1.3,3.1"/>
<line fill="none" stroke="#000000" stroke-width="2" stroke-miterlimit="10" x1="7.4" y1="10.5" x2="10" y2="13.2"/>
<line fill="none" stroke="#000000" stroke-width="2" stroke-miterlimit="10" x1="18.8" y1="22" x2="21.5" y2="24.6"/>
<g>
	<path d="M19.3,7.5l5.3,5.3l2.1-2.1c0,0-1-2-2.1-3.2s-3.2-2.1-3.2-2.1L19.3,7.5z"/>
</g>
<path fill="none" stroke="#000000" stroke-width="2" stroke-miterlimit="10" d="M25,19.3l1.8-1.8c1-1,1-2.5,0-3.5l0,0"/>
<path fill="none" stroke="#000000" stroke-width="2" stroke-miterlimit="10" d="M12.7,7l1.8-1.8c1-1,2.5-1,3.5,0l0,0"/>
<rect x="12.8" y="15.4" transform="matrix(0.7071 0.7071 -0.7071 0.7071 16.2852 -5.9303)" width="5" height="2.5"/>
</svg>
