<?xml version="1.0" encoding="iso-8859-1"?>
<!-- Generator: Adobe Illustrator 19.1.0, SVG Export Plug-In . SVG Version: 6.00 Build 0)  -->
<svg version="1.1" id="Layer_1" xmlns="http://www.w3.org/2000/svg" xmlns:xlink="http://www.w3.org/1999/xlink" x="0px" y="0px"
	 viewBox="0 0 32 32" style="enable-background:new 0 0 32 32;" xml:space="preserve">
<circle style="fill:none;stroke:#000000;stroke-width:2;stroke-miterlimit:10;" cx="16" cy="11" r="5"/>
<path d="M26.469,21.248l-0.853-1.373C25.501,19.676,22.727,15,16,15s-9.501,4.676-9.6,4.848l-0.869,1.4
	c-0.51,0.821-0.665,1.79-0.438,2.729c0.228,0.939,0.809,1.73,1.638,2.228l0.923,0.554c0.159-0.654,0.441-1.27,0.829-1.835
	L7.76,24.49c-0.366-0.22-0.622-0.569-0.723-0.983c-0.101-0.414-0.031-0.841,0.193-1.204l0.884-1.424C8.207,20.721,10.466,17,16,17
	s7.793,3.721,7.9,3.902l0.869,1.401c0.225,0.362,0.294,0.789,0.193,1.203c-0.101,0.415-0.356,0.764-0.723,0.983l-0.723,0.434
	c0.389,0.565,0.67,1.181,0.829,1.835l0.923-0.554c0.829-0.498,1.41-1.289,1.638-2.228C27.134,23.038,26.979,22.068,26.469,21.248z"
	/>
<path style="fill:none;stroke:#000000;stroke-width:2;stroke-miterlimit:10;" d="M10,27c0-2.209,2.686-4,6-4s6,1.791,6,4"/>
</svg>
