<?xml version="1.0" encoding="iso-8859-1"?>
<!-- Generator: Adobe Illustrator 19.1.1, SVG Export Plug-In . SVG Version: 6.00 Build 0)  -->
<svg version="1.1" id="Layer_1" xmlns="http://www.w3.org/2000/svg" xmlns:xlink="http://www.w3.org/1999/xlink" x="0px" y="0px"
	 viewBox="0 0 32 32" style="enable-background:new 0 0 32 32;" xml:space="preserve">
<path style="fill:none;stroke:#000000;stroke-width:2;stroke-miterlimit:10;" d="M18,15V7c0-1.105,0.895-2,2-2h0
	c1.105,0,2,0.895,2,2v8"/>
<path style="fill:none;stroke:#000000;stroke-width:2;stroke-miterlimit:10;" d="M14,15V5c0-1.105,0.895-2,2-2h0
	c1.105,0,2,0.895,2,2v10"/>
<path style="fill:none;stroke:#000000;stroke-width:2;stroke-miterlimit:10;" d="M22,15v-4c0-1.105,0.895-2,2-2s2,0.895,2,2v12
	c0,3.314-2.686,6-6,6h-5.285c-1.726,0-3.368-0.743-4.507-2.04l-2.371-2.698c-1.067-1.214-1.123-3.013-0.134-4.292L10,17V7
	c0-1.105,0.895-2,2-2h0c1.105,0,2,0.895,2,2v8"/>
<line style="fill:none;stroke:#000000;stroke-width:2;stroke-miterlimit:10;" x1="10" y1="21" x2="10" y2="16"/>
</svg>
