<?xml version="1.0" encoding="iso-8859-1"?>
<!-- Generator: Adobe Illustrator 19.1.1, SVG Export Plug-In . SVG Version: 6.00 Build 0)  -->
<svg version="1.1" id="Layer_1" xmlns="http://www.w3.org/2000/svg" xmlns:xlink="http://www.w3.org/1999/xlink" x="0px" y="0px"
	 viewBox="0 0 32 32" style="enable-background:new 0 0 32 32;" xml:space="preserve">
<line style="fill:none;stroke:#000000;stroke-width:2;stroke-linejoin:round;stroke-miterlimit:10;" x1="18" y1="24" x2="23" y2="24"/>
<circle cx="16" cy="13" r="2"/>
<circle cx="20.5" cy="14.5" r="1.5"/>
<path d="M20,18c0,0-1.288-2-4-2s-4,2-4,2v2h8V18z"/>
<path d="M18,20h5v-2c0,0-0.934-1-2.421-1C18.886,17,18,18,18,18V20z"/>
<circle cx="11.5" cy="14.5" r="1.5"/>
<path d="M9,20h5v-2c0,0-0.934-1-2.421-1C9.886,17,9,18,9,18V20z"/>
<path style="fill:none;stroke:#000000;stroke-width:2;stroke-miterlimit:10;" d="M25,26H7c-1.105,0-2-0.895-2-2V8
	c0-1.105,0.895-2,2-2h18c1.105,0,2,0.895,2,2v16C27,25.105,26.105,26,25,26z"/>
</svg>
