<?xml version="1.0" encoding="iso-8859-1"?>
<!-- Generator: Adobe Illustrator 22.0.1, SVG Export Plug-In . SVG Version: 6.00 Build 0)  -->
<svg version="1.1" id="Layer_1" xmlns="http://www.w3.org/2000/svg" xmlns:xlink="http://www.w3.org/1999/xlink" x="0px" y="0px"
	 viewBox="0 0 32 32" style="enable-background:new 0 0 32 32;" xml:space="preserve">
<path style="fill:none;stroke:#000000;stroke-width:2;stroke-miterlimit:10;" d="M16,29L16,29c0-1.657,1.343-3,3-3h9V6h-9
	c-1.657,0-3,1.343-3,3l0,0"/>
<path style="fill:none;stroke:#000000;stroke-width:2;stroke-miterlimit:10;" d="M16,9L16,9c0-1.657-1.343-3-3-3H4v20h9
	c1.657,0,3,1.343,3,3l0,0"/>
<path style="fill:none;stroke:#000000;stroke-width:2;stroke-miterlimit:10;" d="M24,15v-0.618C24,13.619,23.381,13,22.618,13
	h-1.236C20.619,13,20,13.619,20,14.382l0,0c0,0.379,0.214,0.725,0.553,0.894l2.894,1.447C23.786,16.893,24,17.239,24,17.618l0,0
	C24,18.381,23.381,19,22.618,19h-1.236C20.619,19,20,18.381,20,17.618V17"/>
<line style="fill:none;stroke:#000000;stroke-width:2;stroke-miterlimit:10;" x1="22" y1="13" x2="22" y2="11"/>
<line style="fill:none;stroke:#000000;stroke-width:2;stroke-miterlimit:10;" x1="22" y1="21" x2="22" y2="19"/>
<line style="fill:none;stroke:#000000;stroke-width:2;stroke-miterlimit:10;" x1="16" y1="27" x2="16" y2="9"/>
</svg>
