<?xml version="1.0" encoding="iso-8859-1"?>
<!-- Generator: Adobe Illustrator 19.1.0, SVG Export Plug-In . SVG Version: 6.00 Build 0)  -->
<svg version="1.1" id="Layer_1" xmlns="http://www.w3.org/2000/svg" xmlns:xlink="http://www.w3.org/1999/xlink" x="0px" y="0px"
	 viewBox="0 0 32 32" style="enable-background:new 0 0 32 32;" xml:space="preserve">
<circle style="fill:none;stroke:#000000;stroke-width:2;stroke-miterlimit:10;" cx="12.5" cy="7.5" r="2.5"/>
<circle cx="24.5" cy="25.5" r="1.5"/>
<polygon style="fill:none;stroke:#000000;stroke-width:2;stroke-miterlimit:10;" points="21.657,23.269 16.602,20.801 
	16.602,16.498 24.659,20.702 "/>
<polygon points="13.795,27 12.776,22.354 10.911,19.856 10.513,21.446 11.745,27 "/>
<path d="M7.842,22.63L5.512,27h2.267l1.828-3.43c0.239-0.449,0.299-0.967,0.167-1.456l-0.842-3.159l1.116-5.245l0.873,0.546
	l0.042,3.01l2.395,3.267l1.613-1.182L12.954,16.6l-0.032-2.369c-0.008-0.682-0.358-1.306-0.939-1.67l-0.873-0.546
	c-0.553-0.347-1.24-0.4-1.84-0.146c-0.601,0.254-1.04,0.786-1.178,1.426l-1.115,5.243C6.91,18.845,6.918,19.169,7,19.471
	L7.842,22.63z"/>
<path style="fill:none;stroke:#000000;stroke-width:2;stroke-miterlimit:10;" d="M22.988,19.985c0,0,1.31,0.047,1.663-0.849
	c0.648-1.645-0.897-2.581-1.603-3.369c-0.632-0.705-0.679-2.011,0.815-2.473"/>
<path style="fill:none;stroke:#000000;stroke-width:2;stroke-miterlimit:10;" d="M18.156,17.547c0,0-0.891-1.116-0.107-2.379
	c0.681-1.098,2.69-0.924,2.69-0.924"/>
</svg>
