<?xml version="1.0" encoding="iso-8859-1"?>
<!-- Generator: Adobe Illustrator 19.1.0, SVG Export Plug-In . SVG Version: 6.00 Build 0)  -->
<svg version="1.1" id="Layer_1" xmlns="http://www.w3.org/2000/svg" xmlns:xlink="http://www.w3.org/1999/xlink" x="0px" y="0px"
	 viewBox="0 0 32 32" style="enable-background:new 0 0 32 32;" xml:space="preserve">
<path id="XMLID_439_" style="fill:none;stroke:#000000;stroke-width:2;stroke-linejoin:round;stroke-miterlimit:10;" d="M26,11.499
	C26,12.882,24.88,14,23.5,14c-1.382,0-2.5-1.118-2.5-2.501C21,10.119,22.118,9,23.5,9C24.88,9,26,10.119,26,11.499z"/>
<line style="fill:none;stroke:#000000;stroke-width:2;stroke-miterlimit:10;" x1="3" y1="3" x2="29" y2="29"/>
<g>
	<path d="M10.838,12.184l3.004-2.168l2.28,2.64l-2.601,2.211l1.418,1.418l2.489-2.116l2.007,2.324
		c0.737-0.192,1.497-0.336,2.282-0.418l-6.362-7.366c-0.683-0.792-1.838-0.924-2.684-0.314l-3.266,2.357L10.838,12.184z"/>
	<path d="M11.973,18.808l1.438-1.223l-1.418-1.418L8.731,18.94C9.137,18.975,9.555,19,9.998,19
		C10.674,19,11.328,18.925,11.973,18.808z"/>
	<path d="M23,17c-2.145,0-4.116,0.648-6.019,1.327l1.57,1.57C20.035,19.393,21.485,19,23,19c3.989,0,7.326,2.74,7.359,2.768
		l1.284-1.534C31.485,20.102,27.73,17,23,17z"/>
	<path d="M14.889,19.063C13.336,19.58,11.725,20,9.998,20c-5.33,0-8.283-2.7-8.31-2.725l-1.377,1.449C0.452,18.858,3.83,22,9.998,22
		c2.393,0,4.472-0.657,6.464-1.364L14.889,19.063z"/>
</g>
</svg>
