<?xml version="1.0" encoding="utf-8"?>
<!-- Generator: Adobe Illustrator 18.1.1, SVG Export Plug-In . SVG Version: 6.00 Build 0)  -->
<svg version="1.1" id="Layer_1" xmlns="http://www.w3.org/2000/svg" xmlns:xlink="http://www.w3.org/1999/xlink" x="0px" y="0px"
	 viewBox="0 0 32 32" enable-background="new 0 0 32 32" xml:space="preserve">
<path fill="none" stroke="#000000" stroke-width="2" stroke-miterlimit="10" d="M23.5,13.6l4.1-4.1c0.5-0.5,0.5-1.2,0-1.7l-3.1-3.1
	c-0.6-0.6-1.6-0.9-2.5-0.5c-2.3,0.8-6.9,2.9-11,7s-6.1,8.7-7,11c-0.3,0.9-0.1,1.8,0.5,2.5l3.1,3.1c0.5,0.5,1.2,0.5,1.7,0l4.1-4.1
	c0.5-0.5,0.5-1.2,0-1.7l-2.5-2.5c0,0,1.2-2.8,3.3-5s5-3.3,5-3.3l2.5,2.5C22.3,14.1,23.1,14.1,23.5,13.6z"/>
</svg>
