<?xml version="1.0" encoding="iso-8859-1"?>
<!-- Generator: Adobe Illustrator 19.2.0, SVG Export Plug-In . SVG Version: 6.00 Build 0)  -->
<svg version="1.1" id="Layer_1" xmlns="http://www.w3.org/2000/svg" xmlns:xlink="http://www.w3.org/1999/xlink" x="0px" y="0px"
	 viewBox="0 0 32 32" style="enable-background:new 0 0 32 32;" xml:space="preserve">
<path style="fill:none;stroke:#000000;stroke-width:2;stroke-miterlimit:10;" d="M4,27c0,0,10.083,0,14.625,0
	C24.25,27,26,24.593,26,22.042C26,19.167,24.5,16,24.5,16"/>
<path style="fill:none;stroke:#000000;stroke-width:2;stroke-miterlimit:10;" d="M23.02,15.836C23.327,15.942,23.657,16,24,16
	c1.657,0,3-1.343,3-3s-1.343-3-3-3s-3,1.319-3,3c0,7.472-4.572,14-17,14"/>
<path style="fill:none;stroke:#000000;stroke-width:2;stroke-miterlimit:10;" d="M22.843,10c0,0-0.843-1.262-0.843-4.5"/>
<circle cx="22.5" cy="5.5" r="1.5"/>
<path style="fill:none;stroke:#000000;stroke-width:2;stroke-miterlimit:10;" d="M24.843,10c0,0,1.157-0.262,1.157-3.5"/>
<circle cx="26.5" cy="6.5" r="1.5"/>
<circle style="fill:none;stroke:#000000;stroke-width:2;stroke-miterlimit:10;" cx="12" cy="18" r="7"/>
<path style="fill:none;stroke:#000000;stroke-width:2;stroke-miterlimit:10;" d="M12,25c2.209,0,4-1.817,4-4.5
	c0-2.552-1.654-4.5-4-4.5c-1.855,0-3,1.207-3,2.5c0,2.223,2.333,2.5,3,2.5"/>
</svg>
