<?xml version="1.0" encoding="iso-8859-1"?>
<!-- Generator: Adobe Illustrator 22.1.0, SVG Export Plug-In . SVG Version: 6.00 Build 0)  -->
<svg version="1.1" id="Layer_1_1_" xmlns="http://www.w3.org/2000/svg" xmlns:xlink="http://www.w3.org/1999/xlink" x="0px" y="0px"
	 viewBox="0 0 32 32" style="enable-background:new 0 0 32 32;" xml:space="preserve">
<circle cx="6.5" cy="25.5" r="1.5"/>
<circle cx="11" cy="22" r="1"/>
<circle cx="6.5" cy="6.5" r="1.5"/>
<circle cx="15.5" cy="6.5" r="1.5"/>
<circle cx="11" cy="10" r="1"/>
<path style="fill:none;stroke:#000000;stroke-width:2;stroke-miterlimit:10;" d="M16,25V14c0-1.105,0.895-2,2-2h7
	c1.105,0,2,0.895,2,2v11c0,1.105-0.895,2-2,2h-7C16.895,27,16,26.105,16,25z"/>
<path d="M11,13c-1.654,0-3,1.346-3,3s1.346,3,3,3c0.771,0,1.468-0.301,2-0.78v-4.438C12.468,13.301,11.771,13,11,13z M11,17
	c-0.552,0-1-0.449-1-1s0.448-1,1-1s1,0.449,1,1S11.552,17,11,17z"/>
<path d="M13.101,26H6V6h10v3.424C16.614,9.154,17.288,9,18,9V4H4v24h10.026C13.583,27.416,13.253,26.743,13.101,26z"/>
<line style="fill:none;stroke:#000000;stroke-width:2;stroke-miterlimit:10;" x1="23" y1="27" x2="23" y2="14"/>
</svg>
