<?xml version="1.0" encoding="iso-8859-1"?>
<!-- Generator: Adobe Illustrator 19.1.0, SVG Export Plug-In . SVG Version: 6.00 Build 0)  -->
<svg version="1.1" id="Layer_1" xmlns="http://www.w3.org/2000/svg" xmlns:xlink="http://www.w3.org/1999/xlink" x="0px" y="0px"
	 viewBox="0 0 32 32" style="enable-background:new 0 0 32 32;" xml:space="preserve">
<g>
	<polygon points="14,20.08 10.486,25 12.943,25 14,23.52 	"/>
	<polygon points="18,20.08 18,23.52 19.057,25 21.514,25 	"/>
</g>
<rect x="13.831" y="7.779" transform="matrix(-0.9625 0.2714 -0.2714 -0.9625 42.1146 17.7327)" style="fill:none;stroke:#000000;stroke-width:2;stroke-miterlimit:10;" width="12" height="8"/>
<rect x="9.15" y="12.086" transform="matrix(0.9625 -0.2714 0.2714 0.9625 -3.3857 3.6908)" style="fill:none;stroke:#000000;stroke-width:2;stroke-miterlimit:10;" width="5" height="4"/>
<line style="fill:none;stroke:#000000;stroke-width:2;stroke-miterlimit:10;" x1="9.244" y1="14.764" x2="5.394" y2="15.85"/>
<line style="fill:none;stroke:#000000;stroke-width:2;stroke-miterlimit:10;" x1="5.937" y1="17.775" x2="4.851" y2="13.925"/>
<path d="M18,18c0,1.105-0.895,2-2,2s-2-0.895-2-2s0.895-1,2-1S18,16.895,18,18z"/>
<line style="fill:none;stroke:#000000;stroke-width:2;stroke-miterlimit:10;" x1="16" y1="27" x2="16" y2="18"/>
</svg>
