<?xml version="1.0" encoding="iso-8859-1"?>
<!-- Generator: Adobe Illustrator 22.0.1, SVG Export Plug-In . SVG Version: 6.00 Build 0)  -->
<svg version="1.1" id="Layer_1_1_" xmlns="http://www.w3.org/2000/svg" xmlns:xlink="http://www.w3.org/1999/xlink" x="0px" y="0px"
	 viewBox="0 0 32 32" style="enable-background:new 0 0 32 32;" xml:space="preserve">
<rect x="7" y="5" width="2" height="2"/>
<rect x="7" y="9" width="2" height="2"/>
<rect x="7" y="13" width="2" height="2"/>
<rect x="21" y="5" width="2" height="2"/>
<rect x="7" y="17" width="2" height="2"/>
<rect x="7" y="21" width="2" height="2"/>
<line style="fill:none;stroke:#000000;stroke-width:2;stroke-miterlimit:10;" x1="21" y1="10" x2="21" y2="13"/>
<line style="fill:none;stroke:#000000;stroke-width:2;stroke-miterlimit:10;" x1="19" y1="10" x2="23" y2="10"/>
<line style="fill:none;stroke:#000000;stroke-width:2;stroke-miterlimit:10;" x1="26" y1="15" x2="28" y2="13"/>
<path d="M27,4H3v20h8.841c-0.279-0.636-0.497-1.304-0.639-2H5V6h20v4.841c0.21,0.092,0.415,0.194,0.618,0.298L27,9.757V4z"/>
<circle style="fill:none;stroke:#000000;stroke-width:2;stroke-miterlimit:10;" cx="21" cy="20" r="7"/>
<polyline style="fill:none;stroke:#000000;stroke-width:2;stroke-miterlimit:10;" points="21,16 21,21 19,23 "/>
</svg>
