<?xml version="1.0" encoding="iso-8859-1"?>
<!-- Generator: Adobe Illustrator 19.1.0, SVG Export Plug-In . SVG Version: 6.00 Build 0)  -->
<svg version="1.1" id="Layer_1" xmlns="http://www.w3.org/2000/svg" xmlns:xlink="http://www.w3.org/1999/xlink" x="0px" y="0px"
	 viewBox="0 0 32 32" style="enable-background:new 0 0 32 32;" xml:space="preserve">
<path d="M15,23c0,1.105-0.895,2-2,2s-2-0.895-2-2s2-4,2-4S15,21.895,15,23z"/>
<line style="fill:none;stroke:#000000;stroke-width:2;stroke-miterlimit:10;" x1="3" y1="3" x2="29" y2="29"/>
<g>
	<path d="M2,18c0-2.206,1.794-4,4-4c0.277,0,0.565,0.035,0.881,0.106l0.979,0.22l0.217-0.979c0.061-0.275,0.161-0.535,0.293-0.777
		l-1.445-1.445c-0.198,0.278-0.37,0.575-0.508,0.891C2.921,11.757,0,14.553,0,18c0,3.309,2.691,6,6,6h2l1-2H6
		C3.794,22,2,20.206,2,18z"/>
	<path d="M19.779,23.979C19.363,24.736,19,25.53,19,26c0,1.105,0.895,2,2,2c0.759,0,1.411-0.428,1.75-1.05L19.779,23.979z"/>
	<path d="M16.099,17.471l2.444,2.444C19.382,19.678,20,18.915,20,18c0-1.105-2-4-2-4S16.5,16.172,16.099,17.471z"/>
	<path d="M28.997,12.802C28.892,9.585,26.242,7,23,7c-0.389,0-0.777,0.042-1.173,0.127C20.537,5.18,18.372,4,16,4
		c-3.226,0-6.041,2.257-6.794,5.344C8.918,9.455,8.647,9.599,8.387,9.759l1.477,1.477c0.142-0.058,0.288-0.108,0.44-0.145
		l0.658-0.157l0.099-0.669C11.42,7.833,13.543,6,16,6c1.894,0,3.603,1.054,4.46,2.751l0.396,0.783l0.828-0.29
		C22.151,9.08,22.582,9,23,9c2.206,0,4,1.794,4,4c0,0.038-0.008,0.075-0.013,0.112c-0.009,0.068-0.018,0.136-0.024,0.206l-0.06,0.72
		l0.665,0.283C29.045,14.951,30,16.395,30,18c0,2.206-1.794,4-4,4h-3.443L25,24h1c3.309,0,6-2.691,6-6
		C32,15.835,30.842,13.865,28.997,12.802z"/>
</g>
</svg>
