<?xml version="1.0" encoding="iso-8859-1"?>
<!-- Generator: Adobe Illustrator 19.1.0, SVG Export Plug-In . SVG Version: 6.00 Build 0)  -->
<svg version="1.1" id="Layer_1" xmlns="http://www.w3.org/2000/svg" xmlns:xlink="http://www.w3.org/1999/xlink" x="0px" y="0px"
	 viewBox="0 0 32 32" style="enable-background:new 0 0 32 32;" xml:space="preserve">
<g>
	<path d="M8.79,4h1.395l0.899,3.592h0.087l0.858-3.591h1.41l-1.614,5.253v3.728H10.44V9.424L8.79,4z"/>
	<path d="M13.377,7.871c0-0.513,0.166-0.923,0.498-1.225c0.332-0.304,0.777-0.457,1.336-0.457c0.512,0,0.929,0.16,1.253,0.482
		c0.325,0.319,0.489,0.733,0.489,1.237v3.423c0,0.567-0.16,1.012-0.478,1.336c-0.321,0.322-0.758,0.484-1.318,0.484
		c-0.541,0-0.97-0.168-1.296-0.501c-0.323-0.332-0.484-0.78-0.484-1.343L13.377,7.871L13.377,7.871z M14.644,11.429
		c0,0.181,0.044,0.323,0.135,0.423c0.086,0.098,0.212,0.149,0.374,0.149c0.168,0,0.298-0.051,0.398-0.153
		c0.098-0.099,0.148-0.24,0.148-0.418V7.821c0-0.143-0.051-0.261-0.151-0.35c-0.099-0.088-0.231-0.135-0.394-0.135
		c-0.151,0-0.274,0.046-0.368,0.135c-0.094,0.089-0.141,0.207-0.141,0.35C14.644,7.821,14.644,11.429,14.644,11.429z"/>
	<path d="M21.515,6.357v6.625h-1.232V12.25c-0.227,0.27-0.463,0.476-0.71,0.616c-0.244,0.139-0.483,0.212-0.713,0.212
		c-0.284,0-0.499-0.098-0.644-0.295c-0.145-0.197-0.216-0.491-0.216-0.888V6.357h1.231v5.081c0,0.154,0.026,0.268,0.079,0.338
		c0.05,0.069,0.136,0.106,0.25,0.106c0.091,0,0.206-0.046,0.343-0.139c0.139-0.092,0.266-0.213,0.381-0.356v-5.03H21.515z"/>
</g>
<g>
	<path d="M21.567,20.154c-0.146,0-0.246,0.039-0.306,0.121c-0.043,0.06-0.095,0.201-0.095,0.506v0.522h0.795v-0.522
		c0-0.3-0.056-0.442-0.102-0.509C21.803,20.192,21.707,20.154,21.567,20.154z"/>
	<path d="M16.909,20.18c-0.057,0.028-0.113,0.071-0.172,0.131v3.955c0.073,0.074,0.145,0.129,0.211,0.163
		c0.074,0.037,0.149,0.055,0.231,0.055c0.155,0,0.202-0.062,0.217-0.083c0.038-0.048,0.08-0.147,0.08-0.364v-3.37
		c0-0.187-0.035-0.332-0.102-0.42C17.285,20.126,17.109,20.08,16.909,20.18z"/>
	<path d="M24.865,17.523c0-1.576-1.293-2.854-2.886-2.854c-2.275-0.095-4.603-0.136-6.98-0.134c-2.375-0.003-4.704,0.038-6.98,0.134
		c-1.591,0-2.885,1.279-2.885,2.854C5.04,18.769,4.997,20.018,5,21.267c-0.004,1.247,0.039,2.496,0.135,3.745
		c0,1.578,1.292,2.856,2.884,2.856c2.276,0.094,4.605,0.135,6.98,0.131c2.377,0.005,4.705-0.037,6.98-0.131
		c1.592,0,2.886-1.278,2.886-2.856c0.095-1.249,0.139-2.498,0.135-3.745C25.005,20.018,24.961,18.769,24.865,17.523z M9.467,25.563
		c0,0.076-0.061,0.137-0.137,0.137H7.964c-0.076,0-0.137-0.061-0.137-0.137v-7.426H6.551c-0.076,0-0.137-0.061-0.137-0.137v-1.281
		c0-0.076,0.061-0.137,0.137-0.137h4.193c0.076,0,0.137,0.061,0.137,0.137V18c0,0.076-0.061,0.137-0.137,0.137H9.467V25.563z
		 M14.33,25.563c0,0.076-0.061,0.137-0.137,0.137h-1.214c-0.076,0-0.137-0.061-0.137-0.137v-0.371
		c-0.162,0.157-0.324,0.282-0.492,0.377c-0.264,0.152-0.517,0.226-0.773,0.226c-0.325,0-0.576-0.117-0.744-0.348
		c-0.159-0.219-0.241-0.541-0.241-0.956v-5.454c0-0.076,0.061-0.137,0.137-0.137h1.214c0.076,0,0.137,0.061,0.137,0.137v5.001
		c0,0.164,0.03,0.231,0.049,0.256c0.008,0.011,0.033,0.046,0.136,0.046c0.035,0,0.115-0.015,0.259-0.113
		c0.117-0.079,0.222-0.174,0.316-0.286v-4.904c0-0.076,0.061-0.137,0.137-0.137h1.214c0.076,0,0.137,0.061,0.137,0.137v6.525H14.33z
		 M19,24.212c0,0.495-0.106,0.882-0.316,1.15c-0.217,0.28-0.53,0.422-0.932,0.422c-0.255,0-0.49-0.053-0.697-0.157
		c-0.111-0.057-0.218-0.13-0.319-0.22v0.157c0,0.076-0.061,0.137-0.137,0.137h-1.225c-0.076,0-0.137-0.061-0.137-0.137v-8.846
		c0-0.076,0.061-0.137,0.137-0.137h1.225c0.076,0,0.137,0.061,0.137,0.137v2.502c0.101-0.092,0.207-0.168,0.316-0.231
		c0.207-0.115,0.417-0.173,0.628-0.173c0.428,0,0.761,0.16,0.99,0.476c0.219,0.303,0.329,0.74,0.329,1.3L19,24.212L19,24.212z
		 M23.485,22.455c0,0.076-0.061,0.137-0.137,0.137h-2.182v1.092c0,0.399,0.054,0.568,0.098,0.641
		c0.036,0.059,0.102,0.134,0.292,0.134c0.154,0,0.258-0.037,0.312-0.11c0.026-0.038,0.093-0.189,0.093-0.665v-0.455
		c0-0.076,0.061-0.137,0.137-0.137h1.248c0.076,0,0.137,0.061,0.137,0.137v0.491c0,0.703-0.167,1.242-0.492,1.604
		c-0.327,0.366-0.82,0.553-1.465,0.553c-0.582,0-1.049-0.198-1.386-0.587c-0.333-0.383-0.502-0.912-0.502-1.571V20.79
		c0-0.6,0.186-1.097,0.553-1.479c0.368-0.383,0.849-0.577,1.43-0.577c0.593,0,1.058,0.181,1.381,0.539
		c0.321,0.356,0.483,0.865,0.483,1.516L23.485,22.455L23.485,22.455z"/>
</g>
</svg>
