<?xml version="1.0" encoding="iso-8859-1"?>
<!-- Generator: Adobe Illustrator 19.1.0, SVG Export Plug-In . SVG Version: 6.00 Build 0)  -->
<svg version="1.1" id="Layer_1" xmlns="http://www.w3.org/2000/svg" xmlns:xlink="http://www.w3.org/1999/xlink" x="0px" y="0px"
	 viewBox="0 0 32 32" style="enable-background:new 0 0 32 32;" xml:space="preserve">
<path style="fill:none;stroke:#000000;stroke-width:2;stroke-miterlimit:10;" d="M10.964,10.129l6.444-4.809
	c0.712-0.531,1.72-0.385,2.251,0.327l0,0c0.36,0.482,0.409,1.099,0.182,1.612"/>
<path style="fill:none;stroke:#000000;stroke-width:2;stroke-miterlimit:10;" d="M8.998,11.418l-0.166-0.663l0.36-2.478
	c0.119-0.819-0.449-1.58-1.268-1.699l0,0c-0.82-0.119-1.581,0.45-1.699,1.27l-1.163,8.068c-0.168,1.173-0.014,2.421,0.754,3.449
	l2.224,2.981c0.844,1.13,2.088,1.785,3.388,1.915"/>
<path style="fill:none;stroke:#000000;stroke-width:2;stroke-miterlimit:10;" d="M14.02,13.078l5.686-5.686
	c0.628-0.628,1.646-0.628,2.274,0l0,0c0.628,0.628,0.628,1.646,0,2.274l-4.549,4.549"/>
<path style="fill:none;stroke:#000000;stroke-width:2;stroke-miterlimit:10;" d="M19.706,16.489l4.549-4.549
	c0.628-0.628,1.646-0.628,2.274,0l0,0c0.628,0.628,0.628,1.646,0,2.274l-4.549,4.549"/>
<path style="fill:none;stroke:#000000;stroke-width:2;stroke-miterlimit:10;" d="M17.431,14.215l5.686-5.686
	c0.628-0.628,1.646-0.628,2.274,0l0,0c0.628,0.628,0.628,1.646,0,2.274l-5.686,5.686"/>
<path style="fill:none;stroke:#000000;stroke-width:2;stroke-miterlimit:10;" d="M14.02,13.078l-1.998,1.998L12,15.061l0-3.562
	C12,10.671,11.329,10,10.501,10h0c-0.829,0-1.5,0.672-1.499,1.501l0.009,8.151c0.002,1.185,0.335,2.397,1.242,3.305l2.63,2.63
	c1.884,1.884,4.939,1.884,6.823,0l6.762-6.762c0.566-0.566,0.704-1.479,0.236-2.129c-0.597-0.828-1.759-0.897-2.45-0.207
	l-2.274,2.274"/>
</svg>
