<?xml version="1.0" encoding="iso-8859-1"?>
<!-- Generator: Adobe Illustrator 19.1.1, SVG Export Plug-In . SVG Version: 6.00 Build 0)  -->
<svg version="1.1" id="Layer_1" xmlns="http://www.w3.org/2000/svg" xmlns:xlink="http://www.w3.org/1999/xlink" x="0px" y="0px"
	 viewBox="-8 10 32 32" style="enable-background:new -8 10 32 32;" xml:space="preserve">
<rect x="5" y="19" style="fill:none;stroke:#000000;stroke-width:2;stroke-miterlimit:10;" width="6" height="3"/>
<path style="fill:none;stroke:#000000;stroke-width:2;stroke-miterlimit:10;" d="M2,37c-1.208-1.25-2-3.465-2-6h16
	c0,2.535-0.667,5.167-2,6"/>
<line style="fill:none;stroke:#000000;stroke-width:2;stroke-miterlimit:10;" x1="11" y1="22" x2="14" y2="31"/>
<line style="fill:none;stroke:#000000;stroke-width:2;stroke-miterlimit:10;" x1="5" y1="22" x2="2" y2="31"/>
<path d="M22,35c0,0.306-0.756,1-2,1c-1.224,0-2-0.703-2-1h-2c0,0.306-0.756,1-2,1c-1.224,0-2-0.703-2-1h-2c0,0.306-0.756,1-2,1
	c-1.224,0-2-0.703-2-1H4c0,0.306-0.755,1-2,1c-1.224,0-2-0.703-2-1h-2c0,0.306-0.755,1-2,1c-1.224,0-2-0.703-2-1h-2
	c0,1.626,1.832,3,4,3c1.187,0,2.26-0.42,3-1.059C-0.26,37.58,0.813,38,2,38s2.26-0.42,3-1.059C5.74,37.58,6.813,38,8,38
	c1.187,0,2.26-0.42,3-1.059C11.74,37.58,12.813,38,14,38s2.26-0.42,3-1.059C17.74,37.58,18.813,38,20,38c2.168,0,4-1.374,4-3H22z"/>
<path d="M10,18H6v-2c0-1.105,0.895-2,2-2l0,0c1.105,0,2,0.895,2,2V18z"/>
</svg>
