<?xml version="1.0" encoding="iso-8859-1"?>
<!-- Generator: Adobe Illustrator 19.1.0, SVG Export Plug-In . SVG Version: 6.00 Build 0)  -->
<svg version="1.1" id="Layer_1" xmlns="http://www.w3.org/2000/svg" xmlns:xlink="http://www.w3.org/1999/xlink" x="0px" y="0px"
	 viewBox="0 0 32 32" style="enable-background:new 0 0 32 32;" xml:space="preserve">
<path style="fill:none;stroke:#000000;stroke-width:2;stroke-linecap:round;stroke-linejoin:round;stroke-miterlimit:10;" d="
	M18,9.239C18,8.011,19.022,6,20.252,6C21.57,6,23,7.648,23,9.386c0,1.307-0.735,2.614-2.401,2.614C18.618,12.001,18,10.648,18,9.239
	z"/>
<path style="fill:none;stroke:#000000;stroke-width:2;stroke-linecap:round;stroke-linejoin:round;stroke-miterlimit:10;" d="
	M23.748,14C22.062,14,21,15.917,21,17.354C21,18.112,21.438,20,23.465,20c1.793,0,2.534-1.708,2.534-2.896
	C25.999,15.695,25.223,14,23.748,14z"/>
<path d="M25,14.487C25,12.626,24.384,12,24.154,12c-0.207,0-1.241,1.213-1.449,2.059L25,14.487z"/>
<path style="fill:none;stroke:#000000;stroke-width:2;stroke-linecap:round;stroke-linejoin:round;stroke-miterlimit:10;" d="
	M8.251,12c1.685,0,2.748,1.917,2.748,3.354c0,0.757-0.438,2.646-2.465,2.646C6.741,18,6,16.292,6,15.104C6,13.695,6.776,12,8.251,12
	z"/>
<path d="M6.999,12.487c0-1.86,0.616-2.487,0.846-2.487c0.207,0,1.241,1.213,1.449,2.059L6.999,12.487z"/>
<path d="M21.431,6.35c-0.325-1.328-1.381-2.345-1.692-2.345c-0.312,0-0.923,1.383-0.793,2.605L21.431,6.35z"/>
<path style="fill:none;stroke:#000000;stroke-width:2;stroke-linecap:round;stroke-linejoin:round;stroke-miterlimit:10;" d="
	M15,8.208C15,7.03,14.295,5,12.748,5S10,6.853,10,8.238c0,1.307,0.735,2.763,2.401,2.763C14.382,11.001,15,9.504,15,8.208z"/>
<path d="M11.569,5.35c0.325-1.328,1.381-2.345,1.692-2.345c0.312,0,0.923,1.383,0.793,2.605L11.569,5.35z"/>
<path style="fill:none;stroke:#000000;stroke-width:2;stroke-linecap:round;stroke-linejoin:round;stroke-miterlimit:10;" d="
	M18,19.5c0-1.381-1.119-2.5-2.5-2.5S13,18.119,13,19.5c0,1.484-4,1.564-4,4.5c0,1.657,1.343,3,3,3c2,0,1.96-0.66,3-0.66S16,27,18,27
	c1.657,0,3-1.343,3-3C21,21.038,18,21.577,18,19.5z"/>
</svg>
