<?xml version="1.0" encoding="iso-8859-1"?>
<!-- Generator: Adobe Illustrator 19.1.1, SVG Export Plug-In . SVG Version: 6.00 Build 0)  -->
<svg version="1.1" id="Layer_1" xmlns="http://www.w3.org/2000/svg" xmlns:xlink="http://www.w3.org/1999/xlink" x="0px" y="0px"
	 viewBox="0 0 32 32" style="enable-background:new 0 0 32 32;" xml:space="preserve">
<path d="M21.689,9.758c0.088,1.199,0.861,1.629,1.382,2.673c-0.891-0.305-1.541-1.379-1.78-2.289
	c-0.283,0.275-0.561,0.547-0.833,0.812c-1.882,1.807-3.097,4.114-4.298,6.395c-0.29,0.902,0.026,1.658,1.091,2.333
	c-0.859-0.21-1.49-0.776-1.713-1.638c-0.069,0.071-0.139,0.137-0.21,0.203c-1.578,1.45-4.808,4.136-3.574,5.609
	c1.741-0.809,3.395-1.725,4.857-2.65c6.533-4.136,8.739-10.706,10.343-14.352c0,0-2.39,7.033-4.776,9.968
	c-1.983,2.437-3.79,4.424-6.59,5.932c-0.343,0.185-1.612,0.834-3.22,1.57c0.399,0.196,0.936,0.351,1.656,0.444
	c2.821,0.382,9.157-2.911,9.157-2.911s-2.395-0.832-3.405-1.26c1.525,0.537,3.061,0.698,4.597,0.138
	c0.21-0.232,0.404-0.471,0.575-0.714c0.674-0.949,1.127-2.323,1.512-3.539c-0.866,0.243-1.703-0.003-2.589-0.475
	c0.94,0.155,1.963,0.021,2.829-0.37l0.021,0.026c0.03-0.092,0.059-0.175,0.087-0.263c0.913-2.718,1.661-4.178,1.627-6.894
	c-1.331,0.047-1.257,0.031-1.725,0.19c1.225-0.417,1.151-0.643,1.675-0.972C28.349,6.801,28.26,5.732,29,5
	C26.172,5.591,23.783,7.736,21.689,9.758z"/>
<path d="M11.788,23.844C8.936,25.172,5.848,26.207,3,26.488c0.704,1.474,5.835-0.543,9.35-2.154
	C12.35,24.334,11.927,24.095,11.788,23.844z"/>
</svg>
