<?xml version="1.0" encoding="iso-8859-1"?>
<!-- Generator: Adobe Illustrator 19.1.1, SVG Export Plug-In . SVG Version: 6.00 Build 0)  -->
<svg version="1.1" id="Layer_1" xmlns="http://www.w3.org/2000/svg" xmlns:xlink="http://www.w3.org/1999/xlink" x="0px" y="0px"
	 viewBox="0 0 32 32" style="enable-background:new 0 0 32 32;" xml:space="preserve">
<circle style="fill:none;stroke:#000000;stroke-width:2;stroke-miterlimit:10;" cx="16" cy="16" r="7"/>
<line style="fill:none;stroke:#000000;stroke-width:2;stroke-miterlimit:10;" x1="8" y1="8" x2="24" y2="24"/>
<line style="fill:none;stroke:#000000;stroke-width:2;stroke-miterlimit:10;" x1="24" y1="8" x2="8" y2="24"/>
<rect x="9" y="4" width="2" height="2"/>
<rect x="13" y="4" width="2" height="2"/>
<rect x="17" y="4" width="2" height="2"/>
<rect x="21" y="4" width="2" height="2"/>
<rect x="26" y="9" width="2" height="2"/>
<rect x="26" y="13" width="2" height="2"/>
<rect x="26" y="17" width="2" height="2"/>
<rect x="26" y="21" width="2" height="2"/>
<rect x="21" y="26" width="2" height="2"/>
<rect x="17" y="26" width="2" height="2"/>
<rect x="13" y="26" width="2" height="2"/>
<rect x="9" y="26" width="2" height="2"/>
<rect x="4" y="21" width="2" height="2"/>
<rect x="4" y="17" width="2" height="2"/>
<rect x="4" y="13" width="2" height="2"/>
<rect x="4" y="9" width="2" height="2"/>
<rect x="5.368" y="5.415" transform="matrix(0.7071 0.7071 -0.7071 0.7071 6.4011 -2.6244)" width="2" height="2"/>
<rect x="24.599" y="24.645" transform="matrix(0.7071 0.7071 -0.7071 0.7071 25.6318 -10.5901)" width="2" height="2"/>
<rect x="5.368" y="24.645" transform="matrix(0.7071 -0.7071 0.7071 0.7071 -16.2687 12.0145)" width="2" height="2"/>
<rect x="24.599" y="5.415" transform="matrix(0.7071 -0.7071 0.7071 0.7071 2.9621 19.9802)" width="2" height="2"/>
</svg>
