<?xml version="1.0" encoding="iso-8859-1"?>
<!-- Generator: Adobe Illustrator 19.1.1, SVG Export Plug-In . SVG Version: 6.00 Build 0)  -->
<svg version="1.1" id="Layer_1" xmlns="http://www.w3.org/2000/svg" xmlns:xlink="http://www.w3.org/1999/xlink" x="0px" y="0px"
	 viewBox="0 0 32 32" style="enable-background:new 0 0 32 32;" xml:space="preserve">
<rect x="3" y="7" style="fill:none;stroke:#000000;stroke-width:2;stroke-miterlimit:10;" width="26" height="18"/>
<path style="fill:none;stroke:#000000;stroke-width:2;stroke-miterlimit:10;" d="M20,18L20,18c-0.552,0-1,0.448-1,1v0
	c0,0.552,0.448,1,1,1h0c0.552,0,1-0.448,1-1l0,0C21,18.448,20.552,18,20,18z"/>
<path style="fill:none;stroke:#000000;stroke-width:2;stroke-miterlimit:10;" d="M12,12L12,12c-0.552,0-1,0.448-1,1l0,0
	c0,0.552,0.448,1,1,1h0c0.552,0,1-0.448,1-1l0,0C13,12.448,12.552,12,12,12z"/>
<polygon points="13.099,22 21.315,10 18.901,10 10.685,22 "/>
</svg>
