<?xml version="1.0" encoding="iso-8859-1"?>
<!-- Generator: Adobe Illustrator 19.1.0, SVG Export Plug-In . SVG Version: 6.00 Build 0)  -->
<svg version="1.1" id="Layer_1" xmlns="http://www.w3.org/2000/svg" xmlns:xlink="http://www.w3.org/1999/xlink" x="0px" y="0px"
	 viewBox="0 0 32 32" style="enable-background:new 0 0 32 32;" xml:space="preserve">
<path style="fill:none;stroke:#000000;stroke-width:2;stroke-miterlimit:10;" d="M14.667,23H6c-0.552,0-1-0.448-1-1V8
	c0-0.552,0.448-1,1-1h20c0.552,0,1,0.448,1,1v14c0,0.552-0.448,1-1,1h-8.667"/>
<path d="M5,20v2c0,0.552,0.448,1,1,1h20c0.552,0,1-0.448,1-1v-2H5z M16,22.5c-0.552,0-1-0.448-1-1s0.448-1,1-1s1,0.448,1,1
	S16.552,22.5,16,22.5z"/>
<polygon points="18.536,27 17.691,23 14.31,23 13.464,27 "/>
<line style="fill:none;stroke:#000000;stroke-width:2;stroke-miterlimit:10;" x1="11" y1="27" x2="21" y2="27"/>
<g>
	<path d="M18.294,13.047c-0.027,0.017-0.662,0.369-0.662,1.151c0,0.811,0.697,1.152,0.815,1.205C18.425,15.497,17.825,17,17.102,17
		c-0.389,0-0.529-0.246-0.978-0.246c-0.483,0-0.619,0.246-0.988,0.246c-0.604,0-1.581-1.294-1.581-2.712
		c0-1.085,0.65-1.837,1.498-1.837c0.393,0,0.742,0.27,0.982,0.27c0.23,0,0.659-0.27,1.145-0.27
		C17.388,12.451,17.947,12.514,18.294,13.047z M16.001,12.374c-0.07-0.349,0.123-0.699,0.303-0.922
		c0.23-0.27,0.592-0.453,0.905-0.453c0.02,0.349-0.106,0.692-0.336,0.942C16.673,12.211,16.323,12.414,16.001,12.374z"/>
</g>
</svg>
