<?xml version="1.0" encoding="iso-8859-1"?>
<!-- Generator: Adobe Illustrator 22.0.1, SVG Export Plug-In . SVG Version: 6.00 Build 0)  -->
<svg version="1.1" id="&#x421;&#x43B;&#x43E;&#x439;_1"
	 xmlns="http://www.w3.org/2000/svg" xmlns:xlink="http://www.w3.org/1999/xlink" x="0px" y="0px" viewBox="0 0 32 32"
	 style="enable-background:new 0 0 32 32;" xml:space="preserve">
<path style="fill:none;stroke:#000000;stroke-width:2;stroke-miterlimit:10;" d="M23.195,25.871c-1.254-0.355-2.18-1.5-2.18-2.871
	c0-1.656,1.344-3,3-3c1.656,0,3,1.344,3,3"/>
<path style="fill:none;stroke:#000000;stroke-width:2;stroke-miterlimit:10;" d="M31.015,27c0,2.211-1.789,4-4,4
	c-2.211,0-4-1.789-4-4c0-2.211,1.789-4,4-4C29.226,23,31.015,24.789,31.015,27L31.015,27z"/>
<line style="fill:none;stroke:#000000;stroke-width:2;stroke-miterlimit:10;" x1="9" y1="23" x2="18" y2="23"/>
<path style="fill:none;stroke:#000000;stroke-width:2;stroke-miterlimit:10;" d="M11,5v4c0,1.102,0.898,2,2,2c1.102,0,2-0.898,2-2"
	/>
<path style="fill:none;stroke:#000000;stroke-width:2;stroke-miterlimit:10;" d="M15,5v4c0,1.102,0.898,2,2,2s2-0.898,2-2"/>
<path style="fill:none;stroke:#000000;stroke-width:2;stroke-miterlimit:10;" d="M19,5v4c0,1.102,0.898,2,2,2c1.102,0,2-0.898,2-2"
	/>
<path style="fill:none;stroke:#000000;stroke-width:2;stroke-miterlimit:10;" d="M19,27h-8c-1.105,0-2-0.895-2-2V7
	c0-1.105,0.895-2,2-2h10c1.105,0,2,0.895,2,2v10"/>
</svg>
