<?xml version="1.0" encoding="iso-8859-1"?>
<!-- Generator: Adobe Illustrator 19.1.1, SVG Export Plug-In . SVG Version: 6.00 Build 0)  -->
<svg version="1.1" id="Layer_1" xmlns="http://www.w3.org/2000/svg" xmlns:xlink="http://www.w3.org/1999/xlink" x="0px" y="0px"
	 viewBox="0 0 32 32" style="enable-background:new 0 0 32 32;" xml:space="preserve">
<rect x="28" y="7" width="2" height="18"/>
<rect x="24" y="7" width="2" height="18"/>
<line style="fill:none;stroke:#000000;stroke-width:2;stroke-miterlimit:10;" x1="3" y1="3" x2="29" y2="29"/>
<g>
	<polygon points="2.758,7 2,7 2,25 4,25 4,8.242 	"/>
	<polygon points="16,17.414 16,7 14,7 14,15.414 	"/>
	<polygon points="22,23.414 22,7 18,7 18,19.414 	"/>
	<polygon points="12,13.414 12,7 6,7 6,7.414 	"/>
	<polygon points="18,22.242 18,25 20.758,25 	"/>
	<polygon points="14,18.242 14,25 16,25 16,20.242 	"/>
	<polygon points="6,10.242 6,25 12,25 12,16.242 	"/>
</g>
</svg>
