<?xml version="1.0" encoding="iso-8859-1"?>
<!-- Generator: Adobe Illustrator 19.2.0, SVG Export Plug-In . SVG Version: 6.00 Build 0)  -->
<svg version="1.1" id="Layer_1" xmlns="http://www.w3.org/2000/svg" xmlns:xlink="http://www.w3.org/1999/xlink" x="0px" y="0px"
	 viewBox="0 0 32 32" style="enable-background:new 0 0 32 32;" xml:space="preserve">
<path style="fill:none;stroke:#000000;stroke-width:2;stroke-miterlimit:10;" d="M10,26c1.21,0,2-1,2-1s1.063,1,3,1"/>
<path style="fill:none;stroke:#000000;stroke-width:2;stroke-miterlimit:10;" d="M27,27c0,0-1.624-2-4-2s-3.964,2-3.964,2H5"/>
<path style="fill:none;stroke:#000000;stroke-width:2;stroke-miterlimit:10;" d="M16,14.441c0,0,1.59,0.559,3.504,0.559
	C21.01,15,22,13.533,22,12.433C22,8.429,18.939,5,13.304,5C9.343,5,4,7,4,7"/>
<path style="fill:none;stroke:#000000;stroke-width:2;stroke-miterlimit:10;" d="M4.774,6.772c2.618,0,3.123,3.123,3.123,3.123"/>
<path style="fill:none;stroke:#000000;stroke-width:2;stroke-miterlimit:10;" d="M15,8c-6.467,0-9,3.16-9,3.16
	c0.986,1.753,3.816,3.81,7.726,3.81c2.947,0,5.272-2.412,5.272-2.412"/>
<g>
	<path style="fill:none;stroke:#000000;stroke-width:2;stroke-miterlimit:10;" d="M22,12c0,0,1,1.369,1,5.301
		c0,6.319,1.292,7.957,1.292,7.957"/>
</g>
<path style="fill:none;stroke:#000000;stroke-width:2;stroke-miterlimit:10;" d="M10.92,14.639C10.225,16.922,10,19.08,10,19.08
	s0.589,2.905,2.409,6.413"/>
</svg>
