<?xml version="1.0" encoding="iso-8859-1"?>
<!-- Generator: Adobe Illustrator 19.1.0, SVG Export Plug-In . SVG Version: 6.00 Build 0)  -->
<svg version="1.1" id="Layer_1" xmlns="http://www.w3.org/2000/svg" xmlns:xlink="http://www.w3.org/1999/xlink" x="0px" y="0px"
	 viewBox="0 0 32 32" style="enable-background:new 0 0 32 32;" xml:space="preserve">
<polygon style="fill:none;stroke:#000000;stroke-width:2;stroke-miterlimit:10;" points="20.75,27 11.25,27 10,21 22,21 "/>
<rect x="9" y="18" style="fill:none;stroke:#000000;stroke-width:2;stroke-miterlimit:10;" width="14" height="3"/>
<path style="fill:none;stroke:#000000;stroke-width:2;stroke-linejoin:round;stroke-miterlimit:10;" d="M16,17c0,0,0-0.056,0-0.328
	c0-3.605,6.317-6.12,6.317-6.12"/>
<path style="fill:none;stroke:#000000;stroke-width:2;stroke-linejoin:round;stroke-miterlimit:10;" d="M16,17c0,0,0-1.726,0-1.998
	c0-4.97-6.982-7.065-6.982-7.065"/>
<path style="fill:none;stroke:#000000;stroke-width:2;stroke-miterlimit:10;" d="M14.559,10.818
	c0.166-0.013,0.223-0.481,0.314-0.787C15.755,7.078,11.924,2.669,5,6.481c0,0,0.898,3.454,2.637,5.384
	c1.788,1.983,4.056,0.86,4.518,0.44"/>
<path style="fill:none;stroke:#000000;stroke-width:2;stroke-miterlimit:10;" d="M19.264,11.928c0,0-0.093-0.259-0.166-0.527
	c-0.706-2.583,2.36-5.44,7.9-2.106c0,0-0.985,1.82-2.377,3.508c-1.431,1.735-3.241,1.303-3.658,0.651"/>
</svg>
