<?xml version="1.0" encoding="iso-8859-1"?>
<!-- Generator: Adobe Illustrator 22.0.1, SVG Export Plug-In . SVG Version: 6.00 Build 0)  -->
<svg version="1.1" id="Icons" xmlns="http://www.w3.org/2000/svg" xmlns:xlink="http://www.w3.org/1999/xlink" x="0px" y="0px"
	 viewBox="0 0 32 32" style="enable-background:new 0 0 32 32;" xml:space="preserve">
<g>
	<path d="M15,25c0,0.551-0.449,1-1,1c-0.551,0-1-0.449-1-1c0-0.551,0.449-1,1-1C14.551,24,15,24.449,15,25L15,25z"/>
	<path style="fill:none;stroke:#000000;stroke-width:2;stroke-miterlimit:10;" d="M21,11v15c0,1.105-0.895,2-2,2H9
		c-1.105,0-2-0.895-2-2V6c0-1.105,0.895-2,2-2h7"/>
	<circle style="fill:none;stroke:#000000;stroke-width:2;stroke-miterlimit:10;" cx="14" cy="14" r="3"/>
	<rect x="19" y="4" style="fill:none;stroke:#000000;stroke-width:2;stroke-miterlimit:10;" width="9" height="4"/>
	<polygon points="18,5 15,9 18,9 	"/>
	<path d="M14,17c-2.767,0-5,2.233-5,5h2c0-1.657,1.343-3,3-3s3,1.343,3,3h2C19,19.233,16.767,17,14,17z"/>
</g>
</svg>
