<?xml version="1.0" encoding="iso-8859-1"?>
<!-- Generator: Adobe Illustrator 19.1.1, SVG Export Plug-In . SVG Version: 6.00 Build 0)  -->
<svg version="1.1" id="Layer_1" xmlns="http://www.w3.org/2000/svg" xmlns:xlink="http://www.w3.org/1999/xlink" x="0px" y="0px"
	 viewBox="0 0 32 32" style="enable-background:new 0 0 32 32;" xml:space="preserve">
<path d="M18.4,15.2c0,0,3.1-0.1,4.3-1.5c1.3-1.5,1,3-1.5,3C19.3,16.6,18.6,16,18.4,15.2z"/>
<path d="M13.6,15.2c0,0-3.1-0.1-4.3-1.5c-1.3-1.5-1,3,1.5,3C12.7,16.6,13.4,16,13.6,15.2z"/>
<path d="M26,13.5c0-1.054-0.239-2.089-0.645-3.075C23.962,6.46,20.417,3,16,3c-4.747,0-8.49,3.996-9.632,8.321
	C6.135,12.086,6,12.828,6,13.5c0,0.1,0.008,0.201,0.01,0.301C6.009,13.867,6,13.934,6,14c0,7.095,4.106,15,10,15s10-7.905,10-15
	c0-0.075-0.01-0.151-0.011-0.227C25.99,13.682,26,13.59,26,13.5z M8,14c0-2.657,1.339-5.511,3.462-7.276
	C11.146,7.348,10.904,8.067,10.8,8.9c-0.5,4.2,1.7,4.9,2.3,4.9c0.6,0,1.3-1.1,1.2-2.9c0,0,0.8,0.7,0.9,3.6c0,0.6-0.9,0.6-0.9,0.6
	s0.8,0.1,0.8,0.6c0,1.5-0.4,3.2-0.4,3.2s-0.9-0.8-1.2-1.2c-0.4-0.5-1.285-0.089-1.8,0.6c-1.985,2.655,1.177,6.891,2.254,8.195
	C10.65,24.902,8,19.669,8,14z M20.4,18.4c-0.502-0.699-1.3-1.1-1.8-0.6c-0.4,0.4-1.2,1.2-1.2,1.2S17,17.2,17,15.8
	c0-0.5,0.9-0.6,0.9-0.6S17,15.3,17,14.6c0.1-2.9,0.9-3.6,0.9-3.6c-0.1,1.8,0.6,2.9,1.2,2.9c0.6,0,2.8-0.8,2.3-4.9
	c-0.098-0.784-0.332-1.462-0.63-2.065C22.755,8.711,24,11.443,24,14c0,5.52-2.511,10.64-5.694,12.375
	C19.48,24.855,22.178,20.878,20.4,18.4z"/>
</svg>
