<?xml version="1.0" encoding="iso-8859-1"?>
<!-- Generator: Adobe Illustrator 19.2.0, SVG Export Plug-In . SVG Version: 6.00 Build 0)  -->
<svg version="1.1" xmlns="http://www.w3.org/2000/svg" xmlns:xlink="http://www.w3.org/1999/xlink" x="0px" y="0px"
	 viewBox="0 0 32 32" style="enable-background:new 0 0 32 32;" xml:space="preserve">
<g >
	<line style="fill:none;stroke:#000000;stroke-width:2;stroke-miterlimit:10;" x1="11" y1="21" x2="16" y2="24"/>
	<line style="fill:none;stroke:#000000;stroke-width:2;stroke-miterlimit:10;" x1="15.75" y1="25.75" x2="21" y2="23"/>
	<g>
		<path d="M10.757,18.296l0.21,0.153l-0.17,0.307l-0.54,0.971l0.428,0.77l-0.772,0.499l-0.149,0.096l-0.923,0.249
			c-0.262,0.071-0.592,0.162-0.936,0.261l-0.135-0.258l-0.1-0.19L8.479,20.7L7.381,19h0.448l0.29-0.29l0.311,0.621l1.746-0.776
			L10.757,18.296 M11,16l-1.636,0.727L9,16H8l-1,1H6l-1,1v1l0.646,1L5,20.364l1,1.909V23c0,0,0.758,0.818,1,1
			c0.455-0.212,2.364-0.727,2.364-0.727L10,24l1-0.688v-0.636L12.045,22H13v-1.455l-0.455-0.818L13,18.909v-1.455L11,16L11,16z"/>
	</g>
	<g>
		<path d="M21.243,20.296l0.581,0.258l1.746,0.776l0.311-0.621l0.29,0.29h0.448l-1.098,1.7l0.807,0.454l-0.1,0.19l-0.135,0.258
			c-0.344-0.099-0.674-0.19-0.936-0.261l-0.923-0.249l-0.149-0.096l-0.772-0.499l0.428-0.77l-0.54-0.971l-0.17-0.307L21.243,20.296
			 M24,18h-1l-0.364,0.727L21,18l-2,1.455v1.455l0.455,0.818L19,22.545V24h0.955L21,24.676v0.636L22,26l0.636-0.727
			c0,0,1.909,0.515,2.364,0.727c0.242-0.182,1-1,1-1v-0.727l1-1.909L26.354,22L27,21v-1l-1-1h-1L24,18L24,18z"/>
	</g>
	<path d="M16.667,6l0.8,0.6l1.2,0.9l1.146-0.859L20.172,7h0.592L21,7.472V8v0.828l0.586,0.586l0.006,0.006l-0.863,0.76l0.766,1.404
		l0.005,0.009l-0.193,0.179l-0.878,0.815l0.125,0.478l-0.161,0.241l-1.151-0.689l-1.002,0.815l-1.388-1.111l-1.266,1.266L15.172,14
		h-0.439l-0.538-1H13h-0.172l-0.414-0.414L11.828,12H11h-0.172l-0.414-0.414L10.1,11.272l0.689-1.377l0.645-1.289l-0.057-0.057
		l1.186-0.593l-0.314-0.756l0.3-0.245L13.103,6.5l0.168,0.116l1.349,0.93l1.177-1.14L16.216,6H16.667 M20,4l-1.333,1l-1.333-1
		h-1.927l-1,0.969L13,4l-1.719,1.406L9.313,5.344L10,7L8,8l1,1l-1,2v1l1,1v1h2l1,1h1l0.538,1H16l1-1l1.25,1l1.167-0.948L21,16
		c0.313-0.469,0.667-1,0.667-1H23c0-0.495-0.333-1.763-0.333-1.763L24,12l-0.75-1.375L24,9.966V9l-1-1V7l-1-2h-1L20,4L20,4z"/>
	<path d="M17,25V14h-2v11c0,1.105-0.895,2-2,2h-1v2h3h2h3v-2h-1C17.895,27,17,26.105,17,25z"/>
</g>
<g >
</g>
</svg>
