<?xml version="1.0" encoding="iso-8859-1"?>
<!-- Generator: Adobe Illustrator 21.0.0, SVG Export Plug-In . SVG Version: 6.00 Build 0)  -->
<svg version="1.1"  xmlns="http://www.w3.org/2000/svg" xmlns:xlink="http://www.w3.org/1999/xlink" x="0px" y="0px"
	 viewBox="0 0 32 32" style="enable-background:new 0 0 32 32;" xml:space="preserve">
<g>
	<path d="M5,8c3.026-1.257,7.832-1.084,10-1l1,1l1-1c2.168-0.084,6.974-0.257,10,1c-0.418,0.813-2.001,1.742-3,2
		c-0.057-1.598-2.886-2-5-2l-3,21L13,8c-2.117,0-4.944,0.401-5,2C7.003,9.742,5.417,8.813,5,8L5,8z"/>
	<path d="M3,6l1,1c2.937-1.058,6.244-1.668,9.923-1.782c1.392-0.044,2.81-0.044,4.201,0C21.802,5.332,25.063,5.942,28,7l1-1
		c-3.469-1.205-7.154-1.874-10.834-1.972c-1.426-0.038-2.861-0.038-4.285,0C10.199,4.126,6.47,4.795,3,6L3,6z"/>
</g>
</svg>
