<?xml version="1.0" encoding="iso-8859-1"?>
<!-- Generator: Adobe Illustrator 21.1.0, SVG Export Plug-In . SVG Version: 6.00 Build 0)  -->
<svg version="1.1" id="Layer_1" xmlns="http://www.w3.org/2000/svg" xmlns:xlink="http://www.w3.org/1999/xlink" x="0px" y="0px"
	 viewBox="0 0 32 32" style="enable-background:new 0 0 32 32;" xml:space="preserve">
<path style="fill:none;stroke:#000000;stroke-width:2;stroke-linejoin:round;stroke-miterlimit:10;" d="M12.375,22.375
	C13.721,25.582,16.494,28,19.3,28c4.253,0,7.7-4.93,7.7-11.012S23.553,5.976,19.3,5.976c-2.806,0-5.579,2.441-6.925,5.649"/>
<path style="fill:none;stroke:#000000;stroke-width:2;stroke-linejoin:round;stroke-miterlimit:10;" d="M15.711,6.869
	c-1.002-0.682-1.828-0.893-3.011-0.893c-4.253,0-7.7,4.93-7.7,11.012S8.447,28,12.7,28c1.182,0,2.009-0.211,3.011-0.893"/>
<path style="fill:none;stroke:#000000;stroke-width:2;stroke-linejoin:round;stroke-miterlimit:10;" d="M16,6.869
	C16,3.893,14.263,3,14.263,3"/>
<circle cx="19" cy="24" r="1"/>
<circle cx="20" cy="19" r="1"/>
<circle cx="22" cy="22" r="1"/>
<circle cx="23" cy="17.125" r="1"/>
</svg>
