<?xml version="1.0" encoding="iso-8859-1"?>
<!-- Generator: Adobe Illustrator 21.0.2, SVG Export Plug-In . SVG Version: 6.00 Build 0)  -->
<svg version="1.1" id="Layer_1" xmlns="http://www.w3.org/2000/svg" xmlns:xlink="http://www.w3.org/1999/xlink" x="0px" y="0px"
	 viewBox="0 0 32 32" style="enable-background:new 0 0 32 32;" xml:space="preserve">
<rect x="5" y="19" width="2" height="8"/>
<rect x="10" y="19" width="2" height="8"/>
<rect x="8" y="19" width="1" height="8"/>
<rect x="13" y="19" width="2" height="8"/>
<path style="fill:none;stroke:#000000;stroke-width:2;stroke-miterlimit:10;" d="M23.005,5C24,5,25,5,25,6v2.294
	c0,0.541-1.047,1.026-1.494,1.282c-0.539,0.309-0.593,1.067-0.381,1.575c0.388,0.932,3.878,10.915,3.879,13.331
	C27.005,25.941,26.129,27,25,27c-1,0,0,0-1,0c-2.788,0-3-1.417-3-2c0-2,2.191-2.666,0.083-5.306c-0.93-1.165-2.354-1.2-2.879-1.855
	c-0.279-0.347-0.248-0.838,0.007-1.203c0.541-0.773,1.279-1.816,0.346-3.311c-0.375-0.601-1.44-1.782-2.674-2.125
	c-1.027-0.286-2.024-0.224-3.23,0.007l-3.37,0.769c-0.433,0.069-0.871-0.005-1.259-0.208c-1.051-0.552-2.995-2.076-3.019-5.676
	C5,5.506,5.419,5,6.007,5L23.005,5z"/>
<line style="fill:none;stroke:#000000;stroke-width:2;stroke-miterlimit:10;" x1="24.327" y1="9.104" x2="12.653" y2="11.207"/>
<path d="M16.055,14.087l0.394,1.181c0.187,0.561,0.673,0.744,1.355,0.733H19l-1-4l-1.267,0.732
	C16.149,13.039,15.868,13.526,16.055,14.087z"/>
</svg>
