<?xml version="1.0" encoding="iso-8859-1"?>
<!-- Generator: Adobe Illustrator 19.1.1, SVG Export Plug-In . SVG Version: 6.00 Build 0)  -->
<svg version="1.1"  xmlns="http://www.w3.org/2000/svg" xmlns:xlink="http://www.w3.org/1999/xlink" x="0px" y="0px"
	 viewBox="0 0 32 32" style="enable-background:new 0 0 32 32;" xml:space="preserve">
<rect x="3" y="7" style="fill:none;stroke:#000000;stroke-width:2;stroke-miterlimit:10;" width="26" height="18"/>
<line style="fill:none;stroke:#000000;stroke-width:2;stroke-miterlimit:10;" x1="16" y1="25" x2="16" y2="7"/>
<circle style="fill:none;stroke:#000000;stroke-width:2;stroke-miterlimit:10;" cx="16" cy="16" r="3"/>
<path d="M30,18c0,0-3.21-0.697-4-1c-0.516-0.198-1-0.448-1-1s0.515-0.836,1-1c0.523-0.177,4-1,4-1V18z"/>
<path d="M2,14c0,0,3.477,0.823,4,1c0.485,0.164,1,0.448,1,1s-0.484,0.802-1,1c-0.79,0.303-4,1-4,1V14z"/>
<path style="fill:none;stroke:#000000;stroke-width:2;stroke-miterlimit:10;" d="M29,23c-3.866,0-7-3.134-7-7s3.134-7,7-7"/>
<path style="fill:none;stroke:#000000;stroke-width:2;stroke-miterlimit:10;" d="M3,9c3.866,0,7,3.134,7,7s-3.134,7-7,7"/>
</svg>
