<?xml version="1.0" encoding="iso-8859-1"?>
<!-- Generator: Adobe Illustrator 19.1.1, SVG Export Plug-In . SVG Version: 6.00 Build 0)  -->
<svg version="1.1" id="Layer_1" xmlns="http://www.w3.org/2000/svg" xmlns:xlink="http://www.w3.org/1999/xlink" x="0px" y="0px"
	 viewBox="0 0 32 32" style="enable-background:new 0 0 32 32;" xml:space="preserve">
<path style="fill:none;stroke:#000000;stroke-width:2;stroke-miterlimit:10;" d="M23,28H9V7l4-2c0,0,1.642-1,3-1s3,1,3,1l4,2V28z"/>
<polygon points="13,5 12,5 12,12 16,9 "/>
<polygon points="19,5 16,9 20,12 20,5 "/>
<circle cx="14" cy="15" r="1"/>
<circle cx="14" cy="19" r="1"/>
<circle cx="14" cy="23" r="1"/>
<circle cx="18" cy="15" r="1"/>
<circle cx="18" cy="19" r="1"/>
<circle cx="18" cy="23" r="1"/>
<path style="fill:none;stroke:#000000;stroke-width:2;stroke-miterlimit:10;" d="M23,7c0,0,2.187,1.188,3,2.5
	c0.586,0.946,1,6.5,1,6.5v8h-4"/>
<path style="fill:none;stroke:#000000;stroke-width:2;stroke-miterlimit:10;" d="M9,7c0,0-2.188,1.188-3,2.5C5.414,10.446,5,16,5,16
	v8h4"/>
</svg>
