<?xml version="1.0" encoding="iso-8859-1"?>
<!-- Generator: Adobe Illustrator 19.1.0, SVG Export Plug-In . SVG Version: 6.00 Build 0)  -->
<svg version="1.1" id="Layer_1" xmlns="http://www.w3.org/2000/svg" xmlns:xlink="http://www.w3.org/1999/xlink" x="0px" y="0px"
	 viewBox="0 0 32 32" style="enable-background:new 0 0 32 32;" xml:space="preserve">
<circle cx="20.5" cy="16.5" r="0.5"/>
<circle cx="17.5" cy="14.5" r="0.5"/>
<circle cx="18.5" cy="18.5" r="0.5"/>
<circle cx="13.5" cy="19.5" r="0.5"/>
<circle cx="16.5" cy="21.5" r="0.5"/>
<circle cx="19.5" cy="20.5" r="0.5"/>
<circle cx="11.5" cy="13.5" r="0.5"/>
<circle cx="18.5" cy="23.5" r="0.5"/>
<circle cx="12.5" cy="15.5" r="0.5"/>
<circle cx="15.5" cy="17.5" r="0.5"/>
<circle cx="11.5" cy="21.5" r="0.5"/>
<circle cx="10.5" cy="18.5" r="0.5"/>
<circle cx="14.5" cy="12.5" r="0.5"/>
<circle cx="18.5" cy="11.5" r="0.5"/>
<circle cx="14.5" cy="23.5" r="0.5"/>
<path style="fill:none;stroke:#000000;stroke-width:2;stroke-linejoin:round;stroke-miterlimit:10;" d="M27.634,11.092
	C25.759,12.966,25,15.003,25,16.266c0,3.341-0.096,6.804-2.16,8.751"/>
<path style="fill:none;stroke:#000000;stroke-width:2;stroke-miterlimit:10;" d="M17.756,2.744C14.718,8.485,25,6.166,25,16.266"/>
<path style="fill:none;stroke:#000000;stroke-width:2;stroke-miterlimit:10;" d="M7,17.57C7,7.444,14.841,7.548,18.017,2.353"/>
<path style="fill:none;stroke:#000000;stroke-width:2;stroke-linejoin:round;stroke-miterlimit:10;" d="M7.317,21.685
	C6.937,20.3,7,17.821,7,17.23c0-4.549-1.034-5.683-2.141-6.79"/>
<path style="fill:none;stroke:#000000;stroke-width:2;stroke-linejoin:round;stroke-miterlimit:10;" d="M27.626,22.519
	c-3.06,0.331-3.948,1.593-4.786,2.499C21.116,26.881,18.741,28,16.144,28c-4.478,0-7.302-2.59-8.827-6.315
	C6.897,20.782,5.399,19,3,19"/>
<path d="M8,16.266c0-2.336,2.155-7.822,8.185-7.822c5.161,0,7.822,3.46,7.822,6.556c2.733-2.593-7.171-10.467-7.171-10.467
	S5.105,9.267,8,16.266z"/>
</svg>
