<?xml version="1.0" encoding="iso-8859-1"?>
<!-- Generator: Adobe Illustrator 19.1.0, SVG Export Plug-In . SVG Version: 6.00 Build 0)  -->
<svg version="1.1" id="Layer_1" xmlns="http://www.w3.org/2000/svg" xmlns:xlink="http://www.w3.org/1999/xlink" x="0px" y="0px"
	 viewBox="0 0 32 32" style="enable-background:new 0 0 32 32;" xml:space="preserve">
<circle cx="22" cy="16" r="1"/>
<path style="fill:none;stroke:#000000;stroke-width:2;stroke-miterlimit:10;" d="M10.923,20.816C10.923,23.069,8.186,26,11,26
	c12.118,0,17-7.028,17-7.67c0-0.786-1.039-0.957-2-2.222S27.449,6,10.101,6c-2.831,0,0.692,3.243,0.692,6.375"/>
<path style="fill:none;stroke:#000000;stroke-width:2;stroke-miterlimit:10;" d="M18,10c-7.157,0-7.878,2.864-8.9,4H9
	c-2.004,0-2.004-2-4-2c0,0-1,1.688-1,4s1,4,1,4c1.952,0,2.041-2,4-2h0.1c0.523,1.443,1.371,3.992,7.908,3.992"/>
</svg>
