<?xml version="1.0" encoding="iso-8859-1"?>
<!-- Generator: Adobe Illustrator 19.1.1, SVG Export Plug-In . SVG Version: 6.00 Build 0)  -->
<svg version="1.1"  xmlns="http://www.w3.org/2000/svg" xmlns:xlink="http://www.w3.org/1999/xlink" x="0px" y="0px"
	 viewBox="0 0 32 32" style="enable-background:new 0 0 32 32;" xml:space="preserve">
<g>
	<g>
		<path d="M15.639,6.297l0.211,0.48c0.217,0.493,0.623,0.878,1.128,1.067c0.227,0.085,0.465,0.128,0.703,0.128
			c0.29,0,0.58-0.063,0.848-0.189l2.998-1.404l1.806,1.587l0.329,0.308l-0.229,0.983c-0.069,0.298-0.069,0.608,0,0.906l1.057,4.546
			c-0.086,0.049-0.168,0.105-0.247,0.167l-2.294,1.812l-1.288,0.497l-1.341,0.246c-0.616,0.113-1.144,0.508-1.425,1.068
			c-0.282,0.559-0.285,1.219-0.009,1.781l1.377,2.805c0.104,0.212,0.245,0.404,0.416,0.567l1.61,1.534l-0.903,0.762
			c-0.324,0.274-0.55,0.641-0.651,1.046l-0.726,0.059c-0.203,0.016-0.402,0.064-0.591,0.14l-1.202,0.488l-0.387,0.005l-0.715-0.224
			c-0.196-0.061-0.397-0.091-0.597-0.091c-0.28,0-0.558,0.059-0.814,0.173L12.5,27.061c-0.057-0.012-0.114-0.022-0.171-0.03
			l-2.215-0.286l0.075-0.231l1.031-2.08c0.242-0.487,0.274-1.052,0.09-1.564c-0.184-0.512-0.569-0.927-1.065-1.149l-2.17-0.971
			c-0.139-0.062-0.285-0.109-0.435-0.138l-0.169-0.033L7.269,20.27L7.117,19.29l0.005-0.006c0.401-0.468,0.563-1.096,0.44-1.7
			l-0.359-1.761l0.264-0.703c0.068-0.182,0.11-0.372,0.123-0.566l0.025-0.365c0.048-0.034,0.096-0.07,0.141-0.108l1.73-1.444
			c0.708-0.591,0.917-1.585,0.518-2.407l0.922-1.125c0.141,0.055,0.289,0.095,0.442,0.117c0.313,0.192,0.675,0.295,1.046,0.295
			c0.153,0,0.307-0.018,0.46-0.054c0.772-0.182,1.364-0.804,1.508-1.585l0.037-0.201c0.399-0.154,0.742-0.433,0.974-0.803
			C15.506,6.695,15.589,6.499,15.639,6.297 M13.117,2l0.638,1.444l-0.713,0.484l0.657,1.885l-0.992,0.114l-0.292,1.591l-0.515-0.684
			l-0.243,0.41l-0.504-0.962l-1.568-0.05l-0.343,0.66l0.392,0.64l-2.026,2.473l0.599,1.099l-1.73,1.444l-0.74-0.167l-0.14,2.037
			L5.128,15.66l0.474,2.325L5,18.689l0.358,2.314l0.901,1.378l0.998,0.194l2.17,0.971l-1.096,2.211L7.69,27.734l0.46,1.027
			l1.701-0.033l2.222,0.287l2.261,0.494L14.79,30l0.728-0.63l1.02,0.319l1.083-0.014l1.551-0.629l1.372-0.111l1.508,0.345
			l-0.378-1.55l0.005-0.254l2.266-1.914l0.082-0.533l-2.967-2.826l-1.377-2.805l1.525-0.28l1.745-0.673l2.532-2l0.51,0.215
			l0.64,0.732L27,16.671L25.382,9.71l0.399-1.714l-0.046-0.523l-1.057-0.989l-2.343-2.059l-0.451-0.31l-0.595,0.168l-3.607,1.689
			l-0.873-1.984L16.09,4.081l-0.553-0.46l0.167-1.06l-0.927-0.354l-0.666,0.045L13.117,2L13.117,2z"/>
	</g>
</g>
</svg>
