<?xml version="1.0" encoding="iso-8859-1"?>
<!-- Generator: Adobe Illustrator 21.0.0, SVG Export Plug-In . SVG Version: 6.00 Build 0)  -->
<svg version="1.1" id="Layer_1" xmlns="http://www.w3.org/2000/svg" xmlns:xlink="http://www.w3.org/1999/xlink" x="0px" y="0px"
	 viewBox="0 0 32 32" style="enable-background:new 0 0 32 32;" xml:space="preserve">
<g id="Layer_1_1_">
</g>
<path d="M16.951,14.409l0.486-1.518c0.035-0.108-0.023-0.223-0.132-0.253c-0.432-0.118-1.53-0.379-2.805-0.388
	c-1.647-0.011-4.466,0.486-4.499,3.111c-0.021,1.656,1.113,2.233,1.714,2.444c1.099,0.387,4.272,0.161,4.286,1.444
	c0.018,1.658-4.266,0.78-5.17,0.576c-0.098-0.022-0.192,0.033-0.227,0.128l-0.538,1.49c-0.037,0.102,0.008,0.213,0.11,0.253
	c0.427,0.166,1.598,0.559,3.075,0.553c2.749-0.011,4.746-0.864,4.75-3.333c0.004-2.293-2.039-2.559-2.857-2.667
	c-0.799-0.105-3.129-0.096-3.143-0.99c-0.013-0.854,1.531-1.484,4.711-0.721C16.812,14.563,16.919,14.508,16.951,14.409z"/>
<path d="M32,9.45c0-0.11-0.09-0.2-0.2-0.2h-1.6c-0.11,0-0.2,0.09-0.2,0.2v8.618c0,0.11,0.09,0.2,0.2,0.2h1.6
	c0.11,0,0.2-0.09,0.2-0.2V9.45z"/>
<path d="M32,20.428c0-0.11-0.09-0.2-0.2-0.2h-1.6c-0.11,0-0.2,0.09-0.2,0.2v1.622c0,0.11,0.09,0.2,0.2,0.2h1.6
	c0.11,0,0.2-0.09,0.2-0.2V20.428z"/>
<path d="M21,17.75c0,0-0.017,2.266,1,2.5c1.166,0.268,3,0,3,0v-7.8c0-0.11,0.09-0.2,0.2-0.2h1.6c0.11,0,0.2,0.09,0.2,0.2v9.175
	c0,0-0.967,0.63-2.662,0.625c-1.868-0.006-5.292,0.125-5.324-3.75c-0.027-3.235-0.009-5.424-0.002-6.059
	c0.001-0.11,0.09-0.191,0.2-0.191H20.8c0.11,0,0.2,0.09,0.2,0.2V17.75z"/>
<path d="M4.62,12.25c-4.87-0.008-4.617,5.111-4.617,5.111c-0.037,2.024,0.879,4.868,4.498,4.889
	c3.622,0.021,4.501-2.886,4.497-4.889C8.998,17.361,9.243,12.257,4.62,12.25z M4.5,20.25c-0.699-0.007-2.496-0.545-2.5-3
	c-0.004-2.672,1.738-2.998,2.5-3c0.745-0.002,2.498,0.339,2.5,3C7.002,19.706,5.186,20.257,4.5,20.25z"/>
</svg>
