<?xml version="1.0" encoding="utf-8"?>
<!-- Generator: Adobe Illustrator 18.1.1, SVG Export Plug-In . SVG Version: 6.00 Build 0)  -->
<svg version="1.1" id="Layer_1" xmlns="http://www.w3.org/2000/svg" xmlns:xlink="http://www.w3.org/1999/xlink" x="0px" y="0px"
	 viewBox="0 0 32 32" enable-background="new 0 0 32 32" xml:space="preserve">
<path d="M14.3,6.2C14.9,6.1,15.4,6,16,6c3.5,0,6.5,1.8,8.3,4.4l1.4-1.5C23.5,5.9,20,4,16,4c-1.2,0-2.4,0.2-3.5,0.5L14.3,6.2z"/>
<path d="M25.9,14.6C26,15.1,26,15.5,26,16c0,3.6-1.9,6.7-4.7,8.5l1.5,1.4C26,23.7,28,20.1,28,16c0-1.1-0.2-2.2-0.5-3.2L25.9,14.6z"
	/>
<path d="M6.1,17.5C6,17,6,16.5,6,16c0-3.4,1.7-6.3,4.2-8.2L8.7,6.5C5.9,8.7,4,12.1,4,16c0,1.1,0.2,2.2,0.4,3.2L6.1,17.5z"/>
<path d="M17,26L17,26c-0.3,0-0.7,0-1,0c-3.5,0-6.5-1.8-8.3-4.4L6.3,23c2.2,3,5.7,5,9.7,5c1,0,2-0.1,2.9-0.4L17,26z"/>
<polyline fill="none" stroke="#000000" stroke-width="2" stroke-miterlimit="10" points="5,7 10,7 10,12 "/>
<polyline fill="none" stroke="#000000" stroke-width="2" stroke-miterlimit="10" points="27,25 22,25 22,20 "/>
<polyline fill="none" stroke="#000000" stroke-width="2" stroke-miterlimit="10" points="25,5 25,10 20,10 "/>
<polyline fill="none" stroke="#000000" stroke-width="2" stroke-miterlimit="10" points="7,27 7,22 12,22 "/>
</svg>
