<?xml version="1.0" encoding="iso-8859-1"?>
<!-- Generator: Adobe Illustrator 19.1.1, SVG Export Plug-In . SVG Version: 6.00 Build 0)  -->
<svg version="1.1" id="Layer_1" xmlns="http://www.w3.org/2000/svg" xmlns:xlink="http://www.w3.org/1999/xlink" x="0px" y="0px"
	 viewBox="-7 9 32 32" style="enable-background:new -7 9 32 32;" xml:space="preserve">
<g>
	<rect x="11" y="31" width="6" height="2"/>
	<polygon points="15,28 15,30 17,30 17,28 16,27 	"/>
	<polygon points="11,28 11,30 13,30 13,28 12,27 	"/>
	<path d="M13,23c0-0.552-0.447-1-1-1H6c-0.552,0-1,0.448-1,1s0.448,1,1,1h6C12.553,24,13,23.552,13,23z"/>
	<path d="M16.5,14h-15L-2,18.667V36h22V18.667L16.5,14z M2.5,16h13l1.5,2H1L2.5,16z M0,34V20h18v14H0z"/>
</g>
</svg>
