<?xml version="1.0" encoding="iso-8859-1"?>
<!-- Generator: Adobe Illustrator 19.2.0, SVG Export Plug-In . SVG Version: 6.00 Build 0)  -->
<svg version="1.1" id="Layer_1" xmlns="http://www.w3.org/2000/svg" xmlns:xlink="http://www.w3.org/1999/xlink" x="0px" y="0px"
	 viewBox="0 0 32 32" style="enable-background:new 0 0 32 32;" xml:space="preserve">
<path style="fill:none;stroke:#000000;stroke-width:2;stroke-miterlimit:10;" d="M22,16.162c0,2.764-1,3.246-1,5.243
	c0,1.161,2.179,2.868,2.179,2.868S25,24.576,25,27h-4"/>
<path style="fill:none;stroke:#000000;stroke-width:2;stroke-miterlimit:10;" d="M19.026,10.107C18.377,10.462,18,11.432,18,12.369
	C18,14.599,14.064,15,12.371,15C8.091,15,6,17.755,6,19.937s2,2.611,2,4.049C8,25.022,7,25.941,7,27c2.388,0,12,0,12,0s0.468-3-7-3"
	/>
<path style="fill:none;stroke:#000000;stroke-width:2;stroke-miterlimit:10;" d="M19.454,15.414c0,0,1.484,0.586,2.576,0.586
	c3.049,0,4.97-2,4.97-2c0-1.998-2.174-5-5.26-5c-0.246,0-1.434,0-1.434,0s-2.573-3.927-6.718-3.927C12.729,5.073,12,5.69,12,6.55
	c0,0.015,0,0.03,0,0.045c0,0.773,0.599,1.394,1.368,1.473c3.589,0.372,5.14,2.399,5.14,2.932"/>
<circle cx="23" cy="12" r="1"/>
<circle cx="5.5" cy="21.5" r="1.5"/>
<path style="fill:none;stroke:#000000;stroke-width:2;stroke-miterlimit:10;" d="M12,24c1.472,0,5-0.348,5-2.5
	c0-1.772-2.838-2.5-4-2.5"/>
</svg>
