<?xml version="1.0" encoding="iso-8859-1"?>
<!-- Generator: Adobe Illustrator 19.1.1, SVG Export Plug-In . SVG Version: 6.00 Build 0)  -->
<svg version="1.1" id="Layer_1" xmlns="http://www.w3.org/2000/svg" xmlns:xlink="http://www.w3.org/1999/xlink" x="0px" y="0px"
	 viewBox="0 0 32 32" style="enable-background:new 0 0 32 32;" xml:space="preserve">
<path d="M11.769,9.927c0.017-0.017,0.035-0.032,0.053-0.045c0.008-0.005,0.016-0.01,0.024-0.014c0.013-0.008,0.026-0.014,0.04-0.02
	c0.008-0.004,0.017-0.007,0.025-0.01c0.02-0.006,0.039-0.011,0.06-0.013c0.002,0,0.004-0.001,0.007-0.001
	C12,9.822,12.022,9.823,12.044,9.826c0.005,0.001,0.01,0.002,0.016,0.003c0.018,0.004,0.036,0.008,0.054,0.015
	c0.005,0.002,0.01,0.004,0.015,0.006c0.021,0.01,0.042,0.021,0.062,0.035c0.002,0.001,0.003,0.002,0.005,0.003
	c0.024,0.016,0.048,0.035,0.071,0.058c0.457,0.446,0.616,0.487,1.638,0.42c0.374-0.025,0.692-0.026,0.954-0.004
	c0.485,0.04,0.774,0.158,0.848,0.352c0.026,0.067,0.034,0.123,0.017,0.171c-0.051,0.142-0.325,0.208-1.009,0.283
	c-0.984,0.109-1.465,0.243-1.644,0.459c-0.069,0.083-0.14,0.129-0.224,0.135c-0.17,0.011-0.39-0.147-0.745-0.508
	c-0.247-0.254-0.388-0.435-0.456-0.593c-0.034-0.079-0.05-0.154-0.05-0.227c0-0.042,0.003-0.082,0.007-0.121
	c0.001-0.006,0.002-0.011,0.002-0.017c0.005-0.033,0.011-0.064,0.019-0.095c0.001-0.005,0.002-0.01,0.004-0.015
	c0.009-0.033,0.02-0.065,0.033-0.094c0.002-0.005,0.004-0.009,0.007-0.013c0.011-0.023,0.022-0.044,0.035-0.064
	c0.005-0.008,0.01-0.016,0.016-0.024c0.009-0.017,0.021-0.031,0.034-0.045C11.758,9.94,11.763,9.933,11.769,9.927z M18.609,24.081
	c-0.219,0.241-0.516,0.259-0.879,0.052c-0.339-0.194-0.872-0.194-1.033-0.001c-0.183,0.221-0.051,0.466,0.252,0.466
	c0.142,0,0.412,0.093,0.598,0.207c0.186,0.114,0.447,0.207,0.579,0.207c0.325,0.001,0.845-0.535,0.845-0.871
	C18.97,23.821,18.861,23.803,18.609,24.081z M18.461,8.289c-0.117-0.01-0.25-0.013-0.39-0.008c-0.001,0-0.003,0-0.004,0
	c-0.044,0.001-0.088,0.004-0.133,0.006c-0.006,0-0.013,0.001-0.019,0.001c-0.041,0.003-0.082,0.006-0.123,0.009
	c-0.006,0.001-0.013,0.001-0.019,0.002c-0.042,0.004-0.085,0.008-0.127,0.013c-0.005,0-0.009,0.001-0.014,0.002
	c-0.287,0.033-0.563,0.085-0.753,0.146c-0.001,0-0.002,0.001-0.003,0.001c-0.03,0.01-0.057,0.019-0.083,0.029
	c-0.002,0.001-0.004,0.002-0.007,0.003c-0.024,0.01-0.045,0.019-0.064,0.029c-0.002,0.001-0.004,0.002-0.006,0.003
	c-0.019,0.01-0.036,0.02-0.049,0.031c-0.001,0.001-0.002,0.001-0.002,0.001C16.65,8.568,16.64,8.579,16.633,8.59
	c-0.011,0.018-0.014,0.032-0.008,0.042c0.001,0.002,0.003,0.003,0.004,0.004c0.022,0.026,0.107,0.024,0.256-0.009
	c0.35-0.077,1.141,0.014,1.371,0.158c0.216,0.135-0.007,0.436-0.407,0.551c-0.07,0.02-0.127,0.04-0.174,0.06
	c-0.098,0.042-0.144,0.082-0.136,0.118c0.012,0.052,0.137,0.093,0.372,0.112c0.578,0.048,1.136-0.061,1.485-0.245
	c0.002-0.001,0.004-0.002,0.005-0.003c0.008-0.004,0.014-0.008,0.021-0.013c0.218-0.122,0.348-0.274,0.336-0.436
	c-0.002-0.028-0.009-0.056-0.019-0.084C19.635,8.577,19.109,8.348,18.461,8.289z M29,17.98c0,2.203-0.366,3.832-1.291,5.738
	c-0.671,1.384-0.578,1.313-1.555,1.19c-0.885-0.111-2.044-0.017-2.788,0.227c-0.332,0.109-0.423,0.194-0.465,0.439
	c-0.045,0.26-0.142,0.338-0.671,0.543c-0.446,0.173-0.807,0.424-1.292,0.899c-0.371,0.363-0.767,0.705-0.881,0.761
	c-0.267,0.13-0.775,0.251-0.775,0.185c0-0.049,0.813-1.257,1.752-2.603c0.335-0.481,0.453-0.756,0.486-1.137
	c0.024-0.277,0.143-0.84,0.265-1.252s0.197-0.773,0.168-0.802c-0.029-0.03-0.253,0.017-0.496,0.102
	c-0.533,0.188-0.885,0.196-1.489,0.034c-0.385-0.103-0.528-0.094-0.92,0.056c-0.436,0.167-0.491,0.167-0.898,0.004
	c-0.407-0.163-0.496-0.163-1.468,0.009c-1.817,0.319-2.404,0.14-3.616-1.102c-0.751-0.769-1.032-0.938-1.175-0.705
	c-0.035,0.057-0.173,0.104-0.305,0.104c-0.177,0-0.331-0.139-0.575-0.519c-0.183-0.285-0.463-0.611-0.622-0.724
	c-0.872-0.621-1.858-0.171-1.858,0.849c0,0.42,0.84,1.686,1.264,1.905c0.56,0.29,0.244,0.724-0.459,0.629
	c-0.364-0.049-0.525-0.158-1.014-0.686c-0.523-0.565-0.621-0.627-0.988-0.625C7.11,21.5,6.736,21.588,6.503,21.694
	c-0.6,0.273-1.384,0.423-2.204,0.423H3.592l-0.161-0.595C3.064,20.17,3,19.642,3,17.98c0-1.271,0.049-1.93,0.191-2.585
	c0.769-3.539,2.726-6.4,5.695-8.327c1.456-0.945,2.794-1.5,4.501-1.867c1.22-0.262,3.952-0.27,5.138-0.014
	c4.04,0.871,7.386,3.419,9.128,6.951C28.629,14.117,29,15.726,29,17.98z M26.502,18.105c0.321-1.026,0.02-1.955-0.867-2.629
	c-0.487-0.369-1.73-0.908-2.095-0.908c-0.1,0-0.275,0.188-0.409,0.44c-0.203,0.382-0.774,0.905-0.988,0.905
	c-0.039,0,0.068-0.262,0.239-0.583c0.075-0.14,0.139-0.289,0.191-0.431c0.075-0.207,0.122-0.4,0.122-0.532
	c0-0.655-0.462-2.132-1.024-3.454c-0.298-0.701-0.623-1.358-0.924-1.826c-0.148-0.23-0.268-0.403-0.383-0.542
	c-0.198-0.24-0.382-0.379-0.667-0.533c-0.193-0.105-0.396-0.185-0.609-0.244c-0.004-0.001-0.008-0.002-0.011-0.003
	c-0.049-0.013-0.098-0.026-0.149-0.037c-0.008-0.002-0.016-0.003-0.024-0.005c-0.048-0.01-0.096-0.019-0.145-0.027
	c-0.01-0.002-0.02-0.003-0.03-0.005c-0.049-0.007-0.097-0.014-0.147-0.02c-0.008-0.001-0.017-0.001-0.025-0.002
	c-0.11-0.011-0.223-0.018-0.339-0.019c-0.012,0-0.025,0.001-0.037,0.001c-0.081,0-0.164,0.003-0.248,0.008
	c-0.026,0.001-0.051,0.003-0.078,0.004c-0.09,0.007-0.182,0.016-0.275,0.028c-0.032,0.004-0.065,0.009-0.098,0.013
	c-0.091,0.013-0.184,0.029-0.279,0.047c-0.038,0.007-0.077,0.016-0.116,0.024c-0.074,0.016-0.15,0.033-0.226,0.052
	c-0.029,0.007-0.056,0.012-0.085,0.019c-0.728,0.186-1.067,0.218-1.757,0.168c-2.817-0.204-2.703-0.205-3.168,0.032
	c-0.252,0.128-0.43,0.267-0.58,0.5c-0.204,0.315-0.356,0.802-0.567,1.677c-0.398,1.644-0.407,2.152-0.047,2.581
	c0.367,0.437,1.55,0.979,2.73,1.25c1.412,0.325,2.374,0.611,2.641,0.787c0.066,0.043,0.14,0.122,0.206,0.213
	c0.062,0.086,0.116,0.182,0.149,0.27c0.296,0.792,0.456,1.113,0.637,1.276c0.045,0.041,0.086,0.089,0.119,0.135
	c0.044,0.063,0.073,0.125,0.073,0.164c0,0.75-5.339-0.913-6.715-2.091c-0.368-0.315-0.573-0.577-0.66-0.88
	c-0.053-0.188-0.06-0.391-0.032-0.631l0.017-0.145l0.043-0.365H9.864v-0.001l-1.367,0.045c-1.155,0.038-1.443,0.081-1.858,0.282
	c-1.427,0.688-1.358,1.841,0.197,3.319c1.118,1.062,2.814,2.11,4.689,2.965c1.935,0.884,4.061,1.562,5.94,1.837
	c0.813,0.119,1.856,0.163,2.814,0.132c0.541-0.017,1.056-0.058,1.485-0.123c2.303-0.35,3.896-1.29,4.562-2.691
	C26.398,18.4,26.456,18.252,26.502,18.105z"/>
</svg>
