<?xml version="1.0" encoding="iso-8859-1"?>
<!-- Generator: Adobe Illustrator 19.2.0, SVG Export Plug-In . SVG Version: 6.00 Build 0)  -->
<svg version="1.1" id="Layer_1" xmlns="http://www.w3.org/2000/svg" xmlns:xlink="http://www.w3.org/1999/xlink" x="0px" y="0px"
	 viewBox="0 0 32 32" style="enable-background:new 0 0 32 32;" xml:space="preserve">
<line style="fill:none;stroke:#000000;stroke-width:2;stroke-miterlimit:10;" x1="16" y1="12" x2="16" y2="10"/>
<line style="fill:none;stroke:#000000;stroke-width:2;stroke-miterlimit:10;" x1="16" y1="22" x2="16" y2="20"/>
<path style="fill:none;stroke:#000000;stroke-width:2;stroke-miterlimit:10;" d="M14,18c0,1.105,0.895,2,2,2h0c1.105,0,2-0.922,2-2
	c0-1.967-4-1.996-4-4c0-1.087,0.895-2,2-2h0c1.105,0,2,0.895,2,2"/>
<path style="fill:none;stroke:#000000;stroke-width:2;stroke-miterlimit:10;" d="M6.339,10.737C8.205,7.319,11.832,5,16,5
	c6.075,0,11,4.925,11,11s-4.925,11-11,11"/>
<polygon points="5.667,5.667 5,12 11,11 "/>
<circle cx="5" cy="16" r="1"/>
<ellipse transform="matrix(0.7071 -0.7071 0.7071 0.7071 -14.4056 12.7782)" cx="8.222" cy="23.778" rx="1" ry="1"/>
<ellipse transform="matrix(0.9239 -0.3827 0.3827 0.9239 -7.2895 3.7722)" cx="5.837" cy="20.21" rx="1" ry="1"/>
<ellipse transform="matrix(0.3827 -0.9239 0.9239 0.3827 -16.8927 27.0436)" cx="11.79" cy="26.163" rx="1" ry="1"/>
<rect x="15" y="26" width="2" height="2"/>
</svg>
