<?xml version="1.0" encoding="iso-8859-1"?>
<!-- Generator: Adobe Illustrator 22.1.0, SVG Export Plug-In . SVG Version: 6.00 Build 0)  -->
<svg version="1.1" id="Layer_1" xmlns="http://www.w3.org/2000/svg" xmlns:xlink="http://www.w3.org/1999/xlink" x="0px" y="0px"
	 viewBox="0 0 32 32" style="enable-background:new 0 0 32 32;" xml:space="preserve">
<rect x="5" y="13" width="3" height="2"/>
<rect x="5" y="18" width="3" height="2"/>
<rect x="5" y="8" width="3" height="2"/>
<rect x="6" y="16" width="2" height="3"/>
<rect x="6" y="11" width="2" height="3"/>
<circle style="fill:none;stroke:#000000;stroke-width:2;stroke-miterlimit:10;" cx="16" cy="13" r="3"/>
<g>
	<path d="M8,5h16v11.438c0.633-0.225,1.303-0.366,2-0.412V3H6v6h2V5z"/>
	<path d="M19.151,25H8v-3H6v5h13.872C19.543,26.379,19.296,25.708,19.151,25z"/>
</g>
<path style="fill:none;stroke:#000000;stroke-width:2;stroke-miterlimit:10;" d="M12,20c0-2.2,1.8-4,4-4s4,1.8,4,4"/>
<path d="M26.5,18c-3,0-5.5,2.5-5.5,5.5c0,1.2,0.4,2.2,1,3.1l-3.7,3.7l1.4,1.4l3.7-3.7c0.9,0.6,2,1,3.1,1c3,0,5.5-2.5,5.5-5.5
	S29.5,18,26.5,18z M26.5,27c-1.9,0-3.5-1.6-3.5-3.5s1.6-3.5,3.5-3.5s3.5,1.6,3.5,3.5S28.4,27,26.5,27z"/>
</svg>
