<?xml version="1.0" encoding="utf-8"?>
<!-- Generator: Adobe Illustrator 18.1.1, SVG Export Plug-In . SVG Version: 6.00 Build 0)  -->
<svg version="1.1" id="Layer_1" xmlns="http://www.w3.org/2000/svg" xmlns:xlink="http://www.w3.org/1999/xlink" x="0px" y="0px"
	 viewBox="0 0 32 32" enable-background="new 0 0 32 32" xml:space="preserve">
<path fill="none" stroke="#000000" stroke-width="2" stroke-miterlimit="10" d="M8,21v-7.5C8,12.7,7.3,12,6.5,12h0
	C5.7,12,5,12.7,5,13.5V27h3v-2h16v2h3v-6H8z"/>
<path fill="none" stroke="#000000" stroke-width="2" stroke-miterlimit="10" d="M13,21h14v-2c0-1.1-0.9-2-2-2H13V21z"/>
<line fill="none" stroke="#000000" stroke-width="2" stroke-miterlimit="10" x1="8" y1="17" x2="13" y2="17"/>
<path fill="none" stroke="#000000" stroke-width="2" stroke-miterlimit="10" d="M20,13h-5c0-1.3,0-1.7,2.6-3.3
	C18.5,9.2,19,8.4,19,7.5V7c0-1.1-0.9-2-2-2h0c-1.1,0-2,0.9-2,2v1"/>
</svg>
