<?xml version="1.0" encoding="utf-8"?>
<!-- Generator: Adobe Illustrator 18.1.1, SVG Export Plug-In . SVG Version: 6.00 Build 0)  -->
<svg version="1.1" id="Layer_1" xmlns="http://www.w3.org/2000/svg" xmlns:xlink="http://www.w3.org/1999/xlink" x="0px" y="0px"
	 viewBox="0 0 32 32" enable-background="new 0 0 32 32" xml:space="preserve">
<path fill="none" stroke="#000000" stroke-width="2" stroke-linejoin="round" stroke-miterlimit="10" d="M18.2,27
	c0.4-1.8,0.8-7.4,0.8-10.6c0-4.1-0.5-9.6-0.5-9.6C18.1,5.1,17.4,5,16,5s-2.3,0.4-2.6,1.8c0,0-0.4,3.6-0.4,9.4c0,2.9,0.5,6.8,0.5,8.7
	"/>
<line fill="none" stroke="#000000" stroke-width="2" stroke-linejoin="round" stroke-miterlimit="10" x1="7" y1="27" x2="25" y2="27"/>
<path fill="none" stroke="#000000" stroke-width="2" stroke-linejoin="round" stroke-miterlimit="10" d="M19,16h3c1.7,0,3-1.3,3-3
	V9.5C25,8.7,24.3,8,23.5,8h0C22.7,8,22,8.7,22,9.5V13h-3"/>
<path fill="none" stroke="#000000" stroke-width="2" stroke-linejoin="round" stroke-miterlimit="10" d="M13,19h-3c-1.7,0-3-1.3-3-3
	v-3.5C7,11.7,7.7,11,8.5,11h0c0.8,0,1.5,0.7,1.5,1.5V16h3"/>
</svg>
