<?xml version="1.0" encoding="iso-8859-1"?>
<!-- Generator: Adobe Illustrator 19.0.1, SVG Export Plug-In . SVG Version: 6.00 Build 0)  -->
<svg version="1.1" id="Layer_1" xmlns="http://www.w3.org/2000/svg" xmlns:xlink="http://www.w3.org/1999/xlink" x="0px" y="0px"
	 viewBox="0 0 32 32" style="enable-background:new 0 0 32 32;" xml:space="preserve">
<g id="XMLID_430_">
	<circle id="XMLID_425_" cx="9" cy="22" r="1"/>
</g>
<g id="XMLID_301_">
	<circle id="XMLID_302_" cx="23" cy="20" r="1"/>
</g>
<path id="XMLID_300_" style="fill:none;stroke:#000000;stroke-width:2;stroke-miterlimit:10;" d="M14,14.586V11c0-3.314-2.686-6-6-6
	h0v9.882c0,0.685-0.387,1.312-1,1.618l0,0c-0.613,0.306-1,0.933-1,1.618V24c0,0.552,0.448,1,1,1h7c0.552,0,1-0.448,1-1v-7l0,0
	C14.36,16.36,14,15.491,14,14.586z"/>
<path id="XMLID_304_" style="fill:none;stroke:#000000;stroke-width:2;stroke-miterlimit:10;" d="M8,25c0,0,1.187,3,4,3
	c4.971,0,5.001-6,8-6c0.354,0,0.825,0.11,1.165,0.373c0.638,0.494,1.481,0.737,2.379,0.579c1.207-0.212,2.197-1.202,2.408-2.408
	C26.285,18.647,24.835,17,23,17c-0.728,0-8,0-8,0"/>
</svg>
