<?xml version="1.0" encoding="iso-8859-1"?>
<!-- Generator: Adobe Illustrator 19.0.1, SVG Export Plug-In . SVG Version: 6.00 Build 0)  -->
<svg version="1.1" id="Layer_1" xmlns="http://www.w3.org/2000/svg" xmlns:xlink="http://www.w3.org/1999/xlink" x="0px" y="0px"
	 viewBox="0 0 32 32" style="enable-background:new 0 0 32 32;" xml:space="preserve">
<circle id="XMLID_462_" style="fill:none;stroke:#000000;stroke-width:2;stroke-miterlimit:10;" cx="13.5" cy="7.5" r="2.5"/>
<g id="XMLID_459_">
	<path id="XMLID_461_" d="M27.592,25.087C26.521,25.566,25.31,25.992,25,26h-5.703l-0.516,2H25c0.885,0,2.679-0.761,3.408-1.087
		L27.592,25.087z"/>
	<polygon id="XMLID_460_" points="4,28 17.266,28 17.734,26 4,26 	"/>
</g>
<path id="XMLID_458_" style="fill:none;stroke:#000000;stroke-width:2;stroke-miterlimit:10;" d="M12.626,26.576l0.777-4.493
	l-1.938-2.815c-0.352-0.511-0.446-1.155-0.257-1.746l1.279-3.983c0.178-0.554,0.79-0.84,1.329-0.62l7.47,3.044"/>
<line id="XMLID_456_" style="fill:none;stroke:#000000;stroke-width:2;stroke-miterlimit:10;" x1="22.654" y1="8.539" x2="19.529" y2="23.451"/>
<polygon id="XMLID_455_" points="21.711,8.347 16.533,11.404 18.591,12.315 22.556,9.981 "/>
<polygon id="XMLID_454_" points="11.328,22.625 9.782,20.42 8.298,26.679 10.293,26.679 "/>
<path id="XMLID_453_" d="M19.602,21.463c-0.708-0.163-1.439-0.039-2.056,0.349c-0.616,0.387-1.046,0.99-1.19,1.638L15.887,25h2.092
	l0.309-1.043c0.089-0.39,0.482-0.63,0.867-0.545c0.391,0.09,0.636,0.479,0.551,0.854l-0.79,3.218l1.941,0.477l0.794-3.233
	C21.985,23.263,21.066,21.799,19.602,21.463z"/>
</svg>
