<?xml version="1.0" encoding="iso-8859-1"?>
<!-- Generator: Adobe Illustrator 19.2.0, SVG Export Plug-In . SVG Version: 6.00 Build 0)  -->
<svg version="1.1"  xmlns="http://www.w3.org/2000/svg" xmlns:xlink="http://www.w3.org/1999/xlink" x="0px" y="0px"
	 viewBox="0 0 32 32" style="enable-background:new 0 0 32 32;" xml:space="preserve">
<path style="fill:none;stroke:#000000;stroke-width:2;stroke-miterlimit:10;" d="M3,23c0,0,14.375-0.063,25,2.75V22"/>
<polygon points="4,24 2,24 2,22 3,22 "/>
<polyline style="fill:none;stroke:#000000;stroke-width:2;stroke-miterlimit:10;" points="16,6 29,6 29,20 16,20 "/>
<circle cx="27.5" cy="18.5" r="1.5"/>
<circle cx="26.5" cy="24.5" r="1.5"/>
<circle cx="27.5" cy="7.5" r="1.5"/>
<circle cx="23" cy="13" r="1.5"/>
<path style="fill:none;stroke:#000000;stroke-width:2;stroke-miterlimit:10;" d="M16,16c1.7,0,3-1.3,3-3l0,0c0-1.7-1.3-3-3-3"/>
<polyline style="fill:none;stroke:#000000;stroke-width:2;stroke-miterlimit:10;" points="16,20 3,20 3,6 16,6 "/>
<circle cx="4.5" cy="18.5" r="1.5"/>
<circle cx="4.5" cy="7.5" r="1.5"/>
<circle cx="9" cy="13" r="1.5"/>
<path style="fill:none;stroke:#000000;stroke-width:2;stroke-miterlimit:10;" d="M16,10c-1.7,0-3,1.3-3,3l0,0c0,1.7,1.3,3,3,3"/>
</svg>
