<?xml version="1.0" encoding="iso-8859-1"?>
<!-- Generator: Adobe Illustrator 19.1.1, SVG Export Plug-In . SVG Version: 6.00 Build 0)  -->
<svg version="1.1" id="Layer_1" xmlns="http://www.w3.org/2000/svg" xmlns:xlink="http://www.w3.org/1999/xlink" x="0px" y="0px"
	 viewBox="0 0 32 32" style="enable-background:new 0 0 32 32;" xml:space="preserve">
<path style="fill:none;stroke:#000000;stroke-width:2;stroke-miterlimit:10;" d="M17.972,4c-3.88,0.576-7,3.96-7,8
	c0,4.445,3.555,8,8,8c2.577,0,4.55-1.082,6.024-2.965L24.972,17c-0.951,0.435-1.667,0.585-2.78,0.585
	c-4.149,0-7.512-3.363-7.512-7.512c0-2.499,1.434-4.676,3.312-6.042L17.972,4z"/>
<polygon style="fill:none;stroke:#000000;stroke-width:2;stroke-miterlimit:10;" points="24.013,7.125 24.94,9.003 27.013,9.305 
	25.513,10.766 25.867,12.831 24.013,11.856 22.159,12.831 22.513,10.766 21.013,9.305 23.086,9.003 "/>
<path style="fill:none;stroke:#000000;stroke-width:2;stroke-miterlimit:10;" d="M19.882,24.082
	c-4.063,0.016-4.557-0.223-6.589-1.985c-0.931-0.84-2.03-1.048-2.895-1.046C9.532,21.053,8.9,21.265,8.9,21.265l-4.743,1.82
	l1.314,3.685l4.411-1.688L17,29l11.882-4.918"/>
</svg>
