<?xml version="1.0" encoding="iso-8859-1"?>
<!-- Generator: Adobe Illustrator 19.1.1, SVG Export Plug-In . SVG Version: 6.00 Build 0)  -->
<svg version="1.1" id="Layer_1" xmlns="http://www.w3.org/2000/svg" xmlns:xlink="http://www.w3.org/1999/xlink" x="0px" y="0px"
	 viewBox="0 0 32 32" style="enable-background:new 0 0 32 32;" xml:space="preserve">
<polygon style="fill:none;stroke:#000000;stroke-width:2;stroke-miterlimit:10;" points="7,28 7,4 22.998,4 23,11.002 25,13 25,28 
	"/>
<polyline style="fill:none;stroke:#000000;stroke-width:2;stroke-miterlimit:10;" points="23,4 27,4 27,11 25,13 "/>
<path style="fill:none;stroke:#000000;stroke-width:2;stroke-miterlimit:10;" d="M20,18.444C20,20.654,18.209,22,16,22
	s-4-1.346-4-3.556C12,15.401,16,11,16,11S20,15.803,20,18.444z"/>
<path d="M18,19.81c0,1.105-0.895,2.19-2,2.19s-2-1.245-2-2.49c0-1.149,0.606-2.399,0.606-2.399s0.536,0.859,1.108,0.859
	c0.798,0,0.731-2.637,0.731-2.637S18,17.464,18,19.81z"/>
</svg>
