<?xml version="1.0" encoding="iso-8859-1"?>
<!-- Generator: Adobe Illustrator 19.2.0, SVG Export Plug-In . SVG Version: 6.00 Build 0)  -->
<svg version="1.1" id="Layer_1" xmlns="http://www.w3.org/2000/svg" xmlns:xlink="http://www.w3.org/1999/xlink" x="0px" y="0px"
	 viewBox="0 0 32 32" style="enable-background:new 0 0 32 32;" xml:space="preserve">
<g>
	<g>
		<path style="fill:none;stroke:#000000;stroke-width:2;stroke-miterlimit:10;" d="M27,12c0-2.761-2.239-5-5-5
			c-0.629,0-1.225,0.129-1.78,0.341C19.335,5.939,17.781,5,16,5s-3.335,0.939-4.22,2.341C11.225,7.129,10.629,7,10,7
			c-2.761,0-5,2.239-5,5c0,2.049,1.236,3.806,3,4.578V27h16V16.578C25.764,15.806,27,14.049,27,12z"/>
	</g>
</g>
<line style="fill:none;stroke:#000000;stroke-width:2;stroke-miterlimit:10;" x1="8" y1="22" x2="24" y2="22"/>
<line style="fill:none;stroke:#000000;stroke-width:2;stroke-miterlimit:10;" x1="19" y1="18" x2="19" y2="22"/>
<line style="fill:none;stroke:#000000;stroke-width:2;stroke-miterlimit:10;" x1="13" y1="18" x2="13" y2="22"/>
</svg>
