<?xml version="1.0" encoding="iso-8859-1"?>
<!-- Generator: Adobe Illustrator 19.1.0, SVG Export Plug-In . SVG Version: 6.00 Build 0)  -->
<svg version="1.1" id="Layer_1" xmlns="http://www.w3.org/2000/svg" xmlns:xlink="http://www.w3.org/1999/xlink" x="0px" y="0px"
	 viewBox="0 0 32 32" style="enable-background:new 0 0 32 32;" xml:space="preserve">
<g>
	<path d="M19.985,22.605c0.002,0.018,0.009,0.035,0.003,0.053L18.271,28h2.101l1.52-4.73c0.212-0.659,0.085-1.349-0.29-1.878
		L19.985,22.605z"/>
</g>
<circle style="fill:none;stroke:#000000;stroke-width:2;stroke-linecap:round;stroke-miterlimit:10;" cx="16" cy="7.5" r="2.5"/>
<path style="fill:none;stroke:#000000;stroke-width:2;stroke-miterlimit:10;" d="M15,22l-4-3l0.743-2.97
	c0.445-1.781,2.045-3.03,3.881-3.03h0.754c1.835,0,3.435,1.249,3.881,3.03L21,19l-4,3"/>
<polyline style="fill:none;stroke:#000000;stroke-width:2;stroke-miterlimit:10;" points="23,21 26,21 26,28 "/>
<g>
	<path d="M12.015,22.605c-0.002,0.018-0.009,0.035-0.003,0.053L13.729,28h-2.101l-1.52-4.73c-0.212-0.659-0.085-1.349,0.29-1.878
		L12.015,22.605z"/>
</g>
<polyline style="fill:none;stroke:#000000;stroke-width:2;stroke-miterlimit:10;" points="9,21 6,21 6,28 "/>
</svg>
