<?xml version="1.0" encoding="iso-8859-1"?>
<!-- Generator: Adobe Illustrator 19.1.1, SVG Export Plug-In . SVG Version: 6.00 Build 0)  -->
<svg version="1.1" id="Layer_1" xmlns="http://www.w3.org/2000/svg" xmlns:xlink="http://www.w3.org/1999/xlink" x="0px" y="0px"
	 viewBox="0 0 32 32" style="enable-background:new 0 0 32 32;" xml:space="preserve">
<circle style="fill:none;stroke:#000000;stroke-width:2;stroke-miterlimit:10;" cx="16" cy="16" r="12"/>
<path d="M10,18L20.776,7.235c0,0-0.271-0.153-0.776-0.398C19.141,6.412,17.423,6,16,6C10.477,6,6,10.477,6,16
	c0,5.523,4.477,10,10,10c1.423,0,2.774-0.302,4-0.838V20H10V18z"/>
<polygon points="12,18 20,18 20,10 "/>
<path d="M22,8.014V18h3.783C25.916,17.352,26,16.687,26,16C26,12.732,24.425,9.838,22,8.014z"/>
<path d="M22,23.986c1.366-1.028,2.448-2.404,3.145-3.986H22V23.986z"/>
</svg>
