<?xml version="1.0" encoding="iso-8859-1"?>
<!-- Generator: Adobe Illustrator 19.1.0, SVG Export Plug-In . SVG Version: 6.00 Build 0)  -->
<svg version="1.1" id="Layer_1" xmlns="http://www.w3.org/2000/svg" xmlns:xlink="http://www.w3.org/1999/xlink" x="0px" y="0px"
	 viewBox="0 0 32 32" style="enable-background:new 0 0 32 32;" xml:space="preserve">
<path style="fill:none;stroke:#000000;stroke-width:2;stroke-miterlimit:10;" d="M24,27H8c-0.552,0-1-0.448-1-1V12
	c0-1.657,1.343-3,3-3h12c1.657,0,3,1.343,3,3v14C25,26.552,24.552,27,24,27z"/>
<path id="XMLID_3483_" style="fill:none;stroke:#000000;stroke-width:2;stroke-miterlimit:10;" d="M21,5H11C9.895,5,9,5.895,9,7v2
	h14V7C23,5.895,22.105,5,21,5z"/>
<polygon id="XMLID_3500_" style="fill:none;stroke:#000000;stroke-width:2;stroke-miterlimit:10;" points="19.5,18 16.5,18 15,15.5 
	16.5,13 19.5,13 21,15.5 "/>
<polygon id="XMLID_1_" style="fill:none;stroke:#000000;stroke-width:2;stroke-miterlimit:10;" points="19.5,23 16.5,23 15,20.5 
	16.5,18 19.5,18 21,20.5 "/>
<polyline id="XMLID_3_" style="fill:none;stroke:#000000;stroke-width:2;stroke-miterlimit:10;" points="15.019,20.5 12.019,20.5 
	10.519,18 12.019,15.5 15.019,15.5 "/>
</svg>
