<?xml version="1.0" encoding="iso-8859-1"?>
<!-- Generator: Adobe Illustrator 19.0.1, SVG Export Plug-In . SVG Version: 6.00 Build 0)  -->
<svg version="1.1" id="Layer_1" xmlns="http://www.w3.org/2000/svg" xmlns:xlink="http://www.w3.org/1999/xlink" x="0px" y="0px"
	 viewBox="0 0 32 32" style="enable-background:new 0 0 32 32;" xml:space="preserve">
<line style="fill:none;stroke:#000000;stroke-width:2;stroke-miterlimit:10;" x1="16" y1="9" x2="16" y2="3"/>
<line style="fill:none;stroke:#000000;stroke-width:2;stroke-miterlimit:10;" x1="13" y1="6" x2="19" y2="6"/>
<polyline style="fill:none;stroke:#000000;stroke-width:2;stroke-miterlimit:10;" points="11,6 7,6 7,27 14,27 14,24 18,24 18,27 
	25,27 25,6 21,6 "/>
<rect x="19" y="19" width="2" height="2"/>
<rect x="15" y="19" width="2" height="2"/>
<rect x="11" y="19" width="2" height="2"/>
<rect x="19" y="15" width="2" height="2"/>
<rect x="15" y="15" width="2" height="2"/>
<rect x="11" y="15" width="2" height="2"/>
<rect x="19" y="11" width="2" height="2"/>
<rect x="15" y="11" width="2" height="2"/>
<rect x="11" y="11" width="2" height="2"/>
</svg>
