<?xml version="1.0" encoding="iso-8859-1"?>
<!-- Generator: Adobe Illustrator 21.0.2, SVG Export Plug-In . SVG Version: 6.00 Build 0)  -->
<svg version="1.1" id="Layer_1" xmlns="http://www.w3.org/2000/svg" xmlns:xlink="http://www.w3.org/1999/xlink" x="0px" y="0px"
	 viewBox="0 0 32 32" style="enable-background:new 0 0 32 32;" xml:space="preserve">
<g>
	<path style="fill:none;stroke:#000000;stroke-width:2;stroke-miterlimit:10;" d="M28,29h-8c-0.6,0-1-0.4-1-1V14c0-0.6,0.4-1,1-1h8
		c0.6,0,1,0.4,1,1v14C29,28.6,28.6,29,28,29z"/>
	<line style="fill:none;stroke:#000000;stroke-width:2;stroke-miterlimit:10;" x1="23" y1="26" x2="25" y2="26"/>
</g>
<rect x="3" y="3" style="fill:none;stroke:#000000;stroke-width:2;stroke-miterlimit:10;" width="12" height="8"/>
<line style="fill:none;stroke:#000000;stroke-width:2;stroke-miterlimit:10;" x1="9" y1="14" x2="9" y2="11"/>
<line style="fill:none;stroke:#000000;stroke-width:2;stroke-miterlimit:10;" x1="4" y1="15" x2="14" y2="15"/>
<circle cx="9" cy="22" r="1"/>
<circle cx="9" cy="19" r="1"/>
<circle cx="9" cy="25" r="1"/>
<circle cx="12" cy="25" r="1"/>
<circle cx="15" cy="25" r="1"/>
</svg>
