<?xml version="1.0" encoding="iso-8859-1"?>
<!-- Generator: Adobe Illustrator 22.0.1, SVG Export Plug-In . SVG Version: 6.00 Build 0)  -->
<svg version="1.1" id="&#x421;&#x43B;&#x43E;&#x439;_1"
	 xmlns="http://www.w3.org/2000/svg" xmlns:xlink="http://www.w3.org/1999/xlink" x="0px" y="0px" viewBox="0 0 32 32"
	 style="enable-background:new 0 0 32 32;" xml:space="preserve">
<g>
	<path d="M17,24c0,0.551-0.449,1-1,1c-0.551,0-1-0.449-1-1c0-0.551,0.449-1,1-1C16.551,23,17,23.449,17,24L17,24z"/>
	<polyline style="fill:none;stroke:#000000;stroke-width:2;stroke-miterlimit:10;" points="21,10.5 26,15.5 21,20.5 	"/>
	<polyline style="fill:none;stroke:#000000;stroke-width:2;stroke-miterlimit:10;" points="11,10.5 6,15.5 11,20.5 	"/>
	<polygon points="21.707,21.207 20.293,19.793 24.586,15.5 20.293,11.207 21.707,9.793 27.414,15.5 	"/>
	<g>
		<path d="M10,9V7c0-0.551,0.448-1,1-1h10c0.552,0,1,0.449,1,1v2h2V7c0-1.654-1.346-3-3-3H11C9.346,4,8,5.346,8,7v2H10z"/>
		<path d="M22,22v3c0,0.551-0.448,1-1,1H11c-0.552,0-1-0.449-1-1v-3H8v3c0,1.654,1.346,3,3,3h10c1.654,0,3-1.346,3-3v-3H22z"/>
	</g>
	<polygon points="10.293,21.207 4.586,15.5 10.293,9.793 11.707,11.207 7.414,15.5 11.707,19.793 	"/>
</g>
</svg>
