<?xml version="1.0" encoding="iso-8859-1"?>
<!-- Generator: Adobe Illustrator 19.1.0, SVG Export Plug-In . SVG Version: 6.00 Build 0)  -->
<svg version="1.1" id="Layer_1" xmlns="http://www.w3.org/2000/svg" xmlns:xlink="http://www.w3.org/1999/xlink" x="0px" y="0px"
	 viewBox="0 0 32 32" style="enable-background:new 0 0 32 32;" xml:space="preserve">
<line style="fill:none;stroke:#000000;stroke-width:2;stroke-miterlimit:10;" x1="4" y1="26" x2="28" y2="26"/>
<path style="fill:none;stroke:#000000;stroke-width:2;stroke-miterlimit:10;" d="M23,15c0,1.979-1.526,3-1.526,3L21,20l4,3h2"/>
<path style="fill:none;stroke:#000000;stroke-width:2;stroke-miterlimit:10;" d="M25,8h-2c-1.105,0-2,0.895-2,2v0
	c0,1.105,0.895,2,2,2h1"/>
<line style="fill:none;stroke:#000000;stroke-width:2;stroke-miterlimit:10;" x1="11" y1="23" x2="18" y2="23"/>
<path style="fill:none;stroke:#000000;stroke-width:2;stroke-miterlimit:10;" d="M22,8.273C22,8.273,20.773,7,19,7
	c-2.182,0-4,1.318-4,4c0,2.955,4,5,4,5"/>
<path style="fill:none;stroke:#000000;stroke-width:2;stroke-miterlimit:10;" d="M15.636,13.5c0,0-5.636,2.727-5.636,6.5
	c0,1.909,2,3,2,3"/>
<path style="fill:none;stroke:#000000;stroke-width:2;stroke-miterlimit:10;" d="M15.008,18C16.494,18,17,18.8,17,19.87
	c0,1.714-3,2.228-3,3.13"/>
<path style="fill:none;stroke:#000000;stroke-width:2;stroke-miterlimit:10;" d="M7,18c0,0-1,1.412-1,3c0,1.083,0.895,2,2,2h0
	c1.105,0,2-0.895,2-2v-1"/>
</svg>
