<?xml version="1.0" encoding="iso-8859-1"?>
<!-- Generator: Adobe Illustrator 19.1.0, SVG Export Plug-In . SVG Version: 6.00 Build 0)  -->
<svg version="1.1" id="Layer_1" xmlns="http://www.w3.org/2000/svg" xmlns:xlink="http://www.w3.org/1999/xlink" x="0px" y="0px"
	 viewBox="0 0 32 32" style="enable-background:new 0 0 32 32;" xml:space="preserve">
<path style="fill:none;stroke:#000000;stroke-width:2;stroke-miterlimit:10;" d="M27,9c0,2.761-5,10-5,10s-5-7.239-5-10s2.239-5,5-5
	S27,6.239,27,9z"/>
<circle cx="22" cy="9" r="1.5"/>
<line style="fill:none;stroke:#000000;stroke-width:2;stroke-miterlimit:10;" x1="12" y1="23" x2="12" y2="6"/>
<path d="M26,18.384v3.957l-5,2.143v-1.653l-1.469-2.126c-0.157-0.228-0.339-0.496-0.531-0.783v4.635l-7.024-2.634L6,24.483V9.659
	l6.024-2.582l2.068,0.775c0.098-0.676,0.272-1.327,0.528-1.938l-2.645-0.992L4,8.341v19.176l8.024-3.439l8,3L28,23.659v-8.734
	C27.363,16.147,26.656,17.342,26,18.384z"/>
</svg>
