<?xml version="1.0" encoding="iso-8859-1"?>
<!-- Generator: Adobe Illustrator 19.1.1, SVG Export Plug-In . SVG Version: 6.00 Build 0)  -->
<svg version="1.1" id="Layer_1" xmlns="http://www.w3.org/2000/svg" xmlns:xlink="http://www.w3.org/1999/xlink" x="0px" y="0px"
	 viewBox="0 0 32 32" style="enable-background:new 0 0 32 32;" xml:space="preserve">
<rect x="17" y="8" style="fill:none;stroke:#000000;stroke-width:2;stroke-linecap:round;stroke-miterlimit:10;" width="10" height="16"/>
<line style="fill:none;stroke:#000000;stroke-width:2;stroke-miterlimit:10;" x1="25" y1="11" x2="17" y2="11"/>
<line style="fill:none;stroke:#000000;stroke-width:2;stroke-miterlimit:10;" x1="25" y1="14" x2="17" y2="14"/>
<line style="fill:none;stroke:#000000;stroke-width:2;stroke-miterlimit:10;" x1="25" y1="17" x2="17" y2="17"/>
<line style="fill:none;stroke:#000000;stroke-width:2;stroke-miterlimit:10;" x1="25" y1="20" x2="17" y2="20"/>
<g>
	<path style="fill:none;stroke:#000000;stroke-width:2;stroke-miterlimit:10;" d="M16,5L5,7.444v17.111L16,27h1V5l0,0L16,5z"/>
</g>
<path d="M13.433,11.139c-0.116,0.793-0.737,5.049-0.747,5.386l-0.646-5.2l-2.134,0.286l-0.83,5.411L8.496,11.8L7,12l1,8l1.944,0.324
	l1.098-6.416c0.008,0.358,0.739,5.322,0.951,6.758l1.466,0.244L15,11L13.433,11.139z"/>
</svg>
