<?xml version="1.0" encoding="iso-8859-1"?>
<!-- Generator: Adobe Illustrator 19.1.0, SVG Export Plug-In . SVG Version: 6.00 Build 0)  -->
<svg version="1.1" id="Layer_1" xmlns="http://www.w3.org/2000/svg" xmlns:xlink="http://www.w3.org/1999/xlink" x="0px" y="0px"
	 viewBox="0 0 32 32" style="enable-background:new 0 0 32 32;" xml:space="preserve">
<line style="fill:none;stroke:#000000;stroke-width:2;stroke-miterlimit:10;" x1="3" y1="3" x2="29" y2="29"/>
<g>
	<path d="M12.654,14H26v11l-2.346,0l2,2H26c1.103,0,2-0.897,2-2V14c0-1.103-0.897-2-2-2h-4.092C21.964,11.67,22,11.337,22,11
		c0-3.309-2.691-6-6-6s-6,2.691-6,6c0,0.128,0.026,0.254,0.035,0.381L12.654,14z M16,7c2.206,0,4,1.794,4,4
		c0,0.339-0.059,0.672-0.145,1h-7.709C12.059,11.672,12,11.339,12,11C12,8.794,13.794,7,16,7z"/>
	<path d="M19.516,20.862C19.814,20.303,20,19.677,20,19c0-2.206-1.794-4-4-4c-0.676,0-1.304,0.185-1.864,0.482l1.55,1.55
		C15.789,17.015,15.893,17,16,17c1.103,0,2,0.897,2,2c0,0.107-0.015,0.211-0.032,0.314L19.516,20.862z"/>
	<path d="M16.695,20.868C16.477,20.949,16.245,21,16,21c-1.103,0-2-0.897-2-2c0-0.245,0.051-0.477,0.132-0.695l-1.48-1.48
		C12.243,17.452,12,18.197,12,19c0,1.119,0.464,2.128,1.207,2.855c-1.066,0.721-1.84,1.842-2.106,3.146l-5.101,0V14h3.826l-2-2H6
		c-1.103,0-2,0.897-2,2v11c0,1.103,0.897,2,2,2h16.826L16.695,20.868z M16,23c1.302,0,2.402,0.839,2.816,2l-5.632,0
		C13.598,23.839,14.698,23,16,23z"/>
</g>
</svg>
