<?xml version="1.0" encoding="utf-8"?>
<!-- Generator: Adobe Illustrator 18.1.1, SVG Export Plug-In . SVG Version: 6.00 Build 0)  -->
<svg version="1.1" id="Layer_1" xmlns="http://www.w3.org/2000/svg" xmlns:xlink="http://www.w3.org/1999/xlink" x="0px" y="0px"
	 viewBox="0 0 32 32" enable-background="new 0 0 32 32" xml:space="preserve">
<line fill="none" stroke="#000000" stroke-width="2" stroke-miterlimit="10" x1="28" y1="19" x2="4" y2="19"/>
<circle fill="none" stroke="#000000" stroke-width="2" stroke-miterlimit="10" cx="16" cy="8" r="4"/>
<path fill="none" stroke="#000000" stroke-width="2" stroke-miterlimit="10" d="M11,17c0-2.8,2.2-5,5-5s5,2.2,5,5"/>
<polygon points="24,19 22,24 24,24 26,19 "/>
<polygon points="6,19 8,24 10,24 8,19 "/>
<line fill="none" stroke="#000000" stroke-width="2" stroke-miterlimit="10" x1="25" y1="17" x2="25" y2="14"/>
<circle cx="25" cy="13" r="2"/>
<polyline fill="none" stroke="#000000" stroke-width="2" stroke-miterlimit="10" points="21,28 21,23 24,23 "/>
<polyline fill="none" stroke="#000000" stroke-width="2" stroke-miterlimit="10" points="11,28 11,23 8,23 "/>
<line fill="none" stroke="#000000" stroke-width="2" stroke-miterlimit="10" x1="11" y1="23" x2="21" y2="23"/>
</svg>
