<?xml version="1.0" encoding="iso-8859-1"?>
<!-- Generator: Adobe Illustrator 19.1.1, SVG Export Plug-In . SVG Version: 6.00 Build 0)  -->
<svg version="1.1" id="Layer_1" xmlns="http://www.w3.org/2000/svg" xmlns:xlink="http://www.w3.org/1999/xlink" x="0px" y="0px"
	 viewBox="0 0 32 32" style="enable-background:new 0 0 32 32;" xml:space="preserve">
<g>
	<g>
		<path style="fill:none;stroke:#000000;stroke-width:2;stroke-miterlimit:10;" d="M27,12.87c0-2.68-1.846-4.924-4.34-5.555
			C22.161,5.408,20.427,4,18.357,4C17.49,4,16.684,4.25,16,4.677C15.316,4.25,14.51,4,13.643,4c-2.07,0-3.804,1.408-4.303,3.314
			C6.846,7.945,5,10.19,5,12.87c0,0.916,0.221,1.778,0.603,2.546C5.223,16.044,5,16.778,5,17.565c0,1.611,0.918,3.006,2.26,3.702
			c-0.105,0.313-0.164,0.646-0.164,0.993c0,1.729,1.407,3.13,3.143,3.13c0.192,0,0.38-0.02,0.563-0.053
			C11.029,26.844,12.33,28,13.905,28c0.806,0,1.539-0.305,2.095-0.802C16.556,27.695,17.289,28,18.095,28
			c1.575,0,2.876-1.156,3.104-2.661c0.183,0.033,0.371,0.053,0.563,0.053c1.736,0,3.143-1.401,3.143-3.13
			c0-0.347-0.059-0.681-0.164-0.993c1.342-0.696,2.26-2.091,2.26-3.702c0-0.787-0.223-1.521-0.603-2.15
			C26.779,14.647,27,13.785,27,12.87z"/>
	</g>
</g>
<rect x="15" y="9" width="2" height="10"/>
<rect x="15" y="21" width="2" height="2"/>
</svg>
