<?xml version="1.0" encoding="iso-8859-1"?>
<!-- Generator: Adobe Illustrator 19.1.0, SVG Export Plug-In . SVG Version: 6.00 Build 0)  -->
<svg version="1.1" id="Layer_1" xmlns="http://www.w3.org/2000/svg" xmlns:xlink="http://www.w3.org/1999/xlink" x="0px" y="0px"
	 viewBox="0 0 32 32" style="enable-background:new 0 0 32 32;" xml:space="preserve">
<path id="XMLID_38_" style="fill:none;stroke:#000000;stroke-width:2;stroke-miterlimit:10;" d="M7,25c0,0.984,1.328,2,3,2s3-1,3-2"
	/>
<path id="XMLID_37_" style="fill:none;stroke:#000000;stroke-width:2;stroke-miterlimit:10;" d="M13,25c0,0.984,1.328,2,3,2s3-1,3-2
	"/>
<path id="XMLID_36_" style="fill:none;stroke:#000000;stroke-width:2;stroke-miterlimit:10;" d="M19,25c0,0.984,1.328,2,3,2s3-1,3-2
	"/>
<path id="XMLID_35_" style="fill:none;stroke:#000000;stroke-width:2;stroke-miterlimit:10;" d="M25,25c0,0.984,1.328,2,3,2s3-1,3-2
	"/>
<path id="XMLID_34_" style="fill:none;stroke:#000000;stroke-width:2;stroke-miterlimit:10;" d="M1,25c0,0.984,1.328,2,3,2s3-1,3-2"
	/>
<path style="fill:none;stroke:#000000;stroke-width:2;stroke-miterlimit:10;" d="M22,27c2.23,0,5-3.555,5-6L6,20.991
	c0,6.188,4,6,4,6"/>
<path style="fill:none;stroke:#000000;stroke-width:2;stroke-miterlimit:10;" d="M20,10v0.172c0.389,0.745,1.739,5.747,0,7.692V18
	l6-1C26,12.33,20,10,20,10z"/>
<path style="fill:none;stroke:#000000;stroke-width:2;stroke-miterlimit:10;" d="M10,8v0.172c0.389,0.745,1.739,7.747,0,9.692V18
	l8-1C18,7.414,10,8,10,8z"/>
<line style="fill:none;stroke:#000000;stroke-width:2;stroke-miterlimit:10;" x1="9" y1="5" x2="13" y2="5"/>
</svg>
