<?xml version="1.0" encoding="iso-8859-1"?>
<!-- Generator: Adobe Illustrator 19.1.0, SVG Export Plug-In . SVG Version: 6.00 Build 0)  -->
<svg version="1.1" id="Layer_1" xmlns="http://www.w3.org/2000/svg" xmlns:xlink="http://www.w3.org/1999/xlink" x="0px" y="0px"
	 viewBox="0 0 32 32" style="enable-background:new 0 0 32 32;" xml:space="preserve">
<path style="fill:none;stroke:#000000;stroke-width:2;stroke-miterlimit:10;" d="M27,25H5c-0.552,0-1-0.448-1-1V8
	c0-0.552,0.448-1,1-1h22c0.552,0,1,0.448,1,1v16C28,24.552,27.552,25,27,25z"/>
<path style="fill:none;stroke:#000000;stroke-width:2;stroke-miterlimit:10;" d="M13,7V5c0-0.552,0.448-1,1-1h4c0.552,0,1,0.448,1,1
	v2"/>
<line style="fill:none;stroke:#000000;stroke-width:2;stroke-miterlimit:10;" x1="24" y1="25" x2="24" y2="9"/>
<line style="fill:none;stroke:#000000;stroke-width:2;stroke-miterlimit:10;" x1="8" y1="25" x2="8" y2="9"/>
<rect x="23" y="5" width="2" height="2"/>
<rect x="7" y="5" width="2" height="2"/>
</svg>
