<?xml version="1.0" encoding="iso-8859-1"?>
<!-- Generator: Adobe Illustrator 19.2.0, SVG Export Plug-In . SVG Version: 6.00 Build 0)  -->
<svg version="1.1" id="Layer_1" xmlns="http://www.w3.org/2000/svg" xmlns:xlink="http://www.w3.org/1999/xlink" x="0px" y="0px"
	 viewBox="0 0 32 32" style="enable-background:new 0 0 32 32;" xml:space="preserve">
<circle cx="13.5" cy="22.5" r="0.5"/>
<circle cx="21" cy="17" r="1"/>
<circle cx="19" cy="11" r="1"/>
<circle cx="18.5" cy="18.5" r="0.5"/>
<circle cx="22.5" cy="10.5" r="0.5"/>
<path style="fill:none;stroke:#000000;stroke-width:2;stroke-miterlimit:10;" d="M26.834,5.672
	C25.372,4.18,18.907,5.195,15.68,8.489c-3.453,3.525-3.395,7.469-5.171,10.292c-2.399,3.812-4.387,3.527-5.086,4.241
	c-0.392,0.4-0.654,0.786-0.125,1.326c2.743,2.8,11.268,4.935,17.398-1.986c4.232-4.777,3.842-13.76,3.827-14.66
	C26.499,6.226,27.349,6.198,26.834,5.672z"/>
</svg>
