<?xml version="1.0" encoding="iso-8859-1"?>
<!-- Generator: Adobe Illustrator 19.1.0, SVG Export Plug-In . SVG Version: 6.00 Build 0)  -->
<svg version="1.1" id="Layer_1" xmlns="http://www.w3.org/2000/svg" xmlns:xlink="http://www.w3.org/1999/xlink" x="0px" y="0px"
	 viewBox="0 0 32 32" style="enable-background:new 0 0 32 32;" xml:space="preserve">
<polygon points="15,16 11,20 11,12 "/>
<line style="fill:none;stroke:#000000;stroke-width:2;stroke-miterlimit:10;" x1="3" y1="16" x2="12" y2="16"/>
<polyline style="fill:none;stroke:#000000;stroke-width:2;stroke-miterlimit:10;" points="22,4 26,4 26,11 24,13 "/>
<path d="M26,29h-2c0-1.105,0.895-2,2-2V29z"/>
<path style="fill:none;stroke:#000000;stroke-width:2;stroke-miterlimit:10;" d="M22,29c0-2.209,1.791-4,4-4"/>
<path style="fill:none;stroke:#000000;stroke-width:2;stroke-miterlimit:10;" d="M19,29c0-3.866,3.134-7,7-7"/>
<g>
	<path d="M16.461,26H7v-7H5v9h11.051C16.119,27.31,16.259,26.642,16.461,26z"/>
	<path d="M7,5h13.999L21,11.417l2,1.997v6.047c0.641-0.202,1.31-0.342,2-0.41v-6.465l-2-1.999L22.998,3H5v10h2V5z"/>
</g>
</svg>
