<?xml version="1.0" encoding="iso-8859-1"?>
<!-- Generator: Adobe Illustrator 19.2.1, SVG Export Plug-In . SVG Version: 6.00 Build 0)  -->
<svg version="1.1" id="Layer_1" xmlns="http://www.w3.org/2000/svg" xmlns:xlink="http://www.w3.org/1999/xlink" x="0px" y="0px"
	 viewBox="0 0 32 32" style="enable-background:new 0 0 32 32;" xml:space="preserve">
<line style="fill:none;stroke:#000000;stroke-width:2;stroke-miterlimit:10;" x1="5" y1="10" x2="27" y2="10"/>
<line style="fill:none;stroke:#000000;stroke-width:2;stroke-miterlimit:10;" x1="9" y1="15" x2="11" y2="15"/>
<line style="fill:none;stroke:#000000;stroke-width:2;stroke-miterlimit:10;" x1="9" y1="19" x2="11" y2="19"/>
<path style="fill:none;stroke:#000000;stroke-width:2;stroke-miterlimit:10;" d="M24,17c3.866,0,7,3.134,7,7s-3.134,7-7,7
	s-7-3.134-7-7c0-1.812,0.688-3.463,1.818-4.706"/>
<line style="fill:none;stroke:#000000;stroke-width:2;stroke-miterlimit:10;" x1="24" y1="24" x2="21" y2="21"/>
<g>
	<path d="M22,14.716V14h-9v2h5.897C19.834,15.4,20.879,14.957,22,14.716z"/>
	<path d="M21.982,20H22v-0.01C21.994,19.993,21.988,19.997,21.982,20z"/>
	<path d="M16.643,18H13v2h2.395C15.731,19.281,16.146,18.608,16.643,18z"/>
</g>
<circle cx="24" cy="24" r="1.5"/>
<path d="M14.554,25H6V7h20v7.716c0.699,0.151,1.367,0.384,2,0.679V5H4v22h10.993C14.779,26.36,14.627,25.692,14.554,25z"/>
</svg>
