<?xml version="1.0" encoding="iso-8859-1"?>
<!-- Generator: Adobe Illustrator 19.1.1, SVG Export Plug-In . SVG Version: 6.00 Build 0)  -->
<svg version="1.1" id="Layer_1" xmlns="http://www.w3.org/2000/svg" xmlns:xlink="http://www.w3.org/1999/xlink" x="0px" y="0px"
	 viewBox="0 0 32 32" style="enable-background:new 0 0 32 32;" xml:space="preserve">
<path style="fill:none;stroke:#000000;stroke-width:2;stroke-miterlimit:10;" d="M2,25c0-3.866,3.134-7,7-7s7,3.134,7,7"/>
<circle style="fill:none;stroke:#000000;stroke-width:2;stroke-miterlimit:10;" cx="24" cy="24" r="7"/>
<g>
	<path d="M20.069,18.208c-0.315-0.045-0.613-0.113-0.891-0.207C16.698,19.361,15,21.977,15,25h2c0-0.169,0.012-0.334,0.025-0.499
		C17.013,24.335,17,24.169,17,24C17,21.591,18.217,19.468,20.069,18.208z"/>
</g>
<line style="fill:none;stroke:#000000;stroke-width:2;stroke-miterlimit:10;" x1="24" y1="28" x2="24" y2="20"/>
<line style="fill:none;stroke:#000000;stroke-width:2;stroke-miterlimit:10;" x1="20" y1="24" x2="28" y2="24"/>
<path style="fill:none;stroke:#000000;stroke-width:2;stroke-miterlimit:10;" d="M16.729,13c0,0-4.403,5-7.729,5
	c-2.761,0-5-2.239-5-5s2.239-5,5-5C12.434,8,16.729,13,16.729,13z"/>
<path d="M31.493,12.354C31.029,11.806,26.853,7,23,7c-3.309,0-6,2.691-6,6c0,2.237,1.233,4.189,3.053,5.22
	C21.177,17.451,22.535,17,24,17c1.036,0,2.017,0.231,2.902,0.635c2.338-1.462,4.271-3.621,4.582-3.978l0.563-0.647L31.493,12.354z
	 M23,17c-2.206,0-4-1.794-4-4s1.794-4,4-4c2.134,0,4.935,2.476,6.376,3.992C27.903,14.512,25.061,17,23,17z"/>
</svg>
