<?xml version="1.0" encoding="utf-8"?>
<!-- Generator: Adobe Illustrator 18.1.1, SVG Export Plug-In . SVG Version: 6.00 Build 0)  -->
<svg version="1.1" id="Layer_1" xmlns="http://www.w3.org/2000/svg" xmlns:xlink="http://www.w3.org/1999/xlink" x="0px" y="0px"
	 viewBox="0 0 32 32" enable-background="new 0 0 32 32" xml:space="preserve">
<line fill="none" stroke="#000000" stroke-width="2" stroke-miterlimit="10" x1="18" y1="27" x2="18" y2="24"/>
<line fill="none" stroke="#000000" stroke-width="2" stroke-miterlimit="10" x1="22" y1="27" x2="22" y2="24"/>
<line fill="none" stroke="#000000" stroke-width="2" stroke-miterlimit="10" x1="26" y1="27" x2="26" y2="24"/>
<line fill="none" stroke="#000000" stroke-width="2" stroke-miterlimit="10" x1="6" y1="27" x2="6" y2="24"/>
<line fill="none" stroke="#000000" stroke-width="2" stroke-miterlimit="10" x1="10" y1="27" x2="10" y2="24"/>
<line fill="none" stroke="#000000" stroke-width="2" stroke-miterlimit="10" x1="14" y1="27" x2="14" y2="24"/>
<polyline fill="none" stroke="#000000" stroke-width="2" stroke-miterlimit="10" points="6,12 6,24 26,24 26,12 "/>
<polyline fill="none" stroke="#000000" stroke-width="2" stroke-miterlimit="10" points="9,12 9,21 23,21 23,12 "/>
<path fill="none" stroke="#000000" stroke-width="2" stroke-miterlimit="10" d="M6,6C4.9,6,4,7.3,4,9s0.9,3,2,3h20c1.1,0,2-1.3,2-3
	s-0.9-3-2-3H6z"/>
</svg>
