<?xml version="1.0" encoding="iso-8859-1"?>
<!-- Generator: Adobe Illustrator 19.1.1, SVG Export Plug-In . SVG Version: 6.00 Build 0)  -->
<svg version="1.1"  xmlns="http://www.w3.org/2000/svg" xmlns:xlink="http://www.w3.org/1999/xlink" x="0px" y="0px"
	 viewBox="0 0 32 32" style="enable-background:new 0 0 32 32;" xml:space="preserve">
<path d="M16,27c-3.316,0-8.765,0-9.817-5.13C4.902,21.502,4,20.354,4,19c0-1.37,0.924-2.529,2.181-2.886C7.069,11.436,11.159,8,16,8
	s8.931,3.436,9.819,8.114C27.076,16.471,28,17.63,28,19c0,1.373-0.927,2.533-2.187,2.888C24.753,27,19.313,27,16,27z M7.951,19.972
	l0.101,0.913C8.435,24.364,11.028,25,16,25s7.565-0.636,7.948-4.115l0.101-0.913l1,0.027C25.578,19.973,26,19.535,26,19
	c0-0.535-0.423-0.973-0.951-0.999l-1,0.027l-0.101-0.913C23.502,13.059,20.085,10,16,10s-7.502,3.059-7.948,7.115l-0.101,0.913
	l-1-0.027C6.422,18.027,6,18.465,6,19c0,0.535,0.423,0.973,0.951,0.999L7.951,19.972z"/>
<path d="M17,9h-2c0-0.804-0.799-2-3-2V5C15.248,5,17,7.061,17,9z"/>
<path d="M18,9h-2c0-1.206,0.799-3,3-3v2C18.048,8,18,8.833,18,9z"/>
<path d="M11.792,16.61l-1.584-1.22c1.746-2.269,4.639-2.386,4.761-2.39L15.031,15L15,14l0.036,1
	C15.016,15,12.953,15.103,11.792,16.61z"/>
<path d="M20.208,16.61C19.047,15.103,16.984,15,16.964,15L17.031,13c0.122,0.004,3.015,0.121,4.761,2.39L20.208,16.61z"/>
<path d="M21,23H11v-1c0-2.307,1.31-5,5-5s5,2.693,5,5V23z M13.116,21h5.768c-0.245-0.983-0.964-2-2.884-2S13.361,20.017,13.116,21z"
	/>
<path d="M7,12c-0.941-1.191-2.803-0.813-3.446-1.336s-0.741-1.467-0.218-2.11s1.424-0.683,2.11-0.218C6.743,9.214,7,12,7,12z"/>
<path d="M25,11c0.941-1.191,2.803-0.813,3.446-1.336s0.741-1.467,0.218-2.11s-1.424-0.683-2.11-0.218C25.257,8.214,25,11,25,11z"/>
</svg>
