<?xml version="1.0" encoding="iso-8859-1"?>
<!-- Generator: Adobe Illustrator 21.0.2, SVG Export Plug-In . SVG Version: 6.00 Build 0)  -->
<svg version="1.1"  xmlns="http://www.w3.org/2000/svg" xmlns:xlink="http://www.w3.org/1999/xlink" x="0px" y="0px"
	 viewBox="0 0 32 32" style="enable-background:new 0 0 32 32;" xml:space="preserve">
<line style="fill:none;stroke:#000000;stroke-width:2;stroke-miterlimit:10;" x1="1" y1="19" x2="20" y2="19"/>
<line style="fill:none;stroke:#000000;stroke-width:2;stroke-miterlimit:10;" x1="20" y1="9" x2="1" y2="9"/>
<line style="fill:none;stroke:#000000;stroke-width:2;stroke-miterlimit:10;" x1="24" y1="19" x2="31" y2="19"/>
<line style="fill:none;stroke:#000000;stroke-width:2;stroke-miterlimit:10;" x1="31" y1="9" x2="24" y2="9"/>
<rect x="3" y="6" width="4" height="16"/>
<rect x="25" y="6" width="4" height="16"/>
<rect x="14" y="6" width="4" height="16"/>
<rect x="25" y="23" width="4" height="4"/>
<rect x="24" y="24" width="6" height="2"/>
<rect x="14" y="23" width="4" height="4"/>
<rect x="13" y="24" width="6" height="2"/>
<rect x="3" y="23" width="4" height="4"/>
<rect x="2" y="24" width="6" height="2"/>
<rect x="21" y="19" width="2" height="2"/>
<rect x="21" y="16" width="2" height="2"/>
<rect x="21" y="13" width="2" height="2"/>
<rect x="21" y="10" width="2" height="2"/>
<rect x="21" y="7" width="2" height="2"/>
</svg>
