<?xml version="1.0" encoding="iso-8859-1"?>
<!-- Generator: Adobe Illustrator 19.1.0, SVG Export Plug-In . SVG Version: 6.00 Build 0)  -->
<svg version="1.1" id="Layer_1" xmlns="http://www.w3.org/2000/svg" xmlns:xlink="http://www.w3.org/1999/xlink" x="0px" y="0px"
	 viewBox="0 0 32 32" style="enable-background:new 0 0 32 32;" xml:space="preserve">
<polygon style="fill:none;stroke:#000000;stroke-width:2;stroke-linecap:round;stroke-miterlimit:10;" points="27,16 5,16 5,18 
	8,26 24,26 27,18 "/>
<circle cx="16" cy="19" r="1"/>
<path style="fill:none;stroke:#000000;stroke-width:2;stroke-miterlimit:10;" d="M24,16c0-1.2,0-1.8,0-2.1C24,12,22,9,21,9l0,0
	c0.6,0,1-0.4,1-1V7c0-0.6-0.4-1-1-1h-4c-0.6,0-1,0.4-1,1v1c0,0.6,0.4,1,1,1l0,0c-0.8,0-2.3,1.3-2.8,3.5"/>
<line style="fill:none;stroke:#000000;stroke-width:2;stroke-linecap:round;stroke-linejoin:round;stroke-miterlimit:10;" x1="17" y1="9" x2="21.2" y2="9"/>
<path style="fill:none;stroke:#000000;stroke-width:2;stroke-miterlimit:10;" d="M7.127,16.003C7.044,15.682,7,15.346,7,15
	c0-2.209,1.791-4,4-4s4,1.791,4,4c0,0.345-0.044,0.68-0.126,1"/>
</svg>
