<?xml version="1.0" encoding="utf-8"?>
<!-- Generator: Adobe Illustrator 19.2.0, SVG Export Plug-In . SVG Version: 6.00 Build 0)  -->
<svg version="1.1"  xmlns="http://www.w3.org/2000/svg" xmlns:xlink="http://www.w3.org/1999/xlink" x="0px" y="0px"
	 viewBox="0 0 32 32" style="enable-background:new 0 0 32 32;" xml:space="preserve">
<g>
	<path d="M26,5c0.6,0,1,0.4,1,1v20c0,0.6-0.4,1-1,1H6c-0.6,0-1-0.4-1-1V6c0-0.6,0.4-1,1-1H26 M26,3H6C4.3,3,3,4.3,3,6v20
		c0,1.7,1.3,3,3,3h20c1.7,0,3-1.3,3-3V6C29,4.3,27.7,3,26,3L26,3z"/>
</g>
<g>
	<path d="M16,11.5c1,0.6,2.6,1.2,4.9,1.4c-0.3,2.2-1.4,6-4.9,8.7c-3.5-2.7-4.5-6.5-4.9-8.7C13.4,12.6,15,12,16,11.5 M16,9
		c0,0-1.8,2-7,2c0,0-0.3,8.4,7,13c7.3-4.6,7-13,7-13C17.8,11,16,9,16,9L16,9z"/>
</g>
</svg>
