<?xml version="1.0" encoding="iso-8859-1"?>
<!-- Generator: Adobe Illustrator 19.1.0, SVG Export Plug-In . SVG Version: 6.00 Build 0)  -->
<svg version="1.1" id="Layer_1" xmlns="http://www.w3.org/2000/svg" xmlns:xlink="http://www.w3.org/1999/xlink" x="0px" y="0px"
	 viewBox="0 0 32 32" style="enable-background:new 0 0 32 32;" xml:space="preserve">
<path style="fill:none;stroke:#000000;stroke-width:2;" d="M4,26L4,26c1.657,0,3-1.343,3-3v-8c0-4.971,4.029-9,9-9h0
	c4.971,0,9,4.029,9,9v8c0,1.657,1.343,3,3,3h0"/>
<path style="fill:none;stroke:#000000;stroke-width:2;" d="M16,16c0-1.657-0.613-4-3-4s-3,2.343-3,4c0,2.318,1.364,3,1.364,3"/>
<path style="fill:none;stroke:#000000;stroke-width:2;" d="M16,16c0-1.657,0.613-4,3-4s3,2.343,3,4c0,2.318-1.364,3-1.364,3"/>
<ellipse cx="13" cy="16.5" rx="1" ry="1.5"/>
<ellipse cx="19" cy="16.5" rx="1" ry="1.5"/>
<path style="fill:none;stroke:#000000;stroke-width:2;" d="M13,21.286c0,0,1.19,0.714,3,0.714s3-0.714,3-0.714"/>
<ellipse style="fill:none;stroke:#000000;stroke-width:2;" cx="16" cy="21.5" rx="6" ry="3.5"/>
<ellipse transform="matrix(0.7071 -0.7071 0.7071 0.7071 -0.1525 16.6317)" cx="20" cy="8.5" rx="1" ry="1.5"/>
</svg>
