<?xml version="1.0" encoding="iso-8859-1"?>
<!-- Generator: Adobe Illustrator 19.0.1, SVG Export Plug-In . SVG Version: 6.00 Build 0)  -->
<svg version="1.1" id="Layer_1" xmlns="http://www.w3.org/2000/svg" xmlns:xlink="http://www.w3.org/1999/xlink" x="0px" y="0px"
	 viewBox="0 0 32 32" style="enable-background:new 0 0 32 32;" xml:space="preserve">
<circle id="XMLID_301_" style="fill:none;stroke:#000000;stroke-width:2;stroke-miterlimit:10;" cx="18.5" cy="6.5" r="2.5"/>
<g id="XMLID_152_">
	<g id="XMLID_153_">
		<path id="XMLID_300_" style="fill:none;stroke:#000000;stroke-width:2;stroke-miterlimit:10;" d="M23.5,17
			c-1.925,0-3.5,1.575-3.5,3.5s1.575,3.5,3.5,3.5s3.5-1.575,3.5-3.5S25.425,17,23.5,17L23.5,17z"/>
	</g>
</g>
<g id="XMLID_154_">
	<g id="XMLID_155_">
		<path id="XMLID_297_" style="fill:none;stroke:#000000;stroke-width:2;stroke-miterlimit:10;" d="M8.5,21
			C6.575,21,5,22.575,5,24.5S6.575,28,8.5,28s3.5-1.575,3.5-3.5S10.425,21,8.5,21L8.5,21z"/>
	</g>
</g>
<path id="XMLID_156_" style="fill:none;stroke:#000000;stroke-width:2;stroke-miterlimit:10;" d="M24.35,12.987l-5.103-0.584L14,10
	l-4.618,5.853c-0.456,0.578-0.152,1.434,0.566,1.595l5.512,1.237c0.41,0.092,0.719,0.431,0.773,0.848l0.714,5.559"/>
<path id="XMLID_287_" style="fill:none;stroke:#000000;stroke-width:2;stroke-miterlimit:10;" d="M15.041,10.477L12.719,9.41
	c-1.099-0.505-2.4-0.19-3.147,0.76l-2.096,2.666C7.1,13.315,7.235,14.016,7.762,14.32l1.908,1.104"/>
<line id="XMLID_157_" style="fill:none;stroke:#000000;stroke-width:2;stroke-miterlimit:10;" x1="11.834" y1="17.908" x2="16.905" y2="11.443"/>
</svg>
