<?xml version="1.0" encoding="iso-8859-1"?>
<!-- Generator: Adobe Illustrator 19.1.0, SVG Export Plug-In . SVG Version: 6.00 Build 0)  -->
<svg version="1.1" id="Layer_1" xmlns="http://www.w3.org/2000/svg" xmlns:xlink="http://www.w3.org/1999/xlink" x="0px" y="0px"
	 viewBox="0 0 32 32" style="enable-background:new 0 0 32 32;" xml:space="preserve">
<circle style="fill:none;stroke:#000000;stroke-width:2;stroke-miterlimit:10;" cx="16" cy="26" r="2"/>
<circle cx="16" cy="5" r="2"/>
<g>
	<path d="M10.182,11.553c0.266-1.078,0.821-2.065,1.641-2.86c1.175-1.141,2.725-1.742,4.363-1.69C19.392,7.099,22,9.921,22,13.294
		V22c0,0.352,0.072,0.686,0.184,1h-0.556l2,2H26v-2h-1c-0.552,0-1-0.448-1-1v-8.706c0-4.442-3.479-8.162-7.754-8.291
		c-2.177-0.058-4.251,0.734-5.816,2.255C9.623,8.04,9.007,8.961,8.595,9.967L10.182,11.553z"/>
	<path d="M18.8,23H9.816C9.928,22.686,10,22.352,10,22v-7.8l-1.962-1.962C8.014,12.49,8,12.744,8,13v9c0,0.552-0.448,1-1,1H6v2h14.8
		L18.8,23z"/>
</g>
<line style="fill:none;stroke:#000000;stroke-width:2;stroke-miterlimit:10;" x1="3" y1="3" x2="29" y2="29"/>
</svg>
