<?xml version="1.0" encoding="iso-8859-1"?>
<!-- Generator: Adobe Illustrator 19.1.1, SVG Export Plug-In . SVG Version: 6.00 Build 0)  -->
<svg version="1.1" id="Layer_1" xmlns="http://www.w3.org/2000/svg" xmlns:xlink="http://www.w3.org/1999/xlink" x="0px" y="0px"
	 viewBox="0 0 32 32" style="enable-background:new 0 0 32 32;" xml:space="preserve">
<path style="fill:none;stroke:#000000;stroke-width:2;stroke-miterlimit:10;" d="M25.841,13C27.251,14.461,29,17.25,29,21.286
	C29,23.571,24.058,27,16,27S3,23.571,3,21.286C3,17.188,4.59,14.461,6,13"/>
<path style="fill:none;stroke:#000000;stroke-width:2;stroke-miterlimit:10;" d="M6.079,16C7.109,14.933,8,13.818,8,12.202v-0.059
	C8,11.511,8.347,11,9,11c0,0,7,0,7,0h7c0.653,0,1,0.511,1,1.143v0.059c0,1.616,0.891,2.731,1.921,3.798"/>
<path style="fill:none;stroke:#000000;stroke-width:2;stroke-miterlimit:10;" d="M25.778,13.149C24.81,14.172,24,15.257,24,16.798
	v0.059C24,17.489,23.653,18,23,18h-7c0,0-7,0-7,0c-0.653,0-1-0.511-1-1.143v-0.059c0-1.606-0.88-2.716-1.901-3.778"/>
<circle cx="17.5" cy="5.5" r="1.5"/>
<path style="fill:none;stroke:#000000;stroke-width:2;stroke-miterlimit:10;" d="M6,16l-0.045-5.143C5.955,9.279,7.278,8,8.909,8H23
	c1.632,0,2.955,1.279,2.955,2.857L26,16"/>
<circle cx="14.5" cy="23.5" r="1.5"/>
<path style="fill:none;stroke:#000000;stroke-width:2;stroke-miterlimit:10;" d="M26,13l-0.045,5.143C25.955,19.721,24.632,21,23,21
	H8.909c-1.631,0-2.955-1.279-2.955-2.857L6,13"/>
</svg>
