<?xml version="1.0" encoding="iso-8859-1"?>
<!-- Generator: Adobe Illustrator 21.0.2, SVG Export Plug-In . SVG Version: 6.00 Build 0)  -->
<svg version="1.1" id="Layer_1" xmlns="http://www.w3.org/2000/svg" xmlns:xlink="http://www.w3.org/1999/xlink" x="0px" y="0px"
	 viewBox="0 0 32 32" style="enable-background:new 0 0 32 32;" xml:space="preserve">
<path d="M25,16v7H5V12c0-1.654,1.346-3,3-3h7.264c0.019-0.027,0.041-0.053,0.06-0.08C15.117,8.317,15,7.673,15,7H8
	c-2.757,0-5,2.243-5,5v13h24v-9h-1H25z"/>
<rect x="23" y="9" width="2" height="2"/>
<path style="fill:none;stroke:#000000;stroke-width:2;stroke-miterlimit:10;" d="M8,8c2.209,0,4,1.791,4,4v12"/>
<line style="fill:none;stroke:#000000;stroke-width:2;stroke-miterlimit:10;" x1="16" y1="29" x2="16" y2="24"/>
<line style="fill:none;stroke:#000000;stroke-width:2;stroke-miterlimit:10;" x1="10" y1="14" x2="6" y2="14"/>
<circle style="fill:none;stroke:#000000;stroke-width:2;stroke-miterlimit:10;" cx="21" cy="7" r="3"/>
<circle style="fill:none;stroke:#000000;stroke-width:2;stroke-miterlimit:10;" cx="27" cy="7" r="3"/>
<path style="fill:none;stroke:#000000;stroke-width:2;stroke-miterlimit:10;" d="M17,14c0-2.209,1.791-4,4-4s4,1.791,4,4"/>
<path style="fill:none;stroke:#000000;stroke-width:2;stroke-miterlimit:10;" d="M23.927,11.439C24.661,10.56,25.765,10,27,10
	c2.209,0,4,1.791,4,4"/>
</svg>
