<?xml version="1.0" encoding="iso-8859-1"?>
<!-- Generator: Adobe Illustrator 19.1.0, SVG Export Plug-In . SVG Version: 6.00 Build 0)  -->
<svg version="1.1" id="Layer_1" xmlns="http://www.w3.org/2000/svg" xmlns:xlink="http://www.w3.org/1999/xlink" x="0px" y="0px"
	 viewBox="0 0 32 32" style="enable-background:new 0 0 32 32;" xml:space="preserve">
<path style="fill:none;stroke:#000000;stroke-width:2;stroke-miterlimit:10;" d="M21,26H11c-2.761,0-5-2.239-5-5V9
	c0-2.209,1.791-4,4-4h12c2.209,0,4,1.791,4,4v12C26,23.761,23.761,26,21,26z"/>
<line style="fill:none;stroke:#000000;stroke-width:2;stroke-miterlimit:10;" x1="6" y1="9" x2="26" y2="9"/>
<line style="fill:none;stroke:#000000;stroke-width:2;stroke-miterlimit:10;" x1="6" y1="17" x2="26" y2="17"/>
<line style="fill:none;stroke:#000000;stroke-width:2;stroke-miterlimit:10;" x1="16" y1="17" x2="16" y2="9"/>
<circle cx="21.5" cy="21.5" r="1.5"/>
<circle cx="10.5" cy="21.5" r="1.5"/>
<polygon points="23,26 20.649,26 23.649,29 26,29 "/>
<polygon points="9,26 11.351,26 8.351,29 6,29 "/>
</svg>
