<?xml version="1.0" encoding="iso-8859-1"?>
<!-- Generator: Adobe Illustrator 19.1.1, SVG Export Plug-In . SVG Version: 6.00 Build 0)  -->
<svg version="1.1" id="Layer_1" xmlns="http://www.w3.org/2000/svg" xmlns:xlink="http://www.w3.org/1999/xlink" x="0px" y="0px"
	 viewBox="0 0 32 32" style="enable-background:new 0 0 32 32;" xml:space="preserve">
<path style="fill:none;stroke:#000000;stroke-width:2;stroke-miterlimit:10;" d="M18,19.422V5c0-1.1-0.9-2-2-2s-2,0.9-2,2v14.422
	c-1.764,0.772-3,2.529-3,4.578c0,2.761,2.239,5,5,5s5-2.239,5-5C21,21.951,19.764,20.194,18,19.422z"/>
<polyline style="fill:none;stroke:#000000;stroke-width:2;stroke-miterlimit:10;" points="3,17 8,17 24,8 29,8 "/>
<path d="M18,19.422v-8.007L14,14v5.422c-1.764,0.772-3,2.529-3,4.578c0,2.761,2.239,5,5,5s5-2.239,5-5
	C21,21.951,19.764,20.194,18,19.422z"/>
</svg>
