<?xml version="1.0" encoding="iso-8859-1"?>
<!-- Generator: Adobe Illustrator 19.1.1, SVG Export Plug-In . SVG Version: 6.00 Build 0)  -->
<svg version="1.1" id="Layer_1" xmlns="http://www.w3.org/2000/svg" xmlns:xlink="http://www.w3.org/1999/xlink" x="0px" y="0px"
	 viewBox="0 0 32 32" style="enable-background:new 0 0 32 32;" xml:space="preserve">
<line style="fill:none;stroke:#000000;stroke-width:2;stroke-miterlimit:10;" x1="6" y1="17" x2="26" y2="17"/>
<path d="M14,17v3c0,1.1,0.9,2,2,2s2-0.9,2-2v-3H14z M16,20c-0.55,0-1-0.45-1-1s0.45-1,1-1s1,0.45,1,1S16.55,20,16,20z"/>
<path style="fill:none;stroke:#000000;stroke-width:2;stroke-miterlimit:10;" d="M6,17v9h20v-9l-2-4l2-4c0,0-0.542-3-3-3s-7,0-7,0
	s-4.542,0-7,0S6,9,6,9l2,4L6,17z"/>
<line style="fill:none;stroke:#000000;stroke-width:2;stroke-miterlimit:10;" x1="6" y1="9" x2="26" y2="9"/>
<path d="M7.583,16.542C7.583,15.161,8.328,14,9.708,14c0.612,0,0.957,0.229,1.391,0.594C11.041,14.405,11,14.208,11,14
	c0-1.105,0.895-2,2-2c0.415,0,0.8,0.126,1.12,0.343C14.392,11.563,15.127,11,16,11c1.105,0,2,0.895,2,2
	c0,0.101-0.015,0.197-0.03,0.293C18.272,13.111,18.622,13,19,13c0.873,0,1.608,0.563,1.88,1.343C21.2,14.126,21.627,14,22.042,14
	c1.833,0,2,2.042,2,2.375l1.994-0.247l-1.845-3.495C23.605,12.238,22.887,12,22.042,12c-0.129,0-0.257,0.006-0.385,0.018
	c-0.601-0.537-1.358-0.889-2.177-0.989C18.792,9.818,17.49,9,16,9c-1,0-1.938,0.376-2.653,1.015C13.232,10.005,13.116,10,13,10
	c-1.479,0-2.773,0.807-3.465,2.003c-0.616,0.024-1.186,0.177-1.69,0.437l-2.259,3.929L7.583,16.542z"/>
<path d="M26,22.494c-1.777,0.387-3.179,1.767-3.588,3.537H26V22.494z"/>
<path d="M6,22.494c1.777,0.387,3.179,1.767,3.588,3.537H6V22.494z"/>
</svg>
