<?xml version="1.0" encoding="iso-8859-1"?>
<!-- Generator: Adobe Illustrator 19.1.1, SVG Export Plug-In . SVG Version: 6.00 Build 0)  -->
<svg version="1.1" id="Layer_1" xmlns="http://www.w3.org/2000/svg" xmlns:xlink="http://www.w3.org/1999/xlink" x="0px" y="0px"
	 viewBox="0 0 32 32" style="enable-background:new 0 0 32 32;" xml:space="preserve">
<polyline style="fill:none;stroke:#000000;stroke-width:2;stroke-miterlimit:10;" points="23,11 23,5 9,5 9,11 "/>
<line style="fill:none;stroke:#000000;stroke-width:2;stroke-linejoin:round;stroke-miterlimit:10;" x1="26" y1="15" x2="28" y2="15"/>
<line style="fill:none;stroke:#000000;stroke-width:2;stroke-linejoin:round;stroke-miterlimit:10;" x1="4" y1="15" x2="6" y2="15"/>
<path style="fill:none;stroke:#000000;stroke-width:2;stroke-miterlimit:10;" d="M15,13H6v12c0,1.104,0.896,2,2,2h16
	c1.104,0,2-0.896,2-2V13h-9 M20,13v3h-8v-3"/>
<circle cx="10" cy="20" r="1"/>
<circle cx="12" cy="23" r="1"/>
<circle cx="14" cy="20" r="1"/>
<circle cx="16" cy="23" r="1"/>
<circle cx="20" cy="23" r="1"/>
<circle cx="18" cy="20" r="1"/>
<circle cx="22" cy="20" r="1"/>
</svg>
