<?xml version="1.0" encoding="iso-8859-1"?>
<!-- Generator: Adobe Illustrator 19.2.0, SVG Export Plug-In . SVG Version: 6.00 Build 0)  -->
<svg version="1.1" id="Layer_1" xmlns="http://www.w3.org/2000/svg" xmlns:xlink="http://www.w3.org/1999/xlink" x="0px" y="0px"
	 viewBox="0 0 32 32" style="enable-background:new 0 0 32 32;" xml:space="preserve">
<path style="fill:none;stroke:#000000;stroke-width:2;stroke-miterlimit:10;" d="M4,26c0,0,1.291,1,3.018,1S10,26,10,26
	s1.291,1,3.018,1S16,26,16,26s1.291,1,3.018,1C20.745,27,22,26,22,26s1.291,1,3.018,1C26.745,27,28,26,28,26"/>
<path style="fill:none;stroke:#000000;stroke-width:2;stroke-miterlimit:10;" d="M22.288,26.417c0,0,2.587-1.292,3.712-4.417
	c-0.875-3.25-3.834-6-8-6v3.189c0,0-2.316,0.811-5,0.811l-2-1H7c0,0,0,3.403,0,3.688c0,2.194,3,3.625,3,3.625"/>
<path d="M22.288,26.417c0,0,3.712-1.87,3.712-4.92c0,0-2.75,1.503-6.271,1.503H7c0,2.956,3,3.312,3,3.312"/>
<polygon points="14,6 18,6 19,7 20,6 22,6 23,7 23,8 22,9 14,9 "/>
<path style="fill:none;stroke:#000000;stroke-width:2;stroke-miterlimit:10;" d="M13.5,5C12.119,5,11,6.119,11,7.5
	s1.119,2.5,2.5,2.5S16,8.881,16,7.5S14.881,5,13.5,5z"/>
<polyline style="fill:none;stroke:#000000;stroke-width:2;stroke-miterlimit:10;" points="17.909,16 15.767,15 14,15 "/>
</svg>
