<?xml version="1.0" encoding="iso-8859-1"?>
<!-- Generator: Adobe Illustrator 19.1.1, SVG Export Plug-In . SVG Version: 6.00 Build 0)  -->
<svg version="1.1" id="Layer_1" xmlns="http://www.w3.org/2000/svg" xmlns:xlink="http://www.w3.org/1999/xlink" x="0px" y="0px"
	 viewBox="0 0 32 32" style="enable-background:new 0 0 32 32;" xml:space="preserve">
<path style="fill:none;stroke:#000000;stroke-width:2;stroke-linecap:square;stroke-miterlimit:10;" d="M8,19c0,0,0,0.582,0,0.891
	C8,21.927,10,22,10,22c0.585,4.448,2.61,7,6,7s5.415-2.552,6-7c0,0,2-0.21,2-2c0-0.309,0-0.891,0-0.891"/>
<path style="fill:none;stroke:#000000;stroke-width:2;stroke-linecap:square;stroke-miterlimit:10;" d="M23,15
	c0,0-1.722-0.173-2.392-2.391c-1.262,0-4.086-0.087-5.608-1.609c0,0-0.716,1.776-2.141,2.403C11.433,14.03,9,14,9,14v4
	c0,0-1.968-0.036-1.968-1.964c0.032-1.609,0.478-2.102,0.478-2.102s-1.268-1.168-0.625-2.767C7.221,10.334,8.08,9.999,8.08,9.999
	s-0.315-1.96,0.695-2.866c1.189-1.067,2.79-0.742,2.79-0.742S12.583,5,15,5"/>
<path style="fill:none;stroke:#000000;stroke-width:2;stroke-miterlimit:10;" d="M19,24c0,0-1.287,1.043-2.913,1.043S13,24,13,24"/>
<path style="fill:none;stroke:#000000;stroke-width:2;stroke-miterlimit:10;" d="M17.282,16.761c0,0,0.947-0.761,1.863-0.761
	C20.592,16,21,16,21,16"/>
<path style="fill:none;stroke:#000000;stroke-width:2;stroke-miterlimit:10;" d="M11,16c0,0,0.553,0,2,0
	c0.916,0,1.863,0.761,1.863,0.761"/>
<circle cx="19.5" cy="18.5" r="0.75"/>
<circle cx="12.5" cy="18.5" r="0.75"/>
<path d="M14.748,22.994c0,0,0-0.03,0.471-2C15.245,20.998,15.622,21,16,21c0.378,0,0.756-0.002,0.782-0.006l0.471,2H14.748z"/>
<path d="M26.042,10.774c-0.459-0.941-1.566-1.708-1.917-1.983c-0.589,0.54-0.393,1.661-1.312,1.826l0.744,0.294
	c0.12,0.051,0.494,0.271,0.63,0.608c0.257,0.639,0.001,1.167-0.2,1.45L24,14c-0.208,0.001-1.583,0.03-2,0v0.953V19l1.019-0.019
	c1.186-0.021,2.949-0.829,2.949-2.965c-0.018-0.89-0.149-1.521-0.3-1.957C26.181,13.299,26.674,12.072,26.042,10.774z"/>
<path d="M20.5,7.5c0-0.928,0.635-1.701,1.493-1.927C21.993,5.548,22,5.525,22,5.5C22,3.567,20.433,2,18.5,2S15,3.567,15,5.5
	S16.567,9,18.5,9c0.814,0,1.553-0.289,2.147-0.755C20.554,8.015,20.5,7.764,20.5,7.5z M19.854,6.146
	c0.195,0.195,0.195,0.512,0,0.707C19.756,6.951,19.628,7,19.5,7s-0.256-0.049-0.354-0.146L18.5,6.207l-0.646,0.646
	C17.756,6.951,17.628,7,17.5,7s-0.256-0.049-0.354-0.146c-0.195-0.195-0.195-0.512,0-0.707L17.793,5.5l-0.646-0.646
	c-0.195-0.195-0.195-0.512,0-0.707s0.512-0.195,0.707,0L18.5,4.793l0.646-0.646c0.195-0.195,0.512-0.195,0.707,0
	s0.195,0.512,0,0.707L19.207,5.5L19.854,6.146z"/>
<path d="M22.5,4c-0.814,0-1.553,0.289-2.147,0.755C20.446,4.985,20.5,5.236,20.5,5.5c0,0.928-0.635,1.701-1.493,1.927
	C19.007,7.452,19,7.475,19,7.5c0,1.933,1.567,3.5,3.5,3.5S26,9.433,26,7.5S24.433,4,22.5,4z M23.854,8.146
	c0.195,0.195,0.195,0.512,0,0.707C23.756,8.951,23.628,9,23.5,9s-0.256-0.049-0.354-0.146L22.5,8.207l-0.646,0.646
	C21.756,8.951,21.628,9,21.5,9s-0.256-0.049-0.354-0.146c-0.195-0.195-0.195-0.512,0-0.707L21.793,7.5l-0.646-0.646
	c-0.195-0.195-0.195-0.512,0-0.707s0.512-0.195,0.707,0L22.5,6.793l0.646-0.646c0.195-0.195,0.512-0.195,0.707,0
	s0.195,0.512,0,0.707L23.207,7.5L23.854,8.146z"/>
</svg>
