<?xml version="1.0" encoding="iso-8859-1"?>
<!-- Generator: Adobe Illustrator 19.1.1, SVG Export Plug-In . SVG Version: 6.00 Build 0)  -->
<svg version="1.1" id="Layer_1" xmlns="http://www.w3.org/2000/svg" xmlns:xlink="http://www.w3.org/1999/xlink" x="0px" y="0px"
	 viewBox="-8 10 32 32" style="enable-background:new -8 10 32 32;" xml:space="preserve">
<path d="M17.142,12.91c-0.035-0.064-0.084-0.124-0.125-0.187l-0.185-0.278l-0.003,0.002c-0.021-0.028-0.036-0.058-0.058-0.085L16,13
	l-0.832,0.555l0.108,0.162c0.178,0.243,0.265,0.484,0.239,0.75c-0.072,0.716-0.794,1.461-1.104,1.723L1.281,24.63
	c-0.113-0.261-0.19-0.543-0.241-0.827C2.181,23.378,3,22.287,3,21H1c0,0.551-0.449,1-1,1s-1-0.449-1-1h-2
	c0,1.306,0.844,2.408,2.011,2.819c0.121,0.951,0.454,2.057,1.278,2.884l0,0c0.158,0.162,0.587,0.694,0.691,1.198
	c-0.51,0.735-3.192,2.745-5.525,4.26l-0.926,0.602l5.277,6.597l0.769-0.542C1.319,38.294,5.027,35.551,5,32.989
	c-0.003-0.321,0.023-0.597,0.063-0.842c1.029,0.786,2.471,0.854,2.875,0.854C7.979,33.001,8.009,33,8.027,33l-0.055-2
	c-0.396,0.021-1.37-0.101-1.781-0.5c-0.02-0.019-0.036-0.052-0.055-0.075l9.436-6.605l0.114-0.093
	c0.692-0.656,1.562-2.256,0.76-4.191l0.944-0.6c0.323-0.058,1.194-0.123,1.82,0.679l1.62-1.17L17.142,12.91z M14.35,22.235
	l-9.981,6.99C4.225,29.342,2.973,30.438,3,33.011c0.01,0.934-1.49,2.513-2.829,3.603l-2.705-3.382
	c5.621-3.758,5.559-4.822,5.532-5.291c-0.038-0.643-0.288-1.221-0.559-1.677l4.353-2.798L7.86,25.02l0.805-0.542l6.043-3.837
	C14.914,21.489,14.514,22.052,14.35,22.235z M16.715,17.042l-0.873,0.55c0.275-0.249,0.736-0.724,1.112-1.358l0.455,0.683
	C17.145,16.938,16.908,16.984,16.715,17.042z"/>
</svg>
