<?xml version="1.0" encoding="iso-8859-1"?>
<!-- Generator: Adobe Illustrator 19.1.0, SVG Export Plug-In . SVG Version: 6.00 Build 0)  -->
<svg version="1.1" id="Layer_1" xmlns="http://www.w3.org/2000/svg" xmlns:xlink="http://www.w3.org/1999/xlink" x="0px" y="0px"
	 viewBox="0 0 32 32" style="enable-background:new 0 0 32 32;" xml:space="preserve">
<g>
	<path style="fill:none;stroke:#000000;stroke-width:2;stroke-linejoin:round;stroke-miterlimit:10;" d="M14.041,26.973
		c0,0,3.976-0.926,3.976-3.257c0-2.845-5.017-2.16-5.017-5.691s6-1.4,6-6.025c0-0.519-0.42-1.016-1-1.016S17,11.55,17,12v0.529"/>
</g>
<circle cx="16" cy="5.5" r="1.5"/>
<g>
	<path style="fill:none;stroke:#000000;stroke-width:2;stroke-linejoin:round;stroke-miterlimit:10;" d="M15,12.529V12
		c0-0.45-0.42-1.016-1-1.016S13,11.481,13,12c0,4.626,6,2.495,6,6.025s-5.017,2.845-5.017,5.691c0,2.331,3.976,3.257,3.976,3.257"/>
</g>
<path style="fill:none;stroke:#000000;stroke-width:2;stroke-miterlimit:10;" d="M19.341,9.405c0.401-0.795-0.333-1.164-0.333-1.955
	c0-0.967,0.852-1.45,1.616-1.45C23.581,6,23.998,9,28,9v0.1c-0.982,1.584-3.091,2.9-7.003,2.9"/>
<path style="fill:none;stroke:#000000;stroke-width:2;stroke-miterlimit:10;" d="M11.011,12c-3.912,0-6.021-1.316-7.003-2.9V9
	c4.002,0,4.419-3,7.376-3C12.148,6,13,6.483,13,7.45c0,0.791-0.734,1.16-0.333,1.955"/>
<path d="M15,6v3c0.789,0,1,1,1,1s0.24-1,1-1V6H15z"/>
</svg>
