<?xml version="1.0" encoding="iso-8859-1"?>
<!-- Generator: Adobe Illustrator 19.1.1, SVG Export Plug-In . SVG Version: 6.00 Build 0)  -->
<svg version="1.1" id="Layer_1" xmlns="http://www.w3.org/2000/svg" xmlns:xlink="http://www.w3.org/1999/xlink" x="0px" y="0px"
	 viewBox="0 0 32 32" style="enable-background:new 0 0 32 32;" xml:space="preserve">
<path style="fill:none;stroke:#000000;stroke-width:2;stroke-miterlimit:10;" d="M23.059,6H16H8.941C7.317,6,6,7.317,6,8.941V16
	v7.059C6,24.683,7.317,26,8.941,26H16h7.059C24.683,26,26,24.683,26,23.059V16V8.941C26,7.317,24.683,6,23.059,6z"/>
<rect x="18.941" y="11.588" width="2.059" height="5.883"/>
<path d="M17.035,16.312c-0.348-0.389-0.833-0.608-1.454-0.655c0.553-0.151,0.954-0.371,1.208-0.666
	c0.253-0.291,0.378-0.685,0.378-1.182c0-0.393-0.086-0.741-0.252-1.041c-0.171-0.299-0.416-0.537-0.738-0.716
	c-0.282-0.155-0.617-0.264-1.008-0.329c-0.393-0.063-1.08-0.094-2.066-0.094h-2.397v8.743h2.47c0.992,0,1.708-0.035,2.145-0.101
	c0.437-0.069,0.804-0.184,1.101-0.343c0.367-0.194,0.647-0.47,0.843-0.824c0.197-0.355,0.295-0.765,0.295-1.234
	C17.559,17.221,17.385,16.7,17.035,16.312z M12.92,13.567h0.512c0.591,0,0.989,0.067,1.194,0.2c0.202,0.134,0.305,0.364,0.305,0.693
	c0,0.316-0.11,0.539-0.327,0.669c-0.22,0.128-0.621,0.193-1.208,0.193h-0.476L12.92,13.567L12.92,13.567z M14.949,18.58
	c-0.233,0.143-0.634,0.213-1.197,0.213H12.92v-1.91h0.869c0.578,0,0.978,0.073,1.19,0.218c0.216,0.145,0.322,0.402,0.322,0.77
	C15.301,18.202,15.184,18.438,14.949,18.58z"/>
<path d="M19.971,18.059c-0.65,0-1.177,0.526-1.177,1.176s0.527,1.177,1.177,1.177c0.649,0,1.176-0.527,1.176-1.177
	C21.147,18.585,20.62,18.059,19.971,18.059z"/>
</svg>
