<?xml version="1.0" encoding="iso-8859-1"?>
<!-- Generator: Adobe Illustrator 19.1.1, SVG Export Plug-In . SVG Version: 6.00 Build 0)  -->
<svg version="1.1" id="Layer_1" xmlns="http://www.w3.org/2000/svg" xmlns:xlink="http://www.w3.org/1999/xlink" x="0px" y="0px"
	 viewBox="0 0 32 32" style="enable-background:new 0 0 32 32;" xml:space="preserve">
<g>
	<path d="M12.04,12.968c0.257-0.277,0.335-0.718,0.176-0.984c-0.16-0.266-0.497-0.258-0.753,0.019
		c-0.256,0.278-0.334,0.718-0.176,0.984C11.446,13.254,11.783,13.245,12.04,12.968z"/>
	<path d="M23.683,7.927c1.881-0.267,1.734-2.289-0.36-1.803c-0.915,0.213-1.348,0.769-1.681,0.763
		c0.425-0.776,1.152-1.46,1.85-2.453s-0.655-1.995-1.769-1.101c-1.175,0.943-1.003,1.443-1.571,2.58
		c-0.191,0.662-0.517,0.7-0.791,0.116c-0.329-0.581-0.475-1.301-0.988-1.744c-0.824-0.709-1.763-0.19-1.26,0.612
		c0.503,0.802,0.728,1.648,0.924,2.972c0.292,1.973-0.549,4.184-1.643,5.234c-1.978-4.043-4.552-7.042-6.37-7.967
		c-0.55-0.28-0.716-0.055-0.716,0.21c0.345,3.96,0.471,6.704,0.251,8.726c-0.098,0.906-2.241,4.253-2.132,5.033
		c0.109,0.779,0.738,1.976,1.16,2.603c-0.171-0.124-0.596,0.157-0.491,0.558c-0.763,0.426-0.705,1.104,0.079,1.276
		c0.204,0.527,0.245,0.775,0.81,1.016c-0.11,1.112-0.226,2.274-0.343,3.516c0.509,2.499,4.379-1.845,4.875-2.208
		c2.682-1.967,3.103,2.325,4.979,2.995c3.157,1.128,2.147-5.506-0.394-12.027c-0.3-4.19,1.088-5.392,2.446-5.942
		c0.716-0.234,1.254-0.267,2.226,0.016c1.67,0.48,2.038-1.411,0.549-1.646c-0.566-0.089-0.997-0.091-1.52-0.323
		C22.014,8.101,22.856,8.044,23.683,7.927z M10.913,11.786c0.552-1.078,1.731-1.704,2.633-1.399s1.185,1.427,0.633,2.504
		c-0.552,1.078-1.731,1.704-2.633,1.399C10.645,13.985,10.362,12.864,10.913,11.786z M8.779,21.766l0.012-0.015
		c0,0.001,0,0.002,0.001,0.002L8.779,21.766z M9.434,20.326c-0.208-0.541-0.481-0.598-0.627-1.098
		c0.301-0.329,0.507-0.98,0.812-1.512C9.545,18.68,9.526,19.333,9.434,20.326z M18.418,24.54c0.137,1.852-1.352-0.149-1.531-0.471
		c-3.062-5.516-7.018,5.799-6.241-1.295c0.404-2.922,0.616-3.301,0.706-6.712c0,0,2.329,1.232,3.828-1.708
		C16.688,17.235,18.13,20.651,18.418,24.54z"/>
</g>
</svg>
