<?xml version="1.0" encoding="utf-8"?>
<!-- Generator: Adobe Illustrator 18.0.0, SVG Export Plug-In . SVG Version: 6.00 Build 0)  -->
<svg version="1.1" id="Layer_1" xmlns="http://www.w3.org/2000/svg" xmlns:xlink="http://www.w3.org/1999/xlink" x="0px" y="0px"
	 viewBox="0 0 32 32" enable-background="new 0 0 32 32" xml:space="preserve">
<path fill="none" stroke="#000000" stroke-width="2" stroke-miterlimit="10" d="M26,16c0-0.7-0.4-1.4-1-1.7V8.7c0.6-0.3,1-1,1-1.7
	c0-1.1-0.9-2-2-2H8C6.9,5,6,5.9,6,7c0,0.7,0.4,1.4,1,1.7v5.6c-0.6,0.3-1,1-1,1.7c0,0.7,0.4,1.4,1,1.7v5.6c-0.6,0.3-1,1-1,1.7
	c0,1.1,0.9,2,2,2h16c1.1,0,2-0.9,2-2c0-0.7-0.4-1.4-1-1.7v-5.6C25.6,17.4,26,16.7,26,16z"/>
<path fill="none" stroke="#000000" stroke-width="2" stroke-miterlimit="10" d="M19,18c0,1.7-1.3,3-3,3s-3-1.3-3-3s3-6,3-6
	S19,16.3,19,18z"/>
</svg>
