<?xml version="1.0" encoding="iso-8859-1"?>
<!-- Generator: Adobe Illustrator 19.1.0, SVG Export Plug-In . SVG Version: 6.00 Build 0)  -->
<svg version="1.1" id="Layer_1" xmlns="http://www.w3.org/2000/svg" xmlns:xlink="http://www.w3.org/1999/xlink" x="0px" y="0px"
	 viewBox="0 0 32 32" style="enable-background:new 0 0 32 32;" xml:space="preserve">
<circle style="fill:none;stroke:#000000;stroke-width:2;stroke-miterlimit:10;" cx="17.5" cy="7.5" r="2.5"/>
<circle style="fill:none;stroke:#000000;stroke-width:2;stroke-miterlimit:10;" cx="7.5" cy="19.5" r="2.5"/>
<polyline style="fill:none;stroke:#000000;stroke-width:2;stroke-miterlimit:10;" points="27,28 27,26 12,26 10,25 5,25 5,28 "/>
<polyline style="fill:none;stroke:#000000;stroke-width:2;stroke-miterlimit:10;" points="28,23 21,23 17,22 11,22 "/>
<polyline style="fill:none;stroke:#000000;stroke-width:2;stroke-miterlimit:10;" points="25.947,18 21,18 17.894,22.164 "/>
<path d="M23.888,16l-2.287-3.389c-0.669-0.991-1.783-1.583-2.979-1.583H16.7c-1.476,0-2.786,0.885-3.337,2.256l-0.373,0.929
	c-0.334,0.827-0.073,1.786,0.647,2.341l3.603,2.684l1.194-1.604l-3.589-2.675l0.373-0.93c0.245-0.608,0.826-1.001,1.481-1.001h1.922
	c0.531,0,1.025,0.263,1.322,0.702L21.478,16H23.888z"/>
</svg>
