<?xml version="1.0" encoding="iso-8859-1"?>
<!-- Generator: Adobe Illustrator 19.0.1, SVG Export Plug-In . SVG Version: 6.00 Build 0)  -->
<svg version="1.1" id="Layer_1" xmlns="http://www.w3.org/2000/svg" xmlns:xlink="http://www.w3.org/1999/xlink" x="0px" y="0px"
	 viewBox="0 0 32 32" style="enable-background:new 0 0 32 32;" xml:space="preserve">
<g id="XMLID_383_">
	<g id="XMLID_384_">
		
			<path id="XMLID_375_" style="fill:none;stroke:#000000;stroke-width:2;stroke-linecap:round;stroke-linejoin:round;stroke-miterlimit:10;" d="
			M10.544,27c3.457,0,8.075-1.457,11.534-4.916c5.379-5.38,5.932-13.551,3.66-15.822C24.927,5.451,23.364,5,21.444,5
			c-3.457,0-8.07,1.463-11.528,4.922C4.534,15.302,4,23.488,6.255,25.744C7.061,26.55,8.623,27,10.544,27L10.544,27z"/>
	</g>
</g>
<line id="XMLID_374_" style="fill:none;stroke:#000000;stroke-width:2;stroke-linejoin:round;stroke-miterlimit:10;" x1="26" y1="6" x2="21.695" y2="10.304"/>
<line id="XMLID_373_" style="fill:none;stroke:#000000;stroke-width:2;stroke-linejoin:round;stroke-miterlimit:10;" x1="10.305" y1="21.696" x2="6" y2="26"/>
<line id="XMLID_372_" style="fill:none;stroke:#000000;stroke-width:2;stroke-linejoin:round;stroke-miterlimit:10;" x1="20.5" y1="11.5" x2="11.5" y2="20.5"/>
<line id="XMLID_366_" style="fill:none;stroke:#000000;stroke-width:2;stroke-linejoin:round;stroke-miterlimit:10;" x1="18" y1="18" x2="14" y2="14"/>
<line id="XMLID_371_" style="fill:none;stroke:#000000;stroke-width:2;stroke-linejoin:round;stroke-miterlimit:10;" x1="20.5" y1="15.5" x2="16.5" y2="11.5"/>
<line id="XMLID_376_" style="fill:none;stroke:#000000;stroke-width:2;stroke-linejoin:round;stroke-miterlimit:10;" x1="11.5" y1="16.5" x2="15.5" y2="20.5"/>
</svg>
