<?xml version="1.0" encoding="iso-8859-1"?>
<!-- Generator: Adobe Illustrator 21.0.0, SVG Export Plug-In . SVG Version: 6.00 Build 0)  -->
<svg version="1.1" 
	 xmlns="http://www.w3.org/2000/svg" xmlns:xlink="http://www.w3.org/1999/xlink" x="0px" y="0px" viewBox="0 0 32 32"
	 style="enable-background:new 0 0 32 32;" xml:space="preserve">
<path d="M30,9h-2.142C27.494,7.601,26.399,6.506,25,6.142V4h-2v2h-2V2h-2v4h-8V4H9v2H6C4.346,6,3,7.346,3,9
	c0,1.478,0.912,6.598,1.016,7.177L4.164,17H6v1h2v-1h2.721l0.228-0.684C11.112,15.827,11.938,14,13,14h2c0.551,0,1,0.449,1,1v4
	c0,0.551-0.449,1-1,1H5c-1.654,0-3,1.346-3,3v3c0,1.654,1.346,3,3,3v1h4v-1h12v1h4v-1c1.654,0,3-1.346,3-3V14h2V9z M26,26
	c0,0.551-0.449,1-1,1H5c-0.551,0-1-0.449-1-1v-3c0-0.551,0.449-1,1-1h10c1.654,0,3-1.346,3-3v-4c0-1.654-1.346-3-3-3h-2
	c-2.015,0-3.178,1.919-3.674,3H5.839C5.518,13.136,5,9.939,5,9c0-0.551,0.449-1,1-1h1v4h2V8h15c1.103,0,2,0.897,2,2V26z"/>
<path d="M22,17c-1.654,0-3,1.346-3,3s1.346,3,3,3s3-1.346,3-3S23.654,17,22,17z M22,21c-0.551,0-1-0.449-1-1s0.449-1,1-1
	s1,0.449,1,1S22.551,21,22,21z"/>
<circle cx="22" cy="12" r="2"/>
</svg>
