<?xml version="1.0" encoding="utf-8"?>
<!-- Generator: Adobe Illustrator 18.1.1, SVG Export Plug-In . SVG Version: 6.00 Build 0)  -->
<svg version="1.1" id="Layer_1" xmlns="http://www.w3.org/2000/svg" xmlns:xlink="http://www.w3.org/1999/xlink" x="0px" y="0px"
	 viewBox="0 0 32 32" enable-background="new 0 0 32 32" xml:space="preserve">
<polyline fill="none" stroke="#000000" stroke-width="2" stroke-miterlimit="10" points="5,14 5,27 19,27 19,18 23,18 23,27 27,27 
	27,14 "/>
<rect x="9" y="18" fill="none" stroke="#000000" stroke-width="2" stroke-miterlimit="10" width="6" height="5"/>
<path fill="none" stroke="#000000" stroke-width="2" stroke-miterlimit="10" d="M26,12L26,12c0,1.1,0.9,2,2,2s2-0.9,2-2l-3-4H5l-3,4
	c0,1.1,0.9,2,2,2s2-0.9,2-2l0,0"/>
<path fill="none" stroke="#000000" stroke-width="2" stroke-miterlimit="10" d="M22,12c0,1.1,0.9,2,2,2s2-0.9,2-2"/>
<path fill="none" stroke="#000000" stroke-width="2" stroke-miterlimit="10" d="M18,12c0,1.1,0.9,2,2,2s2-0.9,2-2"/>
<path fill="none" stroke="#000000" stroke-width="2" stroke-miterlimit="10" d="M14,12c0,1.1,0.9,2,2,2s2-0.9,2-2"/>
<path fill="none" stroke="#000000" stroke-width="2" stroke-miterlimit="10" d="M10,12c0,1.1,0.9,2,2,2s2-0.9,2-2"/>
<path fill="none" stroke="#000000" stroke-width="2" stroke-miterlimit="10" d="M6,12c0,1.1,0.9,2,2,2s2-0.9,2-2"/>
<rect x="5" y="5" fill="none" stroke="#000000" stroke-width="2" stroke-miterlimit="10" width="22" height="3"/>
</svg>
