<?xml version="1.0" encoding="utf-8"?>
<!-- Generator: Adobe Illustrator 18.1.1, SVG Export Plug-In . SVG Version: 6.00 Build 0)  -->
<svg version="1.1" id="Layer_1" xmlns="http://www.w3.org/2000/svg" xmlns:xlink="http://www.w3.org/1999/xlink" x="0px" y="0px"
	 viewBox="0 0 32 32" enable-background="new 0 0 32 32" xml:space="preserve">
<rect x="3" y="6" fill="none" stroke="#000000" stroke-width="2" stroke-miterlimit="10" width="26" height="20"/>
<rect x="25" y="22" width="2" height="2"/>
<rect x="21" y="22" width="2" height="2"/>
<rect x="17" y="22" width="2" height="2"/>
<rect x="9" y="22" width="2" height="2"/>
<rect x="5" y="22" width="2" height="2"/>
<rect x="25" y="8" width="2" height="2"/>
<rect x="21" y="8" width="2" height="2"/>
<rect x="17" y="8" width="2" height="2"/>
<rect x="9" y="8" width="2" height="2"/>
<rect x="13" y="22" width="2" height="2"/>
<rect x="13" y="8" width="2" height="2"/>
<rect x="5" y="8" width="2" height="2"/>
<path fill="none" stroke="#000000" stroke-width="2" stroke-miterlimit="10" d="M14,13h-3.3l-0.5,3h1.3c0.8,0,1.5,0.7,1.5,1.5v0
	c0,0.8-0.7,1.5-1.5,1.5H9"/>
<path fill="none" stroke="#000000" stroke-width="2" stroke-miterlimit="10" d="M20,16c0-0.6-0.4-1-1-1h-2v5"/>
<path fill="none" stroke="#000000" stroke-width="2" stroke-miterlimit="10" d="M23,20v-4c0-0.6-0.4-1-1-1h-1c-0.6,0-1,0.4-1,1v4"/>
</svg>
