<?xml version="1.0" encoding="iso-8859-1"?>
<!-- Generator: Adobe Illustrator 21.0.2, SVG Export Plug-In . SVG Version: 6.00 Build 0)  -->
<svg version="1.1"  xmlns="http://www.w3.org/2000/svg" xmlns:xlink="http://www.w3.org/1999/xlink" x="0px" y="0px"
	 viewBox="0 0 32 32" style="enable-background:new 0 0 32 32;" xml:space="preserve">
<path d="M10,22c-0.552,0-1,0.448-1,1v2h2v-2C11,22.448,10.552,22,10,22z"/>
<path d="M22,22c-0.552,0-1,0.448-1,1v2h2v-2C23,22.448,22.552,22,22,22z"/>
<path style="fill:none;stroke:#000000;stroke-width:2;stroke-miterlimit:10;" d="M18,28v-3c0-1.105-0.895-2-2-2s-2,0.895-2,2v3"/>
<polygon style="fill:none;stroke:#000000;stroke-width:2;stroke-miterlimit:10;" points="19,16 19,9 13,9 13,16 10,16 10,14 9,14 
	9,15 6,15 6,14 5,14 5,19 6,19 6,28 26,28 26,19 27,19 27,14 26,14 26,15 23,15 23,14 22,14 22,16 "/>
<path d="M21,8.667L16,3l-5,5.667V10h10V8.667z M16,5.333L18,8h-4L16,5.333z"/>
</svg>
