<?xml version="1.0" encoding="iso-8859-1"?>
<!-- Generator: Adobe Illustrator 19.1.1, SVG Export Plug-In . SVG Version: 6.00 Build 0)  -->
<svg version="1.1"  xmlns="http://www.w3.org/2000/svg" xmlns:xlink="http://www.w3.org/1999/xlink" x="0px" y="0px"
	 viewBox="0 0 32 32" style="enable-background:new 0 0 32 32;" xml:space="preserve">
<rect x="8" y="14" width="3" height="2"/>
<line style="fill:none;stroke:#000000;stroke-width:2;stroke-miterlimit:10;" x1="13" y1="17" x2="19" y2="17"/>
<line style="fill:none;stroke:#000000;stroke-width:2;stroke-miterlimit:10;" x1="14" y1="24" x2="18" y2="24"/>
<circle style="fill:none;stroke:#000000;stroke-width:2;stroke-miterlimit:10;" cx="12.5" cy="23.497" r="1.5"/>
<g>
	<polygon points="16,10 19,10 19,7 16,7.613 	"/>
	<polygon points="15,10 15,7.892 13,8.394 13,10 	"/>
	<polygon points="16,11 16,13.387 19,14 19,11 	"/>
	<polygon points="15,11 13,11 13,12.606 15,13.108 	"/>
</g>
<path style="fill:none;stroke:#000000;stroke-width:2;stroke-miterlimit:10;" d="M13,21.934c0.618-0.626,1-1.483,1-2.434
	c0-1.933-1.567-3.5-3.5-3.5c-1.771,0-3.22,1.321-3.452,3.029C7.048,19.029,6,24.794,6,25c0,1.105,0.895,2,2,2
	c0.763,0,1.419-0.432,1.756-1.061L10.895,24"/>
<rect x="21" y="14" width="3" height="2"/>
<circle style="fill:none;stroke:#000000;stroke-width:2;stroke-miterlimit:10;" cx="19.5" cy="23.497" r="1.5"/>
<path style="fill:none;stroke:#000000;stroke-width:2;stroke-miterlimit:10;" d="M18.996,21.93C18.38,21.304,18,20.449,18,19.5
	c0-1.933,1.567-3.5,3.5-3.5c1.771,0,3.22,1.321,3.452,3.029c0,0,1.048,5.766,1.048,5.971c0,1.105-0.895,2-2,2
	c-0.763,0-1.419-0.432-1.756-1.061L21.105,24"/>
<path d="M3,4v16h1.331c0.077-0.428,0.159-0.879,0.252-1.388C4.655,18.107,4.81,17.635,5,17.181V6h22v11.2
	c0.193,0.461,0.352,0.941,0.425,1.455c0.089,0.491,0.169,0.929,0.244,1.345H29V4H3z"/>
</svg>
