<?xml version="1.0" encoding="iso-8859-1"?>
<!-- Generator: Adobe Illustrator 19.1.1, SVG Export Plug-In . SVG Version: 6.00 Build 0)  -->
<svg version="1.1"  xmlns="http://www.w3.org/2000/svg" xmlns:xlink="http://www.w3.org/1999/xlink" x="0px" y="0px"
	 viewBox="0 0 32 32" style="enable-background:new 0 0 32 32;" xml:space="preserve">
<path style="fill:none;stroke:#000000;stroke-width:2;stroke-miterlimit:10;" d="M23,12V4H12v1l0,0c1.226,0.613,2,1.866,2,3.236V12
	c-1.534,1.023-3,3.125-3,5"/>
<path style="fill:none;stroke:#000000;stroke-width:2;stroke-miterlimit:10;" d="M21,26h2c0,0,3-5.818,3-9c0-1.875-1.466-3.977-3-5"
	/>
<path style="fill:none;stroke:#000000;stroke-width:2;stroke-miterlimit:10;" d="M23,8c0.568-1.136,1.692-2,3-2c1.705,0,2,1.864,2,3
	c0,3.497-2,7-2,7"/>
<line style="fill:none;stroke:#000000;stroke-width:2;stroke-miterlimit:10;" x1="14" y1="12" x2="23" y2="12"/>
<path style="fill:none;stroke:#000000;stroke-width:2;stroke-miterlimit:10;" d="M12,17c-2,0-3.19,1.343-3.19,1.343S4,19.487,4,25
	c0.051,0.587,0.254,1.076,0.61,1.564l0,0l0,0c1.17,1.467,3.64,1.498,8.2,1.436c0.203,0,0.356,0,0.56,0
	c3.256,0,6.257-0.076,7.223-1.64C20.898,25.92,21,25.382,21,24.844C21,22.25,19.279,18,14.333,18C13.825,17.56,13.5,17,12,17z"/>
<path style="fill:none;stroke:#000000;stroke-width:2;stroke-miterlimit:10;" d="M10,23c0,0,0-3.542-1.5-5"/>
<path style="fill:none;stroke:#000000;stroke-width:2;stroke-miterlimit:10;" d="M15,23c0,0,0-4.563-1.583-5.726"/>
</svg>
