<?xml version="1.0" encoding="iso-8859-1"?>
<!-- Generator: Adobe Illustrator 19.1.1, SVG Export Plug-In . SVG Version: 6.00 Build 0)  -->
<svg version="1.1" id="Layer_1" xmlns="http://www.w3.org/2000/svg" xmlns:xlink="http://www.w3.org/1999/xlink" x="0px" y="0px"
	 viewBox="0 0 32 32" style="enable-background:new 0 0 32 32;" xml:space="preserve">
<path style="fill:none;stroke:#000000;stroke-width:2;stroke-miterlimit:10;" d="M21,22c0-3.593-5-7.906-5-7.906V14
	c0,0,0.479,0.009,0.914-0.175C17.494,13.624,18.077,13,18.609,13c1.143,0,1.321,1,2.294,1c0.657,0,0.943-0.782,1.206-1.101
	c0.33-0.399,1.252-0.233,0.741-1.352C22.578,10.952,20.99,8.823,19,8c-0.908-0.376-0.125-1-3-1V4c-2.929,0-2.827,2.667-2.827,3.306
	c-0.694,0.41-1.647,1.238-2.341,1.931C9.64,10.43,8.966,12.142,9,14c0.016,0.856,0.182,1.743,0.517,2.624
	C9.863,17.533,11,20.172,11,22"/>
<polyline style="fill:none;stroke:#000000;stroke-width:2;stroke-miterlimit:10;" points="21,23 24,27 24,28 8,28 8,27 11,23 "/>
<line style="fill:none;stroke:#000000;stroke-width:2;stroke-linecap:round;stroke-miterlimit:10;" x1="9" y1="23" x2="23" y2="23"/>
</svg>
