<?xml version="1.0" encoding="iso-8859-1"?>
<!-- Generator: Adobe Illustrator 19.2.0, SVG Export Plug-In . SVG Version: 6.00 Build 0)  -->
<svg version="1.1"  xmlns="http://www.w3.org/2000/svg" xmlns:xlink="http://www.w3.org/1999/xlink" x="0px" y="0px"
	 viewBox="0 0 32 32" style="enable-background:new 0 0 32 32;" xml:space="preserve">
<path style="fill:none;stroke:#000000;stroke-width:2;stroke-linejoin:round;stroke-miterlimit:10;" d="M19.94,23.32
	c-1.29,2.2-3.7,3.68-6.44,3.68c-2.15,0-4.09-0.9-5.44-2.36C6.78,23.3,6,21.49,6,19.5c0-2.32,1.06-4.4,2.72-5.77
	C8.26,14.37,8,15.16,8,16c0,1.1,0.45,2.1,1.18,2.82C9.9,19.55,10.9,20,12,20h4c1.1,0,2.1,0.45,2.82,1.18
	C19.4,21.75,19.8,22.49,19.94,23.32z"/>
<polygon points="25.5,28 24.5,24.5 25.5,21 26.5,24.5 "/>
<polygon points="29,24.5 25.5,25.5 22,24.5 25.5,23.5 "/>
<polygon points="7.5,11 6.5,7.5 7.5,4 8.5,7.5 "/>
<polygon points="11,7.5 7.5,8.5 4,7.5 7.5,6.5 "/>
<path style="fill:none;stroke:#000000;stroke-width:2;stroke-linejoin:round;stroke-miterlimit:10;" d="M14.486,12.072
	C14.163,12.03,13.835,12,13.5,12C9.358,12,6,15.358,6,19.5S9.358,27,13.5,27s7.5-3.358,7.5-7.5c0-0.335-0.03-0.663-0.072-0.986
	L14.486,12.072z"/>
<path d="M22.952,15.366L28,12c-0.938-0.938-6.292-6.292-7-7l-3.366,5.048L22.952,15.366z M21.311,8.139l3.55,3.55l-2.606,1.737
	l-2.681-2.681L21.311,8.139z"/>
<g>
	<path d="M17,10.828L22.172,16L21,17.172L15.828,12L17,10.828 M17,8l-4,4l8,8l4-4L17,8L17,8z"/>
</g>
</svg>
