<?xml version="1.0" encoding="iso-8859-1"?>
<!-- Generator: Adobe Illustrator 19.1.1, SVG Export Plug-In . SVG Version: 6.00 Build 0)  -->
<svg version="1.1" id="Layer_1" xmlns="http://www.w3.org/2000/svg" xmlns:xlink="http://www.w3.org/1999/xlink" x="0px" y="0px"
	 viewBox="0 0 32 32" style="enable-background:new 0 0 32 32;" xml:space="preserve">
<path style="fill:none;stroke:#000000;stroke-width:2;stroke-linecap:round;stroke-miterlimit:10;" d="M22,5c-2.773,0-5,2.227-5,5
	s2.227,5,5,5s5-2.227,5-5S24.773,5,22,5z"/>
<circle cx="9" cy="18" r="2"/>
<path style="fill:none;stroke:#000000;stroke-width:2;stroke-miterlimit:10;" d="M25.292,23.458l-13.491-9.607
	C11.003,13.313,10.04,13,9,13c-2.773,0-5,2.227-5,5c0,2.298,1.53,4.221,3.632,4.812l15.925,4.133"/>
<path style="fill:none;stroke:#000000;stroke-width:2;stroke-miterlimit:10;" d="M23.463,26.928C23.634,26.975,23.814,27,24,27
	c1.109,0,2-0.891,2-2c0-0.693-0.348-1.301-0.88-1.66"/>
</svg>
