<?xml version="1.0" encoding="iso-8859-1"?>
<!-- Generator: Adobe Illustrator 19.1.0, SVG Export Plug-In . SVG Version: 6.00 Build 0)  -->
<svg version="1.1" id="Layer_1" xmlns="http://www.w3.org/2000/svg" xmlns:xlink="http://www.w3.org/1999/xlink" x="0px" y="0px"
	 viewBox="0 0 32 32" style="enable-background:new 0 0 32 32;" xml:space="preserve">
<path id="XMLID_9_" style="fill:none;stroke:#000000;stroke-width:2;stroke-miterlimit:10;" d="M12,16h2.5
	c0.828,0,1.5-0.672,1.5-1.5v0c0-0.828-0.672-1.5-1.5-1.5H12v7"/>
<polygon id="XMLID_8_" points="14.688,16.018 12.688,16.018 15,20 17,20 "/>
<path style="fill:none;stroke:#000000;stroke-width:2;stroke-miterlimit:10;" d="M24.682,7.709C24.553,7.288,24.165,7,23.725,7
	H7.914C7.609,7,7.321,7.139,7.132,7.377c-0.19,0.239-0.261,0.551-0.192,0.848c0.008,0.032,0.739,3.243,0.739,6.759
	c0,3.399-2.547,8.516-2.572,8.567c-0.155,0.31-0.14,0.679,0.043,0.974C5.331,24.82,5.653,25,6,25h11.523
	C23.45,25,26,17.013,26,14.476C26,12.069,24.735,7.886,24.682,7.709z"/>
<line style="fill:none;stroke:#000000;stroke-width:2;stroke-miterlimit:10;" x1="20" y1="20" x2="20" y2="13"/>
<line style="fill:none;stroke:#000000;stroke-width:2;stroke-miterlimit:10;" x1="17" y1="13" x2="23" y2="13"/>
</svg>
