<?xml version="1.0" encoding="utf-8"?>
<!-- Generator: Adobe Illustrator 18.1.1, SVG Export Plug-In . SVG Version: 6.00 Build 0)  -->
<svg version="1.1" id="Layer_1" xmlns="http://www.w3.org/2000/svg" xmlns:xlink="http://www.w3.org/1999/xlink" x="0px" y="0px"
	 viewBox="0 0 32 32" enable-background="new 0 0 32 32" xml:space="preserve">
<polyline fill="none" stroke="#000000" stroke-width="2" stroke-miterlimit="10" points="25,15 25,5 7,5 7,27 15,27 "/>
<line fill="none" stroke="#000000" stroke-width="2" stroke-miterlimit="10" x1="7" y1="12" x2="25" y2="12"/>
<line fill="none" stroke="#000000" stroke-width="2" stroke-miterlimit="10" x1="7" y1="20" x2="20" y2="20"/>
<circle cx="27" cy="19" r="1"/>
<path fill="none" stroke="#000000" stroke-width="2" stroke-miterlimit="10" d="M25.5,15c-3,0-5.5,2.5-5.5,5.5
	c0,0.5,0.1,0.9,0.2,1.3L15,27v4h4v-2h2v-2h2l1.2-1.2c0.4,0.1,0.9,0.2,1.3,0.2c3,0,5.5-2.5,5.5-5.5C31,17.5,28.5,15,25.5,15z"/>
</svg>
