<?xml version="1.0" encoding="iso-8859-1"?>
<!-- Generator: Adobe Illustrator 21.0.0, SVG Export Plug-In . SVG Version: 6.00 Build 0)  -->
<svg version="1.1" id="Layer_1" xmlns="http://www.w3.org/2000/svg" xmlns:xlink="http://www.w3.org/1999/xlink" x="0px" y="0px"
	 viewBox="0 0 32 32" style="enable-background:new 0 0 32 32;" xml:space="preserve">
<path style="fill:none;stroke:#000000;stroke-width:2;stroke-miterlimit:10;" d="M20,23.031c-4.063,0.016-4.557-0.223-6.589-1.985
	c-0.931-0.84-2.03-1.048-2.895-1.046c-0.866,0.002-1.498,0.214-1.498,0.214l-4.743,1.82l1.314,3.685L10,24.031l7.118,3.918
	L29,23.031"/>
<polygon points="20,16 14,16 14,18 17.024,19 20,18 "/>
<path style="fill:none;stroke:#000000;stroke-width:2;stroke-miterlimit:10;" d="M13,7c0-2.208,1.792-4.008,4-4
	c2.16,0.008,4.01,1.761,4,4c-0.01,2.151-1.969,3.993-1.999,7H15C14.987,11.013,12.98,9.201,13,7z"/>
<circle cx="10" cy="3" r="1"/>
<circle cx="9" cy="7" r="1"/>
<circle cx="10" cy="11" r="1"/>
<circle cx="24" cy="3" r="1"/>
<circle cx="25" cy="7" r="1"/>
<circle cx="24" cy="11" r="1"/>
<g id="Layer_2">
</g>
</svg>
