<?xml version="1.0" encoding="iso-8859-1"?>
<!-- Generator: Adobe Illustrator 19.1.0, SVG Export Plug-In . SVG Version: 6.00 Build 0)  -->
<svg version="1.1" id="Layer_1" xmlns="http://www.w3.org/2000/svg" xmlns:xlink="http://www.w3.org/1999/xlink" x="0px" y="0px"
	 viewBox="0 0 32 32" style="enable-background:new 0 0 32 32;" xml:space="preserve">
<rect x="4" y="6" style="fill:none;stroke:#000000;stroke-width:2;stroke-miterlimit:10;" width="24" height="20"/>
<path d="M11.18,12.174v7.874H9.489v-5.962c-0.094,0.082-0.204,0.16-0.331,0.233s-0.262,0.14-0.405,0.199
	c-0.144,0.059-0.292,0.109-0.445,0.15c-0.154,0.041-0.307,0.07-0.457,0.088v-1.428c0.44-0.129,0.855-0.294,1.246-0.494
	c0.391-0.201,0.743-0.421,1.059-0.661H11.18z"/>
<path d="M14.51,16.251c-0.279,0-0.512-0.086-0.698-0.256c-0.187-0.17-0.279-0.38-0.279-0.631c0-0.258,0.096-0.469,0.287-0.634
	s0.431-0.247,0.717-0.247c0.291,0,0.527,0.083,0.712,0.25c0.185,0.166,0.276,0.377,0.276,0.631c0,0.262-0.094,0.475-0.281,0.639
	C15.055,16.168,14.811,16.251,14.51,16.251z M14.51,20.182c-0.279,0-0.512-0.086-0.698-0.258s-0.279-0.384-0.279-0.635
	c0-0.258,0.096-0.469,0.287-0.633c0.191-0.165,0.431-0.248,0.717-0.248c0.291,0,0.527,0.084,0.712,0.25
	c0.185,0.167,0.276,0.377,0.276,0.631c0,0.262-0.094,0.476-0.281,0.643C15.055,20.098,14.811,20.182,14.51,20.182z"/>
<path d="M24.15,20.048h-1.751l-3.174-4.84c-0.187-0.282-0.315-0.495-0.387-0.639h-0.021c0.028,0.272,0.043,0.688,0.043,1.246v4.232
	h-1.639v-7.702h1.869l3.057,4.688c0.139,0.212,0.268,0.421,0.387,0.629h0.021c-0.029-0.179-0.043-0.531-0.043-1.059v-4.259h1.638
	V20.048z"/>
</svg>
