<?xml version="1.0" encoding="iso-8859-1"?>
<!-- Generator: Adobe Illustrator 19.1.1, SVG Export Plug-In . SVG Version: 6.00 Build 0)  -->
<svg version="1.1" id="Layer_1" xmlns="http://www.w3.org/2000/svg" xmlns:xlink="http://www.w3.org/1999/xlink" x="0px" y="0px"
	 viewBox="0 0 32 32" style="enable-background:new 0 0 32 32;" xml:space="preserve">
<path style="fill:none;stroke:#000000;stroke-width:2;stroke-miterlimit:10;" d="M16,25.799C16.646,25.93,17.315,26,18,26
	c5.523,0,10-4.477,10-10c0-5.523-4.477-10-10-10c-0.685,0-1.354,0.07-2,0.201"/>
<circle style="fill:none;stroke:#000000;stroke-width:2;stroke-miterlimit:10;" cx="14" cy="16" r="10"/>
<path style="fill:none;stroke:#000000;stroke-width:2;stroke-miterlimit:10;" d="M16,14L16,14c0-1.105-0.895-2-2-2h0
	c-1.105,0-2,0.895-2,2v0c0,1.105,0.895,2,2,2h0c1.105,0,2,0.895,2,2v0c0,1.105-0.895,2-2,2h0c-1.105,0-2-0.895-2-2v0"/>
<line style="fill:none;stroke:#000000;stroke-width:2;stroke-miterlimit:10;" x1="14" y1="12" x2="14" y2="10"/>
<line style="fill:none;stroke:#000000;stroke-width:2;stroke-miterlimit:10;" x1="14" y1="20" x2="14" y2="22"/>
</svg>
