<?xml version="1.0" encoding="iso-8859-1"?>
<!-- Generator: Adobe Illustrator 19.1.1, SVG Export Plug-In . SVG Version: 6.00 Build 0)  -->
<svg version="1.1" id="Layer_1" xmlns="http://www.w3.org/2000/svg" xmlns:xlink="http://www.w3.org/1999/xlink" x="0px" y="0px"
	 viewBox="0 0 32 32" style="enable-background:new 0 0 32 32;" xml:space="preserve">
<path style="fill:none;stroke:#000000;stroke-width:2;stroke-miterlimit:10;" d="M9.444,8C7.206,8,5.07,9.964,5.07,12.665
	C5.07,14.888,5.973,21,9.906,21c1.763,0,2.102-1.347,2.102-2.02c0-1.844-1.627-1.844-1.627-3.772c0-1.616,2.69-2.56,2.69-4.513
	C13.07,8.74,11.681,8,9.444,8z"/>
<ellipse transform="matrix(-0.9372 -0.3488 0.3488 -0.9372 24.8914 14.3676)" cx="13.739" cy="4.943" rx="1.654" ry="1.979"/>
<ellipse transform="matrix(0.9991 -0.0421 0.0421 0.9991 -0.1959 0.4212)" cx="9.902" cy="4.862" rx="0.904" ry="1.195"/>
<ellipse transform="matrix(0.9466 -0.3225 0.3225 0.9466 -1.343 2.649)" cx="7.323" cy="5.378" rx="0.799" ry="1.127"/>
<ellipse transform="matrix(0.8531 -0.5217 0.5217 0.8531 -2.6594 3.7046)" cx="5.25" cy="6.576" rx="0.793" ry="1.029"/>
<ellipse transform="matrix(-0.6485 -0.7612 0.7612 -0.6485 -0.1552 16.7794)" cx="3.796" cy="8.426" rx="0.919" ry="0.694"/>
<path style="fill:none;stroke:#000000;stroke-width:2;stroke-miterlimit:10;" d="M18.93,17.695c0,1.954,2.69,2.897,2.69,4.513
	c0,1.928-1.627,1.928-1.627,3.772c0,0.673,0.339,2.02,2.102,2.02c3.932,0,4.835-6.112,4.835-8.335c0-2.702-2.136-4.665-4.373-4.665
	S18.93,15.74,18.93,17.695z"/>
<ellipse transform="matrix(0.3488 0.9372 -0.9372 0.3488 23.0843 -9.3368)" cx="18.261" cy="11.943" rx="1.979" ry="1.654"/>
<ellipse transform="matrix(0.0421 -0.9991 0.9991 0.0421 9.3164 33.441)" cx="22.098" cy="11.862" rx="1.195" ry="0.904"/>
<ellipse transform="matrix(0.3225 -0.9466 0.9466 0.3225 5.0024 31.7442)" cx="24.677" cy="12.378" rx="1.127" ry="0.799"/>
<ellipse transform="matrix(0.5217 -0.8531 0.8531 0.5217 1.213 29.3152)" cx="26.75" cy="13.576" rx="1.029" ry="0.793"/>
<ellipse transform="matrix(0.7612 0.6485 -0.6485 0.7612 16.7383 -14.6067)" cx="28.204" cy="15.426" rx="0.694" ry="0.919"/>
</svg>
