<?xml version="1.0" encoding="iso-8859-1"?>
<!-- Generator: Adobe Illustrator 19.1.1, SVG Export Plug-In . SVG Version: 6.00 Build 0)  -->
<svg version="1.1" id="Layer_1" xmlns="http://www.w3.org/2000/svg" xmlns:xlink="http://www.w3.org/1999/xlink" x="0px" y="0px"
	 viewBox="0 0 32 32" style="enable-background:new 0 0 32 32;" xml:space="preserve">
<path style="fill:none;stroke:#000000;stroke-width:2;stroke-miterlimit:10;" d="M8,12.624l0.007,3.649C7.408,16.619,7,17.259,7,18
	c0,1.049,0.811,1.9,1.838,1.984c0.759,2.469,1.872,5.226,2.636,6.034c2.499,2.644,6.552,2.644,9.051,0
	c0.764-0.808,1.877-3.565,2.636-6.034C24.189,19.9,25,19.049,25,18c0-0.741-0.401-1.381-1-1.727V13"/>
<circle cx="13" cy="18" r="1"/>
<circle cx="19" cy="18" r="1"/>
<path style="fill:none;stroke:#000000;stroke-width:2;stroke-linecap:round;stroke-linejoin:round;stroke-miterlimit:10;" d="
	M24,12.624c0,0-3.729-1.624-8-1.624s-8,1.624-8,1.624C8,8.521,8.627,4,16,4S24,8.521,24,12.624z"/>
<path style="fill:none;stroke:#000000;stroke-width:2;stroke-linecap:round;stroke-miterlimit:10;" d="M24,13c0,5.18-3.803,2-8,2
	s-8,3.357-8-2"/>
<path style="fill:none;stroke:#000000;stroke-width:2;stroke-linejoin:round;stroke-miterlimit:10;" d="M17,8c0,1.063-1,1-1,1
	c-0.631,0-1-0.369-1-1V7c0-0.631,0.369-1,1-1c0,0,1-0.123,1,1"/>
<line style="fill:none;stroke:#000000;stroke-width:2;stroke-miterlimit:10;" x1="16" y1="23" x2="16" y2="26"/>
<line style="fill:none;stroke:#000000;stroke-width:2;stroke-miterlimit:10;" x1="14" y1="23" x2="18" y2="23"/>
<circle cx="16" cy="3" r="1"/>
</svg>
