<?xml version="1.0" encoding="iso-8859-1"?>
<!-- Generator: Adobe Illustrator 19.1.1, SVG Export Plug-In . SVG Version: 6.00 Build 0)  -->
<svg version="1.1" id="Layer_1" xmlns="http://www.w3.org/2000/svg" xmlns:xlink="http://www.w3.org/1999/xlink" x="0px" y="0px"
	 viewBox="0 0 32 32" style="enable-background:new 0 0 32 32;" xml:space="preserve">
<path d="M18.148,16.736c-0.454,0.006,0.086,0.222,0.678,0.309c0.163-0.121,0.312-0.244,0.444-0.363
	C18.902,16.767,18.526,16.768,18.148,16.736 M20.583,16.159c0.271-0.354,0.468-0.742,0.536-1.143
	c-0.061,0.286-0.224,0.532-0.378,0.793c-0.848,0.507-0.08-0.301,0-0.608C19.83,16.291,20.617,15.855,20.583,16.159 M21.483,13.938
	c0.055-0.776-0.161-0.531-0.234-0.234C21.334,13.746,21.401,14.251,21.483,13.938 M16.428,3.334
	c0.242,0.041,0.523,0.073,0.483,0.128C17.176,3.407,17.236,3.356,16.428,3.334 M16.912,3.462L16.74,3.496l0.159-0.013L16.912,3.462
	 M24.463,14.232c0.027,0.697-0.215,1.035-0.433,1.633l-0.392,0.186c-0.321,0.592,0.031,0.376-0.199,0.846
	c-0.501,0.423-1.52,1.323-1.846,1.406c-0.238-0.005,0.161-0.267,0.214-0.369c-0.671,0.437-0.538,0.656-1.564,0.922l-0.031-0.063
	c-2.53,1.13-6.044-1.109-5.997-4.165c-0.027,0.194-0.077,0.146-0.133,0.224c-0.131-1.572,0.765-3.151,2.274-3.796
	c1.477-0.694,3.208-0.409,4.266,0.527c-0.581-0.723-1.738-1.489-3.108-1.417c-1.343,0.02-2.598,0.83-3.018,1.71
	c-0.688,0.411-0.768,1.585-1.067,1.8c-0.403,2.814,0.758,4.03,2.724,5.46c0.31,0.198,0.087,0.228,0.13,0.379
	c-0.653-0.29-1.251-0.729-1.742-1.265c0.261,0.362,0.542,0.715,0.906,0.992c-0.615-0.198-1.438-1.416-1.678-1.466
	c1.062,1.804,4.306,3.164,6.005,2.489c-0.786,0.028-1.785,0.015-2.668-0.295c-0.371-0.181-0.875-0.557-0.786-0.627
	c2.318,0.822,4.714,0.623,6.72-0.904c0.511-0.377,1.068-1.019,1.229-1.028c-0.242,0.346,0.041,0.167-0.145,0.473
	c0.509-0.779-0.221-0.317,0.526-1.345l0.276,0.361c-0.102-0.646,0.846-1.431,0.749-2.454c0.217-0.313,0.242,0.336,0.012,1.056
	c0.32-0.798,0.084-0.926,0.166-1.584c0.088,0.221,0.205,0.456,0.265,0.69c-0.209-0.771,0.214-1.298,0.319-1.747
	c-0.103-0.043-0.322,0.341-0.372-0.57c0.007-0.396,0.116-0.207,0.158-0.305c-0.082-0.045-0.296-0.348-0.427-0.929
	c0.095-0.137,0.253,0.354,0.381,0.374c-0.083-0.462-0.225-0.815-0.232-1.17c-0.376-0.747-0.133,0.099-0.438-0.321
	c-0.4-1.186,0.333-0.275,0.381-0.814c0.607,0.835,0.953,2.129,1.112,2.665c-0.121-0.654-0.317-1.287-0.556-1.899
	c0.184,0.074-0.297-1.345,0.24-0.405c-0.573-2.002-2.453-3.873-4.183-4.751c0.212,0.184,0.479,0.415,0.382,0.451
	c-0.861-0.486-0.709-0.524-0.832-0.73c-0.7-0.271-0.747,0.022-1.211,0c-1.321-0.665-1.576-0.594-2.79-1.011l0.056,0.245
	c-0.875-0.277-1.02,0.105-1.965,0.001c-0.058-0.043,0.303-0.154,0.599-0.195c-0.846,0.106-0.807-0.158-1.634,0.029
	c0.204-0.136,0.419-0.226,0.637-0.341c-0.69,0.04-1.647,0.381-1.351,0.071c-1.125,0.476-3.123,1.145-4.245,2.143l-0.035-0.224
	c-0.514,0.586-2.241,1.75-2.379,2.508l-0.137,0.03c-0.268,0.43-0.44,0.917-0.652,1.359C6.593,9.639,6.431,9.291,6.481,9.379
	c-0.688,1.324-1.029,2.437-1.325,3.35c0.211,0.298,0.005,1.797,0.084,2.996c-0.345,5.923,4.379,11.673,9.542,13.001
	c0.757,0.257,1.882,0.247,2.84,0.274c-1.129-0.307-1.276-0.163-2.376-0.527c-0.794-0.355-0.968-0.76-1.529-1.223l0.222,0.373
	c-1.103-0.37-0.641-0.458-1.538-0.728l0.238-0.295c-0.357-0.026-0.947-0.572-1.108-0.874l-0.391,0.015
	c-0.47-0.55-0.72-0.947-0.701-1.254l-0.126,0.214c-0.143-0.233-1.728-2.063-0.906-1.637c-0.153-0.133-0.356-0.216-0.576-0.596
	l0.167-0.182c-0.396-0.483-0.728-1.103-0.703-1.309c0.211,0.271,0.357,0.321,0.502,0.368c-1-2.354-1.055-0.13-1.812-2.396
	l0.16-0.012c-0.123-0.175-0.197-0.366-0.296-0.553l0.07-0.659c-0.719-0.79-0.201-3.358-0.098-4.766
	c0.072-0.573,0.6-1.182,1.003-2.139l-0.245-0.04c0.468-0.775,2.673-3.114,3.694-2.993c0.495-0.59-0.098-0.002-0.195-0.151
	c1.087-1.068,1.428-0.754,2.161-0.946c0.791-0.446-0.678,0.174-0.303-0.17c1.367-0.332,0.969-0.754,2.752-0.922
	c0.189,0.102-0.437,0.157-0.593,0.289c1.139-0.529,3.604-0.409,5.206,0.294c1.858,0.824,3.946,3.262,4.029,5.555l0.094,0.024
	c-0.047,0.912,0.147,1.966-0.19,2.934L24.463,14.232 M13.195,17.327l-0.063,0.302c0.298,0.385,0.535,0.801,0.915,1.102
	C13.774,18.223,13.569,18.013,13.195,17.327 M13.9,17.301c-0.158-0.166-0.252-0.365-0.356-0.564c0.1,0.349,0.304,0.649,0.495,0.955
	L13.9,17.301 M26.375,14.726l-0.066,0.159c-0.122,0.824-0.387,1.64-0.791,2.396C25.966,16.483,26.254,15.61,26.375,14.726
	 M16.518,3.128c0.307-0.107,0.754-0.059,1.08-0.129c-0.424,0.034-0.847,0.054-1.263,0.105L16.518,3.128 M5.746,8.566
	C5.816,9.187,5.253,9.429,5.87,9.019C6.202,8.311,5.741,8.823,5.746,8.566 M5.021,11.442c0.142-0.415,0.167-0.664,0.222-0.903
	C4.85,11.016,5.062,11.117,5.021,11.442"/>
</svg>
