<?xml version="1.0" encoding="iso-8859-1"?>
<!-- Generator: Adobe Illustrator 22.0.1, SVG Export Plug-In . SVG Version: 6.00 Build 0)  -->
<svg version="1.1" id="Layer_1" xmlns="http://www.w3.org/2000/svg" xmlns:xlink="http://www.w3.org/1999/xlink" x="0px" y="0px"
	 viewBox="0 0 32 32" style="enable-background:new 0 0 32 32;" xml:space="preserve">
<g>
	<g>
	</g>
</g>
<line style="fill:none;stroke:#000000;stroke-width:2;stroke-miterlimit:10;" x1="28" y1="23" x2="5" y2="23"/>
<polyline style="fill:none;stroke:#000000;stroke-width:2;stroke-miterlimit:10;" points="23.75,18.75 28,23 23.75,27.25 "/>
<path style="fill:none;stroke:#000000;stroke-width:2;stroke-miterlimit:10;" d="M18,10V9.382C18,8.619,17.381,8,16.618,8h-1.236
	C14.619,8,14,8.619,14,9.382l0,0c0,0.379,0.214,0.725,0.553,0.894l2.894,1.447C17.786,11.893,18,12.239,18,12.618l0,0
	C18,13.381,17.381,14,16.618,14h-1.236C14.619,14,14,13.381,14,12.618V12"/>
<line style="fill:none;stroke:#000000;stroke-width:2;stroke-miterlimit:10;" x1="16" y1="8" x2="16" y2="6"/>
<line style="fill:none;stroke:#000000;stroke-width:2;stroke-miterlimit:10;" x1="16" y1="16" x2="16" y2="14"/>
<path style="fill:none;stroke:#000000;stroke-width:2;stroke-miterlimit:10;" d="M9,10V9.382C9,8.619,8.381,8,7.618,8H6.382
	C5.619,8,5,8.619,5,9.382l0,0c0,0.379,0.214,0.725,0.553,0.894l2.894,1.447C8.786,11.893,9,12.239,9,12.618l0,0
	C9,13.381,8.381,14,7.618,14H6.382C5.619,14,5,13.381,5,12.618V12"/>
<line style="fill:none;stroke:#000000;stroke-width:2;stroke-miterlimit:10;" x1="7" y1="8" x2="7" y2="6"/>
<line style="fill:none;stroke:#000000;stroke-width:2;stroke-miterlimit:10;" x1="7" y1="16" x2="7" y2="14"/>
<line style="fill:none;stroke:#000000;stroke-width:2;stroke-miterlimit:10;" x1="25" y1="6" x2="25" y2="4"/>
<line style="fill:none;stroke:#000000;stroke-width:2;stroke-miterlimit:10;" x1="25" y1="16" x2="25" y2="14"/>
<path style="fill:none;stroke:#000000;stroke-width:2;stroke-miterlimit:10;" d="M23,12c0,1.105,0.895,2,2,2l0,0
	c1.105,0,2-0.922,2-2c0-1.967-4-1.996-4-4c0-1.087,0.895-2,2-2l0,0c1.105,0,2,0.895,2,2"/>
<line style="fill:none;stroke:#000000;stroke-width:2;stroke-miterlimit:10;" x1="5" y1="20" x2="5" y2="26"/>
<line style="fill:none;stroke:#000000;stroke-width:2;stroke-miterlimit:10;" x1="12" y1="20" x2="12" y2="26"/>
<line style="fill:none;stroke:#000000;stroke-width:2;stroke-miterlimit:10;" x1="19" y1="20" x2="19" y2="26"/>
</svg>
