<?xml version="1.0" encoding="iso-8859-1"?>
<!-- Generator: Adobe Illustrator 22.1.0, SVG Export Plug-In . SVG Version: 6.00 Build 0)  -->
<svg version="1.1" id="Layer_1_1_" xmlns="http://www.w3.org/2000/svg" xmlns:xlink="http://www.w3.org/1999/xlink" x="0px" y="0px"
	 viewBox="0 0 32 32" style="enable-background:new 0 0 32 32;" xml:space="preserve">
<path style="fill:none;stroke:#000000;stroke-width:2;stroke-miterlimit:10;" d="M20,23.031c-4.063,0.016-4.557-0.223-6.589-1.985
	c-0.931-0.84-2.03-1.048-2.895-1.046c-0.866,0.002-1.498,0.214-1.498,0.214l-4.743,1.82l1.314,3.685L10,24.031l7.118,3.918
	L29,23.031"/>
<path d="M19.992,11.627c0,0.999-0.55,2.373-2.677,2.373c-0.666,0-1.23-0.101-1.679-0.289v-1.317c0.478,0.289,0.984,0.434,1.52,0.434
	c0.984,0,1.274-0.738,1.274-1.071c0-0.68-0.478-1.028-1.447-1.028c-0.362,0-0.767,0.029-1.245,0.087l0.26-3.864h3.676v1.245H17.17
	l-0.101,1.389c0.246-0.014,0.463-0.029,0.651-0.029C19.601,9.557,19.992,10.99,19.992,11.627z"/>
<circle style="fill:none;stroke:#000000;stroke-width:2;stroke-miterlimit:10;" cx="17.5" cy="10.5" r="6.5"/>
</svg>
