<?xml version="1.0" encoding="iso-8859-1"?>
<!-- Generator: Adobe Illustrator 19.1.1, SVG Export Plug-In . SVG Version: 6.00 Build 0)  -->
<svg version="1.1"  xmlns="http://www.w3.org/2000/svg" xmlns:xlink="http://www.w3.org/1999/xlink" x="0px" y="0px"
	 viewBox="0 0 32 32" style="enable-background:new 0 0 32 32;" xml:space="preserve">
<path style="fill:none;stroke:#000000;stroke-width:2;stroke-linecap:round;stroke-miterlimit:10;" d="M7,25V7c0-1.104,0.896-2,2-2
	h14c1.104,0,2,0.896,2,2v18c0,1.104-0.896,2-2,2H9C7.896,27,7,26.104,7,25z"/>
<path d="M19,24v-8.193c0,0-0.338-2.402-7.986,1.193C11,17.038,11,8.04,11,8.04L13,8v6c0,0,8-3.192,8,1.837V24H19L19,24L19,24z"/>
<path d="M19.623,11H17c0.944-1.155,2.288-3,2.288-3H22C22,8,21.047,9.157,19.623,11L19.623,11L19.623,11z"/>
<polygon points="11,23.976 11,19 14,21.488 "/>
</svg>
