<?xml version="1.0" encoding="iso-8859-1"?>
<!-- Generator: Adobe Illustrator 19.1.1, SVG Export Plug-In . SVG Version: 6.00 Build 0)  -->
<svg version="1.1" id="Layer_1" xmlns="http://www.w3.org/2000/svg" xmlns:xlink="http://www.w3.org/1999/xlink" x="0px" y="0px"
	 viewBox="0 0 32 32" style="enable-background:new 0 0 32 32;" xml:space="preserve">
<polygon style="fill:none;stroke:#000000;stroke-width:2;stroke-miterlimit:10;" points="16,19.172 21,22 16,24.828 11,22 "/>
<line style="fill:none;stroke:#000000;stroke-width:2;stroke-miterlimit:10;" x1="10" y1="22" x2="10" y2="26"/>
<g>
	<polygon points="16,27.834 15.997,27.835 9,23.679 9,26.006 16,30.163 	"/>
</g>
<line style="fill:none;stroke:#000000;stroke-width:2;stroke-miterlimit:10;" x1="22" y1="22" x2="22" y2="26"/>
<g>
	<polygon points="16,27.834 16.003,27.835 23,23.679 23,26.006 16,30.163 	"/>
</g>
<path style="fill:none;stroke:#000000;stroke-width:2;stroke-miterlimit:10;" d="M11,12c0-2.761,5-8.438,5-8.438S21,9.239,21,12
	s-2.239,5-5,5S11,14.761,11,12z"/>
<path style="fill:none;stroke:#000000;stroke-width:2;stroke-miterlimit:10;" d="M15,13c0-0.552,1-2,1-2s1,1.448,1,2s-0.448,1-1,1
	C15.448,14,15,13.552,15,13z"/>
</svg>
