<?xml version="1.0" encoding="iso-8859-1"?>
<!-- Generator: Adobe Illustrator 19.1.0, SVG Export Plug-In . SVG Version: 6.00 Build 0)  -->
<svg version="1.1" id="Layer_1" xmlns="http://www.w3.org/2000/svg" xmlns:xlink="http://www.w3.org/1999/xlink" x="0px" y="0px"
	 viewBox="0 0 32 32" style="enable-background:new 0 0 32 32;" xml:space="preserve">
<path style="fill:none;stroke:#000000;stroke-width:2;stroke-miterlimit:10;" d="M30,15c-1.683,0-2.65-2.817-3.425-4.335
	C25.925,9.393,24.834,7.987,22.474,8C21.527,8.005,16,7.9,16,9.014L23,11l1,6.179v0.195c0,0-5.085-2.104-5.418-2.238
	c-0.963-0.388-2.058,0.079-2.446,1.042c-0.388,0.963,0.079,2.058,1.042,2.446c0.449,0.181,5.668,2.974,6.117,3.154
	C23.79,21.975,24.229,22,25,22c1.93,0,5,0,5,0"/>
<g id="XMLID_5869_">
	<circle id="XMLID_5870_" style="fill:none;stroke:#000000;stroke-width:2;stroke-miterlimit:10;" cx="10" cy="15" r="2"/>
</g>
<g id="XMLID_11_">
	<path id="XMLID_13_" style="fill:none;stroke:#000000;stroke-width:2;stroke-miterlimit:10;" d="M13,20c0-1.657-1.343-3-3-3
		c-1.657,0-3,1.343-3,3"/>
</g>
<polyline style="fill:none;stroke:#000000;stroke-width:2;stroke-miterlimit:10;" points="17.08,9 3,9 3,23 23,23 23,22.032 "/>
</svg>
