<?xml version="1.0" encoding="iso-8859-1"?>
<!-- Generator: Adobe Illustrator 19.1.1, SVG Export Plug-In . SVG Version: 6.00 Build 0)  -->
<svg version="1.1" id="Layer_1" xmlns="http://www.w3.org/2000/svg" xmlns:xlink="http://www.w3.org/1999/xlink" x="0px" y="0px"
	 viewBox="0 0 32 32" style="enable-background:new 0 0 32 32;" xml:space="preserve">
<path d="M29,16c0-1.861-1.034-3.469-2.547-4.33c0.461-1.678,0.055-3.547-1.261-4.863c-1.316-1.316-3.184-1.722-4.862-1.261
	C19.469,4.034,17.861,3,16,3s-3.469,1.034-4.33,2.547c-1.678-0.46-3.546-0.055-4.862,1.261C5.491,8.124,5.086,9.992,5.547,11.67
	C4.034,12.531,3,14.139,3,16s1.034,3.469,2.547,4.33c-0.461,1.678-0.055,3.547,1.261,4.863c0.975,0.975,2.255,1.462,3.536,1.462
	c0.448,0,0.892-0.082,1.327-0.201C12.531,27.966,14.139,29,16,29s3.469-1.034,4.33-2.547c0.435,0.12,0.879,0.201,1.327,0.201
	c1.281,0,2.561-0.488,3.536-1.462c1.316-1.316,1.722-3.184,1.261-4.863C27.966,19.469,29,17.861,29,16z M8.222,8.222
	c0.585-0.585,1.353-0.877,2.122-0.877c0.24,0,0.478,0.039,0.713,0.096C11.035,7.627,11,7.809,11,8v3H8
	c-0.191,0-0.373,0.035-0.559,0.057C7.201,10.071,7.454,8.99,8.222,8.222z M6.452,18.557C5.586,18.03,5,17.086,5,16
	s0.586-2.03,1.452-2.557c0.117,0.146,0.22,0.3,0.355,0.435L8.929,16l-2.122,2.122C6.672,18.257,6.569,18.41,6.452,18.557z
	 M8.222,23.778c-0.768-0.768-1.021-1.85-0.781-2.835C7.627,20.965,7.809,21,8,21h3v3c0,0.191,0.035,0.373,0.057,0.559
	C10.071,24.8,8.989,24.546,8.222,23.778z M11.101,19H8.757l1.657-1.657c0.341,0.225,0.707,0.389,1.082,0.523
	C11.326,18.225,11.183,18.6,11.101,19z M10.415,14.657L8.757,13h2.344c0.082,0.4,0.225,0.775,0.396,1.135
	C11.122,14.268,10.756,14.432,10.415,14.657z M16,5c1.086,0,2.03,0.586,2.557,1.452c-0.146,0.117-0.3,0.22-0.435,0.355L16,8.929
	l-2.122-2.122c-0.135-0.135-0.289-0.239-0.435-0.355C13.97,5.586,14.914,5,16,5z M18,16c0,1.105-0.895,2-2,2s-2-0.895-2-2
	c0-1.105,0.895-2,2-2S18,14.895,18,16z M13,8.757l1.657,1.657c-0.225,0.341-0.389,0.707-0.523,1.082
	c-0.36-0.171-0.734-0.314-1.135-0.396V8.757z M13,20.899c0.4-0.082,0.775-0.225,1.135-0.396c0.133,0.375,0.297,0.742,0.523,1.082
	L13,23.243V20.899z M16,27c-1.086,0-2.03-0.586-2.557-1.452c0.146-0.117,0.3-0.22,0.435-0.355L16,23.071l2.122,2.122
	c0.135,0.135,0.289,0.239,0.435,0.355C18.03,26.414,17.086,27,16,27z M19,23.243l-1.657-1.657c0.225-0.341,0.389-0.707,0.523-1.082
	c0.36,0.171,0.734,0.314,1.135,0.396V23.243z M19,11.101c-0.4,0.082-0.775,0.225-1.135,0.396c-0.133-0.375-0.297-0.742-0.523-1.082
	L19,8.757V11.101z M21.657,7.345c0.769,0,1.537,0.292,2.122,0.877c0.768,0.768,1.021,1.85,0.781,2.835
	C24.373,11.035,24.191,11,24,11h-3V8c0-0.191-0.035-0.373-0.057-0.559C21.178,7.384,21.416,7.345,21.657,7.345z M20.899,13h2.344
	l-1.657,1.657c-0.341-0.225-0.707-0.389-1.083-0.522C20.674,13.775,20.817,13.401,20.899,13z M20.503,17.865
	c0.375-0.133,0.742-0.297,1.082-0.523L23.243,19h-2.344C20.817,18.6,20.674,18.225,20.503,17.865z M23.778,23.778
	c-0.768,0.767-1.85,1.021-2.835,0.781C20.965,24.373,21,24.191,21,24v-3h3c0.191,0,0.373-0.035,0.559-0.057
	C24.799,21.929,24.546,23.01,23.778,23.778z M25.548,18.557c-0.117-0.146-0.22-0.3-0.355-0.435L23.071,16l2.122-2.122
	c0.135-0.135,0.239-0.289,0.355-0.435C26.414,13.97,27,14.914,27,16S26.414,18.03,25.548,18.557z"/>
</svg>
