<?xml version="1.0" encoding="iso-8859-1"?>
<!-- Generator: Adobe Illustrator 19.1.1, SVG Export Plug-In . SVG Version: 6.00 Build 0)  -->
<svg version="1.1" id="Layer_1" xmlns="http://www.w3.org/2000/svg" xmlns:xlink="http://www.w3.org/1999/xlink" x="0px" y="0px"
	 viewBox="0 0 32 32" style="enable-background:new 0 0 32 32;" xml:space="preserve">
<polyline style="fill:none;stroke:#000000;stroke-width:2;stroke-miterlimit:10;" points="25,22 25,28 7,28 7,22 "/>
<polyline style="fill:none;stroke:#000000;stroke-width:2;stroke-miterlimit:10;" points="7,10 7,4 25,4 25,10 "/>
<path id="XMLID_158_" style="fill:none;stroke:#000000;stroke-width:2;stroke-miterlimit:10;" d="M14,14.408L14,14.408
	C14,13.756,13.53,13,12.5,13c-0.828,0-1.5,0.672-1.5,1.5v0c0,0.828,0.672,1.5,1.5,1.5h0c0.828,0,1.5,0.672,1.5,1.5v0
	c0,0.828-0.576,1.5-1.5,1.5c-1.104,0-1.5-0.572-1.5-1.381l0,0"/>
<path id="XMLID_159_" style="fill:none;stroke:#000000;stroke-width:2;stroke-miterlimit:10;" d="M8,12v5.5
	C8,18.328,7.328,19,6.5,19h0C5.672,19,5,18.328,5,17.5V17"/>
<path style="fill:none;stroke:#000000;stroke-width:2;stroke-miterlimit:10;" d="M18.5,13L18.5,13c-0.828,0-1.5,0.672-1.5,1.5v3
	c0,0.828,0.672,1.5,1.5,1.5h0c0.828,0,1.5-0.672,1.5-1.5v-3C20,13.672,19.328,13,18.5,13z"/>
<line id="XMLID_196_" style="fill:none;stroke:#000000;stroke-width:2;stroke-miterlimit:10;" x1="23" y1="12" x2="23" y2="20"/>
<line id="XMLID_197_" style="fill:none;stroke:#000000;stroke-width:2;stroke-miterlimit:10;" x1="26" y1="12" x2="26" y2="20"/>
<line id="XMLID_198_" style="fill:none;stroke:#000000;stroke-width:2;stroke-miterlimit:10;" x1="23" y1="14" x2="26" y2="18"/>
</svg>
