<?xml version="1.0" encoding="iso-8859-1"?>
<!-- Generator: Adobe Illustrator 19.1.1, SVG Export Plug-In . SVG Version: 6.00 Build 0)  -->
<svg version="1.1" id="Layer_1" xmlns="http://www.w3.org/2000/svg" xmlns:xlink="http://www.w3.org/1999/xlink" x="0px" y="0px"
	 viewBox="0 0 32 32" style="enable-background:new 0 0 32 32;" xml:space="preserve">
<line style="fill:none;stroke:#000000;stroke-width:2;stroke-miterlimit:10;" x1="16" y1="4" x2="16" y2="17.625"/>
<polyline style="fill:none;stroke:#000000;stroke-width:2;stroke-miterlimit:10;" points="20,14.625 16,18.625 12,14.625 "/>
<path d="M19,6.461c4.053,1.277,7,5.07,7,9.539c0,5.514-4.486,10-10,10S6,21.514,6,16c0-4.469,2.947-8.262,7-9.539V4.395
	C7.833,5.732,4,10.421,4,16c0,6.617,5.383,12,12,12s12-5.383,12-12c0-5.579-3.833-10.268-9-11.605V6.461z"/>
</svg>
