<?xml version="1.0" encoding="iso-8859-1"?>
<!-- Generator: Adobe Illustrator 19.2.0, SVG Export Plug-In . SVG Version: 6.00 Build 0)  -->
<svg version="1.1"  xmlns="http://www.w3.org/2000/svg" xmlns:xlink="http://www.w3.org/1999/xlink" x="0px" y="0px"
	 viewBox="0 0 32 32" style="enable-background:new 0 0 32 32;" xml:space="preserve">
<polyline style="fill:none;stroke:#000000;stroke-width:2;stroke-miterlimit:10;" points="19,4 19,10 25,10 "/>
<rect x="11" y="13" width="10" height="2"/>
<circle style="fill:none;stroke:#000000;stroke-width:2;stroke-miterlimit:10;" cx="24" cy="24" r="7"/>
<path d="M17.683,21H11v2h6.08C17.181,22.293,17.387,21.622,17.683,21z"/>
<path d="M21,17.683V17H11v2h8.106C19.656,18.461,20.297,18.017,21,17.683z"/>
<path d="M17.683,27H8V5h10.586L24,10.414V17c0.695,0,1.366,0.105,2,0.294V9.586L19.414,3H6v26h13.106
	C18.52,28.426,18.039,27.749,17.683,27z"/>
<line style="fill:none;stroke:#000000;stroke-width:2;stroke-miterlimit:10;" x1="24" y1="28" x2="24" y2="20"/>
<line style="fill:none;stroke:#000000;stroke-width:2;stroke-miterlimit:10;" x1="20" y1="24" x2="28" y2="24"/>
</svg>
