<?xml version="1.0" encoding="iso-8859-1"?>
<!-- Generator: Adobe Illustrator 19.1.0, SVG Export Plug-In . SVG Version: 6.00 Build 0)  -->
<svg version="1.1" id="Layer_1" xmlns="http://www.w3.org/2000/svg" xmlns:xlink="http://www.w3.org/1999/xlink" x="0px" y="0px"
	 viewBox="0 0 32 32" style="enable-background:new 0 0 32 32;" xml:space="preserve">
<line style="fill:none;stroke:#000000;stroke-width:2;stroke-miterlimit:10;" x1="5" y1="10" x2="27" y2="10"/>
<path d="M23.5,27c-0.828,0-1.5-0.672-1.5-1.5c0-0.602,0.357-1.118,0.869-1.357C22.593,24.059,22.305,24,22,24c-1.657,0-3,1.343-3,3
	s1.343,3,3,3s3-1.343,3-3c0-0.305-0.059-0.593-0.143-0.869C24.618,26.643,24.102,27,23.5,27z"/>
<path style="fill:none;stroke:#000000;stroke-width:2;stroke-miterlimit:10;" d="M30,27c0,0-4.013,4-8,4s-8-4-8-4s4.018-4,8-4
	S30,27,30,27z"/>
<path d="M10.458,26.999l1.778-1.771c0.044-0.044,0.132-0.128,0.238-0.229H6V7h20v14.367c0.712,0.293,1.383,0.634,2,0.997V5H4v22
	L10.458,26.999L10.458,26.999z"/>
</svg>
