<?xml version="1.0" encoding="iso-8859-1"?>
<!-- Generator: Adobe Illustrator 19.1.1, SVG Export Plug-In . SVG Version: 6.00 Build 0)  -->
<svg version="1.1" id="Layer_1" xmlns="http://www.w3.org/2000/svg" xmlns:xlink="http://www.w3.org/1999/xlink" x="0px" y="0px"
	 viewBox="0 0 32 32" style="enable-background:new 0 0 32 32;" xml:space="preserve">
<path style="fill:none;stroke:#000000;stroke-width:2;stroke-miterlimit:10;" d="M9,29c0-4.159,0.533-13.178,8-18"/>
<circle cx="17" cy="11" r="3"/>
<path d="M17,2c-4.962,0-9,4.038-9,9c0,1.531,0.393,2.969,1.072,4.231c0.394-0.713,0.825-1.392,1.295-2.036
	C10.137,12.503,10,11.769,10,11c0-3.86,3.14-7,7-7s7,3.14,7,7s-3.14,7-7,7c-0.815,0-1.594-0.15-2.322-0.408
	c-0.345,0.561-0.656,1.159-0.935,1.791C14.754,19.778,15.851,20,17,20c4.962,0,9-4.038,9-9S21.962,2,17,2z"/>
</svg>
