<?xml version="1.0" encoding="iso-8859-1"?>
<!-- Generator: Adobe Illustrator 19.1.0, SVG Export Plug-In . SVG Version: 6.00 Build 0)  -->
<svg version="1.1" id="Layer_1" xmlns="http://www.w3.org/2000/svg" xmlns:xlink="http://www.w3.org/1999/xlink" x="0px" y="0px"
	 viewBox="0 0 32 32" style="enable-background:new 0 0 32 32;" xml:space="preserve">
<path style="fill:none;stroke:#000000;stroke-width:2;stroke-miterlimit:10;" d="M5.018,9.257c0,0,0.91,0.764,1.892,0.764
	C9.573,10.021,8.899,6,10.837,6c1.306,0,1.727,1.33,2.864,3.52c1.025,1.975,6.183,11.122,6.276,11.28
	c0.094,0.157,0.162,0.077,0.121-0.056c-0.041-0.133-0.916-3.663-1.033-4.355c-0.17-1.005,0.109-2.693,0.109-2.693l-0.91-1.456
	l0.077-0.259l6.886,2.234l-0.086,0.281l-1.528,0.873c0,0-0.877,1.235-0.364,2.111c0.18,0.307,0.632,1.168,1.143,2.156
	c1.167,2.259,0.275,5.036-1.987,6.197l0,0c-2.401,1.232-5.341,0.139-6.356-2.361"/>
<path d="M11.324,9.178c0,0-0.28,1.356-1.317,1.866l5.114,12.805l1.854-0.752L11.324,9.178z"/>
<circle cx="15" cy="14" r="1"/>
<circle cx="13.789" cy="11.484" r="1"/>
<circle cx="16.3" cy="16.44" r="1"/>
</svg>
