<?xml version="1.0" encoding="iso-8859-1"?>
<!-- Generator: Adobe Illustrator 19.1.0, SVG Export Plug-In . SVG Version: 6.00 Build 0)  -->
<svg version="1.1" id="Layer_1" xmlns="http://www.w3.org/2000/svg" xmlns:xlink="http://www.w3.org/1999/xlink" x="0px" y="0px"
	 viewBox="0 0 32 32" style="enable-background:new 0 0 32 32;" xml:space="preserve">
<path style="fill:none;stroke:#000000;stroke-width:2;stroke-linejoin:round;stroke-miterlimit:10;" d="M12,16c0-2.106-0.879-3-2-3
	c-1.997,0-4,2.92-4,6.5C6,21.659,6.578,24,8.415,24c2.251,0,2.077-2,3.085-2s0.447,3,1.506,3c0.622,0,1.09-0.914,1.619-0.914
	c0.504,0,0.763,2.349,2.376,1.914"/>
<path style="fill:none;stroke:#000000;stroke-width:2;stroke-miterlimit:10;" d="M22.018,22.729L19.016,25l-0.942-3.645L22.93,7.411
	c0.392-1.127,1.532-1.678,2.659-1.285l0,0c1.127,0.392,1.678,1.532,1.285,2.659L22.018,22.729z"/>
</svg>
