<?xml version="1.0" encoding="iso-8859-1"?>
<!-- Generator: Adobe Illustrator 21.1.0, SVG Export Plug-In . SVG Version: 6.00 Build 0)  -->
<svg version="1.1" id="Layer_1" xmlns="http://www.w3.org/2000/svg" xmlns:xlink="http://www.w3.org/1999/xlink" x="0px" y="0px"
	 viewBox="0 0 32 32" style="enable-background:new 0 0 32 32;" xml:space="preserve">
<ellipse cx="10" cy="16" rx="1" ry="3"/>
<ellipse style="fill:none;stroke:#000000;stroke-width:2;stroke-miterlimit:10;" cx="10" cy="16" rx="5" ry="11"/>
<ellipse cx="16" cy="16" rx="1" ry="3"/>
<path style="fill:none;stroke:#000000;stroke-width:2;stroke-miterlimit:10;" d="M13,7.199C13.836,5.818,14.874,5,16,5
	c2.761,0,5,4.925,5,11s-2.239,11-5,11c-1.126,0-2.165-0.819-3.001-2.2"/>
<ellipse cx="22" cy="16" rx="1" ry="3"/>
<path style="fill:none;stroke:#000000;stroke-width:2;stroke-miterlimit:10;" d="M19,7.199C19.836,5.818,20.874,5,22,5
	c2.761,0,5,4.925,5,11s-2.239,11-5,11c-1.071,0-2.063-0.74-2.876-2.001"/>
</svg>
