<?xml version="1.0" encoding="iso-8859-1"?>
<!-- Generator: Adobe Illustrator 19.1.0, SVG Export Plug-In . SVG Version: 6.00 Build 0)  -->
<svg version="1.1" id="Layer_1" xmlns="http://www.w3.org/2000/svg" xmlns:xlink="http://www.w3.org/1999/xlink" x="0px" y="0px"
	 viewBox="0 0 32 32" style="enable-background:new 0 0 32 32;" xml:space="preserve">
<path style="fill:none;stroke:#000000;stroke-width:2;stroke-miterlimit:10;" d="M8,7v20c0,0,2.876,0,2.924,0
	C13.516,27,26,20.625,26,13c0-1.032-0.994-2-2-2s-3.364,1.575-4.991,0.734C17.269,10.835,15.897,7,13.776,7C12.085,7,11.649,9,10,9"
	/>
<line style="fill:none;stroke:#000000;stroke-width:2;stroke-miterlimit:10;" x1="6" y1="5" x2="10" y2="5"/>
<g>
	<path d="M18,21.427V10h-1v12.12C17.33,21.902,17.664,21.67,18,21.427z"/>
	<path d="M20,19.823V12h-1v8.669C19.321,20.413,19.657,20.131,20,19.823z"/>
	<path d="M22,17.741V12h-1v6.866C21.346,18.511,21.683,18.135,22,17.741z"/>
	<path d="M24,13v-2h-1v5.294C23.602,15.259,24,14.146,24,13z"/>
	<path d="M16,22.748V8h-1v15.322C15.324,23.145,15.657,22.955,16,22.748z"/>
	<path d="M12,24.707V8h-1v16.99C11.198,24.965,11.541,24.872,12,24.707z"/>
	<path d="M14,23.843V7h-1v17.308C13.31,24.173,13.645,24.018,14,23.843z"/>
</g>
</svg>
