<?xml version="1.0" encoding="iso-8859-1"?>
<!-- Generator: Adobe Illustrator 19.1.0, SVG Export Plug-In . SVG Version: 6.00 Build 0)  -->
<svg version="1.1" id="Layer_1" xmlns="http://www.w3.org/2000/svg" xmlns:xlink="http://www.w3.org/1999/xlink" x="0px" y="0px"
	 viewBox="0 0 32 32" style="enable-background:new 0 0 32 32;" xml:space="preserve">
<polyline style="fill:none;stroke:#000000;stroke-width:2;stroke-miterlimit:10;" points="4,24 4,7 28,7 28,24 "/>
<circle style="fill:none;stroke:#000000;stroke-width:2;stroke-miterlimit:10;" cx="13.5" cy="12.5" r="2.5"/>
<path style="fill:none;stroke:#000000;stroke-width:2;stroke-miterlimit:10;" d="M10.204,24l2.646-6.067
	c0.203-0.466,0.576-0.837,1.043-1.037L21,13.838V9"/>
<path style="fill:none;stroke:#000000;stroke-width:2;stroke-miterlimit:10;" d="M13.581,17.025l2.179,5.258
	c0.318,0.768,0.869,1.419,1.574,1.86l2.879,1.801c0.405,0.253,0.574,0.758,0.404,1.204L19,31.391"/>
<path d="M12.913,23.048L12.893,23H3v2h11.242C13.68,24.444,13.221,23.792,12.913,23.048z"/>
<g>
	<polygon points="19.48,22 22.889,22 20.526,20.289 18.156,15.085 16.335,15.915 18.925,21.598 	"/>
</g>
<path d="M20.28,23l1.994,1.247c0.323,0.202,0.591,0.461,0.808,0.753H29v-2H20.28z"/>
</svg>
