<?xml version="1.0" encoding="iso-8859-1"?>
<!-- Generator: Adobe Illustrator 19.1.0, SVG Export Plug-In . SVG Version: 6.00 Build 0)  -->
<svg version="1.1" id="Layer_1" xmlns="http://www.w3.org/2000/svg" xmlns:xlink="http://www.w3.org/1999/xlink" x="0px" y="0px"
	 viewBox="0 0 32 32" style="enable-background:new 0 0 32 32;" xml:space="preserve">
<path style="fill:none;stroke:#000000;stroke-width:2;stroke-miterlimit:10;" d="M11,15.536c0-7.808,6.557-9.224,6.557-9.224
	C17.909,4.874,19.591,4,19.591,4"/>
<path style="fill:none;stroke:#000000;stroke-width:2;stroke-linejoin:round;stroke-miterlimit:10;" d="M18.732,16.255
	c-1.216-2.177-2.286-5.531-1.175-9.943"/>
<path d="M20.597,6.312c0,0-1.865,1.723-0.622,3.883c1.113,1.018,2.988,0.886,4.025,0.596c0,0-0.422-2.249-1.666-3.296
	C21.035,6.402,20.597,6.312,20.597,6.312z"/>
<path style="fill:none;stroke:#000000;stroke-width:2;stroke-miterlimit:10;" d="M15.964,23.129c1.825,2.868,5.71,3.676,8.349,2.021
	c2.479-1.555,3.61-5.536,1.794-8.43c-2.135-3.403-5.05-2.513-5.946-1.951s-1.086,1.272-1.428,1.487
	c-0.343,0.215-1.089,0.093-1.96,0.639c-0.12,0.075-0.242,0.163-0.363,0.256"/>
<path style="fill:none;stroke:#000000;stroke-width:2;stroke-miterlimit:10;" d="M17,19.812C17,23.23,13.926,26,11,26
	c-3.127,0-6-2.77-6-6.188C5,15.822,7.404,15,9,15c1.028,0,1.596,0.5,2,0.5s0.942-0.5,2-0.5S17,15.796,17,19.812z"/>
</svg>
