<?xml version="1.0" encoding="iso-8859-1"?>
<!-- Generator: Adobe Illustrator 19.1.0, SVG Export Plug-In . SVG Version: 6.00 Build 0)  -->
<svg version="1.1" id="Layer_1" xmlns="http://www.w3.org/2000/svg" xmlns:xlink="http://www.w3.org/1999/xlink" x="0px" y="0px"
	 viewBox="0 0 32 32" style="enable-background:new 0 0 32 32;" xml:space="preserve">
<polygon style="fill:none;stroke:#000000;stroke-width:2;stroke-miterlimit:10;" points="25,10 7,10 9,28 23,28 "/>
<path style="fill:none;stroke:#000000;stroke-width:2;stroke-miterlimit:10;" d="M24,6l-2-2H10L8,6H7C5.895,6,5,6.895,5,8v2h22V8
	c0-1.105-0.895-2-2-2H24z"/>
<path style="fill:none;stroke:#000000;stroke-width:2;stroke-miterlimit:10;" d="M8.319,21h4.666c0.606,1.191,1.722,2,3.015,2
	s2.408-0.809,3.015-2h4.693"/>
<path style="fill:none;stroke:#000000;stroke-width:2;stroke-miterlimit:10;" d="M24.171,17h-5.156c-0.606-1.191-1.722-2-3.015-2
	s-2.408,0.809-3.015,2H7.894"/>
</svg>
