<?xml version="1.0" encoding="iso-8859-1"?>
<!-- Generator: Adobe Illustrator 19.1.1, SVG Export Plug-In . SVG Version: 6.00 Build 0)  -->
<svg version="1.1" id="Layer_1" xmlns="http://www.w3.org/2000/svg" xmlns:xlink="http://www.w3.org/1999/xlink" x="0px" y="0px"
	 viewBox="0 0 32 32" style="enable-background:new 0 0 32 32;" xml:space="preserve">
<path style="fill:none;stroke:#000000;stroke-width:2;stroke-miterlimit:10;" d="M20,21c-0.4,1.161-2.042,2-4.042,2
	S12.4,22.161,12,21H5c0,3.866,3.134,7,7,7h8c3.866,0,7-3.134,7-7H20z"/>
<path style="fill:none;stroke:#000000;stroke-width:2;stroke-miterlimit:10;" d="M7,20v-7c0-4.418,3.582-8,8-8h0h2c0,0,1,0.208,1,1
	s-1,1-1,1h-2c0,0-1-0.292-1-1"/>
<circle cx="16" cy="11" r="1"/>
<circle cx="20" cy="17" r="1"/>
<circle cx="16" cy="17" r="1"/>
<circle cx="12" cy="17" r="1"/>
<circle cx="14" cy="14" r="1"/>
<circle cx="18" cy="14" r="1"/>
</svg>
