<?xml version="1.0" encoding="iso-8859-1"?>
<!-- Generator: Adobe Illustrator 19.2.0, SVG Export Plug-In . SVG Version: 6.00 Build 0)  -->
<svg version="1.1" id="Layer_1" xmlns="http://www.w3.org/2000/svg" xmlns:xlink="http://www.w3.org/1999/xlink" x="0px" y="0px"
	 viewBox="0 0 32 32" style="enable-background:new 0 0 32 32;" xml:space="preserve">
<polygon style="fill:none;stroke:#000000;stroke-width:2;stroke-miterlimit:10;" points="27,12 16.003,5.187 5,12 5,14 6,14 6,27 
	26,27 26,14 27,14 "/>
<path style="fill:none;stroke:#000000;stroke-width:2;stroke-miterlimit:10;" d="M19,16L19,16c0-1.105-0.895-2-2-2h-2
	c-1.105,0-2,0.895-2,2v0c0,1.105,0.895,2,2,2h2c1.105,0,2,0.895,2,2v0c0,1.105-0.895,2-2,2h-2c-1.105,0-2-0.895-2-2v0"/>
<line style="fill:none;stroke:#000000;stroke-width:2;stroke-miterlimit:10;" x1="16" y1="12" x2="16" y2="14"/>
<line style="fill:none;stroke:#000000;stroke-width:2;stroke-miterlimit:10;" x1="16" y1="22" x2="16" y2="24"/>
</svg>
