<?xml version="1.0" encoding="iso-8859-1"?>
<!-- Generator: Adobe Illustrator 19.1.0, SVG Export Plug-In . SVG Version: 6.00 Build 0)  -->
<svg version="1.1" id="Layer_1" xmlns="http://www.w3.org/2000/svg" xmlns:xlink="http://www.w3.org/1999/xlink" x="0px" y="0px"
	 viewBox="0 0 32 32" style="enable-background:new 0 0 32 32;" xml:space="preserve">
<circle cx="16" cy="16" r="2"/>
<path style="fill:none;stroke:#000000;stroke-width:2;stroke-miterlimit:10;" d="M11.05,6.1C12.562,5.413,14.212,5,16,5
	c6.05,0,11,4.95,11,11s-4.95,11-11,11c-3.85,0-7.288-2.062-9.212-5.088"/>
<path d="M9.94,13.229c0.276-1.104,0.69-2.485-1.243-4.694C8.56,10.882,6.489,9.088,5.66,11.159c0.414,2.071,2.899,3.728,2.899,3.728
	s-3.513-1.069-3.927-3.14C1.406,10.231,0,13.229,0,13.229s3.019-0.994,4.556,3.451c1.09,3.154,4.303,2.531,5.66,1.243
	C11.574,16.635,11.183,14.472,9.94,13.229z"/>
<line style="fill:none;stroke:#000000;stroke-width:2;stroke-miterlimit:10;" x1="16" y1="16" x2="11.885" y2="5.462"/>
<line style="fill:none;stroke:#000000;stroke-width:2;stroke-miterlimit:10;" x1="16" y1="16" x2="27" y2="16"/>
<line style="fill:none;stroke:#000000;stroke-width:2;stroke-miterlimit:10;" x1="15.878" y1="16.051" x2="8.1" y2="23.829"/>
<path style="fill:none;stroke:#000000;stroke-width:2;stroke-miterlimit:10;" d="M13.275,9.55C14.113,9.196,15.033,9,16,9
	c1.11,0,2.16,0.258,3.092,0.718"/>
<path style="fill:none;stroke:#000000;stroke-width:2;stroke-miterlimit:10;" d="M23,16c0,3.866-3.134,7-7,7"/>
</svg>
