<?xml version="1.0" encoding="iso-8859-1"?>
<!-- Generator: Adobe Illustrator 19.1.0, SVG Export Plug-In . SVG Version: 6.00 Build 0)  -->
<svg version="1.1" id="Layer_1" xmlns="http://www.w3.org/2000/svg" xmlns:xlink="http://www.w3.org/1999/xlink" x="0px" y="0px"
	 viewBox="0 0 32 32" style="enable-background:new 0 0 32 32;" xml:space="preserve">
<polygon style="fill:none;stroke:#000000;stroke-width:2;stroke-miterlimit:10;" points="28,25 4,25 4,10 16,5 28,10 "/>
<path d="M24,15.442C24,14.157,22.843,13,20.851,13c-3.727,0-4.177,4.369-6.169,5.012c-1.606,0.514-2.249-0.193-3.855,0.257
	C9.221,18.719,8,20.968,8,20.968s1.478-1.478,3.02-1.799c1.028-0.193,2.249,0.386,3.534,0.193c1.285-0.257,1.928-0.835,2.763-1.414
	c0.835-0.578,1.606,0.064,3.47,0.064C22.779,18.012,24,17.048,24,15.442z"/>
</svg>
