<?xml version="1.0" encoding="iso-8859-1"?>
<!-- Generator: Adobe Illustrator 19.1.1, SVG Export Plug-In . SVG Version: 6.00 Build 0)  -->
<svg version="1.1" id="Layer_1" xmlns="http://www.w3.org/2000/svg" xmlns:xlink="http://www.w3.org/1999/xlink" x="0px" y="0px"
	 viewBox="0 0 32 32" style="enable-background:new 0 0 32 32;" xml:space="preserve">
<path style="fill:none;stroke:#000000;stroke-width:2;stroke-miterlimit:10;" d="M5.997,19.003l6.009-6.009
	c0.549-0.549,1.439-0.549,1.988,0l5.012,5.012c0.549,0.549,0.549,1.439,0,1.988l-6.009,6.009c-0.549,0.549-1.439,0.549-1.988,0
	l-5.012-5.012C5.448,20.442,5.448,19.552,5.997,19.003z"/>
<path style="fill:none;stroke:#000000;stroke-width:2;stroke-miterlimit:10;" d="M7.556,17.078l-2.151-2.87
	c-0.666-0.876-0.494-2.137,0.382-2.803l0,0c0.876-0.666,2.137-0.494,2.803,0.382L14,19"/>
<path style="fill:none;stroke:#000000;stroke-width:2;stroke-miterlimit:10;" d="M6.382,21.376l-2.504,2.504
	c-1.167,1.167-1.167,3.076,0,4.243l0,0c1.167,1.167,3.076,1.167,4.243,0l2.504-2.504"/>
<path d="M30,4h-2V2l-2,1l-1.25-1L24,4h-2v2h-2v2h-2v2h-2v2h-2l2,2l8.629-8.629l0.006,0.006C24.887,5.145,25.219,5,25.588,5
	C26.368,5,27,5.632,27,6.412c0,0.369-0.145,0.702-0.376,0.953l0.006,0.006L18,16l2,3l0-3h2v-2h2v-2h2v-2h2V8l2-0.625L29,6L30,4z"/>
</svg>
