<?xml version="1.0" encoding="iso-8859-1"?>
<!-- Generator: Adobe Illustrator 19.1.1, SVG Export Plug-In . SVG Version: 6.00 Build 0)  -->
<svg version="1.1" id="Layer_1" xmlns="http://www.w3.org/2000/svg" xmlns:xlink="http://www.w3.org/1999/xlink" x="0px" y="0px"
	 viewBox="0 0 32 32" style="enable-background:new 0 0 32 32;" xml:space="preserve">
<path style="fill:none;stroke:#000000;stroke-width:2;stroke-miterlimit:10;" d="M20,23.082c-4.063,0.016-4.557-0.223-6.589-1.985
	c-0.931-0.84-2.03-1.048-2.895-1.046c-0.866,0.002-1.498,0.214-1.498,0.214l-4.743,1.82l1.314,3.685L10,24.082L17.118,28L29,23.082"
	/>
<path style="fill:none;stroke:#000000;stroke-width:2;stroke-miterlimit:10;" d="M19.874,14.244c0,0,2.126-0.684,2.126-3.221
	c0-4.949-5.995-5.035-7.91-5.972H13.83c0,0-1.83,2.581-1.83,6.421c0,4.193,2.385,4.579,3.141,4.579c0.774,0,1.564-0.488,2.358-0.821
	"/>
<path style="fill:none;stroke:#000000;stroke-width:2;stroke-miterlimit:10;" d="M20,19.051c0-2.72,0.092-6.133-3.3-8.816"/>
</svg>
