<?xml version="1.0" encoding="iso-8859-1"?>
<!-- Generator: Adobe Illustrator 19.1.1, SVG Export Plug-In . SVG Version: 6.00 Build 0)  -->
<svg version="1.1" id="Layer_1" xmlns="http://www.w3.org/2000/svg" xmlns:xlink="http://www.w3.org/1999/xlink" x="0px" y="0px"
	 viewBox="0 0 32 32" style="enable-background:new 0 0 32 32;" xml:space="preserve">
<line style="fill:none;stroke:#000000;stroke-width:2;stroke-miterlimit:10;" x1="20.375" y1="4.625" x2="27.375" y2="11.625"/>
<g>
	<path d="M4,28c0,0,0.199-0.422,0.579-1.129c0.191-0.352,0.423-0.781,0.707-1.253c0.14-0.238,0.289-0.492,0.446-0.76
		c0.16-0.264,0.453-0.418,0.665-0.671c1.863-1.863,4.348-4.348,6.832-6.832s4.969-4.969,6.832-6.832
		c0.256-0.21,0.404-0.508,0.681-0.656c0.267-0.157,0.521-0.306,0.76-0.446c0.473-0.284,0.901-0.516,1.251-0.709
		c0.704-0.383,1.121-0.587,1.121-0.587s-0.203,0.418-0.587,1.121c-0.193,0.35-0.425,0.778-0.709,1.251
		c-0.14,0.238-0.289,0.492-0.446,0.76c-0.148,0.277-0.446,0.425-0.656,0.681c-1.863,1.863-4.348,4.348-6.832,6.832
		s-4.969,4.969-6.832,6.832c-0.253,0.213-0.407,0.505-0.671,0.665c-0.267,0.157-0.521,0.306-0.76,0.446
		c-0.472,0.285-0.901,0.516-1.253,0.707C4.422,27.801,4,28,4,28z"/>
</g>
<line style="fill:none;stroke:#000000;stroke-width:2;stroke-miterlimit:10;" x1="20.375" y1="11.625" x2="24.375" y2="7.625"/>
</svg>
