<?xml version="1.0" encoding="iso-8859-1"?>
<!-- Generator: Adobe Illustrator 19.1.1, SVG Export Plug-In . SVG Version: 6.00 Build 0)  -->
<svg version="1.1" id="Layer_1" xmlns="http://www.w3.org/2000/svg" xmlns:xlink="http://www.w3.org/1999/xlink" x="0px" y="0px"
	 viewBox="0 0 32 32" style="enable-background:new 0 0 32 32;" xml:space="preserve">
<path style="fill:none;stroke:#000000;stroke-width:2;stroke-miterlimit:10;" d="M18,11c-5.375,0-14.571,2.252-15,13h3
	c0.35-8.763,8.031-10,12-10V11z"/>
<line style="fill:none;stroke:#000000;stroke-width:2;stroke-miterlimit:10;" x1="28" y1="4" x2="24" y2="8"/>
<path style="fill:none;stroke:#000000;stroke-width:2;stroke-miterlimit:10;" d="M18,14c0,3.781-1.234,11.649-10,12v3
	c10.748-0.431,13-10.031,13-15H18z"/>
<path style="fill:none;stroke:#000000;stroke-width:2;stroke-miterlimit:10;" d="M28.985,7.092C29.083,5.81,28.679,4.679,28,4
	c-0.715-0.639-1.79-1.037-3-0.981C23.726,3.077,18,3,18,14C28.906,14,28.985,7.092,28.985,7.092z"/>
<circle cx="21" cy="11" r="1"/>
<circle cx="23.5" cy="8.5" r="1.5"/>
</svg>
