<?xml version="1.0" encoding="iso-8859-1"?>
<!-- Generator: Adobe Illustrator 19.1.1, SVG Export Plug-In . SVG Version: 6.00 Build 0)  -->
<svg version="1.1" id="Layer_1" xmlns="http://www.w3.org/2000/svg" xmlns:xlink="http://www.w3.org/1999/xlink" x="0px" y="0px"
	 viewBox="0 0 32 32" style="enable-background:new 0 0 32 32;" xml:space="preserve">
<path style="fill:none;stroke:#000000;stroke-width:2;stroke-miterlimit:10;" d="M23.979,12.229l-4.208-4.208
	C19,7.25,19,6,19.771,5.229L21,4l7,7l-1.229,1.229C26,13,24.75,13,23.979,12.229z"/>
<g>
	<polygon points="16,12.467 14,14.469 14,21.535 16,19.535 	"/>
	<polygon points="11,24.535 13,22.535 13,15.469 11,17.47 	"/>
</g>
<g>
	<polygon points="17,18.535 23.83,11.705 22.416,10.291 17,15.709 	"/>
	<polygon points="17,12.467 17,14.294 21.709,9.584 20.295,8.17 17,11.467 	"/>
	<path d="M10,24.535v-1.824l-0.36,0.36c-0.158,0.136-0.259,0.251-0.37,0.382c-0.097,0.113-0.18,0.211-0.25,0.254l-0.774,0.456
		c-0.342,0.206-0.663,0.384-0.948,0.541c0.165-0.301,0.341-0.617,0.549-0.962l0.436-0.742c0.053-0.088,0.146-0.167,0.288-0.289
		c0.117-0.1,0.233-0.204,0.278-0.263L10,21.296v-2.825l-2.622,2.624c-0.031,0.035-0.068,0.062-0.129,0.114
		c-0.181,0.155-0.456,0.389-0.683,0.764l-0.438,0.745c-0.285,0.472-0.519,0.902-0.744,1.316c-0.404,0.751-0.616,1.201-0.616,1.202
		L3,29l3.765-1.769c0,0,0.449-0.211,1.26-0.647c0.358-0.195,0.786-0.428,1.243-0.704L10,25.45V24.535z"/>
</g>
</svg>
