<?xml version="1.0" encoding="iso-8859-1"?>
<!-- Generator: Adobe Illustrator 19.1.1, SVG Export Plug-In . SVG Version: 6.00 Build 0)  -->
<svg version="1.1" id="Layer_1" xmlns="http://www.w3.org/2000/svg" xmlns:xlink="http://www.w3.org/1999/xlink" x="0px" y="0px"
	 viewBox="0 0 32 32" style="enable-background:new 0 0 32 32;" xml:space="preserve">
<polyline style="fill:none;stroke:#000000;stroke-width:2;stroke-linejoin:round;stroke-miterlimit:10;" points="0,9 5,9 14,18 
	23,20 27,25 "/>
<circle style="fill:none;stroke:#000000;stroke-width:2;stroke-linejoin:round;stroke-miterlimit:10;" cx="27" cy="25" r="3"/>
<path style="fill:none;stroke:#000000;stroke-width:2;stroke-linejoin:round;stroke-miterlimit:10;" d="M14,18c0,0,0.437,6,3,6
	c2.562,0,6-4,6-4"/>
<polyline style="fill:none;stroke:#000000;stroke-width:2;stroke-miterlimit:10;" points="14,18 12,9 30,9 23,20 "/>
<path style="fill:none;stroke:#000000;stroke-width:2;stroke-linejoin:bevel;stroke-miterlimit:10;" d="M27.489,9
	C27.805,8.581,28,8.065,28,7.5C28,6.119,26.881,5,25.5,5c-0.768,0-1.446,0.354-1.905,0.898C23.012,4.775,21.853,4,20.5,4
	c-1.547,0-2.845,1.011-3.307,2.403C16.859,6.153,16.449,6,16,6c-1.105,0-2,0.895-2,2c0,0.366,0.106,0.705,0.277,1H27.489z"/>
</svg>
