<?xml version="1.0" encoding="iso-8859-1"?>
<!-- Generator: Adobe Illustrator 19.1.1, SVG Export Plug-In . SVG Version: 6.00 Build 0)  -->
<svg version="1.1" id="Layer_1" xmlns="http://www.w3.org/2000/svg" xmlns:xlink="http://www.w3.org/1999/xlink" x="0px" y="0px"
	 viewBox="0 0 32 32" style="enable-background:new 0 0 32 32;" xml:space="preserve">
<rect x="3" y="8" style="fill:none;stroke:#000000;stroke-width:2;stroke-miterlimit:10;" width="26" height="16"/>
<path style="fill:none;stroke:#000000;stroke-width:2;stroke-miterlimit:10;" d="M26,15v-0.618C26,13.619,25.381,13,24.618,13
	h-1.236C22.619,13,22,13.619,22,14.382l0,0c0,0.379,0.214,0.725,0.553,0.894l2.894,1.447C25.786,16.893,26,17.239,26,17.618l0,0
	C26,18.381,25.381,19,24.618,19h-1.236C22.619,19,22,18.381,22,17.618V17"/>
<line style="fill:none;stroke:#000000;stroke-width:2;stroke-miterlimit:10;" x1="24" y1="13" x2="24" y2="11"/>
<line style="fill:none;stroke:#000000;stroke-width:2;stroke-miterlimit:10;" x1="24" y1="21" x2="24" y2="19"/>
<path style="fill:none;stroke:#000000;stroke-width:2;stroke-miterlimit:10;" d="M15.5,19h-1c-0.828,0-1.5-0.672-1.5-1.5v-3
	c0-0.828,0.672-1.5,1.5-1.5h1c0.828,0,1.5,0.672,1.5,1.5v3C17,18.328,16.328,19,15.5,19z"/>
<path style="fill:none;stroke:#000000;stroke-width:2;stroke-miterlimit:10;" d="M8.5,19h-1C6.672,19,6,18.328,6,17.5v-3
	C6,13.672,6.672,13,7.5,13h1c0.828,0,1.5,0.672,1.5,1.5v3C10,18.328,9.328,19,8.5,19z"/>
</svg>
