<?xml version="1.0" encoding="iso-8859-1"?>
<!-- Generator: Adobe Illustrator 19.1.0, SVG Export Plug-In . SVG Version: 6.00 Build 0)  -->
<svg version="1.1" id="Layer_1" xmlns="http://www.w3.org/2000/svg" xmlns:xlink="http://www.w3.org/1999/xlink" x="0px" y="0px"
	 viewBox="0 0 32 32" style="enable-background:new 0 0 32 32;" xml:space="preserve">
<line style="fill:none;stroke:#000000;stroke-width:2;stroke-miterlimit:10;" x1="13" y1="12" x2="16" y2="12"/>
<line style="fill:none;stroke:#000000;stroke-width:2;stroke-miterlimit:10;" x1="16" y1="20" x2="13" y2="20"/>
<path style="fill:none;stroke:#000000;stroke-width:2;stroke-miterlimit:10;" d="M3.273,7c0,0,5.9,1.109,9.727,5c0,0-1,1.629-1,4
	s1,4,1,4c-3.797,3.862-9.727,5-9.727,5S2,20.42,2,16S3.273,7,3.273,7z"/>
<line style="fill:none;stroke:#000000;stroke-width:2;stroke-miterlimit:10;" x1="12.009" y1="17.14" x2="9" y2="18"/>
<line style="fill:none;stroke:#000000;stroke-width:2;stroke-miterlimit:10;" x1="12.023" y1="15.006" x2="8" y2="14"/>
<path d="M29.445,5.848c-4.788,0.85-7.913,2.737-9.744,4.192c0.417,0.699,1.108,2.022,1.502,3.629l2.555-0.639l0.485,1.94
	l-2.755,0.689C21.492,15.773,21.5,15.885,21.5,16c0,0.177-0.009,0.352-0.02,0.526l1.794,0.513l-0.55,1.923l-1.569-0.448
	c-0.398,1.512-1.049,2.757-1.45,3.434c1.915,1.509,5.086,3.398,9.738,4.209c0,0,1.556-5.652,1.556-10.156S29.445,5.848,29.445,5.848
	z"/>
<path d="M18.56,11H15v10h3.56c0,0,1.44-2.133,1.44-5S18.56,11,18.56,11z"/>
</svg>
