<?xml version="1.0" encoding="iso-8859-1"?>
<!-- Generator: Adobe Illustrator 19.1.0, SVG Export Plug-In . SVG Version: 6.00 Build 0)  -->
<svg version="1.1" id="Layer_1" xmlns="http://www.w3.org/2000/svg" xmlns:xlink="http://www.w3.org/1999/xlink" x="0px" y="0px"
	 viewBox="0 0 32 32" style="enable-background:new 0 0 32 32;" xml:space="preserve">
<path id="XMLID_38_" style="fill:none;stroke:#000000;stroke-width:2;stroke-miterlimit:10;" d="M7,23c0,0.984,1.328,2,3,2s3-1,3-2"
	/>
<path id="XMLID_37_" style="fill:none;stroke:#000000;stroke-width:2;stroke-miterlimit:10;" d="M13,23c0,0.984,1.328,2,3,2s3-1,3-2
	"/>
<path id="XMLID_36_" style="fill:none;stroke:#000000;stroke-width:2;stroke-miterlimit:10;" d="M19,23c0,0.984,1.328,2,3,2s3-1,3-2
	"/>
<path id="XMLID_35_" style="fill:none;stroke:#000000;stroke-width:2;stroke-miterlimit:10;" d="M25,23c0,0.984,1.328,2,3,2s3-1,3-2
	"/>
<path id="XMLID_34_" style="fill:none;stroke:#000000;stroke-width:2;stroke-miterlimit:10;" d="M1,23c0,0.984,1.328,2,3,2s3-1,3-2"
	/>
<line style="fill:none;stroke:#000000;stroke-width:2;stroke-miterlimit:10;" x1="31" y1="8" x2="1" y2="8"/>
<g>
	<path d="M25,16c0-1.654,1.346-3,3-3h3v-2h-3c-2.757,0-5,2.243-5,5v6h2V16z"/>
	<path d="M13,16c0-1.654,1.346-3,3-3s3,1.346,3,3v6h2v-6c0-2.757-2.243-5-5-5s-5,2.243-5,5v6h2V16z"/>
	<path d="M7,16v6h2v-6c0-2.757-2.243-5-5-5H1v2h3C5.654,13,7,14.346,7,16z"/>
</g>
</svg>
