<?xml version="1.0" encoding="iso-8859-1"?>
<!-- Generator: Adobe Illustrator 19.1.0, SVG Export Plug-In . SVG Version: 6.00 Build 0)  -->
<svg version="1.1" id="Layer_1" xmlns="http://www.w3.org/2000/svg" xmlns:xlink="http://www.w3.org/1999/xlink" x="0px" y="0px"
	 viewBox="4 -4 32 32" style="enable-background:new 4 -4 32 32;" xml:space="preserve">
<circle cx="25" cy="7" r="2"/>
<circle cx="20" cy="6.5" r="1.5"/>
<circle cx="15" cy="7" r="2"/>
<path style="fill:none;stroke:#000000;stroke-width:2;stroke-linejoin:round;stroke-miterlimit:10;" d="M31,20H9v-7l2.572-8.574
	C11.826,3.579,12.605,3,13.488,3h13.024c0.883,0,1.662,0.579,1.916,1.425L31,13V20z"/>
<path d="M9,22h3l1-3H8v2C8,21.552,8.448,22,9,22z"/>
<path d="M28,22h3c0.552,0,1-0.448,1-1v-2h-5L28,22z"/>
<polyline style="fill:none;stroke:#000000;stroke-width:2;stroke-miterlimit:10;" points="33,9 30,10 10,10 7,9 "/>
<circle cx="27.5" cy="13.5" r="1.5"/>
<circle cx="12.5" cy="13.5" r="1.5"/>
<polygon points="16.917,18 17.334,17 22.666,17 23.083,18 25.25,18 24,15 16,15 14.75,18 "/>
</svg>
