<?xml version="1.0" encoding="utf-8"?>
<!-- Generator: Adobe Illustrator 18.0.0, SVG Export Plug-In . SVG Version: 6.00 Build 0)  -->
<svg version="1.1" id="Layer_1" xmlns="http://www.w3.org/2000/svg" xmlns:xlink="http://www.w3.org/1999/xlink" x="0px" y="0px"
	 viewBox="0 0 32 32" enable-background="new 0 0 32 32" xml:space="preserve">
<path fill="none" stroke="#000000" stroke-width="2" stroke-miterlimit="10" d="M12,17v0.5c0,0.8-0.7,1.5-1.5,1.5h0
	C9.7,19,9,18.3,9,17.5v-3c0-0.8,0.7-1.5,1.5-1.5h0c0.8,0,1.5,0.7,1.5,1.5V15"/>
<path fill="none" stroke="#000000" stroke-width="2" stroke-miterlimit="10" d="M15,16h1.5c0.8,0,1.5-0.7,1.5-1.5v0
	c0-0.8-0.7-1.5-1.5-1.5H15v6h1.5c0.8,0,1.5-0.7,1.5-1.5v0c0-0.8-0.7-1.5-1.5-1.5H16"/>
<path fill="none" stroke="#000000" stroke-width="2" stroke-miterlimit="10" d="M21,16h1.5c0.8,0,1.5-0.7,1.5-1.5v0
	c0-0.8-0.7-1.5-1.5-1.5H21v7"/>
<path fill="none" stroke="#000000" stroke-width="2" stroke-miterlimit="10" d="M16,27L16,27c0-1.7,1.3-3,3-3h12V7H19
	c-1.7,0-3,1.3-3,3v0"/>
<path fill="none" stroke="#000000" stroke-width="2" stroke-miterlimit="10" d="M16,10L16,10c0-1.7-1.3-3-3-3H1v17h12
	c1.7,0,3,1.3,3,3v0"/>
<polygon points="23.7,16 21.7,16 23,20 25,20 "/>
</svg>
