<?xml version="1.0" encoding="iso-8859-1"?>
<!-- Generator: Adobe Illustrator 19.1.0, SVG Export Plug-In . SVG Version: 6.00 Build 0)  -->
<svg version="1.1" id="Layer_1" xmlns="http://www.w3.org/2000/svg" xmlns:xlink="http://www.w3.org/1999/xlink" x="0px" y="0px"
	 viewBox="0 0 32 32" style="enable-background:new 0 0 32 32;" xml:space="preserve">
<path style="fill:none;stroke:#000000;stroke-width:2;stroke-miterlimit:10;" d="M27,9c0-2.209-1.791-4-4-4
	c-1.051,0-2.001,0.414-2.715,1.078C19.735,5.424,18.921,5,18,5c-1.357,0-2.49,0.906-2.861,2.142C14.772,7.056,14.394,7,14,7
	c-2.761,0-5,2.239-5,5c0,0.477,0.088,0.93,0.213,1.367C8.489,13.805,8,14.592,8,15.5c0,0.79,0.374,1.486,0.946,1.944
	C8.364,18.139,8,19.023,8,20c0,2.209,1.791,4,4,4c1.258,0,2.367-0.592,3.1-1.501C15.667,22.808,16.308,23,17,23
	c1.938,0,3.553-1.379,3.92-3.208C21.256,19.922,21.618,20,22,20c1.657,0,3-1.343,3-3c0-0.243-0.037-0.477-0.092-0.703
	C25.57,15.747,26,14.928,26,14c0-0.68-0.235-1.301-0.617-1.804C26.359,11.466,27,10.312,27,9z"/>
<line style="fill:none;stroke:#000000;stroke-width:2;stroke-miterlimit:10;" x1="9.062" y1="22.938" x2="4" y2="28"/>
<path style="fill:none;stroke:#000000;stroke-width:2;stroke-miterlimit:10;" d="M19.335,15.752C20.343,16.478,21,17.662,21,19
	c0,2.209-1.791,4-4,4"/>
<path style="fill:none;stroke:#000000;stroke-width:2;stroke-miterlimit:10;" d="M18,5c1.657,0,3,1.343,3,3
	c0,0.653-0.209,1.258-0.563,1.75"/>
<path style="fill:none;stroke:#000000;stroke-width:2;stroke-miterlimit:10;" d="M17,12.5c0,1.381-1.119,2.5-2.5,2.5"/>
</svg>
