<?xml version="1.0" encoding="iso-8859-1"?>
<!-- Generator: Adobe Illustrator 22.1.0, SVG Export Plug-In . SVG Version: 6.00 Build 0)  -->
<svg version="1.1" id="Layer_1_1_" xmlns="http://www.w3.org/2000/svg" xmlns:xlink="http://www.w3.org/1999/xlink" x="0px" y="0px"
	 viewBox="0 0 32 32" style="enable-background:new 0 0 32 32;" xml:space="preserve">
<path d="M8.5,3C11.533,3,14,5.467,14,8.5S11.533,14,8.5,14S3,11.533,3,8.5S5.467,3,8.5,3 M8.5,1C4.375,1,1,4.375,1,8.5
	S4.375,16,8.5,16S16,12.625,16,8.5S12.625,1,8.5,1L8.5,1z"/>
<line style="fill:none;stroke:#000000;stroke-width:2;stroke-miterlimit:10;" x1="6" y1="6" x2="11" y2="11"/>
<line style="fill:none;stroke:#000000;stroke-width:2;stroke-miterlimit:10;" x1="11" y1="6" x2="6" y2="11"/>
<path d="M22,17v-2h-2.142c-0.094-0.363-0.238-0.704-0.425-1.019l1.516-1.516l-1.414-1.414l-1.516,1.516
	c-0.243-0.144-0.506-0.253-0.779-0.342c-0.273,0.64-0.62,1.239-1.02,1.797C17.218,14.133,18,14.972,18,16c0,1.103-0.897,2-2,2
	c-1.027,0-1.867-0.781-1.978-1.78c-0.559,0.4-1.157,0.747-1.797,1.02c0.089,0.273,0.198,0.536,0.342,0.779l-1.516,1.516l1.414,1.414
	l1.516-1.516c0.315,0.186,0.656,0.33,1.019,0.425V22h2v-2.142c0.363-0.094,0.704-0.238,1.019-0.425l1.516,1.516l1.414-1.414
	l-1.516-1.516c0.186-0.316,0.33-0.656,0.425-1.019H22z"/>
<path d="M17.326,5c0.252,0.636,0.434,1.305,0.544,2H25v18H7v-7.13c-0.695-0.11-1.364-0.292-2-0.544V27h22V5H17.326z"/>
</svg>
