<?xml version="1.0" encoding="iso-8859-1"?>
<!-- Generator: Adobe Illustrator 19.1.1, SVG Export Plug-In . SVG Version: 6.00 Build 0)  -->
<svg version="1.1"  xmlns="http://www.w3.org/2000/svg" xmlns:xlink="http://www.w3.org/1999/xlink" x="0px" y="0px"
	 viewBox="0 0 32 32" style="enable-background:new 0 0 32 32;" xml:space="preserve">
<polygon style="fill:none;stroke:#000000;stroke-width:2;stroke-miterlimit:10;" points="5,8 5,22 16,28 27,22 27,8 16,4 "/>
<polyline style="fill:none;stroke:#000000;stroke-width:2;stroke-miterlimit:10;" points="5,8 16,13 27,8 "/>
<line style="fill:none;stroke:#000000;stroke-width:2;stroke-miterlimit:10;" x1="16" y1="28" x2="16" y2="13"/>
<path d="M23.467,20.297c-0.174,0.087-0.348,0.087-0.522,0.087c-0.261,0-0.435-0.087-0.609-0.261
	c-0.174-0.174-0.174-0.435-0.174-0.696c0-0.783,0.522-1.652,1.13-1.913c0.174-0.087,0.348-0.087,0.435-0.087
	c0.522,0,0.783,0.435,0.783,1.043C24.511,19.167,24.076,19.949,23.467,20.297z"/>
<path d="M19.957,17.87c-0.174,0.087-0.348,0.087-0.522,0.087c-0.261,0-0.435-0.087-0.609-0.261
	c-0.174-0.174-0.174-0.435-0.174-0.696c0-0.783,0.522-1.652,1.13-1.913C19.957,15,20.13,15,20.217,15C20.739,15,21,15.435,21,16.043
	C21,16.739,20.565,17.522,19.957,17.87z"/>
<path d="M8.852,20.778C8.704,20.926,8.556,21,8.333,21c-0.148,0-0.296,0-0.444-0.074C7.37,20.63,7,19.963,7,19.296
	c0-0.519,0.296-0.889,0.667-0.889c0.148,0,0.222,0,0.37,0.074C8.556,18.778,9,19.444,9,20.111C9,20.407,8.926,20.63,8.852,20.778z"
	/>
<path d="M13.852,16.37c-0.148,0.148-0.296,0.222-0.519,0.222c-0.148,0-0.296,0-0.444-0.074C12.37,16.222,12,15.556,12,14.889
	C12,14.37,12.296,14,12.667,14c0.148,0,0.222,0,0.37,0.074C13.556,14.37,14,15.037,14,15.704C14,16,13.926,16.222,13.852,16.37z"/>
<path d="M11.308,18.646c-0.148,0.148-0.296,0.222-0.519,0.222c-0.148,0-0.296,0-0.444-0.074c-0.519-0.296-0.889-0.963-0.889-1.63
	c0-0.519,0.296-0.889,0.667-0.889c0.148,0,0.222,0,0.37,0.074c0.519,0.296,0.963,0.963,0.963,1.63
	C11.456,18.276,11.382,18.498,11.308,18.646z"/>
<ellipse cx="16" cy="8" rx="2" ry="1"/>
</svg>
