<?xml version="1.0" encoding="iso-8859-1"?>
<!-- Generator: Adobe Illustrator 19.1.1, SVG Export Plug-In . SVG Version: 6.00 Build 0)  -->
<svg version="1.1" id="Layer_1" xmlns="http://www.w3.org/2000/svg" xmlns:xlink="http://www.w3.org/1999/xlink" x="0px" y="0px"
	 viewBox="0 0 32 32" style="enable-background:new 0 0 32 32;" xml:space="preserve">
<g>
	<path d="M31,14.139h-2.389v3.986c0,0.18-0.069,0.333-0.18,0.458c-0.111,0.111-0.264,0.167-0.444,0.18h-1.389
		c-0.194-0.014-0.347-0.069-0.458-0.18c-0.111-0.125-0.181-0.278-0.181-0.458v-3.986H23.57v4.194
		c0.014,0.556,0.111,1.042,0.347,1.43c0.236,0.389,0.541,0.681,0.944,0.875c0.417,0.194,0.889,0.306,1.43,0.306h2.32v-0.028
		c0.5,0,0.93-0.111,1.292-0.32c0.347-0.223,0.625-0.528,0.806-0.917C30.903,19.291,31,18.833,31,18.333L31,14.139z M7.097,14.389
		c-0.417-0.181-0.875-0.264-1.375-0.25H4.18l-0.597,0.07c-0.139,0.042-0.208,0.069-0.208,0.069v-3.222H1v9.889h2.375v-4
		c0.014-0.167,0.069-0.333,0.194-0.444c0.125-0.111,0.264-0.181,0.458-0.181h1.389c0.167,0,0.319,0.07,0.444,0.181
		c0.125,0.111,0.18,0.278,0.194,0.444v4H8.43v-4.306c0-0.597-0.125-1.083-0.361-1.458C7.819,14.819,7.5,14.556,7.097,14.389z
		 M15.18,18.125c-0.014,0.18-0.069,0.333-0.181,0.458c-0.125,0.111-0.278,0.167-0.458,0.18h-1.389
		c-0.181-0.014-0.333-0.069-0.444-0.18c-0.125-0.125-0.181-0.278-0.194-0.458v-3.986h-2.375v4.194c0,0.556,0.111,1.042,0.333,1.43
		c0.222,0.389,0.542,0.681,0.944,0.875c0.417,0.194,0.875,0.306,1.43,0.306h2.333v-0.028c0.5,0,0.93-0.111,1.278-0.32
		c0.347-0.223,0.625-0.528,0.82-0.917c0.18-0.389,0.278-0.847,0.292-1.347v-4.194H15.18L15.18,18.125L15.18,18.125z M19.375,20.944
		h2.375v-9.889h-2.375V20.944z"/>
</g>
</svg>
