<?xml version="1.0" encoding="iso-8859-1"?>
<!-- Generator: Adobe Illustrator 19.1.0, SVG Export Plug-In . SVG Version: 6.00 Build 0)  -->
<svg version="1.1" id="Layer_1" xmlns="http://www.w3.org/2000/svg" xmlns:xlink="http://www.w3.org/1999/xlink" x="0px" y="0px"
	 viewBox="0 0 32 32" style="enable-background:new 0 0 32 32;" xml:space="preserve">
<circle cx="20.5" cy="17.5" r="1.5"/>
<circle cx="11.5" cy="17.5" r="1.5"/>
<path style="fill:none;stroke:#000000;stroke-width:2;stroke-miterlimit:10;" d="M12.981,25.406c0,0,0.641,2.594,3.019,2.594
	s3.019-2.594,3.019-2.594"/>
<path style="fill:none;stroke:#000000;stroke-width:2;stroke-miterlimit:10;" d="M18.351,27c1.024,0,5.097-0.653,3.941-4.208
	C21.167,19.333,22,18.667,22,16.85c0-0.989-1.267-2.476-1.267-2.476"/>
<path style="fill:none;stroke:#000000;stroke-width:2;stroke-miterlimit:10;" d="M13.649,27c-1.024,0-5.097-0.653-3.941-4.208
	C10.833,19.333,10,18.667,10,16.85c0-1.49,1.54-2.45,1.54-2.45"/>
<path style="fill:none;stroke:#000000;stroke-width:2;stroke-miterlimit:10;" d="M8.919,13.657c0,0-1.919-1.458-1.919-5.344
	C7,6.009,8.595,4,10.215,4c1.199,0,2.005,1.165,1.099,3.313c-1.254,2.973,1.376,4.934,1.376,4.934S13.925,11,16,11
	s3.31,1.246,3.31,1.246s2.631-1.96,1.376-4.934C19.781,5.165,20.587,4,21.785,4C23.405,4,25,6.009,25,8.313
	c0,3.886-1.919,5.344-1.919,5.344"/>
<path style="fill:none;stroke:#000000;stroke-width:2;stroke-miterlimit:10;" d="M14,20.983c0,0,0.844,1.017,2,1.017
	s2-1.017,2-1.017"/>
<line style="fill:none;stroke:#000000;stroke-width:2;stroke-miterlimit:10;" x1="16" y1="25" x2="16" y2="22"/>
</svg>
