<?xml version="1.0" encoding="iso-8859-1"?>
<!-- Generator: Adobe Illustrator 19.1.0, SVG Export Plug-In . SVG Version: 6.00 Build 0)  -->
<svg version="1.1" id="Layer_1" xmlns="http://www.w3.org/2000/svg" xmlns:xlink="http://www.w3.org/1999/xlink" x="0px" y="0px"
	 viewBox="0 0 32 32" style="enable-background:new 0 0 32 32;" xml:space="preserve">
<line style="fill:none;stroke:#000000;stroke-width:2;stroke-miterlimit:10;" x1="21" y1="22" x2="11" y2="22"/>
<path style="fill:none;stroke:#000000;stroke-width:2;stroke-miterlimit:10;" d="M21,23.651c2.986-1.73,5-4.952,5-8.651
	c0-5.523-4.477-10-10-10S6,9.477,6,15c0,3.699,2.014,6.921,5,8.651"/>
<path d="M13,14h6l1.294,5.176C21.346,18.096,22,16.627,22,15c0-3.314-2.686-6-6-6s-6,2.686-6,6c0,1.627,0.654,3.096,1.706,4.176
	L13,14z"/>
<polygon style="fill:none;stroke:#000000;stroke-width:2;stroke-miterlimit:10;" points="19,14 13,14 11,22 11,25 13,25 13,27 
	19,27 19,25 21,25 21,22 "/>
</svg>
