<?xml version="1.0" encoding="iso-8859-1"?>
<!-- Generator: Adobe Illustrator 19.2.0, SVG Export Plug-In . SVG Version: 6.00 Build 0)  -->
<svg version="1.1" id="Layer_1" xmlns="http://www.w3.org/2000/svg" xmlns:xlink="http://www.w3.org/1999/xlink" x="0px" y="0px"
	 viewBox="0 0 32 32" style="enable-background:new 0 0 32 32;" xml:space="preserve">
<polyline style="fill:none;stroke:#000000;stroke-width:2;stroke-miterlimit:10;" points="14.8,2.8 19,7 14.8,11.2 "/>
<g>
	<path d="M8.656,12.843l-1.495-1.495C6.423,12.74,6,14.323,6,16c0,1.5,0.3,2.9,0.9,4.1l1.5-1.5C8.2,17.8,8,16.9,8,16
		C8,14.88,8.235,13.813,8.656,12.843z"/>
	<path d="M10.027,10.705C11.496,9.052,13.628,8,16,8c0.9,0,1.8,0.2,2.6,0.4l1.5-1.5C18.9,6.3,17.5,6,16,6
		c-2.922,0-5.553,1.278-7.385,3.292L10.027,10.705z"/>
</g>
<g>
	<path d="M21.295,21.973l1.412,1.413C24.722,21.553,26,18.922,26,16c0-1.5-0.3-2.9-0.9-4.1l-1.5,1.5c0.3,0.8,0.4,1.7,0.4,2.6
		C24,18.372,22.948,20.504,21.295,21.973z"/>
	<path d="M16,26c1.677,0,3.26-0.423,4.652-1.161l-1.495-1.495C18.187,23.765,17.12,24,16,24c-0.186,0-0.372-0.013-0.557-0.028
		l2.171-2.171l-1.414-1.414L11.586,25l4.907,4.907l1.414-1.414l-2.526-2.526C15.587,25.98,15.793,26,16,26z"/>
</g>
<line style="fill:none;stroke:#000000;stroke-width:2;stroke-miterlimit:10;" x1="3" y1="3" x2="29" y2="29"/>
</svg>
