<?xml version="1.0" encoding="iso-8859-1"?>
<!-- Generator: Adobe Illustrator 19.1.0, SVG Export Plug-In . SVG Version: 6.00 Build 0)  -->
<svg version="1.1" id="Layer_1" xmlns="http://www.w3.org/2000/svg" xmlns:xlink="http://www.w3.org/1999/xlink" x="0px" y="0px"
	 viewBox="0 0 32 32" style="enable-background:new 0 0 32 32;" xml:space="preserve">
<path style="fill:none;stroke:#000000;stroke-width:2;stroke-miterlimit:10;" d="M5,24.172L5,24.172
	c1.557-1.559-0.497-4.978,1.189-6.666c0,0,0.522,1.393,3.653,4.528s4.697,3.744,4.697,3.744c-1.729,1.731-5.166-0.283-6.67,1.222
	l0,0"/>
<line style="fill:none;stroke:#000000;stroke-width:2;stroke-miterlimit:10;" x1="3" y1="3" x2="29" y2="29"/>
<g>
	<path d="M20.266,14.769c0.874-0.046,1.519-0.507,1.473-0.921s-0.782-0.737-1.611-0.645c-0.874,0.092-1.381,0.645-1.749,0.921
		C18.702,14.262,19.162,14.815,20.266,14.769z"/>
	<path d="M18.609,9.839c0,0,0-0.921,0.368-1.29c0-0.138-0.184-0.645-0.552-0.645c-0.368,0-0.69,0.737-0.598,1.336
		C18.425,9.424,18.609,9.839,18.609,9.839z"/>
	<path d="M20.404,8.135c-0.414-0.092-0.874,0.553-1.012,1.382c-0.184,1.06,0.322,1.612,0.46,1.935
		c0.276-0.323,0.92-0.829,1.058-1.659C21.048,8.964,20.818,8.227,20.404,8.135z"/>
	<path d="M19.76,17.671c0.046-0.369-0.46-0.553-0.644-0.553c-0.368,0.369-1.289,0.369-1.289,0.369s0.46,0.23,0.598,0.829
		C19.07,18.362,19.806,18.086,19.76,17.671z"/>
	<path d="M17.229,11.774c-0.092,1.06,0.46,1.566,0.598,1.889c0.23-0.369,0.828-0.921,0.92-1.751s-0.23-1.566-0.644-1.612
		C17.689,10.254,17.229,10.945,17.229,11.774z"/>
	<path d="M20.082,15.368c0,0,0.46,0.23,0.598,0.829c0.644,0.092,1.381-0.23,1.335-0.645c0.046-0.369-0.46-0.553-0.644-0.553
		C21.002,15.368,20.082,15.368,20.082,15.368z"/>
	<path d="M24.362,9.424c-0.092-0.322-0.69-0.369-1.242-0.138c-0.552,0.23-0.828,0.737-1.012,1.014
		c0.23,0.046,0.69,0.322,1.427,0.046C24.132,10.162,24.5,9.701,24.362,9.424z"/>
	<path d="M12.287,13.659c2.836-4.141,3.949-5.036,4.567-5.527l0.082-0.065c1.412-1.126,3.106-1.175,4.745-1.222
		c1.216-0.034,2.365-0.066,3.277-0.586c0.671-0.382,0.812-0.239,0.89-0.162c0.146,0.146,0.224,0.262,0.066,0.619
		c-0.295,0.666-0.368,1.55-0.461,2.668c-0.149,1.806-0.336,4.053-1.625,5.702c-0.481,0.605-1.358,1.697-5.54,4.573l1.436,1.436
		c4.175-2.898,5.121-4.074,5.727-4.836c1.609-2.062,1.832-4.748,1.995-6.709c0.068-0.819,0.139-1.666,0.297-2.025
		c0.467-1.056,0.296-2.065-0.48-2.841c-0.592-0.593-1.645-1.103-3.294-0.163c-0.479,0.272-1.385,0.298-2.345,0.325
		c-1.782,0.051-4,0.114-5.937,1.658l-0.079,0.062c-0.724,0.576-1.905,1.527-4.758,5.655L12.287,13.659z"/>
	<path d="M21.601,8.503c-0.23,0.737,0,1.198,0.046,1.428c0.276-0.184,0.782-0.461,1.012-1.014c0.23-0.553,0.184-1.106-0.092-1.244
		C22.245,7.582,21.831,7.904,21.601,8.503z"/>
	<path d="M22.153,13.34c0,0,0.46,0.23,0.598,0.829c0.644,0.046,1.335-0.23,1.335-0.645c0.046-0.369-0.46-0.553-0.644-0.553
		C23.073,13.34,22.153,13.34,22.153,13.34z"/>
	<path d="M22.521,12.557c0.828-0.092,1.473-0.599,1.381-1.013c-0.092-0.415-0.828-0.645-1.657-0.507
		c-0.828,0.138-1.335,0.783-1.657,1.06C20.91,12.235,21.417,12.742,22.521,12.557z"/>
	<path d="M9.708,13.908c-0.883,1.333-1.895,2.916-3.066,4.814l1.702,1.049c1.066-1.728,1.992-3.181,2.807-4.42L9.708,13.908z"/>
	<path d="M11.661,16.704c-0.46,0-0.874,0.645-0.874,1.474c-0.092,1.06,0.46,1.566,0.598,1.889c0.23-0.369,0.828-0.921,0.92-1.751
		C12.397,17.487,12.075,16.75,11.661,16.704z"/>
	<path d="M15.25,20.251c-0.046-0.415-0.782-0.737-1.611-0.645c-0.874,0.092-1.381,0.645-1.749,0.921
		c0.322,0.184,0.828,0.691,1.887,0.645C14.652,21.126,15.296,20.666,15.25,20.251z"/>
	<path d="M16.598,20.798c-1.238,0.819-2.689,1.751-4.414,2.825l1.057,1.697c1.891-1.177,3.47-2.194,4.8-3.08L16.598,20.798z"/>
	<path d="M15.158,13.847c-0.092,1.06,0.46,1.566,0.598,1.889c0.23-0.369,0.828-0.921,0.92-1.751c0.092-0.829-0.23-1.566-0.644-1.612
		C15.618,12.327,15.158,13.018,15.158,13.847z"/>
	<path d="M16.539,11.866c0,0,0-0.921,0.368-1.29c0-0.138-0.184-0.645-0.552-0.645c-0.368,0-0.69,0.737-0.598,1.336
		C16.355,11.452,16.539,11.866,16.539,11.866z"/>
	<path d="M18.149,16.796c0.874-0.046,1.519-0.507,1.473-0.921s-0.782-0.737-1.611-0.645c-0.874,0.092-1.381,0.645-1.749,0.921
		C16.585,16.335,17.091,16.888,18.149,16.796z"/>
	<path d="M14.422,14.124c0,0,0-0.921,0.368-1.29c0-0.138-0.184-0.645-0.552-0.645c-0.368,0-0.644,0.691-0.598,1.336
		C14.238,13.709,14.422,14.124,14.422,14.124z"/>
	<path d="M17.321,18.132c-0.039-0.347-0.562-0.626-1.216-0.655l1.054,1.054C17.273,18.403,17.336,18.266,17.321,18.132z"/>
	<path d="M14.425,15.797c-0.051-0.609-0.318-1.084-0.648-1.12c-0.117-0.013-0.238,0.035-0.351,0.122L14.425,15.797z"/>
</g>
</svg>
