<?xml version="1.0" encoding="iso-8859-1"?>
<!-- Generator: Adobe Illustrator 19.1.1, SVG Export Plug-In . SVG Version: 6.00 Build 0)  -->
<svg version="1.1" id="Layer_1" xmlns="http://www.w3.org/2000/svg" xmlns:xlink="http://www.w3.org/1999/xlink" x="0px" y="0px"
	 viewBox="0 0 32 32" style="enable-background:new 0 0 32 32;" xml:space="preserve">
<path style="fill:none;stroke:#000000;stroke-width:2;stroke-miterlimit:10;" d="M21.997,29.001c-0.602,0-1.212-0.136-1.786-0.423
	l-12-5c-1.749-0.875-2.609-2.885-2.034-4.754l4.447-15.588l8.118,2.435l-3.487,12.366l8.535,3.385
	c1.976,0.988,2.776,3.391,1.789,5.367C24.877,28.19,23.464,29.001,21.997,29.001z"/>
<line style="fill:none;stroke:#000000;stroke-width:2;stroke-miterlimit:10;" x1="9.613" y1="7.051" x2="17.731" y2="9.486"/>
<path style="fill:none;stroke:#000000;stroke-width:2;stroke-miterlimit:10;" d="M20,28c0-2.961,1.609-5.546,4-6.93"/>
<path style="fill:none;stroke:#000000;stroke-width:2;stroke-miterlimit:10;" d="M10,25c0.628-0.836,1-1.874,1-3
	c0-2.419-1.718-4.437-4-4.9"/>
</svg>
