<?xml version="1.0" encoding="iso-8859-1"?>
<!-- Generator: Adobe Illustrator 19.1.1, SVG Export Plug-In . SVG Version: 6.00 Build 0)  -->
<svg version="1.1" id="Layer_1" xmlns="http://www.w3.org/2000/svg" xmlns:xlink="http://www.w3.org/1999/xlink" x="0px" y="0px"
	 viewBox="-7 9 32 32" style="enable-background:new -7 9 32 32;" xml:space="preserve">
<path d="M18,27.664l-1.471-0.781C16.494,26.863,12.943,25,9,25s-7.494,1.863-7.529,1.883l-1.47,0.781L0,23
	c0-4.579,3.17-6.373,5.484-7.682C7.044,14.435,8,13.851,8,13h2c0,0.851,0.956,1.435,2.516,2.318C14.83,16.627,18,18.421,18,23
	V27.664z M9,23c2.85,0,5.451,0.83,7,1.452V23c0-3.413-2.272-4.698-4.47-5.941c-0.918-0.52-1.854-1.049-2.53-1.737
	c-0.677,0.688-1.612,1.217-2.531,1.737C4.272,18.302,2,19.587,2,23v1.452C3.549,23.83,6.15,23,9,23z"/>
<path style="fill:none;stroke:#000000;stroke-width:2;stroke-miterlimit:10;" d="M22,13c0,0-2-0.043-2,2c0,1.808,0,5,0,5
	s-0.125,2-2,2h-1"/>
<line style="fill:none;stroke:#000000;stroke-width:2;stroke-miterlimit:10;" x1="22" y1="16" x2="20" y2="16"/>
<line style="fill:none;stroke:#000000;stroke-width:2;stroke-miterlimit:10;" x1="22" y1="19" x2="20" y2="19"/>
<path style="fill:none;stroke:#000000;stroke-width:2;stroke-miterlimit:10;" d="M-4,13c0,0,2-0.043,2,2c0,1.808,0,5,0,5
	s0.125,2,2,2h1"/>
<line style="fill:none;stroke:#000000;stroke-width:2;stroke-miterlimit:10;" x1="-4" y1="16" x2="-2" y2="16"/>
<line style="fill:none;stroke:#000000;stroke-width:2;stroke-miterlimit:10;" x1="-4" y1="19" x2="-2" y2="19"/>
<path style="fill:none;stroke:#000000;stroke-width:2;stroke-miterlimit:10;" d="M1,26c0,0-0.943,9-5,9"/>
<path style="fill:none;stroke:#000000;stroke-width:2;stroke-miterlimit:10;" d="M17,26c0,0-1.959,11-8,11S1,26,1,26"/>
<path style="fill:none;stroke:#000000;stroke-width:2;stroke-miterlimit:10;" d="M-3.388,35.188C-3.388,35.188-1.026,37,9,37"/>
<path style="fill:none;stroke:#000000;stroke-width:2;stroke-miterlimit:10;" d="M17,26c0,0,0.943,9,5,9"/>
<path style="fill:none;stroke:#000000;stroke-width:2;stroke-miterlimit:10;" d="M21.388,35.188c0,0-2.362,1.812-12.388,1.812"/>
<path d="M10,28l4-1c0,0-0.25,2-2,2S10,28,10,28z"/>
<path d="M8,28l-4-1c0,0,0.25,2,2,2S8,28,8,28z"/>
</svg>
