<?xml version="1.0" encoding="iso-8859-1"?>
<!-- Generator: Adobe Illustrator 19.1.1, SVG Export Plug-In . SVG Version: 6.00 Build 0)  -->
<svg version="1.1" id="Layer_1" xmlns="http://www.w3.org/2000/svg" xmlns:xlink="http://www.w3.org/1999/xlink" x="0px" y="0px"
	 viewBox="0 0 32 32" style="enable-background:new 0 0 32 32;" xml:space="preserve">
<path style="fill:none;stroke:#000000;stroke-width:2;stroke-miterlimit:10;" d="M27.836,18.903c-0.27,1.058-0.68,2.098-1.262,3.089
	c-0.581,0.991-1.291,1.861-2.087,2.62c-1.019-0.66-2.364-0.755-3.492-0.114c-1.129,0.641-1.718,1.835-1.646,3.034
	c-1.086,0.305-2.213,0.461-3.349,0.46c-1.136,0.008-2.263-0.138-3.349-0.443c0.071-1.199-0.518-2.392-1.646-3.033
	c-1.128-0.641-2.473-0.547-3.492,0.114c-0.796-0.759-1.506-1.629-2.088-2.62c-0.581-0.991-0.992-2.031-1.262-3.089
	c1.09-0.538,1.846-1.637,1.846-2.92c0-1.283-0.756-2.381-1.846-2.92c0.545-2.14,1.689-4.124,3.353-5.707
	c1.019,0.658,2.361,0.752,3.489,0.112c1.127-0.64,1.716-1.832,1.646-3.029c2.225-0.627,4.543-0.61,6.698-0.004
	c-0.072,1.199,0.517,2.392,1.646,3.034c1.129,0.641,2.473,0.547,3.492-0.114c0.796,0.759,1.505,1.629,2.087,2.62
	c0.581,0.991,0.992,2.031,1.262,3.089c-1.09,0.538-1.846,1.637-1.846,2.92c0,1.282,0.756,2.381,1.846,2.92
	c-0.031,0.122-0.083,0.237-0.118,0.358L27.836,18.903z"/>
<polyline style="fill:none;stroke:#000000;stroke-width:2;stroke-miterlimit:10;" points="13,20 13,19 11.05,13 10.95,13 9,19 9,20 
	"/>
<line id="XMLID_61_" style="fill:none;stroke:#000000;stroke-width:2;stroke-miterlimit:10;" x1="9.391" y1="18" x2="12.609" y2="18"/>
<line id="XMLID_62_" style="fill:none;stroke:#000000;stroke-width:2;stroke-miterlimit:10;" x1="22" y1="20" x2="22" y2="12"/>
<path id="XMLID_109_" style="fill:none;stroke:#000000;stroke-width:2;stroke-miterlimit:10;" d="M16,20v-7h1c1.105,0,2,0.895,2,2v0
	c0,1.105-0.895,2-2,2h-1"/>
</svg>
