<?xml version="1.0" encoding="UTF-8" standalone="no"?><!DOCTYPE svg PUBLIC "-//W3C//DTD SVG 1.1//EN" "http://www.w3.org/Graphics/SVG/1.1/DTD/svg11.dtd"><svg width="100%" height="100%" viewBox="0 0 32 32" version="1.1" xmlns="http://www.w3.org/2000/svg" xmlns:xlink="http://www.w3.org/1999/xlink" xml:space="preserve" style="fill-rule:evenodd;clip-rule:evenodd;stroke-linejoin:round;stroke-miterlimit:1.41421;"><g ><path d="M16.5,6c-4.291,0 -8.5,2.492 -8.5,6l0,2c-1.07,0.701 -2,2.363 -2,5c0,3.118 1.946,5.805 4,6l0,-13c0,-2.972 2.711,-4.026 6.5,-4.026c3.789,0 6.5,1.054 6.5,4.026l0,13c2.054,-0.195 4,-2.882 4,-6c0,-2.637 -0.942,-4.345 -2,-5l0,-2c0,-3.508 -4.209,-6 -8.5,-6Zm-6.5,8l0,11c0.32,-0.097 0.726,-0.341 1,-0.536l0.003,-9.9c-0.274,-0.195 -0.683,-0.467 -1.003,-0.564Zm13,0.008c-0.32,0.098 -0.712,0.251 -0.986,0.446l-0.014,10.107c0.274,0.195 0.68,0.342 1,0.439l0,-10.992Zm-6.514,-1.008l-1.486,8l-2,-6l-1,3l0,4l1,-3.992l2,5.992l1.436,-5.998l1.564,5.998l2,-6l1,4l0,-4l-1,-3l-2,6l-1.514,-8Z" style="fill-rule:nonzero;"/></g></svg>