<?xml version="1.0" encoding="iso-8859-1"?>
<!-- Generator: Adobe Illustrator 19.1.1, SVG Export Plug-In . SVG Version: 6.00 Build 0)  -->
<svg version="1.1" id="Layer_1" xmlns="http://www.w3.org/2000/svg" xmlns:xlink="http://www.w3.org/1999/xlink" x="0px" y="0px"
	 viewBox="-7 9 32 32" style="enable-background:new -7 9 32 32;" xml:space="preserve">
<path id="XMLID_12_" style="fill:none;stroke:#000000;stroke-width:2;stroke-miterlimit:10;" d="M5.5,27L5.5,27
	C6.328,27,7,27.672,7,28.5l0,0C7,29.328,6.424,30,5.5,30C4.396,30,4,29.428,4,28.619l0,0"/>
<path id="XMLID_9_" style="fill:none;stroke:#000000;stroke-width:2;stroke-miterlimit:10;" d="M5.5,27L5.5,27
	C6.328,27,7,26.328,7,25.5l0,0C7,24.672,6.424,24,5.5,24C4.396,24,4,24.572,4,25.381l0,0"/>
<line style="fill:none;stroke:#000000;stroke-width:2;stroke-miterlimit:10;" x1="5" y1="27" x2="6" y2="27"/>
<rect x="-1" y="15" style="fill:none;stroke:#000000;stroke-width:2;stroke-miterlimit:10;" width="20" height="20"/>
<line style="fill:none;stroke:#000000;stroke-width:2;stroke-miterlimit:10;" x1="-1" y1="19" x2="19" y2="19"/>
<line style="fill:none;stroke:#000000;stroke-width:2;stroke-miterlimit:10;" x1="15" y1="17" x2="15" y2="13"/>
<line style="fill:none;stroke:#000000;stroke-width:2;stroke-miterlimit:10;" x1="3" y1="17" x2="3" y2="13"/>
<path style="fill:none;stroke:#000000;stroke-width:2;stroke-miterlimit:10;" d="M12.5,24L12.5,24c-0.828,0-1.5,0.672-1.5,1.5v3
	c0,0.828,0.672,1.5,1.5,1.5l0,0c0.828,0,1.5-0.672,1.5-1.5v-3C14,24.672,13.328,24,12.5,24z"/>
</svg>
