<?xml version="1.0" encoding="iso-8859-1"?>
<!-- Generator: Adobe Illustrator 19.2.0, SVG Export Plug-In . SVG Version: 6.00 Build 0)  -->
<svg version="1.1" id="Layer_1" xmlns="http://www.w3.org/2000/svg" xmlns:xlink="http://www.w3.org/1999/xlink" x="0px" y="0px"
	 viewBox="0 0 32 32" style="enable-background:new 0 0 32 32;" xml:space="preserve">
<circle style="fill:none;stroke:#000000;stroke-width:2;stroke-linecap:round;stroke-linejoin:round;stroke-miterlimit:10;" cx="8.5" cy="14.5" r="2.5"/>
<polyline style="fill:none;stroke:#000000;stroke-width:2;stroke-miterlimit:10;" points="14,4 14,13.6 14,17 11.6,25.6 "/>
<path d="M21.825,16.792L25.327,28h2.096l-3.689-11.805c-0.592-1.894-2.249-3.259-4.2-3.475l-5.403-0.711l-0.261,1.982l5.423,0.714
	C20.476,14.837,21.47,15.656,21.825,16.792z"/>
<path d="M18.563,18.859c0.167,0.242,0.219,0.531,0.146,0.816L16.589,28h2.064l1.995-7.832c0.214-0.841,0.054-1.734-0.441-2.448
	c-0.494-0.714-1.272-1.178-2.135-1.273l-3.962-0.44l-0.221,1.987l3.962,0.441C18.144,18.467,18.396,18.617,18.563,18.859z"/>
</svg>
