<?xml version="1.0" encoding="iso-8859-1"?>
<!-- Generator: Adobe Illustrator 19.1.0, SVG Export Plug-In . SVG Version: 6.00 Build 0)  -->
<svg version="1.1" id="Layer_1" xmlns="http://www.w3.org/2000/svg" xmlns:xlink="http://www.w3.org/1999/xlink" x="0px" y="0px"
	 viewBox="0 0 32 32" style="enable-background:new 0 0 32 32;" xml:space="preserve">
<path style="fill:none;stroke:#000000;stroke-width:2;stroke-miterlimit:10;" d="M12.734,15.349L10.51,5.442
	c-0.244-1.077,0.432-2.148,1.509-2.392l0,0c1.077-0.244,2.148,0.432,2.392,1.509l2.489,9.587h0.2l1.777-8.515
	c0.212-1.084,1.263-1.791,2.347-1.579l0,0c1.084,0.212,1.791,1.263,1.579,2.347l-1.823,9.129"/>
<path style="fill:none;stroke:#000000;stroke-width:2;stroke-miterlimit:10;" d="M20.98,15.529l1.055-5.204
	c0.212-1.084,1.263-1.791,2.347-1.579c1.084,0.212,1.791,1.263,1.579,2.347L25,16v7c0,3.314-2.686,6-6,6h-4.625
	c-1.596,0-2.954-0.774-3.998-1.814l-6.791-6.772c-0.781-0.781-0.781-2.047,0-2.828c0.781-0.781,2.047-0.781,2.828,0L9,20.172v-3.268
	L7.05,8.275C6.806,7.198,7.482,6.127,8.559,5.883l0,0c1.077-0.244,2.148,0.432,2.392,1.509l1.783,7.957"/>
</svg>
