<?xml version="1.0" encoding="iso-8859-1"?>
<!-- Generator: Adobe Illustrator 19.1.1, SVG Export Plug-In . SVG Version: 6.00 Build 0)  -->
<svg version="1.1" id="Layer_1" xmlns="http://www.w3.org/2000/svg" xmlns:xlink="http://www.w3.org/1999/xlink" x="0px" y="0px"
	 viewBox="0 0 32 32" style="enable-background:new 0 0 32 32;" xml:space="preserve">
<line style="fill:none;stroke:#000000;stroke-width:2;stroke-miterlimit:10;" x1="16" y1="13.097" x2="16" y2="8.597"/>
<polyline style="fill:none;stroke:#000000;stroke-width:2;stroke-miterlimit:10;" points="12,6.43 16,8.597 20,6.43 "/>
<polygon style="fill:none;stroke:#000000;stroke-width:2;stroke-miterlimit:10;" points="16,4.208 12,6.43 12,10.569 16,12.792 
	20,10.569 20,6.43 "/>
<line style="fill:none;stroke:#000000;stroke-width:2;stroke-miterlimit:10;" x1="8" y1="25" x2="8" y2="20.5"/>
<polyline style="fill:none;stroke:#000000;stroke-width:2;stroke-miterlimit:10;" points="4,18.333 8,20.5 12,18.333 "/>
<polygon style="fill:none;stroke:#000000;stroke-width:2;stroke-miterlimit:10;" points="8,16.111 4,18.333 4,22.472 8,24.694 
	12,22.472 12,18.333 "/>
<line style="fill:none;stroke:#000000;stroke-width:2;stroke-miterlimit:10;" x1="24" y1="25" x2="24" y2="20.5"/>
<polyline style="fill:none;stroke:#000000;stroke-width:2;stroke-miterlimit:10;" points="20,18.333 24,20.5 28,18.333 "/>
<polygon style="fill:none;stroke:#000000;stroke-width:2;stroke-miterlimit:10;" points="24,16.111 20,18.333 20,22.472 24,24.694 
	28,22.472 28,18.333 "/>
<polygon style="fill:none;stroke:#000000;stroke-width:2;stroke-miterlimit:10;" points="8,16.111 4,18.333 4,22.472 8,24.694 
	12,22.472 12,18.333 "/>
<polygon style="fill:none;stroke:#000000;stroke-width:2;stroke-miterlimit:10;" points="24,16.111 20,18.333 20,22.472 24,24.694 
	28,22.472 28,18.333 "/>
<polygon points="22,8.34 22,10.601 25,12.186 25,17 27,17 27,10.98 "/>
<polygon points="10,8.34 5,10.98 5,17 7,17 7,12.186 10,10.601 "/>
<g>
	<polygon points="19.737,24.613 16,26.689 12.263,24.613 10.204,25.757 16,28.977 21.796,25.757 	"/>
</g>
</svg>
