<?xml version="1.0" encoding="iso-8859-1"?>
<!-- Generator: Adobe Illustrator 19.1.0, SVG Export Plug-In . SVG Version: 6.00 Build 0)  -->
<svg version="1.1" id="Layer_1" xmlns="http://www.w3.org/2000/svg" xmlns:xlink="http://www.w3.org/1999/xlink" x="0px" y="0px"
	 viewBox="0 0 32 32" style="enable-background:new 0 0 32 32;" xml:space="preserve">
<line style="fill:none;stroke:#000000;stroke-width:2;stroke-miterlimit:10;" x1="3" y1="3" x2="29" y2="29"/>
<g>
	<polygon points="12.925,14.296 18.9,6 19,6 16,15 21,16 18.188,19.56 19.612,20.984 22.569,17.24 24.592,14.679 21.392,14.039 
		18.614,13.483 20.897,6.632 21.775,4 19,4 18.9,4 17.876,4 17.277,4.831 11.492,12.864 	"/>
	<polygon points="16.94,21.14 13.1,26 13,26 15.393,19.593 13.211,17.411 11,16.969 11.741,15.94 10.308,14.508 9.377,15.8 
		7.562,18.321 10.608,18.93 13.305,19.469 11.126,25.3 10.118,28 13,28 13.1,28 14.069,28 14.669,27.24 18.364,22.564 	"/>
</g>
</svg>
