<?xml version="1.0" encoding="iso-8859-1"?>
<!-- Generator: Adobe Illustrator 19.1.0, SVG Export Plug-In . SVG Version: 6.00 Build 0)  -->
<svg version="1.1" id="Layer_1" xmlns="http://www.w3.org/2000/svg" xmlns:xlink="http://www.w3.org/1999/xlink" x="0px" y="0px"
	 viewBox="0 0 32 32" style="enable-background:new 0 0 32 32;" xml:space="preserve">
<circle cx="26" cy="8" r="1"/>
<circle cx="23.5" cy="8.9" r="1"/>
<circle cx="19.7" cy="10.5" r="1"/>
<circle cx="17.4" cy="11.5" r="1"/>
<g>
	<polygon points="23,17.9 23,27 25,27 25,17.1 	"/>
	<path d="M14,20.9V27h2v-6.4C15.4,20.8,14.7,20.9,14,20.9z"/>
	<path d="M5,16.4V27h2v-8.1C6.2,18.2,5.5,17.4,5,16.4z"/>
</g>
<g>
	<path d="M21.4,10.6L17,12.5c-1,0.4-1.4,1.6-1,2.5l0.1,0.3c0.2,0.4,0.6,0.6,1,0.4l4.8-2.1c0.3-0.1,0.4-0.5,0.3-0.7L21.4,10.6z"/>
	<path d="M22.3,10.2l0.9,2.2c0.1,0.3,0.5,0.4,0.8,0.3l3-1.3V8.2L22.3,10.2z"/>
</g>
<path style="fill:none;stroke:#000000;stroke-width:2;stroke-linejoin:round;stroke-miterlimit:10;" d="M12.5,6
	c1.6,0,3.1,0.6,4.3,1.6"/>
<path d="M27,12.919L17.8,16.9c0,0-2.2,1.1-5.3,1.1c-3,0-5.5-2.5-5.5-5.5S9.5,7,12.5,7V5C8.4,5,5,8.4,5,12.5c0,4.1,3.4,7.5,7.5,7.5
	c3.7,0,5.573-1.017,6.2-1.3l8.3-3.561V12.919z"/>
</svg>
