<?xml version="1.0" encoding="iso-8859-1"?>
<!-- Generator: Adobe Illustrator 19.1.0, SVG Export Plug-In . SVG Version: 6.00 Build 0)  -->
<svg version="1.1" id="Layer_1" xmlns="http://www.w3.org/2000/svg" xmlns:xlink="http://www.w3.org/1999/xlink" x="0px" y="0px"
	 viewBox="0 0 32 32" style="enable-background:new 0 0 32 32;" xml:space="preserve">
<line style="fill:none;stroke:#000000;stroke-width:2;stroke-miterlimit:10;" x1="27" y1="26" x2="5" y2="26"/>
<line style="fill:none;stroke:#000000;stroke-width:2;stroke-miterlimit:10;" x1="27" y1="6" x2="5" y2="6"/>
<path d="M12.279,24l13.196-7.12c0.486-0.262,0.667-0.869,0.405-1.354c-0.262-0.486-0.869-0.667-1.355-0.405L8.068,24H12.279z"/>
<path d="M19.721,8L6.525,15.12c-0.486,0.262-0.667,0.869-0.405,1.354c0.262,0.486,0.869,0.667,1.355,0.405L23.932,8H19.721z"/>
<g>
	<polygon points="16.978,10.559 12.194,8 7.956,8 14.868,11.698 	"/>
	<polygon points="16.982,12.829 21.844,15.431 23.954,14.292 19.092,11.691 	"/>
</g>
<g>
	<polygon points="17.027,20.245 10.156,16.569 8.046,17.708 14.917,21.384 	"/>
	<polygon points="17.031,22.515 19.806,24 24.044,24 19.141,21.377 	"/>
</g>
</svg>
