<?xml version="1.0" encoding="iso-8859-1"?>
<!-- Generator: Adobe Illustrator 19.1.1, SVG Export Plug-In . SVG Version: 6.00 Build 0)  -->
<svg version="1.1" id="Layer_1" xmlns="http://www.w3.org/2000/svg" xmlns:xlink="http://www.w3.org/1999/xlink" x="0px" y="0px"
	 viewBox="0 0 32 32" style="enable-background:new 0 0 32 32;" xml:space="preserve">
<path style="fill:none;stroke:#000000;stroke-width:2;stroke-miterlimit:10;" d="M11,28V15c0-2.75,2.25-5,5-5h0c2.75,0,5,2.25,5,5
	v13H11z"/>
<line style="fill:none;stroke:#000000;stroke-width:2;stroke-miterlimit:10;" x1="11" y1="24" x2="21" y2="24"/>
<path style="fill:none;stroke:#000000;stroke-width:2;stroke-miterlimit:10;" d="M16,4L16,4c1.1,0,2,0.9,2,2v0c0,1.1-0.9,2-2,2h0
	c-1.1,0-2-0.9-2-2v0C14,4.9,14.9,4,16,4z"/>
<rect x="15" y="8" style="fill:none;stroke:#000000;stroke-width:2;stroke-miterlimit:10;" width="2" height="2"/>
<line style="fill:none;stroke:#000000;stroke-width:2;stroke-miterlimit:10;" x1="20" y1="6" x2="18" y2="6"/>
<line style="fill:none;stroke:#000000;stroke-width:2;stroke-miterlimit:10;" x1="9" y1="6" x2="14" y2="6"/>
<polygon style="fill:none;stroke:#000000;stroke-width:2;stroke-miterlimit:10;" points="10,5 10,7 11,7 12,6 11,5 "/>
</svg>
