<?xml version="1.0" encoding="iso-8859-1"?>
<!-- Generator: Adobe Illustrator 19.1.0, SVG Export Plug-In . SVG Version: 6.00 Build 0)  -->
<svg version="1.1" id="Layer_1" xmlns="http://www.w3.org/2000/svg" xmlns:xlink="http://www.w3.org/1999/xlink" x="0px" y="0px"
	 viewBox="0 0 32 32" style="enable-background:new 0 0 32 32;" xml:space="preserve">
<circle cx="16" cy="6" r="2"/>
<circle cx="14" cy="24" r="2"/>
<circle cx="24" cy="9" r="2"/>
<circle cx="6" cy="16" r="2"/>
<circle cx="26" cy="20" r="2"/>
<circle cx="16" cy="14" r="2"/>
<circle cx="20" cy="16" r="1"/>
<circle cx="6.95" cy="22.925" r="2"/>
<line style="fill:none;stroke:#000000;stroke-width:2;stroke-miterlimit:10;" x1="22" y1="11" x2="23.5" y2="9.5"/>
<line style="fill:none;stroke:#000000;stroke-width:2;stroke-miterlimit:10;" x1="7.637" y1="22.238" x2="10" y2="19.875"/>
<line style="fill:none;stroke:#000000;stroke-width:2;stroke-miterlimit:10;" x1="26" y1="20" x2="23" y2="18.8"/>
<line style="fill:none;stroke:#000000;stroke-width:2;stroke-miterlimit:10;" x1="16" y1="6" x2="16" y2="9"/>
<path d="M23,13c-0.221,0-0.43,0.044-0.629,0.111C22.771,13.992,23,14.969,23,16c0,0.338-0.032,0.667-0.078,0.992
	C22.948,16.993,22.973,17,23,17c1.105,0,2-0.895,2-2C25,13.895,24.105,13,23,13z"/>
<line style="fill:none;stroke:#000000;stroke-width:2;stroke-miterlimit:10;" x1="3" y1="3" x2="29" y2="29"/>
<rect style="fill:none;" width="32" height="32"/>
<line style="fill:none;stroke:#000000;stroke-width:2;stroke-miterlimit:10;" x1="6" y1="16" x2="9" y2="16"/>
<g>
	<path d="M17.582,21.782C17.077,21.92,16.548,22,16,22c-3.309,0-6-2.691-6-6c0-0.548,0.08-1.077,0.218-1.582l-1.569-1.569
		C8.233,13.817,8,14.881,8,16c0,4.411,3.589,8,8,8c0.697,0,1.37-0.099,2.016-0.267l0.416,1.04C18.165,25.112,18,25.535,18,26
		c0,1.105,0.895,2,2,2c1.042,0,1.889-0.8,1.982-1.818L17.582,21.782z"/>
	<path d="M11.133,12.505C12.223,10.991,13.996,10,16,10c3.309,0,6,2.691,6,6c0,2.004-0.991,3.777-2.505,4.867l1.422,1.422
		C22.788,20.824,24,18.555,24,16c0-4.411-3.589-8-8-8c-2.555,0-4.828,1.208-6.294,3.078L11.133,12.505z"/>
	<path d="M13,19c0.493,0,0.885-0.364,0.966-0.834l-1.133-1.133C12.364,17.115,12,17.507,12,18C12,18.552,12.448,19,13,19z"/>
</g>
<path d="M8.583,9.955C8.718,9.984,8.857,10,9,10c1.105,0,2-0.895,2-2c0-1.105-0.895-2-2-2S7,6.895,7,8
	c0,0.143,0.016,0.282,0.045,0.417L8.583,9.955z"/>
</svg>
