<?xml version="1.0" encoding="iso-8859-1"?>
<!-- Generator: Adobe Illustrator 21.0.2, SVG Export Plug-In . SVG Version: 6.00 Build 0)  -->
<svg version="1.1" id="Layer_1" xmlns="http://www.w3.org/2000/svg" xmlns:xlink="http://www.w3.org/1999/xlink" x="0px" y="0px"
	 viewBox="0 0 32 32" style="enable-background:new 0 0 32 32;" xml:space="preserve">
<path style="fill:none;stroke:#000000;stroke-width:2;stroke-miterlimit:10;" d="M1,12c0,0,0,3,1,5h7.5C7,13,3,12,1,12z"/>
<path style="fill:none;stroke:#000000;stroke-width:2;stroke-miterlimit:10;" d="M31,12c0,0,0,3-1,5h-7.5C25,13,29,12,31,12z"/>
<path style="fill:none;stroke:#000000;stroke-width:2;stroke-miterlimit:10;" d="M13.037,17h5.927C19.387,10,16,5,16,5
	S12.613,10,13.037,17z"/>
<path d="M27.92,22H4.08c0.661,0.736,1.381,1.399,2.116,2h19.607C26.539,23.399,27.259,22.736,27.92,22z"/>
<path d="M2,19c0.355,0.71,0.784,1.374,1.257,2h25.486c0.473-0.626,0.902-1.29,1.257-2H2z"/>
<path d="M19,28c0,0,2.662-1.004,5.49-3H19C19,25,19,26,19,28z"/>
<path d="M7.51,25c2.828,1.996,5.49,3,5.49,3c0-2,0-3,0-3H7.51z"/>
<path d="M13.75,25c1,2,2.25,3,2.25,3s1.25-1,2.25-3H13.75z"/>
</svg>
