<?xml version="1.0" encoding="iso-8859-1"?>
<!-- Generator: Adobe Illustrator 19.1.1, SVG Export Plug-In . SVG Version: 6.00 Build 0)  -->
<svg version="1.1" id="Layer_1" xmlns="http://www.w3.org/2000/svg" xmlns:xlink="http://www.w3.org/1999/xlink" x="0px" y="0px"
	 viewBox="0 0 32 32" style="enable-background:new 0 0 32 32;" xml:space="preserve">
<path d="M27.137,12.644c0,0,0.354-0.113,0.426-0.129c0.072-0.016,0.459-0.85,0.436-0.934c-0.024-0.09-0.437-0.275-0.902-0.296
	c-0.179,0.051-0.592,0.183-0.592,0.183s0.275-0.591,0.228-0.723c-0.03-0.084-0.735-0.215-0.907-0.143
	c-0.11,0.047-0.494,0.312-0.474,0.257c0.078-0.216,0.041-0.515,0.041-0.515s-0.171-0.084-0.339-0.084
	c-0.168,0-0.359,0.048-0.359,0.048l-2.271,1.82c0,0-0.078-0.083-0.108-0.118c-0.105,0.169-0.753,0.536-0.954,0.576
	s-2.037-0.001-3.283,0.379l-0.245-0.579l-0.203-0.024l0.112-0.869c0,0-0.022-0.064-0.088-0.064c-0.071,0-0.382,0.336-0.382,0.336
	l0.551-1.26c0,0-0.007-0.201-0.096-0.201c-0.15,0-0.765,0.602-0.765,0.602L17.59,9.91c0,0,0.072-0.533-0.152-0.432
	c-0.123,0.056-0.631,0.474-0.631,0.474l1.549-2.041c0,0,0.113-0.396-0.09-0.366c-0.16,0.024-1.358,1.138-1.358,1.138l1.649-1.881
	c0,0,0.143-0.466-0.024-0.41c-0.375,0.126-2.108,1.535-2.108,1.535s2.507-2.408,2.566-2.476C19.059,5.37,19.089,5,18.925,5
	c-0.505,0-6.547,4.42-6.547,6.454c0,0.557,2.51,0.826,2.51,2.366c0,0.096,0.012,0.263-0.008,0.367C13.74,14.46,12,15.44,12,16.856
	c0,0.466,0.121,0.709,0.258,0.835c0,0.772,0.892,1.191,1.213,1.191c0,0-0.25-0.289-0.25-0.675c0-0.386,1.497-0.981,1.497-0.981
	l1.231-0.016c0,0,0.338,0.016,0.338,1.11c0,1.093-0.966,1.672-0.966,2.58s5.872,1.937,7.183,2.05c1.311,0.113,2.1,0,2.1,0
	l0.049-0.064c0,0-0.145-0.193-0.217-0.249c-0.072-0.056-0.346-0.16-0.683-0.225c-0.26-0.049-2.443-0.548-3.155-0.708
	c0.776,0.135,2.842,0.265,2.842,0.265l0.041-0.048c0,0-0.161-0.249-0.273-0.289c-0.113-0.041-0.209-0.152-0.443-0.193
	c-0.234-0.041-2.284-0.675-1.93-0.571c0.354,0.105,1.818,0.234,1.802,0.16c-0.016-0.072-0.185-0.249-0.25-0.306
	c-0.064-0.056-0.515-0.201-0.66-0.249c-0.145-0.048-1.657-0.651-1.657-0.651s0.683,0.049,0.719-0.028
	c-0.024-0.129-0.018-0.215-0.144-0.299c-0.087-0.058-0.878-0.442-0.878-0.442l0.729-0.011c0,0,0.06-0.127,0-0.181
	c-0.269-0.239-1.19-0.813-1.19-0.813l0.506,0.085l0.016-0.201l-0.571-0.651l0.113-0.121c0,0-0.07-0.516-0.07-0.593
	c1.047-0.209,2.026-1.113,2.948-1.641c0.289-0.166,1.048-0.358,1.048-0.358l-0.071-0.204c0,0,2.964,0.242,3.036,0.242
	c0.072,0,0.579-0.402,0.579-0.458s-0.338-0.37-0.338-0.37s0.619-0.041,0.66-0.056c0.041-0.016,0.587-0.546,0.587-0.635
	C27.749,12.998,27.137,12.644,27.137,12.644z M13.1,17.041c-0.116,0-0.209-0.093-0.209-0.209c0-0.115,0.093-0.209,0.209-0.209
	c0.116,0,0.209,0.093,0.209,0.209C13.309,16.947,13.215,17.041,13.1,17.041z"/>
<path style="fill:none;stroke:#000000;stroke-width:2;stroke-miterlimit:10;" d="M20.939,25.865v-0.046
	C20.309,25.931,19.663,26,19,26c-6.075,0-11-4.925-11-11c0-4.297,2.408-8.148,6-9.959V5c-5.149,0.917-9,5.588-9,11
	c0,6.075,4.925,11,11,11C16,27,19.157,27.055,20.939,25.865z"/>
</svg>
