<?xml version="1.0" encoding="iso-8859-1"?>
<!-- Generator: Adobe Illustrator 21.1.0, SVG Export Plug-In . SVG Version: 6.00 Build 0)  -->
<svg version="1.1" id="Layer_1" xmlns="http://www.w3.org/2000/svg" xmlns:xlink="http://www.w3.org/1999/xlink" x="0px" y="0px"
	 viewBox="0 0 32 32" style="enable-background:new 0 0 32 32;" xml:space="preserve">
<path style="fill:none;stroke:#000000;stroke-width:2;stroke-linejoin:round;stroke-miterlimit:10;" d="M21.338,7.815
	c-0.558-0.247-1.132-0.458-1.713-0.649c0.385-0.388,1.285-1.415,1.285-2.532C20.91,3.924,20.287,3,18.726,3
	c-2.867,0-2.509,2.594-2.306,3.472c-1.857-0.175-3.643,0.064-5.347,0.728c-0.126-0.665-0.701-4.061-3.427-2.95
	C4.645,5.473,6.443,8.397,7.824,9.062c-3.271,2.583-5.589,7.107-4.589,11.265c0.91,3.781,4.271,6.241,8.064,7.088
	c5.291,1.181,12.631,0.892,16.077-3.884C31.498,17.818,27.145,10.389,21.338,7.815z"/>
<path style="fill:none;stroke:#000000;stroke-width:2;stroke-linejoin:round;stroke-miterlimit:10;" d="M20,19.471
	C20,17.261,18.579,15,15.5,15S11,17.261,11,19.471S13.015,23,15.5,23S20,21.68,20,19.471z"/>
<circle cx="14" cy="19" r="1"/>
<circle cx="17" cy="19" r="1"/>
<circle cx="21" cy="18" r="1"/>
<circle cx="10" cy="18" r="1"/>
<ellipse style="fill:none;stroke:#000000;stroke-width:2;stroke-linejoin:round;stroke-miterlimit:10;" cx="22" cy="17.5" rx="2" ry="2.5"/>
<ellipse style="fill:none;stroke:#000000;stroke-width:2;stroke-linejoin:round;stroke-miterlimit:10;" cx="9" cy="17.5" rx="2" ry="2.5"/>
</svg>
