<?xml version="1.0" encoding="iso-8859-1"?>
<!-- Generator: Adobe Illustrator 22.1.0, SVG Export Plug-In . SVG Version: 6.00 Build 0)  -->
<svg version="1.1" id="Layer_1" xmlns="http://www.w3.org/2000/svg" xmlns:xlink="http://www.w3.org/1999/xlink" x="0px" y="0px"
	 viewBox="0 0 32 32" style="enable-background:new 0 0 32 32;" xml:space="preserve">
<path d="M17,4c0,0,2,3,2,6c0,0,5.176,1.381,5.762,4C24.762,14,27.117,10.067,17,4L17,4z"/>
<path d="M15.152,10.4c0.49,1.034,0.55,2.458,0.598,3.1L13,12c0-2-1-4-1-4L15.152,10.4z"/>
<path d="M9.329,12.8c0.326,0.816,0.68,2.102,0.871,3L8,14c-1-2-2-3-2-3L9.329,12.8z"/>
<path d="M15.987,9c0,0,11.118,8.589,11.88,11.69c0.571,2.339-0.88,5.31-0.88,5.31s-0.599-2.066-5-2c-3.278,0.049-8.78,0.415-18,4
	c2.203-2.475,3.326-5.399,3-8.799c-0.136-1.387-0.402-3.004-1-4.201l4.999,3c0,0-0.027,0.518,0,0.6
	C10.959,21.437,10.435,23.016,10,24c1-1.75,1.875-2.875,2-6c0-2-0.374-3.613-1-5l5.932,3.456c0.027,0.19,0.027,0.353,0.055,0.544
	c0,2.4-0.57,4.315-1.169,6.355C17.097,20.962,17.987,19,17.987,15C18,12,16.966,10.714,15.987,9L15.987,9z"/>
</svg>
