<?xml version="1.0" encoding="utf-8"?>
<!-- Generator: Adobe Illustrator 18.1.1, SVG Export Plug-In . SVG Version: 6.00 Build 0)  -->
<svg version="1.1" id="Layer_1" xmlns="http://www.w3.org/2000/svg" xmlns:xlink="http://www.w3.org/1999/xlink" x="0px" y="0px"
	 viewBox="0 0 32 32" enable-background="new 0 0 32 32" xml:space="preserve">
<path fill="none" stroke="#000000" stroke-width="2" stroke-linejoin="round" stroke-miterlimit="10" d="M26.5,6.7
	c-2.4,1.6-2.5,6.6-4.7,9c-2.3,2.4-5,2.7-6,3.5c-1,0.8-2.9,2.8-4.8,2.8c-1.1,0-2.3-0.9-2.4-2.1c-0.3-3,5.2-5,5.2-5s2.2-3,2.9-3.6
	c0,0-3,0.8-4.3-0.4c0,0-1.1,2.1-2.9,2.5c0,0,0.5,0.7,0.7,2.1c0,0,0.5,0.5,0.6,0.9"/>
<path fill="none" stroke="#000000" stroke-width="2" stroke-linejoin="round" stroke-miterlimit="10" d="M8.3,19.7
	c-1.5-2.4-2.9-6.7-2.9-7.1c0-1.1,2.9-5.4,3.6-6s8.3-2.9,9.5-3.6"/>
<path fill="none" stroke="#000000" stroke-width="2" stroke-linecap="round" stroke-linejoin="round" stroke-miterlimit="10" d="
	M8.5,19.7C7.6,20.7,7,22,7,23.5c0,3,2.5,5.5,5.5,5.5s5.5-2.5,5.5-5.5c0-1.7-0.8-3.3-2.1-4.3"/>
</svg>
