<?xml version="1.0" encoding="iso-8859-1"?>
<!-- Generator: Adobe Illustrator 19.1.1, SVG Export Plug-In . SVG Version: 6.00 Build 0)  -->
<svg version="1.1" id="Layer_1" xmlns="http://www.w3.org/2000/svg" xmlns:xlink="http://www.w3.org/1999/xlink" x="0px" y="0px"
	 viewBox="0 0 32 32" style="enable-background:new 0 0 32 32;" xml:space="preserve">
<path style="fill:none;stroke:#000000;stroke-width:2.008;stroke-miterlimit:10;" d="M24.639,6.847l1.122-1.133l-2.265-2.265
	c0,0-1.247,1.251-1.261,1.265"/>
<path style="fill:none;stroke:#000000;stroke-width:2.008;stroke-miterlimit:10;" d="M18.548,8.402L1.472,26.285
	c-0.598,0.599-0.632,1.558-0.077,2.197l0,0c0.614,0.707,1.698,0.744,2.359,0.082l16.989-17.821"/>
<path style="fill:none;stroke:#000000;stroke-width:2.0076;stroke-linecap:round;stroke-miterlimit:10;" d="M21.088,3.433
	l-3.603,3.603c0,0,1.722,1.722,4.387,4.387s3.202,5.431,3.202,5.431s1.802-0.375,3.603-2.177c1.802-1.802,2.177-3.344,2.177-3.344
	s-2.639-0.773-5.416-3.551S21.088,3.433,21.088,3.433z"/>
</svg>
