<?xml version="1.0" encoding="iso-8859-1"?>
<!-- Generator: Adobe Illustrator 19.1.0, SVG Export Plug-In . SVG Version: 6.00 Build 0)  -->
<svg version="1.1" id="Layer_1" xmlns="http://www.w3.org/2000/svg" xmlns:xlink="http://www.w3.org/1999/xlink" x="0px" y="0px"
	 viewBox="0 0 32 32" style="enable-background:new 0 0 32 32;" xml:space="preserve">
<path style="fill:none;stroke:#000000;stroke-width:2;stroke-miterlimit:10;" d="M4,12h2c0,0,0.594,2,3,2h5c1.105,0,2-0.895,2-2v0
	c0-1.105-0.895-2-2-2h-2.106c-1.058,0-1.049-0.845-0.555-1.339l0.336-0.36l3.511,1.362l1.768,2.096
	c0.596,0.707,1.628,0.853,2.397,0.34l0,0c0.887-0.591,1.077-1.815,0.411-2.647L17,6l-4.336-1.857c-0.424-0.181-0.903-0.181-1.327,0
	L7,6H4"/>
<path style="fill:none;stroke:#000000;stroke-width:2;stroke-miterlimit:10;" d="M27.582,26.522c0,0-1.288-0.522-2.465-0.522
	s-4,2-5.118,2c-0.829,0-5.93-2.201-8.51-3.337c-0.848-0.374-1.268-1.329-0.975-2.208l0,0c0.279-0.838,1.126-1.348,1.997-1.202L17,22
	c0,0,4.412-2,6.824-2s5.588,1.294,5.588,1.294"/>
<path style="fill:none;stroke:#000000;stroke-width:2;stroke-miterlimit:10;" d="M22.075,23.53l-3.298,1.018
	c-0.666,0.116-1.328-0.226-1.621-0.836l0,0c-0.361-0.754-0.041-1.658,0.714-2.017l0.754-0.358"/>
<path style="fill:none;stroke:#000000;stroke-width:2;stroke-miterlimit:10;" d="M13,14.472L13,14.472
	c0,0.936,0.529,1.792,1.367,2.211L15,17v4.562"/>
<path style="fill:none;stroke:#000000;stroke-width:2;stroke-miterlimit:10;" d="M18,21.438V17l0.633-0.317
	C19.471,16.265,20,15.409,20,14.472v0c0-0.765-0.348-1.449-0.894-1.903"/>
<circle cx="16.5" cy="13.5" r="1.5"/>
</svg>
