<?xml version="1.0" encoding="iso-8859-1"?>
<!-- Generator: Adobe Illustrator 18.1.1, SVG Export Plug-In . SVG Version: 6.00 Build 0)  -->
<svg version="1.1" id="Layer_1" xmlns="http://www.w3.org/2000/svg" xmlns:xlink="http://www.w3.org/1999/xlink" x="0px" y="0px"
	 viewBox="0 0 32 32" style="enable-background:new 0 0 32 32;" xml:space="preserve">
<polygon style="fill:none;stroke:#000000;stroke-width:2;stroke-miterlimit:10;" points="22,13 22,7 11,7 11,12 3,12 3,25 29,25 
	29,13 "/>
<path style="fill:none;stroke:#000000;stroke-width:2;stroke-miterlimit:10;" d="M21,17h3.228v0.104L22,18.9V19h1.5
	c0.828,0,1.5,0.672,1.5,1.5v0c0,0.828-0.672,1.5-1.5,1.5H21"/>
<path style="fill:none;stroke:#000000;stroke-width:2;stroke-miterlimit:10;" d="M11,21H7v-0.1l2.437-1.95
	C9.793,18.666,10,18.235,10,17.779V17.5c0-0.828-0.672-1.5-1.5-1.5h0C7.672,16,7,16.672,7,17.5V18"/>
<path style="fill:none;stroke:#000000;stroke-width:2;stroke-miterlimit:10;" d="M17,16c0-0.222,0-6,0-6h-0.407c0,0-0.593,2-2.05,2"
	/>
</svg>
