<?xml version="1.0" encoding="iso-8859-1"?>
<!-- Generator: Adobe Illustrator 19.1.1, SVG Export Plug-In . SVG Version: 6.00 Build 0)  -->
<svg version="1.1" id="Layer_1" xmlns="http://www.w3.org/2000/svg" xmlns:xlink="http://www.w3.org/1999/xlink" x="0px" y="0px"
	 viewBox="0 0 32 32" style="enable-background:new 0 0 32 32;" xml:space="preserve">
<g>
	<path d="M8,7v5H3V7H8 M10,5H1v9h9V5L10,5z"/>
</g>
<g>
	<path d="M8,14v5H3v-5H8 M10,12H1v9h9V12L10,12z"/>
</g>
<g>
	<path d="M8,21v5H3v-5H8 M10,19H1v9h9V19L10,19z"/>
</g>
<line style="fill:none;stroke:#000000;stroke-width:2;stroke-miterlimit:10;" x1="12" y1="9" x2="15" y2="9"/>
<line style="fill:none;stroke:#000000;stroke-width:2;stroke-miterlimit:10;" x1="12" y1="16" x2="15" y2="16"/>
<line style="fill:none;stroke:#000000;stroke-width:2;stroke-miterlimit:10;" x1="12" y1="23" x2="15" y2="23"/>
<rect x="4" y="8" width="3" height="3"/>
<polygon points="5.5,22 4,25 7,25 "/>
<circle cx="5.5" cy="16.5" r="1.5"/>
<g>
	<path d="M24,7v5h-5V7H24 M26,5h-9v9h9V5L26,5z"/>
</g>
<g>
	<path d="M24,14v5h-5v-5H24 M26,12h-9v9h9V12L26,12z"/>
</g>
<g>
	<path d="M24,21v5h-5v-5H24 M26,19h-9v9h9V19L26,19z"/>
</g>
<line style="fill:none;stroke:#000000;stroke-width:2;stroke-miterlimit:10;" x1="28" y1="9" x2="31" y2="9"/>
<line style="fill:none;stroke:#000000;stroke-width:2;stroke-miterlimit:10;" x1="28" y1="16" x2="31" y2="16"/>
<line style="fill:none;stroke:#000000;stroke-width:2;stroke-miterlimit:10;" x1="28" y1="23" x2="31" y2="23"/>
<rect x="20" y="8" width="3" height="3"/>
<polygon points="21.5,22 20,25 23,25 "/>
<circle cx="21.5" cy="16.5" r="1.5"/>
</svg>
