<?xml version="1.0" encoding="iso-8859-1"?>
<!-- Generator: Adobe Illustrator 19.1.0, SVG Export Plug-In . SVG Version: 6.00 Build 0)  -->
<svg version="1.1" id="Layer_1" xmlns="http://www.w3.org/2000/svg" xmlns:xlink="http://www.w3.org/1999/xlink" x="0px" y="0px"
	 viewBox="0 0 32 32" style="enable-background:new 0 0 32 32;" xml:space="preserve">
<path d="M26,15c-0.598,0-1.176,0.091-1.721,0.255l0.593,1.927C25.232,17.075,25.606,17,26,17c2.206,0,4,1.794,4,4s-1.794,4-4,4
	s-4-1.794-4-4c0-1.066,0.426-2.031,1.108-2.748l-0.643-2.089C20.974,17.255,20,19.014,20,21c0,3.309,2.691,6,6,6s6-2.691,6-6
	S29.309,15,26,15z"/>
<polyline style="fill:none;stroke:#000000;stroke-width:2;stroke-miterlimit:10;" points="26,21 22,8 17,8 "/>
<path d="M25,9h-2.5C21.672,9,21,8.328,21,7.5v0C21,6.672,21.672,6,22.5,6H25V9z"/>
<path style="fill:none;stroke:#000000;stroke-width:2;stroke-miterlimit:10;" d="M6,21l9.379,0c0.38,0,0.728-0.216,0.896-0.557
	L17.483,18C20.63,16.854,23,12.25,23,12.25"/>
<path style="fill:none;stroke:#000000;stroke-width:2;stroke-miterlimit:10;" d="M22.5,11c0,0-2.974,0-4.5,0c-2.684,0-4,2-4,2h-4
	c0,0-1.605-1-3.5-1S3,12.75,3,12.75"/>
<path d="M6,25c-2.206,0-4-1.794-4-4s1.794-4,4-4c1.474,0,2.75,0.81,3.444,2h2.206c-0.826-2.327-3.043-4-5.65-4c-3.309,0-6,2.691-6,6
	s2.691,6,6,6s6-2.691,6-6h-2C10,23.206,8.206,25,6,25z"/>
<line style="fill:none;stroke:#000000;stroke-width:2;stroke-miterlimit:10;" x1="8.25" y1="16.5" x2="10" y2="13"/>
</svg>
