<?xml version="1.0" encoding="iso-8859-1"?>
<!-- Generator: Adobe Illustrator 19.1.1, SVG Export Plug-In . SVG Version: 6.00 Build 0)  -->
<svg version="1.1" id="Layer_1" xmlns="http://www.w3.org/2000/svg" xmlns:xlink="http://www.w3.org/1999/xlink" x="0px" y="0px"
	 viewBox="0 0 32 32" style="enable-background:new 0 0 32 32;" xml:space="preserve">
<polygon style="fill:none;stroke:#000000;stroke-width:2;stroke-miterlimit:10;" points="16,5 6.1,10.5 6.1,21.5 16,27 25.9,21.5 
	25.9,10.5 "/>
<path d="M16,9.967c-2.268,2.696-7,2.813-7,6.143c0,1.623,0.904,2.883,3.023,2.883c1.377,0,2.604-1.046,2.977-1.298v3.163l1,0.831
	l1-0.831v-3.163c0.372,0.252,1.599,1.298,2.977,1.298c2.119,0,3.023-1.26,3.023-2.883C23,12.941,18.268,12.663,16,9.967z M15,15.743
	c0,0-2.136,1.174-2.322,1.268c-0.208,0.105-0.411,0.206-0.654,0.206c-0.634,0-1.148-0.514-1.148-1.148
	c0-0.476,0.304-0.831,0.703-1.058L15,13.115V15.743z M19.977,17.217c-0.243,0-0.436-0.111-0.654-0.206
	C19.175,16.946,17,15.732,17,15.732v-2.616l3.422,1.895c0.399,0.227,0.703,0.582,0.703,1.058
	C21.125,16.703,20.611,17.217,19.977,17.217z"/>
</svg>
