<?xml version="1.0" encoding="utf-8"?>
<!-- Generator: Adobe Illustrator 18.1.1, SVG Export Plug-In . SVG Version: 6.00 Build 0)  -->
<svg version="1.1" id="Layer_1" xmlns="http://www.w3.org/2000/svg" xmlns:xlink="http://www.w3.org/1999/xlink" x="0px" y="0px"
	 viewBox="0 0 32 32" enable-background="new 0 0 32 32" xml:space="preserve">
<path fill="none" stroke="#000000" stroke-width="2" stroke-linejoin="round" stroke-miterlimit="10" d="M5,20c0,0,3.5,4,12,4
	s10-4,10-4"/>
<circle cx="16" cy="22" r="1"/>
<path fill="none" stroke="#000000" stroke-width="2" stroke-linejoin="round" stroke-miterlimit="10" d="M13.5,14.8
	c-0.7,0.1-1.9-3-1.9-5.3c0-0.3-0.1-1.5,3.8-1.5c0.6,0,2.4,0.1,4.1,0.3c0.1,0,0.9,0.1,0.8,1c-0.2,3.5-1.5,5.9-2.3,5.7
	C17.5,14.9,15.9,14.5,13.5,14.8z"/>
<path fill="none" stroke="#000000" stroke-width="2" stroke-linejoin="round" stroke-miterlimit="10" d="M18.7,5.4
	c0,0-0.6-1.4,0.1-1.4C19.1,4,20,4.7,20,5.2c0,0.1,0,0.3-0.2,0.3C19.3,5.8,18.8,5.4,18.7,5.4C18.5,5.5,17,6.5,17,8.1"/>
<path fill="none" stroke="#000000" stroke-width="2" stroke-linejoin="round" stroke-miterlimit="10" d="M15,8
	c0-2.1-1.5-2.8-1.6-2.8C13.2,5.5,12.9,6,12.5,6C12.2,6,12,5.8,12,5.3c0-1.1,0.7-1.3,0.9-1.3c0.5,0,0.5,0.8,0.5,1.2"/>
<path fill="none" stroke="#000000" stroke-width="2" stroke-linecap="round" stroke-linejoin="round" stroke-miterlimit="10" d="
	M18.8,17c-2.6-0.3-0.9-1.2-1.3-2"/>
<path fill="none" stroke="#000000" stroke-width="2" stroke-linecap="round" stroke-linejoin="round" stroke-miterlimit="10" d="
	M14.6,14.8c-0.4,0.8,1,1.9-1.6,2.2"/>
<path fill="none" stroke="#000000" stroke-width="2" stroke-miterlimit="10" d="M24.3,27H7.7c-1,0-1.8-0.7-2-1.7L5,20h22l-0.8,5.3
	C26.1,26.3,25.3,27,24.3,27z"/>
</svg>
