<?xml version="1.0" encoding="iso-8859-1"?>
<!-- Generator: Adobe Illustrator 19.1.0, SVG Export Plug-In . SVG Version: 6.00 Build 0)  -->
<svg version="1.1" id="Layer_1" xmlns="http://www.w3.org/2000/svg" xmlns:xlink="http://www.w3.org/1999/xlink" x="0px" y="0px"
	 viewBox="0 0 32 32" style="enable-background:new 0 0 32 32;" xml:space="preserve">
<path style="fill:none;stroke:#000000;stroke-width:2;stroke-miterlimit:10;" d="M16.855,20.14c1.075-1.075,2.374-1.179,3.457-0.603
	l1.484-1.484c1.606-1.606,1.606-4.211,0-5.817l-2.032-2.032c-1.606-1.606-4.211-1.606-5.817,0l-1.484,1.484
	c0.576,1.083,0.472,2.382-0.603,3.457c-1.365,1.365-3.099,1.182-4.281,0l-2.073,2.073c-2.008,2.008-2.008,5.263,0,7.271l2.005,2.005
	c2.008,2.008,5.263,2.008,7.271,0l2.073-2.073C15.673,23.239,15.49,21.505,16.855,20.14z"/>
<polygon points="26.868,4.132 14.378,15.632 16.358,17.628 27.87,5.14 "/>
<line style="fill:none;stroke:#000000;stroke-width:1.5;stroke-miterlimit:10;" x1="24.052" y1="4.983" x2="26.983" y2="7.913"/>
<line style="fill:none;stroke:#000000;stroke-width:1.5;stroke-miterlimit:10;" x1="22.275" y1="6.76" x2="25.206" y2="9.69"/>
<path d="M28.93,4.101L27.899,3.07c0,0-1.682,0.65-2.062,1.031c-0.57,0.57-0.57,1.493,0,2.062c0.57,0.57,1.493,0.57,2.062,0
	C28.279,5.783,28.93,4.101,28.93,4.101z"/>
<polygon points="11.832,21.325 10.675,20.168 5.618,24.377 7.623,26.382 "/>
</svg>
