<?xml version="1.0" encoding="utf-8"?>
<!-- Generator: Adobe Illustrator 18.1.1, SVG Export Plug-In . SVG Version: 6.00 Build 0)  -->
<svg version="1.1" id="Layer_1" xmlns="http://www.w3.org/2000/svg" xmlns:xlink="http://www.w3.org/1999/xlink" x="0px" y="0px"
	 viewBox="0 0 32 32" enable-background="new 0 0 32 32" xml:space="preserve">
<line fill="none" stroke="#000000" stroke-width="2" stroke-miterlimit="10" x1="3" y1="14" x2="29" y2="14"/>
<circle cx="16" cy="18" r="1"/>
<circle cx="16" cy="21" r="1"/>
<circle cx="16" cy="24" r="1"/>
<circle cx="16" cy="27" r="1"/>
<circle cx="20" cy="18" r="1"/>
<circle cx="21" cy="21" r="1"/>
<circle cx="22" cy="24" r="1"/>
<circle cx="24" cy="27" r="1"/>
<circle cx="12" cy="18" r="1"/>
<circle cx="11" cy="21" r="1"/>
<circle cx="10" cy="24" r="1"/>
<circle cx="8" cy="27" r="1"/>
<path fill="none" stroke="#000000" stroke-width="2" stroke-miterlimit="10" d="M23,18h2.8c0.8,0,1.5-0.4,1.8-1.1l1.2-2.5
	c0.1-0.3,0.2-0.6,0.2-0.9V8c0-1.1-0.9-2-2-2H5C3.9,6,3,6.9,3,8v5.5c0,0.3,0.1,0.6,0.2,0.9l1.2,2.5c0.3,0.7,1,1.1,1.8,1.1H9"/>
</svg>
