<?xml version="1.0" encoding="utf-8"?>
<!-- Generator: Adobe Illustrator 18.1.1, SVG Export Plug-In . SVG Version: 6.00 Build 0)  -->
<svg version="1.1" id="Layer_1" xmlns="http://www.w3.org/2000/svg" xmlns:xlink="http://www.w3.org/1999/xlink" x="0px" y="0px"
	 viewBox="0 0 32 32" enable-background="new 0 0 32 32" xml:space="preserve">
<path fill="none" stroke="#000000" stroke-width="2" stroke-miterlimit="10" d="M22.2,6.8c-2.3-2.3-6.1-2.3-8.5,0
	c-0.7,0.7-3.3,3.3-4,4c-2.3,2.3-2.3,6.1,0,8.5c2.3,2.3,6.1,2.3,8.5,0c0.7-0.7,3.3-3.3,4-4C24.6,12.9,24.6,9.1,22.2,6.8z"/>
<circle fill="none" stroke="#000000" stroke-width="2" stroke-miterlimit="10" cx="14.5" cy="14.5" r="2.5"/>
<path fill="none" stroke="#000000" stroke-width="2" stroke-miterlimit="10" d="M9.8,19.2L8,21c-1.4,1.4-1.4,3.6,0,5l0,0
	c1.4,1.4,3.6,1.4,5,0l0.5-0.5c1.1-1.1,2.9-1.1,4,0l0,0c1.1,1.1,2.9,1.1,4,0L26,21"/>
</svg>
