<?xml version="1.0" encoding="iso-8859-1"?>
<!-- Generator: Adobe Illustrator 19.1.1, SVG Export Plug-In . SVG Version: 6.00 Build 0)  -->
<svg version="1.1" id="Layer_1" xmlns="http://www.w3.org/2000/svg" xmlns:xlink="http://www.w3.org/1999/xlink" x="0px" y="0px"
	 viewBox="0 0 32 32" style="enable-background:new 0 0 32 32;" xml:space="preserve">
<polygon style="fill:none;stroke:#000000;stroke-width:2;stroke-miterlimit:10;" points="13,16 20,16 18,22 20,22 20,22.059 
	12.875,26.688 14.364,22 11.091,22 "/>
<g>
	<path d="M26.194,10.158c-0.393-2.34-2.295-4.156-4.65-4.435C20.477,4.029,18.611,3,16.546,3c-2.271,0-4.303,1.271-5.286,3.232
		C8.757,6.145,6.62,7.77,5.945,10.085C4.188,10.996,3,12.942,3,15c0,2.851,2.306,5,5.363,5h1.216l0.636-2H8.363
		C6.383,18,5,16.767,5,15c0-1.438,0.889-2.784,2.162-3.272l0.522-0.201l0.103-0.551c0.295-1.592,1.685-2.747,3.304-2.747
		c0.2,0,0.403,0.02,0.62,0.06l0.854,0.158l0.276-0.824C13.368,6.055,14.856,5,16.546,5c1.504,0,2.845,0.816,3.498,2.131l0.274,0.551
		l0.614,0.004c1.774,0.012,3.237,1.411,3.33,3.185l0.034,0.638l0.592,0.238C26.132,12.246,27,13.583,27,15c0,1.767-1.383,3-3.363,3
		h-2.199l-0.645,2h2.844C26.694,20,29,17.851,29,15C29,13.002,27.872,11.095,26.194,10.158z"/>
</g>
</svg>
