<?xml version="1.0" encoding="iso-8859-1"?>
<!-- Generator: Adobe Illustrator 19.1.0, SVG Export Plug-In . SVG Version: 6.00 Build 0)  -->
<svg version="1.1" id="Layer_1" xmlns="http://www.w3.org/2000/svg" xmlns:xlink="http://www.w3.org/1999/xlink" x="0px" y="0px"
	 viewBox="0 0 32 32" style="enable-background:new 0 0 32 32;" xml:space="preserve">
<path d="M21.108,18.444l-1.219,1.829C23.668,20.821,26,22.088,26,23c0,1.194-3.988,3-10,3S6,24.194,6,23
	c0-0.912,2.332-2.179,6.111-2.727l-1.219-1.829C7.019,19.146,4,20.68,4,23c0,3.283,6.037,5,12,5s12-1.717,12-5
	C28,20.68,24.981,19.146,21.108,18.444z"/>
<line style="fill:none;stroke:#000000;stroke-width:2;stroke-miterlimit:10;" x1="16" y1="19" x2="16" y2="4"/>
<g>
	<polygon points="11.333,15 16,22 20.667,15 	"/>
</g>
</svg>
