<?xml version="1.0" encoding="iso-8859-1"?>
<!-- Generator: Adobe Illustrator 19.1.0, SVG Export Plug-In . SVG Version: 6.00 Build 0)  -->
<svg version="1.1" id="Layer_1" xmlns="http://www.w3.org/2000/svg" xmlns:xlink="http://www.w3.org/1999/xlink" x="0px" y="0px"
	 viewBox="0 0 32 32" style="enable-background:new 0 0 32 32;" xml:space="preserve">
<path style="fill:none;stroke:#000000;stroke-width:2;stroke-miterlimit:10;" d="M15.553,15.203C18.114,15.887,20,18.223,20,21
	c0,3.314-2.686,6-6,6s-6-2.686-6-6c0-1.646,0.663-3.137,1.736-4.221"/>
<path style="fill:none;stroke:#000000;stroke-width:2;stroke-miterlimit:10;" d="M11.846,18.916l2.946-2.946
	c1.204-1.204,2.852-1.857,4.553-1.804l4.193,0.129l0.102-0.102L14.449,5l-0.102,0.102l0.129,4.193
	c0.052,1.702-0.601,3.349-1.804,4.553l-2.933,2.933"/>
<line style="fill:none;stroke:#000000;stroke-width:2;stroke-miterlimit:10;" x1="24" y1="22" x2="24" y2="26"/>
<g>
	<path d="M10.667,18.787c-0.094,0.14-0.163,0.293-0.237,0.443c-0.041,0.082-0.094,0.159-0.129,0.243
		c-0.064,0.155-0.102,0.32-0.146,0.483c-0.024,0.087-0.06,0.17-0.078,0.26C10.026,20.472,10,20.734,10,21
		c0,0.274,0.028,0.541,0.081,0.8c0.009,0.045,0.029,0.087,0.04,0.132c0.051,0.213,0.109,0.423,0.193,0.622
		c0.009,0.02,0.022,0.038,0.031,0.059c0.406,0.916,1.142,1.651,2.061,2.052c0.014,0.006,0.026,0.015,0.04,0.021
		c0.2,0.085,0.412,0.144,0.627,0.195c0.043,0.01,0.083,0.03,0.127,0.038C13.459,24.972,13.726,25,14,25c1.474,0,2.75-0.81,3.444-2
		H14c-0.534,0-1.036-0.208-1.414-0.586S12,21.534,12,21s0.208-1.036,0.586-1.414l-1.414-1.414c-0.136,0.135-0.247,0.287-0.36,0.438
		C10.766,18.671,10.709,18.724,10.667,18.787z"/>
	<path d="M21.737,23c-0.184,0.71-0.46,1.381-0.819,2H24v-2H21.737z"/>
</g>
<path style="fill:none;stroke:#000000;stroke-width:2;stroke-miterlimit:10;" d="M17,22v-0.5c0-0.828-0.672-1.5-1.5-1.5h0
	c-0.828,0-1.5,0.672-1.5,1.5V22"/>
</svg>
