<?xml version="1.0" encoding="iso-8859-1"?>
<!-- Generator: Adobe Illustrator 19.1.0, SVG Export Plug-In . SVG Version: 6.00 Build 0)  -->
<svg version="1.1" id="Layer_1" xmlns="http://www.w3.org/2000/svg" xmlns:xlink="http://www.w3.org/1999/xlink" x="0px" y="0px"
	 viewBox="0 0 32 32" style="enable-background:new 0 0 32 32;" xml:space="preserve">
<path style="fill:none;stroke:#000000;stroke-width:2;stroke-miterlimit:10;" d="M16.999,22.001h-2"/>
<path style="fill:none;stroke:#000000;stroke-width:2;stroke-miterlimit:10;" d="M24.999,18.001c0.366,0,1,0,1,0
	c1.105,0,2-0.895,2-2c0-1.105-0.895-2-2-2c0,0-0.634,0-1,0"/>
<path style="fill:none;stroke:#000000;stroke-width:2;stroke-miterlimit:10;" d="M12.999,10.001h12c1.105,0,2,0.895,2,2v0
	c0,1.105-0.895,2-2,2h-10"/>
<path style="fill:none;stroke:#000000;stroke-width:2;stroke-miterlimit:10;" d="M14.999,22.001h1c1.105,0,2,0.895,2,2v0
	c0,1.105-0.895,2-2,2h-11"/>
<line style="fill:none;stroke:#000000;stroke-width:2;stroke-miterlimit:10;" x1="7.999" y1="10.001" x2="13.999" y2="10.001"/>
<line style="fill:none;stroke:#000000;stroke-width:2;stroke-miterlimit:10;" x1="17.999" y1="18.001" x2="14.999" y2="18.001"/>
<path style="fill:none;stroke:#000000;stroke-width:2;stroke-miterlimit:10;" d="M14.999,14.001h4"/>
<path style="fill:none;stroke:#000000;stroke-width:2;stroke-miterlimit:10;" d="M25,10V5h-2.092c-0.207,0.581-0.756,1-1.408,1
	s-1.202-0.419-1.408-1H18v5"/>
<path style="fill:none;stroke:#000000;stroke-width:2;stroke-miterlimit:10;" d="M18,15v7h2.092c0.207-0.581,0.756-1,1.408-1
	s1.202,0.419,1.408,1H25v-7"/>
<path d="M10.64,6.913c-1.653-1.28-3.993-1.206-5.563,0.174L5,7.154v2.662l1.397-1.227c0.852-0.748,2.122-0.788,3.02-0.094
	l2.97,2.297L13.61,9.21L10.64,6.913z"/>
</svg>
