<?xml version="1.0" encoding="iso-8859-1"?>
<!-- Generator: Adobe Illustrator 19.1.1, SVG Export Plug-In . SVG Version: 6.00 Build 0)  -->
<svg version="1.1" id="Layer_1" xmlns="http://www.w3.org/2000/svg" xmlns:xlink="http://www.w3.org/1999/xlink" x="0px" y="0px"
	 viewBox="0 0 32 32" style="enable-background:new 0 0 32 32;" xml:space="preserve">
<path style="fill:none;stroke:#000000;stroke-width:2;stroke-miterlimit:10;" d="M13,3c0,5.018,5,5,5,5h4l1,2l5,1v3c0,0-0.057,2-2,2
	s-2.231-3-5-3s-3,4-3,4s-0.103,4,3,4s4,0,4,0v1c0,0-1,1.594-1,3"/>
<path d="M25,16l-0.013,2.833c0,0,2.043-1.679,2.013-2.833H25z"/>
<polygon points="24,21 25,19 26,21 "/>
<path style="fill:none;stroke:#000000;stroke-width:2;stroke-miterlimit:10;" d="M9,4c0,0-0.009,5,4,5"/>
<path style="fill:none;stroke:#000000;stroke-width:2;stroke-miterlimit:10;" d="M6,8c0,0,0.002,4,4,4"/>
<path style="fill:none;stroke:#000000;stroke-width:2;stroke-miterlimit:10;" d="M3,21c0,0,5,0.024,5-5s-2.169-5.561-2-8"/>
<path style="fill:none;stroke:#000000;stroke-width:2;stroke-miterlimit:10;" d="M20,28c0,0-3,0.009-3-3s3-3,3-3h5"/>
<polygon points="19,10 21,11 21,10 "/>
<path style="fill:none;stroke:#000000;stroke-width:2;stroke-miterlimit:10;" d="M5,25c0,0,4-0.085,4-3"/>
<path style="fill:none;stroke:#000000;stroke-width:2;stroke-miterlimit:10;" d="M9,28c0,0,4-0.078,4-4"/>
</svg>
