<?xml version="1.0" encoding="iso-8859-1"?>
<!-- Generator: Adobe Illustrator 19.1.0, SVG Export Plug-In . SVG Version: 6.00 Build 0)  -->
<svg version="1.1" id="Layer_1" xmlns="http://www.w3.org/2000/svg" xmlns:xlink="http://www.w3.org/1999/xlink" x="0px" y="0px"
	 viewBox="0 0 32 32" style="enable-background:new 0 0 32 32;" xml:space="preserve">
<line style="fill:none;stroke:#000000;stroke-width:2;stroke-miterlimit:10;" x1="8" y1="8" x2="12" y2="8"/>
<line style="fill:none;stroke:#000000;stroke-width:2;stroke-miterlimit:10;" x1="20" y1="8" x2="24" y2="8"/>
<line style="fill:none;stroke:#000000;stroke-width:2;stroke-miterlimit:10;" x1="3" y1="21" x2="29" y2="21"/>
<path style="fill:none;stroke:#000000;stroke-width:2;stroke-miterlimit:10;" d="M26.261,9H5.739C4.779,9,4,11.686,4,15
	s0.779,6,1.739,6h20.522C27.221,21,28,18.314,28,15S27.221,9,26.261,9z"/>
<path d="M16,18c-1.104,0-2-0.896-2-2c0-1.105,2-3.6,2-3.6s2,2.495,2,3.6C18,17.104,17.104,18,16,18z"/>
<path d="M24.277,23C24.106,23.295,24,23.634,24,24c0,1.105,0.895,2,2,2s2-0.895,2-2c0-0.366-0.106-0.705-0.277-1H24.277z"/>
<path d="M20.277,23C20.106,23.295,20,23.634,20,24c0,1.105,0.895,2,2,2s2-0.895,2-2c0-0.366-0.106-0.705-0.277-1H20.277z"/>
<path d="M8.277,23C8.106,23.295,8,23.634,8,24c0,1.105,0.895,2,2,2s2-0.895,2-2c0-0.366-0.106-0.705-0.277-1H8.277z"/>
<path d="M4.277,23C4.106,23.295,4,23.634,4,24c0,1.105,0.895,2,2,2s2-0.895,2-2c0-0.366-0.106-0.705-0.277-1H4.277z"/>
</svg>
