<?xml version="1.0" encoding="iso-8859-1"?>
<!-- Generator: Adobe Illustrator 19.1.1, SVG Export Plug-In . SVG Version: 6.00 Build 0)  -->
<svg version="1.1" id="Layer_1" xmlns="http://www.w3.org/2000/svg" xmlns:xlink="http://www.w3.org/1999/xlink" x="0px" y="0px"
	 viewBox="0 0 32 32" style="enable-background:new 0 0 32 32;" xml:space="preserve">
<path style="fill:none;stroke:#000000;stroke-width:2;stroke-linecap:round;stroke-linejoin:round;stroke-miterlimit:10;" d="
	M29.802,8.915l-0.453-0.997C28.818,6.75,27.653,6,26.369,6H5.631C4.347,6,3.182,6.75,2.651,7.918L2.198,8.915
	C1.541,10.36,2.597,12,4.185,12h23.631C29.403,12,30.459,10.36,29.802,8.915z"/>
<path style="fill:none;stroke:#000000;stroke-width:2;stroke-miterlimit:10;" d="M2,10v13c0,1.657,1.343,3,3,3h22
	c1.657,0,3-1.343,3-3V10"/>
<path id="XMLID_163_" style="fill:none;stroke:#000000;stroke-width:2;stroke-miterlimit:10;" d="M8,17.408L8,17.408
	C8,16.756,7.53,16,6.5,16C5.672,16,5,16.672,5,17.5v0C5,18.328,5.672,19,6.5,19h0C7.328,19,8,19.672,8,20.5v0
	C8,21.328,7.424,22,6.5,22C5.396,22,5,21.428,5,20.619l0,0"/>
<path id="XMLID_217_" style="fill:none;stroke:#000000;stroke-width:2;stroke-miterlimit:10;" d="M11,23v-7h1c1.105,0,2,0.895,2,2v0
	c0,1.105-0.895,2-2,2h-1"/>
<polyline style="fill:none;stroke:#000000;stroke-width:2;stroke-miterlimit:10;" points="20,23 20,22 18.05,16 17.95,16 16,22 
	16,23 "/>
<line id="XMLID_195_" style="fill:none;stroke:#000000;stroke-width:2;stroke-miterlimit:10;" x1="16.391" y1="21" x2="19.609" y2="21"/>
<polyline id="XMLID_188_" style="fill:none;stroke:#000000;stroke-width:2;stroke-miterlimit:10;" points="23,23 23,16 23.5,16 
	25,18 26.5,16 27,16 27,23 "/>
<path d="M25,10h-5V8h5c0.552,0,1,0.448,1,1v0C26,9.552,25.552,10,25,10z"/>
</svg>
