<?xml version="1.0" encoding="iso-8859-1"?>
<!-- Generator: Adobe Illustrator 19.1.0, SVG Export Plug-In . SVG Version: 6.00 Build 0)  -->
<svg version="1.1" id="Layer_1" xmlns="http://www.w3.org/2000/svg" xmlns:xlink="http://www.w3.org/1999/xlink" x="0px" y="0px"
	 viewBox="0 0 32 32" style="enable-background:new 0 0 32 32;" xml:space="preserve">
<g id="XMLID_3705_">
	<path id="XMLID_3706_" d="M27.347,11c0,0,0.653-0.41,0.653-1.334C28,8.425,26.658,7.847,26,7c-0.581,0.875-2,1.508-2,2.666
		C24,10.59,24.653,11,24.653,11H27.347z"/>
</g>
<polygon id="XMLID_3709_" points="18.607,15.971 16.883,15.971 16,17.5 15.117,15.971 13.393,15.971 14.255,14.477 13.393,12.983 
	15.117,12.983 16,11.455 16.883,12.983 18.607,12.983 17.745,14.477 "/>
<g id="XMLID_3734_">
	<path id="XMLID_3735_" d="M7.346,11C7.346,11,8,10.59,8,9.666C8,7.931,6.658,7.847,6,7C5.419,7.875,4,8.016,4,9.666
		C4,10.59,4.654,11,4.654,11H7.346z"/>
</g>
<path style="fill:none;stroke:#000000;stroke-width:2;stroke-miterlimit:10;" d="M24,13l-8-7l-8,7H5v13h8v-3c0-1.657,1.343-3,3-3
	s3,1.343,3,3v3h8V13H24z"/>
</svg>
