<?xml version="1.0" encoding="utf-8"?>
<!-- Generator: Adobe Illustrator 19.1.1, SVG Export Plug-In . SVG Version: 6.00 Build 0)  -->
<svg version="1.1" id="Layer_1" xmlns="http://www.w3.org/2000/svg" xmlns:xlink="http://www.w3.org/1999/xlink" x="0px" y="0px"
	 viewBox="-7 9 32 32" enable-background="new -7 9 32 32" xml:space="preserve">
<g>
	<path d="M22,17h-2l0,0.3c0,1,0,3-0.6,3.6C19.3,20.9,19.2,21,19,21v2c0.7,0,1.4-0.3,1.8-0.7c1.2-1.2,1.2-3.4,1.2-5L22,17z"/>
	<path d="M15.4,18c-1-0.7-2.8-0.9-3.8-1c-0.7-0.8-2.4-1-3.6-1l0,0H7l-1-1l-1.8-0.1L2,13l2,3h1l0.4,0.8C5.3,16.9,5.1,16.9,5,17H2
		l-1-1l-1.8-0.1L-3,14l2,3h1l2,2h0.4c-1.1,0.8-3.1,2-5.4,2v2c4.3,0,7.6-3.2,7.7-3.3C6.3,18.1,8,18,8,18c0.8,0,1.6,0.2,2,0.3V19h1
		c1.2,0,2.4,0.3,3,0.5V20H9c-1.7,0-3,1.3-3,3c0,1.3,0.8,2.3,1.9,2.8C7.1,26.8,7,27.9,7,28l0,7.1c0.1,1,0.8,2.9,3,2.9v-2
		c-0.8,0-1-0.8-1-1.1L9,28c0,0,0.1-1.5,2.2-2l0.8-0.2V28h2v-2.6l1-0.2V27h2v-2v-1v-1h-1c-1.7,0-6.3,0.8-7.1,1C8.5,24,8,23.6,8,23
		c0-0.3,0.1-1,1-1h7c1.2,0,1.9-1,2-1.9l0-0.1C18,18.7,16.7,18.1,15.4,18z"/>
	<path d="M-3,24l0.1,2c0.8,0,3.6-0.2,4.7-1.3l-1.4-1.4C0,23.6-1.6,23.9-3,24z"/>
	<path d="M-3,27l0.1,2c0.8,0,3.6-0.2,4.7-1.3l-1.4-1.4C0,26.6-1.6,26.9-3,27z"/>
	<path d="M-3,30l0.1,2c0.8,0,3.6-0.2,4.7-1.3l-1.4-1.4C0,29.6-1.6,29.9-3,30z"/>
	<path d="M-3,33l0.1,2c0.8,0,3.6-0.2,4.7-1.3l-1.4-1.4C0,32.6-1.6,32.9-3,33z"/>
	<path d="M-3,36l0.1,2c0.8,0,3.6-0.2,4.7-1.3l-1.4-1.4C0,35.6-1.6,35.9-3,36z"/>
</g>
</svg>
