<?xml version="1.0" encoding="iso-8859-1"?>
<!-- Generator: Adobe Illustrator 21.0.2, SVG Export Plug-In . SVG Version: 6.00 Build 0)  -->
<svg version="1.1" id="Layer_1" xmlns="http://www.w3.org/2000/svg" xmlns:xlink="http://www.w3.org/1999/xlink" x="0px" y="0px"
	 viewBox="0 0 32 32" style="enable-background:new 0 0 32 32;" xml:space="preserve">
<path d="M28.997,11.802C28.892,8.585,26.242,6,23,6c-0.389,0-0.777,0.042-1.173,0.127C20.537,4.18,18.372,3,16,3
	c-3.226,0-6.041,2.257-6.794,5.344c-1.247,0.483-2.257,1.455-2.788,2.672C2.921,10.757,0,13.553,0,17c0,3.309,2.691,6,6,6v-2
	c-2.206,0-4-1.794-4-4s1.794-4,4-4c0.277,0,0.565,0.035,0.881,0.106l0.979,0.22l0.217-0.979c0.246-1.106,1.12-1.991,2.227-2.255
	l0.658-0.157l0.099-0.669C11.42,6.833,13.543,5,16,5c1.894,0,3.603,1.054,4.46,2.751l0.396,0.783l0.828-0.29
	C22.151,8.08,22.582,8,23,8c2.206,0,4,1.794,4,4c0,0.038-0.008,0.075-0.013,0.112c-0.009,0.068-0.018,0.136-0.024,0.206l-0.06,0.72
	l0.665,0.283C29.045,13.951,30,15.395,30,17c0,2.206-1.794,4-4,4h-2.541c0.259,0.289,0.49,0.602,0.69,0.937l0,0.001
	c0.2,0.335,0.367,0.69,0.5,1.063l0,0H26c3.309,0,6-2.691,6-6C32,14.835,30.842,12.865,28.997,11.802z"/>
<path style="fill:none;stroke:#000000;stroke-width:2;stroke-miterlimit:10;" d="M11,22c1.105,0,2,0.895,2,2s-0.895,2-2,2
	c-0.738,0-1.382-0.4-1.729-0.994"/>
<path style="fill:none;stroke:#000000;stroke-width:2;stroke-miterlimit:10;" d="M13.501,13.999C13.957,13.392,14.683,13,15.5,13
	c1.381,0,2.5,1.119,2.5,2.5S16.881,18,15.5,18H9"/>
<path style="fill:none;stroke:#000000;stroke-width:2;stroke-miterlimit:10;" d="M16.17,25.997C16.581,27.164,17.693,28,19,28
	c1.657,0,3-1.343,3-3s-1.343-3-3-3H8"/>
</svg>
