<?xml version="1.0" encoding="iso-8859-1"?>
<!-- Generator: Adobe Illustrator 19.1.0, SVG Export Plug-In . SVG Version: 6.00 Build 0)  -->
<svg version="1.1" id="Layer_1" xmlns="http://www.w3.org/2000/svg" xmlns:xlink="http://www.w3.org/1999/xlink" x="0px" y="0px"
	 viewBox="0 0 32 32" style="enable-background:new 0 0 32 32;" xml:space="preserve">
<path d="M2,8.514v14.971h28V8.514H2z M8.9,22.402l-2.475,0.001L3.018,9.862h2.624l2.66,10.579c0,0,1.988-9.822,1.988-10.095
	c0-0.28-0.272-0.482-0.269-0.484c-0.017,0.003,1.139,0,1.139,0l-2.403,11.89L8.9,22.402z M19.693,22.402H17.58l0.001-4.409
	l-1.525,0.54l-1.564-0.001l0.002,3.872h-2.105v-3.867l-0.516-0.001l0.516-0.906V9.862h2.104l-0.002,7.7l3.089,0.005l-0.001-7.705
	h2.113v12.541H19.693z M22.987,13.273c0.267,0.324,0.689,0.668,1.256,1.023l1.558,0.983c0.986,0.62,1.693,1.201,2.1,1.726
	c0.412,0.546,0.62,1.195,0.62,1.934c0,0.991-0.297,1.92-1.032,2.585c-0.724,0.66-1.727,0.878-2.852,0.878c0,0-3.755,0.01-3.832,0
	l-0.31-0.837c0,0,5.006,0.269,5.567-0.548c0.374-0.542,0.364-0.878,0.364-1.494c0-0.556-0.191-1.025-0.582-1.437
	c-0.261-0.266-0.829-0.678-1.686-1.226l-1.514-0.965c-0.467-0.3-0.844-0.611-1.123-0.92c-0.526-0.6-0.792-1.271-0.792-1.997
	c0-0.952,0.314-1.755,0.935-2.391c0.656-0.671,1.609-0.728,2.529-0.728c0.14,0,4.612,0,4.612,0l-0.342,0.849
	c0,0-4.226-0.082-5.123,0.457c-0.355,0.213-0.732,0.533-0.732,1.008C22.608,12.609,22.732,12.968,22.987,13.273z"/>
</svg>
