<?xml version="1.0" encoding="iso-8859-1"?>
<!-- Generator: Adobe Illustrator 19.1.0, SVG Export Plug-In . SVG Version: 6.00 Build 0)  -->
<svg version="1.1" id="Layer_1" xmlns="http://www.w3.org/2000/svg" xmlns:xlink="http://www.w3.org/1999/xlink" x="0px" y="0px"
	 viewBox="0 0 32 32" style="enable-background:new 0 0 32 32;" xml:space="preserve">
<circle style="fill:none;stroke:#000000;stroke-width:2;stroke-linecap:round;stroke-linejoin:round;stroke-miterlimit:10;" cx="14.5" cy="6.5" r="2.5"/>
<path style="fill:none;stroke:#000000;stroke-width:2;stroke-miterlimit:10;" d="M7.49,18.042l0.682-3.867
	c0.032-0.18,0.112-0.347,0.232-0.485l1.827-2.088c0.234-0.267,0.591-0.39,0.94-0.324l3.227,0.615c0.37,0.07,0.669,0.343,0.773,0.704
	l0.762,2.633c0.088,0.302,0.312,0.546,0.607,0.657l3.528,1.334"/>
<g>
	<path d="M16.467,27h2.471l-6.38-8.797l1.374-6.273l-1.954-0.428l-1.374,6.273c-0.122,0.557,0,1.141,0.335,1.602L16.467,27z"/>
	<polygon points="9.536,27 11.831,23.84 11.978,23.236 10.471,21.045 9.984,22.979 7.062,27 	"/>
</g>
<line style="fill:none;stroke:#000000;stroke-miterlimit:10;" x1="19.5" y1="17.5" x2="23.5" y2="26.5"/>
</svg>
