<?xml version="1.0" encoding="iso-8859-1"?>
<!-- Generator: Adobe Illustrator 19.1.0, SVG Export Plug-In . SVG Version: 6.00 Build 0)  -->
<svg version="1.1" id="Layer_1" xmlns="http://www.w3.org/2000/svg" xmlns:xlink="http://www.w3.org/1999/xlink" x="0px" y="0px"
	 viewBox="0 0 32 32" style="enable-background:new 0 0 32 32;" xml:space="preserve">
<g>
	<path d="M17.148,17.712C16.838,15.607,18,15.451,18,13.329C18,11.948,17.105,11,16,11s-2,0.948-2,2.329
		c0,2.054,1.126,1.998,1.612,4.245c0.362,1.674-0.759,1.864-0.328,3.193C15.631,21.835,17.321,23,17.321,23
		s-0.519-1.086-0.828-2.095C16.234,20.059,17.359,19.141,17.148,17.712z"/>
</g>
<line style="fill:none;stroke:#000000;stroke-width:2;stroke-miterlimit:10;" x1="8" y1="28" x2="24" y2="28"/>
<path style="fill:none;stroke:#000000;stroke-width:2;stroke-miterlimit:10;" d="M22,28V12c0-2.611-1.671-4.827-4-5.651
	C18,6.213,18,6.09,18,6c0-1.105-0.895-2-2-2s-2,0.895-2,2c0,0.09,0,0.213,0,0.349c-2.329,0.825-4,3.04-4,5.651v14"/>
</svg>
