<?xml version="1.0" encoding="iso-8859-1"?>
<!-- Generator: Adobe Illustrator 21.0.0, SVG Export Plug-In . SVG Version: 6.00 Build 0)  -->
<svg version="1.1"  xmlns="http://www.w3.org/2000/svg" xmlns:xlink="http://www.w3.org/1999/xlink" x="0px" y="0px"
	 viewBox="0 0 32 32" style="enable-background:new 0 0 32 32;" xml:space="preserve">
<path style="fill:none;stroke:#000000;stroke-width:2;stroke-miterlimit:10;" d="M12,22v-8.031L11,13c0-2.611,1-6,3-7c0-1,1-2,2-2
	s2,1,2,2c2,1,3,4.389,3,7l-1,1.031V24v1l0,0c0,1.657,1.343,3,3,3l0,0"/>
<path style="fill:none;stroke:#000000;stroke-width:2;stroke-miterlimit:10;" d="M12,23.781V25l0,0c0,1.657-1.343,3-3,3l0,0"/>
<line style="fill:none;stroke:#000000;stroke-width:2;stroke-miterlimit:10;" x1="9" y1="24" x2="23" y2="24"/>
<line style="fill:none;stroke:#000000;stroke-width:2;stroke-miterlimit:10;" x1="9" y1="28" x2="5" y2="28"/>
<line style="fill:none;stroke:#000000;stroke-width:2;stroke-miterlimit:10;" x1="23" y1="28" x2="27" y2="28"/>
</svg>
