<?xml version="1.0" encoding="iso-8859-1"?>
<!-- Generator: Adobe Illustrator 19.1.0, SVG Export Plug-In . SVG Version: 6.00 Build 0)  -->
<svg version="1.1" id="Layer_1" xmlns="http://www.w3.org/2000/svg" xmlns:xlink="http://www.w3.org/1999/xlink" x="0px" y="0px"
	 viewBox="0 0 32 32" style="enable-background:new 0 0 32 32;" xml:space="preserve">
<path style="fill:none;stroke:#000000;stroke-width:2;stroke-miterlimit:10;" d="M25.893,11H13.944l0.599-2.241
	c0,0,1.456-0.87,1.456-3.109C16,4.742,15.295,4,14.089,4L7,11H4v11h3l4,2h5.894c0.926,0,1.731-0.636,1.946-1.537L20.616,15H26
	c1.215,0,2.176-1.083,1.973-2.336C27.813,11.681,26.889,11,25.893,11z"/>
<path style="fill:none;stroke:#000000;stroke-width:2;stroke-miterlimit:10;" d="M28,26c0,1.105-0.895,2-2,2s-2-0.895-2-2s2-5,2-5
	S28,24.895,28,26z"/>
</svg>
