<?xml version="1.0" encoding="iso-8859-1"?>
<!-- Generator: Adobe Illustrator 19.1.1, SVG Export Plug-In . SVG Version: 6.00 Build 0)  -->
<svg version="1.1" id="Layer_1" xmlns="http://www.w3.org/2000/svg" xmlns:xlink="http://www.w3.org/1999/xlink" x="0px" y="0px"
	 viewBox="0 0 32 32" style="enable-background:new 0 0 32 32;" xml:space="preserve">
<path style="fill:none;stroke:#000000;stroke-width:2;stroke-miterlimit:10;" d="M25.334,12.48L14.3,9.1L5,11.7v0.1l9.4,2.9l3.8-0.3
	l5.9-1.9c1.384-0.4,2.9,0.474,2.9,2.106c0,1.241-0.516,2.195-1.896,2.621C23.745,17.646,16,20,16,20l-8.4-2.5C6.3,17,5,18.2,5,19.5
	c0,1.5,0.7,2.3,1.5,2.6L16,25l11-3.56"/>
<polygon points="26,19.343 26,22.801 28,22.169 28,18.408 "/>
<polygon points="16,12.563 14.063,14.156 18.531,13.969 "/>
</svg>
