<?xml version="1.0" encoding="iso-8859-1"?>
<!-- Generator: Adobe Illustrator 19.1.1, SVG Export Plug-In . SVG Version: 6.00 Build 0)  -->
<svg version="1.1" id="Layer_1" xmlns="http://www.w3.org/2000/svg" xmlns:xlink="http://www.w3.org/1999/xlink" x="0px" y="0px"
	 viewBox="0 0 32 32" style="enable-background:new 0 0 32 32;" xml:space="preserve">
<path style="fill:none;stroke:#000000;stroke-width:2;stroke-linejoin:round;stroke-miterlimit:10;" d="M10,22c0,0.4,0,1,0,1
	c0,2.209,1.791,4,4,4c3,0,3.49-2.258,4.792-4.042C19.917,21.417,24,16.833,24,12c0-3.875-3.134-7-7-7s-7,3.134-7,7"/>
<path style="fill:none;stroke:#000000;stroke-width:2;stroke-miterlimit:10;" d="M20.482,11.03C19.795,9.818,18.493,9,17,9
	c-2.209,0-4,1.667-4,4c0,1.282-0.009,2.342-1,3c0,1.593,3,1.262,3,3c0,1.267-1.328,2-3.095,2"/>
</svg>
