<?xml version="1.0" encoding="iso-8859-1"?>
<!-- Generator: Adobe Illustrator 19.1.0, SVG Export Plug-In . SVG Version: 6.00 Build 0)  -->
<svg version="1.1" id="Layer_1" xmlns="http://www.w3.org/2000/svg" xmlns:xlink="http://www.w3.org/1999/xlink" x="0px" y="0px"
	 viewBox="0 0 32 32" style="enable-background:new 0 0 32 32;" xml:space="preserve">
<path style="fill:none;stroke:#000000;stroke-width:2;stroke-linecap:round;stroke-miterlimit:10;" d="M5,13.085
	c0,6.284,3.614,9.43,3.999,9.815c0.883,0.883,3.134,2.1,6.999,2.1s5.987-1.383,6.999-2.1c0.466-0.33,4.127-3.443,3.999-9.815"/>
<path style="fill:none;stroke:#000000;stroke-width:2;stroke-linecap:round;stroke-miterlimit:10;" d="M27,13
	c0,2.209-0.409,12-11,12S5,15.209,5,13"/>
<path style="fill:none;stroke:#000000;stroke-width:2;stroke-miterlimit:10;" d="M19.117,9.165C18.128,9.059,17.084,9,16,9
	C9.925,9,5,10.791,5,13c0,2.209,4.925,4,11,4s11-1.791,11-4c0-1.348-1.839-2.537-4.648-3.262"/>
<path style="fill:none;stroke:#000000;stroke-width:2;stroke-miterlimit:10;" d="M19.164,16.828
	c0.205-1.945,1.945-6.192,5.208-9.525c1.19-0.961,0.48-2.119-0.414-2.766c-0.894-0.647-2.173-0.941-2.756,0.472
	c-1.782,4.756-6.081,9.924-8.435,11.664"/>
</svg>
