<?xml version="1.0" encoding="iso-8859-1"?>
<!-- Generator: Adobe Illustrator 19.1.0, SVG Export Plug-In . SVG Version: 6.00 Build 0)  -->
<svg version="1.1" id="Layer_1" xmlns="http://www.w3.org/2000/svg" xmlns:xlink="http://www.w3.org/1999/xlink" x="0px" y="0px"
	 viewBox="0 0 32 32" style="enable-background:new 0 0 32 32;" xml:space="preserve">
<circle style="fill:none;stroke:#000000;stroke-width:2;stroke-miterlimit:10;" cx="17" cy="21" r="3"/>
<path style="fill:none;stroke:#000000;stroke-width:2;stroke-miterlimit:10;" d="M21,28c0-2.209-1.791-4-4-4s-4,1.791-4,4"/>
<line style="fill:none;stroke:#000000;stroke-width:2;stroke-miterlimit:10;" x1="17" y1="4" x2="17" y2="6"/>
<circle cx="15" cy="14" r="1"/>
<circle cx="19" cy="14" r="1"/>
<circle cx="23" cy="14" r="1"/>
<circle cx="11" cy="14" r="1"/>
<circle cx="10" cy="18" r="1"/>
<circle cx="9" cy="22" r="1"/>
<circle cx="8" cy="26" r="1"/>
<circle cx="24" cy="18" r="1"/>
<circle cx="25" cy="22" r="1"/>
<circle cx="26" cy="26" r="1"/>
<polygon style="fill:none;stroke:#000000;stroke-width:2;stroke-miterlimit:10;" points="19,7 15,7 12,9 12,10 22,10 22,9 "/>
</svg>
