<?xml version="1.0" encoding="iso-8859-1"?>
<!-- Generator: Adobe Illustrator 19.1.0, SVG Export Plug-In . SVG Version: 6.00 Build 0)  -->
<svg version="1.1" id="Layer_1" xmlns="http://www.w3.org/2000/svg" xmlns:xlink="http://www.w3.org/1999/xlink" x="0px" y="0px"
	 viewBox="0 0 32 32" style="enable-background:new 0 0 32 32;" xml:space="preserve">
<path d="M29,9v6l-1,1v3l-6-2c0,0,2-0.667,2-3s-3-2.747-3-2.747L24.441,10L29,9z"/>
<line style="fill:none;stroke:#000000;stroke-width:2;stroke-miterlimit:10;" x1="27" y1="23" x2="27" y2="18"/>
<polyline style="fill:none;stroke:#000000;stroke-width:2;stroke-miterlimit:10;" points="22,24 24.412,21.108 25.386,16.753 "/>
<polyline style="fill:none;stroke:#000000;stroke-width:2;stroke-miterlimit:10;" points="19.256,21.681 22,20 24.749,15.824 "/>
<polyline style="fill:none;stroke:#000000;stroke-width:2;stroke-miterlimit:10;" points="18,14 19,11.618 21.667,10 21.999,10 
	26.417,11.75 "/>
<polyline style="fill:none;stroke:#000000;stroke-width:2;stroke-miterlimit:10;" points="18,16 20,18 23.417,18 24.622,16.375 "/>
<path d="M3,23v-6l1-1v-3l6,2c0,0-2,0.667-2,3s3,2.747,3,2.747L7.559,22L3,23z"/>
<line style="fill:none;stroke:#000000;stroke-width:2;stroke-miterlimit:10;" x1="5" y1="9" x2="5" y2="14"/>
<polyline style="fill:none;stroke:#000000;stroke-width:2;stroke-miterlimit:10;" points="10,8 7.588,10.892 6.614,15.247 "/>
<polyline style="fill:none;stroke:#000000;stroke-width:2;stroke-miterlimit:10;" points="12.744,10.319 10,12 7.251,16.176 "/>
<polyline style="fill:none;stroke:#000000;stroke-width:2;stroke-miterlimit:10;" points="14,18 13,20.382 10.333,22 10.001,22 
	5.583,20.25 "/>
<polyline style="fill:none;stroke:#000000;stroke-width:2;stroke-miterlimit:10;" points="14,16 12,14 8.583,14 7.378,15.625 "/>
</svg>
