<?xml version="1.0" encoding="iso-8859-1"?>
<!-- Generator: Adobe Illustrator 19.1.0, SVG Export Plug-In . SVG Version: 6.00 Build 0)  -->
<svg version="1.1" id="Layer_1" xmlns="http://www.w3.org/2000/svg" xmlns:xlink="http://www.w3.org/1999/xlink" x="0px" y="0px"
	 viewBox="0 0 32 32" style="enable-background:new 0 0 32 32;" xml:space="preserve">
<path d="M16.667,22.62c0,0.257,0,0.385,0,0.642c0.514,0.257,1.028,0.642,1.285,1.413C17.952,23.52,17.31,23.006,16.667,22.62"/>
<path d="M13.969,8.616c-0.393,0.089-1.246,0.423-1.609,0.678c-1.017,0.715-0.833,1.304-0.832,1.506
	c-0.274,0.284-0.145,0.607-0.145,0.607c0,0.128-0.566,0.493-1.115,0.509c0.566,0.105,0.905-0.057,0.905-0.057
	s-0.057,0.347-0.372,0.614c0.614-0.178,0.671-0.97,0.8-0.97s0.469,0.174,0.983-0.083s1.256-0.866,1.513-1.251S14.615,9.686,15,9.557
	c0,0,0-1.198,0-1.455C14.517,8.228,14.153,8.498,13.969,8.616z M12.297,10.563c0,0-0.061-0.417,0.097-0.566
	c0.276-0.261,0.573-0.112,0.573-0.112L12.297,10.563z"/>
<path d="M16.796,17.224v1.285c0,0,0.907,0.2,0.907,0.771c0,0.771-3.092,0.803-3.092,2.428c0,0.671,0.771,1.169,0.771,1.169v-0.899
	c0-1.339,3.425-1.119,3.425-2.735C18.808,17.913,16.796,17.224,16.796,17.224z"/>
<path d="M20.521,10.694c0-1.216-1.08-2.592-3.521-2.849v1.286c1.386,0,2.16,0.899,2.16,1.541c0,2.297-6.347,1.602-6.347,4.65
	c0,1.72,2.313,2.673,2.313,2.673v-1.413c-0.257-0.128-0.893-0.577-0.893-1.276C14.232,13.506,20.521,14.564,20.521,10.694z"/>
<path d="M15.382,12.381c0.275-0.089,0.795-0.235,1.156-0.341c0-0.385,0.128-5.094,0.128-5.351c0.29-0.588,0.771-2.698-0.642-2.698
	s-1.073,2.044-0.642,2.698C15.382,6.818,15.382,11.996,15.382,12.381z"/>
<path d="M16.41,19.665c0,0,0.128-5.139,0.128-5.268c-0.128,0-0.771,0.257-1.028,0.257c0,0.128,0.128,5.268,0.128,5.268
	S15.95,19.713,16.41,19.665z"/>
<path d="M15.641,22.108c0,0.128,0.127,4.239,0.127,4.624h0.514c0-0.257,0.13-5.138,0.13-5.267
	C16.027,21.594,15.641,21.851,15.641,22.108z"/>
<path d="M18,5.191v2.041c4.002,0.913,7,4.494,7,8.768c0,4.963-4.037,9-9,9s-9-4.037-9-9c0-4.275,2.998-7.855,7-8.768V5.191
	C8.888,6.135,5,10.618,5,16c0,6.065,4.935,11,11,11s11-4.935,11-11C27,10.618,23.112,6.135,18,5.191z"/>
</svg>
