<?xml version="1.0" encoding="iso-8859-1"?>
<!-- Generator: Adobe Illustrator 19.1.1, SVG Export Plug-In . SVG Version: 6.00 Build 0)  -->
<svg version="1.1" id="Layer_1" xmlns="http://www.w3.org/2000/svg" xmlns:xlink="http://www.w3.org/1999/xlink" x="0px" y="0px"
	 viewBox="0 0 32 32" style="enable-background:new 0 0 32 32;" xml:space="preserve">
<path style="fill:none;stroke:#000000;stroke-width:2;stroke-miterlimit:10;" d="M24.344,25l1.344-2.781
	C24.469,21.438,22,19.815,22,16.531c0-4.252,3.812-5.344,3.812-5.344L25.187,8c0,0-4.981-0.25-7.187-4h-4
	c-1.548,2.63-4.46,3.539-6.062,3.847"/>
<line style="fill:none;stroke:#000000;stroke-width:2;stroke-miterlimit:10;" x1="3" y1="3" x2="29" y2="29"/>
<g>
	<path d="M20.124,24.374c-1.418,0.278-2.935,0.757-4.124,1.59c-2.416-1.693-6.195-1.938-7.717-1.965l-0.691-1.431
		C8.983,21.587,11,19.755,11,16.531c0-0.518-0.065-0.989-0.157-1.438L5.461,9.711l-0.423,2.176l0.868,0.26
		C6.033,12.185,9,13.113,9,16.531c0,2.777-2.1,4.123-3.228,4.846l-0.746,0.479l2.013,4.165L7.688,26
		c1.498-0.052,5.77,0.212,7.622,1.975L16,28.63l0.689-0.656c1.188-1.13,3.376-1.638,5.187-1.848L20.124,24.374z"/>
</g>
</svg>
