<?xml version="1.0" encoding="iso-8859-1"?>
<!-- Generator: Adobe Illustrator 19.1.0, SVG Export Plug-In . SVG Version: 6.00 Build 0)  -->
<svg version="1.1" id="Layer_1" xmlns="http://www.w3.org/2000/svg" xmlns:xlink="http://www.w3.org/1999/xlink" x="0px" y="0px"
	 viewBox="0 0 32 32" style="enable-background:new 0 0 32 32;" xml:space="preserve">
<path style="fill:none;stroke:#000000;stroke-width:2;stroke-miterlimit:10;" d="M8.042,13.125C8.482,8.565,12.325,5,17,5
	c4.971,0,9,4.029,9,9c0,0.621-0.053,1.375-0.158,2.192C26.524,16.51,27,17.197,27,18c0,1.105-0.895,2-2,2
	c-0.007,0-0.013-0.002-0.02-0.002C23.788,23.562,20.285,27,17,27c-1.878,0-3.744-0.498-3.744-0.498"/>
<g>
	<path d="M14.36,11.226c0.179,0,0.358,0.068,0.494,0.205c0.273,0.273,0.273,0.715,0,0.988l-3.953,3.953l0.988,0.988l4.941-4.941
		c0.136-0.136,0.315-0.205,0.494-0.205c0.179,0,0.358,0.068,0.494,0.205c0.273,0.273,0.273,0.715,0,0.988l-4.941,4.941l0.988,0.988
		l4.447-4.447c0.136-0.136,0.315-0.205,0.494-0.205c0.179,0,0.358,0.068,0.494,0.205c0.273,0.273,0.273,0.715,0,0.988l-4.447,4.447
		l0.988,0.988l2.965-2.965c0.136-0.136,0.315-0.205,0.494-0.205c0.179,0,0.358,0.068,0.494,0.205c0.273,0.273,0.273,0.715,0,0.988
		l-5.435,5.435C13.541,25.591,12.468,26,11.395,26s-2.146-0.409-2.965-1.228L7.069,23.41c-0.76-0.76-1.104-1.771-1.057-2.766
		L6,14.748C6,14.224,6.424,13.8,6.948,13.8c0.524,0,0.948,0.424,0.948,0.948V17.4l5.97-5.97
		C14.002,11.294,14.181,11.226,14.36,11.226 M14.36,9.226c-0.721,0-1.399,0.281-1.908,0.79l-3.07,3.07
		C8.85,12.31,7.958,11.8,6.948,11.8c-0.787,0-1.528,0.307-2.085,0.863C4.307,13.22,4,13.96,4,14.748l0.012,5.857
		c-0.06,1.579,0.537,3.115,1.643,4.22l1.361,1.361C8.186,27.356,9.741,28,11.395,28c1.654,0,3.209-0.644,4.379-1.814l5.435-5.435
		c0.51-0.51,0.79-1.187,0.79-1.908c0-0.721-0.281-1.399-0.79-1.908c-0.039-0.039-0.078-0.076-0.119-0.112
		c0.657-1.042,0.532-2.44-0.375-3.347c-0.206-0.206-0.44-0.375-0.693-0.503c0-0.02,0.001-0.04,0.001-0.06
		c0-0.721-0.281-1.399-0.791-1.908c-0.51-0.51-1.187-0.79-1.908-0.79c-0.271,0-0.535,0.04-0.787,0.116
		c-0.08-0.11-0.17-0.215-0.269-0.314C15.759,9.507,15.081,9.226,14.36,9.226L14.36,9.226z"/>
</g>
</svg>
