<?xml version="1.0" encoding="iso-8859-1"?>
<!-- Generator: Adobe Illustrator 19.1.1, SVG Export Plug-In . SVG Version: 6.00 Build 0)  -->
<svg version="1.1"  xmlns="http://www.w3.org/2000/svg" xmlns:xlink="http://www.w3.org/1999/xlink" x="0px" y="0px"
	 viewBox="0 0 32 32" style="enable-background:new 0 0 32 32;" xml:space="preserve">
<path d="M16.5,3.875c0,0-0.783-0.875-1.75-0.875S13,3.794,13,4.75c0,0.592,0.583,1.167,0.583,1.167L16.5,8.833l2.917-2.917
	c0,0,0.583-0.574,0.583-1.167C20,3.794,19.217,3,18.25,3S16.5,3.875,16.5,3.875z"/>
<ellipse cx="6.972" cy="20" rx="0.972" ry="1"/>
<circle cx="11" cy="20" r="1"/>
<path style="fill:none;stroke:#000000;stroke-width:2;stroke-miterlimit:10;" d="M11.481,26H17c0-14.096-3.877-15-6-15l-1-1
	c-5.034,0-9,1.039-9,16h5.521"/>
<path style="fill:none;stroke:#000000;stroke-width:2;stroke-miterlimit:10;" d="M12,14c0,4.636-8,0.792-8,5c0,3.351,1.546,8,5,8
	s5-4.632,5-8"/>
<ellipse cx="20.972" cy="20" rx="0.972" ry="1"/>
<circle cx="25" cy="20" r="1"/>
<path style="fill:none;stroke:#000000;stroke-width:2;stroke-miterlimit:10;" d="M25.481,26H31c0-14.096-3.877-15-6-15l-1-1
	c-3.535,0-6.544,0.512-8.022,5.999"/>
<path style="fill:none;stroke:#000000;stroke-width:2;stroke-miterlimit:10;" d="M26,14c0,4.636-8,0.792-8,5c0,3.351,1.546,8,5,8
	s5-4.632,5-8"/>
<line style="fill:none;stroke:#000000;stroke-width:2;stroke-miterlimit:10;" x1="17" y1="26" x2="20.683" y2="26"/>
</svg>
