<?xml version="1.0" encoding="iso-8859-1"?>
<!-- Generator: Adobe Illustrator 19.1.0, SVG Export Plug-In . SVG Version: 6.00 Build 0)  -->
<svg version="1.1" id="Layer_1" xmlns="http://www.w3.org/2000/svg" xmlns:xlink="http://www.w3.org/1999/xlink" x="0px" y="0px"
	 viewBox="0 0 32 32" style="enable-background:new 0 0 32 32;" xml:space="preserve">
<path style="fill:none;stroke:#000000;stroke-width:2;stroke-miterlimit:10;" d="M6.007,17.273C5.408,17.619,5,18.259,5,19
	c0,1.049,0.811,1.9,1.838,1.984C7.598,23.452,9.992,27,13,27s5.402-3.548,6.162-6.016C20.189,20.9,21,20.049,21,19
	c0-0.741-0.401-1.381-1-1.727V16c0-5.342-1.453-7-4-7l-1-2c-7.022,0-9,3.261-9,9L6.007,17.273z"/>
<circle cx="10" cy="19" r="1"/>
<circle cx="16" cy="19" r="1"/>
<path style="fill:none;stroke:#000000;stroke-width:2;stroke-miterlimit:10;" d="M16,9c2.966,5.924-5.958,0.783-6,6"/>
<circle cx="24" cy="8" r="1"/>
<circle cx="21" cy="8" r="1"/>
<path d="M17,4v2.528l0.295,0.59C17.954,7.245,18.513,7.479,19,7.779V6h7v4h-5.048c0.314,0.636,0.536,1.318,0.69,2H28V4H17z"/>
</svg>
