<svg xmlns="http://www.w3.org/2000/svg" fill-rule="evenodd" stroke-linejoin="round" stroke-miterlimit="2" clip-rule="evenodd" viewBox="0 0 400 400"><defs/><path fill="none" d="M0 0h400v400H0z"/><path fill="#446c80" d="M100.7 233.141c-5.6-12.935-8.7-27.173-8.7-42.122C92 131.954 140.393 84 200 84s108 47.954 108 107.019c0 14.949-3.1 29.187-8.7 42.122-4.582 26.722-21.33 48.534-43.425 57.687v12.728c0 10.357-8.485 18.764-18.935 18.764-9.066 0-16.653-6.327-18.504-14.765-1.962 8.291-9.477 14.47-18.436 14.47-9.012 0-16.562-6.251-18.47-14.615-1.909 8.364-9.459 14.615-18.47 14.615-10.45 0-18.935-8.407-18.935-18.764v-12.433c-22.096-9.154-38.844-30.967-43.425-57.687z"/><path fill="#fff" fill-opacity=".2" d="M213.322 264.164c-3.328 3.135-23.317 3.135-26.644 0-3.332-3.136-3.332-4.928 0-11.199 2.328-4.703 9.832-17.022 13.322-17.022 3.489 0 10.993 12.319 13.322 17.022 3.331 6.271 3.331 8.063 0 11.199z"/><path fill="#fff" d="M150.179 213.14c12.03 0 21.797 9.678 21.797 21.599s-9.767 21.599-21.797 21.599c-12.03 0-21.797-9.678-21.797-21.599s9.767-21.599 21.797-21.599zm100.844 12.114l8.678-8.598c2.635-2.612 6.896-2.624 9.557.014 2.644 2.619 2.618 6.891.015 9.47l-8.678 8.599 8.678 8.599a6.637 6.637 0 01-.015 9.47c-2.643 2.619-6.954 2.594-9.557.014l-8.678-8.598-8.677 8.598c-2.635 2.612-6.896 2.624-9.558-.014-2.643-2.619-2.617-6.89-.014-9.47l8.678-8.599-8.678-8.599a6.638 6.638 0 01.014-9.47c2.644-2.619 6.954-2.594 9.558-.014l8.677 8.598z"/></svg>