<?xml version="1.0" encoding="iso-8859-1"?>
<!-- Generator: Adobe Illustrator 19.1.1, SVG Export Plug-In . SVG Version: 6.00 Build 0)  -->
<svg version="1.1"  xmlns="http://www.w3.org/2000/svg" xmlns:xlink="http://www.w3.org/1999/xlink" x="0px" y="0px"
	 viewBox="0 0 32 32" style="enable-background:new 0 0 32 32;" xml:space="preserve">
<path d="M6.648,21.99c-1.088,0-2.003-0.315-2.663-0.976c-2.373-2.373-0.287-8.038,4.853-13.177
	c5.139-5.139,10.805-7.226,13.177-4.853c2.373,2.373,0.287,8.038-4.853,13.177C13.453,19.871,9.471,21.99,6.648,21.99z
	 M19.341,3.986c-2.028,0-5.667,1.844-9.089,5.266c-4.35,4.351-6.149,9.052-4.853,10.349c1.299,1.294,5.998-0.501,10.349-4.853
	c4.35-4.351,6.149-9.052,4.853-10.349C20.323,4.123,19.892,3.986,19.341,3.986z"/>
<path style="fill:none;stroke:#000000;stroke-width:2;stroke-miterlimit:10;" d="M22,6.013c0.974-0.07,1.773,0.144,2.308,0.679
	c1.908,1.908-0.264,7.175-4.853,11.763S9.6,25.216,7.692,23.308c-0.535-0.535-0.749-1.333-0.679-2.307"/>
<path style="fill:none;stroke:#000000;stroke-width:2;stroke-miterlimit:10;" d="M25,9.013c0.974-0.07,1.773,0.144,2.308,0.679
	c1.908,1.908-0.264,7.175-4.853,11.763s-9.855,6.761-11.763,4.853c-0.535-0.535-0.749-1.334-0.679-2.308"/>
<path d="M19.518,5.582c-2.417,0.889-5.178,2.754-7.68,5.256c-2.499,2.499-4.361,5.256-5.252,7.67
	c0.025,0.001,0.042,0.004,0.073,0.004c0.588,0,1.433-0.244,2.424-0.715c0.919-1.786,2.367-3.744,4.169-5.546
	c1.801-1.801,3.758-3.248,5.544-4.168C19.349,6.909,19.552,6.024,19.518,5.582z"/>
<circle cx="18" cy="17" r="1"/>
<circle cx="22" cy="12" r="1"/>
<circle cx="13" cy="21" r="1"/>
</svg>
