<?xml version="1.0" encoding="iso-8859-1"?>
<!-- Generator: Adobe Illustrator 22.1.0, SVG Export Plug-In . SVG Version: 6.00 Build 0)  -->
<svg version="1.1" id="Layer_1_1_" xmlns="http://www.w3.org/2000/svg" xmlns:xlink="http://www.w3.org/1999/xlink" x="0px" y="0px"
	 viewBox="0 0 32 32" style="enable-background:new 0 0 32 32;" xml:space="preserve">
<path style="fill:none;stroke:#000000;stroke-width:2;stroke-linejoin:round;stroke-miterlimit:10;" d="M18.851,12.177L12,3.75"/>
<path style="fill:none;stroke:#000000;stroke-width:2;stroke-linejoin:round;stroke-miterlimit:10;" d="M3.625,11.75l8.549,7.103"/>
<path style="fill:none;stroke:#000000;stroke-width:2;stroke-miterlimit:10;" d="M18.625,18.62c1.844-1.85,1.836-4.845-0.008-6.695
	c-0.794-0.796-1.874-1.341-2.846-1.702c-1.36-0.505-2.89-0.129-3.915,0.899l-0.734,0.737c-1.029,1.025-1.404,2.556-0.899,3.915
	c0.361,0.972,0.905,2.052,1.702,2.846C13.775,20.464,16.775,20.464,18.625,18.62z"/>
<path d="M22.789,13.212c0.16,0.701,0.224,1.418,0.194,2.134C25.319,16.166,27,18.387,27,21c0,3.309-2.691,6-6,6
	c-2.612,0-4.832-1.679-5.653-4.014c-0.115,0.005-0.228,0.017-0.344,0.017c-0.611,0-1.209-0.075-1.79-0.208
	C14.031,26.344,17.207,29,21,29c4.411,0,8-3.589,8-8C29,17.205,26.341,14.027,22.789,13.212z"/>
<path d="M23,9.862v1.348c0.698,0.142,1.366,0.356,2,0.633V9.862c0-0.687-0.117-1.364-0.347-2.01L22.942,3.04l-1.885,0.67
	l1.711,4.813C22.922,8.954,23,9.404,23,9.862z"/>
</svg>
