<?xml version="1.0" encoding="iso-8859-1"?>
<!-- Generator: Adobe Illustrator 19.1.0, SVG Export Plug-In . SVG Version: 6.00 Build 0)  -->
<svg version="1.1" id="Layer_1" xmlns="http://www.w3.org/2000/svg" xmlns:xlink="http://www.w3.org/1999/xlink" x="0px" y="0px"
	 viewBox="0 0 32 32" style="enable-background:new 0 0 32 32;" xml:space="preserve">
<g>
	<path style="fill:none;stroke:#000000;stroke-width:1.9996;stroke-miterlimit:10;" d="M17.485,13C22.375,13,28,10,28,8
		c-1.75-1.208-7.125,0.333-10.034,2.999"/>
</g>
<line style="fill:none;stroke:#000000;stroke-width:2;stroke-linejoin:round;stroke-miterlimit:10;" x1="16" y1="28" x2="16" y2="26"/>
<line style="fill:none;stroke:#000000;stroke-width:2.5;stroke-linejoin:round;stroke-miterlimit:10;" x1="16" y1="25" x2="16" y2="23"/>
<line style="fill:none;stroke:#000000;stroke-width:3;stroke-linejoin:round;stroke-miterlimit:10;" x1="16" y1="22" x2="16" y2="19"/>
<line style="fill:none;stroke:#000000;stroke-width:3;stroke-linejoin:round;stroke-miterlimit:10;" x1="16" y1="18" x2="16" y2="14"/>
<path style="fill:none;stroke:#000000;stroke-width:2;stroke-miterlimit:10;" d="M14.602,9.002C14.232,9.381,14,9.906,14,10.493
	c0,0.662,0.296,1.245,0.75,1.631c-0.051,0.149-0.083,0.307-0.083,0.474C14.667,13.372,15.264,14,16,14
	c0.736,0,1.333-0.628,1.333-1.403c0-0.167-0.032-0.325-0.083-0.474c0.454-0.386,0.75-0.969,0.75-1.631
	c0-0.587-0.232-1.112-0.602-1.491"/>
<path style="fill:none;stroke:#000000;stroke-width:2;stroke-miterlimit:10;" d="M13,7.5C13,8.328,13.672,9,14.5,9
	c0.25,0,0.482-0.067,0.689-0.175C15.437,8.936,15.711,9,16,9s0.563-0.064,0.811-0.175C17.018,8.933,17.25,9,17.5,9
	C18.328,9,19,8.328,19,7.5c0-0.748-0.549-1.363-1.265-1.476C17.392,5.416,16.748,5,16,5s-1.392,0.416-1.735,1.024
	C13.549,6.137,13,6.752,13,7.5z"/>
<path style="fill:none;stroke:#000000;stroke-width:1.9996;stroke-miterlimit:10;" d="M16.843,14.713c0,0,8.24,3.579,11.157,0.287
	c-0.833-1.708-5.583-2.458-10.545-2"/>
<g>
	<path style="fill:none;stroke:#000000;stroke-width:1.9996;stroke-miterlimit:10;" d="M14.515,13C9.625,13,4,10,4,8
		c1.75-1.208,7.125,0.333,10.034,2.999"/>
</g>
<path style="fill:none;stroke:#000000;stroke-width:1.9996;stroke-miterlimit:10;" d="M15.157,14.713c0,0-8.24,3.579-11.157,0.287
	c0.833-1.708,5.583-2.458,10.545-2"/>
</svg>
