<?xml version="1.0" encoding="iso-8859-1"?>
<!-- Generator: Adobe Illustrator 19.1.1, SVG Export Plug-In . SVG Version: 6.00 Build 0)  -->
<svg version="1.1" id="Layer_1" xmlns="http://www.w3.org/2000/svg" xmlns:xlink="http://www.w3.org/1999/xlink" x="0px" y="0px"
	 viewBox="0 0 32 32" style="enable-background:new 0 0 32 32;" xml:space="preserve">
<g>
	<path style="fill:none;stroke:#000000;stroke-width:2;stroke-miterlimit:10;" d="M12,24.115c-5.055-3.164-7.522-6.652-6.919-7.709
		c0.194-0.341,0.862-0.544,1.784-0.544 M6.865,15.862c2.354,0,5.977,1.239,9.455,3.234c5.876,3.371,8.668,7.204,8.011,8.36
		c-0.195,0.341-0.863,0.544-1.787,0.544c-1.267,0-2.901-0.359-4.682-1.001"/>
</g>
<g>
	<g>
		<path d="M20.174,7.556c0.801,0,1.703,0.273,2.682,0.811c2.939,1.615,2.494,3.641,0.777,7.877c-0.797,1.967-1.616,3.987-1.28,5.806
			c-1.333-1.176-3.054-2.464-5.354-3.783c-2.563-1.471-4.809-2.336-6.692-2.898c0.842-0.153,1.649-0.403,2.334-0.907
			c0.775-0.569,1.422-1.49,2.171-2.556C16.174,9.967,17.869,7.556,20.174,7.556 M20.174,5.556c-4.747,0-6.988,6.023-8.717,7.293
			c-1.772,1.303-6.572,0-7.245,3.062c1.976,0.75,5.996,0.764,11.791,4.09c5.797,3.324,7.603,6.362,9.196,7.952
			c1.022-1.216,1.305-2.421-0.602-5.538c-2.085-3.408,6.939-11.56-0.778-15.801C22.459,5.867,21.252,5.556,20.174,5.556
			L20.174,5.556z"/>
	</g>
</g>
<circle style="fill:none;stroke:#000000;stroke-width:2;stroke-miterlimit:10;" cx="24.5" cy="5.5" r="1.5"/>
<path style="fill:none;stroke:#000000;stroke-width:2;stroke-miterlimit:10;" d="M19,24.501c0,1.933-1.566,3.5-3.497,3.5
	c-1.935,0-3.503-1.567-3.503-3.5s1.567-3.5,3.503-3.5C17.434,21.001,19,22.568,19,24.501z"/>
</svg>
