<?xml version="1.0" encoding="iso-8859-1"?>
<!-- Generator: Adobe Illustrator 19.1.0, SVG Export Plug-In . SVG Version: 6.00 Build 0)  -->
<svg version="1.1" id="Layer_1" xmlns="http://www.w3.org/2000/svg" xmlns:xlink="http://www.w3.org/1999/xlink" x="0px" y="0px"
	 viewBox="0 0 32 32" style="enable-background:new 0 0 32 32;" xml:space="preserve">
<path id="XMLID_11_" style="fill:none;stroke:#000000;stroke-width:2;stroke-miterlimit:10;" d="M12,20c0,0.984,1.328,2,3,2s3-1,3-2
	"/>
<path id="XMLID_12_" style="fill:none;stroke:#000000;stroke-width:2;stroke-miterlimit:10;" d="M18,20c0,0.984,1.328,2,3,2s3-1,3-2
	"/>
<path id="XMLID_15_" style="fill:none;stroke:#000000;stroke-width:2;stroke-miterlimit:10;" d="M24,20c0,0.984,1.328,2,3,2"/>
<path id="XMLID_14_" style="fill:none;stroke:#000000;stroke-width:2;stroke-miterlimit:10;" d="M6,20c0,0.984,1.328,2,3,2s3-1,3-2"
	/>
<path id="XMLID_18_" style="fill:none;stroke:#000000;stroke-width:2;stroke-miterlimit:10;" d="M12,15c0,0.984,1.328,2,3,2s3-1,3-2
	"/>
<path id="XMLID_17_" style="fill:none;stroke:#000000;stroke-width:2;stroke-miterlimit:10;" d="M18,15c0,0.984,1.328,2,3,2s3-1,3-2
	"/>
<path id="XMLID_16_" style="fill:none;stroke:#000000;stroke-width:2;stroke-miterlimit:10;" d="M24,15c0,0.984,1.328,2,3,2"/>
<path id="XMLID_13_" style="fill:none;stroke:#000000;stroke-width:2;stroke-miterlimit:10;" d="M6,15c0,0.984,1.328,2,3,2s3-1,3-2"
	/>
<path id="XMLID_22_" style="fill:none;stroke:#000000;stroke-width:2;stroke-miterlimit:10;" d="M12,10c0,0.984,1.328,2,3,2s3-1,3-2
	"/>
<path id="XMLID_21_" style="fill:none;stroke:#000000;stroke-width:2;stroke-miterlimit:10;" d="M18,10c0,0.984,1.328,2,3,2s3-1,3-2
	"/>
<path id="XMLID_20_" style="fill:none;stroke:#000000;stroke-width:2;stroke-miterlimit:10;" d="M24,10c0,0.984,1.328,2,3,2"/>
<path id="XMLID_19_" style="fill:none;stroke:#000000;stroke-width:2;stroke-miterlimit:10;" d="M6,10c0,0.984,1.328,2,3,2s3-1,3-2"
	/>
<polyline style="fill:none;stroke:#000000;stroke-width:2;stroke-miterlimit:10;" points="27,26 6,26 6,5 "/>
<polygon points="23,11 13,11 13,9 12,7 24,7 23,9 "/>
<rect x="15" y="5" width="6" height="3"/>
</svg>
