<?xml version="1.0" encoding="iso-8859-1"?>
<!-- Generator: Adobe Illustrator 19.1.1, SVG Export Plug-In . SVG Version: 6.00 Build 0)  -->
<svg version="1.1" id="Layer_1" xmlns="http://www.w3.org/2000/svg" xmlns:xlink="http://www.w3.org/1999/xlink" x="0px" y="0px"
	 viewBox="0 0 32 32" style="enable-background:new 0 0 32 32;" xml:space="preserve">
<path d="M13.056,12.355C12.427,11.452,11.602,11,10.583,11c-1.08,0-1.946,0.473-2.601,1.416C7.327,13.36,7,14.596,7,16.125
	c0,1.447,0.323,2.622,0.966,3.523C8.61,20.55,9.445,21,10.467,21c1.049,0,1.9-0.466,2.554-1.396C13.673,18.673,14,17.449,14,15.929
	C14,14.45,13.684,13.259,13.056,12.355z M11.594,18.217c-0.27,0.521-0.636,0.78-1.096,0.78c-0.447,0-0.808-0.268-1.084-0.803
	C9.138,17.657,9,16.93,9,16.01c0-0.907,0.138-1.636,0.414-2.187c0.276-0.55,0.648-0.826,1.117-0.826
	c0.455,0,0.814,0.267,1.075,0.804C11.869,14.337,12,15.086,12,16.049C12,16.974,11.865,17.697,11.594,18.217z"/>
<polyline style="fill:none;stroke:#000000;stroke-width:2;stroke-miterlimit:10;" points="27.001,8 21.001,13 17.332,10.388 "/>
<path d="M24.5,17c-1.93,0-3.5,1.57-3.5,3.5s1.57,3.5,3.5,3.5s3.5-1.57,3.5-3.5S26.43,17,24.5,17z M25,21h-1v-1v-2h1v2h2v1H25z"/>
<g>
	<path d="M21.707,17H18V9h8.001v7.277c0.796,0.284,1.482,0.783,2,1.431V7H17v12h3.276C20.56,18.204,21.059,17.518,21.707,17z"/>
</g>
<g>
	<path style="fill:none;stroke:#000000;stroke-width:2;stroke-miterlimit:10;" d="M16,5L5,7.444v17.111L16,27h1V5l0,0L16,5z"/>
</g>
</svg>
