<?xml version="1.0" encoding="iso-8859-1"?>
<!-- Generator: Adobe Illustrator 21.0.0, SVG Export Plug-In . SVG Version: 6.00 Build 0)  -->
<svg version="1.1" id="Layer_1" xmlns="http://www.w3.org/2000/svg" xmlns:xlink="http://www.w3.org/1999/xlink" x="0px" y="0px"
	 viewBox="0 0 32 32" style="enable-background:new 0 0 32 32;" xml:space="preserve">
<polyline style="fill:none;stroke:#000000;stroke-width:2;stroke-miterlimit:10;" points="16,26 6,26 6,6 26,6 26,16 "/>
<rect x="10" y="17" style="fill:none;stroke:#000000;stroke-width:2;stroke-miterlimit:10;" width="4" height="5"/>
<rect x="10" y="10" style="fill:none;stroke:#000000;stroke-width:2;stroke-miterlimit:10;" width="12" height="3"/>
<g>
	<path d="M23,30l-2-2h-3v-3l-2-2l2-2v-3h3l2-2l2,2h3v3l2,2l-2,2v3h-3L23,30z M20,26h2l1,1l1-1h2v-2l1-1l-1-1v-2h-2l-1-1l-1,1h-2v2
		l-1.086,1L20,24V26z"/>
</g>
</svg>
