<?xml version="1.0" encoding="iso-8859-1"?>
<!-- Generator: Adobe Illustrator 19.1.1, SVG Export Plug-In . SVG Version: 6.00 Build 0)  -->
<svg version="1.1" id="Layer_1" xmlns="http://www.w3.org/2000/svg" xmlns:xlink="http://www.w3.org/1999/xlink" x="0px" y="0px"
	 viewBox="0 0 32 32" style="enable-background:new 0 0 32 32;" xml:space="preserve">
<path style="fill:none;stroke:#000000;stroke-width:2;stroke-miterlimit:10;" d="M11.594,24.533
	c1.287-0.751,2.735-0.702,3.235,0.108c0.5,0.81-0.137,2.076-1.424,2.826s-2.735,0.702-3.235-0.108
	C9.67,26.549,10.308,25.283,11.594,24.533z"/>
<line style="fill:none;stroke:#000000;stroke-width:2;stroke-miterlimit:10;" x1="3" y1="3" x2="29" y2="29"/>
<g>
	<path d="M8.36,9.774C8.994,8.45,9.6,7.334,10.054,6.541c1.75,2.646,4.457,7.183,4.883,9.809l1.956,1.956
		C16.969,17.87,17,17.427,17,17c0-4.045-5.551-11.997-6.184-12.891L9.965,2.908L9.161,4.143C9.06,4.298,8.038,5.895,6.857,8.271
		L8.36,9.774z"/>
	<polygon points="20.878,22.292 28.989,17.748 28.011,16.002 19.409,20.823 	"/>
	<path d="M6,24c0-1.295,2.553-5.595,4.806-8.951l-1.441-1.441c-1.176,1.73-3.122,4.712-4.32,7.188
		c0.228-3.118,1.286-6.358,2.436-9.072l-1.53-1.53C4.454,13.562,3,17.891,3,22c0,3.644,1.962,5.998,4.997,6C7.998,28,7.999,28,8,28
		v-2C7.666,26,6,25.904,6,24z"/>
	<path d="M16.075,20.318l-4.168-4.168c0.611,1.062,1.094,2.13,1.094,2.804C13.001,18.964,12.93,20,11,20v2h1
		C14.092,22,15.346,21.302,16.075,20.318z"/>
	<polygon points="17.596,21.838 13.511,24.127 14.489,25.873 19.066,23.308 	"/>
</g>
</svg>
