<?xml version="1.0" encoding="iso-8859-1"?>
<!-- Generator: Adobe Illustrator 22.0.1, SVG Export Plug-In . SVG Version: 6.00 Build 0)  -->
<svg version="1.1" id="&#x421;&#x43B;&#x43E;&#x439;_1"
	 xmlns="http://www.w3.org/2000/svg" xmlns:xlink="http://www.w3.org/1999/xlink" x="0px" y="0px" viewBox="0 0 32 32"
	 style="enable-background:new 0 0 32 32;" xml:space="preserve">
<g>
	<path style="fill:none;stroke:#000000;stroke-width:2;stroke-miterlimit:10;" d="M14,24h4"/>
	<path d="M10,4h12c1.102,0,2,0.898,2,2v2h-2V6H10v20h12v-2h2v2c0,1.102-0.898,2-2,2H10c-1.102,0-2-0.898-2-2V6C8,4.898,8.898,4,10,4
		z"/>
	<path style="fill:none;stroke:#000000;stroke-width:2;stroke-miterlimit:10;" d="M27.028,16c0,2.227-1.801,4.028-4.028,4.028
		S18.972,18.227,18.972,16c0-2.227,1.801-4.028,4.028-4.028S27.028,13.773,27.028,16L27.028,16z"/>
	<line style="fill:none;stroke:#000000;stroke-width:2;stroke-miterlimit:10;" x1="18.714" y1="20.286" x2="20.171" y2="18.829"/>
	<line style="fill:none;stroke:#000000;stroke-width:2;stroke-miterlimit:10;" x1="25.829" y1="13.171" x2="27.198" y2="11.802"/>
	<line style="fill:none;stroke:#000000;stroke-width:2;stroke-miterlimit:10;" x1="18.714" y1="11.802" x2="20.171" y2="13.171"/>
	<line style="fill:none;stroke:#000000;stroke-width:2;stroke-miterlimit:10;" x1="25.829" y1="18.829" x2="27.198" y2="20.286"/>
	<line style="fill:none;stroke:#000000;stroke-width:2;stroke-miterlimit:10;" x1="17" y1="16" x2="18.972" y2="16"/>
	<line style="fill:none;stroke:#000000;stroke-width:2;stroke-miterlimit:10;" x1="27.028" y1="16" x2="29" y2="16"/>
	<line style="fill:none;stroke:#000000;stroke-width:2;stroke-miterlimit:10;" x1="23" y1="10" x2="23" y2="11.972"/>
	<line style="fill:none;stroke:#000000;stroke-width:2;stroke-miterlimit:10;" x1="23" y1="20.028" x2="23" y2="22"/>
</g>
</svg>
