<?xml version="1.0" encoding="iso-8859-1"?>
<!-- Generator: Adobe Illustrator 19.1.1, SVG Export Plug-In . SVG Version: 6.00 Build 0)  -->
<svg version="1.1" id="Layer_1" xmlns="http://www.w3.org/2000/svg" xmlns:xlink="http://www.w3.org/1999/xlink" x="0px" y="0px"
	 viewBox="0 0 32 32" style="enable-background:new 0 0 32 32;" xml:space="preserve">
<path d="M20.654,25.017c-0.613-0.325-0.829-1.191-0.866-2.02c-0.397-3.751-2.489-6.672-2.994-7.43
	c2.376-1.425,3.426-3.609,3.426-5.625C20.221,6.587,17.264,5,14.703,5H7.959c0.252,0.36,0.433,0.505,0.433,1.334V23.43
	c0,0.829-0.36,1.226-0.613,1.587h3.065c-0.252-0.361-0.613-0.758-0.613-1.587v-6.276c2.066-0.033,3.793-0.375,5.177-0.925
	c2.109,2.259,2.361,5.542,2.397,6.443c0.036,0.902-0.433,1.696-1.155,2.345H20.654z M10.231,15.604V6.19h3.967
	c2.741,0,3.643,1.732,3.607,3.571C17.625,14.846,12.575,15.604,10.231,15.604z"/>
<path d="M13.837,19.138c0.95-0.014,1.863-0.094,2.67-0.229c-0.109-0.366-0.506-1.16-0.705-1.487
	c-0.737,0.124-1.423,0.165-1.965,0.165V17.19c-0.252,0.09-1.371,0.252-1.839,0.307v7.917c0,0.829-0.361,1.226-0.613,1.587h3.066
	c-0.252-0.361-0.613-0.757-0.613-1.587V19.138z"/>
<path d="M17.085,8.118h-3.248v6.455c-0.414,0.144-1.243,0.415-1.838,0.469V8.261c0-0.829-0.18-0.974-0.433-1.334h4.491
	C16.417,7.144,16.904,7.667,17.085,8.118z"/>
<path d="M20.275,26.952h3.946c0,0-0.51-0.331-0.713-1.247c-0.203-0.916-0.153-2.52-1.019-4.456
	c-0.697-1.557-1.658-3.165-2.005-3.732c1.052-0.644,2.344-1.777,3.05-3.677c1.323-3.563-1.222-6.211-3.615-6.67
	c0,0,0.662,1.197,0.764,2.062c0,0,1.508,1.661,0.356,4.557c-0.891,2.24-2.953,2.952-2.953,2.952l0.738,1.527
	c0,0,0.104-0.026,0.283-0.089c0.455,0.516,2.251,2.769,2.34,6.302C21.446,24.483,21.573,25.934,20.275,26.952z"/>
</svg>
