<?xml version="1.0" encoding="iso-8859-1"?>
<!-- Generator: Adobe Illustrator 19.1.0, SVG Export Plug-In . SVG Version: 6.00 Build 0)  -->
<svg version="1.1" id="Layer_1" xmlns="http://www.w3.org/2000/svg" xmlns:xlink="http://www.w3.org/1999/xlink" x="0px" y="0px"
	 viewBox="0 0 32 32" style="enable-background:new 0 0 32 32;" xml:space="preserve">
<path style="fill:none;stroke:#000000;stroke-width:2;stroke-miterlimit:10;" d="M22,22.131V25c0,1.105-0.895,2-2,2h-8
	c-1.105,0-2-0.895-2-2v-2.869"/>
<path style="fill:none;stroke:#000000;stroke-width:2;stroke-miterlimit:10;" d="M16.073,26.991c1.747,0,2.068-2.067,3.88-3.529
	C23.561,20.55,28,21.995,28,15.928c0-0.371-0.252-1.959-1.216-1.682"/>
<path style="fill:none;stroke:#000000;stroke-width:2;stroke-miterlimit:10;" d="M23.181,8.601c0.496-0.852,0.055-1.983-1.107-2.489
	c-1.03-0.448-2.679-0.749-4.041-1.078c-0.996-0.24-1.865,0.561-2.034,1.374"/>
<path style="fill:none;stroke:#000000;stroke-width:2;stroke-miterlimit:10;" d="M16.001,15.017l-0.002-8.591
	c0-1.001,1.039-1.615,2.034-1.374c1.363,0.329,2.958,0.77,4.041,1.078c1.084,0.308,1.57,1.523,1.107,2.489l-3.114,7.266"/>
<path style="fill:none;stroke:#000000;stroke-width:2;stroke-miterlimit:10;" d="M23.181,8.601c0.697-0.705,1.875-0.562,2.425,0.126
	c0.687,0.861,1.233,1.663,1.617,2.744c0.55,1.547,0.257,2.057-0.44,2.775l-3.934,3.892"/>
<path style="fill:none;stroke:#000000;stroke-width:2;stroke-miterlimit:10;" d="M5.215,14.246
	c-0.965-0.277-1.216,1.311-1.216,1.682c0,6.067,4.439,4.623,8.047,7.535c1.812,1.462,2.133,3.529,3.88,3.529"/>
<path style="fill:none;stroke:#000000;stroke-width:2;stroke-miterlimit:10;" d="M16,6.409c-0.17-0.813-1.039-1.615-2.034-1.374
	c-1.363,0.329-3.012,0.629-4.041,1.078C8.763,6.618,8.321,7.749,8.817,8.601"/>
<path style="fill:none;stroke:#000000;stroke-width:2;stroke-miterlimit:10;" d="M11.932,15.884L8.817,8.618
	C8.355,7.652,8.841,6.437,9.924,6.13s2.679-0.749,4.041-1.078C14.961,4.812,16,5.425,16,6.426l-0.003,8.591"/>
<path style="fill:none;stroke:#000000;stroke-width:2;stroke-miterlimit:10;" d="M9.149,18.138l-3.934-3.892
	c-0.697-0.718-0.989-1.228-0.44-2.775c0.384-1.081,0.931-1.883,1.617-2.744c0.55-0.688,1.728-0.831,2.425-0.126"/>
</svg>
