<?xml version="1.0" encoding="iso-8859-1"?>
<!-- Generator: Adobe Illustrator 19.0.1, SVG Export Plug-In . SVG Version: 6.00 Build 0)  -->
<svg version="1.1" id="Layer_1" xmlns="http://www.w3.org/2000/svg" xmlns:xlink="http://www.w3.org/1999/xlink" x="0px" y="0px"
	 viewBox="0 0 32 32" style="enable-background:new 0 0 32 32;" xml:space="preserve">
<path id="XMLID_388_" style="fill:none;stroke:#000000;stroke-width:2;stroke-miterlimit:10;" d="M5,11c-1.105,0-2,0.895-2,2v1
	c0,4.956,2.043,9,6.419,9h0.007c2.159,0,4.101-1.314,4.902-3.319l0.301-0.752C14.853,18.368,15.396,18,16,18h0
	c0.604,0,1.147,0.368,1.371,0.928l0.301,0.752C18.474,21.686,20.416,23,22.575,23h0C27.043,23,29,18.957,29,14v-1
	c0-1.105-0.895-2-2-2H5z"/>
<line id="XMLID_385_" style="fill:none;stroke:#000000;stroke-width:2;stroke-miterlimit:10;" x1="29" y1="14" x2="32" y2="14"/>
<line id="XMLID_387_" style="fill:none;stroke:#000000;stroke-width:2;stroke-miterlimit:10;" x1="0" y1="14" x2="3" y2="14"/>
</svg>
