<?xml version="1.0" encoding="iso-8859-1"?>
<!-- Generator: Adobe Illustrator 19.1.1, SVG Export Plug-In . SVG Version: 6.00 Build 0)  -->
<svg version="1.1" id="Layer_1" xmlns="http://www.w3.org/2000/svg" xmlns:xlink="http://www.w3.org/1999/xlink" x="0px" y="0px"
	 viewBox="0 0 32 32" style="enable-background:new 0 0 32 32;" xml:space="preserve">
<path d="M12.019,23.928C11.684,23.971,11.346,24,11,24c-4.411,0-8-3.589-8-8s3.589-8,8-8s8,3.589,8,8
	c0,1.789-0.597,3.437-1.593,4.771c0.538,0.407,1.141,0.723,1.797,0.931C20.333,20.083,21,18.119,21,16c0-5.514-4.486-10-10-10
	S1,10.486,1,16s4.486,10,10,10c0.979,0,1.924-0.148,2.819-0.411C13.164,25.096,12.56,24.541,12.019,23.928z"/>
<g>
	<path d="M21,6c-0.976,0-1.918,0.147-2.811,0.409c0.654,0.492,1.254,1.05,1.795,1.663C20.318,8.029,20.655,8,21,8
		c4.411,0,8,3.589,8,8s-3.589,8-8,8s-8-3.589-8-8c0-1.795,0.601-3.447,1.603-4.783c-0.537-0.406-1.141-0.724-1.797-0.932
		C11.671,11.906,11,13.875,11,16c0,5.514,4.486,10,10,10s10-4.486,10-10S26.514,6,21,6z"/>
</g>
</svg>
