<?xml version="1.0" encoding="iso-8859-1"?>
<!-- Generator: Adobe Illustrator 19.1.1, SVG Export Plug-In . SVG Version: 6.00 Build 0)  -->
<svg version="1.1" id="Layer_1" xmlns="http://www.w3.org/2000/svg" xmlns:xlink="http://www.w3.org/1999/xlink" x="0px" y="0px"
	 viewBox="-8 10 32 32" style="enable-background:new -8 10 32 32;" xml:space="preserve">
<path d="M22,34c0,0.306-0.756,1-2,1c-0.321,0-0.61-0.05-0.863-0.127c0.468-2.244,2.047-5.234,2.721-6.358L22.766,27H17v-1.18
	l4.196-0.839l-0.393-1.961L17,23.78V23h-5v-4H9v-3H7v3H4v2h-5v1.78l-3.804-0.761l-0.393,1.961L-1,24.82V27h-5.408l0.463,1.329
	c0.065,0.186,1.263,3.555,3.584,6.161C-2.698,34.754-3.26,35-4,35c-1.224,0-2-0.703-2-1h-2c0,1.626,1.832,3,4,3
	c1.187,0,2.26-0.42,3-1.059C-0.26,36.58,0.813,37,2,37s2.26-0.42,3-1.059C5.74,36.58,6.813,37,8,37c1.187,0,2.26-0.42,3-1.059
	C11.74,36.58,12.813,37,14,37s2.26-0.42,3-1.059c0.001,0.001,0.003,0.002,0.004,0.004C17.004,35.962,17,35.982,17,36h0.066
	c0.738,0.606,1.784,1,2.934,1c2.168,0,4-1.374,4-3H22z M15,27H6v-2h9V27z M10,21v2H6v-2H10z M1,23h3v1v3H1V23z M14,35
	c-1.224,0-2-0.703-2-1h-2c0,0.306-0.756,1-2,1c-1.224,0-2-0.703-2-1H4c0,0.306-0.755,1-2,1c-0.295,0-0.563-0.042-0.801-0.109
	c-0.425-0.239-0.817-0.544-1.194-0.874C0.004,34.012,0,34.005,0,34h-0.015c-1.654-1.459-2.844-3.614-3.485-5h22.805
	c-0.669,1.29-1.56,3.209-2.012,5H16C16,34.306,15.244,35,14,35z"/>
</svg>
