<?xml version="1.0" encoding="iso-8859-1"?>
<!-- Generator: Adobe Illustrator 19.1.1, SVG Export Plug-In . SVG Version: 6.00 Build 0)  -->
<svg version="1.1" id="Layer_1" xmlns="http://www.w3.org/2000/svg" xmlns:xlink="http://www.w3.org/1999/xlink" x="0px" y="0px"
	 viewBox="0 0 32 32" style="enable-background:new 0 0 32 32;" xml:space="preserve">
<path style="fill:none;stroke:#000000;stroke-width:2;stroke-miterlimit:10;" d="M10.5,25.9L5,27l1.1-5.5L21.657,5.943
	c1.257-1.257,3.143-1.257,4.4,0l0,0c1.257,1.257,1.257,3.143,0,4.4L10.5,25.9z"/>
<path style="fill:none;stroke:#000000;stroke-width:2;stroke-miterlimit:10;" d="M11.611,16.011L4.42,8.82l4.4-4.4l7.115,7.115"/>
<path style="fill:none;stroke:#000000;stroke-width:2;stroke-miterlimit:10;" d="M20.545,16.145l6.998,6.998l-4.4,4.4l-7.035-7.035"
	/>
<line style="fill:none;stroke:#000000;stroke-width:2;stroke-miterlimit:10;" x1="20.365" y1="7.365" x2="24.672" y2="11.672"/>
<path style="fill:none;stroke:#000000;stroke-width:2;stroke-miterlimit:10;" d="M10.823,25.577c-0.529-2.168-2.232-3.872-4.4-4.4"
	/>
<line style="fill:none;stroke:#000000;stroke-width:2;stroke-miterlimit:10;" x1="12" y1="8" x2="10" y2="10"/>
<line style="fill:none;stroke:#000000;stroke-width:2;stroke-miterlimit:10;" x1="24" y1="20" x2="22" y2="22"/>
</svg>
