<?xml version="1.0" encoding="iso-8859-1"?>
<!-- Generator: Adobe Illustrator 19.1.0, SVG Export Plug-In . SVG Version: 6.00 Build 0)  -->
<svg version="1.1" id="Layer_1" xmlns="http://www.w3.org/2000/svg" xmlns:xlink="http://www.w3.org/1999/xlink" x="0px" y="0px"
	 viewBox="0 0 32 32" style="enable-background:new 0 0 32 32;" xml:space="preserve">
<path style="fill:none;stroke:#000000;stroke-width:2;stroke-miterlimit:10;" d="M9.295,8.997C7.868,10.589,7,12.693,7,15
	c0,0.417,0,3.183,0,3.6"/>
<path style="fill:none;stroke:#000000;stroke-width:2;stroke-miterlimit:10;" d="M25,18.6c0-0.417,0-3.183,0-3.6
	c0-4.971-4.029-9-9-9c-0.846,0-1.664,0.117-2.44,0.335"/>
<path style="fill:none;stroke:#000000;stroke-width:2;stroke-miterlimit:10;" d="M18,11v1c0,1.105-0.895,2-2,2h-4
	c-1.657,0-3,1.343-3,3v0c-1.105,0-2,0.895-2,2c0,1.105,0.895,2,2,2c0,3.866,3.134,7,7,7s7-3.134,7-7c1.105,0,2-0.895,2-2
	c0-1.105-0.895-2-2-2v0c0-1.657-1.343-3-3-3h0c-1.105,0-2-0.895-2-2V11"/>
<polygon points="9.737,1.859 10.606,3.872 12.757,4.298 11.111,5.747 11.371,7.924 9.484,6.806 7.494,7.726 7.974,5.586 
	6.484,3.977 8.667,3.773 "/>
<polygon points="22.235,1.97 22.951,2.829 24.064,2.725 23.469,3.671 23.911,4.698 22.828,4.424 21.988,5.162 21.913,4.047 
	20.952,3.477 21.989,3.061 "/>
<polygon points="3.999,6.687 4.909,7.778 6.324,7.646 5.567,8.849 6.13,10.154 4.752,9.806 3.685,10.744 3.59,9.327 2.368,8.602 
	3.687,8.073 "/>
<polygon points="27.348,4.291 27.947,6.081 29.761,6.604 28.243,7.726 28.307,9.613 26.77,8.516 24.995,9.16 25.564,7.359 
	24.403,5.87 26.291,5.855 "/>
<circle cx="14" cy="19" r="1"/>
<circle cx="18.5" cy="19.5" r="1.5"/>
</svg>
