<?xml version="1.0" encoding="utf-8"?>
<!-- Generator: Adobe Illustrator 18.1.1, SVG Export Plug-In . SVG Version: 6.00 Build 0)  -->
<svg version="1.1" id="Layer_1" xmlns="http://www.w3.org/2000/svg" xmlns:xlink="http://www.w3.org/1999/xlink" x="0px" y="0px"
	 viewBox="0 0 32 32" enable-background="new 0 0 32 32" xml:space="preserve">
<path fill="none" stroke="#000000" stroke-width="2" stroke-miterlimit="10" d="M20.5,29.3L17,30l0.7-3.5l9.9-9.9
	c0.8-0.8,2-0.8,2.8,0l0,0c0.8,0.8,0.8,2,0,2.8L20.5,29.3z"/>
<g>
	<polygon points="15.5,25 5,25 5,7 27,7 27,13.5 29,11.5 29,5 3,5 3,27 13.5,27 	"/>
	<polygon points="7,23 17.5,23 19.5,21 9,21 9,11 23,11 23,17.5 25,15.5 25,9 7,9 	"/>
</g>
</svg>
