<?xml version="1.0" encoding="utf-8"?>
<!-- Generator: Adobe Illustrator 18.1.1, SVG Export Plug-In . SVG Version: 6.00 Build 0)  -->
<svg version="1.1" id="Layer_1" xmlns="http://www.w3.org/2000/svg" xmlns:xlink="http://www.w3.org/1999/xlink" x="0px" y="0px"
	 viewBox="0 0 32 32" enable-background="new 0 0 32 32" xml:space="preserve">
<path fill="none" stroke="#000000" stroke-width="2" stroke-miterlimit="10" d="M8,17.1c0,0.8,0.8,2.1,1.7,2.2
	c0.7,3.3,3.3,7.7,6.3,7.7s5.6-4.4,6.3-7.7c0.9-0.1,1.7-1.3,1.7-2.2"/>
<path d="M8,16.8c0,0.8,0.8,2.1,1.7,2.2c0.7,3.3,3.3,7.7,6.3,7.7V24l1-2l-1-2l6-1.6C15.2,18.4,8,16.8,8,16.8z"/>
<path fill="none" stroke="#000000" stroke-width="2" stroke-miterlimit="10" d="M9.4,12C6.7,12.6,4,13.5,4,14.6
	c0,1.8,5.9,3.3,12,3.3s12-1.5,12-3.3c0-1.1-2.7-2-5.4-2.6"/>
<path fill="none" stroke="#000000" stroke-width="2" stroke-miterlimit="10" d="M18.8,5c-1.1,0-1.7,0.4-2.8,0.4S14.4,5,13.2,5
	c-2.1,0-3.1,4.3-3.8,7.4c-0.3,1,3.2,1.5,6.6,1.5s7-0.5,6.6-1.5C21.7,9.1,20.9,5,18.8,5z"/>
</svg>
