<?xml version="1.0" encoding="iso-8859-1"?>
<!-- Generator: Adobe Illustrator 19.1.1, SVG Export Plug-In . SVG Version: 6.00 Build 0)  -->
<svg version="1.1" id="Layer_1" xmlns="http://www.w3.org/2000/svg" xmlns:xlink="http://www.w3.org/1999/xlink" x="0px" y="0px"
	 viewBox="0 0 32 32" style="enable-background:new 0 0 32 32;" xml:space="preserve">
<path style="fill:none;stroke:#000000;stroke-width:2;stroke-miterlimit:10;" d="M17,23h8c0-4.971-4.029-9-9-9s-9,4.029-9,9h8"/>
<circle style="fill:none;stroke:#000000;stroke-width:2;stroke-miterlimit:10;" cx="16" cy="9" r="5"/>
<line style="fill:none;stroke:#000000;stroke-width:2;stroke-miterlimit:10;" x1="10" y1="24" x2="10" y2="29"/>
<line style="fill:none;stroke:#000000;stroke-width:2;stroke-miterlimit:10;" x1="22" y1="24" x2="22" y2="29"/>
<g>
	<path d="M13.184,21c0.414-1.161,1.514-2,2.816-2s2.402,0.839,2.816,2h2.083c-0.465-2.279-2.484-4-4.899-4s-4.434,1.721-4.899,4
		H13.184z"/>
	<path d="M16,25c-1.654,0-3-1.346-3-3h-2c0,2.757,2.243,5,5,5s5-2.243,5-5h-2C19,23.654,17.654,25,16,25z"/>
</g>
</svg>
