<?xml version="1.0" encoding="iso-8859-1"?>
<!-- Generator: Adobe Illustrator 22.0.1, SVG Export Plug-In . SVG Version: 6.00 Build 0)  -->
<svg version="1.1" id="&#x421;&#x43B;&#x43E;&#x439;_1"
	 xmlns="http://www.w3.org/2000/svg" xmlns:xlink="http://www.w3.org/1999/xlink" x="0px" y="0px" viewBox="0 0 32 32"
	 style="enable-background:new 0 0 32 32;" xml:space="preserve">
<path style="fill:none;stroke:#000000;stroke-width:2;stroke-miterlimit:10;" d="M25,8h-5V7c0-1.105,0.895-2,2-2s2-0.895,2-2
	s-0.895-2-2-2s-2,0.895-2,2"/>
<line style="fill:none;stroke:#000000;stroke-width:2;stroke-miterlimit:10;" x1="31" y1="9" x2="31" y2="0"/>
<line style="fill:none;stroke:#000000;stroke-width:2;stroke-miterlimit:10;" x1="26" y1="6" x2="31" y2="6"/>
<polygon points="31,0 29.698,0 26,4.437 26,6 26.769,6.641 31.769,0.641 "/>
<path style="fill:none;stroke:#000000;stroke-width:2;stroke-miterlimit:10;" d="M9.5,4.301c-0.5-0.403-1.199-0.403-1.699,0
	L4.699,7.5C4,8.102,3.801,9.102,4.102,9.898c0.796,2.301,2.898,6.903,7,11c4.097,4.102,8.699,6.102,11,7
	c0.898,0.301,1.796,0.102,2.5-0.5l3.097-3.097c0.5-0.5,0.5-1.199,0-1.699L23.602,18.5c-0.5-0.5-1.204-0.5-1.704,0l-2.5,2.5
	c0,0-2.796-1.199-5-3.301c-2.199-2.097-3.296-5-3.296-5l2.5-2.5c0.5-0.5,0.5-1.301,0-1.699L9.5,4.301z"/>
</svg>
