<?xml version="1.0" encoding="iso-8859-1"?>
<!-- Generator: Adobe Illustrator 19.1.1, SVG Export Plug-In . SVG Version: 6.00 Build 0)  -->
<svg version="1.1" id="Layer_1" xmlns="http://www.w3.org/2000/svg" xmlns:xlink="http://www.w3.org/1999/xlink" x="0px" y="0px"
	 viewBox="0 0 32 32" style="enable-background:new 0 0 32 32;" xml:space="preserve">
<polygon id="XMLID_317_" points="24,12 22,12 19,18 21,18 "/>
<polygon id="XMLID_316_" points="20,15 22,15 24,20 22,20 "/>
<line id="XMLID_315_" style="fill:none;stroke:#000000;stroke-width:2;stroke-miterlimit:10;" x1="20" y1="12" x2="20" y2="20"/>
<path id="XMLID_314_" style="fill:none;stroke:#000000;stroke-width:2;stroke-miterlimit:10;" d="M14,15v-0.5
	c0-0.828,0.672-1.5,1.5-1.5h0c0.828,0,1.5,0.672,1.5,1.5v0.84c0,0.42-0.176,0.822-0.486,1.106L14,18.75V19h4"/>
<path id="XMLID_313_" style="fill:none;stroke:#000000;stroke-width:2;stroke-miterlimit:10;" d="M11,12v5.5
	c0,0.828-0.672,1.5-1.5,1.5h0C8.672,19,8,18.328,8,17.5V17"/>
<polyline style="fill:none;stroke:#000000;stroke-width:2;stroke-miterlimit:10;" points="25,22 25,28 7,28 7,22 "/>
<polyline style="fill:none;stroke:#000000;stroke-width:2;stroke-miterlimit:10;" points="7,10 7,4 25,4 25,10 "/>
</svg>
