<?xml version="1.0" encoding="iso-8859-1"?>
<!-- Generator: Adobe Illustrator 19.1.0, SVG Export Plug-In . SVG Version: 6.00 Build 0)  -->
<svg version="1.1" id="Layer_1" xmlns="http://www.w3.org/2000/svg" xmlns:xlink="http://www.w3.org/1999/xlink" x="0px" y="0px"
	 viewBox="0 0 32 32" style="enable-background:new 0 0 32 32;" xml:space="preserve">
<circle cx="17" cy="15" r="2"/>
<line style="fill:none;stroke:#000000;stroke-width:2;stroke-miterlimit:10;" x1="10" y1="23" x2="22" y2="23"/>
<line style="fill:none;stroke:#000000;stroke-width:2;stroke-miterlimit:10;" x1="12" y1="26" x2="20" y2="26"/>
<path style="fill:none;stroke:#000000;stroke-width:2;stroke-miterlimit:10;" d="M24.01,13c-2.509,0-1.058,7-7.01,7
	c-3.707,0-5-3.514-5-5.167C12,11.472,14.069,7.069,11,4"/>
<path d="M10,14.833c0-0.327,0.019-0.658,0.046-0.99C10.019,13.491,10,13.125,10,12.73c0-0.409,0.045-0.833,0.093-1.282
	c0.202-1.886,0.453-4.234-2.282-8.032L6.188,4.584c2.288,3.178,2.099,4.944,1.916,6.652C8.053,11.717,8,12.214,8,12.73
	c0,4.106,1.44,6.571,4.551,7.639C10.829,18.86,10,16.592,10,14.833z"/>
</svg>
