<?xml version="1.0" encoding="iso-8859-1"?>
<!-- Generator: Adobe Illustrator 19.1.0, SVG Export Plug-In . SVG Version: 6.00 Build 0)  -->
<svg version="1.1" id="Layer_1" xmlns="http://www.w3.org/2000/svg" xmlns:xlink="http://www.w3.org/1999/xlink" x="0px" y="0px"
	 viewBox="0 0 32 32" style="enable-background:new 0 0 32 32;" xml:space="preserve">
<line style="fill:none;stroke:#000000;stroke-width:2;stroke-miterlimit:10;" x1="10" y1="27" x2="22" y2="27"/>
<line style="fill:none;stroke:#000000;stroke-width:2;stroke-miterlimit:10;" x1="11" y1="11" x2="24" y2="11"/>
<line style="fill:none;stroke:#000000;stroke-width:2;stroke-miterlimit:10;" x1="3" y1="3" x2="29" y2="29"/>
<g>
	<path d="M9.021,10.367C9.07,9.105,9.257,7.972,9.596,7h12.813C22.802,8.13,23,9.472,23,11c0,3.649-2.809,6.652-6.377,6.968
		l1.711,1.711C22.167,18.648,25,15.154,25,11c0-2.116-0.325-3.883-0.995-5.403L23.742,5H8.265L8.001,5.596
		C7.609,6.483,7.349,7.463,7.187,8.533L9.021,10.367z"/>
	<path d="M13.272,17.446c-1.67-0.709-3.009-2.049-3.719-3.719l-2.545-2.545C7.1,15.724,10.566,19.448,15,19.941V27h2v-5.826
		L13.272,17.446z"/>
</g>
</svg>
