<?xml version="1.0" encoding="iso-8859-1"?>
<!-- Generator: Adobe Illustrator 19.1.0, SVG Export Plug-In . SVG Version: 6.00 Build 0)  -->
<svg version="1.1" id="Layer_1" xmlns="http://www.w3.org/2000/svg" xmlns:xlink="http://www.w3.org/1999/xlink" x="0px" y="0px"
	 viewBox="0 0 32 32" style="enable-background:new 0 0 32 32;" xml:space="preserve">
<path style="fill:none;stroke:#000000;stroke-width:2;stroke-miterlimit:10;" d="M13.119,16.603C10.96,15.222,7.814,16.294,6.092,19
	s-1.369,6.017,0.79,7.398c2.159,1.381,5.305,0.309,7.027-2.397S15.278,17.984,13.119,16.603z M8,22.002c0-1.473,1.682-3.01,3-3.01"
	/>
<path style="fill:none;stroke:#000000;stroke-width:2;stroke-miterlimit:10;" d="M21.304,15.085
	c-2.395,0.528-3.801,3.381-3.14,6.372c0.661,2.991,3.139,4.987,5.534,4.459c2.395-0.528,3.801-3.381,3.14-6.372
	C26.176,16.553,23.699,14.557,21.304,15.085z M22.001,22c-0.499-0.452-1.829-2.58-0.001-4"/>
<path style="fill:none;stroke:#000000;stroke-width:2;stroke-miterlimit:10;" d="M13.569,16.921c0,0,4.496-7.118,13.431-7.921"/>
<path style="fill:none;stroke:#000000;stroke-width:2;stroke-miterlimit:10;" d="M18.028,12.088
	c-1.798-1.274-3.11-3.971-2.061-7.793c2.197,0.862,5.208,3.222,3.072,7.343"/>
<path style="fill:none;stroke:#000000;stroke-width:2;stroke-miterlimit:10;" d="M16.267,13.324
	c-2.585,0.375-5.782-1.587-7.306-5.245c2.735-0.937,7.755,0.412,8.317,5.058"/>
</svg>
