<?xml version="1.0" encoding="utf-8"?>
<!-- Generator: Adobe Illustrator 18.0.0, SVG Export Plug-In . SVG Version: 6.00 Build 0)  -->
<svg version="1.1" id="Layer_1" xmlns="http://www.w3.org/2000/svg" xmlns:xlink="http://www.w3.org/1999/xlink" x="0px" y="0px"
	 viewBox="0 0 32 32" enable-background="new 0 0 32 32" xml:space="preserve">
<circle fill="none" stroke="#000000" stroke-width="2" stroke-linecap="round" stroke-linejoin="round" stroke-miterlimit="10" cx="16" cy="16" r="12"/>
<g>
	<g>
		<g>
			<path d="M10.9,11.2l1.3,2.3c-0.1,0.2-0.2,0.3-0.3,0.5l-2.6,0C9.6,13,10.2,12,10.9,11.2 M11.5,8.2C8.8,9.8,7,12.7,7,16v0h6.5
				c0-0.9,0.5-1.7,1.3-2.2L11.5,8.2L11.5,8.2z"/>
		</g>
	</g>
	<g>
		<g>
			<path d="M21.1,11.2c0.8,0.8,1.3,1.8,1.6,2.8h-2.6c-0.1-0.2-0.2-0.4-0.3-0.5L21.1,11.2 M20.5,8.2l-3.2,5.6
				c0.8,0.4,1.3,1.2,1.3,2.2H25C25,12.7,23.2,9.8,20.5,8.2L20.5,8.2z"/>
		</g>
	</g>
	<g>
		<g>
			<path d="M16.3,20.5l1.3,2.3C17.1,22.9,16.5,23,16,23s-1.1-0.1-1.6-0.2l1.3-2.3c0.1,0,0.2,0,0.3,0S16.2,20.5,16.3,20.5 M17.3,18.2
				c-0.4,0.2-0.8,0.3-1.3,0.3s-0.9-0.1-1.3-0.3l-3.2,5.6c1.3,0.8,2.9,1.2,4.5,1.2s3.2-0.4,4.5-1.2L17.3,18.2L17.3,18.2z"/>
		</g>
	</g>
</g>
<g>
	<g>
		<path d="M16,14.4c-0.9,0-1.6,0.7-1.6,1.6c0,0.9,0.7,1.6,1.6,1.6c0.9,0,1.6-0.7,1.6-1.6C17.6,15.1,16.9,14.4,16,14.4L16,14.4z"/>
	</g>
</g>
</svg>
