<?xml version="1.0" encoding="iso-8859-1"?>
<!-- Generator: Adobe Illustrator 19.1.0, SVG Export Plug-In . SVG Version: 6.00 Build 0)  -->
<svg version="1.1" id="Layer_1" xmlns="http://www.w3.org/2000/svg" xmlns:xlink="http://www.w3.org/1999/xlink" x="0px" y="0px"
	 viewBox="0 0 32 32" style="enable-background:new 0 0 32 32;" xml:space="preserve">
<path style="fill:none;stroke:#000000;stroke-width:2;stroke-miterlimit:10;" d="M8.007,15.273C7.408,15.619,7,16.259,7,17
	c0,1.049,0.811,1.9,1.838,1.984C9.598,21.452,9.363,27,16,27s6.402-5.548,7.162-8.016C24.189,18.9,25,18.049,25,17
	c0-0.741-0.401-1.381-1-1.727V14c0-5.342-2.453-7-5-7l-1-2C10.978,5,8,8.261,8,14L8.007,15.273z"/>
<path style="fill:none;stroke:#000000;stroke-width:2;stroke-miterlimit:10;" d="M19,7c2.966,5.924-7,0.056-7,6"/>
<path style="fill:none;stroke:#000000;stroke-width:2;stroke-miterlimit:10;" d="M19,20h-1c-1.105,0-2-0.895-2-2v-2h5v2
	C21,19.105,20.105,20,19,20z"/>
<path style="fill:none;stroke:#000000;stroke-width:2;stroke-miterlimit:10;" d="M14,20h-1c-1.105,0-2-0.895-2-2v-2h5v2
	C16,19.105,15.105,20,14,20z"/>
</svg>
