<?xml version="1.0" encoding="iso-8859-1"?>
<!-- Generator: Adobe Illustrator 19.1.1, SVG Export Plug-In . SVG Version: 6.00 Build 0)  -->
<svg version="1.1" id="Layer_1" xmlns="http://www.w3.org/2000/svg" xmlns:xlink="http://www.w3.org/1999/xlink" x="0px" y="0px"
	 viewBox="0 0 32 32" style="enable-background:new 0 0 32 32;" xml:space="preserve">
<circle cx="20" cy="12" r="1"/>
<path d="M19.05,17.01c-0.01-0.55,0.43-1.01,0.99-1.01l0,0c0.55-0.01,1,0.44,1.01,0.99l0,0c0,0.55-0.44,1-1,1.01l0,0c0,0,0,0,0.01,0
	l0,0c-0.01,0-0.01,0-0.01,0l0,0C19.5,18,19.05,17.56,19.05,17.01z"/>
<path d="M22.859,16.22c-0.39-0.39-0.399-1.02-0.01-1.41l0,0c0.391-0.4,1.021-0.4,1.41-0.02l0,0c0.4,0.39,0.4,1.02,0.021,1.42l0,0
	c-0.2,0.2-0.461,0.3-0.721,0.3l0,0C23.31,16.51,23.06,16.41,22.859,16.22z"/>
<path d="M14,12.01c0-0.55,0.439-1,1-1l0,0c0.55,0,1,0.44,1,1l0,0c0,0.55-0.45,1-1,1l0,0C14.45,13.01,14,12.56,14,12.01z"/>
<path d="M15.75,9.18c-0.391-0.39-0.391-1.02,0-1.41l0,0c0,0,0,0-0.01,0l0,0c0.399-0.39,1.029-0.39,1.42-0.01l0,0
	c0.39,0.4,0.39,1.03,0,1.42l0,0c-0.19,0.2-0.45,0.29-0.71,0.29l0,0C16.2,9.47,15.939,9.38,15.75,9.18z"/>
<path d="M22.81,9.16c-0.39-0.39-0.39-1.03,0-1.42l0,0c0.38-0.39,1.021-0.39,1.41,0l0,0c0.39,0.38,0.39,1.02,0.01,1.41l0,0
	c-0.199,0.2-0.46,0.3-0.72,0.3l0,0C23.26,9.45,23.01,9.35,22.81,9.16z"/>
<path d="M18.979,7c0-0.55,0.44-1,1-1l0,0l0,0l0,0c0.551,0,1,0.44,1,1l0,0c0,0.55-0.449,1-1,1l0,0C19.43,8,18.979,7.56,18.979,7z"/>
<circle style="fill:none;stroke:#000000;stroke-width:2;stroke-miterlimit:10;" cx="20" cy="12" r="8"/>
<line style="fill:none;stroke:#000000;stroke-width:2;stroke-miterlimit:10;" x1="20" y1="12" x2="25" y2="12"/>
<path style="fill:none;stroke:#000000;stroke-width:2;stroke-miterlimit:10;" d="M12,13c0,2.313-3,6-3,6l4,4c0,0,3.937-3,6-3"/>
<polyline style="fill:none;stroke:#000000;stroke-width:2;stroke-miterlimit:10;" points="10,20 6,24 8,26 12,22 "/>
<line style="fill:none;stroke:#000000;stroke-width:2;stroke-miterlimit:10;" x1="7" y1="25" x2="4" y2="28"/>
</svg>
