<?xml version="1.0" encoding="iso-8859-1"?>
<!-- Generator: Adobe Illustrator 22.1.0, SVG Export Plug-In . SVG Version: 6.00 Build 0)  -->
<svg version="1.1" id="Layer_1" xmlns="http://www.w3.org/2000/svg" xmlns:xlink="http://www.w3.org/1999/xlink" x="0px" y="0px"
	 viewBox="0 0 32 32" style="enable-background:new 0 0 32 32;" xml:space="preserve">
<polyline style="fill:none;stroke:#000000;stroke-width:2;stroke-miterlimit:10;" points="22,4 26,4 26,11 24,13 "/>
<path d="M26.5,18c-3,0-5.5,2.5-5.5,5.5c0,1.2,0.4,2.2,1,3.1l-3.7,3.7l1.4,1.4l3.7-3.7c0.9,0.6,2,1,3.1,1c3,0,5.5-2.5,5.5-5.5
	S29.5,18,26.5,18z M26.5,27c-1.9,0-3.5-1.6-3.5-3.5s1.6-3.5,3.5-3.5s3.5,1.6,3.5,3.5S28.4,27,26.5,27z"/>
<path d="M18.758,27H7V5h13.998L21,11.417l2,1.998v3.457c0.621-0.329,1.292-0.576,2-0.721v-3.566l-2-1.998L22.998,3H5v26h11.758
	L18.758,27z"/>
</svg>
