<svg version="1.1" xmlns="http://www.w3.org/2000/svg" xmlns:xlink="http://www.w3.org/1999/xlink" x="0px" y="0px"
	 viewBox="0 0 32 32" style="enable-background:new 0 0 32 32;" xml:space="preserve">
<path style="fill:none;stroke:#000000;stroke-width:2;stroke-miterlimit:10;" d="M9,16c0,0-2-1.152-2-3.5
	c0-0.816,0.397-1.533,1.001-1.99C8.001,10.507,8,10.504,8,10.5C8,9.119,9.119,8,10.5,8c0.187,0,0.368,0.024,0.544,0.063
	C11.251,6.892,12.269,6,13.5,6c0.088,0,0.171,0.017,0.257,0.026C14.307,5.402,15.103,5,16,5s1.693,0.402,2.243,1.026
	C18.329,6.017,18.412,6,18.5,6c1.231,0,2.249,0.892,2.456,2.063C21.132,8.024,21.313,8,21.5,8c1.381,0,2.5,1.119,2.5,2.5
	c0,0.004-0.001,0.007-0.001,0.01C24.603,10.967,25,11.684,25,12.5c0,2.348-2,3.5-2,3.5"/>
<path d="M25.392,13.625l-1.004,1.73C25.123,15.782,26,16.587,26,18c0,1.068-0.59,2.064-1.539,2.6l-0.442,0.249l-0.06,0.504
	c-0.162,1.372-1.234,2.444-2.606,2.606l-0.504,0.06L20.6,24.461c-0.794,1.407-2.63,1.975-4.097,1.12L16,25.288l-0.503,0.293
	c-1.466,0.854-3.303,0.287-4.097-1.12l-0.249-0.442l-0.504-0.06c-1.372-0.162-2.444-1.234-2.606-2.606l-0.06-0.504L7.539,20.6
	C6.59,20.064,6,19.068,6,18c0-1.413,0.877-2.218,1.612-2.645l-1.004-1.73C4.951,14.587,4,16.182,4,18
	c0,1.625,0.808,3.146,2.138,4.077c0.415,1.896,1.89,3.37,3.785,3.785c1.326,1.896,3.933,2.669,6.077,1.706
	C16.64,27.855,17.31,28,18,28c1.625,0,3.146-0.808,4.077-2.138c1.896-0.415,3.37-1.89,3.785-3.785C27.192,21.146,28,19.625,28,18
	C28,16.182,27.049,14.587,25.392,13.625z"/>
<path d="M19,16c0,0.552-0.448,1-1,1s-1-0.448-1-1H15c0,0.552-0.448,1-1,1s-1-0.448-1-1h-2c0,3.024,2,3.724,2,3.724S14.133,22,16,22
	s3-2.276,3-2.276s2-0.699,2-3.724H19z"/>
</svg>