<?xml version="1.0" encoding="iso-8859-1"?>
<!-- Generator: Adobe Illustrator 19.1.1, SVG Export Plug-In . SVG Version: 6.00 Build 0)  -->
<svg version="1.1" id="Layer_1" xmlns="http://www.w3.org/2000/svg" xmlns:xlink="http://www.w3.org/1999/xlink" x="0px" y="0px"
	 viewBox="0 0 32 32" style="enable-background:new 0 0 32 32;" xml:space="preserve">
<path style="fill:none;stroke:#000000;stroke-width:2.008;stroke-miterlimit:10;" d="M23.73,6.725l1.037-1.047l-2.265-2.265
	c0,0-1.026,1.031-1.04,1.044"/>
<path style="fill:none;stroke:#000000;stroke-width:2.0076;stroke-linecap:round;stroke-miterlimit:10;" d="M20.093,3.395
	L16.49,6.998c0,0,1.722,1.722,4.387,4.387s3.202,5.431,3.202,5.431s1.802-0.375,3.603-2.177c1.802-1.802,2.177-3.344,2.177-3.344
	s-2.639-0.773-5.416-3.551S20.093,3.395,20.093,3.395z"/>
<path style="fill:none;stroke:#000000;stroke-width:2;stroke-miterlimit:10;" d="M17.588,7.583l-3.19,3.19l-0.19,0.19l-0.069,0.259
	l-0.069,0.26c-0.269,0.998-1.24,3.859-2.481,5.1c-0.674,0.674-1.345,1.001-2.196,1.416c-1.061,0.517-2.381,1.161-3.805,2.584
	c-1.608,1.608-2.446,2.765-3.478,5.766c-0.174,0.507-0.14,1.05,0.095,1.531c0.235,0.481,0.644,0.842,1.15,1.015
	c0.209,0.072,0.429,0.109,0.65,0.109c0.855,0,1.617-0.544,1.895-1.353c0.858-2.497,1.424-3.136,2.522-4.234
	c0.95-0.95,1.773-1.351,2.727-1.816c0.995-0.484,2.123-1.034,3.273-2.184c1.832-1.832,2.966-5.078,3.362-6.362l2.638-2.638"/>
</svg>
