<?xml version="1.0" encoding="iso-8859-1"?>
<!-- Generator: Adobe Illustrator 19.1.0, SVG Export Plug-In . SVG Version: 6.00 Build 0)  -->
<svg version="1.1" id="Layer_1" xmlns="http://www.w3.org/2000/svg" xmlns:xlink="http://www.w3.org/1999/xlink" x="0px" y="0px"
	 viewBox="0 0 32 32" style="enable-background:new 0 0 32 32;" xml:space="preserve">
<line style="fill:none;stroke:#000000;stroke-width:2;stroke-miterlimit:10;" x1="29" y1="16" x2="23" y2="16"/>
<line style="fill:none;stroke:#000000;stroke-width:2;stroke-miterlimit:10;" x1="9" y1="16" x2="3" y2="16"/>
<line style="fill:none;stroke:#000000;stroke-width:2;stroke-miterlimit:10;" x1="16" y1="9" x2="16" y2="3"/>
<path d="M11.004,23.481C8.592,21.865,7,19.115,7,16c0-4.963,4.038-9,9-9s9,4.037,9,9c0,3.115-1.592,5.865-4.004,7.481l-1.464,2.927
	C23.868,24.932,27,20.829,27,16c0-6.065-4.935-11-11-11S5,9.935,5,16c0,4.829,3.132,8.932,7.468,10.408L11.004,23.481z"/>
<polygon points="16,29 19,23 16,24 13,23 "/>
</svg>
