<?xml version="1.0" encoding="iso-8859-1"?>
<!-- Generator: Adobe Illustrator 19.1.0, SVG Export Plug-In . SVG Version: 6.00 Build 0)  -->
<svg version="1.1" id="Layer_1" xmlns="http://www.w3.org/2000/svg" xmlns:xlink="http://www.w3.org/1999/xlink" x="0px" y="0px"
	 viewBox="0 0 32 32" style="enable-background:new 0 0 32 32;" xml:space="preserve">
<circle style="fill:none;stroke:#000000;stroke-width:2;stroke-miterlimit:10;" cx="8" cy="19" r="3"/>
<path style="fill:none;stroke:#000000;stroke-width:2;stroke-miterlimit:10;" d="M4,26c0-2.209,1.791-4,4-4s4,1.791,4,4"/>
<path style="fill:none;stroke:#000000;stroke-width:2;stroke-miterlimit:10;" d="M4.505,10.936c0.484-2.356,2.669-3.82,5.781-2.33
	c3.68,1.539,6.365-0.699,7.239-1.606c1.632,0.448,1.572,1.245,2.505,2.975c2.117,3.926,5.099,0.815,7.762,2.05
	c0.902,3.104-1.424,6.416-1.424,6.416l-0.521,2.464l-5.433-1.479l0.22-1.246l-2.029-0.649l-2.341,0.8c0,0-2.955-0.499-6.663-2.039
	C5.844,14.639,4,12.097,4,12.097L4.505,10.936z"/>
<line style="fill:none;stroke:#000000;stroke-width:2;stroke-miterlimit:10;" x1="17.688" y1="12.999" x2="20.168" y2="10.52"/>
</svg>
