<?xml version="1.0" encoding="iso-8859-1"?>
<!-- Generator: Adobe Illustrator 19.1.1, SVG Export Plug-In . SVG Version: 6.00 Build 0)  -->
<svg version="1.1" id="Layer_1" xmlns="http://www.w3.org/2000/svg" xmlns:xlink="http://www.w3.org/1999/xlink" x="0px" y="0px"
	 viewBox="0 0 32 32" style="enable-background:new 0 0 32 32;" xml:space="preserve">
<path style="fill:none;stroke:#000000;stroke-width:2;stroke-miterlimit:10;" d="M23,14c0,0-8.335-3-11-3c-4.971,0-9,4.029-9,9
	s4.029,9,9,9c3.534,0,6.592-2.037,8.065-5C20.663,22.795,23,14,23,14z"/>
<polyline style="fill:none;stroke:#000000;stroke-width:2;stroke-miterlimit:10;" points="23,14 26,3.224 29.741,4.244 "/>
<path id="XMLID_314_" style="fill:none;stroke:#000000;stroke-width:2;stroke-miterlimit:10;" d="M11,21v0.5
	c0,0.828,0.672,1.5,1.5,1.5h0c0.828,0,1.5-0.672,1.5-1.5v-0.84c0-0.42-0.176-0.822-0.486-1.106L11,19v-2h4"/>
</svg>
