<?xml version="1.0" encoding="iso-8859-1"?>
<!-- Generator: Adobe Illustrator 19.1.1, SVG Export Plug-In . SVG Version: 6.00 Build 0)  -->
<svg version="1.1" id="Layer_1" xmlns="http://www.w3.org/2000/svg" xmlns:xlink="http://www.w3.org/1999/xlink" x="0px" y="0px"
	 viewBox="0 0 32 32" style="enable-background:new 0 0 32 32;" xml:space="preserve">
<path style="fill:none;stroke:#000000;stroke-width:2;stroke-miterlimit:10;" d="M17,19h5c0,0,6-2.19,6-15c-12.719,0-15,7-15,7v4
	L17,19z"/>
<g>
	<path style="fill:none;stroke:#000000;stroke-width:2;stroke-miterlimit:10;" d="M18,8.5c0-0.786-0.37-1.478-0.937-1.937
		c-1.945,1.19-3.013,2.533-3.559,3.428C13.96,10.6,14.681,11,15.5,11C16.881,11,18,9.881,18,8.5z"/>
	<path style="fill:none;stroke:#000000;stroke-width:2;stroke-miterlimit:10;" d="M25.653,15.25C25.22,14.506,24.423,14,23.5,14
		c-1.381,0-2.5,1.119-2.5,2.5c0,1.009,0.601,1.873,1.461,2.268C23.143,18.371,24.468,17.382,25.653,15.25z"/>
</g>
<polyline style="fill:none;stroke:#000000;stroke-width:2;stroke-miterlimit:10;" points="13,15 11,17 15,21 17,19 "/>
<path style="fill:none;stroke:#000000;stroke-width:2;stroke-miterlimit:10;" d="M9,19l4,4c0,0,0.028,2.972-2,5l-7-7
	C5.953,19.047,9,19,9,19z"/>
</svg>
