<?xml version="1.0" encoding="iso-8859-1"?>
<!-- Generator: Adobe Illustrator 19.1.0, SVG Export Plug-In . SVG Version: 6.00 Build 0)  -->
<svg version="1.1" id="Layer_1" xmlns="http://www.w3.org/2000/svg" xmlns:xlink="http://www.w3.org/1999/xlink" x="0px" y="0px"
	 viewBox="0 0 32 32" style="enable-background:new 0 0 32 32;" xml:space="preserve">
<polyline style="fill:none;stroke:#000000;stroke-width:2;stroke-miterlimit:10;" points="21.482,25.879 5.941,19.442 5,11.249 
	11.459,6.121 27,12.558 "/>
<path d="M14.338,12.042l-0.982,3.914l0.015,0.006l1.9-3.533l1.345,0.557l-3.118,4.953l-1.523-0.631l1.021-3.775l-0.015-0.006
	l-1.947,3.392l-1.522-0.63l1.297-5.709l1.344,0.557l-1.11,3.861l0.016,0.007l2.026-3.481L14.338,12.042z"/>
<path d="M19.056,13.996l-0.464,3.656l0.015,0.006l1.36-3.285l1.3,0.538l-2.208,5.331l-1.522-0.631l0.438-3.676l-0.015-0.007
	l-1.364,3.293l-1.299-0.538l2.207-5.331L19.056,13.996z"/>
<path d="M25.685,16.742l-0.982,3.914l0.016,0.006l1.9-3.534l1.344,0.557l-3.118,4.954l-1.523-0.631l1.021-3.775l-0.015-0.007
	l-1.947,3.393l-1.522-0.631l1.296-5.708l1.344,0.557l-1.109,3.861l0.016,0.007l2.027-3.481L25.685,16.742z"/>
</svg>
