<?xml version="1.0" encoding="iso-8859-1"?>
<!-- Generator: Adobe Illustrator 19.1.1, SVG Export Plug-In . SVG Version: 6.00 Build 0)  -->
<svg version="1.1"  xmlns="http://www.w3.org/2000/svg" xmlns:xlink="http://www.w3.org/1999/xlink" x="0px" y="0px"
	 viewBox="0 0 32 32" style="enable-background:new 0 0 32 32;" xml:space="preserve">
<polygon points="17,6 15,6 8,26 10,26 "/>
<path d="M24,32c-4.4,0-8-3.6-8-8s3.6-8,8-8s8,3.6,8,8S28.4,32,24,32z M24,18c-3.3,0-6,2.7-6,6s2.7,6,6,6s6-2.7,6-6S27.3,18,24,18z
	 M28,23h-3v-3h-2v3h-3v2h3v3h2v-3h3V23z"/>
<path d="M21.076,17.646L17,6h-2l4.443,12.694C19.933,18.272,20.482,17.92,21.076,17.646z"/>
<path d="M20.095,18.19L20,18h-8l-1,2h7.26C18.756,19.29,19.376,18.674,20.095,18.19z"/>
</svg>
