<?xml version="1.0" encoding="iso-8859-1"?>
<!-- Generator: Adobe Illustrator 19.2.0, SVG Export Plug-In . SVG Version: 6.00 Build 0)  -->
<svg version="1.1" id="Layer_1" xmlns="http://www.w3.org/2000/svg" xmlns:xlink="http://www.w3.org/1999/xlink" x="0px" y="0px"
	 viewBox="0 0 32 32" style="enable-background:new 0 0 32 32;" xml:space="preserve">
<path style="fill:none;stroke:#000000;stroke-width:2;stroke-miterlimit:10;" d="M18,14.33V26.5c0,0-0.965,0.5-2,0.5s-2-0.5-2-0.5
	V13.394"/>
<path style="fill:none;stroke:#000000;stroke-width:2;stroke-miterlimit:10;" d="M17,11.569c0,0-4-2.514-4-4.569"/>
<path style="fill:none;stroke:#000000;stroke-width:2;stroke-miterlimit:10;" d="M25,15.33V25.5c0,0-0.965,0.5-2,0.5s-2-0.5-2-0.5
	V16"/>
<path style="fill:none;stroke:#000000;stroke-width:2;stroke-miterlimit:10;" d="M11,15.33V25.5c0,0-0.965,0.5-2,0.5s-2-0.5-2-0.5
	V14.394"/>
<path style="fill:none;stroke:#000000;stroke-width:2;stroke-miterlimit:10;" d="M18.165,6.153c0,0.707-1.602,2.28-1.602,2.28"/>
<path style="fill:none;stroke:#000000;stroke-width:2;stroke-miterlimit:10;" d="M25.165,7.153c0,0.707-1.602,2.28-1.602,2.28"/>
<path d="M23.56,5.112L23.343,5h-0.637l-0.18,0.072C22.457,5.1,21.803,5.37,21.013,5.91c0.398,0.521,0.75,1.103,1.013,1.743
	c0.368-0.263,0.71-0.462,0.942-0.58C24.043,7.722,26,9.261,26,11c0,2.178-2.582,4.479-3.576,5.183l1.151,1.635
	C23.756,17.691,28,14.665,28,11C28,7.448,23.741,5.206,23.56,5.112z"/>
<path d="M21.543,13.508C20.903,14.773,20,15.534,20,15.534V17h2v-2l0.447-0.895C22.437,14.1,22.025,13.884,21.543,13.508z"/>
<path d="M22.491,10.14c-0.018,0.795-0.181,1.555-0.445,2.267c0.633,0.498,1.182,0.858,1.422,1.008l1.064-1.693
	C23.886,11.315,23.137,10.74,22.491,10.14z"/>
<g>
	<path d="M6,11c0-2.201,2.154-3.511,2.967-3.927c0.27,0.163,0.595,0.381,0.93,0.645c0.234-0.657,0.557-1.254,0.94-1.791
		C10.159,5.43,9.621,5.144,9.56,5.112L9.343,5H8.706l-0.18,0.072C8.342,5.146,4,6.94,4,11c0,3.083,3.408,4.822,3.553,4.895
		l0.894-1.789C8.422,14.093,6,12.832,6,11z"/>
	<path d="M10.875,13.774c-0.823,1.106-1.89,2.012-2.451,2.409l1.151,1.635c0.103-0.072,1.52-1.084,2.723-2.617
		C11.83,14.826,11.326,14.348,10.875,13.774z"/>
</g>
<path style="fill:none;stroke:#000000;stroke-width:2;stroke-miterlimit:10;" d="M15,14c0,0-3-1.499-3-4c0-3.43,3.9-5,3.9-5h0.2
	c0,0,3.9,2.016,3.9,5c0,3.188-4,6-4,6"/>
<path d="M9.5,10c0-0.276,0.019-0.544,0.05-0.805C8.688,8.405,8,7.565,8,7H6c0,2.063,2.569,4.111,3.865,5.014
	C9.638,11.407,9.5,10.736,9.5,10z"/>
</svg>
