<?xml version="1.0" encoding="iso-8859-1"?>
<!-- Generator: Adobe Illustrator 19.1.1, SVG Export Plug-In . SVG Version: 6.00 Build 0)  -->
<svg version="1.1" id="Layer_1" xmlns="http://www.w3.org/2000/svg" xmlns:xlink="http://www.w3.org/1999/xlink" x="0px" y="0px"
	 viewBox="-7 9 32 32" enable-background="new -7 9 32 32" xml:space="preserve">
<path d="M18,19h-2v-2c0-2.126-0.634-4.207-0.66-4.294L15.122,12H0.005l-0.249,0.635C-0.275,12.713-1,14.588-1,17v17.688
	C-1,36.515,0.486,38,2.312,38h10.375C14.514,38,16,36.515,16,34.688v-1.744c4.662-0.525,5.976-4.713,6-7.006V23
	C22,20.127,19.62,19.034,18,19z M14,34.688C14,35.412,13.411,36,12.687,36H2.312C1.588,36,1,35.412,1,34.688V19h13V34.688z M1,17
	c0-1.254,0.237-2.348,0.417-3h12.196C13.78,14.71,14,15.861,14,17H1z M20,25.924c-0.008,0.48-0.203,4.401-4,4.994V21h1.979
	C18.186,21.004,20,21.097,20,23V25.924z M7.5,20C6.122,20,5,21.122,5,22.5S6.122,25,7.5,25s2.5-1.122,2.5-2.5S8.878,20,7.5,20z
	 M7.5,23C7.224,23,7,22.776,7,22.5S7.224,22,7.5,22S8,22.224,8,22.5S7.776,23,7.5,23z M7.5,26C6.122,26,5,27.121,5,28.5
	S6.122,31,7.5,31s2.5-1.121,2.5-2.5S8.878,26,7.5,26z M7.5,29C7.224,29,7,28.775,7,28.5S7.224,28,7.5,28S8,28.225,8,28.5
	S7.776,29,7.5,29z M12.5,23c0.171,0,0.338,0.018,0.5,0.051V25.5c0-0.275-0.224-0.5-0.5-0.5S12,25.225,12,25.5s0.224,0.5,0.5,0.5
	s0.5-0.225,0.5-0.5v2.449C12.838,27.982,12.671,28,12.5,28c-1.378,0-2.5-1.121-2.5-2.5S11.122,23,12.5,23z M12.5,29
	c0.171,0,0.338,0.018,0.5,0.051V31.5c0-0.275-0.224-0.5-0.5-0.5S12,31.225,12,31.5s0.224,0.5,0.5,0.5s0.5-0.225,0.5-0.5v2.449
	C12.838,33.982,12.671,34,12.5,34c-1.378,0-2.5-1.121-2.5-2.5S11.122,29,12.5,29z M5,31.5C5,32.879,3.878,34,2.5,34
	c-0.172,0-0.337-0.027-0.5-0.062V31.5C2,31.775,2.224,32,2.5,32S3,31.775,3,31.5S2.776,31,2.5,31S2,31.225,2,31.5v-2.439
	C2.163,29.027,2.328,29,2.5,29C3.878,29,5,30.121,5,31.5z M10.051,20H13v1.949C12.838,21.982,12.671,22,12.5,22
	C11.293,22,10.283,21.14,10.051,20z M9.949,34H5.051c0.232-1.14,1.242-2,2.449-2S9.717,32.86,9.949,34z M2.5,28
	c-0.172,0-0.337-0.027-0.5-0.062V25.5C2,25.775,2.224,26,2.5,26S3,25.775,3,25.5S2.776,25,2.5,25S2,25.225,2,25.5v-2.439
	C2.163,23.027,2.328,23,2.5,23C3.878,23,5,24.121,5,25.5S3.878,28,2.5,28z M2,20h2.949c-0.232,1.14-1.242,2-2.449,2
	c-0.172,0-0.337-0.027-0.5-0.061V20z"/>
</svg>
