<?xml version="1.0" encoding="utf-8"?>
<!-- Generator: Adobe Illustrator 18.1.1, SVG Export Plug-In . SVG Version: 6.00 Build 0)  -->
<svg version="1.1" id="Layer_1" xmlns="http://www.w3.org/2000/svg" xmlns:xlink="http://www.w3.org/1999/xlink" x="0px" y="0px"
	 viewBox="0 0 32 32" enable-background="new 0 0 32 32" xml:space="preserve">
<rect x="5" y="18" fill="none" stroke="#000000" stroke-width="2" stroke-miterlimit="10" width="22" height="8"/>
<circle cx="9" cy="22" r="1"/>
<line fill="none" stroke="#000000" stroke-width="2" stroke-miterlimit="10" x1="24" y1="22" x2="12" y2="22"/>
<g>
	<path d="M7.3,6.7C7.3,6.7,7.3,6.8,7.3,6.7c-1,1.5-1.6,2.4-2.2,3.5v0.1l0,0c-0.1,0.2-0.1,0.3,0,0.5c0.4,0.6,2.4,1.2,6.9,1.2
		c3.4,0,7-0.6,7-1.6s-3.5-1.6-7-1.6C10.8,8.9,9.7,9,9.4,9c0.3-0.5,1.6-2.2,1.6-2.2l0,0l0,0l0,0L7.3,6.7 M8.6,10.4
		c0-0.2,1.2-0.5,3.3-0.5c2,0,3.3,0.3,3.3,0.5s-1.3,0.5-3.3,0.5C9.8,11,8.6,10.6,8.6,10.4"/>
	<path d="M9.8,15.5c0,0,16.8,0.6,17.2-5.1C27.3,5.6,15.3,6,15.3,6s-0.1,0-0.1,0.1c0,0.1,0,0.1,0.1,0.1c3.3,0,8.7,1.3,8.5,4.1
		C23.7,12.6,19.6,15.4,9.8,15.5C9.8,15.4,9.7,15.4,9.8,15.5C9.7,15.5,9.7,15.5,9.8,15.5"/>
</g>
</svg>
