<?xml version="1.0" encoding="iso-8859-1"?>
<!-- Generator: Adobe Illustrator 19.1.1, SVG Export Plug-In . SVG Version: 6.00 Build 0)  -->
<svg version="1.1" id="Layer_1" xmlns="http://www.w3.org/2000/svg" xmlns:xlink="http://www.w3.org/1999/xlink" x="0px" y="0px"
	 viewBox="0 0 32 32" style="enable-background:new 0 0 32 32;" xml:space="preserve">
<path d="M19.871,7.223c0.08-0.172,0.112-0.561,0.112-0.812s-0.208-0.308-0.208-0.583c0-0.265,0.218-0.177,0.224-0.278
	c0.007-0.109-0.014-0.497-0.053-0.595c-0.027-0.067-0.2-0.185-0.347-0.173c-0.208,0.016-0.201,0.072-0.332,0.213
	c-0.079,0.085-0.154,0.177-0.208,0.275c-0.182,0.33-1.052,0.702-1.35,0.781c0.035-0.131,0.136-0.351,0.14-0.432
	c0.005-0.105-0.01-0.482-0.037-0.577c-0.019-0.065-0.139-0.179-0.241-0.167c-0.145,0.016-0.14,0.07-0.231,0.206
	c-0.055,0.083-0.107,0.171-0.145,0.266c-0.089,0.224-0.21,0.344-0.344,0.424c0.022-0.065,0.043-0.117,0.06-0.142
	c0.359-0.5-0.055-0.956-0.688-0.979c-0.172-0.007-0.377-0.035-0.435-0.177C15.725,4.315,16.201,4.129,16,4.007
	c-0.126-0.076-0.79,0.456-0.899,0.536c-0.17,0.124-0.129,0.231-0.056,0.398c0.084,0.192,0.257,0.504,0.146,0.71
	c-0.126,0.231-0.341-0.19-0.386-0.304c-0.038-0.094-0.09-0.183-0.145-0.266c-0.091-0.136-0.086-0.19-0.231-0.206
	c-0.103-0.011-0.222,0.103-0.241,0.167c-0.028,0.095-0.042,0.471-0.037,0.577c0.004,0.082,0.105,0.301,0.14,0.432
	c-0.299-0.08-1.169-0.452-1.35-0.781c-0.054-0.098-0.129-0.19-0.208-0.275c-0.131-0.141-0.124-0.196-0.332-0.213
	c-0.148-0.012-0.32,0.106-0.347,0.173c-0.04,0.098-0.06,0.487-0.053,0.595c0.007,0.101,0.224,0.013,0.224,0.278
	c0,0.275-0.208,0.331-0.208,0.583c0,0.252,0.032,0.64,0.112,0.812L19.871,7.223z"/>
<polygon style="fill:none;stroke:#000000;stroke-width:2;stroke-miterlimit:10;" points="5,12 5,12.208 7,15.5 7,16 25,16 25,15.5 
	27,12.208 27,12 "/>
<polygon style="fill:none;stroke:#000000;stroke-width:2;stroke-miterlimit:10;" points="7,8 7,8.208 9,11.5 9,12 23,12 23,11.5 
	25,8.208 25,8 "/>
<line style="fill:none;stroke:#000000;stroke-width:2;stroke-miterlimit:10;" x1="25" y1="28" x2="25" y2="16"/>
<line style="fill:none;stroke:#000000;stroke-width:2;stroke-miterlimit:10;" x1="19" y1="28" x2="19" y2="15"/>
<line style="fill:none;stroke:#000000;stroke-width:2;stroke-miterlimit:10;" x1="13" y1="28" x2="13" y2="15"/>
<line style="fill:none;stroke:#000000;stroke-width:2;stroke-miterlimit:10;" x1="7" y1="28" x2="7" y2="16"/>
<line style="fill:none;stroke:#000000;stroke-width:2;stroke-miterlimit:10;" x1="16" y1="10" x2="16" y2="12"/>
<line style="fill:none;stroke:#000000;stroke-width:2;stroke-miterlimit:10;" x1="20" y1="10" x2="20" y2="12"/>
<line style="fill:none;stroke:#000000;stroke-width:2;stroke-miterlimit:10;" x1="12" y1="10" x2="12" y2="12"/>
<line style="fill:none;stroke:#000000;stroke-width:2;stroke-miterlimit:10;" x1="16" y1="14" x2="16" y2="16"/>
<line style="fill:none;stroke:#000000;stroke-width:2;stroke-miterlimit:10;" x1="20" y1="14" x2="20" y2="16"/>
<line style="fill:none;stroke:#000000;stroke-width:2;stroke-miterlimit:10;" x1="24" y1="14" x2="24" y2="16"/>
<line style="fill:none;stroke:#000000;stroke-width:2;stroke-miterlimit:10;" x1="12" y1="14" x2="12" y2="16"/>
<line style="fill:none;stroke:#000000;stroke-width:2;stroke-miterlimit:10;" x1="8" y1="14" x2="8" y2="16"/>
</svg>
