<?xml version="1.0" encoding="iso-8859-1"?>
<!-- Generator: Adobe Illustrator 19.1.0, SVG Export Plug-In . SVG Version: 6.00 Build 0)  -->
<svg version="1.1" id="Layer_1" xmlns="http://www.w3.org/2000/svg" xmlns:xlink="http://www.w3.org/1999/xlink" x="0px" y="0px"
	 viewBox="0 0 32 32" style="enable-background:new 0 0 32 32;" xml:space="preserve">
<rect x="7" y="5" style="fill:none;stroke:#000000;stroke-width:2;stroke-miterlimit:10;" width="18" height="22"/>
<path d="M19,20c0-0.552-0.448-0.63-1-0.63s-1,0.077-1,0.63s0.448,1,1,1S19,20.552,19,20z"/>
<g>
	<path d="M18,11c1.103,0,2,0.897,2,2c0,0.426-0.179,0.784-0.552,1.491c-0.446,0.845-1.011,1.918-1.285,3.509h-0.324
		c-0.273-1.601-0.842-2.673-1.289-3.517C16.178,13.783,16,13.427,16,13C16,11.897,16.897,11,18,11 M18,9c-2.209,0-4,1.79-4,4
		s2,3.017,2,7h4c0-3.958,2-4.8,2-7C22,10.8,20.209,9,18,9L18,9z"/>
</g>
<polygon points="19.964,17 16.036,17 16.447,19 19.553,19 "/>
<line style="fill:none;stroke:#000000;stroke-width:2;stroke-miterlimit:10;" x1="22" y1="23" x2="14" y2="23"/>
<line style="fill:none;stroke:#000000;stroke-width:2;stroke-miterlimit:10;" x1="11" y1="21" x2="11" y2="9"/>
</svg>
