<?xml version="1.0" encoding="UTF-8" standalone="no"?><!DOCTYPE svg PUBLIC "-//W3C//DTD SVG 1.1//EN" "http://www.w3.org/Graphics/SVG/1.1/DTD/svg11.dtd"><svg width="100%" height="100%" viewBox="0 0 32 32" version="1.1" xmlns="http://www.w3.org/2000/svg" xmlns:xlink="http://www.w3.org/1999/xlink" xml:space="preserve" style="fill-rule:evenodd;clip-rule:evenodd;stroke-linejoin:round;stroke-miterlimit:1.41421;"><path d="M29.451,24c-0.239,0 -0.419,-0.119 -0.538,-0.356c-0.06,-0.118 -5.737,-11.733 -16.194,-11.496c-2.33,0.059 -3.525,0.652 -4.183,1.185l2.391,0c9.262,0 12.369,5.986 12.488,6.282c0.12,0.237 0.06,0.533 -0.179,0.711c-0.239,0.178 -0.538,0.178 -0.777,0c-1.135,-0.948 -4.422,-2.607 -7.947,-3.437c0.777,1.126 2.091,1.896 2.091,1.896c0.239,0.119 0.359,0.415 0.299,0.652c-0.06,0.237 -0.299,0.415 -0.597,0.415c-4.482,0 -6.394,-2.548 -6.932,-3.496c-2.211,0.118 -3.585,0.711 -4.541,1.185l-0.239,0.118c-1.255,0.534 -2.032,0.178 -2.391,-0.355c-0.418,-0.652 -0.239,-1.837 1.016,-3.023c1.494,-5.274 6.693,-5.688 8.904,-5.688c1.792,0 3.585,0.237 5.198,0.711c0.837,-0.534 2.271,-1.304 3.765,-1.304c1.673,0 2.689,0.652 2.749,0.711c0.179,0.119 0.298,0.356 0.239,0.593c-0.06,0.237 -0.18,0.415 -0.419,0.474c-0.657,0.178 -1.732,0.711 -1.912,1.185c0,0.059 -0.059,0.237 0.12,0.533c6.214,4.208 8.067,11.437 8.126,11.793c0.06,0.296 -0.119,0.592 -0.358,0.711c-0.06,0 -0.12,0 -0.179,0Z" style="fill-rule:nonzero;"/></svg>