<?xml version="1.0" encoding="iso-8859-1"?>
<!-- Generator: Adobe Illustrator 19.1.0, SVG Export Plug-In . SVG Version: 6.00 Build 0)  -->
<svg version="1.1" id="Layer_1" xmlns="http://www.w3.org/2000/svg" xmlns:xlink="http://www.w3.org/1999/xlink" x="0px" y="0px"
	 viewBox="0 0 32 32" style="enable-background:new 0 0 32 32;" xml:space="preserve">
<path style="fill:none;stroke:#000000;stroke-width:2;stroke-miterlimit:10;" d="M13.901,10.926l7.097,0.025l2.377,2.377
	l-0.281,5.375l-1.569,1.569c-0.324,0.324-0.828,0.386-1.222,0.15l-5.004-3.002c-0.822-0.493-1.873-0.363-2.551,0.314L8.244,22.24
	l-2.121-2.121c-0.391-0.391-0.391-1.024,0-1.414L13.901,10.926z"/>
<path style="fill:none;stroke:#000000;stroke-width:2;stroke-miterlimit:10;" d="M6.83,20.826l2.99,2.99
	c1.541,1.541,3.967,1.746,5.745,0.487L21,20.454"/>
<polyline style="fill:none;stroke:#000000;stroke-width:2;stroke-miterlimit:10;" points="17.875,19.204 15,20.079 13.25,22.079 "/>
<path style="fill:none;stroke:#000000;stroke-width:2;stroke-miterlimit:10;" d="M22.161,11.99l2.128-2.128
	c0.522-0.522,1.187-0.878,1.91-1.022l2.551-0.51"/>
<line style="fill:none;stroke:#000000;stroke-width:2;stroke-miterlimit:10;" x1="7.036" y1="21.079" x2="3.375" y2="24.74"/>
</svg>
