<?xml version="1.0" encoding="iso-8859-1"?>
<!-- Generator: Adobe Illustrator 19.1.1, SVG Export Plug-In . SVG Version: 6.00 Build 0)  -->
<svg version="1.1" id="Layer_1" xmlns="http://www.w3.org/2000/svg" xmlns:xlink="http://www.w3.org/1999/xlink" x="0px" y="0px"
	 viewBox="0 0 32 32" style="enable-background:new 0 0 32 32;" xml:space="preserve">
<line style="fill:none;stroke:#000000;stroke-width:2;stroke-miterlimit:10;" x1="19" y1="13" x2="26" y2="6"/>
<line style="fill:none;stroke:#000000;stroke-width:2;stroke-miterlimit:10;" x1="6" y1="26" x2="11" y2="21"/>
<polygon points="24,5 24,8 27,8 28,4 "/>
<path style="fill:none;stroke:#000000;stroke-width:2;stroke-miterlimit:10;" d="M23,16c0,3.866-3.134,7-7,7s-7-3.134-7-7
	s3.134-7,7-7"/>
<g>
	<path d="M20.055,9.116C18.865,8.412,17.481,8,16,8v2c0.925,0,1.797,0.216,2.58,0.591L20.055,9.116z"/>
	<path d="M21.409,13.42C21.784,14.203,22,15.075,22,16h2c0-1.481-0.412-2.865-1.116-4.055L21.409,13.42z"/>
</g>
<g>
	<path d="M16.001,9.053c0,0,0.01-0.11,0.028-0.303c0.009-0.097,0.02-0.214,0.032-0.348c0.002-0.1,0.004-0.212,0.006-0.335
		c0.015-0.125-0.02-0.261-0.033-0.411c-0.013-0.153-0.068-0.289-0.109-0.449c-0.109-0.3-0.309-0.607-0.586-0.923
		c-0.274-0.315-0.615-0.644-0.878-1.019c-0.123-0.198-0.238-0.383-0.308-0.583c-0.092-0.187-0.112-0.385-0.156-0.553
		C13.904,3.434,14.022,3.001,14,3c0,0,0.022,0.108,0.061,0.298c0.028,0.189,0.112,0.452,0.236,0.738
		c0.083,0.135,0.142,0.291,0.263,0.42c0.098,0.141,0.237,0.261,0.372,0.384c0.293,0.235,0.66,0.429,1.055,0.681
		c0.393,0.249,0.808,0.58,1.117,0.993c0.137,0.207,0.289,0.419,0.378,0.628c0.09,0.212,0.195,0.408,0.243,0.612
		c0.055,0.202,0.105,0.387,0.149,0.55c0.026,0.132,0.048,0.248,0.067,0.343c0.037,0.19,0.058,0.299,0.058,0.299L16.001,9.053z"/>
</g>
<g>
	<path d="M9.053,15.999c0,0-0.11-0.01-0.303-0.028c-0.097-0.009-0.214-0.02-0.348-0.032c-0.1-0.002-0.212-0.004-0.335-0.006
		c-0.125-0.015-0.261,0.02-0.411,0.033c-0.153,0.013-0.289,0.068-0.449,0.109c-0.3,0.109-0.607,0.309-0.923,0.586
		c-0.315,0.274-0.644,0.615-1.019,0.878c-0.198,0.123-0.383,0.238-0.583,0.308c-0.187,0.092-0.385,0.112-0.553,0.156
		C3.434,18.096,3.001,17.978,3,18c0,0,0.108-0.022,0.298-0.061c0.189-0.028,0.452-0.112,0.738-0.236
		c0.135-0.083,0.291-0.142,0.42-0.263c0.141-0.098,0.261-0.237,0.384-0.372c0.235-0.293,0.429-0.66,0.681-1.055
		c0.249-0.393,0.58-0.808,0.993-1.117c0.207-0.137,0.419-0.289,0.628-0.378c0.212-0.09,0.408-0.195,0.612-0.243
		c0.202-0.055,0.387-0.105,0.551-0.149c0.132-0.026,0.248-0.048,0.343-0.067c0.19-0.037,0.299-0.058,0.299-0.058L9.053,15.999z"/>
</g>
<g>
	<path d="M15.999,22.947c0,0-0.01,0.11-0.028,0.303c-0.009,0.097-0.02,0.214-0.032,0.348c-0.002,0.1-0.004,0.212-0.006,0.335
		c-0.015,0.125,0.02,0.261,0.033,0.411c0.013,0.153,0.068,0.289,0.109,0.449c0.109,0.3,0.309,0.607,0.586,0.923
		c0.274,0.315,0.615,0.644,0.878,1.019c0.123,0.198,0.238,0.383,0.308,0.583c0.092,0.187,0.112,0.385,0.156,0.553
		C18.096,28.566,17.978,28.999,18,29c0,0-0.022-0.108-0.061-0.298c-0.028-0.189-0.112-0.452-0.236-0.738
		c-0.083-0.135-0.142-0.291-0.263-0.42c-0.098-0.141-0.237-0.261-0.372-0.384c-0.293-0.235-0.66-0.429-1.055-0.681
		c-0.393-0.249-0.808-0.58-1.117-0.993c-0.137-0.207-0.289-0.419-0.378-0.628c-0.09-0.212-0.195-0.408-0.243-0.612
		c-0.055-0.202-0.105-0.387-0.149-0.55c-0.026-0.132-0.048-0.248-0.067-0.343c-0.037-0.19-0.058-0.299-0.058-0.299L15.999,22.947z"
		/>
</g>
<g>
	<path d="M22.947,16.001c0,0,0.11,0.01,0.303,0.028c0.097,0.009,0.214,0.02,0.348,0.032c0.1,0.002,0.212,0.004,0.335,0.006
		c0.125,0.015,0.261-0.02,0.411-0.033c0.153-0.013,0.289-0.068,0.449-0.109c0.3-0.109,0.607-0.309,0.923-0.586
		c0.315-0.274,0.644-0.615,1.019-0.878c0.198-0.123,0.383-0.238,0.583-0.308c0.187-0.092,0.385-0.112,0.553-0.156
		C28.566,13.904,28.999,14.022,29,14c0,0-0.108,0.022-0.298,0.061c-0.189,0.028-0.452,0.112-0.738,0.236
		c-0.135,0.083-0.291,0.142-0.42,0.263c-0.141,0.098-0.261,0.237-0.384,0.372c-0.235,0.293-0.429,0.66-0.681,1.055
		c-0.249,0.393-0.58,0.808-0.993,1.117c-0.207,0.137-0.419,0.289-0.628,0.378c-0.212,0.09-0.408,0.195-0.612,0.243
		c-0.202,0.055-0.387,0.105-0.551,0.149c-0.132,0.026-0.248,0.048-0.343,0.067c-0.19,0.037-0.299,0.058-0.299,0.058L22.947,16.001z"
		/>
</g>
<g>
	<path d="M11.089,11.087c0,0-0.071-0.085-0.195-0.234c-0.062-0.075-0.137-0.165-0.224-0.269c-0.069-0.072-0.148-0.153-0.233-0.241
		c-0.078-0.099-0.199-0.17-0.314-0.268c-0.118-0.099-0.252-0.156-0.395-0.24C9.44,9.7,9.081,9.623,8.662,9.596
		c-0.416-0.029-0.891-0.021-1.341-0.1c-0.226-0.053-0.439-0.103-0.63-0.195C6.495,9.234,6.34,9.108,6.19,9.021
		C5.632,8.596,5.41,8.207,5.393,8.222c0,0,0.092,0.061,0.254,0.168C5.8,8.503,6.046,8.63,6.336,8.745
		C6.49,8.781,6.643,8.85,6.819,8.856c0.169,0.03,0.352,0.017,0.535,0.009C7.727,8.823,8.124,8.701,8.581,8.6
		c0.453-0.102,0.981-0.161,1.492-0.088c0.244,0.05,0.5,0.092,0.712,0.177c0.214,0.086,0.426,0.15,0.605,0.261
		c0.181,0.104,0.347,0.199,0.494,0.284c0.112,0.075,0.209,0.141,0.29,0.195c0.161,0.108,0.252,0.17,0.252,0.17L11.089,11.087z"/>
</g>
<g>
	<path d="M20.911,20.913c0,0,0.071,0.085,0.195,0.234c0.062,0.075,0.137,0.165,0.224,0.269c0.069,0.072,0.148,0.153,0.233,0.241
		c0.078,0.099,0.199,0.17,0.314,0.268c0.118,0.099,0.252,0.156,0.395,0.24c0.289,0.135,0.648,0.211,1.067,0.238
		c0.416,0.029,0.891,0.021,1.341,0.1c0.226,0.053,0.439,0.103,0.63,0.195c0.197,0.067,0.351,0.194,0.501,0.281
		c0.558,0.424,0.78,0.814,0.797,0.799c0,0-0.092-0.061-0.254-0.168c-0.153-0.114-0.398-0.24-0.689-0.355
		c-0.154-0.036-0.306-0.105-0.483-0.111c-0.169-0.03-0.352-0.017-0.535-0.009c-0.373,0.041-0.77,0.163-1.227,0.265
		c-0.453,0.102-0.981,0.161-1.492,0.088c-0.244-0.05-0.5-0.092-0.712-0.177c-0.214-0.086-0.426-0.15-0.605-0.261
		c-0.181-0.104-0.347-0.199-0.494-0.284c-0.112-0.075-0.209-0.141-0.29-0.195c-0.161-0.108-0.252-0.17-0.252-0.17L20.911,20.913z"/>
</g>
<g>
	<path d="M22.444,18.596c0,0,0.099,0.051,0.271,0.139c0.086,0.044,0.191,0.098,0.311,0.16c0.092,0.039,0.196,0.083,0.309,0.13
		c0.11,0.06,0.25,0.078,0.394,0.123c0.147,0.045,0.293,0.045,0.457,0.067c0.319,0.011,0.679-0.059,1.075-0.199
		c0.394-0.136,0.827-0.33,1.273-0.433c0.229-0.04,0.445-0.078,0.656-0.068c0.207-0.015,0.399,0.04,0.571,0.062
		c0.68,0.172,1.037,0.443,1.046,0.423c0,0-0.109-0.02-0.299-0.055c-0.186-0.045-0.461-0.065-0.773-0.057
		c-0.156,0.027-0.323,0.023-0.487,0.087c-0.167,0.039-0.331,0.123-0.495,0.202c-0.327,0.184-0.645,0.452-1.026,0.724
		c-0.377,0.271-0.84,0.532-1.338,0.666c-0.244,0.05-0.496,0.112-0.724,0.116c-0.23,0.005-0.451,0.029-0.659-0.003
		c-0.207-0.025-0.398-0.047-0.566-0.068c-0.132-0.026-0.248-0.048-0.343-0.066c-0.19-0.037-0.299-0.058-0.299-0.058L22.444,18.596z"
		/>
</g>
<g>
	<path d="M18.644,22.424c0,0,0.033,0.106,0.09,0.291c0.029,0.093,0.063,0.205,0.103,0.334c0.036,0.093,0.078,0.198,0.122,0.312
		c0.034,0.121,0.118,0.233,0.187,0.368c0.07,0.137,0.173,0.241,0.272,0.374c0.215,0.236,0.516,0.444,0.893,0.63
		c0.373,0.187,0.814,0.362,1.2,0.608c0.189,0.136,0.366,0.264,0.506,0.422c0.156,0.138,0.25,0.314,0.355,0.452
		c0.352,0.606,0.407,1.052,0.428,1.044c0,0-0.062-0.092-0.17-0.252c-0.098-0.164-0.276-0.375-0.499-0.593
		c-0.128-0.093-0.242-0.215-0.403-0.288c-0.144-0.093-0.319-0.151-0.49-0.214c-0.36-0.105-0.774-0.146-1.235-0.228
		c-0.458-0.08-0.968-0.229-1.411-0.492c-0.206-0.14-0.426-0.277-0.589-0.437c-0.164-0.161-0.335-0.303-0.458-0.474
		c-0.127-0.166-0.244-0.318-0.347-0.452c-0.074-0.113-0.139-0.211-0.192-0.292c-0.107-0.162-0.167-0.254-0.167-0.254L18.644,22.424z
		"/>
</g>
<g>
	<path d="M13.404,22.444c0,0-0.051,0.099-0.139,0.271c-0.044,0.086-0.098,0.191-0.16,0.311c-0.039,0.092-0.083,0.196-0.13,0.309
		c-0.06,0.11-0.078,0.25-0.123,0.394c-0.045,0.147-0.044,0.293-0.067,0.457c-0.011,0.319,0.059,0.679,0.199,1.075
		c0.136,0.394,0.33,0.827,0.433,1.273c0.04,0.229,0.078,0.445,0.068,0.656c0.015,0.207-0.04,0.399-0.062,0.571
		c-0.172,0.68-0.443,1.037-0.423,1.046c0,0,0.02-0.109,0.055-0.299c0.045-0.186,0.065-0.461,0.057-0.773
		c-0.027-0.156-0.023-0.323-0.087-0.487c-0.038-0.167-0.123-0.331-0.202-0.495c-0.184-0.327-0.452-0.645-0.724-1.026
		c-0.271-0.377-0.532-0.84-0.666-1.338c-0.05-0.244-0.112-0.496-0.116-0.724c-0.005-0.23-0.029-0.451,0.003-0.659
		c0.025-0.207,0.047-0.398,0.068-0.566c0.026-0.132,0.048-0.248,0.066-0.343c0.037-0.19,0.058-0.299,0.058-0.299L13.404,22.444z"/>
</g>
<g>
	<path d="M9.576,18.644c0,0-0.106,0.033-0.291,0.09c-0.093,0.029-0.205,0.063-0.334,0.103c-0.093,0.036-0.198,0.078-0.312,0.122
		c-0.121,0.034-0.233,0.118-0.368,0.187c-0.137,0.07-0.241,0.173-0.374,0.272c-0.236,0.215-0.444,0.516-0.63,0.893
		c-0.187,0.373-0.362,0.814-0.608,1.2c-0.136,0.189-0.264,0.366-0.422,0.506c-0.138,0.156-0.314,0.25-0.452,0.355
		c-0.606,0.352-1.052,0.407-1.044,0.428c0,0,0.092-0.062,0.252-0.17c0.164-0.098,0.375-0.276,0.593-0.499
		c0.093-0.128,0.215-0.242,0.288-0.403c0.093-0.144,0.151-0.319,0.214-0.49c0.105-0.36,0.146-0.774,0.228-1.235
		c0.08-0.458,0.229-0.968,0.492-1.411c0.14-0.206,0.277-0.426,0.437-0.589c0.161-0.164,0.303-0.335,0.474-0.458
		c0.166-0.127,0.318-0.244,0.452-0.347c0.113-0.074,0.211-0.139,0.292-0.192c0.162-0.107,0.254-0.167,0.254-0.167L9.576,18.644z"/>
</g>
<g>
	<path d="M9.556,13.404c0,0-0.099-0.051-0.271-0.139c-0.086-0.044-0.191-0.098-0.311-0.16c-0.092-0.039-0.196-0.083-0.309-0.13
		c-0.11-0.06-0.25-0.078-0.394-0.123c-0.147-0.045-0.293-0.045-0.457-0.067c-0.319-0.011-0.679,0.059-1.075,0.199
		c-0.394,0.136-0.827,0.33-1.273,0.433c-0.229,0.04-0.445,0.078-0.656,0.068c-0.207,0.015-0.399-0.04-0.571-0.062
		C3.56,13.251,3.203,12.98,3.194,13c0,0,0.109,0.02,0.299,0.055c0.186,0.045,0.461,0.065,0.773,0.057
		c0.156-0.027,0.323-0.023,0.487-0.087c0.167-0.039,0.331-0.123,0.495-0.202c0.327-0.184,0.645-0.452,1.026-0.724
		c0.377-0.271,0.84-0.532,1.338-0.666c0.244-0.05,0.496-0.112,0.724-0.116c0.23-0.005,0.451-0.029,0.659,0.003
		c0.207,0.025,0.398,0.047,0.566,0.068c0.132,0.026,0.248,0.048,0.343,0.066c0.19,0.037,0.299,0.058,0.299,0.058L9.556,13.404z"/>
</g>
<g>
	<path d="M13.299,9.6c0,0-0.034-0.106-0.092-0.29c-0.029-0.092-0.065-0.205-0.106-0.333c-0.037-0.093-0.079-0.197-0.125-0.311
		c-0.035-0.121-0.12-0.232-0.19-0.366C12.714,8.163,12.61,8.06,12.51,7.928c-0.217-0.234-0.52-0.439-0.898-0.622
		c-0.375-0.184-0.817-0.354-1.205-0.598c-0.19-0.134-0.368-0.261-0.51-0.417C9.74,6.154,9.644,5.979,9.538,5.842
		C9.18,5.239,9.121,4.794,9.1,4.802c0,0,0.063,0.091,0.172,0.251c0.099,0.163,0.279,0.372,0.505,0.588
		c0.129,0.092,0.244,0.213,0.405,0.284c0.145,0.091,0.32,0.148,0.492,0.209c0.361,0.102,0.775,0.139,1.237,0.217
		c0.458,0.076,0.97,0.22,1.415,0.48c0.207,0.138,0.429,0.273,0.593,0.432c0.166,0.16,0.338,0.3,0.462,0.47
		c0.129,0.165,0.247,0.315,0.351,0.449c0.075,0.112,0.141,0.21,0.195,0.29c0.108,0.161,0.17,0.253,0.17,0.253L13.299,9.6z"/>
</g>
<g>
	<path d="M22.424,13.356c0,0,0.106-0.033,0.291-0.09c0.093-0.029,0.205-0.063,0.334-0.103c0.093-0.036,0.198-0.078,0.312-0.122
		c0.121-0.034,0.233-0.118,0.368-0.187c0.137-0.07,0.241-0.173,0.374-0.272c0.236-0.215,0.444-0.516,0.63-0.893
		c0.187-0.373,0.362-0.814,0.608-1.2c0.136-0.189,0.264-0.366,0.422-0.506c0.138-0.156,0.314-0.25,0.452-0.355
		c0.606-0.352,1.052-0.407,1.044-0.428c0,0-0.092,0.062-0.252,0.17c-0.164,0.098-0.375,0.276-0.593,0.499
		c-0.093,0.128-0.215,0.242-0.288,0.403c-0.093,0.144-0.151,0.319-0.214,0.49c-0.105,0.36-0.146,0.774-0.228,1.235
		c-0.08,0.458-0.229,0.968-0.492,1.411c-0.14,0.206-0.277,0.426-0.437,0.589c-0.161,0.164-0.303,0.335-0.474,0.458
		c-0.166,0.127-0.318,0.244-0.452,0.347c-0.113,0.074-0.211,0.139-0.292,0.192c-0.162,0.107-0.254,0.167-0.254,0.167L22.424,13.356z
		"/>
</g>
<g>
	<path d="M20.409,10.177l0.079,0.027c0,0,0.01-0.054,0.025-0.131L20.409,10.177z"/>
	<path d="M19.016,6.74c0.139,0.396,0.21,0.756,0.199,1.075c-0.022,0.164-0.021,0.31-0.067,0.457
		c-0.045,0.144-0.063,0.284-0.123,0.394c-0.048,0.113-0.092,0.217-0.13,0.309c-0.062,0.12-0.115,0.225-0.16,0.311
		c-0.089,0.172-0.139,0.271-0.139,0.271l0.76,0.26l1.333-1.333c-0.002-0.049-0.004-0.097-0.005-0.147
		c-0.004-0.228-0.066-0.48-0.116-0.724c-0.133-0.498-0.394-0.961-0.666-1.338c-0.272-0.381-0.54-0.698-0.724-1.026
		c-0.079-0.165-0.163-0.328-0.201-0.495c-0.064-0.164-0.06-0.332-0.087-0.487c-0.008-0.312,0.012-0.588,0.057-0.773
		C18.98,3.303,19,3.194,19,3.194c0.02,0.009-0.251,0.366-0.423,1.046c-0.021,0.172-0.077,0.364-0.062,0.571
		c-0.01,0.211,0.027,0.427,0.068,0.656C18.686,5.912,18.88,6.345,19.016,6.74z"/>
</g>
</svg>
