<?xml version="1.0" encoding="iso-8859-1"?>
<!-- Generator: Adobe Illustrator 19.1.1, SVG Export Plug-In . SVG Version: 6.00 Build 0)  -->
<svg version="1.1"  xmlns="http://www.w3.org/2000/svg" xmlns:xlink="http://www.w3.org/1999/xlink" x="0px" y="0px"
	 viewBox="0 0 32 32" style="enable-background:new 0 0 32 32;" xml:space="preserve">
<path style="fill:none;stroke:#000000;stroke-width:2;stroke-miterlimit:10;" d="M24.623,12.313C23.335,8.635,19.781,6,15.674,6
	c-5.271,0-9.5,4.229-9.5,9.5s4.229,9.5,9.5,9.5c1.287,0,2.574-0.245,3.677-0.735"/>
<path d="M18.294,12.398c-0.49,0.613-1.287,0.797-1.839,0.368c-0.552-0.429-0.613-1.287-0.123-1.9s1.287-0.797,1.839-0.368
	C18.723,10.927,18.784,11.786,18.294,12.398z"/>
<path d="M12.714,10.541c-0.613,0.49-1.348,0.613-1.594,0.245c-0.306-0.368,0-1.042,0.613-1.532c0.613-0.49,1.348-0.613,1.594-0.245
	C13.572,9.377,13.327,10.051,12.714,10.541z"/>
<path d="M11.931,20.571C8.438,19.406,8,15.5,8,14.335L9,14c0.061,1.165,0.348,3.771,3.351,4.69c1.594,0.49,3.805,0.198,5.057-1.177
	l1.567,1.49C16.513,21.041,14.094,21.422,11.931,20.571z"/>
<path style="fill:none;stroke:#000000;stroke-width:2;stroke-miterlimit:10;" d="M11.931,6.63C11.232,5.676,10.636,4.954,10,4
	C8.919,4.382,5.38,6.164,2,9c0,0,0.319,2.928,1,6c0.819,0.37,2.675,1.451,3.277,1.902"/>
<path d="M2.215,8.823C2.943,9.331,4.242,10.451,5,11.547c-0.382,0.445-1.071,2.02-1.071,3.202"/>
<path style="fill:none;stroke:#000000;stroke-width:2;stroke-miterlimit:10;" d="M24,12c0.977,0.555,2.723,0.868,4,1
	c1.455,2.107,2,5.377,2,7c-0.993,2.855-4.755,6.572-7,8c-1.781-1.59-3.219-3.41-5-5c4.155-2.16,5.809-5.919,6-7
	C24,14.525,24,12,24,12z"/>
<path d="M27,13c0,0,0.191,0.982,0,2c-0.254,1.654-0.555,3.427-1,4c1.209,0.445,2.789,0.735,3.998,1.18
	C30.53,16.093,29.707,14.329,27,13z"/>
</svg>
