<?xml version="1.0" encoding="iso-8859-1"?>
<!-- Generator: Adobe Illustrator 19.1.0, SVG Export Plug-In . SVG Version: 6.00 Build 0)  -->
<svg version="1.1" id="Layer_1" xmlns="http://www.w3.org/2000/svg" xmlns:xlink="http://www.w3.org/1999/xlink" x="0px" y="0px"
	 viewBox="0 0 32 32" style="enable-background:new 0 0 32 32;" xml:space="preserve">
<line style="fill:none;stroke:#000000;stroke-width:2;stroke-miterlimit:10;" x1="3" y1="3" x2="29" y2="29"/>
<g>
	<path d="M6.154,7.5C6.328,7.206,6.635,7,7,7h1.414l2-2h11.172l2,2H25c0.551,0,1,0.448,1,1v1H7.654l2,2h14.229L22.46,23.806
		l1.811,1.811L25.895,11H28V8c0-1.654-1.346-3-3-3h-0.586l-2-2H9.586l-2,2H7C6.085,5,5.274,5.421,4.723,6.069L6.154,7.5z"/>
	<polygon points="22.177,26.351 22.105,27 9.895,27 8.279,12.452 4,8.174 4,11 6.105,11 8.105,29 23.895,29 23.988,28.162 	"/>
</g>
</svg>
