<?xml version="1.0" encoding="iso-8859-1"?>
<!-- Generator: Adobe Illustrator 19.1.0, SVG Export Plug-In . SVG Version: 6.00 Build 0)  -->
<svg version="1.1" id="Layer_1" xmlns="http://www.w3.org/2000/svg" xmlns:xlink="http://www.w3.org/1999/xlink" x="0px" y="0px"
	 viewBox="0 0 32 32" style="enable-background:new 0 0 32 32;" xml:space="preserve">
<rect x="4" y="6" style="fill:none;stroke:#000000;stroke-width:2;stroke-miterlimit:10;" width="24" height="20"/>
<path d="M12.664,11.996v7.874h-1.691v-5.962c-0.094,0.082-0.204,0.16-0.331,0.233s-0.262,0.14-0.405,0.199
	c-0.144,0.059-0.292,0.109-0.445,0.15c-0.154,0.041-0.307,0.07-0.457,0.088v-1.428c0.44-0.129,0.855-0.294,1.246-0.494
	c0.391-0.201,0.743-0.421,1.059-0.661H12.664z"/>
<path d="M15.994,16.073c-0.279,0-0.512-0.086-0.698-0.256s-0.279-0.38-0.279-0.631c0-0.258,0.096-0.469,0.287-0.634
	s0.431-0.247,0.717-0.247c0.291,0,0.527,0.083,0.712,0.25c0.185,0.166,0.276,0.377,0.276,0.631c0,0.262-0.094,0.475-0.281,0.639
	C16.539,15.99,16.295,16.073,15.994,16.073z M15.994,20.004c-0.279,0-0.512-0.086-0.698-0.258s-0.279-0.384-0.279-0.635
	c0-0.258,0.096-0.469,0.287-0.633c0.191-0.165,0.431-0.248,0.717-0.248c0.291,0,0.527,0.084,0.712,0.25
	c0.185,0.167,0.276,0.377,0.276,0.631c0,0.262-0.094,0.476-0.281,0.643C16.539,19.92,16.295,20.004,15.994,20.004z"/>
<path d="M21.971,11.996v7.874H20.28v-5.962c-0.094,0.082-0.204,0.16-0.331,0.233s-0.262,0.14-0.405,0.199
	c-0.144,0.059-0.292,0.109-0.445,0.15c-0.154,0.041-0.307,0.07-0.457,0.088v-1.428c0.44-0.129,0.855-0.294,1.246-0.494
	c0.391-0.201,0.743-0.421,1.059-0.661H21.971z"/>
</svg>
