<?xml version="1.0" encoding="iso-8859-1"?>
<!-- Generator: Adobe Illustrator 19.1.0, SVG Export Plug-In . SVG Version: 6.00 Build 0)  -->
<svg version="1.1" id="Layer_1" xmlns="http://www.w3.org/2000/svg" xmlns:xlink="http://www.w3.org/1999/xlink" x="0px" y="0px"
	 viewBox="0 0 32 32" style="enable-background:new 0 0 32 32;" xml:space="preserve">
<rect x="3" y="7" style="fill:none;stroke:#000000;stroke-width:2;stroke-miterlimit:10;" width="26" height="18"/>
<g>
	<path d="M12.227,11.632v8.59h-1.846v-6.504c-0.102,0.09-0.828,0.628-1.787,0.732v-1.559c1.395-0.432,2.17-0.998,2.514-1.26H12.227z
		"/>
	<path d="M15.86,16.079c-0.398,0-1.066-0.262-1.066-0.967c0-0.385,0.276-0.961,1.096-0.961c0.827,0,1.078,0.598,1.078,0.961
		C16.967,15.61,16.596,16.079,15.86,16.079z M15.86,20.368c-0.387,0-1.066-0.244-1.066-0.973c0-0.656,0.538-0.961,1.096-0.961
		c0.74,0,1.078,0.533,1.078,0.961C16.967,19.906,16.607,20.368,15.86,20.368z"/>
	<path d="M22.381,11.632v8.59h-1.846v-6.504c-0.102,0.09-0.691,0.562-1.787,0.732v-1.559c1.478-0.476,2.17-0.998,2.514-1.26H22.381z
		"/>
</g>
</svg>
