<?xml version="1.0" encoding="iso-8859-1"?>
<!-- Generator: Adobe Illustrator 21.0.2, SVG Export Plug-In . SVG Version: 6.00 Build 0)  -->
<svg version="1.1" id="Layer_1" xmlns="http://www.w3.org/2000/svg" xmlns:xlink="http://www.w3.org/1999/xlink" x="0px" y="0px"
	 viewBox="0 0 32 32" style="enable-background:new 0 0 32 32;" xml:space="preserve">
<polyline style="fill:none;stroke:#000000;stroke-width:2;stroke-miterlimit:10;" points="11,27 16,27 16,23 "/>
<path d="M21,19.579L28.184,24L21,28.421V19.579 M19,16v16l13-8L19,16L19,16z"/>
<path d="M17,18h-4V6h6v7.652l2,1.231V6c0-1.103-0.897-2-2-2h-6c-1.103,0-2,0.897-2,2v12c0,1.103,0.897,2,2,2h4V18z"/>
<polygon points="25,17.344 25,14 23,14 23,16.113 "/>
<path d="M17,22h-4c-2.206,0-4-1.794-4-4v-4H7v4c0,3.309,2.691,6,6,6h4V22z"/>
</svg>
