<?xml version="1.0" encoding="iso-8859-1"?>
<!-- Generator: Adobe Illustrator 19.1.0, SVG Export Plug-In . SVG Version: 6.00 Build 0)  -->
<svg version="1.1" id="Layer_1" xmlns="http://www.w3.org/2000/svg" xmlns:xlink="http://www.w3.org/1999/xlink" x="0px" y="0px"
	 viewBox="0 0 32 32" style="enable-background:new 0 0 32 32;" xml:space="preserve">
<path style="fill:none;stroke:#000000;stroke-width:2;stroke-linejoin:round;stroke-miterlimit:10;" d="M24.958,9.023
	c0.514,2.529-3.085,5.464-8.054,6.548c-4.927,1.129-9.897-0.045-9.897-2.619c0-2.709,3.213-5.464,8.14-6.548
	S24.444,6.494,24.958,9.023z"/>
<path style="fill:none;stroke:#000000;stroke-width:2;stroke-linejoin:round;stroke-miterlimit:10;" d="M7.508,14.208
	c0,0,3.169,4.792,7.969,4.792c6.012,0,9.096-2.369,9.096-2.369"/>
<path style="fill:none;stroke:#000000;stroke-width:2;stroke-linejoin:round;stroke-miterlimit:10;" d="M22.829,21.361
	c0,0-2.541,0.639-4.996,0.639c-3.946,0-6.457-4.25-6.457-4.25"/>
<path style="fill:none;stroke:#000000;stroke-width:2;stroke-linejoin:round;stroke-miterlimit:10;" d="M11.371,12.782
	c1.791-2.234,5.264-3.321,8.923-2.519"/>
<path style="fill:none;stroke:#000000;stroke-width:2;stroke-linejoin:round;stroke-miterlimit:10;" d="M14.943,21.407
	c0,0,0.472,3.593,3.956,3.593c0.984,0,2.515-0.265,2.515-0.265"/>
<path style="fill:none;stroke:#000000;stroke-width:2;stroke-linejoin:round;stroke-miterlimit:10;" d="M15,27
	c2.514,0,3.084-2.148,3.084-2.148"/>
</svg>
