<?xml version="1.0" encoding="iso-8859-1"?>
<!-- Generator: Adobe Illustrator 19.1.1, SVG Export Plug-In . SVG Version: 6.00 Build 0)  -->
<svg version="1.1"  xmlns="http://www.w3.org/2000/svg" xmlns:xlink="http://www.w3.org/1999/xlink" x="0px" y="0px"
	 viewBox="0 0 32 32" style="enable-background:new 0 0 32 32;" xml:space="preserve">
<circle cx="22" cy="10" r="1"/>
<polyline style="fill:none;stroke:#000000;stroke-width:2;stroke-miterlimit:10;" points="24.549,17.028 26,15.589 26,6 16.411,6 
	5,17.507 14.493,27 17.025,24.489 "/>
<path d="M25.9,26v2h2.4c-0.1,0.1-0.1,0.1-0.2,0.2c-2.3,2.3-6.2,2.3-8.5,0s-2.3-6.2,0-8.5s6.2-2.3,8.5,0c1,1,1.6,2.3,1.7,3.6l2-0.1
	c-0.1-1.8-0.9-3.5-2.3-4.8c-3.1-3.1-8.2-3.1-11.3,0s-3.1,8.2,0,11.3c1.5,1.5,3.6,2.3,5.7,2.3s4.1-0.8,5.7-2.3
	c0.1-0.1,0.3-0.3,0.4-0.4V32h2v-6H25.9z"/>
</svg>
