<?xml version="1.0" encoding="iso-8859-1"?>
<!-- Generator: Adobe Illustrator 19.1.1, SVG Export Plug-In . SVG Version: 6.00 Build 0)  -->
<svg version="1.1" id="Layer_1" xmlns="http://www.w3.org/2000/svg" xmlns:xlink="http://www.w3.org/1999/xlink" x="0px" y="0px"
	 viewBox="0 0 32 32" style="enable-background:new 0 0 32 32;" xml:space="preserve">
<circle cx="13" cy="15" r="1"/>
<circle cx="19" cy="15" r="1"/>
<circle cx="14" cy="22" r="1"/>
<circle cx="18" cy="22" r="1"/>
<ellipse style="fill:none;stroke:#000000;stroke-width:2;stroke-miterlimit:10;" cx="16" cy="22" rx="5" ry="4"/>
<path style="fill:none;stroke:#000000;stroke-width:2;stroke-miterlimit:10;" d="M21,7l4.75-3.563c0,0,1.25,1.875,1.25,4.563
	c0,3.5-3,5-3,5"/>
<path style="fill:none;stroke:#000000;stroke-width:2;stroke-miterlimit:10;" d="M11,7L6.25,3.438C6.25,3.438,5,5.313,5,8
	c0,3.5,3,5,3,5"/>
<path style="fill:none;stroke:#000000;stroke-width:2;stroke-miterlimit:10;" d="M16,29c-6.938,0-11-4.313-11-7s0.063-4.938,3-8
	c0-7.875,8-8,8-8s8,0.125,8,8c2.937,3.063,3,5.313,3,8S22.812,29,16,29z"/>
</svg>
