<?xml version="1.0" encoding="iso-8859-1"?>
<!-- Generator: Adobe Illustrator 19.2.0, SVG Export Plug-In . SVG Version: 6.00 Build 0)  -->
<svg version="1.1" id="Layer_1" xmlns="http://www.w3.org/2000/svg" xmlns:xlink="http://www.w3.org/1999/xlink" x="0px" y="0px"
	 viewBox="0 0 32 32" style="enable-background:new 0 0 32 32;" xml:space="preserve">
<circle style="fill:none;stroke:#000000;stroke-width:2;stroke-miterlimit:10;" cx="11" cy="20" r="5"/>
<circle style="fill:none;stroke:#000000;stroke-width:2;stroke-miterlimit:10;" cx="21" cy="20" r="5"/>
<path d="M16,11.34C14.482,10.461,12.767,10,11,10c-2.724,0-5.195,1.098-7,2.871v3.265C5.365,13.673,7.99,12,11,12
	c1.589,0,3.126,0.466,4.444,1.349L16,13.721l0.556-0.373C17.874,12.466,19.411,12,21,12c3.01,0,5.635,1.673,7,4.136v-3.265
	C26.195,11.098,23.724,10,21,10C19.233,10,17.518,10.461,16,11.34z"/>
<path d="M26,6.941C24.446,6.34,22.764,6,21,6c-1.722,0-3.401,0.31-5,0.922C14.401,6.31,12.722,6,11,6C9.236,6,7.554,6.34,6,6.941
	v2.17C7.523,8.405,9.213,8,11,8c1.595,0,3.147,0.311,4.615,0.922L16,9.083l0.385-0.161C17.853,8.311,19.405,8,21,8
	c1.787,0,3.477,0.405,5,1.111V6.941z"/>
</svg>
