<?xml version="1.0" encoding="iso-8859-1"?>
<!-- Generator: Adobe Illustrator 19.1.1, SVG Export Plug-In . SVG Version: 6.00 Build 0)  -->
<svg version="1.1" id="Layer_1" xmlns="http://www.w3.org/2000/svg" xmlns:xlink="http://www.w3.org/1999/xlink" x="0px" y="0px"
	 viewBox="0 0 32 32" style="enable-background:new 0 0 32 32;" xml:space="preserve">
<line style="fill:none;stroke:#000000;stroke-width:2;stroke-miterlimit:10;" x1="28" y1="16" x2="14.375" y2="16"/>
<polyline style="fill:none;stroke:#000000;stroke-width:2;stroke-miterlimit:10;" points="17.375,20 13.375,16 17.375,12 "/>
<path d="M25.539,19c-1.277,4.053-5.07,7-9.539,7c-5.514,0-10-4.486-10-10S10.486,6,16,6c4.469,0,8.262,2.947,9.539,7h2.066
	C26.268,7.833,21.579,4,16,4C9.383,4,4,9.383,4,16s5.383,12,12,12c5.579,0,10.268-3.833,11.605-9H25.539z"/>
</svg>
