<?xml version="1.0" encoding="iso-8859-1"?>
<!-- Generator: Adobe Illustrator 19.1.1, SVG Export Plug-In . SVG Version: 6.00 Build 0)  -->
<svg version="1.1" id="Layer_1" xmlns="http://www.w3.org/2000/svg" xmlns:xlink="http://www.w3.org/1999/xlink" x="0px" y="0px"
	 viewBox="0 0 32 32" style="enable-background:new 0 0 32 32;" xml:space="preserve">
<line style="fill:none;stroke:#000000;stroke-width:2;stroke-miterlimit:10;" x1="16" y1="28" x2="16" y2="14.375"/>
<polyline style="fill:none;stroke:#000000;stroke-width:2;stroke-miterlimit:10;" points="12,17.375 16,13.375 20,17.375 "/>
<path d="M13,25.539C8.947,24.262,6,20.469,6,16c0-5.514,4.486-10,10-10s10,4.486,10,10c0,4.469-2.947,8.262-7,9.539v2.066
	c5.167-1.337,9-6.026,9-11.605c0-6.617-5.383-12-12-12S4,9.383,4,16c0,5.579,3.833,10.268,9,11.605V25.539z"/>
</svg>
