<?xml version="1.0" encoding="iso-8859-1"?>
<!-- Generator: Adobe Illustrator 19.1.1, SVG Export Plug-In . SVG Version: 6.00 Build 0)  -->
<svg version="1.1" id="Layer_1" xmlns="http://www.w3.org/2000/svg" xmlns:xlink="http://www.w3.org/1999/xlink" x="0px" y="0px"
	 viewBox="0 0 32 32" style="enable-background:new 0 0 32 32;" xml:space="preserve">
<path style="fill:none;stroke:#000000;stroke-width:2;stroke-miterlimit:10;" d="M20,20c4.418,0,8-3.582,8-8s-3.582-8-8-8
	s-8,3.582-8,8"/>
<line style="fill:none;stroke:#000000;stroke-width:2;stroke-miterlimit:10;" x1="12" y1="20" x2="21" y2="11"/>
<g>
	<path d="M18.587,17.655C18.85,18.39,19,19.177,19,20c0,3.86-3.141,7-7,7s-7-3.14-7-7s3.141-7,7-7c0.823,0,1.61,0.15,2.345,0.413
		l1.526-1.526C14.696,11.325,13.387,11,12,11c-4.963,0-9,4.038-9,9s4.037,9,9,9s9-4.038,9-9c0-1.387-0.324-2.696-0.887-3.87
		L18.587,17.655z"/>
</g>
<polyline style="fill:none;stroke:#000000;stroke-width:2;stroke-miterlimit:10;" points="17,10 22,10 22,15 "/>
</svg>
