<?xml version="1.0" encoding="iso-8859-1"?>
<!-- Generator: Adobe Illustrator 19.1.1, SVG Export Plug-In . SVG Version: 6.00 Build 0)  -->
<svg version="1.1" id="Layer_1" xmlns="http://www.w3.org/2000/svg" xmlns:xlink="http://www.w3.org/1999/xlink" x="0px" y="0px"
	 viewBox="0 0 32 32" style="enable-background:new 0 0 32 32;" xml:space="preserve">
<rect x="3" y="6" style="fill:none;stroke:#000000;stroke-width:2;stroke-miterlimit:10;" width="26" height="16"/>
<polyline style="fill:none;stroke:#000000;stroke-width:2;stroke-miterlimit:10;" points="16,26 16,22 10,8 "/>
<line style="fill:none;stroke:#000000;stroke-width:2;stroke-miterlimit:10;" x1="10" y1="26" x2="22" y2="26"/>
<g>
	<path d="M14.197,15.255c-0.859,0.228-1.673,0.599-2.39,1.138l-2.847-2.846c1.085-0.907,2.321-1.577,3.645-2.005l-0.789-1.842
		c-1.863,0.632-3.576,1.676-5.009,3.108l-0.707,0.707l5.657,5.657l0.707-0.708c0.701-0.701,1.575-1.166,2.525-1.36L14.197,15.255z"
		/>
	<path d="M25.192,12.808C22.736,10.352,19.472,9,16,9c-0.753,0-1.494,0.076-2.222,0.2l0.814,1.899C15.056,11.04,15.525,11,16,11
		c2.602,0,5.066,0.897,7.039,2.546l-2.847,2.846c-1.131-0.849-2.488-1.316-3.919-1.371l0.916,2.136
		c0.879,0.214,1.691,0.65,2.346,1.306l0.707,0.708l5.657-5.657L25.192,12.808z"/>
</g>
</svg>
