<?xml version="1.0" encoding="iso-8859-1"?>
<!-- Generator: Adobe Illustrator 19.1.1, SVG Export Plug-In . SVG Version: 6.00 Build 0)  -->
<svg version="1.1"  xmlns="http://www.w3.org/2000/svg" xmlns:xlink="http://www.w3.org/1999/xlink" x="0px" y="0px"
	 viewBox="0 0 32 32" style="enable-background:new 0 0 32 32;" xml:space="preserve">
<path style="fill:none;stroke:#000000;stroke-width:2;stroke-miterlimit:10;" d="M27,9H5c-1.105,0-2,0.895-2,2v13
	c0,1.105,0.895,2,2,2h7c0.945,0,1.8-0.568,2.173-1.444l0.961-2.808c0.141-0.332,0.465-0.548,0.824-0.548l0,0
	c0.359,0,0.682,0.215,0.824,0.548l1.047,2.808C18.2,25.432,19.055,26,20,26h7c1.105,0,2-0.895,2-2V11C29,9.895,28.105,9,27,9z"/>
<path style="fill:none;stroke:#000000;stroke-width:2;stroke-miterlimit:10;" d="M27,9c0,0-0.03-3-3-3H8C5.011,6,5,9,5,9"/>
<circle style="fill:none;stroke:#000000;stroke-width:2;stroke-miterlimit:10;" cx="22" cy="17" r="3"/>
<circle style="fill:none;stroke:#000000;stroke-width:2;stroke-miterlimit:10;" cx="10" cy="17" r="3"/>
<line style="fill:none;stroke:#000000;stroke-width:2;stroke-miterlimit:10;" x1="14" y1="24" x2="18" y2="24"/>
</svg>
