<?xml version="1.0" encoding="iso-8859-1"?>
<!-- Generator: Adobe Illustrator 19.1.1, SVG Export Plug-In . SVG Version: 6.00 Build 0)  -->
<svg version="1.1" id="Layer_1" xmlns="http://www.w3.org/2000/svg" xmlns:xlink="http://www.w3.org/1999/xlink" x="0px" y="0px"
	 viewBox="0 0 32 32" style="enable-background:new 0 0 32 32;" xml:space="preserve">
<rect x="6" y="6" style="fill:none;stroke:#000000;stroke-width:2;stroke-miterlimit:10;" width="20" height="20"/>
<line id="XMLID_9_" style="fill:none;stroke:#000000;stroke-width:2;stroke-miterlimit:10;" x1="13" y1="16" x2="12.333" y2="16"/>
<path id="XMLID_7_" style="fill:none;stroke:#000000;stroke-width:2;stroke-miterlimit:10;" d="M11,16h2c1.105,0,2-0.895,2-2v0
	c0-1.105-0.895-2-2-2h-2v9"/>
<path id="XMLID_51_" style="fill:none;stroke:#000000;stroke-width:2;stroke-miterlimit:10;" d="M21,15.408L21,15.408
	C21,14.756,20.53,14,19.5,14c-0.828,0-1.5,0.672-1.5,1.5v0c0,0.828,0.672,1.5,1.5,1.5h0c0.828,0,1.5,0.672,1.5,1.5v0
	c0,0.828-0.576,1.5-1.5,1.5c-1.104,0-1.5-0.572-1.5-1.381l0,0"/>
</svg>
