<?xml version="1.0" encoding="iso-8859-1"?>
<!-- Generator: Adobe Illustrator 19.1.1, SVG Export Plug-In . SVG Version: 6.00 Build 0)  -->
<svg version="1.1" id="Layer_1" xmlns="http://www.w3.org/2000/svg" xmlns:xlink="http://www.w3.org/1999/xlink" x="0px" y="0px"
	 viewBox="0 0 32 32" style="enable-background:new 0 0 32 32;" xml:space="preserve">
<path d="M24.102,5.555c0.688,1.202,0.125,1.662-0.436,1.977c-0.561,0.314-1.235,0.425-1.921-0.774C21.054,5.556,21.028,3,21.028,3
	S23.412,4.354,24.102,5.555z"/>
<path d="M27.078,9.004c-0.595,1.251-1.292,1.053-1.87,0.775c-0.581-0.283-1.056-0.773-0.467-2.02
	c0.595-1.254,2.674-2.736,2.674-2.736S27.669,7.754,27.078,9.004z"/>
<path d="M27.645,13.758c-0.897,1.056-1.521,0.685-2.006,0.267c-0.487-0.421-0.82-1.018,0.07-2.071C26.604,10.894,29,10,29,10
	S28.539,12.702,27.645,13.758z"/>
<path d="M23.483,12.336c1.229,0.716,0.978,1.396,0.65,1.949c-0.329,0.554-0.863,0.984-2.09,0.271
	c-1.232-0.715-2.59-2.946-2.59-2.946S22.251,11.622,23.483,12.336z"/>
<path d="M25.862,18.583c-1.202,0.688-1.662,0.128-1.979-0.431c-0.315-0.561-0.426-1.237,0.771-1.925
	c1.201-0.691,3.759-0.721,3.759-0.721S27.063,17.893,25.862,18.583z"/>
<path d="M22.753,16.057c0.88,1.121,0.393,1.659-0.114,2.052c-0.509,0.396-1.169,0.596-2.045-0.521
	c-0.878-1.121-1.312-3.695-1.312-3.695S21.874,14.94,22.753,16.057z"/>
<path d="M23.346,22.678c-1.366,0.24-1.607-0.443-1.716-1.076c-0.108-0.636,0.015-1.307,1.372-1.55
	c1.367-0.243,3.783,0.597,3.783,0.597S24.704,22.434,23.346,22.678z"/>
<path d="M21.116,19.285c0.601,1.292,0,1.704-0.584,1.971c-0.587,0.266-1.271,0.311-1.866-0.975c-0.601-1.293-0.432-3.9-0.432-3.9
	S20.52,17.995,21.116,19.285z"/>
<path d="M18.392,21.787c0.245,1.4-0.438,1.645-1.07,1.753c-0.636,0.103-1.312-0.028-1.555-1.424c-0.245-1.404,0.587-3.88,0.587-3.88
	S18.146,20.385,18.392,21.787z"/>
<path d="M19.71,25.827c-1.409-0.209-1.424-0.937-1.327-1.57c0.104-0.638,0.44-1.234,1.843-1.024
	c1.409,0.211,3.496,1.783,3.496,1.783S21.115,26.037,19.71,25.827z"/>
<path d="M15.68,28.197c-1.344-0.477-1.221-1.192-1.001-1.796c0.221-0.606,0.668-1.127,2.005-0.654
	c1.342,0.477,3.088,2.419,3.088,2.419S17.018,28.67,15.68,28.197z"/>
<path d="M23.081,8.464c1.366,0.37,1.298,1.096,1.126,1.712c-0.174,0.621-0.579,1.175-1.939,0.806c-1.371-0.37-3.243-2.17-3.243-2.17
	S21.716,8.095,23.081,8.464z"/>
<path d="M15.316,24.047c0.102,1.42-0.603,1.594-1.244,1.637c-0.643,0.037-1.3-0.164-1.403-1.576
	c-0.098-1.422,0.983-3.799,0.983-3.799S15.217,22.63,15.316,24.047z"/>
<path d="M11.159,26.03C9.474,26.507,6.825,27,3,27v2c5.086,0,8.283-0.826,9.99-1.455C12.267,27.334,11.596,26.856,11.159,26.03z"/>
</svg>
