<?xml version="1.0" encoding="iso-8859-1"?>
<!-- Generator: Adobe Illustrator 19.1.1, SVG Export Plug-In . SVG Version: 6.00 Build 0)  -->
<svg version="1.1" id="Layer_1" xmlns="http://www.w3.org/2000/svg" xmlns:xlink="http://www.w3.org/1999/xlink" x="0px" y="0px"
	 viewBox="0 0 32 32" style="enable-background:new 0 0 32 32;" xml:space="preserve">
<path style="fill:none;stroke:#000000;stroke-width:2;stroke-miterlimit:10;" d="M25.951,18c-0.502,5.053-4.765,9-9.951,9
	c-5.523,0-10-4.477-10-10S10.477,7,16,7"/>
<path style="fill:none;stroke:#000000;stroke-width:2;stroke-miterlimit:10;" d="M12,8c0,0-2-2-6-2c0,2,0.917,4.5,2,6"/>
<path style="fill:none;stroke:#000000;stroke-width:2;stroke-miterlimit:10;" d="M24,12c0,0,2-3,2-6c-4,0-6,2-6,2S20.125,12,24,12z"
	/>
<path d="M17.974,7.214l-0.001-0.017l0.185-0.184c0.217-0.238,0.429-0.456,0.628-0.641C17.883,6.135,16.954,6,16,6v2
	c0.428,0,0.848,0.04,1.264,0.098C17.508,7.773,17.746,7.474,17.974,7.214z"/>
<path d="M25.91,12.713c-0.342,0.764-0.739,1.566-1.153,2.242C24.913,15.619,25,16.302,25,17c0,0.304-0.015,0.604-0.044,0.901
	l1.99,0.198C26.982,17.737,27,17.371,27,17c0-1.575-0.333-3.096-0.964-4.498C25.987,12.586,25.952,12.643,25.91,12.713z"/>
</svg>
