<?xml version="1.0" encoding="iso-8859-1"?>
<!-- Generator: Adobe Illustrator 22.0.1, SVG Export Plug-In . SVG Version: 6.00 Build 0)  -->
<svg version="1.1" id="&#x421;&#x43B;&#x43E;&#x439;_1"
	 xmlns="http://www.w3.org/2000/svg" xmlns:xlink="http://www.w3.org/1999/xlink" x="0px" y="0px" viewBox="0 0 32 32"
	 style="enable-background:new 0 0 32 32;" xml:space="preserve">
<g>
	<line style="fill:none;stroke:#000000;stroke-width:2;stroke-miterlimit:10;" x1="3" y1="3" x2="29" y2="29"/>
	<g>
		<path d="M12.182,13.596c1.302-2.758,2.879-5.334,3.818-6.79v10.608l7.151,7.151C23.689,23.49,24,22.282,24,21
			c0-6.244-6.888-16.155-7.181-16.573L16,3.256l-0.819,1.17c-0.169,0.241-2.527,3.642-4.496,7.672L12.182,13.596z"/>
		<path d="M16,20.243V27c-3.309,0-6-2.691-6-6c0-1.588,0.544-3.504,1.32-5.437l-1.524-1.524C8.768,16.443,8,18.923,8,21
			c0,4.411,3.589,8,8,8c2.398,0,4.547-1.066,6.015-2.743L16,20.243z"/>
	</g>
</g>
</svg>
