<?xml version="1.0" encoding="iso-8859-1"?>
<!-- Generator: Adobe Illustrator 19.1.1, SVG Export Plug-In . SVG Version: 6.00 Build 0)  -->
<svg version="1.1"  xmlns="http://www.w3.org/2000/svg" xmlns:xlink="http://www.w3.org/1999/xlink" x="0px" y="0px"
	 viewBox="0 0 32 32" style="enable-background:new 0 0 32 32;" xml:space="preserve">
<polyline style="fill:none;stroke:#000000;stroke-width:2;stroke-miterlimit:10;" points="15,9 27,9 27,15 "/>
<circle cx="25.5" cy="10.5" r="1.5"/>
<polyline style="fill:none;stroke:#000000;stroke-width:2;stroke-miterlimit:10;" points="15,23 3,23 3,9 15,9 "/>
<circle cx="4.5" cy="21.5" r="1.5"/>
<circle cx="4.5" cy="10.5" r="1.5"/>
<circle cx="8" cy="16" r="1.5"/>
<path style="fill:none;stroke:#000000;stroke-width:2;stroke-miterlimit:10;" d="M15,13c-1.7,0-3,1.3-3,3l0,0c0,1.7,1.3,3,3,3"/>
<path d="M31,20v-2h1v-2h-1H21h-1v2h1v2c0,1.6,0.8,3.1,2,4c-1.2,0.9-2,2.4-2,4v2h-1v2h1h10h1v-2h-1v-2c0-1.6-0.8-3.1-2-4
	C30.2,23.1,31,21.6,31,20z M29,28v2h-1c0-1.1-0.9-2-2-2s-2,0.9-2,2h-1v-2c0-1.7,1.3-3,3-3S29,26.3,29,28z M29,20c0,1.7-1.3,3-3,3
	s-3-1.3-3-3v-2h6V20z M24,20h4c0,0,0,2-2,2S24,20,24,20z"/>
<g>
	<path d="M20.359,22H15v2h6.53C21.01,23.417,20.62,22.733,20.359,22z"/>
</g>
<path d="M18,15h0.864c-0.435-1.741-1.97-3-3.864-3v2c1.14,0,2,0.859,2,2s-0.86,2-2,2v2c1.213,0,2.272-0.525,3-1.352V15z"/>
</svg>
