<?xml version="1.0" encoding="iso-8859-1"?>
<!-- Generator: Adobe Illustrator 19.1.1, SVG Export Plug-In . SVG Version: 6.00 Build 0)  -->
<svg version="1.1" id="Layer_1" xmlns="http://www.w3.org/2000/svg" xmlns:xlink="http://www.w3.org/1999/xlink" x="0px" y="0px"
	 viewBox="0 0 32 32" style="enable-background:new 0 0 32 32;" xml:space="preserve">
<path style="fill:none;stroke:#000000;stroke-width:1.98;stroke-miterlimit:10;" d="M23.542,14.914C23.777,14.554,24,13.96,24,13
	c0-3.783-4.921-3.598-4.188-7.438c-7.145,2.699-2.882,5.217-6.996,6.243"/>
<path style="fill:none;stroke:#000000;stroke-width:1.98;stroke-miterlimit:10;" d="M25.961,17.644
	c-0.322-1.356-1.395-2.43-2.791-2.6c-6.011-0.791-10.359-3.052-11.003-3.504c-1.556-1.017-3.596-0.565-4.616,1.074
	c-0.966,1.639-1.126,4.378,1.258,5.986c0.483,0.339,2.284,0.94,3.762,1.164"/>
<path style="fill:none;stroke:#000000;stroke-width:1.98;stroke-miterlimit:10;" d="M28.534,19.773
	c-0.96-1.694-3.049-2.258-4.742-1.355c-0.056,0-2.936,1.581-7.791,1.581c-4.799,0-7.678-1.468-7.791-1.581
	c-1.694-0.96-3.783-0.339-4.742,1.299c-0.96,1.694-0.395,3.839,1.299,4.799C5.217,24.742,9.282,27,16,27s10.783-2.202,11.235-2.484
	C28.929,23.556,29.493,21.411,28.534,19.773z"/>
</svg>
