<?xml version="1.0" encoding="iso-8859-1"?>
<!-- Generator: Adobe Illustrator 19.1.1, SVG Export Plug-In . SVG Version: 6.00 Build 0)  -->
<svg version="1.1" id="Layer_1" xmlns="http://www.w3.org/2000/svg" xmlns:xlink="http://www.w3.org/1999/xlink" x="0px" y="0px"
	 viewBox="0 0 32 32" style="enable-background:new 0 0 32 32;" xml:space="preserve">
<path d="M25.3,8.8c-0.2-0.5-0.6-1.1-1-1.7c-0.5-0.7-1.1-1.3-1.8-1.8c-1.7-1.4-3.6-2.1-5.7-2.2c-1.6-0.1-2.9,0.1-4,0.3
	c-0.8,0.2-1.5,0.4-2.2,0.8c-0.4,0.3-0.8,0.6-1.3,1.2c-0.5,0.5-0.9,1-1.2,1.1C7.2,7.1,6.6,7.9,6.4,8.9c-0.4,1.6-0.3,3.7,0.3,6.2
	c0.1,0.3,0.3,0.7,0.6,1.1c0.4,0.5,0.6,0.8,0.8,1c-0.1,0-0.1,0.1-0.3,0.1l-0.3,0.1c-0.3,0.1-0.4,0.3-0.4,0.6l0.1,0.4l0.1,0.3
	l-0.2,0.1V19c0.1,0.5,0.2,0.8,0.5,1.1c0.1,0.3,0.3,0.5,0.4,0.5h0.4c0.1-0.1,0.3-0.2,0.3-0.2c0.2-0.2,0.4-0.2,0.6-0.1l0.3,0.1
	l0.4,0.3c0.2,0,0.3-0.1,0.5-0.2c0.1-0.1,0.2-0.2,0.2-0.2l-0.3-0.1h-0.3c-0.3,0-0.4-0.1-0.4-0.2l0.6-0.5l0.6-0.5
	c0.4-0.2,0.9-0.4,1.4-0.4c0.3,0.1,0.4,0.2,0.4,0.4c-0.2,0.1-0.3,0.3-0.2,0.6l0.1,0.4c0.1,0.1,0.1,0.2,0.1,0.3
	c-0.3-0.1-0.3,0.1-0.2,0.7c0.1,0.3,0.2,0.7,0.4,1.1c0,1.1,0.1,3.2,0.3,6l0.2,0.2l0.3,0.2c0.3,0.2,0.5,0.2,0.6,0s0.1-1.4,0.1-3.6
	s-0.1-3.3-0.1-3.5l-0.2-0.2c0.2-0.1,0.4-0.1,0.6-0.3c-0.1,1,0.1,3.7,0.3,7.9c0,0.1,0.1,0.1,0.4,0.1c0.3,0,0.4,0,0.4,0.1
	c0.2-0.1,0.3-1.3,0.4-3.6v-2.7c0-0.8,0-1.4-0.1-1.7h0.4c-0.1,1.3-0.1,2.9-0.1,4.8c-0.1,2.1,0,3.2,0.1,3.1H17c0.3,0.1,0.4-1,0.5-3.3
	c0.1-0.9,0.1-1.8,0.1-2.8c0-0.9,0-1.6-0.1-2.1l0.5-0.1c0.4,0.2,0.6,0.4,0.6,0.4v0.1l-0.4,0.1L18,21.3c0,0.1,0,0.5-0.1,1.3l-0.1,2.7
	c-0.1,2.5,0,3.7,0.1,3.6l1.1-0.2c0.1-0.1,0.2-0.9,0.3-2.7c0.1-1.5,0.1-2.8,0.1-3.9c0.3-0.3,0.5-0.8,0.7-1.6l0.1-0.8
	c0-0.2,0-0.4-0.1-0.4L20,19.2l0.1-0.2l0.6-0.2l0.6-0.2c0.5-0.1,0.9,0.1,1.2,0.4c0.1,0.2,0.2,0.4,0.1,0.7l-0.1,0.2
	c0,0.1,0,0.1-0.1,0.1c-0.1,0.3,0,0.5,0.3,0.5c0.3,0.1,0.5,0.1,0.8-0.1c0.1-0.2,0.4-0.4,0.8-0.6c0.3-0.2,0.5-0.5,0.6-0.7l0.1-0.7
	c0-0.3-0.1-0.4-0.3-0.5c-0.1,0-0.1-0.1-0.1-0.1v-0.2c0.1-0.2,0.2-0.4,0.1-0.6l0.4-1.9c0.3-0.9,0.4-1.6,0.5-2.2
	C26,11.1,25.9,9.7,25.3,8.8L25.3,8.8z M13.6,16.3H13c-0.1,0.1-0.3,0.1-0.8,0l-1.3-0.2c-1.3-0.2-2-0.4-2-0.5
	c-0.3-0.1-0.5-0.3-0.7-0.6S7.9,14.5,8,14.3c-0.3-0.4-0.4-0.8-0.4-1.5l0.1-0.7c0.1-0.2,0.1-0.2,0.1-0.2c-0.1-0.2,0.1-0.1,0.6,0.1
	c0.6,0.2,1.1,0.5,1.6,0.8c0.3,0.1,1.2,0.6,2.5,1.5c0.3,0.2,0.8,0.4,1.3,0.6l1.4,0.6c0.1,0.1,0.1,0.1-0.1,0.2
	c-0.1,0.1-0.4,0.2-0.7,0.3L13.6,16.3L13.6,16.3z M15.9,17.8l-0.6,0.9l-0.1,0.6l-0.1,0.1l-0.3-0.2l-0.2-0.4l-0.2-0.4v-0.3l0.1-0.2
	l0.2-0.2l0.1-0.3l0.3-0.7v-0.1l0.1-0.1l0.1-0.1l0.2-0.1l0.1-0.2l0.1-0.1v1.8H15.9z M17.5,18.4l-0.2,0.4l-0.2,0.4l-0.2,0.2l-0.1,0.1
	l-0.1-0.9l-0.6-0.9v-1.4l0.1-0.3l0.1,0.2l0.2,0.1l0.1,0.1l0.1,0.1v0.1l0.3,0.8l0.2,0.2l0.2,0.2l0.1,0.2
	C17.6,18.1,17.6,18.3,17.5,18.4L17.5,18.4z M24.6,12.8c-0.1,0.6-0.2,1.1-0.4,1.5c-0.1,0.4-0.2,0.7-0.4,0.8c-0.1,0.2-0.3,0.4-0.5,0.5
	c-0.1,0.2-0.8,0.4-2,0.5l-1.4,0.2c-0.4,0.1-0.7,0.1-0.8,0c-0.1,0.1-0.3,0-0.6-0.1L17.6,16c-0.8-0.2-1.1-0.4-0.8-0.5l1.5-0.5
	c0.6-0.2,1-0.5,1.3-0.7l1.3-0.8c0.6-0.4,1-0.6,1.2-0.7c0.4-0.2,1-0.4,1.7-0.6c0-0.2,0.2-0.3,0.4-0.3c0.1-0.1,0.2,0,0.2,0.1
	c0.1,0,0.1,0.1,0.1,0.2v0.6H24.6z"/>
</svg>
