<?xml version="1.0" encoding="iso-8859-1"?>
<!-- Generator: Adobe Illustrator 21.0.2, SVG Export Plug-In . SVG Version: 6.00 Build 0)  -->
<svg version="1.1" id="Layer_1" xmlns="http://www.w3.org/2000/svg" xmlns:xlink="http://www.w3.org/1999/xlink" x="0px" y="0px"
	 viewBox="0 0 32 32" style="enable-background:new 0 0 32 32;" xml:space="preserve">
<path style="fill:none;stroke:#000000;stroke-width:2;stroke-miterlimit:10;" d="M23,26l1,1h3v-4c0-4-7-9-7-9v-2h-1v1h-4v-1h-1v2
	c0,0-7,5-7,9c0,1,0,4,0,4h3l1-1H23z"/>
<rect x="19" y="18" width="2" height="2"/>
<rect x="13" y="18" width="2" height="2"/>
<rect x="16" y="18" width="2" height="2"/>
<rect x="19" y="21" width="2" height="2"/>
<rect x="13" y="21" width="2" height="2"/>
<rect x="16" y="21" width="2" height="2"/>
<path style="fill:none;stroke:#000000;stroke-width:2;stroke-miterlimit:10;" d="M18.977,5.625c0,0,2.377,3.083,2.939,3.708
	C22.352,9.817,22.659,10,23,10c2,0,3,0,4,0c0.958,0,1.052-0.574,0.995-1.266c-0.058-0.692-0.266-2.614-0.996-2.966
	c-0.731-0.352-3.811-1.08-8.155-0.517c-3.176,0.411-6.432,1.384-8.344,2.344c-5.208,2.615-6.069,4.219-6.371,4.676
	c-0.443,0.672,0.374,2.428,0.683,3.05c0.308,0.624,0.919,0.78,1.264,0.623c0.344-0.158,3.155-1.768,3.609-2.008
	c0.299-0.159,0.517-0.603,0.648-1.227c0.09-0.427,0.464-3.529,0.609-4.743"/>
<path style="fill:none;stroke:#000000;stroke-width:2;stroke-miterlimit:10;" d="M7.83,5.015c-1.732,0.977-2.96,1.848-3.843,2.595"
	/>
<line style="fill:none;stroke:#000000;stroke-width:2;stroke-miterlimit:10;" x1="24" y1="13" x2="28" y2="13"/>
</svg>
