<?xml version="1.0" encoding="iso-8859-1"?>
<!-- Generator: Adobe Illustrator 19.1.1, SVG Export Plug-In . SVG Version: 6.00 Build 0)  -->
<svg version="1.1"  xmlns="http://www.w3.org/2000/svg" xmlns:xlink="http://www.w3.org/1999/xlink" x="0px" y="0px"
	 viewBox="0 0 32 32" style="enable-background:new 0 0 32 32;" xml:space="preserve">
<path d="M7.235,15.731c-0.015,0.035,0.005,0.042,0.01,0.048c0.043,0.029,0.087,0.05,0.131,0.073C7.61,15.967,7.832,16,8.063,16
	c0.472,0,0.765-0.231,0.765-0.604v-0.007c0-0.344-0.331-0.47-0.641-0.56l-0.041-0.012c-0.234-0.07-0.436-0.131-0.436-0.273v-0.007
	c0-0.122,0.118-0.211,0.301-0.211c0.203,0,0.444,0.062,0.599,0.141c0,0,0.046,0.027,0.063-0.014
	c0.009-0.022,0.088-0.217,0.096-0.238c0.009-0.023-0.007-0.04-0.023-0.049C8.57,14.068,8.324,14,8.071,14l-0.047,0
	c-0.432,0-0.734,0.241-0.734,0.585v0.007c0,0.363,0.333,0.481,0.644,0.563l0.05,0.014c0.227,0.064,0.423,0.12,0.423,0.267v0.007
	c0,0.135-0.127,0.235-0.332,0.235c-0.08,0-0.334-0.001-0.608-0.161C7.434,15.5,7.415,15.487,7.39,15.473
	c-0.014-0.008-0.047-0.021-0.062,0.02L7.235,15.731z"/>
<path d="M14.103,15.731c-0.015,0.035,0.005,0.042,0.01,0.048c0.043,0.029,0.087,0.05,0.131,0.073C14.479,15.967,14.701,16,14.932,16
	c0.472,0,0.765-0.231,0.765-0.604v-0.007c0-0.344-0.331-0.47-0.641-0.56l-0.041-0.012c-0.234-0.07-0.436-0.131-0.436-0.273v-0.007
	c0-0.122,0.118-0.211,0.301-0.211c0.203,0,0.444,0.062,0.599,0.141c0,0,0.046,0.027,0.063-0.014
	c0.009-0.022,0.088-0.217,0.096-0.238c0.009-0.023-0.007-0.04-0.023-0.049C15.438,14.068,15.193,14,14.94,14l-0.047,0
	c-0.432,0-0.734,0.241-0.734,0.585v0.007c0,0.363,0.333,0.481,0.644,0.563l0.05,0.014c0.227,0.064,0.423,0.12,0.423,0.267v0.007
	c0,0.135-0.127,0.235-0.333,0.235c-0.08,0-0.333-0.001-0.608-0.161c-0.033-0.018-0.053-0.03-0.078-0.045
	c-0.008-0.005-0.048-0.019-0.062,0.02L14.103,15.731z"/>
<path d="M19.064,14.609c-0.039-0.121-0.099-0.228-0.179-0.317c-0.08-0.089-0.182-0.161-0.303-0.213C18.462,14.027,18.32,14,18.16,14
	c-0.16,0-0.302,0.027-0.423,0.079s-0.222,0.124-0.302,0.214c-0.08,0.089-0.141,0.196-0.179,0.317
	c-0.039,0.121-0.058,0.253-0.058,0.393c0,0.14,0.02,0.272,0.058,0.393c0.039,0.121,0.099,0.228,0.179,0.317
	c0.08,0.089,0.182,0.161,0.303,0.212S18,16,18.16,16c0.16,0,0.301-0.026,0.422-0.077c0.12-0.051,0.222-0.122,0.303-0.212
	c0.08-0.089,0.141-0.196,0.179-0.317c0.039-0.121,0.058-0.253,0.058-0.393C19.122,14.862,19.102,14.73,19.064,14.609 M18.67,15.002
	c0,0.212-0.043,0.379-0.126,0.497c-0.083,0.117-0.209,0.174-0.383,0.174c-0.175,0-0.3-0.057-0.382-0.174
	c-0.083-0.118-0.125-0.285-0.125-0.497c0-0.211,0.042-0.378,0.124-0.495c0.082-0.115,0.207-0.172,0.382-0.172
	c0.175,0,0.3,0.056,0.383,0.172C18.628,14.624,18.67,14.791,18.67,15.002"/>
<path style="fill-rule:evenodd;clip-rule:evenodd;" d="M22.149,15.617c-0.013-0.035-0.05-0.022-0.05-0.022
	c-0.057,0.02-0.118,0.039-0.183,0.048c-0.066,0.01-0.138,0.014-0.216,0.014c-0.19,0-0.342-0.053-0.451-0.156
	c-0.109-0.104-0.17-0.272-0.169-0.499c0.001-0.207,0.054-0.362,0.151-0.481c0.096-0.118,0.242-0.178,0.437-0.178
	c0.162,0,0.286,0.018,0.416,0.055c0,0,0.031,0.013,0.046-0.025c0.035-0.089,0.06-0.152,0.097-0.25
	c0.01-0.028-0.015-0.04-0.025-0.043c-0.051-0.019-0.171-0.049-0.263-0.062C21.855,14.006,21.755,14,21.644,14
	c-0.165,0-0.313,0.026-0.439,0.078c-0.126,0.052-0.233,0.124-0.317,0.213c-0.085,0.089-0.149,0.196-0.191,0.317
	c-0.043,0.121-0.064,0.253-0.064,0.393c0,0.303,0.088,0.548,0.262,0.727C21.069,15.909,21.33,16,21.672,16
	c0.202,0,0.409-0.038,0.558-0.092c0,0,0.028-0.013,0.016-0.044L22.149,15.617z"/>
<path style="fill-rule:evenodd;clip-rule:evenodd;" d="M24.083,14.54c-0.033-0.117-0.116-0.235-0.17-0.289
	c-0.086-0.086-0.17-0.146-0.253-0.179C23.551,14.029,23.421,14,23.278,14c-0.166,0-0.317,0.026-0.44,0.079
	c-0.123,0.053-0.226,0.126-0.307,0.217c-0.081,0.091-0.142,0.198-0.181,0.321c-0.039,0.122-0.058,0.254-0.058,0.394
	c0,0.143,0.02,0.276,0.061,0.395c0.041,0.121,0.105,0.226,0.193,0.315c0.088,0.088,0.2,0.157,0.335,0.206
	c0.134,0.048,0.297,0.073,0.484,0.072c0.385-0.001,0.588-0.081,0.671-0.124c0.015-0.008,0.029-0.021,0.011-0.059l-0.088-0.226
	c-0.013-0.034-0.05-0.021-0.05-0.021c-0.096,0.033-0.231,0.092-0.547,0.091c-0.207,0-0.36-0.057-0.456-0.145
	c-0.098-0.09-0.147-0.223-0.155-0.411l1.333,0.001c0,0,0.035,0,0.039-0.032C24.124,15.06,24.169,14.819,24.083,14.54 M22.757,14.799
	c0.019-0.118,0.054-0.215,0.108-0.292c0.081-0.116,0.206-0.18,0.381-0.18c0.175,0,0.29,0.064,0.374,0.18
	c0.055,0.077,0.079,0.178,0.089,0.292L22.757,14.799z"/>
<path style="fill-rule:evenodd;clip-rule:evenodd;" d="M13.796,14.54c-0.033-0.117-0.116-0.235-0.17-0.289
	c-0.086-0.086-0.17-0.146-0.253-0.179C13.264,14.029,13.133,14,12.991,14c-0.167,0-0.318,0.026-0.44,0.079
	c-0.123,0.053-0.226,0.126-0.307,0.217c-0.081,0.091-0.142,0.198-0.181,0.321c-0.039,0.122-0.058,0.254-0.058,0.394
	c0,0.143,0.02,0.276,0.061,0.395c0.041,0.121,0.105,0.226,0.193,0.315c0.088,0.088,0.2,0.157,0.335,0.206
	c0.134,0.048,0.297,0.073,0.484,0.072c0.385-0.001,0.588-0.081,0.671-0.124c0.015-0.008,0.029-0.021,0.011-0.059l-0.088-0.226
	c-0.013-0.034-0.05-0.021-0.05-0.021c-0.096,0.033-0.231,0.092-0.547,0.091c-0.207,0-0.36-0.057-0.456-0.145
	c-0.098-0.09-0.147-0.223-0.155-0.411l1.333,0.001c0,0,0.035,0,0.039-0.032C13.837,15.06,13.881,14.819,13.796,14.54 M12.47,14.799
	c0.019-0.118,0.054-0.215,0.107-0.292c0.082-0.116,0.206-0.18,0.381-0.18c0.175,0,0.291,0.064,0.374,0.18
	c0.055,0.077,0.079,0.178,0.088,0.292L12.47,14.799z"/>
<path d="M10.17,14.741c-0.054-0.004-0.124-0.006-0.208-0.006c-0.114,0-0.225,0.013-0.329,0.039C9.529,14.8,9.435,14.84,9.355,14.894
	c-0.081,0.054-0.146,0.122-0.193,0.204S9.09,15.275,9.09,15.382c0,0.11,0.02,0.205,0.061,0.282c0.041,0.078,0.099,0.143,0.174,0.193
	c0.074,0.05,0.166,0.087,0.271,0.109C9.701,15.989,9.82,16,9.95,16c0.137,0,0.273-0.011,0.405-0.031
	c0.131-0.021,0.291-0.051,0.336-0.06c0.044-0.009,0.093-0.022,0.093-0.022c0.033-0.008,0.03-0.04,0.03-0.04l-0.001-1.13
	c0-0.248-0.071-0.432-0.212-0.546C10.462,14.057,10.256,14,9.989,14c-0.1,0-0.261,0.013-0.357,0.03c0,0-0.291,0.052-0.411,0.139
	c0,0-0.026,0.015-0.012,0.049l0.094,0.235c0.012,0.03,0.044,0.02,0.044,0.02s0.01-0.004,0.022-0.01
	c0.256-0.129,0.581-0.125,0.581-0.125c0.144,0,0.255,0.027,0.33,0.08c0.073,0.052,0.11,0.13,0.11,0.294v0.052
	C10.275,14.75,10.17,14.741,10.17,14.741 M9.639,15.609c-0.052-0.039-0.059-0.048-0.077-0.073c-0.027-0.038-0.04-0.092-0.04-0.161
	c0-0.108,0.039-0.187,0.119-0.239c-0.001,0,0.115-0.093,0.387-0.089c0.191,0.002,0.362,0.029,0.362,0.029v0.562
	c0,0-0.169,0.034-0.36,0.044C9.759,15.696,9.638,15.608,9.639,15.609"/>
<path style="fill-rule:evenodd;clip-rule:evenodd;" d="M20.627,14.084c0.01-0.029-0.011-0.043-0.02-0.046
	c-0.023-0.008-0.136-0.031-0.223-0.037c-0.168-0.01-0.261,0.017-0.344,0.053c-0.083,0.036-0.174,0.093-0.225,0.159l0-0.156
	c0-0.021-0.016-0.038-0.038-0.038h-0.342c-0.022,0-0.038,0.017-0.038,0.038v1.903c0,0.021,0.018,0.038,0.041,0.038h0.35
	c0.022,0,0.04-0.017,0.04-0.038v-0.951c0-0.128,0.015-0.255,0.044-0.335c0.029-0.079,0.068-0.142,0.117-0.188
	c0.049-0.045,0.104-0.077,0.165-0.095c0.062-0.018,0.13-0.024,0.178-0.024c0.07,0,0.146,0.017,0.146,0.017
	c0.026,0.003,0.04-0.013,0.049-0.035C20.55,14.294,20.615,14.119,20.627,14.084"/>
<path style="fill-rule:evenodd;clip-rule:evenodd;" d="M17.509,13.045c-0.042-0.013-0.081-0.022-0.131-0.031
	C17.327,13.005,17.266,13,17.198,13c-0.24,0-0.429,0.068-0.562,0.202c-0.132,0.133-0.225,0.361-0.27,0.627L16.34,14h-0.301
	c0,0-0.037,0.01-0.044,0.05l-0.049,0.276c-0.004,0.026,0.008,0.043,0.043,0.043h0.293l-0.294,1.636
	c-0.023,0.134-0.05,0.244-0.079,0.327c-0.029,0.082-0.058,0.144-0.093,0.189c-0.034,0.043-0.066,0.075-0.121,0.094
	c-0.046,0.015-0.099,0.022-0.156,0.022c-0.032,0-0.075-0.005-0.106-0.012c-0.032-0.006-0.048-0.013-0.072-0.023
	c0,0-0.034-0.013-0.048,0.021c-0.011,0.028-0.089,0.243-0.098,0.27c-0.009,0.026,0.004,0.047,0.021,0.053
	c0.039,0.014,0.068,0.023,0.121,0.035C15.429,16.999,15.491,17,15.549,17c0.122,0,0.234-0.017,0.326-0.05
	c0.093-0.034,0.174-0.092,0.245-0.171c0.077-0.085,0.126-0.175,0.172-0.297c0.046-0.121,0.085-0.271,0.117-0.446l0.295-1.666h0.437
	c0,0,0.037,0.001,0.044-0.039l0.049-0.276C17.239,14.028,17.228,14,17.193,14h-0.424c0.002-0.009,0.033-0.265,0.082-0.406
	c0.021-0.06,0.06-0.108,0.093-0.142c0.032-0.033,0.07-0.056,0.111-0.069c0.042-0.013,0.09-0.02,0.142-0.02
	c0.04,0,0.079,0.005,0.109,0.011c0.041,0.009,0.057,0.013,0.068,0.016c0.043,0.013,0.049,0.001,0.058-0.02l0.101-0.279
	C17.544,13.062,17.519,13.049,17.509,13.045"/>
<path style="fill-rule:evenodd;clip-rule:evenodd;" d="M11.643,15.958c0,0.022-0.015,0.04-0.037,0.04h-0.338
	c-0.021,0-0.037-0.018-0.037-0.04v-2.919c0-0.022,0.015-0.039,0.037-0.039h0.338c0.021,0,0.037,0.018,0.037,0.039V15.958z"/>
<path style="fill:none;stroke:#000000;stroke-width:2;stroke-miterlimit:10;" d="M23,9c-0.758,0-1.48,0.146-2.148,0.403
	C19.81,8.528,18.467,8,17,8c-1.018,0-1.977,0.256-2.817,0.703C13.102,7.651,11.628,7,10,7c-3.314,0-6,2.686-6,6
	c0,0.482,0.063,0.949,0.17,1.398C3.449,15.305,3,16.438,3,17.687C3,20.621,5.379,23,8.313,23c0.07,0,0.136-0.018,0.205-0.021
	C9.617,24.216,11.215,25,13,25c1.845,0,3.494-0.834,4.594-2.144c0.135,0.014,0.267,0.041,0.406,0.041
	c1.504,0,2.793-0.861,3.443-2.108C21.94,20.922,22.461,21,23,21c3.314,0,6-2.686,6-6S26.314,9,23,9z"/>
</svg>
