<?xml version="1.0" encoding="iso-8859-1"?>
<!-- Generator: Adobe Illustrator 19.1.1, SVG Export Plug-In . SVG Version: 6.00 Build 0)  -->
<svg version="1.1" id="Layer_1" xmlns="http://www.w3.org/2000/svg" xmlns:xlink="http://www.w3.org/1999/xlink" x="0px" y="0px"
	 viewBox="0 0 32 32" style="enable-background:new 0 0 32 32;" xml:space="preserve">
<polyline style="fill:none;stroke:#000000;stroke-width:2;stroke-miterlimit:10;" points="23,10 25.484,7 26.25,7 30,17 "/>
<line style="fill:none;stroke:#000000;stroke-width:2;stroke-miterlimit:10;" x1="18" y1="17" x2="32" y2="17"/>
<polyline style="fill:none;stroke:#000000;stroke-width:2;stroke-miterlimit:10;" points="9,10 6.516,7 5.75,7 2,17 "/>
<line style="fill:none;stroke:#000000;stroke-width:2;stroke-miterlimit:10;" x1="14" y1="17" x2="0" y2="17"/>
<path d="M23,26c-3.309,0-6-2.691-6-6v-3c0-0.551-0.448-1-1-1s-1,0.449-1,1v3c0,3.309-2.691,6-6,6c-6.03,0-8-5.95-8-8v-1h12
	c0-1.654,1.346-3,3-3s3,1.346,3,3h12v1C31,20.386,27.622,26,23,26z"/>
</svg>
