<?xml version="1.0" encoding="iso-8859-1"?>
<!-- Generator: Adobe Illustrator 19.0.1, SVG Export Plug-In . SVG Version: 6.00 Build 0)  -->
<svg version="1.1" id="Layer_1" xmlns="http://www.w3.org/2000/svg" xmlns:xlink="http://www.w3.org/1999/xlink" x="0px" y="0px"
	 viewBox="0 0 32 32" style="enable-background:new 0 0 32 32;" xml:space="preserve">
<path id="XMLID_348_" style="fill:none;stroke:#000000;stroke-width:2;stroke-linejoin:round;stroke-miterlimit:10;" d="M5,24
	c0,0,7.964,3,23,3"/>
<circle id="XMLID_346_" style="fill:none;stroke:#000000;stroke-width:2;stroke-linecap:round;stroke-linejoin:round;stroke-miterlimit:10;" cx="22" cy="7" r="2"/>
<path id="XMLID_347_" style="fill:none;stroke:#000000;stroke-width:2;stroke-linejoin:round;stroke-miterlimit:10;" d="M5,27
	c0.951,0,3.043-0.038,3.973-1.86"/>
<path id="XMLID_349_" style="fill:none;stroke:#000000;stroke-width:2;stroke-miterlimit:10;" d="M10.708,5.72l2.318,3.405
	c0.137,0.201,0.343,0.346,0.579,0.406l4.477,1.147l7.178,5.944"/>
<path id="XMLID_406_" style="fill:none;stroke:#000000;stroke-width:2;stroke-miterlimit:10;" d="M17.462,10.605l-4.408,4.282
	c-0.395,0.384-0.476,0.988-0.195,1.462l1.735,2.93l-1.439,1.607"/>
<path id="XMLID_405_" style="fill:none;stroke:#000000;stroke-width:2;stroke-miterlimit:10;" d="M18.522,21.022l0.135-1.801
	l-1.831-1.993c-0.358-0.389-0.351-0.99,0.016-1.371l3.23-3.351"/>
<g id="XMLID_407_">
	<path id="XMLID_409_" d="M19.254,24.624l0.265-3.526l-1.994-0.15l-0.261,3.48C17.901,24.498,18.565,24.563,19.254,24.624z"/>
	<path id="XMLID_410_" d="M12.007,23.669l1.894-2.115l-1.49-1.334l-2.681,2.994C10.405,23.363,11.165,23.516,12.007,23.669z"/>
</g>
</svg>
