<?xml version="1.0" encoding="iso-8859-1"?>
<!-- Generator: Adobe Illustrator 19.1.1, SVG Export Plug-In . SVG Version: 6.00 Build 0)  -->
<svg version="1.1"  xmlns="http://www.w3.org/2000/svg" xmlns:xlink="http://www.w3.org/1999/xlink" x="0px" y="0px"
	 viewBox="0 0 32 32" style="enable-background:new 0 0 32 32;" xml:space="preserve">
<path style="fill:none;stroke:#000000;stroke-width:2;stroke-miterlimit:10;" d="M19.894,23c0,0.633,1.106,2.764,1.106,2.764V26H11
	v-0.236c0,0,1-2.161,1-2.792"/>
<line style="fill:none;stroke:#000000;stroke-width:2;stroke-miterlimit:10;" x1="12" y1="19" x2="20" y2="19"/>
<path style="fill:none;stroke:#000000;stroke-width:2;stroke-miterlimit:10;" d="M12,7c0-0.552,0.448-1,1-1h6c0.552,0,1,0.448,1,1v9
	h2v5c0,0.552-0.448,1-1,1H11c-0.552,0-1-0.448-1-1v-5h2V7z"/>
<path style="fill:none;stroke:#000000;stroke-width:2;stroke-miterlimit:10;" d="M30,26h-4v-0.236c0,0,1.106-2.131,1.106-2.764"/>
<path style="fill:none;stroke:#000000;stroke-width:2;stroke-miterlimit:10;" d="M27,19h3"/>
<path style="fill:none;stroke:#000000;stroke-width:2;stroke-miterlimit:10;" d="M30,22h-4c-0.552,0-1-0.448-1-1v-5h2V7
	c0-0.552,0.448-1,1-1h2"/>
<g>
	<polygon points="2,27 8,23 8,21 2,25 	"/>
	<polygon points="2,5 2,7 8,11 8,9 	"/>
</g>
</svg>
