<?xml version="1.0" encoding="iso-8859-1"?>
<!-- Generator: Adobe Illustrator 19.2.1, SVG Export Plug-In . SVG Version: 6.00 Build 0)  -->
<svg version="1.1" id="Layer_1" xmlns="http://www.w3.org/2000/svg" xmlns:xlink="http://www.w3.org/1999/xlink" x="0px" y="0px"
	 viewBox="0 0 32 32" style="enable-background:new 0 0 32 32;" xml:space="preserve">
<circle style="fill:none;stroke:#000000;stroke-width:2;stroke-miterlimit:10;" cx="25" cy="25" r="6"/>
<g>
	<path d="M23,14v2.232C23.644,16.085,24.312,16,25,16v-2"/>
	<path d="M11,26v2h5.525C16.191,27.06,16,26.053,16,25s0.191-2.06,0.525-3H13c-2.206,0-4-1.794-4-4v-4H7v4c0,3.309,2.691,6,6,6h2v2
		H11z"/>
	<path d="M13,20h4.522c0.87-1.297,2.072-2.349,3.478-3.05V6c0-1.103-0.897-2-2-2h-6c-1.103,0-2,0.897-2,2v12
		C11,19.103,11.897,20,13,20z M13,6h6v12h-6V6z"/>
</g>
<line style="fill:none;stroke:#000000;stroke-width:2;stroke-miterlimit:10;" x1="20.68" y1="20.68" x2="29.32" y2="29.32"/>
</svg>
