<?xml version="1.0" encoding="iso-8859-1"?>
<!-- Generator: Adobe Illustrator 19.1.1, SVG Export Plug-In . SVG Version: 6.00 Build 0)  -->
<svg version="1.1" id="Layer_1" xmlns="http://www.w3.org/2000/svg" xmlns:xlink="http://www.w3.org/1999/xlink" x="0px" y="0px"
	 viewBox="0 0 32 32" style="enable-background:new 0 0 32 32;" xml:space="preserve">
<path style="fill:none;stroke:#000000;stroke-width:2;stroke-linecap:round;stroke-linejoin:round;stroke-miterlimit:10;" d="M26,7
	H6C5.448,7,5,7.447,5,8v17c0,0.552,0.447,1,1,1h20c0.552,0,1-0.448,1-1V8C27,7.447,26.552,7,26,7z"/>
<circle cx="8" cy="10" r="1"/>
<circle cx="18" cy="10" r="1"/>
<circle cx="21" cy="10" r="1"/>
<circle cx="24" cy="10" r="1"/>
<rect x="7" y="26" width="2" height="2"/>
<rect x="23" y="26" width="2" height="2"/>
<path style="fill:none;stroke:#000000;stroke-width:2;stroke-linecap:square;stroke-linejoin:round;stroke-miterlimit:10;" d="M10,7
	h1c0,0,1.917-3,5-3c2.917,0,5,3,5,3h1"/>
<line style="fill:none;stroke:#000000;stroke-width:2;stroke-linecap:round;stroke-linejoin:round;stroke-miterlimit:10;" x1="5" y1="13" x2="27" y2="13"/>
<circle cx="10.5" cy="21.5" r="0.5"/>
<circle cx="10.5" cy="17.5" r="0.5"/>
<circle cx="9.5" cy="19.5" r="0.5"/>
<circle cx="11.5" cy="19.5" r="0.5"/>
<circle cx="11.5" cy="15.5" r="0.5"/>
<circle cx="7.5" cy="19.5" r="0.5"/>
<circle cx="7.5" cy="23.5" r="0.5"/>
<circle cx="8.5" cy="21.5" r="0.5"/>
<circle cx="7.5" cy="15.5" r="0.5"/>
<circle cx="8.5" cy="17.5" r="0.5"/>
<circle cx="11.5" cy="23.5" r="0.5"/>
<circle cx="9.5" cy="15.5" r="0.5"/>
<circle cx="14.5" cy="17.5" r="0.5"/>
<circle cx="14.5" cy="21.5" r="0.5"/>
<circle cx="16.5" cy="17.5" r="0.5"/>
<circle cx="16.5" cy="21.5" r="0.5"/>
<circle cx="15.5" cy="19.5" r="0.5"/>
<circle cx="15.5" cy="23.5" r="0.5"/>
<circle cx="15.5" cy="15.5" r="0.5"/>
<circle cx="12.5" cy="17.5" r="0.5"/>
<circle cx="9.5" cy="23.5" r="0.5"/>
<circle cx="13.5" cy="19.5" r="0.5"/>
<circle cx="12.5" cy="21.5" r="0.5"/>
<circle cx="13.5" cy="23.5" r="0.5"/>
<circle cx="13.5" cy="15.5" r="0.5"/>
<circle cx="20.5" cy="21.5" r="0.5"/>
<circle cx="20.5" cy="17.5" r="0.5"/>
<circle cx="19.5" cy="19.5" r="0.5"/>
<circle cx="21.5" cy="19.5" r="0.5"/>
<circle cx="21.5" cy="15.5" r="0.5"/>
<circle cx="17.5" cy="19.5" r="0.5"/>
<circle cx="17.5" cy="23.5" r="0.5"/>
<circle cx="18.5" cy="21.5" r="0.5"/>
<circle cx="17.5" cy="15.5" r="0.5"/>
<circle cx="18.5" cy="17.5" r="0.5"/>
<circle cx="21.5" cy="23.5" r="0.5"/>
<circle cx="19.5" cy="15.5" r="0.5"/>
<circle cx="24.5" cy="17.5" r="0.5"/>
<circle cx="24.5" cy="21.5" r="0.5"/>
<circle cx="22.5" cy="17.5" r="0.5"/>
<circle cx="19.5" cy="23.5" r="0.5"/>
<circle cx="23.5" cy="19.5" r="0.5"/>
<circle cx="22.5" cy="21.5" r="0.5"/>
<circle cx="23.5" cy="23.5" r="0.5"/>
<circle cx="23.5" cy="15.5" r="0.5"/>
<rect x="11" y="9" width="1" height="2"/>
<rect x="14" y="9" width="1" height="2"/>
</svg>
