<?xml version="1.0" encoding="iso-8859-1"?>
<!-- Generator: Adobe Illustrator 19.1.0, SVG Export Plug-In . SVG Version: 6.00 Build 0)  -->
<svg version="1.1" id="Layer_1" xmlns="http://www.w3.org/2000/svg" xmlns:xlink="http://www.w3.org/1999/xlink" x="0px" y="0px"
	 viewBox="0 0 32 32" style="enable-background:new 0 0 32 32;" xml:space="preserve">
<polygon points="17,23 32,23 32,21 15,21 "/>
<polygon points="0,23 11,23 4,21 0,21 "/>
<g>
	<path d="M14.044,10.015c1.26,0,2.505,0.565,3.332,1.64l4.794,6.236l5.93-2.479l1.005,2.847l-7.001,2.649
		c-0.158,0.059-0.322,0.088-0.485,0.088c-0.367,0-0.727-0.146-0.993-0.418l-5.35-5.479l-5.699,3.899L12.373,19l5.548,6.74
		l-1.838,1.427L11.036,21c0,0-3.565,0.006-5.946,0.006c-1.19,0-2.085-0.002-2.09-0.006v-1.737c0-1.257,0.591-2.442,1.597-3.197
		l6.928-5.208C12.28,10.29,13.166,10.015,14.044,10.015 M14.044,8.015L14.044,8.015c-1.352,0-2.639,0.43-3.721,1.244l-6.928,5.208
		C1.895,15.594,1,17.387,1,19.263V21v0.831l0.589,0.586c0.592,0.589,0.592,0.589,3.501,0.589c1.616,0,3.777-0.003,5-0.005
		l4.446,5.432l1.235,1.508l1.54-1.195l1.838-1.427l1.625-1.262l-1.308-1.589l-5.167-6.277l0.72-0.492l4.177,4.277
		c0.633,0.649,1.517,1.021,2.424,1.021c0.406,0,0.804-0.072,1.185-0.214l7.009-2.652l1.829-0.692l-0.651-1.844l-1.005-2.847
		l-0.704-1.996l-1.953,0.816l-4.511,1.885l-3.856-5.017C17.779,8.898,15.987,8.015,14.044,8.015L14.044,8.015z"/>
</g>
</svg>
