<?xml version="1.0" encoding="iso-8859-1"?>
<!-- Generator: Adobe Illustrator 19.1.1, SVG Export Plug-In . SVG Version: 6.00 Build 0)  -->
<svg version="1.1" id="Layer_1" xmlns="http://www.w3.org/2000/svg" xmlns:xlink="http://www.w3.org/1999/xlink" x="0px" y="0px"
	 viewBox="0 0 32 32" style="enable-background:new 0 0 32 32;" xml:space="preserve">
<path style="fill:none;stroke:#000000;stroke-width:2;stroke-miterlimit:10;" d="M11,28h10"/>
<line style="fill:none;stroke:#000000;stroke-width:2;stroke-miterlimit:10;" x1="16" y1="28" x2="16" y2="24"/>
<path style="fill:none;stroke:#000000;stroke-width:2;stroke-miterlimit:10;" d="M9.291,16C7.852,12.042,6.98,10.207,6.98,8.278
	C6.98,6.492,8.623,4,16,4s9.02,2.492,9.02,4.278c0,1.929-0.871,3.764-2.311,7.721"/>
<path style="fill:none;stroke:#000000;stroke-width:2;stroke-miterlimit:10;" d="M16,18h-4.87c-0.109,0-0.206-0.047-0.274-0.131
	L7.562,13.75C7.179,13.273,6.609,13,5.999,13l0,0c-0.452,0-0.895,0.156-1.248,0.438c-0.861,0.691-1,1.951-0.313,2.811l3.296,4.118
	C8.564,21.405,9.802,22,11.131,22H16"/>
<path style="fill:none;stroke:#000000;stroke-width:2;stroke-miterlimit:10;" d="M16,22h4.869c1.328,0,2.567-0.595,3.398-1.633
	l3.296-4.118c0.687-0.86,0.547-2.121-0.313-2.811C26.896,13.155,26.453,13,26.001,13l0,0c-0.61,0-1.18,0.273-1.563,0.751
	l-3.295,4.118C21.076,17.953,20.979,18,20.87,18H16"/>
</svg>
