<?xml version="1.0" encoding="iso-8859-1"?>
<!-- Generator: Adobe Illustrator 19.1.1, SVG Export Plug-In . SVG Version: 6.00 Build 0)  -->
<svg version="1.1" id="Layer_1" xmlns="http://www.w3.org/2000/svg" xmlns:xlink="http://www.w3.org/1999/xlink" x="0px" y="0px"
	 viewBox="0 0 32 32" style="enable-background:new 0 0 32 32;" xml:space="preserve">
<path d="M10.1,4.7c0,0-0.8,4.1,2.4,7.5C12.7,11.2,12,6.5,10.1,4.7z"/>
<path d="M19.5,7.4c0,0-4.5,0.7-6.7,5.2C13.9,12.5,18.3,10,19.5,7.4z"/>
<path d="M18.2,12.3c0,0-4,0-6.6,3.5C12.7,15.9,16.9,14.4,18.2,12.3z"/>
<path d="M14.9,3c0,0-2.8,3.2-1.7,7.8C14,10,15.5,5.6,14.9,3z"/>
<path d="M7.8,7.4c0,0,0,5.3,3.4,8.2C11.3,14.4,10,9.3,7.8,7.4z"/>
<path d="M4.9,10.6c0,0,0.7,5.3,4.3,7.7C9.2,17.2,7.3,12.2,4.9,10.6z"/>
<path d="M29,3c-5.3,7.1-19,16-19,16l3,3C13,22,29,10.7,29,3z"/>
<path style="fill:none;stroke:#000000;stroke-width:2;stroke-miterlimit:10;" d="M4.354,24.646l3,3L13,22l-3-3L4.354,24.646z"/>
<path d="M7.8,20.5c2.9-3.3,5.6-10.9,5.6-10.9s0.1,5.8-3.9,11.1C8.9,20.5,7.8,20.5,7.8,20.5z"/>
<path d="M11.9,21.9c8.9-4,15-3.1,15-3.1s-8.4,1-15.3,5.7C11.9,23.6,11.9,21.9,11.9,21.9z"/>
<path d="M27.7,17.3c-0.4,0.8-1.6,1.2-1.6,1.2s-0.3-1.1,0.2-2s1.6-1.2,1.6-1.2S28.1,16.5,27.7,17.3z"/>
<path d="M27,21.1c-0.6-0.6-0.7-1.9-0.7-1.9s1.1,0.1,1.9,0.8s0.7,1.9,0.7,1.9S27.6,21.8,27,21.1z"/>
<path d="M24.2,21.8c-0.6-0.6-0.7-1.9-0.7-1.9s1.1,0.1,1.9,0.8c0.7,0.7,0.7,1.9,0.7,1.9S24.9,22.5,24.2,21.8z"/>
<path d="M21.4,22.3c-0.6-0.6-0.7-1.9-0.7-1.9s1.1,0.1,1.9,0.8s0.7,1.9,0.7,1.9S22.1,23,21.4,22.3z"/>
<path d="M18.7,23c-0.6-0.6-0.7-1.9-0.7-1.9s1.1,0.1,1.9,0.8s0.7,1.9,0.7,1.9S19.3,23.7,18.7,23z"/>
<path d="M16.1,24.1c-0.6-0.6-0.7-1.9-0.7-1.9s1.1,0.1,1.9,0.8c0.7,0.7,0.7,1.9,0.7,1.9S16.7,24.8,16.1,24.1z"/>
<path d="M24.9,17.3c-0.4,0.8-1.6,1.2-1.6,1.2s-0.3-1.1,0.2-2s1.6-1.2,1.6-1.2S25.3,16.5,24.9,17.3z"/>
<path d="M22.1,17.7c-0.4,0.8-1.6,1.2-1.6,1.2s-0.3-1.1,0.2-2s1.6-1.2,1.6-1.2S22.5,16.9,22.1,17.7z"/>
<path d="M16.3,19.1c-0.4,0.8-1.5,1.3-1.5,1.3s-0.3-1.1,0.1-2s1.5-1.3,1.5-1.3S16.7,18.3,16.3,19.1z"/>
</svg>
