<?xml version="1.0" encoding="iso-8859-1"?>
<!-- Generator: Adobe Illustrator 19.1.1, SVG Export Plug-In . SVG Version: 6.00 Build 0)  -->
<svg version="1.1" id="Layer_1" xmlns="http://www.w3.org/2000/svg" xmlns:xlink="http://www.w3.org/1999/xlink" x="0px" y="0px"
	 viewBox="0 0 32 32" style="enable-background:new 0 0 32 32;" xml:space="preserve">
<path style="fill:none;stroke:#000000;stroke-width:2;stroke-linecap:round;stroke-linejoin:round;stroke-miterlimit:10;" d="
	M29.125,25H2.875C1.839,25,1,24.194,1,23.2V8.8C1,7.806,1.839,7,2.875,7h26.25C30.161,7,31,7.806,31,8.8v14.4
	C31,24.194,30.161,25,29.125,25z"/>
<g>
	<g>
		<polygon points="14,11 11,15 8,11 5,11 5,21 8,21 8,14.333 11,18.3 14,14.333 14,21 17,21 17,11 		"/>
	</g>
</g>
<polygon points="25,16 25,11 22,11 22,16 19,16 23.5,21 28,16 "/>
<rect x="5" y="11" width="3" height="10"/>
<rect x="14" y="11" width="3" height="10"/>
</svg>
