<?xml version="1.0" encoding="iso-8859-1"?>
<!-- Generator: Adobe Illustrator 21.1.0, SVG Export Plug-In . SVG Version: 6.00 Build 0)  -->
<svg version="1.1" id="Layer_1" xmlns="http://www.w3.org/2000/svg" xmlns:xlink="http://www.w3.org/1999/xlink" x="0px" y="0px"
	 viewBox="0 0 32 32" style="enable-background:new 0 0 32 32;" xml:space="preserve">
<path d="M16,26c0,1.105-0.895,2-2,2s-2-0.895-2-2s2-4,2-4S16,24.895,16,26z"/>
<path d="M22,23c0,1.105-0.895,2-2,2s-2-0.895-2-2s2-4,2-4S22,21.895,22,23z"/>
<g>
	<path d="M26.966,15.416c-0.283-2.418-2.298-4.315-4.768-4.412C21.136,9.158,19.166,8,17,8c-2.583,0-4.857,1.666-5.676,4.057
		c-1.583,0.271-2.851,1.474-3.217,3.023C5.774,15.502,4,17.548,4,20c0,2.757,2.243,5,5,5h1.169c0.179-0.629,0.488-1.316,0.86-2H9
		c-1.654,0-3-1.346-3-3s1.346-3,3-3h1v-1c0-1.103,0.897-2,1.91-2.005l1.001,0.052l0.169-0.839C13.454,11.349,15.103,10,17,10
		c1.605,0,3.049,0.955,3.68,2.433l0.289,0.678l0.897-0.095C21.91,13.009,21.954,13,22,13c1.654,0,3,1.346,3.003,2.931l-0.042,0.977
		l0.778,0.199C27.07,17.446,28,18.636,28,20c0,1.654-1.346,3-3,3h-1c0,0.732-0.212,1.409-0.556,2H25c2.757,0,5-2.243,5-5
		C30,17.981,28.785,16.191,26.966,15.416z"/>
	<path d="M20,25c1.105,0,2-0.895,2-2h-4C18,24.105,18.895,25,20,25z"/>
	<path d="M15.725,25c-0.276-0.653-0.711-1.409-1.076-2h-1.297c-0.366,0.591-0.8,1.347-1.076,2H15.725z"/>
</g>
<path style="fill:none;stroke:#000000;stroke-width:2;stroke-miterlimit:10;" d="M11.734,12.818C9.589,12.255,8,10.321,8,8
	c0-0.706,0.15-1.376,0.414-1.984C5.376,6.314,3,8.862,3,11.978c0,2.222,1.207,4.162,3,5.201"/>
</svg>
