<?xml version="1.0" encoding="iso-8859-1"?>
<!-- Generator: Adobe Illustrator 19.1.0, SVG Export Plug-In . SVG Version: 6.00 Build 0)  -->
<svg version="1.1" id="Layer_1" xmlns="http://www.w3.org/2000/svg" xmlns:xlink="http://www.w3.org/1999/xlink" x="0px" y="0px"
	 viewBox="0 0 32 32" style="enable-background:new 0 0 32 32;" xml:space="preserve">
<rect x="6" y="6" style="fill:none;stroke:#000000;stroke-width:2;stroke-miterlimit:10;" width="20" height="20"/>
<path style="fill:none;stroke:#000000;stroke-width:2;stroke-miterlimit:10;" d="M19,19h1.5c0.828,0,1.5,0.672,1.5,1.5v0
	c0,0.828-0.672,1.5-1.5,1.5l-1,0c-0.828,0-1.5-0.672-1.5-1.5v-0.322c0-0.759,0.275-1.493,0.773-2.066l2.192-2.518"/>
<line style="fill:none;stroke:#000000;stroke-width:2;stroke-miterlimit:10;" x1="14" y1="13" x2="18" y2="9"/>
<line style="fill:none;stroke:#000000;stroke-width:2;stroke-miterlimit:10;" x1="14" y1="9" x2="18" y2="13"/>
<path style="fill:none;stroke:#000000;stroke-width:2;stroke-miterlimit:10;" d="M11.5,19h1c0.828,0,1.5-0.672,1.5-1.5v0
	c0-0.828-0.672-1.5-1.5-1.5h-1c-0.828,0-1.5,0.672-1.5,1.5v0C10,18.328,10.672,19,11.5,19z"/>
<path style="fill:none;stroke:#000000;stroke-width:2;stroke-miterlimit:10;" d="M11.5,22h1c0.828,0,1.5-0.672,1.5-1.5v0
	c0-0.828-0.672-1.5-1.5-1.5h-1c-0.828,0-1.5,0.672-1.5,1.5v0C10,21.328,10.672,22,11.5,22z"/>
</svg>
