<?xml version="1.0" encoding="iso-8859-1"?>
<!-- Generator: Adobe Illustrator 19.1.1, SVG Export Plug-In . SVG Version: 6.00 Build 0)  -->
<svg version="1.1" id="Layer_1" xmlns="http://www.w3.org/2000/svg" xmlns:xlink="http://www.w3.org/1999/xlink" x="0px" y="0px"
	 viewBox="0 0 32 32" style="enable-background:new 0 0 32 32;" xml:space="preserve">
<rect x="11" y="9" width="2" height="2"/>
<rect x="11" y="13" width="2" height="2"/>
<rect x="11" y="17" width="2" height="2"/>
<rect x="19" y="10" width="2" height="2"/>
<rect x="19" y="14" width="2" height="2"/>
<rect x="19" y="18" width="2" height="2"/>
<path style="fill:none;stroke:#000000;stroke-width:2;stroke-miterlimit:10;" d="M25.5,23L25.5,23c-0.828,0-1.5,0.672-1.5,1.5v3
	c0,0.828,0.672,1.5,1.5,1.5h0c0.828,0,1.5-0.672,1.5-1.5v-3C27,23.672,26.328,23,25.5,23z"/>
<polyline style="fill:none;stroke:#000000;stroke-width:2;stroke-miterlimit:10;" points="27,19 27,5 20,8 12,5 5,8 5,22 "/>
<polygon points="20,23.912 19.975,23.923 11.975,20.923 6,23.483 6,22 4,22 4,26.517 12.025,23.077 20,26.068 "/>
</svg>
