<?xml version="1.0" encoding="iso-8859-1"?>
<!-- Generator: Adobe Illustrator 19.2.0, SVG Export Plug-In . SVG Version: 6.00 Build 0)  -->
<svg version="1.1" id="Layer_1" xmlns="http://www.w3.org/2000/svg" xmlns:xlink="http://www.w3.org/1999/xlink" x="0px" y="0px"
	 viewBox="0 0 32 32" style="enable-background:new 0 0 32 32;" xml:space="preserve">
<metadata><?xpacket begin="﻿" id="W5M0MpCehiHzreSzNTczkc9d"?>
<x:xmpmeta xmlns:x="adobe:ns:meta/" x:xmptk="Adobe XMP Core 5.6-c111 79.158366, 2015/09/25-01:12:00        ">
   <rdf:RDF xmlns:rdf="http://www.w3.org/1999/02/22-rdf-syntax-ns#">
      <rdf:Description rdf:about=""/>
   </rdf:RDF>
</x:xmpmeta>
                                                                                                    
                                                                                                    
                                                                                                    
                                                                                                    
                                                                                                    
                                                                                                    
                                                                                                    
                                                                                                    
                                                                                                    
                                                                                                    
                                                                                                    
                                                                                                    
                                                                                                    
                                                                                                    
                                                                                                    
                                                                                                    
                                                                                                    
                                                                                                    
                                                                                                    
                                                                                                    
                           
<?xpacket end="w"?></metadata>
<path d="M21.62,8.998c0.232,0.65,0.103,1.29-0.287,1.429c-0.39,0.139-0.894-0.276-1.126-0.926c-0.232-0.65-0.103-1.29,0.287-1.429
	C20.885,7.934,21.389,8.348,21.62,8.998z M11.793,9.502c0.232-0.65,0.103-1.29-0.287-1.429c-0.39-0.139-0.894,0.276-1.126,0.926
	c-0.232,0.65-0.103,1.29,0.287,1.429C11.057,10.567,11.561,10.152,11.793,9.502z M20,17h1v1c0,2.796-1.124,4.489-1.172,4.561
	L19.531,23H17h-1h-1h-2.531l-0.297-0.439C12.124,22.489,11,20.796,11,18v-1h1c2.075,0,3-1.08,3-3.5c0-1.019-0.586-1.5-1-1.5
	c-0.286,0-0.531,0.215-0.658,0.529C12.876,12.142,12.5,11.735,12.5,11.5c0-0.542,2-2.5,2-2.5h3c0,0,2,1.917,2,2.5
	c0,0.251-0.374,0.659-0.838,1.04C18.537,12.22,18.289,12,18,12c-0.414,0-1,0.343-1,1.5C17,15.92,17.925,17,20,17z M15,21v-2.816
	c-0.618,0.416-1.305,0.634-1.948,0.736c0.107,0.946,0.361,1.657,0.55,2.08H15z M18.948,18.92c-0.643-0.102-1.33-0.321-1.948-0.736
	V21h1.398C18.587,20.579,18.841,19.867,18.948,18.92z M27,18.333C27,23.221,20.701,28,16,28S5,23.221,5,18.333
	c0-1.873,0.638-3.355,1.314-4.925c0.299-0.694,0.608-1.413,0.884-2.21c0.111-0.32,0.216-0.641,0.321-0.96
	c0.288-0.875,0.589-1.783,0.986-2.628C7.647,7.629,7.376,7.685,7.2,7.993C7.104,8.162,7.052,8.348,7.028,8.542l-1.119,3.174
	C5.181,10.43,4.546,8.606,5.464,7.001C6.234,5.653,7.572,5.626,8.55,5.606c0.783-0.016,1.286-0.049,1.649-0.373l0.01,0.014
	C11.105,4.486,12.308,4,14,4h4c1.692,0,2.894,0.486,3.791,1.247l0.01-0.014c0.363,0.324,0.866,0.357,1.649,0.373
	c0.978,0.02,2.315,0.047,3.086,1.395c0.918,1.605,0.283,3.429-0.444,4.716l-1.119-3.174c-0.024-0.195-0.076-0.38-0.173-0.549
	c-0.176-0.308-0.447-0.364-1.305-0.384c0.397,0.845,0.698,1.752,0.986,2.627c0.105,0.319,0.211,0.641,0.322,0.962
	c0.275,0.799,0.585,1.518,0.885,2.213C26.362,14.979,27,16.461,27,18.333z M25,18.333c0-1.46-0.508-2.639-1.15-4.132
	c-0.313-0.728-0.638-1.481-0.938-2.35c-0.114-0.33-0.223-0.661-0.331-0.99C21.559,7.756,20.842,6,18,6h-4
	c-2.843,0-3.559,1.757-4.581,4.862c-0.108,0.328-0.217,0.659-0.331,0.988c-0.3,0.868-0.624,1.62-0.938,2.348
	C7.508,15.692,7,16.872,7,18.333C7,22.035,12.282,26,16,26S25,22.035,25,18.333z"/>
</svg>
