<?xml version="1.0" encoding="iso-8859-1"?>
<!-- Generator: Adobe Illustrator 19.1.0, SVG Export Plug-In . SVG Version: 6.00 Build 0)  -->
<svg version="1.1" id="Layer_1" xmlns="http://www.w3.org/2000/svg" xmlns:xlink="http://www.w3.org/1999/xlink" x="0px" y="0px"
	 viewBox="0 0 32 32" style="enable-background:new 0 0 32 32;" xml:space="preserve">
<path style="fill:none;stroke:#000000;stroke-width:2;stroke-miterlimit:10;" d="M14.999,14.644C8.926,17.024,6,10.672,6,8.741
	C6,7.698,6.338,7,7.427,7c2.335,0,6.879,1.571,8.137,5.567"/>
<path style="fill:none;stroke:#000000;stroke-width:2;stroke-miterlimit:10;" d="M9,4c2.979,0,7.783,3.237,8.95,6.999"/>
<path style="fill:none;stroke:#000000;stroke-width:2;stroke-miterlimit:10;" d="M26.163,4L22,5"/>
<path style="fill:none;stroke:#000000;stroke-width:2;stroke-miterlimit:10;" d="M20,24c-7.35,0-10.02-3.285-10.02-3.285"/>
<path style="fill:none;stroke:#000000;stroke-width:2;stroke-miterlimit:10;" d="M11.426,16.377c0,0,2.21,4.605,9.574,4.623"/>
<path style="fill:none;stroke:#000000;stroke-width:2;stroke-miterlimit:10;" d="M15.163,12.899c0,0,0.008,4.092,5.902,5.101"/>
<path d="M25.697,11.36c-0.534,0.54-1.924,0.324-2.618-0.324c-0.695-0.649-0.908-1.837-0.267-2.486
	c0.588-0.649,1.657-0.432,2.351,0.216C26.072,9.631,26.232,10.766,25.697,11.36z"/>
<path style="fill:none;stroke:#000000;stroke-width:2;stroke-miterlimit:10;" d="M23.873,7.431c-1.817-0.919-3.58-0.324-4.435,1.351
	s-0.481,3.729,1.336,4.648c1.817,0.919,5.29,0.757,6.038-0.703C27.506,11.322,26.224,8.674,23.873,7.431z"/>
<path style="fill:none;stroke:#000000;stroke-width:2.0006;stroke-miterlimit:10;" d="M19.134,10.526c0,0-1.542-0.417-3.084,0.907
	C15.016,12.321,15,13.874,15,13.874v0.134c0,0-5,0.78-5,6.992c0,3.314,2.015,6,4.5,6c1.819,0,5.899-1.653,6.807-5.305
	c0.491-1.972-0.043-3.715-0.043-3.715l0.025-0.048c0,0,1.712,0.006,1.712-1.807c0-1.25-0.771-2.25-0.771-2.25"/>
</svg>
