<?xml version="1.0" encoding="iso-8859-1"?>
<!-- Generator: Adobe Illustrator 19.1.0, SVG Export Plug-In . SVG Version: 6.00 Build 0)  -->
<svg version="1.1" id="Layer_1" xmlns="http://www.w3.org/2000/svg" xmlns:xlink="http://www.w3.org/1999/xlink" x="0px" y="0px"
	 viewBox="0 0 32 32" style="enable-background:new 0 0 32 32;" xml:space="preserve">
<path style="fill:none;stroke:#000000;stroke-width:2;stroke-miterlimit:10;" d="M29,16.542c0-1.432-3.255-4.955-7.257-6.14
	C20.318,8.092,17.555,7.369,14.967,7c0,0-0.808,2.083-1.002,4.351c-0.294,0.143-0.571,0.291-0.835,0.442
	c-0.809-0.445-2.302-0.954-3.629-0.954c-0.405,0.814-0.436,2.172-0.21,3.309C8.757,14.848,7.088,15,7.088,15
	c-0.488-0.379-1.704-2-2.3-2C3.433,13,3,14.862,3,16.542C3,18.167,3.433,20,4.787,20c0.921,0,2.429-2,2.429-2
	c0.941,0,1.911,0.654,2.384,1.325c-0.302,0.727-0.403,2.549-0.403,3.258c1.846,0.781,3.583-0.024,4.711-0.681
	c0.285,0.122,0.577,0.238,0.879,0.345c0.188,2.016,0.95,3.753,0.95,3.753c2.749,0,5.331-1.702,6.295-3.397
	C26.352,21.45,29,18.058,29,16.542z"/>
<circle cx="25" cy="16" r="1"/>
<path style="fill:none;stroke:#000000;stroke-width:2;stroke-miterlimit:10;" d="M21.455,10.335c0,0-1.455,2.398-1.455,6.084
	c0,3.847,1.578,6.249,1.578,6.249"/>
<path style="fill:none;stroke:#000000;stroke-width:2;stroke-miterlimit:10;" d="M13.965,11.61c0,0-0.965,2.329-0.965,4.894
	s1.873,5.545,1.873,5.545"/>
<path style="fill:none;stroke:#000000;stroke-width:2;stroke-miterlimit:10;" d="M9.429,13.978c0,0-0.429,1.273-0.429,2.674
	s0.832,3.029,0.832,3.029"/>
</svg>
