<?xml version="1.0" encoding="iso-8859-1"?>
<!-- Generator: Adobe Illustrator 19.1.0, SVG Export Plug-In . SVG Version: 6.00 Build 0)  -->
<svg version="1.1" id="Layer_1" xmlns="http://www.w3.org/2000/svg" xmlns:xlink="http://www.w3.org/1999/xlink" x="0px" y="0px"
	 viewBox="0 0 32 32" style="enable-background:new 0 0 32 32;" xml:space="preserve">
<path style="fill:none;stroke:#000000;stroke-width:2;stroke-miterlimit:10;" d="M16,27c3.6,0,7-5,7-5c0-4.546-3.511-7-7-7"/>
<path style="fill:none;stroke:#000000;stroke-width:2;stroke-linejoin:round;stroke-miterlimit:10;" d="M20,5
	c5.027,0,7,3.695,7,5.492c0,0.721-0.619,2.508-2.71,2.508C23.006,12.999,19,12.159,19,7"/>
<path style="fill:none;stroke:#000000;stroke-width:2;stroke-linejoin:round;stroke-miterlimit:10;" d="M20,25c2.053,0,3,2.068,3,3"
	/>
<path style="fill:none;stroke:#000000;stroke-width:2;stroke-linejoin:round;stroke-miterlimit:10;" d="M22.918,22.691
	C24.487,23.353,26.005,22.864,27,22"/>
<path style="fill:none;stroke:#000000;stroke-width:2;stroke-linejoin:round;stroke-miterlimit:10;" d="M23.301,20
	C25.895,20,27,18.584,27,17"/>
<path style="fill:none;stroke:#000000;stroke-width:2;stroke-miterlimit:10;" d="M24.61,12.839c0.917,1.21,0.22,2.714-1.137,3.008
	c-0.226,1.219-1.048,1.983-1.741,1.802"/>
<path style="fill:none;stroke:#000000;stroke-width:2;stroke-miterlimit:10;" d="M20,8c2.375,0,3.584,1.583,3.584,1.583"/>
<path style="fill:none;stroke:#000000;stroke-width:2;stroke-miterlimit:10;" d="M16,15c-3.489,0-7,2.454-7,7c0,0,3.4,5,7,5"/>
<path style="fill:none;stroke:#000000;stroke-width:2;stroke-linejoin:round;stroke-miterlimit:10;" d="M13,7
	c0,5.159-4.006,5.999-5.29,5.999c-2.091,0-2.71-1.787-2.71-2.508C5,8.695,6.973,5,12,5"/>
<path style="fill:none;stroke:#000000;stroke-width:2;stroke-linejoin:round;stroke-miterlimit:10;" d="M9,28c0-0.932,0.947-3,3-3"
	/>
<path style="fill:none;stroke:#000000;stroke-width:2;stroke-linejoin:round;stroke-miterlimit:10;" d="M5,22
	c0.995,0.864,2.513,1.353,4.082,0.691"/>
<path style="fill:none;stroke:#000000;stroke-width:2;stroke-linejoin:round;stroke-miterlimit:10;" d="M5,17
	c0,1.584,1.105,3,3.699,3"/>
<path style="fill:none;stroke:#000000;stroke-width:2;stroke-miterlimit:10;" d="M10.268,17.649
	c-0.694,0.181-1.515-0.582-1.741-1.802C7.17,15.554,6.473,14.05,7.39,12.839"/>
<path style="fill:none;stroke:#000000;stroke-width:2;stroke-miterlimit:10;" d="M8.416,9.583C8.416,9.583,9.625,8,12,8"/>
</svg>
