<?xml version="1.0" encoding="iso-8859-1"?>
<!-- Generator: Adobe Illustrator 19.1.0, SVG Export Plug-In . SVG Version: 6.00 Build 0)  -->
<svg version="1.1" id="Layer_1" xmlns="http://www.w3.org/2000/svg" xmlns:xlink="http://www.w3.org/1999/xlink" x="0px" y="0px"
	 viewBox="0 0 32 32" style="enable-background:new 0 0 32 32;" xml:space="preserve">
<path d="M10.289,12c0.479-0.792,1.486-1.24,2.455-0.852l1.043,0.418l0.294-1.085C14.317,9.609,15.106,9,16,9
	c0.881,0,1.645,0.574,1.902,1.428l0.155,0.515l0.515,0.155c0.152,0.045,0.295,0.107,0.426,0.183l0.502,0.292l0.502-0.292
	C20.323,11.094,20.658,11,21,11c0.737,0,1.375,0.405,1.722,1h2.136c-0.447-1.72-2-3-3.858-3c-0.484,0-0.956,0.089-1.409,0.265
	C18.934,7.888,17.558,7,16,7c-1.458,0-2.775,0.802-3.472,2.036C12.353,9.012,12.177,9,12,9c-1.858,0-3.411,1.28-3.858,3H10.289z"/>
<line style="fill:none;stroke:#000000;stroke-width:2;stroke-miterlimit:10;" x1="11.5" y1="19" x2="19.5" y2="19"/>
<circle cx="19.5" cy="20.5" r="1.5"/>
<circle cx="19.5" cy="18.5" r="1.5"/>
<circle cx="12.5" cy="20.5" r="1.5"/>
<circle cx="12.5" cy="18.5" r="1.5"/>
<path style="fill:none;stroke:#000000;stroke-width:2;stroke-miterlimit:10;" d="M4,24h24v-2c0-2.614-0.865-5.249-1.457-6.747
	c-0.3-0.76-1.038-1.253-1.855-1.253H7.31c-0.816,0-1.554,0.492-1.855,1.251C4.863,16.744,4,19.373,4,22C4,22.347,4,24,4,24z"/>
</svg>
