<?xml version="1.0" encoding="iso-8859-1"?>
<!-- Generator: Adobe Illustrator 19.1.0, SVG Export Plug-In . SVG Version: 6.00 Build 0)  -->
<svg version="1.1" id="Layer_1" xmlns="http://www.w3.org/2000/svg" xmlns:xlink="http://www.w3.org/1999/xlink" x="0px" y="0px"
	 viewBox="0 0 32 32" style="enable-background:new 0 0 32 32;" xml:space="preserve">
<path style="fill:none;stroke:#000000;stroke-width:2;stroke-miterlimit:10;" d="M24,9c-0.301,0-0.586,0.058-0.86,0.14l-0.28-0.28
	C22.942,8.586,23,8.301,23,8c0-1.657-1.343-3-3-3s-3,1.343-3,3c0,1.086,0.582,2.028,1.446,2.554l-7.891,7.891
	C10.028,17.582,9.086,17,8,17c-1.657,0-3,1.343-3,3s1.343,3,3,3c0.301,0,0.586-0.058,0.86-0.14l0.28,0.28
	C9.058,23.414,9,23.699,9,24c0,1.657,1.343,3,3,3s3-1.343,3-3c0-1.086-0.582-2.028-1.446-2.554l7.891-7.891
	C21.972,14.418,22.914,15,24,15c1.657,0,3-1.343,3-3S25.657,9,24,9z"/>
</svg>
