<?xml version="1.0" encoding="iso-8859-1"?>
<!-- Generator: Adobe Illustrator 19.1.1, SVG Export Plug-In . SVG Version: 6.00 Build 0)  -->
<svg version="1.1" id="Layer_1" xmlns="http://www.w3.org/2000/svg" xmlns:xlink="http://www.w3.org/1999/xlink" x="0px" y="0px"
	 viewBox="0 0 32 32" style="enable-background:new 0 0 32 32;" xml:space="preserve">
<circle cx="25" cy="11" r="1"/>
<path style="fill:none;stroke:#000000;stroke-width:2;stroke-miterlimit:10;" d="M24.105,23.895C25.968,23.895,26,22,26,22v-3
	c0-2.882-5-3-5-3s-2,4.105-2,5s-1,6-1,6h-4v-6h-4l-0.153,6.016L6,27l-1-6c0,0-2-4.262-2-8s2.421-8,8-8h4"/>
<path style="fill:none;stroke:#000000;stroke-width:2;stroke-miterlimit:10;" d="M22,21c0,1.657,1.343,3,3,3s2.467-0.934,3-3
	c0,0,1-4.039,1-9s-2.945-8-6-8c-1.638,0-3,1-3,1s-1.462-1-3-1c-1.56,0-4,1.64-4,5c0,4.681,4,8,4,8s2-3.128,2-5"/>
</svg>
