<?xml version="1.0" encoding="iso-8859-1"?>
<!-- Generator: Adobe Illustrator 19.1.0, SVG Export Plug-In . SVG Version: 6.00 Build 0)  -->
<svg version="1.1" id="Layer_1" xmlns="http://www.w3.org/2000/svg" xmlns:xlink="http://www.w3.org/1999/xlink" x="0px" y="0px"
	 viewBox="0 0 32 32" style="enable-background:new 0 0 32 32;" xml:space="preserve">
<path style="fill:none;stroke:#000000;stroke-width:2;stroke-miterlimit:10;" d="M23,9c1.928,0,3.999,1.382,3.999,1.921
	c0,0.462-0.586,2.404-2.999,3.354c0,1.401,0.001,5.266-2.497,7.03"/>
<path style="fill:none;stroke:#000000;stroke-width:2;stroke-miterlimit:10;" d="M7.582,22.084
	c-1.594,0.469-2.583-0.827-2.583-2.174c0-1.804,2.006-3.91,2.006-3.91c2.158-4.783,8.507-5,9.995-5
	c0.863-1.175,2.078-1.701,2.078-1.701"/>
<path style="fill:none;stroke:#000000;stroke-width:2;stroke-miterlimit:10;" d="M18,25c-4.565-0.749-12,0.518-12-0.333
	c0-0.704,2.077-2.917,2.077-2.917"/>
<path style="fill:none;stroke:#000000;stroke-width:2;stroke-linejoin:round;stroke-miterlimit:10;" d="M10.179,24.856
	c1.353,0,4.821-1.267,4.821-3.574C15,18.878,12.155,18,10,18"/>
<path style="fill:none;stroke:#000000;stroke-width:2;stroke-linejoin:round;stroke-miterlimit:10;" d="M25,25
	c-1.943-0.544-3.056,0.132-3.454,0.042c-0.947-0.807-2.728-4.26-2.728-4.405c0.024-0.448-0.141-2.079,0.991-3.681"/>
<circle style="fill:none;stroke:#000000;stroke-width:2;stroke-miterlimit:10;" cx="21" cy="10" r="2"/>
</svg>
