<?xml version="1.0" encoding="iso-8859-1"?>
<!-- Generator: Adobe Illustrator 19.1.0, SVG Export Plug-In . SVG Version: 6.00 Build 0)  -->
<svg version="1.1" id="Layer_1" xmlns="http://www.w3.org/2000/svg" xmlns:xlink="http://www.w3.org/1999/xlink" x="0px" y="0px"
	 viewBox="0 0 32 32" style="enable-background:new 0 0 32 32;" xml:space="preserve">
<path style="fill:none;stroke:#000000;stroke-width:2;stroke-miterlimit:10;" d="M11,23c4.472,0,7.144-2.856,7.144-2.856"/>
<path style="fill:none;stroke:#000000;stroke-width:2;stroke-miterlimit:10;" d="M9.5,24.8c0,0,1.5-1.436,1.5-2.9
	c0-1.586-1-2.9-1-2.9"/>
<path style="fill:none;stroke:#000000;stroke-width:2;stroke-miterlimit:10;" d="M26,10c0-3.781-2.609-5-3.4-5
	c-2.2,0-5.041,3.404-6.838,5.231c-1.534,1.559-3.764,3.669-5.066,3.669C6.506,13.9,5,16.472,5,18.668
	c0,2.156,1.722,4.027,1.722,4.027S6,23.761,6,24.836C6,26.262,6.722,27,6.722,27H11"/>
<path style="fill:none;stroke:#000000;stroke-width:2;stroke-miterlimit:10;" d="M21,13c0,0,1.256,1,3.35,1
	c1.091,0,2.65-0.675,2.65-2c0-1.375-0.9-2-2-2h-1.5"/>
<path style="fill:none;stroke:#000000;stroke-width:2;stroke-miterlimit:10;" d="M19,27h2.6c0.845,0,2.4-0.656,2.4-2.426
	C24,23.812,23.367,23,23.367,23S24,21.904,24,21.037c0-1.319-0.517-1.777-0.818-2.343C23.581,18.144,24,16.963,24,16.28
	c0-1.489-1.181-2.481-1.181-2.481"/>
<path style="fill:none;stroke:#000000;stroke-width:2;stroke-miterlimit:10;" d="M17,15c-1.438,4.559,2.3,6.5,2.3,6.5
	s-0.441,1.881,1.1,3.3"/>
</svg>
