<?xml version="1.0" encoding="iso-8859-1"?>
<!-- Generator: Adobe Illustrator 19.1.1, SVG Export Plug-In . SVG Version: 6.00 Build 0)  -->
<svg version="1.1" id="Layer_1" xmlns="http://www.w3.org/2000/svg" xmlns:xlink="http://www.w3.org/1999/xlink" x="0px" y="0px"
	 viewBox="0 0 32 32" style="enable-background:new 0 0 32 32;" xml:space="preserve">
<path style="fill:none;stroke:#000000;stroke-width:2;stroke-miterlimit:10;" d="M5,29V18c0,0,0.107-4,4-4s5,0,5,0s3.499-0.118,5-4
	s4-6,4-6h0.26L23,6c1.542,0,2,2,2,2l3,1v0.094L27,11c0,0-3,0.188-3,3c0,3.417-3,6-3,6v9"/>
<path style="fill:none;stroke:#000000;stroke-width:2;stroke-miterlimit:10;" d="M6,15c0,0-1-0.672-1-3s2.071-3,3-3
	c0.702,0,3,0.171,3,3"/>
<path style="fill:none;stroke:#000000;stroke-width:2;stroke-miterlimit:10;" d="M9,29v-6c0,0,1.083-0.625,2-2c0,0,3.375,1,6,1v7"/>
</svg>
