<?xml version="1.0" encoding="iso-8859-1"?>
<!-- Generator: Adobe Illustrator 19.1.1, SVG Export Plug-In . SVG Version: 6.00 Build 0)  -->
<svg version="1.1" id="Layer_1" xmlns="http://www.w3.org/2000/svg" xmlns:xlink="http://www.w3.org/1999/xlink" x="0px" y="0px"
	 viewBox="0 0 32 32" style="enable-background:new 0 0 32 32;" xml:space="preserve">
<path style="fill:none;stroke:#000000;stroke-width:2;stroke-miterlimit:10;" d="M11.5,7C10.675,7,10,6.325,10,5.5v0
	C10,4.675,10.675,4,11.5,4h9C21.325,4,22,4.675,22,5.5v0C22,6.325,21.325,7,20.5,7"/>
<path style="fill:none;stroke:#000000;stroke-width:2;stroke-miterlimit:10;" d="M9.5,10C8.675,10,8,9.325,8,8.5v0
	C8,7.675,8.675,7,9.5,7H17"/>
<path style="fill:none;stroke:#000000;stroke-width:2;stroke-miterlimit:10;" d="M19,7h3.5C23.325,7,24,7.675,24,8.5v0
	c0,0.825-0.675,1.5-1.5,1.5"/>
<path style="fill:none;stroke:#000000;stroke-width:2;stroke-miterlimit:10;" d="M18.5,25c0.825,0,1.5,0.675,1.5,1.5v0
	c0,0.825-0.675,1.5-1.5,1.5h-5c-0.825,0-1.5-0.675-1.5-1.5v0c0-0.825,0.675-1.5,1.5-1.5"/>
<path style="fill:none;stroke:#000000;stroke-width:2;stroke-miterlimit:10;" d="M7.5,13C6.675,13,6,12.325,6,11.5v0
	C6,10.675,6.675,10,7.5,10H12"/>
<path style="fill:none;stroke:#000000;stroke-width:2;stroke-miterlimit:10;" d="M14,10h10.5c0.825,0,1.5,0.675,1.5,1.5v0
	c0,0.825-0.675,1.5-1.5,1.5"/>
<path style="fill:none;stroke:#000000;stroke-width:2;stroke-miterlimit:10;" d="M15,13H5.5C4.675,13,4,13.675,4,14.5v0
	C4,15.325,4.675,16,5.5,16H10"/>
<path style="fill:none;stroke:#000000;stroke-width:2;stroke-miterlimit:10;" d="M17,13h9.5c0.825,0,1.5,0.675,1.5,1.5v0
	c0,0.825-0.675,1.5-1.5,1.5H23"/>
<circle cx="16" cy="21" r="2"/>
<g>
	<path d="M15,24.854c-0.606-0.162-1.16-0.451-1.62-0.854H11.5c-0.271,0-0.5-0.229-0.5-0.5s0.229-0.5,0.5-0.5h1.055
		c-0.14-0.24-0.252-0.496-0.34-0.765c-0.031-0.091-0.061-0.181-0.085-0.274c-0.023-0.094-0.045-0.188-0.061-0.285
		C12.028,21.456,12,21.232,12,21h-0.5h-3C8.229,21,8,20.771,8,20.5S8.229,20,8.5,20h3.641c0.205-0.79,0.642-1.479,1.238-2H13H8.5h-2
		C6.229,18,6,17.771,6,17.5S6.229,17,6.5,17H19v-2H6.5C5.121,15,4,16.121,4,17.5c0,1.229,0.893,2.248,2.064,2.456
		C6.024,20.132,6,20.313,6,20.5C6,21.879,7.121,23,8.5,23h0.551C9.018,23.162,9,23.329,9,23.5c0,1.379,1.121,2.5,2.5,2.5H15V24.854z
		"/>
	<path d="M28,17.5c0-1.379-1.121-2.5-2.5-2.5H21v2h4.5c0.271,0,0.5,0.229,0.5,0.5S25.771,18,25.5,18h-2h-4.88
		c0.596,0.521,1.033,1.21,1.238,2H23.5c0.271,0,0.5,0.229,0.5,0.5S23.771,21,23.5,21h-3H20c0,0.232-0.028,0.456-0.068,0.676
		c-0.017,0.097-0.038,0.191-0.061,0.285c-0.024,0.093-0.054,0.184-0.085,0.274c-0.088,0.269-0.2,0.524-0.34,0.765H20.5
		c0.271,0,0.5,0.229,0.5,0.5S20.771,24,20.5,24h-1.88c-0.46,0.402-1.014,0.691-1.62,0.854V26h3.5c1.379,0,2.5-1.121,2.5-2.5
		c0-0.171-0.018-0.338-0.051-0.5H23.5c1.379,0,2.5-1.121,2.5-2.5c0-0.187-0.024-0.368-0.064-0.544C27.107,19.748,28,18.729,28,17.5z
		"/>
</g>
</svg>
