<?xml version="1.0" encoding="utf-8"?>
<!-- Generator: Adobe Illustrator 21.0.0, SVG Export Plug-In . SVG Version: 6.00 Build 0)  -->
<svg version="1.1" id="Layer_1" xmlns="http://www.w3.org/2000/svg" xmlns:xlink="http://www.w3.org/1999/xlink" x="0px" y="0px"
	 viewBox="0 0 32 32" style="enable-background:new 0 0 32 32;" xml:space="preserve">
<style type="text/css">
	.st0{fill:none;stroke:#000000;stroke-width:2;stroke-miterlimit:10;}
</style>
<path class="st0" d="M23.8,7.8C22,7.8,20.4,9,20,10.7h-0.9c-1-3.6-3.6-5.7-7.6-5.7C7,5.1,3.1,9,3,13.5C2.9,18.3,6.7,22,11.5,22
	c4.7,0,4.9-1.2,6.6-1.9c4.7-1.9,2.4-3.9,5.7-4.7c3.8-0.9,3.8-2.8,3.8-3.8C27.6,9.6,26.6,7.8,23.8,7.8z"/>
<polyline class="st0" points="11,22 11,25 14,26 "/>
<polyline class="st0" points="7,21 7,27 10,29 "/>
<path class="st0" d="M26,14c0,0,2,3,2,12"/>
</svg>
