<?xml version="1.0" encoding="iso-8859-1"?>
<!-- Generator: Adobe Illustrator 19.1.1, SVG Export Plug-In . SVG Version: 6.00 Build 0)  -->
<svg version="1.1" id="Layer_1" xmlns="http://www.w3.org/2000/svg" xmlns:xlink="http://www.w3.org/1999/xlink" x="0px" y="0px"
	 viewBox="0 0 32 32" style="enable-background:new 0 0 32 32;" xml:space="preserve">
<path style="fill:none;stroke:#000000;stroke-width:2;stroke-miterlimit:10;" d="M19,23l2.773,3.61
	c1.395,0.806,3.196,0.323,4.001-1.073l0.048-0.082c0.992-0.217,1.85-0.93,2.178-1.963l-6.191-1.62"/>
<g>
	<g>
		<line style="fill:none;stroke:#000000;stroke-width:2;stroke-miterlimit:10;" x1="15" y1="28" x2="15" y2="24"/>
	</g>
</g>
<path style="fill:none;stroke:#000000;stroke-width:2;stroke-miterlimit:10;" d="M12,10v1c0,1.427,0.727,2.727,1.77,3.724
	c0.029,0.029,8.08,7.171,8.08,7.171C19.738,23.716,17.167,24,14,24C8.625,24,4,19.167,4,14C4,8.042,9,4,15,4c3.615,0,6,1.318,6,6"/>
<path d="M23,11.931c-0.013,0.445-0.094,0.878-0.214,1.295c0,0.012-0.007,0.023-0.013,0.035C22.232,14.706,20.777,15.786,19,16V8
	C21.244,8.272,22.967,9.919,23,11.931z"/>
<circle cx="17.001" cy="8" r="1"/>
<path style="fill:none;stroke:#000000;stroke-width:2;stroke-miterlimit:10;" d="M20,9c0,2.515-1.792,4-4,4s-3.995-0.791-3.995-3"/>
<g>
	<path style="fill:none;stroke:#000000;stroke-width:2;stroke-miterlimit:10;" d="M11,16c0,3.704,3.299,7,7,7
		c1.804,0,3.024-0.598,4.228-1.758"/>
</g>
<path style="fill:none;stroke:#000000;stroke-width:2;stroke-miterlimit:10;" d="M12,29.25c0,0,0.903-1.25,2.5-1.25
	s2.5,1.25,2.5,1.25"/>
</svg>
