<?xml version="1.0" encoding="iso-8859-1"?>
<!-- Generator: Adobe Illustrator 19.2.0, SVG Export Plug-In . SVG Version: 6.00 Build 0)  -->
<svg version="1.1" id="Layer_1" xmlns="http://www.w3.org/2000/svg" xmlns:xlink="http://www.w3.org/1999/xlink" x="0px" y="0px"
	 viewBox="0 0 32 32" style="enable-background:new 0 0 32 32;" xml:space="preserve">
<path style="fill:none;stroke:#000000;stroke-width:2;stroke-miterlimit:10;" d="M5,27c0-3.438,0.445-15,6.766-15
	c4.278,0,5.343,6,8.28,6C23.138,18,27.537,5,22,5"/>
<path style="fill:none;stroke:#000000;stroke-width:2;stroke-miterlimit:10;" d="M10,27c0-0.505,0.117-1.968,0.203-2.427
	l1.608-0.089c0,0,0.745-1.53,0.471-2.981l-1.798-1.055C10.578,19.298,11.125,18,12.469,18s2.219,1.125,2.75,1.812l-0.406,1.156
	c0,0,0.685,1.162,2.097,1.436l0.902-0.824c0.784,0.431,1.569,0.588,2.51,0.471l0.745,1.059c1.177,0.118,2.196-0.902,2.196-0.902
	l-0.314-1.098c0.635-0.544,1.296-1.554,1.556-2.205l1.17,0.217c0,0,1.127-1.387,0.953-2.167l-1.06-1.109
	c0.306-0.837,0.476-1.749,0.539-2.322L27,12.978v-1.904l-1.08-0.762C25.92,6.172,23.277,5,22,5c-1.953,0-4,1.489-4,5"/>
</svg>
