<?xml version="1.0" encoding="iso-8859-1"?>
<!-- Generator: Adobe Illustrator 19.2.0, SVG Export Plug-In . SVG Version: 6.00 Build 0)  -->
<svg version="1.1" id="Layer_1" xmlns="http://www.w3.org/2000/svg" xmlns:xlink="http://www.w3.org/1999/xlink" x="0px" y="0px"
	 viewBox="0 0 32 32" style="enable-background:new 0 0 32 32;" xml:space="preserve">
<path style="fill:none;stroke:#000000;stroke-width:2;stroke-miterlimit:10;" d="M4,19c0-1.792,1-2.208,1-2.208
	c0-1-1.032-6.824,5.931-8.445c4.742-1.104,7.236,1.186,7.89,2.653c1.881,0,2.207,1.631,2.207,1.631"/>
<path style="fill:none;stroke:#000000;stroke-width:2;stroke-miterlimit:10;" d="M6,21c0,1.147-2,1.555-2,3c0.664,0,2.385,0,3.624,0
	c1.185,0,1.827-1,1.827-1s2.992,0,3.999,0C16.083,23,18,22,18,22s0.547,2,1.953,2H24c0-2.058-2-1.976-2-3.334
	c0-5.512,4.82-3.785,7-7.686C29,10.276,27.248,9,24.913,9C19.844,9,23.442,19,5,19c-1.853,0-3,2-3,2"/>
<circle cx="25.449" cy="11.736" r="1"/>
</svg>
