<?xml version="1.0" encoding="iso-8859-1"?>
<!-- Generator: Adobe Illustrator 22.0.1, SVG Export Plug-In . SVG Version: 6.00 Build 0)  -->
<svg version="1.1" id="&#x421;&#x43B;&#x43E;&#x439;_1"
	 xmlns="http://www.w3.org/2000/svg" xmlns:xlink="http://www.w3.org/1999/xlink" x="0px" y="0px" viewBox="0 0 32 32"
	 style="enable-background:new 0 0 32 32;" xml:space="preserve">
<path d="M23,27h2v2h-2V27z M25,25.7c1-0.4,2-1.4,2-2.7c0-1.2-0.8-3-3-3s-3,1.8-3,3h2c0-0.5,0.2-1,1-1s1,0.5,1,1s-0.5,0.8-0.8,0.9H24
	c-0.6,0.2-1,0.8-1,1.5V26h2V25.7z M32,24c0-4.4-3.6-8-8-8s-8,3.6-8,8s3.6,8,8,8S32,28.4,32,24z M30,24c0,3.3-2.7,6-6,6s-6-2.7-6-6
	s2.7-6,6-6S30,20.7,30,24z"/>
<polyline style="fill:none;stroke:#000000;stroke-width:2;stroke-miterlimit:10;" points="17,23 4,23 4,9 26,9 26,17 "/>
<polygon points="29,13 29,19 28,19 26,18 26,13 "/>
<rect x="7" y="12" width="4" height="8"/>
</svg>
