<?xml version="1.0" encoding="iso-8859-1"?>
<!-- Generator: Adobe Illustrator 22.0.1, SVG Export Plug-In . SVG Version: 6.00 Build 0)  -->
<svg version="1.1" id="&#x421;&#x43B;&#x43E;&#x439;_1"
	 xmlns="http://www.w3.org/2000/svg" xmlns:xlink="http://www.w3.org/1999/xlink" x="0px" y="0px" viewBox="0 0 32 32"
	 style="enable-background:new 0 0 32 32;" xml:space="preserve">
<g>
	<path style="fill-rule:evenodd;clip-rule:evenodd;" d="M22.493,27.611c0.096-0.194,0.568-1.151,0.631-1.329
		c0.066-0.178,0.097-0.308-0.096-0.438c-0.196-0.13-0.634-0.501-0.764-0.616c-0.127-0.112-0.145-0.227-0.048-0.42
		c0.096-0.195,0.303-0.822,0.967-1.565c0.514-0.578,1.153-0.97,1.347-1.082c0.195-0.115,0.3-0.013,0.397,0.084
		c0.087,0.089,0.227,0.196,0.341,0.293c0.111,0.096,0.193,0.13,0.323,0.196c0.13,0.063,0.244,0.031,0.341-0.018
		c0.096-0.048,1.056-0.437,1.446-0.6c0.379-0.158,0.326-0.319,0.334-0.438c0.005-0.112,0.005-0.242,0.005-0.372
		c0-0.13-0.048-0.341-0.244-0.519c-0.194-0.178-0.664-0.68-1.621-0.68c-0.957,0-1.884,0.698-2.013,0.794
		c-0.127,0.097-2.092,1.372-2.935,3.324c-0.201,0.463-0.321,0.824-0.41,1.107c-0.147,0.466-0.127,0.891-0.079,1.227
		c0.056,0.374,0.471,1.15,0.927,1.313c0.453,0.161,0.843,0.161,0.924,0.112C22.346,27.937,22.394,27.807,22.493,27.611
		L22.493,27.611z"/>
	
		<circle style="fill-rule:evenodd;clip-rule:evenodd;fill:none;stroke:#000000;stroke-width:2;stroke-miterlimit:10;" cx="24" cy="24" r="7"/>
	<path style="fill:none;stroke:#000000;stroke-width:2;stroke-miterlimit:10;" d="M5,26c0-4.973,4.027-9,9-9
		c1.863,0,3.598,0.566,5.031,1.535"/>
	<path style="fill:none;stroke:#000000;stroke-width:2;stroke-miterlimit:10;" d="M24,11c0,0-6.008,6-10,6c-3.312,0-6-2.688-6-6
		c0-3.313,2.688-6,6-6C18.121,5,24,11,24,11L24,11z"/>
</g>
</svg>
