<?xml version="1.0" encoding="iso-8859-1"?>
<!-- Generator: Adobe Illustrator 19.1.1, SVG Export Plug-In . SVG Version: 6.00 Build 0)  -->
<svg version="1.1" id="Layer_1" xmlns="http://www.w3.org/2000/svg" xmlns:xlink="http://www.w3.org/1999/xlink" x="0px" y="0px"
	 viewBox="0 0 32 32" style="enable-background:new 0 0 32 32;" xml:space="preserve">
<path style="fill:none;stroke:#000000;stroke-width:2;stroke-linecap:round;stroke-linejoin:round;stroke-miterlimit:10;" d="
	M12.073,12.167c-2.041-2.073-3.175-4.84-2.609-6.273c0.346-0.876,1.338-1.433,2.058-1.433c0.875,0,3.242,0.921,3.808,4.962
	c0.093,0.661,0.463,3.325,0.463,3.325"/>
<path style="fill:none;stroke:#000000;stroke-width:2;stroke-linecap:round;stroke-linejoin:round;stroke-miterlimit:10;" d="
	M15.33,9.015c-0.052-1.586,1.029-5.883,4.837-4.86c4.217,1.133,2.573,5.371,1.338,6.599C20.166,12.086,18.5,13.75,18.5,13.75"/>
<path style="fill:none;stroke:#000000;stroke-width:2;stroke-linecap:round;stroke-linejoin:round;stroke-miterlimit:10;" d="
	M20.361,11.89c1.615-1.279,2.682-1.905,4.57-1.905c1.642,0,2.354,0.952,2.545,1.741c0.281,1.155-0.876,2.694-2.408,3.156
	c-0.607,0.183-1.173,0.339-1.806,0.436C22.01,15.509,19.5,15.75,19.5,15.75"/>
<path style="fill:none;stroke:#000000;stroke-width:2;stroke-linecap:round;stroke-linejoin:round;stroke-miterlimit:10;" d="
	M22.575,15.43C24.622,15.139,28,16.276,28,19.316c0,3.252-2.633,3.252-3.059,3.252c-0.426,0-2.143-0.031-3.644-1.349
	c-1.596-1.402-3.351-2.909-3.351-2.909"/>
<path style="fill:none;stroke:#000000;stroke-width:2;stroke-linecap:round;stroke-linejoin:round;stroke-miterlimit:10;" d="
	M20.751,20.782c0.457,0.605,0.7,1.784,0.7,3.448c0,1.663-1.249,2.164-1.795,2.208c-1.126,0.091-3.194-1.542-3.437-3.417
	c-0.311-2.397-0.457-3.629-0.457-3.629"/>
<path d="M13.893,19.385C14.506,19.769,15.225,20,16,20c2.206,0,4-1.794,4-4s-1.794-4-4-4c-1.669,0-3.099,1.029-3.698,2.485
	c-0.37,0.033-1.736,0.18-3.635,0.684c-2.46,0.652-4.774,2.828-4.223,5.207c0.324,1.396,1.65,2.229,3.547,2.229
	c0.208,0,0.454-0.009,0.714-0.027c-0.375,0.768-0.605,1.592-0.605,2.29c0,1.598,1.175,4.132,4.327,4.132
	c1.413,0,2.548-0.464,3.372-1.377c1.501-1.664,1.413-4.28,1.305-5.327c-0.056-0.55-0.546-0.941-1.097-0.893
	c-0.549,0.057-0.949,0.548-0.892,1.098c0.063,0.609,0.19,2.684-0.8,3.782C13.88,26.766,13.263,27,12.428,27
	c-2.264,0-2.327-2.11-2.327-2.132c0-0.686,0.453-1.729,1.032-2.376C11.698,21.86,13.272,20.086,13.893,19.385z M16,14
	c1.103,0,2,0.897,2,2s-0.897,2-2,2s-2-0.897-2-2S14.897,14,16,14z"/>
<path style="fill:none;stroke:#000000;stroke-width:2;stroke-linecap:round;stroke-linejoin:round;stroke-miterlimit:10;" d="
	M8.631,16.232C7.212,16.453,4,16.269,4,13.578s2.041-3.352,3.283-3.352s2.95,0.378,4.747,1.941c0.71,0.618,1.686,1.412,1.686,1.412"
	/>
</svg>
