<?xml version="1.0" encoding="iso-8859-1"?>
<!-- Generator: Adobe Illustrator 22.0.1, SVG Export Plug-In . SVG Version: 6.00 Build 0)  -->
<svg version="1.1" id="Icons" xmlns="http://www.w3.org/2000/svg" xmlns:xlink="http://www.w3.org/1999/xlink" x="0px" y="0px"
	 viewBox="0 0 32 32" style="enable-background:new 0 0 32 32;" xml:space="preserve">
<path d="M15,26c0,0.551-0.449,1-1,1c-0.551,0-1-0.449-1-1c0-0.551,0.449-1,1-1C14.551,25,15,25.449,15,26L15,26z"/>
<path style="fill:none;stroke:#000000;stroke-width:2;stroke-miterlimit:10;" d="M21,16v11c0,1.105-0.895,2-2,2H9
	c-1.105,0-2-0.895-2-2V5c0-1.105,0.895-2,2-2h10c1.105,0,2,0.895,2,2v1"/>
<rect x="14" y="7" style="fill:none;stroke:#000000;stroke-width:2;stroke-miterlimit:10;" width="14" height="9"/>
<polyline style="fill:none;stroke:#000000;stroke-width:2;stroke-miterlimit:10;" points="14,7.668 21,12 28,7.668 "/>
</svg>
