<?xml version="1.0" encoding="utf-8"?>
<!-- Generator: Adobe Illustrator 18.1.1, SVG Export Plug-In . SVG Version: 6.00 Build 0)  -->
<svg version="1.1" id="Layer_1" xmlns="http://www.w3.org/2000/svg" xmlns:xlink="http://www.w3.org/1999/xlink" x="0px" y="0px"
	 viewBox="0 0 32 32" enable-background="new 0 0 32 32" xml:space="preserve">
<path fill="none" stroke="#000000" stroke-width="2" stroke-miterlimit="10" d="M26,27h-8c-0.6,0-1-0.4-1-1V12c0-0.6,0.4-1,1-1h8
	c0.6,0,1,0.4,1,1v14C27,26.6,26.6,27,26,27z"/>
<path fill="none" stroke="#000000" stroke-width="2" stroke-miterlimit="10" d="M17,24h-5c-0.6,0-1-0.4-1-1V9c0-0.6,0.4-1,1-1h8
	c0.6,0,1,0.4,1,1v2"/>
<path fill="none" stroke="#000000" stroke-width="2" stroke-miterlimit="10" d="M11,21H6c-0.6,0-1-0.4-1-1V6c0-0.6,0.4-1,1-1h8
	c0.6,0,1,0.4,1,1v2"/>
<line fill="none" stroke="#000000" stroke-width="2" stroke-miterlimit="10" x1="20.5" y1="24" x2="23.5" y2="24"/>
<line fill="none" stroke="#000000" stroke-width="2" stroke-miterlimit="10" x1="14.5" y1="21" x2="17" y2="21"/>
<line fill="none" stroke="#000000" stroke-width="2" stroke-miterlimit="10" x1="8.5" y1="18" x2="11" y2="18"/>
</svg>
