<?xml version="1.0" encoding="iso-8859-1"?>
<!-- Generator: Adobe Illustrator 21.0.2, SVG Export Plug-In . SVG Version: 6.00 Build 0)  -->
<svg version="1.1" id="Layer_1" xmlns="http://www.w3.org/2000/svg" xmlns:xlink="http://www.w3.org/1999/xlink" x="0px" y="0px"
	 viewBox="0 0 32 32" style="enable-background:new 0 0 32 32;" xml:space="preserve">
<path style="fill:none;stroke:#000000;stroke-width:2;stroke-miterlimit:10;" d="M19.565,5.083c0,0,2.101,4.501,2.261,4.978
	c0.157,0.477,0.456,0.847,0.797,0.918c0.498,0.105,3.677,0.95,4.101,1.014c0.373,0.056,0.939-0.257,1.073-0.957
	c0.133-0.699,0.456-2.657-0.166-3.202C27.009,7.29,25.45,5.001,16,5C6.547,4.999,4.99,7.288,4.368,7.834
	c-0.62,0.545-0.298,2.502-0.165,3.201c0.132,0.701,0.69,1.019,1.073,0.957c0.382-0.063,3.59-0.898,4.102-1.013
	c0.338-0.076,0.64-0.441,0.796-0.918c0.159-0.477,2.261-4.977,2.261-4.977"/>
<path style="fill:none;stroke:#000000;stroke-width:2;stroke-miterlimit:10;" d="M22,26l1,1h3v-4c0-4-7-9-7-9v-2h-1v1h-4v-1h-1v2
	c0,0-7,5-7,9c0,1,0,4,0,4h3l1-1H22z"/>
<rect x="18" y="18" width="2" height="2"/>
<rect x="12" y="18" width="2" height="2"/>
<rect x="15" y="18" width="2" height="2"/>
<rect x="18" y="21" width="2" height="2"/>
<rect x="12" y="21" width="2" height="2"/>
<rect x="15" y="21" width="2" height="2"/>
</svg>
