<?xml version="1.0" encoding="iso-8859-1"?>
<!-- Generator: Adobe Illustrator 22.0.1, SVG Export Plug-In . SVG Version: 6.00 Build 0)  -->
<svg version="1.1" id="&#x421;&#x43B;&#x43E;&#x439;_1"
	 xmlns="http://www.w3.org/2000/svg" xmlns:xlink="http://www.w3.org/1999/xlink" x="0px" y="0px" viewBox="0 0 32 32"
	 style="enable-background:new 0 0 32 32;" xml:space="preserve">
<path d="M30,26.5c0-2-1.5-3.5-3.5-3.5h-1c-0.8,0-1.5-0.7-1.5-1.5s0.7-1.5,1.5-1.5H29v-2h-2v-2h-2v2c-1.7,0.3-3,1.7-3,3.5
	c0,2,1.5,3.5,3.5,3.5h1c0.8,0,1.5,0.7,1.5,1.5S27.3,28,26.5,28H23v2h2v2h2v-2C28.7,29.7,30,28.3,30,26.5z"/>
<path style="fill:none;stroke:#000000;stroke-width:2;stroke-miterlimit:10;" d="M14,24h4"/>
<path d="M21,26H10V6h12v9h2V6c0-1.102-0.898-2-2-2H10C8.898,4,8,4.898,8,6v20c0,1.102,0.898,2,2,2h11V26z"/>
</svg>
