<?xml version="1.0" encoding="iso-8859-1"?>
<!-- Generator: Adobe Illustrator 22.0.1, SVG Export Plug-In . SVG Version: 6.00 Build 0)  -->
<svg version="1.1" id="&#x421;&#x43B;&#x43E;&#x439;_1"
	 xmlns="http://www.w3.org/2000/svg" xmlns:xlink="http://www.w3.org/1999/xlink" x="0px" y="0px" viewBox="0 0 32 32"
	 style="enable-background:new 0 0 32 32;" xml:space="preserve">
<g>
	<path style="fill:none;stroke:#000000;stroke-width:2;stroke-miterlimit:10;" d="M3,15V8c0-1.105,0.895-2,2-2h22
		c1.105,0,2,0.895,2,2v16c0,1.105-0.895,2-2,2H17"/>
	<line style="fill:none;stroke:#000000;stroke-width:2;stroke-miterlimit:10;" x1="15.738" y1="15.738" x2="10.439" y2="21.037"/>
	<line style="fill:none;stroke:#000000;stroke-width:2;stroke-miterlimit:10;" x1="11.146" y1="16.087" x2="8.318" y2="18.915"/>
	<path style="fill:none;stroke:#000000;stroke-width:2;stroke-miterlimit:10;" d="M17.859,17.859l-7.42,7.42
		c0,0-2.168,2.075-5.312-1.069c-3.143-3.143-0.345-6.002-0.345-6.002l3.536-3.536"/>
	<line style="fill:none;stroke:#000000;stroke-width:2;stroke-miterlimit:10;" x1="15" y1="25.986" x2="8.318" y2="25.986"/>
	<polygon points="22,14.5 22,8.5 26,11.5 	"/>
	<line style="fill:none;stroke:#000000;stroke-width:2;stroke-miterlimit:10;" x1="17" y1="11.5" x2="23" y2="11.5"/>
	<polygon points="18,14.5 18,8.5 14,11.5 	"/>
</g>
</svg>
