<?xml version="1.0" encoding="iso-8859-1"?>
<!-- Generator: Adobe Illustrator 21.1.0, SVG Export Plug-In . SVG Version: 6.00 Build 0)  -->
<svg version="1.1" id="Layer_1" xmlns="http://www.w3.org/2000/svg" xmlns:xlink="http://www.w3.org/1999/xlink" x="0px" y="0px"
	 viewBox="0 0 32 32" style="enable-background:new 0 0 32 32;" xml:space="preserve">
<g>
</g>
<path style="fill:none;stroke:#000000;stroke-width:2;stroke-miterlimit:10;" d="M23,24H9c-4.418,0-8-3.582-8-8l0,0
	c0-4.418,3.582-8,8-8h14c4.418,0,8,3.582,8,8l0,0C31,20.418,27.418,24,23,24z"/>
<circle style="fill:none;stroke:#000000;stroke-width:2;stroke-miterlimit:10;" cx="16" cy="16" r="8"/>
<path d="M8,16c0-3.161,1.838-5.886,4.5-7.185C11.442,8.298,10.257,8,9,8c-4.418,0-8,3.582-8,8s3.582,8,8,8
	c1.257,0,2.442-0.298,3.5-0.815C9.838,21.886,8,19.161,8,16z"/>
</svg>
