<?xml version="1.0" encoding="iso-8859-1"?>
<!-- Generator: Adobe Illustrator 22.0.1, SVG Export Plug-In . SVG Version: 6.00 Build 0)  -->
<svg version="1.1" id="&#x421;&#x43B;&#x43E;&#x439;_1"
	 xmlns="http://www.w3.org/2000/svg" xmlns:xlink="http://www.w3.org/1999/xlink" x="0px" y="0px" viewBox="0 0 32 32"
	 style="enable-background:new 0 0 32 32;" xml:space="preserve">
<g>
	<g>
		<path d="M20.699,14.572c0.929-0.326,1.919-0.518,2.95-0.554C21.502,12.443,18.864,11.5,16,11.5c-3.641,0-6.93,1.508-9.289,3.926
			l1.41,1.414c2-2.059,4.793-3.34,7.879-3.34C17.682,13.5,19.272,13.892,20.699,14.572z"/>
		<path d="M14.181,22.133c-0.143,0.111-0.279,0.229-0.4,0.363l0.299,0.299C14.107,22.572,14.14,22.351,14.181,22.133z"/>
		<path d="M27.41,13.305l1.414-1.414C25.559,8.566,21.016,6.5,16,6.5S6.441,8.566,3.176,11.891l1.414,1.414
			C7.492,10.344,11.535,8.5,16,8.5S24.508,10.344,27.41,13.305z"/>
		<path d="M17.283,16.614C16.864,16.546,16.438,16.5,16,16.5c-2.262,0-4.301,0.945-5.758,2.461l1.414,1.41
			c1.018-1.068,2.422-1.76,3.99-1.852C16.109,17.815,16.662,17.179,17.283,16.614z"/>
	</g>
	<path d="M24,32c-4.4,0-8-3.6-8-8s3.6-8,8-8s8,3.6,8,8S28.4,32,24,32z M24,18c-3.3,0-6,2.7-6,6s2.7,6,6,6s6-2.7,6-6S27.3,18,24,18z
		 M28.7,22.7l-1.4-1.4L24,24.6l-2.3-2.3l-1.4,1.4l3.7,3.7L28.7,22.7z"/>
</g>
</svg>
