<?xml version="1.0" encoding="iso-8859-1"?>
<!-- Generator: Adobe Illustrator 19.1.0, SVG Export Plug-In . SVG Version: 6.00 Build 0)  -->
<svg version="1.1" id="Layer_1" xmlns="http://www.w3.org/2000/svg" xmlns:xlink="http://www.w3.org/1999/xlink" x="0px" y="0px"
	 viewBox="0 0 32 32" style="enable-background:new 0 0 32 32;" xml:space="preserve">
<path style="fill:none;stroke:#000000;stroke-width:2;stroke-miterlimit:10;" d="M22,7.787V6c0-0.552-0.448-1-1-1H11
	c-0.552,0-1,0.448-1,1v1.787C6.992,9.75,5,13.14,5,17c0,4.445,2.642,8.265,6.437,10h9.126C24.358,25.265,27,21.445,27,17
	C27,13.14,25.008,9.75,22,7.787z"/>
<line style="fill:none;stroke:#000000;stroke-width:2;stroke-miterlimit:10;" x1="14" y1="8" x2="22" y2="8"/>
<line style="fill:none;stroke:#000000;stroke-width:2;stroke-miterlimit:10;" x1="10" y1="8" x2="12" y2="8"/>
<circle cx="22" cy="16" r="1"/>
<path d="M16,16c-1.083,0-2.881,1.278-4,2.166L10.566,17c0,0-0.566,0.844-0.566,2c0,1.156,0.566,2,0.566,2L12,19.834
	C13.119,20.722,14.917,22,16,22c1.657,0,3-1.343,3-3S17.657,16,16,16z M17,20c-0.552,0-1-0.448-1-1c0-0.552,0.448-1,1-1s1,0.448,1,1
	C18,19.552,17.552,20,17,20z"/>
<circle cx="19.5" cy="12.5" r="1.5"/>
</svg>
