<?xml version="1.0" encoding="iso-8859-1"?>
<!-- Generator: Adobe Illustrator 19.2.0, SVG Export Plug-In . SVG Version: 6.00 Build 0)  -->
<svg version="1.1" id="Layer_1" xmlns="http://www.w3.org/2000/svg" xmlns:xlink="http://www.w3.org/1999/xlink" x="0px" y="0px"
	 viewBox="0 0 32 32" style="enable-background:new 0 0 32 32;" xml:space="preserve">
<path d="M21.5,3L23,7c0,0-2.624,0-3,0L21.5,3z"/>
<path d="M10,6.737l2.891,1.927L13.394,9H14h8.783h0.888l0.596-0.659C24.382,8.213,24.63,8,25,8c0.062,0,0.126,0.006,0.19,0.018
	C25.644,8.101,26,8.599,26,9.152v1.111L25.59,9.99L24.966,10c-0.705,0.012-6.935,0.231-8.611,4.226l-0.305,0.728l0.275,0.74
	C16.918,17.294,19.201,20,24,20h0.227l-0.062,0.337c-0.158,0.877-1.068,1.646-1.948,1.646c-0.119,0-0.235-0.015-0.346-0.045
	c-3.082-0.828-11.977-4.73-12.067-4.77L9.42,17H9H7.236l1.053-2.106l0.645-1.289l-1.019-1.019l-1.132-1.132l1.793-0.538L10,10.488V9
	V6.737 M8,3v6l-5,1.5L6.5,14L4,19h5c0,0,9.086,3.993,12.352,4.87c0.286,0.077,0.576,0.113,0.864,0.113
	c1.823,0,3.586-1.45,3.917-3.293L27,16l-3,2c-4.688,0-5.8-3-5.8-3c1.219-2.906,6.8-3,6.8-3l3,2V9.152
	c0-1.475-0.998-2.835-2.449-3.101C25.364,6.016,25.18,6,25,6c-0.88,0-1.667,0.391-2.217,1H14L8,3L8,3z"/>
<path style="fill:none;stroke:#000000;stroke-width:2;stroke-miterlimit:10;" d="M17.117,21.001C17.041,21.317,17,21.654,17,22
	c0,4.063,2.438,6,6,6"/>
<line style="fill:none;stroke:#000000;stroke-width:2;stroke-miterlimit:10;" x1="10" y1="29" x2="10" y2="18"/>
<polygon points="25,12 25,14 23,12 "/>
<polygon points="23,12 23,14 21,12 "/>
<polygon points="21,12 21,14 19,12 "/>
<path d="M18,10h-5c0,0,0.229,2,2,2S18,10,18,10z"/>
<rect x="25" y="10" width="2" height="1"/>
</svg>
