<?xml version="1.0" encoding="iso-8859-1"?>
<!-- Generator: Adobe Illustrator 19.1.0, SVG Export Plug-In . SVG Version: 6.00 Build 0)  -->
<svg version="1.1" id="Layer_1" xmlns="http://www.w3.org/2000/svg" xmlns:xlink="http://www.w3.org/1999/xlink" x="0px" y="0px"
	 viewBox="0 0 32 32" style="enable-background:new 0 0 32 32;" xml:space="preserve">
<rect x="6" y="9" style="fill:none;stroke:#000000;stroke-width:2;stroke-miterlimit:10;" width="20" height="18"/>
<rect x="13" y="12" width="2" height="2"/>
<rect x="21" y="12" width="2" height="2"/>
<rect x="13" y="15" width="2" height="2"/>
<rect x="21" y="15" width="2" height="2"/>
<rect x="13" y="18" width="2" height="2"/>
<rect x="17" y="12" width="2" height="2"/>
<rect x="17" y="15" width="2" height="2"/>
<rect x="17" y="18" width="2" height="2"/>
<rect x="21" y="18" width="2" height="2"/>
<rect x="21" y="21" width="2" height="2"/>
<rect x="9" y="12" width="2" height="2"/>
<rect x="9" y="15" width="2" height="2"/>
<rect x="9" y="18" width="2" height="2"/>
<rect x="9" y="21" width="2" height="2"/>
<rect x="16.586" y="4.586" transform="matrix(0.7071 0.7071 -0.7071 0.7071 9.5147 -10.9706)" width="2.828" height="2.828"/>
<rect x="20.586" y="4.586" transform="matrix(0.7071 0.7071 -0.7071 0.7071 10.6863 -13.799)" width="2.828" height="2.828"/>
<rect x="8.586" y="4.586" transform="matrix(0.7071 0.7071 -0.7071 0.7071 7.1716 -5.3137)" width="2.828" height="2.828"/>
<rect x="12.586" y="4.586" transform="matrix(0.7071 0.7071 -0.7071 0.7071 8.3431 -8.1421)" width="2.828" height="2.828"/>
<polyline style="fill:none;stroke:#000000;stroke-width:2;stroke-miterlimit:10;" points="14,27 14,22 18,22 18,27 "/>
</svg>
