<?xml version="1.0" encoding="iso-8859-1"?>
<!-- Generator: Adobe Illustrator 21.0.0, SVG Export Plug-In . SVG Version: 6.00 Build 0)  -->
<svg version="1.1"  xmlns="http://www.w3.org/2000/svg" xmlns:xlink="http://www.w3.org/1999/xlink" x="0px" y="0px"
	 viewBox="0 0 32 32" style="enable-background:new 0 0 32 32;" xml:space="preserve">
<path style="fill:none;stroke:#000000;stroke-width:2;stroke-miterlimit:2;" d="M6,14c0,0-2.414-1.172-1-4c1-2,4-2,4-2
	s-0.068-3.233,3-4c4-1,5,3,5,3s0-2,3-2s4,3,4,3s2,0,3,1c2.236,2.236-1,5-1,5"/>
<polygon style="fill:none;stroke:#000000;stroke-width:2;stroke-miterlimit:10;" points="10,13 22,13 25,21 25,26 7,26 7,21 "/>
<polyline style="fill:none;stroke:#000000;stroke-width:2;stroke-linecap:square;stroke-miterlimit:10;" points="6,18 8,19 24,19 
	26,18 "/>
<circle cx="10.5" cy="22.5" r="1.5"/>
<circle cx="21.5" cy="22.5" r="1.5"/>
<rect x="6" y="27" width="2" height="2"/>
<rect x="24" y="27" width="2" height="2"/>
</svg>
