<?xml version="1.0" encoding="utf-8"?>
<!-- Generator: Adobe Illustrator 19.1.0, SVG Export Plug-In . SVG Version: 6.00 Build 0)  -->
<svg version="1.1" id="Layer_1" xmlns="http://www.w3.org/2000/svg" xmlns:xlink="http://www.w3.org/1999/xlink" x="0px" y="0px"
	 viewBox="0 0 32 32" style="enable-background:new 0 0 32 32;" xml:space="preserve">
<style type="text/css">
	.st0{fill:none;stroke:#000000;stroke-width:2;stroke-miterlimit:10;}
</style>
<g>
	<circle class="st0" cx="22" cy="8" r="2"/>
</g>
<g>
	<circle class="st0" cx="7" cy="8" r="2"/>
</g>
<path class="st0" d="M16,9l0.7,4.1c0.1,0.7,0.9,1.1,1.5,0.8l1.3-0.7c0.3-0.1,0.6-0.2,0.9-0.2h3.1c0.3,0,0.6,0.1,0.9,0.2l1.3,0.7
	c0.6,0.3,1.4-0.1,1.5-0.8L28,9"/>
<path class="st0" d="M13,17H9.5l-1.4-3c-0.3-0.6-0.9-1-1.5-1l0,0C5.7,13,5,13.7,5,14.6V27"/>
<rect x="12" y="14" width="3" height="2"/>
<polygon points="13,14 12,14 11.2,17.3 12.5,17.3 "/>
<line class="st0" x1="16" y1="18" x2="28" y2="18"/>
<g>
	<polyline points="8,19 6,19 7.4,22.3 8,27 10,27 9.3,22 	"/>
</g>
<line class="st0" x1="20" y1="18" x2="20" y2="13"/>
<line class="st0" x1="24" y1="18" x2="24" y2="13"/>
</svg>
