<?xml version="1.0" encoding="iso-8859-1"?>
<!-- Generator: Adobe Illustrator 19.1.0, SVG Export Plug-In . SVG Version: 6.00 Build 0)  -->
<svg version="1.1" id="Layer_1" xmlns="http://www.w3.org/2000/svg" xmlns:xlink="http://www.w3.org/1999/xlink" x="0px" y="0px"
	 viewBox="0 0 32 32" style="enable-background:new 0 0 32 32;" xml:space="preserve">
<path style="fill:none;stroke:#000000;stroke-width:2;stroke-miterlimit:10;" d="M20,13v-3c0-2.209-1.791-4-4-4s-4,1.791-4,4v3"/>
<path style="fill:none;stroke:#000000;stroke-width:2;stroke-miterlimit:10;" d="M27,13v-1c0-1.105-0.895-2-2-2s-2,0.895-2,2v1"/>
<path style="fill:none;stroke:#000000;stroke-width:2;stroke-miterlimit:10;" d="M9,13v-1c0-1.105-0.895-2-2-2s-2,0.895-2,2v1"/>
<line style="fill:none;stroke:#000000;stroke-width:2;stroke-miterlimit:10;" x1="16" y1="6" x2="16" y2="4"/>
<line style="fill:none;stroke:#000000;stroke-width:2;stroke-miterlimit:10;" x1="25" y1="10" x2="25" y2="8"/>
<line style="fill:none;stroke:#000000;stroke-width:2;stroke-miterlimit:10;" x1="7" y1="10" x2="7" y2="8"/>
<polygon style="fill:none;stroke:#000000;stroke-width:2;stroke-miterlimit:10;" points="5,15 5,27 13,27 13,23 16,22 19,23 19,27 
	27,27 27,15 "/>
<rect x="22" y="22" width="2" height="2"/>
<rect x="22" y="18" width="2" height="2"/>
<rect x="8" y="22" width="2" height="2"/>
<rect x="8" y="18" width="2" height="2"/>
<rect x="18" y="18" width="2" height="2"/>
<rect x="18" y="10" width="2" height="3"/>
<rect x="15" y="10" width="2" height="3"/>
<rect x="12" y="10" width="2" height="3"/>
<rect x="12" y="18" width="2" height="2"/>
</svg>
