<?xml version="1.0" encoding="iso-8859-1"?>
<!-- Generator: Adobe Illustrator 19.1.0, SVG Export Plug-In . SVG Version: 6.00 Build 0)  -->
<svg version="1.1" id="Layer_1" xmlns="http://www.w3.org/2000/svg" xmlns:xlink="http://www.w3.org/1999/xlink" x="0px" y="0px"
	 viewBox="0 0 32 32" style="enable-background:new 0 0 32 32;" xml:space="preserve">
<path id="XMLID_5_" style="fill:none;stroke:#000000;stroke-width:2;stroke-miterlimit:10;" d="M7,21c0,0.984,1.328,2,3,2s3-1,3-2"
	/>
<path id="XMLID_4_" style="fill:none;stroke:#000000;stroke-width:2;stroke-miterlimit:10;" d="M13,21c0,0.984,1.328,2,3,2s3-1,3-2"
	/>
<path id="XMLID_3_" style="fill:none;stroke:#000000;stroke-width:2;stroke-miterlimit:10;" d="M19,21c0,0.984,1.328,2,3,2s3-1,3-2"
	/>
<path id="XMLID_2_" style="fill:none;stroke:#000000;stroke-width:2;stroke-miterlimit:10;" d="M25,21c0,0.984,1.328,2,3,2s3-1,3-2"
	/>
<path id="XMLID_1_" style="fill:none;stroke:#000000;stroke-width:2;stroke-miterlimit:10;" d="M1,21c0,0.984,1.328,2,3,2s3-1,3-2"
	/>
<path style="fill:none;stroke:#000000;stroke-width:2;stroke-miterlimit:10;" d="M25,22c0.701,0,1.345-0.24,1.856-0.643
	C27.553,20.808,28,19.956,28,19v0c0-1.657-1.343-3-3-3H7c-1.657,0-3,1.343-3,3v0c0,1.657,1.343,3,3,3"/>
<path style="fill:none;stroke:#000000;stroke-width:2;stroke-miterlimit:10;" d="M24,16v-3c0-0.552-0.448-1-1-1h-4.779
	c-0.549,0.61-1.336,1-2.221,1s-1.672-0.39-2.221-1H9c-0.552,0-1,0.448-1,1v3"/>
<line style="fill:none;stroke:#000000;stroke-width:2;stroke-miterlimit:10;" x1="16" y1="11" x2="16" y2="9"/>
<line style="fill:none;stroke:#000000;stroke-width:2;stroke-miterlimit:10;" x1="13" y1="9" x2="19" y2="9"/>
</svg>
