<?xml version="1.0" encoding="iso-8859-1"?>
<!-- Generator: Adobe Illustrator 19.1.0, SVG Export Plug-In . SVG Version: 6.00 Build 0)  -->
<svg version="1.1" id="Layer_1" xmlns="http://www.w3.org/2000/svg" xmlns:xlink="http://www.w3.org/1999/xlink" x="0px" y="0px"
	 viewBox="0 0 32 32" style="enable-background:new 0 0 32 32;" xml:space="preserve">
<path style="fill:none;stroke:#000000;stroke-width:2;stroke-miterlimit:10;" d="M16,14l-8,5v7h6v-3c0-1.105,0.895-2,2-2
	s2,0.895,2,2v3h6v-7L16,14z"/>
<rect x="20" y="21" width="2" height="2"/>
<rect x="10" y="21" width="2" height="2"/>
<polyline style="fill:none;stroke:#000000;stroke-width:2;stroke-miterlimit:10;" points="12,16.523 12,11 16,6 20,11 20,16.523 "/>
<path d="M16,11L16,11c-0.552,0-1,0.448-1,1v2h2v-2C17,11.448,16.552,11,16,11z"/>
</svg>
