<?xml version="1.0" encoding="iso-8859-1"?>
<!-- Generator: Adobe Illustrator 19.1.0, SVG Export Plug-In . SVG Version: 6.00 Build 0)  -->
<svg version="1.1" id="Layer_1" xmlns="http://www.w3.org/2000/svg" xmlns:xlink="http://www.w3.org/1999/xlink" x="0px" y="0px"
	 viewBox="0 0 32 32" style="enable-background:new 0 0 32 32;" xml:space="preserve">
<circle cx="20.5" cy="21.5" r="1.5"/>
<circle cx="11.5" cy="21.5" r="1.5"/>
<line style="fill:none;stroke:#000000;stroke-width:2;stroke-miterlimit:10;" x1="7" y1="11" x2="25" y2="11"/>
<line style="fill:none;stroke:#000000;stroke-width:2;stroke-miterlimit:10;" x1="7" y1="18" x2="25" y2="18"/>
<polygon points="22,25 19.649,25 22.649,29 25,29 "/>
<polygon points="10,25 12.351,25 9.351,29 7,29 "/>
<path style="fill:none;stroke:#000000;stroke-width:2;stroke-miterlimit:10;" d="M21,7h-1v0c0-1.105-0.895-2-2-2h-4
	c-1.105,0-2,0.895-2,2v0h-1c-2.209,0-4,1.791-4,4v10c0,2.761,2.239,5,5,5h8c2.761,0,5-2.239,5-5V11C25,8.791,23.209,7,21,7z"/>
</svg>
