<?xml version="1.0" encoding="iso-8859-1"?>
<!-- Generator: Adobe Illustrator 19.1.0, SVG Export Plug-In . SVG Version: 6.00 Build 0)  -->
<svg version="1.1" id="Layer_1" xmlns="http://www.w3.org/2000/svg" xmlns:xlink="http://www.w3.org/1999/xlink" x="0px" y="0px"
	 viewBox="0 0 32 32" style="enable-background:new 0 0 32 32;" xml:space="preserve">
<polygon style="fill:none;stroke:#000000;stroke-width:2;stroke-miterlimit:10;" points="28,25 4,25 4,10 16,5 28,10 "/>
<path d="M25,19c0,1.657-1.343,3-3,3s-3-1.343-3-3H25z"/>
<path d="M13,19c0,1.657-1.343,3-3,3s-3-1.343-3-3H13z"/>
<path style="fill:none;stroke:#000000;stroke-width:2;stroke-linejoin:round;stroke-miterlimit:10;" d="M8,14c4.3-2.2,8,0,8,0
	s3.85-2.2,8,0"/>
<circle cx="16" cy="13" r="2"/>
<polyline style="fill:none;stroke:#000000;stroke-linejoin:round;stroke-miterlimit:10;" points="20,20 22,14 24,20 "/>
<polyline style="fill:none;stroke:#000000;stroke-linejoin:round;stroke-miterlimit:10;" points="8,20 10,14 12,20 "/>
</svg>
