<?xml version="1.0" encoding="iso-8859-1"?>
<!-- Generator: Adobe Illustrator 19.1.0, SVG Export Plug-In . SVG Version: 6.00 Build 0)  -->
<svg version="1.1" id="Layer_1" xmlns="http://www.w3.org/2000/svg" xmlns:xlink="http://www.w3.org/1999/xlink" x="0px" y="0px"
	 viewBox="0 0 32 32" style="enable-background:new 0 0 32 32;" xml:space="preserve">
<g>
	<path d="M14.136,23.772C10.623,22.929,8,19.768,8,16c0-4.411,3.589-8,8-8s8,3.589,8,8c0,2.205-0.916,4.24-2.365,5.688
		c-0.211,1.018,0.234,2.391,0.234,2.391C24.367,22.259,26,19.32,26,16c0-5.514-4.486-10-10-10S6,10.486,6,16
		c0,4.69,3.25,8.626,7.614,9.7C13.756,25.177,13.949,24.464,14.136,23.772z"/>
	<path d="M19.325,23.267C18.311,23.733,17.187,24,16,24c-0.029,0-0.057-0.004-0.086-0.004l-0.458,1.977
		C15.637,25.982,15.816,26,16,26c1.387,0,2.708-0.285,3.91-0.797C19.728,24.598,19.514,23.891,19.325,23.267z"/>
</g>
<circle cx="16" cy="6" r="2"/>
<circle cx="6" cy="16" r="2"/>
<circle cx="26" cy="16" r="2"/>
<circle cx="8.929" cy="8.929" r="2"/>
<circle cx="23.071" cy="23.071" r="2"/>
<circle cx="8.929" cy="23.071" r="2"/>
<circle cx="23.071" cy="8.929" r="2"/>
<circle cx="16" cy="16" r="2"/>
<polygon points="17.3,15 14.7,15 11,28 13.5,28 16,18.8 18.5,28 21,28 "/>
</svg>
