<?xml version="1.0" encoding="iso-8859-1"?>
<!-- Generator: Adobe Illustrator 19.1.0, SVG Export Plug-In . SVG Version: 6.00 Build 0)  -->
<svg version="1.1" id="Layer_1" xmlns="http://www.w3.org/2000/svg" xmlns:xlink="http://www.w3.org/1999/xlink" x="0px" y="0px"
	 viewBox="0 0 32 32" style="enable-background:new 0 0 32 32;" xml:space="preserve">
<circle style="fill:none;stroke:#000000;stroke-width:2;stroke-miterlimit:10;" cx="19.5" cy="8.5" r="2.5"/>
<path d="M13,27H8c0,0,0.3-1.6,1.3-1.6c0.6,1,2.1,0.5,2.1,0.5s-1.5,0-1.9-0.8c0.7,0,0-1.2,1.2-1.6C10.9,24.9,13,24.7,13,27z"/>
<polygon points="18.878,23.407 19.831,27 18.151,27 "/>
<path d="M13.839,21.634l1.907,0.599L14.685,27h2.05l0.964-4.332c0.229-1.022-0.353-2.03-1.353-2.344l-1.907-0.599
	c-0.235-0.074-0.339-0.25-0.38-0.348s-0.092-0.295,0.022-0.515l1.875-3.608c0.201-0.387,0.577-0.629,0.985-0.67l0.226,3.236
	c0.046,0.666,0.418,1.262,0.995,1.595l2.864,1.653l1-1.732l-2.863-1.653l-0.325-4.655L18.247,12.8
	c-1.554-0.603-3.3,0.056-4.066,1.533l-1.874,3.608c-0.357,0.686-0.392,1.489-0.096,2.204C12.508,20.859,13.101,21.402,13.839,21.634
	z"/>
</svg>
