<?xml version="1.0" encoding="iso-8859-1"?>
<!-- Generator: Adobe Illustrator 19.1.1, SVG Export Plug-In . SVG Version: 6.00 Build 0)  -->
<svg version="1.1" id="Layer_1" xmlns="http://www.w3.org/2000/svg" xmlns:xlink="http://www.w3.org/1999/xlink" x="0px" y="0px"
	 viewBox="0 0 32 32" style="enable-background:new 0 0 32 32;" xml:space="preserve">
<line style="fill:none;stroke:#000000;stroke-width:2;stroke-miterlimit:10;" x1="8" y1="21" x2="28" y2="21"/>
<line style="fill:none;stroke:#000000;stroke-width:2;stroke-miterlimit:10;" x1="12" y1="23" x2="12" y2="27"/>
<line style="fill:none;stroke:#000000;stroke-width:2;stroke-miterlimit:10;" x1="16" y1="23" x2="16" y2="27"/>
<line style="fill:none;stroke:#000000;stroke-width:2;stroke-miterlimit:10;" x1="20" y1="23" x2="20" y2="27"/>
<line style="fill:none;stroke:#000000;stroke-width:2;stroke-miterlimit:10;" x1="24" y1="23" x2="24" y2="27"/>
<polygon style="fill:none;stroke:#000000;stroke-width:2;stroke-miterlimit:10;" points="28,21 25,16 11,16 8,21 8,27 28,27 "/>
<polyline style="fill:none;stroke:#000000;stroke-width:2;stroke-miterlimit:10;" points="4,10 4,27 6,27 "/>
<line style="fill:none;stroke:#000000;stroke-width:2;stroke-miterlimit:10;" x1="13" y1="10" x2="13" y2="14"/>
<line style="fill:none;stroke:#000000;stroke-width:2;stroke-miterlimit:10;" x1="18" y1="10" x2="18" y2="14"/>
<rect x="15" y="12" width="1" height="2"/>
<rect x="6" y="12" width="1" height="2"/>
<rect x="6" y="16" width="1" height="2"/>
<path style="fill:none;stroke:#000000;stroke-width:2;stroke-miterlimit:10;" d="M6.506,5C7.958,5,10,6.252,10,8s-1,2-1,2H7H6H4
	c0,0-1-0.252-1-2S5.054,5,6.506,5L6.506,5z"/>
<g>
	<polygon points="9.576,14.486 9.867,14 10,14 10,10 8,10 8,17.113 	"/>
</g>
<circle cx="6.5" cy="3.5" r="0.5"/>
<path style="fill:none;stroke:#000000;stroke-width:2;stroke-miterlimit:10;" d="M15.506,5C16.958,5,19,6.252,19,8s-1,2-1,2h-2h-1
	h-2c0,0-1-0.252-1-2S14.054,5,15.506,5L15.506,5z"/>
<circle cx="15.5" cy="3.5" r="0.5"/>
</svg>
