<?xml version="1.0" encoding="iso-8859-1"?>
<!-- Generator: Adobe Illustrator 19.1.0, SVG Export Plug-In . SVG Version: 6.00 Build 0)  -->
<svg version="1.1" id="Layer_1" xmlns="http://www.w3.org/2000/svg" xmlns:xlink="http://www.w3.org/1999/xlink" x="0px" y="0px"
	 viewBox="0 0 32 32" style="enable-background:new 0 0 32 32;" xml:space="preserve">
<line style="fill:none;stroke:#000000;stroke-width:2;stroke-miterlimit:10;" x1="3" y1="3" x2="29" y2="29"/>
<g>
	<path d="M9.654,11H24c0.552,0,1,0.448,1,1v10c0,0.552-0.448,1-1,1h-2V12h-2v9.346L23.654,25H24c1.654,0,3-1.346,3-3V12
		c0-1.654-1.346-3-3-3H8C7.893,9,7.791,9.021,7.686,9.032L9.654,11z"/>
	<path d="M18.826,23H12v-6.826l-2-2V23H8c-0.552,0-1-0.448-1-1V12c0-0.231,0.091-0.434,0.223-0.603L5.801,9.975
		C5.308,10.51,5,11.217,5,12v10c0,1.654,1.346,3,3,3h12.826L18.826,23z"/>
</g>
<path style="fill:none;stroke:#000000;stroke-width:2;stroke-miterlimit:10;" d="M13,10V8c0-0.552,0.448-1,1-1h4
	c0.552,0,1,0.448,1,1v2"/>
</svg>
