<?xml version="1.0" encoding="iso-8859-1"?>
<!-- Generator: Adobe Illustrator 19.1.0, SVG Export Plug-In . SVG Version: 6.00 Build 0)  -->
<svg version="1.1" id="Layer_1" xmlns="http://www.w3.org/2000/svg" xmlns:xlink="http://www.w3.org/1999/xlink" x="0px" y="0px"
	 viewBox="0 0 32 32" style="enable-background:new 0 0 32 32;" xml:space="preserve">
<line style="fill:none;stroke:#000000;stroke-width:2;stroke-miterlimit:10;" x1="3" y1="3" x2="29" y2="29"/>
<g>
	<path d="M8,13c0.231,0,0.434-0.091,0.603-0.223l-1.38-1.38C7.091,11.566,7,11.769,7,12C7,12.552,7.448,13,8,13z"/>
	<polygon points="19.826,24 5,24 5,10 5.826,10 3.826,8 3,8 3,26 21.826,26 	"/>
	<path d="M16,11c-1.742,0-3.308,0.751-4.405,1.94l1.422,1.422C13.75,13.534,14.809,13,16,13c2.206,0,4,1.794,4,4
		c0,1.191-0.534,2.25-1.362,2.984l1.422,1.422C21.249,20.308,22,18.742,22,17C22,13.691,19.309,11,16,11z"/>
	<path d="M16,23c0.833,0,1.626-0.171,2.347-0.479l-1.597-1.597C16.507,20.971,16.257,21,16,21c-2.206,0-4-1.794-4-4
		c0-0.257,0.029-0.507,0.076-0.75l-1.597-1.597C10.171,15.374,10,16.167,10,17C10,20.309,12.691,23,16,23z"/>
	<polygon points="22,8 20.5,6 11.5,6 10,8 6.654,8 8.654,10 11,10 12.5,8 19.5,8 21,10 27,10 27,24 22.654,24 24.654,26 29,26 29,8 
			"/>
</g>
</svg>
