<?xml version="1.0" encoding="iso-8859-1"?>
<!-- Generator: Adobe Illustrator 19.1.0, SVG Export Plug-In . SVG Version: 6.00 Build 0)  -->
<svg version="1.1" id="Layer_1" xmlns="http://www.w3.org/2000/svg" xmlns:xlink="http://www.w3.org/1999/xlink" x="0px" y="0px"
	 viewBox="0 0 32 32" style="enable-background:new 0 0 32 32;" xml:space="preserve">
<line style="fill:none;stroke:#000000;stroke-width:2;stroke-miterlimit:10;" x1="3" y1="3" x2="29" y2="29"/>
<g>
	<path d="M11.226,12.572c0.005-0.288,0.009-0.561,0.022-0.733c0.218-0.031,0.619-0.028,0.928-0.025
		c1.943,0.017,5.161,0.037,8.713-3.817c0.997-1.081,1.917-1.616,2.673-1.572c0.537,0.038,1.044,0.398,1.507,1.069l0.097,0.141
		l0.664,0.483c-0.721,1.954-2.601,5.021-4.811,7.231c-1.269,1.269-2.765,2.316-3.96,3.055l1.452,1.452
		c1.218-0.781,2.656-1.828,3.921-3.093c2.497-2.497,4.876-6.27,5.536-8.773l0.173-0.66l-1.528-1.115
		c-1.003-1.372-2.13-1.729-2.91-1.785c-1.392-0.098-2.841,0.646-4.285,2.212c-2.953,3.204-5.535,3.191-7.228,3.173
		c-0.971-0.01-2.155-0.01-2.699,1.023L11.226,12.572z"/>
	<path d="M16.735,20.908l-1.481-1.481c-0.216,0.111-0.343,0.172-0.35,0.175l-0.968,0.456l0.889,1.6l-3.158,3.111
		c-0.663-0.474-0.962-0.848-0.962-0.848l-0.169-0.223l-0.259-0.104c-0.016-0.007-1.606-0.652-2.875-1.921
		c-0.341-0.341-0.843-1.068-1.167-1.823c1.274-0.654,2.638-1.784,3.608-2.755c0.594-0.593,0.92-1.278,1.111-1.97l-1.75-1.75
		c-0.043,0.856-0.186,1.717-0.775,2.306c-1.294,1.294-2.792,2.36-3.727,2.653l-0.875,0.273l0.197,0.896
		c0.335,1.524,1.358,2.979,1.963,3.584c1.263,1.263,2.739,2.004,3.311,2.262c0.293,0.322,0.93,0.935,1.996,1.557l0.661,0.386
		l5.356-5.277l-0.606-1.091C16.714,20.92,16.726,20.913,16.735,20.908z"/>
</g>
<line style="fill:none;stroke:#000000;stroke-width:2;stroke-miterlimit:10;" x1="18.486" y1="8.889" x2="19.687" y2="10.633"/>
<line style="fill:none;stroke:#000000;stroke-width:2;stroke-miterlimit:10;" x1="15.569" y1="10.576" x2="16.255" y2="12.378"/>
</svg>
