<?xml version="1.0" encoding="iso-8859-1"?>
<!-- Generator: Adobe Illustrator 19.1.0, SVG Export Plug-In . SVG Version: 6.00 Build 0)  -->
<svg version="1.1" id="Layer_1" xmlns="http://www.w3.org/2000/svg" xmlns:xlink="http://www.w3.org/1999/xlink" x="0px" y="0px"
	 viewBox="0 0 32 32" style="enable-background:new 0 0 32 32;" xml:space="preserve">
<g>
	<circle style="fill:none;stroke:#000000;stroke-width:2;stroke-miterlimit:10;" cx="22" cy="8" r="2"/>
</g>
<path style="fill:none;stroke:#000000;stroke-width:2;stroke-miterlimit:10;" d="M26,21l-2.5-4l-0.766-4H22c-1.105,0-2,0.895-2,2v12
	"/>
<g>
	<polyline points="23,19 21,19 22.411,22.289 23,27 25,27 24.3,22 	"/>
</g>
<circle style="fill:none;stroke:#000000;stroke-width:2;stroke-miterlimit:10;" cx="12.995" cy="10" r="2"/>
<polygon points="11.773,23.075 12.65,27 10.65,27 "/>
<line style="fill:none;stroke:#000000;stroke-width:2;stroke-miterlimit:10;" x1="17.212" y1="19.363" x2="20.021" y2="20.544"/>
<path d="M7.138,20.786l1.869,1.378L7.276,27H9.4l1.489-4.161c0.296-0.825,0.01-1.765-0.696-2.284l-1.869-1.378
	c-0.333-0.245-0.418-0.71-0.194-1.057l1.945-3.021l2.013,2.974l3.642,1.716l0.853-1.809l-3.146-1.483l-1.808-2.67
	c-0.355-0.524-0.933-0.854-1.578-0.826c-0.633,0.008-1.215,0.329-1.559,0.861L6.45,17.036C5.655,18.27,5.958,19.917,7.138,20.786z"
	/>
</svg>
