<?xml version="1.0" encoding="iso-8859-1"?>
<!-- Generator: Adobe Illustrator 19.1.0, SVG Export Plug-In . SVG Version: 6.00 Build 0)  -->
<svg version="1.1" id="Layer_1" xmlns="http://www.w3.org/2000/svg" xmlns:xlink="http://www.w3.org/1999/xlink" x="0px" y="0px"
	 viewBox="0 0 32 32" style="enable-background:new 0 0 32 32;" xml:space="preserve">
<line style="fill:none;stroke:#000000;stroke-width:2;stroke-miterlimit:10;" x1="13.86" y1="18.14" x2="10" y2="22"/>
<line style="fill:none;stroke:#000000;stroke-width:2;stroke-miterlimit:10;" x1="18.04" y1="13.96" x2="16.06" y2="15.94"/>
<ellipse transform="matrix(0.7071 0.7071 -0.7071 0.7071 14.4645 -10.3345)" style="fill:none;stroke:#000000;stroke-width:2;stroke-miterlimit:10;" cx="19.707" cy="12.293" rx="2" ry="2.414"/>
<path style="fill:none;stroke:#000000;stroke-width:2;stroke-miterlimit:10;" d="M22,22L11,11l0,0c-1.105,1.105-1.105,2.895,0,4l4,4
	l2-2"/>
<path style="fill:none;stroke:#000000;stroke-width:2;stroke-miterlimit:10;" d="M5,25h22c1.105,0,2-0.895,2-2V9
	c0-1.105-0.895-2-2-2H5C3.895,7,3,7.895,3,9v14C3,24.105,3.895,25,5,25z"/>
</svg>
