<?xml version="1.0" encoding="iso-8859-1"?>
<!-- Generator: Adobe Illustrator 19.2.0, SVG Export Plug-In . SVG Version: 6.00 Build 0)  -->
<svg version="1.1" id="Layer_1" xmlns="http://www.w3.org/2000/svg" xmlns:xlink="http://www.w3.org/1999/xlink" x="0px" y="0px"
	 viewBox="0 0 32 32" style="enable-background:new 0 0 32 32;" xml:space="preserve">
<path style="fill:none;stroke:#000000;stroke-width:2;stroke-miterlimit:10;" d="M4,26c0,0,1.291,1,3.018,1S10,26,10,26
	s1.291,1,3.018,1S16,26,16,26s1.291,1,3.018,1C20.745,27,22,26,22,26s1.291,1,3.018,1C26.745,27,28,26,28,26"/>
<path style="fill:none;stroke:#000000;stroke-width:2;stroke-miterlimit:10;" d="M4,22c0,0,1.291,1,3.018,1S10,22,10,22
	s1.291,1,3.018,1S16,22,16,22s1.291,1,3.018,1C20.745,23,22,22,22,22s1.291,1,3.018,1C26.745,23,28,22,28,22"/>
<line style="fill:none;stroke:#000000;stroke-width:2;stroke-linejoin:round;stroke-miterlimit:10;" x1="22" y1="9" x2="12" y2="9"/>
<line style="fill:none;stroke:#000000;stroke-width:2;stroke-linejoin:round;stroke-miterlimit:10;" x1="21" y1="13" x2="12" y2="13"/>
<line style="fill:none;stroke:#000000;stroke-width:2;stroke-linejoin:round;stroke-miterlimit:10;" x1="21" y1="17" x2="12" y2="17"/>
<path d="M21.996,18.897L23,19.634V7c0-0.552,0.448-1,1-1h1V4h-1c-1.654,0-3,1.346-3,3v12.632L21.996,18.897z"/>
<path d="M9.996,18.897L11,19.634V7c0-0.552,0.448-1,1-1h1V4h-1c-1.654,0-3,1.346-3,3v12.632L9.996,18.897z"/>
</svg>
