<?xml version="1.0" encoding="iso-8859-1"?>
<!-- Generator: Adobe Illustrator 19.1.0, SVG Export Plug-In . SVG Version: 6.00 Build 0)  -->
<svg version="1.1" id="Layer_1" xmlns="http://www.w3.org/2000/svg" xmlns:xlink="http://www.w3.org/1999/xlink" x="0px" y="0px"
	 viewBox="0 0 32 32" style="enable-background:new 0 0 32 32;" xml:space="preserve">
<path id="XMLID_13_" style="fill:none;stroke:#000000;stroke-width:2;stroke-miterlimit:10;" d="M21.514,15
	C23.466,15,27,13.34,27,10.619C27,7.289,23,6,23,6"/>
<path id="XMLID_10_" style="fill:none;stroke:#000000;stroke-width:2;stroke-miterlimit:10;" d="M28,25c0,0.984-1.328,2-3,2
	s-3-1-3-2"/>
<path id="XMLID_9_" style="fill:none;stroke:#000000;stroke-width:2;stroke-miterlimit:10;" d="M22,25c0,0.984-1.328,2-3,2s-3-1-3-2
	"/>
<path id="XMLID_8_" style="fill:none;stroke:#000000;stroke-width:2;stroke-miterlimit:10;" d="M16,25c0,0.984-1.328,2-3,2s-3-1-3-2
	"/>
<path id="XMLID_7_" style="fill:none;stroke:#000000;stroke-width:2;stroke-miterlimit:10;" d="M10,25c0,0.984-1.328,2-3,2s-3-1-3-2
	"/>
<path id="XMLID_4_" style="fill:none;stroke:#000000;stroke-width:2;stroke-miterlimit:10;" d="M28,20c0,0.984-1.328,2-3,2s-3-1-3-2
	"/>
<path style="fill:none;stroke:#000000;stroke-width:2;stroke-miterlimit:10;" d="M15,15c0,0-6-0.185-6-4.111C9,7.741,13.296,7,15,7
	s7,0.63,7,4.296c0,5.778-5.741,7.889-8.259,8.704c0,0-1.01,2-3.773,2C6.46,22,6,18,6,18s13-2.519,13-7.37C19,7.593,15,7,15,7"/>
<path d="M19,21c-0.332,0-0.626-0.051-0.883-0.13c-0.663,0.352-1.397,0.683-2.196,0.995C16.659,22.549,17.768,23,19,23
	c2.168,0,4-1.374,4-3h-2C21,20.297,20.224,21,19,21z"/>
</svg>
