<?xml version="1.0" encoding="iso-8859-1"?>
<!-- Generator: Adobe Illustrator 19.1.0, SVG Export Plug-In . SVG Version: 6.00 Build 0)  -->
<svg version="1.1" id="Layer_1" xmlns="http://www.w3.org/2000/svg" xmlns:xlink="http://www.w3.org/1999/xlink" x="0px" y="0px"
	 viewBox="0 0 32 32" style="enable-background:new 0 0 32 32;" xml:space="preserve">
<polyline style="fill:none;stroke:#000000;stroke-width:2;stroke-miterlimit:10;" points="5,12 5,26 27,26 27,12 "/>
<polyline style="fill:none;stroke:#000000;stroke-width:2;stroke-miterlimit:10;" points="21,12 21,8 19,8 19,6 13,6 13,8 11,8 
	11,12 "/>
<polygon style="fill:none;stroke:#000000;stroke-width:2;stroke-miterlimit:10;" points="22,18 22,14.599 23,12.68 23,12 16,11.016 
	9,12 9,12.68 10,14.599 10,18 16,21 "/>
<g>
	<polygon points="7.634,19.612 4.375,22.219 5.625,23.781 9.604,20.597 	"/>
	<polygon points="24.366,19.612 22.396,20.597 26.375,23.781 27.625,22.219 	"/>
</g>
</svg>
