<?xml version="1.0" encoding="iso-8859-1"?>
<!-- Generator: Adobe Illustrator 19.1.1, SVG Export Plug-In . SVG Version: 6.00 Build 0)  -->
<svg version="1.1" id="Layer_1" xmlns="http://www.w3.org/2000/svg" xmlns:xlink="http://www.w3.org/1999/xlink" x="0px" y="0px"
	 viewBox="0 0 32 32" style="enable-background:new 0 0 32 32;" xml:space="preserve">
<path style="fill:none;stroke:#000000;stroke-width:2;stroke-miterlimit:10;" d="M4,20c2.4,0,3.6-3,6-3s3.6,3,6,3s3.6-3,6-3
	s3.6,3,6,3"/>
<path style="fill:none;stroke:#000000;stroke-width:2;stroke-miterlimit:10;" d="M4,26c2.4,0,3.6-3,6-3s3.6,3,6,3s3.6-3,6-3
	s3.6,3,6,3"/>
<path style="fill:none;stroke:#000000;stroke-width:2;stroke-miterlimit:10;" d="M17,10c3.917,0,4.363-3.012,7.003-3.012
	c1.68,0,3,1.344,3,3.056s-1.32,2.957-3,2.957c-0.84,0-1.68-0.367-2.28-0.978"/>
<path style="fill:none;stroke:#000000;stroke-width:2;stroke-miterlimit:10;" d="M10.999,11.949C11.635,12.597,12.52,13,13.5,13
	c1.933,0,3.5-1.567,3.5-3.5S15.433,6,13.5,6C8.94,6,8.44,12,4,12"/>
</svg>
