<?xml version="1.0" encoding="iso-8859-1"?>
<!-- Generator: Adobe Illustrator 19.1.1, SVG Export Plug-In . SVG Version: 6.00 Build 0)  -->
<svg version="1.1" id="Layer_1" xmlns="http://www.w3.org/2000/svg" xmlns:xlink="http://www.w3.org/1999/xlink" x="0px" y="0px"
	 viewBox="0 0 32 32" style="enable-background:new 0 0 32 32;" xml:space="preserve">
<circle cx="12.5" cy="17.5" r="1.5"/>
<circle style="display:none;" cx="20" cy="17" r="1"/>
<path d="M17,23c0,0,1,2,2,2c0.552,0,1-0.448,1-1s-0.448-1-1-1S17,23,17,23z"/>
<path d="M15,23c0,0-1,2-2,2c-0.552,0-1-0.448-1-1s0.448-1,1-1S15,23,15,23z"/>
<path style="fill:none;stroke:#000000;stroke-width:2;stroke-miterlimit:10;" d="M16,8c0,0-3.563,0-6,1c-2.438,1-4,9.75-4,14
	c2.5,0,4,2,4,2s-0.125,4,6,4"/>
<polygon points="8,10 3,10 6,13 3,13 5,16 3,16 6,20 "/>
<path d="M13,8c0,0-0.875-3.813-6-5c2.375,2.313,3,6,3,6L13,8z"/>
<circle cx="19.5" cy="17.5" r="1.5"/>
<path d="M17,23c0,0,1,2,2,2c0.552,0,1-0.448,1-1s-0.448-1-1-1S17,23,17,23z"/>
<path style="fill:none;stroke:#000000;stroke-width:2;stroke-miterlimit:10;" d="M16,8c0,0,3.563,0,6,1s4,9.75,4,14c-2.5,0-4,2-4,2
	s0,4-6,4"/>
<polygon points="24,10 29,10 26,13 29,13 27,16 29,16 26,20 "/>
<path d="M19,8c0,0,0.875-3.813,6-5c-2.375,2.313-3,6-3,6L19,8z"/>
<polygon points="16,2 14,8 18,8 "/>
<line style="fill:none;stroke:#000000;stroke-width:2;stroke-miterlimit:10;" x1="10" y1="22" x2="10" y2="25"/>
<line style="fill:none;stroke:#000000;stroke-width:2;stroke-miterlimit:10;" x1="22" y1="22" x2="22" y2="25"/>
</svg>
