<?xml version="1.0" encoding="iso-8859-1"?>
<!-- Generator: Adobe Illustrator 19.1.1, SVG Export Plug-In . SVG Version: 6.00 Build 0)  -->
<svg version="1.1" id="Layer_1" xmlns="http://www.w3.org/2000/svg" xmlns:xlink="http://www.w3.org/1999/xlink" x="0px" y="0px"
	 viewBox="-7 9 32 32" style="enable-background:new -7 9 32 32;" xml:space="preserve">
<g>
	<circle cx="6" cy="25" r="1"/>
	<circle cx="12" cy="25" r="1"/>
	<ellipse cx="9" cy="34" rx="2" ry="1"/>
	<path d="M22,31v-2l-2.117,0C19.953,28.696,20,28.36,20,28c0-2.983-1.173-4.803-2.173-5.823C18.925,21.388,20,20.037,20,18
		c0-4.52-3.233-5.9-4.942-5.999L14.4,11.964l-1.691,3.382c-0.235-0.106-0.475-0.186-0.721-0.24c-1.275-0.28-2.347,0.226-2.988,0.668
		c-0.641-0.443-1.704-0.948-2.989-0.668c-0.245,0.054-0.485,0.134-0.72,0.24L3.6,11.964l-0.658,0.038C1.233,12.1-2,13.48-2,18
		c0,2.037,1.075,3.388,2.173,4.177C-0.827,23.197-2,25.017-2,28c0,0.36,0.047,0.696,0.116,1H-4v2h7.01
		c0.018,0.322,0.054,0.703,0.115,1.115l-6.266,0.895l0.283,1.98l6.47-0.924c0.293,0.811,0.715,1.616,1.346,2.288
		C5.985,37.446,7.345,38,9,38s3.016-0.554,4.043-1.646c0.631-0.671,1.053-1.477,1.346-2.288l6.47,0.924l0.283-1.98l-6.266-0.895
		c0.061-0.411,0.097-0.793,0.114-1.115H22z M15.558,14.121C16.466,14.393,18,15.26,18,18c0,1.387-0.785,2.186-1.435,2.615
		c-0.657-1.75-1.406-3.092-2.244-4.021L15.558,14.121z M2.442,14.12l1.237,2.475c-0.837,0.929-1.587,2.271-2.244,4.02
		C0.784,20.184,0,19.386,0,18C0,15.257,1.538,14.391,2.442,14.12z M13.002,30.06c0.002,0.032,0.168,3.245-1.421,4.929
		C10.938,35.669,10.095,36,9,36c-1.094,0-1.938-0.331-2.582-1.012c-1.588-1.684-1.422-4.896-1.42-4.929L5.06,29H0.207
		C0.102,28.74,0,28.388,0,28c0-3.794,2.351-5.056,2.442-5.103l0.379-0.187l0.13-0.402c1.357-4.184,2.76-5.083,3.475-5.246
		c0.951-0.215,1.754,0.613,1.756,0.615L8.479,18h1.042l0.297-0.322c0.008-0.008,0.794-0.826,1.743-0.618
		c0.718,0.157,2.126,1.048,3.488,5.249l0.13,0.402l0.379,0.187C15.582,22.909,18,24.145,18,28c0,0.388-0.103,0.741-0.207,1.001
		l-4.852,0.001L13.002,30.06z"/>
</g>
</svg>
