<?xml version="1.0" encoding="iso-8859-1"?>
<!-- Generator: Adobe Illustrator 19.1.1, SVG Export Plug-In . SVG Version: 6.00 Build 0)  -->
<svg version="1.1" id="Layer_1" xmlns="http://www.w3.org/2000/svg" xmlns:xlink="http://www.w3.org/1999/xlink" x="0px" y="0px"
	 viewBox="0 0 32 32" style="enable-background:new 0 0 32 32;" xml:space="preserve">
<circle cx="20" cy="15" r="1"/>
<path style="fill:none;stroke:#000000;stroke-width:2;stroke-miterlimit:10;" d="M13,29c0,0-0.167-5.667,3-7
	c3.625-1.5,7.958,1.75,7.958,1.75S29,19.583,29,19s-6-5-6-5l-1-2l-5-2l-0.708-6.458c0,0-4.292,2.292-4.292,7.458
	c-4.667,2.375-9,7-9,7S2.958,29,13,29z"/>
<polygon points="27,17 25,19 27,21 28,19 "/>
<path style="fill:none;stroke:#000000;stroke-width:2;stroke-miterlimit:10;" d="M19,11l0.792-6.625c0,0-2.167,0.542-3.25,2.25"/>
</svg>
