<?xml version="1.0" encoding="iso-8859-1"?>
<!-- Generator: Adobe Illustrator 19.1.0, SVG Export Plug-In . SVG Version: 6.00 Build 0)  -->
<svg version="1.1" id="Layer_1" xmlns="http://www.w3.org/2000/svg" xmlns:xlink="http://www.w3.org/1999/xlink" x="0px" y="0px"
	 viewBox="0 0 32 32" style="enable-background:new 0 0 32 32;" xml:space="preserve">
<path style="fill:none;stroke:#000000;stroke-width:2;stroke-miterlimit:10;" d="M15.045,20.798l-0.317,1.048
	c-0.504,1.665-2.263,2.606-3.928,2.101l0,0c-1.665-0.504-2.606-2.263-2.101-3.928l0.317-1.048"/>
<line style="fill:none;stroke:#000000;stroke-width:2;stroke-miterlimit:10;" x1="3" y1="3" x2="29" y2="29"/>
<g>
	<polygon points="15.674,19.874 6.291,17.018 4,16.975 4,12.975 6,12.975 8.131,12.331 6.559,10.759 5.851,10.975 2,10.975 
		2,18.975 5.851,18.975 18.679,22.879 	"/>
	<polygon points="8.727,10.099 10.302,11.674 28,6.324 28,23.625 19.739,21.111 22.744,24.116 30,26.324 30,3.625 	"/>
</g>
</svg>
