<?xml version="1.0" encoding="iso-8859-1"?>
<!-- Generator: Adobe Illustrator 19.1.1, SVG Export Plug-In . SVG Version: 6.00 Build 0)  -->
<svg version="1.1" id="Layer_1" xmlns="http://www.w3.org/2000/svg" xmlns:xlink="http://www.w3.org/1999/xlink" x="0px" y="0px"
	 viewBox="0 0 32 32" style="enable-background:new 0 0 32 32;" xml:space="preserve">
<rect x="5" y="6" style="fill:none;stroke:#000000;stroke-width:2;stroke-miterlimit:10;" width="14" height="19"/>
<path d="M12,11c0,0-4,3-4,5c0,1.105,0.895,2,2,2s2-0.895,2-2c0,1.105,0.895,2,2,2s2-0.895,2-2C16,13.958,12,11,12,11z"/>
<polygon points="12,16 11,20 13,20 "/>
<path d="M14.99,10.323h0.99L16.19,11H17l-1-3h-1l-1,3h0.781L14.99,10.323z M15.308,9.274l0.164-0.548h0.023l0.161,0.552l0.149,0.5
	h-0.646L15.308,9.274z"/>
<path d="M22.284,12.758l0.946,0.293l0,0.709L24.003,14l-0.066-3.162l-0.955-0.296l-1.844,2.569l0.746,0.231L22.284,12.758z
	 M22.898,11.85l0.319-0.475l0.022,0.007l-0.01,0.575l-0.006,0.522l-0.617-0.191L22.898,11.85z"/>
<path d="M7.781,20H7l1,3h1l1-3H9.19l-0.21,0.677H7.99L7.781,20z M8.159,21.222h0.646l-0.149,0.5l-0.161,0.552H8.472l-0.164-0.548
	L8.159,21.222z"/>
<polygon points="21,6.998 21,9.084 25.534,10.432 21,27 21,27 15.713,27 22.458,28.992 27.966,9.068 "/>
</svg>
