<?xml version="1.0" encoding="utf-8"?>
<!-- Generator: Adobe Illustrator 18.1.1, SVG Export Plug-In . SVG Version: 6.00 Build 0)  -->
<svg version="1.1" id="Layer_1" xmlns="http://www.w3.org/2000/svg" xmlns:xlink="http://www.w3.org/1999/xlink" x="0px" y="0px"
	 viewBox="0 0 32 32" enable-background="new 0 0 32 32" xml:space="preserve">
<polyline fill="none" stroke="#000000" stroke-width="2" stroke-miterlimit="10" points="6,15 6,25 26,25 26,15 "/>
<polyline fill="none" stroke="#000000" stroke-width="2" stroke-miterlimit="10" points="9,15 9,22 23,22 23,15 "/>
<path fill="none" stroke="#000000" stroke-width="2" stroke-miterlimit="10" d="M29,5H12c-1.1,0-2,0.9-2,2v5"/>
<path fill="none" stroke="#000000" stroke-width="2" stroke-miterlimit="10" d="M8,9H6c-1.1,0-2,1.3-2,3s0.9,3,2,3h20
	c1.1,0,2-1.3,2-3s-0.9-3-2-3h-2"/>
<line fill="none" stroke="#000000" stroke-width="2" stroke-miterlimit="10" x1="13" y1="12" x2="13" y2="5"/>
<line fill="none" stroke="#000000" stroke-width="2" stroke-miterlimit="10" x1="16" y1="12" x2="16" y2="5"/>
<line fill="none" stroke="#000000" stroke-width="2" stroke-miterlimit="10" x1="18" y1="28" x2="18" y2="25"/>
<line fill="none" stroke="#000000" stroke-width="2" stroke-miterlimit="10" x1="22" y1="28" x2="22" y2="25"/>
<line fill="none" stroke="#000000" stroke-width="2" stroke-miterlimit="10" x1="26" y1="28" x2="26" y2="25"/>
<line fill="none" stroke="#000000" stroke-width="2" stroke-miterlimit="10" x1="6" y1="28" x2="6" y2="25"/>
<line fill="none" stroke="#000000" stroke-width="2" stroke-miterlimit="10" x1="10" y1="28" x2="10" y2="25"/>
<line fill="none" stroke="#000000" stroke-width="2" stroke-miterlimit="10" x1="14" y1="28" x2="14" y2="25"/>
<line fill="none" stroke="#000000" stroke-width="2" stroke-miterlimit="10" x1="19" y1="12" x2="19" y2="5"/>
<path fill="none" stroke="#000000" stroke-width="2" stroke-miterlimit="10" d="M22,12V7c0-1.1,0.9-2,2-2h1"/>
</svg>
