<?xml version="1.0" encoding="iso-8859-1"?>
<!-- Generator: Adobe Illustrator 19.1.0, SVG Export Plug-In . SVG Version: 6.00 Build 0)  -->
<svg version="1.1" id="Layer_1" xmlns="http://www.w3.org/2000/svg" xmlns:xlink="http://www.w3.org/1999/xlink" x="0px" y="0px"
	 viewBox="0 0 32 32" style="enable-background:new 0 0 32 32;" xml:space="preserve">
<path style="fill:none;stroke:#000000;stroke-width:2;stroke-linecap:round;stroke-linejoin:round;stroke-miterlimit:10;" d="
	M26.369,22.552c-0.118,0.873-0.774,1.563-1.624,1.7C22.907,24.549,19.527,25,16,25s-6.907-0.451-8.745-0.748
	c-0.85-0.137-1.506-0.827-1.624-1.7L4.019,10.668c-0.134-0.986,0.454-1.925,1.39-2.197C7.452,7.879,11.278,7,16,7
	s8.548,0.879,10.591,1.472c0.935,0.271,1.524,1.21,1.39,2.197L26.369,22.552z"/>
<path style="fill:none;stroke:#000000;stroke-width:2;stroke-linecap:round;stroke-linejoin:round;stroke-miterlimit:10;" d="
	M22.049,19.64c-0.069,0.485-0.452,0.868-0.947,0.944C20.029,20.749,18.057,21,16,21s-4.029-0.251-5.101-0.415
	c-0.496-0.076-0.878-0.46-0.947-0.944l-0.94-6.602c-0.078-0.548,0.265-1.07,0.811-1.22C11.014,11.488,13.246,11,16,11
	s4.986,0.488,6.178,0.818c0.546,0.151,0.889,0.672,0.811,1.22L22.049,19.64z"/>
<circle cx="14" cy="17" r="1"/>
<circle cx="18" cy="17" r="1"/>
</svg>
