<?xml version="1.0" encoding="iso-8859-1"?>
<!-- Generator: Adobe Illustrator 19.1.1, SVG Export Plug-In . SVG Version: 6.00 Build 0)  -->
<svg version="1.1" id="Layer_1" xmlns="http://www.w3.org/2000/svg" xmlns:xlink="http://www.w3.org/1999/xlink" x="0px" y="0px"
	 viewBox="0 0 32 32" style="enable-background:new 0 0 32 32;" xml:space="preserve">
<g>
	<path d="M7.011,22.04c-0.237-0.95-1.177-5.099-1.504-7.061c-0.132-0.791-0.222-1.678-0.222-2.802c0-3.583,1.849-5.712,3.049-6.717
		H5.642C4.735,5.46,4,6.195,4,7.102v17.796c0,0.907,0.735,1.642,1.642,1.642h3.72C7.766,24.792,7.067,22.264,7.011,22.04z"/>
	<path d="M26.358,5.46h-4.209c1.614,1.45,2.516,3.937,2.516,3.937l-6.419,1.349c0,0-0.928-2.126-3.107-2.126
		c-1.186,0-3.352,0.85-3.352,2.985c0,1.384,0.474,4.274,1.115,7.032c0.776,3.341,1.629,5.07,3.791,5.07
		c3.555,0,3.516-3.516,3.516-3.516l6.451-1.427c0,0,0.009,0.633,0.009,1.55c0,3.109-2.043,5.547-2.677,6.228h2.367
		c0.907,0,1.642-0.735,1.642-1.642V7.102C28,6.195,27.265,5.46,26.358,5.46z"/>
</g>
</svg>
