<?xml version="1.0" encoding="iso-8859-1"?>
<!-- Generator: Adobe Illustrator 19.2.0, SVG Export Plug-In . SVG Version: 6.00 Build 0)  -->
<svg version="1.1" id="Layer_1" xmlns="http://www.w3.org/2000/svg" xmlns:xlink="http://www.w3.org/1999/xlink" x="0px" y="0px"
	 viewBox="0 0 32 32" style="enable-background:new 0 0 32 32;" xml:space="preserve">
<path style="fill:none;stroke:#000000;stroke-width:2;stroke-miterlimit:10;" d="M18.856,5C21.817,5,26,7.6,26,15.456
	C26,22.257,22.941,26,19.306,26C18.043,26,15,24.999,15,21.728C15,20.091,16.004,19,16.004,19s-0.981-1.817-0.981-3.555
	C15.024,13.284,16,12,16,12s-1-1.606-1-3.43C15,6.301,16.966,5,18.856,5z"/>
<path d="M15.445,19C13.291,19,13,19.762,13,28h-2c0-5.99-1-8.375-1-11.034C10,11.126,15.152,11,15.152,11L15.445,19z"/>
</svg>
