<?xml version="1.0" encoding="iso-8859-1"?>
<!-- Generator: Adobe Illustrator 19.1.1, SVG Export Plug-In . SVG Version: 6.00 Build 0)  -->
<svg version="1.1"  xmlns="http://www.w3.org/2000/svg" xmlns:xlink="http://www.w3.org/1999/xlink" x="0px" y="0px"
	 viewBox="0 0 32 32" style="enable-background:new 0 0 32 32;" xml:space="preserve">
<circle style="fill:none;stroke:#000000;stroke-width:2;stroke-miterlimit:10;" cx="16" cy="9" r="2"/>
<line style="fill:none;stroke:#000000;stroke-width:2;stroke-miterlimit:10;" x1="4" y1="21" x2="12" y2="21"/>
<path d="M9.406,9.171l4.313,0.386l0.232-1.986L7.289,6.91l-0.31,1.007l4.017,13.222C10.963,21.847,10.645,24,8,24
	c-2.649,0-2.965-2.161-2.997-2.86l2.228-7.239l-1.04-3.421L3.044,20.706L3,20.991c-0.001,0.089-0.003,2.201,1.449,3.665
	C5.333,25.548,6.527,26,8,26s2.667-0.452,3.551-1.344c1.452-1.464,1.45-3.576,1.449-3.665L9.406,9.171z"/>
<line style="fill:none;stroke:#000000;stroke-width:2;stroke-miterlimit:10;" x1="20" y1="23" x2="28" y2="23"/>
<line style="fill:none;stroke:#000000;stroke-width:2;stroke-miterlimit:10;" x1="16" y1="7" x2="16" y2="4"/>
<path d="M24.765,9.085L18.12,8.403l-0.24,1.986l5.341,0.507l3.775,12.242C26.963,23.847,26.645,26,24,26
	c-2.649,0-2.965-2.161-2.997-2.86l2.2-7.15l-1.041-3.418l-3.118,10.134L19,22.991c-0.001,0.089-0.003,2.201,1.449,3.665
	C21.333,27.548,22.527,28,24,28s2.667-0.452,3.551-1.344c1.452-1.464,1.45-3.576,1.449-3.665L24.765,9.085z"/>
</svg>
