<?xml version="1.0" encoding="iso-8859-1"?>
<!-- Generator: Adobe Illustrator 19.1.1, SVG Export Plug-In . SVG Version: 6.00 Build 0)  -->
<svg version="1.1" id="Layer_1" xmlns="http://www.w3.org/2000/svg" xmlns:xlink="http://www.w3.org/1999/xlink" x="0px" y="0px"
	 viewBox="0 0 32 32" style="enable-background:new 0 0 32 32;" xml:space="preserve">
<rect x="1" y="12" style="fill:none;stroke:#000000;stroke-width:2;stroke-miterlimit:10;" width="30" height="14"/>
<polyline style="fill:none;stroke:#000000;stroke-width:2;stroke-miterlimit:10;" points="27.227,12.105 16,6 4.773,12.105 "/>
<path id="XMLID_7_" style="fill:none;stroke:#000000;stroke-width:2;stroke-miterlimit:10;" d="M9,18v2.5C9,21.328,8.328,22,7.5,22
	h0C6.672,22,6,21.328,6,20.5v-3C6,16.672,6.672,16,7.5,16h0C8.328,16,9,16.672,9,17.5V19"/>
<polyline id="XMLID_4_" style="fill:none;stroke:#000000;stroke-width:2;stroke-miterlimit:10;" points="21,22 18,22 18,16 21,16 
	"/>
<line id="XMLID_3_" style="fill:none;stroke:#000000;stroke-width:2;stroke-miterlimit:10;" x1="18" y1="19" x2="21" y2="19"/>
<path id="XMLID_224_" style="fill:none;stroke:#000000;stroke-width:2;stroke-miterlimit:10;" d="M12,23v-7h1c1.105,0,2,0.895,2,2v0
	c0,1.105-0.895,2-2,2h-1"/>
<line id="XMLID_199_" style="fill:none;stroke:#000000;stroke-width:2;stroke-miterlimit:10;" x1="23" y1="15" x2="23" y2="23"/>
<line id="XMLID_200_" style="fill:none;stroke:#000000;stroke-width:2;stroke-miterlimit:10;" x1="26" y1="15" x2="26" y2="23"/>
<line id="XMLID_201_" style="fill:none;stroke:#000000;stroke-width:2;stroke-miterlimit:10;" x1="23" y1="17" x2="26" y2="21"/>
</svg>
