<?xml version="1.0" encoding="iso-8859-1"?>
<!-- Generator: Adobe Illustrator 19.1.0, SVG Export Plug-In . SVG Version: 6.00 Build 0)  -->
<svg version="1.1" id="Layer_1" xmlns="http://www.w3.org/2000/svg" xmlns:xlink="http://www.w3.org/1999/xlink" x="0px" y="0px"
	 viewBox="0 0 32 32" style="enable-background:new 0 0 32 32;" xml:space="preserve">
<path style="fill:none;stroke:#000000;stroke-width:2;stroke-miterlimit:10;" d="M16,21.176L10.824,16l3.882-3.882
	c1.429-1.429,3.747-1.429,5.176,0l0,0c1.429,1.429,1.429,3.747,0,5.176L16,21.176z"/>
<line style="fill:none;stroke:#000000;stroke-width:2;stroke-miterlimit:10;" x1="14.286" y1="24.28" x2="7.72" y2="17.714"/>
<rect x="17.248" y="19.078" transform="matrix(0.7071 0.7071 -0.7071 0.7071 21.8235 -9.0396)" style="fill:none;stroke:#000000;stroke-width:2;stroke-miterlimit:10;" width="9.151" height="5.49"/>
<rect x="5.601" y="7.431" transform="matrix(0.7071 0.7071 -0.7071 0.7071 10.1765 -4.2152)" style="fill:none;stroke:#000000;stroke-width:2;stroke-miterlimit:10;" width="9.151" height="5.49"/>
<g>
	<path d="M21.65,10.35c0.419,0.419,0.738,0.894,1.01,1.389c2.112-1.297,4.348-2.403,6.689-3.278L28.65,6.588
		c-2.537,0.948-4.959,2.149-7.238,3.568C21.489,10.225,21.576,10.276,21.65,10.35z"/>
	<path d="M8.839,22.368C7.53,24.336,6.377,26.415,5.422,28.6L7.254,29.4c0.854-1.953,1.873-3.819,3.026-5.591L8.839,22.368z"/>
</g>
</svg>
