<?xml version="1.0" encoding="iso-8859-1"?>
<!-- Generator: Adobe Illustrator 19.1.1, SVG Export Plug-In . SVG Version: 6.00 Build 0)  -->
<svg version="1.1" id="Layer_1" xmlns="http://www.w3.org/2000/svg" xmlns:xlink="http://www.w3.org/1999/xlink" x="0px" y="0px"
	 viewBox="0 0 32 32" style="enable-background:new 0 0 32 32;" xml:space="preserve">
<path style="fill:none;stroke:#000000;stroke-width:2;stroke-miterlimit:10;" d="M24.662,13C25.513,14.471,26,16.178,26,18
	c0,5.523-4.477,10-10,10S6,23.523,6,18c0-1.821,0.487-3.529,1.338-5"/>
<path style="fill:none;stroke:#000000;stroke-width:2;stroke-miterlimit:10;" d="M15,20c0-1.105,0.895-2,2-2s6,2,6,2s-4.895,2-6,2
	S15,21.105,15,20z"/>
<path style="fill:none;stroke:#000000;stroke-width:2;stroke-miterlimit:10;" d="M20.536,23.536c-1.953,1.953-5.118,1.953-7.071,0"
	/>
<circle cx="13" cy="16" r="1"/>
<circle cx="20" cy="16" r="1"/>
<path style="fill:none;stroke:#000000;stroke-width:1.9769;stroke-linecap:round;stroke-linejoin:round;stroke-miterlimit:10;" d="
	M24,8.764c2.455,0.549,4,1.348,4,2.236c0,1.657-5.373,3-12,3S4,12.657,4,11c0-0.888,1.545-1.687,4-2.236"/>
<path style="fill:none;stroke:#000000;stroke-width:2;stroke-miterlimit:10;" d="M8,8c0,1.105,3.582,2,8,2s8-0.895,8-2V6
	c0-1.105-3.582-2-8-2S8,4.895,8,6V8z"/>
</svg>
