<svg xmlns="http://www.w3.org/2000/svg" fill-rule="evenodd" stroke-linejoin="round" stroke-miterlimit="2" clip-rule="evenodd" viewBox="0 0 400 400"><defs/><path fill="none" d="M0 0h400v400H0z"/><path fill="#f44336" d="M187.167 113.32c7.091-11.474 18.606-11.446 25.681 0l87.906 142.221c9.467 15.317 2.571 27.734-15.394 27.734H114.655c-17.97 0-24.892-12.367-15.395-27.734l87.907-142.221z"/><path fill="#fff" d="M200.011 155.052c-5.042 0-9.129 4.136-9.129 9.103v54.833a9.094 9.094 0 009.129 9.103c5.043 0 9.13-4.136 9.13-9.103v-54.833a9.093 9.093 0 00-9.13-9.103zm0 109.558a9.13 9.13 0 009.13-9.13 9.129 9.129 0 00-9.13-9.129 9.129 9.129 0 00-9.129 9.129 9.129 9.129 0 009.129 9.13z"/></svg>