<?xml version="1.0" encoding="iso-8859-1"?>
<!-- Generator: Adobe Illustrator 19.1.0, SVG Export Plug-In . SVG Version: 6.00 Build 0)  -->
<svg version="1.1" id="Layer_1" xmlns="http://www.w3.org/2000/svg" xmlns:xlink="http://www.w3.org/1999/xlink" x="0px" y="0px"
	 viewBox="0 0 32 32" style="enable-background:new 0 0 32 32;" xml:space="preserve">
<g id="XMLID_6749_">
	<path id="XMLID_6750_" style="fill:none;stroke:#000000;stroke-width:2;stroke-miterlimit:10;" d="M20,10
		c-1.539,0-2.938,0.55-4,1.446C14.938,10.55,13.539,10,12,10c-3.314,0-6,2.528-6,5.647C6,22.235,11.791,26,14,26
		c0.439,0,0.859-0.072,1.252-0.199c0.49-0.159,1.006-0.159,1.496,0C17.141,25.928,17.561,26,18,26c2.209,0,8-4.706,8-10.353
		C26,12.528,23.314,10,20,10L20,10z"/>
</g>
<path id="XMLID_6753_" style="fill:none;stroke:#000000;stroke-width:2;stroke-miterlimit:10;" d="M16,11c-0.032-4.262,3-6,3-6"/>
<path style="fill:none;stroke:#000000;stroke-width:2;stroke-miterlimit:10;" d="M14.16,6.142c1.71,1.364,2.039,3.797,2.039,3.797
	s-2.445,0.222-4.155-1.142S10.005,5,10.005,5S12.45,4.778,14.16,6.142z"/>
</svg>
