<?xml version="1.0" encoding="iso-8859-1"?>
<!-- Generator: Adobe Illustrator 19.1.1, SVG Export Plug-In . SVG Version: 6.00 Build 0)  -->
<svg version="1.1"  xmlns="http://www.w3.org/2000/svg" xmlns:xlink="http://www.w3.org/1999/xlink" x="0px" y="0px"
	 viewBox="0 0 32 32" style="enable-background:new 0 0 32 32;" xml:space="preserve">
<g>
	<path d="M15.383,6.11c0.034,0.314,0.14,0.619,0.31,0.886l0,0c0.538,0.845,1.346,1.41,1.996,1.864
		c0.164,0.114,0.323,0.224,0.466,0.335c0.088,0.079,0.184,0.159,0.282,0.238c0.03,0.024,0.06,0.047,0.063,0.047
		c0.093,0.093,0.195,0.177,0.305,0.25c0.435,0.29,0.937,0.444,1.452,0.444c0.291,0,0.585-0.049,0.875-0.145
		c0.295-0.098,0.562-0.264,0.782-0.483l0.065-0.065l0.13-0.13c0.028-0.028,0.054-0.056,0.08-0.085
		c0.057-0.065,0.112-0.131,0.163-0.199c0.215,0.497,0.512,0.977,0.932,1.365c0.268,0.259,0.588,0.477,0.926,0.634
		c0.047,0.055,0.119,0.15,0.175,0.225c0.092,0.122,0.197,0.263,0.327,0.415c0.088,0.283,0.256,0.671,0.608,1.023
		c0.135,0.135,0.286,0.251,0.45,0.345c0.218,0.575,0.54,0.948,0.749,1.191c0.037,0.043,0.077,0.084,0.103,0.121
		c0.052,0.09,0.11,0.176,0.175,0.257c0.027,0.033,0.03,0.038,0.044,0.119c0.028,0.167,0.076,0.326,0.141,0.476
		c0.028,0.178,0.03,0.458-0.041,0.637c-0.099,0.264-0.167,0.511-0.228,0.729c-0.06,0.218-0.123,0.444-0.18,0.537
		c-0.034,0.054-0.065,0.109-0.093,0.165l-0.455,0.909l-0.13,0.26c-0.056,0.112-0.122,0.215-0.187,0.32
		c-0.152,0.249-0.342,0.558-0.512,0.955c-0.033,0.078-0.062,0.157-0.085,0.238c-0.073,0.257-0.107,0.496-0.118,0.709
		c-0.468,0.337-0.74,0.796-0.869,1.021c-0.15,0.007-0.366,0.013-0.67,0.013c-0.246,0-0.485-0.003-0.686-0.006
		c-0.109-0.002-0.208-0.003-0.294-0.004c-0.042-0.009-0.091-0.019-0.148-0.029c-0.027-0.008-0.053-0.016-0.08-0.024
		c-0.067-0.19-0.163-0.417-0.309-0.654c-0.11-0.193-0.234-0.353-0.348-0.486c-0.078-0.382-0.266-0.736-0.546-1.015
		c-0.051-0.051-0.133-0.133-0.245-0.223c0.034-0.211,0.051-0.424,0.051-0.636c0-0.809-0.487-1.538-1.235-1.848
		c-0.247-0.103-0.507-0.152-0.765-0.152c-0.489,0-0.97,0.179-1.344,0.519c-0.879-0.75-2.081-1.168-3.463-1.168
		c-0.594,0-1.193,0.079-1.781,0.235c-0.043,0.004-0.092,0.006-0.151,0.006c-0.114,0-0.227-0.006-0.339-0.012
		c-0.178-0.009-0.357-0.017-0.539-0.017c-0.33,0-0.633,0.026-0.926,0.079c-0.093,0.017-0.185,0.04-0.275,0.07l-0.07,0.022
		c-0.315,0.1-0.842,0.266-1.297,0.721c-0.059,0.059-0.112,0.119-0.161,0.179c-0.146-0.008-0.292-0.014-0.438-0.014
		c-0.257,0-0.492,0.018-0.719,0.056c-0.021,0.004-0.042,0.007-0.063,0.012c-0.431,0.086-0.857,0.234-1.361,0.474
		c-0.02,0.006-0.04,0.012-0.061,0.019c0.057-1.097-0.07-2.202-0.608-3.417c0.18-0.488,0.21-1.034,0.075-1.575
		c-0.059-0.234-0.116-0.426-0.175-0.606c0.686-0.358,1.238-0.593,1.943-0.83l0.034-0.01c0.565-0.16,1.418-0.402,2.153-1.137
		c0.234-0.234,0.453-0.544,0.653-0.927c0.02-0.006,0.039-0.012,0.058-0.018c0.09-0.03,0.177-0.066,0.262-0.109
		c0.525-0.262,0.783-0.621,0.922-0.814c0.03-0.042,0.071-0.1,0.136-0.18c0.125-0.157,0.222-0.303,0.299-0.43
		c0.373,0.203,0.881,0.417,1.502,0.417c0.194,0,0.389-0.021,0.578-0.063c0.681-0.151,1.234-0.647,1.459-1.307
		c0.076-0.224,0.111-0.455,0.107-0.684C15.277,6.135,15.33,6.124,15.383,6.11 M21.732,3c-0.39,0.65-0.325,1.624-0.39,2.403
		c-0.065,0.779-0.13,1.949-0.65,2.533c-0.065,0.065-0.13,0.13-0.195,0.195c-0.081,0.027-0.161,0.043-0.242,0.043
		c-0.114,0-0.228-0.032-0.342-0.108c-0.13-0.13-0.325-0.26-0.455-0.39c-0.65-0.52-1.624-1.039-2.079-1.754
		c-0.065-0.065,0.195-0.065,0.26-0.13c0.13-0.065,0.13-0.325,0-0.39c-0.065,0-0.195-0.065-0.195-0.13c0-0.13,0.065-0.195,0.195-0.26
		c0.195-0.065,0.39-0.065,0.52-0.13c0.195-0.13,0.26-0.325,0.195-0.455c-0.065-0.065-0.195-0.13-0.325-0.13
		c-0.52-0.065-1.234,0-1.754-0.13c-0.355-0.178-0.71-0.463-1.066-0.463c-0.034,0-0.069,0.003-0.104,0.008
		c-0.065,0-0.13,0-0.13,0.065c-0.065,0.065,0.065,0.195,0,0.325c-0.025,0.05-0.069,0.071-0.12,0.071
		c-0.084,0-0.189-0.055-0.269-0.136c-0.056-0.112-0.209-0.273-0.333-0.273c-0.02,0-0.039,0.004-0.056,0.013
		c-0.195,0-0.195,0.195-0.195,0.39c0,0.13,0,0.455-0.195,0.455c-0.714,0.325-0.909,1.169-0.585,1.559
		c-0.049,0.011-0.097,0.016-0.144,0.016c-0.527,0-1.014-0.606-1.609-0.665c-0.39,0-0.779,0.195-1.039,0.455
		c-0.39,0.325-0.455,0.65-0.714,0.974c-0.26,0.325-0.26,0.39-0.39,0.455C9.313,7.421,9.3,7.423,9.288,7.423
		c-0.173,0-0.283-0.405-0.222-0.526C9.036,6.868,9.001,6.855,8.962,6.855c-0.133,0-0.3,0.151-0.351,0.302
		c0,0.13-0.065,0.26-0.13,0.39c-0.13,0.39-0.39,1.039-0.65,1.299c-0.39,0.39-0.909,0.52-1.364,0.65
		C5.493,9.82,4.779,10.145,3.934,10.6c-0.26,0.13-0.455,0.26-0.65,0.455c-0.39,0.455-0.325,1.104-0.13,1.624
		c0.065,0.195,0.13,0.39,0.195,0.65c0.065,0.26,0,0.455-0.13,0.585c-0.39,0.39-0.065,0.844-0.065,0.844
		c0.844,1.559,0.779,2.793,0.455,4.677c-0.04-0.02-0.084-0.029-0.128-0.029c-0.242,0-0.512,0.275-0.457,0.549
		c0,0.26,0.325,0.52,0.65,0.585c0.065,0,0.13,0,0.325,0c0.844,0,1.819-0.65,2.598-0.844c0.39-0.195,0.714-0.325,1.039-0.39
		c0.13-0.022,0.26-0.029,0.39-0.029c0.26,0,0.52,0.029,0.779,0.029c0.39,0,0.844-0.13,1.039-0.455c0.065-0.13,0.13-0.26,0.195-0.325
		c0.13-0.13,0.39-0.195,0.585-0.26c0.197-0.036,0.385-0.047,0.568-0.047c0.296,0,0.581,0.029,0.877,0.029
		c0.183,0,0.371-0.011,0.568-0.047c0.455-0.13,0.909-0.195,1.364-0.195c1.169,0,2.338,0.455,2.793,1.559
		c0.065,0.13,0.13,0.325,0.26,0.39c0.046,0.012,0.09,0.017,0.132,0.017c0.197,0,0.357-0.116,0.517-0.277
		c0.39-0.39,0.715-0.65,1.104-1.039c0,0.585-0.26,1.169-0.65,1.559c-0.065,0.065-0.065,0.13-0.13,0.195
		c-0.26,0.195-0.325,0.65-0.325,0.844c0.325,0,0.65-0.065,0.909-0.195c0.214-0.16,0.428-0.277,0.641-0.277
		c0.046,0,0.092,0.005,0.138,0.017c0.065,0,0.13,0.065,0.195,0.13c0,0.065,0,0.195,0,0.26c0,0.26,0.455,0.585,0.585,0.844
		c0.26,0.39,0.195,0.844,0.585,1.169c0.325,0.26,0.715,0.325,1.104,0.455c0.13,0,0.26,0.065,0.455,0.065
		c0.234,0,0.655,0.01,1.096,0.01c0.663,0,1.372-0.023,1.567-0.14c0.26-0.13,0.39-0.325,0.585-0.52c0.195-0.13,0.39-0.779,0.65-0.779
		c0.138,0.046,0.276,0.092,0.413,0.092c0.057,0,0.114-0.008,0.171-0.027c0.13-0.13,0.195-0.325,0.195-0.52
		c0.065-0.52-0.13-0.844,0-1.299c0.195-0.455,0.455-0.779,0.65-1.169s0.39-0.779,0.585-1.169c0.325-0.52,0.39-1.104,0.585-1.624
		c0.39-0.974,0.065-2.143,0-2.143c-0.065-0.39-0.195-0.715-0.455-1.039c-0.26-0.455-0.65-0.65-0.779-1.234c0-0.26,0-0.65-0.26-0.779
		c-0.044-0.015-0.092-0.019-0.14-0.019c-0.087,0-0.177,0.015-0.257,0.015c-0.074,0-0.139-0.013-0.187-0.061
		c-0.13-0.13-0.13-0.325-0.195-0.52c0-0.065-0.065-0.13-0.13-0.195c-0.455-0.455-0.65-0.974-1.234-1.299
		c-0.195-0.065-0.39-0.195-0.52-0.325c-0.585-0.52-0.779-1.689-0.909-2.403c0-0.13-0.13-0.779-0.325-0.779
		c0-0.065-0.065-0.13-0.13-0.195c-0.041-0.027-0.085-0.038-0.131-0.038c-0.125,0-0.262,0.075-0.388,0.075
		c-0.046,0-0.09-0.01-0.131-0.038c-0.065-0.065-0.13-0.13-0.13-0.26c-0.13-0.52-0.26-1.039-0.455-1.624
		C21.991,3.52,21.861,3.13,21.732,3L21.732,3z M24.805,25.402c-0.13,0-0.13,0.13-0.26,0.195h-0.325
		c-0.11,0.055-0.231,0.075-0.354,0.075c-0.168,0-0.34-0.038-0.49-0.075c-0.26-0.065-0.52-0.195-0.779-0.195c-0.065,0-0.065,0-0.13,0
		c-0.065,0.065-0.065,0.13-0.065,0.195c0.13,0.325,0.26,0.65,0.455,0.974c0.26,0.52,0.52,0.974,1.039,1.364
		C23.961,28,24.026,28,24.091,28c0.13,0,0.325-0.065,0.39-0.13c0.195-0.26,0.195-0.585,0.325-0.909
		c0.065-0.065,0.065-0.13,0.13-0.26C25,26.506,25,26.376,25,26.181c0-0.13,0-0.325,0-0.455C25,25.597,24.935,25.402,24.805,25.402
		L24.805,25.402z"/>
</g>
</svg>
