<?xml version="1.0" encoding="iso-8859-1"?>
<!-- Generator: Adobe Illustrator 19.1.0, SVG Export Plug-In . SVG Version: 6.00 Build 0)  -->
<svg version="1.1" id="Layer_1" xmlns="http://www.w3.org/2000/svg" xmlns:xlink="http://www.w3.org/1999/xlink" x="0px" y="0px"
	 viewBox="0 0 32 32" style="enable-background:new 0 0 32 32;" xml:space="preserve">
<polygon points="27.172,9.172 30,11 27.172,12.828 "/>
<circle cx="22.5" cy="10.5" r="1.5"/>
<line style="fill:none;stroke:#000000;stroke-width:2;stroke-miterlimit:10;" x1="14" y1="24" x2="14" y2="28"/>
<line style="fill:none;stroke:#000000;stroke-width:2;stroke-miterlimit:10;" x1="18" y1="24" x2="18" y2="27"/>
<path style="fill:none;stroke:#000000;stroke-width:2;stroke-miterlimit:10;" d="M17,19c-2.072,0-3.85-1.26-4.608-3.056"/>
<path style="fill:none;stroke:#000000;stroke-width:2;stroke-miterlimit:10;" d="M19,15c0,0-2.167-2-4.717-2
	c-2.186,0-3.773,0.695-4.739,1.56l-2.682-3.353"/>
<path style="fill:none;stroke:#000000;stroke-width:2;stroke-miterlimit:10;" d="M20.324,15.712C18.387,15.023,17,13.174,17,11
	c0-2.761,2.239-5,5-5s5,2.239,5,5c0,2.629-2,4.5-2,4.5c0,4.694-3.806,8.5-8.5,8.5c-4.062,0-7.459-2.849-8.3-6.658L3,12"/>
</svg>
