<?xml version="1.0" encoding="iso-8859-1"?>
<!-- Generator: Adobe Illustrator 19.1.0, SVG Export Plug-In . SVG Version: 6.00 Build 0)  -->
<svg version="1.1" id="Layer_1" xmlns="http://www.w3.org/2000/svg" xmlns:xlink="http://www.w3.org/1999/xlink" x="0px" y="0px"
	 viewBox="0 0 32 32" style="enable-background:new 0 0 32 32;" xml:space="preserve">
<path style="fill:none;stroke:#000000;stroke-width:2;stroke-miterlimit:10;" d="M23,8c-0.768,0-1.486,0.187-2.136,0.496
	C19.774,6.986,18.004,6,16,6s-3.774,0.986-4.864,2.496C10.486,8.187,9.768,8,9,8c-2.761,0-5,2.239-5,5s2.239,5,5,5v8h14v-8
	c2.761,0,5-2.239,5-5S25.761,8,23,8z"/>
<path style="fill:none;stroke:#000000;stroke-width:2;stroke-miterlimit:10;" d="M23,18c-1.51,0-2.864-0.669-3.781-1.728"/>
<path style="fill:none;stroke:#000000;stroke-width:2;stroke-miterlimit:10;" d="M11.329,17.426C10.634,17.792,9.841,18,9,18"/>
</svg>
