<?xml version="1.0" encoding="iso-8859-1"?>
<!-- Generator: Adobe Illustrator 19.1.0, SVG Export Plug-In . SVG Version: 6.00 Build 0)  -->
<svg version="1.1" id="Layer_1" xmlns="http://www.w3.org/2000/svg" xmlns:xlink="http://www.w3.org/1999/xlink" x="0px" y="0px"
	 viewBox="0 0 32 32" style="enable-background:new 0 0 32 32;" xml:space="preserve">
<polyline style="fill:none;stroke:#000000;stroke-width:2;stroke-miterlimit:10;" points="12,17 24.154,17 28,22 29,22 29,9 28,9 
	24.154,14 12.154,14 "/>
<path style="fill:none;stroke:#000000;stroke-width:2;stroke-miterlimit:10;" d="M21.417,14H12c-2.209,0-4,1.791-4,4v1
	c0,2.209,1.791,4,4,4h6c1.657,0,3-1.343,3-3v-0.5c0-1.381-1.119-2.5-2.5-2.5"/>
<line style="fill:none;stroke:#000000;stroke-width:2;stroke-miterlimit:10;" x1="3" y1="18" x2="3" y2="14"/>
<line style="fill:none;stroke:#000000;stroke-width:2;stroke-miterlimit:10;" x1="12" y1="18" x2="12" y2="11"/>
<line style="fill:none;stroke:#000000;stroke-width:2;stroke-miterlimit:10;" x1="15" y1="18" x2="15" y2="11"/>
<line style="fill:none;stroke:#000000;stroke-width:2;stroke-miterlimit:10;" x1="18" y1="18" x2="18" y2="11"/>
<path d="M10,18h3v-2h-1C10.897,16,10,16.897,10,18z"/>
<path d="M6.812,15H3v2h3.09C6.212,16.282,6.459,15.608,6.812,15z"/>
<path style="fill:none;stroke:#000000;stroke-width:2;stroke-miterlimit:10;" d="M15.5,20h-2c-0.828,0-1.5,0.672-1.5,1.5v0
	c0,0.828,0.672,1.5,1.5,1.5h2c0.828,0,1.5-0.672,1.5-1.5v0C17,20.672,16.328,20,15.5,20z"/>
</svg>
