<?xml version="1.0" encoding="iso-8859-1"?>
<!-- Generator: Adobe Illustrator 21.0.0, SVG Export Plug-In . SVG Version: 6.00 Build 0)  -->
<svg version="1.1"  xmlns="http://www.w3.org/2000/svg" xmlns:xlink="http://www.w3.org/1999/xlink" x="0px" y="0px"
	 viewBox="0 0 32 32" style="enable-background:new 0 0 32 32;" xml:space="preserve">
<circle style="fill:none;stroke:#000000;stroke-width:2;stroke-miterlimit:10;" cx="25" cy="27" r="2"/>
<path style="fill:none;stroke:#000000;stroke-width:2;stroke-miterlimit:10;" d="M26.889,27H29v-7.125C29,19.875,27,8,23,8H4.742
	C3.78,8,3,8.926,3,10.068V27h5.571"/>
<line style="fill:none;stroke:#000000;stroke-width:2;stroke-miterlimit:10;" x1="12" y1="27" x2="23" y2="27"/>
<circle style="fill:none;stroke:#000000;stroke-width:2;stroke-miterlimit:10;" cx="10" cy="27" r="2"/>
<polyline style="fill:none;stroke:#000000;stroke-width:2;stroke-miterlimit:10;" points="29,20 7,20 7,16 27.69,16 "/>
<line style="fill:none;stroke:#000000;stroke-width:2;stroke-miterlimit:10;" x1="22.75" y1="16.125" x2="22.75" y2="19.875"/>
<rect x="6" y="11" width="3" height="2"/>
<rect x="10" y="11" width="3" height="2"/>
<rect x="14" y="11" width="3" height="2"/>
<rect x="18" y="11" width="3" height="2"/>
<rect x="22" y="11" width="5" height="2"/>
</svg>
