<?xml version="1.0" encoding="iso-8859-1"?>
<!-- Generator: Adobe Illustrator 19.1.1, SVG Export Plug-In . SVG Version: 6.00 Build 0)  -->
<svg version="1.1" id="Layer_1" xmlns="http://www.w3.org/2000/svg" xmlns:xlink="http://www.w3.org/1999/xlink" x="0px" y="0px"
	 viewBox="0 0 32 32" style="enable-background:new 0 0 32 32;" xml:space="preserve">
<path style="fill:none;stroke:#000000;stroke-width:2;stroke-miterlimit:10;" d="M22.003,12c0,3.314-2.686,6-6,6s-6-2.686-6-6"/>
<path style="fill:none;stroke:#000000;stroke-width:2;stroke-miterlimit:10;" d="M25.003,27c0-4.971-4.029-9-9-9s-9,4.029-9,9"/>
<polyline style="fill:none;stroke:#000000;stroke-width:2;stroke-miterlimit:10;" points="21.003,20 19.003,23 16.003,21 13.003,23 
	10.642,20 "/>
<line style="fill:none;stroke:#000000;stroke-width:2;stroke-miterlimit:10;" x1="10.094" y1="8" x2="12.003" y2="8"/>
<line style="fill:none;stroke:#000000;stroke-width:2;stroke-miterlimit:10;" x1="20.003" y1="8" x2="21.912" y2="8"/>
<line style="fill:none;stroke:#000000;stroke-width:2;stroke-miterlimit:10;" x1="16.003" y1="1" x2="16.003" y2="6.063"/>
<path style="fill:none;stroke:#000000;stroke-width:2;stroke-miterlimit:10;" d="M22.003,8c0-4.774-5.188-5-5.188-5h-0.813h-0.75
	c0,0-5.25,0.262-5.25,5c-2.023,0-2,1.024-2,1.727V11h16V9.727C24.003,9.024,24.213,8,22.003,8z"/>
</svg>
