<?xml version="1.0" encoding="iso-8859-1"?>
<!-- Generator: Adobe Illustrator 19.1.0, SVG Export Plug-In . SVG Version: 6.00 Build 0)  -->
<svg version="1.1" id="Layer_1" xmlns="http://www.w3.org/2000/svg" xmlns:xlink="http://www.w3.org/1999/xlink" x="0px" y="0px"
	 viewBox="0 0 32 32" style="enable-background:new 0 0 32 32;" xml:space="preserve">
<ellipse style="fill:none;stroke:#000000;stroke-width:2;stroke-miterlimit:10;" cx="16" cy="24.5" rx="4" ry="2.5"/>
<path style="fill:none;stroke:#000000;stroke-width:2;stroke-miterlimit:10;" d="M20,24.5c0-0.356,0-2.644,0-3
	c0-1.381-1.791-2.5-4-2.5s-4,1.119-4,2.5c0,0.356,0,2.644,0,3"/>
<path d="M26.537,6.157C26.399,6.069,23.072,4,16,4S5.601,6.069,5.463,6.157L5,6.452v7.984c0,1.886,0.58,3.695,1.677,5.231L10,24.32
	V21.5c0-0.188,0.019-0.372,0.048-0.553l-1.744-2.441C7.451,17.311,7,15.903,7,14.436V7.605C8.071,7.105,11.005,6,16,6
	c4.998,0,7.933,1.107,9,1.605v6.832c0,1.468-0.451,2.875-1.304,4.068l-1.744,2.442C21.981,21.128,22,21.312,22,21.5v2.82
	l3.323-4.652C26.42,18.133,27,16.324,27,14.437V6.452L26.537,6.157z"/>
<path style="fill:none;stroke:#000000;stroke-width:2;stroke-miterlimit:10;" d="M20,15h-2c0,0-0.875-1-2-1s-2,1-2,1h-2
	c-1.105,0-2-0.895-2-2v-2.875c0,0,2.25-1.125,6-1.125s6,1.125,6,1.125V13C22,14.105,21.105,15,20,15z"/>
</svg>
