<?xml version="1.0" encoding="utf-8"?>
<!-- Generator: Adobe Illustrator 18.0.0, SVG Export Plug-In . SVG Version: 6.00 Build 0)  -->
<svg version="1.1" id="Layer_1" xmlns="http://www.w3.org/2000/svg" xmlns:xlink="http://www.w3.org/1999/xlink" x="0px" y="0px"
	 viewBox="0 0 32 32" enable-background="new 0 0 32 32" xml:space="preserve">
<line fill="none" stroke="#000000" stroke-width="2" stroke-miterlimit="10" x1="25" y1="14" x2="28" y2="14"/>
<line fill="none" stroke="#000000" stroke-width="2" stroke-miterlimit="10" x1="4" y1="14" x2="7" y2="14"/>
<line fill="none" stroke="#000000" stroke-width="2" stroke-miterlimit="10" x1="25" y1="20" x2="28" y2="20"/>
<line fill="none" stroke="#000000" stroke-width="2" stroke-miterlimit="10" x1="4" y1="20" x2="7" y2="20"/>
<circle fill="none" stroke="#000000" stroke-width="2" stroke-miterlimit="10" cx="20" cy="16" r="2"/>
<circle fill="none" stroke="#000000" stroke-width="2" stroke-miterlimit="10" cx="12" cy="16" r="2"/>
<path fill="none" stroke="#000000" stroke-width="2" stroke-miterlimit="10" d="M16,21c-1.7,0-3,1.3-3,3s1.3,3,3,3s3-1.3,3-3
	S17.7,21,16,21z"/>
<path fill="none" stroke="#000000" stroke-width="2" stroke-miterlimit="10" d="M13,25h-2c-2.2,0-4-1.8-4-4v-7c0-5,4-9,9-9h0
	c5,0,9,4,9,9v7c0,2.2-1.8,4-4,4h-2"/>
</svg>
