<?xml version="1.0" encoding="iso-8859-1"?>
<!-- Generator: Adobe Illustrator 21.1.0, SVG Export Plug-In . SVG Version: 6.00 Build 0)  -->
<svg version="1.1" id="Layer_1" xmlns="http://www.w3.org/2000/svg" xmlns:xlink="http://www.w3.org/1999/xlink" x="0px" y="0px"
	 viewBox="0 0 32 32" style="enable-background:new 0 0 32 32;" xml:space="preserve">
<line style="fill:none;stroke:#000000;stroke-width:2;stroke-miterlimit:10;" x1="8" y1="21" x2="12" y2="21"/>
<line style="fill:none;stroke:#000000;stroke-width:2;stroke-miterlimit:10;" x1="8" y1="17" x2="12" y2="17"/>
<line style="fill:none;stroke:#000000;stroke-width:2;stroke-miterlimit:10;" x1="8" y1="13" x2="12" y2="13"/>
<line style="fill:none;stroke:#000000;stroke-width:2;stroke-miterlimit:10;" x1="8" y1="9" x2="12" y2="9"/>
<line style="fill:none;stroke:#000000;stroke-width:2;stroke-miterlimit:10;" x1="15" y1="9" x2="19" y2="9"/>
<line style="fill:none;stroke:#000000;stroke-width:2;stroke-miterlimit:10;" x1="15" y1="13" x2="19" y2="13"/>
<polygon style="fill:none;stroke:#000000;stroke-width:2;stroke-miterlimit:10;" points="24.984,24.672 26.641,23.016 
	24.984,21.359 24.984,19.016 22.641,19.016 20.984,17.359 19.328,19.016 16.984,19.016 16.984,21.359 15.328,23.016 16.984,24.672 
	16.984,27.016 19.328,27.016 20.984,28.672 22.641,27.016 24.984,27.016 "/>
<polygon points="13.984,25.915 12.071,24.001 6,24.001 6,6 21,6 21,13.131 23,15.132 23,4 4,4 4,26 13.984,26 "/>
</svg>
