<?xml version="1.0" encoding="iso-8859-1"?>
<!-- Generator: Adobe Illustrator 21.1.0, SVG Export Plug-In . SVG Version: 6.00 Build 0)  -->
<svg version="1.1" id="Layer_1" xmlns="http://www.w3.org/2000/svg" xmlns:xlink="http://www.w3.org/1999/xlink" x="0px" y="0px"
	 viewBox="0 0 32 32" style="enable-background:new 0 0 32 32;" xml:space="preserve">
<path d="M19.005,6.003c-4.333,0-7.717,1.108-10.776,2.653C6.317,9.634,5,10.858,5,10.858s0.609,2.653,3.441,6.547
	c2.237,2.857,4.022,4.257,6.16,5.861c3.639,2.61,6.627,3.733,6.627,3.733s0.142,0.104-2.393-1.763
	c-1.942-1.526-2.039-1.706-2.039-1.706s-0.184-0.598-0.34-1.152c-5.084-3.586-6.797-9.813-6.797-9.813s5.466-4.68,12.518-4.461
	l0.283-0.787c0,0,1.062-0.16,3.54-0.087C22.446,5.874,19.005,6.003,19.005,6.003z"/>
<path d="M24.59,9.382c-7.028-0.061-11.161,4.82-11.161,4.82s0.694,3.263,3.12,6.024c-0.347-2.913-0.307-5.079-0.307-5.079
	s3.454-3.675,8.348-3.584c4.587,0.031,7.41,3.02,7.41,3.02s-1.823-2.715-4.717-4.331c0,0,0.28-0.381,0.6-0.518
	C27.884,9.733,26.377,9.412,24.59,9.382z"/>
<path d="M4.313,15.952C3.337,16.604,2.361,16.174,0,17.255c3.021,3.61,5.54,5.727,9.484,7.547c0.818,0,1.398,0,1.398,0
	S13.309,25.408,16,26C8.336,22.73,4.313,15.952,4.313,15.952z"/>
</svg>
