<?xml version="1.0" encoding="iso-8859-1"?>
<!-- Generator: Adobe Illustrator 21.0.2, SVG Export Plug-In . SVG Version: 6.00 Build 0)  -->
<svg version="1.1"  xmlns="http://www.w3.org/2000/svg" xmlns:xlink="http://www.w3.org/1999/xlink" x="0px" y="0px"
	 viewBox="0 0 32 32" style="enable-background:new 0 0 32 32;" xml:space="preserve">
<path style="fill:none;stroke:#000000;stroke-width:2;stroke-miterlimit:10;" d="M13.99,22c-6.994,0-6.994-6-8.993-8S1,12,1,12
	s0-3,3.997-3c2.998,0,6.815,2.03,10.757,2.688c5.995,1,9.227-0.688,9.227-0.688c0,5.231-1.998,11-7.994,11H13.99z"/>
<path style="fill:none;stroke:#000000;stroke-width:2;stroke-miterlimit:10;" d="M24.981,11c0,0,1.048-2,3.149-2
	c4.961,0,3.846,11-6.147,11"/>
<path d="M19,22h-7c-1.105,0-2,0.895-2,2h2h2h3h2h2C21,22.895,20.105,22,19,22z"/>
</svg>
