<?xml version="1.0" encoding="iso-8859-1"?>
<!-- Generator: Adobe Illustrator 19.1.0, SVG Export Plug-In . SVG Version: 6.00 Build 0)  -->
<svg version="1.1" id="Layer_1" xmlns="http://www.w3.org/2000/svg" xmlns:xlink="http://www.w3.org/1999/xlink" x="0px" y="0px"
	 viewBox="0 0 32 32" style="enable-background:new 0 0 32 32;" xml:space="preserve">
<path style="fill:none;stroke:#000000;stroke-width:2;stroke-miterlimit:10;" d="M8,13c0,1.044,0,10.956,0,12c0,1.657,3.582,3,8,3
	s8-1.343,8-3c0-1.044,0-10.956,0-12"/>
<path style="fill:none;stroke:#000000;stroke-miterlimit:10;" d="M8,15.5c0,1.657,3.582,3,8,3s8-1.343,8-3"/>
<path style="fill:none;stroke:#000000;stroke-miterlimit:10;" d="M8,22.5c0,1.657,3.582,3,8,3s8-1.343,8-3"/>
<path style="fill:none;stroke:#000000;stroke-width:2;stroke-linecap:round;stroke-miterlimit:10;" d="M11.381,11h9.239
	C22.076,10.267,23,9.196,23,8c0-2.209-3.134-4-7-4S9,5.791,9,8C9,9.196,9.924,10.267,11.381,11z"/>
<path style="fill:none;stroke:#000000;stroke-width:2;stroke-linecap:round;stroke-miterlimit:10;" d="M21.951,11H10.049
	C8.779,11.531,8,12.231,8,13c0,1.657,3.582,3,8,3s8-1.343,8-3C24,12.231,23.221,11.531,21.951,11z"/>
</svg>
