<?xml version="1.0" encoding="iso-8859-1"?>
<!-- Generator: Adobe Illustrator 22.1.0, SVG Export Plug-In . SVG Version: 6.00 Build 0)  -->
<svg version="1.1" id="Layer_1" xmlns="http://www.w3.org/2000/svg" xmlns:xlink="http://www.w3.org/1999/xlink" x="0px" y="0px"
	 viewBox="0 0 32 32" style="enable-background:new 0 0 32 32;" xml:space="preserve">
<g>
	<rect x="23" y="8" width="2" height="8"/>
</g>
<g>
	<path d="M22,9v5.6c-0.51-0.61-1.2-1.09-2-1.35V9H22z"/>
</g>
<g>
	<path d="M19,11v2.03C18.84,13.01,18.67,13,18.5,13c-0.52,0-1.03,0.09-1.5,0.25V11H19z"/>
	<path d="M28,9v11c-0.03,1.4-1.22,4-5.51,4c-1.4,0-2.48-0.35-3.28-0.88c0.51-0.42,1.05-0.91,1.55-1.44c0.45,0.2,1.02,0.32,1.73,0.32
		c3.3,0,3.5-1.83,3.51-2.04V9H28z"/>
</g>
<g>
	<rect x="24.964" y="18.5" transform="matrix(0.7071 -0.7071 0.7071 0.7071 -5.4411 25.864)" width="7.071" height="2"/>
</g>
<g>
	<rect x="7" y="8" width="2" height="8"/>
</g>
<g>
	<path d="M12,9v4.25c-0.8,0.26-1.49,0.74-2,1.35V9H12z"/>
</g>
<g>
	<path d="M12.84,23.08C12.03,23.63,10.95,24,9.51,24C5.22,24,4.03,21.4,4,20.02V9h2v11c0.01,0.17,0.21,2,3.51,2
		c0.75,0,1.34-0.14,1.8-0.35C11.8,22.17,12.33,22.65,12.84,23.08z"/>
	<path d="M15,11v2.25C14.53,13.09,14.02,13,13.5,13c-0.17,0-0.34,0.01-0.5,0.03V11H15z"/>
</g>
<g>
	<rect x="2.5" y="15.964" transform="matrix(0.7071 -0.7071 0.7071 0.7071 -12.7635 8.1863)" width="2" height="7.071"/>
</g>
<path d="M18.5,15c-1.381,0-2.5,1.023-2.5,2.286C16,16.023,14.881,15,13.5,15S11,16.023,11,17.286C11,19.51,16,23,16,23
	s5-3.231,5-5.714C21,16.023,19.881,15,18.5,15z"/>
</svg>
