<?xml version="1.0" encoding="iso-8859-1"?>
<!-- Generator: Adobe Illustrator 19.1.0, SVG Export Plug-In . SVG Version: 6.00 Build 0)  -->
<svg version="1.1" id="Layer_1" xmlns="http://www.w3.org/2000/svg" xmlns:xlink="http://www.w3.org/1999/xlink" x="0px" y="0px"
	 viewBox="0 0 32 32" style="enable-background:new 0 0 32 32;" xml:space="preserve">
<g>
	<polyline style="fill:none;stroke:#000000;stroke-width:2;stroke-miterlimit:10;" points="22.016,13.508 23.778,8.222 
		18.492,9.984 	"/>
	<polyline style="fill:none;stroke:#000000;stroke-width:2;stroke-miterlimit:10;" points="13.508,9.984 8.222,8.222 9.984,13.508 	
		"/>
	<polyline style="fill:none;stroke:#000000;stroke-width:2;stroke-miterlimit:10;" points="9.984,18.492 8.222,23.778 
		13.508,22.016 	"/>
	<polyline style="fill:none;stroke:#000000;stroke-width:2;stroke-miterlimit:10;" points="18.492,22.016 23.778,23.778 
		22.016,18.492 	"/>
</g>
<polygon style="fill:none;stroke:#000000;stroke-width:2;stroke-miterlimit:10;" points="16,27 12.333,19.667 5,16 12.333,12.333 
	16,5 19.667,12.333 27,16 19.667,19.667 "/>
<polygon points="16,16 16,5 19.667,12.333 "/>
<polygon points="16,16 16,27 12.333,19.667 "/>
<polygon points="16,16 5,16 12.333,12.333 "/>
<polygon points="16,16 27,16 19.667,19.667 "/>
</svg>
