<?xml version="1.0" encoding="iso-8859-1"?>
<!-- Generator: Adobe Illustrator 21.0.2, SVG Export Plug-In . SVG Version: 6.00 Build 0)  -->
<svg version="1.1" id="Layer_1" xmlns="http://www.w3.org/2000/svg" xmlns:xlink="http://www.w3.org/1999/xlink" x="0px" y="0px"
	 viewBox="0 0 32 32" style="enable-background:new 0 0 32 32;" xml:space="preserve">
<g>
	<g>
		<polygon style="fill:#231F20;" points="29,10 27,10 27,8 5,8 5,10 3,10 3,6 29,6 		"/>
	</g>
	<g>
		<polygon style="fill:#231F20;" points="29,26 3,26 3,22 5,22 5,24 27,24 27,22 29,22 		"/>
	</g>
</g>
<g id="XMLID_127_">
	<path style="fill:#231F20;" d="M5.5,20C4.122,20,3,18.879,3,17.5V12h2v5.5C5,17.775,5.224,18,5.5,18S6,17.775,6,17.5V12h2v5.5
		C8,18.879,6.878,20,5.5,20z"/>
</g>
<g>
	<g>
		<g id="XMLID_18_">
			<polygon style="fill:#231F20;" points="29,20 24,20 24,12 29,12 29,14 26,14 26,18 29,18 			"/>
		</g>
		<g id="XMLID_17_">
			<rect x="25" y="15" style="fill:#231F20;" width="3" height="2"/>
		</g>
	</g>
	<g id="XMLID_1_">
		<polygon style="fill:#231F20;" points="23,20 21,20 21,14.862 19.5,16.462 18,14.862 18,20 16,20 16,12 18.059,12 19.5,13.538 
			20.941,12 23,12 		"/>
	</g>
</g>
<g>
	<g>
		<rect x="11" y="13" style="fill:#231F20;" width="2" height="6"/>
	</g>
	<g>
		<rect x="9" y="15" style="fill:#231F20;" width="6" height="2"/>
	</g>
</g>
</svg>
