<?xml version="1.0" encoding="UTF-8" standalone="no"?>
<!DOCTYPE svg PUBLIC "-//W3C//DTD SVG 1.1//EN" "http://www.w3.org/Graphics/SVG/1.1/DTD/svg11.dtd">
<svg width="100%" height="100%" viewBox="0 0 148 80" version="1.1" xmlns="http://www.w3.org/2000/svg" xmlns:xlink="http://www.w3.org/1999/xlink" xml:space="preserve" xmlns:serif="http://www.serif.com/" style="fill-rule:evenodd;clip-rule:evenodd;stroke-linejoin:round;stroke-miterlimit:2;">
  <style>
    @keyframes blink {
      0%, 10%, 90%, 100% {
        opacity: 1;
      }
      50%, 60% {
        opacity: 0;
      }
    }
    #backplate {
      fill:#254758;
      fill-rule:nonzero;
    }
    #blinker {
      fill:#ffa000;
      fill-rule:nonzero;
      animation: blink 1s ease;
      animation-iteration-count: 4;
    }
    #logotype {
      fill:#00c853;
      fill-rule:nonzero;
    }

    @media (prefers-color-scheme:dark){
      #backplate {
        fill:#224150
      }
      #blinker {
        fill:#ff8f00
      }
      #logotype {
        fill:#00B94A
      }
    }
  </style>
    <g transform="matrix(1,0,0,1,-5264.22,0)">
        <g id="favicon" transform="matrix(0.0927545,0,0,0.0807867,4835.74,0)">
            <rect x="4619.47" y="0" width="1595.61" height="990.262" style="fill:none;"/>
            <clipPath id="_clip1">
                <rect x="4619.47" y="0" width="1595.61" height="990.262"/>
            </clipPath>
            <g clip-path="url(#_clip1)">
                <g transform="matrix(2.01166,0,0,8.47173,4136.87,-2041.77)">
                    <path 
                      id="backplate"
                      d="M1033.16,270.232C1033.16,254.104 985.135,241.01 925.977,241.01L347.001,241.01C287.844,241.01 239.815,254.104 239.815,270.232L239.815,328.677C239.815,344.806 287.844,357.9 347.001,357.9L925.977,357.9C985.135,357.9 1033.16,344.806 1033.16,328.677L1033.16,270.232Z"/>
                </g>
                <g transform="matrix(12.0222,0,0,13.8032,-37803.4,-3487.35)">
                    <path
                      id="blinker"
                      d="M3552.55,291.794L3552.55,304.89L3546,304.89L3546,291.794L3552.55,291.794ZM3552.55,285.245L3546,285.245L3546,272.149L3552.55,272.149L3552.55,285.245Z"/>
                </g>
                <g transform="matrix(12.0222,0,0,13.8032,-79804.4,-6339.25)">
                    <path
                      id="logotype"
                      d="M7118.15,511.502L7118.15,504.953L7124.7,504.953L7124.7,498.405L7131.25,498.405L7131.25,491.857L7124.7,491.857L7124.7,485.308L7118.15,485.308L7118.15,478.76L7124.7,478.76L7124.7,485.308L7131.25,485.308L7131.25,491.857L7137.79,491.857L7137.79,498.405L7131.25,498.405L7131.25,504.953L7124.7,504.953L7124.7,511.502L7118.15,511.502ZM7078.86,511.502L7078.86,504.953L7085.41,504.953L7085.41,498.405L7091.96,498.405L7091.96,491.857L7098.51,491.857L7098.51,485.308L7105.05,485.308L7105.05,478.76L7111.6,478.76L7111.6,485.308L7105.05,485.308L7105.05,491.857L7098.51,491.857L7098.51,498.405L7091.96,498.405L7091.96,504.953L7085.41,504.953L7085.41,511.502L7078.86,511.502ZM7065.77,511.502L7065.77,504.953L7059.22,504.953L7059.22,498.405L7052.67,498.405L7052.67,491.857L7059.22,491.857L7059.22,485.308L7065.77,485.308L7065.77,478.76L7072.31,478.76L7072.31,485.308L7065.77,485.308L7065.77,491.857L7059.22,491.857L7059.22,498.405L7065.77,498.405L7065.77,504.953L7072.31,504.953L7072.31,511.502L7065.77,511.502Z"/>
                </g>
            </g>
        </g>
    </g>
</svg>
