<?xml version="1.0" encoding="iso-8859-1"?>
<!-- Generator: Adobe Illustrator 19.1.1, SVG Export Plug-In . SVG Version: 6.00 Build 0)  -->
<svg version="1.1" id="Layer_1" xmlns="http://www.w3.org/2000/svg" xmlns:xlink="http://www.w3.org/1999/xlink" x="0px" y="0px"
	 viewBox="-8 10 32 32" enable-background="new -8 10 32 32" xml:space="preserve">
<path d="M18.865,13.461l-0.462-0.722l-0.784,0.346c-0.157,0.068-3.854,1.716-5.982,4.345c-0.945,1.168-1.323,2.643-1.475,3.591
	c-1.171,0.109-3.175,0.581-4.984,2.39c-0.186,0.186-0.354,0.373-0.519,0.559l0.02,0.02c-0.475,0.515-0.877,1.061-1.22,1.608
	l-0.016-0.016c-0.662,1.052-1.025,1.984-1.208,2.576c-0.995,0.265-2.928,0.946-4.5,2.519c-2.191,2.19-2.649,6.048-2.668,6.211
	L-5,37.488l0.499,0.34C-4.324,37.947-2.667,39,1.053,39c3.588,0,5.748-2.107,6.521-3.028c0.17-0.014,0.388-0.039,0.626-0.07
	c1.502-0.166,2.751-0.561,3.788-1.104c0.149-0.073,0.299-0.143,0.447-0.225l-0.007-0.007c0.613-0.365,1.137-0.782,1.599-1.227
	l0.033,0.033c0.023-0.023,0.05-0.04,0.074-0.063c1.967-1.968,2.622-4.422,2.831-5.577c1.693-0.742,4.097-2.781,4.097-6.673
	C21.062,16.945,18.955,13.602,18.865,13.461z M15.793,26.038l-0.67,0.189l-0.059,0.692c-0.002,0.022-0.149,1.617-1.081,3.289
	c-0.015,0.027-0.03,0.053-0.045,0.08c-0.051,0.089-0.106,0.178-0.161,0.267c-0.626,0.968-1.564,1.918-2.938,2.578
	c-1.112,0.491-2.263,0.707-3.003,0.798C7.571,33.957,7.316,33.992,7.032,34l0,0l-0.513,0.012L6.23,34.446
	C6.213,34.471,4.487,37,1.053,37c-1.972,0-3.229-0.336-3.885-0.582c0.24-1.199,0.838-3.183,1.981-4.327
	c1.701-1.701,4.034-2.1,4.055-2.103l0.7-0.115l0.12-0.647l0.012,0.003c0.057-0.242,1.467-5.902,7.021-6.224l0.976,0.1l0.029-1.079
	c0-0.02,0.082-2.044,1.13-3.339c1.268-1.565,3.293-2.773,4.417-3.367c0.556,1.111,1.453,3.284,1.453,5.739
	C19.062,25.031,15.92,25.999,15.793,26.038z M7.817,26.991c-0.022,0.025-0.037,0.052-0.058,0.077
	c-0.619,0.711-0.913,1.915-0.913,1.915c-0.136,0.826,0.049,1.601,0.602,2.087c0.494,0.434,1.179,0.555,1.89,0.405
	c0,0,1.045-0.28,1.819-1.009c0.098-0.093,0.198-0.18,0.29-0.284c1.206-1.371,1.371-3.198,0.369-4.079
	C10.814,25.222,9.023,25.619,7.817,26.991z M13.971,21.009c0.466-1.225,1.57-1.942,2.465-1.601c0.895,0.341,1.243,1.61,0.777,2.835
	c-0.466,1.225-1.57,1.942-2.465,1.601C13.853,23.503,13.505,22.234,13.971,21.009z M0.222,35.021
	c-0.508-0.713-0.129-1.854,0.846-2.55c0.975-0.695,2.178-0.681,2.686,0.031c0.508,0.713,0.129,1.854-0.846,2.55
	S0.73,35.734,0.222,35.021z"/>
</svg>
