<?xml version="1.0" encoding="iso-8859-1"?>
<!-- Generator: Adobe Illustrator 19.1.1, SVG Export Plug-In . SVG Version: 6.00 Build 0)  -->
<svg version="1.1" id="Layer_1" xmlns="http://www.w3.org/2000/svg" xmlns:xlink="http://www.w3.org/1999/xlink" x="0px" y="0px"
	 viewBox="0 0 32 32" style="enable-background:new 0 0 32 32;" xml:space="preserve">
<path style="fill:none;stroke:#000000;stroke-width:2;stroke-miterlimit:10;" d="M5.482,26.525
	c-3.445-3.44-0.312-12.583,3.584-16.472c3.583-3.577,6.441-2.228,10.785,2.109s5.651,7.235,2.113,10.767
	C18.068,26.818,8.927,29.964,5.482,26.525z"/>
<circle cx="10.981" cy="15" r="1"/>
<circle cx="9.981" cy="19" r="1"/>
<circle cx="12.981" cy="22" r="1"/>
<circle cx="8.981" cy="23" r="1"/>
<circle cx="13.981" cy="18" r="1"/>
<circle cx="16.981" cy="21" r="1"/>
<circle cx="14.981" cy="14" r="1"/>
<circle cx="17.981" cy="17" r="1"/>
<path d="M26,6c0,0-3.216,0.387-4.586,1.757S20,12,20,12s2.961-0.133,4.243-1.414C25.524,9.304,26,6,26,6z"/>
<path d="M18,3c0,0,2.85,1.831,3.218,3.86S20,12,20,12s-2.608-2.584-2.953-4.482C16.702,5.62,18,3,18,3z"/>
<path d="M28.963,14.15c0,0-1.779-2.882-3.802-3.287C23.139,10.458,20,11.989,20,11.989s2.537,2.654,4.428,3.033
	C26.32,15.401,28.963,14.15,28.963,14.15z"/>
</svg>
