<?xml version="1.0" encoding="iso-8859-1"?>
<!-- Generator: Adobe Illustrator 19.1.1, SVG Export Plug-In . SVG Version: 6.00 Build 0)  -->
<svg version="1.1" id="Layer_1" xmlns="http://www.w3.org/2000/svg" xmlns:xlink="http://www.w3.org/1999/xlink" x="0px" y="0px"
	 viewBox="0 0 32 32" style="enable-background:new 0 0 32 32;" xml:space="preserve">
<path style="fill:none;stroke:#000000;stroke-width:2;stroke-miterlimit:10;" d="M4,16c0,11.576,10.551,12,12,12s12-0.424,12-12"/>
<path style="fill:none;stroke:#000000;stroke-width:2;stroke-miterlimit:10;" d="M18.588,3.932C18.588,3.932,16,4.615,16,8"/>
<path d="M18,14c1.043-2.87-0.232-4.146-1.204-5.857C18.346,10.131,20.228,13.818,24,11c-2.211-0.578-2.328-2.406-5.074-2.882
	C20.986,8.204,21.591,8.765,23,6c-2.218,1.148-3.273-1.385-5.911,1.295c-0.485,0.296-0.997-0.458-1.388-0.05
	C13.833,4.5,11.009,7.605,10,5c0,4.005,3.167,2.828,5.007,2.828C11.667,8.5,11.67,10.466,9,11c4.531,2.408,5.722-0.119,6.644-2.597
	C15.499,9.372,14.396,12.314,18,14z"/>
<g>
	<path d="M9.268,6.798C8.216,7.052,7.172,7.477,6.242,8.171C4.091,9.774,3,12.408,3,16h2c0-2.922,0.818-5.016,2.432-6.222
		C8.4,9.055,9.567,8.703,10.717,8.56C9.959,8.161,9.511,7.522,9.268,6.798z"/>
	<path d="M25.758,8.171C25.077,7.663,24.336,7.3,23.574,7.04c-0.412,0.731-0.824,1.295-1.326,1.662
		c0.02,0.018,0.038,0.035,0.058,0.053c0.802,0.198,1.582,0.515,2.262,1.024C26.182,10.984,27,13.078,27,16h2
		C29,12.408,27.909,9.774,25.758,8.171z"/>
</g>
</svg>
