<?xml version="1.0" encoding="iso-8859-1"?>
<!-- Generator: Adobe Illustrator 19.1.1, SVG Export Plug-In . SVG Version: 6.00 Build 0)  -->
<svg version="1.1" id="Layer_1" xmlns="http://www.w3.org/2000/svg" xmlns:xlink="http://www.w3.org/1999/xlink" x="0px" y="0px"
	 viewBox="0 0 32 32" style="enable-background:new 0 0 32 32;" xml:space="preserve">
<path style="fill:none;stroke:#000000;stroke-width:2;stroke-miterlimit:10;" d="M15,4c-3.159,0-6.005,2.364-6.608,5.352
	C8.351,9.508,8.32,9.686,8.299,9.892c-0.014,0.051-0.032,0.092-0.037,0.156c-0.044,0.533-0.17,1.196-0.322,1.861
	c-0.047,0.204-0.095,0.409-0.146,0.61c-0.006,0.025-0.012,0.049-0.019,0.073c-0.173,0.685-0.358,1.328-0.494,1.785
	c-0.248,0.62-0.518,1.27-0.787,1.918C5.315,19.127,3,22.318,3,24c-0.002,0.09,0.02,0.623,0.619,1.231
	c0.659,0.67,3.106,1.753,5.853,2.219C9.679,28.656,12.518,29,16,29c3.484,0,6.324-0.322,6.528-1.55
	c2.747-0.466,5.195-1.549,5.853-2.219C28.98,24.623,29.002,24.09,29,24c0-1.682-2.315-4.873-3.493-7.705
	c-0.27-0.648-0.54-1.299-0.787-1.918c-0.012-0.04-0.023-0.076-0.036-0.119c-0.002-0.006-0.004-0.013-0.005-0.019
	c-0.024-0.08-0.049-0.167-0.075-0.256c-0.008-0.028-0.017-0.057-0.025-0.086c-0.023-0.08-0.047-0.164-0.071-0.249
	c-0.007-0.023-0.013-0.046-0.02-0.07c-0.03-0.108-0.061-0.219-0.092-0.333c-0.007-0.025-0.014-0.051-0.02-0.076
	c-0.025-0.092-0.05-0.186-0.075-0.282c-0.009-0.034-0.018-0.067-0.026-0.101c-0.032-0.121-0.062-0.243-0.093-0.366
	c-0.002-0.008-0.004-0.015-0.005-0.023c-0.029-0.115-0.056-0.23-0.083-0.346c-0.008-0.036-0.017-0.071-0.024-0.107
	c-0.157-0.677-0.285-1.354-0.33-1.898c-0.005-0.064-0.023-0.105-0.037-0.156c-0.021-0.205-0.053-0.385-0.093-0.539
	C23.005,6.364,20.16,4,17,4H15z"/>
<path d="M19.976,18c0,0,3.024,0.265,3.024-1s-0.719-3-3-3c-1.711,0-3,1.75-3,1.75V18H19.976z"/>
<path d="M15,18v-2.25c0,0-1.289-1.75-3-1.75c-2.25,0-3,1.735-3,3s3.024,1,3.024,1H15z"/>
<path style="fill:#546E7A;" d="M18.976,23.179v-0.035h-0.023C18.961,23.155,18.969,23.167,18.976,23.179z"/>
<path style="fill:none;stroke:#000000;stroke-width:2;stroke-miterlimit:10;" d="M7.282,14.377C8.014,12.652,9.921,12,11.458,12l0,0
	C13.17,12,15,13,15,13h2c0,0,1.747-1,3.458-1l0,0c1.538,0,3.528,0.652,4.26,2.377"/>
<polygon points="11.958,28.042 9,28 9.958,26.042 11.958,26.042 "/>
<polygon points="23,28 20,28 20,26 22,26 "/>
<path style="fill:none;stroke:#000000;stroke-width:2;stroke-miterlimit:10;" d="M22,17c0,1.19-1.19,4.762-1.19,4.762"/>
<path style="fill:none;stroke:#000000;stroke-width:2;stroke-miterlimit:10;" d="M10,17c0,1.19,1.19,4.762,1.19,4.762"/>
<polyline points="15,18 15,20 12,24 20,24 17,20 17,18 "/>
<line style="fill:none;stroke:#000000;stroke-width:2;stroke-miterlimit:10;" x1="16" y1="2" x2="16" y2="13"/>
</svg>
