<?xml version="1.0" encoding="iso-8859-1"?>
<!-- Generator: Adobe Illustrator 19.1.1, SVG Export Plug-In . SVG Version: 6.00 Build 0)  -->
<svg version="1.1" id="Layer_1" xmlns="http://www.w3.org/2000/svg" xmlns:xlink="http://www.w3.org/1999/xlink" x="0px" y="0px"
	 viewBox="0 0 32 32" style="enable-background:new 0 0 32 32;" xml:space="preserve">
<path d="M24.88,5H6.932l-4.908,6.021l13.973,16.039l14.099-16.057L24.88,5z M27.423,10.976c-0.959,1.106-1.919,1.926-2.878,3.089
	c-1.25-1.684-2.709-2.421-4.481-2.421c-1.876-0.105-3.855,0-5.731-0.105c-1.355-0.211-3.856-0.842-3.856-2
	c0-1.263,2.292-2.21,3.335-2.421C14.185,7.047,14.569,7.012,14.95,7h0.467c1.152,0.028,2.234,0.284,2.875,0.644
	C19.96,8.486,20.377,9.842,20.689,11c1.459,0,2.852,0,4.311,0c0-0.796-0.044-2.097-0.044-2.831L27.423,10.976z M6.205,12.696
	c-0.298-0.351-0.62-0.677-0.943-1.003l-0.623-0.715L7.882,7h1.499C6.495,8.492,5.592,11.148,6.205,12.696z M22.565,7.012
	c-0.313,0.421-0.729,0.842-1.042,1.263c-0.313-0.421-0.729-0.842-1.355-1.263C20.898,7.012,21.731,7.012,22.565,7.012z
	 M8.437,15.338c3.2,0.214,6.989,0.623,10.377,0.726c0.417,0,2.397,0.316,2.501,1.263c-0.208,1.368-4.585,1.789-5.627,1.158
	c-0.722-0.834-3.384-1.56-5.257-0.858L8.437,15.338z M12.978,20.38c2.068,0.835,4.543,0.737,6.21,0.016l-3.185,3.628l-0.616-0.707
	C14.583,22.336,13.809,21.386,12.978,20.38z"/>
</svg>
