<?xml version="1.0" encoding="iso-8859-1"?>
<!-- Generator: Adobe Illustrator 19.1.1, SVG Export Plug-In . SVG Version: 6.00 Build 0)  -->
<svg version="1.1" id="Layer_1" xmlns="http://www.w3.org/2000/svg" xmlns:xlink="http://www.w3.org/1999/xlink" x="0px" y="0px"
	 viewBox="0 0 32 32" style="enable-background:new 0 0 32 32;" xml:space="preserve">
<path style="fill:none;stroke:#000000;stroke-width:2;stroke-miterlimit:10;" d="M23.941,26H8.059C6.922,26,6,25.078,6,23.941V8.059
	C6,6.922,6.922,6,8.059,6h15.882C25.078,6,26,6.922,26,8.059v15.882C26,25.078,25.078,26,23.941,26z"/>
<path d="M12,15c-1.654,0-3-1.346-3-3s1.346-3,3-3s3,1.346,3,3S13.654,15,12,15z"/>
<circle style="fill:none;stroke:#000000;stroke-width:2;stroke-miterlimit:10;" cx="12" cy="20" r="2"/>
<circle style="fill:none;stroke:#000000;stroke-width:2;stroke-miterlimit:10;" cx="20" cy="12" r="2"/>
<path d="M20,23c-1.654,0-3-1.346-3-3s1.346-3,3-3s3,1.346,3,3S21.654,23,20,23z"/>
</svg>
