<?xml version="1.0" encoding="iso-8859-1"?>
<!-- Generator: Adobe Illustrator 19.1.1, SVG Export Plug-In . SVG Version: 6.00 Build 0)  -->
<svg version="1.1" id="Layer_1" xmlns="http://www.w3.org/2000/svg" xmlns:xlink="http://www.w3.org/1999/xlink" x="0px" y="0px"
	 viewBox="0 0 32 32" style="enable-background:new 0 0 32 32;" xml:space="preserve">
<path style="fill:none;stroke:#000000;stroke-width:2;stroke-miterlimit:10;" d="M5,5v2.05C3.859,7.282,3,8.291,3,9.5
	c0,1.226,0.884,2.241,2.048,2.454C5.533,17.582,10.247,24,16,24s10.467-6.418,10.952-12.046C28.116,11.741,29,10.726,29,9.5
	c0-1.209-0.859-2.218-2-2.45V5"/>
<circle cx="11.5" cy="7.5" r="1.5"/>
<circle cx="20.5" cy="7.5" r="1.5"/>
<path d="M22.933,13.5v0.039c1.1,0.484,0.509,2.549-1.6,1.789c-0.992-0.316-1.488-1.619-1.985-2.252
	C18.915,12.506,18.295,12,17.24,12c-0.487,0-0.922,0.209-1.24,0.556C15.682,12.209,15.247,12,14.76,12
	c-1.054,0-1.674,0.506-2.109,1.076c-0.496,0.633-0.992,1.936-1.985,2.252c-2.109,0.759-2.7-1.305-1.6-1.789V13.5
	C8.042,13.5,8,14.848,8,14.848C8,15.861,8.62,17,11.597,17c1.669,0,3.517-0.452,4.403-1.525C16.886,16.548,18.734,17,20.403,17
	C23.38,17,24,15.861,24,14.848C24,14.848,23.958,13.5,22.933,13.5z"/>
</svg>
