<?xml version="1.0" encoding="iso-8859-1"?>
<!-- Generator: Adobe Illustrator 19.1.1, SVG Export Plug-In . SVG Version: 6.00 Build 0)  -->
<svg version="1.1" id="Layer_1" xmlns="http://www.w3.org/2000/svg" xmlns:xlink="http://www.w3.org/1999/xlink" x="0px" y="0px"
	 viewBox="-8 10 32 32" style="enable-background:new -8 10 32 32;" xml:space="preserve">
<path d="M3.615,19.189L3.44,17.197c0.828-0.073,0.938-0.33,1.226-1.301c0.33-1.112,0.829-2.792,3.523-2.953
	c0.05-0.009,0.699-0.076,1.501,0.191L9.06,15.032c-0.381-0.127-0.69-0.097-0.695-0.098c-1.352,0.083-1.486,0.536-1.781,1.53
	C6.285,17.472,5.833,18.995,3.615,19.189z"/>
<path d="M8.192,18.241c-0.372,0-0.789-0.071-1.258-0.24l0.677-1.882c0.783,0.282,0.991,0.095,1.66-0.667
	c0.766-0.87,1.926-2.185,4.437-1.2c0.225,0.098,1.196,0.552,1.63,1.358l-1.761,0.948c-0.067-0.125-0.411-0.361-0.634-0.458
	c-1.174-0.458-1.486-0.104-2.171,0.674C10.233,17.386,9.481,18.241,8.192,18.241z"/>
<path d="M19.041,19.667h-2c-0.011-0.038-0.104-0.197-0.186-0.293c-0.855-0.947-1.293-0.771-2.254-0.379
	c-0.974,0.396-2.444,0.995-3.982-0.617l1.447-1.381c0.572,0.6,0.84,0.527,1.782,0.145c1.073-0.438,2.698-1.097,4.506,0.909
	C18.478,18.189,19.041,18.873,19.041,19.667z"/>
<path d="M20.604,25.196l-1.789-0.893c0.027-0.068,0.039-0.277,0.025-0.449c-0.357-1.166-0.832-1.197-1.843-1.264
	c-1.049-0.069-2.634-0.174-3.313-2.294l1.904-0.61c0.254,0.792,0.529,0.842,1.54,0.909c1.157,0.076,2.906,0.192,3.658,2.785
	l0.03,0.144C20.848,23.753,20.925,24.554,20.604,25.196z"/>
<path d="M20.059,30.6l-1.535-1.283c0.025-0.048,0.126-0.336,0.181-0.558c0.196-1.202-0.216-1.435-1.119-1.942
	c-0.917-0.515-2.301-1.293-1.999-3.499l1.982,0.271c-0.113,0.824,0.113,0.988,0.996,1.484c1.011,0.568,2.538,1.427,2.097,4.091
	C20.56,29.588,20.369,30.228,20.059,30.6z"/>
<path d="M16.895,35.378l-0.789-1.838c0.021-0.024,0.216-0.238,0.322-0.378c0.723-1.03,0.451-1.418-0.144-2.268
	c-0.603-0.86-1.514-2.161-0.286-4.019l1.668,1.103c-0.458,0.693-0.325,0.939,0.256,1.77c0.666,0.949,1.671,2.385,0.119,4.595
	C17.797,34.664,17.357,35.179,16.895,35.378z"/>
<path d="M11.988,38.171c-0.063,0-0.127-0.002-0.19-0.007l0.154-1.994c0.179,0.011,0.519-0.071,0.728-0.145
	c1.049-0.631,0.965-1.098,0.785-2.097c-0.186-1.034-0.467-2.598,1.426-3.77l1.053,1.701c-0.707,0.438-0.689,0.717-0.51,1.714
	c0.205,1.142,0.516,2.866-1.819,4.222l-0.13,0.063C13.345,37.915,12.667,38.171,11.988,38.171z"/>
<path d="M7.636,39.077c-0.404,0-0.95-0.034-1.341-0.191L7.04,37.03c0.135,0.044,0.595,0.061,0.898,0.039
	c1.267-0.113,1.388-0.57,1.653-1.572c0.271-1.017,0.678-2.551,2.889-2.811l0.232,1.986c-0.825,0.097-0.928,0.357-1.188,1.337
	c-0.298,1.121-0.747,2.814-3.436,3.054C7.993,39.069,7.831,39.077,7.636,39.077z"/>
<path d="M3.918,38.085c-0.477,0-1.023-0.103-1.657-0.35l-0.145-0.071c-0.13-0.077-0.798-0.489-1.157-1.026l1.664-1.109
	c0.055,0.083,0.261,0.254,0.449,0.376c1.139,0.424,1.454,0.069,2.124-0.692c0.693-0.79,1.737-1.983,3.837-1.23l-0.676,1.883
	c-0.781-0.282-0.989-0.095-1.659,0.668C6.125,37.184,5.333,38.085,3.918,38.085z"/>
<path d="M0.356,35.409c-0.786,0-1.676-0.312-2.625-1.336l-0.088-0.108c-0.426-0.612-0.667-1.1-0.717-1.448l1.979-0.285
	c0.021,0.032,0.195,0.319,0.34,0.533c0.85,0.893,1.287,0.707,2.225,0.313c0.968-0.409,2.431-1.028,3.99,0.561l-1.427,1.4
	c-0.584-0.592-0.851-0.514-1.784-0.119C1.734,35.137,1.09,35.409,0.356,35.409z"/>
<path d="M0.551,32.477c-0.273-0.785-0.549-0.828-1.562-0.871c-1.159-0.048-2.909-0.121-3.724-2.694
	c-0.038-0.141-0.229-0.922-0.18-1.763l1.996,0.119c-0.032,0.536,0.105,1.092,0.106,1.097c0.375,1.181,0.848,1.2,1.884,1.243
	c1.05,0.044,2.637,0.11,3.368,2.213L0.551,32.477z"/>
<path d="M0.408,28.672l-1.981-0.27c0.112-0.823-0.115-0.987-0.999-1.483c-1.012-0.567-2.54-1.425-2.101-4.089
	c0.046-0.211,0.229-1.002,0.426-1.445l1.827,0.813c-0.086,0.193-0.225,0.719-0.291,1.014c-0.2,1.224,0.212,1.455,1.117,1.962
	C-0.677,25.689,0.708,26.466,0.408,28.672z"/>
<path d="M0.008,25.045l-1.659-1.117c0.464-0.689,0.333-0.936-0.241-1.771c-0.657-0.956-1.649-2.4-0.08-4.596
	c0.116-0.155,0.664-0.853,1.379-1.151l0.769,1.847c-0.151,0.063-0.417,0.33-0.534,0.485c-0.741,1.037-0.473,1.427,0.115,2.282
	C0.351,21.89,1.25,23.199,0.008,25.045z"/>
<path d="M1.191,21.709l-1.02-1.721c0.715-0.423,0.703-0.703,0.542-1.703c-0.184-1.145-0.461-2.876,1.9-4.186
	C2.905,13.953,3.545,13.649,4,13.592l0.25,1.984c-0.098,0.02-0.438,0.16-0.703,0.292c-1.098,0.61-1.023,1.077-0.859,2.101
	C2.855,19.007,3.106,20.575,1.191,21.709z"/>
</svg>
