<?xml version="1.0" encoding="iso-8859-1"?>
<!-- Generator: Adobe Illustrator 19.1.1, SVG Export Plug-In . SVG Version: 6.00 Build 0)  -->
<svg version="1.1" id="Layer_1" xmlns="http://www.w3.org/2000/svg" xmlns:xlink="http://www.w3.org/1999/xlink" x="0px" y="0px"
	 viewBox="0 0 32 32" style="enable-background:new 0 0 32 32;" xml:space="preserve">
<path style="fill:none;stroke:#000000;stroke-width:2;stroke-miterlimit:10;" d="M26.952,11.954C28.116,11.741,29,10.726,29,9.5
	c0-1.209-0.859-2.218-2-2.45V5"/>
<path style="fill:none;stroke:#000000;stroke-width:2;stroke-miterlimit:10;" d="M12.004,22.949C13.242,23.614,14.59,24,16,24
	c1.374,0,2.688-0.366,3.9-1"/>
<path style="fill:none;stroke:#000000;stroke-width:2;stroke-miterlimit:10;" d="M5,5v2.05C3.859,7.282,3,8.291,3,9.5
	c0,1.226,0.884,2.241,2.048,2.454"/>
<circle cx="11.5" cy="7.5" r="1.5"/>
<circle cx="20.5" cy="7.5" r="1.5"/>
<path style="fill:none;stroke:#000000;stroke-width:2;stroke-miterlimit:10;" d="M12,15.631c0.611-0.353,2.469-0.669,4-0.667
	c1.554,0.002,3.385,0.327,4,0.667"/>
<g>
	<path d="M25,7c0,0.11-0.136,11-5,11h-1v8h1c1.536,0,3.505-1.299,5.015-3.309c1.411-1.88,4.398-7.15,2.017-15.691H25z"/>
	<path d="M6.937,7H4.905c-2.381,8.54,0.606,13.811,2.017,15.691C8.432,24.701,10.4,26,11.937,26h1v-8h-1
		C7.072,18,6.937,7.11,6.937,7z"/>
</g>
</svg>
