<?xml version="1.0" encoding="utf-8"?>
<!-- Generator: Adobe Illustrator 18.1.1, SVG Export Plug-In . SVG Version: 6.00 Build 0)  -->
<svg version="1.1" id="Layer_1" xmlns="http://www.w3.org/2000/svg" xmlns:xlink="http://www.w3.org/1999/xlink" x="0px" y="0px"
	 viewBox="0 0 32 32" enable-background="new 0 0 32 32" xml:space="preserve">
<g>
	<path fill="none" stroke="#000000" stroke-width="2" stroke-miterlimit="10" d="M22.3,8.7C22.6,7.1,24,6,26,6"/>
</g>
<path fill="none" stroke="#000000" stroke-width="2" stroke-miterlimit="10" d="M16,6C9.9,6,5,12.1,5,18.2s5,8.8,11,8.8
	s11-2.8,11-8.8S22,6,16,6z"/>
<circle cx="26" cy="6" r="2"/>
<g>
	<path fill="none" stroke="#000000" stroke-width="2" stroke-miterlimit="10" d="M9.7,8.7C9.4,7.1,8,6,6,6"/>
</g>
<circle cx="6" cy="6" r="2"/>
<path fill="none" stroke="#000000" stroke-width="2" stroke-miterlimit="10" d="M16,20c-2.8,0-5-2.2-5-5s2.2-5,5-5s5,2.2,5,5
	S18.8,20,16,20z"/>
<path d="M17,15c-0.6,0-1-0.4-1-1c0-0.4,0.2-0.8,0.6-0.9C16.4,13,16.2,13,16,13c-1.1,0-2,0.9-2,2s0.9,2,2,2s2-0.9,2-2
	c0-0.2,0-0.4-0.1-0.6C17.8,14.8,17.4,15,17,15z"/>
<line fill="none" stroke="#000000" stroke-width="2" stroke-miterlimit="10" x1="12" y1="23" x2="20" y2="23"/>
</svg>
