<?xml version="1.0" encoding="iso-8859-1"?>
<!-- Generator: Adobe Illustrator 19.1.1, SVG Export Plug-In . SVG Version: 6.00 Build 0)  -->
<svg version="1.1" id="Layer_1" xmlns="http://www.w3.org/2000/svg" xmlns:xlink="http://www.w3.org/1999/xlink" x="0px" y="0px"
	 viewBox="0 0 32 32" style="enable-background:new 0 0 32 32;" xml:space="preserve">
<path style="fill:none;stroke:#000000;stroke-width:2;stroke-linejoin:round;stroke-miterlimit:10;" d="M16.957,24.364
	c0,0-1.302-0.846-1.302-2.984c0-2.448,2.919-3.056,2.919-3.056s-1.6-0.472-2.857-0.841C14.029,16.987,14.148,14,16.14,14
	c7.674,0,6.86,3.483,6.86,4.67c0,7.974-5.553,8.33-7.156,8.33S8,26.981,8,20.522c0-3.653,3.619-2.814,6.111,1.454
	c0.454,0.778-0.384,1.637-1.275,1.637c-0.891,0-1.602-0.788-2.34-1.932"/>
<path style="fill:none;stroke:#000000;stroke-width:2;stroke-miterlimit:10;" d="M17.552,13.931c0,0,1.392-9.529,4.586-8.828
	c2.037,0.448-0.828,9.621-0.828,9.621"/>
<path style="fill:none;stroke:#000000;stroke-width:2;stroke-miterlimit:10;" d="M13.621,14.586c0,0-3.64-8.598-1.385-9.504
	c2.695-1.083,5.213,8.78,5.213,8.78"/>
<path style="fill:none;stroke:#000000;stroke-width:2;stroke-miterlimit:10;" d="M11.448,18.897c0,0-2.724-3.241-0.483-4.69
	c1.36-0.879,3.746,1.679,4.916,4.669c0.813,2.077-2.023,2.606-2.517,1.959"/>
</svg>
