<?xml version="1.0" encoding="iso-8859-1"?>
<!-- Generator: Adobe Illustrator 19.1.0, SVG Export Plug-In . SVG Version: 6.00 Build 0)  -->
<svg version="1.1" id="Layer_1" xmlns="http://www.w3.org/2000/svg" xmlns:xlink="http://www.w3.org/1999/xlink" x="0px" y="0px"
	 viewBox="0 0 32 32" style="enable-background:new 0 0 32 32;" xml:space="preserve">
<line style="fill:none;stroke:#000000;stroke-width:2;stroke-miterlimit:10;" x1="6" y1="6" x2="26" y2="26"/>
<g>
	<path d="M26.518,20.877l0.964-1.752c-5.351-2.945-8.44-2.238-11.055-1.327l1.588,1.588C20.17,18.755,22.482,18.657,26.518,20.877z"
		/>
	<path d="M13.427,14.799c1.079-0.202,2.048-0.533,2.963-0.865c2.724-0.985,5.075-1.836,10.128,0.943l0.964-1.752
		c-5.846-3.217-8.994-2.077-11.773-1.071c-1.29,0.467-2.547,0.919-4.096,0.931L13.427,14.799z"/>
	<path d="M8.134,12.334c-0.803-0.288-1.682-0.682-2.657-1.212L4.522,12.88c2.515,1.366,4.529,1.94,6.233,2.075L8.134,12.334z"/>
	<path d="M14.327,18.527c-2.196,0.678-4.625,0.89-8.85-1.405L4.522,18.88c2.924,1.588,5.176,2.11,7.043,2.11
		c1.693,0,3.065-0.431,4.34-0.885L14.327,18.527z"/>
</g>
</svg>
