<?xml version="1.0" encoding="iso-8859-1"?>
<!-- Generator: Adobe Illustrator 19.1.0, SVG Export Plug-In . SVG Version: 6.00 Build 0)  -->
<svg version="1.1" id="Layer_1" xmlns="http://www.w3.org/2000/svg" xmlns:xlink="http://www.w3.org/1999/xlink" x="0px" y="0px"
	 viewBox="0 0 32 32" style="enable-background:new 0 0 32 32;" xml:space="preserve">
<path style="fill:none;stroke:#000000;stroke-width:2;stroke-miterlimit:10;" d="M21.901,10.5C22.634,11.408,23.742,12,25,12
	s2.366-0.592,3.099-1.5"/>
<path style="fill:none;stroke:#000000;stroke-width:2;stroke-miterlimit:10;" d="M3.901,10.5C4.634,11.408,5.742,12,7,12
	s2.366-0.592,3.099-1.5"/>
<path style="fill:none;stroke:#000000;stroke-width:2;stroke-miterlimit:10;" d="M12.023,10c0.913,1.208,2.347,2,3.977,2
	s3.065-0.792,3.977-2"/>
<path style="fill:none;stroke:#000000;stroke-width:2;stroke-miterlimit:10;" d="M20.175,15.743C20.694,14.955,21,14.014,21,13
	c0-2.761-2.239-5-5-5s-5,2.239-5,5c0,1.014,0.306,1.955,0.825,2.743"/>
<path style="fill:none;stroke:#000000;stroke-width:2;stroke-miterlimit:10;" d="M28.262,15.303C28.723,14.651,29,13.86,29,13
	c0-2.209-1.791-4-4-4s-4,1.791-4,4c0,0.976,0.363,1.858,0.944,2.552"/>
<path style="fill:none;stroke:#000000;stroke-width:2;stroke-miterlimit:10;" d="M10.056,15.552C10.637,14.858,11,13.976,11,13
	c0-2.209-1.791-4-4-4s-4,1.791-4,4c0,0.86,0.277,1.651,0.738,2.303"/>
<path style="fill:none;stroke:#000000;stroke-width:2;stroke-linecap:round;stroke-linejoin:round;stroke-miterlimit:10;" d="
	M30,17.943C30,19.913,28.483,24,16,24S2,19.913,2,17.943l0,0c0-2.408,2.068-3.202,4.386-2.872C9.447,15.508,13.43,16,16,16
	s6.553-0.492,9.614-0.929C27.932,14.741,30,15.535,30,17.943L30,17.943z"/>
</svg>
