<?xml version="1.0" encoding="iso-8859-1"?>
<!-- Generator: Adobe Illustrator 19.1.0, SVG Export Plug-In . SVG Version: 6.00 Build 0)  -->
<svg version="1.1" id="Layer_1" xmlns="http://www.w3.org/2000/svg" xmlns:xlink="http://www.w3.org/1999/xlink" x="0px" y="0px"
	 viewBox="0 0 32 32" style="enable-background:new 0 0 32 32;" xml:space="preserve">
<path style="fill:none;stroke:#010101;stroke-width:2.1056;stroke-miterlimit:10;" d="M22,15.591c0-2.075-2.8-4.187-2.8-4.187
	l-0.174-6.43C19.012,4.431,18.568,4,18.027,4h-4.053c-0.542,0-0.985,0.431-1,0.973l-0.174,6.43c0,0-2.8,2.113-2.8,4.187
	c0,2.036,0.401,3.565,0.401,5.409c0,1.525-0.117,3.408-0.225,4.853C10.089,27.014,10.999,28,12.163,28c2.172,0,5.502,0,7.674,0
	c1.164,0,2.074-0.986,1.987-2.147c-0.108-1.445-0.225-3.328-0.225-4.853C21.599,19.156,22,17.627,22,15.591z"/>
<path style="fill:none;stroke:#010101;stroke-width:1.9222;stroke-miterlimit:10;" d="M16,24c-1.38,0-2.5-0.889-2.5-4s1.12-4,2.5-4
	c1.38,0,2.5,0.889,2.5,4S17.38,24,16,24z"/>
<line style="fill:none;stroke:#010101;stroke-width:2.1056;stroke-miterlimit:10;" x1="13" y1="7" x2="19" y2="7"/>
<line style="fill:none;stroke:#010101;stroke-width:2.1056;stroke-miterlimit:10;" x1="18" y1="18" x2="22" y2="18"/>
<line style="fill:none;stroke:#010101;stroke-width:2.1056;stroke-miterlimit:10;" x1="10" y1="18" x2="14" y2="18"/>
<line style="fill:none;stroke:#010101;stroke-width:2.1056;stroke-miterlimit:10;" x1="18" y1="22" x2="22" y2="22"/>
<line style="fill:none;stroke:#010101;stroke-width:2.1056;stroke-miterlimit:10;" x1="10" y1="22" x2="14" y2="22"/>
</svg>
