<?xml version="1.0" encoding="iso-8859-1"?>
<!-- Generator: Adobe Illustrator 19.1.0, SVG Export Plug-In . SVG Version: 6.00 Build 0)  -->
<svg version="1.1" id="Layer_1" xmlns="http://www.w3.org/2000/svg" xmlns:xlink="http://www.w3.org/1999/xlink" x="0px" y="0px"
	 viewBox="0 0 32 32" style="enable-background:new 0 0 32 32;" xml:space="preserve">
<circle style="fill:none;stroke:#000000;stroke-miterlimit:10;" cx="16" cy="16" r="10.5"/>
<circle cx="26.5" cy="16" r="1.5"/>
<circle cx="5.5" cy="16" r="1.5"/>
<circle cx="16" cy="26.5" r="1.5"/>
<circle cx="16" cy="5.5" r="1.5"/>
<circle cx="26.5" cy="16" r="1.5"/>
<circle cx="5.5" cy="16" r="1.5"/>
<circle cx="16" cy="26.5" r="1.5"/>
<circle cx="16" cy="5.5" r="1.5"/>
<circle cx="23.425" cy="23.425" r="1.5"/>
<circle cx="8.575" cy="8.575" r="1.5"/>
<circle cx="8.575" cy="23.425" r="1.5"/>
<circle cx="23.425" cy="8.575" r="1.5"/>
<circle cx="23.425" cy="23.425" r="1.5"/>
<circle cx="8.575" cy="8.575" r="1.5"/>
<circle cx="8.575" cy="23.425" r="1.5"/>
<circle cx="23.425" cy="8.575" r="1.5"/>
<circle cx="25.701" cy="11.982" r="1.5"/>
<circle cx="6.299" cy="20.018" r="1.5"/>
<circle cx="20.018" cy="25.701" r="1.5"/>
<circle cx="11.982" cy="6.299" r="1.5"/>
<circle cx="25.701" cy="11.982" r="1.5"/>
<circle cx="6.299" cy="20.018" r="1.5"/>
<circle cx="20.018" cy="25.701" r="1.5"/>
<circle cx="11.982" cy="6.299" r="1.5"/>
<circle cx="25.701" cy="20.018" r="1.5"/>
<circle cx="6.299" cy="11.982" r="1.5"/>
<circle cx="11.982" cy="25.701" r="1.5"/>
<circle cx="20.018" cy="6.299" r="1.5"/>
<circle cx="25.701" cy="20.018" r="1.5"/>
<circle cx="6.299" cy="11.982" r="1.5"/>
<circle cx="11.982" cy="25.701" r="1.5"/>
<circle cx="20.018" cy="6.299" r="1.5"/>
</svg>
