<?xml version="1.0" encoding="iso-8859-1"?>
<!-- Generator: Adobe Illustrator 19.1.1, SVG Export Plug-In . SVG Version: 6.00 Build 0)  -->
<svg version="1.1" id="Layer_1" xmlns="http://www.w3.org/2000/svg" xmlns:xlink="http://www.w3.org/1999/xlink" x="0px" y="0px"
	 viewBox="0 0 32 32" style="enable-background:new 0 0 32 32;" xml:space="preserve">
<rect x="12" y="4" style="fill:none;stroke:#000000;stroke-width:2;stroke-miterlimit:10;" width="8" height="4"/>
<line style="fill:none;stroke:#000000;stroke-width:2;stroke-miterlimit:10;" x1="16" y1="18" x2="16" y2="8"/>
<line style="fill:none;stroke:#000000;stroke-width:2;stroke-miterlimit:10;" x1="7" y1="29.046" x2="7" y2="27.046"/>
<path d="M26.321,31.668l-0.569-1.917c0.549-0.163,1.07-0.404,1.549-0.715l1.09,1.678C27.75,31.129,27.054,31.451,26.321,31.668z
	 M30.104,29.214l-1.516-1.305c0.375-0.435,0.684-0.919,0.918-1.439l1.823,0.822C31.016,27.987,30.604,28.634,30.104,29.214z"/>
<path style="fill:none;stroke:#000000;stroke-width:2;stroke-miterlimit:10;" d="M30.31,20.966
	c-0.333-0.692-0.787-1.342-1.361-1.916c-2.734-2.734-7.166-2.734-9.899,0s-2.734,7.166,0,9.899C20.417,30.317,22.209,31,24,31"/>
<polyline style="fill:none;stroke:#000000;stroke-width:2;stroke-miterlimit:10;" points="26,21 31,21 31,16 "/>
<path d="M17.083,25.021L6.278,25.046L10.145,19h8.961c1.05-1.028,2.424-1.723,3.953-1.929L23.015,17H8.985L4,25v2.046l13.692-0.026
	C17.394,26.398,17.186,25.727,17.083,25.021z"/>
</svg>
