<?xml version="1.0" encoding="iso-8859-1"?>
<!-- Generator: Adobe Illustrator 19.1.0, SVG Export Plug-In . SVG Version: 6.00 Build 0)  -->
<svg version="1.1" id="Layer_1" xmlns="http://www.w3.org/2000/svg" xmlns:xlink="http://www.w3.org/1999/xlink" x="0px" y="0px"
	 viewBox="0 0 32 32" style="enable-background:new 0 0 32 32;" xml:space="preserve">
<line style="fill:none;stroke:#000000;stroke-width:2;stroke-miterlimit:10;" x1="16" y1="25.473" x2="16" y2="7"/>
<path d="M28,25.473c0,0-3.056-1.25-6-1.25s-6,1.25-6,1.25s-3.056-1.25-6-1.25s-6,1.25-6,1.25L3,27h26L28,25.473z"/>
<path style="fill:none;stroke:#000000;stroke-width:2;stroke-miterlimit:10;" d="M22,6c-2.944,0-6,1.25-6,1.25S12.944,6,10,6
	S4,7.25,4,7.25v18.223c0,0,3.056-1.25,6-1.25s6,1.25,6,1.25s3.056-1.25,6-1.25s6,1.25,6,1.25V7.25C28,7.25,24.944,6,22,6z"/>
<path d="M18,26c0,1.105-0.895,2-2,2s-2-0.895-2-2S18,24.895,18,26z"/>
</svg>
