<?xml version="1.0" encoding="iso-8859-1"?>
<!-- Generator: Adobe Illustrator 22.0.1, SVG Export Plug-In . SVG Version: 6.00 Build 0)  -->
<svg version="1.1" id="&#x421;&#x43B;&#x43E;&#x439;_1"
	 xmlns="http://www.w3.org/2000/svg" xmlns:xlink="http://www.w3.org/1999/xlink" x="0px" y="0px" viewBox="0 0 32 32"
	 style="enable-background:new 0 0 32 32;" xml:space="preserve">
<path style="fill:none;stroke:#000000;stroke-width:2;stroke-miterlimit:10;" d="M20,22h9c1.105,0,2,0.895,2,2v4.979
	c0,1.105-0.895,2-2,2h-9c-1.105,0-2-0.895-2-2V24C18,22.895,18.895,22,20,22z"/>
<line style="fill:none;stroke:#000000;stroke-width:2;stroke-miterlimit:10;" x1="20" y1="25" x2="30.994" y2="25"/>
<line style="fill:none;stroke:#000000;stroke-width:2;stroke-miterlimit:10;" x1="9" y1="23" x2="12" y2="23"/>
<line style="fill:none;stroke:#000000;stroke-width:2;stroke-miterlimit:10;" x1="23" y1="13.25" x2="23" y2="16"/>
<path style="fill:none;stroke:#000000;stroke-width:2;stroke-miterlimit:10;" d="M9,8.875V7c0-1.105,0.895-2,2-2h10
	c1.105,0,2,0.895,2,2v1.812"/>
<path style="fill:none;stroke:#000000;stroke-width:2;stroke-miterlimit:10;" d="M12,27h-1c-1.105,0-2-0.895-2-2V13.25"/>
<g>
	<path style="fill:none;stroke:#000000;stroke-width:2;stroke-miterlimit:10;" d="M18,12c0,1.102,0.898,2,2,2s2-0.898,2-2"/>
	<path style="fill:none;stroke:#000000;stroke-width:2;stroke-miterlimit:10;" d="M14,12c0,1.102,0.898,2,2,2c1.102,0,2-0.898,2-2"
		/>
	<path style="fill:none;stroke:#000000;stroke-width:2;stroke-miterlimit:10;" d="M10,12c0,1.102,0.898,2,2,2c1.102,0,2-0.898,2-2"
		/>
	<line style="fill:none;stroke:#000000;stroke-width:2;stroke-miterlimit:10;" x1="24" y1="9" x2="8" y2="9"/>
	<path style="fill:none;stroke:#000000;stroke-width:2;stroke-miterlimit:10;" d="M9,8l-3,4c0,1.102,0.898,2,2,2
		c1.102,0,2-0.898,2-2"/>
	<path style="fill:none;stroke:#000000;stroke-width:2;stroke-miterlimit:10;" d="M22,12c0,1.102,0.898,2,2,2c1.102,0,2-0.898,2-2
		l-3-4"/>
</g>
<path d="M16,25.979V24v-3c0-0.551,0.448-1,1-1h3h6h2.816c-0.414-1.161-1.514-2-2.816-2h-9c-1.654,0-3,1.346-3,3v4.979
	c0,1.302,0.839,2.402,2,2.816V25.979z"/>
</svg>
