<?xml version="1.0" encoding="UTF-8" standalone="no"?><!DOCTYPE svg PUBLIC "-//W3C//DTD SVG 1.1//EN" "http://www.w3.org/Graphics/SVG/1.1/DTD/svg11.dtd"><svg width="100%" height="100%" viewBox="0 0 32 32" version="1.1" xmlns="http://www.w3.org/2000/svg" xmlns:xlink="http://www.w3.org/1999/xlink" xml:space="preserve" style="fill-rule:evenodd;clip-rule:evenodd;stroke-linejoin:round;stroke-miterlimit:1.41421;"><g ><path d="M18,7l-8,1l-6,4l1,0l0,10l1,0l0,-10l2.012,0c-0.108,0.07 0.225,2.199 0.31,2.197l4.444,1.065l3.248,-3.674c0,0 -0.294,-1.228 -0.965,-2.129l2.951,-2.459Zm4.5,4c-1.571,0 -2.992,0.675 -3.998,1.744c-0.258,-0.275 -0.728,-0.667 -1.502,-0.744l-2,2.283c1.231,0.366 2,1.248 2,2.217l0,7.5l3,0l0,-7.5c0,-1.398 1.102,-2.5 2.5,-2.5c1.398,0 2.5,1.102 2.5,2.5l0,7.5l3,0l0,-7.5c0,-3.02 -2.48,-5.5 -5.5,-5.5Zm-13.529,4.408c-0.021,0.194 0.029,8.592 0.029,8.592l3,0l-0.005,-7.658l-3.024,-0.934Z" style="fill-rule:nonzero;"/></g></svg>