<?xml version="1.0" encoding="iso-8859-1"?>
<!-- Generator: Adobe Illustrator 21.0.2, SVG Export Plug-In . SVG Version: 6.00 Build 0)  -->
<svg version="1.1" id="Layer_1" xmlns="http://www.w3.org/2000/svg" xmlns:xlink="http://www.w3.org/1999/xlink" x="0px" y="0px"
	 viewBox="0 0 32 32" style="enable-background:new 0 0 32 32;" xml:space="preserve">
<path style="fill:none;stroke:#000000;stroke-width:2;stroke-miterlimit:10;" d="M3,26V16c0-2.209,1.791-4,4-4h0
	c2.209,0,4,1.791,4,4v10"/>
<path style="fill:none;stroke:#000000;stroke-width:2;stroke-miterlimit:10;" d="M11,26V16c0-2.209,1.791-4,4-4h0
	c2.209,0,4,1.791,4,4v3"/>
<path style="fill:none;stroke:#000000;stroke-width:2;stroke-miterlimit:10;" d="M29,12v8c0,2.761-2.239,5-5,5h0
	c-2.761,0-5-2.239-5-5v-3"/>
<path style="fill:none;stroke:#000000;stroke-width:2;stroke-miterlimit:10;" d="M29,10c0-2.761-2.239-5-5-5s-5,2.239-5,5"/>
<circle cx="24" cy="10" r="1"/>
</svg>
