<?xml version="1.0" encoding="iso-8859-1"?>
<!-- Generator: Adobe Illustrator 19.1.1, SVG Export Plug-In . SVG Version: 6.00 Build 0)  -->
<svg version="1.1" id="Layer_1" xmlns="http://www.w3.org/2000/svg" xmlns:xlink="http://www.w3.org/1999/xlink" x="0px" y="0px"
	 viewBox="0 0 32 32" style="enable-background:new 0 0 32 32;" xml:space="preserve">
<polygon points="26.553,5.105 22.159,7.303 20.177,14.24 12.408,17.154 6.241,24.35 7.759,25.65 13.592,18.846 21.823,15.76 
	23.841,8.697 27.447,6.895 "/>
<circle style="fill:none;stroke:#000000;stroke-width:2;stroke-miterlimit:10;" cx="8" cy="16" r="2"/>
<path d="M17.974,8.227l-5.432,1.966l-0.018,0.007c-0.018,0.008-0.034,0.02-0.052,0.028C11.606,10.62,11,11.488,11,12.5
	c0,1.379,1.121,2.5,2.5,2.5c0.248,0,0.483-0.047,0.71-0.115l5.435-1.947L17.974,8.227z M13.688,12.965l-0.001-0.002
	C13.629,12.986,13.566,13,13.5,13c-0.276,0-0.5-0.224-0.5-0.5c0-0.202,0.122-0.374,0.295-0.453c0.011-0.005,0.023-0.008,0.034-0.013
	l3.388-1.235l0.364,0.94L13.688,12.965z"/>
</svg>
