<?xml version="1.0" encoding="utf-8"?>
<!-- Generator: Adobe Illustrator 18.1.1, SVG Export Plug-In . SVG Version: 6.00 Build 0)  -->
<svg version="1.1" id="Layer_1" xmlns="http://www.w3.org/2000/svg" xmlns:xlink="http://www.w3.org/1999/xlink" x="0px" y="0px"
	 viewBox="0 0 32 32" enable-background="new 0 0 32 32" xml:space="preserve">
<circle cx="18" cy="15" r="1"/>
<circle cx="14" cy="15" r="1"/>
<circle cx="18" cy="21" r="1"/>
<circle cx="22" cy="21" r="1"/>
<circle cx="14" cy="21" r="1"/>
<circle cx="10" cy="21" r="1"/>
<circle cx="18" cy="27" r="1"/>
<circle cx="22" cy="27" r="1"/>
<circle cx="26" cy="27" r="1"/>
<circle cx="6" cy="27" r="1"/>
<circle cx="14" cy="27" r="1"/>
<circle cx="10" cy="27" r="1"/>
<circle cx="12" cy="18" r="1"/>
<circle cx="20" cy="18" r="1"/>
<circle cx="16" cy="18" r="1"/>
<circle cx="12" cy="24" r="1"/>
<circle cx="24" cy="24" r="1"/>
<circle cx="8" cy="24" r="1"/>
<circle cx="20" cy="24" r="1"/>
<circle cx="16" cy="24" r="1"/>
<line fill="none" stroke="#000000" stroke-width="2" stroke-miterlimit="10" x1="9" y1="12" x2="23" y2="12"/>
<path fill="none" stroke="#000000" stroke-width="2" stroke-miterlimit="10" d="M21,12H11c0-2.8,2.2-5,5-5S21,9.2,21,12z"/>
<line fill="none" stroke="#000000" stroke-width="2" stroke-miterlimit="10" x1="16" y1="7" x2="16" y2="4"/>
</svg>
