<?xml version="1.0" encoding="iso-8859-1"?>
<!-- Generator: Adobe Illustrator 19.1.0, SVG Export Plug-In . SVG Version: 6.00 Build 0)  -->
<svg version="1.1" id="Layer_1" xmlns="http://www.w3.org/2000/svg" xmlns:xlink="http://www.w3.org/1999/xlink" x="0px" y="0px"
	 viewBox="0 0 32 32" style="enable-background:new 0 0 32 32;" xml:space="preserve">
<path style="fill:none;stroke:#000000;stroke-width:2;stroke-miterlimit:10;" d="M17,12l-4.578-4.578C10.871,5.871,8.768,5,6.575,5
	H3v6l-1,0v10l1,0v6h3.575c2.193,0,4.297-0.871,5.847-2.422L17,20l8.407-0.701C27.677,19.11,29.736,17.895,31,16l0,0l0,0
	c-1.264-1.895-3.323-3.11-5.593-3.299L17,12z"/>
<line style="fill:none;stroke:#000000;stroke-width:2;stroke-miterlimit:10;" x1="17" y1="12" x2="10" y2="12"/>
<line style="fill:none;stroke:#000000;stroke-width:2;stroke-miterlimit:10;" x1="17" y1="20" x2="10" y2="20"/>
<rect y="10" width="4" height="3"/>
<rect y="19" width="4" height="3"/>
<line style="fill:none;stroke:#000000;stroke-width:2;stroke-miterlimit:10;" x1="7" y1="24" x2="7" y2="21"/>
<rect x="24" y="15" width="2" height="2"/>
</svg>
