<?xml version="1.0" encoding="iso-8859-1"?>
<!-- Generator: Adobe Illustrator 19.2.0, SVG Export Plug-In . SVG Version: 6.00 Build 0)  -->
<svg version="1.1"  xmlns="http://www.w3.org/2000/svg" xmlns:xlink="http://www.w3.org/1999/xlink" x="0px" y="0px"
	 viewBox="0 0 32 32" style="enable-background:new 0 0 32 32;" xml:space="preserve">
<circle cx="27.5" cy="26.5" r="1.5"/>
<circle cx="27.5" cy="15.5" r="1.5"/>
<circle cx="24" cy="21" r="1.5"/>
<circle cx="4.5" cy="26.5" r="1.5"/>
<circle cx="4.5" cy="15.5" r="1.5"/>
<polygon points="18.243,13 15.481,16 17,16 17,15 28,15 28,27 17,27 17,26 15,26 15,27 4,27 4,15 8.202,15 8.528,14.646 10.042,13 
	2,13 2,29 16,29 30,29 30,13 "/>
<path d="M17,17.136V18h-2v-0.864c-0.317,0.079-0.61,0.206-0.89,0.353l-1.782,1.935C12.124,19.906,12,20.434,12,21
	c0,1.894,1.259,3.429,3,3.864V24h2v0.864c1.741-0.435,3-1.97,3-3.864S18.741,17.571,17,17.136z M17,22h-2v-2h2V22z"/>
<g>
	<g>
		<path d="M19.3,8.9C19.5,9,19.7,9,20,9c1.7,0,3-1.3,3-3s-1.3-3-3-3s-3,1.3-3,3c0,0.6,0.2,1.2,0.5,1.7L16,9.4l-1.6-1.7
			C14.8,7.3,15,6.7,15,6c0-1.7-1.3-3-3-3S9,4.3,9,6s1.3,3,3,3c0.2,0,0.5,0,0.7,0l1.9,2L10,16v3L19.3,8.9z M12,7c-0.6,0-1-0.4-1-1
			s0.4-1,1-1s1,0.4,1,1S12.6,7,12,7z M20,7c-0.6,0-1-0.4-1-1s0.4-1,1-1s1,0.4,1,1S20.6,7,20,7z"/>
	</g>
</g>
<circle cx="8" cy="21" r="1.5"/>
</svg>
