<?xml version="1.0" encoding="iso-8859-1"?>
<!-- Generator: Adobe Illustrator 19.1.1, SVG Export Plug-In . SVG Version: 6.00 Build 0)  -->
<svg version="1.1" id="Layer_1" xmlns="http://www.w3.org/2000/svg" xmlns:xlink="http://www.w3.org/1999/xlink" x="0px" y="0px"
	 viewBox="0 0 32 32" style="enable-background:new 0 0 32 32;" xml:space="preserve">
<path d="M28,22l-1.5-1.6l0.7-0.6L25.6,18c-1.2-1.2-3-2-4.7-2h-3c0,0-0.3,1.2-2,1.2V20c2.2,0,4.1-0.3,5.3-0.6
	c0.9-0.2,1.7,0.5,1.7,1.4v2.6c0,0.8-0.7,1.5-1.6,1.4c-1.4-0.2-3.6-0.4-5.4-0.4V29l1.1-0.4l1.4,0.4l1.2-0.7L21,29l1.3-1.1l1,0.6
	l1.2-1.6L26,27v-1.9l1.312-0.037L26.7,22.6L28,22z"/>
<path d="M4,22l1.5-1.6l-0.7-0.6L6.4,18c1.2-1.2,3-2,4.7-2h3c0,0,0.3,1.2,2,1.2V20c-2.2,0-4.1-0.3-5.3-0.6c-1-0.1-1.8,0.5-1.8,1.4
	v2.6c0,0.8,0.7,1.5,1.6,1.4c1.4-0.2,3.6-0.4,5.4-0.4V29l-1.1-0.4L13.5,29l-1.2-0.7L11,29l-1.3-1.1l-1,0.6l-1.2-1.6L6,27l-0.1-2
	l-1.4-0.063L5.2,22.5L4,22z"/>
<circle cx="14" cy="14" r="1"/>
<circle cx="18" cy="14" r="1"/>
<path style="fill:none;stroke:#000000;stroke-width:2;stroke-miterlimit:10;" d="M16,16c0,0-0.081-4,5-4"/>
<path style="fill:none;stroke:#000000;stroke-width:2;stroke-miterlimit:10;" d="M16,16c0,0,0.081-4-5-4"/>
<line style="fill:none;stroke:#000000;stroke-width:2;stroke-miterlimit:10;" x1="13" y1="19" x2="13" y2="25"/>
<line style="fill:none;stroke:#000000;stroke-width:2;stroke-miterlimit:10;" x1="19" y1="19" x2="19" y2="25"/>
<path style="fill:none;stroke:#000000;stroke-width:2;stroke-miterlimit:10;" d="M13,17H7.5C6.672,17,6,16.328,6,15.5
	C6,14.672,6.672,14,7.5,14H8c0,0-0.066-6,8-6s8,6,8,6h0.5c0.828,0,1.5,0.672,1.5,1.5c0,0.828-0.672,1.5-1.5,1.5H19"/>
<path style="fill:none;stroke:#000000;stroke-width:2;stroke-miterlimit:10;" d="M19,16c0,1.657-1.343,3-3,3s-3-1.343-3-3"/>
<path style="fill:none;stroke:#000000;stroke-width:2;stroke-miterlimit:10;" d="M21,25H11c-1.1,0-2-0.9-2-2v-2c0-1.1,0.9-2,2-2h10
	c1.1,0,2,0.9,2,2v2C23,24.1,22.1,25,21,25z"/>
<path style="fill:none;stroke:#000000;stroke-width:2;stroke-miterlimit:10;" d="M23,11c0,0,1-0.629,1-2s-3-3-3-3s-1.189-2-5-2
	s-5,2-5,2S8,7.629,8,9s1,2,1,2"/>
<path style="fill:none;stroke:#000000;stroke-width:2;stroke-miterlimit:10;" d="M12,9c0,0,2.069,1,4,1s4-1,4-1"/>
</svg>
