<?xml version="1.0" encoding="iso-8859-1"?>
<!-- Generator: Adobe Illustrator 19.1.1, SVG Export Plug-In . SVG Version: 6.00 Build 0)  -->
<svg version="1.1" id="Layer_1" xmlns="http://www.w3.org/2000/svg" xmlns:xlink="http://www.w3.org/1999/xlink" x="0px" y="0px"
	 viewBox="0 0 32 32" style="enable-background:new 0 0 32 32;" xml:space="preserve">
<rect x="1" y="12" style="fill:none;stroke:#000000;stroke-width:2;stroke-miterlimit:10;" width="30" height="14"/>
<polyline style="fill:none;stroke:#000000;stroke-width:2;stroke-miterlimit:10;" points="27.227,12.105 16,6 4.773,12.105 "/>
<path id="XMLID_38_" style="fill:none;stroke:#000000;stroke-width:2;stroke-miterlimit:10;" d="M7,20v0.5C7,21.328,6.328,22,5.5,22
	h0C4.672,22,4,21.328,4,20.5v-3C4,16.672,4.672,16,5.5,16h0C6.328,16,7,16.672,7,17.5V18"/>
<path id="XMLID_2_" style="fill:none;stroke:#000000;stroke-width:2;stroke-miterlimit:10;" d="M17,18v2.5
	c0,0.828-0.672,1.5-1.5,1.5h0c-0.828,0-1.5-0.672-1.5-1.5v-3c0-0.828,0.672-1.5,1.5-1.5h0c0.828,0,1.5,0.672,1.5,1.5V19"/>
<path id="XMLID_57_" style="fill:none;stroke:#000000;stroke-width:2;stroke-miterlimit:10;" d="M23,17.408L23,17.408
	C23,16.756,22.53,16,21.5,16c-0.828,0-1.5,0.672-1.5,1.5v0c0,0.828,0.672,1.5,1.5,1.5h0c0.828,0,1.5,0.672,1.5,1.5v0
	c0,0.828-0.576,1.5-1.5,1.5c-1.104,0-1.5-0.572-1.5-1.381l0,0"/>
<polyline id="XMLID_74_" style="fill:none;stroke:#000000;stroke-width:2;stroke-miterlimit:10;" points="10,15 10,22 12,22 "/>
<polyline id="XMLID_332_" style="fill:none;stroke:#000000;stroke-width:2;stroke-miterlimit:10;" points="29,22 26,22 26,16 29,16 
	"/>
<line id="XMLID_331_" style="fill:none;stroke:#000000;stroke-width:2;stroke-miterlimit:10;" x1="26" y1="19" x2="29" y2="19"/>
</svg>
