<?xml version="1.0" encoding="iso-8859-1"?>
<!-- Generator: Adobe Illustrator 19.1.0, SVG Export Plug-In . SVG Version: 6.00 Build 0)  -->
<svg version="1.1" id="Layer_1" xmlns="http://www.w3.org/2000/svg" xmlns:xlink="http://www.w3.org/1999/xlink" x="0px" y="0px"
	 viewBox="0 0 32 32" style="enable-background:new 0 0 32 32;" xml:space="preserve">
<rect x="11" y="5" width="4" height="2"/>
<rect x="17" y="5" width="4" height="2"/>
<rect x="23" y="5" width="4" height="2"/>
<rect x="11" y="13" width="4" height="2"/>
<rect x="17" y="13" width="4" height="2"/>
<rect x="23" y="13" width="4" height="2"/>
<rect x="11" y="21" width="4" height="2"/>
<rect x="17" y="21" width="4" height="2"/>
<rect x="23" y="21" width="4" height="2"/>
<rect x="5" y="9" width="4" height="2"/>
<rect x="11" y="9" width="4" height="2"/>
<rect x="17" y="9" width="4" height="2"/>
<rect x="5" y="17" width="4" height="2"/>
<rect x="11" y="17" width="4" height="2"/>
<rect x="17" y="17" width="4" height="2"/>
<rect x="5" y="25" width="4" height="2"/>
<rect x="11" y="25" width="4" height="2"/>
<rect x="17" y="25" width="4" height="2"/>
</svg>
