<?xml version="1.0" encoding="iso-8859-1"?>
<!-- Generator: Adobe Illustrator 19.1.1, SVG Export Plug-In . SVG Version: 6.00 Build 0)  -->
<svg version="1.1" id="Layer_1" xmlns="http://www.w3.org/2000/svg" xmlns:xlink="http://www.w3.org/1999/xlink" x="0px" y="0px"
	 viewBox="0 0 32 32" style="enable-background:new 0 0 32 32;" xml:space="preserve">
<path style="fill:none;stroke:#000000;stroke-width:2;stroke-miterlimit:10;" d="M20,23.031c-4.063,0.016-4.557-0.223-6.589-1.985
	c-0.931-0.84-2.03-1.048-2.895-1.046c-0.866,0.002-1.498,0.214-1.498,0.214l-4.743,1.82l1.314,3.685L10,24.031l7.118,3.918
	L29,23.031"/>
<path style="fill:none;stroke:#000000;stroke-width:2;stroke-miterlimit:10;" d="M17,18L17,18c0-1.657,1.343-3,3-3h5V6h-5
	c-1.657,0-3,1.343-3,3v0"/>
<path style="fill:none;stroke:#000000;stroke-width:2;stroke-miterlimit:10;" d="M17,9L17,9c0-1.657-1.343-3-3-3H9v9h5
	c1.657,0,3,1.343,3,3v0"/>
</svg>
