<?xml version="1.0" encoding="iso-8859-1"?>
<!-- Generator: Adobe Illustrator 19.1.0, SVG Export Plug-In . SVG Version: 6.00 Build 0)  -->
<svg version="1.1" id="Layer_1" xmlns="http://www.w3.org/2000/svg" xmlns:xlink="http://www.w3.org/1999/xlink" x="0px" y="0px"
	 viewBox="0 0 32 32" style="enable-background:new 0 0 32 32;" xml:space="preserve">
<g>
	<path d="M10.03,11.402C10.331,8.373,12.893,6,16,6c3.309,0,6,2.691,6,6H10.628l4.309,4.309C14.97,16.211,15,16.11,15,16
		c0-0.051,0-0.517,0-1c0-0.507,0.507-1,1-1h1c0.999,0,1,1,1,1c0,0.841-0.698,2.387-0.925,3.447l2.468,2.468
		C20.382,20.677,21,19.914,21,19c0-1.004-1-2.998-1-4c0,0,0.018-1,1-1h3v11c0,0.11-0.03,0.211-0.063,0.309l1.467,1.467
		C25.774,26.278,26,25.667,26,25V12h-2c0-4.411-3.589-8-8-8c-3.615,0-6.674,2.412-7.662,5.71L10.03,11.402z"/>
	<path d="M21.8,26H9c-0.552,0-1-0.449-1-1V14h1.8l-2-2H6v13c0,1.654,1.346,3,3,3h14c0.245,0,0.479-0.038,0.707-0.093L21.8,26z"/>
</g>
<line style="fill:none;stroke:#000000;stroke-width:2;stroke-miterlimit:10;" x1="3" y1="3" x2="29" y2="29"/>
</svg>
