<?xml version="1.0" encoding="iso-8859-1"?>
<!-- Generator: Adobe Illustrator 19.1.0, SVG Export Plug-In . SVG Version: 6.00 Build 0)  -->
<svg version="1.1" id="Layer_1" xmlns="http://www.w3.org/2000/svg" xmlns:xlink="http://www.w3.org/1999/xlink" x="0px" y="0px"
	 viewBox="0 0 32 32" style="enable-background:new 0 0 32 32;" xml:space="preserve">
<line style="fill:none;stroke:#000000;stroke-width:2;stroke-miterlimit:10;" x1="3" y1="16" x2="9" y2="16"/>
<line style="fill:none;stroke:#000000;stroke-width:2;stroke-miterlimit:10;" x1="23" y1="16" x2="29" y2="16"/>
<line style="fill:none;stroke:#000000;stroke-width:2;stroke-miterlimit:10;" x1="16" y1="23" x2="16" y2="29"/>
<path d="M20.996,8.519C23.408,10.135,25,12.885,25,16c0,4.963-4.038,9-9,9s-9-4.037-9-9c0-3.115,1.592-5.865,4.004-7.481
	l1.464-2.927C8.132,7.068,5,11.171,5,16c0,6.065,4.935,11,11,11s11-4.935,11-11c0-4.829-3.132-8.932-7.468-10.408L20.996,8.519z"/>
<polygon points="16,3 13,9 16,8 19,9 "/>
</svg>
