<?xml version="1.0" encoding="iso-8859-1"?>
<!-- Generator: Adobe Illustrator 19.2.0, SVG Export Plug-In . SVG Version: 6.00 Build 0)  -->
<svg version="1.1" id="Layer_1" xmlns="http://www.w3.org/2000/svg" xmlns:xlink="http://www.w3.org/1999/xlink" x="0px" y="0px"
	 viewBox="0 0 32 32" style="enable-background:new 0 0 32 32;" xml:space="preserve">
<polygon points="14,25 12,25 12,28 10,28 10,25 8,25 11,22 "/>
<polygon points="24,25 22,25 22,28 20,28 20,25 18,25 21,22 "/>
<path d="M22.406,12C21.706,11.2,21,10.3,21,10V4h-2v6c0,1.3,1.612,2.987,2.313,3.688L21.594,14H22c1.1,0,2,0.9,2,2c0,1.1-0.9,2-2,2
	c-1.7,0-2.494,0.594-3.094,1.094S17.794,20,16.094,20h-0.188c-1.7,0-2.213-0.406-2.813-0.906S11.7,18,10,18c-1.1,0-2-0.9-2-2
	c0-1.1,0.9-2,2-2h0.406l0.281-0.313c0.635-0.635,2.009-2.081,2.26-3.316C12.978,10.245,13,10.12,13,10V4h-2v5.563V10
	c0,0.3-0.706,1.2-1.406,2C7.594,12.2,6,13.9,6,16c0,2.2,1.8,4,4,4c1,0,1.306,0.287,1.906,0.688C12.606,21.287,13.5,22,16,22
	s3.394-0.713,4.094-1.313C20.694,20.287,21,20,22,20c2.2,0,4-1.8,4-4C26,13.9,24.406,12.2,22.406,12z"/>
</svg>
