<?xml version="1.0" encoding="iso-8859-1"?>
<!-- Generator: Adobe Illustrator 19.1.0, SVG Export Plug-In . SVG Version: 6.00 Build 0)  -->
<svg version="1.1" id="Layer_1" xmlns="http://www.w3.org/2000/svg" xmlns:xlink="http://www.w3.org/1999/xlink" x="0px" y="0px"
	 viewBox="0 0 32 32" style="enable-background:new 0 0 32 32;" xml:space="preserve">
<circle style="fill:none;stroke:#000000;stroke-width:2;stroke-miterlimit:10;" cx="16" cy="16" r="11"/>
<path style="fill:none;stroke:#000000;stroke-width:2;stroke-miterlimit:10;" d="M12,12L12,12c-1.105,0-2,0.895-2,2v4
	c0,1.105,0.895,2,2,2h0c1.105,0,2-0.895,2-2v-4C14,12.895,13.105,12,12,12z"/>
<path style="fill:none;stroke:#000000;stroke-width:2;stroke-miterlimit:10;" d="M22,14v-0.146C22,12.83,21.17,12,20.146,12h-0.292
	C18.83,12,18,12.83,18,13.854v0c0,0.702,0.397,1.344,1.025,1.658l1.95,0.975C21.603,16.802,22,17.444,22,18.146v0
	C22,19.17,21.17,20,20.146,20h-0.292C18.83,20,18,19.17,18,18.146V18"/>
</svg>
