<?xml version="1.0" encoding="iso-8859-1"?>
<!-- Generator: Adobe Illustrator 21.0.2, SVG Export Plug-In . SVG Version: 6.00 Build 0)  -->
<svg version="1.1" id="Layer_1" xmlns="http://www.w3.org/2000/svg" xmlns:xlink="http://www.w3.org/1999/xlink" x="0px" y="0px"
	 viewBox="0 0 32 32" style="enable-background:new 0 0 32 32;" xml:space="preserve">
<polyline style="fill:none;stroke:#000000;stroke-width:2;stroke-miterlimit:10;" points="19,4 19,10 25,10 "/>
<path d="M32,24.5L20,17v15L32,24.5z M22,20.61l6.23,3.89L22,28.39V20.61z"/>
<g>
	<polygon points="18,27 8,27 8,5 18.586,5 24,10.414 24,17.142 26,18.392 26,9.586 19.414,3 6,3 6,29 18,29 	"/>
</g>
<polygon points="18,17 18,16.13 16,18.464 12.571,14.464 9.241,18.35 10.759,19.65 12.571,17.536 16,21.536 18,19.203 "/>
</svg>
