<?xml version="1.0" encoding="iso-8859-1"?>
<!-- Generator: Adobe Illustrator 19.1.1, SVG Export Plug-In . SVG Version: 6.00 Build 0)  -->
<svg version="1.1"  xmlns="http://www.w3.org/2000/svg" xmlns:xlink="http://www.w3.org/1999/xlink" x="0px" y="0px"
	 viewBox="0 0 32 32" style="enable-background:new 0 0 32 32;" xml:space="preserve">
<path style="fill:none;stroke:#000000;stroke-width:2;stroke-miterlimit:10;" d="M25,4.213C25,3.893,25.295,3,26.569,3
	C27.842,3,29,3.865,29,4.806C29,5.715,27.783,6,27.104,6C26.47,6,25,5.435,25,4.213z"/>
<path style="fill:none;stroke:#000000;stroke-width:2;stroke-miterlimit:10;" d="M7.328,11c0.469-1.438,2.895-6,9.649-6
	C24.349,5,24,11.224,24,12h-0.125c0,0-0.899-6-8.875-6c-5.691,0-7.593,5-7.593,5H7.328z"/>
<path style="fill:none;stroke:#000000;stroke-width:2;stroke-miterlimit:10;" d="M22.672,22c-0.469,1.438-2.895,6-9.649,6
	C5.651,28,6,21.776,6,21h0.125c0,0,0.909,6,8.875,6c5.691,0,7.593-5,7.593-5H22.672z"/>
<path d="M5.416,14.696c-0.632,0-1.144,0.516-1.144,1.152C4.272,16.484,4.785,17,5.416,17c0.632,0,1.144-0.516,1.144-1.152
	C6.561,15.212,6.048,14.696,5.416,14.696z M5.416,16.39c-0.273,0-0.493-0.243-0.493-0.542c0-0.299,0.221-0.542,0.493-0.542
	s0.493,0.243,0.493,0.542C5.91,16.148,5.689,16.39,5.416,16.39z"/>
<path d="M26.693,14.696c-0.558,0-1.011,0.516-1.011,1.152c0,0.636,0.453,1.152,1.011,1.152c0.558,0,1.011-0.516,1.011-1.152
	C27.704,15.212,27.251,14.696,26.693,14.696z M26.837,16.402c-0.278,0-0.504-0.252-0.504-0.563c0-0.311,0.225-0.563,0.504-0.563
	c0.278,0,0.504,0.252,0.504,0.563S27.116,16.402,26.837,16.402z"/>
<path d="M3.289,13.833c-0.107,0-1.289,0-1.289,0s0,3.076,0,3.084c0,0.007,0.698,0,0.698,0c-0.01-0.011,0.007-1.118,0.007-1.118
	s0.349,0,0.598,0s0.926-0.207,0.926-1.025C4.229,13.982,3.433,13.833,3.289,13.833z M3.101,15.232c-0.256,0-0.374-0.014-0.381-0.007
	v-0.789c0,0,0.235,0,0.381,0c0.204,0,0.445,0.129,0.445,0.372C3.546,15.02,3.357,15.232,3.101,15.232z"/>
<path d="M7.557,16.922H6.899v-2.169h0.624v0.281c0,0,0.19-0.306,0.562-0.306c0.104,0,0.177,0.014,0.177,0.014v0.669
	c0,0-0.073-0.029-0.2-0.029c-0.127,0-0.498,0.079-0.498,0.558C7.563,16.398,7.552,16.922,7.557,16.922z"/>
<path d="M24.806,16.922h-0.658v-2.169h0.624v0.281c0,0,0.19-0.306,0.562-0.306c0.104,0,0.177,0.014,0.177,0.014v0.669
	c0,0-0.073-0.029-0.2-0.029c-0.127,0-0.498,0.079-0.498,0.558C24.811,16.398,24.8,16.922,24.806,16.922z"/>
<path d="M8.795,15.383H8.418v-0.629h0.142c0.163,0,0.296-0.133,0.296-0.296v-0.325H9.44v0.629h0.433v0.612h-0.43
	c0,0,0,0.647,0,0.772s0.116,0.241,0.247,0.241c0.093,0,0.168-0.032,0.168-0.032l-0.223,0.601c0,0-0.038,0.017-0.131,0.017
	c-0.093,0-0.708-0.061-0.708-0.702C8.795,15.629,8.792,15.38,8.795,15.383z"/>
<path d="M20.214,15.383h-0.377v-0.629h0.142c0.163,0,0.296-0.133,0.296-0.296v-0.325h0.583v0.629h0.433v0.612h-0.43
	c0,0,0,0.647,0,0.772s0.116,0.241,0.247,0.241c0.093,0,0.201-0.053,0.201-0.053v0.574c0,0-0.165,0.065-0.387,0.065
	c-0.147,0-0.708-0.061-0.708-0.702C20.214,15.629,20.211,15.38,20.214,15.383z"/>
<path d="M11.824,13.834h-0.771l-1.19,3.093h0.718l0.229-0.632h1.171l0.243,0.632h0.752L11.824,13.834z M11.025,15.667l0.382-1.05
	l0.367,1.05H11.025z"/>
<polygon points="12.703,14.757 13.417,14.757 13.914,16.089 14.386,14.757 15.075,14.757 14.266,16.927 13.592,16.927 "/>
<path d="M16.206,16.44c-0.377,0-0.483-0.441-0.483-0.441h1.526c0-0.496-0.098-1.306-1.064-1.306c-0.996,0-1.102,0.958-1.102,1.157
	c0,0.47,0.322,1.149,1.136,1.149c0.814,0,0.992-0.683,0.992-0.683l-0.53-0.174C16.681,16.143,16.584,16.44,16.206,16.44z
	 M16.194,15.215c0.382,0,0.419,0.364,0.419,0.364h-0.877C15.736,15.495,15.846,15.215,16.194,15.215z"/>
<path d="M17.587,16.927v-2.169h0.64v0.219c0,0,0.236-0.286,0.64-0.286s0.75,0.412,0.75,0.741s0,1.495,0,1.495h-0.648
	c0,0,0-1.103,0-1.288c0-0.232-0.194-0.326-0.362-0.326c-0.193,0-0.379,0.128-0.379,0.375c0,0.215,0,1.239,0,1.239
	S17.587,16.927,17.587,16.927z"/>
<path d="M23.679,14.762v2.169h-0.64v-0.219c0,0-0.236,0.286-0.64,0.286s-0.75-0.412-0.75-0.741s0-1.495,0-1.495h0.648
	c0,0,0,1.103,0,1.288c0,0.232,0.194,0.326,0.362,0.326c0.193,0,0.379-0.128,0.379-0.375c0-0.215,0-1.239,0-1.239H23.679z"/>
<rect x="27.345" y="14.752" width="0.655" height="2.175"/>
<polygon points="8,18.039 8.412,18.039 9.02,20.292 9.735,18.039 10.143,18.039 10.848,20.314 11.466,18.039 11.856,18.039 
	11.065,20.939 10.663,20.939 9.92,18.608 9.21,20.939 8.814,20.939 "/>
<path d="M13.376,18c-0.776,0-1.406,0.672-1.406,1.5s0.629,1.5,1.406,1.5s1.406-0.672,1.406-1.5S14.152,18,13.376,18z M13.376,20.634
	c-0.561,0-1.016-0.507-1.016-1.133c0-0.626,0.455-1.133,1.016-1.133c0.561,0,1.016,0.507,1.016,1.133
	C14.392,20.126,13.937,20.634,13.376,20.634z"/>
<path d="M17.161,18.871c0-0.63-0.558-0.808-0.808-0.808s-1.101,0-1.101,0v2.877h0.38v-1.176h0.423l0.646,1.176h0.456L16.5,19.741
	C16.5,19.74,17.161,19.623,17.161,18.871z M15.643,19.4v-0.998c0,0,0.374,0,0.58,0c0.206,0,0.542,0.128,0.542,0.474
	c0,0.346-0.277,0.524-0.439,0.524S15.643,19.4,15.643,19.4z"/>
<path d="M17.622,18.039v2.905h1.73V20.57h-1.34v-2.531C18.013,18.039,17.612,18.039,17.622,18.039z"/>
<path d="M20.742,18.051c-0.233,0-1.058,0-1.058,0v2.888c0,0,0.786,0,1.063,0S22,20.71,22,19.472
	C22,18.235,20.975,18.051,20.742,18.051z M20.687,20.582c-0.2,0-0.613,0-0.613,0v-2.169c0.005-0.005,0.488-0.005,0.683-0.005
	c0.195,0,0.835,0.212,0.835,1.11C21.593,20.415,20.888,20.582,20.687,20.582z"/>
</svg>
