<?xml version="1.0" encoding="iso-8859-1"?>
<!-- Generator: Adobe Illustrator 19.1.1, SVG Export Plug-In . SVG Version: 6.00 Build 0)  -->
<svg version="1.1" id="Layer_1" xmlns="http://www.w3.org/2000/svg" xmlns:xlink="http://www.w3.org/1999/xlink" x="0px" y="0px"
	 viewBox="-8 10 32 32" enable-background="new -8 10 32 32" xml:space="preserve">
<g>
	<path fill="#231F20" d="M19,26c0-1.352-0.898-2.497-2.129-2.871c-0.074-0.244-0.186-0.47-0.316-0.683l3.484-5.346l-1.676-1.092
		l-3.366,5.165C14.685,21.062,14.35,21,14,21c-0.307,0-0.598,0.057-0.877,0.143l3.87-7.254l-1.764-0.941l-4.366,8.184
		c-0.285-0.085-0.587-0.14-0.921-0.132c-0.648-0.634-1.525-1-2.443-1c-1.166,0-2.225,0.582-2.865,1.492C4.156,21.177,3.589,21,3,21
		c-1.306,0-2.419,0.838-2.831,2.005C-1.53,22.9-3,24.289-3,26h-2l0,1c0,0.12,0.152,12,13,12c12.849,0,13-11.88,13-12v-1H19z M0,25
		c0.146,0,0.292,0.05,0.484,0.167l0.588,0.322l1.038-0.747l-0.093-0.61C2.01,24.089,2,24.046,2,24c0-0.551,0.449-1,1-1
		c0.36,0,0.683,0.193,0.866,0.517l0.332,0.591l0.672-0.09l0.998-0.013l0.162-0.803C6.17,22.505,6.789,22,7.5,22
		c0.482,0,0.939,0.238,1.221,0.637l0.39,0.55l0.656-0.154C9.86,23.01,9.935,23,10,23c0.552,0,1,0.449,1,1h2c0-0.551,0.448-1,1-1
		s1,0.449,1,1v1h1c0.552,0,1,0.449,1,1h-4.5h-7H-1C-1,25.449-0.551,25,0,25z M8,37c-8.879,0-10.591-6.453-10.921-9h21.843
		C18.592,30.547,16.879,37,8,37z"/>
	<circle fill="#231F20" cx="7.5" cy="24.5" r="0.5"/>
	<circle fill="#231F20" cx="12.5" cy="25.5" r="0.5"/>
	<circle fill="#231F20" cx="5.5" cy="25.5" r="0.5"/>
</g>
</svg>
