<?xml version="1.0" encoding="iso-8859-1"?>
<!-- Generator: Adobe Illustrator 19.1.0, SVG Export Plug-In . SVG Version: 6.00 Build 0)  -->
<svg version="1.1" id="Layer_1" xmlns="http://www.w3.org/2000/svg" xmlns:xlink="http://www.w3.org/1999/xlink" x="0px" y="0px"
	 viewBox="0 0 32 32" style="enable-background:new 0 0 32 32;" xml:space="preserve">
<path style="fill:none;stroke:#000000;stroke-width:2;stroke-miterlimit:10;" d="M17,17h-5c-1.105,0-2,0.895-2,2v2
	c0,1.105,0.895,2,2,2h0c1.105,0,2-0.895,2-2v-3.5c0-1.933-1.567-3.5-3.5-3.5h0C8.567,14,7,15.567,7,17.5V21c0,2.761,2.239,5,5,5h3
	c2.761,0,5-2.239,5-5c0,0,0-5.989,0-8c0-2.988,4-6.327,4-6.327V6H13v0.673c0,0,4,3.319,4,6.327c0,1.999,0,8,0,8c0,2.761-2.239,5-5,5
	l0,0"/>
<line style="fill:none;stroke:#000000;stroke-width:2;stroke-miterlimit:10;" x1="25" y1="19" x2="25" y2="15"/>
<line style="fill:none;stroke:#000000;stroke-width:2;stroke-miterlimit:10;" x1="22" y1="17" x2="26" y2="17"/>
</svg>
