<?xml version="1.0" encoding="iso-8859-1"?>
<!-- Generator: Adobe Illustrator 19.1.1, SVG Export Plug-In . SVG Version: 6.00 Build 0)  -->
<svg version="1.1" id="Layer_1" xmlns="http://www.w3.org/2000/svg" xmlns:xlink="http://www.w3.org/1999/xlink" x="0px" y="0px"
	 viewBox="0 0 32 32" style="enable-background:new 0 0 32 32;" xml:space="preserve">
<circle style="fill:none;stroke:#000000;stroke-width:2;stroke-miterlimit:10;" cx="16" cy="10" r="2"/>
<path style="fill:none;stroke:#000000;stroke-width:2;stroke-miterlimit:10;" d="M10,20l2.683-5C11.066,13.926,10,12.087,10,10
	c0-3.314,2.686-6,6-6s6,2.686,6,6c0,0.701-0.12,1.375-0.342,2"/>
<circle style="fill:none;stroke:#000000;stroke-width:2;stroke-miterlimit:10;" cx="23" cy="22" r="2"/>
<path style="fill:none;stroke:#000000;stroke-width:2;stroke-miterlimit:10;" d="M17,12l3,4.803C20.883,16.292,21.907,16,23,16
	c3.314,0,6,2.686,6,6s-2.686,6-6,6c-1.777,0-3.373-0.772-4.471-1.999"/>
<ellipse style="fill:none;stroke:#000000;stroke-width:2;stroke-miterlimit:10;" cx="9" cy="22" rx="2" ry="2"/>
<path style="fill:none;stroke:#000000;stroke-width:2;stroke-miterlimit:10;" d="M21,22h-6c-0.002,2.071-1.078,4.085-3,5.195
	C9.13,28.852,5.461,27.869,3.805,25S3.131,18.461,6,16.805c0.637-0.368,1.314-0.606,2-0.722"/>
</svg>
