<?xml version="1.0" encoding="iso-8859-1"?>
<!-- Generator: Adobe Illustrator 22.0.1, SVG Export Plug-In . SVG Version: 6.00 Build 0)  -->
<svg version="1.1" id="Icons" xmlns="http://www.w3.org/2000/svg" xmlns:xlink="http://www.w3.org/1999/xlink" x="0px" y="0px"
	 viewBox="0 0 32 32" style="enable-background:new 0 0 32 32;" xml:space="preserve">
<g>
	<path d="M21,25h2v2h-2V25z M23,23.7c1-0.4,2-1.4,2-2.7c0-1.2-0.8-3-3-3s-3,1.8-3,3h2c0-0.5,0.2-1,1-1s1,0.5,1,1s-0.5,0.8-0.8,0.9
		H22c-0.6,0.2-1,0.8-1,1.5V24h2V23.7z M30,22c0-4.4-3.6-8-8-8s-8,3.6-8,8s3.6,8,8,8S30,26.4,30,22z M28,22c0,3.3-2.7,6-6,6
		s-6-2.7-6-6s2.7-6,6-6S28,18.7,28,22z"/>
	<polyline style="fill:none;stroke:#000000;stroke-width:2;stroke-miterlimit:10;" points="15,23 4,23 4,9 26,9 26,16.021 	"/>
	<path d="M29,13v6h-1.82c-0.31-0.55-0.71-1.04-1.18-1.46V13H29z"/>
	<rect x="7" y="12" width="4" height="8"/>
</g>
</svg>
