<?xml version="1.0" encoding="iso-8859-1"?>
<!-- Generator: Adobe Illustrator 19.2.1, SVG Export Plug-In . SVG Version: 6.00 Build 0)  -->
<svg version="1.1" id="Layer_1" xmlns="http://www.w3.org/2000/svg" xmlns:xlink="http://www.w3.org/1999/xlink" x="0px" y="0px"
	 viewBox="0 0 32 32" style="enable-background:new 0 0 32 32;" xml:space="preserve">
<line style="fill:none;stroke:#000000;stroke-width:2;stroke-miterlimit:10;" x1="14" y1="24" x2="18" y2="24"/>
<polyline style="fill:none;stroke:#000000;stroke-width:2;stroke-miterlimit:10;" points="11.515,20 6.515,15 11.515,10 "/>
<polyline style="fill:none;stroke:#000000;stroke-width:2;stroke-miterlimit:10;" points="20.515,20 25.515,15 20.515,10 "/>
<g>
	<path d="M10,7.272V6h12l0,1.243l2,2V6c0-1.103-0.897-2-2-2H10C8.897,4,8,4.897,8,6v3.272L10,7.272z"/>
	<path d="M22.001,22.756l0,3.244H10v-3.272l-2-2V26c0,1.103,0.897,2,2,2h12c1.103,0,2-0.897,2-2v-5.243L22.001,22.756z"/>
</g>
</svg>
