<?xml version="1.0" encoding="iso-8859-1"?>
<!-- Generator: Adobe Illustrator 19.1.1, SVG Export Plug-In . SVG Version: 6.00 Build 0)  -->
<svg version="1.1" id="Layer_1" xmlns="http://www.w3.org/2000/svg" xmlns:xlink="http://www.w3.org/1999/xlink" x="0px" y="0px"
	 viewBox="0 0 32 32" style="enable-background:new 0 0 32 32;" xml:space="preserve">
<path style="fill:none;stroke:#000000;stroke-width:2;stroke-miterlimit:10;" d="M20.997,29c-0.835,0-1.677-0.26-2.397-0.8l-8-6
	c-1.232-0.924-1.825-2.474-1.522-3.985l2-11l7.845,1.569l-1.506,8.528L23.4,21.8c1.768,1.326,2.125,3.833,0.8,5.6
	C23.414,28.448,22.213,29,20.997,29z"/>
<line style="fill:none;stroke:#000000;stroke-width:2;stroke-miterlimit:10;" x1="10.322" y1="11.097" x2="18.167" y2="12.667"/>
<path style="fill:none;stroke:#000000;stroke-width:2;stroke-linecap:square;stroke-miterlimit:10;" d="M19,27.5
	c0-2.485,2.015-4.5,4.5-4.5"/>
<path style="fill:none;stroke:#000000;stroke-width:2;stroke-miterlimit:10;" d="M12,23.646c0.622-0.705,1-1.631,1-2.646
	c0-2.209-1.791-4-4-4"/>
<line style="fill:none;stroke:#000000;stroke-width:2;stroke-miterlimit:10;" x1="11" y1="2" x2="11" y2="8"/>
</svg>
