<?xml version="1.0" encoding="iso-8859-1"?>
<!-- Generator: Adobe Illustrator 19.1.1, SVG Export Plug-In . SVG Version: 6.00 Build 0)  -->
<svg version="1.1" id="Layer_1" xmlns="http://www.w3.org/2000/svg" xmlns:xlink="http://www.w3.org/1999/xlink" x="0px" y="0px"
	 viewBox="0 0 32 32" style="enable-background:new 0 0 32 32;" xml:space="preserve">
<path style="fill:none;stroke:#000000;stroke-width:2;stroke-miterlimit:10;" d="M23.923,12.104C21.617,11.58,22.881,4,15.996,4
	c-7.069,0-5.487,7.21-8.012,8.103C5.551,12.965,4,15.238,4,18c5.917,0,2.643,4.654,4.676,5.331c2.082,0.694,2.968,0.85,3.747,2.498
	c0.563,1.193,1.388,2.203,3.655,2.174c3.655-0.047,3.149-3.053,4.996-3.608C25.839,22.961,21.417,19,28,19
	C28,16.239,28.012,13.033,23.923,12.104z"/>
<ellipse cx="17" cy="10.5" rx="1" ry="1.5"/>
<ellipse cx="13" cy="10.5" rx="1" ry="1.5"/>
</svg>
