<?xml version="1.0" encoding="iso-8859-1"?>
<!-- Generator: Adobe Illustrator 19.1.1, SVG Export Plug-In . SVG Version: 6.00 Build 0)  -->
<svg version="1.1" id="Layer_1" xmlns="http://www.w3.org/2000/svg" xmlns:xlink="http://www.w3.org/1999/xlink" x="0px" y="0px"
	 viewBox="0 0 32 32" style="enable-background:new 0 0 32 32;" xml:space="preserve">
<path style="fill:none;stroke:#000000;stroke-width:2;stroke-miterlimit:10;" d="M7,6.5C7,5.119,8.119,4,9.5,4s6.687,3,6.687,3
	S10.881,9,9.5,9S7,7.881,7,6.5z"/>
<path style="fill:none;stroke:#000000;stroke-width:2;stroke-miterlimit:10;" d="M25.375,6.5c0-1.381-1.119-2.5-2.5-2.5
	s-6.688,3-6.688,3s5.307,2,6.688,2S25.375,7.881,25.375,6.5z"/>
<path style="fill:none;stroke:#000000;stroke-width:2;stroke-miterlimit:10;" d="M10.264,9C9.468,10.136,9,11.516,9,13v9
	c0,1.105-0.895,2-2,2h0"/>
<path style="fill:none;stroke:#000000;stroke-width:2;stroke-miterlimit:10;" d="M21.736,9C22.532,10.136,23,11.516,23,13v9
	c0,1.105,0.895,2,2,2h0"/>
<circle cx="16" cy="5" r="2"/>
<line style="fill:none;stroke:#000000;stroke-width:2;stroke-miterlimit:10;" x1="6" y1="24" x2="26" y2="24"/>
<circle style="fill:none;stroke:#000000;stroke-width:2;stroke-miterlimit:10;" cx="16" cy="26" r="2"/>
</svg>
