<?xml version="1.0" encoding="iso-8859-1"?>
<!-- Generator: Adobe Illustrator 19.1.1, SVG Export Plug-In . SVG Version: 6.00 Build 0)  -->
<svg version="1.1" id="Layer_1" xmlns="http://www.w3.org/2000/svg" xmlns:xlink="http://www.w3.org/1999/xlink" x="0px" y="0px"
	 viewBox="0 0 32 32" style="enable-background:new 0 0 32 32;" xml:space="preserve">
<polygon style="fill:none;stroke:#000000;stroke-width:2;stroke-linecap:round;stroke-miterlimit:10;" points="22,5 23.632,9.063 
	28,9.36 24.64,12.167 25.708,16.413 22,14.085 18.292,16.413 19.36,12.167 16,9.36 20.369,9.063 "/>
<path style="fill:none;stroke:#000000;stroke-width:2;stroke-miterlimit:10;" d="M7,27c0-5.257,3-9,3-9"/>
<g>
	<path d="M14.775,18.096l0.828-3.293C11.534,17.986,10,23.42,10,28h2c0-1.177,0.175-5.67,2.607-9.236L14.775,18.096z"/>
	<path d="M13.106,10.851C7.218,12.901,3,18.329,3,23h2c0-3.803,4.029-9.171,9.939-10.618L13.106,10.851z"/>
</g>
</svg>
