<?xml version="1.0" encoding="iso-8859-1"?>
<!-- Generator: Adobe Illustrator 19.1.0, SVG Export Plug-In . SVG Version: 6.00 Build 0)  -->
<svg version="1.1" id="Layer_1" xmlns="http://www.w3.org/2000/svg" xmlns:xlink="http://www.w3.org/1999/xlink" x="0px" y="0px"
	 viewBox="0 0 32 32" style="enable-background:new 0 0 32 32;" xml:space="preserve">
<path d="M10.954,12.342h1.969c0.246,0,0.492,0.246,0.492,0.492v9.969c0,0.246-0.246,0.492-0.492,0.492h-1.969
	c-0.246,0-0.492-0.246-0.492-0.492v-9.969C10.338,12.588,10.585,12.342,10.954,12.342z"/>
<path d="M17.723,16.404h4.554c0.246,0,0.492,0.369,0.492,0.492v5.908c0,0.246-0.369,0.492-0.492,0.492h-6.646
	c-0.123,0-0.492-0.246-0.492-0.492V21.45c0-0.246,0.246-0.492,0.492-0.492h4.554v-1.723h-4.554c-0.123,0-0.492-0.246-0.492-0.492
	v-5.908c0-0.246,0.246-0.492,0.492-0.492h6.277c0.246,0,0.492,0.246,0.492,0.492v1.354c0,0.246-0.369,0.492-0.492,0.492h-4.185
	C17.723,14.681,17.723,16.404,17.723,16.404z"/>
<path d="M31.877,18.865v4.062c0,0.246-0.246,0.492-0.492,0.492h-6.646c-0.123,0-0.492-0.246-0.492-0.492v-9.969
	c0-0.246,0.246-0.492,0.492-0.492h6.646c0.246,0,0.492,0.492,0.492,0.492v4.185h-2.462v-2.338c0,0,0.123-0.492-0.492-0.492H27.2
	c-0.246,0-0.492,0.246-0.492,0.492v6.154c0,0.246,0.369,0.492,0.492,0.492h1.723c0.246,0,0.492-0.246,0.492-0.492v-2.092H31.877z"/>
<polygon points="30.523,10.988 31.262,10.988 31.262,8.896 32,8.896 32,8.281 29.785,8.281 29.785,8.896 30.523,8.896 "/>
<path d="M29.169,9.881h-0.738v0.123c0,0.246-0.123,0.369-0.369,0.369c-0.369,0-0.369-0.123-0.369-0.492V9.388
	c0-0.369,0-0.492,0.369-0.492c0.246,0,0.369,0.123,0.369,0.369l0,0h0.738l0,0c0-0.738-0.246-0.985-1.108-0.985h-0.246
	c-0.738,0-1.108,0.246-1.108,1.108v0.492c0,0.738,0.246,1.108,1.108,1.108h0.246C28.8,10.988,29.169,10.742,29.169,9.881
	L29.169,9.881z"/>
<polygon points="18.831,8.281 18.215,10.25 17.723,8.281 16.615,8.281 16.615,10.988 17.354,10.988 17.354,9.019 17.846,10.988 
	18.585,10.988 19.2,9.019 19.2,10.988 19.938,10.988 19.938,8.281 "/>
<g>
	<path d="M25.477,8.281h-0.615h-0.615l-0.738,2.708h0.738l0.123-0.492h0.492h0.492l0.123,0.492h0.738L25.477,8.281z M24.862,10.004
		h-0.246l0.246-1.108l0,0l0,0l0.246,1.108H24.862z"/>
	<path d="M22.154,8.281h-0.123h-1.108v2.708h0.738V10.25h0.369h0.123c0.738,0,0.985-0.246,0.985-0.862V9.142
		C23.138,8.527,22.892,8.281,22.154,8.281z M22.4,9.388c0,0.246-0.123,0.369-0.246,0.369h-0.123h-0.369V8.896h0.369h0.123
		c0.246,0,0.369,0.123,0.369,0.246v0.246H22.4z"/>
	<path d="M14.646,8.281h-0.123h-0.246c-0.738,0-1.108,0.246-1.108,1.108v0.492c0,0.738,0.246,1.108,1.108,1.108h0.246h0.123
		c0.738,0,1.108-0.369,1.108-1.108V9.388C15.754,8.527,15.508,8.281,14.646,8.281z M15.015,9.881c0,0.369,0,0.492-0.369,0.492
		h-0.123H14.4c-0.369,0-0.369-0.123-0.369-0.492V9.388c0-0.369,0-0.492,0.369-0.492h0.123h0.123c0.369,0,0.369,0.123,0.369,0.492
		V9.881z"/>
</g>
<path d="M12.554,9.881h-0.862v0.123c0,0.246-0.123,0.369-0.369,0.369c-0.369,0-0.369-0.123-0.369-0.492V9.388
	c0-0.369,0-0.492,0.369-0.492c0.246,0,0.369,0.123,0.369,0.369l0,0h0.738l0,0c0-0.738-0.246-0.985-1.108-0.985H11.2
	c-0.738,0-1.108,0.246-1.108,1.108v0.492c0,0.738,0.246,1.108,1.108,1.108h0.246C12.185,10.988,12.554,10.742,12.554,9.881
	L12.554,9.881z"/>
<path d="M8,8.281H5.908c-0.246,0-0.492,0.246-0.492,0.492v3.569H0.738C0.369,12.342,0,12.835,0,13.204v9.477
	c0,0.369,0.369,0.738,0.738,0.738h7.138c0.246,0,0.492-0.246,0.492-0.492V8.896C8.492,8.527,8.246,8.281,8,8.281z M5.785,20.958
	c0,0.246-0.246,0.492-0.492,0.492H3.569c-0.246,0-0.492-0.246-0.492-0.492V15.05c0-0.246,0.246-0.492,0.492-0.492h1.723
	c0.246,0,0.492,0.246,0.492,0.492C5.785,15.05,5.785,20.958,5.785,20.958z"/>
</svg>
