<?xml version="1.0" encoding="iso-8859-1"?>
<!-- Generator: Adobe Illustrator 19.1.0, SVG Export Plug-In . SVG Version: 6.00 Build 0)  -->
<svg version="1.1" id="Layer_1" xmlns="http://www.w3.org/2000/svg" xmlns:xlink="http://www.w3.org/1999/xlink" x="0px" y="0px"
	 viewBox="0 0 32 32" style="enable-background:new 0 0 32 32;" xml:space="preserve">
<path style="fill:none;stroke:#000000;stroke-width:2;stroke-linecap:round;stroke-linejoin:round;stroke-miterlimit:10;" d="
	M26.3,22H5.7c-0.4,0-0.8-0.3-0.9-0.6C4.4,20.5,4,19,4,17v-6c0-0.6,0.4-1,1-1h22c0.6,0,1,0.4,1,1v6c0,2-0.4,3.5-0.7,4.4
	C27.1,21.7,26.8,22,26.3,22z"/>
<rect x="23" y="12" width="2" height="2"/>
<rect x="23" y="15" width="2" height="2"/>
<rect x="23" y="18" width="2" height="2"/>
<rect x="20" y="18" width="2" height="2"/>
<rect x="20" y="15" width="2" height="2"/>
<rect x="20" y="12" width="2" height="2"/>
<rect x="17" y="12" width="2" height="2"/>
<rect x="17" y="15" width="2" height="2"/>
<rect x="17" y="18" width="2" height="2"/>
<rect x="14" y="18" width="2" height="2"/>
<rect x="14" y="15" width="2" height="2"/>
<rect x="14" y="12" width="2" height="2"/>
<rect x="7" y="15" width="4" height="2"/>
</svg>
