<?xml version="1.0" encoding="iso-8859-1"?>
<!-- Generator: Adobe Illustrator 19.1.0, SVG Export Plug-In . SVG Version: 6.00 Build 0)  -->
<svg version="1.1" id="Layer_1" xmlns="http://www.w3.org/2000/svg" xmlns:xlink="http://www.w3.org/1999/xlink" x="0px" y="0px"
	 viewBox="0 0 32 32" style="enable-background:new 0 0 32 32;" xml:space="preserve">
<rect x="3" y="7" style="fill:none;stroke:#000000;stroke-width:2;stroke-miterlimit:10;" width="26" height="18"/>
<path d="M13.739,19.281H9.54v-7.002h4.038v1.284h-2.461v1.558h2.29V16.4h-2.29v1.602h2.622V19.281z"/>
<path d="M14.384,19.149v-1.25c0.254,0.153,0.834,0.454,1.475,0.454c0.773,0,0.884-0.301,0.884-0.454
	c0-0.769-2.358-0.366-2.358-2.148c0-1.527,1.904-1.592,2.188-1.592c0.625,0,1.127,0.135,1.348,0.2v1.191
	c-0.195-0.114-0.677-0.342-1.284-0.342c-0.717,0-0.742,0.352-0.742,0.42c0,0.77,2.329,0.426,2.329,2.124
	c0,0.402-0.184,1.65-2.31,1.65C15.362,19.403,14.853,19.318,14.384,19.149z"/>
<path d="M22.899,19.101c-0.348,0.202-0.851,0.303-1.509,0.303c-1.175,0-2.578-0.702-2.578-2.5c0-1.282,0.709-2.744,2.808-2.744
	c0.59,0,1.016,0.078,1.279,0.234v1.309c-0.322-0.241-0.682-0.361-1.079-0.361c-1.127,0-1.44,0.818-1.44,1.46
	c0,1.172,0.868,1.421,1.392,1.421c0.385,0,0.761-0.12,1.128-0.361V19.101z"/>
</svg>
