<?xml version="1.0" encoding="iso-8859-1"?>
<!-- Generator: Adobe Illustrator 19.2.0, SVG Export Plug-In . SVG Version: 6.00 Build 0)  -->
<svg version="1.1" id="Layer_1" xmlns="http://www.w3.org/2000/svg" xmlns:xlink="http://www.w3.org/1999/xlink" x="0px" y="0px"
	 viewBox="0 0 32 32" style="enable-background:new 0 0 32 32;" xml:space="preserve">
<path d="M17.933,24.599L17.838,24h-3.677l-0.095,0.599c-0.105,0.663-0.677,1.151-1.348,1.151H11V27h10v-1.25h-1.719
	C18.61,25.75,18.038,25.262,17.933,24.599z"/>
<path d="M26,6H6C4.897,6,4,6.897,4,8v13c0,1.103,0.897,2,2,2h20c1.103,0,2-0.897,2-2V8C28,6.897,27.103,6,26,6z M16,22
	c-0.552,0-1-0.448-1-1c0-0.552,0.448-1,1-1s1,0.448,1,1C17,21.552,16.552,22,16,22z M6,19V8h20l0.001,11H6z"/>
</svg>
