<?xml version="1.0" encoding="iso-8859-1"?>
<!-- Generator: Adobe Illustrator 19.1.0, SVG Export Plug-In . SVG Version: 6.00 Build 0)  -->
<svg version="1.1" id="Layer_1" xmlns="http://www.w3.org/2000/svg" xmlns:xlink="http://www.w3.org/1999/xlink" x="0px" y="0px"
	 viewBox="0 0 32 32" style="enable-background:new 0 0 32 32;" xml:space="preserve">
<path style="fill:none;stroke:#000000;stroke-width:2;stroke-miterlimit:10;" d="M24.572,23H7.435c-0.996,0-1.841-0.732-1.981-1.717
	l-1.43-10C3.852,10.078,4.788,9,6.006,9h19.996c1.218,0,2.154,1.078,1.981,2.283l-1.43,10C26.413,22.268,25.568,23,24.572,23z"/>
<circle cx="16" cy="14" r="1"/>
<circle cx="20" cy="14" r="1"/>
<circle cx="24" cy="14" r="1"/>
<circle cx="8" cy="14" r="1"/>
<circle cx="12" cy="14" r="1"/>
<circle cx="18" cy="18" r="1"/>
<circle cx="22" cy="18" r="1"/>
<circle cx="10" cy="18" r="1"/>
<circle cx="14" cy="18" r="1"/>
</svg>
