<?xml version="1.0" encoding="iso-8859-1"?>
<!-- Generator: Adobe Illustrator 19.1.0, SVG Export Plug-In . SVG Version: 6.00 Build 0)  -->
<svg version="1.1" id="Layer_1" xmlns="http://www.w3.org/2000/svg" xmlns:xlink="http://www.w3.org/1999/xlink" x="0px" y="0px"
	 viewBox="0 0 32 32" style="enable-background:new 0 0 32 32;" xml:space="preserve">
<polygon style="fill:none;stroke:#000000;stroke-width:2;stroke-miterlimit:10;" points="28,25 4,25 4,19 7,7 25,7 28,19 "/>
<line style="fill:none;stroke:#000000;stroke-width:2;stroke-miterlimit:10;" x1="4" y1="19" x2="28" y2="19"/>
<circle cx="24" cy="22" r="1"/>
<path d="M19,9L19,9c-1.474,0-2.75,0.81-3.444,2H19l0,0c1.103,0,2,0.897,2,2s-0.897,2-2,2l0,0h-3.444c0.694,1.19,1.97,2,3.444,2l0,0
	c2.206,0,4-1.794,4-4S21.206,9,19,9z"/>
<path d="M12.556,17L12.556,17c1.474,0,2.75-0.81,3.444-2h-3.444l0,0c-1.103,0-2-0.897-2-2s0.897-2,2-2l0,0H16
	c-0.694-1.19-1.97-2-3.444-2l0,0c-2.206,0-4,1.794-4,4S10.35,17,12.556,17z"/>
<rect x="13" y="12" width="6" height="2"/>
</svg>
