<?xml version="1.0" encoding="utf-8"?>
<!-- Generator: Adobe Illustrator 18.1.1, SVG Export Plug-In . SVG Version: 6.00 Build 0)  -->
<svg version="1.1" id="Layer_1" xmlns="http://www.w3.org/2000/svg" xmlns:xlink="http://www.w3.org/1999/xlink" x="0px" y="0px"
	 viewBox="0 0 32 32" enable-background="new 0 0 32 32" xml:space="preserve">
<polyline fill="none" stroke="#000000" stroke-width="2" stroke-miterlimit="10" points="23,26 29,26 21.1,17 18.1,20.2 "/>
<polygon fill="none" stroke="#000000" stroke-width="2" stroke-miterlimit="10" points="13,14 3,26 23,26 "/>
<path d="M29,8h-1.6l1.1-1.1l-1.4-1.4L26,6.6V5h-2v1.6l-1.1-1.1l-1.4,1.4L22.6,8H21v2h1.6l-1.1,1.1l1.4,1.4l1.1-1.1V13h2v-1.6
	l1.1,1.1l1.4-1.4L27.4,10H29V8z M25,11c-1.1,0-2-0.9-2-2c0-1.1,0.9-2,2-2s2,0.9,2,2C27,10.1,26.1,11,25,11z"/>
</svg>
