<?xml version="1.0" encoding="utf-8"?>
<!-- Generator: Adobe Illustrator 18.1.1, SVG Export Plug-In . SVG Version: 6.00 Build 0)  -->
<svg version="1.1" id="Layer_1" xmlns="http://www.w3.org/2000/svg" xmlns:xlink="http://www.w3.org/1999/xlink" x="0px" y="0px"
	 viewBox="0 0 32 32" enable-background="new 0 0 32 32" xml:space="preserve">
<circle cx="7" cy="10" r="1"/>
<circle fill="none" stroke="#000000" stroke-width="2" stroke-miterlimit="10" cx="18" cy="20" r="4"/>
<circle cx="11" cy="17" r="1"/>
<path fill="none" stroke="#000000" stroke-width="2" stroke-miterlimit="10" d="M17.9,12c-0.4-1.7-2-3-3.9-3c-2.2,0-4,1.8-4,4
	c0,0.3,0.1,0.7,0.1,1"/>
<polygon fill="none" stroke="#000000" stroke-width="2" stroke-miterlimit="10" points="22.5,14 21,12 15,12 13.5,14 8,14 8,27 
	28,27 28,14 "/>
<polyline fill="none" stroke="#000000" stroke-width="2" stroke-miterlimit="10" points="24,14 24,7 18.5,7 17,5 11,5 9.5,7 4,7 
	4,20 8,20 "/>
</svg>
