<?xml version="1.0" encoding="iso-8859-1"?>
<!-- Generator: Adobe Illustrator 19.1.1, SVG Export Plug-In . SVG Version: 6.00 Build 0)  -->
<svg version="1.1" id="Layer_1" xmlns="http://www.w3.org/2000/svg" xmlns:xlink="http://www.w3.org/1999/xlink" x="0px" y="0px"
	 viewBox="0 0 32 32" style="enable-background:new 0 0 32 32;" xml:space="preserve">
<polyline style="fill:none;stroke:#000000;stroke-width:2;stroke-miterlimit:10;" points="28,23 28,4 4,4 4,24 12.75,24 "/>
<rect x="9" y="19" width="2" height="2"/>
<rect x="5" y="19" width="2" height="2"/>
<rect x="21" y="7" width="2" height="2"/>
<rect x="25" y="19" width="2" height="2"/>
<rect x="25" y="7" width="2" height="2"/>
<rect x="17" y="7" width="2" height="2"/>
<rect x="9" y="7" width="2" height="2"/>
<rect x="13" y="7" width="2" height="2"/>
<rect x="5" y="7" width="2" height="2"/>
<path style="fill:none;stroke:#000000;stroke-width:2;stroke-miterlimit:10;" d="M11.7,17.5L11,14l3.5,0.7l9.9,9.9
	c0.8,0.8,0.8,2,0,2.8l0,0c-0.8,0.8-2,0.8-2.8,0L11.7,17.5z"/>
<g>
	<polygon points="12.957,23 12,23 12,25 14.957,25 	"/>
	<path d="M26.95,23c0.469,0.611,0.794,1.289,0.943,2H29v-2H26.95z"/>
</g>
</svg>
