<?xml version="1.0" encoding="iso-8859-1"?>
<!-- Generator: Adobe Illustrator 19.1.1, SVG Export Plug-In . SVG Version: 6.00 Build 0)  -->
<svg version="1.1" id="Layer_1" xmlns="http://www.w3.org/2000/svg" xmlns:xlink="http://www.w3.org/1999/xlink" x="0px" y="0px"
	 viewBox="0 0 32 32" style="enable-background:new 0 0 32 32;" xml:space="preserve">
<path style="fill:none;stroke:#000000;stroke-width:2;stroke-linejoin:round;stroke-miterlimit:10;" d="M16,10c0,0,0-2.244,0-2.944
	C16,5.815,15.126,5,14,5c-1.606,0-2.508,2.632-1.429,2.494c1.234-0.159-0.952-3.025-3.137-2.043C7.097,6.503,8.46,9.776,9.239,8.948
	C10.053,8.082,6.907,6.975,5.5,8.375S4,11.375,4,12c0,2.125,0,5,0,5s-0.042,2,2,2h1"/>
<line style="fill:none;stroke:#000000;stroke-width:2;stroke-linejoin:round;stroke-miterlimit:10;" x1="25" y1="11" x2="25" y2="26"/>
<line style="fill:none;stroke:#000000;stroke-width:2;stroke-linejoin:round;stroke-miterlimit:10;" x1="10" y1="11" x2="10" y2="26"/>
<polyline style="fill:none;stroke:#000000;stroke-width:2;stroke-miterlimit:10;" points="8,21 8,21 27,21 27,21 "/>
<path style="fill:none;stroke:#000000;stroke-width:2;stroke-miterlimit:10;" d="M11,12H8c0,0-1,0.524-1,2s1,2,1,2s-1,0.797-1,2.483
	S8,21,8,21s-1,0.595-1,2s1,2,1,2h19c0,0,1-0.708,1-2s-1-2-1-2s1-0.875,1-2.542C28,16.792,27,16,27,16s1-0.958,1-2s-1-2-1-2h-3"/>
<line style="fill:none;stroke:#000000;stroke-width:2;stroke-miterlimit:10;" x1="10" y1="16" x2="8" y2="16"/>
<line style="fill:none;stroke:#000000;stroke-width:2;stroke-miterlimit:10;" x1="27" y1="16" x2="25" y2="16"/>
<rect x="13" y="10" style="fill:none;stroke:#000000;stroke-width:2;stroke-miterlimit:10;" width="9" height="8"/>
<rect x="17" y="12" width="1" height="4"/>
<rect x="15" y="12" width="1" height="4"/>
<rect x="19" y="12" width="1" height="4"/>
<rect x="15" y="12" width="5" height="1"/>
<rect x="15" y="15" width="5" height="1"/>
</svg>
