<?xml version="1.0" encoding="iso-8859-1"?>
<!-- Generator: Adobe Illustrator 19.2.0, SVG Export Plug-In . SVG Version: 6.00 Build 0)  -->
<svg version="1.1" id="Layer_1" xmlns="http://www.w3.org/2000/svg" xmlns:xlink="http://www.w3.org/1999/xlink" x="0px" y="0px"
	 viewBox="0 0 32 32" style="enable-background:new 0 0 32 32;" xml:space="preserve">
<path style="fill:none;stroke:#000000;stroke-width:2;stroke-miterlimit:10;" d="M3,25h6.022c3.029,0,4.896-1.684,6.155-3.521
	c0,0,1.198-1.172,2.093-1.731C18.235,19.147,19,18.57,19,17.279C19,16.011,18.04,15,16.831,15c-1.343,0-2.227,0.707-3.188,1.225
	c-0.479,0.258-4.273,2.33-4.273,2.33"/>
<rect x="13" y="11" width="15" height="2"/>
<path style="fill:none;stroke:#000000;stroke-width:2.0083;stroke-miterlimit:10;" d="M16.647,20H26c1.105,0,2-0.895,2-2v-8
	c0-1.105-0.895-2-2-2H13c-1.105,0-2,0.895-2,2v7.556"/>
<path d="M7.655,9.666L7.299,9.968C6.577,10.574,4.418,12.38,3,13.565v2.606c0.236-0.197,4.508-3.767,5.585-4.671l0.371-0.314
	C9.84,10.428,10.372,10,11,10V8C9.603,8,8.613,8.847,7.655,9.666z"/>
</svg>
