<?xml version="1.0" encoding="iso-8859-1"?>
<!-- Generator: Adobe Illustrator 19.1.1, SVG Export Plug-In . SVG Version: 6.00 Build 0)  -->
<svg version="1.1" id="Layer_1" xmlns="http://www.w3.org/2000/svg" xmlns:xlink="http://www.w3.org/1999/xlink" x="0px" y="0px"
	 viewBox="0 0 32 32" style="enable-background:new 0 0 32 32;" xml:space="preserve">
<path d="M9.7,10.001c1,0-4.7,0-4.7,0s0.1,0.4,0,0.8c-0.1,0.4-1.9,8.5-2.6,11.4c-0.1,0.5-0.4,0.8-0.4,0.8s1.9,0,5.2,0
	s6.3-4.2,6.3-8.7S9.3,10.001,9.7,10.001z M7.2,21.101c-1.5,0-1.5,0-1.5,0l2.3-9.2c0,0,0.7,0,1,0s1.7,0.1,1.7,2.8
	S8.7,21.101,7.2,21.101z"/>
<path d="M17.9,10.7c-0.1-0.3,0-0.7,0-0.7h-3.7c0,0,0.2,0.4,0.1,0.7c0,0.3-3.2,12.3-3.2,12.3h2.5l0.7-2.6h3.4l0.6,2.6h3.4
	C21.8,23,17.9,11,17.9,10.7z M14.6,18.5l1.4-4.1l1.3,4.1H14.6z"/>
<path d="M19.217,10h3.829l2.116,8.868c0,0,2.318-7.86,2.419-8.163c0-0.302-0.302-0.705-0.302-0.705H30c0,0-0.202,0.605-0.202,0.705
	c0,0.202-3.225,9.977-3.225,9.977s-0.302,0.806-0.302,1.209S26.674,23,26.674,23h-3.426c0,0,0-0.504,0-0.705
	s-3.527-11.287-3.628-11.589C19.519,10.202,19.217,10,19.217,10z"/>
</svg>
