<?xml version="1.0" encoding="iso-8859-1"?>
<!-- Generator: Adobe Illustrator 19.1.1, SVG Export Plug-In . SVG Version: 6.00 Build 0)  -->
<svg version="1.1" id="Layer_1" xmlns="http://www.w3.org/2000/svg" xmlns:xlink="http://www.w3.org/1999/xlink" x="0px" y="0px"
	 viewBox="0 0 32 32" style="enable-background:new 0 0 32 32;" xml:space="preserve">
<path style="fill:none;stroke:#000000;stroke-width:2;stroke-miterlimit:10;" d="M10,19c0,1.1-0.9,2-2,2h0c-1.1,0-2-0.9-2-2l0-7
	c0-1.1,0.9-2,2-2h0c1.1,0,2,0.9,2,2"/>
<path style="fill:none;stroke:#000000;stroke-width:2;stroke-miterlimit:10;" d="M14,20c0,1.1-0.9,2-2,2h0c-1.1,0-2-0.9-2-2v-6"/>
<path style="fill:none;stroke:#000000;stroke-width:2;stroke-miterlimit:10;" d="M10,12v-2c0-1.1,0.9-2,2-2h0c1.1,0,2,0.9,2,2"/>
<path style="fill:none;stroke:#000000;stroke-width:2;stroke-miterlimit:10;" d="M18,14v6c0,1.1-0.9,2-2,2h0c-1.1,0-2-0.9-2-2v-6"/>
<path style="fill:none;stroke:#000000;stroke-width:2;stroke-miterlimit:10;" d="M14,10V9c0-1.1,0.9-2,2-2h0c1.1,0,2,0.9,2,2v1"/>
<path style="fill:none;stroke:#000000;stroke-width:2;stroke-miterlimit:10;" d="M18,10c0-1.1,0.9-2,2-2h0c1.1,0,2,0.9,2,2v10
	c0,1.1-0.9,2-2,2h0c-1.1,0-2-0.9-2-2v-6"/>
<path style="fill:none;stroke:#000000;stroke-width:2;stroke-miterlimit:10;" d="M18.587,21.412C17.488,21.412,16,22.625,16,24
	c0,1.1,0.9,2,2,2l6-2c1.171-0.354,2-0.691,2-2c0-2.653-3.337-8.012-4-11"/>
</svg>
