<?xml version="1.0" encoding="iso-8859-1"?>
<!-- Generator: Adobe Illustrator 19.1.1, SVG Export Plug-In . SVG Version: 6.00 Build 0)  -->
<svg version="1.1" id="Layer_1" xmlns="http://www.w3.org/2000/svg" xmlns:xlink="http://www.w3.org/1999/xlink" x="0px" y="0px"
	 viewBox="-7 9 32 32" enable-background="new -7 9 32 32" xml:space="preserve">
<g>
	<circle cx="12.5" cy="20.5" r="1.5"/>
	<path d="M17.825,15.027C18.772,13.954,19.943,13.151,21,13v-1l0.079-0.997c-0.274-0.023-6.853-0.504-10.589,2.945
		c-1.018,0.94-1.724,2.075-2.118,3.388l-4.365,0.662l0.161,1.041c-3.647,0.783-6.34,2.022-8.214,3.777
		c-0.723,0.678-1.064,1.667-0.914,2.646c0.091,0.597,0.359,1.148,0.776,1.595c0.59,0.628,1.389,0.946,2.19,0.946
		c0.735,0,1.473-0.269,2.05-0.81c0.978-0.916,2.705-1.674,5.028-2.212l0.142,0.92l3.774-0.57L9.013,29h0.931
		c-0.178,2.377-0.664,4.199-1.42,5.308c-0.932,1.365-0.581,3.235,0.785,4.171C9.811,38.819,10.395,39,10.999,39
		c0.991,0,1.918-0.488,2.478-1.307c1.427-2.088,2.26-5.009,2.479-8.693h1.055l-0.014-5H16v-0.715c0.27-0.333,0.49-0.703,0.655-1.104
		l0.014,0.008c0.979-1.786,4.548-2.925,5.84-3.213l0.467-1.706C21.084,15.499,19.288,14.975,17.825,15.027z M11.843,15.422
		c1.406-1.301,3.401-1.918,5.164-2.207c-0.097,0.075-0.157,0.122-0.157,0.122c-1.346,1.372-2.646,3.134-2.751,5.258
		C14.645,19.054,15,19.733,15,20.5c0,0.814-0.395,1.533-1,1.988V24h-2.555C10.977,23.433,10,22.01,10,20
		C10,18.066,10.603,16.569,11.843,15.422z M6.899,23.627l-0.157-1.018l-1.018,0.194c-3.256,0.623-5.623,1.608-7.035,2.931
		c-0.402,0.377-1.037,0.356-1.412-0.044c-0.14-0.15-0.23-0.333-0.26-0.532c-0.05-0.327,0.063-0.657,0.305-0.883
		c1.721-1.612,4.468-2.776,8.164-3.459L6.44,20.64l-0.149-0.964l0.987-0.15l0.61,3.953L6.899,23.627z M14.029,27L14,27.97
		c-0.112,3.757-0.844,6.648-2.174,8.595c-0.301,0.44-0.948,0.563-1.391,0.262c-0.455-0.312-0.572-0.936-0.261-1.391
		c1.092-1.599,1.706-4.088,1.824-7.399L12.036,27h-1.029l-0.004-1h4l0.002,1H14.029z M16.81,19.243
		c-0.139-0.466-0.349-0.9-0.622-1.289c0.04-0.146,0.064-0.292,0.117-0.439c0.43-0.299,1.803-1.032,3.796,0.086
		C19.09,17.96,17.866,18.501,16.81,19.243z"/>
</g>
</svg>
