<?xml version="1.0" encoding="iso-8859-1"?>
<!-- Generator: Adobe Illustrator 19.1.0, SVG Export Plug-In . SVG Version: 6.00 Build 0)  -->
<svg version="1.1" id="Layer_1" xmlns="http://www.w3.org/2000/svg" xmlns:xlink="http://www.w3.org/1999/xlink" x="0px" y="0px"
	 viewBox="0 0 32 32" style="enable-background:new 0 0 32 32;" xml:space="preserve">
<path style="fill:none;stroke:#000000;stroke-width:2;stroke-miterlimit:10;" d="M20.164,10.865c0,0,1.943-2.865,4.336-2.865
	C25.995,8,27,8.582,27,8.582c-0.479,1.774-1.842,2.987-3.305,3.69"/>
<path style="fill:none;stroke:#000000;stroke-width:2;stroke-miterlimit:10;" d="M11.836,10.865c0,0-1.943-2.865-4.336-2.865
	C6.005,8,5,8.582,5,8.582c0.479,1.774,1.842,2.987,3.305,3.69"/>
<line style="fill:none;stroke:#000000;stroke-width:2;stroke-miterlimit:10;" x1="19.463" y1="25" x2="17" y2="25"/>
<line style="fill:none;stroke:#000000;stroke-width:2;stroke-miterlimit:10;" x1="15" y1="25" x2="12.537" y2="25"/>
<path style="fill:none;stroke:#000000;stroke-width:2;stroke-miterlimit:10;" d="M19,3c0,4.011-1.497,5-3,5s-3-1.001-3-5"/>
<path style="fill:none;stroke:#000000;stroke-width:2;stroke-miterlimit:10;" d="M22,16c0-2.292-1.409-5.047-3.384-6.988
	C17.785,8.195,16.921,8,16,8v0c0,0-0.001,0-0.001,0s-0.001,0-0.001,0v0c-0.921,0-1.785,0.195-2.616,1.012
	C11.407,10.953,9.998,13.708,9.998,16c0,1,3,4,3,5s-0.975,2.965-0.975,3.962c0,0.996,1.977,3.037,3.975,3.038v0c0,0,0.001,0,0.001,0
	S16,28,16,28v0c1.997-0.001,3.975-2.042,3.975-3.038C19.975,23.965,19,22,19,21S22,17,22,16z"/>
<circle cx="20" cy="17" r="1"/>
<circle cx="12" cy="17" r="1"/>
</svg>
