<?xml version="1.0" encoding="utf-8"?>
<!-- Generator: Adobe Illustrator 18.0.0, SVG Export Plug-In . SVG Version: 6.00 Build 0)  -->
<svg version="1.1" id="Layer_1" xmlns="http://www.w3.org/2000/svg" xmlns:xlink="http://www.w3.org/1999/xlink" x="0px" y="0px"
	 viewBox="0 0 32 32" enable-background="new 0 0 32 32" xml:space="preserve">
<polygon fill="none" stroke="#000000" stroke-width="2" stroke-miterlimit="10" points="7,28 7,4 19,4 25,10 25,28 "/>
<polyline fill="none" stroke="#000000" stroke-width="2" stroke-miterlimit="10" points="19,4 19,10 25,10 "/>
<path fill="none" stroke="#000000" stroke-width="2" stroke-miterlimit="10" d="M19.9,20.5c0,2.1-1.7,3.5-3.9,3.5s-3.9-1.3-3.9-3.5
	c0-3,3.9-6.5,3.9-6.5S19.9,18,19.9,20.5z"/>
<path d="M17.7,22.3c0,1-0.8,1.7-1.7,1.7s-1.7-0.8-1.7-1.7c0-1.4,0.5-2.5,0.5-2.5s0.5,0.7,1,0.7c0.7,0,0.6-2.3,0.6-2.3
	S17.7,19.7,17.7,22.3z"/>
</svg>
