<?xml version="1.0" encoding="iso-8859-1"?>
<!-- Generator: Adobe Illustrator 19.2.0, SVG Export Plug-In . SVG Version: 6.00 Build 0)  -->
<svg version="1.1" id="Layer_1" xmlns="http://www.w3.org/2000/svg" xmlns:xlink="http://www.w3.org/1999/xlink" x="0px" y="0px"
	 viewBox="0 0 32 32" style="enable-background:new 0 0 32 32;" xml:space="preserve">
<path style="fill:none;stroke:#000000;stroke-width:2;stroke-miterlimit:10;" d="M21.012,10.396C20.094,9.625,18.434,9,16,9
	s-4.125,0.594-5.012,1.396C10.987,10.398,6,15.542,6,18c0,4.419,4.717,8,10,8s10-3.581,10-8C26,15.167,21.013,10.398,21.012,10.396z
	"/>
<path style="fill:none;stroke:#000000;stroke-width:2;stroke-miterlimit:10;" d="M10.988,10.396
	c0.334-0.302,0.783-0.575,1.343-0.798c-0.215-0.358-0.41-0.741-0.539-1.148C11.233,7.022,9.756,6,8.017,6C5.798,6,4,7.661,4,9.709
	c0,2.526,1.129,4.114,3.056,5.605C8.52,12.947,10.987,10.397,10.988,10.396z"/>
<path style="fill:none;stroke:#000000;stroke-width:2;stroke-miterlimit:10;" d="M23.983,6c-1.739,0-3.216,1.022-3.774,2.45
	c-0.131,0.414-0.329,0.801-0.548,1.164c0.556,0.223,1.006,0.492,1.351,0.782c0,0.001,2.544,2.439,3.997,4.864
	C26.894,13.785,28,12.206,28,9.709C28,7.661,26.202,6,23.983,6z"/>
<circle cx="21" cy="17" r="1"/>
<circle cx="11" cy="17" r="1"/>
<path style="fill:none;stroke:#000000;stroke-width:2;stroke-miterlimit:10;" d="M16,22L16,22c-1.1,0-2-0.9-2-2v-2c0-1.1,0.9-2,2-2
	l0,0c1.1,0,2,0.9,2,2v2C18,21.1,17.1,22,16,22z"/>
</svg>
