<?xml version="1.0" encoding="iso-8859-1"?>
<!-- Generator: Adobe Illustrator 19.1.1, SVG Export Plug-In . SVG Version: 6.00 Build 0)  -->
<svg version="1.1"  xmlns="http://www.w3.org/2000/svg" xmlns:xlink="http://www.w3.org/1999/xlink" x="0px" y="0px"
	 viewBox="0 0 32 32" style="enable-background:new 0 0 32 32;" xml:space="preserve">
<path d="M18.317,14C17.338,14,17,13.593,17,13.593S18.017,12.45,20,12C19.999,12.411,19.902,14,18.317,14z"/>
<path d="M13.683,14C14.662,14,15,13.593,15,13.593S13.983,12.45,12,12C12.001,12.411,12.098,14,13.683,14z"/>
<path style="fill:none;stroke:#000000;stroke-width:2;stroke-miterlimit:10;" d="M17.995,13.317C18.562,14.823,20,17.387,20,19
	c0,0.948-0.77,2.565-2.35,2.565C16.756,21.565,16,21,16,21s-0.756,0.565-1.65,0.565C12.77,21.565,12,19.948,12,19
	c0-1.613,1.465-4.177,2.032-5.683"/>
<path style="fill:none;stroke:#000000;stroke-width:2;stroke-miterlimit:10;" d="M16,29c-2.192,0-5.034-1.516-5.034-1.516
	S4.935,24.614,6,16c0,0-1-3.436-1-5c0-5.917,4.754-8,7-8c2.262,0,4,1,4,1s1.738-1,4-1c2.246,0,7,2.083,7,8c0,1.564-1,5-1,5
	c1.065,8.614-4.966,11.484-4.966,11.484S18.192,29,16,29z"/>
<path d="M14.35,18.426c0,0.283,0,0.398,0,0.443c0,0,0.218,0.172,0.496,0.382c0.004-0.005,0.006-0.01,0.01-0.015
	c0.144-0.148,0.354-0.174,0.469-0.056c0.099,0.102,0.089,0.274-0.008,0.416C15.625,19.816,16.089,20,16,20s0.389-0.16,0.706-0.371
	c-0.119-0.146-0.137-0.339-0.031-0.448c0.114-0.118,0.324-0.093,0.469,0.056c0.014,0.014,0.021,0.032,0.033,0.047
	c0.267-0.218,0.473-0.435,0.473-0.568c0-0.179,0-0.098,0-0.29C17.65,17.833,14.35,17.784,14.35,18.426z"/>
<path d="M9.893,13.821C9.689,13.693,7.9,12.52,7.9,10.696C7.9,9.134,8.783,8,10,8c0.395,0,0.698,0.159,0.941,0.286
	c0.273,0.144,0.532,0.279,1.056,0.279L9.893,13.821z"/>
<path d="M22.007,13.821C22.211,13.693,24,12.52,24,10.696C24,9.134,23.117,8,21.9,8c-0.395,0-0.698,0.159-0.941,0.286
	c-0.273,0.144-0.532,0.279-1.056,0.279L22.007,13.821z"/>
<path style="fill:none;stroke:#000000;stroke-width:2;stroke-miterlimit:10;" d="M12,18c-0.681-2.815-2-3.705-2-6
	c0-1.933,1.577-3,3-3c1.575,0,3,1,3,1s1.425-1,3-1c1.423,0,3,1.067,3,3c0,2.295-1.319,3.185-2,6"/>
<path style="fill:none;stroke:#000000;stroke-width:2;stroke-miterlimit:10;" d="M17.65,21.304L17.65,21.304
	C17.65,22.241,16.911,23,16,23l0,0c-0.911,0-1.65-0.759-1.65-1.696"/>
<polygon points="21,27 21,24 19,28 "/>
<polygon points="11,27 11,24 13,28 "/>
</svg>
