<?xml version="1.0" encoding="iso-8859-1"?>
<!-- Generator: Adobe Illustrator 19.2.0, SVG Export Plug-In . SVG Version: 6.00 Build 0)  -->
<svg version="1.1"  xmlns="http://www.w3.org/2000/svg" xmlns:xlink="http://www.w3.org/1999/xlink" x="0px" y="0px"
	 viewBox="0 0 32 32" style="enable-background:new 0 0 32 32;" xml:space="preserve">
<path d="M19.807,11c0.879,1.513,2.678,4.202,5.287,6.121L25.81,25H16H6.19l0.716-7.879c2.609-1.919,4.408-4.608,5.287-6.121H16
	H19.807 M21,9h-5h-5c0,0-2.182,4.614-6,7L4,27h12h12l-1-11C23.182,13.614,21,9,21,9L21,9z"/>
<line style="fill:none;stroke:#000000;stroke-width:2;stroke-miterlimit:10;" x1="21" y1="17" x2="21" y2="27"/>
<line style="fill:none;stroke:#000000;stroke-width:2;stroke-miterlimit:10;" x1="11" y1="17" x2="11" y2="27"/>
<g>
	<path d="M15,4v4c2.656-1.55,5.219-0.675,8-3C19.594,5,18.625,4,15,4L15,4z"/>
</g>
<rect x="12" y="17" style="fill:#FFFFFF;" width="8" height="2"/>
<g>
	<polygon points="6,16 6,18 11,18 12.25,16 	"/>
	<polygon points="19.75,16 21,18 26,18 26,16 	"/>
</g>
<rect x="14" y="21" width="4" height="6"/>
<rect x="15" y="6" width="2" height="4"/>
<path d="M10,18v1h12v-1h0.179l-3.125-5h-6.108l-3.125,5H10z M14.054,15h3.892l1.25,2h-6.392L14.054,15z"/>
</svg>
