<?xml version="1.0" encoding="iso-8859-1"?>
<!-- Generator: Adobe Illustrator 19.2.0, SVG Export Plug-In . SVG Version: 6.00 Build 0)  -->
<svg version="1.1" id="Layer_1" xmlns="http://www.w3.org/2000/svg" xmlns:xlink="http://www.w3.org/1999/xlink" x="0px" y="0px"
	 viewBox="0 0 32 32" style="enable-background:new 0 0 32 32;" xml:space="preserve">
<g>
	<g>
		<path style="fill:none;stroke:#000000;stroke-width:2;stroke-miterlimit:10;" d="M27,15h-1.734
			c-0.445-0.878-1.082-1.675-1.865-2.366L24,9.1V9c0,0-2.452,0.024-4.221,1.596C18.613,10.214,17.338,10,16,10
			c-5.523,0-10,3.582-10,8c0,2.349,1.273,4.454,3.287,5.917c-0.46,0.785-0.361,1.808,0.313,2.482c0.801,0.801,2.099,0.801,2.899,0
			l0.719-0.719C14.103,25.885,15.034,26,16,26s1.897-0.115,2.781-0.32l0.719,0.719c0.801,0.801,2.099,0.801,2.899,0
			c0.674-0.674,0.773-1.697,0.313-2.482c1.104-0.802,1.985-1.794,2.554-2.917H27V15z"/>
	</g>
</g>
<circle cx="22" cy="17" r="1"/>
<path style="fill:none;stroke:#000000;stroke-width:2;stroke-miterlimit:10;" d="M6.331,16H5.5C4.672,16,4,15.328,4,14.5
	c0-0.507,0.252-0.956,0.638-1.227"/>
<path style="fill:none;stroke:#000000;stroke-width:2;stroke-miterlimit:10;" d="M16.59,10.111C16.843,9.626,17,9.084,17,8.5
	C17,6.567,15.433,5,13.5,5S10,6.567,10,8.5c0,0.855,0.319,1.628,0.828,2.236"/>
</svg>
