<?xml version="1.0" encoding="iso-8859-1"?>
<!-- Generator: Adobe Illustrator 19.1.1, SVG Export Plug-In . SVG Version: 6.00 Build 0)  -->
<svg version="1.1" id="Layer_1" xmlns="http://www.w3.org/2000/svg" xmlns:xlink="http://www.w3.org/1999/xlink" x="0px" y="0px"
	 viewBox="0 0 32 32" style="enable-background:new 0 0 32 32;" xml:space="preserve">
<line style="fill:none;stroke:#000000;stroke-width:2;stroke-linecap:round;stroke-miterlimit:10;" x1="13.5" y1="10" x2="18.5" y2="10"/>
<polyline style="fill:none;stroke:#000000;stroke-width:2;stroke-miterlimit:10;" points="17,26 6,26 6,6 26,6 26,17 "/>
<path d="M24,16c-4.4,0-8,3.6-8,8c0,4.4,3.6,8,8,8s8-3.6,8-8C32,19.6,28.4,16,24,16z M24,30c-3.3,0-6-2.7-6-6s2.7-6,6-6s6,2.7,6,6
	S27.3,30,24,30z"/>
<rect x="23" y="16.929" transform="matrix(0.7071 -0.7071 0.7071 0.7071 -9.9411 24)" width="2" height="14.142"/>
</svg>
