<?xml version="1.0" encoding="iso-8859-1"?>
<!-- Generator: Adobe Illustrator 22.0.1, SVG Export Plug-In . SVG Version: 6.00 Build 0)  -->
<svg version="1.1" id="&#x421;&#x43B;&#x43E;&#x439;_1"
	 xmlns="http://www.w3.org/2000/svg" xmlns:xlink="http://www.w3.org/1999/xlink" x="0px" y="0px" viewBox="0 0 32 32"
	 style="enable-background:new 0 0 32 32;" xml:space="preserve">
<g>
	<line style="fill:none;stroke:#000000;stroke-width:2;stroke-miterlimit:10;" x1="20" y1="6" x2="30" y2="6"/>
	<path style="fill:none;stroke:#000000;stroke-width:2;stroke-miterlimit:10;" d="M13.602,8.5L9.5,4.301
		c-0.5-0.403-1.199-0.403-1.699,0L4.699,7.5C4,8.102,3.801,9.102,4.102,9.898c0.796,2.301,2.898,6.903,7,11
		c4.097,4.102,8.699,6.102,11,7c0.898,0.301,1.796,0.102,2.5-0.5l3.097-3.097c0.5-0.5,0.5-1.199,0-1.699L23.602,18.5
		c-0.5-0.5-1.204-0.5-1.704,0l-2.5,2.5c0,0-2.796-1.199-5-3.301c-2.199-2.097-3.296-5-3.296-5l2.5-2.5
		C14.102,9.699,14.102,8.898,13.602,8.5L13.602,8.5z"/>
	<polyline style="fill:none;stroke:#000000;stroke-width:2;stroke-miterlimit:10;" points="25,1 30,6 25,11 	"/>
</g>
</svg>
