<?xml version="1.0" encoding="iso-8859-1"?>
<!-- Generator: Adobe Illustrator 21.0.0, SVG Export Plug-In . SVG Version: 6.00 Build 0)  -->
<svg version="1.1" id="Layer_1" xmlns="http://www.w3.org/2000/svg" xmlns:xlink="http://www.w3.org/1999/xlink" x="0px" y="0px"
	 viewBox="0 0 32 32" style="enable-background:new 0 0 32 32;" xml:space="preserve">
<path style="fill:none;stroke:#000000;stroke-width:2;stroke-miterlimit:10;" d="M7,7v3c0,0.855,0.155,2,1,2h11c0.422,0,1,0.573,1,1
	v5c0,0.427-0.578,1-1,1H7c-1.689,0-3,1.29-3,3v3.452C4,26.307,4.684,27,5.529,27h20.941C27.316,27,28,26.307,28,25.452V7
	c0-1.71-1.37-3-3.059-3H9.882C8.193,4,7,5.29,7,7z"/>
<rect x="10" y="12" width="2" height="4"/>
<rect x="6" y="26" width="2" height="3"/>
<rect x="24" y="26" width="2" height="3"/>
<line style="fill:none;stroke:#000000;stroke-width:2;stroke-miterlimit:10;" x1="12" y1="4" x2="12" y2="8"/>
<line style="fill:none;stroke:#000000;stroke-width:2;stroke-miterlimit:10;" x1="17" y1="4" x2="17" y2="8"/>
<line style="fill:none;stroke:#000000;stroke-width:2;stroke-miterlimit:10;" x1="22" y1="4" x2="22" y2="8"/>
</svg>
