<?xml version="1.0" encoding="iso-8859-1"?>
<!-- Generator: Adobe Illustrator 19.1.1, SVG Export Plug-In . SVG Version: 6.00 Build 0)  -->
<svg version="1.1" id="Layer_1" xmlns="http://www.w3.org/2000/svg" xmlns:xlink="http://www.w3.org/1999/xlink" x="0px" y="0px"
	 viewBox="0 0 32 32" style="enable-background:new 0 0 32 32;" xml:space="preserve">
<circle cx="19.5" cy="12.5" r="1.5"/>
<circle cx="12.5" cy="12.5" r="1.5"/>
<ellipse style="fill:none;stroke:#000000;stroke-width:2;stroke-miterlimit:10;" cx="9.5" cy="23" rx="2.5" ry="4"/>
<path style="fill:none;stroke:#000000;stroke-width:2;stroke-miterlimit:10;" d="M11,26.223C12.429,26.807,14.148,27,16,27
	c1.85,0,3.57-0.19,5-0.771"/>
<ellipse style="fill:none;stroke:#000000;stroke-width:2;stroke-miterlimit:10;" cx="22.5" cy="23" rx="2.5" ry="4"/>
<path style="fill:none;stroke:#000000;stroke-width:2;stroke-miterlimit:10;" d="M22.5,19c1.434,0,2.362,0.896,2.362,0.896
	l0.937,0.703c0.349,0.263,0.764,0.401,1.2,0.401c0.627,0,1.225-0.299,1.6-0.799c0.321-0.427,0.456-0.954,0.381-1.484
	c-0.076-0.529-0.353-0.997-0.78-1.317l-3.367-2.525c-0.197-1.692-0.58-3.237-1.222-4.546C25.128,8.194,25,5,25,5
	s-3.205,0.298-4.928,1.801C18.955,6.291,17.619,6,16,6s-2.955,0.291-4.072,0.801C10.205,5.298,7,5,7,5s-0.128,3.194,1.389,5.329
	c-0.641,1.309-1.025,2.854-1.222,4.546L3.801,17.4c-0.427,0.32-0.705,0.788-0.78,1.317c-0.076,0.529,0.06,1.056,0.381,1.484
	C3.776,20.701,4.375,21,5.001,21c0.436,0,0.851-0.139,1.2-0.401l0.937-0.703c0,0,0.928-0.896,2.362-0.896"/>
<ellipse cx="16" cy="16" rx="2" ry="1"/>
</svg>
