<?xml version="1.0" encoding="iso-8859-1"?>
<!-- Generator: Adobe Illustrator 19.1.1, SVG Export Plug-In . SVG Version: 6.00 Build 0)  -->
<svg version="1.1" id="Layer_1" xmlns="http://www.w3.org/2000/svg" xmlns:xlink="http://www.w3.org/1999/xlink" x="0px" y="0px"
	 viewBox="0 0 32 32" style="enable-background:new 0 0 32 32;" xml:space="preserve">
<path style="fill:none;stroke:#000000;stroke-width:2;stroke-miterlimit:10;" d="M6,28C6,28,5.875,8,19,8c0,0,1.5-3,4-3v4l4,8
	c1.062,1,1,2,1,2s-0.5,2-2,2s-2-2-2-2s-4.063,0.5-5-3c-4.375,2.563,1,7.563,1,12"/>
<circle cx="22" cy="13" r="1"/>
<path d="M5,28H3C3,27.77,3.183,5,19,5v2C6.375,7,5,27.79,5,28z"/>
</svg>
