<?xml version="1.0" encoding="iso-8859-1"?>
<!-- Generator: Adobe Illustrator 19.1.0, SVG Export Plug-In . SVG Version: 6.00 Build 0)  -->
<svg version="1.1" id="Layer_1" xmlns="http://www.w3.org/2000/svg" xmlns:xlink="http://www.w3.org/1999/xlink" x="0px" y="0px"
	 viewBox="0 0 32 32" style="enable-background:new 0 0 32 32;" xml:space="preserve">
<path style="fill:none;stroke:#000000;stroke-width:2;stroke-miterlimit:10;" d="M13,27c0-1.657,1.343-3,3-3s3,1.343,3,3"/>
<line style="fill:none;stroke:#000000;stroke-width:2;stroke-miterlimit:10;" x1="17.764" y1="24.58" x2="20.807" y2="20.672"/>
<circle style="fill:none;stroke:#000000;stroke-width:2;stroke-miterlimit:10;" cx="26" cy="14" r="3"/>
<line style="fill:none;stroke:#000000;stroke-width:2;stroke-miterlimit:10;" x1="26" y1="11" x2="26" y2="8"/>
<line style="fill:none;stroke:#000000;stroke-width:2;stroke-miterlimit:10;" x1="26" y1="20" x2="26" y2="17"/>
<line style="fill:none;stroke:#000000;stroke-width:2;stroke-miterlimit:10;" x1="29" y1="14" x2="32" y2="14"/>
<line style="fill:none;stroke:#000000;stroke-width:2;stroke-miterlimit:10;" x1="20" y1="14" x2="23" y2="14"/>
<line style="fill:none;stroke:#000000;stroke-width:2;stroke-miterlimit:10;" x1="28.121" y1="11.879" x2="30.243" y2="9.757"/>
<line style="fill:none;stroke:#000000;stroke-width:2;stroke-miterlimit:10;" x1="21.757" y1="18.243" x2="23.879" y2="16.121"/>
<line style="fill:none;stroke:#000000;stroke-width:2;stroke-miterlimit:10;" x1="28.121" y1="16.121" x2="30.243" y2="18.243"/>
<line style="fill:none;stroke:#000000;stroke-width:2;stroke-miterlimit:10;" x1="21.757" y1="9.757" x2="23.879" y2="11.879"/>
<path style="fill:none;stroke:#000000;stroke-width:2;stroke-miterlimit:10;" d="M12,12c-0.047,0-0.091,0.012-0.137,0.014
	C11.422,10.284,9.867,9,8,9c-2.209,0-4,1.791-4,4c0,0.018,0.005,0.034,0.005,0.051C3.842,13.018,3.673,13,3.5,13
	C2.119,13,1,14.119,1,15.5C1,16.881,2.119,18,3.5,18c1.078,0,7.473,0,8.5,0c1.657,0,3-1.343,3-3S13.657,12,12,12z"/>
</svg>
