<?xml version="1.0" encoding="iso-8859-1"?>
<!-- Generator: Adobe Illustrator 19.1.0, SVG Export Plug-In . SVG Version: 6.00 Build 0)  -->
<svg version="1.1" id="Layer_1" xmlns="http://www.w3.org/2000/svg" xmlns:xlink="http://www.w3.org/1999/xlink" x="0px" y="0px"
	 viewBox="0 0 32 32" style="enable-background:new 0 0 32 32;" xml:space="preserve">
<path style="fill:none;stroke:#000000;stroke-width:2;stroke-miterlimit:10;" d="M26,5l-2.219,3.883
	c-1.097,1.919-1.05,4.286,0.122,6.161l1.195,1.912c1.172,1.875,1.218,4.242,0.122,6.161L23,27"/>
<path style="fill:none;stroke:#000000;stroke-width:2;stroke-miterlimit:10;" d="M17.5,5l-2.219,3.883
	c-1.097,1.919-1.05,4.286,0.122,6.161l1.195,1.912c1.172,1.875,1.218,4.242,0.122,6.161L14.5,27"/>
<path style="fill:none;stroke:#000000;stroke-width:2;stroke-miterlimit:10;" d="M9,5L6.781,8.883
	c-1.097,1.919-1.05,4.286,0.122,6.161l1.195,1.912c1.172,1.875,1.218,4.242,0.122,6.161L6,27"/>
</svg>
