<?xml version="1.0" encoding="iso-8859-1"?>
<!-- Generator: Adobe Illustrator 19.1.0, SVG Export Plug-In . SVG Version: 6.00 Build 0)  -->
<svg version="1.1" id="Layer_1" xmlns="http://www.w3.org/2000/svg" xmlns:xlink="http://www.w3.org/1999/xlink" x="0px" y="0px"
	 viewBox="0 0 32 32" style="enable-background:new 0 0 32 32;" xml:space="preserve">
<rect x="13" y="9" width="2" height="2"/>
<rect x="17" y="9" width="2" height="2"/>
<rect x="13" y="13" width="2" height="2"/>
<rect x="17" y="13" width="2" height="2"/>
<rect x="13" y="17" width="2" height="2"/>
<rect x="17" y="17" width="2" height="2"/>
<rect x="13" y="21" width="2" height="2"/>
<rect x="17" y="21" width="2" height="2"/>
<polyline style="fill:none;stroke:#000000;stroke-width:2;stroke-miterlimit:10;" points="22,26 22,6 10,6 10,26 "/>
<path id="XMLID_135_" style="fill:none;stroke:#000000;stroke-width:2;stroke-miterlimit:10;" d="M7,24c0,0.984,1.328,2,3,2s3-1,3-2
	"/>
<path id="XMLID_7_" style="fill:none;stroke:#000000;stroke-width:2;stroke-miterlimit:10;" d="M4,26c1.672,0,3-1,3-2"/>
<path id="XMLID_1_" style="fill:none;stroke:#000000;stroke-width:2;stroke-miterlimit:10;" d="M22,22c1.672,0,3-1,3-2"/>
<path id="XMLID_136_" style="fill:none;stroke:#000000;stroke-width:2;stroke-miterlimit:10;" d="M13,24c0,0.984,1.328,2,3,2
	s3-1,3-2"/>
<path id="XMLID_137_" style="fill:none;stroke:#000000;stroke-width:2;stroke-miterlimit:10;" d="M19,24c0,0.984,1.328,2,3,2
	s3-1,3-2"/>
<path id="XMLID_6_" style="fill:none;stroke:#000000;stroke-width:2;stroke-miterlimit:10;" d="M25,24c0,0.984,1.328,2,3,2"/>
<path id="XMLID_2_" style="fill:none;stroke:#000000;stroke-width:2;stroke-miterlimit:10;" d="M25,20c0,0.984,1.328,2,3,2"/>
<path id="XMLID_4_" style="fill:none;stroke:#000000;stroke-width:2;stroke-miterlimit:10;" d="M22,18c1.672,0,3-1,3-2"/>
<path id="XMLID_3_" style="fill:none;stroke:#000000;stroke-width:2;stroke-miterlimit:10;" d="M25,16c0,0.984,1.328,2,3,2"/>
<path id="XMLID_10_" style="fill:none;stroke:#000000;stroke-width:2;stroke-miterlimit:10;" d="M4,22c1.672,0,3-1,3-2"/>
<path id="XMLID_9_" style="fill:none;stroke:#000000;stroke-width:2;stroke-miterlimit:10;" d="M7,20c0,0.984,1.328,2,3,2"/>
<path id="XMLID_8_" style="fill:none;stroke:#000000;stroke-width:2;stroke-miterlimit:10;" d="M4,18c1.672,0,3-1,3-2"/>
<path id="XMLID_5_" style="fill:none;stroke:#000000;stroke-width:2;stroke-miterlimit:10;" d="M7,16c0,0.984,1.328,2,3,2"/>
</svg>
