<?xml version="1.0" encoding="iso-8859-1"?>
<!-- Generator: Adobe Illustrator 19.1.0, SVG Export Plug-In . SVG Version: 6.00 Build 0)  -->
<svg version="1.1" id="Layer_1" xmlns="http://www.w3.org/2000/svg" xmlns:xlink="http://www.w3.org/1999/xlink" x="0px" y="0px"
	 viewBox="0 0 32 32" style="enable-background:new 0 0 32 32;" xml:space="preserve">
<path style="fill:none;stroke:#000000;stroke-width:2;stroke-miterlimit:10;" d="M12.082,13.553
	c-2.136-0.43-3.744-2.317-3.744-4.579c0-0.713,0.164-1.386,0.45-1.991C5.573,7.099,3,9.735,3,12.978c0,2.222,1.207,4.162,3,5.201"/>
<path d="M26.966,16.416c-0.283-2.418-2.298-4.315-4.768-4.412C21.136,10.158,19.166,9,17,9c-2.583,0-4.857,1.666-5.676,4.057
	c-1.583,0.271-2.851,1.474-3.217,3.023C5.774,16.502,4,18.548,4,21c0,2.757,2.243,5,5,5h16c2.757,0,5-2.243,5-5
	C30,18.981,28.785,17.191,26.966,16.416z M25,24H9c-1.654,0-3-1.346-3-3s1.346-3,3-3h1v-1c0-1.103,0.897-2,1.91-2.005l1.001,0.052
	l0.169-0.839C13.454,12.349,15.103,11,17,11c1.605,0,3.049,0.955,3.68,2.433l0.289,0.678l0.897-0.095C21.91,14.009,21.954,14,22,14
	c1.654,0,3,1.346,3.003,2.931l-0.042,0.977l0.778,0.199C27.07,18.446,28,19.636,28,21C28,22.654,26.654,24,25,24z"/>
</svg>
