<?xml version="1.0" encoding="iso-8859-1"?>
<!-- Generator: Adobe Illustrator 19.1.1, SVG Export Plug-In . SVG Version: 6.00 Build 0)  -->
<svg version="1.1" id="Layer_1" xmlns="http://www.w3.org/2000/svg" xmlns:xlink="http://www.w3.org/1999/xlink" x="0px" y="0px"
	 viewBox="0 0 32 32" style="enable-background:new 0 0 32 32;" xml:space="preserve">
<path style="fill:none;stroke:#000000;stroke-width:2;stroke-miterlimit:10;" d="M8,18c-2.209,0-4-1.791-4-4s1.791-4,4-4
	s4,1.791,4,4"/>
<line style="fill:none;stroke:#000000;stroke-width:2;stroke-miterlimit:10;" x1="8" y1="10" x2="8" y2="6"/>
<line style="fill:none;stroke:#000000;stroke-width:2;stroke-miterlimit:10;" x1="0" y1="14" x2="4" y2="14"/>
<line style="fill:none;stroke:#000000;stroke-width:2;stroke-miterlimit:10;" x1="10.828" y1="11.172" x2="13.657" y2="8.343"/>
<line style="fill:none;stroke:#000000;stroke-width:2;stroke-miterlimit:10;" x1="2.343" y1="19.657" x2="5.172" y2="16.828"/>
<line style="fill:none;stroke:#000000;stroke-width:2;stroke-miterlimit:10;" x1="2.343" y1="8.343" x2="5.172" y2="11.172"/>
<path d="M18,26c0,1.105-0.895,2-2,2s-2-0.895-2-2s2-4,2-4S18,24.895,18,26z"/>
<path d="M24,23c0,1.105-0.895,2-2,2s-2-0.895-2-2s2-4,2-4S24,21.895,24,23z"/>
<g>
	<path d="M28.966,15.416c-0.283-2.418-2.298-4.315-4.768-4.412C23.136,9.158,21.166,8,19,8c-2.583,0-4.857,1.666-5.676,4.057
		c-1.583,0.271-2.851,1.474-3.217,3.023C7.774,15.502,6,17.548,6,20c0,2.757,2.243,5,5,5h1.169c0.179-0.629,0.488-1.316,0.86-2H11
		c-1.654,0-3-1.346-3-3s1.346-3,3-3h1v-1c0-1.103,0.897-2,1.91-2.005l1.001,0.052l0.169-0.839C15.454,11.349,17.103,10,19,10
		c1.605,0,3.049,0.955,3.68,2.433l0.289,0.678l0.897-0.095C23.91,13.009,23.954,13,24,13c1.654,0,3,1.346,3.003,2.931l-0.042,0.977
		l0.778,0.199C29.07,17.446,30,18.636,30,20c0,1.654-1.346,3-3,3h-1c0,0.732-0.212,1.409-0.556,2H27c2.757,0,5-2.243,5-5
		C32,17.981,30.785,16.191,28.966,15.416z"/>
	<path d="M22,25c1.105,0,2-0.895,2-2h-4C20,24.105,20.895,25,22,25z"/>
	<path d="M17.725,25c-0.276-0.653-0.711-1.409-1.076-2h-1.297c-0.366,0.591-0.8,1.347-1.076,2H17.725z"/>
</g>
</svg>
