<?xml version="1.0" encoding="iso-8859-1"?>
<!-- Generator: Adobe Illustrator 21.0.0, SVG Export Plug-In . SVG Version: 6.00 Build 0)  -->
<svg version="1.1" id="Layer_1" xmlns="http://www.w3.org/2000/svg" xmlns:xlink="http://www.w3.org/1999/xlink" x="0px" y="0px"
	 viewBox="0 0 32 32" style="enable-background:new 0 0 32 32;" xml:space="preserve">
<path style="fill:none;stroke:#000000;stroke-width:2;stroke-linejoin:round;stroke-miterlimit:10;" d="M10,29L10,29
	c-1.105,0-2-0.57-2-1.273v-7c0-0.703,0.895-1.273,2-1.273l0,0c1.105,0,2,0.57,2,1.273v7C12,28.43,11.105,29,10,29z"/>
<path style="fill:none;stroke:#000000;stroke-width:2;stroke-linejoin:round;stroke-miterlimit:10;" d="M22,29L22,29
	c-1.105,0-2-0.57-2-1.273v-7c0-0.703,0.895-1.273,2-1.273l0,0c1.105,0,2,0.57,2,1.273v7C24,28.43,23.105,29,22,29z"/>
<path style="fill:none;stroke:#000000;stroke-width:2;stroke-linejoin:round;stroke-miterlimit:10;" d="M12,13c0,2,0.328,2,1.062,4
	C13.763,17.676,16,18,16,18s2.237-0.324,2.938-1C19.672,15,20,15,20,13"/>
<path style="fill:none;stroke:#000000;stroke-width:2;stroke-linecap:round;stroke-linejoin:round;stroke-miterlimit:10;" d="M16,12
	l-5.699-2.974L12,4c2-1,6-1,8,0l1.749,4.94L16,12"/>
<line style="fill:none;stroke:#000000;stroke-width:2;stroke-linejoin:round;stroke-miterlimit:10;" x1="16" y1="18" x2="16" y2="26"/>
<line style="stroke:#000000;stroke-width:2;stroke-miterlimit:10;" x1="19" y1="16" x2="23" y2="16"/>
<line style="stroke:#000000;stroke-width:2;stroke-miterlimit:10;" x1="21" y1="8" x2="25" y2="8"/>
<line style="stroke:#000000;stroke-width:2;stroke-miterlimit:10;" x1="7" y1="8" x2="11" y2="8"/>
<line style="stroke:#000000;stroke-width:2;stroke-miterlimit:10;" x1="9" y1="16" x2="13" y2="16"/>
</svg>
