<?xml version="1.0" encoding="iso-8859-1"?>
<!-- Generator: Adobe Illustrator 19.1.1, SVG Export Plug-In . SVG Version: 6.00 Build 0)  -->
<svg version="1.1" id="Layer_1" xmlns="http://www.w3.org/2000/svg" xmlns:xlink="http://www.w3.org/1999/xlink" x="0px" y="0px"
	 viewBox="0 0 32 32" style="enable-background:new 0 0 32 32;" xml:space="preserve">
<polygon style="fill:none;stroke:#000000;stroke-width:2;stroke-miterlimit:10;" points="28,21 14,21 9,25 9,21 4,21 4,5 28,5 "/>
<rect x="15" y="16" width="2" height="2"/>
<path d="M17,13.7c1-0.4,2-1.4,2-2.7c0-1.2-0.8-3-3-3s-3,1.8-3,3h2c0-0.5,0.2-1,1-1c0.8,0,1,0.5,1,1s-0.5,0.8-0.8,0.9H16
	c-0.6,0.2-1,0.8-1,1.5V15h2V13.7z"/>
</svg>
