<?xml version="1.0" encoding="iso-8859-1"?>
<!-- Generator: Adobe Illustrator 19.1.0, SVG Export Plug-In . SVG Version: 6.00 Build 0)  -->
<svg version="1.1" id="Layer_1" xmlns="http://www.w3.org/2000/svg" xmlns:xlink="http://www.w3.org/1999/xlink" x="0px" y="0px"
	 viewBox="0 0 32 32" style="enable-background:new 0 0 32 32;" xml:space="preserve">
<path style="fill:none;stroke:#000000;stroke-width:2;stroke-miterlimit:10;" d="M24.302,16.698c0,0-0.081-3.062-3-6s-6-3-6-3
	S5.069,25.056,6.009,25.996S24.302,16.698,24.302,16.698z"/>
<line style="fill:none;stroke:#000000;stroke-width:2;stroke-miterlimit:10;" x1="21.374" y1="10.626" x2="27.53" y2="4.47"/>
<path style="fill:none;stroke:#000000;stroke-width:2;stroke-miterlimit:10;" d="M22.318,9.682c3.23-3.23,7.026-0.27,7.026-0.27"/>
<path style="fill:none;stroke:#000000;stroke-width:2;stroke-miterlimit:10;" d="M22.318,9.682c3.4-3.4-0.008-5.686-0.008-5.686"/>
<path style="fill:none;stroke:#000000;stroke-width:2;stroke-miterlimit:10;" d="M20.898,18.405c0,0-0.341-1.265-1.508-2.821"/>
<path style="fill:none;stroke:#000000;stroke-width:2;stroke-miterlimit:10;" d="M14.039,22.248c0,0,0-1.119-1.119-2.675"/>
<path style="fill:none;stroke:#000000;stroke-width:2;stroke-miterlimit:10;" d="M14.72,14.805c-1.119-1.459-2.14-2.043-2.14-2.043"
	/>
</svg>
