<?xml version="1.0" encoding="iso-8859-1"?>
<!-- Generator: Adobe Illustrator 19.1.1, SVG Export Plug-In . SVG Version: 6.00 Build 0)  -->
<svg version="1.1" id="Layer_1" xmlns="http://www.w3.org/2000/svg" xmlns:xlink="http://www.w3.org/1999/xlink" x="0px" y="0px"
	 viewBox="0 0 32 32" style="enable-background:new 0 0 32 32;" xml:space="preserve">
<path style="fill:none;stroke:#000000;stroke-width:2;stroke-miterlimit:10;" d="M23.998,14.05C23.998,14.033,24,14.017,24,14
	c0-4.418-3.582-8-8-8s-8,3.582-8,8c0,0.017,0.002,0.033,0.002,0.05C6.86,14.281,6,15.29,6,16.5C6,17.881,7.119,19,8.5,19
	c0.029,0,0.056-0.008,0.084-0.008C8.75,24.25,13.081,28,16.001,28c2.925,0,6.916-3.5,7.423-9.008C23.45,18.993,23.474,19,23.5,19
	c1.381,0,2.5-1.119,2.5-2.5C26,15.29,25.14,14.281,23.998,14.05z"/>
<path d="M11,15c0,0-0.417,3,2,3c1.333,0,2-1,2-1L11,15z"/>
<path d="M21,15c0,0,0.417,3-2,3c-1.333,0-2-1-2-1L21,15z"/>
<line style="fill:none;stroke:#000000;stroke-width:2;stroke-miterlimit:10;" x1="11.167" y1="7.833" x2="16" y2="14"/>
<line style="fill:none;stroke:#000000;stroke-width:2;stroke-miterlimit:10;" x1="12" y1="13" x2="16" y2="10"/>
<path d="M18,21l-0.5,1L17,21l-0.5,1L16,21l-0.5,1L15,21l-0.5,1L14,21c-0.552,0-1,0.448-1,1c0,0,0.007,0.155,0.076,0.375
	c0.003,0.006,0.003,0.013,0.006,0.019C13.269,22.976,13.896,24,16,24s2.731-1.024,2.918-1.606c0.003-0.006,0.004-0.013,0.006-0.019
	C18.993,22.155,19,22,19,22C19,21.448,18.552,21,18,21z"/>
<path d="M16,6c4.625,0,7.998,3.625,7.998,8.05C25.622,14.05,26,16.5,26,16.5s0.375,2.375-2.5,2.5c-0.121,3.563-3.5,7-3.5,7l9,3
	c0,0-0.125-6.313-2-10l2,1c0,0-0.25-5.813-2-8c1.25,0.688,2,1,2,1C24.75,2.125,16,3,16,3V6z"/>
<path d="M16,6c-4.625,0-7.998,3.625-7.998,8.05C6.378,14.05,6,16.5,6,16.5S5.625,18.875,8.5,19c0.121,3.563,3.5,7,3.5,7l-9,3
	c0,0,0-6.75,2-10l-2,1c0,0,0.25-5.813,2-8c-1.25,0.688-2,1-2,1C7.25,2.125,16,3,16,3V6z"/>
<circle cx="16" cy="7" r="1"/>
</svg>
