<?xml version="1.0" encoding="iso-8859-1"?>
<!-- Generator: Adobe Illustrator 19.1.0, SVG Export Plug-In . SVG Version: 6.00 Build 0)  -->
<svg version="1.1" id="Layer_1" xmlns="http://www.w3.org/2000/svg" xmlns:xlink="http://www.w3.org/1999/xlink" x="0px" y="0px"
	 viewBox="0 0 32 32" style="enable-background:new 0 0 32 32;" xml:space="preserve">
<polygon points="17,28 15,28 14,27 14,26.5 18,26.5 18,27 "/>
<path style="fill:none;stroke:#000000;stroke-width:2;stroke-miterlimit:10;" d="M18,26h-4c-0.552,0-1-0.448-1-1v-3h6v3
	C19,25.552,18.552,26,18,26z"/>
<path style="fill:none;stroke:#000000;stroke-width:2;stroke-linecap:round;stroke-miterlimit:10;" d="M13.167,22
	c-1.369-1.208-1.06-2.546-1.275-3.417c-0.567-2.292-1.558-5.666-1.558-8.57c0-2.977,3.218-3.856,4.405-4.061
	C15.096,5.891,15.402,5,16,5s0.904,0.891,1.262,0.952c1.187,0.205,4.405,1.084,4.405,4.061c0,2.904-0.992,6.278-1.558,8.57
	c-0.215,0.87,0.094,2.208-1.275,3.417C17.2,22,14.8,22,13.167,22z"/>
</svg>
