<?xml version="1.0" encoding="iso-8859-1"?>
<!-- Generator: Adobe Illustrator 21.0.2, SVG Export Plug-In . SVG Version: 6.00 Build 0)  -->
<svg version="1.1"  xmlns="http://www.w3.org/2000/svg" xmlns:xlink="http://www.w3.org/1999/xlink" x="0px" y="0px"
	 viewBox="0 0 32 32" style="enable-background:new 0 0 32 32;" xml:space="preserve">
<line style="fill:none;stroke:#000000;stroke-width:2;stroke-linecap:round;stroke-linejoin:round;stroke-miterlimit:10;" x1="21" y1="9" x2="27" y2="9"/>
<path d="M18,16h-8v-2h6C17.105,14,18,14.895,18,16L18,16z"/>
<path style="fill:none;stroke:#000000;stroke-width:2;stroke-linecap:round;stroke-linejoin:round;stroke-miterlimit:10;" d="
	M19.5,19l-7.222,0c-0.432,0-0.811-0.276-0.939-0.688C9.955,13.834,8.015,6.324,7.932,6.058c-0.245-0.792-1.085-1.235-1.876-0.99
	C5.266,5.312,4.823,6.153,5.067,6.945c0.068,0.218,2.221,8.418,3.62,12.947C9.076,21.148,10.237,22,11.552,22l7.948,0
	c0.828,0,1.5-0.672,1.5-1.5S20.328,19,19.5,19z"/>
<path style="fill:none;stroke:#000000;stroke-width:2;stroke-miterlimit:10;" d="M12,22l-1.451,3.628
	c-0.263,0.657,0.221,1.371,0.928,1.371h7.046c0.707,0,1.191-0.715,0.928-1.371L18,22H12z"/>
<path style="fill:none;stroke:#000000;stroke-width:2;stroke-linecap:round;stroke-linejoin:round;stroke-miterlimit:10;" d="M27,8
	c0-1.657-1.343-3-3-3s-3,1.343-3,3c0,0,0,2.917,0,3c0,1.657,1.343,3,3,3s3-1.343,3-3V8z"/>
</svg>
