<?xml version="1.0" encoding="iso-8859-1"?>
<!-- Generator: Adobe Illustrator 19.1.0, SVG Export Plug-In . SVG Version: 6.00 Build 0)  -->
<svg version="1.1" id="Layer_1" xmlns="http://www.w3.org/2000/svg" xmlns:xlink="http://www.w3.org/1999/xlink" x="0px" y="0px"
	 viewBox="0 0 32 32" style="enable-background:new 0 0 32 32;" xml:space="preserve">
<path style="fill:none;stroke:#000000;stroke-width:2;stroke-miterlimit:10;" d="M14.584,27.414l-9.998-9.998
	c-0.782-0.782-0.782-2.049,0-2.831l9.998-9.998c0.782-0.782,2.049-0.782,2.831,0l9.998,9.998c0.782,0.782,0.782,2.049,0,2.831
	l-9.998,9.998C16.634,28.195,15.366,28.195,14.584,27.414z"/>
<path d="M21.842,17.674c-2.31-2.772-1.478-3.418-3.141-5.451c-0.185-0.185,0.092-0.092,0.554,0
	c-0.185-0.831-1.109-1.201-1.109-1.201s0,0,0.462-1.109c-0.831,0.092-1.755,0.185-2.31,1.293c-2.772,0.277-5.174,2.125-7.299,4.897
	L13.897,21c1.016-1.016,0-3.049,1.848-4.342c0.462,2.033,2.864,1.755,3.696,2.31c0.462,0.277,0.739,1.386,1.663,0.739
	c0.37,0,0.554-0.185,0.554-0.739C21.842,18.506,22.211,18.228,21.842,17.674z"/>
<path d="M18.701,10.745l-0.092,0.277c0,0,0.37,0.277,0.554,0.462c0.185-0.277,0.739-0.924,0.739-0.924S19.07,10.468,18.701,10.745z"
	/>
</svg>
