<?xml version="1.0" encoding="iso-8859-1"?>
<!-- Generator: Adobe Illustrator 19.1.1, SVG Export Plug-In . SVG Version: 6.00 Build 0)  -->
<svg version="1.1"  xmlns="http://www.w3.org/2000/svg" xmlns:xlink="http://www.w3.org/1999/xlink" x="0px" y="0px"
	 viewBox="0 0 32 32" style="enable-background:new 0 0 32 32;" xml:space="preserve">
<path style="fill:none;stroke:#000000;stroke-width:2;stroke-miterlimit:10;" d="M7.706,14.181c-0.113,1.403,1.799,3.84,1.799,3.84
	l-0.862,2.068l0.787,0.775l0.975-0.074c0,0-0.075,0.812,0,1.034c0.075,0.221,0.412,1.625,0.45,2.105
	c0.038,0.48,1.125,1.625,1.575,2.179S13.287,27,13.287,27h5.816c0,0,1.762-3.034,2.249-4.104c0.488-1.071,0.6-2.252,0.6-2.252
	l0.862,0.333l0.9-1.218l-0.787-0.886l0.038-0.48l1.424-2.252l0.348-2.566"/>
<polygon points="10.413,19.995 10.743,21.525 10.949,21.504 11.176,22.703 11.444,22.703 11.465,23.302 11.836,23.343 
	11.939,23.943 12.269,24.15 12.392,24.976 12.66,24.046 13.341,24.315 13.547,25.637 13.794,25.596 13.876,24.542 14.412,24.646 
	14.474,25.761 14.845,25.72 14.948,24.852 15.958,24.935 16.412,25.968 16.597,25.948 16.824,24.811 17.793,24.832 17.834,25.885 
	18.041,25.844 18.391,24.687 19.03,24.604 19.133,25.389 19.277,25.286 19.401,24.087 19.689,24.046 19.895,24.48 19.998,23.612 
	20.349,23.612 20.37,23.116 20.72,23.075 20.741,22.538 21.091,22.124 21.277,21.38 21.565,20.925 21.647,20.264 22.019,19.788 
	21.668,19.85 21.359,20.305 21.215,20.16 21.153,20.842 20.865,20.677 20.596,21.773 20.39,21.834 19.937,21.153 19.772,22.662 
	19.401,22.765 18.989,21.793 18.865,23.013 17.814,23.054 17.587,21.793 17.257,21.855 17.195,22.682 15.732,22.662 15.69,21.876 
	15.484,21.938 15.196,23.591 14.02,23.467 14.02,22.145 13.835,22.186 13.547,23.116 12.516,22.786 12.743,21.731 12.186,22.455 
	11.815,22.289 11.836,21.793 11.506,21.979 11.465,21.214 11.135,21.421 11.073,20.615 10.723,20.594 "/>
<path d="M13.9,19.682c0-0.199-0.326-0.372-0.326-0.372c0.104-0.948,0.587-1.048,0.587-1.493c-0.046,0-0.413-0.018-0.796,0.285
	c-0.383,0.303-0.854,0.597-0.88,0.796c0.42,0.003,0.939-0.389,0.939-0.389S13.038,20,13.542,20C13.806,20,13.9,19.881,13.9,19.682z"
	/>
<path style="fill:none;stroke:#000000;stroke-width:2;stroke-miterlimit:10;" d="M15.388,2.403l1.368,1.068l1.321-0.693
	c0,0,1.991,1.41,2.84,2.765l0.504-0.965c1.38,1.225,1.964,2.659,1.964,2.659l0.557-0.261c0,0,1.157,1.278,1.157,3.232
	c0,1.799-0.467,3.793-0.467,3.793l-0.637-0.638c0,0-0.159-1.877-0.924-2.914c-0.334,0.498-0.797,1.079-0.797,1.079L20.9,9.569
	l-0.658,1.148c0,0-0.978-1.592-1.955-2.401c-0.386,0.631-0.611,1.161-0.611,1.161l-1.692-1.292l-2.744,2.292l-0.942-0.684
	l-1.863,2.514l-0.62-0.874c0,0-1.691,1.935-1.784,4.166c-0.818-1.333-0.93-3.169-0.93-3.169l0.442,0.214
	c0,0-0.363-1.752,0.055-3.319c0.291-1.092,0.831-1.985,0.831-1.985l0.921-0.02c0,0,0.471-1.327,0.696-1.931
	c0.717,0.1,1.249,0.141,1.249,0.141s0.696-1.368,1.823-2.394l1.542,0.541L15.388,2.403z"/>
<path d="M16.133,29c0.359,0,0.664,0.364,0.664,0.364L19.504,28c0,0,0.556,0.621,0.556,1.53c0,0.909-0.171,1.47-0.171,1.47
	s-0.959-0.136-2.895-1.243c-0.126,0.151-0.179,0.47-0.682,0.47c-0.502,0-0.735-0.379-0.735-0.379S13.156,31,12.708,31
	c-0.574-0.424-0.771-1.788-0.574-2.879c1.129-0.091,3.102,1.349,3.335,1.349C15.523,29.409,15.81,29,16.133,29z"/>
<path d="M14.18,18.13c-0.755,0.487-1.581,1.038-3.128,1.539c-0.24-0.537,0.496-1.485,0.496-1.485s-1.007-1.011-1.151-1.273
	c-0.144-0.262-0.396-0.637-0.396-0.637S9.966,15.337,10.217,15c0.144,0.637,0.205,1.126,0.241,1.238c0,0,0.498-0.281,1.038-0.281
	s1.742,0.728,2.282,0.728s0.971-1.161,0.971-1.161S15,16.161,15,16.498C15.001,16.835,14.935,17.643,14.18,18.13z"/>
<path d="M16.704,20.036c-0.074,0.438-0.556,1.606-0.666,1.497c-0.111-0.109-0.852-1.277-0.963-1.606
	c-0.111-0.329-0.148-1.387-0.148-1.387C15.148,18.795,16,20,16,20l0.926-1.387C16.927,18.613,16.778,19.598,16.704,20.036z"/>
<path d="M22.343,17.153c-0.23,0.274-1,0.752-1.038,0.923C21.267,18.247,21.037,19,21.037,19s-0.461-0.137-1.038-0.239
	c-0.577-0.102-1.576-0.342-2.153-0.718c-0.417-0.272-0.807-1.128-0.846-1.504c0,0,0.846,0.479,1.153,0.376
	c0.307-0.102,3.268-0.855,3.268-0.855s0.5,0.445,0.692,0.41C22.42,16.197,22.728,15,22.728,15s0.307,0.581,0.269,0.992
	C22.977,16.195,22.574,16.88,22.343,17.153z"/>
</svg>
