<?xml version="1.0" encoding="iso-8859-1"?>
<!-- Generator: Adobe Illustrator 19.2.0, SVG Export Plug-In . SVG Version: 6.00 Build 0)  -->
<svg version="1.1" id="Layer_1" xmlns="http://www.w3.org/2000/svg" xmlns:xlink="http://www.w3.org/1999/xlink" x="0px" y="0px"
	 viewBox="0 0 32 32" style="enable-background:new 0 0 32 32;" xml:space="preserve">
<polygon points="17,28 15,28 14,27 14,26.5 18,26.5 18,27 "/>
<path style="fill:none;stroke:#000000;stroke-width:2;stroke-linecap:round;stroke-miterlimit:10;" d="M19,22.143
	c0-2.118,5-4.141,5-9.143c0-4.418-3.582-8-8-8s-8,3.582-8,8c0,5.053,5,6.999,5,9"/>
<path style="fill:none;stroke:#000000;stroke-width:2;stroke-miterlimit:10;" d="M18,26h-4c-0.552,0-1-0.448-1-1v-3h6v3
	C19,25.552,18.552,26,18,26z"/>
<circle cx="28" cy="13" r="1"/>
<circle cx="26" cy="7" r="1"/>
<circle cx="26" cy="19" r="1"/>
<circle cx="4" cy="13" r="1"/>
<circle cx="6" cy="19" r="1"/>
<circle cx="6" cy="7" r="1"/>
</svg>
