<?xml version="1.0" encoding="iso-8859-1"?>
<!-- Generator: Adobe Illustrator 19.1.0, SVG Export Plug-In . SVG Version: 6.00 Build 0)  -->
<svg version="1.1" id="Layer_1" xmlns="http://www.w3.org/2000/svg" xmlns:xlink="http://www.w3.org/1999/xlink" x="0px" y="0px"
	 viewBox="0 0 32 32" style="enable-background:new 0 0 32 32;" xml:space="preserve">
<line style="fill:none;stroke:#000000;stroke-width:2;stroke-miterlimit:10;" x1="12" y1="20" x2="20" y2="12"/>
<g>
	<path d="M15.928,19.607c0.204,1.295-0.178,2.663-1.175,3.659l-1.487,1.486C12.462,25.558,11.394,26,10.256,26
		c-1.137,0-2.206-0.442-3.01-1.247c-1.66-1.659-1.66-4.36,0-6.02l1.487-1.486C9.538,16.442,10.606,16,11.744,16
		c0.224,0,0.443,0.025,0.658,0.063l1.615-1.615C13.301,14.163,12.537,14,11.744,14c-1.671,0-3.243,0.65-4.424,1.833l-1.487,1.486
		C4.651,18.501,4,20.072,4,21.743s0.651,3.242,1.833,4.424C7.014,27.35,8.585,28,10.256,28c1.671,0,3.243-0.65,4.424-1.833
		l1.487-1.486C17.349,23.499,18,21.928,18,20.257c0-0.794-0.163-1.558-0.448-2.274L15.928,19.607z"/>
	<path d="M26.167,5.833C24.986,4.65,23.415,4,21.744,4c-1.671,0-3.243,0.65-4.424,1.833l-1.487,1.486
		C14.651,8.501,14,10.072,14,11.743c0,0.794,0.163,1.558,0.448,2.274l1.624-1.624c-0.204-1.295,0.178-2.663,1.175-3.659l1.487-1.486
		C19.538,6.442,20.606,6,21.744,6c1.137,0,2.206,0.442,3.01,1.247c1.66,1.659,1.66,4.36,0,6.02l-1.487,1.486
		C22.462,15.558,21.394,16,20.256,16c-0.224,0-0.443-0.025-0.658-0.063l-1.615,1.615C18.699,17.837,19.463,18,20.256,18
		c1.671,0,3.243-0.65,4.424-1.833l1.487-1.486C27.349,13.499,28,11.928,28,10.257S27.349,7.015,26.167,5.833z"/>
</g>
</svg>
