<?xml version="1.0" encoding="iso-8859-1"?>
<!-- Generator: Adobe Illustrator 19.1.1, SVG Export Plug-In . SVG Version: 6.00 Build 0)  -->
<svg version="1.1" id="Layer_1" xmlns="http://www.w3.org/2000/svg" xmlns:xlink="http://www.w3.org/1999/xlink" x="0px" y="0px"
	 viewBox="0 0 32 32" style="enable-background:new 0 0 32 32;" xml:space="preserve">
<path style="fill:none;stroke:#000000;stroke-width:2;stroke-miterlimit:10;" d="M17.192,16c0,0-1.913,0-2.847,0S12.933,14,12,14
	s-1.388,2-2.321,2s-2.847,0-2.847,0c-1.12,0-1.96-0.933-1.773-1.96l0.467-3.033c0.093-0.7,0.653-1.26,1.353-1.447
	C7.906,9.28,9.679,9,12.012,9s4.107,0.28,5.18,0.513c0.7,0.187,1.26,0.747,1.353,1.447l0.467,3.033
	C19.152,15.067,18.312,16,17.192,16z"/>
<path style="fill:none;stroke:#000000;stroke-width:2;stroke-miterlimit:10;" d="M14.346,16c-0.887,0-1.4,2-2.333,2
	s-1.493-2-2.333-2"/>
<path style="fill:none;stroke:#000000;stroke-width:2;stroke-miterlimit:10;" d="M15.012,20c0,1.657-1.343,3-3,3s-3-1.343-3-3"/>
<path style="fill:none;stroke:#000000;stroke-width:2;stroke-miterlimit:10;" d="M12,23c0,2.761,2.239,5,5,5s4.083-1.583,5-5l5-19
	h-1l-1,4l1,1"/>
</svg>
