<?xml version="1.0" encoding="iso-8859-1"?>
<!-- Generator: Adobe Illustrator 22.0.1, SVG Export Plug-In . SVG Version: 6.00 Build 0)  -->
<svg version="1.1" id="&#x421;&#x43B;&#x43E;&#x439;_1"
	 xmlns="http://www.w3.org/2000/svg" xmlns:xlink="http://www.w3.org/1999/xlink" x="0px" y="0px" viewBox="0 0 32 32"
	 style="enable-background:new 0 0 32 32;" xml:space="preserve">
<g>
	<line style="fill:none;stroke:#000000;stroke-width:2;stroke-miterlimit:10;" x1="3" y1="3" x2="29" y2="29"/>
	<g>
		<path d="M15.063,15.086l-1.447-1.381c2.228-2.337,5.243-3.493,5.37-3.541l0.604-0.229l2.957,2.957
			c0.093,0.094,0.198,0.086,0.219,0.076l0.074-0.085l4.144-4.047c0.075-0.116,0.075-0.26,0-0.376l-3.142-3.047
			c-0.404-0.462-0.968-0.523-1.348-0.379c-1.412,0.488-6.272,2.393-10.646,6.771l-1.415-1.414c4.676-4.681,9.893-6.724,11.38-7.238
			c1.195-0.452,2.638-0.091,3.482,0.889l3.221,3.129c0.701,0.869,0.701,2.084,0,2.953l-0.08,0.089l-4.163,4.065
			c-0.352,0.409-0.867,0.66-1.424,0.691c-0.633,0.043-1.259-0.206-1.717-0.664l-2.02-2.02
			C18.209,12.708,16.432,13.649,15.063,15.086z"/>
	</g>
	<g>
		<path d="M11.14,12.554c0.233-0.252,0.465-0.506,0.706-0.747l-1.413-1.416c-0.242,0.242-0.473,0.497-0.708,0.748L11.14,12.554z"/>
		<path d="M14.413,15.827c0.206-0.252,0.42-0.501,0.649-0.741l-1.447-1.381c-0.218,0.229-0.424,0.464-0.624,0.701L14.413,15.827z"/>
		<path d="M12.244,19.188c0.214-0.424,0.549-1.039,0.983-1.719l-1.447-1.447c-1.047,1.566-1.626,2.898-1.661,2.979l-0.267,0.623
			l2.979,2.979c0.068,0.068,0.068,0.222,0,0.289l-4.103,4.098c-0.067,0.066-0.217,0.066-0.285,0L5.4,23.95
			c-0.271-0.316-0.544-0.84-0.329-1.487c1.24-3.176,2.833-5.988,4.755-8.394L8.407,12.65c-2.111,2.605-3.86,5.656-5.216,9.133
			c-0.407,1.216-0.156,2.479,0.741,3.524l3.097,3.097c0.444,0.444,1,0.666,1.557,0.666c0.556,0,1.112-0.222,1.556-0.665l4.103-4.098
			c0.889-0.889,0.889-2.229,0-3.118L12.244,19.188z"/>
	</g>
</g>
</svg>
