<?xml version="1.0" encoding="iso-8859-1"?>
<!-- Generator: Adobe Illustrator 19.2.1, SVG Export Plug-In . SVG Version: 6.00 Build 0)  -->
<svg version="1.1" xmlns="http://www.w3.org/2000/svg" xmlns:xlink="http://www.w3.org/1999/xlink" x="0px" y="0px"
	 viewBox="0 0 32 32" style="enable-background:new 0 0 32 32;" xml:space="preserve">
<g id="Layer_1">
	<polyline style="fill:none;stroke:#000000;stroke-width:2;stroke-miterlimit:10;" points="28.375,19.125 16,12 3.625,19.25 	"/>
	<polyline style="fill:none;stroke:#000000;stroke-width:2;stroke-miterlimit:10;" points="22.375,9.25 16,5 9.625,9.125 	"/>
	<line style="fill:none;stroke:#000000;stroke-width:2;stroke-miterlimit:10;" x1="12" y1="8" x2="12" y2="14"/>
	<line style="fill:none;stroke:#000000;stroke-width:2;stroke-miterlimit:10;" x1="20" y1="8" x2="20" y2="14"/>
	<polyline style="fill:none;stroke:#000000;stroke-width:2;stroke-miterlimit:10;" points="26,18 26,27 18,27 18,23 14,23 14,27 
		6,27 6,17.75 	"/>
	<line style="fill:none;stroke:#000000;stroke-width:2;stroke-miterlimit:10;" x1="10" y1="22" x2="10" y2="24"/>
	<line style="fill:none;stroke:#000000;stroke-width:2;stroke-miterlimit:10;" x1="22" y1="22" x2="22" y2="24"/>
	<line style="fill:none;stroke:#000000;stroke-width:2;stroke-miterlimit:10;" x1="14" y1="18" x2="14" y2="20"/>
	<line style="fill:none;stroke:#000000;stroke-width:2;stroke-miterlimit:10;" x1="10" y1="18" x2="10" y2="20"/>
	<line style="fill:none;stroke:#000000;stroke-width:2;stroke-miterlimit:10;" x1="18" y1="18" x2="18" y2="20"/>
	<line style="fill:none;stroke:#000000;stroke-width:2;stroke-miterlimit:10;" x1="22" y1="18" x2="22" y2="20"/>
	<rect x="15" y="8" width="2" height="2"/>
</g>
<g id="Layer_2">
</g>
</svg>
