<?xml version="1.0" encoding="iso-8859-1"?>
<!-- Generator: Adobe Illustrator 19.1.1, SVG Export Plug-In . SVG Version: 6.00 Build 0)  -->
<svg version="1.1" id="Layer_1" xmlns="http://www.w3.org/2000/svg" xmlns:xlink="http://www.w3.org/1999/xlink" x="0px" y="0px"
	 viewBox="0 0 32 32" style="enable-background:new 0 0 32 32;" xml:space="preserve">
<rect x="6" y="6" style="fill:none;stroke:#000000;stroke-width:2;stroke-miterlimit:10;" width="20" height="20"/>
<line style="fill:none;stroke:#000000;stroke-width:2;stroke-miterlimit:10;" x1="13" y1="26" x2="13" y2="6"/>
<line style="fill:none;stroke:#000000;stroke-width:2;stroke-miterlimit:10;" x1="19" y1="26" x2="19" y2="6"/>
<line style="fill:none;stroke:#000000;stroke-width:2;stroke-miterlimit:10;" x1="6" y1="13" x2="26" y2="13"/>
<line style="fill:none;stroke:#000000;stroke-width:2;stroke-miterlimit:10;" x1="6" y1="19" x2="26" y2="19"/>
<circle cx="9.5" cy="9.5" r="1.5"/>
<rect x="8" y="21" width="3" height="3"/>
<path d="M10,17H9c-0.552,0-1-0.448-1-1v0c0-0.552,0.448-1,1-1h1c0.552,0,1,0.448,1,1v0C11,16.552,10.552,17,10,17z"/>
<rect x="15" y="15" width="2" height="2"/>
<path d="M16,24L16,24c0.552,0,1-0.448,1-1v-1c0-0.552-0.448-1-1-1h0c-0.552,0-1,0.448-1,1v1C15,23.552,15.448,24,16,24z"/>
<polygon points="22.5,8 21,11 24,11 "/>
<circle cx="22.5" cy="22.5" r="1.5"/>
<ellipse cx="16" cy="9.5" rx="1" ry="1.5"/>
<ellipse cx="22.5" cy="16" rx="1.5" ry="1"/>
</svg>
