<?xml version="1.0" encoding="iso-8859-1"?>
<!-- Generator: Adobe Illustrator 19.2.0, SVG Export Plug-In . SVG Version: 6.00 Build 0)  -->
<svg version="1.1" id="Layer_1" xmlns="http://www.w3.org/2000/svg" xmlns:xlink="http://www.w3.org/1999/xlink" x="0px" y="0px"
	 viewBox="0 0 32 32" style="enable-background:new 0 0 32 32;" xml:space="preserve">
<path style="fill:none;stroke:#000000;stroke-width:2;stroke-linecap:round;stroke-linejoin:round;stroke-miterlimit:10;" d="
	M27.075,12.487c-0.874-0.203-4.934-0.466-5.95-0.51c-0.871-0.038-1.686-0.48-2.042-1.352C17.506,6.759,16.3,4.697,16.3,4.697
	c-0.423-0.943-1.457-0.915-1.671,0c0,0-0.312,3.982-1.259,6.218c-0.426,1.006-0.9,0.997-1.953,1.091
	c-3.185,0.287-5.686,0.417-6.493,0.48C4.05,12.555,3.645,13.654,4.41,14.15c0,0,1.818,1.189,5.576,3.405
	c0.907,0.534,1.242,1.369,0.836,2.509s-2.501,6.69-2.501,6.69c-0.341,0.872,0.665,1.636,1.351,1.028c0,0,2.906-1.66,5.302-4.108
	c0.955-0.976,1.577-0.72,2.141-0.137c2.441,2.526,5.215,4.245,5.215,4.245c0.687,0.609,1.692-0.156,1.351-1.028
	c0,0-1.225-6.044-1.428-6.893c-0.203-0.848-0.516-1.524,0.388-2.281c0.904-0.756,4.951-3.43,4.951-3.43
	C28.356,13.654,27.948,12.69,27.075,12.487z"/>
<circle cx="15" cy="19" r="1"/>
<circle cx="17" cy="14" r="1"/>
<circle cx="19.5" cy="16.5" r="0.5"/>
</svg>
