<?xml version="1.0" encoding="utf-8"?>
<!-- Generator: Adobe Illustrator 18.0.0, SVG Export Plug-In . SVG Version: 6.00 Build 0)  -->
<svg version="1.1" id="Layer_1" xmlns="http://www.w3.org/2000/svg" xmlns:xlink="http://www.w3.org/1999/xlink" x="0px" y="0px"
	 viewBox="0 0 32 32" enable-background="new 0 0 32 32" xml:space="preserve">
<polyline fill="none" stroke="#000000" stroke-width="2" stroke-miterlimit="10" points="25,22 25,28 7,28 7,22 "/>
<polyline fill="none" stroke="#000000" stroke-width="2" stroke-miterlimit="10" points="7,10 7,4 25,4 25,10 "/>
<polyline fill="none" stroke="#000000" stroke-width="2" stroke-miterlimit="10" points="20,20 20,19 18,13 18,13 16,19 16,20 "/>
<line fill="none" stroke="#000000" stroke-width="2" stroke-miterlimit="10" x1="16.4" y1="18" x2="19.6" y2="18"/>
<polyline fill="none" stroke="#000000" stroke-width="2" stroke-miterlimit="10" points="22,12 22,13 24,19 24,19 26,13 26,12 "/>
<polyline fill="none" stroke="#000000" stroke-width="2" stroke-miterlimit="10" points="7,12 7,13 8.9,19 9.1,19 10.4,14.5 
	10.6,14.5 11.9,19 12.1,19 14,13 14,12 "/>
</svg>
