<?xml version="1.0" encoding="iso-8859-1"?>
<!-- Generator: Adobe Illustrator 19.1.1, SVG Export Plug-In . SVG Version: 6.00 Build 0)  -->
<svg version="1.1" id="Layer_1" xmlns="http://www.w3.org/2000/svg" xmlns:xlink="http://www.w3.org/1999/xlink" x="0px" y="0px"
	 viewBox="0 0 32 32" style="enable-background:new 0 0 32 32;" xml:space="preserve">
<circle cx="13" cy="17" r="1"/>
<circle cx="19" cy="17" r="1"/>
<path style="fill:none;stroke:#000000;stroke-width:2;stroke-miterlimit:10;" d="M20,9c0,0,3.875,2,7,2c-0.813,1.5-3.5,3-5,3"/>
<g>
	<path d="M15.819,6.778c0,0,0.021-0.031,0.061-0.09c0.06-0.094,0.128-0.188,0.208-0.293c0.167-0.214,0.404-0.509,0.737-0.84
		c0.658-0.655,1.716-1.552,3.308-2.09c0.785-0.269,1.697-0.42,2.618-0.372l0.173,0.005l0.21,0.008l0.064,0.011l0.26,0.043
		l0.263,0.043l0.4,0.09c0.587,0.13,1.014,0.323,1.464,0.544c1.785,0.922,3.008,2.538,3.696,4.239
		c0.344,0.857,0.557,1.754,0.627,2.648c0.037,0.463,0.028,0.857-0.007,1.367c-0.068,0.395-0.086,0.73-0.192,1.16
		c-0.169,0.843-0.436,1.55-0.741,2.218c-0.313,0.657-0.663,1.243-1.035,1.742c-0.357,0.509-0.745,0.924-1.087,1.284
		c-0.352,0.352-0.673,0.64-0.949,0.861C25.348,19.8,25,20,25,20s0.303-0.266,0.747-0.798c0.445-0.529,1.026-1.339,1.513-2.39
		c0.248-0.522,0.456-1.111,0.615-1.738c0.15-0.622,0.255-1.319,0.254-1.962c0.024-0.308-0.026-0.737-0.036-1.108
		c-0.046-0.258-0.101-0.642-0.197-0.952c-0.186-0.653-0.479-1.285-0.85-1.849c-0.736-1.132-1.819-1.985-2.809-2.226
		c-0.239-0.059-0.512-0.106-0.636-0.09l-0.126-0.009L23.21,6.885l-0.263,0.008l-0.065,0.002C22.935,6.898,22.75,6.892,23,6.9
		l-0.005,0.001l-0.011,0.002l-0.021,0.005l-0.084,0.019C22.43,7.001,22.06,7.162,21.747,7.36c-0.628,0.386-1.047,0.922-1.292,1.312
		c-0.126,0.194-0.198,0.354-0.242,0.447c-0.022,0.051-0.031,0.078-0.019,0.068c0.011-0.013-0.019,0.047-0.013,0.036L15.819,6.778z"
		/>
</g>
<path style="fill:none;stroke:#000000;stroke-width:2;stroke-miterlimit:10;" d="M12,9c0,0-3.188,2-7,2c0.813,1.5,3.5,3,5,3"/>
<path style="fill:none;stroke:#000000;stroke-width:2;stroke-miterlimit:10;" d="M16,28c-2.125,0-3-1-3-1s-0.688-7.75-4-10
	c0-7.188,5.25-10,7-10s7,2.813,7,10c-3.313,2.25-4,10-4,10S18.125,28,16,28"/>
<g>
	<path d="M11.819,9.222c0.006,0.011-0.024-0.049-0.013-0.036c0.012,0.01,0.003-0.016-0.019-0.068
		c-0.043-0.093-0.116-0.253-0.242-0.447c-0.245-0.39-0.664-0.926-1.292-1.312C9.94,7.162,9.57,7.001,9.121,6.927L9.037,6.909
		L9.016,6.904L9.005,6.901L9,6.9c0.25-0.009,0.065-0.003,0.118-0.004L9.053,6.894L8.79,6.885L8.524,6.877L8.398,6.886
		c-0.124-0.017-0.396,0.031-0.636,0.09C6.772,7.217,5.689,8.07,4.953,9.202c-0.371,0.565-0.665,1.196-0.85,1.849
		c-0.096,0.311-0.151,0.694-0.197,0.952c-0.01,0.371-0.06,0.8-0.036,1.108c-0.001,0.642,0.105,1.34,0.254,1.962
		c0.159,0.627,0.367,1.216,0.615,1.738c0.487,1.052,1.067,1.862,1.513,2.39C6.697,19.734,7,20,7,20s-0.348-0.2-0.898-0.645
		c-0.277-0.221-0.597-0.508-0.949-0.861c-0.342-0.36-0.729-0.775-1.087-1.284c-0.371-0.5-0.722-1.085-1.035-1.742
		C2.726,14.8,2.46,14.093,2.29,13.251c-0.106-0.429-0.124-0.765-0.192-1.16c-0.034-0.51-0.044-0.904-0.007-1.367
		c0.07-0.894,0.283-1.791,0.627-2.648C3.406,6.375,4.63,4.759,6.415,3.837c0.45-0.222,0.877-0.414,1.464-0.544l0.4-0.09l0.263-0.043
		l0.26-0.043l0.064-0.011l0.21-0.008L9.25,3.093c0.921-0.048,1.833,0.103,2.618,0.372c1.592,0.539,2.65,1.435,3.308,2.09
		c0.333,0.331,0.57,0.626,0.737,0.84c0.08,0.105,0.148,0.199,0.208,0.293c0.04,0.06,0.061,0.09,0.061,0.09L11.819,9.222z"/>
</g>
<path style="fill:none;stroke:#000000;stroke-width:2;stroke-miterlimit:10;" d="M15,25c0-0.938,1-1,1-1s1,0.063,1,1"/>
</svg>
