<?xml version="1.0" encoding="utf-8"?>
<!-- Generator: Adobe Illustrator 18.0.0, SVG Export Plug-In . SVG Version: 6.00 Build 0)  -->
<svg version="1.1" id="Layer_1" xmlns="http://www.w3.org/2000/svg" xmlns:xlink="http://www.w3.org/1999/xlink" x="0px" y="0px"
	 viewBox="0 0 32 32" enable-background="new 0 0 32 32" xml:space="preserve">
<path fill="none" stroke="#000000" stroke-width="2" stroke-miterlimit="10" d="M24,17v0.5c0,0.8-0.7,1.5-1.5,1.5h0
	c-0.8,0-1.5-0.7-1.5-1.5v-3c0-0.8,0.7-1.5,1.5-1.5h0c0.8,0,1.5,0.7,1.5,1.5V15"/>
<polyline fill="none" stroke="#000000" stroke-width="2" stroke-miterlimit="10" points="25,22 25,28 7,28 7,22 "/>
<polyline fill="none" stroke="#000000" stroke-width="2" stroke-miterlimit="10" points="7,10 7,4 25,4 25,10 "/>
<polyline fill="none" stroke="#000000" stroke-width="2" stroke-miterlimit="10" points="18,20 18,19 16,13 15.9,13 14,19 14,20 "/>
<line fill="none" stroke="#000000" stroke-width="2" stroke-miterlimit="10" x1="14.4" y1="18" x2="17.6" y2="18"/>
<polyline fill="none" stroke="#000000" stroke-width="2" stroke-miterlimit="10" points="11,20 11,19 9.1,13 8.9,13 7,19 7,20 "/>
<line fill="none" stroke="#000000" stroke-width="2" stroke-miterlimit="10" x1="7.4" y1="18" x2="10.6" y2="18"/>
</svg>
