<?xml version="1.0" encoding="iso-8859-1"?>
<!-- Generator: Adobe Illustrator 19.1.1, SVG Export Plug-In . SVG Version: 6.00 Build 0)  -->
<svg version="1.1" id="Layer_1" xmlns="http://www.w3.org/2000/svg" xmlns:xlink="http://www.w3.org/1999/xlink" x="0px" y="0px"
	 viewBox="0 0 32 32" style="enable-background:new 0 0 32 32;" xml:space="preserve">
<polyline style="fill:none;stroke:#000000;stroke-width:2;stroke-miterlimit:10;" points="21,12 27,12 27,6 "/>
<path d="M25.155,12h2.143C25.648,7.346,21.213,4,16,4C9.383,4,4,9.383,4,16h2c0-5.514,4.486-10,10-10
	C20.091,6,23.608,8.474,25.155,12z"/>
<polyline style="fill:none;stroke:#000000;stroke-width:2;stroke-miterlimit:10;" points="11,20 5,20 5,26 "/>
<path d="M6.845,20H4.702c1.65,4.654,6.085,8,11.298,8c6.617,0,12-5.383,12-12h-2c0,5.514-4.486,10-10,10
	C11.909,26,8.392,23.526,6.845,20z"/>
</svg>
