<?xml version="1.0" encoding="iso-8859-1"?>
<!-- Generator: Adobe Illustrator 19.1.0, SVG Export Plug-In . SVG Version: 6.00 Build 0)  -->
<svg version="1.1" id="Layer_1" xmlns="http://www.w3.org/2000/svg" xmlns:xlink="http://www.w3.org/1999/xlink" x="0px" y="0px"
	 viewBox="0 0 32 32" style="enable-background:new 0 0 32 32;" xml:space="preserve">
<path style="fill:none;stroke:#000000;stroke-width:2;stroke-miterlimit:10;" d="M11.066,15.058
	c-1.111,0.137-2.185,0.627-3.039,1.482L6.54,18.026c-2.053,2.053-2.053,5.381,0,7.434v0c2.053,2.053,5.381,2.053,7.434,0
	l1.487-1.487c0.854-0.854,1.339-1.927,1.476-3.039"/>
<path style="fill:none;stroke:#000000;stroke-width:2;stroke-miterlimit:10;" d="M20.934,16.942
	c1.111-0.137,2.185-0.627,3.039-1.482l1.487-1.487c2.053-2.053,2.053-5.381,0-7.434v0c-2.053-2.053-5.381-2.053-7.434,0L16.54,8.026
	c-0.854,0.854-1.339,1.927-1.476,3.039"/>
<line style="fill:none;stroke:#000000;stroke-width:2;stroke-miterlimit:10;" x1="7" y1="7" x2="11" y2="11"/>
<line style="fill:none;stroke:#000000;stroke-width:2;stroke-miterlimit:10;" x1="25" y1="25" x2="21" y2="21"/>
</svg>
