<?xml version="1.0" encoding="iso-8859-1"?>
<!-- Generator: Adobe Illustrator 19.1.1, SVG Export Plug-In . SVG Version: 6.00 Build 0)  -->
<svg version="1.1" id="Layer_1" xmlns="http://www.w3.org/2000/svg" xmlns:xlink="http://www.w3.org/1999/xlink" x="0px" y="0px"
	 viewBox="0 0 32 32" style="enable-background:new 0 0 32 32;" xml:space="preserve">
<g>
	<path d="M24.527,15.481c0.263-0.042,0.529-0.063,0.8-0.063c0.752,0,1.461,0.176,2.104,0.471l1.429-0.634l-2.122-0.083l1.956-1.405
		l-2.415,0.62l1.706-2.065l-2.121,1.156l0.957-2.191l-1.831,1.736l0.499-2.604l-1.372,2.191l-0.25-2.603l-0.663,1.978
		C23.919,12.996,24.395,14.188,24.527,15.481z"/>
	<path d="M22.778,11.442l-0.452-1.394l-0.112,0.802C22.412,11.037,22.599,11.235,22.778,11.442z"/>
</g>
<g>
	<path d="M28.597,22c0.232-0.485,0.367-1.028,0.367-1.603c0-2.034-1.629-3.683-3.638-3.683c-0.896,0-1.714,0.329-2.348,0.872
		c0.114-0.469,0.176-0.959,0.176-1.466c0-3.38-2.707-6.119-6.046-6.119c-2.775,0-5.111,1.892-5.822,4.472
		c-0.473-0.451-1.108-0.73-1.808-0.73c-1.459,0-2.642,1.198-2.642,2.674c0,0.298,0.049,0.584,0.139,0.85
		c-0.123-0.011-0.248-0.018-0.373-0.018c-2.01,0-3.64,1.648-3.64,3.683c0,0.371,0.055,0.73,0.157,1.069L28.597,22z"/>
</g>
</svg>
