<?xml version="1.0" encoding="iso-8859-1"?>
<!-- Generator: Adobe Illustrator 21.0.2, SVG Export Plug-In . SVG Version: 6.00 Build 0)  -->
<svg version="1.1"  xmlns="http://www.w3.org/2000/svg" xmlns:xlink="http://www.w3.org/1999/xlink" x="0px" y="0px"
	 viewBox="0 0 32 32" style="enable-background:new 0 0 32 32;" xml:space="preserve">
<path style="fill:none;stroke:#000000;stroke-width:2;stroke-miterlimit:10;" d="M24,7c0,0,2,1,2,4s-3,8-3,10c0,3,2,4,2,4"/>
<path style="fill:none;stroke:#000000;stroke-width:2;stroke-miterlimit:10;" d="M14.539,8C10.295,8,4,11.359,4,16s6.295,8,10.539,8
	C16.08,24,17,21.009,17,16S16.08,8,14.539,8z"/>
<path d="M19.407,22H29v-2h-9.232C19.676,20.722,19.556,21.389,19.407,22z"/>
<path d="M20,16c0,0.344-0.008,0.672-0.016,1H29v-2h-9.016C19.992,15.328,20,15.656,20,16z"/>
<path d="M19.407,10c0.148,0.611,0.269,1.278,0.361,2H29v-2H19.407z"/>
</svg>
