<?xml version="1.0" encoding="iso-8859-1"?>
<!-- Generator: Adobe Illustrator 19.1.1, SVG Export Plug-In . SVG Version: 6.00 Build 0)  -->
<svg version="1.1" id="Layer_1" xmlns="http://www.w3.org/2000/svg" xmlns:xlink="http://www.w3.org/1999/xlink" x="0px" y="0px"
	 viewBox="0 0 32 32" style="enable-background:new 0 0 32 32;" xml:space="preserve">
<line style="fill:none;stroke:#000000;stroke-width:2;stroke-miterlimit:10;" x1="21" y1="28" x2="21" y2="24.125"/>
<line style="fill:none;stroke:#000000;stroke-width:2;stroke-miterlimit:10;" x1="11" y1="28" x2="11" y2="22"/>
<path style="fill:none;stroke:#000000;stroke-width:2;stroke-miterlimit:10;" d="M24.322,17.249
	c0.587-0.269,1.157-0.585,1.678-1.003l-3.355-4.498c0.685-0.199,1.345-0.508,1.939-0.954L21,5.708l-3.585,5.072
	c0.597,0.448,1.26,0.758,1.948,0.957L16,16.246c0.521,0.418,1.091,0.734,1.678,1.003c-1.528,2.414-3.219,4.543-3.219,4.543
	C16.35,23.126,18.25,24,21,24c2.625,0,4.692-0.874,6.583-2.208L24.322,17.249z"/>
<path style="fill:none;stroke:#000000;stroke-width:2;stroke-miterlimit:10;" d="M17.236,10C16.686,9.386,15.888,9,15,9
	c0-1.657-1.343-3-3-3c-1.311,0-2.414,0.846-2.822,2.018l0,0C9.118,8.014,9.061,8,9,8c-1.657,0-3,1.343-3,3
	c0,0.473,0.119,0.914,0.314,1.312C5.535,12.735,5,13.551,5,14.5c0,1.077,0.684,1.986,1.639,2.338l-0.398,0.985
	c-0.003,0.007-0.006,0.015-0.009,0.022l0,0c-0.001,0.003-0.002,0.007-0.003,0.011c-0.072,0.174-0.13,0.357-0.168,0.546
	C6.021,18.595,6,18.795,6,19c0,1.657,1.343,3,3,3c0.198,0,0.39-0.021,0.576-0.058c0.134-0.026,0.26-0.071,0.387-0.114
	c0.045-0.016,0.093-0.025,0.137-0.043c0.164-0.065,0.319-0.146,0.467-0.238c0.002-0.001,0.004-0.002,0.006-0.003
	c0.153-0.095,0.294-0.203,0.427-0.323C11.532,21.7,12.228,22,13,22c0.919,0,1.731-0.422,2.281-1.072"/>
</svg>
