<?xml version="1.0" encoding="iso-8859-1"?>
<!-- Generator: Adobe Illustrator 19.1.1, SVG Export Plug-In . SVG Version: 6.00 Build 0)  -->
<svg version="1.1" id="Layer_1" xmlns="http://www.w3.org/2000/svg" xmlns:xlink="http://www.w3.org/1999/xlink" x="0px" y="0px"
	 viewBox="0 0 32 32" style="enable-background:new 0 0 32 32;" xml:space="preserve">
<path d="M20.524,7.496c0,0,2.655-2.496,5.814-2.496c1.533,3.572-0.078,6.469-0.078,6.469L20.524,7.496z"/>
<path d="M5.754,10.999c0,0-0.754-0.722-0.754-2.764S5.696,5,5.696,5c1.122,0,3.848,0.528,5.975,2.853
	C13.877,10.264,5.754,10.999,5.754,10.999z"/>
<path d="M16,7C9.265,7,3,10.086,3,17.329S7.59,27,16,27s13-2.428,13-9.671C29,9.629,22.735,7,16,7z M16,26
	c-5.345,0-9.677-0.951-9.677-5.948c0-1.906,1.041-2.982,1.786-3.654c1.639-1.478,4.217-0.741,7.891-0.741
	c2.672,0,5.155-0.534,6.986,0.049c1.831,0.583,3.01,2.283,3.01,4.172C25.995,25.112,23.192,26,16,26z"/>
<path d="M21.5,18c-0.828,0-1.5,0.895-1.5,2s0.672,2,1.5,2s1.5-0.895,1.5-2S22.328,18,21.5,18z M21.336,19.71
	c-0.236,0-0.427-0.194-0.427-0.434s0.191-0.434,0.427-0.434s0.427,0.194,0.427,0.434S21.572,19.71,21.336,19.71z"/>
<path d="M10.5,18C9.672,18,9,18.895,9,20s0.672,2,1.5,2s1.5-0.895,1.5-2S11.328,18,10.5,18z M10.336,19.71
	c-0.236,0-0.427-0.194-0.427-0.434s0.191-0.434,0.427-0.434s0.427,0.194,0.427,0.434S10.572,19.71,10.336,19.71z"/>
</svg>
