<?xml version="1.0" encoding="iso-8859-1"?>
<!-- Generator: Adobe Illustrator 19.1.1, SVG Export Plug-In . SVG Version: 6.00 Build 0)  -->
<svg version="1.1" id="Layer_1" xmlns="http://www.w3.org/2000/svg" xmlns:xlink="http://www.w3.org/1999/xlink" x="0px" y="0px"
	 viewBox="-7 9 32 32" style="enable-background:new -7 9 32 32;" xml:space="preserve">
<g>
	<path d="M18.978,21.328C18.63,16.126,14.288,12,9,12s-9.63,4.126-9.978,9.327C-2.186,21.892-3,23.121-3,24.5
		c0,1.428,0.863,2.683,2.135,3.22C-0.091,32.805,3.903,38,9,38c5.098,0,9.091-5.195,9.865-10.28C20.137,27.183,21,25.928,21,24.5
		C21,23.121,20.186,21.892,18.978,21.328z M18.912,24h-2.565c-0.086-0.144-0.202-0.261-0.347-0.347v-2.307
		c0.144-0.086,0.261-0.203,0.347-0.347h0.584c0.041,0.326,0.068,0.655,0.068,0.991l-0.051,0.867l0.851,0.172
		C18.324,23.136,18.739,23.515,18.912,24z M16.518,29c-0.143,0.469-0.316,0.933-0.518,1.387v-1.04
		c0.144-0.086,0.261-0.203,0.347-0.347H16.518z M12.347,32c-0.086-0.144-0.203-0.261-0.347-0.347v-2.307
		c0.144-0.086,0.261-0.203,0.347-0.347h2.307c0.086,0.144,0.203,0.261,0.347,0.347V32H12.347z M7.347,32
		C7.261,31.856,7.144,31.739,7,31.653v-2.307C7.144,29.261,7.261,29.144,7.347,29h3.307c0.086,0.144,0.203,0.261,0.347,0.347v2.307
		c-0.144,0.086-0.261,0.203-0.347,0.347H7.347z M3,32v-2.653C3.144,29.261,3.261,29.144,3.347,29h2.307
		C5.739,29.144,5.856,29.261,6,29.347v2.307C5.856,31.739,5.739,31.856,5.653,32H3z M1.653,29C1.739,29.144,1.856,29.261,2,29.347
		v1.04C1.799,29.932,1.626,29.469,1.483,29H1.653z M1.263,20c0.17-0.657,0.415-1.284,0.737-1.864v1.518
		C1.856,19.739,1.739,19.856,1.653,20H1.263z M10.653,17c0.086,0.144,0.203,0.261,0.347,0.347v2.307
		c-0.144,0.086-0.261,0.203-0.347,0.347H7.347C7.261,19.856,7.144,19.739,7,19.653v-2.307C7.144,17.261,7.261,17.144,7.347,17
		H10.653z M16.347,20c-0.086-0.144-0.203-0.261-0.347-0.347v-1.52c0.322,0.581,0.568,1.209,0.737,1.867H16.347z M15,27.653
		c-0.144,0.086-0.261,0.203-0.347,0.347h-2.307c-0.086-0.144-0.203-0.261-0.347-0.347v-0.704c-0.372-0.075-0.708-0.241-1-0.462
		v1.166c-0.144,0.086-0.261,0.203-0.347,0.347H7.347C7.261,27.856,7.144,27.739,7,27.653v-1.166c-0.292,0.221-0.628,0.387-1,0.462
		v0.704C5.856,27.739,5.739,27.856,5.653,28H3.347C3.261,27.856,3.144,27.739,3,27.653v-6.307C3.144,21.261,3.261,21.144,3.347,21
		h2.307C5.739,21.144,5.856,21.261,6,21.347v0.704c0.372,0.075,0.708,0.241,1,0.462v-1.166C7.144,21.261,7.261,21.144,7.347,21
		h3.307c0.086,0.144,0.203,0.261,0.347,0.347v1.166c0.292-0.221,0.628-0.387,1-0.462v-0.704c0.144-0.086,0.261-0.203,0.347-0.347
		h2.307c0.086,0.144,0.203,0.261,0.347,0.347V27.653z M3,19.653V17h2.653C5.739,17.144,5.856,17.261,6,17.347v2.307
		C5.856,19.739,5.739,19.856,5.653,20H3.347C3.261,19.856,3.144,19.739,3,19.653z M15,17v2.653
		c-0.144,0.086-0.261,0.203-0.347,0.347h-2.307c-0.086-0.144-0.203-0.261-0.347-0.347v-2.307c0.144-0.086,0.261-0.203,0.347-0.347
		H15z M12.347,16c-0.086-0.144-0.203-0.261-0.347-0.347v-1.064c0.839,0.341,1.605,0.822,2.275,1.411H12.347z M6,15.653
		C5.856,15.739,5.739,15.856,5.653,16H3.726c0.67-0.589,1.435-1.07,2.274-1.411V15.653z M11,14.263v1.39
		c-0.144,0.086-0.261,0.203-0.347,0.347H7.347C7.261,15.856,7.144,15.739,7,15.653v-1.39C7.641,14.097,8.308,14,9,14
		S10.359,14.097,11,14.263z M0.201,23.03L1,22.818V22c0-0.339,0.028-0.672,0.069-1h0.584C1.739,21.144,1.856,21.261,2,21.347v2.307
		C1.856,23.739,1.739,23.856,1.653,24h-2.565C-0.739,23.515-0.324,23.136,0.201,23.03z M0.227,25.97
		c-0.538-0.098-0.963-0.478-1.138-0.97h2.565C1.739,25.144,1.856,25.261,2,25.347v2.307C1.856,27.739,1.739,27.856,1.653,28H1.225
		c-0.08-0.382-0.147-0.764-0.183-1.142L0.97,26.106L0.227,25.97z M3.575,33h2.079C5.739,33.144,5.856,33.261,6,33.347v1.797
		C5.096,34.617,4.277,33.876,3.575,33z M7,35.615v-2.268C7.144,33.261,7.261,33.144,7.347,33h3.307
		c0.086,0.144,0.203,0.261,0.347,0.347v2.268C10.361,35.857,9.693,36,9,36S7.639,35.857,7,35.615z M12,35.144v-1.797
		c0.144-0.086,0.261-0.203,0.347-0.347h2.079C13.723,33.876,12.904,34.617,12,35.144z M17.773,25.97l-0.743,0.136l-0.072,0.752
		c-0.036,0.378-0.103,0.76-0.183,1.142h-0.428c-0.086-0.144-0.203-0.261-0.347-0.347v-2.307c0.144-0.086,0.261-0.202,0.347-0.347
		h2.565C18.736,25.492,18.312,25.872,17.773,25.97z"/>
	<circle cx="5.5" cy="24.5" r="1.5"/>
	<circle cx="12.5" cy="24.5" r="1.5"/>
</g>
</svg>
