<?xml version="1.0" encoding="iso-8859-1"?>
<!-- Generator: Adobe Illustrator 19.2.1, SVG Export Plug-In . SVG Version: 6.00 Build 0)  -->
<svg version="1.1" id="Layer_1" xmlns="http://www.w3.org/2000/svg" xmlns:xlink="http://www.w3.org/1999/xlink" x="0px" y="0px"
	 viewBox="0 0 32 32" style="enable-background:new 0 0 32 32;" xml:space="preserve">
<path style="fill:none;stroke:#000000;stroke-width:2;stroke-miterlimit:10;" d="M22.61,8.967l0.943,2.497
	c0.345,0.919,1.371,1.386,2.291,1.041l0,0c0.921-0.344,1.387-1.369,1.043-2.288l-1.523-4.062c-0.345-0.919-1.371-1.386-2.291-1.041
	l0,0c-0.678,0.254-1.11,0.877-1.153,1.555l-1.653,0.541c-0.621,0.18-1.37-0.373-2.052-0.345c-0.9,0.036-1.529,0.684-1.529,1.527
	c0,0.41-0.018,1.517-0.411,2.023c0,0-5.131,7.206-5.85,8.02s-3.584,0.052-5.027,1.954c-0.474,0.625-0.631,1.945,0.138,2.737
	c0.743,0.765,1.945,0.546,2.54,1.149c0.552,0.558,0.471,1.459,1.088,2.11c0.559,0.59,1.924,1.016,2.886,0.018
	c1.479-1.534,0.831-4.323,1.694-5.501c0.928-1.265,6.913-9.604,6.913-9.604l2.601-0.56"/>
</svg>
