<?xml version="1.0" encoding="utf-8"?>
<!-- Generator: Adobe Illustrator 18.0.0, SVG Export Plug-In . SVG Version: 6.00 Build 0)  -->
<svg version="1.1" id="Layer_1" xmlns="http://www.w3.org/2000/svg" xmlns:xlink="http://www.w3.org/1999/xlink" x="0px" y="0px"
	 viewBox="0 0 32 32" enable-background="new 0 0 32 32" xml:space="preserve">
<circle fill="none" stroke="#000000" stroke-width="2" stroke-miterlimit="10" cx="6.5" cy="7" r="2"/>
<g>
	<path d="M16,13v2h-3c-2.8,0-5,2.2-5,5v6H6v-5v-8h2v2.1c1.3-1.3,3-2.1,5-2.1H16 M18,11h-2h-3c-1,0-2,0.2-3,0.5V11H8H6H4v2v8v5v2h2h2
		h2v-2v-6c0-1.7,1.3-3,3-3h3h2v-2v-2V11L18,11z"/>
</g>
<rect x="17" y="12" fill="none" stroke="#000000" stroke-width="2" stroke-miterlimit="10" width="4" height="4"/>
<rect x="21" y="12" fill="none" stroke="#000000" stroke-width="2" stroke-miterlimit="10" width="3" height="4"/>
<rect x="24" y="12" fill="none" stroke="#000000" stroke-width="2" stroke-miterlimit="10" width="3" height="4"/>
</svg>
