<?xml version="1.0" encoding="iso-8859-1"?>
<!-- Generator: Adobe Illustrator 19.1.0, SVG Export Plug-In . SVG Version: 6.00 Build 0)  -->
<svg version="1.1" id="Layer_1" xmlns="http://www.w3.org/2000/svg" xmlns:xlink="http://www.w3.org/1999/xlink" x="0px" y="0px"
	 viewBox="0 0 32 32" style="enable-background:new 0 0 32 32;" xml:space="preserve">
<polyline style="fill:none;stroke:#000000;stroke-width:2;stroke-miterlimit:10;" points="12.32,24.96 29,26 29,19 14,19 "/>
<polyline style="fill:none;stroke:#000000;stroke-width:2;stroke-miterlimit:10;" points="3,19 3,10 7.15,9.256 8.04,6.686 9.16,6 
	21.6,6 "/>
<polyline style="fill:none;stroke:#000000;stroke-width:2;stroke-miterlimit:10;" points="10.451,18 8.16,18 5.616,17.507 "/>
<path style="fill:none;stroke:#000000;stroke-width:2;stroke-miterlimit:10;" d="M27,19v-3.012c0-0.813-0.493-1.546-1.246-1.852
	L22.964,13L22.11,9.746C21.994,9.306,21.597,9,21.143,9h-6.232l-2.062,0.316C12.36,9.391,12,9.811,12,10.305V16.8"/>
<ellipse style="fill:none;stroke:#000000;stroke-width:2;stroke-miterlimit:10;" cx="12" cy="21" rx="2" ry="4"/>
<line style="fill:none;stroke:#000000;stroke-width:2;stroke-miterlimit:10;" x1="5.36" y1="20.8" x2="10.4" y2="21.92"/>
<circle cx="18.5" cy="17.5" r="1.5"/>
<circle cx="26.5" cy="17.5" r="1.5"/>
<polyline style="fill:none;stroke:#000000;stroke-width:2;stroke-miterlimit:10;" points="23.104,13 15.816,13 14.911,9 "/>
<ellipse style="fill:none;stroke:#000000;stroke-width:2;stroke-miterlimit:10;" cx="4.5" cy="19" rx="1.5" ry="3"/>
</svg>
