<?xml version="1.0" encoding="iso-8859-1"?>
<!-- Generator: Adobe Illustrator 19.1.0, SVG Export Plug-In . SVG Version: 6.00 Build 0)  -->
<svg version="1.1" id="Layer_1" xmlns="http://www.w3.org/2000/svg" xmlns:xlink="http://www.w3.org/1999/xlink" x="0px" y="0px"
	 viewBox="0 0 32 32" style="enable-background:new 0 0 32 32;" xml:space="preserve">
<path style="fill:none;stroke:#000000;stroke-width:2;stroke-miterlimit:10;" d="M4,15c0.958,3.328,6.056,9.516,10,12
	c2.153-5.469,4.262-13.91,4.366-14.744C14.057,11.554,7.785,12.327,4,15z"/>
<path style="fill:none;stroke:#000000;stroke-width:2;stroke-miterlimit:10;" d="M16.758,18.612L19,21c5.559-4.538,8-11,8-11
	s-4.624-5-14-5c0,2.341,0.312,5.355,0.919,7.011"/>
<circle cx="22" cy="13" r="1"/>
<circle cx="11" cy="16" r="1"/>
<circle cx="17" cy="9" r="1"/>
<circle cx="13" cy="20" r="1"/>
<circle cx="21.5" cy="9.5" r="0.5"/>
<circle cx="20.5" cy="15.5" r="0.5"/>
<circle cx="14.5" cy="16.5" r="0.5"/>
<circle cx="10.5" cy="18.5" r="0.5"/>
<circle cx="8.5" cy="16.5" r="0.5"/>
</svg>
