<?xml version="1.0" encoding="iso-8859-1"?>
<!-- Generator: Adobe Illustrator 22.0.1, SVG Export Plug-In . SVG Version: 6.00 Build 0)  -->
<svg version="1.1" id="Icons" xmlns="http://www.w3.org/2000/svg" xmlns:xlink="http://www.w3.org/1999/xlink" x="0px" y="0px"
	 viewBox="0 0 32 32" style="enable-background:new 0 0 32 32;" xml:space="preserve">
<g>
	<line style="fill:none;stroke:#000000;stroke-width:2;stroke-miterlimit:10;" x1="3" y1="3" x2="29" y2="29"/>
	<g>
		<path d="M14.07,19.599c0.117-0.227,0.279-0.515,0.462-0.825l-1.456-1.456c-0.71,1.126-1.107,2.03-1.133,2.091l-0.268,0.623
			l2.539,2.527l-3.361,3.38l-2.506-2.501c-0.192-0.224-0.387-0.595-0.238-1.044c0.945-2.422,2.158-4.57,3.591-6.45l-1.437-1.437
			c-1.621,2.08-2.973,4.485-4.035,7.207c-0.356,1.067-0.137,2.171,0.653,3.084l2.557,2.556c0.401,0.401,0.904,0.602,1.407,0.602
			s1.006-0.201,1.408-0.602l3.375-3.38c0.803-0.802,0.803-2.012,0-2.814L14.07,19.599z"/>
		<path d="M27.336,9.456l-2.56-2.56c-0.842-0.834-2.116-1.082-3.094-0.646c-1.235,0.43-5.567,2.134-9.443,6.007
			c-0.232,0.232-0.455,0.475-0.679,0.718l1.434,1.434c0.222-0.243,0.427-0.507,0.659-0.738c3.575-3.572,7.553-5.138,8.763-5.563
			c0.101-0.044,0.204-0.064,0.306-0.064c0.254,0,0.495,0.121,0.644,0.269l2.557,2.543l-3.381,3.38l0.039-0.019l-0.035,0.044
			c-0.021,0.004-0.086,0.001-0.163-0.035l-2.43-2.428l-0.604,0.23c-0.106,0.04-2.621,1.011-4.489,2.965
			c-0.211,0.221-0.409,0.45-0.599,0.68l1.425,1.425c0.196-0.245,0.397-0.491,0.62-0.724c1.059-1.107,2.417-1.855,3.176-2.22
			l1.576,1.576l0.15,0.124c0.945,0.632,2.126,0.528,2.78-0.236l3.35-3.349C28.137,11.467,28.137,10.258,27.336,9.456z"/>
	</g>
</g>
</svg>
