<?xml version="1.0" encoding="iso-8859-1"?>
<!-- Generator: Adobe Illustrator 19.1.0, SVG Export Plug-In . SVG Version: 6.00 Build 0)  -->
<svg version="1.1" id="Layer_1" xmlns="http://www.w3.org/2000/svg" xmlns:xlink="http://www.w3.org/1999/xlink" x="0px" y="0px"
	 viewBox="0 0 32 32" style="enable-background:new 0 0 32 32;" xml:space="preserve">
<line style="fill:none;stroke:#000000;stroke-width:2;stroke-miterlimit:10;" x1="23" y1="14" x2="13" y2="14"/>
<line style="fill:none;stroke:#000000;stroke-width:2;stroke-miterlimit:10;" x1="11" y1="14" x2="9" y2="14"/>
<line style="fill:none;stroke:#000000;stroke-width:2;stroke-miterlimit:10;" x1="11" y1="18" x2="9" y2="18"/>
<line style="fill:none;stroke:#000000;stroke-width:2;stroke-miterlimit:10;" x1="11" y1="22" x2="9" y2="22"/>
<line style="fill:none;stroke:#000000;stroke-width:2;stroke-miterlimit:10;" x1="5" y1="10" x2="27" y2="10"/>
<line id="XMLID_280_" style="fill:none;stroke:#000000;stroke-width:2;stroke-miterlimit:10;" x1="19" y1="31" x2="23.25" y2="26.75"/>
<path d="M20.113,26.351c-0.193-0.43-0.343-0.882-0.448-1.351H6V7h20v9.525c0.166-0.012,0.331-0.025,0.5-0.025
	c0.515,0,1.016,0.06,1.5,0.166V5H4v22h15.465L20.113,26.351z"/>
<g>
	<path d="M22.774,17H13v2h7.514C21.124,18.19,21.891,17.508,22.774,17z"/>
	<path d="M19.438,21H13v2h6.025C19.072,22.303,19.213,21.633,19.438,21z"/>
</g>
<circle id="XMLID_279_" style="fill:none;stroke:#000000;stroke-width:2;stroke-miterlimit:10;" cx="26.5" cy="23.5" r="4.5"/>
</svg>
