<?xml version="1.0" encoding="utf-8"?>
<!-- Generator: Adobe Illustrator 18.1.1, SVG Export Plug-In . SVG Version: 6.00 Build 0)  -->
<svg version="1.1" id="Layer_1" xmlns="http://www.w3.org/2000/svg" xmlns:xlink="http://www.w3.org/1999/xlink" x="0px" y="0px"
	 viewBox="0 0 32 32" enable-background="new 0 0 32 32" xml:space="preserve">
<polyline fill="none" stroke="#000000" stroke-width="2" stroke-miterlimit="10" points="25,9 28,9 28,23 4,23 4,9 7,9 "/>
<polyline fill="none" stroke="#000000" stroke-width="2" stroke-miterlimit="10" points="25,6 25,18 7,18 7,6 "/>
<line fill="none" stroke="#000000" stroke-width="2" stroke-linejoin="round" stroke-miterlimit="10" x1="10" y1="26" x2="22" y2="26"/>
<rect x="21" y="6" width="2" height="2"/>
<rect x="21" y="10" width="2" height="2"/>
<rect x="21" y="14" width="2" height="2"/>
<rect x="9" y="6" width="2" height="2"/>
<rect x="9" y="10" width="2" height="2"/>
<rect x="9" y="14" width="2" height="2"/>
<line fill="none" stroke="#000000" stroke-width="2" stroke-miterlimit="10" x1="16" y1="6" x2="16" y2="13"/>
<polyline fill="none" stroke="#000000" stroke-width="2" stroke-miterlimit="10" points="18.8,10.8 16,13.7 13.2,10.8 "/>
</svg>
