<?xml version="1.0" encoding="iso-8859-1"?>
<!-- Generator: Adobe Illustrator 21.0.0, SVG Export Plug-In . SVG Version: 6.00 Build 0)  -->
<svg version="1.1"  xmlns="http://www.w3.org/2000/svg" xmlns:xlink="http://www.w3.org/1999/xlink" x="0px" y="0px"
	 viewBox="0 0 32 32" style="enable-background:new 0 0 32 32;" xml:space="preserve">
<path style="fill:none;stroke:#000000;stroke-width:2;stroke-miterlimit:10;" d="M5,5v2.05C3.859,7.282,3,8.291,3,9.5
	c0,1.226,0.884,2.241,2.048,2.454C5.533,17.582,10.247,24,16,24s10.467-6.418,10.952-12.046C28.116,11.741,29,10.726,29,9.5
	c0-1.209-0.859-2.218-2-2.45V5"/>
<circle cx="11.5" cy="7.5" r="1.5"/>
<circle cx="20.5" cy="7.5" r="1.5"/>
<path d="M20.483,14.755c-0.893-0.493-2.979-0.79-4.482-0.792c-1.52-0.039-3.63,0.297-4.502,0.801l1.001,1.733
	c0.326-0.188,1.894-0.533,3.484-0.533c0.004,0,0.009,0,0.014,0c1.528,0.002,3.129,0.328,3.518,0.542L20.483,14.755z"/>
</svg>
