<?xml version="1.0" encoding="iso-8859-1"?>
<!-- Generator: Adobe Illustrator 19.1.1, SVG Export Plug-In . SVG Version: 6.00 Build 0)  -->
<svg version="1.1" id="Layer_1" xmlns="http://www.w3.org/2000/svg" xmlns:xlink="http://www.w3.org/1999/xlink" x="0px" y="0px"
	 viewBox="0 0 32 32" style="enable-background:new 0 0 32 32;" xml:space="preserve">
<line style="fill:none;stroke:#000000;stroke-width:2;stroke-miterlimit:10;" x1="24" y1="12" x2="24" y2="15"/>
<path style="fill:none;stroke:#000000;stroke-width:2;stroke-miterlimit:10;" d="M16,27c3.866,0,7-3.134,7-7c1.105,0,2-0.895,2-2
	c0-0.253,0-4,0-4"/>
<line style="fill:none;stroke:#000000;stroke-width:2;stroke-miterlimit:10;" x1="8" y1="12" x2="8" y2="15"/>
<path style="fill:none;stroke:#000000;stroke-width:2;stroke-miterlimit:10;" d="M16,27c-3.866,0-7-3.134-7-7c-1.105,0-2-0.895-2-2
	c0-0.253,0-4,0-4"/>
<circle cx="13" cy="18" r="1"/>
<circle cx="19" cy="18" r="1"/>
<g>
	<path d="M9,17c0-5.25-0.1-7.5,1-7.5c0.8,0,1.8,0.7,6,0.7s5.1-0.7,6-0.7c1.2,0,1,3.8,1,7.5c0.5-0.3,2-1.7,2-4.5c0-6.4-3-8.6-9-8.6
		S7,7,7,12.5C7.1,15.6,8.2,16.2,9,17z"/>
	<path d="M9,17c0-5.25-0.1-7.5,1-7.5c0.8,0,1.8,0.7,6,0.7s5.1-0.7,6-0.7c1.2,0,1,3.8,1,7.5c0.5-0.3,2-1.7,2-4.5c0-6.4-3-8.6-9-8.6
		S7,7,7,12.5C7.1,15.6,8.2,16.2,9,17z"/>
</g>
<path d="M17,14.3l1,1.7c3.8-0.5,4-4,4-4S20.8,14.9,17,14.3z"/>
<path d="M15,14.3L14,16c-3.8-0.5-4-4-4-4S11.2,14.9,15,14.3z"/>
</svg>
