<?xml version="1.0" encoding="iso-8859-1"?>
<!-- Generator: Adobe Illustrator 19.1.1, SVG Export Plug-In . SVG Version: 6.00 Build 0)  -->
<svg version="1.1" id="Layer_1" xmlns="http://www.w3.org/2000/svg" xmlns:xlink="http://www.w3.org/1999/xlink" x="0px" y="0px"
	 viewBox="0 0 32 32" style="enable-background:new 0 0 32 32;" xml:space="preserve">
<circle style="fill:none;stroke:#000000;stroke-width:2;stroke-linecap:round;stroke-linejoin:round;stroke-miterlimit:10;" cx="16" cy="16" r="12"/>
<g>
	<path d="M13.425,12.175c0-0.519-0.317-1.175-1.651-1.175H9.722l-0.584,2.702h2.14C12.95,13.702,13.425,12.91,13.425,12.175z"/>
	<path d="M18.955,12.175c0-0.519-0.317-1.175-1.649-1.175h-2.053l-0.583,2.702h2.138C18.48,13.702,18.955,12.91,18.955,12.175z"/>
	<path d="M12.685,16.241c0-0.518-0.317-1.176-1.651-1.176H8.982l-0.584,2.703h2.139C12.209,17.768,12.685,16.974,12.685,16.241z"/>
	<path d="M18.214,16.241c0-0.518-0.318-1.176-1.649-1.176h-2.053l-0.584,2.703h2.14C17.74,17.768,18.214,16.974,18.214,16.241z"/>
	<path d="M24,14.591c0-0.519-0.318-1.176-1.649-1.176h-2.052l-0.584,2.703h2.139C23.524,16.118,24,15.328,24,14.591z"/>
	<path d="M23.202,18.826c0-0.519-0.317-1.175-1.649-1.175H19.5l-0.584,2.702h2.139C22.727,20.353,23.202,19.559,23.202,18.826z"/>
	<path d="M17.42,20.475c0-0.521-0.317-1.178-1.648-1.178h-2.054L13.134,22h2.139C16.945,22,17.42,21.209,17.42,20.475z"/>
</g>
</svg>
