<?xml version="1.0" encoding="iso-8859-1"?>
<!-- Generator: Adobe Illustrator 21.0.0, SVG Export Plug-In . SVG Version: 6.00 Build 0)  -->
<svg version="1.1" id="Layer_1" xmlns="http://www.w3.org/2000/svg" xmlns:xlink="http://www.w3.org/1999/xlink" x="0px" y="0px"
	 viewBox="0 0 32 32" style="enable-background:new 0 0 32 32;" xml:space="preserve">
<g id="Layer_1_1_">
</g>
<line style="fill:none;stroke:#000000;stroke-width:2;stroke-linecap:round;stroke-linejoin:bevel;stroke-miterlimit:10;" x1="4" y1="21" x2="13" y2="13"/>
<path d="M19,10c-5.519,0-10,4.033-10,9s4.481,9,10,9s10-4.033,10-9S24.519,10,19,10z M19,24c-3.983-0.002-6.981-2.467-7-6
	c-0.02-3.705,3.013-6.002,7-6c3.512,0.002,6.966,2.174,7,6C26.03,21.463,23.125,24.002,19,24z"/>
<ellipse cx="18.833" cy="17.5" rx="4" ry="3.5"/>
<line style="fill:none;stroke:#000000;stroke-width:2;stroke-linecap:round;stroke-linejoin:bevel;stroke-miterlimit:10;" x1="25" y1="13" x2="17" y2="4"/>
<line style="fill:none;stroke:#000000;stroke-width:2;stroke-linecap:round;stroke-linejoin:bevel;stroke-miterlimit:10;" x1="19" y1="11" x2="7" y2="11"/>
</svg>
