<?xml version="1.0" encoding="iso-8859-1"?>
<!-- Generator: Adobe Illustrator 19.1.1, SVG Export Plug-In . SVG Version: 6.00 Build 0)  -->
<svg version="1.1" id="Layer_1" xmlns="http://www.w3.org/2000/svg" xmlns:xlink="http://www.w3.org/1999/xlink" x="0px" y="0px"
	 viewBox="0 0 32 32" style="enable-background:new 0 0 32 32;" xml:space="preserve">
<path d="M17,12.9c-1.9,0-3.6,1.1-4.5,2.7C11.7,14,10,12.9,8,12.9c-1.1,0-2.2,0.4-3,1V9.4l0,0c0-0.5-0.5-1-1-1c-0.6,0-1,0.4-1,1l0,0
	V18l0,0c0,2.7,2.3,5,5,5c1.9,0,3.6-1.1,4.5-2.7C13.4,21.9,15,23,17,23c2.8,0,5-2.3,5-5C22,15.2,19.8,12.9,17,12.9 M8,21
	c-1.7,0-3-1.4-3-3c0-1.7,1.4-3,3-3s3,1.4,3,3C11.1,19.6,9.7,21,8,21z M17,21c-1.7,0-3-1.4-3-3c0-1.7,1.4-3,3-3c1.7,0,3,1.4,3,3
	S18.6,21,17,21z"/>
<path d="M28.8,21.4l-2.6-3.5l2.6-3.5l0,0c0.3-0.4,0.2-1.1-0.2-1.4c-0.4-0.3-1.1-0.2-1.4,0.2l0,0l-2.2,3l-2.2-3l0,0
	c-0.3-0.4-1-0.5-1.4-0.2s-0.5,1-0.2,1.4l0,0l2.6,3.5l-2.6,3.5l0,0c-0.3,0.4-0.2,1.1,0.2,1.4c0.4,0.3,1.1,0.2,1.4-0.2l0,0l2.2-3
	l2.2,3l0,0c0.3,0.4,1,0.5,1.4,0.2C29,22.5,29.1,21.8,28.8,21.4L28.8,21.4"/>
</svg>
