<?xml version="1.0" encoding="iso-8859-1"?>
<!-- Generator: Adobe Illustrator 19.1.1, SVG Export Plug-In . SVG Version: 6.00 Build 0)  -->
<svg version="1.1" id="Layer_1" xmlns="http://www.w3.org/2000/svg" xmlns:xlink="http://www.w3.org/1999/xlink" x="0px" y="0px"
	 viewBox="0 0 32 32" style="enable-background:new 0 0 32 32;" xml:space="preserve">
<path style="fill:none;stroke:#000000;stroke-width:2;stroke-miterlimit:10;" d="M27.238,16.014L17.804,6.58
	c-1.016-1.016-2.677-1.016-3.693,0l-9.349,9.349c-1.016,1.016-1.016,2.677,0,3.693l5.532,5.531C11.309,26.169,12.066,27,13.502,27
	h5.081c1.436,0,2.193-0.831,3.209-1.847l5.447-5.446C28.254,18.691,28.254,17.03,27.238,16.014z"/>
<path d="M13.629,21.286h-0.421c-0.138,0-0.331-0.08-0.428-0.177l-0.835-0.835c-0.098-0.098-0.098-0.257,0-0.355l3.838-3.838
	c0.098-0.098,0.257-0.098,0.355,0l1.296,1.296c0.098,0.098,0.098,0.257,0,0.355l-3.377,3.377
	C13.96,21.206,13.767,21.286,13.629,21.286z M17.446,22.804l-0.847,0.847c-0.098,0.098-0.29,0.177-0.428,0.177H15.75
	c-0.138,0-0.331-0.08-0.428-0.177l-0.835-0.835c-0.098-0.098-0.098-0.257,0-0.355l1.308-1.308c0.098-0.098,0.257-0.098,0.355,0
	l1.297,1.297C17.544,22.546,17.544,22.706,17.446,22.804z M17.461,12.656l-5.928,5.928c-0.098,0.098-0.29,0.177-0.428,0.177h-0.421
	c-0.138,0-0.331-0.08-0.428-0.177L9.42,17.749c-0.098-0.098-0.098-0.257,0-0.355l6.39-6.39c0.098-0.098,0.257-0.098,0.355,0
	l1.296,1.297C17.559,12.399,17.559,12.558,17.461,12.656z"/>
</svg>
