<?xml version="1.0" encoding="iso-8859-1"?>
<!-- Generator: Adobe Illustrator 19.1.1, SVG Export Plug-In . SVG Version: 6.00 Build 0)  -->
<svg version="1.1" id="Layer_1" xmlns="http://www.w3.org/2000/svg" xmlns:xlink="http://www.w3.org/1999/xlink" x="0px" y="0px"
	 viewBox="0 0 32 32" style="enable-background:new 0 0 32 32;" xml:space="preserve">
<rect x="6" y="6" style="fill:none;stroke:#000000;stroke-width:2;stroke-miterlimit:10;" width="20" height="20"/>
<path d="M22.231,23.133h-4.575v-1.125l0.94-0.18c0.155-0.03,0.268-0.166,0.268-0.324V16.71c0-0.149-0.1-0.279-0.243-0.318
	l-1.17-0.319l0.36-1.285h3.598v6.819c0,0.159,0.113,0.295,0.269,0.324l0.553,0.104C22.231,22.035,22.231,23.185,22.231,23.133z"/>
<path d="M15.551,23.133H9.677v-1.168l1.272-0.139v-5.377H9.677v-1.708h1.29v-1.368c0,0-0.087-2.667,3.416-2.667
	c3.329,0,2.911,2.336,2.911,2.336l-2.266,0.296v-0.505c0,0-0.087-0.575-0.732-0.575s-0.819,0.732-0.819,0.732v1.752h2.998
	l-0.505,1.708h-2.493v5.343L15.551,22C15.551,22,15.534,23.151,15.551,23.133z"/>
<path d="M19.937,12.754c0,0-1.371,0.755-1.396,0.764c-0.025,0.008-0.337-0.337-0.337-0.337l0.427-1.503l-1.01-1.059l0.172-0.443
	h1.248l0.69-1.265h0.402l0.673,1.265h1.24l0.197,0.427l-0.985,1.1l0.419,1.478L21.3,13.526L19.937,12.754z"/>
</svg>
