<?xml version="1.0" encoding="iso-8859-1"?>
<!-- Generator: Adobe Illustrator 19.2.0, SVG Export Plug-In . SVG Version: 6.00 Build 0)  -->
<svg version="1.1" xmlns="http://www.w3.org/2000/svg" xmlns:xlink="http://www.w3.org/1999/xlink" x="0px" y="0px"
	 viewBox="0 0 32 32" style="enable-background:new 0 0 32 32;" xml:space="preserve">
<g >
	<g>
		<path d="M16.017,20C14.184,20,12,19.281,12,15.856c0-1.383,1.221-2.855,3.484-2.856c1.683,0,4.091,3.156,4.475,4
			c-0.158,0.607-0.201,0.68-0.418,1.037C18.795,19.266,17.477,20,16.017,20z M15.484,14.95c-1.206,0.001-1.612,0.623-1.612,0.906
			c0,1.389,0.351,2.194,2.144,2.194c1.312,0,1.947-0.933,2.083-1.338C17.673,16.172,16.195,14.95,15.484,14.95z"/>
	</g>
	<g>
		<path d="M19.03,18c-0.466,0-0.876-0.345-0.955-0.832c-0.057-0.333-0.651-3.176-4.106-3.176c-0.535,0-0.969-0.446-0.969-0.996
			C13,12.446,13.434,12,13.969,12c4.155,0,5.753,3.169,6.018,4.844c0.086,0.543-0.273,1.055-0.801,1.143
			C19.133,17.996,19.081,18,19.03,18z"/>
	</g>
	<path d="M16.443,15.292c-0.54-0.153-1.151,0.33-1.367,1.081c-0.216,0.749,0.046,1.481,0.586,1.635
		c0.54,0.153,1.151-0.33,1.367-1.081C17.244,16.177,16.982,15.445,16.443,15.292z"/>
	<g>
		<path d="M22.999,17.649c-0.477,0-0.899-0.342-0.984-0.828c-0.095-0.544,0.269-1.062,0.813-1.157l3.721-0.65
			c0.549-0.089,1.063,0.269,1.157,0.813c0.095,0.544-0.269,1.062-0.813,1.157l-3.721,0.65
			C23.114,17.644,23.056,17.649,22.999,17.649z"/>
	</g>
	<path d="M24.274,16.775c-0.596-0.183-1.218,0.194-1.461,1.075c-0.241,0.881-0.011,1.933,0.586,2.115
		c0.595,0.183,1.274-0.383,1.516-1.264C25.156,17.821,24.869,16.959,24.274,16.775z"/>
	<path d="M15,23c4.008,0.919,6.463,1.005,7.504,1.005C22.744,24.005,22.908,24,23,24l-0.28,2H16L15,23 M7,17l2,6l2,2l3.919,2.5H16
		h6.72h1.305l0.181-1.292l0.28-2L26,22.5h-3l-0.159,0.002l-0.337,0.003c-1.346,0-3.671-0.088-7.169-0.967C13.034,20.96,7,17,7,17z"
		/>
	<g>
		<path d="M26.497,10c-0.001,1.479-0.002,5.647-0.003,5.944c-0.007,0.028-0.013,0.056-0.018,0.085
			c-0.466,2.562-1.042,5.49-1.198,5.947c-0.214,0.574-1.903,3.715-2.458,4.747c-0.072,0.133-0.136,0.253-0.191,0.357
			c-0.721,0.149-2.373,0.42-4.848,0.42c-2.424,0-6.342-1.909-6.791-2.651c-0.058-0.148-0.178-0.68-0.249-0.998
			c-0.062-0.276-0.124-0.552-0.185-0.789c-0.146-0.569-0.61-1.001-1.188-1.105c-0.089-0.016,0.616-0.936,0.528-0.936
			c-0.445,0-0.646,1.042-1.95,1.458c-0.009,0-0.02,0.001-0.031,0.001c-0.064,0-0.132-0.002-0.207-0.006
			c-0.596-0.036-2.11-1.717-2.791-2.922c-0.332-0.615-0.516-1.454-0.371-1.692c0.149-0.243,0.28-0.359,0.621-0.359
			c0.594,0,1.366,0.417,1.827,0.665C7.131,18.24,7.807,18.787,8.208,19C8.586,19.201,7.71,18.336,8,18l0,0l-1-2l1,1
			c-0.478-0.233-1.667-1-2.833-1c-1.138,0-1.659,0.681-1.901,1.078c-0.712,1.169,0.217,2.974,0.332,3.186
			c0.322,0.571,2.3,3.603,4.021,3.706c0.103,0.006,0.201,0.009,0.296,0.009c0.671,0,1.001-0.276,1.188-0.546
			c0.164,0.643,0.339,1.587,0.496,1.976C10.196,26.886,15.014,29,17.781,29c3.553,0,5.546-0.539,5.63-0.562
			c0.155-0.043,0.283-0.151,0.351-0.295c0.076-0.165,2.597-4.776,2.921-5.643c0.276-0.742,1.268-6.203,1.268-6.203
			c0.042-0.094,0.057-0.196,0.042-0.296c0,0,0.002-2.203,0.003-4.11L26.497,10z"/>
		<path d="M26.486,4.935c-0.337-0.417-0.61-0.661-0.641-0.692c-0.104-0.103-0.244-0.158-0.387-0.158c-0.06,0-0.121,0.01-0.179,0.03
			c-0.138,0.047-0.231,0.155-0.294,0.28L26.486,4.935z"/>
	</g>
	<path d="M26.618,18.988c-0.229,0.147-0.456,0.338-0.624,0.611c-1.07,0.339-1.385,0.367-1.46,0.367
		c-0.201,0-0.256-0.063-0.286-0.096c-0.223-0.254-0.28-0.96-0.23-1.427c0.037-0.408,0.349-0.408,0.516-0.408
		c0.728,0,1.562,0.116,2.232,0.313l0.457-1.979C25.987,16.019,24.757,16,24.534,16c-1.779,0-2.478,1.399-2.507,2.259
		c-0.023,0.192,0.014,1.95,0.724,2.96C23.141,21.774,23.814,22,24.534,22c0.329,0,0.79-0.091,1.453-0.28L26.618,18.988z"/>
</g>
<g >
	<g>
		<path d="M5.439,11l2.474,0.125l-1.668,1.091C5.985,12.393,5.922,12.745,6.105,13L7,15v1v1l2.013,1.553
			C8.991,18.313,8.995,18.116,9.038,18c0.312-0.837,1.954-2.982,1.962-3c0-0.875,0-1.177,0-2c0-0.64,0.5-3,4-3
			c5.625,0,10.905,2.949,12,3l-0.316,3c0,0-0.968,5.511-1.207,6.148c-0.027,0.074-0.427,0.648-0.604,0.935l1.396,0.31
			c0.2-0.401,0.352-0.721,0.416-0.893c0.276-0.742,1.268-6.203,1.268-6.203c0.042-0.094,0.057-0.196,0.042-0.296
			c0,0,0.005-6.202,0.005-6.798c0-3.115-1.91-4.956-2-5.044c-0.147-0.147-0.368-0.196-0.566-0.129
			c-0.197,0.068-0.341,0.24-0.366,0.446c-0.008,0.065-0.018,0.134-0.028,0.2c0.128,0.721,0.031,1.696-0.132,2.659
			c0,0-0.305-2.897-1.8-4.094c-0.091-0.073-0.199-0.121-0.304-0.177c-0.17-0.09-0.375-0.084-0.539,0.013
			C22.1,3.174,22,3.351,22,3.541V6c0,0-1.271-2.063-2.786-2.856c-0.179-0.047-0.362-0.092-0.555-0.133
			c-0.212-0.043-0.432,0.042-0.558,0.217c-0.126,0.175-0.086,0.385-0.022,0.591C18.333,4.646,18,6,18,6s-0.734-2.607-4.012-2.97
			C13.849,3.021,13.715,3.008,13.574,3c-0.204-0.001-0.407,0.1-0.507,0.282c-0.101,0.182-0.087,0.406,0.036,0.575
			c0.003,0.005,0.005,0.009,0.009,0.014C14.091,4.754,14,6,14,6c-1.005-0.859-1.688-1-3-1c-0.854,0-1.905,0.586-2.766,1.18
			C8.047,6.309,7.961,6.539,8.017,6.758c0.057,0.217,0.243,0.38,0.47,0.406C8.696,7.187,12,8,12,8c-3.941,0-6.4,0.612-6.982,2.329
			c-0.068,0.2,0.014,0.42,0.178,0.555C5.268,10.943,5.351,10.982,5.439,11z"/>
	</g>
</g>
</svg>
