<?xml version="1.0" encoding="iso-8859-1"?>
<!-- Generator: Adobe Illustrator 19.1.1, SVG Export Plug-In . SVG Version: 6.00 Build 0)  -->
<svg version="1.1" id="Layer_1" xmlns="http://www.w3.org/2000/svg" xmlns:xlink="http://www.w3.org/1999/xlink" x="0px" y="0px"
	 viewBox="0 0 32 32" style="enable-background:new 0 0 32 32;" xml:space="preserve">
<path d="M15.102,4c0,0,3.823,1.257,3.823,4.452c0,2.304-1.205,3.876-1.205,3.876s-3.072-1.284-3.457-4.033
	C13.898,5.676,15.102,4,15.102,4z"/>
<path d="M17.81,16.029c0,0,0.572-2.54,2.064-3.906c1.774-1.623,5.017-1.143,5.017-1.143s0.318,1.81-1.619,3.779
	S17.81,16.029,17.81,16.029z"/>
<path d="M9.364,11.33c0,0,2.364-0.829,4.223-0.159c2.731,0.984,3.715,4.604,3.715,4.604s-1.297,0.544-3.62,0.127
	C11.205,15.458,9.681,13.648,9.364,11.33z"/>
<path d="M16.032,21.554c0,0,2.127-3.683,5.398-3.683c2.477,0,4.096,1.334,4.096,1.334s-1.429,3.683-4.668,3.683
	S16.032,21.554,16.032,21.554z"/>
<path d="M6.855,17.935c0,0,1.854-1.208,3.81-0.984c4.445,0.508,4.985,4.35,4.985,4.35s-1.302,0.921-3.779,0.921
	C8.03,22.221,6.855,17.935,6.855,17.935z"/>
<path style="fill:none;stroke:#000000;stroke-miterlimit:10;" d="M6.474,27.5c8.535,0,11.617-9.18,11.082-16.392"/>
</svg>
