<?xml version="1.0" encoding="iso-8859-1"?>
<!-- Generator: Adobe Illustrator 21.0.2, SVG Export Plug-In . SVG Version: 6.00 Build 0)  -->
<svg version="1.1" id="Layer_1" xmlns="http://www.w3.org/2000/svg" xmlns:xlink="http://www.w3.org/1999/xlink" x="0px" y="0px"
	 viewBox="0 0 32 32" style="enable-background:new 0 0 32 32;" xml:space="preserve">
<path d="M22.788,11.049L25,11.844v14.39l-2.184,0.721L7,24.74V13.259L22.788,11.049 M23,9L5,11.52v14.96L23,29l4-1.32V10.438L23,9
	L23,9z"/>
<g>
	<polygon points="13,18 13,14.44 9,15 9,18 	"/>
	<polygon points="14,18 19,18 19,13.6 14,14.3 	"/>
	<polygon points="14,19 14,22.7 19,23.4 19,19 	"/>
	<polygon points="13,19 9,19 9,22 13,22.56 	"/>
</g>
<path style="fill:none;stroke:#000000;stroke-width:2;stroke-miterlimit:10;" d="M10,11.227V7.668c0-0.861,0.551-1.625,1.368-1.897
	l2-0.667C14.663,4.672,16,5.636,16,7.002v4.225"/>
<path style="fill:none;stroke:#000000;stroke-width:2;stroke-miterlimit:10;" d="M20,10V8.002c0-1.365-1.337-2.329-2.632-1.897
	L16,6.56"/>
</svg>
