<?xml version="1.0" encoding="iso-8859-1"?>
<!-- Generator: Adobe Illustrator 19.1.0, SVG Export Plug-In . SVG Version: 6.00 Build 0)  -->
<svg version="1.1" id="Layer_1" xmlns="http://www.w3.org/2000/svg" xmlns:xlink="http://www.w3.org/1999/xlink" x="0px" y="0px"
	 viewBox="0 0 32 32" style="enable-background:new 0 0 32 32;" xml:space="preserve">
<polygon points="24,23.139 24,25 8,25 8,23.118 6,23.521 6,27 26,27 26,23.549 "/>
<polyline style="fill:none;stroke:#000000;stroke-width:2;stroke-miterlimit:10;" points="4.5,12.625 16,4 27.5,12.625 "/>
<polygon points="8,11 6,11 6,16.698 8,17.123 "/>
<polygon points="26,11 24,11 24,17.124 26,16.728 "/>
<g>
	<polygon points="19.447,21.226 28.304,22.997 28.696,21.036 24.546,20.206 	"/>
	<polygon points="19.447,19.187 3.696,16.036 3.304,17.997 14.348,20.206 	"/>
</g>
<line style="fill:none;stroke:#000000;stroke-width:2;stroke-miterlimit:10;" x1="28.5" y1="17.017" x2="3.5" y2="22.017"/>
<polygon points="18,9.524 16,8 14,9.524 14,12 18,12 "/>
</svg>
