<?xml version="1.0" encoding="iso-8859-1"?>
<!-- Generator: Adobe Illustrator 19.1.1, SVG Export Plug-In . SVG Version: 6.00 Build 0)  -->
<svg version="1.1"  xmlns="http://www.w3.org/2000/svg" xmlns:xlink="http://www.w3.org/1999/xlink" x="0px" y="0px"
	 viewBox="0 0 32 32" style="enable-background:new 0 0 32 32;" xml:space="preserve">
<path style="fill:none;stroke:#000000;stroke-width:2;stroke-miterlimit:10;" d="M27,20c0,5.523-3.145,7-11,7S5,25.523,5,20
	c0-7.013,8-11,8-11h6.003C19.003,9,27,12.987,27,20z"/>
<path style="fill:none;stroke:#000000;stroke-width:2;stroke-miterlimit:10;" d="M19,9h-6l-2-4c0,0,2.242-1,5-1s5,1,5,1L19,9z"/>
<path style="fill:none;stroke:#000000;stroke-width:2;stroke-miterlimit:10;" d="M19,9c5.238,0,8,3,8,3"/>
<rect x="11" y="16" width="6" height="1.5"/>
<rect x="11" y="18.5" width="6" height="1.5"/>
<path style="fill:none;stroke:#000000;stroke-width:2;stroke-miterlimit:10;" d="M19.045,14.419C18.314,13.574,17.557,13,16.47,13
	C14.211,13,13,15.239,13,18s1.211,5,3.47,5c1.086,0,1.844-0.464,2.575-1.309"/>
</svg>
