<?xml version="1.0" encoding="iso-8859-1"?>
<!-- Generator: Adobe Illustrator 19.2.0, SVG Export Plug-In . SVG Version: 6.00 Build 0)  -->
<svg version="1.1" id="Layer_1" xmlns="http://www.w3.org/2000/svg" xmlns:xlink="http://www.w3.org/1999/xlink" x="0px" y="0px"
	 viewBox="0 0 32 32" style="enable-background:new 0 0 32 32;" xml:space="preserve">
<path d="M21.505,5l-1.796,7.227l-2.525-0.628L20.021,5h-2.894c0.226,0.433,0.293,0.883,0.127,1.271
	c-0.38,0.884-1.808,1.155-3.116,0.594C13.198,6.46,12.537,5.715,12.375,5h-2.014c0.154,1.488,1.268,2.962,2.987,3.702
	c0.713,0.306,1.447,0.451,2.146,0.451c0.196,0,0.39-0.012,0.579-0.035l-1.603,3.729c-0.709-0.208-1.466,0.094-1.838,0.733
	l-4.48-1.926c0.208-0.709-0.094-1.466-0.733-1.838L9.49,5H7.314L4.24,12.149l10.725,4.61l1.418-3.299l4.783,1.19L23.565,5H21.505z"
	/>
<ellipse transform="matrix(0.3949 -0.9187 0.9187 0.3949 -2.894 16.7524)" cx="11.271" cy="10.573" rx="0.806" ry="0.806"/>
<path style="fill:none;stroke:#000000;stroke-width:2;stroke-miterlimit:10;" d="M25.516,24.558c0,0-1.352-0.558-2.715-0.558
	s-4.754,3-6.048,3c-0.96,0-7.526-2.55-10.515-3.867c-0.982-0.433-1.469-1.54-1.13-2.558l0,0c0.323-0.97,1.305-1.561,2.314-1.393
	l5.962,0.972C13.724,19.638,17.918,17,20.526,17c2.794,0,7.064,1.69,7.064,1.69"/>
<path style="fill:none;stroke:#000000;stroke-width:2;stroke-miterlimit:10;" d="M19.772,20.787l-4.443,2.114
	c-0.739,0.259-1.561-0.004-2.012-0.645l0,0c-0.557-0.793-0.364-1.887,0.431-2.441l0.3-0.213"/>
</svg>
