<?xml version="1.0" encoding="iso-8859-1"?>
<!-- Generator: Adobe Illustrator 19.1.1, SVG Export Plug-In . SVG Version: 6.00 Build 0)  -->
<svg version="1.1"  xmlns="http://www.w3.org/2000/svg" xmlns:xlink="http://www.w3.org/1999/xlink" x="0px" y="0px"
	 viewBox="0 0 32 32" style="enable-background:new 0 0 32 32;" xml:space="preserve">
<polyline style="fill:none;stroke:#000000;stroke-width:2;stroke-miterlimit:10;" points="17,25 5,25 5,7 27,7 27,18 "/>
<path style="fill:none;stroke:#000000;stroke-width:2;stroke-miterlimit:10;" d="M17.999,19.874C16.274,19.429,15,17.863,15,16
	c0-2.209,1.791-4,4-4s4,1.791,4,4c0,0.345-0.044,0.681-0.126,1"/>
<circle cx="19" cy="16" r="1"/>
<rect x="27" y="11" width="2" height="3"/>
<path d="M9,20L9,20c-0.552,0-1-0.448-1-1v-6c0-0.552,0.448-1,1-1h0c0.552,0,1,0.448,1,1v6C10,19.552,9.552,20,9,20z"/>
<rect x="6" y="25" width="4" height="2"/>
<path d="M24,32c-4.4,0-8-3.6-8-8s3.6-8,8-8s8,3.6,8,8S28.4,32,24,32z M24,18c-3.3,0-6,2.7-6,6s2.7,6,6,6s6-2.7,6-6S27.3,18,24,18z
	 M28.7,22.7l-1.4-1.4L24,24.6l-2.3-2.3l-1.4,1.4l3.7,3.7L28.7,22.7z"/>
</svg>
