<?xml version="1.0" encoding="iso-8859-1"?>
<!-- Generator: Adobe Illustrator 19.1.1, SVG Export Plug-In . SVG Version: 6.00 Build 0)  -->
<svg version="1.1" id="Layer_1" xmlns="http://www.w3.org/2000/svg" xmlns:xlink="http://www.w3.org/1999/xlink" x="0px" y="0px"
	 viewBox="0 0 32 32" style="enable-background:new 0 0 32 32;" xml:space="preserve">
<circle style="fill:none;stroke:#000000;stroke-width:2;stroke-miterlimit:10;" cx="9" cy="8" r="4"/>
<path style="fill:none;stroke:#000000;stroke-width:2;stroke-miterlimit:10;" d="M12,29v-7l2-2v-3c0-2.761-2.239-5-5-5l0,0
	c-2.761,0-5,2.239-5,5v3l2,2v7"/>
<circle style="fill:none;stroke:#000000;stroke-width:2;stroke-miterlimit:10;" cx="23" cy="8" r="4"/>
<path style="fill:none;stroke:#000000;stroke-width:2;stroke-miterlimit:10;" d="M25,29v-7h3.687L27,16c-0.401-2.16-1.791-4-4-4
	s-3.592,1.703-4,4l-1.688,6H21v7"/>
<line style="fill:none;stroke:#000000;stroke-width:2;stroke-miterlimit:10;" x1="20" y1="22" x2="26" y2="22"/>
<rect x="6" y="21" style="fill:none;stroke:#000000;stroke-width:2;stroke-miterlimit:10;" width="6" height="2"/>
</svg>
