<?xml version="1.0" encoding="iso-8859-1"?>
<!-- Generator: Adobe Illustrator 19.1.1, SVG Export Plug-In . SVG Version: 6.00 Build 0)  -->
<svg version="1.1" id="Layer_1" xmlns="http://www.w3.org/2000/svg" xmlns:xlink="http://www.w3.org/1999/xlink" x="0px" y="0px"
	 viewBox="0 0 32 32" style="enable-background:new 0 0 32 32;" xml:space="preserve">
<ellipse cx="18.972" cy="18" rx="0.972" ry="1"/>
<circle cx="23" cy="18" r="1"/>
<path style="fill:none;stroke:#000000;stroke-width:2;stroke-miterlimit:10;" d="M11,24h7.521"/>
<path style="fill:none;stroke:#000000;stroke-width:2;stroke-miterlimit:10;" d="M24,24h7c0-13.708-5.877-16-8-16l-1-1
	c-3.069,0-5.734,0.573-8.098,4"/>
<path style="fill:none;stroke:#000000;stroke-width:2;stroke-miterlimit:10;" d="M24,12c0,4.636-9,0.792-9,5c0,3.351,2.546,8,6,8
	s6-4.632,6-8"/>
<path style="fill:none;stroke:#000000;stroke-width:2;stroke-miterlimit:10;" d="M1.784,15.405C1.317,15.688,1,16.212,1,16.818
	c0,0.858,0.631,1.555,1.43,1.623c0.591,2.02,1.456,4.275,2.05,4.937c1.944,2.163,5.096,2.163,7.04,0
	c0.594-0.661,1.46-2.917,2.05-4.937c0.799-0.068,1.43-0.765,1.43-1.623c0-0.607-0.312-1.13-0.778-1.413v-1.042
	C14.222,9.993,11.882,8,9.901,8L8.951,7c-5.462,0-7.173,2.668-7.173,7.364L1.784,15.405z"/>
<circle cx="6" cy="17" r="1"/>
<circle cx="10" cy="17" r="1"/>
<path style="fill:none;stroke:#000000;stroke-width:2;stroke-miterlimit:10;" d="M9.901,8c2.307,4.847-4.72,1.731-4.753,6"/>
</svg>
