<?xml version="1.0" encoding="iso-8859-1"?>
<!-- Generator: Adobe Illustrator 19.2.0, SVG Export Plug-In . SVG Version: 6.00 Build 0)  -->
<svg version="1.1" id="Layer_1" xmlns="http://www.w3.org/2000/svg" xmlns:xlink="http://www.w3.org/1999/xlink" x="0px" y="0px"
	 viewBox="0 0 32 32" style="enable-background:new 0 0 32 32;" xml:space="preserve">
<path style="fill:none;stroke:#000000;stroke-width:2;stroke-miterlimit:10;" d="M26,28V7c0-1.105-0.895-2-2-2H8
	C6.895,5,6,5.895,6,7v21"/>
<path style="fill:none;stroke:#000000;stroke-width:2;stroke-miterlimit:10;" d="M11,22.015c0,0,2.143,1.985,5,1.985
	s5-1.985,5-1.985"/>
<rect x="20" y="5" width="1" height="17.412"/>
<rect x="11" y="5" width="1" height="17.412"/>
<path d="M13,5.5C13,6.328,12.328,7,11.5,7S10,6.328,10,5.5S10.672,5,11.5,5S13,4.672,13,5.5z"/>
<path d="M22,5.5C22,6.328,21.328,7,20.5,7S19,6.328,19,5.5S19.672,5,20.5,5S22,4.672,22,5.5z"/>
</svg>
