<?xml version="1.0" encoding="iso-8859-1"?>
<!-- Generator: Adobe Illustrator 19.1.1, SVG Export Plug-In . SVG Version: 6.00 Build 0)  -->
<svg version="1.1" id="Layer_1" xmlns="http://www.w3.org/2000/svg" xmlns:xlink="http://www.w3.org/1999/xlink" x="0px" y="0px"
	 viewBox="0 0 32 32" style="enable-background:new 0 0 32 32;" xml:space="preserve">
<g>
	<path d="M13.271,17.607h5.719l-0.372-0.573c-0.023-0.036-0.087-0.162-0.103-0.192c-0.304-0.558-0.62-1.179-0.934-1.819h-2.82
		L13.271,17.607z"/>
	<path d="M19.882,15.022c0.161,0.292,0.315,0.578,0.456,0.851c0.015,0.029,0.084,0.153,0.1,0.193l0.656,1.541h1.572v-2.585H19.882z"
		/>
	<polygon points="12.099,15.022 9.467,15.022 9.467,17.607 10.607,17.607 	"/>
</g>
<circle style="fill:none;stroke:#000000;stroke-width:2;stroke-linecap:round;stroke-miterlimit:10;" cx="16" cy="16" r="11"/>
<rect x="9.571" y="15.427" transform="matrix(-0.4998 0.8662 -0.8662 -0.4998 33.157 13.4124)" width="6.269" height="1.707"/>
<path d="M15.426,8.836c0.146-0.078,0.327-0.031,0.417,0.109c0.636,0.992,2.914,4.528,4.23,7.066l-1.294,0.688
	c-1.384-2.545-3.027-6.357-3.496-7.459C15.218,9.088,15.281,8.913,15.426,8.836L15.426,8.836z"/>
<polygon points="20.859,17.818 20.163,16.183 18.87,16.87 19.836,18.362 "/>
<path d="M20.925,18.068l1.429,2.161c0.251,0.379,0.12,0.892-0.281,1.105l0,0c-0.401,0.213-0.899,0.034-1.074-0.385l-0.993-2.393
	L20.925,18.068z"/>
<polygon points="9.861,21.347 11.768,19.612 10.29,18.758 9.74,21.278 "/>
<rect x="13.989" y="11.871" transform="matrix(0.4998 -0.8662 0.8662 0.4998 -3.6399 19.1461)" width="1.535" height="1.707"/>
<path d="M16.005,12.269l-0.003,0.005l-1.478-0.854l0.003-0.005c0.235-0.408,0.758-0.549,1.166-0.312l0,0
	C16.1,11.338,16.241,11.86,16.005,12.269z"/>
</svg>
