<?xml version="1.0" encoding="utf-8"?>
<!-- Generator: Adobe Illustrator 18.1.1, SVG Export Plug-In . SVG Version: 6.00 Build 0)  -->
<svg version="1.1" id="Layer_1" xmlns="http://www.w3.org/2000/svg" xmlns:xlink="http://www.w3.org/1999/xlink" x="0px" y="0px"
	 viewBox="0 0 32 32" enable-background="new 0 0 32 32" xml:space="preserve">
<polyline fill="none" stroke="#000000" stroke-width="2" stroke-miterlimit="10" points="25,15 25,27 7,27 7,15 "/>
<line fill="none" stroke="#000000" stroke-width="2" stroke-miterlimit="10" x1="3" y1="5" x2="29" y2="5"/>
<line fill="none" stroke="#000000" stroke-width="2" stroke-miterlimit="10" x1="3" y1="9" x2="29" y2="9"/>
<line fill="none" stroke="#000000" stroke-width="2" stroke-miterlimit="10" x1="3" y1="13" x2="29" y2="13"/>
<line fill="none" stroke="#000000" stroke-width="2" stroke-linejoin="round" stroke-miterlimit="10" x1="7" y1="7" x2="7" y2="9"/>
<line fill="none" stroke="#000000" stroke-width="2" stroke-linejoin="round" stroke-miterlimit="10" x1="25" y1="7" x2="25" y2="9"/>
<line fill="none" stroke="#000000" stroke-width="2" stroke-linejoin="round" stroke-miterlimit="10" x1="7" y1="11" x2="7" y2="13"/>
<line fill="none" stroke="#000000" stroke-width="2" stroke-linejoin="round" stroke-miterlimit="10" x1="25" y1="11" x2="25" y2="13"/>
<path d="M28,17L28,17c-0.5,0-1-0.5-1-1l0,0c0-0.5,0.5-1,1-1l0,0c0.5,0,1,0.5,1,1l0,0C29,16.5,28.5,17,28,17z"/>
<path d="M28,20L28,20c-0.5,0-1-0.5-1-1l0,0c0-0.5,0.5-1,1-1l0,0c0.5,0,1,0.5,1,1l0,0C29,19.5,28.5,20,28,20z"/>
<path d="M28,23L28,23c-0.5,0-1-0.5-1-1l0,0c0-0.5,0.5-1,1-1l0,0c0.5,0,1,0.5,1,1l0,0C29,22.5,28.5,23,28,23z"/>
<path d="M28,26L28,26c-0.5,0-1-0.5-1-1l0,0c0-0.5,0.5-1,1-1l0,0c0.5,0,1,0.5,1,1l0,0C29,25.5,28.5,26,28,26z"/>
<circle fill="none" stroke="#000000" stroke-width="2" stroke-linejoin="round" stroke-miterlimit="10" cx="16" cy="20" r="3"/>
<line fill="none" stroke="#000000" stroke-width="2" stroke-linejoin="round" stroke-miterlimit="10" x1="14.1" y1="15.4" x2="14.9" y2="17.2"/>
<line fill="none" stroke="#000000" stroke-width="2" stroke-linejoin="round" stroke-miterlimit="10" x1="17.1" y1="22.8" x2="17.9" y2="24.6"/>
<line fill="none" stroke="#000000" stroke-width="2" stroke-linejoin="round" stroke-miterlimit="10" x1="20.6" y1="18.1" x2="18.8" y2="18.9"/>
<line fill="none" stroke="#000000" stroke-width="2" stroke-linejoin="round" stroke-miterlimit="10" x1="13.2" y1="21.1" x2="11.4" y2="21.9"/>
<line fill="none" stroke="#000000" stroke-width="2" stroke-linejoin="round" stroke-miterlimit="10" x1="17.9" y1="15.4" x2="17.1" y2="17.2"/>
<line fill="none" stroke="#000000" stroke-width="2" stroke-linejoin="round" stroke-miterlimit="10" x1="14.9" y1="22.8" x2="14.1" y2="24.6"/>
<line fill="none" stroke="#000000" stroke-width="2" stroke-linejoin="round" stroke-miterlimit="10" x1="20.6" y1="21.9" x2="18.8" y2="21.1"/>
<line fill="none" stroke="#000000" stroke-width="2" stroke-linejoin="round" stroke-miterlimit="10" x1="13.2" y1="18.9" x2="11.4" y2="18.1"/>
</svg>
