<?xml version="1.0" encoding="iso-8859-1"?>
<!-- Generator: Adobe Illustrator 19.1.1, SVG Export Plug-In . SVG Version: 6.00 Build 0)  -->
<svg version="1.1" id="Layer_1" xmlns="http://www.w3.org/2000/svg" xmlns:xlink="http://www.w3.org/1999/xlink" x="0px" y="0px"
	 viewBox="0 0 32 32" style="enable-background:new 0 0 32 32;" xml:space="preserve">
<path style="fill:none;stroke:#000000;stroke-width:2;stroke-miterlimit:10;" d="M16,6c-5.125,0-7,6.5-7,10c0,0,3,3.125,3,7
	c0,0,2.08,2,4,2s4-2,4-2c0-3.688,3-7,3-7C23,13.188,21.125,6,16,6z"/>
<path d="M19.605,16.882C18.491,17.326,17,16,17,16l3.95-1.972C20.95,14.028,21.398,16.169,19.605,16.882z"/>
<path d="M11.05,14.028L15,16c0,0-1.492,1.326-2.606,0.882C10.602,16.169,11.05,14.028,11.05,14.028z"/>
<path style="fill:none;stroke:#000000;stroke-width:2;stroke-miterlimit:10;" d="M10,10H5c0,0-0.063,4,4,4"/>
<path d="M10,11c-1.728,0.039-2.905,0.37-4.51-0.309c-1.227-0.52-2.298-1.527-2.524-2.885c-0.277-1.663,0.767-3.584,2.008-4.64
	c0.552-0.477,1.07-0.763,1.437-0.935C6.779,2.059,7,2,7,2S6.812,2.132,6.533,2.408C6.256,2.683,5.888,3.107,5.575,3.665
	c-0.441,0.787-1.22,3.079-0.193,3.749C5.572,7.538,6.417,8,7,8c2.833,0,5.735-1.502,7-2C11.667,7.625,10.226,10.995,10,11z"/>
<path style="fill:none;stroke:#000000;stroke-width:2;stroke-miterlimit:10;" d="M22,10h5c0,0-0.125,4-4,4"/>
<path d="M22,11c1.728,0.039,2.905,0.37,4.51-0.309c1.227-0.52,2.298-1.527,2.524-2.885c0.277-1.663-0.767-3.584-2.008-4.64
	c-0.552-0.477-1.07-0.763-1.437-0.935C25.221,2.059,25,2,25,2s0.188,0.132,0.467,0.408c0.277,0.275,0.645,0.699,0.958,1.257
	c0.441,0.787,1.22,3.079,0.193,3.749C26.428,7.538,25.583,8,25,8c-2.833,0-5.735-1.502-7-2C20.333,7.625,21.774,10.995,22,11z"/>
<path style="fill:none;stroke:#000000;stroke-width:2;stroke-miterlimit:10;" d="M18.121,23.879c1.172,1.172,1.172,3.071,0,4.243
	c-1.172,1.172-3.071,1.172-4.243,0c-1.172-1.172-1.172-3.071,0-4.243"/>
<path d="M18,25L18,25c-0.55,0-1-0.45-1-1v-1c0-0.55,0.45-1,1-1h0c0.55,0,1,0.45,1,1v1C19,24.55,18.55,25,18,25z"/>
<path d="M14,25L14,25c-0.55,0-1-0.45-1-1v-1c0-0.55,0.45-1,1-1h0c0.55,0,1,0.45,1,1v1C15,24.55,14.55,25,14,25z"/>
</svg>
