<?xml version="1.0" encoding="iso-8859-1"?>
<!-- Generator: Adobe Illustrator 19.1.0, SVG Export Plug-In . SVG Version: 6.00 Build 0)  -->
<svg version="1.1" id="Layer_1" xmlns="http://www.w3.org/2000/svg" xmlns:xlink="http://www.w3.org/1999/xlink" x="0px" y="0px"
	 viewBox="0 0 32 32" style="enable-background:new 0 0 32 32;" xml:space="preserve">
<rect x="6" y="6" style="fill:none;stroke:#000000;stroke-width:2;stroke-miterlimit:10;" width="20" height="20"/>
<path id="XMLID_6777_" d="M15.097,12.265c0.324-1.282,1.78-2.187,2.75-2.263c0.081-0.075,0.374,1.467-0.274,3.202
	c-0.485,1.282-1.425,1.851-1.668,1.776C15.664,14.904,14.693,13.848,15.097,12.265z M13.727,12.824c0,0,0.875,0.95,0.875,2.936
	c0,1.364-0.899,2.266-1.378,2.266c-0.479,0-1.227-0.419-1.227-2.335C11.998,13.774,13.727,12.824,13.727,12.824z M10.225,21.026
	c-0.479,0-1.227-0.419-1.227-2.335c0-1.917,1.729-2.867,1.729-2.867s0.875,0.95,0.875,2.936
	C11.603,20.124,10.704,21.026,10.225,21.026z M13.309,23.002c-1.917,0-2.335-0.748-2.335-1.227c0-0.479,0.902-1.378,2.266-1.378
	c1.986,0,2.936,0.875,2.936,0.875S15.226,23.002,13.309,23.002z M16.309,20.002c-1.917,0-2.335-0.748-2.335-1.227
	c0-0.479,0.902-1.378,2.266-1.378c1.986,0,2.936,0.875,2.936,0.875S18.226,20.002,16.309,20.002z M19.735,16.903
	c-1.583,0.405-2.64-0.566-2.715-0.809c-0.076-0.243,0.494-1.183,1.776-1.668c1.735-0.647,3.277-0.354,3.202-0.273
	C21.923,15.123,21.018,16.579,19.735,16.903z M22.081,12.184c-1.224,1.213-2.601,0.758-2.831,0.606
	c-0.229-0.227-0.612-1.592,0.536-2.804C20.781,9,23,9,23,9S23,11.198,22.081,12.184z"/>
</svg>
