<?xml version="1.0" encoding="iso-8859-1"?>
<!-- Generator: Adobe Illustrator 18.1.1, SVG Export Plug-In . SVG Version: 6.00 Build 0)  -->
<svg version="1.1" id="Layer_1" xmlns="http://www.w3.org/2000/svg" xmlns:xlink="http://www.w3.org/1999/xlink" x="0px" y="0px"
	 viewBox="0 0 32 32" style="enable-background:new 0 0 32 32;" xml:space="preserve">
<path style="fill:none;stroke:#000000;stroke-width:2;stroke-miterlimit:10;" d="M26,14.963C26,12.75,25.167,10,20,10V7
	c4.75,0,9,1.875,9,6.5v5c0,0,0,1.708-3.319,2.762C25.071,22.871,23.653,24,22,24c-0.672,0-1.295-0.204-1.851-0.533
	C19.071,24.415,17.611,25,16,25s-3.071-0.586-4.149-1.533C11.295,23.796,10.672,24,10,24c-1.653,0-3.071-1.129-3.681-2.738
	C3.25,20.542,3,18.5,3,18.5l0-5C3,8.75,6.667,7,12,7v3c-5.875,0-6,2.958-6,5.167"/>
<path style="fill:none;stroke:#000000;stroke-width:2;stroke-miterlimit:10;" d="M29,13.5c0,0-0.25,1.975-5.244,1.975
	C23.224,15.181,22.633,15,22,15c-0.672,0-1.295,0.204-1.851,0.533C19.071,14.585,17.611,14,16,14s-3.071,0.586-4.149,1.533
	C11.295,15.204,10.672,15,10,15c-0.633,0-1.224,0.181-1.756,0.475C3,15.475,3,13.5,3,13.5"/>
<circle cx="16" cy="19.5" r="2"/>
<ellipse cx="22" cy="19.5" rx="1" ry="1.5"/>
<ellipse cx="10" cy="19.5" rx="1" ry="1.5"/>
</svg>
