<?xml version="1.0" encoding="iso-8859-1"?>
<!-- Generator: Adobe Illustrator 19.1.1, SVG Export Plug-In . SVG Version: 6.00 Build 0)  -->
<svg version="1.1" id="Layer_1" xmlns="http://www.w3.org/2000/svg" xmlns:xlink="http://www.w3.org/1999/xlink" x="0px" y="0px"
	 viewBox="0 0 32 32" style="enable-background:new 0 0 32 32;" xml:space="preserve">
<rect x="5" y="14" style="fill:none;stroke:#000000;stroke-width:2;stroke-miterlimit:10;" width="22" height="12"/>
<line style="fill:none;stroke:#000000;stroke-width:2;stroke-miterlimit:10;" x1="5" y1="22" x2="27" y2="22"/>
<line style="fill:none;stroke:#000000;stroke-width:2;stroke-miterlimit:10;" x1="5" y1="18" x2="27" y2="18"/>
<path style="fill:none;stroke:#000000;stroke-width:2;stroke-miterlimit:10;" d="M24.816,14C24.928,13.686,25,13.353,25,13
	c0-1.657-1.343-3-3-3c-0.018,0-0.034,0.005-0.051,0.005C21.982,9.842,22,9.673,22,9.5C22,8.119,20.881,7,19.5,7
	c-0.698,0-1.328,0.287-1.781,0.749C17.244,6.719,16.209,6,15,6c-1.311,0-2.414,0.846-2.822,2.018C12.118,8.014,12.061,8,12,8
	c-1.657,0-3,1.343-3,3c-1.105,0-2,0.895-2,2c0,0.366,0.106,0.705,0.277,1H24.816z"/>
</svg>
