<?xml version="1.0" encoding="iso-8859-1"?>
<!-- Generator: Adobe Illustrator 21.0.2, SVG Export Plug-In . SVG Version: 6.00 Build 0)  -->
<svg version="1.1" id="Layer_1" xmlns="http://www.w3.org/2000/svg" xmlns:xlink="http://www.w3.org/1999/xlink" x="0px" y="0px"
	 viewBox="0 0 32 32" style="enable-background:new 0 0 32 32;" xml:space="preserve">
<polyline style="fill:none;stroke:#000000;stroke-width:2;stroke-miterlimit:10;" points="19,4 19,10 25,10 "/>
<path d="M16,32l1.1-5.3l9.8-9.8c1.2-1.2,3-1.2,4.2,0c1.2,1.2,1.2,3,0,4.2l-9.8,9.8L16,32z M18.9,27.7l-0.3,1.7l1.7-0.3l9.4-9.4
	c0.4-0.4,0.4-1,0-1.4c-0.4-0.4-1-0.4-1.4,0L18.9,27.7z"/>
<path d="M14.995,27H8V5h10.586L24,10.414v6.557l1.486-1.486c0.16-0.16,0.339-0.29,0.514-0.425V9.586L19.414,3H6v26h8.58L14.995,27z"
	/>
<polygon points="16,13 19,14 21,18 16,18 "/>
<path d="M18.022,23.642l3.801-4.224C21.935,18.963,22,18.489,22,18c0-3.309-2.691-6-6-6s-6,2.691-6,6s2.691,6,6,6
	C16.71,24,17.389,23.869,18.022,23.642z M12,18c0-2.206,1.794-4,4-4s4,1.794,4,4s-1.794,4-4,4S12,20.206,12,18z"/>
</svg>
