<?xml version="1.0" encoding="iso-8859-1"?>
<!-- Generator: Adobe Illustrator 19.1.0, SVG Export Plug-In . SVG Version: 6.00 Build 0)  -->
<svg version="1.1" id="Layer_1" xmlns="http://www.w3.org/2000/svg" xmlns:xlink="http://www.w3.org/1999/xlink" x="0px" y="0px"
	 viewBox="0 0 32 32" style="enable-background:new 0 0 32 32;" xml:space="preserve">
<polygon points="26,14.376 6,7.376 6,5 26,12 "/>
<path style="fill:none;stroke:#000000;stroke-width:2;stroke-miterlimit:10;" d="M24.897,12.783L24.897,12.783
	C22.87,12.408,21,13.964,21,16.025V25c0,1.105-0.895,2-2,2h0c-1.105,0-2-0.895-2-2v-6.114c0-0.834-0.517-1.58-1.298-1.873l0,0
	C14.395,16.523,13,17.49,13,18.886V21c0,1.105-0.895,2-2,2h0c-1.105,0-2-0.895-2-2V10.125c0-1.412-0.701-2.733-1.871-3.524l0-0.255"
	/>
</svg>
