<?xml version="1.0" encoding="iso-8859-1"?>
<!-- Generator: Adobe Illustrator 19.1.0, SVG Export Plug-In . SVG Version: 6.00 Build 0)  -->
<svg version="1.1" id="Layer_1" xmlns="http://www.w3.org/2000/svg" xmlns:xlink="http://www.w3.org/1999/xlink" x="0px" y="0px"
	 viewBox="0 0 32 32" style="enable-background:new 0 0 32 32;" xml:space="preserve">
<path style="fill:none;stroke:#000000;stroke-width:2;stroke-miterlimit:10;" d="M7,12c0,2.485,1.791,4,4,4s4-1.515,4-4
	s-1.791-6-4-6S7,9.515,7,12z"/>
<line style="fill:none;stroke:#000000;stroke-width:2;stroke-miterlimit:10;" x1="11" y1="16.087" x2="11" y2="28"/>
<path style="fill:none;stroke:#000000;stroke-width:2;stroke-miterlimit:10;" d="M25,5v7c0,1.657-1.343,3-3,3h0
	c-1.657,0-3-1.343-3-3V5"/>
<line style="fill:none;stroke:#000000;stroke-width:2;stroke-miterlimit:10;" x1="22" y1="14" x2="22" y2="28"/>
<path d="M21,5v7c0,0.552,0.448,1,1,1h0c0.552,0,1-0.448,1-1V5H21z"/>
</svg>
