<?xml version="1.0" encoding="iso-8859-1"?>
<!-- Generator: Adobe Illustrator 19.1.0, SVG Export Plug-In . SVG Version: 6.00 Build 0)  -->
<svg version="1.1" id="Layer_1" xmlns="http://www.w3.org/2000/svg" xmlns:xlink="http://www.w3.org/1999/xlink" x="0px" y="0px"
	 viewBox="0 0 32 32" style="enable-background:new 0 0 32 32;" xml:space="preserve">
<path style="fill:none;stroke:#000000;stroke-width:2;stroke-miterlimit:10;" d="M5,24.172L5,24.172
	c1.557-1.559-0.497-4.978,1.189-6.666c0,0,0.522,1.393,3.653,4.528s4.697,3.744,4.697,3.744c-1.729,1.731-5.166-0.283-6.67,1.222
	l0,0"/>
<path style="fill:none;stroke:#000000;stroke-width:2;stroke-miterlimit:10;" d="M12.712,24.471
	c10.002-6.226,11.253-7.957,11.949-8.828c2.174-2.786,1.507-7.034,2.166-8.524c0.326-0.737,0.165-1.291-0.273-1.73
	c-0.443-0.444-1.056-0.59-2.092,0c-1.742,0.992-5.367-0.326-8.15,1.895c-0.87,0.697-2.643,1.949-8.818,11.963"/>
<path d="M13.962,18.408c0.368-0.276,0.874-0.829,1.749-0.921c0.828-0.092,1.565,0.23,1.611,0.645
	c0.046,0.415-0.598,0.875-1.473,0.921C14.79,19.099,14.284,18.546,13.962,18.408z M15.25,20.251
	c0.046,0.415-0.598,0.875-1.473,0.921c-1.058,0.046-1.565-0.461-1.887-0.645c0.368-0.276,0.874-0.829,1.749-0.921
	C14.468,19.514,15.204,19.836,15.25,20.251z M16.263,16.151c0.368-0.276,0.874-0.829,1.749-0.921
	c0.828-0.092,1.565,0.23,1.611,0.645s-0.598,0.875-1.473,0.921C17.091,16.888,16.585,16.335,16.263,16.151z M18.379,14.124
	c0.368-0.276,0.874-0.829,1.749-0.921c0.828-0.092,1.565,0.23,1.611,0.645s-0.598,0.875-1.473,0.921
	C19.162,14.815,18.702,14.262,18.379,14.124z M18.425,18.316c-0.138-0.599-0.598-0.829-0.598-0.829s0.92,0,1.288-0.369
	c0.184,0,0.69,0.184,0.644,0.553C19.806,18.086,19.07,18.362,18.425,18.316z M20.68,16.197c-0.138-0.599-0.598-0.829-0.598-0.829
	s0.92,0,1.288-0.369c0.184,0,0.69,0.184,0.644,0.553C22.061,15.966,21.325,16.289,20.68,16.197z M20.588,12.097
	c0.322-0.276,0.828-0.921,1.657-1.06c0.828-0.138,1.565,0.092,1.657,0.507c0.092,0.415-0.552,0.921-1.381,1.014
	C21.417,12.742,20.91,12.235,20.588,12.097z M22.751,14.17c-0.138-0.599-0.598-0.829-0.598-0.829s0.92,0,1.288-0.369
	c0.184,0,0.69,0.184,0.644,0.553C24.086,13.939,23.395,14.216,22.751,14.17z M23.533,10.346c-0.736,0.276-1.196,0-1.427-0.046
	c0.184-0.276,0.46-0.783,1.012-1.014c0.552-0.23,1.15-0.184,1.242,0.138C24.5,9.701,24.132,10.162,23.533,10.346z"/>
<path d="M21.601,8.503c0.23-0.599,0.644-0.921,0.966-0.829c0.276,0.138,0.322,0.691,0.092,1.244s-0.736,0.829-1.012,1.014
	C21.601,9.701,21.371,9.24,21.601,8.503z M19.392,9.517c0.138-0.829,0.598-1.474,1.012-1.382c0.414,0.092,0.644,0.829,0.506,1.659
	c-0.138,0.829-0.782,1.336-1.058,1.659C19.714,11.129,19.208,10.576,19.392,9.517z M18.425,7.904c0.368,0,0.552,0.507,0.552,0.645
	c-0.368,0.369-0.368,1.29-0.368,1.29s-0.184-0.415-0.782-0.599C17.735,8.641,18.057,7.904,18.425,7.904z M18.103,10.3
	c0.414,0.046,0.736,0.783,0.644,1.612c-0.092,0.829-0.69,1.382-0.92,1.751c-0.138-0.322-0.69-0.829-0.598-1.889
	C17.229,10.945,17.689,10.254,18.103,10.3z M16.355,9.931c0.368,0,0.552,0.507,0.552,0.645c-0.368,0.369-0.368,1.29-0.368,1.29
	s-0.184-0.415-0.782-0.599C15.664,10.668,15.986,9.931,16.355,9.931z M16.033,12.373c0.414,0.046,0.736,0.783,0.644,1.612
	c-0.092,0.829-0.69,1.382-0.92,1.751c-0.138-0.322-0.69-0.829-0.598-1.889C15.158,13.018,15.618,12.327,16.033,12.373z
	 M14.238,12.189c0.368,0,0.552,0.507,0.552,0.645c-0.368,0.369-0.368,1.29-0.368,1.29s-0.184-0.415-0.782-0.599
	C13.594,12.88,13.87,12.189,14.238,12.189z M13.778,14.677c0.414,0.046,0.736,0.783,0.644,1.612c-0.092,0.829-0.69,1.382-0.92,1.751
	c-0.138-0.322-0.69-0.829-0.598-1.889C12.903,15.275,13.363,14.63,13.778,14.677z M11.661,16.704
	c0.414,0.046,0.736,0.783,0.644,1.612c-0.092,0.829-0.69,1.382-0.92,1.751c-0.138-0.322-0.69-0.829-0.598-1.889
	C10.786,17.349,11.201,16.704,11.661,16.704z"/>
</svg>
