<?xml version="1.0" encoding="iso-8859-1"?>
<!-- Generator: Adobe Illustrator 19.1.1, SVG Export Plug-In . SVG Version: 6.00 Build 0)  -->
<svg version="1.1" id="Layer_1" xmlns="http://www.w3.org/2000/svg" xmlns:xlink="http://www.w3.org/1999/xlink" x="0px" y="0px"
	 viewBox="0 0 32 32" style="enable-background:new 0 0 32 32;" xml:space="preserve">
<polygon style="fill:none;stroke:#000000;stroke-width:2;stroke-miterlimit:10;" points="26,22.769 15.855,27 6,22.769 6,5 26,5 "/>
<line style="fill:none;stroke:#000000;stroke-width:2;stroke-miterlimit:10;" x1="6" y1="10" x2="26" y2="10"/>
<path d="M16,13c-2.761,0-5,2.239-5,5c0,2.761,2.239,5,5,5s5-2.239,5-5C21,15.239,18.761,13,16,13z M16.132,20.979
	c-1.539,0-2.82-0.804-2.874-0.839l0.67-1.056c0.01,0.007,1.038,0.645,2.203,0.645c0.699,0,1.517-0.204,1.517-0.776
	c0-0.16-0.618-0.406-1.438-0.406l-0.161,0.001c-0.762-0.005-1.779,0.01-2.358-0.565c-0.248-0.247-0.38-0.57-0.38-0.934
	c0-1.23,1.128-2.026,2.874-2.026c1.405,0,2.544,0.828,2.592,0.863l-0.74,1.007c-0.009-0.006-0.867-0.62-1.852-0.62
	c-0.603,0-1.624,0.164-1.624,0.776c0.222,0.256,1.104,0.247,1.479,0.249l0.17-0.001c1.633,0,2.688,0.651,2.688,1.656
	C18.899,19.887,18.174,20.979,16.132,20.979z"/>
</svg>
