<?xml version="1.0" encoding="iso-8859-1"?>
<!-- Generator: Adobe Illustrator 22.0.1, SVG Export Plug-In . SVG Version: 6.00 Build 0)  -->
<svg version="1.1" id="&#x421;&#x43B;&#x43E;&#x439;_1"
	 xmlns="http://www.w3.org/2000/svg" xmlns:xlink="http://www.w3.org/1999/xlink" x="0px" y="0px" viewBox="0 0 32 32"
	 style="enable-background:new 0 0 32 32;" xml:space="preserve">
<path d="M17,25c0,0.551-0.449,1-1,1c-0.551,0-1-0.449-1-1c0-0.551,0.449-1,1-1C16.551,24,17,24.449,17,25L17,25z"/>
<path style="fill:none;stroke:#000000;stroke-width:2;stroke-miterlimit:10;" d="M23,12v14c0,1.105-0.895,2-2,2H11
	c-1.105,0-2-0.895-2-2V8c0-1.105,0.895-2,2-2h6"/>
<circle style="fill:none;stroke:#000000;stroke-width:2;stroke-miterlimit:10;" cx="16" cy="15" r="3"/>
<rect x="21" y="1" style="fill:none;stroke:#000000;stroke-width:2;stroke-miterlimit:10;" width="10" height="8"/>
<polygon points="20,6 17,10 20,10 "/>
<path d="M16,18c-2.767,0-5,2.233-5,5h2c0-1.657,1.343-3,3-3s3,1.343,3,3h2C21,20.233,18.767,18,16,18z"/>
<path d="M16,19h-4v-4C12,17.21,13.79,19,16,19z"/>
<path d="M20,15v4h-4C18.21,19,20,17.21,20,15z"/>
</svg>
