<?xml version="1.0" encoding="iso-8859-1"?>
<!-- Generator: Adobe Illustrator 19.2.0, SVG Export Plug-In . SVG Version: 6.00 Build 0)  -->
<svg version="1.1" id="Layer_1" xmlns="http://www.w3.org/2000/svg" xmlns:xlink="http://www.w3.org/1999/xlink" x="0px" y="0px"
	 viewBox="0 0 32 32" style="enable-background:new 0 0 32 32;" xml:space="preserve">
<g>
	<path d="M12,22h-2v-0.5c0-3.388,2.542-6.171,5.912-6.474C16.105,15.009,16.302,15,16.5,15v2c-0.138,0-0.275,0.007-0.41,0.019
		C13.758,17.228,12,19.154,12,21.5V22z"/>
</g>
<g>
	<path d="M24,29h-8c-1.902,0-3.209-0.884-4.017-1.71c-2.321,1.288-5.408,0.705-7.286-1.223c-1.134-1.164-1.736-2.664-1.695-4.225
		c0.01-0.408,0.063-0.817,0.157-1.216c0.339-1.437,1.125-2.387,1.563-2.826c0.396-0.431,0.901-0.809,1.389-1.175
		C7.282,15.748,8,15.151,8,14c0-1.103-0.904-2-2.015-2c-0.611,0.003-1.053,0.286-1.315,0.521L3,14.026V11.5
		c0-2.154,0.936-4.209,2.566-5.638c1.626-1.425,3.791-2.083,5.939-1.795c3.569,0.472,6.292,3.556,6.484,7.259
		C17.996,11.218,18,11.109,18,11V8c-0.021-1.543,0.438-2.852,1.293-3.707L19.586,4H20c1.349,0,3.325,1.263,3.861,3.062
		C26.764,7.48,29,9.984,29,13v1h-5v1.101c2.279,0.464,4,2.484,4,4.899v1h-5v0.5c0,0.972-0.226,1.928-0.657,2.809
		C23.383,25.249,24,26.593,24,28V29z M12.377,24.53l0.61,0.853C13.42,25.987,14.386,27,16,27h5.825
		c-0.231-0.641-0.685-1.193-1.306-1.564l-0.912-0.544l0.599-0.878C20.726,23.252,21,22.383,21,21.5V19h4.829
		c-0.413-1.164-1.525-2-2.829-2h-1v-3c0-1.103,0.897-2,2-2h2.873C26.429,10.277,24.86,9,23,9h-1V8c0-0.841-0.911-1.638-1.588-1.906
		C20.137,6.567,19.989,7.216,20,7.95V11c0,3.115-2.138,5.561-2.229,5.663L17.474,17h-1.45L16,16v-4.256
		c0-2.887-2.045-5.335-4.757-5.695C9.645,5.841,8.095,6.305,6.885,7.366c-0.832,0.729-1.417,1.679-1.698,2.72
		C5.447,10.03,5.712,10.001,5.98,10C8.199,10,10,11.794,10,14c0,2.21-1.491,3.328-2.688,4.226c-0.436,0.327-0.846,0.635-1.146,0.96
		c-0.26,0.262-0.825,0.909-1.06,1.901c-0.063,0.265-0.098,0.536-0.104,0.808c-0.026,1.017,0.375,2.003,1.129,2.777
		c1.413,1.449,3.797,1.793,5.424,0.508L12.377,24.53z"/>
</g>
</svg>
