<?xml version="1.0" encoding="iso-8859-1"?>
<!-- Generator: Adobe Illustrator 19.0.1, SVG Export Plug-In . SVG Version: 6.00 Build 0)  -->
<svg version="1.1" id="Layer_1" xmlns="http://www.w3.org/2000/svg" xmlns:xlink="http://www.w3.org/1999/xlink" x="0px" y="0px"
	 viewBox="0 0 32 32" style="enable-background:new 0 0 32 32;" xml:space="preserve">
<path id="XMLID_439_" style="fill:none;stroke:#000000;stroke-width:2;stroke-linejoin:round;stroke-miterlimit:10;" d="M26,14.499
	C26,15.882,24.88,17,23.5,17c-1.382,0-2.5-1.118-2.5-2.501C21,13.119,22.118,12,23.5,12C24.88,12,26,13.119,26,14.499z"/>
<path id="XMLID_307_" d="M9.998,22c0.676,0,1.33-0.075,1.975-0.192l6.19-5.263l-1.295-1.523L8.731,21.94
	C9.137,21.975,9.555,22,9.998,22z"/>
<path id="XMLID_286_" d="M13.842,13.016l5.594,6.477c0.737-0.192,1.497-0.336,2.282-0.418l-6.362-7.366
	c-0.683-0.792-1.838-0.924-2.684-0.314l-5.257,3.795l1.17,1.621L13.842,13.016z"/>
<path id="XMLID_438_" style="fill:none;stroke:#000000;stroke-width:2;stroke-linejoin:round;stroke-miterlimit:10;" d="M31,24
	c0,0-3.579-3-8-3c-4.423,0-8.123,3-13.002,3C4.158,24,1,21,1,21"/>
</svg>
