<?xml version="1.0" encoding="iso-8859-1"?>
<!-- Generator: Adobe Illustrator 22.0.1, SVG Export Plug-In . SVG Version: 6.00 Build 0)  -->
<svg version="1.1" id="&#x421;&#x43B;&#x43E;&#x439;_1"
	 xmlns="http://www.w3.org/2000/svg" xmlns:xlink="http://www.w3.org/1999/xlink" x="0px" y="0px" viewBox="0 0 32 32"
	 style="enable-background:new 0 0 32 32;" xml:space="preserve">
<g>
	<path d="M21.321,15.271c0.611-0.477,1.316-0.836,2.083-1.048c-2.101-1.466-4.651-2.33-7.403-2.33c-3.641,0-6.93,1.508-9.289,3.926
		l1.41,1.414c2-2.059,4.793-3.34,7.879-3.34C17.929,13.892,19.743,14.393,21.321,15.271z"/>
	<path d="M27.41,13.698l1.414-1.414C25.559,8.958,21.016,6.893,16,6.893c-5.016,0-9.559,2.066-12.824,5.391l1.414,1.414
		C7.492,10.736,11.535,8.892,16,8.892C20.465,8.892,24.508,10.736,27.41,13.698z"/>
	<path d="M19.014,19.714c0.034-0.712,0.186-1.393,0.448-2.02c-1.049-0.508-2.219-0.802-3.462-0.802
		c-2.262,0-4.301,0.945-5.758,2.461l1.414,1.41c1.094-1.148,2.633-1.871,4.344-1.871C17.101,18.893,18.129,19.195,19.014,19.714z"/>
	<path d="M16,21.893c-0.883,0-1.672,0.391-2.219,0.996L16,25.107V21.893z"/>
</g>
<path d="M23,22v-2c0-1.1,0.9-2,2-2s2,0.9,2,2h2c0-2.2-1.8-4-4-4s-4,1.8-4,4v2h-3v10h14V22H23z M30,30H20v-6h10V30z"/>
</svg>
