<?xml version="1.0" encoding="iso-8859-1"?>
<!-- Generator: Adobe Illustrator 19.1.1, SVG Export Plug-In . SVG Version: 6.00 Build 0)  -->
<svg version="1.1"  xmlns="http://www.w3.org/2000/svg" xmlns:xlink="http://www.w3.org/1999/xlink" x="0px" y="0px"
	 viewBox="0 0 32 32" style="enable-background:new 0 0 32 32;" xml:space="preserve">
<path style="fill:none;stroke:#000000;stroke-width:2;stroke-miterlimit:10;" d="M16,28c-5.523,0-10-3.515-10-10
	c0-6.061,5.065-14,10-14s10,8,10,14C26,24.606,21.523,28,16,28z"/>
<line style="fill:none;stroke:#000000;stroke-width:2;stroke-miterlimit:10;" x1="6" y1="15" x2="26" y2="15"/>
<line style="fill:none;stroke:#000000;stroke-width:2;stroke-miterlimit:10;" x1="7" y1="23" x2="25" y2="23"/>
<circle cx="16" cy="19" r="2"/>
<path d="M7,21c-1.103,0-1-0.897-1-2s-0.103-2,1-2s2,0.897,2,2S8.103,21,7,21z"/>
<path d="M25,21c-1.103,0-2-0.897-2-2s0.897-2,2-2s1,0.897,1,2S26.103,21,25,21z"/>
</svg>
