<?xml version="1.0" encoding="iso-8859-1"?>
<!-- Generator: Adobe Illustrator 19.1.1, SVG Export Plug-In . SVG Version: 6.00 Build 0)  -->
<svg version="1.1" id="Layer_1" xmlns="http://www.w3.org/2000/svg" xmlns:xlink="http://www.w3.org/1999/xlink" x="0px" y="0px"
	 viewBox="0 0 32 32" style="enable-background:new 0 0 32 32;" xml:space="preserve">
<circle cx="12" cy="18" r="1"/>
<circle cx="20" cy="18" r="1"/>
<path d="M18,24c0,0.552-0.895,2-2,2s-2-1.448-2-2s0.895-1,2-1S18,23.448,18,24z"/>
<path style="fill:none;stroke:#000000;stroke-width:2;stroke-miterlimit:10;" d="M9,16c0-3.866,3.134-7,7-7s7,3.134,7,7
	c0,5.042-3.14,12-7.005,12S9,21.125,9,16z"/>
<path style="fill:none;stroke:#000000;stroke-width:2;stroke-miterlimit:10;" d="M22,12h6c0,0-0.083,4-5,4"/>
<path style="fill:none;stroke:#000000;stroke-width:2;stroke-miterlimit:10;" d="M10,12H4c0,0,0.083,4,5,4"/>
<path style="fill:none;stroke:#000000;stroke-width:2;stroke-miterlimit:10;" d="M22,3c0,1.167,0.625,6-6,6h2c5.917,0,9-2,9-6"/>
<path style="fill:none;stroke:#000000;stroke-width:2;stroke-miterlimit:10;" d="M10,3c0,1.167-0.625,6,6,6h-2C8.083,9,5,7,5,3"/>
</svg>
