<?xml version="1.0" encoding="utf-8"?>
<!-- Generator: Adobe Illustrator 18.1.1, SVG Export Plug-In . SVG Version: 6.00 Build 0)  -->
<svg version="1.1" id="Layer_1" xmlns="http://www.w3.org/2000/svg" xmlns:xlink="http://www.w3.org/1999/xlink" x="0px" y="0px"
	 viewBox="0 0 32 32" enable-background="new 0 0 32 32" xml:space="preserve">
<line fill="none" stroke="#000000" stroke-width="2" stroke-miterlimit="10" x1="4" y1="21" x2="15" y2="21"/>
<polyline fill="none" stroke="#000000" stroke-width="2" stroke-miterlimit="10" points="17,11 17,5 4,5 "/>
<polyline fill="none" stroke="#000000" stroke-width="2" stroke-miterlimit="10" points="28,27 15,27 15,11 28,11 "/>
<path fill="none" stroke="#000000" stroke-width="2" stroke-miterlimit="10" d="M21,19c0,0,1.1,0,2.5,0s4.5,0,4.5,0s-3.1,0-4.5,0
	S21,19,21,19z"/>
<polyline fill="none" stroke="#000000" stroke-width="2" stroke-miterlimit="10" points="23.5,22.7 20,19.2 23.5,15.7 "/>
<path fill="none" stroke="#000000" stroke-width="2" stroke-miterlimit="10" d="M11,13c0,0-1.1,0-2.5,0S4,13,4,13s3.1,0,4.5,0
	S11,13,11,13z"/>
<polyline fill="none" stroke="#000000" stroke-width="2" stroke-miterlimit="10" points="8.5,9.5 12,13 8.5,16.5 "/>
</svg>
