<?xml version="1.0" encoding="iso-8859-1"?>
<!-- Generator: Adobe Illustrator 19.1.1, SVG Export Plug-In . SVG Version: 6.00 Build 0)  -->
<svg version="1.1" id="Layer_1" xmlns="http://www.w3.org/2000/svg" xmlns:xlink="http://www.w3.org/1999/xlink" x="0px" y="0px"
	 viewBox="0 0 32 32" style="enable-background:new 0 0 32 32;" xml:space="preserve">
<polyline style="fill:none;stroke:#000000;stroke-width:2;stroke-miterlimit:10;" points="19,6 23,6 23,24 5,24 5,6 9,6 "/>
<path style="fill:none;stroke:#000000;stroke-width:2;stroke-miterlimit:10;" d="M16,6c0-1.105-0.895-2-2-2s-2,0.895-2,2H9v4h10V6
	H16z"/>
<rect x="14" y="15" width="2" height="2"/>
<rect x="18" y="15" width="2" height="2"/>
<rect x="26" y="15" width="2" height="2"/>
<rect x="14" y="19" width="2" height="2"/>
<rect x="14" y="27" width="2" height="2"/>
<rect x="18" y="27" width="2" height="2"/>
<rect x="22" y="27" width="2" height="2"/>
<rect x="26" y="27" width="2" height="2"/>
<rect x="26" y="19" width="2" height="2"/>
<rect x="26" y="23" width="2" height="2"/>
</svg>
