<?xml version="1.0" encoding="iso-8859-1"?>
<!-- Generator: Adobe Illustrator 19.1.1, SVG Export Plug-In . SVG Version: 6.00 Build 0)  -->
<svg version="1.1" id="Layer_1" xmlns="http://www.w3.org/2000/svg" xmlns:xlink="http://www.w3.org/1999/xlink" x="0px" y="0px"
	 viewBox="0 0 32 32" style="enable-background:new 0 0 32 32;" xml:space="preserve">
<rect x="6" y="6" style="fill:none;stroke:#000000;stroke-width:2;stroke-miterlimit:10;" width="20" height="20"/>
<circle cx="16.012" cy="16.5" r="1.5"/>
<path id="XMLID_7090_" style="fill:none;stroke:#000000;stroke-width:2;stroke-miterlimit:10;" d="M10.907,17.486l0.447,0.434
	l-0.096,0.623c-0.376,2.445,2.152,4.27,4.278,3.088l0.542-0.301l0.55,0.286c2.157,1.121,4.635-0.774,4.193-3.207l-0.113-0.62
	l0.436-0.447c1.709-1.752,0.713-4.748-1.687-5.07l-0.611-0.082l-0.28-0.562c-1.101-2.204-4.195-2.16-5.235,0.074l-0.265,0.569
	l-0.609,0.099C10.066,12.76,9.151,15.783,10.907,17.486z"/>
</svg>
