<?xml version="1.0" encoding="iso-8859-1"?>
<!-- Generator: Adobe Illustrator 19.1.0, SVG Export Plug-In . SVG Version: 6.00 Build 0)  -->
<svg version="1.1" id="Layer_1" xmlns="http://www.w3.org/2000/svg" xmlns:xlink="http://www.w3.org/1999/xlink" x="0px" y="0px"
	 viewBox="0 0 32 32" style="enable-background:new 0 0 32 32;" xml:space="preserve">
<line style="fill:none;stroke:#000000;stroke-width:2;stroke-miterlimit:10;" x1="10.621" y1="4" x2="13.433" y2="6.812"/>
<line style="fill:none;stroke:#000000;stroke-width:2;stroke-miterlimit:10;" x1="3" y1="3" x2="29" y2="29"/>
<g>
	<path d="M24.206,25.577C24.085,25.413,24,25.22,24,25.001c0.008-0.306,0.424-1.177,1-2.147c0.576,0.97,0.991,1.841,1,2.147
		C26,25.552,25.551,26,25,26c-0.22,0-0.412-0.085-0.578-0.206l1.89,1.89C27.308,27.196,28,26.181,28,25
		c0-1.278-1.522-3.62-2.177-4.568L25,19.24l-0.823,1.191c-0.467,0.677-1.369,2.062-1.852,3.265L24.206,25.577z"/>
	<polygon points="9.882,11.254 13.172,7.965 21.035,15.828 17.746,19.118 19.16,20.532 23.863,15.828 13.172,5.137 8.468,9.84 	"/>
	<path d="M16.332,20.532l-2.165,2.165c-0.404,0.404-1.064,0.404-1.469,0l-6.395-6.395c-0.405-0.405-0.405-1.063,0-1.469l2.165-2.165
		l-1.414-1.414L4.89,13.419c-1.185,1.185-1.185,3.112,0,4.297l6.395,6.395c0.592,0.593,1.37,0.889,2.148,0.889
		s1.557-0.296,2.148-0.889l2.165-2.165L16.332,20.532z"/>
</g>
</svg>
