<?xml version="1.0" encoding="iso-8859-1"?>
<!-- Generator: Adobe Illustrator 21.1.0, SVG Export Plug-In . SVG Version: 6.00 Build 0)  -->
<svg version="1.1" id="Layer_1" xmlns="http://www.w3.org/2000/svg" xmlns:xlink="http://www.w3.org/1999/xlink" x="0px" y="0px"
	 viewBox="0 0 32 32" style="enable-background:new 0 0 32 32;" xml:space="preserve">
<line style="fill:none;stroke:#000000;stroke-width:2;stroke-miterlimit:10;" x1="11" y1="7" x2="28" y2="7"/>
<line style="fill:none;stroke:#000000;stroke-width:2;stroke-miterlimit:10;" x1="16" y1="16" x2="28" y2="16"/>
<line style="fill:none;stroke:#000000;stroke-width:2;stroke-miterlimit:10;" x1="19" y1="25" x2="28" y2="25"/>
<path style="fill:none;stroke:#000000;stroke-width:2;stroke-miterlimit:10;" d="M7,10V4H6.4c0,0-0.9,1-2,1"/>
<path style="fill:none;stroke:#000000;stroke-width:2;stroke-miterlimit:10;" d="M16,28v-4"/>
<line style="fill:none;stroke:#000000;stroke-width:2;stroke-miterlimit:10;" x1="16" y1="23" x2="16" y2="21"/>
<path style="fill:none;stroke:#000000;stroke-width:2;stroke-miterlimit:10;" d="M10,18L10,18c-1.1,0-2-0.9-2-2v-1c0-1.1,0.9-2,2-2
	h0c1.1,0,2,0.9,2,2v1C12,17.1,11.1,18,10,18z"/>
<path style="fill:none;stroke:#000000;stroke-width:2;stroke-miterlimit:10;" d="M12,12v4c0,1.105,0.895,2,2,2"/>
</svg>
