<?xml version="1.0" encoding="utf-8"?>
<!-- Generator: Adobe Illustrator 18.1.1, SVG Export Plug-In . SVG Version: 6.00 Build 0)  -->
<svg version="1.1" id="Layer_1" xmlns="http://www.w3.org/2000/svg" xmlns:xlink="http://www.w3.org/1999/xlink" x="0px" y="0px"
	 viewBox="0 0 32 32" enable-background="new 0 0 32 32" xml:space="preserve">
<polyline fill="none" stroke="#000000" stroke-width="2" stroke-miterlimit="10" points="19,11 2,11 2,21 19,21 "/>
<polyline fill="none" stroke="#000000" stroke-width="2" stroke-miterlimit="10" points="25,21 30,21 30,11 25,11 "/>
<line fill="none" stroke="#000000" stroke-width="2" stroke-miterlimit="10" x1="22" y1="25.5" x2="22" y2="6.5"/>
<rect x="5" y="14" width="8" height="4"/>
<path fill="none" stroke="#000000" stroke-width="2" stroke-miterlimit="10" d="M17,5c3.2,0,5,1.3,5,2s0,1,0,1"/>
<path fill="none" stroke="#000000" stroke-width="2" stroke-miterlimit="10" d="M27,5c-3.2,0-5,1.3-5,2s0,1,0,1"/>
<path fill="none" stroke="#000000" stroke-width="2" stroke-miterlimit="10" d="M27,27c-3.2,0-5-1.3-5-2s0-1,0-1"/>
<path fill="none" stroke="#000000" stroke-width="2" stroke-miterlimit="10" d="M17,27c3.2,0,5-1.3,5-2s0-1,0-1"/>
</svg>
