<?xml version="1.0" encoding="iso-8859-1"?>
<!-- Generator: Adobe Illustrator 21.0.2, SVG Export Plug-In . SVG Version: 6.00 Build 0)  -->
<svg version="1.1" id="Layer_1" xmlns="http://www.w3.org/2000/svg" xmlns:xlink="http://www.w3.org/1999/xlink" x="0px" y="0px"
	 viewBox="0 0 32 32" style="enable-background:new 0 0 32 32;" xml:space="preserve">
<circle cx="16" cy="9" r="1"/>
<circle cx="25" cy="6" r="1"/>
<circle cx="28" cy="6" r="1"/>
<circle cx="28" cy="9" r="1"/>
<circle cx="28" cy="12" r="1"/>
<circle cx="28" cy="15" r="1"/>
<circle cx="28" cy="18" r="1"/>
<circle cx="28" cy="21" r="1"/>
<circle cx="28" cy="24" r="1"/>
<circle cx="28" cy="27" r="1"/>
<circle cx="25" cy="27" r="1"/>
<circle cx="22" cy="27" r="1"/>
<circle cx="19" cy="27" r="1"/>
<circle cx="16" cy="24" r="1"/>
<circle cx="16" cy="21" r="1"/>
<polygon points="19,15 16,18 16,12 "/>
<polygon style="fill:none;stroke:#000000;stroke-width:2;stroke-linecap:round;stroke-miterlimit:10;" points="4,27 4,6 16,6 
	21.875,3 22,3 22,24 16,27 "/>
<path style="fill:none;stroke:#000000;stroke-width:2;stroke-miterlimit:10;" d="M10,22v-5c0-1.105,0.895-2,2-2h5"/>
</svg>
