<?xml version="1.0" encoding="iso-8859-1"?>
<!-- Generator: Adobe Illustrator 19.1.1, SVG Export Plug-In . SVG Version: 6.00 Build 0)  -->
<svg version="1.1" id="Layer_1" xmlns="http://www.w3.org/2000/svg" xmlns:xlink="http://www.w3.org/1999/xlink" x="0px" y="0px"
	 viewBox="0 0 32 32" style="enable-background:new 0 0 32 32;" xml:space="preserve">
<circle style="fill:none;stroke:#000000;stroke-width:2;stroke-miterlimit:10;" cx="9" cy="13" r="5"/>
<path style="fill:none;stroke:#000000;stroke-width:2;stroke-miterlimit:10;" d="M2,25c0-3.866,3.134-7,7-7s7,3.134,7,7"/>
<circle style="fill:none;stroke:#000000;stroke-width:2;stroke-miterlimit:10;" cx="24" cy="24" r="7"/>
<g>
	<path d="M17,24c0-3.866,3.134-7,7-7c1.006,0,1.96,0.216,2.825,0.598C28.147,16.497,29,14.851,29,13c0-3.309-2.691-6-6-6
		s-6,2.691-6,6c0,1.985,0.973,3.743,2.463,4.835C16.823,19.144,15,21.86,15,25h2c0-0.169,0.012-0.334,0.025-0.499
		C17.013,24.335,17,24.169,17,24z M19,13c0-2.206,1.794-4,4-4s4,1.794,4,4s-1.794,4-4,4S19,15.206,19,13z"/>
	<path d="M30.92,25H31c0-0.14-0.023-0.273-0.03-0.411C30.959,24.727,30.94,24.864,30.92,25z"/>
</g>
<line style="fill:none;stroke:#000000;stroke-width:2;stroke-miterlimit:10;" x1="24" y1="28" x2="24" y2="20"/>
<line style="fill:none;stroke:#000000;stroke-width:2;stroke-miterlimit:10;" x1="20" y1="24" x2="28" y2="24"/>
</svg>
