<?xml version="1.0" encoding="iso-8859-1"?>
<!-- Generator: Adobe Illustrator 19.2.0, SVG Export Plug-In . SVG Version: 6.00 Build 0)  -->
<svg version="1.1" id="Layer_1" xmlns="http://www.w3.org/2000/svg" xmlns:xlink="http://www.w3.org/1999/xlink" x="0px" y="0px"
	 viewBox="0 0 32 32" style="enable-background:new 0 0 32 32;" xml:space="preserve">
<rect x="10" y="19" style="fill:none;stroke:#000000;stroke-width:2;stroke-miterlimit:10;" width="12" height="8"/>
<rect x="10" y="6" style="fill:none;stroke:#000000;stroke-width:2;stroke-miterlimit:10;" width="12" height="8"/>
<line style="fill:none;stroke:#000000;stroke-width:2;stroke-miterlimit:10;" x1="25" y1="6" x2="27" y2="6"/>
<line style="fill:none;stroke:#000000;stroke-width:2;stroke-miterlimit:10;" x1="25" y1="10" x2="27" y2="10"/>
<line style="fill:none;stroke:#000000;stroke-width:2;stroke-miterlimit:10;" x1="25" y1="14" x2="27" y2="14"/>
<line style="fill:none;stroke:#000000;stroke-width:2;stroke-miterlimit:10;" x1="5" y1="19" x2="27" y2="19"/>
<line style="fill:none;stroke:#000000;stroke-width:2;stroke-miterlimit:10;" x1="5" y1="6" x2="7" y2="6"/>
<line style="fill:none;stroke:#000000;stroke-width:2;stroke-miterlimit:10;" x1="5" y1="10" x2="7" y2="10"/>
<line style="fill:none;stroke:#000000;stroke-width:2;stroke-miterlimit:10;" x1="5" y1="14" x2="7" y2="14"/>
<path d="M19.5,18.5c0,1.933-1.567,3.5-3.5,3.5s-3.5-1.567-3.5-3.5H19.5z"/>
<ellipse cx="16" cy="24" rx="1.5" ry="1"/>
<path d="M22,27h-3c0-1.657,1.343-3,3-3V27z"/>
<path d="M10,27v-3c1.657,0,3,1.343,3,3H10z"/>
</svg>
