<?xml version="1.0" encoding="utf-8"?>
<!-- Generator: Adobe Illustrator 18.0.0, SVG Export Plug-In . SVG Version: 6.00 Build 0)  -->
<svg version="1.1" id="Layer_1" xmlns="http://www.w3.org/2000/svg" xmlns:xlink="http://www.w3.org/1999/xlink" x="0px" y="0px"
	 viewBox="0 0 32 32" enable-background="new 0 0 32 32" xml:space="preserve">
<line fill="none" stroke="#000000" stroke-width="2" stroke-miterlimit="10" x1="0" y1="20" x2="10" y2="20"/>
<line fill="none" stroke="#000000" stroke-width="2" stroke-miterlimit="10" x1="0" y1="12" x2="10" y2="12"/>
<path fill="none" stroke="#000000" stroke-width="2" stroke-miterlimit="10" d="M16,22c1.1,0,2,0.9,2,2h10c1.7,0,3-1.3,3-3V11
	c0-1.7-1.3-3-3-3H18c0,1.1-0.9,2-2,2c-1.1,0-2-0.9-2-2h-4v16h4C14,22.9,14.9,22,16,22z"/>
<line fill="none" stroke="#000000" stroke-width="2" stroke-miterlimit="10" x1="18" y1="24" x2="18" y2="8"/>
<line fill="none" stroke="#000000" stroke-width="2" stroke-miterlimit="10" x1="14" y1="24" x2="14" y2="8"/>
</svg>
