<?xml version="1.0" encoding="iso-8859-1"?>
<!-- Generator: Adobe Illustrator 21.0.0, SVG Export Plug-In . SVG Version: 6.00 Build 0)  -->
<svg version="1.1" id="Layer_1" xmlns="http://www.w3.org/2000/svg" xmlns:xlink="http://www.w3.org/1999/xlink" x="0px" y="0px"
	 viewBox="0 0 32 32" style="enable-background:new 0 0 32 32;" xml:space="preserve">
<path style="fill:none;stroke:#000000;stroke-width:2;stroke-miterlimit:10;" d="M13,20c0,0-3,4-6,8c5,2,11,0,11,0v-4
	c0,0,7.5-0.5,8-6c0.181-1.992-1-5-1-5h3c0,0-0.786-1.484-1-2c2-3-2-6-5-2c-0.849,1.131-5,6-5,6"/>
<path style="fill:none;stroke:#000000;stroke-width:2;stroke-miterlimit:10;" d="M17.594,14.031C17.594,14.031,10,11,9,3
	C3,5,7,9,7,9s-3,1-2,4c0.707,2.121,3,2,3,2s-1,3,1.125,4.375C11.208,20.723,15,20,15,20"/>
<path style="fill:none;stroke:#000000;stroke-width:2;stroke-miterlimit:10;" d="M20,11c0,0-2-2-2-8c-4,0-3,4-3,4s-3,1-2,4"/>
</svg>
