<?xml version="1.0" encoding="iso-8859-1"?>
<!-- Generator: Adobe Illustrator 19.1.1, SVG Export Plug-In . SVG Version: 6.00 Build 0)  -->
<svg version="1.1" id="Layer_1" xmlns="http://www.w3.org/2000/svg" xmlns:xlink="http://www.w3.org/1999/xlink" x="0px" y="0px"
	 viewBox="0 0 32 32" style="enable-background:new 0 0 32 32;" xml:space="preserve">
<path style="fill:none;stroke:#000000;stroke-width:2;stroke-miterlimit:10;" d="M7,19c-0.512,0-1.024-0.195-1.414-0.586
	c-0.781-0.781-0.781-2.047,0-2.828l1-1c0.78-0.781,2.048-0.781,2.828,0c0.781,0.781,0.781,2.047,0,2.828l-1,1
	C8.024,18.805,7.512,19,7,19z"/>
<path style="fill:none;stroke:#000000;stroke-width:2;stroke-miterlimit:10;" d="M10,22c-0.512,0-1.024-0.195-1.414-0.586
	c-0.781-0.781-0.781-2.047,0-2.828l1-1c0.78-0.781,2.048-0.781,2.828,0c0.781,0.781,0.781,2.047,0,2.828l-1,1
	C11.024,21.805,10.512,22,10,22z"/>
<path style="fill:none;stroke:#000000;stroke-width:2;stroke-miterlimit:10;" d="M13,25c-0.512,0-1.024-0.195-1.414-0.586
	c-0.781-0.781-0.781-2.047,0-2.828l1-1c0.78-0.781,2.048-0.781,2.828,0c0.781,0.781,0.781,2.047,0,2.828l-1,1
	C14.024,24.805,13.512,25,13,25z"/>
<path style="fill:none;stroke:#000000;stroke-width:2;stroke-miterlimit:10;" d="M16,28c-0.512,0-1.024-0.195-1.414-0.586
	c-0.781-0.781-0.781-2.047,0-2.828l1-1c0.78-0.781,2.048-0.781,2.828,0c0.781,0.781,0.781,2.047,0,2.828l-1,1
	C17.024,27.805,16.512,28,16,28z"/>
<path style="fill:none;stroke:#000000;stroke-width:2;stroke-miterlimit:10;" d="M20.987,21.137C21.998,22.148,22.488,22,23,22
	s1.024-0.195,1.414-0.586c0.781-0.781,0.781-2.047,0-2.828L21,15"/>
<path style="fill:none;stroke:#000000;stroke-width:2;stroke-miterlimit:10;" d="M18.994,24.729C19.304,24.91,19.652,25,20,25
	c0.512,0,1.024-0.195,1.414-0.586c0.781-0.781,0.781-2.047,0-2.828L18,18"/>
<path style="fill:none;stroke:#000000;stroke-width:2;stroke-miterlimit:10;" d="M24.21,18.372c0.54,0.628,2.165,1.17,3.204,0.043
	c0.748-0.812,0.781-2.047,0-2.828l-5.731-5.864c-0.931-0.953-2.457-0.976-3.417-0.052l-2.852,2.745C15.024,12.805,14.512,13,14,13
	s-1.024-0.195-1.414-0.586c-0.781-0.781-0.781-2.047,0-2.828L16.295,6c1.585-1.585,3.49-1.945,5.237-1.994
	c3.853-0.107,7.267,2.786,7.459,6.636c0.088,1.759-0.475,3.385-1.468,4.659"/>
<path style="fill:none;stroke:#000000;stroke-width:2;stroke-miterlimit:10;" d="M15.705,6c-1.585-1.585-3.49-1.945-5.237-1.994
	c-3.853-0.107-7.267,2.786-7.459,6.636c-0.088,1.759,0.475,3.385,1.468,4.659l0.706,0.873"/>
</svg>
