<?xml version="1.0" encoding="iso-8859-1"?>
<!-- Generator: Adobe Illustrator 19.1.1, SVG Export Plug-In . SVG Version: 6.00 Build 0)  -->
<svg version="1.1" id="Layer_1" xmlns="http://www.w3.org/2000/svg" xmlns:xlink="http://www.w3.org/1999/xlink" x="0px" y="0px"
	 viewBox="0 0 32 32" style="enable-background:new 0 0 32 32;" xml:space="preserve">
<polygon style="fill:none;stroke:#000000;stroke-width:2;stroke-miterlimit:10;" points="14,22 14,27 10,27 10,22 5,22 5,18 10,18 
	10,14 5,14 5,10 10,10 10,5 14,5 14,10 18,10 18,5 22,5 22,10 27,10 27,14 22,14 22,18 27,18 27,22 22,22 22,27 18,27 18,22 "/>
<rect x="14" y="14" style="fill:none;stroke:#000000;stroke-width:2;stroke-miterlimit:10;" width="4" height="4"/>
</svg>
