<?xml version="1.0" encoding="iso-8859-1"?>
<!-- Generator: Adobe Illustrator 21.0.0, SVG Export Plug-In . SVG Version: 6.00 Build 0)  -->
<svg version="1.1"  xmlns="http://www.w3.org/2000/svg" xmlns:xlink="http://www.w3.org/1999/xlink" x="0px" y="0px"
	 viewBox="0 0 32 32" style="enable-background:new 0 0 32 32;" xml:space="preserve">
<path d="M11.717,28.264c-0.919-0.321-1.801-0.746-2.622-1.262l1.065-1.692c0.693,0.436,1.439,0.795,2.217,1.067L11.717,28.264z"/>
<path d="M6.813,25.197c-0.664-0.663-1.272-1.43-1.808-2.281l1.692-1.065c0.456,0.724,0.97,1.374,1.528,1.931L6.813,25.197z"/>
<path d="M3.741,20.296c-0.328-0.936-0.548-1.891-0.654-2.837l1.987-0.223c0.089,0.797,0.275,1.604,0.554,2.397L3.741,20.296z"/>
<path d="M5.073,14.771L3.085,14.55c0.105-0.944,0.324-1.898,0.652-2.836l1.888,0.659C5.347,13.169,5.162,13.977,5.073,14.771z"/>
<path d="M6.694,10.156L5,9.091C5.536,8.24,6.144,7.472,6.806,6.809l1.415,1.414C7.664,8.78,7.15,9.431,6.694,10.156z"/>
<path d="M10.153,6.695L9.087,5.003c0.821-0.517,1.703-0.942,2.621-1.264l0.661,1.888C11.592,5.899,10.847,6.258,10.153,6.695z"/>
<path d="M16,29c-0.46,0-0.934-0.028-1.446-0.085l0.222-1.987C15.214,26.976,15.614,27,16,27c6.065,0,11-4.935,11-11S22.065,5,16,5
	c-0.387,0-0.79,0.024-1.232,0.073l-0.222-1.987C15.063,3.028,15.538,3,16,3c7.168,0,13,5.832,13,13S23.168,29,16,29z"/>
<polyline style="fill:none;stroke:#000000;stroke-width:2;stroke-miterlimit:10;" points="22,12 15,20 10,16 "/>
</svg>
