<?xml version="1.0" encoding="iso-8859-1"?>
<!-- Generator: Adobe Illustrator 19.1.0, SVG Export Plug-In . SVG Version: 6.00 Build 0)  -->
<svg version="1.1" id="Layer_1" xmlns="http://www.w3.org/2000/svg" xmlns:xlink="http://www.w3.org/1999/xlink" x="0px" y="0px"
	 viewBox="0 0 32 32" style="enable-background:new 0 0 32 32;" xml:space="preserve">
<circle cx="6" cy="9" r="2"/>
<path style="fill:none;stroke:#000000;stroke-width:2;stroke-linejoin:round;stroke-miterlimit:10;" d="M16,16c0,1.657-1.343,3-3,3
	s-3-1.343-3-3"/>
<path style="fill:none;stroke:#000000;stroke-width:2;stroke-linejoin:round;stroke-miterlimit:10;" d="M16,21c0,1.657-1.343,3-3,3
	s-3-1.343-3-3"/>
<path style="fill:none;stroke:#000000;stroke-width:2;stroke-linejoin:round;stroke-miterlimit:10;" d="M22,21c0,1.657-1.343,3-3,3
	s-3-1.343-3-3"/>
<line style="fill:none;stroke:#000000;stroke-width:2;stroke-miterlimit:10;" x1="7" y1="9" x2="26" y2="9"/>
<g>
	<path d="M20.832,16.797C20.523,17.504,19.819,18,19,18c-1.103,0-2-0.897-2-2h-2c0,2.206,1.794,4,4,4c0.732,0,1.409-0.212,2-0.556
		V26H11V14.444C11.591,14.788,12.268,15,13,15c1.201,0,2.266-0.542,3-1.382C16.734,14.458,17.799,15,19,15
		c0.011,0,0.022-0.002,0.033-0.002L15.035,11H15c0,1.103-0.897,2-2,2s-2-0.897-2-2V9H9v19h14v-9.035L20.832,16.797z"/>
</g>
<circle cx="26" cy="18" r="2"/>
<g>
	<polygon points="16.414,7 13.411,3.996 11.997,5.41 13.586,7 	"/>
	<polygon points="18.414,9 15.586,9 26.243,19.657 27.657,18.243 	"/>
</g>
</svg>
