<?xml version="1.0" encoding="iso-8859-1"?>
<!-- Generator: Adobe Illustrator 22.0.1, SVG Export Plug-In . SVG Version: 6.00 Build 0)  -->
<svg version="1.1" id="&#x421;&#x43B;&#x43E;&#x439;_1"
	 xmlns="http://www.w3.org/2000/svg" xmlns:xlink="http://www.w3.org/1999/xlink" x="0px" y="0px" viewBox="0 0 32 32"
	 style="enable-background:new 0 0 32 32;" xml:space="preserve">
<g>
	<circle style="fill:none;stroke:#000000;stroke-width:2;stroke-miterlimit:10;" cx="25" cy="25" r="2"/>
	<path style="fill:none;stroke:#000000;stroke-width:2;stroke-miterlimit:10;" d="M28.817,29.63C27.779,30.486,26.45,31,25,31
		c-3.314,0-6-2.686-6-6s2.686-6,6-6s6,2.686,6,6"/>
	<path style="fill:none;stroke:#000000;stroke-width:2;stroke-miterlimit:10;" d="M30.999,24.938C31,24.958,31,24.979,31,25
		c0,1.105-0.895,2-2,2s-2-0.895-2-2"/>
</g>
<line style="fill:none;stroke:#000000;stroke-width:2;stroke-miterlimit:10;" x1="9" y1="23" x2="16" y2="23"/>
<path style="fill:none;stroke:#000000;stroke-width:2;stroke-miterlimit:10;" d="M11,5v4c0,1.102,0.898,2,2,2c1.102,0,2-0.898,2-2"
	/>
<path style="fill:none;stroke:#000000;stroke-width:2;stroke-miterlimit:10;" d="M15,5v4c0,1.102,0.898,2,2,2s2-0.898,2-2"/>
<path style="fill:none;stroke:#000000;stroke-width:2;stroke-miterlimit:10;" d="M19,5v4c0,1.102,0.898,2,2,2c1.102,0,2-0.898,2-2"
	/>
<path style="fill:none;stroke:#000000;stroke-width:2;stroke-miterlimit:10;" d="M16,27h-5c-1.105,0-2-0.895-2-2V7
	c0-1.105,0.895-2,2-2h10c1.105,0,2,0.895,2,2v9"/>
</svg>
