<?xml version="1.0" encoding="utf-8"?>
<!-- Generator: Adobe Illustrator 18.1.1, SVG Export Plug-In . SVG Version: 6.00 Build 0)  -->
<svg version="1.1" id="Layer_1" xmlns="http://www.w3.org/2000/svg" xmlns:xlink="http://www.w3.org/1999/xlink" x="0px" y="0px"
	 viewBox="0 0 32 32" enable-background="new 0 0 32 32" xml:space="preserve">
<path fill="none" stroke="#000000" stroke-width="2" stroke-miterlimit="10" d="M27,14V7c0-1.1-0.9-2-2-2H7C5.9,5,5,5.9,5,7v7"/>
<polygon points="10,12 8,12 7,16 9,16 "/>
<polygon points="13.8,12 11.8,12 10.8,16 12.8,16 "/>
<polygon points="17.5,12 15.5,12 14.5,16 16.5,16 "/>
<polygon points="21.2,12 19.2,12 18.2,16 20.2,16 "/>
<polygon points="25,12 23,12 22,16 24,16 "/>
<path fill="none" stroke="#000000" stroke-width="2" stroke-miterlimit="10" d="M10,20v6h6.3c0.3-0.6,1-1,1.7-1s1.4,0.4,1.7,1H22v-6
	H10z"/>
<circle cx="14" cy="23" r="1"/>
</svg>
