<?xml version="1.0" encoding="iso-8859-1"?>
<!-- Generator: Adobe Illustrator 19.1.0, SVG Export Plug-In . SVG Version: 6.00 Build 0)  -->
<svg version="1.1" id="Layer_1" xmlns="http://www.w3.org/2000/svg" xmlns:xlink="http://www.w3.org/1999/xlink" x="0px" y="0px"
	 viewBox="0 0 32 32" style="enable-background:new 0 0 32 32;" xml:space="preserve">
<rect x="6" y="6" style="fill:none;stroke:#000000;stroke-width:2;stroke-miterlimit:10;" width="20" height="20"/>
<polygon points="22,9 19.586,9 10,23 12.414,23 "/>
<path style="fill:none;stroke:#000000;stroke-width:2;stroke-miterlimit:10;" d="M20,17L20,17c-1.105,0-2,0.895-2,2v1
	c0,1.105,0.895,2,2,2h0c1.105,0,2-0.895,2-2v-1C22,17.895,21.105,17,20,17z"/>
<path style="fill:none;stroke:#000000;stroke-width:2;stroke-miterlimit:10;" d="M12,10L12,10c-1.105,0-2,0.895-2,2v1
	c0,1.105,0.895,2,2,2h0c1.105,0,2-0.895,2-2v-1C14,10.895,13.105,10,12,10z"/>
</svg>
