<?xml version="1.0" encoding="UTF-8" standalone="no"?><!DOCTYPE svg PUBLIC "-//W3C//DTD SVG 1.1//EN" "http://www.w3.org/Graphics/SVG/1.1/DTD/svg11.dtd"><svg width="100%" height="100%" viewBox="0 0 32 32" version="1.1" xmlns="http://www.w3.org/2000/svg" xmlns:xlink="http://www.w3.org/1999/xlink" xml:space="preserve" style="fill-rule:evenodd;clip-rule:evenodd;stroke-linejoin:round;stroke-miterlimit:1.41421;"><g ><path d="M12,8c-1.105,0 -2,0.447 -2,1c0,0.553 0.895,1 2,1c1.105,0 2,-0.447 2,-1c0,-0.553 -0.895,-1 -2,-1Z" style="fill-rule:nonzero;"/><path d="M5.011,8.667c0,-2.024 3.137,-3.667 7,-3.667c3.864,0 7,1.643 7,3.667c0,0 0,14.666 0,14.666c0,2.024 -3.136,3.667 -7,3.667c-3.863,0 -7,-1.643 -7,-3.667l0,-14.666Zm1.989,0.333c0,0.694 0,14.208 0,14.208c0,0.931 2.337,1.959 5.011,1.959c2.675,0 4.989,-0.928 4.989,-1.834l0,-14.333c0,-0.931 -2.314,-2.167 -4.989,-2.167c-2.674,0 -5.011,1.264 -5.011,2.167Z"/><path d="M24.89,9.062c2.546,3.589 3.436,7.014 3.61,11.188c0.053,1.277 -0.28,4.477 -1.763,4.75c-1.281,0.236 -3.628,-2.213 -3.993,-2.849c-0.54,-0.939 -1.038,-1.925 -1.353,-2.977l1.726,-2.391l-0.783,-1.621l-1.996,0.802c-0.079,-0.382 -0.172,-0.763 -0.212,-1.152c-0.118,-1.137 -0.133,-2.167 -0.126,-3.312c0.004,-0.591 -0.064,-5.062 1.564,-5.234c0.971,0.027 2.643,1.834 3.326,2.796Zm-2.749,-0.257c-0.995,0.936 -0.204,4.361 -0.204,4.361l1.386,-0.557l2.114,4.378c0,0 -1.414,1.473 -1.937,2.513c1.118,2.586 3,3.571 3,3.571c1.591,-6.831 -3.444,-14.641 -4.354,-14.287c-0.002,0.007 -0.005,0.021 -0.005,0.021Z" style="fill-rule:nonzero;"/><path d="M18.765,17.994c0.146,0.321 0.224,0.659 0.224,1.006c0,2.208 -3.134,4 -6.995,4c-3.86,0 -6.994,-1.792 -6.994,-4c0,-0.343 0.076,-0.676 0.218,-0.994c0.781,1.721 3.518,2.994 6.771,2.994c3.26,0 6.003,-1.279 6.776,-3.006Z"/><path d="M18.765,13c0.146,0.322 0.224,0.659 0.224,1.006c0,2.208 -3.134,4 -6.995,4c-3.86,0 -6.994,-1.792 -6.994,-4c0,-0.343 0.076,-0.676 0.218,-0.994c0.781,1.722 3.518,2.994 6.771,2.994c3.26,0 6.003,-1.278 6.776,-3.006Z"/><path d="M23.217,24.355l-2.172,2.164l-0.028,-0.068l-0.031,-0.078l-0.07,-0.184l-0.08,-0.216l-0.087,-0.241l-0.093,-0.26l-0.096,-0.273l-0.097,-0.28l-0.096,-0.28l-0.182,-0.535l-0.156,-0.46l-0.165,-0.496l2.717,-0.077l0.636,1.284Z"/><path d="M5.011,9.5c0,1.381 3.134,3.5 7,3.5c3.866,0 7,-2.119 7,-3.5l-2,-0.5c0,0.475 -0.984,2.006 -5,2c-4.015,-0.006 -5,-1.512 -5,-2l-2,0.5Z"/></g></svg>