<?xml version="1.0" encoding="iso-8859-1"?>
<!-- Generator: Adobe Illustrator 19.0.1, SVG Export Plug-In . SVG Version: 6.00 Build 0)  -->
<svg version="1.1" id="Layer_1" xmlns="http://www.w3.org/2000/svg" xmlns:xlink="http://www.w3.org/1999/xlink" x="0px" y="0px"
	 viewBox="0 0 32 32" style="enable-background:new 0 0 32 32;" xml:space="preserve">
<path id="XMLID_239_" style="fill:none;stroke:#000000;stroke-width:2;stroke-miterlimit:10;" d="M20.053,14.895
	c0,0,1.667-1.667,1.842-1.842c0.814-0.814,0.814-2.134,0-2.947c-0.814-0.814-2.134-0.814-2.947,0
	c-0.139,0.139-1.842,1.842-1.842,1.842"/>
<path id="XMLID_237_" style="fill:none;stroke:#000000;stroke-width:2;stroke-miterlimit:10;" d="M11.947,17.105
	c0,0-1.667,1.667-1.842,1.842c-0.814,0.814-0.814,2.133,0,2.947c0.814,0.814,2.134,0.814,2.947,0
	c0.175-0.175,1.842-1.842,1.842-1.842"/>
<path id="XMLID_240_" style="fill:none;stroke:#000000;stroke-width:2;stroke-miterlimit:10;" d="M22.264,17.105
	c0.928-0.928,1.771-1.771,2.21-2.21c2.035-2.035,2.035-5.334,0-7.369c-2.035-2.035-5.334-2.035-7.369,0
	c-0.439,0.439-2.21,2.21-2.21,2.21"/>
<path id="XMLID_238_" style="fill:none;stroke:#000000;stroke-width:2;stroke-miterlimit:10;" d="M9.737,14.895
	c0,0-1.772,1.772-2.211,2.211c-2.035,2.035-2.035,5.334,0,7.369c2.035,2.035,5.334,2.035,7.369,0
	c0.439-0.439,1.283-1.283,2.211-2.211"/>
<path id="XMLID_242_" style="fill:none;stroke:#000000;stroke-width:2;stroke-miterlimit:10;" d="M12,10l10,10l1.172,1.172
	C24.983,22.983,26,25.439,26,28v0"/>
<line id="XMLID_245_" style="fill:none;stroke:#000000;stroke-width:2;stroke-miterlimit:10;" x1="10" y1="12" x2="20" y2="22"/>
</svg>
