<?xml version="1.0" encoding="iso-8859-1"?>
<!-- Generator: Adobe Illustrator 19.2.0, SVG Export Plug-In . SVG Version: 6.00 Build 0)  -->
<svg version="1.1" xmlns="http://www.w3.org/2000/svg" xmlns:xlink="http://www.w3.org/1999/xlink" x="0px" y="0px"
	 viewBox="0 0 32 32" style="enable-background:new 0 0 32 32;" xml:space="preserve">
<g >
	<g>
		<path d="M25.07,18.5c0,0.36,0.122,0.48,0.183,0.6c0.172,0.229,1.009,1.5,1.009,1.5c0.026,0.061,0.061,0.12,0.061,0.18
			c0,0.24-0.183,0.42-0.365,0.42c0,0-2.835,0-2.896,0c-0.106,0-0.186-0.025-0.256-0.061c-0.053-0.056-0.096-0.101-0.133-0.139
			C23.402,20.666,24,19.941,24,19.1c0-1.155-0.959-2.1-2.13-2.1h-0.243h-1.983h-1.035H18v6h0.609h1.217l0,0c0,0,0-1.275,0-1.87
			c0.399,0.374,1.178,1.269,1.652,1.69c0.061,0.06,0.243,0.18,0.487,0.18c0.183,0,5.27,0,5.574,0C28.33,23,29,22.46,29,21.56
			c0-0.36-0.122-0.48-0.183-0.6l-0.929-1.5c-0.02-0.041-0.061-0.12-0.061-0.18c0-0.24,0.183-0.48,0.365-0.48H30v-0.6v-0.6V17
			c0,0-2.922,0-3.47,0C25.739,17,25.07,17.66,25.07,18.5z M19.826,18.8h1.739c0.168,0,0.304,0.134,0.304,0.3
			c0,0.166-0.136,0.3-0.304,0.3h-1.739V18.8z"/>
	</g>
	<path d="M27.322,13.2c-0.139,0-0.236-0.041-0.318-0.097c-0.039-0.037-0.066-0.06-0.097-0.088C27.65,12.687,28,11.952,28,11.1
		C28,9.945,27.041,9,25.87,9h-0.304h-2.87h-0.609v6h0.609h1.217l0,0c0,0,0-1.275,0-1.867c0.4,0.376,1.351,1.267,1.825,1.687
		c0.061,0.06,0.243,0.18,0.487,0.18C26.407,15,30,15,30,15v-0.6v-0.6v-0.6H27.322z M23.913,10.8h1.652
		c0.168,0,0.304,0.134,0.304,0.3c0,0.166-0.136,0.3-0.304,0.3h-1.652V10.8z"/>
	<path d="M5.652,15c0.849,0,1.555,0,1.704,0c0.791,0,1.461-0.6,1.461-1.44c0-0.36-0.122-0.48-0.183-0.6L7.62,11.4
		c-0.035-0.045-0.061-0.12-0.061-0.18c0-0.24,0.183-0.42,0.426-0.42H11V15h2v-4.2h2V9c0,0-8.009,0-8.557,0
		c-0.791,0-1.4,0.6-1.4,1.44c0,0.36,0.122,0.48,0.183,0.6c0.169,0.304,0.948,1.56,0.948,1.56c0.042,0.059,0.049,0.101,0.061,0.18
		c0.061,0.24-0.122,0.42-0.365,0.42H2V15c0,0,0.241,0,0.609,0C2.609,15,4.077,15,5.652,15z"/>
	<path d="M18.889,9h-1.752h-0.5l-1.961,6h0.5h0.639h0.822l0.355-1h2.059l0.355,1h0.396h1.116h0.406l-2.029-6H18.889z M17.354,13
		l0.663-1.96L18.786,13H17.354z"/>
	<path d="M14.565,17h-1.752h-0.5l-1.961,6h0.5h0.639h0.822l0.355-1h2.059l0.355,1h0.396h1.116H17l-2.029-6H14.565z M13.03,21
		l0.663-1.96L14.462,21H13.03z"/>
	<polygon points="8.072,17 7.362,19.274 6.591,17 6,17 5.409,17 4.638,19.274 3.928,17 2,17 4.029,23 5.271,23 6,20.604 6.729,23 
		7.971,23 10,17 	"/>
	<rect x="16" y="12.2" width="4.042" height="1.8"/>
	<rect x="11.958" y="20.2" width="4.042" height="1.8"/>
</g>
<g >
</g>
</svg>
