<?xml version="1.0" encoding="iso-8859-1"?>
<!-- Generator: Adobe Illustrator 19.1.0, SVG Export Plug-In . SVG Version: 6.00 Build 0)  -->
<svg version="1.1" id="Layer_1" xmlns="http://www.w3.org/2000/svg" xmlns:xlink="http://www.w3.org/1999/xlink" x="0px" y="0px"
	 viewBox="0 0 32 32" style="enable-background:new 0 0 32 32;" xml:space="preserve">
<line style="fill:none;stroke:#000000;stroke-width:2;stroke-miterlimit:10;" x1="3" y1="3" x2="29" y2="29"/>
<line style="fill:none;stroke:#000000;stroke-miterlimit:10;" x1="7.857" y1="11.857" x2="18.643" y2="22.643"/>
<line style="fill:none;stroke:#000000;stroke-miterlimit:10;" x1="5.643" y1="13.643" x2="14.786" y2="22.786"/>
<path d="M18.828,18.828l-5.657-5.657c1.562-1.562,4.095-1.562,5.657,0C20.391,14.734,20.391,17.266,18.828,18.828z"/>
<g>
	<path d="M18.385,21.671C17.614,21.874,16.817,22,16,22c-4.463,0-9.229-4.477-10.753-6.036c0.681-0.768,2.083-2.223,3.926-3.504
		l-1.437-1.437c-2.678,1.926-4.398,4.09-4.525,4.252L3,15.546v0.933l0.25,0.283C3.512,17.058,9.719,24,16,24
		c1.399,0,2.735-0.284,3.985-0.729L18.385,21.671z"/>
	<path d="M28.762,15.241C28.51,14.945,22.523,8,16,8c-2.412,0-4.637,0.827-6.541,1.917l1.471,1.471C12.461,10.579,14.185,10,16,10
		c4.647,0,9.291,4.467,10.761,6.017c-0.944,1.067-3.293,3.488-6.3,4.902l1.492,1.492c3.978-2.081,6.676-5.491,6.836-5.697L29,16.443
		v-0.922L28.762,15.241z"/>
</g>
</svg>
