<?xml version="1.0" encoding="utf-8"?>
<!-- Generator: Adobe Illustrator 18.0.0, SVG Export Plug-In . SVG Version: 6.00 Build 0)  -->
<svg version="1.1" id="Layer_1" xmlns="http://www.w3.org/2000/svg" xmlns:xlink="http://www.w3.org/1999/xlink" x="0px" y="0px"
	 viewBox="0 0 32 32" enable-background="new 0 0 32 32" xml:space="preserve">
<g>
	<path d="M16,10c-1.1,0-2.1,0.2-3,0.7c0.1,0.7,0.4,1.3,1,1.7c0.6-0.3,1.3-0.4,1.9-0.4s1.3,0.1,1.9,0.4c0.6-0.4,1-1,1-1.7
		C18.1,10.2,17.1,10,16,10z"/>
	<path d="M23,17.6c-0.3-0.1-0.6-0.2-0.9-0.2c-0.4,0-0.8,0.1-1.1,0.3C20.8,19,20.1,20.2,19,21c0,0.1,0,0.3,0,0.4
		c0.1,0.6,0.5,1.1,0.9,1.4C21.7,21.6,22.8,19.7,23,17.6z"/>
	<path d="M12.9,21.3c0-0.1,0-0.2,0-0.4c-1-0.8-1.7-1.9-1.9-3.3c-0.7-0.3-1.4-0.4-2-0.1c0.2,2.1,1.3,4,3,5.2
		C12.5,22.4,12.8,21.9,12.9,21.3z"/>
</g>
<path d="M25.1,14.2c-0.9-0.5-1.9-0.8-2.9-0.8c0.5-0.9,0.7-1.8,0.7-2.9c0-2.8-1.9-5.2-4.7-6.1l-0.6,1.9c2,0.6,3.3,2.3,3.3,4.2
	c0,2.5-2.2,4.5-5,4.5s-5-2-5-4.5c0-1.9,1.3-3.6,3.3-4.2l-0.6-1.9C10.9,5.3,9,7.7,9,10.5c0,1,0.3,2,0.7,2.9c-1,0-2,0.3-2.9,0.8
	c-2.4,1.4-3.6,4.2-3,7.1l2-0.4c-0.4-2,0.4-4,2-5c2.1-1.2,5-0.3,6.4,2.1c0.7,1.2,0.9,2.5,0.6,3.8c-0.3,1.2-1,2.2-2,2.8
	c-1.6,0.9-3.8,0.6-5.3-0.8l-1.3,1.5c1.3,1.2,3,1.8,4.6,1.8c1.1,0,2.1-0.3,3.1-0.8c0.9-0.5,1.6-1.2,2.1-2.1c0.5,0.9,1.2,1.6,2.1,2.1
	c0.9,0.5,2,0.8,3.1,0.8c1.6,0,3.3-0.6,4.6-1.8l-1.3-1.5c-1.5,1.4-3.7,1.7-5.3,0.8c-1-0.6-1.7-1.6-2-2.8c-0.3-1.3-0.1-2.6,0.6-3.8
	c1.4-2.4,4.2-3.3,6.4-2.1c1.6,0.9,2.4,2.9,2,5l2,0.4C28.7,18.4,27.5,15.6,25.1,14.2z M16,18c-0.6,0-1-0.4-1-1c0-0.6,0.4-1,1-1
	s1,0.4,1,1C17,17.6,16.6,18,16,18z"/>
</svg>
