<?xml version="1.0" encoding="utf-8"?>
<!-- Generator: Adobe Illustrator 18.0.0, SVG Export Plug-In . SVG Version: 6.00 Build 0)  -->
<svg version="1.1" id="Layer_1" xmlns="http://www.w3.org/2000/svg" xmlns:xlink="http://www.w3.org/1999/xlink" x="0px" y="0px"
	 viewBox="0 0 32 32" enable-background="new 0 0 32 32" xml:space="preserve">
<path fill="none" stroke="#000000" stroke-width="2" stroke-miterlimit="10" d="M25,27C25,16,7,16,7,5"/>
<g>
	<path d="M17,14.3c0.6,0.4,1.2,0.7,1.8,1.1C22.6,12.9,26,10,26,5h-2C24,9.4,20.7,11.8,17,14.3C17,14.2,17,14.3,17,14.3z"/>
	<path d="M16.4,16.2c-0.5-0.3-0.9-0.6-1.4-0.8c-4.5,2.8-9,5.7-9,11.6h2c0-4.9,4.1-7.5,8.5-10.2c0.1-0.1,0.3-0.2,0.4-0.3
		C16.8,16.5,16.6,16.3,16.4,16.2z"/>
</g>
<g>
	<path d="M22,11l-1,2h-5.8c-1-0.6-1.9-1.3-2.8-2H22z"/>
	<path d="M9.5,7H24v2H10.6C10.1,8.4,9.8,7.7,9.5,7z"/>
</g>
<g>
	<path d="M22,21l-1-2h-5.8c-1,0.6-1.9,1.3-2.8,2H22z"/>
	<path d="M9.5,25H24v-2H10.6C10.1,23.6,9.8,24.3,9.5,25z"/>
</g>
</svg>
