<?xml version="1.0" encoding="iso-8859-1"?>
<!-- Generator: Adobe Illustrator 19.2.0, SVG Export Plug-In . SVG Version: 6.00 Build 0)  -->
<svg version="1.1" id="Layer_1" xmlns="http://www.w3.org/2000/svg" xmlns:xlink="http://www.w3.org/1999/xlink" x="0px" y="0px"
	 viewBox="0 0 32 32" style="enable-background:new 0 0 32 32;" xml:space="preserve">
<path style="fill:none;stroke:#000000;stroke-width:2;stroke-miterlimit:10;" d="M8,10V7c0-1.105,0.895-2,2-2h12
	c1.105,0,2,0.895,2,2v3"/>
<polygon style="fill:none;stroke:#000000;stroke-width:2;stroke-miterlimit:10;" points="22,14 20.053,10 11.947,10 10,14 6,15 
	6,24 10,23 11.947,27 20.053,27 22,23 26,24 26,15 "/>
<path style="fill:none;stroke:#000000;stroke-width:2;stroke-miterlimit:10;" d="M16,22c-2.209,0-4-1.567-4-3.5
	c0-1.933,1.791-3.5,4-3.5s4,1.455,4,3.388C20,20.321,18.209,22,16,22z"/>
<polygon points="25,12.185 23,11.764 23,8 25,8 "/>
<polygon points="7,12.185 9,11.764 9,8 7,8 "/>
</svg>
