<?xml version="1.0" encoding="utf-8"?>
<!-- Generator: Adobe Illustrator 18.0.0, SVG Export Plug-In . SVG Version: 6.00 Build 0)  -->
<svg version="1.1" id="Layer_1" xmlns="http://www.w3.org/2000/svg" xmlns:xlink="http://www.w3.org/1999/xlink" x="0px" y="0px"
	 viewBox="0 0 32 32" enable-background="new 0 0 32 32" xml:space="preserve">
<rect x="13" y="23" fill="none" stroke="#000000" stroke-width="2" stroke-miterlimit="10" width="6" height="4"/>
<path fill="none" stroke="#000000" stroke-width="2" stroke-miterlimit="10" d="M24,12c0-4.7-4.1-8.5-8.9-7.9
	c-3.6,0.4-6.5,3.3-7,6.9c-0.4,2.9,0.8,5.5,2.8,7.2c1.4,1.2,2.2,2.9,2.2,4.6V23h6v-0.2c0-1.8,0.9-3.5,2.3-4.8
	C22.9,16.5,24,14.4,24,12z"/>
<path d="M18,27c0,1.1-0.9,2-2,2s-2-0.9-2-2H18z"/>
<path d="M13.3,8c0,0-2,4.4-1.1,7.3c0.6,2.1,2.8,2.6,3.8,1.8c0.1,0.9-0.2,1.6-0.5,2.3l1.7,0.6c1.1-3.2-0.7-6.9-1.8-8.6
	c2.6,1.8,3.3,4.9,3.3,4.9c0.2-0.1,0.4-0.4,0.6-0.6C20.9,13.9,20,9.3,13.3,8z"/>
</svg>
