<?xml version="1.0" encoding="iso-8859-1"?>
<!-- Generator: Adobe Illustrator 19.2.0, SVG Export Plug-In . SVG Version: 6.00 Build 0)  -->
<svg version="1.1" id="Layer_1" xmlns="http://www.w3.org/2000/svg" xmlns:xlink="http://www.w3.org/1999/xlink" x="0px" y="0px"
	 viewBox="0 0 32 32" style="enable-background:new 0 0 32 32;" xml:space="preserve">
<path style="fill:none;stroke:#000000;stroke-width:2;stroke-miterlimit:10;" d="M5,25.5c0,0,4-8.55,4-19.5"/>
<path style="fill:none;stroke:#000000;stroke-width:2;stroke-miterlimit:10;" d="M11,25.5c0,0,4-8.55,4-19.5"/>
<path style="fill:none;stroke:#000000;stroke-width:2;stroke-miterlimit:10;" d="M17,25.5c0,0,4-8.55,4-19.5"/>
<path style="fill:none;stroke:#000000;stroke-width:2;stroke-miterlimit:10;" d="M23,25.5c0,0,4-8.55,4-19.5"/>
<path d="M23.34,9.892c-0.153,1.93-0.407,3.749-0.716,5.433c0.475,2.758,0.654,5.988-0.163,8.91l1.926,0.539
	C25.929,19.263,24.356,13.003,23.34,9.892z"/>
<path d="M17.34,9.892c-0.153,1.93-0.407,3.749-0.716,5.433c0.475,2.758,0.654,5.988-0.163,8.91l1.926,0.539
	C19.929,19.263,18.356,13.003,17.34,9.892z"/>
<path d="M11.34,9.892c-0.153,1.93-0.407,3.749-0.716,5.433c0.475,2.758,0.654,5.988-0.163,8.91l1.926,0.539
	C13.929,19.263,12.356,13.003,11.34,9.892z"/>
</svg>
