<?xml version="1.0" encoding="utf-8"?>
<!-- Generator: Adobe Illustrator 18.0.0, SVG Export Plug-In . SVG Version: 6.00 Build 0)  -->
<svg version="1.1" id="Layer_1" xmlns="http://www.w3.org/2000/svg" xmlns:xlink="http://www.w3.org/1999/xlink" x="0px" y="0px"
	 viewBox="0 0 32 32" enable-background="new 0 0 32 32" xml:space="preserve">
<circle fill="none" stroke="#000000" stroke-width="2" stroke-miterlimit="10" cx="10" cy="8" r="3"/>
<path fill="none" stroke="#000000" stroke-width="2" stroke-miterlimit="10" d="M10,11L10,11c-2.2,0-4,1.8-4,4v5l2,1v6h4v-6l2-1v-5
	C14,12.8,12.2,11,10,11z"/>
<path d="M16,8c0,0.9-0.2,1.8-0.6,2.6c1,1.2,1.6,2.8,1.6,4.4v6.9l-2,1V28h2v-3.9l2-1V15c0-1.7-0.5-3.3-1.3-4.7C17.9,9.6,18,8.8,18,8
	c0-1.5-0.4-2.8-1.1-4h-2.5C15.4,5.1,16,6.5,16,8z"/>
<g>
	<path d="M20,8c0,0.7-0.1,1.4-0.2,2c0.8,1.5,1.2,3.3,1.2,5v9.3l-2,1V28h2v-1.4l2-1V15c0-1.8-0.4-3.6-1.1-5.3C22,9.2,22,8.6,22,8
		c0-1.4-0.3-2.7-0.7-4h-2.1C19.7,5.3,20,6.6,20,8z"/>
</g>
<path d="M24,8c0,0.5,0,1-0.1,1.4c0.7,1.8,1.1,3.7,1.1,5.6v11.8l-2,1V28h4V15c0-2-0.4-4-1-5.8c0-0.4,0-0.8,0-1.2c0-1.3-0.2-2.7-0.5-4
	h-2.1C23.8,5.3,24,6.7,24,8z"/>
</svg>
