<?xml version="1.0" encoding="iso-8859-1"?>
<!-- Generator: Adobe Illustrator 19.1.0, SVG Export Plug-In . SVG Version: 6.00 Build 0)  -->
<svg version="1.1" id="Layer_1" xmlns="http://www.w3.org/2000/svg" xmlns:xlink="http://www.w3.org/1999/xlink" x="0px" y="0px"
	 viewBox="0 0 32 32" style="enable-background:new 0 0 32 32;" xml:space="preserve">
<rect x="13" y="26" width="13" height="2"/>
<path style="fill:none;stroke:#000000;stroke-width:2;stroke-miterlimit:10;" d="M10.411,13.301L7.516,18
	c0,0-3.778-3.128-2.018-8.405C7.042,4.961,11,5.004,11,5.004v5.827L10.411,13.301z"/>
<path style="fill:none;stroke:#000000;stroke-width:2;stroke-miterlimit:10;" d="M11.045,10.702l14.868,3.514
	c0.758,0.179,1.228,0.939,1.049,1.698v0c-0.179,0.758-0.939,1.228-1.698,1.049l-14.85-3.509"/>
<polyline style="fill:none;stroke:#000000;stroke-width:2;stroke-miterlimit:10;" points="20.02,15.743 21.634,27 16.526,27 
	18.157,15.307 "/>
<line style="fill:none;stroke:#000000;stroke-width:2;stroke-miterlimit:10;" x1="25.485" y1="16.938" x2="24.738" y2="26.953"/>
<line style="fill:none;stroke:#000000;stroke-miterlimit:10;" x1="7.5" y1="17.64" x2="7.5" y2="28"/>
</svg>
