<?xml version="1.0" encoding="iso-8859-1"?>
<!-- Generator: Adobe Illustrator 19.1.0, SVG Export Plug-In . SVG Version: 6.00 Build 0)  -->
<svg version="1.1" id="Layer_1" xmlns="http://www.w3.org/2000/svg" xmlns:xlink="http://www.w3.org/1999/xlink" x="0px" y="0px"
	 viewBox="0 0 32 32" style="enable-background:new 0 0 32 32;" xml:space="preserve">
<polygon style="fill:none;stroke:#000000;stroke-width:2;stroke-miterlimit:10;" points="24,17 24,15 8,15 8,17 6,17 6,20 26,20 
	26,17 "/>
<line style="fill:none;stroke:#000000;stroke-width:2;stroke-linejoin:round;stroke-miterlimit:10;" x1="16" y1="4" x2="16" y2="6.814"/>
<g>
	<polygon style="fill:none;stroke:#000000;stroke-width:2;stroke-miterlimit:10;" points="18.968,15 17.981,7 14.019,7 13.032,15 	
		"/>
</g>
<path id="XMLID_10_" style="fill:none;stroke:#000000;stroke-width:2;stroke-miterlimit:10;" d="M25,24c0,0.984-1.328,2-3,2
	s-3-1-3-2"/>
<path id="XMLID_9_" style="fill:none;stroke:#000000;stroke-width:2;stroke-miterlimit:10;" d="M19,24c0,0.984-1.328,2-3,2s-3-1-3-2
	"/>
<path id="XMLID_8_" style="fill:none;stroke:#000000;stroke-width:2;stroke-miterlimit:10;" d="M13,24c0,0.984-1.328,2-3,2s-3-1-3-2
	"/>
<path id="XMLID_7_" style="fill:none;stroke:#000000;stroke-width:2;stroke-miterlimit:10;" d="M7,24c0,0.984-1.328,2-3,2s-3-1-3-2"
	/>
<path id="XMLID_6_" style="fill:none;stroke:#000000;stroke-width:2;stroke-miterlimit:10;" d="M31,24c0,0.984-1.328,2-3,2s-3-1-3-2
	"/>
<path d="M11,20H9v3c0,0.552,0.448,1,1,1h0c0.552,0,1-0.448,1-1V20z"/>
<path d="M23,20h-2v3c0,0.552,0.448,1,1,1h0c0.552,0,1-0.448,1-1V20z"/>
</svg>
