<?xml version="1.0" encoding="iso-8859-1"?>
<!-- Generator: Adobe Illustrator 19.1.0, SVG Export Plug-In . SVG Version: 6.00 Build 0)  -->
<svg version="1.1" id="Layer_1" xmlns="http://www.w3.org/2000/svg" xmlns:xlink="http://www.w3.org/1999/xlink" x="0px" y="0px"
	 viewBox="0 0 32 32" style="enable-background:new 0 0 32 32;" xml:space="preserve">
<line style="fill:none;stroke:#000000;stroke-width:2;stroke-linejoin:round;stroke-miterlimit:10;" x1="14" y1="5" x2="18" y2="5"/>
<line style="fill:none;stroke:#000000;stroke-width:2;stroke-linejoin:round;stroke-miterlimit:10;" x1="16" y1="5.186" x2="16" y2="28"/>
<polygon points="9.938,28 12.788,9 19.212,9 22.062,28 24.078,28 20.981,7 11.019,7 7.922,28 "/>
<g>
	<path d="M23.21,24.797L18,19.586v2.828l3.796,3.797c0.195,0.195,0.451,0.293,0.707,0.293s0.512-0.098,0.707-0.293
		C23.601,25.82,23.601,25.188,23.21,24.797z"/>
	<path d="M18,18.414l3.542-3.541c0.391-0.391,0.391-1.023,0-1.414s-1.023-0.391-1.414,0L18,15.586V18.414z"/>
	<polygon points="16,17.586 12.964,14.55 12.592,17.006 14.586,19 11.881,21.705 11.377,25.037 16,20.414 	"/>
</g>
</svg>
