<?xml version="1.0" encoding="utf-8"?>
<!-- Generator: Adobe Illustrator 18.0.0, SVG Export Plug-In . SVG Version: 6.00 Build 0)  -->
<svg version="1.1" id="Layer_1" xmlns="http://www.w3.org/2000/svg" xmlns:xlink="http://www.w3.org/1999/xlink" x="0px" y="0px"
	 viewBox="0 0 32 32" enable-background="new 0 0 32 32" xml:space="preserve">
<path fill="none" stroke="#000000" stroke-width="2" stroke-linecap="round" stroke-linejoin="round" stroke-miterlimit="10" d="
	M19.2,5.7l-3.1,3.1l-1.1,2.8l-3.6,3.6l-2.8,1.1l-3.1,3.1C4.9,20,5.1,21.2,5.7,22l4.3,4.3c0.7,0.7,2,0.8,2.7,0.1l3.1-3.1l1.1-2.8
	l3.6-3.6l2.8-1.1l3.1-3.1c0.7-0.7,0.5-1.9-0.1-2.7c0,0-3.5-3.5-4.3-4.3C21.1,5.2,19.9,5.1,19.2,5.7z"/>
<line fill="none" stroke="#000000" stroke-width="2" stroke-linejoin="round" stroke-miterlimit="10" x1="24" y1="8" x2="28" y2="4"/>
<line fill="none" stroke="#000000" stroke-width="2" stroke-linejoin="round" stroke-miterlimit="10" x1="8" y1="24" x2="4" y2="28"/>
<line fill="none" stroke="#000000" stroke-width="2" stroke-linejoin="round" stroke-miterlimit="10" x1="17.3" y1="13.9" x2="20.4" y2="16.9"/>
<line fill="none" stroke="#000000" stroke-width="2" stroke-linejoin="round" stroke-miterlimit="10" x1="13.9" y1="17.3" x2="16.9" y2="20.4"/>
</svg>
