<?xml version="1.0" encoding="iso-8859-1"?>
<!-- Generator: Adobe Illustrator 19.1.1, SVG Export Plug-In . SVG Version: 6.00 Build 0)  -->
<svg version="1.1" id="Layer_1" xmlns="http://www.w3.org/2000/svg" xmlns:xlink="http://www.w3.org/1999/xlink" x="0px" y="0px"
	 viewBox="0 0 32 32" style="enable-background:new 0 0 32 32;" xml:space="preserve">
<rect x="11" y="3" style="fill:none;stroke:#000000;stroke-width:2;stroke-miterlimit:10;" width="10" height="6"/>
<line style="fill:none;stroke:#000000;stroke-width:2;stroke-miterlimit:10;" x1="16" y1="11" x2="16" y2="8"/>
<line style="fill:none;stroke:#000000;stroke-width:2;stroke-miterlimit:10;" x1="7" y1="15" x2="5" y2="20"/>
<polygon style="fill:none;stroke:#000000;stroke-width:2;stroke-miterlimit:10;" points="9,12 23,12 22,23 10,23 "/>
<circle style="fill:none;stroke:#000000;stroke-width:2;stroke-miterlimit:10;" cx="7.5" cy="13.5" r="1.5"/>
<circle cx="14" cy="6" r="1"/>
<circle cx="18" cy="6" r="1"/>
<rect x="13" y="23" style="fill:none;stroke:#000000;stroke-width:2;stroke-miterlimit:10;" width="6" height="6"/>
<line style="fill:none;stroke:#000000;stroke-width:2;stroke-miterlimit:10;" x1="17" y1="26" x2="19" y2="26"/>
<line style="fill:none;stroke:#000000;stroke-width:2;stroke-miterlimit:10;" x1="15" y1="26" x2="13" y2="26"/>
<path style="fill:none;stroke:#000000;stroke-width:2;stroke-miterlimit:10;" d="M3,22v-0.5C3,20.672,3.672,20,4.5,20
	S6,20.672,6,21.5V22"/>
<line style="fill:none;stroke:#000000;stroke-width:2;stroke-miterlimit:10;" x1="25" y1="15" x2="27" y2="20"/>
<circle style="fill:none;stroke:#000000;stroke-width:2;stroke-miterlimit:10;" cx="24.5" cy="13.5" r="1.5"/>
<path style="fill:none;stroke:#000000;stroke-width:2;stroke-miterlimit:10;" d="M29,22v-0.5c0-0.828-0.672-1.5-1.5-1.5
	S26,20.672,26,21.5V22"/>
</svg>
