<?xml version="1.0" encoding="iso-8859-1"?>
<!-- Generator: Adobe Illustrator 19.2.0, SVG Export Plug-In . SVG Version: 6.00 Build 0)  -->
<svg version="1.1" id="Layer_1" xmlns="http://www.w3.org/2000/svg" xmlns:xlink="http://www.w3.org/1999/xlink" x="0px" y="0px"
	 viewBox="0 0 32 32" style="enable-background:new 0 0 32 32;" xml:space="preserve">
<path style="fill:none;stroke:#000000;stroke-width:2;stroke-miterlimit:10;" d="M12.995,11.919
	c0.312-0.997,0.765-2.412,0.788-2.499C13.994,8.61,14.906,8,16,8s2.006,0.61,2.217,1.42c0.022,0.086,0.466,1.472,0.778,2.467"/>
<path style="fill:none;stroke:#000000;stroke-width:2;stroke-miterlimit:10;" d="M9,10V7c0-1.105,0.895-2,2-2h10
	c1.105,0,2,0.895,2,2v3"/>
<ellipse style="fill:none;stroke:#000000;stroke-width:2;stroke-linecap:round;stroke-linejoin:round;stroke-miterlimit:10;" cx="16" cy="21" rx="8" ry="6"/>
<path style="fill:none;stroke:#000000;stroke-width:2;stroke-miterlimit:10;" d="M8,20.5c0-4.712,2.449-9.5,8-9.5s8,4.758,8,9.5"/>
<polygon points="10.996,9 8,9 8,11 10.306,11 "/>
<polygon points="21.002,9 24,9 24,11 21.692,11 "/>
<ellipse cx="16" cy="19" rx="1.5" ry="1"/>
</svg>
