<?xml version="1.0" encoding="utf-8"?>
<!-- Generator: Adobe Illustrator 18.0.0, SVG Export Plug-In . SVG Version: 6.00 Build 0)  -->
<svg version="1.1" id="Layer_1" xmlns="http://www.w3.org/2000/svg" xmlns:xlink="http://www.w3.org/1999/xlink" x="0px" y="0px"
	 viewBox="0 0 32 32" enable-background="new 0 0 32 32" xml:space="preserve">
<ellipse fill="none" stroke="#000000" stroke-width="2" stroke-miterlimit="10" cx="15" cy="8.5" rx="7" ry="3.5"/>
<path fill="none" stroke="#000000" stroke-width="2" stroke-miterlimit="10" d="M15,12c-2.2,0-4-0.9-4-2s1.8-2,4-2
	c1,0,2,0.2,2.7,0.5"/>
<path fill="none" stroke="#000000" stroke-width="2" stroke-miterlimit="10" d="M8,8.5c0,0,0,14.3,0,15c0,1.9,3.1,3.5,7,3.5
	s7-1.6,7-3.5c0-0.3,0-2.9,0-4.8s3.3-3.5,3.4-3.5c0,0,0.9-2.1-0.5-3c0,0-1.8,0.3-2.8,1.2v-5"/>
<path fill="none" stroke="#000000" stroke-width="2" stroke-miterlimit="10" d="M12,21c0,4.7,1,6,1,6"/>
</svg>
