<?xml version="1.0" encoding="iso-8859-1"?>
<!-- Generator: Adobe Illustrator 19.1.1, SVG Export Plug-In . SVG Version: 6.00 Build 0)  -->
<svg version="1.1" id="Layer_1" xmlns="http://www.w3.org/2000/svg" xmlns:xlink="http://www.w3.org/1999/xlink" x="0px" y="0px"
	 viewBox="0 0 32 32" style="enable-background:new 0 0 32 32;" xml:space="preserve">
<rect x="3" y="9" style="fill:none;stroke:#000000;stroke-width:2;stroke-miterlimit:10;" width="27" height="14"/>
<line style="fill:none;stroke:#000000;stroke-width:2;stroke-miterlimit:10;" x1="12" y1="9" x2="12" y2="23"/>
<line style="fill:none;stroke:#000000;stroke-width:2;stroke-miterlimit:10;" x1="21" y1="9" x2="21" y2="23"/>
<path style="fill:none;stroke:#000000;stroke-width:2;stroke-miterlimit:10;" d="M16.5,13L16.5,13c-0.828,0-1.5,0.672-1.5,1.5v3
	c0,0.828,0.672,1.5,1.5,1.5h0c0.828,0,1.5-0.672,1.5-1.5v-3C18,13.672,17.328,13,16.5,13z"/>
<path style="fill:none;stroke:#000000;stroke-width:2;stroke-miterlimit:10;" d="M7.5,13L7.5,13C6.672,13,6,13.672,6,14.5v3
	C6,18.328,6.672,19,7.5,19h0C8.328,19,9,18.328,9,17.5v-3C9,13.672,8.328,13,7.5,13z"/>
<path d="M24.416,21h2.08c0.539-1.718,1.326-2.928,1.338-2.947L28,17.801V16h-5v2h2.565C25.197,18.72,24.742,19.769,24.416,21z"/>
<path d="M23,11v1.5c0,1.378,1.122,2.5,2.5,2.5s2.5-1.122,2.5-2.5c0-0.565-0.195-1.081-0.513-1.5H23z M25.5,13
	c-0.276,0-0.5-0.224-0.5-0.5s0.224-0.5,0.5-0.5s0.5,0.224,0.5,0.5S25.776,13,25.5,13z"/>
</svg>
