<?xml version="1.0" encoding="iso-8859-1"?>
<!-- Generator: Adobe Illustrator 19.2.0, SVG Export Plug-In . SVG Version: 6.00 Build 0)  -->
<svg version="1.1" xmlns="http://www.w3.org/2000/svg" xmlns:xlink="http://www.w3.org/1999/xlink" x="0px" y="0px"
	 viewBox="0 0 32 32" style="enable-background:new 0 0 32 32;" xml:space="preserve">
<g >
	<rect x="24" y="25" width="4" height="2"/>
	<rect x="24" y="22" width="4" height="2"/>
	<rect x="24" y="19" width="4" height="2"/>
	<rect x="9" y="25" width="4" height="2"/>
	<rect x="9" y="22" width="4" height="2"/>
	<rect x="9" y="19" width="4" height="2"/>
	<rect x="24" y="16" width="4" height="2"/>
	<rect x="4" y="25" width="4" height="2"/>
	<rect x="4" y="22" width="4" height="2"/>
	<rect x="4" y="19" width="4" height="2"/>
	<rect x="4" y="16" width="4" height="2"/>
	<rect x="19" y="25" width="4" height="2"/>
	<rect x="19" y="22" width="4" height="2"/>
	<rect x="19" y="19" width="4" height="2"/>
	<rect x="19" y="16" width="4" height="2"/>
	<rect x="24" y="13" width="4" height="2"/>
	<rect x="24" y="10" width="4" height="2"/>
	<rect x="14" y="25" width="4" height="2"/>
	<rect x="14" y="22" width="4" height="2"/>
	<rect x="14" y="19" width="4" height="2"/>
	<rect x="14" y="16" width="4" height="2"/>
	<rect x="14" y="13" width="4" height="2"/>
	<rect x="14" y="10" width="4" height="2"/>
	<rect x="24" y="7" width="4" height="2"/>
	<rect x="14" y="7" width="4" height="2"/>
	<rect x="24" y="4" width="4" height="2"/>
</g>
<g >
</g>
</svg>
