<?xml version="1.0" encoding="iso-8859-1"?>
<!-- Generator: Adobe Illustrator 19.1.1, SVG Export Plug-In . SVG Version: 6.00 Build 0)  -->
<svg version="1.1" id="Layer_1" xmlns="http://www.w3.org/2000/svg" xmlns:xlink="http://www.w3.org/1999/xlink" x="0px" y="0px"
	 viewBox="0 0 32 32" style="enable-background:new 0 0 32 32;" xml:space="preserve">
<line style="fill:none;stroke:#000000;stroke-width:2;stroke-linecap:round;stroke-linejoin:round;stroke-miterlimit:10;" x1="25" y1="7" x2="21" y2="11"/>
<g>
	<path d="M25,3c-2.206,0-4,1.794-4,4c0,0.356,0.062,0.694,0.149,1.023l2.437-2.437c0.082-0.082,0.172-0.152,0.265-0.218
		c0.011-0.008,0.02-0.018,0.032-0.026c0.094-0.064,0.195-0.115,0.297-0.161c0.015-0.007,0.028-0.017,0.044-0.023
		c0.098-0.042,0.202-0.07,0.306-0.095c0.024-0.006,0.046-0.016,0.07-0.021C24.73,5.014,24.864,5,25,5s0.27,0.014,0.4,0.04
		c0.024,0.005,0.046,0.016,0.07,0.021c0.104,0.025,0.208,0.054,0.306,0.095c0.015,0.006,0.028,0.016,0.042,0.023
		c0.103,0.047,0.204,0.098,0.299,0.162c0.005,0.003,0.009,0.008,0.013,0.011c0.1,0.069,0.196,0.145,0.283,0.233
		c0.087,0.087,0.162,0.181,0.23,0.28c0.004,0.006,0.01,0.011,0.014,0.017c0.064,0.094,0.115,0.195,0.162,0.298
		c0.007,0.015,0.017,0.028,0.023,0.043c0.042,0.098,0.07,0.202,0.095,0.306c0.006,0.024,0.016,0.046,0.021,0.07
		C26.986,6.73,27,6.864,27,7s-0.014,0.27-0.04,0.4c-0.005,0.024-0.016,0.046-0.021,0.07c-0.025,0.104-0.054,0.208-0.095,0.306
		c-0.006,0.015-0.017,0.029-0.023,0.044c-0.046,0.103-0.098,0.203-0.161,0.297c-0.008,0.011-0.018,0.021-0.026,0.032
		c-0.066,0.093-0.136,0.183-0.218,0.265l-2.437,2.437C24.306,10.938,24.644,11,25,11c2.206,0,4-1.794,4-4S27.206,3,25,3z"/>
</g>
<path style="fill:none;stroke:#000000;stroke-width:2;stroke-miterlimit:10;" d="M17,10c-1.643,0-3.089,0.804-4,2.027
	C12.089,10.804,10.643,10,9,10c-2.761,0-5,2.239-5,5c0,7.098,9,13,9,13s9-6.087,9-13C22,12.239,19.761,10,17,10z"/>
<line style="fill:none;stroke:#000000;stroke-width:2;stroke-miterlimit:10;" x1="13" y1="13" x2="8" y2="16.973"/>
<line style="fill:none;stroke:#000000;stroke-width:2;stroke-miterlimit:10;" x1="13" y1="28" x2="13" y2="12.027"/>
<line style="fill:none;stroke:#000000;stroke-width:2;stroke-miterlimit:10;" x1="13" y1="13" x2="18" y2="16.973"/>
<polyline style="fill:none;stroke:#000000;stroke-width:2;stroke-miterlimit:10;" points="9,20.973 13,17.973 17,20.973 "/>
</svg>
