<?xml version="1.0" encoding="iso-8859-1"?>
<!-- Generator: Adobe Illustrator 19.1.1, SVG Export Plug-In . SVG Version: 6.00 Build 0)  -->
<svg version="1.1" id="Layer_1" xmlns="http://www.w3.org/2000/svg" xmlns:xlink="http://www.w3.org/1999/xlink" x="0px" y="0px"
	 viewBox="0 0 32 32" style="enable-background:new 0 0 32 32;" xml:space="preserve">
<g>
	<path d="M12.781,13C10.895,12.989,10,14.27,10,14.27V10H8.521l0.01,10H10v-0.894c0,0,0.748,0.894,2.75,0.894
		c2.002,0,3.583-1.23,3.625-3.511C16.416,14.207,14.667,13.01,12.781,13z M12.435,19c-2.382,0.03-2.343-2.537-2.343-2.537
		s-0.087-2.4,2.339-2.463c2.426-0.063,2.347,2.515,2.347,2.515S14.817,18.969,12.435,19z"/>
</g>
<g>
	<path d="M23.521,15.669c-0.04-0.74-0.139-2.526-3.395-2.659c0,0-3.122-0.279-3.446,2.003h1.597c0,0,0.124-1.046,1.744-1.016
		C21.554,14.027,22.008,15.091,22,16c0,0-1.489,0.004-1.928,0.006c-0.79,0.004-3.406-0.11-3.814,1.42
		c-0.307,1.968,1.481,2.582,2.879,2.574c1.399-0.008,2.269-0.419,2.862-1.157v1.165L23.521,20
		C23.521,20,23.521,15.669,23.521,15.669z M19.399,19.052c0,0-1.516,0.002-1.604-1.188c0-0.885,2.332-0.868,2.332-0.868l1.714-0.002
		C21.84,16.995,22.118,19.088,19.399,19.052z"/>
</g>
<polygon points="22.523,13 24.277,13 26.843,18.005 29.414,13 31,13 26.358,22 24.662,22 26.006,19.472 "/>
<path d="M6.754,18c-0.121,0.284-0.573,1.048-1.96,1.022C2.902,18.987,2.588,17.418,2.537,17h6.041v-0.18
	C8.616,16.301,8.706,13,4.879,13c-3.751-0.001-3.897,2.882-3.878,3.63c0,0-0.184,3.37,3.786,3.37c2.937,0,3.468-1.564,3.56-2H6.754z
	 M4.842,14C6.992,13.999,7,16,7,16H2.531C2.531,16,2.684,14.001,4.842,14z"/>
</svg>
