<?xml version="1.0" encoding="iso-8859-1"?>
<!-- Generator: Adobe Illustrator 19.2.0, SVG Export Plug-In . SVG Version: 6.00 Build 0)  -->
<svg version="1.1" id="Layer_1" xmlns="http://www.w3.org/2000/svg" xmlns:xlink="http://www.w3.org/1999/xlink" x="0px" y="0px"
	 viewBox="0 0 32 32" style="enable-background:new 0 0 32 32;" xml:space="preserve">
<path style="fill:none;stroke:#000000;stroke-width:2;stroke-miterlimit:10;" d="M22,16h4c0.552,0,1-0.448,1-1l0-2.954
	c0-1.279-0.804-2.417-2.013-2.835C23.247,8.609,19.734,8,16,8S8.753,8.609,7.013,9.211C5.804,9.629,5,10.767,5,12.046L5,15
	c0,0.552,0.448,1,1,1h4c0.552,0,1-0.448,1-1v-2.667c0,0,2.617-0.782,5-0.782s5,0.782,5,0.782V15C21,15.552,21.448,16,22,16z"/>
<polyline style="fill:none;stroke:#000000;stroke-width:2;stroke-miterlimit:10;" points="20,22.75 16,26.75 12,22.75 "/>
<line style="fill:none;stroke:#000000;stroke-width:2;stroke-miterlimit:10;" x1="16" y1="18" x2="16" y2="26.625"/>
</svg>
