<?xml version="1.0" encoding="iso-8859-1"?>
<!-- Generator: Adobe Illustrator 21.0.0, SVG Export Plug-In . SVG Version: 6.00 Build 0)  -->
<svg version="1.1"  xmlns="http://www.w3.org/2000/svg" xmlns:xlink="http://www.w3.org/1999/xlink" x="0px" y="0px"
	 viewBox="0 0 32 32" style="enable-background:new 0 0 32 32;" xml:space="preserve">
<g>
	<path d="M22.71,17c0.167-0.231,0.903-3-0.903-3C20,14,19.982,15.909,20,16C21.807,16,22.339,16.662,22.71,17z"/>
</g>
<path style="fill:none;stroke:#000000;stroke-width:2;stroke-linejoin:round;stroke-miterlimit:10;" d="M22,24h-0.853
	C19.961,24,19,24.961,19,26.147v0C19,27.17,19.83,28,20.853,28H23c3,0,3-13,2-17c-0.97-3.881-5.346-3.949-7-4c0-0.788-1-3-3-3h-3v7
	c0,0-5,0-7,0c-0.021,2.231,1,11,4,11c0,0,5,1,6,0l1-5c0,0,0.953,3,2,3c0,0,1.764,0,4,0"/>
<line style="fill:none;stroke:#000000;stroke-width:2;stroke-linecap:round;stroke-linejoin:round;stroke-miterlimit:10;" x1="5" y1="11" x2="12" y2="4"/>
</svg>
