<?xml version="1.0" encoding="utf-8"?>
<!-- Generator: Adobe Illustrator 18.0.0, SVG Export Plug-In . SVG Version: 6.00 Build 0)  -->
<svg version="1.1" id="Layer_1" xmlns="http://www.w3.org/2000/svg" xmlns:xlink="http://www.w3.org/1999/xlink" x="0px" y="0px"
	 viewBox="0 0 32 32" enable-background="new 0 0 32 32" xml:space="preserve">
<polygon fill="none" stroke="#000000" stroke-width="2" stroke-miterlimit="10" points="7,28 7,4 19,4 25,10 25,28 "/>
<polyline fill="none" stroke="#000000" stroke-width="2" stroke-miterlimit="10" points="19,4 19,10 25,10 "/>
<g>
	<path d="M16,17.1l0.4,0.9l0.9,0.1l-0.7,0.6l0.2,0.9L16,19.1l-0.8,0.5l0.2-0.9L14.7,18l0.9-0.1L16,17.1 M16,12.1L14.3,16L10,16.5
		l3.2,2.9l-0.9,4.2l3.7-2.1l3.7,2.1l-0.9-4.2l3.2-2.9L17.7,16L16,12.1L16,12.1z"/>
</g>
</svg>
