<?xml version="1.0" encoding="iso-8859-1"?>
<!-- Generator: Adobe Illustrator 19.1.1, SVG Export Plug-In . SVG Version: 6.00 Build 0)  -->
<svg version="1.1" id="Layer_1" xmlns="http://www.w3.org/2000/svg" xmlns:xlink="http://www.w3.org/1999/xlink" x="0px" y="0px"
	 viewBox="-8 10 32 32" style="enable-background:new -8 10 32 32;" xml:space="preserve">
<path d="M12,21v-4h-1v-3.536l-0.614-0.257c-2.005-0.838-5.181-1.07-5.315-1.08L4,12.052v1.786l1,1.696V17H4v4H1v12.913
	c0,3.879,3.355,5.869,3.499,5.952L4.731,40h6.538l0.233-0.135C11.645,39.782,15,37.792,15,33.913V21H12z M6.603,14.315
	c0.75,0.111,1.635,0.277,2.397,0.516V17H7v-2.012L6.603,14.315z M6,19h4v2H6V19z M13,33.913c0,2.276-1.694,3.666-2.296,4.087H5.296
	C4.691,37.576,3,36.187,3,33.913V23h1h8h1V33.913z"/>
</svg>
