<?xml version="1.0" encoding="iso-8859-1"?>
<!-- Generator: Adobe Illustrator 21.0.0, SVG Export Plug-In . SVG Version: 6.00 Build 0)  -->
<svg version="1.1" id="Layer_1" xmlns="http://www.w3.org/2000/svg" xmlns:xlink="http://www.w3.org/1999/xlink" x="0px" y="0px"
	 viewBox="0 0 32 32" style="enable-background:new 0 0 32 32;" xml:space="preserve">
<path style="fill:none;stroke:#000000;stroke-width:2;stroke-miterlimit:10;" d="M24,27h-2v-7l2-2.998l1-6L29,10l1-2l-2.734-1.051
	L26,5h-1.652L23.1,3H23l-3,8L9.638,14C7,15,6,15.629,6,17.638v1C6,19.033,7,22,7,22l-1,1l-2,4h2"/>
<path style="fill:none;stroke:#000000;stroke-width:2;stroke-miterlimit:10;" d="M19,28v-1l-1-4v-2.9L12,20l-1,3l-1,1l-1,4"/>
<path style="fill:none;stroke:#000000;stroke-width:2;stroke-miterlimit:10;" d="M8,15c0,0-5,1-5,8"/>
<path d="M6,16c2.667,0.083,10.139,1.24,12,0c3-2,3.167-6.167,3.167-6.167"/>
<polygon points="27.75,6.958 25,11 28,10 29.583,7.917 "/>
</svg>
