<?xml version="1.0" encoding="iso-8859-1"?>
<!-- Generator: Adobe Illustrator 19.1.1, SVG Export Plug-In . SVG Version: 6.00 Build 0)  -->
<svg version="1.1" id="Layer_1" xmlns="http://www.w3.org/2000/svg" xmlns:xlink="http://www.w3.org/1999/xlink" x="0px" y="0px"
	 viewBox="0 0 32 32" style="enable-background:new 0 0 32 32;" xml:space="preserve">
<rect x="5" y="9" style="fill:none;stroke:#000000;stroke-width:2;stroke-miterlimit:10;" width="22" height="18"/>
<circle cx="16.012" cy="18.5" r="1.5"/>
<path id="XMLID_7090_" style="fill:none;stroke:#000000;stroke-width:2;stroke-miterlimit:10;" d="M11.755,19.238l0.373,0.362
	l-0.08,0.519c-0.313,2.037,1.793,3.558,3.565,2.573l0.451-0.251l0.458,0.238c1.798,0.934,3.862-0.645,3.494-2.673l-0.094-0.517
	l0.363-0.372c1.424-1.46,0.594-3.957-1.405-4.225l-0.51-0.068l-0.234-0.468c-0.917-1.837-3.495-1.8-4.363,0.062l-0.221,0.475
	l-0.507,0.083C11.055,15.3,10.292,17.819,11.755,19.238z"/>
<polygon style="fill:none;stroke:#000000;stroke-width:2;stroke-miterlimit:10;" points="16,5.25 11,9 21,9 "/>
</svg>
