<?xml version="1.0" encoding="iso-8859-1"?>
<!-- Generator: Adobe Illustrator 19.1.0, SVG Export Plug-In . SVG Version: 6.00 Build 0)  -->
<svg version="1.1" id="Layer_1" xmlns="http://www.w3.org/2000/svg" xmlns:xlink="http://www.w3.org/1999/xlink" x="0px" y="0px"
	 viewBox="0 0 32 32" style="enable-background:new 0 0 32 32;" xml:space="preserve">
<path style="fill:none;stroke:#000000;stroke-width:2;stroke-miterlimit:10;" d="M13,24h6c4.418,0,8-3.582,8-8l0,0H5l0,0
	C5,20.418,8.582,24,13,24z"/>
<path style="fill:none;stroke:#000000;stroke-width:2;stroke-miterlimit:10;" d="M13,24h6c1.657,0,3,1.343,3,3v0H10v0
	C10,25.343,11.343,24,13,24z"/>
<g>
	<path d="M16.159,13.879C16.652,12.184,18.232,11,20,11c1.858,0,3.411,1.28,3.858,3h2.052c-0.478-2.833-2.942-5-5.91-5
		c-2.652,0-5.021,1.776-5.761,4.32L16.159,13.879z"/>
	<path d="M8.142,14c0.447-1.72,2-3,3.858-3c0.527,0,1.027,0.122,1.498,0.313c0.346-0.606,0.763-1.161,1.255-1.644
		C13.915,9.236,12.979,9,12,9c-2.967,0-5.431,2.167-5.91,5H8.142z"/>
</g>
<path style="fill:none;stroke:#000000;stroke-width:2;stroke-miterlimit:10;" d="M21,10c0-2.761-2.239-5-5-5s-5,2.239-5,5"/>
</svg>
