<?xml version="1.0" encoding="utf-8"?>
<!-- Generator: Adobe Illustrator 18.0.0, SVG Export Plug-In . SVG Version: 6.00 Build 0)  -->
<svg version="1.1" id="Layer_1" xmlns="http://www.w3.org/2000/svg" xmlns:xlink="http://www.w3.org/1999/xlink" x="0px" y="0px"
	 viewBox="0 0 32 32" enable-background="new 0 0 32 32" xml:space="preserve">
<polygon points="19.4,3 6,3 6,29 19.8,29 20,28 18.9,27 8,27 8,5 18.6,5 24,10.4 24,18 25,16 26,18 26,9.6 "/>
<polyline fill="none" stroke="#000000" stroke-width="2" stroke-miterlimit="10" points="19,4 19,10 25,10 "/>
<g>
	<path d="M25,23.6l0.2,0.4l0.5,1.1l1.2,0.1l0.5,0.1l-0.4,0.3l-0.9,0.8l0.2,1.1l0.1,0.5L26,27.8l-1-0.6l-1,0.6L23.6,28l0.1-0.5
		l0.2-1.1l-0.9-0.8l-0.4-0.3l0.5-0.1l1.2-0.1l0.5-1.1L25,23.6 M25,18.7l-2,4.6l-5,0.5l3.7,3.3l-1,4.9l4.3-2.5l4.3,2.5l-1-4.9
		l3.7-3.3l-5-0.5L25,18.7L25,18.7z"/>
</g>
</svg>
