<?xml version="1.0" encoding="iso-8859-1"?>
<!-- Generator: Adobe Illustrator 19.1.1, SVG Export Plug-In . SVG Version: 6.00 Build 0)  -->
<svg version="1.1" id="Layer_1" xmlns="http://www.w3.org/2000/svg" xmlns:xlink="http://www.w3.org/1999/xlink" x="0px" y="0px"
	 viewBox="0 0 32 32" style="enable-background:new 0 0 32 32;" xml:space="preserve">
<rect x="2" y="6" style="fill:none;stroke:#000000;stroke-width:2;stroke-miterlimit:10;" width="28" height="10"/>
<circle cx="13" cy="11" r="2"/>
<circle cx="19" cy="11" r="2"/>
<circle cx="25" cy="11" r="2"/>
<circle cx="7" cy="11" r="2"/>
<polyline style="fill:none;stroke:#000000;stroke-width:2;stroke-miterlimit:10;" points="16,23 20,23 20,19 "/>
<path d="M18.22,26c-0.549,0.609-1.337,1-2.22,1c-1.654,0-3-1.346-3-3s1.346-3,3-3s3,1.346,3,3h2c0-2.757-2.243-5-5-5s-5,2.243-5,5
	s2.243,5,5,5c2.045,0,3.802-1.237,4.576-3H18.22z"/>
</svg>
