<?xml version="1.0" encoding="utf-8"?>
<!-- Generator: Adobe Illustrator 18.1.1, SVG Export Plug-In . SVG Version: 6.00 Build 0)  -->
<svg version="1.1" id="Layer_1" xmlns="http://www.w3.org/2000/svg" xmlns:xlink="http://www.w3.org/1999/xlink" x="0px" y="0px"
	 viewBox="0 0 32 32" enable-background="new 0 0 32 32" xml:space="preserve">
<path fill="none" stroke="#000000" stroke-width="2" stroke-miterlimit="10" d="M21.9,17.2C20,18.9,19.9,28,15.9,28
	s-3.3-8.1-5.9-10.8c-1.5-1.3-3-1.2-3-3.8c0-1.2,0.8-2.7,2.2-3.3c0,0,0.2-6.2,6.7-6.2s6.8,6.2,6.8,6.2c1.3,0.5,2.2,2.1,2.2,3.3
	C24.9,16.1,23.3,15.9,21.9,17.2z"/>
<g>
	<path d="M17.1,15.7c0.6,0-0.8-2.7-1.2-2.7c-0.3,0-1.7,2.7-1.2,2.7c0.6,0,0.9-0.6,1.2-0.6S16.7,15.7,17.1,15.7z"/>
	<path d="M14.3,17.8c0,0.4,0.5,2.4,0.6,3.9c0,1.6,0.5,3.3,1.1,3.3c0.7,0,1-1.4,1.1-3c0.1-2.1,0.7-3.3,0.6-4.1c0-0.4-0.5-1.3-1.7-1.3
		S14.3,17.2,14.3,17.8z"/>
	<path d="M20.2,14.6c0.9,0,1.8-0.9,1.4-1.9c-0.3-0.5-0.8-0.6-1.3-0.8c-0.7-0.4-1.3-1-1.6-1.8c-0.3-0.6-0.7-1.3-1.3-1
		c-0.9,0.4-0.4,2.1-0.2,2.8C17.8,13.3,18.7,14.6,20.2,14.6z"/>
	<path d="M11.7,14.6c-0.9,0-1.8-0.9-1.4-1.9c0.2-0.4,0.8-0.5,1.3-0.8c0.7-0.4,1.2-1,1.6-1.8c0.3-0.6,0.7-1.3,1.3-1
		c0.9,0.4,0.4,2.1,0.2,2.8C14.1,13.3,13.2,14.6,11.7,14.6z"/>
</g>
</svg>
