<?xml version="1.0" encoding="iso-8859-1"?>
<!-- Generator: Adobe Illustrator 19.2.0, SVG Export Plug-In . SVG Version: 6.00 Build 0)  -->
<svg version="1.1" id="Layer_1" xmlns="http://www.w3.org/2000/svg" xmlns:xlink="http://www.w3.org/1999/xlink" x="0px" y="0px"
	 viewBox="0 0 32 32" style="enable-background:new 0 0 32 32;" xml:space="preserve">
<circle style="fill:none;stroke:#000000;stroke-width:2;stroke-linecap:round;stroke-linejoin:round;stroke-miterlimit:10;" cx="10.5" cy="7.5" r="2.5"/>
<circle style="fill:none;stroke:#000000;stroke-width:2;stroke-linecap:round;stroke-linejoin:round;stroke-miterlimit:10;" cx="24.5" cy="8.5" r="2.5"/>
<path d="M17.698,13.595l-2.83-0.808l-0.549,1.923l3.73,1.065l1.629-1.11l-0.905,2.607l-1.836,3.214
	c-0.104,0.182-0.168,0.379-0.19,0.59L16.132,27h2.011l0.582-5.611l1.831-3.205l1.507-4.293c0.124,0.013,0.248,0.018,0.37,0.047
	l1.976,0.464l1.153,2.123l-2.715-1.202l-1.96,4.379L22.915,27h2.075l-1.982-7.139l0.853-1.905l1.599,0.705
	c0.662,0.371,1.468,0.261,2.007-0.271s0.659-1.337,0.297-2.003l-1.703-3.134c-0.203-0.376-0.559-0.648-0.976-0.746l-2.194-0.516
	c-1.342-0.315-2.765-0.05-3.904,0.726L17.698,13.595z"/>
<path d="M6.096,17.378l1.142-0.227l-0.61,3.934L4.538,27h2.121l1.885-5.337l1.107-7.03l-2.897,0.576l1.203-1.221
	c0.229-0.231,0.518-0.394,0.834-0.468l2.837-0.665l-1.111,4.52L11,21.421V27h2v-5.638l-0.452-3.864l1.267-5.158l6.387-1.498
	l-0.457-1.947l-11.41,2.676c-0.685,0.161-1.307,0.511-1.801,1.011l-2.061,2.091c-0.537,0.545-0.624,1.375-0.212,2.02
	C4.656,17.312,5.4,17.586,6.096,17.378z"/>
</svg>
