<?xml version="1.0" encoding="iso-8859-1"?>
<!-- Generator: Adobe Illustrator 19.1.1, SVG Export Plug-In . SVG Version: 6.00 Build 0)  -->
<svg version="1.1" id="Layer_1" xmlns="http://www.w3.org/2000/svg" xmlns:xlink="http://www.w3.org/1999/xlink" x="0px" y="0px"
	 viewBox="0 0 32 32" style="enable-background:new 0 0 32 32;" xml:space="preserve">
<path style="fill:none;stroke:#000000;stroke-width:2;stroke-miterlimit:10;" d="M16.9,28H15.1c-0.607,0-1.1-0.492-1.1-1.1V22.1
	c0-0.607,0.492-1.1,1.1-1.1H16.9c0.607,0,1.1,0.492,1.1,1.1V26.9C18,27.508,17.508,28,16.9,28z"/>
<path style="fill:none;stroke:#000000;stroke-width:2;stroke-miterlimit:10;" d="M24.167,26.208l-1.801,0.45
	C21.672,26.832,21,26.307,21,25.592v-4.733c0-0.505,0.343-0.944,0.833-1.067l1.801-0.45C24.328,19.168,25,19.693,25,20.408v4.733
	C25,25.646,24.657,26.086,24.167,26.208z"/>
<path style="fill:none;stroke:#000000;stroke-width:2;stroke-miterlimit:10;" d="M9.634,26.658l-1.801-0.45
	C7.343,26.086,7,25.646,7,25.141v-4.733c0-0.715,0.672-1.24,1.366-1.067l1.801,0.45C10.657,19.914,11,20.354,11,20.859v4.733
	C11,26.307,10.328,26.832,9.634,26.658z"/>
<path style="fill:none;stroke:#000000;stroke-width:2;stroke-miterlimit:10;" d="M25,21.5c2-0.75,3-1.5,3-1.5"/>
<path style="fill:none;stroke:#000000;stroke-width:2;stroke-miterlimit:10;" d="M18.001,22.936c1.089-0.071,2.089-0.197,3-0.359"/>
<path style="fill:none;stroke:#000000;stroke-width:2;stroke-miterlimit:10;" d="M11,22.577c0.911,0.161,1.911,0.288,3,0.359"/>
<path style="fill:none;stroke:#000000;stroke-width:2;stroke-miterlimit:10;" d="M4.003,20.002C4.063,20.047,5.063,20.773,7,21.5"/>
<path style="fill:none;stroke:#000000;stroke-width:2;stroke-miterlimit:10;" d="M7.003,23.501C5.001,22.751,4,22,4,22l0.003-1.998
	C4.001,20.001,4,20,4,20L6.562,7.176C6.813,5.356,8.369,4,10.206,4h11.588c1.838,0,3.393,1.356,3.645,3.176L28,20v2
	c0,0-1,0.75-3,1.5"/>
<path style="fill:none;stroke:#000000;stroke-width:2;stroke-miterlimit:10;" d="M14,24.936c-1.089-0.071-2.089-0.197-3-0.359"/>
<path style="fill:none;stroke:#000000;stroke-width:2;stroke-miterlimit:10;" d="M21,24.577c-0.911,0.161-1.911,0.288-2.999,0.359"
	/>
</svg>
