<?xml version="1.0" encoding="iso-8859-1"?>
<!-- Generator: Adobe Illustrator 19.1.1, SVG Export Plug-In . SVG Version: 6.00 Build 0)  -->
<svg version="1.1" id="Layer_1" xmlns="http://www.w3.org/2000/svg" xmlns:xlink="http://www.w3.org/1999/xlink" x="0px" y="0px"
	 viewBox="0 0 32 32" style="enable-background:new 0 0 32 32;" xml:space="preserve">
<polyline style="fill:none;stroke:#000000;stroke-width:2;stroke-miterlimit:10;" points="26,17 26,5 21,5 "/>
<polyline style="fill:none;stroke:#000000;stroke-width:2;stroke-miterlimit:10;" points="11,5 6,5 6,29 20,29 "/>
<path style="fill:none;stroke:#000000;stroke-width:2;stroke-miterlimit:10;" d="M18,5c0-1.105-0.895-2-2-2s-2,0.895-2,2h-3v4h10V5
	H18z"/>
<line style="fill:none;stroke:#000000;stroke-width:2;stroke-miterlimit:10;" x1="10" y1="12" x2="10" y2="16"/>
<line style="fill:none;stroke:#000000;stroke-width:2;stroke-miterlimit:10;" x1="13" y1="14" x2="13" y2="16"/>
<rect x="20" y="16" style="fill:none;stroke:#000000;stroke-width:2;stroke-miterlimit:10;" width="11" height="15"/>
<rect x="23" y="19" width="5" height="2"/>
<rect x="23" y="23" width="2" height="2"/>
<rect x="13" y="20" width="2" height="2"/>
<rect x="26" y="23" width="2" height="2"/>
<rect x="23" y="26" width="2" height="2"/>
<rect x="26" y="26" width="2" height="2"/>
<line style="fill:none;stroke:#000000;stroke-width:2;stroke-miterlimit:10;" x1="16" y1="13" x2="16" y2="16"/>
<circle style="fill:none;stroke:#000000;stroke-width:2;stroke-miterlimit:10;" cx="13" cy="22" r="3"/>
</svg>
