<?xml version="1.0" encoding="utf-8"?>
<!-- Generator: Adobe Illustrator 18.1.1, SVG Export Plug-In . SVG Version: 6.00 Build 0)  -->
<svg version="1.1" id="Layer_1" xmlns="http://www.w3.org/2000/svg" xmlns:xlink="http://www.w3.org/1999/xlink" x="0px" y="0px"
	 viewBox="0 0 32 32" enable-background="new 0 0 32 32" xml:space="preserve">
<circle fill="none" stroke="#000000" stroke-width="2" stroke-miterlimit="10" cx="9" cy="20" r="3"/>
<path fill="none" stroke="#000000" stroke-width="2" stroke-miterlimit="10" d="M5,27c0-2.2,1.8-4,4-4s4,1.8,4,4"/>
<circle fill="none" stroke="#000000" stroke-width="2" stroke-miterlimit="10" cx="23" cy="20" r="3"/>
<path fill="none" stroke="#000000" stroke-width="2" stroke-miterlimit="10" d="M19,27c0-2.2,1.8-4,4-4s4,1.8,4,4"/>
<polygon fill="none" stroke="#000000" stroke-width="2" stroke-miterlimit="10" points="18,5 5,5 5,11 7,11 7,13 10,11 18,11 "/>
<polyline fill="none" stroke="#000000" stroke-width="2" stroke-miterlimit="10" points="15,11 15,14 22,14 25,17 25,14 27,14 27,7 
	18,7 "/>
</svg>
