<?xml version="1.0" encoding="iso-8859-1"?>
<!-- Generator: Adobe Illustrator 21.0.0, SVG Export Plug-In . SVG Version: 6.00 Build 0)  -->
<svg version="1.1" id="Layer_1" xmlns="http://www.w3.org/2000/svg" xmlns:xlink="http://www.w3.org/1999/xlink" x="0px" y="0px"
	 viewBox="0 0 32 32" style="enable-background:new 0 0 32 32;" xml:space="preserve">
<path d="M26.676,17.932C28.114,16.956,29,15.383,29,13.5c0-2.871-2.052-5.027-5-5.427v2.031c1.804,0.351,3,1.644,3,3.396
	s-1.196,3.046-3,3.396v2.198c2.796,0.493,5,2.994,5,5.906h2C31,21.979,29.22,19.289,26.676,17.932z"/>
<path d="M8,16.896c-1.804-0.351-3-1.644-3-3.396c0-1.721,1.217-3.031,3-3.391V8.076C5.091,8.489,3,10.679,3,13.5
	c0,1.883,0.886,3.456,2.324,4.432C2.78,19.289,1,21.979,1,25h2c0-2.912,2.204-5.413,5-5.906V16.896z"/>
<circle style="fill:none;stroke:#000000;stroke-width:2;stroke-miterlimit:10;" cx="16" cy="12" r="6"/>
<path style="fill:none;stroke:#000000;stroke-width:2;stroke-miterlimit:10;" d="M7,27c0-4.971,4.029-9,9-9s9,4.029,9,9"/>
<polygon points="12,18 16,22 20,18 "/>
<polygon points="18,27 16,21 14,27 16,29 "/>
</svg>
