<?xml version="1.0" encoding="utf-8"?>
<!-- Generator: Adobe Illustrator 18.1.1, SVG Export Plug-In . SVG Version: 6.00 Build 0)  -->
<svg version="1.1" id="Layer_1" xmlns="http://www.w3.org/2000/svg" xmlns:xlink="http://www.w3.org/1999/xlink" x="0px" y="0px"
	 viewBox="0 0 32 32" enable-background="new 0 0 32 32" xml:space="preserve">
<path fill="none" stroke="#000000" stroke-width="2" stroke-miterlimit="10" d="M13,21h3.5c1.4,0,2.5-1.1,2.5-2.5v0
	c0-1.4-1.1-2.5-2.5-2.5h-1c-1.4,0-2.5-1.1-2.5-2.5v0c0-1.4,1.1-2.5,2.5-2.5H19"/>
<line fill="none" stroke="#000000" stroke-width="2" stroke-miterlimit="10" x1="16" y1="11" x2="16" y2="8"/>
<line fill="none" stroke="#000000" stroke-width="2" stroke-miterlimit="10" x1="16" y1="24" x2="16" y2="21"/>
<polyline fill="none" stroke="#000000" stroke-width="2" stroke-miterlimit="10" points="24,12 24,7 29,7 "/>
<polyline fill="none" stroke="#000000" stroke-width="2" stroke-miterlimit="10" points="8,20 8,25 3,25 "/>
<path d="M24,7v1.5c1.9,2,3,4.6,3,7.5c0,6.1-4.9,11-11,11c-1.8,0-3.5-0.4-5-1.2V28c1.5,0.6,3.2,1,5,1c7.2,0,13-5.8,13-13
	c0-3.5-1.4-6.7-3.6-9H24z"/>
<path d="M8,25v-1.5c-1.9-2-3-4.6-3-7.5C5,9.9,9.9,5,16,5c1.8,0,3.5,0.4,5,1.2V4c-1.5-0.6-3.2-1-5-1C8.8,3,3,8.8,3,16
	c0,3.5,1.4,6.7,3.6,9H8z"/>
</svg>
