<?xml version="1.0" encoding="iso-8859-1"?>
<!-- Generator: Adobe Illustrator 22.1.0, SVG Export Plug-In . SVG Version: 6.00 Build 0)  -->
<svg version="1.1" id="Layer_1" xmlns="http://www.w3.org/2000/svg" xmlns:xlink="http://www.w3.org/1999/xlink" x="0px" y="0px"
	 viewBox="0 0 32 32" style="enable-background:new 0 0 32 32;" xml:space="preserve">
<polyline style="fill:none;stroke:#000000;stroke-width:2;stroke-miterlimit:10;" points="22,28 7,28 7,4 25,4 25,13 "/>
<rect x="11" y="8" style="fill:none;stroke:#000000;stroke-width:2;stroke-miterlimit:10;" width="10" height="4"/>
<rect x="15" y="15" width="2" height="2"/>
<rect x="19" y="15" width="2" height="2"/>
<rect x="11" y="15" width="2" height="2"/>
<rect x="15" y="19" width="2" height="2"/>
<rect x="19" y="19" width="2" height="2"/>
<rect x="11" y="19" width="2" height="2"/>
<rect x="15" y="23" width="2" height="2"/>
<rect x="19" y="23" width="2" height="2"/>
<rect x="11" y="23" width="2" height="2"/>
<path d="M31,25.5c0-2-1.5-3.5-3.5-3.5h-1c-0.8,0-1.5-0.7-1.5-1.5s0.7-1.5,1.5-1.5H30v-2h-2v-2h-2v2c-1.7,0.3-3,1.7-3,3.5
	c0,2,1.5,3.5,3.5,3.5h1c0.8,0,1.5,0.7,1.5,1.5S28.3,27,27.5,27H24v2h2v2h2v-2C29.7,28.7,31,27.3,31,25.5z"/>
</svg>
