<?xml version="1.0" encoding="utf-8"?>
<!-- Generator: Adobe Illustrator 18.1.1, SVG Export Plug-In . SVG Version: 6.00 Build 0)  -->
<svg version="1.1" id="Layer_1" xmlns="http://www.w3.org/2000/svg" xmlns:xlink="http://www.w3.org/1999/xlink" x="0px" y="0px"
	 viewBox="0 0 32 32" enable-background="new 0 0 32 32" xml:space="preserve">
<line fill="none" stroke="#000000" stroke-width="2" stroke-miterlimit="10" x1="8.5" y1="8.5" x2="13.6" y2="13.6"/>
<polygon fill="none" stroke="#000000" stroke-width="2" stroke-miterlimit="10" points="8.9,6.1 8.9,8.1 8.1,8.9 6.1,8.9 4,5.4 
	5.4,4 "/>
<path fill="none" stroke="#000000" stroke-width="2" stroke-miterlimit="10" d="M16.1,20.3c0,0,6.5,6.5,6.8,6.8
	c1.2,1.2,3.1,1.2,4.2,0c1.2-1.2,1.2-3.1,0-4.2c-0.4-0.4-6.8-6.8-6.8-6.8"/>
<path fill="none" stroke="#000000" stroke-width="2" stroke-miterlimit="10" d="M27.3,7.3l-4.5,4.5L20,8.9l4.4-4.4
	C23.7,4.2,22.9,4,22,4c-3.3,0-6,2.7-6,6c0,0.5,0.1,1.1,0.2,1.5C12.6,15.1,5.2,22.6,4.9,22.9c-1.2,1.2-1.2,3.1,0,4.2
	c1.2,1.2,3.1,1.2,4.2,0c0.3-0.3,7.8-7.8,11.3-11.3c0.5,0.1,1,0.2,1.5,0.2c3.3,0,6-2.7,6-6C28,9,27.8,8.1,27.3,7.3z"/>
</svg>
