<?xml version="1.0" encoding="iso-8859-1"?>
<!-- Generator: Adobe Illustrator 21.0.2, SVG Export Plug-In . SVG Version: 6.00 Build 0)  -->
<svg version="1.1" id="Layer_1" xmlns="http://www.w3.org/2000/svg" xmlns:xlink="http://www.w3.org/1999/xlink" x="0px" y="0px"
	 viewBox="0 0 32 32" style="enable-background:new 0 0 32 32;" xml:space="preserve">
<polyline style="fill:none;stroke:#000000;stroke-width:2;stroke-miterlimit:10;" points="19,4 19,10 25,10 "/>
<path d="M19,20.618C18.266,21.458,17.201,22,16,22c-2.206,0-4-1.794-4-4s1.794-4,4-4v4h3v-2h2.65c-0.826-2.327-3.043-4-5.65-4
	c-3.309,0-6,2.691-6,6s2.691,6,6,6c1.093,0,2.116-0.299,3-0.812V20.618z"/>
<polygon points="17,27 8,27 8,5 18.586,5 24,10.414 24,16 26,16 26,9.586 19.414,3 6,3 6,29 17,29 "/>
<path style="fill:none;stroke:#000000;stroke-width:2;stroke-miterlimit:10;" d="M29,31h-7c-1.105,0-2-0.895-2-2v-1h8"/>
<path style="fill:none;stroke:#000000;stroke-width:2;stroke-miterlimit:10;" d="M22,28v-9h9v10c0,1.105-0.895,2-2,2l0,0"/>
<path style="fill:none;stroke:#000000;stroke-width:2;stroke-miterlimit:10;" d="M27,28v1c0,1.105,0.895,2,2,2"/>
</svg>
