<?xml version="1.0" encoding="iso-8859-1"?>
<!-- Generator: Adobe Illustrator 19.1.1, SVG Export Plug-In . SVG Version: 6.00 Build 0)  -->
<svg version="1.1" id="Layer_1" xmlns="http://www.w3.org/2000/svg" xmlns:xlink="http://www.w3.org/1999/xlink" x="0px" y="0px"
	 viewBox="0 0 32 32" style="enable-background:new 0 0 32 32;" xml:space="preserve">
<path style="fill:none;stroke:#000000;stroke-width:2;stroke-miterlimit:10;" d="M13.997,14v-2c0-1.105-0.895-2-2-2h0
	c-1.105,0-2,0.895-2,2v2"/>
<path style="fill:none;stroke:#000000;stroke-width:2;stroke-miterlimit:10;" d="M18,15l-0.003-4c0-1.105-0.895-2-2-2h0
	c-1.105,0-2,0.895-2,2L14,15"/>
<path style="fill:none;stroke:#000000;stroke-width:2;stroke-miterlimit:10;" d="M21.997,16L21.995,6c0-1.105-0.895-2-2-2h0
	c-1.105,0-2,0.895-2,2v8"/>
<path style="fill:none;stroke:#000000;stroke-width:2;stroke-miterlimit:10;" d="M17.847,21.918l0.893-1.638l-4.929-1.276
	c-1.216-0.425-1.703-1.308-1.452-2.361c0.251-1.053,1.308-1.703,2.361-1.452l6.441,0.833c0,0,2.305,0.176,2.776,2.864
	c0.165,0.943-0.032,1.952-0.157,2.37l-0.773,2.509C22.232,26.283,19.906,28,17.273,28H12c-3.314,0-6-2.686-6-6v-8"/>
<path style="fill:none;stroke:#000000;stroke-width:2;stroke-miterlimit:10;" d="M8,17L8,17c1.105,0,2-0.895,2-2l0-2
	c0-1.105-0.895-2-2-2h0c-1.105,0-2,0.895-2,2l0,2C6,16.105,6.895,17,8,17z"/>
<path style="fill:none;stroke:#000000;stroke-width:2;stroke-miterlimit:10;" d="M10,15c0,1.105,0.895,2,2,2h0"/>
</svg>
