<?xml version="1.0" encoding="iso-8859-1"?>
<!-- Generator: Adobe Illustrator 19.1.1, SVG Export Plug-In . SVG Version: 6.00 Build 0)  -->
<svg version="1.1" id="Layer_1" xmlns="http://www.w3.org/2000/svg" xmlns:xlink="http://www.w3.org/1999/xlink" x="0px" y="0px"
	 viewBox="0 0 32 32" style="enable-background:new 0 0 32 32;" xml:space="preserve">
<line style="fill:none;stroke:#000000;stroke-width:2;stroke-miterlimit:10;" x1="20" y1="20" x2="25" y2="20"/>
<line style="fill:none;stroke:#000000;stroke-width:2;stroke-miterlimit:10;" x1="20" y1="24" x2="24" y2="24"/>
<path style="fill:none;stroke:#000000;stroke-width:2;stroke-miterlimit:10;" d="M24.519,16.575l1.206-3.681l1.884-2.784
	l-6.534-5.69c-3.106,3.424-5.388,3.341-6.505,4.197S11.824,11.012,12,15v7c0,0,3.614-0.032,4-3v-3l6.366-0.028
	c1.483-0.079,2.749,1.07,2.814,2.553c0,0-0.646,4.933-0.952,6.498C24.008,26.155,23.306,27.93,22,28H12H4v-9l0,0
	c1.807-0.697,2.713-2.046,3.531-2.983c1.302-1.492,1.861-2.461,3.937-2.916"/>
</svg>
