<?xml version="1.0" encoding="iso-8859-1"?>
<!-- Generator: Adobe Illustrator 19.1.1, SVG Export Plug-In . SVG Version: 6.00 Build 0)  -->
<svg version="1.1" id="Layer_1" xmlns="http://www.w3.org/2000/svg" xmlns:xlink="http://www.w3.org/1999/xlink" x="0px" y="0px"
	 viewBox="0 0 32 32" style="enable-background:new 0 0 32 32;" xml:space="preserve">
<path id="XMLID_12_" style="fill:none;stroke:#000000;stroke-width:2;stroke-miterlimit:10;" d="M12.5,18L12.5,18
	c0.828,0,1.5,0.672,1.5,1.5v0c0,0.828-0.576,1.5-1.5,1.5c-1.104,0-1.5-0.572-1.5-1.381l0,0"/>
<path id="XMLID_9_" style="fill:none;stroke:#000000;stroke-width:2;stroke-miterlimit:10;" d="M12.5,18L12.5,18
	c0.828,0,1.5-0.672,1.5-1.5v0c0-0.828-0.576-1.5-1.5-1.5c-1.104,0-1.5,0.572-1.5,1.381l0,0"/>
<line style="fill:none;stroke:#000000;stroke-width:2;stroke-miterlimit:10;" x1="12" y1="18" x2="13" y2="18"/>
<rect x="6" y="6" style="fill:none;stroke:#000000;stroke-width:2;stroke-miterlimit:10;" width="20" height="20"/>
<line style="fill:none;stroke:#000000;stroke-width:2;stroke-miterlimit:10;" x1="6" y1="10" x2="26" y2="10"/>
<line style="fill:none;stroke:#000000;stroke-width:2;stroke-miterlimit:10;" x1="22" y1="8" x2="22" y2="4"/>
<line style="fill:none;stroke:#000000;stroke-width:2;stroke-miterlimit:10;" x1="10" y1="8" x2="10" y2="4"/>
<linearGradient id="SVGID_1_" gradientUnits="userSpaceOnUse" x1="18" y1="18" x2="21" y2="18">
	<stop  offset="0" style="stop-color:#FFFFFF"/>
	<stop  offset="1" style="stop-color:#000000"/>
</linearGradient>
<path style="fill:url(#SVGID_1_);stroke:#000000;stroke-width:2;stroke-miterlimit:10;" d="M19.5,15L19.5,15
	c-0.828,0-1.5,0.672-1.5,1.5v3c0,0.828,0.672,1.5,1.5,1.5h0c0.828,0,1.5-0.672,1.5-1.5v-3C21,15.672,20.328,15,19.5,15z"/>
</svg>
