<?xml version="1.0" encoding="iso-8859-1"?>
<!-- Generator: Adobe Illustrator 19.2.0, SVG Export Plug-In . SVG Version: 6.00 Build 0)  -->
<svg version="1.1" id="Layer_1" xmlns="http://www.w3.org/2000/svg" xmlns:xlink="http://www.w3.org/1999/xlink" x="0px" y="0px"
	 viewBox="0 0 32 32" style="enable-background:new 0 0 32 32;" xml:space="preserve">
<rect x="6" y="6" style="fill:none;stroke:#000000;stroke-width:2;stroke-miterlimit:10;" width="20" height="20"/>
<line style="fill:none;stroke:#000000;stroke-width:2;stroke-miterlimit:10;" x1="6" y1="10" x2="26" y2="10"/>
<line style="fill:none;stroke:#000000;stroke-width:2;stroke-miterlimit:10;" x1="22" y1="8" x2="22" y2="4"/>
<line style="fill:none;stroke:#000000;stroke-width:2;stroke-miterlimit:10;" x1="10" y1="8" x2="10" y2="4"/>
<g>
	<rect x="19.258" y="12.5" transform="matrix(0.7071 -0.7071 0.7071 0.7071 -5.4558 18.8284)" width="1.485" height="7"/>
</g>
<g>
	<rect x="16.5" y="15.258" transform="matrix(0.7071 -0.7071 0.7071 0.7071 -5.4558 18.8284)" width="7" height="1.485"/>
</g>
<rect x="13" y="13" width="2" height="2"/>
<rect x="13" y="17" width="2" height="2"/>
<rect x="9" y="17" width="2" height="2"/>
<rect x="17" y="21" width="2" height="2"/>
<rect x="13" y="21" width="2" height="2"/>
<rect x="9" y="21" width="2" height="2"/>
</svg>
