<?xml version="1.0" encoding="iso-8859-1"?>
<!-- Generator: Adobe Illustrator 19.1.0, SVG Export Plug-In . SVG Version: 6.00 Build 0)  -->
<svg version="1.1" id="Layer_1" xmlns="http://www.w3.org/2000/svg" xmlns:xlink="http://www.w3.org/1999/xlink" x="0px" y="0px"
	 viewBox="0 0 32 32" style="enable-background:new 0 0 32 32;" xml:space="preserve">
<polygon points="10,12 4,13 5,7 "/>
<path style="fill:none;stroke:#000000;stroke-width:2;stroke-miterlimit:10;" d="M5.75,12C7.35,7.903,11.336,5,16,5
	c6.075,0,11,4.925,11,11s-4.925,11-11,11S5,22.075,5,16"/>
<line style="fill:none;stroke:#000000;stroke-width:2;stroke-miterlimit:10;" x1="16" y1="7" x2="16" y2="5"/>
<line style="fill:none;stroke:#000000;stroke-width:2;stroke-miterlimit:10;" x1="16" y1="27" x2="16" y2="25"/>
<line style="fill:none;stroke:#000000;stroke-width:2;stroke-miterlimit:10;" x1="25" y1="16" x2="27" y2="16"/>
<path style="fill:none;stroke:#000000;stroke-width:2;stroke-miterlimit:10;" d="M17,13c-1.401,0-3,1.165-3,4v0.5
	c0,0.828,0.672,1.5,1.5,1.5h0c0.828,0,1.5-0.672,1.5-1.5v0c0-0.828-0.672-1.5-1.5-1.5h-0.927"/>
</svg>
