<?xml version="1.0" encoding="iso-8859-1"?>
<!-- Generator: Adobe Illustrator 19.1.1, SVG Export Plug-In . SVG Version: 6.00 Build 0)  -->
<svg version="1.1" id="Layer_1" xmlns="http://www.w3.org/2000/svg" xmlns:xlink="http://www.w3.org/1999/xlink" x="0px" y="0px"
	 viewBox="0 0 32 32" style="enable-background:new 0 0 32 32;" xml:space="preserve">
<rect x="11" y="8" width="2" height="2"/>
<rect x="11" y="12" width="2" height="2"/>
<rect x="11" y="16" width="2" height="2"/>
<rect x="19" y="9" width="2" height="2"/>
<rect x="19" y="13" width="2" height="2"/>
<rect x="19" y="17" width="2" height="2"/>
<polyline style="fill:none;stroke:#000000;stroke-width:2;stroke-miterlimit:10;" points="27,18 27,4 20,7 12,4 5,7 5,19 5,19 "/>
<line style="fill:none;stroke:#000000;stroke-width:2;stroke-miterlimit:10;" x1="18" y1="26" x2="22" y2="26"/>
<path id="XMLID_101_" style="fill:none;stroke:#000000;stroke-width:2;stroke-miterlimit:10;" d="M26,29v-7h-0.621
	c0,0-0.748,1-1.883,1"/>
<line style="fill:none;stroke:#000000;stroke-width:2;stroke-miterlimit:10;" x1="20" y1="28" x2="20" y2="24"/>
<polygon points="12,19.932 11.975,19.923 6,22.483 6,16 4,16 4,25.517 12,22.088 "/>
</svg>
