<?xml version="1.0" encoding="iso-8859-1"?>
<!-- Generator: Adobe Illustrator 19.1.1, SVG Export Plug-In . SVG Version: 6.00 Build 0)  -->
<svg version="1.1" id="Layer_1" xmlns="http://www.w3.org/2000/svg" xmlns:xlink="http://www.w3.org/1999/xlink" x="0px" y="0px"
	 viewBox="0 0 32 32" style="enable-background:new 0 0 32 32;" xml:space="preserve">
<circle style="fill:none;stroke:#000000;stroke-width:2;stroke-miterlimit:10;" cx="6" cy="16" r="3"/>
<path d="M23,24H9c0-3.859,3.14-7,7-7S23,20.141,23,24z"/>
<circle style="fill:none;stroke:#000000;stroke-width:2;stroke-miterlimit:10;" cx="26" cy="16" r="3"/>
<circle cx="16" cy="13" r="4"/>
<path style="fill:none;stroke:#000000;stroke-width:2;stroke-miterlimit:10;" d="M30,23L30,23c0-2.209-1.791-4-4-4h0
	c-2.209,0-4,1.791-4,4v1"/>
<path style="fill:none;stroke:#000000;stroke-width:2;stroke-miterlimit:10;" d="M2,23L2,23c0-2.209,1.791-4,4-4h0
	c2.209,0,4,1.791,4,4v1"/>
</svg>
