<?xml version="1.0" encoding="iso-8859-1"?>
<!-- Generator: Adobe Illustrator 19.1.1, SVG Export Plug-In . SVG Version: 6.00 Build 0)  -->
<svg version="1.1" id="Layer_1" xmlns="http://www.w3.org/2000/svg" xmlns:xlink="http://www.w3.org/1999/xlink" x="0px" y="0px"
	 viewBox="0 0 32 32" style="enable-background:new 0 0 32 32;" xml:space="preserve">
<polyline style="fill:none;stroke:#000000;stroke-width:2;stroke-miterlimit:10;" points="11.75,16.375 9.375,14 11.75,11.625 "/>
<polyline style="fill:none;stroke:#000000;stroke-width:2;stroke-miterlimit:10;" points="18.25,16.375 20.625,14 18.25,11.625 "/>
<polygon points="17,10 15,10 13,18 15,18 "/>
<path style="fill:none;stroke:#000000;stroke-width:2;stroke-miterlimit:10;" d="M9.001,28c0,0,0-0.417,0-4s-4-4.833-4-10
	c0-8.375,5.208-10,9-10c8.042,0,10,4.458,10,8l2.786,4.172c0.466,0.698,0.133,1.649-0.667,1.903l-2.119,0.674c0,0,0,1.268,0,2.25
	c0,1.982-2,4-4,4c-0.964,0-1,0-1,0v3"/>
</svg>
