<?xml version="1.0" encoding="iso-8859-1"?>
<!-- Generator: Adobe Illustrator 19.1.0, SVG Export Plug-In . SVG Version: 6.00 Build 0)  -->
<svg version="1.1" id="Layer_1" xmlns="http://www.w3.org/2000/svg" xmlns:xlink="http://www.w3.org/1999/xlink" x="0px" y="0px"
	 viewBox="0 0 32 32" style="enable-background:new 0 0 32 32;" xml:space="preserve">
<path style="fill:none;stroke:#000000;stroke-width:2;stroke-miterlimit:10;" d="M23,14c0,0,1.5,0.259,1.5,1c0,2-1.5,3-1.5,3
	s0.991,9-6.999,9S9,18,9,18s-1.5-1-1.5-3c0-0.741,1.5-1,1.5-1s0.725-9,7-9S23,14,23,14z"/>
<path d="M14.5,16.5h-3c0-0.828,0.672-1.5,1.5-1.5S14.5,15.672,14.5,16.5z"/>
<path d="M20.5,16.5h-3c0-0.828,0.672-1.5,1.5-1.5S20.5,15.672,20.5,16.5z"/>
<path style="fill:none;stroke:#000000;stroke-width:2;stroke-miterlimit:10;" d="M11.578,24.688L13,20.949
	C14.234,20.578,15,20,15,20s0.588,0.188,1.005,0.188S17,20,17,20s0.766,0.578,2,0.949l1.422,3.738"/>
<line style="fill:none;stroke:#000000;stroke-width:2;stroke-miterlimit:10;" x1="16" y1="27" x2="16" y2="23.5"/>
</svg>
