<?xml version="1.0" encoding="iso-8859-1"?>
<!-- Generator: Adobe Illustrator 19.1.1, SVG Export Plug-In . SVG Version: 6.00 Build 0)  -->
<svg version="1.1"  xmlns="http://www.w3.org/2000/svg" xmlns:xlink="http://www.w3.org/1999/xlink" x="0px" y="0px"
	 viewBox="0 0 32 32" style="enable-background:new 0 0 32 32;" xml:space="preserve">
<path style="fill:none;stroke:#000000;stroke-width:2;stroke-miterlimit:10;" d="M1.784,17.405C1.317,17.688,1,18.212,1,18.818
	c0,0.858,0.631,1.555,1.43,1.623c0.591,2.02,1.456,4.275,2.05,4.937c1.944,2.163,5.096,2.163,7.04,0
	c0.594-0.661,1.46-2.917,2.05-4.937c0.799-0.068,1.43-0.765,1.43-1.623c0-0.607-0.312-1.13-0.778-1.413v-1.042
	c0-4.371-2.34-6.364-4.321-6.364L8.951,9c-5.462,0-7.173,2.668-7.173,7.364L1.784,17.405z"/>
<circle cx="6" cy="19" r="1"/>
<circle cx="10" cy="19" r="1"/>
<path style="fill:none;stroke:#000000;stroke-width:2;stroke-miterlimit:10;" d="M9.901,10c2.307,4.847-4.72,1.731-4.753,6"/>
<path style="fill:none;stroke:#000000;stroke-width:2;stroke-miterlimit:10;" d="M17.784,17.405C17.317,17.688,17,18.212,17,18.818
	c0,0.858,0.631,1.555,1.43,1.623c0.591,2.02,1.456,4.275,2.05,4.937c1.944,2.163,5.096,2.163,7.04,0
	c0.594-0.661,1.46-2.917,2.05-4.937c0.799-0.068,1.43-0.765,1.43-1.623c0-0.607-0.312-1.13-0.778-1.413v-1.042
	c0-4.371-2.34-6.364-4.321-6.364l-0.951-1c-5.462,0-7.173,2.668-7.173,7.364L17.784,17.405z"/>
<circle cx="22" cy="19" r="1"/>
<circle cx="26" cy="19" r="1"/>
<path style="fill:none;stroke:#000000;stroke-width:2;stroke-miterlimit:10;" d="M25.901,10c2.307,4.847-4.72,1.731-4.753,6"/>
<path d="M15.5,3.875c0,0-0.783-0.875-1.75-0.875S12,3.794,12,4.75c0,0.592,0.583,1.167,0.583,1.167L15.5,8.833l2.917-2.917
	c0,0,0.583-0.574,0.583-1.167C19,3.794,18.217,3,17.25,3S15.5,3.875,15.5,3.875z"/>
</svg>
