<?xml version="1.0" encoding="iso-8859-1"?>
<!-- Generator: Adobe Illustrator 19.1.0, SVG Export Plug-In . SVG Version: 6.00 Build 0)  -->
<svg version="1.1" id="Layer_1" xmlns="http://www.w3.org/2000/svg" xmlns:xlink="http://www.w3.org/1999/xlink" x="0px" y="0px"
	 viewBox="0 0 32 32" style="enable-background:new 0 0 32 32;" xml:space="preserve">
<circle style="fill:none;stroke:#000000;stroke-width:2;stroke-miterlimit:10;" cx="16" cy="8" r="3"/>
<circle style="fill:none;stroke:#000000;stroke-width:2;stroke-miterlimit:10;" cx="24" cy="12" r="3"/>
<circle style="fill:none;stroke:#000000;stroke-width:2;stroke-miterlimit:10;" cx="8" cy="12" r="3"/>
<path style="fill:none;stroke:#000000;stroke-width:2;stroke-miterlimit:10;" d="M29,20c0-2.761-2.239-5-5-5
	c-0.788,0-1.529,0.192-2.192,0.517C21.147,12.922,18.801,11,16,11c-2.804,0-5.152,1.926-5.81,4.525C9.526,15.199,8.789,15,8,15
	c-1.134,0-2.18,0.378-3.019,1.014C3.778,16.927,3,18.372,3,20"/>
<circle cx="16" cy="19" r="3"/>
<path d="M11,27c0-2.761,2.239-5,5-5s5,2.239,5,5H11z"/>
</svg>
