<?xml version="1.0" encoding="iso-8859-1"?>
<!-- Generator: Adobe Illustrator 19.1.1, SVG Export Plug-In . SVG Version: 6.00 Build 0)  -->
<svg version="1.1" id="Layer_1" xmlns="http://www.w3.org/2000/svg" xmlns:xlink="http://www.w3.org/1999/xlink" x="0px" y="0px"
	 viewBox="0 0 32 32" style="enable-background:new 0 0 32 32;" xml:space="preserve">
<circle cx="13" cy="19" r="1"/>
<circle cx="19" cy="19" r="1"/>
<path style="fill:none;stroke:#000000;stroke-width:2;stroke-miterlimit:10;" d="M19.077,26H28c0-15.992-6.203-18-8.75-18l-1.125-2
	C11.727,6,4,8.019,4,26h9.025"/>
<path style="fill:none;stroke:#000000;stroke-width:2;stroke-miterlimit:10;" d="M19,11c0,5.409-10,1.063-10,7c0,3.909,2.855,9,7,9
	s7-5.071,7-9"/>
<line style="fill:none;stroke:#000000;stroke-width:2;stroke-miterlimit:10;" x1="18" y1="19" x2="21" y2="17"/>
<line style="fill:none;stroke:#000000;stroke-width:2;stroke-miterlimit:10;" x1="14" y1="19" x2="11" y2="17"/>
<path d="M18.484,24h-2.609h-2.36C13.232,24,13,23.768,13,23.485V22.5c0-0.825,0.675-1.5,1.5-1.5h3.06c0.792,0,1.44,0.648,1.44,1.44
	v1.045C19,23.768,18.768,24,18.484,24z"/>
</svg>
