<?xml version="1.0" encoding="iso-8859-1"?>
<!-- Generator: Adobe Illustrator 19.1.1, SVG Export Plug-In . SVG Version: 6.00 Build 0)  -->
<svg version="1.1" id="Layer_1" xmlns="http://www.w3.org/2000/svg" xmlns:xlink="http://www.w3.org/1999/xlink" x="0px" y="0px"
	 viewBox="0 0 32 32" style="enable-background:new 0 0 32 32;" xml:space="preserve">
<circle cx="24" cy="8" r="1"/>
<circle cx="21" cy="8" r="1"/>
<circle cx="9" cy="19" r="1"/>
<circle cx="15" cy="19" r="1"/>
<path style="fill:none;stroke:#000000;stroke-width:2;stroke-miterlimit:10;" d="M15.077,26L23,26c0-15.992-5.328-17-7.875-17L14,7
	C6.875,7,1,8.019,1,26l8.025,0"/>
<g>
	<path d="M17,4v3.215c0.714,0.158,1.381,0.407,2,0.751V6h7v4h-4.645c0.463,0.582,0.882,1.249,1.256,2H28V4H17z"/>
</g>
<path style="fill:none;stroke:#000000;stroke-width:2;stroke-miterlimit:10;" d="M15,12c0,5.409-10,1.091-10,6c0,3.909,2.855,9,7,9
	s7-5.071,7-9"/>
</svg>
