<?xml version="1.0" encoding="iso-8859-1"?>
<!-- Generator: Adobe Illustrator 21.0.0, SVG Export Plug-In . SVG Version: 6.00 Build 0)  -->
<svg version="1.1"  xmlns="http://www.w3.org/2000/svg" xmlns:xlink="http://www.w3.org/1999/xlink" x="0px" y="0px"
	 viewBox="0 0 32 32" style="enable-background:new 0 0 32 32;" xml:space="preserve">
<g>
	<path d="M10.091,6.191l9.166,3.666L20,10.154l0.743-0.297L28,6.954v15.692l-8,3.2l-9.257-3.703l-0.834-0.334l-0.803,0.402L4,24.764
		V9.236L10.091,6.191 M30,4L20,8L10,4L2,8v20l8-4l10,4l10-4V4L30,4z"/>
</g>
<line style="stroke:#000000;stroke-width:2;stroke-miterlimit:10;" x1="22" y1="17" x2="26" y2="21"/>
<line style="stroke:#000000;stroke-width:2;stroke-miterlimit:10;" x1="26" y1="17" x2="22" y2="21"/>
<circle cx="20" cy="15" r="1"/>
<circle cx="17" cy="13" r="1"/>
<circle cx="14" cy="12" r="1"/>
<circle cx="11" cy="13" r="1"/>
<circle cx="9" cy="15" r="1"/>
<circle cx="8" cy="18" r="1"/>
</svg>
