<?xml version="1.0" encoding="iso-8859-1"?>
<!-- Generator: Adobe Illustrator 18.1.1, SVG Export Plug-In . SVG Version: 6.00 Build 0)  -->
<svg version="1.1" id="Layer_1" xmlns="http://www.w3.org/2000/svg" xmlns:xlink="http://www.w3.org/1999/xlink" x="0px" y="0px"
	 viewBox="0 0 32 32" style="enable-background:new 0 0 32 32;" xml:space="preserve">
<path d="M16,14.525c0,4.73,2.299,7.79,3,8.475c0.946-0.712,2.181-2.195,2.5-4.625c0.129-0.982,0.834-2.385,0.834-3.375
	C21.016,14.327,20,12.872,20,10C18.57,10.44,16,13.645,16,14.525z"/>
<path d="M12,10c0,2.872-1.016,4.327-2.334,5c0,0.99,0.705,2.393,0.834,3.375c0.319,2.43,1.554,3.913,2.5,4.625
	c0.701-0.685,3-3.745,3-8.475C16,13.645,13.43,10.44,12,10z"/>
<path style="fill:none;stroke:#000000;stroke-width:2;stroke-miterlimit:10;" d="M6.5,13c0,0-0.5-1.621-0.5-2.402
	C6,6.692,10.594,6,12,6l1.349-1h5.301L20,6c1.406,0,6,0.692,6,4.598C26,11.379,25.5,13,25.5,13s1.5,1.763,1.5,4.107L25,19
	c-1.775-0.517-2.45-3-2.45-3h-0.1c0,0-0.95,1.531-0.95,5.533c0,0.391,0.5,1.692,0.5,2.343c0,0.781-0.41,2.083-2,3.124h-8
	c-1.59-1.041-2-2.343-2-3.124c0-0.651,0.5-1.953,0.5-2.343C10.5,17.531,9.55,16,9.55,16h-0.1c0,0-0.675,2.483-2.45,3l-2-1.893
	C5,14.763,6.5,13,6.5,13z"/>
</svg>
