<?xml version="1.0" encoding="iso-8859-1"?>
<!-- Generator: Adobe Illustrator 19.1.0, SVG Export Plug-In . SVG Version: 6.00 Build 0)  -->
<svg version="1.1" id="Layer_1" xmlns="http://www.w3.org/2000/svg" xmlns:xlink="http://www.w3.org/1999/xlink" x="0px" y="0px"
	 viewBox="0 0 32 32" style="enable-background:new 0 0 32 32;" xml:space="preserve">
<path id="XMLID_2620_" style="fill:none;stroke:#000000;stroke-width:2;stroke-linejoin:round;stroke-miterlimit:10;" d="M25,21.864
	C25,20.282,23.718,19,22.136,19c-0.704,0-1.349,0.254-1.847,0.676"/>
<path style="fill:none;stroke:#000000;stroke-width:2;stroke-linejoin:round;stroke-miterlimit:10;" d="M16,10c0,2.209,1.791,4,4,4"
	/>
<path style="fill:none;stroke:#000000;stroke-width:2;stroke-miterlimit:10;" d="M27,16c0-1.18-0.426-2.25-1.109-3.105
	C25.957,12.607,26,12.309,26,12c0-2.209-1.791-4-4-4c0-1.657-1.343-3-3-3s-3,1.343-3,3c0,1.371,0,15.272,0,16.5
	c0,1.381,1.119,2.5,2.5,2.5c1.228,0,2.245-0.887,2.455-2.055C21.134,24.973,21.313,25,21.5,25c1.933,0,3.5-1.567,3.5-3.5
	c0-0.469-0.096-0.914-0.263-1.322C26.098,19.284,27,17.75,27,16z"/>
<path style="fill:none;stroke:#000000;stroke-width:2;stroke-linejoin:round;stroke-miterlimit:10;" d="M16,10c0,2.209-1.791,4-4,4"
	/>
<path style="fill:none;stroke:#000000;stroke-width:2;stroke-miterlimit:10;" d="M5,16c0-1.18,0.426-2.25,1.109-3.105
	C6.043,12.607,6,12.309,6,12c0-2.209,1.791-4,4-4c0-1.657,1.343-3,3-3s3,1.343,3,3c0,1.371,0,15.272,0,16.5
	c0,1.381-1.119,2.5-2.5,2.5c-1.228,0-2.245-0.887-2.455-2.055C10.866,24.973,10.687,25,10.5,25C8.567,25,7,23.433,7,21.5
	c0-0.469,0.096-0.914,0.263-1.322C5.902,19.284,5,17.75,5,16z"/>
<path style="fill:none;stroke:#000000;stroke-width:2;stroke-linejoin:round;stroke-miterlimit:10;" d="M9.801,18.07
	C8.203,18.394,7,19.806,7,21.5"/>
</svg>
