<?xml version="1.0" encoding="iso-8859-1"?>
<!-- Generator: Adobe Illustrator 19.1.0, SVG Export Plug-In . SVG Version: 6.00 Build 0)  -->
<svg version="1.1" id="Layer_1" xmlns="http://www.w3.org/2000/svg" xmlns:xlink="http://www.w3.org/1999/xlink" x="0px" y="0px"
	 viewBox="0 0 32 32" style="enable-background:new 0 0 32 32;" xml:space="preserve">
<path style="fill:none;stroke:#000000;stroke-width:2;stroke-miterlimit:10;" d="M14.584,27.414l-9.998-9.998
	c-0.782-0.782-0.782-2.049,0-2.831l9.998-9.998c0.782-0.782,2.049-0.782,2.831,0l9.998,9.998c0.782,0.782,0.782,2.049,0,2.831
	l-9.998,9.998C16.634,28.195,15.366,28.195,14.584,27.414z"/>
<path d="M18.6,20.9c-0.5,0-0.8-0.6-1.2-0.6c-0.4,0-2,1.1-2.4,2.8l-7-7c0,0,3.9-1,5.5-3c0.5-0.6,1.1-1,2-1s3.1,0.9,3.6,1.6
	c0.5,0.8,1,3.4,2.4,4.7c0.3,0.2-0.1,1.1-0.5,1.6s-0.8,0.4-1.4,0.5C19.4,20.7,18.8,20.9,18.6,20.9z"/>
<path d="M15,13.8c-0.8,0.3-2.3-0.5-2.7-1c0.2-0.1,0.4-0.1,0.5-0.2c-0.2,0-0.5,0.1-0.7-0.1c-0.1-0.4-0.3-0.9,0.1-1.6
	c0.9-0.1,1.6,0.2,2.3,0.8c0.4,0.4,1.3,1.4,0.7,2C15.1,13.8,15.1,13.8,15,13.8z"/>
<path d="M14.2,13.4c0-0.7,0.8-1.4,1.2-1.8c0.5-0.4,1.1-0.7,1.5-0.7c1.1,0,1.4,0.5,2.3,0.9c0.7,0.4,1.4,0.4,1.4,0.5s-0.9,0.4-2,0.1
	c-1.1-0.3-1.7-1.1-2.5,1.4c-0.2,0.7-1.5,0.5-1.8-0.1C14.3,13.6,14.2,13.5,14.2,13.4z"/>
</svg>
