<?xml version="1.0" encoding="iso-8859-1"?>
<!-- Generator: Adobe Illustrator 19.2.0, SVG Export Plug-In . SVG Version: 6.00 Build 0)  -->
<svg version="1.1" id="Layer_1" xmlns="http://www.w3.org/2000/svg" xmlns:xlink="http://www.w3.org/1999/xlink" x="0px" y="0px"
	 viewBox="0 0 32 32" style="enable-background:new 0 0 32 32;" xml:space="preserve">
<ellipse style="fill:none;stroke:#000000;stroke-width:2;stroke-miterlimit:10;" cx="11" cy="16" rx="6" ry="3"/>
<path style="fill:none;stroke:#000000;stroke-width:2;stroke-miterlimit:10;" d="M5,16c0,0.547,0,3.453,0,4c0,1.657,2.686,3,6,3
	s6-1.343,6-3c0-0.547,0-3.453,0-4"/>
<path style="fill:none;stroke:#000000;stroke-width:2;stroke-miterlimit:10;" d="M5,20c0,0.547,0,3.453,0,4c0,1.657,2.686,3,6,3
	s6-1.343,6-3c0-0.547,0-3.453,0-4"/>
<ellipse style="fill:none;stroke:#000000;stroke-width:2;stroke-miterlimit:10;" cx="21" cy="8" rx="6" ry="3"/>
<path style="fill:none;stroke:#000000;stroke-width:2;stroke-miterlimit:10;" d="M15,8c0,0.547,0,3.453,0,4c0,1.657,2.686,3,6,3
	s6-1.343,6-3c0-0.547,0-3.453,0-4"/>
<path style="fill:none;stroke:#000000;stroke-width:2;stroke-miterlimit:10;" d="M17.073,18.268C18.126,18.724,19.498,19,21,19
	c3.314,0,6-1.343,6-3c0-0.547,0-3.453,0-4"/>
<path style="fill:none;stroke:#000000;stroke-width:2;stroke-miterlimit:10;" d="M17.026,22.248C18.084,22.716,19.476,23,21,23
	c3.314,0,6-1.343,6-3c0-0.547,0-3.453,0-4"/>
</svg>
