<?xml version="1.0" encoding="iso-8859-1"?>
<!-- Generator: Adobe Illustrator 19.1.0, SVG Export Plug-In . SVG Version: 6.00 Build 0)  -->
<svg version="1.1" id="Layer_1" xmlns="http://www.w3.org/2000/svg" xmlns:xlink="http://www.w3.org/1999/xlink" x="0px" y="0px"
	 viewBox="0 0 32 32" style="enable-background:new 0 0 32 32;" xml:space="preserve">
<path style="fill:none;stroke:#000000;stroke-width:2;stroke-linecap:round;stroke-linejoin:round;stroke-miterlimit:10;" d="M25,14
	c-1.7,0-3,1.3-3,3c0,3.8-3.5,4-6,4s-6,0-6-4c0-1.7-1.3-3-3-3s-3,1.3-3,3c0,3.9,1.8,8,12,8s12-4.2,12-8C28,15.3,26.7,14,25,14z"/>
<path style="fill:none;stroke:#000000;stroke-width:2;stroke-linecap:round;stroke-linejoin:round;stroke-miterlimit:10;" d="M10,15
	c0,0,0.9,2,6,2s6-2,6-2"/>
<path style="fill:none;stroke:#000000;stroke-width:2;stroke-linecap:round;stroke-linejoin:round;stroke-miterlimit:10;" d="M10,17
	c0,0,1-5.1,1.5-7c0.4-1.8,1.7-3,2.5-3s1.5,1,2,1s1.2-1,2-1s2.1,1.1,2.5,3s1.5,7,1.5,7"/>
</svg>
