<?xml version="1.0" encoding="iso-8859-1"?>
<!-- Generator: Adobe Illustrator 19.1.1, SVG Export Plug-In . SVG Version: 6.00 Build 0)  -->
<svg version="1.1" id="Layer_1" xmlns="http://www.w3.org/2000/svg" xmlns:xlink="http://www.w3.org/1999/xlink" x="0px" y="0px"
	 viewBox="0 0 32 32" style="enable-background:new 0 0 32 32;" xml:space="preserve">
<path style="fill:none;stroke:#000000;stroke-width:2;stroke-miterlimit:10;" d="M20.351,23.161L22,26c1.145-0.037,5.486-1.341,7-4
	c0-5.667-2.358-12.789-3.441-13.789C23.32,6.412,20,6,20,6s-0.454,1.176-0.532,1.987"/>
<path style="fill:none;stroke:#000000;stroke-width:2;stroke-miterlimit:10;" d="M12.532,7.987C12.454,7.176,12,6,12,6
	S8.68,6.412,6.441,8.211C5.358,9.211,3,16.333,3,22c1.514,2.659,5.855,3.963,7,4l1.649-2.839"/>
<ellipse style="fill:none;stroke:#000000;stroke-width:2;stroke-miterlimit:10;" cx="19.5" cy="17" rx="1.5" ry="2"/>
<path style="fill:none;stroke:#000000;stroke-width:2;stroke-miterlimit:10;" d="M7.439,21.494c0,0,2.836,2.506,8.561,2.506
	s8.56-2.506,8.56-2.506"/>
<path style="fill:none;stroke:#000000;stroke-width:2;stroke-miterlimit:10;" d="M24,10c-2.902-1.8-6.746-2-8-2s-5.098,0.2-8,2"/>
<ellipse style="fill:none;stroke:#000000;stroke-width:2;stroke-miterlimit:10;" cx="12.5" cy="17" rx="1.5" ry="2"/>
</svg>
