<?xml version="1.0" encoding="iso-8859-1"?>
<!-- Generator: Adobe Illustrator 19.1.1, SVG Export Plug-In . SVG Version: 6.00 Build 0)  -->
<svg version="1.1" id="Layer_1" xmlns="http://www.w3.org/2000/svg" xmlns:xlink="http://www.w3.org/1999/xlink" x="0px" y="0px"
	 viewBox="0 0 32 32" style="enable-background:new 0 0 32 32;" xml:space="preserve">
<circle style="fill:none;stroke:#000000;stroke-width:2;stroke-miterlimit:10;" cx="24" cy="24" r="3"/>
<polyline style="fill:none;stroke:#000000;stroke-width:2;stroke-miterlimit:10;" points="5,24 2,24 2,5 18,5 18,9 "/>
<polyline style="fill:none;stroke:#000000;stroke-width:2;stroke-miterlimit:10;" points="27,24 30,24 30,15 24,9 18,9 18,24 "/>
<line style="fill:none;stroke:#000000;stroke-width:2;stroke-miterlimit:10;" x1="11" y1="24" x2="21" y2="24"/>
<circle style="fill:none;stroke:#000000;stroke-width:2;stroke-miterlimit:10;" cx="8" cy="24" r="3"/>
<polygon points="5,16 4,16 4,11 6.316,11 6.316,12 5,12 "/>
<rect x="4.5" y="13" width="1.816" height="1"/>
<polygon points="13,16 10.684,16 10.684,11 13,11 13,12 11.684,12 11.684,15 13,15 "/>
<rect x="11.184" y="13" width="1.816" height="1"/>
<polygon points="16,16 13.684,16 13.684,11 16,11 16,12 14.684,12 14.684,15 16,15 "/>
<rect x="14.184" y="13" width="1.816" height="1"/>
<path d="M9.989,16l-1.072-2.071l0.889-0.945v-1.039L8.917,11H6.991v5h1v-1.687L8.864,16H9.989z M8.485,12.929H7.991V12h0.494
	l0.321,0.341v0.246L8.485,12.929z"/>
</svg>
