<?xml version="1.0" encoding="iso-8859-1"?>
<!-- Generator: Adobe Illustrator 19.1.1, SVG Export Plug-In . SVG Version: 6.00 Build 0)  -->
<svg version="1.1" id="Layer_1" xmlns="http://www.w3.org/2000/svg" xmlns:xlink="http://www.w3.org/1999/xlink" x="0px" y="0px"
	 viewBox="0 0 32 32" style="enable-background:new 0 0 32 32;" xml:space="preserve">
<path d="M15.393,27.937c3.982-0.336,7.795-2.316,10.139-5.585c1.959-2.732,2.927-6.079,3.299-9.389C28.854,12.758,29.061,10,29,10
	h-1.097c-0.007-0.019-0.015-0.044-0.015-0.044L27.881,10H27c0,2.771-0.444,7.655-3.162,11.301c-4.61,5.555-10.475,5.013-12.608,2.84
	c-0.843-0.86-1.26-1.918-1.262-3.111c-0.003-2.132,0.744-4.699,3.338-7.357c1.499-1.548,3.197-0.2,1.499,1.548
	c-0.1,0.1-1.836,1.934-1.836,4.122c0,2.781,2.063,3.656,3.281,3.656c5.124,0,8-5.704,8.57-10.11
	c0.339-2.624,0.086-5.386-1.843-7.379c-1.723-1.781-4.682-1.714-6.926-1.2c-2.657,0.608-5.098,2.024-7.02,3.943
	C5.071,12.208,3,18.163,3,22h1.103c0.004,0.019,0.009,0.044,0.009,0.044L4.121,22H5c0-3.342,1.908-8.799,5.444-12.331
	c1.046-1.045,2.177-1.855,3.378-2.455c2.861-1.096,5.51-0.892,6.822,0.444C21.541,8.574,22,9.782,22,11.156
	c-0.001,2.222-0.656,4.598-3.156,7.16c-1.498,1.548-3.422,0.206-1.73-1.548c1.303-1.351,1.823-3.518,1.823-4.767
	c0-0.747-0.311-2.989-2.607-2.989c-2.016,0-3.974,1.404-5.173,2.676c-3.018,3.046-4.141,6.702-4.188,9.46
	c-0.027,1.628,0.58,3.318,1.61,4.595c1.219,1.511,2.919,2.12,4.82,2.225C14.064,28.004,14.731,27.993,15.393,27.937z"/>
</svg>
