<?xml version="1.0" encoding="utf-8"?>
<!-- Generator: Adobe Illustrator 18.1.1, SVG Export Plug-In . SVG Version: 6.00 Build 0)  -->
<svg version="1.1" id="Layer_1" xmlns="http://www.w3.org/2000/svg" xmlns:xlink="http://www.w3.org/1999/xlink" x="0px" y="0px"
	 viewBox="0 0 32 32" enable-background="new 0 0 32 32" xml:space="preserve">
<polygon fill="none" stroke="#000000" stroke-width="2" stroke-miterlimit="10" points="24,6 22,5 20,6 20,26 22,27 24,26 "/>
<polygon fill="none" stroke="#000000" stroke-width="2" stroke-miterlimit="10" points="20,6 18,5 16,6 16,26 18,27 20,26 "/>
<polygon fill="none" stroke="#000000" stroke-width="2" stroke-miterlimit="10" points="16,6 14,5 12,6 12,26 14,27 16,26 "/>
<polygon fill="none" stroke="#000000" stroke-width="2" stroke-miterlimit="10" points="12,6 10,5 8,6 8,26 10,27 12,26 "/>
<line fill="none" stroke="#000000" stroke-width="2" stroke-miterlimit="10" x1="24" y1="8" x2="27" y2="8"/>
<line fill="none" stroke="#000000" stroke-width="2" stroke-miterlimit="10" x1="24" y1="24" x2="27" y2="24"/>
<path fill="none" stroke="#000000" stroke-width="2" stroke-miterlimit="10" d="M8,8H6c-1.1,0-2,0.9-2,2v1"/>
<line fill="none" stroke="#000000" stroke-width="2" stroke-miterlimit="10" x1="5" y1="24" x2="8" y2="24"/>
</svg>
