<?xml version="1.0" encoding="iso-8859-1"?>
<!-- Generator: Adobe Illustrator 19.1.1, SVG Export Plug-In . SVG Version: 6.00 Build 0)  -->
<svg version="1.1" id="Layer_1" xmlns="http://www.w3.org/2000/svg" xmlns:xlink="http://www.w3.org/1999/xlink" x="0px" y="0px"
	 viewBox="-7 9 32 32" style="enable-background:new -7 9 32 32;" xml:space="preserve">
<polygon style="fill:none;stroke:#000000;stroke-width:2;stroke-miterlimit:10;" points="4,30 1,32 -2,30 -2,19 4,19 "/>
<rect x="7" y="15" style="fill:none;stroke:#000000;stroke-width:2;stroke-miterlimit:10;" width="13" height="20"/>
<line style="fill:none;stroke:#000000;stroke-width:2;stroke-miterlimit:10;" x1="1" y1="36" x2="1" y2="32"/>
<line style="fill:none;stroke:#000000;stroke-width:2;stroke-miterlimit:10;" x1="1" y1="19" x2="1" y2="16"/>
<line style="fill:none;stroke:#000000;stroke-width:2;stroke-miterlimit:10;" x1="-2" y1="16" x2="4" y2="16"/>
<line style="fill:none;stroke:#000000;stroke-width:2;stroke-miterlimit:10;" x1="1" y1="22" x2="4" y2="22"/>
<line style="fill:none;stroke:#000000;stroke-width:2;stroke-miterlimit:10;" x1="1" y1="25" x2="4" y2="25"/>
<line style="fill:none;stroke:#000000;stroke-width:2;stroke-miterlimit:10;" x1="1" y1="28" x2="4" y2="28"/>
<rect x="11" y="19" style="fill:none;stroke:#000000;stroke-width:2;stroke-miterlimit:10;" width="5" height="5"/>
<rect x="10" y="27" width="3" height="2"/>
<rect x="14" y="27" width="3" height="2"/>
<rect x="10" y="30" width="3" height="2"/>
<rect x="14" y="30" width="3" height="2"/>
</svg>
