<?xml version="1.0" encoding="iso-8859-1"?>
<!-- Generator: Adobe Illustrator 19.1.1, SVG Export Plug-In . SVG Version: 6.00 Build 0)  -->
<svg version="1.1" id="Layer_1" xmlns="http://www.w3.org/2000/svg" xmlns:xlink="http://www.w3.org/1999/xlink" x="0px" y="0px"
	 viewBox="0 0 32 32" style="enable-background:new 0 0 32 32;" xml:space="preserve">
<path style="fill:none;stroke:#000000;stroke-width:2;stroke-miterlimit:10;" d="M16,9c0,0,2.708,5.167,7,8
	c0,3.837-0.875,6.542-1,6.75S16.333,27,16,27c-0.333,0-5.875-3.5-6-3.75S9,20.667,9,17c0-6.417,4.75-8,4.75-8H16z"/>
<g>
	<path d="M16,8h-2.5L13,9.25c0,0,0.375,3.208,4,5.75c0-1.938,0-3.75,0-3.75L16,8L16,8z"/>
</g>
<path d="M29,20c0,0,0,5.578-5,9c0.042-1.417,0-2.5,0-2.5"/>
<path d="M21,26.75V29c0,0,1.792-0.458,3.75-2.25c2.325-2.193,3.188-4.875,2.75-6.75c-0.344,2.594-0.652,2.135-2.142,3.824
	C23.798,25.592,20.96,26.787,21,26.75z"/>
<path style="fill:none;stroke:#000000;stroke-width:2;stroke-miterlimit:10;" d="M10,27.5c-4.787-2.619-5.979-5.04-6-7.5l0,0
	c0.016-2.291,1-4,1-4C6.5,3.625,16,4,16,4s9.5-0.375,11,12c0,0,1.019,1.685,1,4c-0.021,2.46-1.213,4.881-6,7.5"/>
<path d="M3,20c0,0,0,5.578,5,9c-0.042-1.417,0-2.5,0-2.5"/>
<path d="M11,26.75V29c0,0-1.792-0.458-3.75-2.25C4.925,24.557,4.063,21.875,4.5,20c0.344,2.594,0.652,2.135,2.142,3.824
	C8.202,25.592,11.04,26.787,11,26.75z"/>
<ellipse cx="16" cy="22.5" rx="1" ry="0.5"/>
<path d="M12.75,15C11.938,15,10,16.395,10,17.5c0,1.105,2.129,1.5,2.75,1.5S14,18.105,14,17C14,15.895,13.371,15,12.75,15z M12.5,17
	c-0.276,0-0.5-0.224-0.5-0.5c0-0.276,0.224-0.5,0.5-0.5s0.5,0.224,0.5,0.5C13,16.776,12.776,17,12.5,17z"/>
<path d="M19.25,15C18.629,15,18,15.895,18,17c0,1.105,0.629,2,1.25,2S22,18.605,22,17.5C22,16.395,20.063,15,19.25,15z M19.5,17
	c-0.276,0-0.5-0.224-0.5-0.5c0-0.276,0.224-0.5,0.5-0.5s0.5,0.224,0.5,0.5C20,16.776,19.776,17,19.5,17z"/>
</svg>
