<?xml version="1.0" encoding="iso-8859-1"?>
<!-- Generator: Adobe Illustrator 22.0.1, SVG Export Plug-In . SVG Version: 6.00 Build 0)  -->
<svg version="1.1" id="Layer_1_1_" xmlns="http://www.w3.org/2000/svg" xmlns:xlink="http://www.w3.org/1999/xlink" x="0px" y="0px"
	 viewBox="0 0 32 32" style="enable-background:new 0 0 32 32;" xml:space="preserve">
<g>
</g>
<path style="fill:none;stroke:#000000;stroke-width:2;stroke-miterlimit:10;" d="M17,19v7h3.993v-1h0.675
	c0.788,0.175,2.026,1,3.571,1C27.304,26,31,26,31,26s0-4-3.019-4c-1.07,0-1.768-0.445-2.356-0.875
	C24.411,20.236,23.988,19,23.988,19"/>
<path d="M25,20h-8.901l-0.094-0.896C15.964,18.711,15,9.428,15,5h2c0,3.538,0.659,10.523,0.904,13H23V5h2V20z"/>
<path style="fill:none;stroke:#000000;stroke-width:2;stroke-miterlimit:10;" d="M6.401,10.837l-4.95,4.95l2.823,2.823l0.707-0.707
	l0.477,0.477c0.433,0.681,0.726,2.14,1.818,3.232c1.46,1.46,4.056,4.056,4.056,4.056s1.662-1.28,1.667-2.918
	c0.002-0.64-0.262-1.334-0.956-2.028c-0.966-0.966-1.043-1.986-1.044-2.847c-0.001-1.204,0.342-2.097,0.342-2.097"/>
<path d="M13.382,12.34l-2.032,2.032l-3.604-3.604C8.684,9.626,10.64,7.259,12.598,5h-2.64c-2.237,2.623-4.193,5.033-4.334,5.207
	l-0.567,0.7l6.294,6.294l2.25-2.25C13.528,14.131,13.454,13.249,13.382,12.34z"/>
</svg>
