<?xml version="1.0" encoding="iso-8859-1"?>
<!-- Generator: Adobe Illustrator 19.2.0, SVG Export Plug-In . SVG Version: 6.00 Build 0)  -->
<svg version="1.1" id="Layer_1" xmlns="http://www.w3.org/2000/svg" xmlns:xlink="http://www.w3.org/1999/xlink" x="0px" y="0px"
	 viewBox="0 0 32 32" style="enable-background:new 0 0 32 32;" xml:space="preserve">
<path style="fill:none;stroke:#000000;stroke-width:2;stroke-miterlimit:10;" d="M20.972,7.24c-0.512-0.355-1.185-0.601-2.046-0.601
	C17.85,6.639,17.58,5,16.015,5c-1.405,0-1.575,1.639-3.278,1.639c-0.757,0-1.331,0.242-1.764,0.548"/>
<path style="fill:none;stroke:#000000;stroke-width:2;stroke-miterlimit:10;" d="M15.663,19.995
	c-0.332-0.448-0.702-1.252-0.856-2.992c-0.246-2.78-0.852-2.941-0.646-4.757c0.266-2.335-1.904-2.181-2.031-3.269
	C11.993,7.797,11.439,7,10.633,7c-1.824,0-1.807,2.068-2.599,3.006c-0.589,0.698-3.253,2.448-1.372,5.146
	c0.914,1.31-0.482,2.724,2.134,4.54c1.136,0.789,1.47,2.396,2.569,3.04C12.599,23.455,14,23.8,14,27"/>
<path style="fill:none;stroke:#000000;stroke-width:2;stroke-miterlimit:10;" d="M14,27h3c0-3.2,1.957-3.101,3.19-3.823
	c1.1-0.644,1.878-2.696,3.014-3.484c2.616-1.816,1.221-3.23,2.134-4.54c1.881-2.698-0.784-4.448-1.372-5.146
	C23.174,9.068,23.191,7,21.367,7c-0.806,0-1.36,0.797-1.497,1.977c-0.127,1.088-2.296,0.934-2.031,3.269
	c0.207,1.816-0.399,1.977-0.646,4.757C16.88,20.531,14,19.129,14,27z"/>
</svg>
