<?xml version="1.0" encoding="iso-8859-1"?>
<!-- Generator: Adobe Illustrator 19.1.1, SVG Export Plug-In . SVG Version: 6.00 Build 0)  -->
<svg version="1.1" id="Layer_1" xmlns="http://www.w3.org/2000/svg" xmlns:xlink="http://www.w3.org/1999/xlink" x="0px" y="0px"
	 viewBox="-7 9 32 32" style="enable-background:new -7 9 32 32;" xml:space="preserve">
<circle style="fill:none;stroke:#000000;stroke-width:2;stroke-miterlimit:10;" cx="18" cy="34" r="3.999"/>
<rect x="14.87" y="27.929" width="2" height="1.856"/>
<rect x="19.13" y="38.215" width="2" height="1.856"/>
<rect x="22.143" y="30.942" width="2" height="1.855"/>
<rect x="11.857" y="35.202" width="2" height="1.855"/>
<rect x="19.13" y="27.929" width="2" height="1.856"/>
<rect x="14.87" y="38.215" width="2" height="1.856"/>
<rect x="22.143" y="35.202" width="2" height="1.855"/>
<rect x="11.857" y="30.942" width="2" height="1.855"/>
<rect x="3" y="32" style="fill:none;stroke:#000000;stroke-width:2;stroke-miterlimit:10;" width="6" height="4"/>
<path style="fill:none;stroke:#000000;stroke-width:2;stroke-miterlimit:10;" d="M14,21c0-4.725-4.097-8.494-8.932-7.947
	c-3.596,0.406-6.543,3.306-7.001,6.896c-0.366,2.872,0.793,5.491,2.777,7.163C2.213,28.266,3,29.965,3,31.755V32h6v-0.239
	c0-1.846,0.885-3.534,2.273-4.75C12.944,25.546,14,23.397,14,21z"/>
<path d="M8,36c0,1.105-0.895,2-2,2s-2-0.895-2-2H8z"/>
</svg>
