<?xml version="1.0" encoding="iso-8859-1"?>
<!-- Generator: Adobe Illustrator 19.1.0, SVG Export Plug-In . SVG Version: 6.00 Build 0)  -->
<svg version="1.1" id="Layer_1" xmlns="http://www.w3.org/2000/svg" xmlns:xlink="http://www.w3.org/1999/xlink" x="0px" y="0px"
	 viewBox="0 0 32 32" style="enable-background:new 0 0 32 32;" xml:space="preserve">
<line style="fill:none;stroke:#000000;stroke-width:2;stroke-miterlimit:10;" x1="20" y1="18" x2="28" y2="10"/>
<polyline style="fill:none;stroke:#000000;stroke-width:2;stroke-miterlimit:10;" points="28,18 28,10 22,10 "/>
<line style="fill:none;stroke:#000000;stroke-width:2;stroke-miterlimit:10;" x1="14" y1="12" x2="22" y2="4"/>
<polyline style="fill:none;stroke:#000000;stroke-width:2;stroke-miterlimit:10;" points="22,11 22,4 14,4 "/>
<path d="M20.949,17.05C19.627,15.728,17.87,15,16,15s-3.627,0.728-4.949,2.05c-0.811,0.811-1.395,1.786-1.729,2.849
	c0.775,0.125,1.58,0.033,2.303-0.275c0.227-0.417,0.494-0.815,0.84-1.16C13.409,17.52,14.665,17,16,17s2.591,0.52,3.535,1.464
	S21,20.665,21,22s-0.521,2.591-1.465,3.536S17.335,27,16,27s-2.591-0.52-3.535-1.464c-0.482-0.482-0.85-1.046-1.098-1.659
	C10.919,23.954,10.464,24,10,24c-0.241,0-0.481-0.014-0.718-0.035c0.325,1.116,0.924,2.14,1.769,2.985C12.373,28.272,14.13,29,16,29
	c1.869,0,3.627-0.728,4.949-2.05S23,23.87,23,22S22.271,18.373,20.949,17.05z"/>
<path d="M14.375,18.376c-0.227,0.417-0.494,0.815-0.84,1.16C12.591,20.48,11.335,21,10,21s-2.591-0.52-3.535-1.464S5,17.335,5,16
	s0.521-2.591,1.465-3.536S8.665,11,10,11s2.591,0.52,3.535,1.464c0.482,0.482,0.85,1.046,1.098,1.659C15.081,14.046,15.536,14,16,14
	c0.241,0,0.481,0.014,0.718,0.035c-0.325-1.116-0.924-2.14-1.769-2.985C13.627,9.728,11.869,9,10,9c-1.87,0-3.627,0.728-4.949,2.05
	S3,14.13,3,16s0.729,3.627,2.051,4.95S8.13,23,10,23s3.627-0.728,4.949-2.05c0.811-0.811,1.395-1.786,1.729-2.849
	C15.903,17.975,15.098,18.068,14.375,18.376z"/>
</svg>
