<?xml version="1.0" encoding="iso-8859-1"?>
<!-- Generator: Adobe Illustrator 22.0.1, SVG Export Plug-In . SVG Version: 6.00 Build 0)  -->
<svg version="1.1" id="&#x421;&#x43B;&#x43E;&#x439;_1"
	 xmlns="http://www.w3.org/2000/svg" xmlns:xlink="http://www.w3.org/1999/xlink" x="0px" y="0px" viewBox="0 0 32 32"
	 style="enable-background:new 0 0 32 32;" xml:space="preserve">
<line style="fill:none;stroke:#000000;stroke-width:2;stroke-miterlimit:10;" x1="9" y1="23" x2="16" y2="23"/>
<path d="M23,22v-2c0-1.1,0.9-2,2-2s2,0.9,2,2h2c0-2.2-1.8-4-4-4s-4,1.8-4,4v2h-3v10h14V22H23z M30,30H20v-6h10V30z"/>
<g>
	<path style="fill:none;stroke:#000000;stroke-width:2;stroke-miterlimit:10;" d="M18,12c0,1.102,0.898,2,2,2s2-0.898,2-2"/>
	<path style="fill:none;stroke:#000000;stroke-width:2;stroke-miterlimit:10;" d="M14,12c0,1.102,0.898,2,2,2c1.102,0,2-0.898,2-2"
		/>
	<path style="fill:none;stroke:#000000;stroke-width:2;stroke-miterlimit:10;" d="M10,12c0,1.102,0.898,2,2,2c1.102,0,2-0.898,2-2"
		/>
	<line style="fill:none;stroke:#000000;stroke-width:2;stroke-miterlimit:10;" x1="24" y1="9" x2="8" y2="9"/>
	<path style="fill:none;stroke:#000000;stroke-width:2;stroke-miterlimit:10;" d="M9,8l-3,4c0,1.102,0.898,2,2,2
		c1.102,0,2-0.898,2-2"/>
	<path style="fill:none;stroke:#000000;stroke-width:2;stroke-miterlimit:10;" d="M22,12c0,1.102,0.898,2,2,2c1.102,0,2-0.898,2-2
		l-3-4"/>
</g>
<g>
	<path d="M10,7c0-0.551,0.448-1,1-1h10c0.552,0,1,0.449,1,1v2h2V7c0-1.654-1.346-3-3-3H11C9.346,4,8,5.346,8,7v2h2V7z"/>
	<path d="M10,25V13H8v12c0,1.654,1.346,3,3,3h5v-2h-5C10.448,26,10,25.551,10,25z"/>
</g>
</svg>
