<?xml version="1.0" encoding="iso-8859-1"?>
<!-- Generator: Adobe Illustrator 19.2.0, SVG Export Plug-In . SVG Version: 6.00 Build 0)  -->
<svg version="1.1" id="Layer_1" xmlns="http://www.w3.org/2000/svg" xmlns:xlink="http://www.w3.org/1999/xlink" x="0px" y="0px"
	 viewBox="0 0 32 32" style="enable-background:new 0 0 32 32;" xml:space="preserve">
<rect id="Blue_2_" x="6" y="6" style="fill:none;stroke:#000000;stroke-width:2;stroke-miterlimit:10;" width="20" height="20"/>
<path d="M21.999,17.016c0-0.979-0.922-2.691-2.782-2.691c-1.282,0-1.804,0.407-2.221,0.72c-0.387-0.672-1.193-1.21-1.909-1.21
	c-0.717,0-1.248,0.24-1.701,0.672c-0.095-0.33-0.555-1.207-1.586-1.207c-1.463,0-1.8,1.369-1.8,1.675c0,0.195,0,3.125,0,3.125h3.01
	v1.8h2.996v2.4c0,0,3.998,0,5.994,0C21.999,22.3,21.999,17.909,21.999,17.016z"/>
<circle cx="18.998" cy="11.5" r="1.8"/>
<circle cx="15.1" cy="11.2" r="1.5"/>
<circle cx="11.8" cy="11.5" r="1.2"/>
</svg>
