<?xml version="1.0" encoding="utf-8"?>
<!-- Generator: Adobe Illustrator 18.0.0, SVG Export Plug-In . SVG Version: 6.00 Build 0)  -->
<svg version="1.1" id="Layer_1" xmlns="http://www.w3.org/2000/svg" xmlns:xlink="http://www.w3.org/1999/xlink" x="0px" y="0px"
	 viewBox="0 0 32 32" enable-background="new 0 0 32 32" xml:space="preserve">
<polyline fill="none" stroke="#000000" stroke-width="2" stroke-miterlimit="10" points="29,12 29,19 32,19 "/>
<path fill="none" stroke="#000000" stroke-width="2" stroke-miterlimit="10" d="M19,14.4L19,14.4c0-0.7-0.5-1.4-1.5-1.4
	c-0.8,0-1.5,0.7-1.5,1.5v0c0,0.8,0.7,1.5,1.5,1.5h0c0.8,0,1.5,0.7,1.5,1.5v0c0,0.8-0.6,1.5-1.5,1.5c-1.1,0-1.5-0.6-1.5-1.4l0,0"/>
<path fill="none" stroke="#000000" stroke-width="2" stroke-miterlimit="10" d="M23.5,13L23.5,13c-0.8,0-1.5,0.7-1.5,1.5v3
	c0,0.8,0.7,1.5,1.5,1.5H25v-4.5C25,13.7,24.3,13,23.5,13z"/>
<polyline fill="none" stroke="#000000" stroke-width="2" stroke-miterlimit="10" points="9,12 9,13 10.9,16 11.1,16 13,13 13,12 "/>
<polyline id="XMLID_16_" fill="none" stroke="#000000" stroke-width="2" stroke-miterlimit="10" points="2,20 2,13 2.5,13 4,15 
	5.5,13 6,13 6,20 "/>
<polyline fill="none" stroke="#000000" stroke-width="2" stroke-miterlimit="10" points="1,10 1,8 31,8 31,10 "/>
<polyline fill="none" stroke="#000000" stroke-width="2" stroke-miterlimit="10" points="31,22 31,24 1,24 1,22 "/>
<line fill="none" stroke="#000000" stroke-width="2" stroke-miterlimit="10" x1="11" y1="20" x2="11" y2="16"/>
<polygon points="25,17 23,17 25,21 27,21 "/>
</svg>
