<?xml version="1.0" encoding="iso-8859-1"?>
<!-- Generator: Adobe Illustrator 19.1.1, SVG Export Plug-In . SVG Version: 6.00 Build 0)  -->
<svg version="1.1" id="Layer_1" xmlns="http://www.w3.org/2000/svg" xmlns:xlink="http://www.w3.org/1999/xlink" x="0px" y="0px"
	 viewBox="0 0 32 32" style="enable-background:new 0 0 32 32;" xml:space="preserve">
<path style="fill:none;stroke:#000000;stroke-width:2;stroke-miterlimit:10;" d="M21.657,10.343c3.124,3.124,3.124,8.19,0,11.314"/>
<path style="fill:none;stroke:#000000;stroke-width:2;stroke-miterlimit:10;" d="M25.899,6.101c5.467,5.467,5.467,14.332,0,19.799"
	/>
<line style="fill:none;stroke:#000000;stroke-width:2;stroke-miterlimit:10;" x1="3" y1="3" x2="29" y2="29"/>
<g>
	<path d="M4.941,9.184L3.485,7.727C1.87,10.16,1,13.013,1,16c0,4.007,1.561,7.773,4.394,10.606l1.414-1.414
		C4.353,22.737,3,19.473,3,16C3,13.552,3.685,11.214,4.941,9.184z"/>
	<path d="M9.413,13.656l-1.527-1.527c-1.591,3.344-1.015,7.471,1.75,10.236l1.414-1.414C9.081,18.981,8.541,16.122,9.413,13.656z"/>
</g>
<g>
	<polygon style="fill:none;" points="2.084,1.087 0.879,2.293 0.796,2.376 2.293,3.707 28.293,29.707 30.04,30.788 30.44,30.388 	
		"/>
	<path d="M17.285,18.699C18.295,18.216,19,17.193,19,16c0-1.654-1.346-3-3-3c-1.193,0-2.216,0.705-2.699,1.715L17.285,18.699z
		 M16,15c0.552,0,1,0.448,1,1s-0.448,1-1,1s-1-0.448-1-1S15.448,15,16,15z"/>
</g>
</svg>
