<?xml version="1.0" encoding="iso-8859-1"?>
<!-- Generator: Adobe Illustrator 19.1.1, SVG Export Plug-In . SVG Version: 6.00 Build 0)  -->
<svg version="1.1" id="Layer_1" xmlns="http://www.w3.org/2000/svg" xmlns:xlink="http://www.w3.org/1999/xlink" x="0px" y="0px"
	 viewBox="0 0 32 32" style="enable-background:new 0 0 32 32;" xml:space="preserve">
<circle style="fill:none;stroke:#000000;stroke-width:2;stroke-miterlimit:10;" cx="24" cy="18" r="2"/>
<path style="fill:none;stroke:#000000;stroke-width:2;stroke-miterlimit:10;" d="M24.5,20.003c0.607,1.089,1.767,2.828,3.5,3.997"/>
<path style="fill:none;stroke:#000000;stroke-width:2;stroke-linecap:square;stroke-miterlimit:10;" d="M21,23.141
	C19.197,24.909,16.726,26,14,26C8.477,26,4,21.523,4,16S8.477,6,14,6s10,4.477,10,10"/>
<line style="fill:none;stroke:#000000;stroke-width:2;stroke-miterlimit:10;" x1="20" y1="24" x2="24" y2="28"/>
<path d="M6.325,24.972c-0.985,0-2.041-0.326-3.013-1.245c-2.811-2.658-0.321-7.937-0.214-8.16c0,0,1.276,5.621,4.901,9.106
	C7.49,24.852,6.92,24.972,6.325,24.972z"/>
<path style="fill:none;stroke:#000000;stroke-width:2;stroke-miterlimit:10;" d="M12,16c0,0-4-0.313-4,2c0,2.438,4,2,4,2"/>
<path style="fill:none;stroke:#000000;stroke-width:2;stroke-miterlimit:10;" d="M15,22c0,0,3-1.375,3-4s-2-5-2-5"/>
<line style="fill:none;stroke:#000000;stroke-width:2;stroke-miterlimit:10;" x1="15" y1="15" x2="18" y2="12"/>
<ellipse transform="matrix(0.6476 -0.7619 0.7619 0.6476 -3.8794 12.4301)" cx="11.5" cy="10.41" rx="1.142" ry="1.712"/>
<ellipse transform="matrix(0.6476 -0.7619 0.7619 0.6476 -7.7124 10.5032)" cx="7.5" cy="13.59" rx="1.142" ry="1.712"/>
<path style="fill:none;stroke:#000000;stroke-width:2;stroke-miterlimit:10;" d="M10.125,6.688C10.125,6.688,12.25,5,15,5
	c2.125,0,7.75,1.375,10,7c0,0,0.5,2.5,0,4"/>
<path style="fill:none;stroke:#000000;stroke-width:2;stroke-miterlimit:10;" d="M15,6c0,0,1.625,3,6,3"/>
<path d="M24,16l-1.4,0.916C22.493,16.87,20,15.747,20,13c0-3.088,1.108-4.494,1.235-4.645L24,10V16z"/>
<path d="M26,12c0,0-1-5,2-5c2.437,0,2,4,2,4s-0.25,4-4,4"/>
</svg>
