<?xml version="1.0" encoding="iso-8859-1"?>
<!-- Generator: Adobe Illustrator 19.1.0, SVG Export Plug-In . SVG Version: 6.00 Build 0)  -->
<svg version="1.1" id="Layer_1" xmlns="http://www.w3.org/2000/svg" xmlns:xlink="http://www.w3.org/1999/xlink" x="0px" y="0px"
	 viewBox="0 0 32 32" style="enable-background:new 0 0 32 32;" xml:space="preserve">
<circle style="fill:none;stroke:#000000;stroke-width:2;stroke-miterlimit:10;" cx="9" cy="20" r="3"/>
<path style="fill:none;stroke:#000000;stroke-width:2;stroke-miterlimit:10;" d="M5,27c0-2.209,1.791-4,4-4s4,1.791,4,4"/>
<path style="fill:none;stroke:#000000;stroke-width:2;stroke-miterlimit:10;" d="M22.509,6h-3.532c-1.854,0-2.478,0.39-3.903,1.815
	C14.32,8.569,9.749,13.8,8.525,15.202c-0.164,0.188-0.132,0.473,0.068,0.624l0.935,0.707c0.942,0.712,2.271,0.594,3.072-0.274
	L15,13.658l0,5.328c0,0.814,0.655,1.489,1.469,1.497c0.856,0.008,1.214-0.192,1.548-0.006c0.28,0.156,0.622,0.746,1.667,0.746
	c1.014,0,1.37-0.708,1.742-0.708s1.028,0.223,1.554,0.009c0.526-0.214,0.812-0.774,1.319-0.911c0.507-0.136,1.146,0.071,1.737-0.222
	C26.499,19.162,27,18.653,27,17.912v-7.421C27,8.011,24.989,6,22.509,6z"/>
</svg>
