<?xml version="1.0" encoding="iso-8859-1"?>
<!-- Generator: Adobe Illustrator 19.0.1, SVG Export Plug-In . SVG Version: 6.00 Build 0)  -->
<svg version="1.1" id="Layer_1" xmlns="http://www.w3.org/2000/svg" xmlns:xlink="http://www.w3.org/1999/xlink" x="0px" y="0px"
	 viewBox="0 0 32 32" style="enable-background:new 0 0 32 32;" xml:space="preserve">
<circle id="XMLID_6_" style="fill:none;stroke:#000000;stroke-width:2;stroke-miterlimit:10;" cx="13.5" cy="9.5" r="2.5"/>
<path id="XMLID_178_" style="fill:none;stroke:#000000;stroke-width:2;stroke-miterlimit:10;" d="M10.907,20.458l1.58-4.919
	c0.178-0.554,0.79-0.84,1.329-0.62l7.47,3.044"/>
<line id="XMLID_176_" style="fill:none;stroke:#000000;stroke-width:2;stroke-miterlimit:10;" x1="22.654" y1="10.539" x2="19.529" y2="25.451"/>
<polygon id="XMLID_177_" points="21.711,10.347 16.533,13.404 18.591,14.315 22.556,11.981 "/>
<path id="XMLID_174_" style="fill:none;stroke:#000000;stroke-width:2;stroke-miterlimit:10;" d="M8,26c0,0-1.819,0-2,0
	c-1.008,0-4-1.16-4-6c0,0,0.84,1,3,1c1.394,0,6,0,6,0"/>
<path id="XMLID_173_" style="fill:none;stroke:#000000;stroke-width:2;stroke-miterlimit:10;" d="M21,21c3.14,0,5.526,0,5.84,0
	c1.92,0,3.16-1,3.16-1c0,4.88-3.017,6-4,6c-0.268,0-5,0-5,0"/>
<polygon id="XMLID_179_" points="11,20 11,22 17.513,22 17.944,20 "/>
<polygon id="XMLID_175_" points="8,25 8,27 15.308,27 15.903,25 "/>
<path id="XMLID_294_" d="M17.799,29l0.903-3.043c0.089-0.39,0.482-0.63,0.867-0.545c0.391,0.09,0.636,0.479,0.551,0.854L19.442,29
	h2.059l0.565-2.273c0.334-1.464-0.585-2.928-2.05-3.264c-0.708-0.163-1.439-0.039-2.056,0.349c-0.616,0.387-1.046,0.99-1.19,1.638
	L15.708,29H17.799z"/>
</svg>
