<?xml version="1.0" encoding="iso-8859-1"?>
<!-- Generator: Adobe Illustrator 19.1.1, SVG Export Plug-In . SVG Version: 6.00 Build 0)  -->
<svg version="1.1" id="Layer_1" xmlns="http://www.w3.org/2000/svg" xmlns:xlink="http://www.w3.org/1999/xlink" x="0px" y="0px"
	 viewBox="0 0 32 32" style="enable-background:new 0 0 32 32;" xml:space="preserve">
<polyline style="fill:none;stroke:#000000;stroke-width:2;stroke-miterlimit:10;" points="16,13.5 16,16.5 14,19 15.75,22.25 13,25 
	13,28 "/>
<line style="fill:none;stroke:#000000;stroke-width:2;stroke-miterlimit:10;" x1="10.5" y1="19" x2="13.75" y2="19"/>
<line style="fill:none;stroke:#000000;stroke-width:2;stroke-miterlimit:10;" x1="19" y1="29" x2="7" y2="29"/>
<path d="M22.808,6C23.513,6.34,24,7.061,24,7.896C24,9.058,23.058,10,21.896,10C21.061,10,20.34,9.513,20,8.808"/>
<ellipse transform="matrix(-0.7071 0.7071 -0.7071 -0.7071 45.6212 -0.8989)" style="fill:none;stroke:#000000;stroke-width:2;stroke-linecap:round;stroke-linejoin:round;stroke-miterlimit:10;" cx="22.997" cy="9" rx="5.059" ry="2.529"/>
<path style="fill:none;stroke:#000000;stroke-width:2;stroke-linecap:round;stroke-linejoin:round;stroke-miterlimit:10;" d="
	M19.42,12.577c-1.776-1.776,0.087-4.715-2.281-7.083c-0.325-0.325-0.061-1.115,0.588-1.765c0.65-0.65,1.445-0.918,1.764-0.588
	c2.54,2.623,4.935,0.318,7.082,2.281"/>
<path d="M16.572,9.643c-0.013-0.228-0.028-0.432-0.044-0.627L9,18.141v1.104l3.113,5.967l1.773-0.925l-2.854-5.469L15.008,14H17
	v-1.76C16.677,11.347,16.618,10.437,16.572,9.643z"/>
</svg>
