<?xml version="1.0" encoding="utf-8"?>
<!-- Generator: Adobe Illustrator 18.1.1, SVG Export Plug-In . SVG Version: 6.00 Build 0)  -->
<svg version="1.1" id="Layer_1" xmlns="http://www.w3.org/2000/svg" xmlns:xlink="http://www.w3.org/1999/xlink" x="0px" y="0px"
	 viewBox="0 0 32 32" enable-background="new 0 0 32 32" xml:space="preserve">
<path fill="none" stroke="#000000" stroke-width="2" stroke-miterlimit="10" d="M6.3,18.5C6.1,17.7,6,16.9,6,16c0-5.5,4.5-10,10-10
	c3.6,0,6.8,1.9,8.6,4.8"/>
<path fill="none" stroke="#000000" stroke-width="2" stroke-miterlimit="10" d="M26,16c0,5.5-4.5,10-10,10c-2.4,0-4.7-0.9-6.4-2.3"
	/>
<path fill="none" stroke="#000000" stroke-width="2" stroke-miterlimit="10" d="M22.9,8.5c3.6-0.6,6.2-0.1,6.9,1.4
	c1.2,2.6-4.1,7.5-11.7,10.9s-14.8,4-15.9,1.4c-0.7-1.5,0.8-3.7,3.6-6"/>
<path fill="none" stroke="#000000" stroke-width="2" stroke-miterlimit="10" d="M23.3,9.2c0.6,0.1,1.1,0.4,1.2,0.8
	c0.7,1.6-2.9,4.8-8.1,7.1s-10,2.9-10.7,1.2c-0.2-0.4-0.1-0.9,0.2-1.5"/>
</svg>
