<?xml version="1.0" encoding="iso-8859-1"?>
<!-- Generator: Adobe Illustrator 19.1.1, SVG Export Plug-In . SVG Version: 6.00 Build 0)  -->
<svg version="1.1" id="Layer_1" xmlns="http://www.w3.org/2000/svg" xmlns:xlink="http://www.w3.org/1999/xlink" x="0px" y="0px"
	 viewBox="0 0 32 32" style="enable-background:new 0 0 32 32;" xml:space="preserve">
<path id="XMLID_16_" style="fill:none;stroke:#000000;stroke-width:2;stroke-miterlimit:10;" d="M22,7V6l-6-2c0,0-0.977,1-3,1
	s-3-1-3-1L4,6v4l3,0v11h13"/>
<path id="XMLID_17_" style="fill:none;stroke:#000000;stroke-width:2;stroke-miterlimit:10;" d="M13,27h12V16h3v-4l-6-2
	c0,0-0.977,1-3,1s-3-1-3-1l-6,2v4h3v3"/>
<g>
	<polygon points="21.043,8.15 21.465,7.749 22.022,7.917 22.633,8.103 23,8.225 23,7 21,7 21,8.191 	"/>
</g>
<polyline style="fill:none;stroke:#000000;stroke-width:2;stroke-miterlimit:10;" points="18,18 21,21 18,24 "/>
<polyline style="fill:none;stroke:#000000;stroke-width:2;stroke-miterlimit:10;" points="15,24 12,27 15,30 "/>
</svg>
