<?xml version="1.0" encoding="iso-8859-1"?>
<!-- Generator: Adobe Illustrator 19.1.1, SVG Export Plug-In . SVG Version: 6.00 Build 0)  -->
<svg version="1.1" id="Layer_1" xmlns="http://www.w3.org/2000/svg" xmlns:xlink="http://www.w3.org/1999/xlink" x="0px" y="0px"
	 viewBox="0 0 32 32" style="enable-background:new 0 0 32 32;" xml:space="preserve">
<path d="M24.4,14.8l-0.2-0.3c0-2.4-1.1-3.3-2.3-4c0.4-0.1,0.8-0.2,0.9-0.7c0.7-0.2,0.8-0.5,0.9-0.8c0.2-0.1,0.7-0.4,0.7-1
	c0.3-0.2,0.5-0.5,0.4-0.9c0.3-0.4,0.4-0.7,0.3-1c0.4-0.5,0.2-0.8,0.1-1.1c0.3-0.6,0-1.2-0.8-1.1c-0.3-0.5-1.1-0.4-1.2-0.4
	c-0.1-0.2-0.3-0.3-0.8-0.2C21.9,3,21.5,3,21.1,3.2c-0.5-0.4-0.8-0.1-1.1,0c-0.6-0.2-0.7,0.1-1,0.2c-0.6-0.1-0.8,0.2-1.1,0.5h-0.3
	c-0.9,0.5-1.4,1.7-1.6,2.2c-0.2-0.6-0.6-1.7-1.6-2.2h-0.3c-0.3-0.3-0.5-0.6-1.1-0.5c-0.3-0.1-0.4-0.4-1-0.2C11.8,3.1,11.6,3,11.3,3
	l0,0c-0.1,0-0.2,0.1-0.4,0.2C10.5,3,10.1,3,9.8,3.3C9.3,3.2,9.1,3.4,9,3.5c-0.1,0-0.9-0.1-1.2,0.4C6.9,3.8,6.6,4.4,6.9,5
	C6.7,5.3,6.6,5.5,7,6.1C6.8,6.3,6.9,6.7,7.3,7c-0.1,0.4,0,0.7,0.4,1C7.6,8.5,8.2,8.8,8.3,9c0.1,0.3,0.2,0.6,0.9,0.8
	c0.1,0.5,0.5,0.6,0.9,0.7c-1.3,0.7-2.3,1.7-2.3,4l-0.2,0.3c-1.4,0.9-2.7,3.7-0.7,6C7,21.5,7.2,22,7.4,22.6c0.3,2.3,2.2,3.4,2.7,3.5
	c0.7,0.6,1.5,1.1,2.6,1.5c1,1,2.1,1.4,3.2,1.4l0,0c1.1,0,2.2-0.4,3.2-1.4c1.1-0.4,1.9-0.9,2.6-1.5c0.5-0.1,2.4-1.2,2.7-3.5
	c0.2-0.6,0.4-1.1,0.6-1.8C27.2,18.5,25.9,15.7,24.4,14.8z M23.1,14.4c-0.1,1-4.9-3.3-4.1-3.4C21.3,10.6,23.2,11.9,23.1,14.4z
	 M17.8,4.5c0,0.2,0.1,0.3,0.1,0.4c0.3-0.3,0.5-0.6,0.8-0.9c0,0.2-0.1,0.3,0.1,0.5C19,4.2,19.2,4,19.6,3.8c-0.2,0.3,0,0.4,0.1,0.5
	c0.3-0.2,0.5-0.4,1-0.6c-0.1,0.2-0.3,0.3-0.1,0.5c0.3-0.2,0.5-0.3,1.2-0.5c-0.1,0.2-0.4,0.3-0.3,0.5c0.3-0.1,0.7-0.2,1.1-0.3
	c-0.2,0.2-0.4,0.3-0.2,0.4c0.4-0.1,0.8-0.3,1.3-0.1l-0.3,0.3c0,0,0.7,0,1.2,0c-0.2,0.3-0.4,0.5-0.5,0.9c0,0,0.3,0,0.5,0
	C24.4,6,24,6.1,23.9,6.3c0.1,0.1,0.3,0.1,0.6,0c-0.2,0.4-0.5,0.6-0.8,0.9c0.1,0.1,0.2,0.1,0.5,0c-0.3,0.3-0.6,0.5-0.9,0.8
	c0.1,0.1,0.3,0.1,0.5,0.1c-0.3,0.3-0.8,0.5-1.2,0.7C22.7,9,22.9,8.9,23,8.9c-0.3,0.2-0.8,0.4-1.2,0.5c0.1,0.1,0.2,0.2,0.4,0.2
	c-0.5,0.3-1.2,0.1-1.4,0.3c0,0.1,0.2,0.2,0.3,0.3c-0.8,0-2.9,0-3.3-1.6c0.8-0.9,2.2-1.9,4.7-3.2c-1.9,0.7-3.7,1.5-5.1,2.7
	C15.8,7.3,16.9,5.3,17.8,4.5z M16,10.3c1.2,0,2.7,0.9,2.7,1.8c0,0.8-1.1,1.4-2.7,1.4c-1.6,0-2.7-0.8-2.7-1.5S14.6,10.3,16,10.3
	L16,10.3z M9.9,9.7c0.2,0,0.3-0.1,0.4-0.2C9.8,9.3,9.3,9.2,9,8.9c0.2,0,0.3,0,0.5-0.1C9.1,8.6,8.7,8.4,8.3,8.1c0.2,0,0.4,0,0.5-0.1
	C8.5,7.8,8.2,7.5,7.9,7.3c0.3,0,0.4,0,0.5,0c-0.3-0.4-0.6-0.6-0.8-1c0.2,0.1,0.4,0.1,0.6,0C8.1,6.1,7.6,6,7.4,5.5c0.2,0,0.5,0,0.5,0
	C7.8,5.1,7.6,4.8,7.5,4.6c0.5,0,1.2,0,1.2,0L8.4,4.2c0.5-0.1,1,0,1.3,0.1c0.2-0.1,0-0.3-0.2-0.4c0.4,0.1,0.8,0.2,1.1,0.3
	c0.2-0.2-0.1-0.3-0.3-0.5C11,3.8,11.2,4,11.5,4.2c0.2-0.2,0-0.3-0.1-0.5c0.5,0.2,0.7,0.4,1,0.6c0.1-0.1,0.2-0.2,0.1-0.5
	C12.7,4,13,4.2,13.2,4.5c0.2-0.1,0.1-0.3,0.1-0.5c0.3,0.3,0.6,0.6,0.8,0.9c0.1,0,0.1-0.2,0.1-0.4c0.8,0.8,2,2.8,0.3,3.6
	C13.1,6.9,11.3,6,9.4,5.4c2.5,1.3,3.9,2.3,4.7,3.2c-0.4,1.6-2.5,1.7-3.3,1.6c0.2-0.1,0.3-0.2,0.3-0.3C11,9.8,10.4,9.9,9.9,9.7z
	 M12.7,10.9c0.8,0.1-4,4.4-4.1,3.4C8.5,11.9,10.4,10.5,12.7,10.9z M7.6,20.4c-1.2-1-1.6-3.7,0.6-5C9.5,15,8.7,20.8,7.6,20.4z
	 M12.2,25.4c-0.7,0.4-2.3,0.2-3.4-1.4c-0.8-1.4-0.7-2.8-0.1-3.2c0.8-0.5,2.1,0.2,3,1.3C12.5,23,12.9,24.8,12.2,25.4z M10.9,19.3
	c-1.2-0.8-1.4-2.6-0.5-4.1c1-1.4,2.7-2,3.9-1.2s1.4,2.6,0.5,4.1C13.9,19.6,12.1,20.1,10.9,19.3z M16,28.2c-1.5,0.1-2.9-1.2-2.9-1.6
	c0-0.6,1.8-1.1,3-1.1c1.2-0.1,2.8,0.4,2.8,1C18.9,26.9,17.4,28.2,16,28.2z M19,21.8c0,1.5-1.3,2.7-2.9,2.7s-3-1.2-3-2.7l0,0
	c0-1.5,1.3-2.7,2.9-2.7C17.7,19.1,19,20.3,19,21.8L19,21.8z M17.2,18c-1-1.4-0.7-3.3,0.5-4.1c1.2-0.8,3-0.3,3.9,1.2s0.7,3.3-0.5,4.1
	C19.9,19.9,18.1,19.4,17.2,18z M23.2,24c-1.3,1.8-3,1.8-3.6,1.3c-0.7-0.6-0.2-2.6,0.8-3.7l0,0c1-1.2,2.2-2,2.9-1.4
	C23.8,20.9,24.1,22.8,23.2,24z M24.1,20.3c-1.1,0.5-2-5.3-0.6-5C25.7,16.5,25.3,19.3,24.1,20.3z"/>
</svg>
