<?xml version="1.0" encoding="utf-8"?>
<!-- Generator: Adobe Illustrator 18.1.1, SVG Export Plug-In . SVG Version: 6.00 Build 0)  -->
<svg version="1.1" id="Layer_1" xmlns="http://www.w3.org/2000/svg" xmlns:xlink="http://www.w3.org/1999/xlink" x="0px" y="0px"
	 viewBox="0 0 32 32" enable-background="new 0 0 32 32" xml:space="preserve">
<path fill="none" stroke="#000000" stroke-width="2" stroke-miterlimit="10" d="M23,26H2c-0.6,0-1-0.4-1-1V7c0-0.6,0.4-1,1-1h24
	c0.6,0,1,0.4,1,1v3"/>
<line fill="none" stroke="#000000" stroke-width="2" stroke-miterlimit="10" x1="12" y1="23" x2="16" y2="23"/>
<path fill="none" stroke="#000000" stroke-width="2" stroke-miterlimit="10" d="M30,26h-8c-0.6,0-1-0.4-1-1V11c0-0.6,0.4-1,1-1h8
	c0.6,0,1,0.4,1,1v14C31,25.6,30.6,26,30,26z"/>
<line fill="none" stroke="#000000" stroke-width="2" stroke-miterlimit="10" x1="24" y1="23" x2="28" y2="23"/>
</svg>
