<?xml version="1.0" encoding="iso-8859-1"?>
<!-- Generator: Adobe Illustrator 19.1.0, SVG Export Plug-In . SVG Version: 6.00 Build 0)  -->
<svg version="1.1" id="Layer_1" xmlns="http://www.w3.org/2000/svg" xmlns:xlink="http://www.w3.org/1999/xlink" x="0px" y="0px"
	 viewBox="0 0 32 32" style="enable-background:new 0 0 32 32;" xml:space="preserve">
<polyline style="fill:none;stroke:#000000;stroke-width:2;stroke-miterlimit:10;" points="25.879,10.518 19.442,26.059 11.249,27 
	6.121,20.541 12.558,5 "/>
<path d="M15.854,8.766l3.915,0.982l0.006-0.015l-3.534-1.9l0.557-1.345l4.954,3.119l-0.631,1.522l-3.775-1.021l-0.007,0.015
	l3.393,1.947l-0.631,1.523l-5.708-1.297l0.557-1.344l3.861,1.109l0.006-0.016l-3.48-2.026L15.854,8.766z"/>
<path d="M12.298,19.797c-0.153,0.366,0.172,0.577,0.29,0.628c1.018,0.436,1.501-2.046,3.427-1.239
	c0.567,0.235,1.565,0.792,0.838,2.56c-0.165,0.307-0.648,1.873-2.221,1.18l-0.187-0.078l0.557-1.344c0,0,0.711,0.416,0.935-0.146
	c0.058-0.145,0.115-0.495-0.329-0.661c-1.094-0.41-1.435,1.964-3.321,1.178c-0.538-0.247-1.604-0.763-0.942-2.437
	c0.659-1.665,1.779-1.276,2.358-1.044l-0.538,1.299C13.164,19.693,12.49,19.336,12.298,19.797z"/>
<path d="M14.19,15.226c-0.153,0.366,0.172,0.577,0.29,0.628c1.018,0.436,1.501-2.046,3.427-1.239
	c0.567,0.235,1.565,0.792,0.838,2.56c-0.165,0.307-0.648,1.873-2.221,1.18l-0.187-0.078l0.557-1.344c0,0,0.711,0.416,0.935-0.146
	c0.058-0.145,0.115-0.495-0.329-0.661c-1.094-0.41-1.435,1.964-3.321,1.178c-0.538-0.247-1.604-0.763-0.942-2.437
	c0.659-1.665,1.779-1.276,2.358-1.044l-0.538,1.299C15.056,15.122,14.382,14.766,14.19,15.226z"/>
</svg>
