<?xml version="1.0" encoding="iso-8859-1"?>
<!-- Generator: Adobe Illustrator 19.1.1, SVG Export Plug-In . SVG Version: 6.00 Build 0)  -->
<svg version="1.1" id="Layer_1" xmlns="http://www.w3.org/2000/svg" xmlns:xlink="http://www.w3.org/1999/xlink" x="0px" y="0px"
	 viewBox="0 0 32 32" style="enable-background:new 0 0 32 32;" xml:space="preserve">
<path d="M17,12c0,0.552-1.083,3.958-1.083,3.958S15,12.552,15,12s0.448-1,1-1C16.552,11,17,11.448,17,12z"/>
<path d="M20.893,16.221c-0.52,0.187-4.091,0.324-4.091,0.324s2.893-2.018,3.413-2.205c0.52-0.187,1.093,0.082,1.28,0.601
	S21.412,16.033,20.893,16.221z"/>
<path d="M18.375,21.346c-0.36-0.419-1.755-3.71-1.755-3.71s2.913,1.989,3.273,2.408s0.311,1.051-0.108,1.41
	S18.734,21.765,18.375,21.346z"/>
<path d="M11.107,16.221c0.52,0.187,4.091,0.324,4.091,0.324s-2.893-2.018-3.413-2.205c-0.52-0.187-1.093,0.082-1.28,0.601
	S10.588,16.033,11.107,16.221z"/>
<path d="M13.625,21.346c0.36-0.419,1.755-3.71,1.755-3.71s-2.913,1.989-3.273,2.408c-0.36,0.419-0.311,1.051,0.108,1.41
	C12.635,21.813,13.266,21.765,13.625,21.346z"/>
<path style="fill:none;stroke:#000000;stroke-width:2;stroke-miterlimit:10;" d="M24.095,18.709c2.324-0.881,3.493-3.48,2.612-5.803
	c-0.881-2.324-3.48-3.493-5.803-2.612c-0.211,0.08-0.429,0.213-0.649,0.367C20.405,10.24,20.5,9.845,20.5,9.5
	C20.5,7.015,18.485,5,16,5s-4.5,2.015-4.5,4.5c0,0.343,0.09,0.735,0.235,1.152c-0.216-0.15-0.431-0.28-0.638-0.359
	c-2.324-0.881-4.922,0.288-5.803,2.612c-0.881,2.324,0.288,4.922,2.612,5.803c0.291,0.11,0.644,0.167,1.038,0.183
	c-0.365,0.221-0.673,0.457-0.887,0.712c-1.6,1.902-1.355,4.741,0.547,6.34c1.902,1.6,4.741,1.355,6.34-0.547
	c0.529-0.629,0.847-1.791,1.04-3.062c0.192,1.282,0.511,2.457,1.044,3.091c1.6,1.902,4.439,2.147,6.34,0.547
	c1.902-1.6,2.147-4.439,0.547-6.34c-0.224-0.266-0.552-0.512-0.94-0.741C23.401,18.88,23.785,18.826,24.095,18.709z"/>
<line style="fill:none;stroke:#000000;stroke-width:2;stroke-miterlimit:10;" x1="16" y1="16.958" x2="16" y2="24"/>
<line style="fill:none;stroke:#000000;stroke-width:2;stroke-miterlimit:10;" x1="15.942" y1="16.881" x2="23.5" y2="19.045"/>
<line style="fill:none;stroke:#000000;stroke-width:2;stroke-miterlimit:10;" x1="15.942" y1="16.881" x2="20.5" y2="10.318"/>
<line style="fill:none;stroke:#000000;stroke-width:2;stroke-miterlimit:10;" x1="15.942" y1="16.881" x2="11.409" y2="10.045"/>
<line style="fill:none;stroke:#000000;stroke-width:2;stroke-miterlimit:10;" x1="15.942" y1="16.881" x2="8.273" y2="19"/>
</svg>
