<?xml version="1.0" encoding="iso-8859-1"?>
<!-- Generator: Adobe Illustrator 19.1.1, SVG Export Plug-In . SVG Version: 6.00 Build 0)  -->
<svg version="1.1" id="Layer_1" xmlns="http://www.w3.org/2000/svg" xmlns:xlink="http://www.w3.org/1999/xlink" x="0px" y="0px"
	 viewBox="0 0 32 32" style="enable-background:new 0 0 32 32;" xml:space="preserve">
<g>
	<polygon points="25,2 12,15 16,15 11,21 14,21 8,30 20,18 17,18 22,12 18,12 	"/>
</g>
<g>
	<path d="M9.184,24.618L10.263,23l-0.022-0.092C8.262,21.256,7,18.773,7,16c0-4.962,4.037-9,9-9c0.372,0,0.737,0.03,1.098,0.074
		l1.7-1.7C17.902,5.138,16.968,5,16,5C9.935,5,5,9.935,5,16C5,19.491,6.64,22.601,9.184,24.618z"/>
	<path d="M23.352,7.842l-1.154,1.649C23.92,11.131,25,13.44,25,16c0,4.962-4.037,9-9,9c-0.055,0-0.108-0.007-0.163-0.008l-1.82,1.82
		C14.661,26.929,15.322,27,16,27c6.065,0,11-4.935,11-11C27,12.762,25.586,9.856,23.352,7.842z"/>
</g>
</svg>
