<?xml version="1.0" encoding="iso-8859-1"?>
<!-- Generator: Adobe Illustrator 19.1.0, SVG Export Plug-In . SVG Version: 6.00 Build 0)  -->
<svg version="1.1" id="Layer_1" xmlns="http://www.w3.org/2000/svg" xmlns:xlink="http://www.w3.org/1999/xlink" x="0px" y="0px"
	 viewBox="0 0 32 32" style="enable-background:new 0 0 32 32;" xml:space="preserve">
<g>
	<path d="M27.066,16.646h-1.631l-0.349,1.726c0,0,1.697,0,1.871,0c0.175,0,1.146-0.131,1.146-0.962
		C28.103,16.58,27.066,16.646,27.066,16.646z"/>
	<path d="M30.957,15.705c0,0,1.043-0.547,1.043-2.295c0-2.764-3.182-2.634-3.182-2.634h-2.087l0.493-2.207
		c0,0-9.021,0.045-15.251,0.045c-6.795,0-8.841,4.992-8.841,4.992H1.061L0,18.333h2.451c0,0-0.209,5.097,7.609,5.097
		s13.852,0,13.852,0l0.49-2.197c0.611,0,1.604,0,3.193,0c3.442,0,4.068-2.53,4.068-3.677C31.662,16.253,30.957,15.705,30.957,15.705
		z M9.105,20.79c-3.859,0-3.859-2.842-3.807-3.13c0.052-0.287,1.304-6.285,1.304-6.285h2.79l-0.991,4.981
		c0,0-0.705,2.139,0.913,2.139c1.512,0,1.697-1.982,1.697-1.982l1.068-5.137h2.79l-1.148,5.476
		C13.721,16.852,13.643,20.79,9.105,20.79z M17.861,20.81c-2.09,0-3.881-1.011-3.802-3.307h2.694c0,0.461,0.069,1.297,1.274,1.297
		c0.495,0,1.325-0.207,1.325-0.905c0-1.3-4.38-0.628-4.38-3.651c0-1.647,1.486-3.026,3.9-3.026c3.894,0,3.61,2.999,3.61,2.999
		h-2.634c0-0.835-0.521-0.965-1.147-0.965c-0.627,0-1.069,0.275-1.069,0.757c0,1.173,4.408,0.363,4.408,3.625
		C22.039,19.042,20.922,20.81,17.861,20.81z M27.555,20.557c-0.31,0-5.582,0-5.582,0l1.929-9.114c0,0,4.048,0,4.876,0
		c0.827,0,2.55,0.172,2.55,1.929c0,1.982-1.653,2.291-1.653,2.291s1.309,0.31,1.309,1.879
		C30.984,20.523,27.866,20.557,27.555,20.557z"/>
	<path d="M27.677,13.597h-1.603l-0.276,1.361c0,0,1.603,0,1.74,0c0.137,0,0.827-0.104,0.827-0.758
		C28.365,13.545,27.677,13.597,27.677,13.597z"/>
</g>
</svg>
