<?xml version="1.0" encoding="iso-8859-1"?>
<!-- Generator: Adobe Illustrator 19.1.1, SVG Export Plug-In . SVG Version: 6.00 Build 0)  -->
<svg version="1.1" id="Layer_1" xmlns="http://www.w3.org/2000/svg" xmlns:xlink="http://www.w3.org/1999/xlink" x="0px" y="0px"
	 viewBox="0 0 32 32" style="enable-background:new 0 0 32 32;" xml:space="preserve">
<path d="M24.001,19.164l-1.649-1.402C22.336,17.749,20.174,15,16,15s-6.336,2.749-6.357,2.766l-1.637,1.355L8,17
	c0-2.094,5.664-5,6.667-5c0.468,0,0.923,0.104,1.332,0.301C16.409,12.104,16.864,12,17.333,12c1.003,0,6.667,2.905,6.667,5
	L24.001,19.164z"/>
<circle cx="11.5" cy="7.5" r="1.5"/>
<circle cx="20.5" cy="7.5" r="1.5"/>
<path style="fill:none;stroke:#000000;stroke-width:2;stroke-miterlimit:10;" d="M22.604,21.001
	c2.427-2.386,4.072-5.844,4.348-9.046C28.116,11.741,29,10.726,29,9.5c0-1.209-0.859-2.218-2-2.45V5"/>
<path style="fill:none;stroke:#000000;stroke-width:2;stroke-miterlimit:10;" d="M5,5v2.05C3.859,7.282,3,8.291,3,9.5
	c0,1.226,0.884,2.241,2.048,2.454c0.26,3.024,1.742,6.276,3.95,8.638"/>
<path d="M16.002,28C12.045,28,8,26.812,8,18v-1h1c1.361,0,2.093,1.146,2.627,1.983C11.886,19.388,12.276,20,12.498,20
	c0.154,0,0.247,0,0.352-0.31c0.132-0.388,0.132-0.922,0.131-1.275l0-0.767l0.74-0.246C13.97,17.334,15.25,17,16,17
	s2.032,0.334,2.281,0.401l0.74,0.199v0.767c0,0.465,0,1.021,0.126,1.379C19.225,19.962,19.278,20,19.504,20
	c0.221,0,0.611-0.612,0.869-1.017C20.907,18.146,21.638,17,23,17h1v1C24,26.812,19.957,28,16.002,28z"/>
</svg>
