<?xml version="1.0" encoding="iso-8859-1"?>
<!-- Generator: Adobe Illustrator 19.1.1, SVG Export Plug-In . SVG Version: 6.00 Build 0)  -->
<svg version="1.1"  xmlns="http://www.w3.org/2000/svg" xmlns:xlink="http://www.w3.org/1999/xlink" x="0px" y="0px"
	 viewBox="0 0 32 32" style="enable-background:new 0 0 32 32;" xml:space="preserve">
<line style="fill:none;stroke:#000000;stroke-width:2;stroke-miterlimit:10;" x1="7.99" y1="10.039" x2="10.99" y2="7.039"/>
<line style="fill:none;stroke:#000000;stroke-width:2;stroke-miterlimit:10;" x1="21.009" y1="7.039" x2="24.009" y2="10.039"/>
<polygon style="fill:none;stroke:#000000;stroke-width:2;stroke-miterlimit:10;" points="20,13 16,9 12,13 10,28 22,28 "/>
<g>
	<polygon points="19.828,10 24,5.828 25.204,7.032 21.032,11.204 21.653,11.825 21.893,12.064 21.938,12.4 22.023,13.041 
		28.032,7.032 24,3 18.414,8.586 	"/>
	<polygon points="10.063,12.4 10.107,12.064 10.347,11.825 10.968,11.204 6.796,7.032 8,5.828 12.172,10 13.586,8.586 8,3 
		3.968,7.032 9.977,13.041 	"/>
</g>
<rect x="15.545" y="16" width="1.091" height="1.636"/>
<path style="fill:none;stroke:#000000;stroke-width:2;stroke-miterlimit:10;" d="M18,28v-3c0-1.105-0.895-2-2-2l0,0
	c-1.105,0-2,0.895-2,2v3"/>
<line style="fill:none;stroke:#000000;stroke-width:2;stroke-miterlimit:10;" x1="20" y1="13" x2="12" y2="13"/>
<g>
	<path d="M9.518,16.482L3,23l4.032,4.032l1.245-1.245L9.518,16.482z M5.828,23l1.379-1.379l1.204,1.204l-1.379,1.379L5.828,23z"/>
	<path d="M22.482,16.482l1.241,9.306l1.245,1.245L29,23L22.482,16.482z M23.589,22.825l1.204-1.204L26.172,23l-1.204,1.204
		L23.589,22.825z"/>
</g>
</svg>
