<?xml version="1.0" encoding="iso-8859-1"?>
<!-- Generator: Adobe Illustrator 19.1.1, SVG Export Plug-In . SVG Version: 6.00 Build 0)  -->
<svg version="1.1" id="Layer_1" xmlns="http://www.w3.org/2000/svg" xmlns:xlink="http://www.w3.org/1999/xlink" x="0px" y="0px"
	 viewBox="0 0 32 32" style="enable-background:new 0 0 32 32;" xml:space="preserve">
<path id="XMLID_38_" style="fill:none;stroke:#000000;stroke-width:2;stroke-miterlimit:10;" d="M7,11c0,0.984,1.328,2,3,2s3-1,3-2"
	/>
<path id="XMLID_37_" style="fill:none;stroke:#000000;stroke-width:2;stroke-miterlimit:10;" d="M13,11c0,0.984,1.328,2,3,2s3-1,3-2
	"/>
<path id="XMLID_36_" style="fill:none;stroke:#000000;stroke-width:2;stroke-miterlimit:10;" d="M19,11c0,0.984,1.328,2,3,2s3-1,3-2
	"/>
<path id="XMLID_35_" style="fill:none;stroke:#000000;stroke-width:2;stroke-miterlimit:10;" d="M25,11c0,0.984,1.328,2,3,2s3-1,3-2
	"/>
<path id="XMLID_34_" style="fill:none;stroke:#000000;stroke-width:2;stroke-miterlimit:10;" d="M1,11c0,0.984,1.328,2,3,2s3-1,3-2"
	/>
<g>
	<path d="M9.779,13.986l2.711-6.001l1.407,2.126l2.281-4.17l2.891,4.613l1.236-1.13l1.869,4.562
		c0.719-0.025,1.394-0.194,1.973-0.477L21,6l-1.568,1.445L16,2l-2.396,4.389L12,4l-4.181,9.486
		C8.391,13.776,9.061,13.955,9.779,13.986z"/>
	<path d="M23.014,15.928l0.853,1.97l-5.053,7.989L16,23l-1.973,2.777l-5.878-7.929l0.812-1.925c-0.69-0.101-1.339-0.3-1.927-0.58
		l-1.185,2.808L14,29l2.253-3.125l2.961,3.016l6.919-10.789l-1.192-2.754C24.352,15.627,23.705,15.83,23.014,15.928z"/>
</g>
</svg>
