<svg xmlns="http://www.w3.org/2000/svg" fill-rule="evenodd" stroke-linejoin="round" stroke-miterlimit="2" clip-rule="evenodd" viewBox="0 0 400 400"><defs/><path fill="none" d="M0 0h400v400H0z"/><path fill="#ffd54f" fill-rule="nonzero" d="M254.158 293c-2.499 0-4.941-.558-7.205-1.628a9.33 9.33 0 01-1.16-.569l-45.807-26.132-45.806 26.143c-.39.223-.781.413-1.182.591-5.443 2.543-12.101 1.941-16.964-1.595-5.231-3.792-7.819-10.406-6.536-16.83l10.674-51.773c-4.172-3.793-10.73-9.76-17.868-16.251l-21.135-19.239a8.364 8.364 0 01-.87-.915c-4.183-4.416-5.677-10.818-3.792-16.64 1.929-5.845 6.915-10.172 12.937-11.254.38-.089.748-.156 1.138-.201l52.431-5.811 21.705-48.07a7.66 7.66 0 01.669-1.227A16.72 16.72 0 01199.986 93c6.057 0 11.644 3.324 14.6 8.588.234.402.457.814.669 1.249l21.727 48.093 52.431 5.811c.379.033.759.1 1.16.189 6.012 1.116 10.997 5.421 12.916 11.287 1.896 5.811.39 12.247-3.793 16.663-.267.29-.568.603-.87.87l-39.014 35.512 10.674 51.662c1.26 6.547-1.316 13.139-6.58 16.942a16.602 16.602 0 01-9.748 3.134z"/><circle cx="255.5" cy="127.5" r="14.5" fill="#ffd54f" fill-opacity=".5"/><circle cx="144.5" cy="127.5" r="14.5" fill="#ffd54f" fill-opacity=".5"/><circle cx="287.5" cy="229.5" r="14.5" fill="#ffd54f" fill-opacity=".5"/><circle cx="113.5" cy="229.5" r="14.5" fill="#ffd54f" fill-opacity=".5"/><circle cx="200" cy="297.5" r="14.5" fill="#ffd54f" fill-opacity=".5"/></svg>