<?xml version="1.0" encoding="iso-8859-1"?>
<!-- Generator: Adobe Illustrator 19.1.1, SVG Export Plug-In . SVG Version: 6.00 Build 0)  -->
<svg version="1.1"  xmlns="http://www.w3.org/2000/svg" xmlns:xlink="http://www.w3.org/1999/xlink" x="0px" y="0px"
	 viewBox="0 0 32 32" style="enable-background:new 0 0 32 32;" xml:space="preserve">
<path style="fill:none;stroke:#000000;stroke-width:2;stroke-miterlimit:10;" d="M19.894,23c0,0.633,1.106,2.764,1.106,2.764V26H11
	v-0.236c0,0,1-2.161,1-2.792"/>
<path style="fill:none;stroke:#000000;stroke-width:2;stroke-miterlimit:10;" d="M4.894,23C4.894,23.633,6,25.764,6,25.764V26H2"/>
<path style="fill:none;stroke:#000000;stroke-width:2;stroke-miterlimit:10;" d="M2,19h3"/>
<line style="fill:none;stroke:#000000;stroke-width:2;stroke-miterlimit:10;" x1="12" y1="19" x2="20" y2="19"/>
<path style="fill:none;stroke:#000000;stroke-width:2;stroke-miterlimit:10;" d="M12,7c0-0.552,0.448-1,1-1h6c0.552,0,1,0.448,1,1v9
	h2v5c0,0.552-0.448,1-1,1H11c-0.552,0-1-0.448-1-1v-5h2V7z"/>
<path style="fill:none;stroke:#000000;stroke-width:2;stroke-miterlimit:10;" d="M2,6h2c0.552,0,1,0.448,1,1v9h2v5
	c0,0.552-0.448,1-1,1H2"/>
<g>
	<g>
		<path style="fill:none;stroke:#000000;stroke-width:2;stroke-linejoin:round;stroke-miterlimit:10;" d="M27.712,7.043
			l-0.979,0.305C26.299,7.483,26,7.914,26,8.406v4.189c0,0.491,0.299,0.923,0.733,1.058l0.979,0.305
			C28.358,14.158,29,13.63,29,12.899V8.101C29,7.37,28.358,6.842,27.712,7.043z"/>
	</g>
</g>
</svg>
