<?xml version="1.0" encoding="iso-8859-1"?>
<!-- Generator: Adobe Illustrator 19.1.0, SVG Export Plug-In . SVG Version: 6.00 Build 0)  -->
<svg version="1.1" id="Layer_1" xmlns="http://www.w3.org/2000/svg" xmlns:xlink="http://www.w3.org/1999/xlink" x="0px" y="0px"
	 viewBox="0 0 32 32" style="enable-background:new 0 0 32 32;" xml:space="preserve">
<g>
	<path style="fill:none;stroke:#000000;stroke-width:2;stroke-miterlimit:10;" d="M14.999,14.644C8.926,17.024,6,10.672,6,8.741
		C6,7.698,6.338,7,7.427,7c2.335,0,6.879,1.571,8.137,5.567"/>
</g>
<g>
	<path style="fill:none;stroke:#000000;stroke-width:2;stroke-miterlimit:10;" d="M9,4c2.979,0,7.783,3.237,8.95,6.999"/>
</g>
<path style="fill:none;stroke:#000000;stroke-width:2;stroke-miterlimit:10;" d="M24.163,5L20,6"/>
<path d="M15,30c0,0-2.605-1.421-3-3.789c0.316,0.316,2.368,1.026,3,1.105V30z"/>
<path style="fill:none;stroke:#000000;stroke-width:2;stroke-miterlimit:10;" d="M18,24c-5.906,0-8.005-4.024-8.005-4.024"/>
<path style="fill:none;stroke:#000000;stroke-width:2;stroke-miterlimit:10;" d="M11.28,16.824c0,0,3.618,4.176,7.72,4.176"/>
<path d="M24.86,11.737c-0.468,0.463-1.683,0.278-2.291-0.278c-0.608-0.556-0.795-1.575-0.234-2.131
	c0.514-0.556,1.449-0.371,2.057,0.185C25.188,10.255,25.328,11.228,24.86,11.737z"/>
<path style="fill:none;stroke:#000000;stroke-width:2;stroke-miterlimit:10;" d="M23.264,8.37c-1.59-0.787-3.133-0.278-3.881,1.158
	s-0.421,3.196,1.169,3.984c1.59,0.787,4.629,0.649,5.284-0.602C26.443,11.705,25.321,9.435,23.264,8.37z"/>
<path style="fill:none;stroke:#000000;stroke-width:2.0006;stroke-miterlimit:10;" d="M15.379,15.116
	C15.094,15.041,14.801,15,14.5,15c-2.485,0-4.5,2.686-4.5,6s2.015,6,4.5,6s4.5-2.686,4.5-6c0-1.179-0.259-2.276-0.7-3.203"/>
<path style="fill:none;stroke:#000000;stroke-width:2.0006;stroke-miterlimit:10;" d="M19.025,11.34
	c-1.233-0.524-2.524-0.441-3.325,0.36c-1.16,1.16-0.846,3.353,0.7,4.9c1.546,1.546,3.74,1.86,4.9,0.7
	c0.828-0.828,0.892-2.181,0.307-3.45"/>
</svg>
