<?xml version="1.0" encoding="iso-8859-1"?>
<!-- Generator: Adobe Illustrator 19.1.1, SVG Export Plug-In . SVG Version: 6.00 Build 0)  -->
<svg version="1.1" id="Layer_1" xmlns="http://www.w3.org/2000/svg" xmlns:xlink="http://www.w3.org/1999/xlink" x="0px" y="0px"
	 viewBox="0 0 32 32" style="enable-background:new 0 0 32 32;" xml:space="preserve">
<line style="fill:none;stroke:#000000;stroke-width:2;stroke-miterlimit:10;" x1="10.128" y1="11" x2="16.187" y2="17.059"/>
<line style="fill:none;stroke:#000000;stroke-width:2;stroke-miterlimit:10;" x1="12.128" y1="9" x2="18.187" y2="15.059"/>
<line style="fill:none;stroke:#000000;stroke-width:2;stroke-miterlimit:10;" x1="14.128" y1="7" x2="20.187" y2="13.059"/>
<line style="fill:none;stroke:#000000;stroke-width:2;stroke-miterlimit:10;" x1="16.128" y1="5" x2="22.187" y2="11.059"/>
<line style="fill:none;stroke:#000000;stroke-width:2;stroke-miterlimit:10;" x1="18.128" y1="3" x2="24.187" y2="9.059"/>
<path style="fill:none;stroke:#000000;stroke-width:2;stroke-miterlimit:10;" d="M26.617,9.239l-1.446-1.446l-8.977,8.977
	c-0.086,0.056-0.18,0.094-0.255,0.169l-8,8c-0.585,0.585-0.585,1.536,0,2.121C8.223,27.344,8.6,27.5,9,27.5s0.777-0.156,1.061-0.439
	L17,20c1.123,0.945,3.993,0.007,7-3S27.74,10.31,26.617,9.239z"/>
</svg>
