<?xml version="1.0" encoding="iso-8859-1"?>
<!-- Generator: Adobe Illustrator 19.1.1, SVG Export Plug-In . SVG Version: 6.00 Build 0)  -->
<svg version="1.1" id="Layer_1" xmlns="http://www.w3.org/2000/svg" xmlns:xlink="http://www.w3.org/1999/xlink" x="0px" y="0px"
	 viewBox="0 0 32 32" style="enable-background:new 0 0 32 32;" xml:space="preserve">
<line style="fill:none;stroke:#000000;stroke-width:2;stroke-miterlimit:10;" x1="16" y1="1" x2="16" y2="6"/>
<path d="M16,31L16,31c-0.552,0-1-0.448-1-1v0c0-0.552,0.448-1,1-1h0c0.552,0,1,0.448,1,1v0C17,30.552,16.552,31,16,31z"/>
<path d="M16,27L16,27c-0.552,0-1-0.448-1-1v0c0-0.552,0.448-1,1-1h0c0.552,0,1,0.448,1,1v0C17,26.552,16.552,27,16,27z"/>
<path d="M6,17L6,17c-0.552,0-1-0.448-1-1v0c0-0.552,0.448-1,1-1h0c0.552,0,1,0.448,1,1v0C7,16.552,6.552,17,6,17z"/>
<path d="M26,17L26,17c-0.552,0-1-0.448-1-1v0c0-0.552,0.448-1,1-1h0c0.552,0,1,0.448,1,1v0C27,16.552,26.552,17,26,17z"/>
<path d="M22.364,23.778L22.364,23.778c-0.391-0.391-0.391-1.024,0-1.414l0,0c0.391-0.391,1.024-0.39,1.414,0l0,0
	c0.39,0.391,0.39,1.024,0,1.414l0,0C23.388,24.169,22.755,24.169,22.364,23.778z"/>
<path d="M8.222,23.778L8.222,23.778c-0.39-0.39-0.39-1.023,0-1.414l0,0c0.39-0.391,1.024-0.391,1.414,0h0
	c0.39,0.39,0.39,1.023,0,1.414l0,0C9.245,24.169,8.612,24.169,8.222,23.778z"/>
<path d="M5.838,20.21L5.838,20.21c-0.211-0.51,0.031-1.095,0.541-1.307h0c0.51-0.211,1.095,0.031,1.307,0.541h0
	c0.211,0.51-0.031,1.095-0.541,1.307h0C6.634,20.963,6.049,20.721,5.838,20.21z"/>
<path d="M11.808,26.17L11.808,26.17c-0.511-0.211-0.754-0.795-0.544-1.306l0,0c0.211-0.511,0.795-0.754,1.306-0.543l0,0
	c0.511,0.211,0.754,0.795,0.543,1.306l0,0C12.903,26.137,12.319,26.381,11.808,26.17z"/>
<path d="M6.293,13.399L6.293,13.399c-0.517-0.195-0.777-0.772-0.582-1.289l0,0C5.906,11.593,6.483,11.332,7,11.528l0,0
	c0.517,0.195,0.777,0.772,0.582,1.289l0,0C7.387,13.333,6.81,13.594,6.293,13.399z"/>
<path d="M22.364,23.778L22.364,23.778c-0.391-0.391-0.391-1.024,0-1.414l0,0c0.391-0.391,1.024-0.39,1.414,0l0,0
	c0.39,0.391,0.39,1.024,0,1.414l0,0C23.388,24.169,22.755,24.169,22.364,23.778z"/>
<path d="M24.855,20.751L24.855,20.751c-0.51-0.211-0.752-0.796-0.541-1.307l0,0c0.211-0.51,0.796-0.752,1.307-0.541l0,0
	c0.51,0.211,0.752,0.796,0.541,1.307l0,0C25.951,20.721,25.366,20.963,24.855,20.751z"/>
<path d="M18.886,25.627L18.886,25.627c-0.211-0.511,0.033-1.095,0.543-1.306l0,0c0.511-0.211,1.095,0.033,1.306,0.543l0,0
	c0.211,0.511-0.033,1.095-0.543,1.306l0,0C19.681,26.381,19.097,26.137,18.886,25.627z"/>
<path d="M24.418,12.817L24.418,12.817C24.223,12.3,24.483,11.723,25,11.528l0,0c0.517-0.195,1.094,0.065,1.289,0.582l0,0
	c0.195,0.517-0.065,1.094-0.582,1.289l0,0C25.19,13.594,24.613,13.333,24.418,12.817z"/>
<line style="fill:none;stroke:#000000;stroke-width:2;stroke-miterlimit:10;" x1="26.607" y1="5.393" x2="23.071" y2="8.929"/>
<path d="M5.394,26.606L5.394,26.606c-0.39-0.39-0.39-1.024,0-1.414h0c0.39-0.39,1.024-0.39,1.414,0h0c0.39,0.39,0.39,1.024,0,1.414
	h0C6.417,26.997,5.784,26.997,5.394,26.606z"/>
<line style="fill:none;stroke:#000000;stroke-width:2;stroke-miterlimit:10;" x1="5.393" y1="5.393" x2="8.929" y2="8.929"/>
<path d="M25.192,26.606L25.192,26.606c-0.39-0.39-0.39-1.024,0-1.414l0,0c0.39-0.39,1.024-0.39,1.414,0l0,0
	c0.39,0.39,0.39,1.024,0,1.414l0,0C26.216,26.997,25.583,26.997,25.192,26.606z"/>
<path d="M2,17L2,17c-0.552,0-1-0.448-1-1v0c0-0.552,0.448-1,1-1h0c0.552,0,1,0.448,1,1v0C3,16.552,2.552,17,2,17z"/>
<path d="M30,17L30,17c-0.552,0-1-0.448-1-1v0c0-0.552,0.448-1,1-1h0c0.552,0,1,0.448,1,1v0C31,16.552,30.552,17,30,17z"/>
<line style="fill:none;stroke:#000000;stroke-width:2;stroke-miterlimit:10;" x1="2" y1="11" x2="30" y2="11"/>
<line id="XMLID_2_" style="fill:none;stroke:#000000;stroke-width:2;stroke-miterlimit:10;" x1="12" y1="22" x2="12" y2="14"/>
<circle cx="21" cy="15" r="1"/>
<path style="fill:none;stroke:#000000;stroke-width:2;stroke-miterlimit:10;" d="M8.221,9.609C10.055,7.404,12.82,6,15.913,6
	c2.996,0,5.684,1.318,7.517,3.405"/>
<path style="fill:none;stroke:#000000;stroke-width:2;stroke-miterlimit:10;" d="M7.251,11c1.729-2.989,4.961-5,8.662-5
	c3.703,0,6.935,2.012,8.664,5.003"/>
<path id="XMLID_19_" style="fill:none;stroke:#000000;stroke-width:2;stroke-miterlimit:10;" d="M15,17v-0.5
	c0-0.828,0.672-1.5,1.5-1.5h0c0.828,0,1.5,0.672,1.5,1.5v0.84c0,0.42-0.176,0.822-0.486,1.106L15,20.75V21h4"/>
</svg>
