<?xml version="1.0" encoding="iso-8859-1"?>
<!-- Generator: Adobe Illustrator 19.1.1, SVG Export Plug-In . SVG Version: 6.00 Build 0)  -->
<svg version="1.1" id="Layer_1" xmlns="http://www.w3.org/2000/svg" xmlns:xlink="http://www.w3.org/1999/xlink" x="0px" y="0px"
	 viewBox="0 0 32 32" style="enable-background:new 0 0 32 32;" xml:space="preserve">
<line style="fill:none;stroke:#000000;stroke-width:2;stroke-miterlimit:10;" x1="13" y1="22" x2="13" y2="18"/>
<line style="fill:none;stroke:#000000;stroke-width:2;stroke-miterlimit:10;" x1="19" y1="22" x2="19" y2="18"/>
<line style="fill:none;stroke:#000000;stroke-width:2;stroke-miterlimit:10;" x1="16" y1="22" x2="16" y2="18"/>
<path id="XMLID_7_" d="M18,4l-3.768,9.044c2.247,0,2.115-0.254,2.115-0.254L20.009,4H18z"/>
<circle id="XMLID_6_" style="fill:none;stroke:#000000;stroke-width:2;stroke-miterlimit:10;" cx="16" cy="20" r="7"/>
<line id="XMLID_5_" style="fill:none;stroke:#000000;stroke-width:2;stroke-miterlimit:10;" x1="11" y1="18" x2="21" y2="18"/>
<line id="XMLID_4_" style="fill:none;stroke:#000000;stroke-width:2;stroke-miterlimit:10;" x1="11" y1="22" x2="21" y2="22"/>
<polygon id="XMLID_3_" points="13.979,13.65 9.979,4 8,4 12.294,14.306 "/>
<path id="XMLID_2_" d="M21.985,4l-3.768,9.044c0,0,0.653,0.695,1.331,1.641L24,4H21.985z"/>
<polygon id="XMLID_1_" points="15.294,7.106 14,4 11.987,4 14.288,9.521 "/>
</svg>
