<?xml version="1.0" encoding="iso-8859-1"?>
<!-- Generator: Adobe Illustrator 19.2.0, SVG Export Plug-In . SVG Version: 6.00 Build 0)  -->
<svg version="1.1" id="Layer_1" xmlns="http://www.w3.org/2000/svg" xmlns:xlink="http://www.w3.org/1999/xlink" x="0px" y="0px"
	 viewBox="0 0 32 32" style="enable-background:new 0 0 32 32;" xml:space="preserve">
<path style="fill:none;stroke:#000000;stroke-width:2;stroke-miterlimit:10;" d="M28,13c0,0-6.869-3-12-3S4,13,4,13"/>
<circle cx="18.5" cy="5.5" r="1.5"/>
<path style="fill:none;stroke:#000000;stroke-width:2;stroke-miterlimit:10;" d="M19,5.5c0,4.051-3,4.5-3,4.5"/>
<circle cx="13.5" cy="5.5" r="1.5"/>
<path style="fill:none;stroke:#000000;stroke-width:2;stroke-miterlimit:10;" d="M8.511,11.43c0,0-3.511,5.11-3.511,11.913
	C5,25.599,6.209,27,8.148,27h15.704C25.791,27,27,25.599,27,23.343c0-6.803-3.511-11.913-3.511-11.913"/>
<path d="M14.721,8.063C14.324,7.541,14,6.739,14,5.5h-2c0,1.192,0.238,2.148,0.605,2.91C13.298,8.244,14.004,8.127,14.721,8.063z"/>
</svg>
