<?xml version="1.0" encoding="iso-8859-1"?>
<!-- Generator: Adobe Illustrator 19.1.1, SVG Export Plug-In . SVG Version: 6.00 Build 0)  -->
<svg version="1.1" id="Layer_1" xmlns="http://www.w3.org/2000/svg" xmlns:xlink="http://www.w3.org/1999/xlink" x="0px" y="0px"
	 viewBox="0 0 32 32" style="enable-background:new 0 0 32 32;" xml:space="preserve">
<path d="M11.125,25.947c-2.477-0.25-2.955-2.782-2.533-3.57l1.19-2.053h5.594v5.642H11.24L11.125,25.947L11.125,25.947z"/>
<path d="M27.452,15.371c1.017,2.264-0.94,3.954-1.823,3.972H23.25l-2.789-4.833l4.874-2.821l2.079,3.566L27.452,15.371
	L27.452,15.371z"/>
<path d="M10.078,5.942c1.459-2.013,3.895-1.17,4.356-0.404l1.191,2.056l-2.762,4.839L7.987,9.612l2.032-3.574L10.078,5.942
	L10.078,5.942z"/>
<path d="M7.584,22.167c-0.325,0.576-0.172,1.056-0.115,1.286l-3.224-5.546c-0.364-0.539-0.269-0.884-0.058-1.21l1.65-2.839
	l-1.726-1.017h5.546l2.822,4.836l-1.727-0.996L7.584,22.167L7.584,22.167z"/>
<g>
	<path d="M25.776,20.343c0.671-0.019,1.017-0.383,1.17-0.536l-3.186,5.545c-0.268,0.594-0.633,0.691-1.016,0.654h-3.282L19.442,28
		l-2.763-4.798l2.782-4.854v1.994L25.776,20.343L25.776,20.343z"/>
</g>
<g>
	<path d="M15.165,4.756c-0.345-0.577-0.825-0.671-1.036-0.73L20.5,4.009c0.653-0.06,0.921,0.19,1.094,0.555l1.631,2.84l1.726-0.997
		l-2.763,4.816l-5.583,0.02l1.707-0.998L15.165,4.756L15.165,4.756z"/>
</g>
</svg>
