<?xml version="1.0" encoding="iso-8859-1"?>
<!-- Generator: Adobe Illustrator 19.1.0, SVG Export Plug-In . SVG Version: 6.00 Build 0)  -->
<svg version="1.1" id="Layer_1" xmlns="http://www.w3.org/2000/svg" xmlns:xlink="http://www.w3.org/1999/xlink" x="0px" y="0px"
	 viewBox="0 0 32 32" style="enable-background:new 0 0 32 32;" xml:space="preserve">
<path style="fill:none;stroke:#000000;stroke-width:2;stroke-linejoin:round;stroke-miterlimit:10;" d="M14,14
	c0,1.331-2,2.547-2,4.457C12,19.543,12.872,20,14,20h3c0,0,7.07-4.764,6.022-8.884"/>
<path style="fill:none;stroke:#000000;stroke-width:2;stroke-linecap:round;stroke-linejoin:round;stroke-miterlimit:10;" d="
	M27.677,20.512C28.475,21.051,29,21.964,29,23c0,1.657-1.343,3-3,3s-3-1.343-3-3c0-0.706,0.244-1.355,0.652-1.868"/>
<path d="M24,8h-2.5C20.672,8,20,7.328,20,6.5v0C20,5.672,20.672,5,21.5,5H24V8z"/>
<path style="fill:none;stroke:#000000;stroke-width:2;stroke-miterlimit:10;" d="M24.986,17c2.191,0,4.44,1.873,5.014,3v0.366
	c-5.646,0-9.937,1.54-9.937,1.54"/>
<path style="fill:none;stroke:#000000;stroke-width:2;stroke-miterlimit:10;" d="M12.711,15H6.289C5.577,15,5,14.423,5,13.711
	v-0.339c0-0.744,0.627-1.333,1.369-1.287l6.422,0.339C13.471,12.467,14,13.03,14,13.711v0C14,14.423,13.423,15,12.711,15z"/>
<path style="fill:none;stroke:#000000;stroke-width:2;stroke-linecap:round;stroke-miterlimit:10;" d="M3.708,21.086
	C3.272,21.607,3,22.268,3,23c0,1.657,1.343,3,3,3s3-1.343,3-3c0-0.112-0.021-0.219-0.033-0.328"/>
<path style="fill:none;stroke:#000000;stroke-width:2;stroke-miterlimit:10;" d="M6,14c0,2-4,2.883-4,6.396
	c0,0,5.879,2.604,9.719,2.604h5.609c1.007,0,1.974-0.396,2.693-1.102L25,17c0,0-0.873-5.738-5-10l-4,0"/>
</svg>
