<?xml version="1.0" encoding="iso-8859-1"?>
<!-- Generator: Adobe Illustrator 21.0.2, SVG Export Plug-In . SVG Version: 6.00 Build 0)  -->
<svg version="1.1" id="Layer_1" xmlns="http://www.w3.org/2000/svg" xmlns:xlink="http://www.w3.org/1999/xlink" x="0px" y="0px"
	 viewBox="0 0 32 32" style="enable-background:new 0 0 32 32;" xml:space="preserve">
<polygon points="27,16.172 27,3 5,3 5,29 18.312,29 27,29 27,25.828 25.828,27 7,27 7,5 25,5 25,14.172 "/>
<circle cx="16" cy="14" r="1"/>
<path d="M9,10v12h6v-2h-4v-2h8.171L23,14.172V10H9z M21,16H11v-4h10V16z"/>
<polygon points="29,21 24,16 22.586,17.414 26.172,21 22.586,24.586 24,26 "/>
<path style="fill:none;stroke:#000000;stroke-width:2;stroke-miterlimit:10;" d="M14,10c0-1.105,0.895-2,2-2s2,0.895,2,2"/>
<line style="fill:none;stroke:#000000;stroke-width:2;stroke-miterlimit:10;" x1="27.5" y1="21" x2="17" y2="21"/>
</svg>
