<?xml version="1.0" encoding="iso-8859-1"?>
<!-- Generator: Adobe Illustrator 19.2.0, SVG Export Plug-In . SVG Version: 6.00 Build 0)  -->
<svg version="1.1" id="Layer_1" xmlns="http://www.w3.org/2000/svg" xmlns:xlink="http://www.w3.org/1999/xlink" x="0px" y="0px"
	 viewBox="0 0 32 32" style="enable-background:new 0 0 32 32;" xml:space="preserve">
<path style="fill:none;stroke:#000000;stroke-width:2;stroke-miterlimit:10;" d="M5,26c0,0,7.083,0,11.625,0
	C22.25,26,24,23.593,24,21.042C24,18.167,22.5,15,22.5,15"/>
<path style="fill:none;stroke:#000000;stroke-width:2;stroke-miterlimit:10;" d="M21.02,14.836C21.327,14.942,21.657,15,22,15
	c1.657,0,3-1.343,3-3s-1.343-3-3-3s-3,1.319-3,3c0,8.083-6.667,14-14,14"/>
<path style="fill:none;stroke:#000000;stroke-width:2;stroke-miterlimit:10;" d="M20.843,9C20.843,9,20,7.738,20,4.5"/>
<circle cx="20.5" cy="4.5" r="1.5"/>
<path style="fill:none;stroke:#000000;stroke-width:2;stroke-miterlimit:10;" d="M22.843,9C22.843,9,24,8.738,24,5.5"/>
<circle cx="24.5" cy="5.5" r="1.5"/>
</svg>
