<?xml version="1.0" encoding="iso-8859-1"?>
<!-- Generator: Adobe Illustrator 19.1.0, SVG Export Plug-In . SVG Version: 6.00 Build 0)  -->
<svg version="1.1" id="Layer_1" xmlns="http://www.w3.org/2000/svg" xmlns:xlink="http://www.w3.org/1999/xlink" x="0px" y="0px"
	 viewBox="0 0 32 32" style="enable-background:new 0 0 32 32;" xml:space="preserve">
<circle style="fill:none;stroke:#000000;stroke-width:2;stroke-miterlimit:10;" cx="16" cy="9" r="3"/>
<polyline style="fill:none;stroke:#000000;stroke-width:2;stroke-miterlimit:10;" points="19,9 26,9 26,16 "/>
<polygon points="12,15 10,15 7.208,27 9.208,27 "/>
<polygon points="18.917,15 20.917,15 23.708,27 21.708,27 "/>
<g>
	<polygon points="12.767,16 12.302,18 20.615,18 20.149,16 	"/>
	<polygon points="22.476,26 22.01,24 10.906,24 10.441,26 	"/>
	<polygon points="24.476,26 26.708,26 26.208,24 24.01,24 	"/>
	<polygon points="21.545,22 21.08,20 11.837,20 11.372,22 	"/>
	<polygon points="22.615,18 24.708,18 24.208,16 22.149,16 	"/>
	<polygon points="8.906,24 5.708,24 5.208,26 8.441,26 	"/>
	<polygon points="9.837,20 6.708,20 6.208,22 9.372,22 	"/>
	<polygon points="23.545,22 25.708,22 25.208,20 23.08,20 	"/>
	<polygon points="10.767,16 7.708,16 7.208,18 10.302,18 	"/>
</g>
</svg>
