<?xml version="1.0" encoding="iso-8859-1"?>
<!-- Generator: Adobe Illustrator 19.1.1, SVG Export Plug-In . SVG Version: 6.00 Build 0)  -->
<svg version="1.1" id="Layer_1" xmlns="http://www.w3.org/2000/svg" xmlns:xlink="http://www.w3.org/1999/xlink" x="0px" y="0px"
	 viewBox="0 0 32 32" style="enable-background:new 0 0 32 32;" xml:space="preserve">
<rect x="9" y="9" style="fill:none;stroke:#000000;stroke-width:2;stroke-miterlimit:10;" width="14" height="15"/>
<path style="fill:none;stroke:#000000;stroke-width:2;stroke-miterlimit:10;" d="M9,25.5C9,26.328,8.105,27,7,27s-2-0.672-2-1.5v-18
	C5,6.672,5.895,6,7,6s2,0.672,2,1.5V25.5z"/>
<circle cx="7" cy="4" r="1"/>
<circle cx="7" cy="28" r="1"/>
<path style="fill:none;stroke:#000000;stroke-width:2;stroke-miterlimit:10;" d="M27,25.5c0,0.828-0.895,1.5-2,1.5s-2-0.672-2-1.5
	v-18C23,6.672,23.895,6,25,6s2,0.672,2,1.5V25.5z"/>
<circle cx="25" cy="4" r="1"/>
<circle cx="25" cy="28" r="1"/>
<line style="fill:none;stroke:#000000;stroke-width:2;stroke-miterlimit:10;" x1="20" y1="13" x2="12" y2="13"/>
<line style="fill:none;stroke:#000000;stroke-width:2;stroke-miterlimit:10;" x1="20" y1="16" x2="15" y2="16"/>
<line style="fill:none;stroke:#000000;stroke-width:2;stroke-miterlimit:10;" x1="20" y1="19" x2="12" y2="19"/>
</svg>
