<?xml version="1.0" encoding="iso-8859-1"?>
<!-- Generator: Adobe Illustrator 19.1.1, SVG Export Plug-In . SVG Version: 6.00 Build 0)  -->
<svg version="1.1" id="Layer_1" xmlns="http://www.w3.org/2000/svg" xmlns:xlink="http://www.w3.org/1999/xlink" x="0px" y="0px"
	 viewBox="0 0 32 32" style="enable-background:new 0 0 32 32;" xml:space="preserve">
<polygon style="fill:none;stroke:#000000;stroke-width:2;stroke-miterlimit:10;" points="20,4 20,7 23,8 23,26 9,26 9,8 12,7 12,4 
	"/>
<path style="fill:none;stroke:#000000;stroke-width:2;stroke-miterlimit:10;" d="M23,8c0,0,2.206,0.691,3,2.5
	c0.447,1.019,1,7.5,1,7.5v10h-4v-3"/>
<path style="fill:none;stroke:#000000;stroke-width:2;stroke-miterlimit:10;" d="M9,8c0,0-2.136,0.506-3,2.5C5.557,11.521,5,18,5,18
	v10h4v-3"/>
<polyline style="fill:none;stroke:#000000;stroke-width:2;stroke-miterlimit:10;" points="12,4 16,11 20,4 "/>
<path d="M17.751,23c-5.116-1.676-5.45-5.266-4.016-6.463c0.622-0.527,1.1-0.335,1.195-0.335c-0.048,0.91,0.096,3.16,1.434,4.452
	c-0.677-3.362-0.323-3.467-0.096-4.309c0.382-0.383,2.199-0.766,2.63,1.149C19.472,19.84,17.416,21.995,17.751,23z"/>
<path style="fill:none;stroke:#000000;stroke-miterlimit:10;" d="M17.25,14.417c0,0-2.521,1.833-0.25,6.583"/>
</svg>
