<?xml version="1.0" encoding="iso-8859-1"?>
<!-- Generator: Adobe Illustrator 19.1.0, SVG Export Plug-In . SVG Version: 6.00 Build 0)  -->
<svg version="1.1" id="Layer_1" xmlns="http://www.w3.org/2000/svg" xmlns:xlink="http://www.w3.org/1999/xlink" x="0px" y="0px"
	 viewBox="0 0 32 32" style="enable-background:new 0 0 32 32;" xml:space="preserve">
<path id="XMLID_33_" style="fill:none;stroke:#000000;stroke-width:2;stroke-miterlimit:10;" d="M7,21c0,0.984,1.328,2,3,2s3-1,3-2"
	/>
<path id="XMLID_32_" style="fill:none;stroke:#000000;stroke-width:2;stroke-miterlimit:10;" d="M13,21c0,0.984,1.328,2,3,2s3-1,3-2
	"/>
<path id="XMLID_31_" style="fill:none;stroke:#000000;stroke-width:2;stroke-miterlimit:10;" d="M19,21c0,0.984,1.328,2,3,2s3-1,3-2
	"/>
<path id="XMLID_30_" style="fill:none;stroke:#000000;stroke-width:2;stroke-miterlimit:10;" d="M25,21c0,0.984,1.328,2,3,2s3-1,3-2
	"/>
<path id="XMLID_29_" style="fill:none;stroke:#000000;stroke-width:2;stroke-miterlimit:10;" d="M1,21c0,0.984,1.328,2,3,2s3-1,3-2"
	/>
<path style="fill:none;stroke:#000000;stroke-width:2;stroke-miterlimit:10;" d="M25,22c1.68-1.68,3-3.041,3-9L4,17
	c0,3.977,2.45,5,2.45,5"/>
<circle cx="22" cy="17" r="1"/>
<circle cx="17" cy="18" r="1"/>
<circle cx="12" cy="19" r="1"/>
<polyline style="fill:none;stroke:#000000;stroke-width:2;stroke-miterlimit:10;" points="25.18,13.47 18,10 11,10.75 8.08,9 5,9 
	5,9.398 7.3,13 7.3,13 6.163,16.64 "/>
</svg>
