<?xml version="1.0" encoding="iso-8859-1"?>
<!-- Generator: Adobe Illustrator 19.1.0, SVG Export Plug-In . SVG Version: 6.00 Build 0)  -->
<svg version="1.1" id="Layer_1" xmlns="http://www.w3.org/2000/svg" xmlns:xlink="http://www.w3.org/1999/xlink" x="0px" y="0px"
	 viewBox="0 0 32 32" style="enable-background:new 0 0 32 32;" xml:space="preserve">
<path style="fill:none;stroke:#000000;stroke-width:2;stroke-miterlimit:10;" d="M16,11c-8.355,0-11,4-11,4v11h9v-5h4v5h9V15
	C27,15,24.355,11,16,11z"/>
<rect x="21" y="16" width="2" height="2"/>
<rect x="17" y="16" width="2" height="2"/>
<rect x="13" y="16" width="2" height="2"/>
<rect x="21" y="20" width="2" height="2"/>
<rect x="9" y="16" width="2" height="2"/>
<rect x="9" y="20" width="2" height="2"/>
<path style="fill:none;stroke:#000000;stroke-width:2;stroke-miterlimit:10;" d="M27,9c-2.302,0-3.384-2.224-5.436,0"/>
<path style="fill:none;stroke:#000000;stroke-width:2;stroke-miterlimit:10;" d="M20,7c-2.302,0-2.809-2.273-6,0"/>
<path style="fill:none;stroke:#000000;stroke-width:2;stroke-miterlimit:10;" d="M12,8C9.698,8,8.796,5.569,6.621,8.423"/>
</svg>
