<?xml version="1.0" encoding="utf-8"?>
<!-- Generator: Adobe Illustrator 19.1.1, SVG Export Plug-In . SVG Version: 6.00 Build 0)  -->
<svg version="1.1" id="Layer_1" xmlns="http://www.w3.org/2000/svg" xmlns:xlink="http://www.w3.org/1999/xlink" x="0px" y="0px"
	 viewBox="-7 9 32 32" style="enable-background:new -7 9 32 32;" xml:space="preserve">
<g>
	<path d="M4,34.6L2.1,33c0.7-0.8,1.8-2.2,3.1-3.8c-0.5-0.6-0.9-1.1-1.3-1.6c-2.1,2.6-4,4.9-4,4.9l-0.6,0.8l5,4.1L5,36.6
		c0,0,1.4-1.7,3.1-3.8c-0.4-0.5-0.9-1.1-1.3-1.6C5.6,32.6,4.6,33.8,4,34.6z"/>
	<path d="M18.1,32.5c-1.1-1.4-3-3.7-4.9-6.1c1.4-1.7,1.6-2,1.6-2.1c0.9-1.2,1.6-3.1,1-4.7c-0.5-1.3-2.1-4.8-2.2-5c0,0,0,0,0,0
		c0,0,0,0,0-0.1c0-0.1-0.1-0.1-0.1-0.2c0,0,0,0,0,0C12.3,13,10,13,9,13c-1.1,0-3.6,0-4.5,1.5c0,0,0,0.1,0,0.1l0,0
		c-0.1,0.2-1.7,3.7-2.2,5c-0.6,1.6,0.1,3.5,1,4.7C4,25.4,12.7,36.2,13,36.6l0.6,0.8l5-4.1L18.1,32.5z M13.1,23.2
		c-0.1,0.1-0.4,0.5-1.3,1.6c-0.5-0.7-1.1-1.3-1.6-1.9c1.5-1.9,1.8-2.3,1.9-2.4c0.4-0.7,0.8-1.4,1-2c0.3,0.7,0.6,1.4,0.8,1.8
		C14.2,21.1,13.7,22.4,13.1,23.2z M7.6,19.4c-0.1-0.1-0.1-0.2-0.2-0.4c0.4,0,0.9,0,1.6,0c0.7,0,1.2,0,1.6,0
		c-0.1,0.1-0.1,0.2-0.2,0.4C10.4,19.6,10,20,9,21.3C8.3,20.4,7.7,19.7,7.6,19.4z M11.7,15.5c0,0.2,0,0.5-0.1,0.8l0,0.2
		c0,0.2-0.1,0.4-0.2,0.7C10.8,17,10.1,17,9,17c-1.1,0-1.8,0-2.4,0.1c-0.1-0.2-0.1-0.5-0.2-0.7l0-0.2c-0.1-0.4-0.1-0.6-0.1-0.8
		C6.5,15.3,7.2,15,9,15C10.8,15,11.5,15.3,11.7,15.5z M14,34.6C11.1,31.1,5.4,24,4.9,23.2c-0.6-0.8-1.1-2.1-0.8-2.9
		c0.1-0.4,0.4-1.1,0.8-1.8c0.2,0.6,0.5,1.3,1,2c0.8,1.2,7.7,9.7,10,12.5L14,34.6z"/>
</g>
</svg>
