<?xml version="1.0" encoding="iso-8859-1"?>
<!-- Generator: Adobe Illustrator 19.1.0, SVG Export Plug-In . SVG Version: 6.00 Build 0)  -->
<svg version="1.1" id="Layer_1" xmlns="http://www.w3.org/2000/svg" xmlns:xlink="http://www.w3.org/1999/xlink" x="0px" y="0px"
	 viewBox="0 0 32 32" style="enable-background:new 0 0 32 32;" xml:space="preserve">
<path style="fill:none;stroke:#000000;stroke-width:2;stroke-miterlimit:10;" d="M11,4L11,4c0,1.657-1.343,3-3,3H7
	c-1.657,0-3,1.343-3,3l0,0c0,1.657,1.343,3,3,3h3"/>
<path style="fill:none;stroke:#000000;stroke-width:2;stroke-miterlimit:10;" d="M26.018,9.384C25.425,9.08,24.737,8.903,24,8.903
	s-1.425,0.177-2.018,0.482L20,8v4.5c0,1.933,1.791,3.5,4,3.5s4-1.567,4-3.5V8L26.018,9.384z"/>
<g>
	<path d="M18,10.607v-2.17C17.217,8.159,16.378,8,15.5,8C11.364,8,8,11.364,8,15.5V28h2V15.5c0-3.033,2.468-5.5,5.5-5.5
		C16.401,10,17.249,10.222,18,10.607z"/>
	<path d="M24,18v10h2V17.679C25.373,17.883,24.702,18,24,18z"/>
	<path d="M18.897,15.379C18.311,15.137,17.672,15,17,15c-2.757,0-5,2.243-5,5v8h2v-8c0-1.654,1.346-3,3-3s3,1.346,3,3v8h2v-8
		c0-0.964-0.287-1.858-0.762-2.623C20.274,16.917,19.466,16.223,18.897,15.379z"/>
</g>
</svg>
