<?xml version="1.0" encoding="iso-8859-1"?>
<!-- Generator: Adobe Illustrator 19.1.0, SVG Export Plug-In . SVG Version: 6.00 Build 0)  -->
<svg version="1.1" id="Layer_1" xmlns="http://www.w3.org/2000/svg" xmlns:xlink="http://www.w3.org/1999/xlink" x="0px" y="0px"
	 viewBox="0 0 32 32" style="enable-background:new 0 0 32 32;" xml:space="preserve">
<g>
	<path d="M23,16c0-3.859-3.141-7-7-7s-7,3.141-7,7c0,2.542,1.367,4.766,3.401,5.992l0.549-2.059C11.773,19.018,11,17.604,11,16
		c0-2.757,2.243-5,5-5s5,2.243,5,5c0,1.604-0.773,3.018-1.95,3.934l0.549,2.059C21.633,20.766,23,18.542,23,16z"/>
	<path d="M16,4C9.383,4,4,9.383,4,16c0,4.864,2.913,9.052,7.082,10.934l0.524-1.965C8.292,23.339,6,19.936,6,16
		c0-5.514,4.486-10,10-10s10,4.486,10,10c0,3.936-2.292,7.339-5.607,8.969l0.524,1.965C25.087,25.052,28,20.864,28,16
		C28,9.383,22.617,4,16,4z"/>
</g>
<circle cx="16" cy="16" r="2"/>
<line style="fill:none;stroke:#000000;stroke-width:2;stroke-miterlimit:10;" x1="16" y1="28" x2="16" y2="16"/>
</svg>
