<?xml version="1.0" encoding="iso-8859-1"?>
<!-- Generator: Adobe Illustrator 21.0.2, SVG Export Plug-In . SVG Version: 6.00 Build 0)  -->
<svg version="1.1" id="Layer_1" xmlns="http://www.w3.org/2000/svg" xmlns:xlink="http://www.w3.org/1999/xlink" x="0px" y="0px"
	 viewBox="0 0 32 32" style="enable-background:new 0 0 32 32;" xml:space="preserve">
<rect x="25" y="11" width="2" height="8"/>
<rect x="22" y="14" width="8" height="2"/>
<path d="M19.815,14.2l-0.05-0.2H11v3h6c-0.477,2.837-3.028,5-6,5c-3.314,0-6-2.686-6-6s2.686-6,6-6c1.5,0,2.868,0.554,3.92,1.465
	l2.151-2.106C15.471,7.894,13.34,7,11,7c-4.971,0-9,4.029-9,9s4.029,9,9,9s9-4.029,9-9C20,15.383,19.934,14.782,19.815,14.2z"/>
</svg>
