<?xml version="1.0" encoding="iso-8859-1"?>
<!-- Generator: Adobe Illustrator 19.1.0, SVG Export Plug-In . SVG Version: 6.00 Build 0)  -->
<svg version="1.1" id="Layer_1" xmlns="http://www.w3.org/2000/svg" xmlns:xlink="http://www.w3.org/1999/xlink" x="0px" y="0px"
	 viewBox="0 0 32 32" style="enable-background:new 0 0 32 32;" xml:space="preserve">
<circle cx="16" cy="21" r="2"/>
<line style="fill:none;stroke:#000000;stroke-width:2;stroke-miterlimit:10;" x1="6" y1="10" x2="26" y2="10"/>
<line style="fill:none;stroke:#000000;stroke-width:2;stroke-miterlimit:10;" x1="6" y1="17" x2="26" y2="17"/>
<polygon points="23,26 20.649,26 23.649,29 26,29 "/>
<polygon points="9,26 11.351,26 8.351,29 6,29 "/>
<path style="fill:none;stroke:#000000;stroke-width:2;stroke-miterlimit:10;" d="M22,6h-2v0c0-1.105-0.895-2-2-2h-4
	c-1.105,0-2,0.895-2,2v0h-2c-2.209,0-4,1.791-4,4v11c0,2.761,2.239,5,5,5h10c2.761,0,5-2.239,5-5V10C26,7.791,24.209,6,22,6z"/>
</svg>
