<?xml version="1.0" encoding="iso-8859-1"?>
<!-- Generator: Adobe Illustrator 19.1.1, SVG Export Plug-In . SVG Version: 6.00 Build 0)  -->
<svg version="1.1" id="Layer_1" xmlns="http://www.w3.org/2000/svg" xmlns:xlink="http://www.w3.org/1999/xlink" x="0px" y="0px"
	 viewBox="0 0 32 32" style="enable-background:new 0 0 32 32;" xml:space="preserve">
<path style="fill:none;stroke:#000000;stroke-width:2;stroke-miterlimit:10;" d="M13.167,23.75c0.783,0,2.833-0.632,2.833-1.201
	c0-0.57,0.617-1.91,0.052-2.499c-0.279-0.291-1.567-1.211-1.567-1.709s0.498-0.783,0.498-1.068c0.071-0.285,0-0.498,0.214-0.498
	c0.214-0.071,0.356-0.142,0.356-0.142l0.071-0.498l0.61-0.351c0,0-0.112-0.432,0.102-0.646s0.498-0.142,0.712-0.142
	s0.855-0.071,0.855-0.071s0.214-0.356,0.427-0.57C18.917,13.792,19.292,13,21.322,13c4.015,0,5.446,3.713,5.446,5.137"/>
<path style="fill:none;stroke:#000000;stroke-width:2;stroke-miterlimit:10;" d="M5.122,16.174c0,0,1.199-0.535,1.779-0.873
	c0.436-0.254,1.039-0.969,1.039-1.499c0-0.464-0.483-2.413,0.483-3.698c0.53-0.663,1.558-1.522,2.876-1.329
	c1.366,0.2,3.506,1.566,3.506,3.355c0,1.127-0.861,1.855-0.861,1.855s0.066,0.596-0.066,0.795c-0.133,0.331-0.331,0.265-0.53,0.596
	c-0.199,0.331-0.331,0.795-1.193,0.795c-0.469,0-0.861-0.172-1.325-0.172S10,17.065,10,17.065v3.317c0,0,0.609,0.618,2.277,0.618
	c0.265,0,0.737-0.334,1.446-0.334c0.737,0,1.844,0.211,1.844,0.807c0,0.596-0.737,2.523-4.092,2.523
	c-2.253,0-4.076-1.118-4.076-1.118"/>
<path d="M16.133,5.265c-2.948,0-5.606,1.162-7.559,3.049c0.033,0.095,0.067,0.189,0.104,0.283c1.921-1.821,4.009-2.47,4.009-2.47
	l0.398,0.398c0,0-0.398,0.265-0.663,0.596c-0.331,0.331-0.464,0.596-0.464,0.596l0.199,0.199c0,0,0.199-0.331,0.464-0.596
	s0.596-0.53,0.596-0.53s0.398,0.398,0.596,0.53c0.265,0.133,0.596,0.265,0.596,0.265s0,0.199-0.133,0.398
	c-0.066,0.199-0.199,0.53-0.199,0.53l0.199,0.133c0,0,0.133-0.464,0.265-0.596c0.066-0.199,0.133-0.331,0.133-0.331
	s0.53,0.199,0.994,0.331c0.464,0.066,0.795,0.066,0.795,0.066V9.97h-0.663v0.331h0.729v2.319h-0.596v0.265h0.596v0.861h0.265v-0.861
	c0,0,0.398,0,1.325,0c0.994-0.066,1.59-0.133,1.59-0.133s0-0.861-0.133-1.524c-0.066-0.663-0.199-1.193-0.199-1.193
	s0.53-0.066,1.193-0.331c0.596-0.265,1.127-0.464,1.127-0.464s0.331,0.464,0.596,1.126s0.464,1.325,0.464,1.325l-0.398,0.199
	l0.066,0.199l0.464-0.133l0.133,0.265l0.199-0.066l-0.133-0.265c0,0,0.596-0.199,1.126-0.464c0.596-0.331,0.994-0.596,0.994-0.596
	s0.162,0.254,0.372,0.677c0.08-0.093,0.159-0.187,0.236-0.284C24.018,7.683,20.344,5.265,16.133,5.265z M13.084,6.259
	c-0.066-0.066-0.066-0.199-0.066-0.199s0.265-0.133,0.663-0.265c0.398-0.066,0.729-0.133,0.729-0.133s-0.398,0.265-0.663,0.464
	c-0.265,0.199-0.464,0.331-0.464,0.331S13.151,6.392,13.084,6.259z M14.476,7.385c0,0-0.398-0.199-0.663-0.331
	c-0.265-0.199-0.398-0.331-0.398-0.331s0.398-0.464,1.193-0.795c0.795-0.331,1.126-0.331,1.126-0.331s-0.53,0.464-0.729,0.928
	C14.807,6.988,14.476,7.385,14.476,7.385z M15.47,7.717c-0.53-0.133-0.729-0.265-0.729-0.265s0.265-0.53,0.663-1.06
	c0.729-1.06,0.994-0.795,0.994-0.795l0.066,2.187C16.464,7.783,16,7.849,15.47,7.717z M19.777,6.193
	c0.265,0.066,0.663,0.265,0.663,0.265l-0.331,0.265c0,0-0.199-0.199-0.398-0.398c-0.147-0.147-0.439-0.257-0.58-0.305
	c-0.049-0.016-0.082-0.026-0.082-0.026s0.033,0.01,0.082,0.026C19.263,6.062,19.536,6.144,19.777,6.193z M18.916,6.126
	c0.53,0.331,0.994,0.795,0.994,0.795s-0.199,0.133-0.464,0.331c-0.265,0.199-0.663,0.265-0.663,0.265s-0.265-0.596-0.464-0.928
	C18.12,6.259,17.59,5.663,17.59,5.663S18.319,5.795,18.916,6.126z M16.729,5.596c0,0,0.596-0.133,1.126,0.861
	c0.265,0.53,0.53,1.127,0.53,1.127s-0.398,0.199-0.795,0.199c-0.398,0.066-0.861,0-0.861,0V5.596z M16.729,10.036V8.114
	c0,0,0.398,0.066,0.861,0c0.464,0,0.928-0.133,0.928-0.133s0.133,0.199,0.331,0.861c0.133,0.596,0.199,1.06,0.199,1.06
	s-0.53,0.133-1.193,0.199C17.127,10.169,16.729,10.036,16.729,10.036z M19.512,12.554c0,0-0.265,0.066-1.126,0.133
	c-0.861,0.066-1.59,0-1.59,0v-2.385c0,0,0.663,0.066,1.127,0.066s1.325-0.133,1.325-0.133s0.066,0.398,0.133,0.994
	C19.446,11.759,19.512,12.554,19.512,12.554z M20.506,9.44c-0.53,0.265-1.259,0.331-1.259,0.331s0.066-0.398-0.066-0.928
	c-0.066-0.53-0.398-0.994-0.398-0.994s0.464-0.199,0.729-0.398c0.331-0.199,0.53-0.398,0.53-0.398s0.53,0.53,0.861,0.994
	c0.398,0.464,0.663,0.928,0.663,0.928S21.102,9.175,20.506,9.44z M21.301,7.849c-0.331-0.398-0.861-1.06-0.861-1.06
	s0.133-0.133,0.199-0.199c0,0,0.729,0.331,1.259,0.663c0.464,0.398,1.06,0.795,1.06,0.795s-0.066,0.133-0.331,0.331
	c-0.265,0.199-0.663,0.398-0.663,0.398S21.566,8.247,21.301,7.849z M24.217,9.373c0.596,0.663,0.795,1.127,0.795,1.127
	s-0.398,0.398-0.795,0.596c-0.464,0.199-1.259,0.53-1.259,0.53s-0.265-0.928-0.53-1.392c-0.265-0.464-0.464-1.06-0.464-1.06
	s0.265-0.133,0.596-0.398s0.596-0.464,0.596-0.464S23.753,8.843,24.217,9.373z"/>
<circle style="fill:none;stroke:#000000;stroke-width:2;stroke-miterlimit:10;" cx="16" cy="16" r="11"/>
</svg>
