<?xml version="1.0" encoding="iso-8859-1"?>
<!-- Generator: Adobe Illustrator 19.1.0, SVG Export Plug-In . SVG Version: 6.00 Build 0)  -->
<svg version="1.1" id="Layer_1" xmlns="http://www.w3.org/2000/svg" xmlns:xlink="http://www.w3.org/1999/xlink" x="0px" y="0px"
	 viewBox="0 0 32 32" style="enable-background:new 0 0 32 32;" xml:space="preserve">
<polyline style="fill:none;stroke:#000000;stroke-width:2;stroke-miterlimit:10;" points="24,14 24,9 20,9 20,6 12,6 12,9 8,9 8,14 
	"/>
<line style="fill:none;stroke:#000000;stroke-width:2;stroke-miterlimit:10;" x1="16" y1="3" x2="16" y2="6"/>
<path d="M11,19c-0.6,0-1-0.7-1-1.5s0.4-1.5,1-1.5s1,0.7,1,1.5S11.6,19,11,19z M21,19c-0.6,0-1-0.7-1-1.5s0.4-1.5,1-1.5s1,0.7,1,1.5
	S21.6,19,21,19z"/>
<path style="fill:none;stroke:#000000;stroke-width:2;stroke-miterlimit:10;" d="M4,26c0,0,1.291,1,3.018,1S10,26,10,26
	s1.291,1,3.018,1S16,26,16,26s1.291,1,3.018,1C20.745,27,22,26,22,26s1.291,1,3.018,1C26.745,27,28,26,28,26"/>
<path style="fill:none;stroke:#000000;stroke-width:2;stroke-miterlimit:10;" d="M25,27v-6.401l1.751-2.918
	c0.613-1.021,0.04-2.342-1.124-2.593L16,13.016l-9.626,2.071c-1.164,0.251-1.737,1.571-1.124,2.593L7,20.599V27"/>
</svg>
