<?xml version="1.0" encoding="iso-8859-1"?>
<!-- Generator: Adobe Illustrator 19.0.1, SVG Export Plug-In . SVG Version: 6.00 Build 0)  -->
<svg version="1.1" id="Layer_1" xmlns="http://www.w3.org/2000/svg" xmlns:xlink="http://www.w3.org/1999/xlink" x="0px" y="0px"
	 viewBox="0 0 32 32" style="enable-background:new 0 0 32 32;" xml:space="preserve">
<path d="M14,11c0-1.1,0.9-2,2-2s2,0.9,2,2s-0.9,2-2,2S14,12.1,14,11z"/>
<path style="fill:none;stroke:#000000;stroke-width:2;stroke-miterlimit:10;" d="M11,10c0,5.784,3,6.927,3,10.677
	c0,3.112-3,3.315-3,6.323h11c0-3.21-3-2.06-3-9"/>
<path style="fill:none;stroke:#000000;stroke-width:2;stroke-linejoin:round;stroke-miterlimit:10;" d="M17,24c0-5.291,4-5.31,4-14"
	/>
<path style="fill:none;stroke:#000000;stroke-width:2;stroke-linejoin:round;stroke-miterlimit:10;" d="M11,9c0-2.761,2.239-5,5-5
	s5,2.239,5,5"/>
<path style="fill:none;stroke:#000000;stroke-width:2;stroke-miterlimit:10;" d="M21,10L21,10c0,2.761-2.239,5-5,5h0
	c-2.761,0-5-2.239-5-5v0"/>
</svg>
