<?xml version="1.0" encoding="iso-8859-1"?>
<!-- Generator: Adobe Illustrator 21.0.0, SVG Export Plug-In . SVG Version: 6.00 Build 0)  -->
<svg version="1.1"  xmlns="http://www.w3.org/2000/svg" xmlns:xlink="http://www.w3.org/1999/xlink" x="0px" y="0px"
	 viewBox="0 0 32 32" style="enable-background:new 0 0 32 32;" xml:space="preserve">
<path style="fill:none;stroke:#000000;stroke-width:2;stroke-linejoin:round;stroke-miterlimit:10;" d="M5.229,6.304
	C2.613,9.004,1,12.683,1,16.739c0,3.436,1.158,6.601,3.102,9.13"/>
<path style="fill:none;stroke:#000000;stroke-width:2;stroke-linejoin:round;stroke-miterlimit:10;" d="M27.898,25.87
	C29.842,23.34,31,20.175,31,16.739c0-4.057-1.613-7.735-4.229-10.435"/>
<circle style="fill:none;stroke:#000000;stroke-width:2;stroke-linejoin:round;stroke-miterlimit:10;" cx="16.13" cy="16.87" r="10.87"/>
<rect x="7.779" y="12.833" style="fill:none;" width="17.042" height="10.167"/>
<g style="enable-background:new    ;">
	<path d="M11.926,21.149l-0.319-1.419H9.858l-0.319,1.419h-1.76l1.892-7.788h2.211l1.881,7.788H11.926z M10.76,15.056h-0.044
		l-0.66,3.311h1.331L10.76,15.056z"/>
	<path d="M19.341,18.928c0,0.418-0.068,0.768-0.204,1.05c-0.136,0.283-0.313,0.51-0.533,0.683c-0.22,0.172-0.468,0.297-0.742,0.374
		c-0.275,0.077-0.552,0.115-0.831,0.115h-2.585v-7.788h2.332c0.242,0,0.499,0.025,0.771,0.077s0.519,0.148,0.742,0.291
		c0.224,0.144,0.411,0.347,0.562,0.611c0.149,0.264,0.226,0.604,0.226,1.022c0,0.462-0.094,0.831-0.281,1.105
		c-0.187,0.275-0.416,0.475-0.688,0.6v0.022c0.146,0.036,0.294,0.103,0.44,0.197c0.146,0.096,0.278,0.219,0.396,0.369
		s0.213,0.332,0.286,0.544C19.304,18.414,19.341,18.656,19.341,18.928z M17.525,15.644c0-0.303-0.084-0.517-0.253-0.642
		c-0.169-0.126-0.366-0.188-0.594-0.188h-0.594v1.694h0.604c0.213,0,0.405-0.066,0.578-0.199
		C17.439,16.176,17.525,15.954,17.525,15.644z M17.669,18.769c0-0.178-0.027-0.327-0.083-0.448c-0.055-0.122-0.128-0.222-0.22-0.299
		s-0.194-0.135-0.308-0.172c-0.114-0.037-0.226-0.056-0.336-0.056h-0.638v1.903h0.66c0.256,0,0.475-0.077,0.654-0.232
		C17.579,19.311,17.669,19.078,17.669,18.769z"/>
	<path d="M23.652,15.221c-0.132-0.154-0.286-0.273-0.462-0.357c-0.176-0.085-0.359-0.127-0.55-0.127
		c-0.198,0-0.376,0.062-0.534,0.188c-0.157,0.125-0.236,0.331-0.236,0.617c0,0.242,0.081,0.432,0.242,0.567s0.399,0.284,0.715,0.446
		c0.177,0.088,0.363,0.192,0.56,0.313c0.195,0.121,0.374,0.271,0.537,0.446c0.162,0.177,0.297,0.388,0.404,0.634
		c0.106,0.246,0.16,0.538,0.16,0.876c0,0.419-0.066,0.788-0.199,1.107s-0.312,0.584-0.537,0.793
		c-0.225,0.21-0.485,0.367-0.779,0.475c-0.295,0.105-0.601,0.159-0.915,0.159c-0.47,0-0.896-0.088-1.282-0.264
		c-0.385-0.177-0.694-0.382-0.93-0.616l0.902-1.32c0.169,0.176,0.363,0.317,0.583,0.424c0.221,0.106,0.444,0.159,0.671,0.159
		c0.213,0,0.393-0.069,0.539-0.209c0.146-0.139,0.221-0.333,0.221-0.583c0-0.257-0.089-0.46-0.265-0.61s-0.433-0.31-0.77-0.479
		c-0.213-0.103-0.413-0.216-0.6-0.341c-0.188-0.125-0.353-0.275-0.495-0.451s-0.255-0.381-0.336-0.616
		c-0.08-0.234-0.121-0.513-0.121-0.836c0-0.433,0.072-0.805,0.215-1.116s0.33-0.566,0.562-0.765c0.23-0.198,0.487-0.345,0.77-0.439
		c0.282-0.096,0.566-0.144,0.853-0.144c0.426,0,0.807,0.069,1.145,0.208c0.337,0.138,0.619,0.327,0.847,0.567L23.652,15.221z"/>
</g>
</svg>
