<?xml version="1.0" encoding="utf-8"?>
<!-- Generator: Adobe Illustrator 18.1.1, SVG Export Plug-In . SVG Version: 6.00 Build 0)  -->
<svg version="1.1" id="Layer_1" xmlns="http://www.w3.org/2000/svg" xmlns:xlink="http://www.w3.org/1999/xlink" x="0px" y="0px"
	 viewBox="0 0 32 32" enable-background="new 0 0 32 32" xml:space="preserve">
<polyline fill="none" stroke="#000000" stroke-width="2" stroke-miterlimit="10" points="23,22 23,27 9,27 9,5 23,5 23,12 "/>
<g>
	<path d="M8.7,16.8c0.1-0.1,0.2-0.1,0.4-0.2v-2.1c-0.4,0.1-0.9,0.3-1.3,0.5l-4.2,2.1l0.9,1.8L8.7,16.8z"/>
	<path d="M8.7,11.8c0.1-0.1,0.2-0.1,0.4-0.2V9.5C8.6,9.6,8.2,9.8,7.8,10l-4.2,2.1l0.9,1.8L8.7,11.8z"/>
	<path d="M11,11.1c1.5-0.2,3,0,4.3,0.7l0.5,0.2c2.6,1.3,5.8,1.3,8.4,0l4.2-2.1l-0.9-1.8l-4.2,2.1c-2.1,1-4.5,1-6.6,0L16.2,10
		c-1.6-0.8-3.5-1.1-5.2-0.9V11.1z"/>
	<path d="M9.1,19.5c-0.4,0.1-0.9,0.3-1.3,0.5l-4.2,2.1l0.9,1.8l4.2-2.1c0.1-0.1,0.2-0.1,0.4-0.2V19.5z"/>
	<path d="M23.3,15.2c-2.1,1-4.5,1-6.6,0L16.2,15c-1.6-0.8-3.5-1.1-5.2-0.9v2c1.5-0.2,3,0,4.3,0.7l0.5,0.2c2.6,1.3,5.8,1.3,8.4,0
		l4.2-2.1l-0.9-1.8L23.3,15.2z"/>
	<path d="M23.3,20.2c-2.1,1-4.5,1-6.6,0L16.2,20c-1.6-0.8-3.5-1.1-5.2-0.9v2c1.5-0.2,3,0,4.3,0.7l0.5,0.2c2.6,1.3,5.8,1.3,8.4,0
		l4.2-2.1l-0.9-1.8L23.3,20.2z"/>
</g>
</svg>
