<?xml version="1.0" encoding="utf-8"?>
<!-- Generator: Adobe Illustrator 18.1.1, SVG Export Plug-In . SVG Version: 6.00 Build 0)  -->
<svg version="1.1" id="Layer_1" xmlns="http://www.w3.org/2000/svg" xmlns:xlink="http://www.w3.org/1999/xlink" x="0px" y="0px"
	 viewBox="0 0 32 32" enable-background="new 0 0 32 32" xml:space="preserve">
<path fill="none" stroke="#000000" stroke-width="2" stroke-miterlimit="10" d="M27.9,8.1c-2.4-2.4-5.9-2.8-7.7-1
	c-1.1,1.1-1.4,2.8-0.9,4.5c-1-0.4-2.1-0.7-3.2-0.7s-2.2,0.2-3.2,0.7c0.5-1.7,0.2-3.4-0.9-4.5c-1.9-1.9-5.3-1.4-7.7,1s-2.8,5.9-1,7.7
	c1.3,1.3,3.3,1.4,5.3,0.7C8.1,17.3,8,18.1,8,19c0,4.4,3.6,8,8,8s8-3.6,8-8c0-0.9-0.1-1.7-0.4-2.5c1.9,0.8,4,0.6,5.3-0.7
	C30.7,14,30.3,10.5,27.9,8.1z"/>
</svg>
