<?xml version="1.0" encoding="iso-8859-1"?>
<!-- Generator: Adobe Illustrator 19.1.1, SVG Export Plug-In . SVG Version: 6.00 Build 0)  -->
<svg version="1.1" id="Layer_1" xmlns="http://www.w3.org/2000/svg" xmlns:xlink="http://www.w3.org/1999/xlink" x="0px" y="0px"
	 viewBox="0 0 32 32" style="enable-background:new 0 0 32 32;" xml:space="preserve">
<path d="M18.31,19.514l-0.408-0.055l-0.187-0.374c-0.734-1.469-2.796-1.44-3.49,0.049l-0.177,0.38l-0.406,0.066
	c-1.593,0.26-2.203,2.275-1.033,3.41l0.298,0.289l-0.064,0.415c-0.251,1.63,1.435,2.846,2.852,2.058l0.361-0.201l0.367,0.191
	c1.438,0.748,3.09-0.516,2.795-2.138l-0.075-0.413l0.29-0.298C20.573,21.726,19.909,19.729,18.31,19.514z M16.004,23
	c-0.552-0.001-0.999-0.45-0.998-1.003c0.001-0.552,0.45-0.999,1.003-0.997c0.552,0.001,0.999,0.45,0.998,1.002
	C17.005,22.555,16.556,23.001,16.004,23z"/>
<path style="fill:none;stroke:#000000;stroke-width:2;stroke-miterlimit:10;" d="M16,29h1c5.5,0,10-4.5,10-10v-6
	c0-4.08-2.475-7.181-5.999-8.732C20.706,4.098,20.365,4,20,4c-1.105,0-2,0.895-2,2c0,1.25,1,1.8,1,1.8c1.215,0.73,2,1.892,2,3.2
	c0,2.209-2.239,4-5,4s-5-1.791-5-4c0-1.309,0.786-2.471,2-3.2c0,0,1-0.55,1-1.8c0-1.105-0.895-2-2-2
	c-0.365,0-0.706,0.098-1.001,0.268C7.475,5.819,5,8.92,5,13v6c0,5.5,4.5,10,10,10H16z"/>
</svg>
