<?xml version="1.0" encoding="iso-8859-1"?>
<!-- Generator: Adobe Illustrator 21.0.1, SVG Export Plug-In . SVG Version: 6.00 Build 0)  -->
<svg version="1.1"  xmlns="http://www.w3.org/2000/svg" xmlns:xlink="http://www.w3.org/1999/xlink" x="0px" y="0px"
	 viewBox="0 0 32 32" style="enable-background:new 0 0 32 32;" xml:space="preserve">
<path d="M17.413,12H15v2h0.264C15.83,13.19,16.564,12.51,17.413,12z"/>
<path d="M12.283,25.823c0.016-0.063,0.023-0.123,0.04-0.187c0.016-0.067,0.034-0.134,0.053-0.198
	c0.031-0.106,0.079-0.207,0.114-0.311c0.036-0.106,0.075-0.21,0.115-0.314c0.053-0.14,0.095-0.285,0.155-0.422
	c0.024-0.054,0.049-0.107,0.078-0.163c0.031-0.068,0.078-0.141,0.111-0.208c0.003-0.006,0.005-0.013,0.008-0.019H6V6h15v5
	c0.695,0,1.366,0.105,2,0.295V4H4v22h8.23C12.244,25.939,12.267,25.883,12.283,25.823z"/>
<circle style="fill:none;stroke:#000000;stroke-width:2;stroke-miterlimit:10;" cx="21" cy="18" r="4"/>
<path style="fill:none;stroke:#000000;stroke-width:2;stroke-miterlimit:10;" d="M15,28c0-3.314,2.687-6,6-6c3.314,0,6,2.686,6,6"/>
<line style="fill:none;stroke:#000000;stroke-width:2;stroke-miterlimit:10;" x1="8" y1="21" x2="12" y2="21"/>
<line style="fill:none;stroke:#000000;stroke-width:2;stroke-miterlimit:10;" x1="8" y1="17" x2="12" y2="17"/>
<line style="fill:none;stroke:#000000;stroke-width:2;stroke-miterlimit:10;" x1="8" y1="13" x2="12" y2="13"/>
<line style="fill:none;stroke:#000000;stroke-width:2;stroke-miterlimit:10;" x1="8" y1="9" x2="12" y2="9"/>
<line style="fill:none;stroke:#000000;stroke-width:2;stroke-miterlimit:10;" x1="15" y1="9" x2="19" y2="9"/>
</svg>
