<?xml version="1.0" encoding="iso-8859-1"?>
<!-- Generator: Adobe Illustrator 19.1.0, SVG Export Plug-In . SVG Version: 6.00 Build 0)  -->
<svg version="1.1" id="Layer_1" xmlns="http://www.w3.org/2000/svg" xmlns:xlink="http://www.w3.org/1999/xlink" x="0px" y="0px"
	 viewBox="0 0 32 32" style="enable-background:new 0 0 32 32;" xml:space="preserve">
<path id="XMLID_10_" style="fill:none;stroke:#000000;stroke-width:2;stroke-miterlimit:10;" d="M25,22c0,0.984-1.328,2-3,2
	s-3-1-3-2"/>
<path id="XMLID_9_" style="fill:none;stroke:#000000;stroke-width:2;stroke-miterlimit:10;" d="M19,22c0,0.984-1.328,2-3,2s-3-1-3-2
	"/>
<path id="XMLID_8_" style="fill:none;stroke:#000000;stroke-width:2;stroke-miterlimit:10;" d="M13,22c0,0.984-1.328,2-3,2s-3-1-3-2
	"/>
<path id="XMLID_7_" style="fill:none;stroke:#000000;stroke-width:2;stroke-miterlimit:10;" d="M7,22c0,0.984-1.328,2-3,2s-3-1-3-2"
	/>
<path id="XMLID_6_" style="fill:none;stroke:#000000;stroke-width:2;stroke-miterlimit:10;" d="M31,22c0,0.984-1.328,2-3,2s-3-1-3-2
	"/>
<path d="M26.716,13.629l-2.928-1.863c-0.266-0.266-0.532-0.399-0.799-0.532l-0.799-0.399c-0.665-0.266-1.464-0.133-1.597,0.399
	l-0.799,1.73c0,0-1.198-1.996-1.464-2.129C17.532,10.436,17,11.234,17,11.234l1.198,5.455c0.133,0.665,0.532,1.197,1.198,1.464
	l2.662,1.197c1.331,0.665,2.928,0,3.461-1.33l1.464-3.326C27.19,14.151,27.115,13.895,26.716,13.629z"/>
<rect x="21.378" y="5.95" transform="matrix(-0.9115 -0.4113 0.4113 -0.9115 38.1856 27.3819)" width="1.321" height="7.266"/>
<rect x="23.468" y="6.224" transform="matrix(-0.9115 -0.4113 0.4113 -0.9115 42.0683 28.7659)" width="1.321" height="7.266"/>
<rect x="24.914" y="7.641" transform="matrix(-0.9115 -0.4113 0.4113 -0.9115 44.2501 32.0685)" width="1.321" height="7.266"/>
<rect x="26.246" y="9.649" transform="matrix(-0.9115 -0.4113 0.4113 -0.9115 45.9701 36.4562)" width="1.321" height="7.266"/>
<polygon points="23.538,21 24.136,18.364 19.115,17.703 18.405,21 "/>
<path d="M5.018,14.693l1.464,3.326c0.532,1.33,2.13,1.996,3.461,1.33l2.662-1.197c0.665-0.266,1.065-0.798,1.198-1.464L15,11.234
	c0,0-0.532-0.798-1.331-0.399c-0.266,0.133-1.464,2.129-1.464,2.129l-0.799-1.73c-0.133-0.532-0.932-0.665-1.597-0.399l-0.799,0.399
	c-0.266,0.133-0.532,0.266-0.799,0.532l-2.928,1.863C4.885,13.895,4.81,14.151,5.018,14.693z"/>
<rect x="9.301" y="5.95" transform="matrix(0.9115 -0.4113 0.4113 0.9115 -3.0598 4.9451)" width="1.321" height="7.266"/>
<rect x="7.21" y="6.224" transform="matrix(0.9115 -0.4113 0.4113 0.9115 -3.3576 4.1096)" width="1.321" height="7.266"/>
<rect x="5.764" y="7.641" transform="matrix(0.9115 -0.4113 0.4113 0.9115 -4.0682 3.6402)" width="1.321" height="7.266"/>
<rect x="4.432" y="9.649" transform="matrix(0.9115 -0.4113 0.4113 0.9115 -5.0123 3.2701)" width="1.321" height="7.266"/>
<polygon points="8.462,21 7.864,18.364 12.885,17.703 13.595,21 "/>
</svg>
