<?xml version="1.0" encoding="iso-8859-1"?>
<!-- Generator: Adobe Illustrator 19.1.0, SVG Export Plug-In . SVG Version: 6.00 Build 0)  -->
<svg version="1.1" id="Layer_1" xmlns="http://www.w3.org/2000/svg" xmlns:xlink="http://www.w3.org/1999/xlink" x="0px" y="0px"
	 viewBox="0 0 32 32" style="enable-background:new 0 0 32 32;" xml:space="preserve">
<path style="fill:none;stroke:#000000;stroke-width:2;stroke-linecap:round;stroke-linejoin:round;stroke-miterlimit:10;" d="
	M9.082,14.153l1.638-0.893l1.276,4.929c0.425,1.216,1.308,1.703,2.361,1.452c1.053-0.251,1.703-1.308,1.452-2.361l-0.833-6.441
	c0,0-0.176-2.305-2.864-2.776c-0.943-0.165-1.952,0.032-2.37,0.157L7.233,8.993C4.717,9.768,3,12.094,3,14.727V20
	c0,3.314,2.686,6,6,6h9.917"/>
<path style="fill:none;stroke:#000000;stroke-width:2;stroke-miterlimit:10;" d="M15.033,10.944l9.385-2.854
	c1.057-0.321,2.174,0.275,2.495,1.332v0c0.321,1.057-0.275,2.174-1.332,2.495l-6.845,2.081"/>
<path style="fill:none;stroke:#000000;stroke-width:2;stroke-miterlimit:10;" d="M14.357,22.143L14.357,22.143
	c0.41-1.026,1.574-1.524,2.6-1.114l2.785,1.114c1.026,0.41,1.524,1.574,1.114,2.6l0,0c-0.41,1.026-1.574,1.524-2.6,1.114
	l-2.785-1.114C14.446,24.333,13.947,23.169,14.357,22.143z"/>
<path style="fill:none;stroke:#000000;stroke-width:2;stroke-miterlimit:10;" d="M15.767,16.962
	c0.493-0.246,1.085-0.289,1.637-0.069l3.715,1.484c1.026,0.41,1.525,1.574,1.115,2.599l0,0c-0.41,1.026-1.574,1.525-2.599,1.115
	l-3.715-1.484c-0.513-0.205-0.894-0.598-1.096-1.069"/>
<path style="fill:none;stroke:#000000;stroke-width:2;stroke-miterlimit:10;" d="M18.767,14H27c1.105,0,2,0.895,2,2v0
	c0,1.105-0.895,2-2,2h-6.828"/>
</svg>
