<?xml version="1.0" encoding="iso-8859-1"?>
<!-- Generator: Adobe Illustrator 19.1.0, SVG Export Plug-In . SVG Version: 6.00 Build 0)  -->
<svg version="1.1" id="Layer_1" xmlns="http://www.w3.org/2000/svg" xmlns:xlink="http://www.w3.org/1999/xlink" x="0px" y="0px"
	 viewBox="0 0 32 32" style="enable-background:new 0 0 32 32;" xml:space="preserve">
<path style="fill:none;stroke:#000000;stroke-width:2;stroke-miterlimit:10;" d="M22.569,22.569c-4.575,4.575-11.993,4.575-16.569,0
	L22.569,6C27.144,10.575,27.144,17.993,22.569,22.569z"/>
<g>
	<path d="M18.376,18.375c3.013-3.013,4.018-6.593,1.496-9.115L9.252,19.875C9.252,19.875,13.34,23.411,18.376,18.375z
		 M19.079,12.633c0.652,0.309,1.013,1.138,0.968,1.233c-0.045,0.094-0.791,0.272-1.473-0.051c-0.682-0.323-1.121-1.229-1.067-1.343
		C17.561,12.358,18.427,12.324,19.079,12.633z M16.701,13.724c0.089-0.089,0.912,0.169,1.42,0.677
		c0.508,0.508,0.569,1.406,0.495,1.48c-0.073,0.073-0.833-0.01-1.364-0.54C16.721,14.809,16.612,13.813,16.701,13.724z
		 M15.368,15.195c0.089-0.089,0.912,0.169,1.42,0.677s0.569,1.406,0.495,1.48c-0.073,0.073-0.833-0.01-1.364-0.54
		C15.389,16.28,15.28,15.284,15.368,15.195z M13.707,16.719c0.089-0.089,1.085,0.02,1.616,0.551c0.531,0.531,0.614,1.29,0.54,1.364
		c-0.073,0.073-0.972,0.013-1.48-0.495C13.876,17.63,13.618,16.807,13.707,16.719z M12.434,17.34c0.114-0.052,1.008,0.4,1.319,1.084
		c0.31,0.684,0.121,1.424,0.027,1.467c-0.094,0.043-0.914-0.33-1.211-0.984C12.271,18.253,12.319,17.392,12.434,17.34z"/>
</g>
</svg>
