<?xml version="1.0" encoding="iso-8859-1"?>
<!-- Generator: Adobe Illustrator 22.1.0, SVG Export Plug-In . SVG Version: 6.00 Build 0)  -->
<svg version="1.1" id="Layer_1" xmlns="http://www.w3.org/2000/svg" xmlns:xlink="http://www.w3.org/1999/xlink" x="0px" y="0px"
	 viewBox="0 0 32 32" style="enable-background:new 0 0 32 32;" xml:space="preserve">
<polyline style="fill:none;stroke:#000000;stroke-width:2;stroke-miterlimit:10;" points="6,17 6,27 26,27 26,17 "/>
<path style="fill:none;stroke:#000000;stroke-width:2;stroke-miterlimit:10;" d="M24,15L24,15c0,1.1,0.9,2,2,2s2-0.9,2-2l-2-6H6
	l-2,6c0,1.1,0.9,2,2,2s2-0.9,2-2l0,0"/>
<path style="fill:none;stroke:#000000;stroke-width:2;stroke-miterlimit:10;" d="M8,9v6c0,1.1,0.9,2,2,2s2-0.9,2-2"/>
<path style="fill:none;stroke:#000000;stroke-width:2;stroke-miterlimit:10;" d="M12,9v6c0,1.1,0.9,2,2,2s2-0.9,2-2"/>
<path style="fill:none;stroke:#000000;stroke-width:2;stroke-miterlimit:10;" d="M16,9v6c0,1.1,0.9,2,2,2s2-0.9,2-2"/>
<path style="fill:none;stroke:#000000;stroke-width:2;stroke-miterlimit:10;" d="M20,9v6c0,1.1,0.9,2,2,2s2-0.9,2-2V9"/>
<rect x="6" y="5" style="fill:none;stroke:#000000;stroke-width:2;stroke-miterlimit:10;" width="20" height="4"/>
<line style="fill:none;stroke:#000000;stroke-width:2;stroke-miterlimit:10;" x1="10" y1="9" x2="10" y2="5.313"/>
<line style="fill:none;stroke:#000000;stroke-width:2;stroke-miterlimit:10;" x1="14" y1="9" x2="14" y2="5.313"/>
</svg>
