<?xml version="1.0" encoding="iso-8859-1"?>
<!-- Generator: Adobe Illustrator 21.0.2, SVG Export Plug-In . SVG Version: 6.00 Build 0)  -->
<svg version="1.1"  xmlns="http://www.w3.org/2000/svg" xmlns:xlink="http://www.w3.org/1999/xlink" x="0px" y="0px"
	 viewBox="0 0 32 32" style="enable-background:new 0 0 32 32;" xml:space="preserve">
<path style="fill:none;stroke:#000000;stroke-width:2;stroke-miterlimit:10;" d="M4,25c3.434,0,16.278,0,18,0c4,0,6-3,6-6"/>
<circle cx="7" cy="11" r="1"/>
<circle cx="10" cy="13" r="1"/>
<circle cx="12" cy="16" r="1"/>
<path style="fill:none;stroke:#000000;stroke-width:2;stroke-miterlimit:10;" d="M24,15h-8.697C13.654,10.342,9.223,7,4,7v9
	c0,2.209,1.791,4,4,4h19c0.552,0,1-0.448,1-1C28,16.791,26.209,15,24,15z"/>
<line style="fill:none;stroke:#000000;stroke-width:2;stroke-miterlimit:10;" x1="11" y1="20" x2="11" y2="25"/>
<line style="fill:none;stroke:#000000;stroke-width:2;stroke-miterlimit:10;" x1="19" y1="20" x2="19" y2="25"/>
</svg>
