<?xml version="1.0" encoding="iso-8859-1"?>
<!-- Generator: Adobe Illustrator 19.1.1, SVG Export Plug-In . SVG Version: 6.00 Build 0)  -->
<svg version="1.1" id="Layer_1" xmlns="http://www.w3.org/2000/svg" xmlns:xlink="http://www.w3.org/1999/xlink" x="0px" y="0px"
	 viewBox="0 0 32 32" style="enable-background:new 0 0 32 32;" xml:space="preserve">
<path id="XMLID_6777_" d="M20.098,7.264c0.323-1.282,1.78-2.187,2.75-2.263c0.081-0.076,0.374,1.467-0.273,3.202
	c-0.485,1.282-1.425,1.851-1.668,1.776C20.665,9.903,19.694,8.847,20.098,7.264z M18.729,7.823c0,0,0.875,0.95,0.875,2.936
	c0,1.364-0.899,2.266-1.378,2.266c-0.479,0-1.227-0.418-1.227-2.335C16.999,8.773,18.729,7.823,18.729,7.823z M15.226,16.025
	c-0.479,0-1.227-0.419-1.227-2.335c0-1.917,1.729-2.867,1.729-2.867s0.875,0.95,0.875,2.936
	C16.604,15.123,15.705,16.025,15.226,16.025z M18.31,18.001c-1.917,0-2.335-0.748-2.335-1.227c0-0.479,0.902-1.378,2.266-1.378
	c1.986,0,2.936,0.875,2.936,0.875S20.227,18.001,18.31,18.001z M21.31,15.001c-1.917,0-2.335-0.748-2.335-1.227
	s0.902-1.378,2.266-1.378c1.986,0,2.936,0.875,2.936,0.875S23.227,15.001,21.31,15.001z M24.736,11.902
	c-1.583,0.405-2.64-0.566-2.715-0.809c-0.075-0.243,0.494-1.183,1.776-1.668c1.735-0.647,3.277-0.354,3.202-0.273
	C26.924,10.122,26.019,11.578,24.736,11.902z M27.082,7.182c-1.224,1.213-2.601,0.758-2.831,0.606
	c-0.229-0.227-0.612-1.592,0.536-2.805c0.995-0.985,3.214-0.985,3.214-0.985S28.001,6.197,27.082,7.182z"/>
<path id="XMLID_7_" d="M15.726,10.823c0,0,0.875,0.95,0.875,2.936c0,1.364-0.899,2.266-1.378,2.266
	c-0.479,0-1.227-0.419-1.227-2.335C13.997,11.773,15.726,10.823,15.726,10.823z"/>
<path id="XMLID_4_" d="M18.308,18.001c-1.917,0-2.335-0.748-2.335-1.227c0-0.479,0.902-1.378,2.266-1.378
	c1.986,0,2.936,0.875,2.936,0.875S20.225,18.001,18.308,18.001z"/>
<path id="XMLID_5_" d="M12.224,19.025c-0.479,0-1.227-0.419-1.227-2.335c0-1.917,1.729-2.867,1.729-2.867s0.875,0.95,0.875,2.936
	C13.602,18.123,12.703,19.025,12.224,19.025z"/>
<path id="XMLID_8_" d="M15.308,21.001c-1.917,0-2.335-0.748-2.335-1.227c0-0.479,0.902-1.378,2.266-1.378
	c1.986,0,2.936,0.875,2.936,0.875S17.225,21.001,15.308,21.001z"/>
<path id="XMLID_2_" d="M9.226,22.023c-0.479,0-1.227-0.418-1.227-2.335c0-1.917,1.729-2.867,1.729-2.867s0.875,0.95,0.875,2.936
	C10.604,21.121,9.705,22.023,9.226,22.023z"/>
<path id="XMLID_1_" d="M12.31,23.999c-1.917,0-2.335-0.748-2.335-1.227s0.902-1.378,2.266-1.378c1.986,0,2.936,0.875,2.936,0.875
	S14.227,23.999,12.31,23.999z"/>
<path d="M8.479,23.519c-0.25-0.035-0.622-0.146-0.978-0.435l-3.5,3.5l1.414,1.414l3.5-3.5C8.625,24.142,8.514,23.769,8.479,23.519z"
	/>
</svg>
