<?xml version="1.0" encoding="iso-8859-1"?>
<!-- Generator: Adobe Illustrator 19.0.1, SVG Export Plug-In . SVG Version: 6.00 Build 0)  -->
<svg version="1.1" id="Layer_1" xmlns="http://www.w3.org/2000/svg" xmlns:xlink="http://www.w3.org/1999/xlink" x="0px" y="0px"
	 viewBox="0 0 32 32" style="enable-background:new 0 0 32 32;" xml:space="preserve">
<line style="fill:none;stroke:#000000;stroke-width:2;stroke-linejoin:round;stroke-miterlimit:10;" x1="21" y1="10" x2="25" y2="5"/>
<line style="fill:none;stroke:#000000;stroke-width:2;stroke-linejoin:round;stroke-miterlimit:10;" x1="18" y1="10" x2="19" y2="6"/>
<circle cx="26.5" cy="19.5" r="1.5"/>
<line style="fill:none;stroke:#000000;stroke-width:2;stroke-miterlimit:10;" x1="7" y1="18" x2="7" y2="16"/>
<path style="fill:none;stroke:#000000;stroke-width:2;stroke-miterlimit:10;" d="M15,17v-4c0,0-7.291,0-10.001,0
	C4.447,13,4,13.448,4,14v4.5C4,19.328,4.672,20,5.5,20h0C6.328,20,7,19.328,7,18.5V18l5,1.5c0,3.542,2.91,6.5,6.5,6.5
	c3.656,0,6.607-3.019,6.497-6.7c-0.107-3.557-3.21-6.3-6.77-6.3l-1.228,0"/>
</svg>
