<?xml version="1.0" encoding="iso-8859-1"?>
<!-- Generator: Adobe Illustrator 22.0.1, SVG Export Plug-In . SVG Version: 6.00 Build 0)  -->
<svg version="1.1" id="&#x421;&#x43B;&#x43E;&#x439;_1"
	 xmlns="http://www.w3.org/2000/svg" xmlns:xlink="http://www.w3.org/1999/xlink" x="0px" y="0px" viewBox="0 0 32 32"
	 style="enable-background:new 0 0 32 32;" xml:space="preserve">
<polyline style="fill:none;stroke:#000000;stroke-width:2;stroke-miterlimit:10;" points="17,23 4,23 4,9 26,9 26,17 "/>
<polygon points="29,13 29,19 28,19 26,18 26,13 "/>
<rect x="7" y="12" width="4" height="8"/>
<path d="M23,20v5h2v-5H23z M23,26v2h2v-2H23z M23,28h2v-2h-2V28z M23,20v5h2v-5H23z M31,20.14c-0.7-1.27-1.74-2.33-3-3.06
	C26.82,16.39,25.45,16,24,16c-4.4,0-8,3.6-8,8c0,4.4,3.6,8,8,8s8-3.6,8-8C32,22.6,31.64,21.29,31,20.14z M24,30c-3.3,0-6-2.7-6-6
	s2.7-6,6-6c1.53,0,2.93,0.59,4,1.54c0.47,0.42,0.87,0.91,1.18,1.46C29.7,21.88,30,22.91,30,24C30,27.3,27.3,30,24,30z M23,28h2v-2
	h-2V28z M23,25h2v-5h-2V25z"/>
</svg>
