<?xml version="1.0" encoding="iso-8859-1"?>
<!-- Generator: Adobe Illustrator 22.0.0, SVG Export Plug-In . SVG Version: 6.00 Build 0)  -->
<svg version="1.1" id="Layer_1" xmlns="http://www.w3.org/2000/svg" xmlns:xlink="http://www.w3.org/1999/xlink" x="0px" y="0px"
	 viewBox="0 0 32 32" style="enable-background:new 0 0 32 32;" xml:space="preserve">
<path style="fill:none;stroke:#000000;stroke-width:2;stroke-miterlimit:10;" d="M5.276,11.202C4.532,11.767,4,12.106,4,13.01
	c0,1.158,1.489,1.588,2.5,2.06c1.544,0.721,3,1.506,4.538,2.314c0.952,0.5,2.538,1.615,4.038,1.615c1.383,0,2.205-0.266,3.798-1.481
	c3-2.288,8.178-6.199,8.628-6.623c0.957-0.904,0.532-2.745-1.276-3.197c-1.18-0.295-2.22-0.506-5.743-1.469
	c-3.722-1.017-4.833-1.73-7.232-0.791c-1.089,0.426-2.499,1.618-4.041,2.825C7.89,9.297,6.45,10.311,5.276,11.202z"/>
<path d="M5.5,18c0.25,0,0.356,0.047,0.375,0.053c0.217,0.077,0.44,0.21,0.454,0.218c1.403,0.753,2.773,1.512,3.337,1.777
	C11.116,20.73,13.042,22,15.125,22c1.767,0,2.947-0.502,5.125-2c1.207-0.83,3.781-2.708,5.632-4.066
	c0.569-0.417,1.069-0.785,1.44-1.059l1.193-0.428c0.097-0.141,0.197-0.318,0.28-0.535C28.914,13.606,29,13.221,29,12.75
	c0-0.257-0.043-0.515-0.104-0.75c-0.147-0.564-0.445-0.965-0.445-0.965L17.257,19l-2.007,0.5L13.211,19l-9.27-4.831
	c0,0-0.941,0.39-0.941,1.765c0,0.418,0.129,0.858,0.486,1.45L5.5,18z"/>
<path d="M28.485,17.503c-0.05-0.05-0.179-0.209-0.179-0.209l-10.985,7.36L13.28,24.72l-9.475-4.836C3.433,20.172,3,20.662,3,21.375
	c0,1.36,1,1.875,1,1.875s4.657,2.31,5.066,2.551c1.625,0.957,4.159,2.074,5.957,2.074c1.979,0,3.294-0.255,5.858-1.763
	c2.103-1.237,6.048-4.109,6.883-4.729c0.003-0.003,0.007-0.002,0.01-0.005c0.006-0.005,0.01-0.01,0.016-0.015
	c0.004-0.003,0.01-0.008,0.014-0.01c0.002-0.001,0.002-0.005,0.004-0.006C28.996,20.388,29,19.322,29,18.875
	C29,18.082,28.545,17.563,28.485,17.503z"/>
<path d="M26,13h-0.125l0.007,2.934c0.233-0.159,0.49-0.148,0.63-0.13C26.706,15.829,27,16.117,27,16.394
	c0,0.484-0.22,0.929-0.992,1.624c-1.361,1-4.356,3.154-6.155,4.253C17.633,23.629,16.605,24,15.125,24
	c-2.018,0-4.327-1.241-5.091-1.649c-1.11-0.593-3.17-1.727-3.969-2.168C5.52,19.836,5,19.377,5,18.875C5,18.133,5.375,18,5.625,18
	c0.06,0,0.25,0,0.375,0l0.35-1.772c-1.206,0-3.35,0.537-3.35,2.647c0,1.085,0.839,2.188,1.779,2.851c0,0,3.471,1.938,4.313,2.388
	C10.607,24.924,12.881,26,15.139,26c2.082,0,3.516-0.652,5.758-2.021c1.428-0.873,7.019-5.451,7.019-5.451
	c0.723-0.697,1.084-1.511,1.083-2.586C28.997,13.912,27.347,13.174,26,13z"/>
</svg>
