<?xml version="1.0" encoding="iso-8859-1"?>
<!-- Generator: Adobe Illustrator 19.1.0, SVG Export Plug-In . SVG Version: 6.00 Build 0)  -->
<svg version="1.1" id="Layer_1" xmlns="http://www.w3.org/2000/svg" xmlns:xlink="http://www.w3.org/1999/xlink" x="0px" y="0px"
	 viewBox="0 0 32 32" style="enable-background:new 0 0 32 32;" xml:space="preserve">
<circle style="fill:none;stroke:#000000;stroke-width:2;stroke-miterlimit:10;" cx="16" cy="9" r="4"/>
<path d="M10.653,13.539C9.241,14.951,7,15,7,15s0.049-2.241,1.461-3.652C9.874,9.935,12,10,12,10S12.065,12.126,10.653,13.539z"/>
<g>
	<path d="M9,28v-4.037C9,20.124,12.124,17,15.963,17c2.211,0,4.311,1.064,5.616,2.848l2.933,4.001
		c0.562,0.765,0.638,1.764,0.2,2.607L23.911,28h2.253l0.323-0.622c0.79-1.523,0.651-3.328-0.362-4.711l-2.933-4.001
		C21.512,16.37,18.809,15,15.963,15C11.021,15,7,19.021,7,23.963V28H9z"/>
	<path d="M17.026,22.025c-0.556,0.554-0.897,1.262-0.992,2.023c-1.052-0.036-2.129,0.389-2.9,1.161l-1.059,1.059
		c-0.497,0.498-0.817,1.099-0.994,1.732h2.154c0.073-0.112,0.156-0.219,0.254-0.318l1.061-1.061
		c0.376-0.376,0.872-0.577,1.393-0.577c0.176,0,0.354,0.023,0.532,0.07l0.556,0.147l1.062-1.061l-0.069-0.494
		c-0.066-0.476,0.085-0.938,0.416-1.268c0.584-0.585,1.537-0.584,2.121,0C20.844,23.723,21,24.1,21,24.5s-0.156,0.777-0.439,1.061
		c-0.33,0.331-0.796,0.481-1.269,0.416l-0.493-0.069l-1.06,1.061l0.146,0.556c0.042,0.159,0.058,0.318,0.062,0.476h2.003
		c0-0.012,0.002-0.023,0.002-0.035c0.76-0.094,1.468-0.436,2.022-0.99C22.636,26.314,23,25.435,23,24.5s-0.364-1.814-1.025-2.475
		C20.609,20.66,18.39,20.661,17.026,22.025z"/>
</g>
</svg>
