<?xml version="1.0" encoding="iso-8859-1"?>
<!-- Generator: Adobe Illustrator 19.1.1, SVG Export Plug-In . SVG Version: 6.00 Build 0)  -->
<svg version="1.1" id="Layer_1" xmlns="http://www.w3.org/2000/svg" xmlns:xlink="http://www.w3.org/1999/xlink" x="0px" y="0px"
	 viewBox="0 0 32 32" style="enable-background:new 0 0 32 32;" xml:space="preserve">
<path style="fill:none;stroke:#000000;stroke-width:2;stroke-miterlimit:10;" d="M15.625,8.583l-2.836,9.563
	c-0.609,2.114-2.225,4.562-5.228,3.697s-3.068-3.798-2.459-5.912l2.836-9.563L15.625,8.583z"/>
<line style="fill:none;stroke:#000000;stroke-width:2;stroke-miterlimit:10;" x1="7.561" y1="21.844" x2="6.119" y2="26.953"/>
<line style="fill:none;stroke:#000000;stroke-width:2;stroke-miterlimit:10;" x1="2.275" y1="25.845" x2="9.963" y2="28.06"/>
<line style="fill:none;stroke:#000000;stroke-width:2;stroke-miterlimit:10;" x1="6" y1="13" x2="14" y2="13"/>
<path style="fill:none;stroke:#000000;stroke-width:2;stroke-miterlimit:10;" d="M16.479,7.507l2.719,9.64
	c0.609,2.114,2.225,4.562,5.228,3.697s3.068-3.798,2.459-5.912l-2.719-9.64L16.479,7.507z"/>
<line style="fill:none;stroke:#000000;stroke-width:2;stroke-miterlimit:10;" x1="24.427" y1="20.844" x2="25.869" y2="25.953"/>
<line style="fill:none;stroke:#000000;stroke-width:2;stroke-miterlimit:10;" x1="29.713" y1="24.845" x2="22.025" y2="27.06"/>
<line style="fill:none;stroke:#000000;stroke-width:2;stroke-miterlimit:10;" x1="25.988" y1="12" x2="17.988" y2="12"/>
</svg>
