<?xml version="1.0" encoding="iso-8859-1"?>
<!-- Generator: Adobe Illustrator 21.0.2, SVG Export Plug-In . SVG Version: 6.00 Build 0)  -->
<svg version="1.1"  xmlns="http://www.w3.org/2000/svg" xmlns:xlink="http://www.w3.org/1999/xlink" x="0px" y="0px"
	 viewBox="0 0 32 32" style="enable-background:new 0 0 32 32;" xml:space="preserve">
<circle cx="11" cy="15" r="2"/>
<circle cx="19.5" cy="21.5" r="1.5"/>
<circle cx="16" cy="16" r="1"/>
<circle cx="14" cy="11" r="1"/>
<circle cx="23.5" cy="5.5" r="1.5"/>
<circle cx="27" cy="11" r="1"/>
<circle cx="22" cy="10" r="1"/>
<circle cx="12.5" cy="20.5" r="1.5"/>
<path d="M14.053,6.19c0.199,1.287,0.946,2.396,1.994,3.081C16.016,9.513,16,9.757,16,10c0,3.308,2.692,6,6,6
	c0.498,0,0.991-0.063,1.47-0.185c0.682,0.624,1.548,1.035,2.484,1.151C25.466,22.029,21.188,26,16,26c-5.514,0-10-4.486-10-10
	C6,11.152,9.468,7.099,14.053,6.19 M16,4C9.373,4,4,9.373,4,16c0,6.627,5.373,12,12,12s12-5.373,12-12
	c0-0.486-0.037-0.963-0.094-1.434C27.506,14.839,27.022,15,26.5,15c-1.078,0-1.988-0.686-2.339-1.642C23.537,13.76,22.798,14,22,14
	c-2.209,0-4-1.791-4-4c0-0.735,0.212-1.414,0.558-2.006C18.538,7.995,18.52,8,18.5,8C17.119,8,16,6.881,16,5.5
	c0-0.557,0.188-1.066,0.496-1.481C16.331,4.012,16.167,4,16,4L16,4z"/>
</svg>
