<?xml version="1.0" encoding="iso-8859-1"?>
<!-- Generator: Adobe Illustrator 19.1.1, SVG Export Plug-In . SVG Version: 6.00 Build 0)  -->
<svg version="1.1" id="Layer_1" xmlns="http://www.w3.org/2000/svg" xmlns:xlink="http://www.w3.org/1999/xlink" x="0px" y="0px"
	 viewBox="0 0 32 32" style="enable-background:new 0 0 32 32;" xml:space="preserve">
<g>
	<g>
		<path style="fill:none;stroke:#000000;stroke-width:2;stroke-miterlimit:10;" d="M21.091,16.095
			c1.751-0.882,3.871-3.259,3.871-5.058c0-0.961-0.44-1.141-0.732-1.141c-0.65,0-1.211,1.678-4.23,2.103
			c-1.147-4.457-2.394-8-4.207-8c-1.983,0-3.524,4.591-4.717,9.56c-0.017,0.029-0.033,0.064-0.047,0.107
			c-0.493,1.517-5.006,3.11-5.006,4.702c0,1.22,2.155,0.814,3.977,0.631c-0.625,4.042-1,9-1,9h14C23,28,22.181,21.127,21.091,16.095
			z"/>
	</g>
</g>
<ellipse style="fill:none;stroke:#000000;stroke-width:2;stroke-linecap:round;stroke-linejoin:round;stroke-miterlimit:10;" cx="16" cy="23.5" rx="3" ry="1.5"/>
<ellipse style="fill:none;stroke:#000000;stroke-width:2;stroke-linecap:round;stroke-linejoin:round;stroke-miterlimit:10;" cx="15.793" cy="17.5" rx="2" ry="1.5"/>
<ellipse style="fill:none;stroke:#000000;stroke-width:2;stroke-linecap:round;stroke-linejoin:round;stroke-miterlimit:10;" cx="15.793" cy="12.5" rx="1" ry="0.5"/>
<line style="fill:none;stroke:#000000;stroke-width:2;stroke-linejoin:round;stroke-miterlimit:10;" x1="6" y1="28" x2="26" y2="28"/>
</svg>
