<?xml version="1.0" encoding="iso-8859-1"?>
<!-- Generator: Adobe Illustrator 19.1.1, SVG Export Plug-In . SVG Version: 6.00 Build 0)  -->
<svg version="1.1"  xmlns="http://www.w3.org/2000/svg" xmlns:xlink="http://www.w3.org/1999/xlink" x="0px" y="0px"
	 viewBox="0 0 32 32" style="enable-background:new 0 0 32 32;" xml:space="preserve">
<path d="M27.622,12.368c-0.648-0.355-1.393-0.438-2.103-0.229c-0.397,0.116-0.752,0.312-1.048,0.566
	c-0.152-0.134-0.32-0.252-0.502-0.352c-0.648-0.354-1.396-0.437-2.102-0.229c-0.391,0.113-0.741,0.299-1.036,0.541
	c-0.689-0.616-1.672-0.873-2.621-0.596c-0.207,0.061-0.4,0.143-0.578,0.242l-1.215-4.324c-0.428-1.462-1.968-2.305-3.429-1.877
	c-0.708,0.207-1.294,0.678-1.648,1.325c-0.355,0.647-0.436,1.395-0.233,2.089l3.171,11.457c-1.057,0.005-2.459,0.061-3.241,0.289
	c-2.428,0.709-4.473,3.254-3.978,4.952c0.232,0.792,0.49,1.238,0.518,1.286L7.868,28l4.046-0.004l6.375,0.552l0.567,0.491
	l1.31-1.512l-1.058-0.917L12,26H9.088c-0.034-0.096-0.07-0.205-0.106-0.326c-0.056-0.399,0.95-1.996,2.616-2.482
	c0.74-0.216,2.826-0.232,3.964-0.192l1.363,0.049l-3.894-14.07c-0.058-0.195-0.035-0.401,0.063-0.58s0.26-0.309,0.456-0.366
	c0.402-0.123,0.829,0.114,0.944,0.509l0.007,0.024l2.389,8.569l1.927-0.537l-0.473-1.696l0.015-0.004l-0.01-0.035
	c-0.087-0.325-0.027-0.74,0.422-0.871c0.405-0.118,0.829,0.114,0.951,0.53L20,15.433l0.191,0.833l1.949-0.447l-0.227-0.986
	c-0.042-0.165-0.032-0.316,0.038-0.444c0.086-0.158,0.254-0.28,0.474-0.344c0.195-0.057,0.403-0.034,0.581,0.063
	c0.179,0.099,0.309,0.261,0.357,0.422l0.179,0.703l1.963-0.354c-0.039-0.354,0.213-0.715,0.573-0.819
	c0.195-0.057,0.402-0.034,0.581,0.063c0.179,0.098,0.309,0.26,0.366,0.455l1.92-0.561C28.74,13.308,28.269,12.723,27.622,12.368z"/>
<g>
	<path d="M10.757,20.312c0.073-0.021,0.161-0.039,0.243-0.058V17h1.139l-0.554-2H11v-2.114l-0.852-3.08
		c-0.28-0.956-0.168-1.969,0.316-2.85c0.148-0.27,0.334-0.509,0.537-0.73V5h4v0.216c0.835,0.295,1.542,0.885,2,1.662V5h4v4h-3.29
		l0.514,2H23V3H3v2v18h3.982C7.85,21.798,9.209,20.764,10.757,20.312z M5,5h4v4H5V5z M5,11h4v4H5V11z M5,17h4v4H5V17z"/>
</g>
</svg>
