<?xml version="1.0" encoding="utf-8"?>
<!-- Generator: Adobe Illustrator 18.1.1, SVG Export Plug-In . SVG Version: 6.00 Build 0)  -->
<svg version="1.1" id="Layer_1" xmlns="http://www.w3.org/2000/svg" xmlns:xlink="http://www.w3.org/1999/xlink" x="0px" y="0px"
	 viewBox="0 0 32 32" enable-background="new 0 0 32 32" xml:space="preserve">
<path fill="none" stroke="#000000" stroke-width="2" stroke-miterlimit="10" d="M26,16.6c-0.3-0.6-1.3-0.9-2-1.1v-0.5
	C24,9.3,20.5,5,16,5S8,9.3,8,15.1v0.5c-0.7,0.1-1.7,0.5-2,1.1c0.2,0.9,0.8,2.4,2,2.7v0.1c0.8,3.5,4.7,7.5,8,7.5s7.2-4.1,8-7.5v-0.1
	C25.2,19,25.8,17.5,26,16.6z"/>
<g>
	<circle cx="26" cy="6" r="2"/>
</g>
<ellipse fill="none" stroke="#000000" stroke-width="2" stroke-miterlimit="10" cx="19.5" cy="16.5" rx="1.5" ry="2.5"/>
<ellipse fill="none" stroke="#000000" stroke-width="2" stroke-miterlimit="10" cx="12.5" cy="16.5" rx="1.5" ry="2.5"/>
<line fill="none" stroke="#000000" stroke-width="2" stroke-miterlimit="10" x1="14" y1="22" x2="18" y2="22"/>
<path fill="none" stroke="#000000" stroke-width="2" stroke-miterlimit="10" d="M23,11L23,11c1.7,0,3-1.3,3-3V7"/>
<g>
	<circle cx="6" cy="6" r="2"/>
</g>
<path fill="none" stroke="#000000" stroke-width="2" stroke-miterlimit="10" d="M9,11L9,11c-1.7,0-3-1.3-3-3V7"/>
</svg>
