<?xml version="1.0" encoding="utf-8"?>
<!-- Generator: Adobe Illustrator 18.1.1, SVG Export Plug-In . SVG Version: 6.00 Build 0)  -->
<svg version="1.1" id="Layer_1" xmlns="http://www.w3.org/2000/svg" xmlns:xlink="http://www.w3.org/1999/xlink" x="0px" y="0px"
	 viewBox="0 0 32 32" enable-background="new 0 0 32 32" xml:space="preserve">
<path fill="none" stroke="#000000" stroke-width="2" stroke-miterlimit="10" d="M22.3,23c-0.2,0.3-0.3,0.6-0.3,1c0,1.1,0.9,2,2,2
	s2-0.9,2-2c0-0.4-0.1-0.7-0.3-1H22.3z"/>
<path fill="none" stroke="#000000" stroke-width="2" stroke-miterlimit="10" d="M6.3,23C6.1,23.3,6,23.6,6,24c0,1.1,0.9,2,2,2
	s2-0.9,2-2c0-0.4-0.1-0.7-0.3-1H6.3z"/>
<polygon fill="none" stroke="#000000" stroke-width="2" stroke-miterlimit="10" points="28,9 16,6 4,9 4,23 28,23 "/>
<rect x="18" y="13" fill="none" stroke="#000000" stroke-width="2" stroke-miterlimit="10" width="6" height="10"/>
<rect x="8" y="13" fill="none" stroke="#000000" stroke-width="2" stroke-miterlimit="10" width="6" height="4"/>
</svg>
