<?xml version="1.0" encoding="iso-8859-1"?>
<!-- Generator: Adobe Illustrator 19.1.0, SVG Export Plug-In . SVG Version: 6.00 Build 0)  -->
<svg version="1.1" id="Layer_1" xmlns="http://www.w3.org/2000/svg" xmlns:xlink="http://www.w3.org/1999/xlink" x="0px" y="0px"
	 viewBox="0 0 32 32" style="enable-background:new 0 0 32 32;" xml:space="preserve">
<line style="fill:none;stroke:#000000;stroke-width:2;stroke-miterlimit:10;" x1="3" y1="3" x2="29" y2="29"/>
<g>
	<path d="M9.207,10.579c0.071-0.074,0.134-0.15,0.207-0.223c2.754-2.754,7.145-4.373,10.658-4.373c1.871,0,3.492,0.459,4.484,1.451
		c2.797,2.799,1.214,11.007-2.921,15.143c-0.073,0.073-0.149,0.136-0.223,0.207l1.414,1.414c0.074-0.071,0.15-0.134,0.223-0.207
		C27.609,19.43,29.845,9.896,25.97,6.02C21.989,2.039,12.604,4.338,8,8.941c-0.073,0.073-0.136,0.15-0.207,0.223L9.207,10.579z"/>
	<path d="M19.869,24.069c-1.666,1.183-3.458,1.845-5.273,1.923c-2.293,0.111-4.482-0.769-6.156-2.442
		c-1.664-1.663-2.519-3.86-2.41-6.186c0.086-1.815,0.737-3.595,1.895-5.24l-1.432-1.432c-1.504,2.03-2.351,4.268-2.46,6.578
		c-0.136,2.895,0.927,5.627,2.993,7.693C8.993,26.932,11.541,28,14.24,28c0.147,0,0.294-0.003,0.442-0.01
		c2.309-0.099,4.561-0.958,6.616-2.491L19.869,24.069z"/>
</g>
</svg>
