<?xml version="1.0" encoding="iso-8859-1"?>
<!-- Generator: Adobe Illustrator 19.1.0, SVG Export Plug-In . SVG Version: 6.00 Build 0)  -->
<svg version="1.1" id="Layer_1" xmlns="http://www.w3.org/2000/svg" xmlns:xlink="http://www.w3.org/1999/xlink" x="0px" y="0px"
	 viewBox="0 0 32 32" style="enable-background:new 0 0 32 32;" xml:space="preserve">
<line style="fill:none;stroke:#000000;stroke-width:2;stroke-miterlimit:10;" x1="3" y1="3" x2="29" y2="29"/>
<g>
	<path d="M10.889,12.26c0.292-0.254,0.585-0.507,0.865-0.788c0.923-0.923,1.567-1.912,2.134-2.784C15.07,6.873,15.717,6,17.5,6
		C19.43,6,21,7.57,21,9.5c0,2.103-0.698,6.546-3.109,9.762l1.414,1.414c0.786-0.994,1.439-2.096,1.96-3.252
		c0.697,0.583,1.404,1.045,2.047,1.463C25.127,20.07,26,20.717,26,22.5c0,1.318-0.741,2.454-1.82,3.051l1.459,1.459
		C27.064,26.015,28,24.366,28,22.5c0-2.946-1.829-4.137-3.598-5.288c-0.797-0.518-1.618-1.059-2.369-1.788
		C22.692,13.366,23,11.279,23,9.5C23,6.468,20.533,4,17.5,4c-2.946,0-4.137,1.829-5.288,3.598c-0.539,0.828-1.097,1.686-1.872,2.461
		c-0.274,0.274-0.569,0.532-0.867,0.786L10.889,12.26z"/>
	<path d="M17.036,8.734c-0.68,2.465-1.951,4.553-3.396,6.278l1.432,1.432c1.642-1.937,3.103-4.318,3.892-7.178L17.036,8.734z"/>
	<path d="M21.778,25.978c-1.964-0.106-4.582-0.641-6.95-1.82c1.183-0.492,2.217-1.185,3.119-2.011l-1.404-1.404
		C15.04,22.097,13.071,23,10.5,23c-0.927,0-1.789-0.282-2.505-0.765c1.354-0.764,3.581-2.191,5.723-4.318l-1.433-1.433
		c-2.217,2.196-4.541,3.609-5.679,4.228C6.231,20.056,6,19.308,6,18.5c0-2.261,1.464-3.474,3.339-4.961l-1.423-1.423
		C5.94,13.691,4,15.383,4,18.5c0,3.584,2.916,6.5,6.5,6.5c0.559,0,1.094-0.038,1.611-0.106C15.469,27.177,19.666,28,22.5,28
		c0.402,0,0.794-0.046,1.172-0.129L21.778,25.978z"/>
</g>
</svg>
