<?xml version="1.0" encoding="iso-8859-1"?>
<!-- Generator: Adobe Illustrator 19.1.0, SVG Export Plug-In . SVG Version: 6.00 Build 0)  -->
<svg version="1.1" id="Layer_1" xmlns="http://www.w3.org/2000/svg" xmlns:xlink="http://www.w3.org/1999/xlink" x="0px" y="0px"
	 viewBox="0 0 32 32" style="enable-background:new 0 0 32 32;" xml:space="preserve">
<path style="fill:none;stroke:#000000;stroke-width:2;stroke-miterlimit:10;" d="M22,13c0,0-3.105-1-6-1s-6,1-6,1V5h12V13z"/>
<circle cx="16" cy="8.5" r="1.5"/>
<path style="fill:none;stroke:#000000;stroke-width:2;stroke-miterlimit:10;" d="M13.541,12.806l-1.414,6.402
	c-0.243,0.08-0.479,0.177-0.702,0.299l-1.347-0.298c-0.539-0.119-1.073,0.221-1.192,0.761l-0.863,3.906
	c-0.119,0.539,0.221,1.073,0.761,1.192l1.347,0.298c0.554,0.752,1.359,1.324,2.343,1.542c0.984,0.217,1.955,0.037,2.774-0.411
	l1.347,0.298c0.539,0.119,1.073-0.222,1.192-0.761l0.863-3.906c0.119-0.539-0.221-1.073-0.761-1.192l-1.347-0.298
	c-0.151-0.205-0.324-0.392-0.51-0.567l1.609-7.177"/>
<circle cx="13.37" cy="23.065" r="1.5"/>
</svg>
