<?xml version="1.0" encoding="iso-8859-1"?>
<!-- Generator: Adobe Illustrator 21.0.2, SVG Export Plug-In . SVG Version: 6.00 Build 0)  -->
<svg version="1.1"  xmlns="http://www.w3.org/2000/svg" xmlns:xlink="http://www.w3.org/1999/xlink" x="0px" y="0px"
	 viewBox="0 0 32 32" style="enable-background:new 0 0 32 32;" xml:space="preserve">
<path style="fill:none;stroke:#000000;stroke-width:2;stroke-miterlimit:10;" d="M21,17.182V26c0,0.6-0.4,1-1,1H8c-0.6,0-1-0.4-1-1
	V6c0-0.6,0.4-1,1-1h12c0.6,0,1,0.4,1,1v3"/>
<line style="fill:none;stroke:#000000;stroke-width:2;stroke-miterlimit:10;" x1="12" y1="24" x2="16" y2="24"/>
<polygon style="fill:none;stroke:#000000;stroke-width:2;stroke-miterlimit:10;" points="27,18 20,18 17,20 17,18 15,18 15,8 27,8 
	"/>
<circle cx="21" cy="10.6" r="0.6"/>
<circle cx="21" cy="15.4" r="0.6"/>
<path d="M22.8,14.2v-1.8c0-0.994-0.806-1.8-1.8-1.8s-1.8,0.806-1.8,1.8v1.8c0,0.331-0.269,0.6-0.6,0.6v0.6h4.8v-0.6
	C23.069,14.8,22.8,14.531,22.8,14.2z"/>
</svg>
