<?xml version="1.0" encoding="iso-8859-1"?>
<!-- Generator: Adobe Illustrator 19.1.0, SVG Export Plug-In . SVG Version: 6.00 Build 0)  -->
<svg version="1.1" id="Layer_1" xmlns="http://www.w3.org/2000/svg" xmlns:xlink="http://www.w3.org/1999/xlink" x="0px" y="0px"
	 viewBox="0 0 32 32" style="enable-background:new 0 0 32 32;" xml:space="preserve">
<polygon points="17,28 15,28 14,27 14,26.5 18,26.5 18,27 "/>
<path style="fill:none;stroke:#000000;stroke-width:2;stroke-miterlimit:10;" d="M18,26h-4c-0.552,0-1-0.448-1-1v-3h6v3
	C19,25.552,18.552,26,18,26z"/>
<path style="fill:none;stroke:#000000;stroke-width:2;stroke-linecap:round;stroke-miterlimit:10;" d="M13,22c-0.552,0-1-0.448-1-1
	v-3.2c0-2.388-5-4.971-5-9.4C7,7.073,10.981,5,16,5s9,2.073,9,3.4c0,4.429-5,7.012-5,9.4V21c0,0.552-0.448,1-1,1H13z"/>
</svg>
