<?xml version="1.0" encoding="iso-8859-1"?>
<!-- Generator: Adobe Illustrator 19.1.1, SVG Export Plug-In . SVG Version: 6.00 Build 0)  -->
<svg version="1.1" id="Layer_1" xmlns="http://www.w3.org/2000/svg" xmlns:xlink="http://www.w3.org/1999/xlink" x="0px" y="0px"
	 viewBox="-8 10 32 32" style="enable-background:new -8 10 32 32;" xml:space="preserve">
<path d="M12.618,38H3.382L8,28.764L12.618,38z M6.618,36h2.764L8,33.236L6.618,36z"/>
<path d="M13,34c-2.085,0-3.924-1.068-5-2.687C6.924,32.932,5.084,34,3,34c-3.309,0-6-2.691-6-6c0-6.391,10.009-13.322,10.435-13.614
	l0.56-0.384l0.563,0.379C8.984,14.668,19,21.48,19,28C19,31.309,16.309,34,13,34z M7,28h2c0,2.206,1.794,4,4,4s4-1.794,4-4
	c0-4.237-6.04-9.447-8.995-11.567C5.048,18.587-1,23.853-1,28c0,2.206,1.794,4,4,4S7,30.206,7,28z"/>
</svg>
