<?xml version="1.0" encoding="iso-8859-1"?>
<!-- Generator: Adobe Illustrator 19.1.0, SVG Export Plug-In . SVG Version: 6.00 Build 0)  -->
<svg version="1.1" id="Layer_1" xmlns="http://www.w3.org/2000/svg" xmlns:xlink="http://www.w3.org/1999/xlink" x="0px" y="0px"
	 viewBox="0 0 32 32" style="enable-background:new 0 0 32 32;" xml:space="preserve">
<polygon points="17,27.5 20,21 17,20 17,14.5 14,20.969 17,21.969 "/>
<path d="M28.997,12.802C28.892,9.585,26.242,7,23,7c-0.389,0-0.777,0.042-1.173,0.127C20.537,5.18,18.372,4,16,4
	c-3.226,0-6.041,2.257-6.794,5.344c-1.247,0.483-2.257,1.455-2.788,2.672C2.921,11.757,0,14.553,0,18c0,3.309,2.691,6,6,6h8v-1l-3-1
	H6c-2.206,0-4-1.794-4-4s1.794-4,4-4c0.277,0,0.565,0.035,0.881,0.106l0.979,0.22l0.217-0.979c0.246-1.106,1.12-1.991,2.227-2.255
	l0.658-0.157l0.099-0.669C11.42,7.833,13.543,6,16,6c1.894,0,3.603,1.054,4.46,2.751l0.396,0.783l0.828-0.29
	C22.151,9.08,22.582,9,23,9c2.206,0,4,1.794,4,4c0,0.038-0.008,0.075-0.013,0.112c-0.009,0.068-0.018,0.136-0.024,0.206l-0.06,0.72
	l0.665,0.283C29.045,14.951,30,16.395,30,18c0,2.206-1.794,4-4,4h-4l-1,2h5c3.309,0,6-2.691,6-6
	C32,15.835,30.842,13.865,28.997,12.802z"/>
</svg>
