<?xml version="1.0" encoding="iso-8859-1"?>
<!-- Generator: Adobe Illustrator 19.0.1, SVG Export Plug-In . SVG Version: 6.00 Build 0)  -->
<svg version="1.1" id="Layer_1" xmlns="http://www.w3.org/2000/svg" xmlns:xlink="http://www.w3.org/1999/xlink" x="0px" y="0px"
	 viewBox="0 0 32 32" style="enable-background:new 0 0 32 32;" xml:space="preserve">
<g id="XMLID_351_">
	<path id="XMLID_350_" style="fill:none;stroke:#000000;stroke-width:2;stroke-linejoin:round;stroke-miterlimit:10;" d="
		M24.404,13.775c0.779-0.228,1.518-0.626,2.132-1.24c1.953-1.953,1.953-5.118,0-7.071c-1.953-1.953-5.118-1.953-7.071,0
		c-0.614,0.614-1.012,1.353-1.24,2.132"/>
</g>
<path id="XMLID_397_" style="fill:none;stroke:#000000;stroke-width:2;stroke-miterlimit:10;" d="M23.527,18.113l-1.457,1.457
	L12.43,9.931l1.457-1.457c1.562-1.562,4.095-1.562,5.657,0l3.982,3.982C25.089,14.018,25.089,16.55,23.527,18.113z"/>
<g id="XMLID_402_">
	<path id="XMLID_403_" style="fill:none;stroke:#000000;stroke-width:2;stroke-linejoin:round;stroke-miterlimit:10;" d="
		M7.596,18.225c-0.779,0.228-1.518,0.626-2.132,1.24c-1.953,1.953-1.953,5.118,0,7.071c1.953,1.953,5.118,1.953,7.071,0
		c0.614-0.614,1.012-1.353,1.24-2.132"/>
</g>
<path id="XMLID_401_" style="fill:none;stroke:#000000;stroke-width:2;stroke-miterlimit:10;" d="M8.473,13.887l1.457-1.457
	l9.639,9.639l-1.457,1.457c-1.562,1.562-4.095,1.562-5.657,0l-3.982-3.982C6.911,17.982,6.911,15.45,8.473,13.887z"/>
</svg>
