<?xml version="1.0" encoding="iso-8859-1"?>
<!-- Generator: Adobe Illustrator 19.1.1, SVG Export Plug-In . SVG Version: 6.00 Build 0)  -->
<svg version="1.1" id="Layer_1" xmlns="http://www.w3.org/2000/svg" xmlns:xlink="http://www.w3.org/1999/xlink" x="0px" y="0px"
	 viewBox="0 0 32 32" style="enable-background:new 0 0 32 32;" xml:space="preserve">
<path style="fill:none;stroke:#000000;stroke-width:2;stroke-miterlimit:10;" d="M24,14.75C21.937,7.188,14,8,14,8"/>
<path style="fill:none;stroke:#000000;stroke-width:2;stroke-miterlimit:10;" d="M22,8c0,0-0.063-4-6-4c-4.805,0-7.625,3-7.625,3
	s3.337,5,8.625,5c2.625,0,4-1,4-1"/>
<path style="fill:none;stroke:#000000;stroke-width:2;stroke-miterlimit:10;" d="M15.91,16c0,0-1.953,3-5.91,3c-3.973,0-5-2-5-2H4v8
	h25c0,0,0.344-5-4-5c-6.653,0-9-4-9-4l0,0L15.91,16z"/>
<rect x="4" y="25" style="fill:none;stroke:#000000;stroke-width:2;stroke-miterlimit:10;" width="25" height="3"/>
</svg>
