<?xml version="1.0" encoding="iso-8859-1"?>
<!-- Generator: Adobe Illustrator 21.1.0, SVG Export Plug-In . SVG Version: 6.00 Build 0)  -->
<svg version="1.1" id="Layer_1" xmlns="http://www.w3.org/2000/svg" xmlns:xlink="http://www.w3.org/1999/xlink" x="0px" y="0px"
	 viewBox="0 0 32 32" style="enable-background:new 0 0 32 32;" xml:space="preserve">
<path d="M19.586,9c0.135,0.135,0.299,0.347,0.376,0.519c0.023,0.047,0.035,0.093,0.047,0.135c0.158,0.544,0.088,1.462-0.047,1.939
	l-1.614,5.185L16,10.556l-2.347,6.222l-1.614-5.185c-0.135-0.472-0.205-1.374-0.053-1.924c0.018-0.057,0.035-0.104,0.053-0.15
	C12.115,9.342,12.273,9.14,12.414,9H7l0.734,0.835c0.469,0.539,0.804,1.141,0.986,1.753l1.989,8.944
	c0.117,0.42,0.053,1.343-0.129,1.768L10.286,23h4.54h0.147l-0.147-0.519c0,0-0.088-0.337,0-1.037c0.088-0.705,1.174-3.63,1.174-3.63
	s1.086,2.924,1.174,3.63c0.088,0.7,0,1.037,0,1.037L17.027,23h4.687l-0.293-0.7c-0.182-0.425-0.246-1.348-0.129-1.768l1.978-8.913
	c0.194-0.643,0.528-1.244,0.998-1.784L25,9H19.586z"/>
<path d="M10.38,24H8.37c0.09,0.69,0.2,1.37,0.33,2H5.3C5.99,22.77,6,18.22,6,18v-3c0-0.19-0.01-3.07-0.28-5.94L4.79,8h0.82
	C5.52,7.3,5.42,6.62,5.29,6h3.42C8.58,6.62,8.48,7.3,8.39,8h2.01c0.14-1.03,0.32-1.98,0.55-2.68L11.39,4H2.61l0.44,1.32
	C3.99,8.13,4,14.93,4,15v3c0,0.06-0.01,5.87-0.95,8.68L2.61,28h8.78l-0.44-1.32C10.7,25.94,10.52,25,10.38,24z"/>
<path d="M19.95,26.68C19.7,25.94,19.52,25,19.38,24h-2.01c0.09,0.69,0.2,1.37,0.33,2h-3.4c0.13-0.63,0.24-1.31,0.33-2h-2.01
	c-0.14,1-0.32,1.94-0.57,2.68L11.61,28h8.78L19.95,26.68z M11.61,4l0.44,1.32c0.23,0.7,0.41,1.65,0.55,2.68h2.01
	c-0.09-0.7-0.19-1.38-0.32-2h3.42c-0.13,0.62-0.23,1.3-0.32,2h2.01c0.14-1.03,0.32-1.98,0.55-2.68L20.39,4H11.61z"/>
<path d="M28,18v-3c0-0.07,0.01-6.87,0.95-9.68L29.39,4h-8.78l0.44,1.32c0.23,0.7,0.41,1.65,0.55,2.68h2.01
	c-0.09-0.7-0.19-1.38-0.32-2h3.42c-0.13,0.62-0.23,1.3-0.32,2h0.82l-0.93,1.06C26.01,11.93,26,14.81,26,15v3c0,0.22,0.01,4.77,0.7,8
	h-3.4c0.13-0.63,0.24-1.31,0.33-2h-2.01c-0.14,1-0.32,1.94-0.57,2.68L20.61,28h8.78l-0.44-1.32C28.01,23.87,28,18.06,28,18z"/>
</svg>
