<svg xmlns="http://www.w3.org/2000/svg" fill-rule="evenodd" stroke-linejoin="round" stroke-miterlimit="2" clip-rule="evenodd" viewBox="0 0 400 400"><defs/><path fill="none" d="M0 0h400v400H0z"/><path fill="#2196f3" fill-rule="nonzero" d="M229.238 275.304c-.075.025-6.987 2.325-12.987 2.325-3.312 0-4.65-.687-5.075-.987-2.1-1.463-6-4.2.675-17.5l12.5-24.924c7.412-14.8 8.512-29.112 3.062-40.312-4.45-9.162-12.987-15.449-23.999-17.699a59.668 59.668 0 00-11.975-1.213c-23.112 0-38.674 13.5-39.324 14.075a6.262 6.262 0 00-1.275 7.825 6.244 6.244 0 007.438 2.775c.062-.025 6.987-2.338 12.987-2.338 3.287 0 4.612.688 5.025.975 2.112 1.475 6.024 4.25-.638 17.525l-12.499 24.937c-7.425 14.812-8.513 29.124-3.063 40.311 4.45 9.162 12.975 15.449 24.012 17.699 3.925.788 7.95 1.213 11.925 1.213 23.124 0 38.698-13.5 39.348-14.075 2.238-1.962 2.763-5.25 1.275-7.825-1.5-2.562-4.612-3.712-7.412-2.787zm-10.487-175.295c17.247 0 31.249 14.002 31.249 31.249s-14.002 31.249-31.249 31.249-31.249-14.002-31.249-31.249 14.002-31.249 31.249-31.249z"/></svg>